0, 0, Header, 1, 18, 192
1, 0, Start_track
1, 0, Title_t, "untitled"
1, 0, Time_signature, 4, 2, 24, 8
1, 0, Key_signature, 0, "major"
1, 0, Tempo, 389610
1, 2112, Tempo, 394737
1, 2256, Tempo, 410959
1, 2304, Tempo, 379747
1, 2496, Tempo, 384615
1, 2880, Tempo, 392157
1, 2976, Tempo, 416667
1, 3072, Tempo, 405405
1, 3216, Tempo, 416667
1, 3264, Tempo, 419580
1, 3648, Tempo, 394737
1, 4992, Tempo, 430108
1, 5376, Tempo, 389610
1, 6072, Tempo, 428571
1, 6144, Tempo, 392157
1, 6688, Tempo, 674157
1, 6720, Tempo, 397351
1, 6880, Tempo, 444444
1, 6912, Tempo, 392157
1, 7658, Tempo, 495868
1, 7680, Tempo, 392157
1, 7778, Tempo, 416667
1, 7872, Tempo, 394737
1, 7965, Tempo, 416667
1, 8064, Tempo, 394737
1, 8256, Tempo, 441176
1, 8448, Tempo, 389610
1, 9144, Tempo, 434783
1, 9216, Tempo, 400000
1, 9760, Tempo, 416667
1, 9984, Tempo, 410959
1, 10176, Tempo, 392157
1, 10680, Tempo, 461538
1, 10752, Tempo, 365854
1, 11256, Tempo, 821918
1, 11328, Tempo, 400000
1, 11904, Tempo, 405405
1, 12288, Tempo, 389610
1, 13056, Tempo, 394737
1, 13824, Tempo, 389610
1, 15264, Tempo, 402685
1, 15360, Tempo, 397351
1, 15360, Marker_t, "A"
1, 15552, Tempo, 387097
1, 16080, Tempo, 410959
1, 16128, Tempo, 394737
1, 16832, Tempo, 346821
1, 16896, Tempo, 405405
1, 16960, Tempo, 389610
1, 17616, Tempo, 384615
1, 17664, Tempo, 394737
1, 18368, Tempo, 346821
1, 18432, Tempo, 405405
1, 18496, Tempo, 389610
1, 19152, Tempo, 410959
1, 19200, Tempo, 394737
1, 19904, Tempo, 352941
1, 19968, Tempo, 405405
1, 20032, Tempo, 389610
1, 20688, Tempo, 410959
1, 20736, Tempo, 389610
1, 20928, Tempo, 394737
1, 21484, Tempo, 493827
1, 21504, Tempo, 394737
1, 22248, Tempo, 493827
1, 22272, Tempo, 394737
1, 23016, Tempo, 493827
1, 23040, Tempo, 396301
1, 23808, Tempo, 392157
1, 27648, Tempo, 394737
1, 28752, Tempo, 422535
1, 28800, Tempo, 382166
1, 28944, Tempo, 454545
1, 28992, Tempo, 397351
1, 29136, Tempo, 555556
1, 29184, Tempo, 400000
1, 30912, Tempo, 461538
1, 31104, Tempo, 413793
1, 31285, Tempo, 408163
1, 31488, Tempo, 405405
1, 31872, Tempo, 422535
1, 32064, Tempo, 416667
1, 32256, Tempo, 419580
1, 32256, Marker_t, "B (2nd subject)"
1, 32448, Tempo, 405405
1, 32832, Tempo, 400000
1, 33600, Tempo, 413793
1, 33792, Tempo, 405405
1, 34176, Tempo, 400000
1, 36864, Tempo, 410959
1, 37192, Tempo, 431655
1, 37248, Tempo, 413793
1, 37440, Tempo, 410959
1, 38208, Tempo, 441176
1, 38376, Tempo, 510638
1, 38400, Tempo, 408163
1, 38784, Tempo, 402685
1, 39168, Tempo, 405405
1, 39770, Tempo, 416667
1, 40128, Tempo, 402685
1, 40320, Tempo, 400000
1, 47232, Tempo, 397351
1, 48384, Tempo, 408163
1, 48768, Tempo, 422535
1, 48960, Tempo, 425532
1, 49152, Tempo, 392157
1, 49152, Marker_t, "C (codetta)"
1, 56832, Marker_t, "D (sfp)"
1, 57184, Tempo, 389610
1, 62976, Marker_t, "E (forte)"
1, 63072, Tempo, 384615
1, 63680, Tempo, 405405
1, 63744, Tempo, 388350
1, 67584, Tempo, 384615
1, 68256, Tempo, 389610
1, 68448, Tempo, 387097
1, 70848, Tempo, 392157
1, 71372, Tempo, 416667
1, 71424, Tempo, 392157
1, 72140, Tempo, 410959
1, 72192, Tempo, 389610
1, 73632, Tempo, 400000
1, 73680, Tempo, 422535
1, 73728, Tempo, 389610
1, 74400, Tempo, 428571
1, 74496, Tempo, 389610
1, 75168, Tempo, 428571
1, 75264, Tempo, 389610
1, 75936, Tempo, 428571
1, 76032, Tempo, 397351
1, 76180, Tempo, 410959
1, 76224, Tempo, 397351
1, 76416, Tempo, 408163
1, 76764, Tempo, 493827
1, 76800, Tempo, 422535
1, 76944, Tempo, 566038
1, 76992, Tempo, 405405
1, 77184, Tempo, 402685
1, 77376, Tempo, 416667
1, 77568, Tempo, 397351
1, 78912, Tempo, 405405
1, 79104, Tempo, 410959
1, 79488, Tempo, 419580
1, 79772, Tempo, 422535
1, 79872, Tempo, 389610
1, 82848, Tempo, 400000
1, 82944, Tempo, 389610
1, 83616, Tempo, 392157
1, 83664, Tempo, 405405
1, 83712, Tempo, 389610
1, 84432, Tempo, 410959
1, 84480, Tempo, 389610
1, 85200, Tempo, 400000
1, 85248, Tempo, 392157
1, 85968, Tempo, 447761
1, 86016, Tempo, 422535
1, 86016, Marker_t, "F (development)"
1, 86208, Tempo, 493827
1, 86304, Tempo, 400000
1, 86592, Tempo, 437956
1, 86688, Tempo, 400000
1, 87168, Tempo, 405405
1, 87504, Tempo, 493827
1, 87552, Tempo, 394737
1, 88640, Tempo, 441176
1, 88704, Tempo, 394737
1, 89024, Tempo, 510638
1, 89088, Tempo, 394737
1, 90176, Tempo, 431655
1, 90240, Tempo, 394737
1, 90560, Tempo, 478088
1, 90624, Tempo, 394737
1, 91712, Tempo, 431655
1, 91776, Tempo, 394737
1, 92096, Tempo, 478088
1, 92160, Tempo, 394737
1, 93248, Tempo, 431655
1, 93312, Tempo, 394737
1, 93632, Tempo, 478088
1, 93696, Tempo, 394737
1, 94784, Tempo, 431655
1, 94848, Tempo, 394737
1, 95168, Tempo, 478088
1, 95232, Tempo, 394737
1, 96000, Tempo, 405405
1, 96320, Tempo, 431655
1, 96384, Tempo, 413793
1, 96704, Tempo, 451128
1, 96768, Tempo, 402685
1, 96768, Marker_t, "G (development 2)"
1, 96960, Tempo, 392157
1, 99776, Tempo, 405405
1, 99840, Tempo, 402685
1, 100176, Tempo, 465116
1, 100224, Tempo, 397351
1, 102912, Tempo, 410959
1, 102912, Marker_t, "H (development 3)"
1, 103008, Tempo, 408163
1, 103104, Tempo, 397351
1, 103488, Tempo, 408163
1, 103584, Tempo, 413793
1, 103680, Tempo, 402685
1, 103872, Tempo, 400000
1, 104256, Tempo, 408163
1, 104448, Tempo, 413793
1, 104640, Tempo, 400000
1, 105120, Tempo, 413793
1, 105216, Tempo, 410959
1, 105312, Tempo, 405405
1, 105792, Tempo, 410959
1, 105888, Tempo, 410959
1, 106080, Tempo, 408163
1, 106176, Tempo, 400000
1, 106560, Tempo, 410959
1, 106656, Tempo, 434783
1, 106752, Tempo, 402685
1, 107072, Tempo, 437956
1, 107136, Tempo, 405405
1, 107456, Tempo, 437956
1, 107520, Tempo, 413793
1, 107712, Tempo, 400000
1, 108192, Tempo, 422535
1, 108288, Tempo, 405405
1, 109008, Tempo, 437956
1, 109056, Tempo, 422535
1, 109248, Tempo, 401338
1, 109728, Tempo, 413793
1, 109888, Tempo, 410959
1, 110144, Tempo, 476190
1, 110208, Tempo, 454545
1, 110272, Tempo, 410959
1, 110528, Tempo, 465116
1, 110592, Tempo, 422535
1, 110784, Tempo, 408163
1, 110880, Tempo, 401338
1, 111264, Tempo, 416667
1, 111456, Tempo, 410959
1, 111744, Tempo, 437956
1, 111840, Tempo, 425532
1, 112032, Tempo, 437956
1, 112128, Tempo, 416667
1, 112704, Tempo, 431655
1, 112800, Tempo, 458015
1, 112896, Tempo, 416667
1, 113472, Tempo, 437956
1, 113568, Tempo, 444444
1, 113664, Tempo, 413793
1, 114112, Tempo, 400000
1, 114368, Tempo, 451128
1, 114432, Tempo, 413793
1, 114880, Tempo, 400000
1, 115136, Tempo, 458015
1, 115200, Tempo, 410959
1, 115264, Tempo, 400000
1, 116672, Tempo, 508475
1, 116736, Tempo, 397351
1, 117024, Tempo, 465116
1, 117120, Tempo, 397351
1, 117408, Tempo, 465116
1, 117504, Tempo, 397351
1, 117888, Tempo, 437956
1, 118272, Tempo, 397351
1, 118560, Tempo, 451128
1, 118656, Tempo, 397351
1, 118944, Tempo, 451128
1, 119040, Tempo, 397351
1, 119424, Tempo, 478088
1, 119808, Tempo, 397351
1, 120960, Tempo, 463320
1, 121344, Tempo, 389610
1, 121344, Marker_t, "I (Recap)"
1, 122688, Tempo, 394737
1, 122832, Tempo, 410959
1, 122880, Tempo, 375000
1, 123072, Tempo, 384615
1, 123264, Tempo, 389610
1, 123456, Tempo, 392157
1, 123648, Tempo, 405405
1, 123792, Tempo, 416667
1, 123840, Tempo, 410959
1, 124224, Tempo, 394737
1, 124416, Tempo, 387097
1, 131136, Tempo, 392157
1, 133632, Tempo, 400000
1, 135360, Tempo, 461538
1, 135552, Tempo, 410959
1, 135936, Tempo, 416667
1, 136320, Tempo, 434783
1, 136512, Tempo, 441176
1, 136704, Tempo, 416667
1, 136704, Marker_t, "J (Recap: second subject)"
1, 136896, Tempo, 410959
1, 137472, Tempo, 402685
1, 138048, Tempo, 416667
1, 138240, Tempo, 408163
1, 138624, Tempo, 402145
1, 140736, Tempo, 402685
1, 141312, Tempo, 416667
1, 141640, Tempo, 437956
1, 141696, Tempo, 408163
1, 142656, Tempo, 428571
1, 142824, Tempo, 491803
1, 142848, Tempo, 408163
1, 143232, Tempo, 405405
1, 143616, Tempo, 402685
1, 144576, Tempo, 402685
1, 150528, Tempo, 405405
1, 151680, Tempo, 402685
1, 152832, Tempo, 408163
1, 153216, Tempo, 413793
1, 153408, Tempo, 419580
1, 153600, Tempo, 394737
1, 153600, Marker_t, "K (coda: fp)"
1, 153952, Tempo, 387097
1, 159744, Tempo, 387097
1, 159744, Marker_t, "L (coda: forte)"
1, 160512, Tempo, 389610
1, 163584, Tempo, 392157
1, 164288, Tempo, 405405
1, 164352, Tempo, 389610
1, 165984, Tempo, 387097
1, 166656, Tempo, 389610
1, 169728, Tempo, 392157
1, 175104, Tempo, 397351
1, 175252, Tempo, 410959
1, 175296, Tempo, 419580
1, 175488, Tempo, 431655
1, 175836, Tempo, 454545
1, 175872, Tempo, 422535
1, 176064, Tempo, 410959
1, 176448, Tempo, 425532
1, 176640, Tempo, 394737
1, 177984, Tempo, 405405
1, 178176, Tempo, 402685
1, 178560, Tempo, 405405
1, 178844, Tempo, 416667
1, 178944, Tempo, 389610
1, 182016, Marker_t, "M (coda: opening figure)"
1, 183360, Tempo, 394737
1, 183504, Tempo, 410959
1, 183552, Tempo, 382166
1, 183744, Tempo, 387097
1, 183936, Tempo, 389610
1, 184128, Tempo, 392157
1, 184320, Tempo, 405405
1, 184464, Tempo, 416667
1, 184512, Tempo, 392157
1, 184896, Tempo, 394737
1, 186240, Tempo, 434783
1, 186624, Tempo, 389610
1, 187320, Tempo, 434783
1, 187392, Tempo, 400000
1, 187936, Tempo, 402685
1, 188160, Tempo, 410959
1, 188352, Tempo, 392157
1, 188856, Tempo, 461538
1, 188928, Tempo, 375000
1, 189432, Tempo, 638298
1, 189504, Tempo, 397351
1, 191232, Tempo, 394737
1, 191424, Tempo, 384615
1, 192768, Tempo, 400000
1, 192960, Tempo, 384615
1, 194112, Tempo, 397351
1, 194208, Tempo, 419580
1, 194304, Tempo, 387097
1, 201216, Tempo, 397351
1, 201792, Tempo, 431655
1, 201984, Tempo, 375000
1, 202296, Tempo, 759494
1, 202368, Tempo, 416667
1, 202595, Tempo, 588235
1, 202656, Tempo, 530973
1, 202752, Tempo, 563380
1, 203520, Tempo, 483871
1, 203520, End_track
2, 0, Start_track
2, 0, MIDI_port, 0
2, 0, Title_t, "Oboe 1"
2, 0, Program_c, 0, 68
2, 0, Control_c, 0, 7, 102
2, 0, Control_c, 0, 10, 71
2, 0, Text_t, ""
2, 96, Control_c, 0, 121, 0
2, 192, Control_c, 0, 91, 54
2, 288, Control_c, 0, 10, 71
2, 384, Control_c, 0, 93, 5
2, 768, Control_c, 0, 11, 123
2, 776, Note_on_c, 0, 79, 109
2, 781, Control_c, 0, 11, 125
2, 788, Control_c, 0, 11, 126
2, 802, Control_c, 0, 11, 127
2, 836, Control_c, 0, 11, 127
2, 864, Control_c, 0, 11, 126
2, 891, Control_c, 0, 11, 125
2, 912, Control_c, 0, 11, 124
2, 939, Control_c, 0, 11, 123
2, 960, Control_c, 0, 11, 122
2, 987, Control_c, 0, 11, 121
2, 1008, Control_c, 0, 11, 120
2, 1014, Control_c, 0, 11, 119
2, 1021, Control_c, 0, 11, 118
2, 1028, Control_c, 0, 11, 117
2, 1035, Control_c, 0, 11, 116
2, 1042, Control_c, 0, 11, 115
2, 1049, Control_c, 0, 11, 114
2, 1056, Control_c, 0, 11, 113
2, 1062, Control_c, 0, 11, 112
2, 1069, Control_c, 0, 11, 111
2, 1076, Control_c, 0, 11, 109
2, 1083, Control_c, 0, 11, 108
2, 1090, Control_c, 0, 11, 107
2, 1097, Control_c, 0, 11, 105
2, 1104, Control_c, 0, 11, 104
2, 1110, Control_c, 0, 11, 103
2, 1117, Control_c, 0, 11, 101
2, 1124, Control_c, 0, 11, 100
2, 1131, Control_c, 0, 11, 98
2, 1184, Note_on_c, 0, 79, 0
2, 1433, Control_c, 0, 11, 127
2, 1488, Note_on_c, 0, 60, 116
2, 1518, Note_on_c, 0, 60, 0
2, 1536, Note_on_c, 0, 60, 116
2, 1584, Control_c, 0, 11, 127
2, 1604, Control_c, 0, 11, 125
2, 1611, Control_c, 0, 11, 124
2, 1632, Control_c, 0, 11, 122
2, 1652, Control_c, 0, 11, 119
2, 1666, Control_c, 0, 11, 118
2, 1673, Control_c, 0, 11, 115
2, 1686, Control_c, 0, 11, 112
2, 1693, Control_c, 0, 11, 110
2, 1707, Control_c, 0, 11, 109
2, 1714, Control_c, 0, 11, 106
2, 1728, Control_c, 0, 11, 104
2, 1734, Control_c, 0, 11, 103
2, 1981, Control_c, 0, 11, 103
2, 2016, Control_c, 0, 11, 101
2, 2036, Control_c, 0, 11, 100
2, 2072, Note_on_c, 0, 60, 0
2, 2077, Control_c, 0, 11, 98
2, 2084, Control_c, 0, 11, 97
2, 2098, Control_c, 0, 11, 95
2, 2118, Control_c, 0, 11, 94
2, 2304, Note_on_c, 0, 60, 116
2, 2304, Control_c, 0, 11, 127
2, 2392, Note_on_c, 0, 60, 0
2, 2496, Note_on_c, 0, 64, 116
2, 2584, Note_on_c, 0, 64, 0
2, 2688, Note_on_c, 0, 67, 116
2, 2776, Note_on_c, 0, 67, 0
2, 2880, Note_on_c, 0, 72, 116
2, 2968, Note_on_c, 0, 72, 0
2, 3060, Note_on_c, 0, 72, 116
2, 3086, Pitch_bend_c, 0, 4097
2, 3096, Pitch_bend_c, 0, 8193
2, 3120, Note_on_c, 0, 71, 116
2, 3148, Note_on_c, 0, 72, 0
2, 3180, Note_on_c, 0, 71, 0
2, 3218, Note_on_c, 0, 69, 116
2, 3252, Note_on_c, 0, 69, 0
2, 3264, Note_on_c, 0, 67, 116
2, 3396, Note_on_c, 0, 67, 0
2, 5384, Note_on_c, 0, 81, 103
2, 5490, Note_on_c, 0, 81, 0
2, 5572, Note_on_c, 0, 81, 103
2, 5656, Note_on_c, 0, 81, 0
2, 5715, Note_on_c, 0, 81, 103
2, 5741, Note_on_c, 0, 81, 0
2, 5760, Note_on_c, 0, 81, 103
2, 5860, Note_on_c, 0, 81, 0
2, 5952, Note_on_c, 0, 81, 103
2, 6052, Note_on_c, 0, 81, 0
2, 6148, Note_on_c, 0, 84, 103
2, 6278, Control_c, 0, 11, 127
2, 6306, Control_c, 0, 11, 125
2, 6326, Control_c, 0, 11, 124
2, 6367, Control_c, 0, 11, 122
2, 6388, Control_c, 0, 11, 121
2, 6409, Control_c, 0, 11, 119
2, 6422, Control_c, 0, 11, 118
2, 6443, Control_c, 0, 11, 116
2, 6450, Control_c, 0, 11, 115
2, 6463, Control_c, 0, 11, 113
2, 6470, Control_c, 0, 11, 112
2, 6491, Control_c, 0, 11, 110
2, 6505, Control_c, 0, 11, 109
2, 6525, Control_c, 0, 11, 107
2, 6546, Control_c, 0, 11, 106
2, 6566, Control_c, 0, 11, 104
2, 6587, Control_c, 0, 11, 103
2, 6649, Control_c, 0, 11, 101
2, 6670, Note_on_c, 0, 84, 0
2, 6676, Control_c, 0, 11, 100
2, 6690, Control_c, 0, 11, 97
2, 6720, Note_on_c, 0, 81, 103
2, 6720, Control_c, 0, 11, 127
2, 6818, Note_on_c, 0, 81, 0
2, 6912, Note_on_c, 0, 79, 103
2, 7014, Note_on_c, 0, 79, 0
2, 7104, Note_on_c, 0, 77, 103
2, 7206, Note_on_c, 0, 77, 0
2, 7296, Note_on_c, 0, 76, 103
2, 7398, Note_on_c, 0, 76, 0
2, 7488, Note_on_c, 0, 74, 103
2, 7590, Note_on_c, 0, 74, 0
2, 7680, Note_on_c, 0, 72, 116
2, 7762, Note_on_c, 0, 72, 0
2, 7872, Note_on_c, 0, 76, 116
2, 7952, Note_on_c, 0, 76, 0
2, 8064, Note_on_c, 0, 79, 116
2, 8144, Note_on_c, 0, 79, 0
2, 8456, Note_on_c, 0, 81, 103
2, 8556, Note_on_c, 0, 81, 0
2, 8644, Note_on_c, 0, 81, 103
2, 8724, Note_on_c, 0, 81, 0
2, 8787, Note_on_c, 0, 81, 103
2, 8815, Note_on_c, 0, 81, 0
2, 8832, Note_on_c, 0, 81, 103
2, 8931, Note_on_c, 0, 81, 0
2, 9024, Note_on_c, 0, 81, 103
2, 9123, Note_on_c, 0, 81, 0
2, 9222, Note_on_c, 0, 84, 103
2, 9302, Control_c, 0, 11, 127
2, 9357, Control_c, 0, 11, 125
2, 9377, Control_c, 0, 11, 124
2, 9418, Control_c, 0, 11, 122
2, 9425, Control_c, 0, 11, 121
2, 9439, Control_c, 0, 11, 119
2, 9459, Control_c, 0, 11, 118
2, 9466, Control_c, 0, 11, 115
2, 9487, Control_c, 0, 11, 112
2, 9699, Control_c, 0, 11, 109
2, 9713, Control_c, 0, 11, 108
2, 9727, Control_c, 0, 11, 107
2, 9734, Control_c, 0, 11, 106
2, 9747, Control_c, 0, 11, 105
2, 9754, Control_c, 0, 11, 104
2, 9768, Control_c, 0, 11, 103
2, 9775, Control_c, 0, 11, 102
2, 9778, Note_on_c, 0, 84, 0
2, 9789, Control_c, 0, 11, 101
2, 9795, Control_c, 0, 11, 100
2, 9967, Control_c, 0, 11, 127
2, 12864, Note_on_c, 0, 67, 77
2, 12997, Note_on_c, 0, 67, 0
2, 13056, Note_on_c, 0, 79, 69
2, 13102, Note_on_c, 0, 79, 0
2, 13152, Note_on_c, 0, 76, 69
2, 13198, Note_on_c, 0, 76, 0
2, 13248, Note_on_c, 0, 76, 69
2, 13272, Note_on_c, 0, 76, 0
2, 13272, Note_on_c, 0, 77, 69
2, 13296, Note_on_c, 0, 77, 0
2, 13296, Note_on_c, 0, 76, 69
2, 13320, Note_on_c, 0, 76, 0
2, 13320, Note_on_c, 0, 77, 69
2, 13344, Note_on_c, 0, 77, 0
2, 13344, Note_on_c, 0, 76, 69
2, 13400, Note_on_c, 0, 76, 0
2, 13440, Note_on_c, 0, 77, 69
2, 13486, Note_on_c, 0, 77, 0
2, 13536, Note_on_c, 0, 74, 69
2, 13582, Note_on_c, 0, 74, 0
2, 13632, Note_on_c, 0, 74, 69
2, 13656, Note_on_c, 0, 74, 0
2, 13656, Note_on_c, 0, 76, 69
2, 13680, Note_on_c, 0, 76, 0
2, 13680, Note_on_c, 0, 74, 69
2, 13704, Note_on_c, 0, 74, 0
2, 13704, Note_on_c, 0, 76, 69
2, 13728, Note_on_c, 0, 76, 0
2, 13728, Note_on_c, 0, 74, 64
2, 13784, Note_on_c, 0, 74, 0
2, 13824, Note_on_c, 0, 72, 69
2, 14002, Note_on_c, 0, 72, 0
2, 14400, Note_on_c, 0, 67, 96
2, 14532, Note_on_c, 0, 67, 0
2, 14592, Note_on_c, 0, 79, 84
2, 14638, Note_on_c, 0, 79, 0
2, 14688, Note_on_c, 0, 76, 88
2, 14734, Note_on_c, 0, 76, 0
2, 14784, Note_on_c, 0, 76, 90
2, 14808, Note_on_c, 0, 76, 0
2, 14808, Note_on_c, 0, 77, 91
2, 14832, Note_on_c, 0, 77, 0
2, 14832, Note_on_c, 0, 76, 93
2, 14856, Note_on_c, 0, 76, 0
2, 14856, Note_on_c, 0, 77, 94
2, 14880, Note_on_c, 0, 77, 0
2, 14880, Note_on_c, 0, 76, 95
2, 14936, Note_on_c, 0, 76, 0
2, 14976, Note_on_c, 0, 77, 101
2, 15022, Note_on_c, 0, 77, 0
2, 15072, Note_on_c, 0, 74, 106
2, 15118, Note_on_c, 0, 74, 0
2, 15168, Note_on_c, 0, 74, 109
2, 15192, Note_on_c, 0, 74, 0
2, 15192, Note_on_c, 0, 76, 110
2, 15216, Note_on_c, 0, 76, 0
2, 15216, Note_on_c, 0, 74, 111
2, 15240, Note_on_c, 0, 74, 0
2, 15240, Note_on_c, 0, 76, 112
2, 15264, Note_on_c, 0, 76, 0
2, 15264, Note_on_c, 0, 74, 113
2, 15320, Note_on_c, 0, 74, 0
2, 15362, Note_on_c, 0, 72, 114
2, 15500, Note_on_c, 0, 72, 0
2, 15554, Note_on_c, 0, 79, 80
2, 15644, Note_on_c, 0, 79, 0
2, 15701, Note_on_c, 0, 79, 80
2, 15725, Note_on_c, 0, 79, 0
2, 15746, Note_on_c, 0, 79, 80
2, 15870, Note_on_c, 0, 79, 0
2, 15938, Note_on_c, 0, 79, 80
2, 16062, Note_on_c, 0, 79, 0
2, 16124, Control_c, 0, 11, 121
2, 16133, Note_on_c, 0, 79, 87
2, 16135, Control_c, 0, 11, 124
2, 16141, Control_c, 0, 11, 125
2, 16152, Control_c, 0, 11, 127
2, 16190, Control_c, 0, 11, 126
2, 16201, Control_c, 0, 11, 124
2, 16207, Control_c, 0, 11, 123
2, 16218, Control_c, 0, 11, 120
2, 16223, Control_c, 0, 11, 118
2, 16240, Control_c, 0, 11, 117
2, 16250, Control_c, 0, 11, 115
2, 16256, Control_c, 0, 11, 112
2, 16267, Control_c, 0, 11, 111
2, 16272, Control_c, 0, 11, 109
2, 16283, Control_c, 0, 11, 108
2, 16289, Control_c, 0, 11, 106
2, 16316, Control_c, 0, 11, 105
2, 16322, Control_c, 0, 11, 103
2, 16349, Control_c, 0, 11, 102
2, 16821, Note_on_c, 0, 79, 0
2, 16887, Control_c, 0, 11, 127
2, 16898, Note_on_c, 0, 81, 85
2, 17018, Note_on_c, 0, 81, 0
2, 17090, Note_on_c, 0, 81, 80
2, 17180, Note_on_c, 0, 81, 0
2, 17234, Note_on_c, 0, 81, 80
2, 17258, Note_on_c, 0, 81, 0
2, 17282, Note_on_c, 0, 81, 80
2, 17402, Note_on_c, 0, 81, 0
2, 17474, Note_on_c, 0, 81, 80
2, 17594, Note_on_c, 0, 81, 0
2, 17644, Control_c, 0, 11, 121
2, 17649, Control_c, 0, 11, 122
2, 17655, Control_c, 0, 11, 125
2, 17666, Note_on_c, 0, 81, 84
2, 17671, Control_c, 0, 11, 127
2, 17715, Control_c, 0, 11, 126
2, 17721, Control_c, 0, 11, 123
2, 17732, Control_c, 0, 11, 121
2, 17737, Control_c, 0, 11, 118
2, 17748, Control_c, 0, 11, 117
2, 17754, Control_c, 0, 11, 115
2, 17765, Control_c, 0, 11, 114
2, 17770, Control_c, 0, 11, 112
2, 17781, Control_c, 0, 11, 111
2, 17797, Control_c, 0, 11, 106
2, 17814, Control_c, 0, 11, 105
2, 17819, Control_c, 0, 11, 103
2, 17836, Control_c, 0, 11, 102
2, 18356, Note_on_c, 0, 81, 0
2, 18412, Control_c, 0, 11, 127
2, 18434, Note_on_c, 0, 83, 80
2, 18554, Note_on_c, 0, 83, 0
2, 18626, Note_on_c, 0, 83, 80
2, 18716, Note_on_c, 0, 83, 0
2, 18770, Note_on_c, 0, 83, 80
2, 18794, Note_on_c, 0, 83, 0
2, 18818, Note_on_c, 0, 83, 80
2, 18938, Note_on_c, 0, 83, 0
2, 19010, Note_on_c, 0, 83, 80
2, 19130, Note_on_c, 0, 83, 0
2, 19202, Note_on_c, 0, 83, 85
2, 19216, Control_c, 0, 11, 124
2, 19232, Control_c, 0, 11, 127
2, 19287, Control_c, 0, 11, 123
2, 19298, Control_c, 0, 11, 121
2, 19315, Control_c, 0, 11, 118
2, 19320, Control_c, 0, 11, 114
2, 19331, Control_c, 0, 11, 111
2, 19337, Control_c, 0, 11, 109
2, 19348, Control_c, 0, 11, 108
2, 19364, Control_c, 0, 11, 106
2, 19397, Control_c, 0, 11, 105
2, 19893, Note_on_c, 0, 83, 0
2, 19946, Control_c, 0, 11, 127
2, 19970, Note_on_c, 0, 84, 85
2, 20090, Note_on_c, 0, 84, 0
2, 20162, Note_on_c, 0, 84, 80
2, 20252, Note_on_c, 0, 84, 0
2, 20306, Note_on_c, 0, 84, 80
2, 20330, Note_on_c, 0, 84, 0
2, 20354, Note_on_c, 0, 84, 80
2, 20474, Note_on_c, 0, 84, 0
2, 20546, Note_on_c, 0, 84, 80
2, 20666, Note_on_c, 0, 84, 0
2, 20730, Control_c, 0, 11, 123
2, 20738, Note_on_c, 0, 84, 83
2, 20768, Control_c, 0, 11, 124
2, 20785, Control_c, 0, 11, 127
2, 20862, Control_c, 0, 11, 126
2, 20867, Control_c, 0, 11, 123
2, 20878, Control_c, 0, 11, 121
2, 20884, Control_c, 0, 11, 120
2, 20895, Control_c, 0, 11, 118
2, 20911, Control_c, 0, 11, 115
2, 20933, Control_c, 0, 11, 114
2, 20949, Control_c, 0, 11, 112
2, 20960, Control_c, 0, 11, 111
2, 20982, Control_c, 0, 11, 109
2, 21026, Control_c, 0, 11, 108
2, 21130, Control_c, 0, 11, 109
2, 21273, Control_c, 0, 11, 110
2, 21312, Control_c, 0, 11, 112
2, 21339, Control_c, 0, 11, 113
2, 21405, Control_c, 0, 11, 116
2, 21427, Control_c, 0, 11, 118
2, 21432, Note_on_c, 0, 84, 0
2, 21438, Control_c, 0, 11, 119
2, 21504, Control_c, 0, 11, 118
2, 21506, Note_on_c, 0, 82, 80
2, 21509, Control_c, 0, 11, 121
2, 21525, Control_c, 0, 11, 124
2, 21536, Control_c, 0, 11, 125
2, 21542, Control_c, 0, 11, 127
2, 21591, Control_c, 0, 11, 126
2, 21602, Control_c, 0, 11, 123
2, 21608, Control_c, 0, 11, 121
2, 21619, Control_c, 0, 11, 120
2, 21624, Control_c, 0, 11, 118
2, 21635, Control_c, 0, 11, 117
2, 21641, Control_c, 0, 11, 114
2, 21652, Control_c, 0, 11, 112
2, 21657, Control_c, 0, 11, 111
2, 21685, Control_c, 0, 11, 108
2, 21750, Control_c, 0, 11, 109
2, 21871, Control_c, 0, 11, 108
2, 22014, Control_c, 0, 11, 110
2, 22019, Control_c, 0, 11, 112
2, 22030, Control_c, 0, 11, 113
2, 22047, Control_c, 0, 11, 115
2, 22069, Control_c, 0, 11, 116
2, 22080, Control_c, 0, 11, 118
2, 22085, Control_c, 0, 11, 119
2, 22096, Control_c, 0, 11, 118
2, 22101, Control_c, 0, 11, 119
2, 22118, Control_c, 0, 11, 121
2, 22134, Control_c, 0, 11, 122
2, 22145, Control_c, 0, 11, 124
2, 22151, Control_c, 0, 11, 125
2, 22200, Note_on_c, 0, 82, 0
2, 22274, Note_on_c, 0, 78, 80
2, 22277, Control_c, 0, 11, 127
2, 22299, Control_c, 0, 11, 124
2, 22315, Control_c, 0, 11, 123
2, 22326, Control_c, 0, 11, 121
2, 22332, Control_c, 0, 11, 118
2, 22348, Control_c, 0, 11, 117
2, 22359, Control_c, 0, 11, 115
2, 22365, Control_c, 0, 11, 114
2, 22392, Control_c, 0, 11, 111
2, 22409, Control_c, 0, 11, 109
2, 22431, Control_c, 0, 11, 108
2, 22442, Control_c, 0, 11, 106
2, 22464, Control_c, 0, 11, 105
2, 22480, Control_c, 0, 11, 103
2, 22496, Control_c, 0, 11, 102
2, 22529, Control_c, 0, 11, 100
2, 22546, Control_c, 0, 11, 99
2, 22628, Control_c, 0, 11, 100
2, 22694, Control_c, 0, 11, 103
2, 22760, Control_c, 0, 11, 104
2, 22826, Control_c, 0, 11, 106
2, 22853, Control_c, 0, 11, 107
2, 22869, Control_c, 0, 11, 109
2, 22886, Control_c, 0, 11, 112
2, 22902, Control_c, 0, 11, 113
2, 22935, Control_c, 0, 11, 115
2, 22957, Control_c, 0, 11, 118
2, 22968, Note_on_c, 0, 78, 0
2, 22968, Control_c, 0, 11, 119
2, 23001, Control_c, 0, 11, 121
2, 23034, Control_c, 0, 11, 125
2, 23042, Note_on_c, 0, 79, 80
2, 23056, Control_c, 0, 11, 127
2, 23133, Control_c, 0, 11, 127
2, 23149, Control_c, 0, 11, 126
2, 23171, Control_c, 0, 11, 124
2, 23182, Control_c, 0, 11, 126
2, 23188, Control_c, 0, 11, 124
2, 23215, Control_c, 0, 11, 121
2, 23237, Control_c, 0, 11, 120
2, 23253, Control_c, 0, 11, 117
2, 23264, Control_c, 0, 11, 115
2, 23281, Control_c, 0, 11, 114
2, 23297, Control_c, 0, 11, 112
2, 23352, Control_c, 0, 11, 109
2, 23396, Control_c, 0, 11, 108
2, 23418, Control_c, 0, 11, 106
2, 23451, Control_c, 0, 11, 105
2, 23495, Control_c, 0, 11, 102
2, 23517, Control_c, 0, 11, 103
2, 23522, Control_c, 0, 11, 102
2, 23533, Control_c, 0, 11, 100
2, 23572, Control_c, 0, 11, 101
2, 23637, Control_c, 0, 11, 103
2, 23829, Control_c, 0, 11, 102
2, 24000, Control_c, 0, 11, 100
2, 24181, Control_c, 0, 11, 101
2, 24192, Control_c, 0, 11, 103
2, 24213, Control_c, 0, 11, 104
2, 24241, Control_c, 0, 11, 107
2, 24257, Control_c, 0, 11, 109
2, 24274, Control_c, 0, 11, 110
2, 24312, Control_c, 0, 11, 113
2, 24373, Control_c, 0, 11, 115
2, 24378, Control_c, 0, 11, 116
2, 24520, Note_on_c, 0, 79, 0
2, 24554, Control_c, 0, 11, 127
2, 24578, Note_on_c, 0, 78, 80
2, 24625, Control_c, 0, 11, 126
2, 24658, Control_c, 0, 11, 124
2, 24669, Control_c, 0, 11, 123
2, 24674, Control_c, 0, 11, 121
2, 24685, Control_c, 0, 11, 118
2, 24691, Control_c, 0, 11, 115
2, 24702, Control_c, 0, 11, 112
2, 24707, Control_c, 0, 11, 111
2, 24724, Control_c, 0, 11, 109
2, 24735, Control_c, 0, 11, 108
2, 24740, Control_c, 0, 11, 105
2, 24751, Control_c, 0, 11, 103
2, 24757, Control_c, 0, 11, 102
2, 24762, Control_c, 0, 11, 100
2, 24795, Control_c, 0, 11, 101
2, 24861, Control_c, 0, 11, 103
2, 24894, Control_c, 0, 11, 104
2, 24927, Control_c, 0, 11, 106
2, 24943, Control_c, 0, 11, 107
2, 24998, Control_c, 0, 11, 109
2, 25031, Control_c, 0, 11, 110
2, 25047, Control_c, 0, 11, 112
2, 25058, Control_c, 0, 11, 115
2, 25080, Control_c, 0, 11, 116
2, 25141, Control_c, 0, 11, 118
2, 25157, Control_c, 0, 11, 119
2, 25278, Note_on_c, 0, 78, 0
2, 25346, Note_on_c, 0, 79, 80
2, 25354, Control_c, 0, 11, 124
2, 25404, Control_c, 0, 11, 127
2, 25420, Control_c, 0, 11, 123
2, 25426, Control_c, 0, 11, 120
2, 25442, Control_c, 0, 11, 118
2, 25453, Control_c, 0, 11, 115
2, 25459, Control_c, 0, 11, 114
2, 25475, Control_c, 0, 11, 112
2, 25486, Control_c, 0, 11, 111
2, 25508, Control_c, 0, 11, 109
2, 25519, Control_c, 0, 11, 107
2, 25607, Control_c, 0, 11, 109
2, 25684, Control_c, 0, 11, 110
2, 25821, Control_c, 0, 11, 112
2, 25881, Control_c, 0, 11, 113
2, 25947, Control_c, 0, 11, 116
2, 25969, Control_c, 0, 11, 118
2, 25996, Control_c, 0, 11, 119
2, 26013, Control_c, 0, 11, 121
2, 26018, Control_c, 0, 11, 124
2, 26029, Control_c, 0, 11, 125
2, 26046, Note_on_c, 0, 79, 0
2, 26079, Control_c, 0, 11, 119
2, 26084, Control_c, 0, 11, 124
2, 26095, Control_c, 0, 11, 125
2, 26112, Control_c, 0, 11, 127
2, 26114, Note_on_c, 0, 78, 80
2, 26292, Note_on_c, 0, 78, 0
2, 26400, Note_on_c, 0, 74, 116
2, 26462, Note_on_c, 0, 74, 0
2, 26496, Note_on_c, 0, 82, 103
2, 26634, Note_on_c, 0, 82, 0
2, 26688, Note_on_c, 0, 82, 102
2, 26766, Note_on_c, 0, 82, 0
2, 26832, Note_on_c, 0, 82, 103
2, 26862, Note_on_c, 0, 82, 0
2, 26880, Note_on_c, 0, 81, 103
2, 26885, Control_c, 0, 11, 125
2, 26940, Control_c, 0, 11, 124
2, 26984, Control_c, 0, 11, 123
2, 26989, Control_c, 0, 11, 121
2, 27000, Control_c, 0, 11, 120
2, 27006, Control_c, 0, 11, 118
2, 27017, Control_c, 0, 11, 117
2, 27022, Control_c, 0, 11, 115
2, 27033, Control_c, 0, 11, 114
2, 27039, Control_c, 0, 11, 112
2, 27055, Control_c, 0, 11, 111
2, 27058, Note_on_c, 0, 81, 0
2, 27066, Control_c, 0, 11, 109
2, 27072, Control_c, 0, 11, 106
2, 27137, Control_c, 0, 11, 126
2, 27168, Note_on_c, 0, 74, 116
2, 27228, Note_on_c, 0, 74, 0
2, 27264, Note_on_c, 0, 82, 103
2, 27400, Note_on_c, 0, 82, 0
2, 27456, Note_on_c, 0, 82, 103
2, 27538, Note_on_c, 0, 82, 0
2, 27600, Note_on_c, 0, 82, 103
2, 27630, Note_on_c, 0, 82, 0
2, 27648, Note_on_c, 0, 81, 103
2, 27742, Note_on_c, 0, 81, 0
2, 27840, Note_on_c, 0, 82, 103
2, 27930, Note_on_c, 0, 82, 0
2, 28032, Note_on_c, 0, 81, 103
2, 28122, Note_on_c, 0, 81, 0
2, 28224, Note_on_c, 0, 82, 103
2, 28314, Note_on_c, 0, 82, 0
2, 28416, Note_on_c, 0, 81, 103
2, 28550, Note_on_c, 0, 81, 0
2, 28752, Note_on_c, 0, 62, 116
2, 28780, Note_on_c, 0, 62, 0
2, 28800, Note_on_c, 0, 62, 116
2, 28928, Note_on_c, 0, 62, 0
2, 28992, Note_on_c, 0, 62, 116
2, 29120, Note_on_c, 0, 62, 0
2, 29184, Control_c, 0, 11, 124
2, 29184, Note_on_c, 0, 62, 116
2, 29205, Control_c, 0, 11, 126
2, 29227, Control_c, 0, 11, 125
2, 29244, Control_c, 0, 11, 123
2, 29255, Control_c, 0, 11, 122
2, 29260, Control_c, 0, 11, 120
2, 29277, Control_c, 0, 11, 119
2, 29293, Control_c, 0, 11, 117
2, 29304, Control_c, 0, 11, 114
2, 29310, Control_c, 0, 11, 113
2, 29321, Control_c, 0, 11, 111
2, 29326, Control_c, 0, 11, 110
2, 29359, Control_c, 0, 11, 108
2, 29474, Control_c, 0, 11, 111
2, 29518, Control_c, 0, 11, 112
2, 29535, Control_c, 0, 11, 114
2, 29540, Control_c, 0, 11, 115
2, 29551, Control_c, 0, 11, 117
2, 29557, Control_c, 0, 11, 118
2, 29568, Control_c, 0, 11, 120
2, 29614, Note_on_c, 0, 62, 0
2, 29664, Note_on_c, 0, 64, 116
2, 29700, Note_on_c, 0, 64, 0
2, 29712, Note_on_c, 0, 66, 116
2, 29748, Note_on_c, 0, 66, 0
2, 29760, Note_on_c, 0, 67, 116
2, 29784, Note_on_c, 0, 67, 0
2, 29808, Note_on_c, 0, 69, 116
2, 29844, Note_on_c, 0, 69, 0
2, 29856, Note_on_c, 0, 71, 116
2, 29892, Note_on_c, 0, 71, 0
2, 29904, Note_on_c, 0, 73, 116
2, 29940, Note_on_c, 0, 73, 0
2, 29952, Control_c, 0, 11, 119
2, 29952, Note_on_c, 0, 74, 116
2, 29957, Control_c, 0, 11, 123
2, 29995, Control_c, 0, 11, 122
2, 30017, Control_c, 0, 11, 120
2, 30028, Control_c, 0, 11, 119
2, 30034, Control_c, 0, 11, 117
2, 30045, Control_c, 0, 11, 116
2, 30061, Control_c, 0, 11, 114
2, 30149, Control_c, 0, 11, 112
2, 30160, Control_c, 0, 11, 114
2, 30176, Control_c, 0, 11, 115
2, 30193, Control_c, 0, 11, 117
2, 30215, Control_c, 0, 11, 120
2, 30231, Control_c, 0, 11, 121
2, 30248, Control_c, 0, 11, 123
2, 30264, Control_c, 0, 11, 124
2, 30275, Control_c, 0, 11, 127
2, 30382, Note_on_c, 0, 74, 0
2, 30432, Note_on_c, 0, 76, 116
2, 30468, Note_on_c, 0, 76, 0
2, 30480, Note_on_c, 0, 78, 116
2, 30516, Note_on_c, 0, 78, 0
2, 30528, Note_on_c, 0, 79, 116
2, 30564, Note_on_c, 0, 79, 0
2, 30576, Note_on_c, 0, 81, 116
2, 30612, Note_on_c, 0, 81, 0
2, 30624, Note_on_c, 0, 83, 116
2, 30660, Note_on_c, 0, 83, 0
2, 30672, Note_on_c, 0, 85, 116
2, 30708, Note_on_c, 0, 85, 0
2, 30720, Note_on_c, 0, 86, 116
2, 30725, Control_c, 0, 11, 127
2, 30752, Control_c, 0, 11, 126
2, 30769, Control_c, 0, 11, 124
2, 30774, Control_c, 0, 11, 123
2, 30785, Control_c, 0, 11, 121
2, 30791, Control_c, 0, 11, 120
2, 30807, Control_c, 0, 11, 117
2, 30818, Control_c, 0, 11, 115
2, 30824, Control_c, 0, 11, 114
2, 30840, Control_c, 0, 11, 109
2, 30851, Control_c, 0, 11, 106
2, 30857, Control_c, 0, 11, 105
2, 30868, Control_c, 0, 11, 103
2, 30884, Control_c, 0, 11, 102
2, 30890, Control_c, 0, 11, 100
2, 30898, Note_on_c, 0, 86, 0
2, 38574, Control_c, 0, 11, 92
2, 38592, Control_c, 0, 11, 93
2, 38592, Note_on_c, 0, 79, 67
2, 38609, Control_c, 0, 11, 94
2, 38626, Control_c, 0, 11, 95
2, 38644, Control_c, 0, 11, 96
2, 38661, Control_c, 0, 11, 97
2, 38679, Control_c, 0, 11, 98
2, 38696, Control_c, 0, 11, 99
2, 38714, Control_c, 0, 11, 100
2, 38731, Control_c, 0, 11, 101
2, 38749, Control_c, 0, 11, 102
2, 38766, Control_c, 0, 11, 103
2, 38784, Note_on_c, 0, 79, 0
2, 38784, Control_c, 0, 11, 104
2, 38784, Note_on_c, 0, 78, 67
2, 38801, Control_c, 0, 11, 105
2, 38818, Control_c, 0, 11, 106
2, 38836, Control_c, 0, 11, 107
2, 38853, Control_c, 0, 11, 108
2, 38871, Control_c, 0, 11, 109
2, 38888, Control_c, 0, 11, 110
2, 38906, Control_c, 0, 11, 111
2, 38915, Control_c, 0, 11, 112
2, 38948, Control_c, 0, 11, 114
2, 38959, Control_c, 0, 11, 115
2, 38976, Note_on_c, 0, 78, 0
2, 38976, Note_on_c, 0, 77, 67
2, 39014, Control_c, 0, 11, 117
2, 39063, Control_c, 0, 11, 118
2, 39091, Control_c, 0, 11, 120
2, 39113, Control_c, 0, 11, 121
2, 39146, Control_c, 0, 11, 123
2, 39154, Note_on_c, 0, 77, 0
2, 39162, Control_c, 0, 11, 124
2, 39168, Note_on_c, 0, 76, 67
2, 39173, Control_c, 0, 11, 124
2, 39184, Control_c, 0, 11, 124
2, 39195, Control_c, 0, 11, 126
2, 39211, Control_c, 0, 11, 127
2, 39277, Control_c, 0, 11, 126
2, 39294, Control_c, 0, 11, 125
2, 39299, Control_c, 0, 11, 126
2, 39327, Control_c, 0, 11, 125
2, 39354, Control_c, 0, 11, 124
2, 39360, Note_on_c, 0, 76, 0
2, 39360, Note_on_c, 0, 75, 67
2, 39381, Control_c, 0, 11, 123
2, 39409, Control_c, 0, 11, 122
2, 39436, Control_c, 0, 11, 121
2, 39464, Control_c, 0, 11, 120
2, 39486, Control_c, 0, 11, 119
2, 39513, Control_c, 0, 11, 118
2, 39541, Control_c, 0, 11, 117
2, 39552, Note_on_c, 0, 75, 0
2, 39552, Note_on_c, 0, 74, 67
2, 39568, Control_c, 0, 11, 116
2, 39595, Control_c, 0, 11, 115
2, 39623, Control_c, 0, 11, 114
2, 39650, Control_c, 0, 11, 113
2, 39672, Control_c, 0, 11, 112
2, 39700, Control_c, 0, 11, 111
2, 39727, Control_c, 0, 11, 110
2, 39744, Note_on_c, 0, 74, 0
2, 39744, Note_on_c, 0, 72, 67
2, 39754, Control_c, 0, 11, 109
2, 39782, Control_c, 0, 11, 108
2, 39809, Control_c, 0, 11, 107
2, 39831, Control_c, 0, 11, 106
2, 39859, Control_c, 0, 11, 105
2, 39886, Control_c, 0, 11, 104
2, 39914, Control_c, 0, 11, 103
2, 39936, Note_on_c, 0, 72, 0
2, 39936, Note_on_c, 0, 71, 67
2, 39941, Control_c, 0, 11, 102
2, 39968, Control_c, 0, 11, 101
2, 39996, Control_c, 0, 11, 100
2, 40018, Control_c, 0, 11, 99
2, 40045, Control_c, 0, 11, 98
2, 40073, Control_c, 0, 11, 97
2, 40100, Control_c, 0, 11, 96
2, 40124, Note_on_c, 0, 71, 0
2, 40128, Control_c, 0, 11, 95
2, 40155, Control_c, 0, 11, 94
2, 40177, Control_c, 0, 11, 93
2, 40314, Control_c, 0, 11, 106
2, 40320, Note_on_c, 0, 80, 54
2, 40358, Control_c, 0, 11, 108
2, 40380, Control_c, 0, 11, 109
2, 40424, Control_c, 0, 11, 111
2, 40440, Control_c, 0, 11, 112
2, 40446, Control_c, 0, 11, 114
2, 40462, Control_c, 0, 11, 115
2, 40479, Control_c, 0, 11, 117
2, 40512, Control_c, 0, 11, 118
2, 40522, Control_c, 0, 11, 120
2, 40555, Control_c, 0, 11, 121
2, 40572, Control_c, 0, 11, 123
2, 40594, Control_c, 0, 11, 124
2, 40638, Control_c, 0, 11, 126
2, 40704, Note_on_c, 0, 80, 0
2, 40704, Note_on_c, 0, 81, 52
2, 40709, Control_c, 0, 11, 127
2, 40736, Control_c, 0, 11, 126
2, 40742, Control_c, 0, 11, 125
2, 40758, Control_c, 0, 11, 123
2, 40769, Control_c, 0, 11, 122
2, 40775, Control_c, 0, 11, 120
2, 40786, Control_c, 0, 11, 119
2, 40882, Note_on_c, 0, 81, 0
2, 41088, Note_on_c, 0, 78, 54
2, 41093, Control_c, 0, 11, 106
2, 41098, Control_c, 0, 11, 108
2, 41115, Control_c, 0, 11, 109
2, 41120, Control_c, 0, 11, 111
2, 41137, Control_c, 0, 11, 112
2, 41164, Control_c, 0, 11, 114
2, 41186, Control_c, 0, 11, 115
2, 41203, Control_c, 0, 11, 117
2, 41252, Control_c, 0, 11, 118
2, 41285, Control_c, 0, 11, 120
2, 41318, Control_c, 0, 11, 121
2, 41384, Control_c, 0, 11, 123
2, 41450, Control_c, 0, 11, 126
2, 41466, Control_c, 0, 11, 127
2, 41472, Note_on_c, 0, 78, 0
2, 41472, Note_on_c, 0, 79, 52
2, 41493, Control_c, 0, 11, 126
2, 41526, Control_c, 0, 11, 127
2, 41548, Control_c, 0, 11, 125
2, 41559, Control_c, 0, 11, 123
2, 41565, Control_c, 0, 11, 122
2, 41598, Control_c, 0, 11, 120
2, 41614, Control_c, 0, 11, 119
2, 41625, Control_c, 0, 11, 116
2, 41631, Control_c, 0, 11, 113
2, 41642, Control_c, 0, 11, 110
2, 41647, Control_c, 0, 11, 108
2, 41650, Note_on_c, 0, 79, 0
2, 41658, Control_c, 0, 11, 107
2, 42415, Control_c, 0, 11, 127
2, 42432, Note_on_c, 0, 78, 65
2, 42477, Note_on_c, 0, 79, 59
2, 42480, Note_on_c, 0, 78, 0
2, 42577, Note_on_c, 0, 79, 0
2, 42816, Note_on_c, 0, 78, 65
2, 42861, Note_on_c, 0, 79, 61
2, 42864, Note_on_c, 0, 78, 0
2, 42961, Note_on_c, 0, 79, 0
2, 43200, Note_on_c, 0, 78, 66
2, 43245, Note_on_c, 0, 79, 59
2, 43248, Note_on_c, 0, 78, 0
2, 43345, Note_on_c, 0, 79, 0
2, 43968, Note_on_c, 0, 78, 66
2, 44013, Note_on_c, 0, 79, 59
2, 44016, Note_on_c, 0, 78, 0
2, 44113, Note_on_c, 0, 79, 0
2, 44352, Note_on_c, 0, 78, 66
2, 44397, Note_on_c, 0, 79, 59
2, 44400, Note_on_c, 0, 78, 0
2, 44497, Note_on_c, 0, 79, 0
2, 44736, Note_on_c, 0, 78, 66
2, 44781, Note_on_c, 0, 79, 59
2, 44784, Note_on_c, 0, 78, 0
2, 44881, Note_on_c, 0, 79, 0
2, 53751, Control_c, 0, 11, 58
2, 53760, Note_on_c, 0, 67, 81
2, 53786, Control_c, 0, 11, 59
2, 53821, Control_c, 0, 11, 60
2, 53856, Control_c, 0, 11, 61
2, 53882, Control_c, 0, 11, 62
2, 53917, Control_c, 0, 11, 63
2, 53952, Control_c, 0, 11, 64
2, 53986, Control_c, 0, 11, 65
2, 54013, Control_c, 0, 11, 66
2, 54048, Control_c, 0, 11, 67
2, 54082, Control_c, 0, 11, 68
2, 54117, Control_c, 0, 11, 69
2, 54144, Control_c, 0, 11, 70
2, 54178, Control_c, 0, 11, 71
2, 54213, Control_c, 0, 11, 72
2, 54248, Control_c, 0, 11, 73
2, 54274, Control_c, 0, 11, 74
2, 54309, Control_c, 0, 11, 75
2, 54344, Control_c, 0, 11, 76
2, 54379, Control_c, 0, 11, 77
2, 54405, Control_c, 0, 11, 78
2, 54440, Control_c, 0, 11, 79
2, 54475, Control_c, 0, 11, 80
2, 54498, Note_on_c, 0, 67, 0
2, 54510, Control_c, 0, 11, 81
2, 54528, Note_on_c, 0, 69, 82
2, 54536, Control_c, 0, 11, 82
2, 54545, Control_c, 0, 11, 73
2, 54562, Control_c, 0, 11, 74
2, 54580, Control_c, 0, 11, 75
2, 54597, Control_c, 0, 11, 76
2, 54615, Control_c, 0, 11, 77
2, 54624, Control_c, 0, 11, 78
2, 54641, Control_c, 0, 11, 79
2, 54658, Control_c, 0, 11, 80
2, 54676, Control_c, 0, 11, 81
2, 54685, Control_c, 0, 11, 82
2, 54702, Control_c, 0, 11, 83
2, 54720, Control_c, 0, 11, 84
2, 54737, Control_c, 0, 11, 85
2, 54746, Control_c, 0, 11, 86
2, 54763, Control_c, 0, 11, 87
2, 54781, Control_c, 0, 11, 88
2, 54798, Control_c, 0, 11, 89
2, 54816, Control_c, 0, 11, 90
2, 54824, Control_c, 0, 11, 91
2, 54842, Control_c, 0, 11, 92
2, 54859, Control_c, 0, 11, 93
2, 54877, Control_c, 0, 11, 94
2, 54885, Control_c, 0, 11, 95
2, 54903, Control_c, 0, 11, 96
2, 54920, Control_c, 0, 11, 97
2, 54938, Control_c, 0, 11, 98
2, 54946, Control_c, 0, 11, 99
2, 54964, Control_c, 0, 11, 100
2, 54981, Control_c, 0, 11, 101
2, 54999, Control_c, 0, 11, 102
2, 55016, Control_c, 0, 11, 103
2, 55025, Control_c, 0, 11, 104
2, 55042, Control_c, 0, 11, 105
2, 55060, Control_c, 0, 11, 106
2, 55077, Control_c, 0, 11, 107
2, 55086, Control_c, 0, 11, 108
2, 55104, Control_c, 0, 11, 109
2, 55121, Control_c, 0, 11, 110
2, 55138, Control_c, 0, 11, 110
2, 55147, Control_c, 0, 11, 111
2, 55156, Control_c, 0, 11, 112
2, 55165, Control_c, 0, 11, 113
2, 55173, Control_c, 0, 11, 114
2, 55182, Control_c, 0, 11, 115
2, 55191, Control_c, 0, 11, 116
2, 55200, Control_c, 0, 11, 117
2, 55208, Control_c, 0, 11, 119
2, 55217, Control_c, 0, 11, 120
2, 55226, Control_c, 0, 11, 121
2, 55234, Control_c, 0, 11, 122
2, 55243, Control_c, 0, 11, 123
2, 55252, Control_c, 0, 11, 124
2, 55261, Control_c, 0, 11, 125
2, 55266, Note_on_c, 0, 69, 0
2, 55269, Control_c, 0, 11, 127
2, 55290, Control_c, 0, 11, 127
2, 55296, Note_on_c, 0, 71, 90
2, 56034, Note_on_c, 0, 71, 0
2, 56064, Note_on_c, 0, 72, 90
2, 56802, Note_on_c, 0, 72, 0
2, 56832, Note_on_c, 0, 74, 90
2, 57010, Note_on_c, 0, 74, 0
2, 57168, Note_on_c, 0, 83, 91
2, 57192, Note_on_c, 0, 83, 0
2, 57192, Note_on_c, 0, 84, 92
2, 57216, Note_on_c, 0, 84, 0
2, 57216, Note_on_c, 0, 86, 94
2, 57218, Control_c, 0, 11, 127
2, 57251, Control_c, 0, 11, 125
2, 57256, Control_c, 0, 11, 124
2, 57262, Control_c, 0, 11, 124
2, 57278, Control_c, 0, 11, 125
2, 57295, Control_c, 0, 11, 124
2, 57322, Control_c, 0, 11, 123
2, 57328, Control_c, 0, 11, 120
2, 57338, Control_c, 0, 11, 118
2, 57344, Control_c, 0, 11, 117
2, 57355, Control_c, 0, 11, 115
2, 57360, Control_c, 0, 11, 112
2, 57371, Control_c, 0, 11, 111
2, 57377, Control_c, 0, 11, 108
2, 57393, Control_c, 0, 11, 106
2, 57404, Control_c, 0, 11, 103
2, 57410, Control_c, 0, 11, 96
2, 57414, Note_on_c, 0, 86, 0
2, 57421, Control_c, 0, 11, 90
2, 57504, Note_on_c, 0, 86, 55
2, 57504, Control_c, 0, 11, 118
2, 57564, Note_on_c, 0, 86, 0
2, 57600, Note_on_c, 0, 84, 55
2, 57690, Note_on_c, 0, 84, 0
2, 57792, Note_on_c, 0, 83, 55
2, 57882, Note_on_c, 0, 83, 0
2, 57984, Note_on_c, 0, 81, 55
2, 58074, Note_on_c, 0, 81, 0
2, 58176, Note_on_c, 0, 84, 55
2, 58266, Note_on_c, 0, 84, 0
2, 58368, Note_on_c, 0, 83, 55
2, 58546, Note_on_c, 0, 83, 0
2, 58704, Control_c, 0, 11, 127
2, 58704, Note_on_c, 0, 79, 93
2, 58728, Note_on_c, 0, 79, 0
2, 58728, Note_on_c, 0, 81, 94
2, 58752, Note_on_c, 0, 81, 0
2, 58752, Note_on_c, 0, 83, 96
2, 58754, Control_c, 0, 11, 127
2, 58757, Control_c, 0, 11, 127
2, 58812, Control_c, 0, 11, 126
2, 58823, Control_c, 0, 11, 124
2, 58839, Control_c, 0, 11, 123
2, 58856, Control_c, 0, 11, 120
2, 58861, Control_c, 0, 11, 115
2, 58872, Control_c, 0, 11, 114
2, 58889, Control_c, 0, 11, 108
2, 58894, Control_c, 0, 11, 100
2, 58950, Note_on_c, 0, 83, 0
2, 59040, Note_on_c, 0, 83, 55
2, 59040, Control_c, 0, 11, 118
2, 59094, Note_on_c, 0, 83, 0
2, 59136, Note_on_c, 0, 81, 55
2, 59226, Note_on_c, 0, 81, 0
2, 59328, Note_on_c, 0, 79, 55
2, 59418, Note_on_c, 0, 79, 0
2, 59520, Note_on_c, 0, 78, 55
2, 59610, Note_on_c, 0, 78, 0
2, 59712, Note_on_c, 0, 81, 55
2, 59802, Note_on_c, 0, 81, 0
2, 59904, Note_on_c, 0, 79, 55
2, 60082, Note_on_c, 0, 79, 0
2, 60240, Control_c, 0, 11, 127
2, 60240, Note_on_c, 0, 83, 88
2, 60264, Note_on_c, 0, 83, 0
2, 60264, Note_on_c, 0, 84, 92
2, 60288, Note_on_c, 0, 84, 0
2, 60288, Note_on_c, 0, 86, 94
2, 60337, Control_c, 0, 11, 125
2, 60359, Control_c, 0, 11, 124
2, 60370, Control_c, 0, 11, 121
2, 60375, Control_c, 0, 11, 118
2, 60386, Control_c, 0, 11, 117
2, 60392, Control_c, 0, 11, 115
2, 60403, Control_c, 0, 11, 112
2, 60408, Control_c, 0, 11, 108
2, 60419, Control_c, 0, 11, 105
2, 60436, Control_c, 0, 11, 103
2, 60441, Control_c, 0, 11, 99
2, 60452, Control_c, 0, 11, 96
2, 60458, Control_c, 0, 11, 93
2, 60469, Control_c, 0, 11, 87
2, 60486, Note_on_c, 0, 86, 0
2, 60576, Note_on_c, 0, 86, 55
2, 60576, Control_c, 0, 11, 118
2, 60630, Note_on_c, 0, 86, 0
2, 60672, Note_on_c, 0, 84, 55
2, 60762, Note_on_c, 0, 84, 0
2, 60864, Note_on_c, 0, 83, 55
2, 60954, Note_on_c, 0, 83, 0
2, 61056, Note_on_c, 0, 81, 55
2, 61146, Note_on_c, 0, 81, 0
2, 61248, Note_on_c, 0, 84, 55
2, 61338, Note_on_c, 0, 84, 0
2, 61440, Note_on_c, 0, 83, 55
2, 61618, Note_on_c, 0, 83, 0
2, 61776, Control_c, 0, 11, 127
2, 61776, Note_on_c, 0, 79, 91
2, 61800, Note_on_c, 0, 79, 0
2, 61800, Note_on_c, 0, 81, 92
2, 61824, Note_on_c, 0, 81, 0
2, 61824, Note_on_c, 0, 83, 95
2, 61873, Control_c, 0, 11, 124
2, 61917, Control_c, 0, 11, 122
2, 61922, Control_c, 0, 11, 114
2, 61933, Control_c, 0, 11, 111
2, 61939, Control_c, 0, 11, 108
2, 61950, Control_c, 0, 11, 105
2, 61955, Control_c, 0, 11, 101
2, 61972, Control_c, 0, 11, 98
2, 61983, Control_c, 0, 11, 95
2, 61988, Control_c, 0, 11, 92
2, 62022, Note_on_c, 0, 83, 0
2, 62112, Note_on_c, 0, 83, 55
2, 62112, Control_c, 0, 11, 118
2, 62166, Note_on_c, 0, 83, 0
2, 62208, Note_on_c, 0, 81, 55
2, 62298, Note_on_c, 0, 81, 0
2, 62400, Note_on_c, 0, 79, 55
2, 62490, Note_on_c, 0, 79, 0
2, 62592, Note_on_c, 0, 78, 55
2, 62682, Note_on_c, 0, 78, 0
2, 62784, Note_on_c, 0, 81, 55
2, 62874, Note_on_c, 0, 81, 0
2, 62976, Note_on_c, 0, 79, 55
2, 62981, Control_c, 0, 11, 126
2, 63003, Control_c, 0, 11, 127
2, 63036, Control_c, 0, 11, 126
2, 63047, Control_c, 0, 11, 125
2, 63052, Control_c, 0, 11, 122
2, 63063, Control_c, 0, 11, 120
2, 63080, Control_c, 0, 11, 119
2, 63085, Control_c, 0, 11, 116
2, 63096, Control_c, 0, 11, 113
2, 63102, Control_c, 0, 11, 110
2, 63113, Control_c, 0, 11, 108
2, 63118, Control_c, 0, 11, 107
2, 63129, Control_c, 0, 11, 104
2, 63135, Control_c, 0, 11, 96
2, 63146, Control_c, 0, 11, 95
2, 63154, Note_on_c, 0, 79, 0
2, 63723, Control_c, 0, 11, 102
2, 63744, Note_on_c, 0, 77, 87
2, 63750, Control_c, 0, 11, 105
2, 63771, Control_c, 0, 11, 107
2, 63785, Control_c, 0, 11, 108
2, 63792, Control_c, 0, 11, 110
2, 63812, Control_c, 0, 11, 111
2, 63826, Control_c, 0, 11, 113
2, 63833, Control_c, 0, 11, 116
2, 63846, Control_c, 0, 11, 117
2, 63867, Control_c, 0, 11, 119
2, 63874, Control_c, 0, 11, 120
2, 63894, Control_c, 0, 11, 122
2, 63908, Control_c, 0, 11, 123
2, 63929, Control_c, 0, 11, 126
2, 63936, Control_c, 0, 11, 127
2, 64018, Control_c, 0, 11, 125
2, 64032, Control_c, 0, 11, 124
2, 64038, Control_c, 0, 11, 122
2, 64052, Control_c, 0, 11, 121
2, 64070, Note_on_c, 0, 77, 0
2, 64128, Note_on_c, 0, 76, 82
2, 64141, Control_c, 0, 11, 120
2, 64175, Control_c, 0, 11, 121
2, 64182, Control_c, 0, 11, 123
2, 64195, Control_c, 0, 11, 124
2, 64202, Control_c, 0, 11, 126
2, 64216, Control_c, 0, 11, 127
2, 64305, Control_c, 0, 11, 126
2, 64339, Control_c, 0, 11, 125
2, 64387, Control_c, 0, 11, 123
2, 64408, Control_c, 0, 11, 122
2, 64422, Control_c, 0, 11, 120
2, 64429, Control_c, 0, 11, 119
2, 64442, Control_c, 0, 11, 117
2, 64449, Control_c, 0, 11, 116
2, 64463, Control_c, 0, 11, 114
2, 64470, Control_c, 0, 11, 111
2, 64490, Control_c, 0, 11, 108
2, 64504, Control_c, 0, 11, 107
2, 64511, Control_c, 0, 11, 105
2, 64525, Control_c, 0, 11, 104
2, 64676, Note_on_c, 0, 76, 0
2, 64689, Control_c, 0, 11, 107
2, 64704, Note_on_c, 0, 75, 82
2, 64717, Control_c, 0, 11, 108
2, 64737, Control_c, 0, 11, 109
2, 64771, Control_c, 0, 11, 111
2, 64778, Control_c, 0, 11, 114
2, 64840, Control_c, 0, 11, 115
2, 64860, Note_on_c, 0, 75, 0
2, 64861, Control_c, 0, 11, 117
2, 64874, Control_c, 0, 11, 118
2, 64896, Note_on_c, 0, 74, 82
2, 64902, Control_c, 0, 11, 120
2, 64922, Control_c, 0, 11, 121
2, 64936, Control_c, 0, 11, 123
2, 64943, Control_c, 0, 11, 126
2, 65025, Control_c, 0, 11, 125
2, 65039, Control_c, 0, 11, 123
2, 65046, Control_c, 0, 11, 117
2, 65059, Control_c, 0, 11, 116
2, 65080, Control_c, 0, 11, 113
2, 65087, Control_c, 0, 11, 111
2, 65101, Control_c, 0, 11, 110
2, 65107, Control_c, 0, 11, 108
2, 65128, Control_c, 0, 11, 107
2, 65142, Control_c, 0, 11, 105
2, 65162, Control_c, 0, 11, 104
2, 65169, Control_c, 0, 11, 102
2, 65210, Control_c, 0, 11, 103
2, 65245, Control_c, 0, 11, 105
2, 65424, Note_on_c, 0, 74, 0
2, 65471, Control_c, 0, 11, 110
2, 65472, Note_on_c, 0, 79, 82
2, 65553, Control_c, 0, 11, 111
2, 65581, Control_c, 0, 11, 112
2, 65663, Control_c, 0, 11, 114
2, 65725, Control_c, 0, 11, 115
2, 65766, Control_c, 0, 11, 117
2, 65800, Control_c, 0, 11, 118
2, 65807, Control_c, 0, 11, 120
2, 65808, Note_on_c, 0, 79, 0
2, 65841, Control_c, 0, 11, 121
2, 65856, Note_on_c, 0, 79, 82
2, 65869, Control_c, 0, 11, 123
2, 65882, Control_c, 0, 11, 126
2, 65923, Control_c, 0, 11, 127
2, 65992, Note_on_c, 0, 79, 0
2, 66048, Note_on_c, 0, 79, 82
2, 66074, Control_c, 0, 11, 127
2, 66095, Control_c, 0, 11, 126
2, 66150, Control_c, 0, 11, 125
2, 66170, Control_c, 0, 11, 123
2, 66191, Control_c, 0, 11, 122
2, 66198, Control_c, 0, 11, 120
2, 66218, Control_c, 0, 11, 119
2, 66239, Control_c, 0, 11, 117
2, 66384, Note_on_c, 0, 79, 0
2, 66424, Control_c, 0, 11, 127
2, 66432, Note_on_c, 0, 76, 82
2, 66479, Control_c, 0, 11, 127
2, 66493, Control_c, 0, 11, 126
2, 66506, Control_c, 0, 11, 125
2, 66513, Control_c, 0, 11, 124
2, 66527, Control_c, 0, 11, 123
2, 66534, Control_c, 0, 11, 122
2, 66547, Control_c, 0, 11, 121
2, 66554, Control_c, 0, 11, 120
2, 66568, Control_c, 0, 11, 119
2, 66582, Control_c, 0, 11, 118
2, 66589, Control_c, 0, 11, 117
2, 66602, Control_c, 0, 11, 116
2, 66609, Control_c, 0, 11, 115
2, 66623, Control_c, 0, 11, 114
2, 66630, Control_c, 0, 11, 113
2, 66766, Note_on_c, 0, 76, 0
2, 66816, Note_on_c, 0, 74, 82
2, 66829, Control_c, 0, 11, 117
2, 66849, Control_c, 0, 11, 118
2, 66870, Control_c, 0, 11, 119
2, 66890, Control_c, 0, 11, 120
2, 66911, Control_c, 0, 11, 121
2, 66925, Control_c, 0, 11, 122
2, 66945, Control_c, 0, 11, 123
2, 66966, Note_on_c, 0, 74, 0
2, 66966, Control_c, 0, 11, 124
2, 66986, Control_c, 0, 11, 125
2, 67007, Control_c, 0, 11, 126
2, 67008, Note_on_c, 0, 83, 82
2, 67021, Control_c, 0, 11, 127
2, 67054, Note_on_c, 0, 83, 0
2, 67104, Note_on_c, 0, 83, 82
2, 67150, Note_on_c, 0, 83, 0
2, 67200, Note_on_c, 0, 83, 82
2, 67296, Note_on_c, 0, 83, 0
2, 67296, Note_on_c, 0, 81, 82
2, 67364, Note_on_c, 0, 81, 0
2, 67392, Note_on_c, 0, 79, 82
2, 67438, Note_on_c, 0, 79, 0
2, 67488, Note_on_c, 0, 78, 82
2, 67534, Note_on_c, 0, 78, 0
2, 67584, Note_on_c, 0, 79, 82
2, 67590, Control_c, 0, 11, 126
2, 67597, Control_c, 0, 11, 125
2, 67618, Control_c, 0, 11, 123
2, 67659, Control_c, 0, 11, 122
2, 67673, Control_c, 0, 11, 120
2, 67693, Control_c, 0, 11, 119
2, 67700, Control_c, 0, 11, 116
2, 67714, Control_c, 0, 11, 113
2, 67734, Control_c, 0, 11, 111
2, 67741, Control_c, 0, 11, 108
2, 67752, Note_on_c, 0, 79, 0
2, 67755, Control_c, 0, 11, 107
2, 67762, Control_c, 0, 11, 104
2, 68352, Control_c, 0, 11, 109
2, 68352, Note_on_c, 0, 77, 82
2, 68365, Control_c, 0, 11, 111
2, 68379, Control_c, 0, 11, 112
2, 68400, Control_c, 0, 11, 115
2, 68413, Control_c, 0, 11, 117
2, 68434, Control_c, 0, 11, 118
2, 68454, Control_c, 0, 11, 120
2, 68475, Control_c, 0, 11, 121
2, 68564, Control_c, 0, 11, 123
2, 68605, Control_c, 0, 11, 122
2, 68619, Control_c, 0, 11, 120
2, 68626, Control_c, 0, 11, 119
2, 68646, Control_c, 0, 11, 117
2, 68660, Control_c, 0, 11, 116
2, 68667, Control_c, 0, 11, 114
2, 68678, Note_on_c, 0, 77, 0
2, 68681, Control_c, 0, 11, 110
2, 68688, Control_c, 0, 11, 108
2, 68701, Control_c, 0, 11, 107
2, 68708, Control_c, 0, 11, 105
2, 68722, Control_c, 0, 11, 104
2, 68729, Control_c, 0, 11, 101
2, 68736, Note_on_c, 0, 76, 82
2, 68749, Control_c, 0, 11, 102
2, 68763, Control_c, 0, 11, 103
2, 68790, Control_c, 0, 11, 105
2, 68804, Control_c, 0, 11, 106
2, 68811, Control_c, 0, 11, 108
2, 68825, Control_c, 0, 11, 109
2, 68845, Control_c, 0, 11, 111
2, 68866, Control_c, 0, 11, 112
2, 68893, Control_c, 0, 11, 114
2, 68914, Control_c, 0, 11, 115
2, 68928, Control_c, 0, 11, 117
2, 68948, Control_c, 0, 11, 118
2, 68976, Control_c, 0, 11, 121
2, 69037, Control_c, 0, 11, 123
2, 69072, Control_c, 0, 11, 124
2, 69099, Control_c, 0, 11, 126
2, 69161, Control_c, 0, 11, 127
2, 69284, Note_on_c, 0, 76, 0
2, 69312, Note_on_c, 0, 75, 82
2, 69468, Note_on_c, 0, 75, 0
2, 69504, Control_c, 0, 11, 127
2, 69504, Note_on_c, 0, 74, 82
2, 69552, Control_c, 0, 11, 126
2, 69593, Control_c, 0, 11, 125
2, 69606, Control_c, 0, 11, 123
2, 69627, Control_c, 0, 11, 122
2, 69634, Control_c, 0, 11, 120
2, 69648, Control_c, 0, 11, 119
2, 69689, Control_c, 0, 11, 117
2, 69696, Control_c, 0, 11, 116
2, 70036, Note_on_c, 0, 74, 0
2, 70080, Note_on_c, 0, 79, 82
2, 70080, Control_c, 0, 11, 114
2, 70093, Control_c, 0, 11, 104
2, 70107, Control_c, 0, 11, 105
2, 70162, Control_c, 0, 11, 106
2, 70182, Control_c, 0, 11, 109
2, 70244, Control_c, 0, 11, 111
2, 70251, Control_c, 0, 11, 112
2, 70265, Control_c, 0, 11, 114
2, 70306, Control_c, 0, 11, 115
2, 70354, Control_c, 0, 11, 117
2, 70374, Control_c, 0, 11, 118
2, 70395, Control_c, 0, 11, 120
2, 70416, Note_on_c, 0, 79, 0
2, 70416, Control_c, 0, 11, 121
2, 70450, Control_c, 0, 11, 124
2, 70464, Note_on_c, 0, 79, 82
2, 70477, Control_c, 0, 11, 126
2, 70498, Control_c, 0, 11, 127
2, 70600, Note_on_c, 0, 79, 0
2, 70649, Control_c, 0, 11, 127
2, 70656, Note_on_c, 0, 79, 82
2, 70724, Control_c, 0, 11, 126
2, 70745, Control_c, 0, 11, 125
2, 70806, Control_c, 0, 11, 123
2, 70820, Control_c, 0, 11, 122
2, 70841, Control_c, 0, 11, 120
2, 70882, Control_c, 0, 11, 119
2, 70909, Control_c, 0, 11, 117
2, 70923, Control_c, 0, 11, 114
2, 70985, Control_c, 0, 11, 113
2, 71366, Note_on_c, 0, 79, 0
2, 71417, Control_c, 0, 11, 120
2, 71424, Note_on_c, 0, 84, 82
2, 71437, Control_c, 0, 11, 121
2, 71444, Control_c, 0, 11, 124
2, 71465, Control_c, 0, 11, 126
2, 71478, Control_c, 0, 11, 127
2, 71540, Control_c, 0, 11, 123
2, 71547, Control_c, 0, 11, 120
2, 71568, Control_c, 0, 11, 117
2, 71581, Control_c, 0, 11, 114
2, 71588, Control_c, 0, 11, 113
2, 71602, Control_c, 0, 11, 111
2, 71609, Control_c, 0, 11, 110
2, 71622, Control_c, 0, 11, 108
2, 71643, Control_c, 0, 11, 107
2, 71650, Control_c, 0, 11, 105
2, 71664, Control_c, 0, 11, 104
2, 71670, Control_c, 0, 11, 102
2, 71684, Control_c, 0, 11, 101
2, 71691, Control_c, 0, 11, 99
2, 71746, Control_c, 0, 11, 98
2, 71766, Control_c, 0, 11, 96
2, 71787, Control_c, 0, 11, 95
2, 71869, Control_c, 0, 11, 96
2, 72134, Note_on_c, 0, 84, 0
2, 72192, Note_on_c, 0, 82, 82
2, 72198, Control_c, 0, 11, 126
2, 72219, Control_c, 0, 11, 127
2, 72288, Control_c, 0, 11, 126
2, 72301, Control_c, 0, 11, 125
2, 72308, Control_c, 0, 11, 122
2, 72322, Control_c, 0, 11, 117
2, 72342, Control_c, 0, 11, 114
2, 72370, Control_c, 0, 11, 113
2, 72390, Control_c, 0, 11, 111
2, 72411, Control_c, 0, 11, 110
2, 72432, Control_c, 0, 11, 107
2, 72445, Control_c, 0, 11, 105
2, 72452, Control_c, 0, 11, 104
2, 72904, Note_on_c, 0, 82, 0
2, 72960, Control_c, 0, 11, 116
2, 72960, Note_on_c, 0, 70, 103
2, 72966, Control_c, 0, 11, 118
2, 72980, Control_c, 0, 11, 120
2, 72987, Control_c, 0, 11, 121
2, 73001, Control_c, 0, 11, 123
2, 73008, Control_c, 0, 11, 124
2, 73021, Control_c, 0, 11, 126
2, 73049, Control_c, 0, 11, 122
2, 73062, Control_c, 0, 11, 120
2, 73069, Control_c, 0, 11, 119
2, 73083, Control_c, 0, 11, 114
2, 73090, Control_c, 0, 11, 113
2, 73104, Control_c, 0, 11, 111
2, 73124, Control_c, 0, 11, 108
2, 73152, Control_c, 0, 11, 107
2, 73670, Note_on_c, 0, 70, 0
2, 73728, Note_on_c, 0, 71, 109
2, 73734, Control_c, 0, 11, 120
2, 73748, Control_c, 0, 11, 121
2, 73762, Control_c, 0, 11, 123
2, 73782, Control_c, 0, 11, 124
2, 73789, Control_c, 0, 11, 126
2, 73810, Control_c, 0, 11, 127
2, 73920, Note_on_c, 0, 71, 0
2, 73920, Note_on_c, 0, 72, 109
2, 74064, Note_on_c, 0, 72, 0
2, 74112, Note_on_c, 0, 70, 109
2, 74236, Note_on_c, 0, 70, 0
2, 74304, Note_on_c, 0, 69, 109
2, 74428, Note_on_c, 0, 69, 0
2, 74496, Note_on_c, 0, 71, 109
2, 74688, Note_on_c, 0, 71, 0
2, 74688, Note_on_c, 0, 72, 109
2, 74832, Note_on_c, 0, 72, 0
2, 74880, Note_on_c, 0, 70, 109
2, 75004, Note_on_c, 0, 70, 0
2, 75072, Note_on_c, 0, 69, 109
2, 75196, Note_on_c, 0, 69, 0
2, 75264, Note_on_c, 0, 71, 109
2, 75456, Note_on_c, 0, 71, 0
2, 75456, Note_on_c, 0, 72, 109
2, 75600, Note_on_c, 0, 72, 0
2, 75648, Note_on_c, 0, 70, 109
2, 75772, Note_on_c, 0, 70, 0
2, 75840, Note_on_c, 0, 69, 109
2, 75964, Note_on_c, 0, 69, 0
2, 76032, Note_on_c, 0, 71, 109
2, 76200, Note_on_c, 0, 71, 0
2, 76957, Control_c, 0, 11, 90
2, 76971, Control_c, 0, 11, 88
2, 76978, Control_c, 0, 11, 91
2, 76992, Note_on_c, 0, 74, 64
2, 77019, Control_c, 0, 11, 94
2, 77060, Control_c, 0, 11, 96
2, 77081, Control_c, 0, 11, 97
2, 77088, Control_c, 0, 11, 99
2, 77108, Control_c, 0, 11, 100
2, 77122, Control_c, 0, 11, 102
2, 77129, Control_c, 0, 11, 103
2, 77149, Control_c, 0, 11, 105
2, 77163, Control_c, 0, 11, 106
2, 77170, Control_c, 0, 11, 109
2, 77184, Note_on_c, 0, 74, 0
2, 77184, Note_on_c, 0, 79, 64
2, 77190, Control_c, 0, 11, 111
2, 77204, Control_c, 0, 11, 112
2, 77211, Control_c, 0, 11, 114
2, 77232, Control_c, 0, 11, 115
2, 77245, Control_c, 0, 11, 117
2, 77252, Control_c, 0, 11, 118
2, 77293, Control_c, 0, 11, 120
2, 77328, Control_c, 0, 11, 121
2, 77334, Control_c, 0, 11, 123
2, 77355, Control_c, 0, 11, 124
2, 77376, Note_on_c, 0, 79, 0
2, 77376, Note_on_c, 0, 83, 65
2, 77396, Control_c, 0, 11, 126
2, 77417, Control_c, 0, 11, 127
2, 77555, Control_c, 0, 11, 117
2, 77568, Note_on_c, 0, 83, 0
2, 77568, Control_c, 0, 11, 123
2, 77568, Note_on_c, 0, 86, 59
2, 77574, Control_c, 0, 11, 120
2, 77588, Control_c, 0, 11, 123
2, 77622, Control_c, 0, 11, 122
2, 77643, Control_c, 0, 11, 120
2, 77657, Control_c, 0, 11, 114
2, 77664, Control_c, 0, 11, 110
2, 77698, Control_c, 0, 11, 108
2, 77705, Control_c, 0, 11, 104
2, 77718, Control_c, 0, 11, 101
2, 77725, Control_c, 0, 11, 98
2, 77744, Note_on_c, 0, 86, 0
2, 77760, Control_c, 0, 11, 95
2, 79104, Control_c, 0, 11, 127
2, 79872, Note_on_c, 0, 79, 90
2, 79872, Control_c, 0, 11, 127
2, 80004, Control_c, 0, 11, 126
2, 80025, Control_c, 0, 11, 125
2, 80032, Control_c, 0, 11, 123
2, 80045, Control_c, 0, 11, 120
2, 80052, Control_c, 0, 11, 120
2, 80059, Control_c, 0, 11, 119
2, 80066, Control_c, 0, 11, 118
2, 80073, Control_c, 0, 11, 116
2, 80080, Control_c, 0, 11, 115
2, 80086, Control_c, 0, 11, 113
2, 80093, Control_c, 0, 11, 112
2, 80100, Control_c, 0, 11, 110
2, 80107, Control_c, 0, 11, 109
2, 80114, Control_c, 0, 11, 107
2, 80121, Control_c, 0, 11, 106
2, 80128, Control_c, 0, 11, 104
2, 80182, Note_on_c, 0, 79, 0
2, 80230, Control_c, 0, 11, 120
2, 80256, Note_on_c, 0, 79, 90
2, 80370, Note_on_c, 0, 79, 0
2, 80448, Note_on_c, 0, 79, 90
2, 80538, Note_on_c, 0, 79, 0
2, 80592, Note_on_c, 0, 79, 90
2, 80622, Note_on_c, 0, 79, 0
2, 80640, Note_on_c, 0, 84, 90
2, 80640, Control_c, 0, 11, 127
2, 80640, Control_c, 0, 11, 127
2, 80772, Control_c, 0, 11, 126
2, 80793, Control_c, 0, 11, 125
2, 80800, Control_c, 0, 11, 123
2, 80813, Control_c, 0, 11, 120
2, 80820, Control_c, 0, 11, 120
2, 80827, Control_c, 0, 11, 119
2, 80834, Control_c, 0, 11, 118
2, 80841, Control_c, 0, 11, 116
2, 80848, Control_c, 0, 11, 115
2, 80854, Control_c, 0, 11, 113
2, 80861, Control_c, 0, 11, 112
2, 80868, Control_c, 0, 11, 110
2, 80875, Control_c, 0, 11, 109
2, 80882, Control_c, 0, 11, 107
2, 80889, Control_c, 0, 11, 106
2, 80896, Control_c, 0, 11, 104
2, 80946, Note_on_c, 0, 84, 0
2, 80998, Control_c, 0, 11, 120
2, 81024, Note_on_c, 0, 78, 90
2, 81136, Note_on_c, 0, 78, 0
2, 81216, Note_on_c, 0, 78, 90
2, 81306, Note_on_c, 0, 78, 0
2, 81360, Note_on_c, 0, 78, 90
2, 81390, Note_on_c, 0, 78, 0
2, 81408, Note_on_c, 0, 79, 90
2, 81408, Control_c, 0, 11, 127
2, 81408, Control_c, 0, 11, 127
2, 81540, Control_c, 0, 11, 126
2, 81561, Control_c, 0, 11, 125
2, 81568, Control_c, 0, 11, 123
2, 81581, Control_c, 0, 11, 120
2, 81588, Control_c, 0, 11, 120
2, 81595, Control_c, 0, 11, 119
2, 81602, Control_c, 0, 11, 118
2, 81609, Control_c, 0, 11, 116
2, 81616, Control_c, 0, 11, 115
2, 81622, Control_c, 0, 11, 113
2, 81629, Control_c, 0, 11, 112
2, 81636, Control_c, 0, 11, 110
2, 81643, Control_c, 0, 11, 109
2, 81650, Control_c, 0, 11, 107
2, 81657, Control_c, 0, 11, 106
2, 81664, Control_c, 0, 11, 104
2, 81718, Note_on_c, 0, 79, 0
2, 81766, Control_c, 0, 11, 120
2, 81792, Note_on_c, 0, 79, 90
2, 81906, Note_on_c, 0, 79, 0
2, 81984, Note_on_c, 0, 79, 90
2, 82074, Note_on_c, 0, 79, 0
2, 82128, Note_on_c, 0, 79, 90
2, 82158, Note_on_c, 0, 79, 0
2, 82176, Note_on_c, 0, 84, 90
2, 82176, Control_c, 0, 11, 127
2, 82176, Control_c, 0, 11, 127
2, 82308, Control_c, 0, 11, 126
2, 82329, Control_c, 0, 11, 125
2, 82336, Control_c, 0, 11, 123
2, 82349, Control_c, 0, 11, 120
2, 82356, Control_c, 0, 11, 120
2, 82363, Control_c, 0, 11, 119
2, 82370, Control_c, 0, 11, 118
2, 82377, Control_c, 0, 11, 116
2, 82384, Control_c, 0, 11, 115
2, 82390, Control_c, 0, 11, 113
2, 82397, Control_c, 0, 11, 112
2, 82404, Control_c, 0, 11, 110
2, 82411, Control_c, 0, 11, 109
2, 82418, Control_c, 0, 11, 107
2, 82425, Control_c, 0, 11, 106
2, 82432, Control_c, 0, 11, 104
2, 82482, Note_on_c, 0, 84, 0
2, 82534, Control_c, 0, 11, 120
2, 82560, Note_on_c, 0, 78, 90
2, 82672, Note_on_c, 0, 78, 0
2, 82752, Note_on_c, 0, 78, 90
2, 82842, Note_on_c, 0, 78, 0
2, 82896, Note_on_c, 0, 78, 90
2, 82926, Note_on_c, 0, 78, 0
2, 82944, Note_on_c, 0, 79, 90
2, 82944, Control_c, 0, 11, 127
2, 83122, Note_on_c, 0, 79, 0
2, 84480, Note_on_c, 0, 79, 103
2, 84620, Note_on_c, 0, 79, 0
2, 84672, Note_on_c, 0, 86, 82
2, 84762, Note_on_c, 0, 86, 0
2, 84816, Note_on_c, 0, 86, 82
2, 84840, Note_on_c, 0, 86, 0
2, 84864, Note_on_c, 0, 86, 82
2, 85002, Note_on_c, 0, 86, 0
2, 85056, Note_on_c, 0, 86, 82
2, 85080, Note_on_c, 0, 86, 0
2, 85080, Note_on_c, 0, 84, 82
2, 85104, Note_on_c, 0, 84, 0
2, 85104, Note_on_c, 0, 86, 82
2, 85128, Note_on_c, 0, 86, 0
2, 85128, Note_on_c, 0, 84, 82
2, 85152, Note_on_c, 0, 84, 0
2, 85152, Note_on_c, 0, 83, 82
2, 85200, Note_on_c, 0, 83, 0
2, 85200, Note_on_c, 0, 84, 82
2, 85234, Note_on_c, 0, 84, 0
2, 85248, Note_on_c, 0, 83, 82
2, 85380, Note_on_c, 0, 83, 0
2, 85440, Note_on_c, 0, 83, 82
2, 85530, Note_on_c, 0, 83, 0
2, 85584, Note_on_c, 0, 83, 82
2, 85608, Note_on_c, 0, 83, 0
2, 85632, Note_on_c, 0, 83, 82
2, 85770, Note_on_c, 0, 83, 0
2, 85824, Note_on_c, 0, 83, 82
2, 85848, Note_on_c, 0, 83, 0
2, 85848, Note_on_c, 0, 81, 82
2, 85872, Note_on_c, 0, 81, 0
2, 85872, Note_on_c, 0, 83, 82
2, 85896, Note_on_c, 0, 83, 0
2, 85896, Note_on_c, 0, 81, 82
2, 85920, Note_on_c, 0, 81, 0
2, 85920, Note_on_c, 0, 79, 82
2, 85968, Note_on_c, 0, 79, 0
2, 85968, Note_on_c, 0, 81, 82
2, 86002, Note_on_c, 0, 81, 0
2, 86016, Note_on_c, 0, 79, 82
2, 86194, Note_on_c, 0, 79, 0
2, 87519, Control_c, 0, 11, 105
2, 87519, Control_c, 0, 11, 105
2, 87519, Control_c, 0, 11, 105
2, 87528, Control_c, 0, 11, 107
2, 87528, Control_c, 0, 11, 107
2, 87528, Control_c, 0, 11, 107
2, 87537, Control_c, 0, 11, 110
2, 87537, Control_c, 0, 11, 110
2, 87537, Control_c, 0, 11, 110
2, 87545, Control_c, 0, 11, 112
2, 87545, Control_c, 0, 11, 112
2, 87545, Control_c, 0, 11, 112
2, 87552, Note_on_c, 0, 83, 64
2, 87554, Control_c, 0, 11, 115
2, 87554, Control_c, 0, 11, 115
2, 87554, Control_c, 0, 11, 115
2, 87563, Control_c, 0, 11, 118
2, 87563, Control_c, 0, 11, 118
2, 87563, Control_c, 0, 11, 118
2, 87572, Control_c, 0, 11, 120
2, 87572, Control_c, 0, 11, 120
2, 87572, Control_c, 0, 11, 120
2, 87580, Control_c, 0, 11, 123
2, 87580, Control_c, 0, 11, 123
2, 87580, Control_c, 0, 11, 123
2, 87589, Control_c, 0, 11, 126
2, 87589, Control_c, 0, 11, 126
2, 87589, Control_c, 0, 11, 126
2, 87606, Control_c, 0, 11, 125
2, 87606, Control_c, 0, 11, 125
2, 87606, Control_c, 0, 11, 125
2, 87611, Control_c, 0, 11, 125
2, 87611, Control_c, 0, 11, 125
2, 87611, Control_c, 0, 11, 125
2, 87615, Control_c, 0, 11, 126
2, 87615, Control_c, 0, 11, 126
2, 87615, Control_c, 0, 11, 126
2, 87637, Control_c, 0, 11, 126
2, 87637, Control_c, 0, 11, 126
2, 87637, Control_c, 0, 11, 126
2, 87639, Control_c, 0, 11, 127
2, 87639, Control_c, 0, 11, 127
2, 87639, Control_c, 0, 11, 127
2, 87710, Control_c, 0, 11, 125
2, 87710, Control_c, 0, 11, 125
2, 87710, Control_c, 0, 11, 125
2, 87718, Control_c, 0, 11, 124
2, 87718, Control_c, 0, 11, 124
2, 87718, Control_c, 0, 11, 124
2, 87727, Control_c, 0, 11, 123
2, 87727, Control_c, 0, 11, 123
2, 87727, Control_c, 0, 11, 123
2, 87736, Control_c, 0, 11, 122
2, 87736, Control_c, 0, 11, 122
2, 87736, Control_c, 0, 11, 122
2, 87745, Control_c, 0, 11, 121
2, 87745, Control_c, 0, 11, 121
2, 87745, Control_c, 0, 11, 121
2, 87753, Control_c, 0, 11, 120
2, 87753, Control_c, 0, 11, 120
2, 87753, Control_c, 0, 11, 120
2, 87762, Control_c, 0, 11, 119
2, 87762, Control_c, 0, 11, 119
2, 87762, Control_c, 0, 11, 119
2, 87771, Control_c, 0, 11, 118
2, 87771, Control_c, 0, 11, 118
2, 87771, Control_c, 0, 11, 118
2, 87779, Control_c, 0, 11, 116
2, 87779, Control_c, 0, 11, 116
2, 87779, Control_c, 0, 11, 116
2, 87788, Control_c, 0, 11, 115
2, 87788, Control_c, 0, 11, 115
2, 87788, Control_c, 0, 11, 115
2, 87797, Control_c, 0, 11, 114
2, 87797, Control_c, 0, 11, 114
2, 87797, Control_c, 0, 11, 114
2, 87806, Control_c, 0, 11, 113
2, 87806, Control_c, 0, 11, 113
2, 87806, Control_c, 0, 11, 113
2, 87814, Control_c, 0, 11, 112
2, 87814, Control_c, 0, 11, 112
2, 87814, Control_c, 0, 11, 112
2, 87823, Control_c, 0, 11, 111
2, 87823, Control_c, 0, 11, 111
2, 87823, Control_c, 0, 11, 111
2, 87832, Control_c, 0, 11, 110
2, 87832, Control_c, 0, 11, 110
2, 87832, Control_c, 0, 11, 110
2, 87841, Control_c, 0, 11, 109
2, 87841, Control_c, 0, 11, 109
2, 87841, Control_c, 0, 11, 109
2, 87849, Control_c, 0, 11, 107
2, 87849, Control_c, 0, 11, 107
2, 87849, Control_c, 0, 11, 107
2, 87858, Control_c, 0, 11, 106
2, 87858, Control_c, 0, 11, 106
2, 87858, Control_c, 0, 11, 106
2, 87867, Control_c, 0, 11, 105
2, 87867, Control_c, 0, 11, 105
2, 87867, Control_c, 0, 11, 105
2, 87875, Control_c, 0, 11, 104
2, 87875, Control_c, 0, 11, 104
2, 87875, Control_c, 0, 11, 104
2, 87884, Control_c, 0, 11, 103
2, 87884, Control_c, 0, 11, 103
2, 87884, Control_c, 0, 11, 103
2, 87893, Control_c, 0, 11, 102
2, 87893, Control_c, 0, 11, 102
2, 87893, Control_c, 0, 11, 102
2, 87902, Control_c, 0, 11, 101
2, 87902, Control_c, 0, 11, 101
2, 87902, Control_c, 0, 11, 101
2, 87910, Control_c, 0, 11, 99
2, 87910, Control_c, 0, 11, 99
2, 87910, Control_c, 0, 11, 99
2, 87919, Control_c, 0, 11, 97
2, 87919, Control_c, 0, 11, 97
2, 87919, Control_c, 0, 11, 97
2, 87928, Control_c, 0, 11, 95
2, 87928, Control_c, 0, 11, 95
2, 87928, Control_c, 0, 11, 95
2, 87937, Control_c, 0, 11, 93
2, 87937, Control_c, 0, 11, 93
2, 87937, Control_c, 0, 11, 93
2, 87945, Control_c, 0, 11, 91
2, 87945, Control_c, 0, 11, 91
2, 87945, Control_c, 0, 11, 91
2, 87954, Control_c, 0, 11, 89
2, 87954, Control_c, 0, 11, 89
2, 87954, Control_c, 0, 11, 89
2, 87963, Control_c, 0, 11, 86
2, 87963, Control_c, 0, 11, 86
2, 87963, Control_c, 0, 11, 86
2, 87971, Control_c, 0, 11, 84
2, 87971, Control_c, 0, 11, 84
2, 87971, Control_c, 0, 11, 84
2, 87980, Control_c, 0, 11, 82
2, 87980, Control_c, 0, 11, 82
2, 87980, Control_c, 0, 11, 82
2, 87989, Control_c, 0, 11, 80
2, 87989, Control_c, 0, 11, 80
2, 87989, Control_c, 0, 11, 80
2, 87998, Control_c, 0, 11, 78
2, 87998, Control_c, 0, 11, 78
2, 87998, Control_c, 0, 11, 78
2, 88006, Control_c, 0, 11, 76
2, 88006, Control_c, 0, 11, 76
2, 88006, Control_c, 0, 11, 76
2, 88015, Control_c, 0, 11, 73
2, 88015, Control_c, 0, 11, 73
2, 88015, Control_c, 0, 11, 73
2, 88024, Control_c, 0, 11, 71
2, 88024, Control_c, 0, 11, 71
2, 88024, Control_c, 0, 11, 71
2, 88033, Control_c, 0, 11, 69
2, 88033, Control_c, 0, 11, 69
2, 88033, Control_c, 0, 11, 69
2, 89030, Note_on_c, 0, 83, 0
2, 89088, Note_on_c, 0, 83, 64
2, 89090, Control_c, 0, 11, 120
2, 89090, Control_c, 0, 11, 120
2, 89090, Control_c, 0, 11, 120
2, 89108, Control_c, 0, 11, 121
2, 89108, Control_c, 0, 11, 121
2, 89108, Control_c, 0, 11, 121
2, 89125, Control_c, 0, 11, 122
2, 89125, Control_c, 0, 11, 122
2, 89125, Control_c, 0, 11, 122
2, 89142, Control_c, 0, 11, 123
2, 89142, Control_c, 0, 11, 123
2, 89142, Control_c, 0, 11, 123
2, 89160, Control_c, 0, 11, 124
2, 89160, Control_c, 0, 11, 124
2, 89160, Control_c, 0, 11, 124
2, 89177, Control_c, 0, 11, 125
2, 89177, Control_c, 0, 11, 125
2, 89177, Control_c, 0, 11, 125
2, 89195, Control_c, 0, 11, 126
2, 89195, Control_c, 0, 11, 126
2, 89195, Control_c, 0, 11, 126
2, 89204, Control_c, 0, 11, 127
2, 89204, Control_c, 0, 11, 127
2, 89204, Control_c, 0, 11, 127
2, 89253, Control_c, 0, 11, 126
2, 89253, Control_c, 0, 11, 126
2, 89253, Control_c, 0, 11, 126
2, 89262, Control_c, 0, 11, 124
2, 89262, Control_c, 0, 11, 124
2, 89262, Control_c, 0, 11, 124
2, 89263, Control_c, 0, 11, 124
2, 89263, Control_c, 0, 11, 124
2, 89263, Control_c, 0, 11, 124
2, 89272, Control_c, 0, 11, 123
2, 89272, Control_c, 0, 11, 123
2, 89272, Control_c, 0, 11, 123
2, 89281, Control_c, 0, 11, 121
2, 89281, Control_c, 0, 11, 121
2, 89281, Control_c, 0, 11, 121
2, 89289, Control_c, 0, 11, 120
2, 89289, Control_c, 0, 11, 120
2, 89289, Control_c, 0, 11, 120
2, 89298, Control_c, 0, 11, 118
2, 89298, Control_c, 0, 11, 118
2, 89298, Control_c, 0, 11, 118
2, 89307, Control_c, 0, 11, 117
2, 89307, Control_c, 0, 11, 117
2, 89307, Control_c, 0, 11, 117
2, 89315, Control_c, 0, 11, 115
2, 89315, Control_c, 0, 11, 115
2, 89315, Control_c, 0, 11, 115
2, 89324, Control_c, 0, 11, 114
2, 89324, Control_c, 0, 11, 114
2, 89324, Control_c, 0, 11, 114
2, 89333, Control_c, 0, 11, 112
2, 89333, Control_c, 0, 11, 112
2, 89333, Control_c, 0, 11, 112
2, 89342, Control_c, 0, 11, 111
2, 89342, Control_c, 0, 11, 111
2, 89342, Control_c, 0, 11, 111
2, 89350, Control_c, 0, 11, 109
2, 89350, Control_c, 0, 11, 109
2, 89350, Control_c, 0, 11, 109
2, 89359, Control_c, 0, 11, 108
2, 89359, Control_c, 0, 11, 108
2, 89359, Control_c, 0, 11, 108
2, 89368, Control_c, 0, 11, 106
2, 89368, Control_c, 0, 11, 106
2, 89368, Control_c, 0, 11, 106
2, 89377, Control_c, 0, 11, 105
2, 89377, Control_c, 0, 11, 105
2, 89377, Control_c, 0, 11, 105
2, 89385, Control_c, 0, 11, 103
2, 89385, Control_c, 0, 11, 103
2, 89385, Control_c, 0, 11, 103
2, 89394, Control_c, 0, 11, 101
2, 89394, Control_c, 0, 11, 101
2, 89394, Control_c, 0, 11, 101
2, 89403, Control_c, 0, 11, 99
2, 89403, Control_c, 0, 11, 99
2, 89403, Control_c, 0, 11, 99
2, 89411, Control_c, 0, 11, 96
2, 89411, Control_c, 0, 11, 96
2, 89411, Control_c, 0, 11, 96
2, 89420, Control_c, 0, 11, 93
2, 89420, Control_c, 0, 11, 93
2, 89420, Control_c, 0, 11, 93
2, 89429, Control_c, 0, 11, 90
2, 89429, Control_c, 0, 11, 90
2, 89429, Control_c, 0, 11, 90
2, 89438, Control_c, 0, 11, 87
2, 89438, Control_c, 0, 11, 87
2, 89438, Control_c, 0, 11, 87
2, 89446, Control_c, 0, 11, 84
2, 89446, Control_c, 0, 11, 84
2, 89446, Control_c, 0, 11, 84
2, 89455, Control_c, 0, 11, 81
2, 89455, Control_c, 0, 11, 81
2, 89455, Control_c, 0, 11, 81
2, 89464, Control_c, 0, 11, 78
2, 89464, Control_c, 0, 11, 78
2, 89464, Control_c, 0, 11, 78
2, 89473, Control_c, 0, 11, 75
2, 89473, Control_c, 0, 11, 75
2, 89473, Control_c, 0, 11, 75
2, 89481, Control_c, 0, 11, 72
2, 89481, Control_c, 0, 11, 72
2, 89481, Control_c, 0, 11, 72
2, 89490, Control_c, 0, 11, 69
2, 89490, Control_c, 0, 11, 69
2, 89490, Control_c, 0, 11, 69
2, 90566, Note_on_c, 0, 83, 0
2, 90624, Note_on_c, 0, 84, 64
2, 90626, Control_c, 0, 11, 120
2, 90626, Control_c, 0, 11, 120
2, 90626, Control_c, 0, 11, 120
2, 90626, Control_c, 0, 11, 120
2, 90626, Control_c, 0, 11, 120
2, 90626, Control_c, 0, 11, 120
2, 90626, Control_c, 0, 11, 120
2, 90626, Control_c, 0, 11, 120
2, 90626, Control_c, 0, 11, 120
2, 90644, Control_c, 0, 11, 121
2, 90644, Control_c, 0, 11, 121
2, 90644, Control_c, 0, 11, 121
2, 90644, Control_c, 0, 11, 121
2, 90644, Control_c, 0, 11, 121
2, 90644, Control_c, 0, 11, 121
2, 90644, Control_c, 0, 11, 121
2, 90644, Control_c, 0, 11, 121
2, 90644, Control_c, 0, 11, 121
2, 90661, Control_c, 0, 11, 122
2, 90661, Control_c, 0, 11, 122
2, 90661, Control_c, 0, 11, 122
2, 90661, Control_c, 0, 11, 122
2, 90661, Control_c, 0, 11, 122
2, 90661, Control_c, 0, 11, 122
2, 90661, Control_c, 0, 11, 122
2, 90661, Control_c, 0, 11, 122
2, 90661, Control_c, 0, 11, 122
2, 90678, Control_c, 0, 11, 123
2, 90678, Control_c, 0, 11, 123
2, 90678, Control_c, 0, 11, 123
2, 90678, Control_c, 0, 11, 123
2, 90678, Control_c, 0, 11, 123
2, 90678, Control_c, 0, 11, 123
2, 90678, Control_c, 0, 11, 123
2, 90678, Control_c, 0, 11, 123
2, 90678, Control_c, 0, 11, 123
2, 90696, Control_c, 0, 11, 124
2, 90696, Control_c, 0, 11, 124
2, 90696, Control_c, 0, 11, 124
2, 90696, Control_c, 0, 11, 124
2, 90696, Control_c, 0, 11, 124
2, 90696, Control_c, 0, 11, 124
2, 90696, Control_c, 0, 11, 124
2, 90696, Control_c, 0, 11, 124
2, 90696, Control_c, 0, 11, 124
2, 90713, Control_c, 0, 11, 125
2, 90713, Control_c, 0, 11, 125
2, 90713, Control_c, 0, 11, 125
2, 90713, Control_c, 0, 11, 125
2, 90713, Control_c, 0, 11, 125
2, 90713, Control_c, 0, 11, 125
2, 90713, Control_c, 0, 11, 125
2, 90713, Control_c, 0, 11, 125
2, 90713, Control_c, 0, 11, 125
2, 90731, Control_c, 0, 11, 126
2, 90731, Control_c, 0, 11, 126
2, 90731, Control_c, 0, 11, 126
2, 90731, Control_c, 0, 11, 126
2, 90731, Control_c, 0, 11, 126
2, 90731, Control_c, 0, 11, 126
2, 90731, Control_c, 0, 11, 126
2, 90731, Control_c, 0, 11, 126
2, 90731, Control_c, 0, 11, 126
2, 90740, Control_c, 0, 11, 127
2, 90740, Control_c, 0, 11, 127
2, 90740, Control_c, 0, 11, 127
2, 90740, Control_c, 0, 11, 127
2, 90740, Control_c, 0, 11, 127
2, 90740, Control_c, 0, 11, 127
2, 90740, Control_c, 0, 11, 127
2, 90740, Control_c, 0, 11, 127
2, 90740, Control_c, 0, 11, 127
2, 90789, Control_c, 0, 11, 126
2, 90789, Control_c, 0, 11, 126
2, 90789, Control_c, 0, 11, 126
2, 90789, Control_c, 0, 11, 126
2, 90789, Control_c, 0, 11, 126
2, 90789, Control_c, 0, 11, 126
2, 90789, Control_c, 0, 11, 126
2, 90789, Control_c, 0, 11, 126
2, 90789, Control_c, 0, 11, 126
2, 90798, Control_c, 0, 11, 126
2, 90798, Control_c, 0, 11, 126
2, 90798, Control_c, 0, 11, 126
2, 90798, Control_c, 0, 11, 126
2, 90798, Control_c, 0, 11, 126
2, 90798, Control_c, 0, 11, 126
2, 90798, Control_c, 0, 11, 126
2, 90798, Control_c, 0, 11, 126
2, 90798, Control_c, 0, 11, 126
2, 90807, Control_c, 0, 11, 125
2, 90807, Control_c, 0, 11, 125
2, 90807, Control_c, 0, 11, 125
2, 90807, Control_c, 0, 11, 125
2, 90807, Control_c, 0, 11, 125
2, 90807, Control_c, 0, 11, 125
2, 90807, Control_c, 0, 11, 125
2, 90807, Control_c, 0, 11, 125
2, 90807, Control_c, 0, 11, 125
2, 90816, Control_c, 0, 11, 123
2, 90816, Control_c, 0, 11, 123
2, 90816, Control_c, 0, 11, 123
2, 90816, Control_c, 0, 11, 123
2, 90816, Control_c, 0, 11, 123
2, 90816, Control_c, 0, 11, 123
2, 90816, Control_c, 0, 11, 123
2, 90816, Control_c, 0, 11, 123
2, 90816, Control_c, 0, 11, 123
2, 90824, Control_c, 0, 11, 121
2, 90824, Control_c, 0, 11, 121
2, 90824, Control_c, 0, 11, 121
2, 90824, Control_c, 0, 11, 121
2, 90824, Control_c, 0, 11, 121
2, 90824, Control_c, 0, 11, 121
2, 90824, Control_c, 0, 11, 121
2, 90824, Control_c, 0, 11, 121
2, 90824, Control_c, 0, 11, 121
2, 90833, Control_c, 0, 11, 119
2, 90833, Control_c, 0, 11, 119
2, 90833, Control_c, 0, 11, 119
2, 90833, Control_c, 0, 11, 119
2, 90833, Control_c, 0, 11, 119
2, 90833, Control_c, 0, 11, 119
2, 90833, Control_c, 0, 11, 119
2, 90833, Control_c, 0, 11, 119
2, 90833, Control_c, 0, 11, 119
2, 90842, Control_c, 0, 11, 117
2, 90842, Control_c, 0, 11, 117
2, 90842, Control_c, 0, 11, 117
2, 90842, Control_c, 0, 11, 117
2, 90842, Control_c, 0, 11, 117
2, 90842, Control_c, 0, 11, 117
2, 90842, Control_c, 0, 11, 117
2, 90842, Control_c, 0, 11, 117
2, 90842, Control_c, 0, 11, 117
2, 90850, Control_c, 0, 11, 116
2, 90850, Control_c, 0, 11, 116
2, 90850, Control_c, 0, 11, 116
2, 90850, Control_c, 0, 11, 116
2, 90850, Control_c, 0, 11, 116
2, 90850, Control_c, 0, 11, 116
2, 90850, Control_c, 0, 11, 116
2, 90850, Control_c, 0, 11, 116
2, 90850, Control_c, 0, 11, 116
2, 90859, Control_c, 0, 11, 114
2, 90859, Control_c, 0, 11, 114
2, 90859, Control_c, 0, 11, 114
2, 90859, Control_c, 0, 11, 114
2, 90859, Control_c, 0, 11, 114
2, 90859, Control_c, 0, 11, 114
2, 90859, Control_c, 0, 11, 114
2, 90859, Control_c, 0, 11, 114
2, 90859, Control_c, 0, 11, 114
2, 90868, Control_c, 0, 11, 112
2, 90868, Control_c, 0, 11, 112
2, 90868, Control_c, 0, 11, 112
2, 90868, Control_c, 0, 11, 112
2, 90868, Control_c, 0, 11, 112
2, 90868, Control_c, 0, 11, 112
2, 90868, Control_c, 0, 11, 112
2, 90868, Control_c, 0, 11, 112
2, 90868, Control_c, 0, 11, 112
2, 90877, Control_c, 0, 11, 110
2, 90877, Control_c, 0, 11, 110
2, 90877, Control_c, 0, 11, 110
2, 90877, Control_c, 0, 11, 110
2, 90877, Control_c, 0, 11, 110
2, 90877, Control_c, 0, 11, 110
2, 90877, Control_c, 0, 11, 110
2, 90877, Control_c, 0, 11, 110
2, 90877, Control_c, 0, 11, 110
2, 90885, Control_c, 0, 11, 108
2, 90885, Control_c, 0, 11, 108
2, 90885, Control_c, 0, 11, 108
2, 90885, Control_c, 0, 11, 108
2, 90885, Control_c, 0, 11, 108
2, 90885, Control_c, 0, 11, 108
2, 90885, Control_c, 0, 11, 108
2, 90885, Control_c, 0, 11, 108
2, 90885, Control_c, 0, 11, 108
2, 90894, Control_c, 0, 11, 107
2, 90894, Control_c, 0, 11, 107
2, 90894, Control_c, 0, 11, 107
2, 90894, Control_c, 0, 11, 107
2, 90894, Control_c, 0, 11, 107
2, 90894, Control_c, 0, 11, 107
2, 90894, Control_c, 0, 11, 107
2, 90894, Control_c, 0, 11, 107
2, 90894, Control_c, 0, 11, 107
2, 90903, Control_c, 0, 11, 104
2, 90912, Control_c, 0, 11, 103
2, 90920, Control_c, 0, 11, 101
2, 90929, Control_c, 0, 11, 99
2, 90938, Control_c, 0, 11, 97
2, 90946, Control_c, 0, 11, 95
2, 90955, Control_c, 0, 11, 93
2, 90964, Control_c, 0, 11, 91
2, 90973, Control_c, 0, 11, 89
2, 90981, Control_c, 0, 11, 87
2, 90990, Control_c, 0, 11, 85
2, 90999, Control_c, 0, 11, 83
2, 91008, Control_c, 0, 11, 81
2, 91016, Control_c, 0, 11, 77
2, 91016, Control_c, 0, 11, 77
2, 91016, Control_c, 0, 11, 77
2, 91025, Control_c, 0, 11, 76
2, 91025, Control_c, 0, 11, 76
2, 91025, Control_c, 0, 11, 76
2, 91034, Control_c, 0, 11, 74
2, 91034, Control_c, 0, 11, 74
2, 91034, Control_c, 0, 11, 74
2, 91042, Control_c, 0, 11, 72
2, 91042, Control_c, 0, 11, 72
2, 91042, Control_c, 0, 11, 72
2, 91051, Control_c, 0, 11, 71
2, 91051, Control_c, 0, 11, 71
2, 91051, Control_c, 0, 11, 71
2, 91060, Control_c, 0, 11, 69
2, 91060, Control_c, 0, 11, 69
2, 91060, Control_c, 0, 11, 69
2, 91069, Control_c, 0, 11, 67
2, 91069, Control_c, 0, 11, 67
2, 91069, Control_c, 0, 11, 67
2, 91077, Control_c, 0, 11, 66
2, 91077, Control_c, 0, 11, 66
2, 91077, Control_c, 0, 11, 66
2, 92102, Note_on_c, 0, 84, 0
2, 92160, Note_on_c, 0, 84, 63
2, 92162, Control_c, 0, 11, 120
2, 92162, Control_c, 0, 11, 120
2, 92162, Control_c, 0, 11, 120
2, 92162, Control_c, 0, 11, 120
2, 92162, Control_c, 0, 11, 120
2, 92162, Control_c, 0, 11, 120
2, 92162, Control_c, 0, 11, 120
2, 92162, Control_c, 0, 11, 120
2, 92162, Control_c, 0, 11, 120
2, 92180, Control_c, 0, 11, 121
2, 92180, Control_c, 0, 11, 121
2, 92180, Control_c, 0, 11, 121
2, 92180, Control_c, 0, 11, 121
2, 92180, Control_c, 0, 11, 121
2, 92180, Control_c, 0, 11, 121
2, 92180, Control_c, 0, 11, 121
2, 92180, Control_c, 0, 11, 121
2, 92180, Control_c, 0, 11, 121
2, 92197, Control_c, 0, 11, 122
2, 92197, Control_c, 0, 11, 122
2, 92197, Control_c, 0, 11, 122
2, 92197, Control_c, 0, 11, 122
2, 92197, Control_c, 0, 11, 122
2, 92197, Control_c, 0, 11, 122
2, 92197, Control_c, 0, 11, 122
2, 92197, Control_c, 0, 11, 122
2, 92197, Control_c, 0, 11, 122
2, 92214, Control_c, 0, 11, 123
2, 92214, Control_c, 0, 11, 123
2, 92214, Control_c, 0, 11, 123
2, 92214, Control_c, 0, 11, 123
2, 92214, Control_c, 0, 11, 123
2, 92214, Control_c, 0, 11, 123
2, 92214, Control_c, 0, 11, 123
2, 92214, Control_c, 0, 11, 123
2, 92214, Control_c, 0, 11, 123
2, 92232, Control_c, 0, 11, 124
2, 92232, Control_c, 0, 11, 124
2, 92232, Control_c, 0, 11, 124
2, 92232, Control_c, 0, 11, 124
2, 92232, Control_c, 0, 11, 124
2, 92232, Control_c, 0, 11, 124
2, 92232, Control_c, 0, 11, 124
2, 92232, Control_c, 0, 11, 124
2, 92232, Control_c, 0, 11, 124
2, 92249, Control_c, 0, 11, 125
2, 92249, Control_c, 0, 11, 125
2, 92249, Control_c, 0, 11, 125
2, 92249, Control_c, 0, 11, 125
2, 92249, Control_c, 0, 11, 125
2, 92249, Control_c, 0, 11, 125
2, 92249, Control_c, 0, 11, 125
2, 92249, Control_c, 0, 11, 125
2, 92249, Control_c, 0, 11, 125
2, 92267, Control_c, 0, 11, 126
2, 92267, Control_c, 0, 11, 126
2, 92267, Control_c, 0, 11, 126
2, 92267, Control_c, 0, 11, 126
2, 92267, Control_c, 0, 11, 126
2, 92267, Control_c, 0, 11, 126
2, 92267, Control_c, 0, 11, 126
2, 92267, Control_c, 0, 11, 126
2, 92267, Control_c, 0, 11, 126
2, 92276, Control_c, 0, 11, 127
2, 92276, Control_c, 0, 11, 127
2, 92276, Control_c, 0, 11, 127
2, 92276, Control_c, 0, 11, 127
2, 92276, Control_c, 0, 11, 127
2, 92276, Control_c, 0, 11, 127
2, 92276, Control_c, 0, 11, 127
2, 92276, Control_c, 0, 11, 127
2, 92276, Control_c, 0, 11, 127
2, 92325, Control_c, 0, 11, 126
2, 92325, Control_c, 0, 11, 126
2, 92325, Control_c, 0, 11, 126
2, 92325, Control_c, 0, 11, 126
2, 92325, Control_c, 0, 11, 126
2, 92325, Control_c, 0, 11, 126
2, 92325, Control_c, 0, 11, 126
2, 92325, Control_c, 0, 11, 126
2, 92325, Control_c, 0, 11, 126
2, 92334, Control_c, 0, 11, 126
2, 92334, Control_c, 0, 11, 126
2, 92334, Control_c, 0, 11, 126
2, 92334, Control_c, 0, 11, 126
2, 92334, Control_c, 0, 11, 126
2, 92334, Control_c, 0, 11, 126
2, 92334, Control_c, 0, 11, 126
2, 92334, Control_c, 0, 11, 126
2, 92334, Control_c, 0, 11, 126
2, 92343, Control_c, 0, 11, 125
2, 92343, Control_c, 0, 11, 125
2, 92343, Control_c, 0, 11, 125
2, 92343, Control_c, 0, 11, 125
2, 92343, Control_c, 0, 11, 125
2, 92343, Control_c, 0, 11, 125
2, 92343, Control_c, 0, 11, 125
2, 92343, Control_c, 0, 11, 125
2, 92343, Control_c, 0, 11, 125
2, 92352, Control_c, 0, 11, 123
2, 92352, Control_c, 0, 11, 123
2, 92352, Control_c, 0, 11, 123
2, 92352, Control_c, 0, 11, 123
2, 92352, Control_c, 0, 11, 123
2, 92352, Control_c, 0, 11, 123
2, 92352, Control_c, 0, 11, 123
2, 92352, Control_c, 0, 11, 123
2, 92352, Control_c, 0, 11, 123
2, 92360, Control_c, 0, 11, 121
2, 92360, Control_c, 0, 11, 121
2, 92360, Control_c, 0, 11, 121
2, 92360, Control_c, 0, 11, 121
2, 92360, Control_c, 0, 11, 121
2, 92360, Control_c, 0, 11, 121
2, 92360, Control_c, 0, 11, 121
2, 92360, Control_c, 0, 11, 121
2, 92360, Control_c, 0, 11, 121
2, 92369, Control_c, 0, 11, 119
2, 92369, Control_c, 0, 11, 119
2, 92369, Control_c, 0, 11, 119
2, 92369, Control_c, 0, 11, 119
2, 92369, Control_c, 0, 11, 119
2, 92369, Control_c, 0, 11, 119
2, 92369, Control_c, 0, 11, 119
2, 92369, Control_c, 0, 11, 119
2, 92369, Control_c, 0, 11, 119
2, 92378, Control_c, 0, 11, 117
2, 92378, Control_c, 0, 11, 117
2, 92378, Control_c, 0, 11, 117
2, 92378, Control_c, 0, 11, 117
2, 92378, Control_c, 0, 11, 117
2, 92378, Control_c, 0, 11, 117
2, 92378, Control_c, 0, 11, 117
2, 92378, Control_c, 0, 11, 117
2, 92378, Control_c, 0, 11, 117
2, 92386, Control_c, 0, 11, 116
2, 92386, Control_c, 0, 11, 116
2, 92386, Control_c, 0, 11, 116
2, 92386, Control_c, 0, 11, 116
2, 92386, Control_c, 0, 11, 116
2, 92386, Control_c, 0, 11, 116
2, 92386, Control_c, 0, 11, 116
2, 92386, Control_c, 0, 11, 116
2, 92386, Control_c, 0, 11, 116
2, 92395, Control_c, 0, 11, 114
2, 92395, Control_c, 0, 11, 114
2, 92395, Control_c, 0, 11, 114
2, 92395, Control_c, 0, 11, 114
2, 92395, Control_c, 0, 11, 114
2, 92395, Control_c, 0, 11, 114
2, 92395, Control_c, 0, 11, 114
2, 92395, Control_c, 0, 11, 114
2, 92395, Control_c, 0, 11, 114
2, 92404, Control_c, 0, 11, 112
2, 92404, Control_c, 0, 11, 112
2, 92404, Control_c, 0, 11, 112
2, 92404, Control_c, 0, 11, 112
2, 92404, Control_c, 0, 11, 112
2, 92404, Control_c, 0, 11, 112
2, 92404, Control_c, 0, 11, 112
2, 92404, Control_c, 0, 11, 112
2, 92404, Control_c, 0, 11, 112
2, 92413, Control_c, 0, 11, 110
2, 92413, Control_c, 0, 11, 110
2, 92413, Control_c, 0, 11, 110
2, 92413, Control_c, 0, 11, 110
2, 92413, Control_c, 0, 11, 110
2, 92413, Control_c, 0, 11, 110
2, 92413, Control_c, 0, 11, 110
2, 92413, Control_c, 0, 11, 110
2, 92413, Control_c, 0, 11, 110
2, 92421, Control_c, 0, 11, 108
2, 92421, Control_c, 0, 11, 108
2, 92421, Control_c, 0, 11, 108
2, 92421, Control_c, 0, 11, 108
2, 92421, Control_c, 0, 11, 108
2, 92421, Control_c, 0, 11, 108
2, 92421, Control_c, 0, 11, 108
2, 92421, Control_c, 0, 11, 108
2, 92421, Control_c, 0, 11, 108
2, 92430, Control_c, 0, 11, 107
2, 92430, Control_c, 0, 11, 107
2, 92430, Control_c, 0, 11, 107
2, 92430, Control_c, 0, 11, 107
2, 92430, Control_c, 0, 11, 107
2, 92430, Control_c, 0, 11, 107
2, 92430, Control_c, 0, 11, 107
2, 92430, Control_c, 0, 11, 107
2, 92430, Control_c, 0, 11, 107
2, 92448, Control_c, 0, 11, 102
2, 92448, Control_c, 0, 11, 102
2, 92448, Control_c, 0, 11, 102
2, 92456, Control_c, 0, 11, 99
2, 92456, Control_c, 0, 11, 99
2, 92456, Control_c, 0, 11, 99
2, 92465, Control_c, 0, 11, 97
2, 92465, Control_c, 0, 11, 97
2, 92465, Control_c, 0, 11, 97
2, 92474, Control_c, 0, 11, 95
2, 92474, Control_c, 0, 11, 95
2, 92474, Control_c, 0, 11, 95
2, 92482, Control_c, 0, 11, 93
2, 92482, Control_c, 0, 11, 93
2, 92482, Control_c, 0, 11, 93
2, 92491, Control_c, 0, 11, 90
2, 92491, Control_c, 0, 11, 90
2, 92491, Control_c, 0, 11, 90
2, 92500, Control_c, 0, 11, 88
2, 92500, Control_c, 0, 11, 88
2, 92500, Control_c, 0, 11, 88
2, 92509, Control_c, 0, 11, 86
2, 92509, Control_c, 0, 11, 86
2, 92509, Control_c, 0, 11, 86
2, 92517, Control_c, 0, 11, 84
2, 92517, Control_c, 0, 11, 84
2, 92517, Control_c, 0, 11, 84
2, 92526, Control_c, 0, 11, 81
2, 92526, Control_c, 0, 11, 81
2, 92526, Control_c, 0, 11, 81
2, 92535, Control_c, 0, 11, 79
2, 92535, Control_c, 0, 11, 79
2, 92535, Control_c, 0, 11, 79
2, 92544, Control_c, 0, 11, 77
2, 92544, Control_c, 0, 11, 77
2, 92544, Control_c, 0, 11, 77
2, 92552, Control_c, 0, 11, 75
2, 92552, Control_c, 0, 11, 75
2, 92552, Control_c, 0, 11, 75
2, 92561, Control_c, 0, 11, 72
2, 92561, Control_c, 0, 11, 72
2, 92561, Control_c, 0, 11, 72
2, 92570, Control_c, 0, 11, 70
2, 92570, Control_c, 0, 11, 70
2, 92570, Control_c, 0, 11, 70
2, 92578, Control_c, 0, 11, 68
2, 92578, Control_c, 0, 11, 68
2, 92578, Control_c, 0, 11, 68
2, 92587, Control_c, 0, 11, 66
2, 92587, Control_c, 0, 11, 66
2, 92587, Control_c, 0, 11, 66
2, 92596, Control_c, 0, 11, 63
2, 92596, Control_c, 0, 11, 63
2, 92596, Control_c, 0, 11, 63
2, 93638, Note_on_c, 0, 84, 0
2, 93696, Note_on_c, 0, 82, 63
2, 93698, Control_c, 0, 11, 120
2, 93698, Control_c, 0, 11, 120
2, 93698, Control_c, 0, 11, 120
2, 93698, Control_c, 0, 11, 120
2, 93698, Control_c, 0, 11, 120
2, 93698, Control_c, 0, 11, 120
2, 93698, Control_c, 0, 11, 120
2, 93698, Control_c, 0, 11, 120
2, 93698, Control_c, 0, 11, 120
2, 93716, Control_c, 0, 11, 121
2, 93716, Control_c, 0, 11, 121
2, 93716, Control_c, 0, 11, 121
2, 93716, Control_c, 0, 11, 121
2, 93716, Control_c, 0, 11, 121
2, 93716, Control_c, 0, 11, 121
2, 93716, Control_c, 0, 11, 121
2, 93716, Control_c, 0, 11, 121
2, 93716, Control_c, 0, 11, 121
2, 93733, Control_c, 0, 11, 122
2, 93733, Control_c, 0, 11, 122
2, 93733, Control_c, 0, 11, 122
2, 93733, Control_c, 0, 11, 122
2, 93733, Control_c, 0, 11, 122
2, 93733, Control_c, 0, 11, 122
2, 93733, Control_c, 0, 11, 122
2, 93733, Control_c, 0, 11, 122
2, 93733, Control_c, 0, 11, 122
2, 93750, Control_c, 0, 11, 123
2, 93750, Control_c, 0, 11, 123
2, 93750, Control_c, 0, 11, 123
2, 93750, Control_c, 0, 11, 123
2, 93750, Control_c, 0, 11, 123
2, 93750, Control_c, 0, 11, 123
2, 93750, Control_c, 0, 11, 123
2, 93750, Control_c, 0, 11, 123
2, 93750, Control_c, 0, 11, 123
2, 93768, Control_c, 0, 11, 124
2, 93768, Control_c, 0, 11, 124
2, 93768, Control_c, 0, 11, 124
2, 93768, Control_c, 0, 11, 124
2, 93768, Control_c, 0, 11, 124
2, 93768, Control_c, 0, 11, 124
2, 93768, Control_c, 0, 11, 124
2, 93768, Control_c, 0, 11, 124
2, 93768, Control_c, 0, 11, 124
2, 93785, Control_c, 0, 11, 125
2, 93785, Control_c, 0, 11, 125
2, 93785, Control_c, 0, 11, 125
2, 93785, Control_c, 0, 11, 125
2, 93785, Control_c, 0, 11, 125
2, 93785, Control_c, 0, 11, 125
2, 93785, Control_c, 0, 11, 125
2, 93785, Control_c, 0, 11, 125
2, 93785, Control_c, 0, 11, 125
2, 93803, Control_c, 0, 11, 126
2, 93803, Control_c, 0, 11, 126
2, 93803, Control_c, 0, 11, 126
2, 93803, Control_c, 0, 11, 126
2, 93803, Control_c, 0, 11, 126
2, 93803, Control_c, 0, 11, 126
2, 93803, Control_c, 0, 11, 126
2, 93803, Control_c, 0, 11, 126
2, 93803, Control_c, 0, 11, 126
2, 93812, Control_c, 0, 11, 127
2, 93812, Control_c, 0, 11, 127
2, 93812, Control_c, 0, 11, 127
2, 93812, Control_c, 0, 11, 127
2, 93812, Control_c, 0, 11, 127
2, 93812, Control_c, 0, 11, 127
2, 93812, Control_c, 0, 11, 127
2, 93812, Control_c, 0, 11, 127
2, 93812, Control_c, 0, 11, 127
2, 93861, Control_c, 0, 11, 126
2, 93861, Control_c, 0, 11, 126
2, 93861, Control_c, 0, 11, 126
2, 93861, Control_c, 0, 11, 126
2, 93861, Control_c, 0, 11, 126
2, 93861, Control_c, 0, 11, 126
2, 93861, Control_c, 0, 11, 126
2, 93861, Control_c, 0, 11, 126
2, 93861, Control_c, 0, 11, 126
2, 93870, Control_c, 0, 11, 126
2, 93870, Control_c, 0, 11, 126
2, 93870, Control_c, 0, 11, 126
2, 93870, Control_c, 0, 11, 126
2, 93870, Control_c, 0, 11, 126
2, 93870, Control_c, 0, 11, 126
2, 93870, Control_c, 0, 11, 126
2, 93870, Control_c, 0, 11, 126
2, 93870, Control_c, 0, 11, 126
2, 93879, Control_c, 0, 11, 125
2, 93879, Control_c, 0, 11, 125
2, 93879, Control_c, 0, 11, 125
2, 93879, Control_c, 0, 11, 125
2, 93879, Control_c, 0, 11, 125
2, 93879, Control_c, 0, 11, 125
2, 93879, Control_c, 0, 11, 125
2, 93879, Control_c, 0, 11, 125
2, 93879, Control_c, 0, 11, 125
2, 93888, Control_c, 0, 11, 123
2, 93888, Control_c, 0, 11, 123
2, 93888, Control_c, 0, 11, 123
2, 93888, Control_c, 0, 11, 123
2, 93888, Control_c, 0, 11, 123
2, 93888, Control_c, 0, 11, 123
2, 93888, Control_c, 0, 11, 123
2, 93888, Control_c, 0, 11, 123
2, 93888, Control_c, 0, 11, 123
2, 93896, Control_c, 0, 11, 121
2, 93896, Control_c, 0, 11, 121
2, 93896, Control_c, 0, 11, 121
2, 93896, Control_c, 0, 11, 121
2, 93896, Control_c, 0, 11, 121
2, 93896, Control_c, 0, 11, 121
2, 93896, Control_c, 0, 11, 121
2, 93896, Control_c, 0, 11, 121
2, 93896, Control_c, 0, 11, 121
2, 93905, Control_c, 0, 11, 119
2, 93905, Control_c, 0, 11, 119
2, 93905, Control_c, 0, 11, 119
2, 93905, Control_c, 0, 11, 119
2, 93905, Control_c, 0, 11, 119
2, 93905, Control_c, 0, 11, 119
2, 93905, Control_c, 0, 11, 119
2, 93905, Control_c, 0, 11, 119
2, 93905, Control_c, 0, 11, 119
2, 93914, Control_c, 0, 11, 117
2, 93914, Control_c, 0, 11, 117
2, 93914, Control_c, 0, 11, 117
2, 93914, Control_c, 0, 11, 117
2, 93914, Control_c, 0, 11, 117
2, 93914, Control_c, 0, 11, 117
2, 93914, Control_c, 0, 11, 117
2, 93914, Control_c, 0, 11, 117
2, 93914, Control_c, 0, 11, 117
2, 93922, Control_c, 0, 11, 116
2, 93922, Control_c, 0, 11, 116
2, 93922, Control_c, 0, 11, 116
2, 93922, Control_c, 0, 11, 116
2, 93922, Control_c, 0, 11, 116
2, 93922, Control_c, 0, 11, 116
2, 93922, Control_c, 0, 11, 116
2, 93922, Control_c, 0, 11, 116
2, 93922, Control_c, 0, 11, 116
2, 93931, Control_c, 0, 11, 114
2, 93931, Control_c, 0, 11, 114
2, 93931, Control_c, 0, 11, 114
2, 93931, Control_c, 0, 11, 114
2, 93931, Control_c, 0, 11, 114
2, 93931, Control_c, 0, 11, 114
2, 93931, Control_c, 0, 11, 114
2, 93931, Control_c, 0, 11, 114
2, 93931, Control_c, 0, 11, 114
2, 93940, Control_c, 0, 11, 112
2, 93940, Control_c, 0, 11, 112
2, 93940, Control_c, 0, 11, 112
2, 93940, Control_c, 0, 11, 112
2, 93940, Control_c, 0, 11, 112
2, 93940, Control_c, 0, 11, 112
2, 93940, Control_c, 0, 11, 112
2, 93940, Control_c, 0, 11, 112
2, 93940, Control_c, 0, 11, 112
2, 93949, Control_c, 0, 11, 110
2, 93949, Control_c, 0, 11, 110
2, 93949, Control_c, 0, 11, 110
2, 93949, Control_c, 0, 11, 110
2, 93949, Control_c, 0, 11, 110
2, 93949, Control_c, 0, 11, 110
2, 93949, Control_c, 0, 11, 110
2, 93949, Control_c, 0, 11, 110
2, 93949, Control_c, 0, 11, 110
2, 93957, Control_c, 0, 11, 108
2, 93957, Control_c, 0, 11, 108
2, 93957, Control_c, 0, 11, 108
2, 93957, Control_c, 0, 11, 108
2, 93957, Control_c, 0, 11, 108
2, 93957, Control_c, 0, 11, 108
2, 93957, Control_c, 0, 11, 108
2, 93957, Control_c, 0, 11, 108
2, 93957, Control_c, 0, 11, 108
2, 93966, Control_c, 0, 11, 107
2, 93966, Control_c, 0, 11, 107
2, 93966, Control_c, 0, 11, 107
2, 93966, Control_c, 0, 11, 107
2, 93966, Control_c, 0, 11, 107
2, 93966, Control_c, 0, 11, 107
2, 93966, Control_c, 0, 11, 107
2, 93966, Control_c, 0, 11, 107
2, 93966, Control_c, 0, 11, 107
2, 93979, Control_c, 0, 11, 102
2, 93979, Control_c, 0, 11, 102
2, 93979, Control_c, 0, 11, 102
2, 93988, Control_c, 0, 11, 100
2, 93988, Control_c, 0, 11, 100
2, 93988, Control_c, 0, 11, 100
2, 93996, Control_c, 0, 11, 97
2, 93996, Control_c, 0, 11, 97
2, 93996, Control_c, 0, 11, 97
2, 94005, Control_c, 0, 11, 95
2, 94005, Control_c, 0, 11, 95
2, 94005, Control_c, 0, 11, 95
2, 94014, Control_c, 0, 11, 92
2, 94014, Control_c, 0, 11, 92
2, 94014, Control_c, 0, 11, 92
2, 94022, Control_c, 0, 11, 89
2, 94022, Control_c, 0, 11, 89
2, 94022, Control_c, 0, 11, 89
2, 94031, Control_c, 0, 11, 87
2, 94031, Control_c, 0, 11, 87
2, 94031, Control_c, 0, 11, 87
2, 94040, Control_c, 0, 11, 84
2, 94040, Control_c, 0, 11, 84
2, 94040, Control_c, 0, 11, 84
2, 94049, Control_c, 0, 11, 82
2, 94049, Control_c, 0, 11, 82
2, 94049, Control_c, 0, 11, 82
2, 94057, Control_c, 0, 11, 79
2, 94057, Control_c, 0, 11, 79
2, 94057, Control_c, 0, 11, 79
2, 94066, Control_c, 0, 11, 76
2, 94066, Control_c, 0, 11, 76
2, 94066, Control_c, 0, 11, 76
2, 94075, Control_c, 0, 11, 74
2, 94075, Control_c, 0, 11, 74
2, 94075, Control_c, 0, 11, 74
2, 94084, Control_c, 0, 11, 71
2, 94084, Control_c, 0, 11, 71
2, 94084, Control_c, 0, 11, 71
2, 94092, Control_c, 0, 11, 69
2, 94092, Control_c, 0, 11, 69
2, 94092, Control_c, 0, 11, 69
2, 94101, Control_c, 0, 11, 66
2, 94101, Control_c, 0, 11, 66
2, 94101, Control_c, 0, 11, 66
2, 94110, Control_c, 0, 11, 63
2, 94110, Control_c, 0, 11, 63
2, 94110, Control_c, 0, 11, 63
2, 95174, Note_on_c, 0, 82, 0
2, 95232, Note_on_c, 0, 82, 63
2, 95234, Control_c, 0, 11, 120
2, 95234, Control_c, 0, 11, 120
2, 95234, Control_c, 0, 11, 120
2, 95234, Control_c, 0, 11, 120
2, 95234, Control_c, 0, 11, 120
2, 95234, Control_c, 0, 11, 120
2, 95234, Control_c, 0, 11, 120
2, 95234, Control_c, 0, 11, 120
2, 95234, Control_c, 0, 11, 120
2, 95252, Control_c, 0, 11, 121
2, 95252, Control_c, 0, 11, 121
2, 95252, Control_c, 0, 11, 121
2, 95252, Control_c, 0, 11, 121
2, 95252, Control_c, 0, 11, 121
2, 95252, Control_c, 0, 11, 121
2, 95252, Control_c, 0, 11, 121
2, 95252, Control_c, 0, 11, 121
2, 95252, Control_c, 0, 11, 121
2, 95269, Control_c, 0, 11, 122
2, 95269, Control_c, 0, 11, 122
2, 95269, Control_c, 0, 11, 122
2, 95269, Control_c, 0, 11, 122
2, 95269, Control_c, 0, 11, 122
2, 95269, Control_c, 0, 11, 122
2, 95269, Control_c, 0, 11, 122
2, 95269, Control_c, 0, 11, 122
2, 95269, Control_c, 0, 11, 122
2, 95286, Control_c, 0, 11, 123
2, 95286, Control_c, 0, 11, 123
2, 95286, Control_c, 0, 11, 123
2, 95286, Control_c, 0, 11, 123
2, 95286, Control_c, 0, 11, 123
2, 95286, Control_c, 0, 11, 123
2, 95286, Control_c, 0, 11, 123
2, 95286, Control_c, 0, 11, 123
2, 95286, Control_c, 0, 11, 123
2, 95304, Control_c, 0, 11, 124
2, 95304, Control_c, 0, 11, 124
2, 95304, Control_c, 0, 11, 124
2, 95304, Control_c, 0, 11, 124
2, 95304, Control_c, 0, 11, 124
2, 95304, Control_c, 0, 11, 124
2, 95304, Control_c, 0, 11, 124
2, 95304, Control_c, 0, 11, 124
2, 95304, Control_c, 0, 11, 124
2, 95321, Control_c, 0, 11, 125
2, 95321, Control_c, 0, 11, 125
2, 95321, Control_c, 0, 11, 125
2, 95321, Control_c, 0, 11, 125
2, 95321, Control_c, 0, 11, 125
2, 95321, Control_c, 0, 11, 125
2, 95321, Control_c, 0, 11, 125
2, 95321, Control_c, 0, 11, 125
2, 95321, Control_c, 0, 11, 125
2, 95339, Control_c, 0, 11, 126
2, 95339, Control_c, 0, 11, 126
2, 95339, Control_c, 0, 11, 126
2, 95339, Control_c, 0, 11, 126
2, 95339, Control_c, 0, 11, 126
2, 95339, Control_c, 0, 11, 126
2, 95339, Control_c, 0, 11, 126
2, 95339, Control_c, 0, 11, 126
2, 95339, Control_c, 0, 11, 126
2, 95348, Control_c, 0, 11, 127
2, 95348, Control_c, 0, 11, 127
2, 95348, Control_c, 0, 11, 127
2, 95348, Control_c, 0, 11, 127
2, 95348, Control_c, 0, 11, 127
2, 95348, Control_c, 0, 11, 127
2, 95348, Control_c, 0, 11, 127
2, 95348, Control_c, 0, 11, 127
2, 95348, Control_c, 0, 11, 127
2, 95397, Control_c, 0, 11, 126
2, 95397, Control_c, 0, 11, 126
2, 95397, Control_c, 0, 11, 126
2, 95397, Control_c, 0, 11, 126
2, 95397, Control_c, 0, 11, 126
2, 95397, Control_c, 0, 11, 126
2, 95397, Control_c, 0, 11, 126
2, 95397, Control_c, 0, 11, 126
2, 95397, Control_c, 0, 11, 126
2, 95406, Control_c, 0, 11, 126
2, 95406, Control_c, 0, 11, 126
2, 95406, Control_c, 0, 11, 126
2, 95406, Control_c, 0, 11, 126
2, 95406, Control_c, 0, 11, 126
2, 95406, Control_c, 0, 11, 126
2, 95406, Control_c, 0, 11, 126
2, 95406, Control_c, 0, 11, 126
2, 95406, Control_c, 0, 11, 126
2, 95415, Control_c, 0, 11, 125
2, 95415, Control_c, 0, 11, 125
2, 95415, Control_c, 0, 11, 125
2, 95415, Control_c, 0, 11, 125
2, 95415, Control_c, 0, 11, 125
2, 95415, Control_c, 0, 11, 125
2, 95415, Control_c, 0, 11, 125
2, 95415, Control_c, 0, 11, 125
2, 95415, Control_c, 0, 11, 125
2, 95424, Control_c, 0, 11, 123
2, 95424, Control_c, 0, 11, 123
2, 95424, Control_c, 0, 11, 123
2, 95424, Control_c, 0, 11, 123
2, 95424, Control_c, 0, 11, 123
2, 95424, Control_c, 0, 11, 123
2, 95424, Control_c, 0, 11, 123
2, 95424, Control_c, 0, 11, 123
2, 95424, Control_c, 0, 11, 123
2, 95432, Control_c, 0, 11, 121
2, 95432, Control_c, 0, 11, 121
2, 95432, Control_c, 0, 11, 121
2, 95432, Control_c, 0, 11, 121
2, 95432, Control_c, 0, 11, 121
2, 95432, Control_c, 0, 11, 121
2, 95432, Control_c, 0, 11, 121
2, 95432, Control_c, 0, 11, 121
2, 95432, Control_c, 0, 11, 121
2, 95441, Control_c, 0, 11, 119
2, 95441, Control_c, 0, 11, 119
2, 95441, Control_c, 0, 11, 119
2, 95441, Control_c, 0, 11, 119
2, 95441, Control_c, 0, 11, 119
2, 95441, Control_c, 0, 11, 119
2, 95441, Control_c, 0, 11, 119
2, 95441, Control_c, 0, 11, 119
2, 95441, Control_c, 0, 11, 119
2, 95450, Control_c, 0, 11, 117
2, 95450, Control_c, 0, 11, 117
2, 95450, Control_c, 0, 11, 117
2, 95450, Control_c, 0, 11, 117
2, 95450, Control_c, 0, 11, 117
2, 95450, Control_c, 0, 11, 117
2, 95450, Control_c, 0, 11, 117
2, 95450, Control_c, 0, 11, 117
2, 95450, Control_c, 0, 11, 117
2, 95458, Control_c, 0, 11, 116
2, 95458, Control_c, 0, 11, 116
2, 95458, Control_c, 0, 11, 116
2, 95458, Control_c, 0, 11, 116
2, 95458, Control_c, 0, 11, 116
2, 95458, Control_c, 0, 11, 116
2, 95458, Control_c, 0, 11, 116
2, 95458, Control_c, 0, 11, 116
2, 95458, Control_c, 0, 11, 116
2, 95467, Control_c, 0, 11, 114
2, 95467, Control_c, 0, 11, 114
2, 95467, Control_c, 0, 11, 114
2, 95467, Control_c, 0, 11, 114
2, 95467, Control_c, 0, 11, 114
2, 95467, Control_c, 0, 11, 114
2, 95467, Control_c, 0, 11, 114
2, 95467, Control_c, 0, 11, 114
2, 95467, Control_c, 0, 11, 114
2, 95476, Control_c, 0, 11, 112
2, 95476, Control_c, 0, 11, 112
2, 95476, Control_c, 0, 11, 112
2, 95476, Control_c, 0, 11, 112
2, 95476, Control_c, 0, 11, 112
2, 95476, Control_c, 0, 11, 112
2, 95476, Control_c, 0, 11, 112
2, 95476, Control_c, 0, 11, 112
2, 95476, Control_c, 0, 11, 112
2, 95485, Control_c, 0, 11, 110
2, 95485, Control_c, 0, 11, 110
2, 95485, Control_c, 0, 11, 110
2, 95485, Control_c, 0, 11, 110
2, 95485, Control_c, 0, 11, 110
2, 95485, Control_c, 0, 11, 110
2, 95485, Control_c, 0, 11, 110
2, 95485, Control_c, 0, 11, 110
2, 95485, Control_c, 0, 11, 110
2, 95493, Control_c, 0, 11, 108
2, 95493, Control_c, 0, 11, 108
2, 95493, Control_c, 0, 11, 108
2, 95493, Control_c, 0, 11, 108
2, 95493, Control_c, 0, 11, 108
2, 95493, Control_c, 0, 11, 108
2, 95493, Control_c, 0, 11, 108
2, 95493, Control_c, 0, 11, 108
2, 95493, Control_c, 0, 11, 108
2, 95502, Control_c, 0, 11, 107
2, 95502, Control_c, 0, 11, 107
2, 95502, Control_c, 0, 11, 107
2, 95502, Control_c, 0, 11, 107
2, 95502, Control_c, 0, 11, 107
2, 95502, Control_c, 0, 11, 107
2, 95502, Control_c, 0, 11, 107
2, 95502, Control_c, 0, 11, 107
2, 95502, Control_c, 0, 11, 107
2, 95532, Control_c, 0, 11, 104
2, 95532, Control_c, 0, 11, 104
2, 95532, Control_c, 0, 11, 104
2, 95541, Control_c, 0, 11, 102
2, 95541, Control_c, 0, 11, 102
2, 95541, Control_c, 0, 11, 102
2, 95550, Control_c, 0, 11, 99
2, 95550, Control_c, 0, 11, 99
2, 95550, Control_c, 0, 11, 99
2, 95558, Control_c, 0, 11, 97
2, 95558, Control_c, 0, 11, 97
2, 95558, Control_c, 0, 11, 97
2, 95567, Control_c, 0, 11, 94
2, 95567, Control_c, 0, 11, 94
2, 95567, Control_c, 0, 11, 94
2, 95576, Control_c, 0, 11, 91
2, 95576, Control_c, 0, 11, 91
2, 95576, Control_c, 0, 11, 91
2, 95585, Control_c, 0, 11, 89
2, 95585, Control_c, 0, 11, 89
2, 95585, Control_c, 0, 11, 89
2, 95593, Control_c, 0, 11, 86
2, 95593, Control_c, 0, 11, 86
2, 95593, Control_c, 0, 11, 86
2, 95602, Control_c, 0, 11, 84
2, 95602, Control_c, 0, 11, 84
2, 95602, Control_c, 0, 11, 84
2, 95611, Control_c, 0, 11, 81
2, 95611, Control_c, 0, 11, 81
2, 95611, Control_c, 0, 11, 81
2, 95620, Control_c, 0, 11, 78
2, 95620, Control_c, 0, 11, 78
2, 95620, Control_c, 0, 11, 78
2, 95628, Control_c, 0, 11, 76
2, 95628, Control_c, 0, 11, 76
2, 95628, Control_c, 0, 11, 76
2, 95637, Control_c, 0, 11, 73
2, 95637, Control_c, 0, 11, 73
2, 95637, Control_c, 0, 11, 73
2, 95646, Control_c, 0, 11, 71
2, 95646, Control_c, 0, 11, 71
2, 95646, Control_c, 0, 11, 71
2, 95654, Control_c, 0, 11, 68
2, 95654, Control_c, 0, 11, 68
2, 95654, Control_c, 0, 11, 68
2, 95663, Control_c, 0, 11, 65
2, 95663, Control_c, 0, 11, 65
2, 95663, Control_c, 0, 11, 65
2, 96710, Note_on_c, 0, 82, 0
2, 96768, Note_on_c, 0, 80, 68
2, 96946, Note_on_c, 0, 80, 0
2, 97528, Control_c, 0, 11, 65
2, 97536, Note_on_c, 0, 75, 70
2, 97542, Control_c, 0, 11, 68
2, 97555, Control_c, 0, 11, 70
2, 97562, Control_c, 0, 11, 71
2, 97583, Control_c, 0, 11, 74
2, 97597, Control_c, 0, 11, 76
2, 97603, Control_c, 0, 11, 77
2, 97624, Control_c, 0, 11, 80
2, 97645, Control_c, 0, 11, 82
2, 97665, Control_c, 0, 11, 83
2, 97679, Control_c, 0, 11, 85
2, 97686, Control_c, 0, 11, 86
2, 97699, Control_c, 0, 11, 88
2, 97720, Control_c, 0, 11, 89
2, 97741, Control_c, 0, 11, 92
2, 97747, Control_c, 0, 11, 94
2, 97768, Control_c, 0, 11, 95
2, 97789, Control_c, 0, 11, 97
2, 97830, Control_c, 0, 11, 98
2, 97850, Control_c, 0, 11, 100
2, 97864, Control_c, 0, 11, 101
2, 97905, Control_c, 0, 11, 103
2, 97933, Control_c, 0, 11, 104
2, 97974, Control_c, 0, 11, 107
2, 98008, Control_c, 0, 11, 109
2, 98035, Control_c, 0, 11, 110
2, 98056, Control_c, 0, 11, 112
2, 98090, Control_c, 0, 11, 113
2, 98111, Control_c, 0, 11, 115
2, 98138, Control_c, 0, 11, 116
2, 98179, Control_c, 0, 11, 118
2, 98214, Control_c, 0, 11, 121
2, 98255, Control_c, 0, 11, 122
2, 98282, Control_c, 0, 11, 124
2, 98317, Control_c, 0, 11, 125
2, 98323, Control_c, 0, 11, 127
2, 98766, Control_c, 0, 11, 125
2, 98818, Control_c, 0, 11, 123
2, 98844, Control_c, 0, 11, 122
2, 98870, Control_c, 0, 11, 120
2, 98896, Control_c, 0, 11, 119
2, 98923, Control_c, 0, 11, 117
2, 99001, Control_c, 0, 11, 116
2, 99036, Control_c, 0, 11, 114
2, 99080, Control_c, 0, 11, 113
2, 99123, Control_c, 0, 11, 112
2, 99158, Control_c, 0, 11, 111
2, 99202, Control_c, 0, 11, 110
2, 99237, Control_c, 0, 11, 109
2, 99246, Control_c, 0, 11, 108
2, 99324, Control_c, 0, 11, 107
2, 99403, Control_c, 0, 11, 106
2, 99481, Control_c, 0, 11, 105
2, 99560, Control_c, 0, 11, 104
2, 99638, Control_c, 0, 11, 103
2, 99640, Control_c, 0, 11, 103
2, 99661, Control_c, 0, 11, 102
2, 99681, Control_c, 0, 11, 101
2, 99702, Control_c, 0, 11, 100
2, 99722, Control_c, 0, 11, 99
2, 99743, Control_c, 0, 11, 98
2, 99763, Control_c, 0, 11, 97
2, 99784, Control_c, 0, 11, 96
2, 99805, Control_c, 0, 11, 95
2, 99825, Control_c, 0, 11, 94
2, 99846, Control_c, 0, 11, 93
2, 99866, Control_c, 0, 11, 92
2, 99880, Control_c, 0, 11, 91
2, 99894, Control_c, 0, 11, 90
2, 99901, Control_c, 0, 11, 89
2, 99907, Control_c, 0, 11, 88
2, 99914, Control_c, 0, 11, 87
2, 99921, Control_c, 0, 11, 86
2, 99935, Control_c, 0, 11, 85
2, 99942, Control_c, 0, 11, 84
2, 99949, Control_c, 0, 11, 83
2, 99955, Control_c, 0, 11, 82
2, 99962, Control_c, 0, 11, 81
2, 99969, Control_c, 0, 11, 80
2, 99976, Control_c, 0, 11, 78
2, 99983, Control_c, 0, 11, 77
2, 99990, Control_c, 0, 11, 75
2, 99997, Control_c, 0, 11, 74
2, 100003, Control_c, 0, 11, 72
2, 100010, Control_c, 0, 11, 70
2, 100018, Note_on_c, 0, 75, 0
2, 100172, Control_c, 0, 11, 127
2, 100224, Note_on_c, 0, 75, 52
2, 100364, Note_on_c, 0, 75, 0
2, 100608, Note_on_c, 0, 80, 52
2, 100748, Note_on_c, 0, 80, 0
2, 100992, Note_on_c, 0, 84, 52
2, 101132, Note_on_c, 0, 84, 0
2, 101376, Note_on_c, 0, 85, 52
2, 101516, Note_on_c, 0, 85, 0
2, 101760, Note_on_c, 0, 82, 52
2, 101900, Note_on_c, 0, 82, 0
2, 102144, Note_on_c, 0, 79, 52
2, 102284, Note_on_c, 0, 79, 0
2, 102528, Note_on_c, 0, 73, 52
2, 102668, Note_on_c, 0, 73, 0
2, 103008, Note_on_c, 0, 83, 88
2, 103104, Note_on_c, 0, 83, 0
2, 103104, Note_on_c, 0, 84, 78
2, 103200, Note_on_c, 0, 84, 0
2, 103200, Note_on_c, 0, 83, 55
2, 103296, Note_on_c, 0, 83, 0
2, 103296, Note_on_c, 0, 84, 49
2, 103392, Note_on_c, 0, 84, 0
2, 103392, Note_on_c, 0, 83, 49
2, 103488, Note_on_c, 0, 83, 0
2, 103488, Note_on_c, 0, 84, 49
2, 103584, Note_on_c, 0, 84, 0
2, 103584, Note_on_c, 0, 83, 49
2, 103680, Note_on_c, 0, 83, 0
2, 103680, Note_on_c, 0, 84, 51
2, 103680, Control_c, 0, 11, 127
2, 103962, Control_c, 0, 11, 126
2, 103996, Control_c, 0, 11, 125
2, 104030, Control_c, 0, 11, 123
2, 104154, Control_c, 0, 11, 122
2, 104267, Control_c, 0, 11, 120
2, 104357, Control_c, 0, 11, 113
2, 104368, Control_c, 0, 11, 111
2, 104380, Control_c, 0, 11, 109
2, 104470, Control_c, 0, 11, 111
2, 104544, Note_on_c, 0, 84, 0
2, 104544, Note_on_c, 0, 83, 83
2, 104560, Control_c, 0, 11, 114
2, 104572, Control_c, 0, 11, 115
2, 104606, Control_c, 0, 11, 120
2, 104628, Control_c, 0, 11, 121
2, 104640, Note_on_c, 0, 83, 0
2, 104640, Control_c, 0, 11, 127
2, 104640, Note_on_c, 0, 84, 63
2, 104736, Note_on_c, 0, 84, 0
2, 104736, Note_on_c, 0, 83, 55
2, 104832, Note_on_c, 0, 83, 0
2, 104832, Note_on_c, 0, 84, 49
2, 104928, Note_on_c, 0, 84, 0
2, 104928, Note_on_c, 0, 83, 49
2, 105024, Note_on_c, 0, 83, 0
2, 105024, Note_on_c, 0, 84, 49
2, 105120, Note_on_c, 0, 84, 0
2, 105120, Note_on_c, 0, 83, 49
2, 105216, Note_on_c, 0, 83, 0
2, 105216, Note_on_c, 0, 84, 51
2, 106080, Note_on_c, 0, 84, 0
2, 106080, Note_on_c, 0, 83, 83
2, 106176, Note_on_c, 0, 83, 0
2, 106176, Note_on_c, 0, 84, 63
2, 106272, Note_on_c, 0, 84, 0
2, 106272, Note_on_c, 0, 83, 53
2, 106368, Note_on_c, 0, 83, 0
2, 106368, Note_on_c, 0, 84, 48
2, 106464, Note_on_c, 0, 84, 0
2, 106464, Note_on_c, 0, 83, 48
2, 106560, Note_on_c, 0, 83, 0
2, 106560, Note_on_c, 0, 84, 47
2, 106656, Note_on_c, 0, 84, 0
2, 106656, Note_on_c, 0, 83, 47
2, 106738, Note_on_c, 0, 83, 0
2, 106752, Note_on_c, 0, 84, 47
2, 106760, Control_c, 0, 127, 125
2, 106778, Control_c, 0, 127, 124
2, 106795, Control_c, 0, 127, 120
2, 106804, Control_c, 0, 127, 117
2, 106821, Control_c, 0, 127, 114
2, 106830, Control_c, 0, 127, 109
2, 106848, Control_c, 0, 127, 106
2, 106856, Control_c, 0, 127, 105
2, 106882, Control_c, 0, 127, 99
2, 106900, Control_c, 0, 127, 94
2, 106909, Control_c, 0, 127, 91
2, 106935, Control_c, 0, 127, 90
2, 106952, Control_c, 0, 127, 88
2, 106961, Control_c, 0, 127, 84
2, 106968, Note_on_c, 0, 84, 0
2, 107319, Control_c, 0, 127, 127
2, 107616, Note_on_c, 0, 78, 90
2, 107712, Note_on_c, 0, 78, 0
2, 107712, Note_on_c, 0, 79, 63
2, 107808, Note_on_c, 0, 79, 0
2, 107808, Note_on_c, 0, 78, 55
2, 107904, Note_on_c, 0, 78, 0
2, 107904, Note_on_c, 0, 79, 49
2, 108000, Note_on_c, 0, 79, 0
2, 108000, Note_on_c, 0, 78, 49
2, 108096, Note_on_c, 0, 78, 0
2, 108096, Note_on_c, 0, 79, 49
2, 108192, Note_on_c, 0, 79, 0
2, 108192, Note_on_c, 0, 78, 49
2, 108282, Note_on_c, 0, 78, 0
2, 108288, Note_on_c, 0, 79, 50
2, 109152, Note_on_c, 0, 79, 0
2, 109152, Note_on_c, 0, 78, 83
2, 109248, Note_on_c, 0, 78, 0
2, 109248, Note_on_c, 0, 79, 63
2, 109344, Note_on_c, 0, 79, 0
2, 109344, Note_on_c, 0, 78, 55
2, 109440, Note_on_c, 0, 78, 0
2, 109440, Note_on_c, 0, 79, 49
2, 109536, Note_on_c, 0, 79, 0
2, 109536, Note_on_c, 0, 78, 49
2, 109632, Note_on_c, 0, 78, 0
2, 109632, Note_on_c, 0, 79, 49
2, 109728, Note_on_c, 0, 79, 0
2, 109728, Note_on_c, 0, 78, 49
2, 109818, Note_on_c, 0, 78, 0
2, 109824, Note_on_c, 0, 79, 50
2, 110688, Note_on_c, 0, 79, 0
2, 110688, Note_on_c, 0, 78, 83
2, 110784, Note_on_c, 0, 78, 0
2, 110784, Note_on_c, 0, 79, 63
2, 110880, Note_on_c, 0, 79, 0
2, 110880, Note_on_c, 0, 78, 55
2, 110976, Note_on_c, 0, 78, 0
2, 110976, Note_on_c, 0, 79, 49
2, 111072, Note_on_c, 0, 79, 0
2, 111072, Note_on_c, 0, 78, 49
2, 111168, Note_on_c, 0, 78, 0
2, 111168, Note_on_c, 0, 79, 49
2, 111264, Note_on_c, 0, 79, 0
2, 111264, Note_on_c, 0, 78, 49
2, 111354, Note_on_c, 0, 78, 0
2, 111360, Note_on_c, 0, 79, 49
2, 111393, Control_c, 0, 11, 127
2, 111472, Control_c, 0, 11, 126
2, 111597, Control_c, 0, 11, 125
2, 111664, Control_c, 0, 11, 123
2, 111698, Control_c, 0, 11, 122
2, 111732, Control_c, 0, 11, 120
2, 111766, Control_c, 0, 11, 119
2, 111800, Control_c, 0, 11, 117
2, 111834, Control_c, 0, 11, 116
2, 111845, Control_c, 0, 11, 114
2, 111879, Control_c, 0, 11, 113
2, 111913, Control_c, 0, 11, 111
2, 111969, Control_c, 0, 11, 110
2, 111981, Control_c, 0, 11, 108
2, 112003, Control_c, 0, 11, 107
2, 112015, Control_c, 0, 11, 105
2, 112037, Control_c, 0, 11, 104
2, 112048, Control_c, 0, 11, 101
2, 112114, Note_on_c, 0, 79, 0
2, 112184, Control_c, 0, 11, 108
2, 112224, Note_on_c, 0, 79, 55
2, 112240, Control_c, 0, 11, 112
2, 112274, Control_c, 0, 11, 117
2, 112297, Control_c, 0, 11, 118
2, 112308, Control_c, 0, 11, 120
2, 112320, Note_on_c, 0, 79, 0
2, 112320, Note_on_c, 0, 78, 59
2, 112342, Control_c, 0, 11, 123
2, 112365, Control_c, 0, 11, 127
2, 112416, Note_on_c, 0, 78, 0
2, 112416, Note_on_c, 0, 79, 62
2, 112512, Note_on_c, 0, 79, 0
2, 112512, Note_on_c, 0, 80, 67
2, 112608, Note_on_c, 0, 80, 0
2, 112608, Note_on_c, 0, 81, 70
2, 112704, Note_on_c, 0, 81, 0
2, 112704, Note_on_c, 0, 82, 75
2, 112800, Note_on_c, 0, 82, 0
2, 112800, Note_on_c, 0, 83, 85
2, 112882, Note_on_c, 0, 83, 0
2, 112896, Note_on_c, 0, 84, 52
2, 113650, Note_on_c, 0, 84, 0
2, 113760, Note_on_c, 0, 83, 89
2, 113760, Control_c, 0, 11, 127
2, 113856, Note_on_c, 0, 83, 0
2, 113856, Note_on_c, 0, 84, 63
2, 113952, Note_on_c, 0, 84, 0
2, 113952, Note_on_c, 0, 83, 55
2, 114034, Note_on_c, 0, 83, 0
2, 114048, Note_on_c, 0, 84, 49
2, 114059, Control_c, 0, 11, 126
2, 114104, Control_c, 0, 11, 125
2, 114138, Control_c, 0, 11, 123
2, 114172, Control_c, 0, 11, 122
2, 114194, Control_c, 0, 11, 119
2, 114228, Control_c, 0, 11, 117
2, 114240, Control_c, 0, 11, 116
2, 114262, Control_c, 0, 11, 114
2, 114273, Control_c, 0, 11, 113
2, 114307, Control_c, 0, 11, 111
2, 114341, Control_c, 0, 11, 110
2, 114364, Control_c, 0, 11, 107
2, 114428, Note_on_c, 0, 84, 0
2, 114528, Note_on_c, 0, 83, 88
2, 114533, Control_c, 0, 11, 127
2, 114624, Note_on_c, 0, 83, 0
2, 114624, Note_on_c, 0, 84, 63
2, 114720, Note_on_c, 0, 84, 0
2, 114720, Note_on_c, 0, 83, 55
2, 114802, Note_on_c, 0, 83, 0
2, 114804, Control_c, 0, 11, 126
2, 114816, Note_on_c, 0, 84, 49
2, 114849, Control_c, 0, 11, 125
2, 114872, Control_c, 0, 11, 123
2, 114883, Control_c, 0, 11, 117
2, 114917, Control_c, 0, 11, 116
2, 114940, Control_c, 0, 11, 114
2, 114951, Control_c, 0, 11, 113
2, 114985, Control_c, 0, 11, 111
2, 115019, Control_c, 0, 11, 110
2, 115041, Control_c, 0, 11, 108
2, 115075, Control_c, 0, 11, 107
2, 115087, Control_c, 0, 11, 105
2, 115120, Control_c, 0, 11, 104
2, 115148, Note_on_c, 0, 84, 0
2, 115166, Control_c, 0, 11, 102
2, 115188, Control_c, 0, 11, 105
2, 115200, Note_on_c, 0, 83, 49
2, 115211, Control_c, 0, 11, 109
2, 115378, Note_on_c, 0, 83, 0
2, 119785, Control_c, 0, 11, 127
2, 119801, Control_c, 0, 11, 125
2, 119808, Note_on_c, 0, 84, 53
2, 119836, Control_c, 0, 11, 124
2, 119862, Control_c, 0, 11, 123
2, 119888, Control_c, 0, 11, 122
2, 119914, Control_c, 0, 11, 121
2, 119940, Control_c, 0, 11, 120
2, 119967, Control_c, 0, 11, 119
2, 119993, Control_c, 0, 11, 118
2, 120000, Note_on_c, 0, 84, 0
2, 120000, Note_on_c, 0, 83, 52
2, 120010, Control_c, 0, 11, 117
2, 120019, Control_c, 0, 11, 116
2, 120028, Control_c, 0, 11, 115
2, 120036, Control_c, 0, 11, 113
2, 120045, Control_c, 0, 11, 112
2, 120054, Control_c, 0, 11, 110
2, 120063, Control_c, 0, 11, 109
2, 120071, Control_c, 0, 11, 107
2, 120094, Note_on_c, 0, 83, 0
2, 120192, Note_on_c, 0, 84, 53
2, 120202, Control_c, 0, 11, 127
2, 120228, Control_c, 0, 11, 126
2, 120246, Control_c, 0, 11, 125
2, 120263, Control_c, 0, 11, 124
2, 120289, Control_c, 0, 11, 123
2, 120307, Control_c, 0, 11, 122
2, 120324, Control_c, 0, 11, 121
2, 120351, Control_c, 0, 11, 119
2, 120359, Control_c, 0, 11, 118
2, 120368, Control_c, 0, 11, 117
2, 120377, Control_c, 0, 11, 116
2, 120384, Note_on_c, 0, 84, 0
2, 120384, Note_on_c, 0, 83, 52
2, 120385, Control_c, 0, 11, 115
2, 120394, Control_c, 0, 11, 114
2, 120403, Control_c, 0, 11, 113
2, 120412, Control_c, 0, 11, 112
2, 120420, Control_c, 0, 11, 111
2, 120429, Control_c, 0, 11, 110
2, 120478, Note_on_c, 0, 83, 0
2, 120576, Note_on_c, 0, 84, 53
2, 120586, Control_c, 0, 11, 127
2, 120604, Control_c, 0, 11, 126
2, 120621, Control_c, 0, 11, 125
2, 120639, Control_c, 0, 11, 124
2, 120656, Control_c, 0, 11, 123
2, 120673, Control_c, 0, 11, 122
2, 120682, Control_c, 0, 11, 121
2, 120700, Control_c, 0, 11, 120
2, 120717, Control_c, 0, 11, 119
2, 120735, Control_c, 0, 11, 118
2, 120752, Control_c, 0, 11, 117
2, 120761, Control_c, 0, 11, 116
2, 120768, Note_on_c, 0, 84, 0
2, 120768, Note_on_c, 0, 83, 51
2, 120769, Control_c, 0, 11, 115
2, 120778, Control_c, 0, 11, 114
2, 120787, Control_c, 0, 11, 113
2, 120796, Control_c, 0, 11, 111
2, 120804, Control_c, 0, 11, 110
2, 120813, Control_c, 0, 11, 109
2, 120822, Control_c, 0, 11, 108
2, 120831, Control_c, 0, 11, 106
2, 120862, Note_on_c, 0, 83, 0
2, 121328, Control_c, 0, 11, 122
2, 121344, Control_c, 0, 11, 123
2, 121352, Note_on_c, 0, 79, 109
2, 121357, Control_c, 0, 11, 125
2, 121364, Control_c, 0, 11, 126
2, 121378, Control_c, 0, 11, 127
2, 121412, Control_c, 0, 11, 127
2, 121440, Control_c, 0, 11, 126
2, 121467, Control_c, 0, 11, 125
2, 121488, Control_c, 0, 11, 124
2, 121515, Control_c, 0, 11, 123
2, 121536, Control_c, 0, 11, 122
2, 121563, Control_c, 0, 11, 121
2, 121584, Control_c, 0, 11, 120
2, 121590, Control_c, 0, 11, 119
2, 121597, Control_c, 0, 11, 118
2, 121604, Control_c, 0, 11, 117
2, 121611, Control_c, 0, 11, 116
2, 121618, Control_c, 0, 11, 115
2, 121625, Control_c, 0, 11, 114
2, 121632, Control_c, 0, 11, 113
2, 121638, Control_c, 0, 11, 112
2, 121645, Control_c, 0, 11, 111
2, 121652, Control_c, 0, 11, 109
2, 121659, Control_c, 0, 11, 108
2, 121666, Control_c, 0, 11, 107
2, 121673, Control_c, 0, 11, 105
2, 121680, Control_c, 0, 11, 104
2, 121686, Control_c, 0, 11, 103
2, 121693, Control_c, 0, 11, 101
2, 121700, Control_c, 0, 11, 100
2, 121707, Control_c, 0, 11, 98
2, 121760, Note_on_c, 0, 79, 0
2, 122009, Control_c, 0, 11, 127
2, 122064, Note_on_c, 0, 60, 116
2, 122094, Note_on_c, 0, 60, 0
2, 122112, Note_on_c, 0, 60, 116
2, 122160, Control_c, 0, 11, 127
2, 122180, Control_c, 0, 11, 125
2, 122187, Control_c, 0, 11, 124
2, 122208, Control_c, 0, 11, 122
2, 122228, Control_c, 0, 11, 119
2, 122242, Control_c, 0, 11, 118
2, 122249, Control_c, 0, 11, 115
2, 122262, Control_c, 0, 11, 112
2, 122269, Control_c, 0, 11, 110
2, 122283, Control_c, 0, 11, 109
2, 122290, Control_c, 0, 11, 106
2, 122304, Control_c, 0, 11, 104
2, 122310, Control_c, 0, 11, 103
2, 122557, Control_c, 0, 11, 103
2, 122592, Control_c, 0, 11, 101
2, 122612, Control_c, 0, 11, 100
2, 122648, Note_on_c, 0, 60, 0
2, 122653, Control_c, 0, 11, 98
2, 122660, Control_c, 0, 11, 97
2, 122674, Control_c, 0, 11, 95
2, 122694, Control_c, 0, 11, 94
2, 122880, Note_on_c, 0, 60, 116
2, 122880, Control_c, 0, 11, 127
2, 122968, Note_on_c, 0, 60, 0
2, 123072, Note_on_c, 0, 64, 116
2, 123160, Note_on_c, 0, 64, 0
2, 123264, Note_on_c, 0, 67, 116
2, 123352, Note_on_c, 0, 67, 0
2, 123456, Note_on_c, 0, 72, 116
2, 123544, Note_on_c, 0, 72, 0
2, 123636, Note_on_c, 0, 72, 116
2, 123662, Pitch_bend_c, 0, 4097
2, 123672, Pitch_bend_c, 0, 8193
2, 123696, Note_on_c, 0, 71, 116
2, 123724, Note_on_c, 0, 72, 0
2, 123756, Note_on_c, 0, 71, 0
2, 123794, Note_on_c, 0, 69, 116
2, 123828, Note_on_c, 0, 69, 0
2, 123840, Note_on_c, 0, 67, 116
2, 123972, Note_on_c, 0, 67, 0
2, 124416, Note_on_c, 0, 76, 93
2, 124524, Note_on_c, 0, 76, 0
2, 124608, Note_on_c, 0, 76, 93
2, 124698, Note_on_c, 0, 76, 0
2, 124756, Note_on_c, 0, 76, 93
2, 124786, Note_on_c, 0, 76, 0
2, 124800, Note_on_c, 0, 76, 93
2, 124908, Note_on_c, 0, 76, 0
2, 124992, Note_on_c, 0, 76, 93
2, 125100, Note_on_c, 0, 76, 0
2, 125184, Control_c, 0, 11, 127
2, 125184, Note_on_c, 0, 77, 88
2, 125201, Control_c, 0, 11, 121
2, 125210, Control_c, 0, 11, 127
2, 125271, Control_c, 0, 11, 126
2, 125280, Control_c, 0, 11, 126
2, 125288, Control_c, 0, 11, 125
2, 125314, Control_c, 0, 11, 120
2, 125323, Control_c, 0, 11, 114
2, 125349, Control_c, 0, 11, 109
2, 125367, Control_c, 0, 11, 106
2, 125376, Control_c, 0, 11, 103
2, 125393, Control_c, 0, 11, 102
2, 125419, Control_c, 0, 11, 99
2, 125428, Control_c, 0, 11, 97
2, 125445, Control_c, 0, 11, 96
2, 125472, Control_c, 0, 11, 94
2, 125480, Control_c, 0, 11, 93
2, 125524, Control_c, 0, 11, 91
2, 125876, Note_on_c, 0, 77, 0
2, 125952, Note_on_c, 0, 76, 94
2, 125952, Control_c, 0, 11, 127
2, 126060, Note_on_c, 0, 76, 0
2, 126144, Note_on_c, 0, 76, 94
2, 126234, Note_on_c, 0, 76, 0
2, 126292, Note_on_c, 0, 76, 94
2, 126322, Note_on_c, 0, 76, 0
2, 126336, Note_on_c, 0, 76, 94
2, 126444, Note_on_c, 0, 76, 0
2, 126528, Note_on_c, 0, 76, 94
2, 126636, Note_on_c, 0, 76, 0
2, 126720, Note_on_c, 0, 77, 89
2, 126720, Control_c, 0, 11, 127
2, 126850, Control_c, 0, 11, 126
2, 126877, Control_c, 0, 11, 124
2, 126894, Control_c, 0, 11, 121
2, 126903, Control_c, 0, 11, 114
2, 126920, Control_c, 0, 11, 112
2, 126929, Control_c, 0, 11, 105
2, 126946, Control_c, 0, 11, 102
2, 126955, Control_c, 0, 11, 100
2, 126973, Control_c, 0, 11, 99
2, 126981, Control_c, 0, 11, 96
2, 126999, Control_c, 0, 11, 94
2, 127008, Control_c, 0, 11, 93
2, 127412, Note_on_c, 0, 77, 0
2, 127488, Note_on_c, 0, 77, 96
2, 127488, Control_c, 0, 11, 127
2, 127596, Note_on_c, 0, 77, 0
2, 127680, Note_on_c, 0, 77, 96
2, 127770, Note_on_c, 0, 77, 0
2, 127828, Note_on_c, 0, 77, 96
2, 127858, Note_on_c, 0, 77, 0
2, 127872, Note_on_c, 0, 77, 96
2, 127980, Note_on_c, 0, 77, 0
2, 128064, Note_on_c, 0, 77, 96
2, 128172, Note_on_c, 0, 77, 0
2, 128256, Note_on_c, 0, 75, 92
2, 128334, Control_c, 0, 11, 126
2, 128413, Control_c, 0, 11, 123
2, 128421, Control_c, 0, 11, 121
2, 128439, Control_c, 0, 11, 118
2, 128448, Control_c, 0, 11, 114
2, 128465, Control_c, 0, 11, 111
2, 128474, Control_c, 0, 11, 105
2, 128491, Control_c, 0, 11, 100
2, 128500, Control_c, 0, 11, 99
2, 128517, Control_c, 0, 11, 97
2, 128552, Control_c, 0, 11, 96
2, 128596, Control_c, 0, 11, 94
2, 128948, Note_on_c, 0, 75, 0
2, 129024, Note_on_c, 0, 75, 99
2, 129024, Control_c, 0, 11, 127
2, 129132, Note_on_c, 0, 75, 0
2, 129216, Note_on_c, 0, 75, 96
2, 129306, Note_on_c, 0, 75, 0
2, 129364, Note_on_c, 0, 75, 96
2, 129394, Note_on_c, 0, 75, 0
2, 129408, Note_on_c, 0, 75, 96
2, 129516, Note_on_c, 0, 75, 0
2, 129600, Note_on_c, 0, 75, 96
2, 129708, Note_on_c, 0, 75, 0
2, 129792, Note_on_c, 0, 74, 88
2, 129870, Control_c, 0, 11, 127
2, 129888, Control_c, 0, 11, 125
2, 129905, Control_c, 0, 11, 124
2, 129914, Control_c, 0, 11, 123
2, 129922, Control_c, 0, 11, 121
2, 129931, Control_c, 0, 11, 120
2, 129940, Control_c, 0, 11, 118
2, 129949, Control_c, 0, 11, 116
2, 129957, Control_c, 0, 11, 115
2, 129966, Control_c, 0, 11, 113
2, 129975, Control_c, 0, 11, 112
2, 129984, Control_c, 0, 11, 110
2, 129992, Control_c, 0, 11, 108
2, 130001, Control_c, 0, 11, 107
2, 130010, Control_c, 0, 11, 105
2, 130018, Control_c, 0, 11, 103
2, 130036, Control_c, 0, 11, 105
2, 130045, Control_c, 0, 11, 103
2, 130062, Control_c, 0, 11, 102
2, 130071, Control_c, 0, 11, 99
2, 130088, Control_c, 0, 11, 97
2, 130097, Control_c, 0, 11, 96
2, 130123, Control_c, 0, 11, 94
2, 130141, Control_c, 0, 11, 93
2, 130149, Control_c, 0, 11, 91
2, 130484, Note_on_c, 0, 74, 0
2, 130560, Note_on_c, 0, 74, 95
2, 130560, Control_c, 0, 11, 127
2, 130668, Note_on_c, 0, 74, 0
2, 130752, Note_on_c, 0, 74, 95
2, 130842, Note_on_c, 0, 74, 0
2, 130900, Note_on_c, 0, 74, 95
2, 130930, Note_on_c, 0, 74, 0
2, 130944, Note_on_c, 0, 74, 95
2, 131052, Note_on_c, 0, 74, 0
2, 131136, Note_on_c, 0, 74, 95
2, 131244, Note_on_c, 0, 74, 0
2, 131328, Note_on_c, 0, 74, 95
2, 131440, Note_on_c, 0, 74, 0
2, 131520, Note_on_c, 0, 72, 95
2, 131632, Note_on_c, 0, 72, 0
2, 131712, Note_on_c, 0, 71, 96
2, 131824, Note_on_c, 0, 71, 0
2, 131904, Note_on_c, 0, 72, 96
2, 132016, Note_on_c, 0, 72, 0
2, 132096, Note_on_c, 0, 71, 96
2, 132208, Note_on_c, 0, 71, 0
2, 132288, Note_on_c, 0, 72, 96
2, 132400, Note_on_c, 0, 72, 0
2, 132480, Note_on_c, 0, 71, 98
2, 132592, Note_on_c, 0, 71, 0
2, 132672, Note_on_c, 0, 72, 97
2, 132784, Note_on_c, 0, 72, 0
2, 132864, Note_on_c, 0, 71, 97
2, 132998, Note_on_c, 0, 71, 0
2, 133203, Note_on_c, 0, 79, 112
2, 133227, Note_on_c, 0, 79, 0
2, 133248, Note_on_c, 0, 79, 112
2, 133382, Note_on_c, 0, 79, 0
2, 133587, Note_on_c, 0, 67, 112
2, 133611, Note_on_c, 0, 67, 0
2, 133632, Note_on_c, 0, 67, 112
2, 133983, Note_on_c, 0, 67, 0
2, 134400, Note_on_c, 0, 67, 117
2, 134830, Note_on_c, 0, 67, 0
2, 134880, Note_on_c, 0, 69, 115
2, 134916, Note_on_c, 0, 69, 0
2, 134928, Note_on_c, 0, 71, 116
2, 134964, Note_on_c, 0, 71, 0
2, 134976, Note_on_c, 0, 72, 116
2, 135012, Note_on_c, 0, 72, 0
2, 135024, Note_on_c, 0, 74, 117
2, 135060, Note_on_c, 0, 74, 0
2, 135072, Note_on_c, 0, 76, 118
2, 135108, Note_on_c, 0, 76, 0
2, 135120, Note_on_c, 0, 78, 119
2, 135156, Note_on_c, 0, 78, 0
2, 135168, Note_on_c, 0, 79, 120
2, 135346, Note_on_c, 0, 79, 0
2, 143040, Note_on_c, 0, 84, 63
2, 143057, Control_c, 0, 11, 93
2, 143083, Control_c, 0, 11, 94
2, 143092, Control_c, 0, 11, 96
2, 143109, Control_c, 0, 11, 97
2, 143136, Control_c, 0, 11, 99
2, 143188, Control_c, 0, 11, 100
2, 143214, Control_c, 0, 11, 102
2, 143232, Note_on_c, 0, 84, 0
2, 143232, Note_on_c, 0, 83, 63
2, 143240, Control_c, 0, 11, 103
2, 143275, Control_c, 0, 11, 105
2, 143319, Control_c, 0, 11, 106
2, 143328, Control_c, 0, 11, 108
2, 143354, Control_c, 0, 11, 109
2, 143397, Control_c, 0, 11, 111
2, 143406, Control_c, 0, 11, 112
2, 143424, Note_on_c, 0, 83, 0
2, 143424, Note_on_c, 0, 82, 63
2, 143432, Control_c, 0, 11, 114
2, 143511, Control_c, 0, 11, 115
2, 143528, Control_c, 0, 11, 117
2, 143554, Control_c, 0, 11, 118
2, 143604, Note_on_c, 0, 82, 0
2, 143607, Control_c, 0, 11, 120
2, 143616, Note_on_c, 0, 81, 63
2, 143633, Control_c, 0, 11, 121
2, 143685, Control_c, 0, 11, 123
2, 143720, Control_c, 0, 11, 124
2, 143808, Note_on_c, 0, 81, 0
2, 143808, Note_on_c, 0, 80, 63
2, 143825, Control_c, 0, 11, 123
2, 143895, Control_c, 0, 11, 122
2, 143930, Control_c, 0, 11, 120
2, 144000, Note_on_c, 0, 80, 0
2, 144000, Note_on_c, 0, 79, 63
2, 144061, Control_c, 0, 11, 121
2, 144087, Control_c, 0, 11, 120
2, 144130, Control_c, 0, 11, 119
2, 144192, Note_on_c, 0, 79, 0
2, 144192, Note_on_c, 0, 77, 63
2, 144209, Control_c, 0, 11, 117
2, 144235, Control_c, 0, 11, 116
2, 144270, Control_c, 0, 11, 114
2, 144366, Control_c, 0, 11, 113
2, 144370, Note_on_c, 0, 77, 0
2, 144384, Note_on_c, 0, 76, 63
2, 144418, Control_c, 0, 11, 111
2, 144427, Control_c, 0, 11, 110
2, 144445, Control_c, 0, 11, 108
2, 144453, Control_c, 0, 11, 105
2, 144480, Control_c, 0, 11, 102
2, 144497, Control_c, 0, 11, 99
2, 144506, Control_c, 0, 11, 98
2, 144523, Control_c, 0, 11, 93
2, 144532, Control_c, 0, 11, 89
2, 144562, Note_on_c, 0, 76, 0
2, 144768, Note_on_c, 0, 76, 64
2, 144776, Control_c, 0, 11, 88
2, 144785, Control_c, 0, 11, 90
2, 144802, Control_c, 0, 11, 91
2, 144811, Control_c, 0, 11, 93
2, 144829, Control_c, 0, 11, 94
2, 144837, Control_c, 0, 11, 97
2, 144881, Control_c, 0, 11, 99
2, 144890, Control_c, 0, 11, 100
2, 144916, Control_c, 0, 11, 102
2, 144933, Control_c, 0, 11, 103
2, 144942, Control_c, 0, 11, 105
2, 144986, Control_c, 0, 11, 106
2, 145012, Control_c, 0, 11, 108
2, 145038, Control_c, 0, 11, 111
2, 145047, Control_c, 0, 11, 112
2, 145064, Control_c, 0, 11, 114
2, 145073, Control_c, 0, 11, 115
2, 145090, Control_c, 0, 11, 117
2, 145099, Control_c, 0, 11, 118
2, 145125, Control_c, 0, 11, 121
2, 145143, Control_c, 0, 11, 123
2, 145152, Note_on_c, 0, 76, 0
2, 145152, Control_c, 0, 11, 124
2, 145152, Note_on_c, 0, 77, 59
2, 145330, Note_on_c, 0, 77, 0
2, 145518, Control_c, 0, 11, 93
2, 145536, Control_c, 0, 11, 96
2, 145536, Note_on_c, 0, 74, 62
2, 145544, Control_c, 0, 11, 100
2, 145562, Control_c, 0, 11, 103
2, 145570, Control_c, 0, 11, 108
2, 145588, Control_c, 0, 11, 109
2, 145614, Control_c, 0, 11, 111
2, 145623, Control_c, 0, 11, 112
2, 145640, Control_c, 0, 11, 114
2, 145666, Control_c, 0, 11, 115
2, 145675, Control_c, 0, 11, 118
2, 145701, Control_c, 0, 11, 120
2, 145728, Control_c, 0, 11, 121
2, 145754, Control_c, 0, 11, 123
2, 145771, Control_c, 0, 11, 124
2, 145789, Control_c, 0, 11, 122
2, 145824, Control_c, 0, 11, 123
2, 145858, Control_c, 0, 11, 124
2, 145893, Control_c, 0, 11, 125
2, 145920, Note_on_c, 0, 74, 0
2, 145920, Note_on_c, 0, 76, 57
2, 145928, Control_c, 0, 11, 126
2, 146098, Note_on_c, 0, 76, 0
2, 146860, Control_c, 0, 11, 127
2, 146882, Note_on_c, 0, 83, 57
2, 146926, Note_on_c, 0, 84, 54
2, 146930, Note_on_c, 0, 83, 0
2, 147026, Note_on_c, 0, 84, 0
2, 147266, Note_on_c, 0, 83, 57
2, 147310, Note_on_c, 0, 84, 50
2, 147314, Note_on_c, 0, 83, 0
2, 147410, Note_on_c, 0, 84, 0
2, 147650, Note_on_c, 0, 83, 56
2, 147694, Note_on_c, 0, 84, 48
2, 147698, Note_on_c, 0, 83, 0
2, 147794, Note_on_c, 0, 84, 0
2, 148418, Note_on_c, 0, 83, 55
2, 148462, Note_on_c, 0, 84, 51
2, 148466, Note_on_c, 0, 83, 0
2, 148562, Note_on_c, 0, 84, 0
2, 148802, Note_on_c, 0, 83, 53
2, 148846, Note_on_c, 0, 84, 47
2, 148850, Note_on_c, 0, 83, 0
2, 148946, Note_on_c, 0, 84, 0
2, 149186, Note_on_c, 0, 83, 54
2, 149230, Note_on_c, 0, 84, 49
2, 149234, Note_on_c, 0, 83, 0
2, 149330, Note_on_c, 0, 84, 0
2, 153936, Note_on_c, 0, 76, 95
2, 153960, Note_on_c, 0, 76, 0
2, 153960, Note_on_c, 0, 77, 96
2, 153984, Note_on_c, 0, 77, 0
2, 153984, Note_on_c, 0, 79, 97
2, 154027, Control_c, 0, 11, 125
2, 154036, Control_c, 0, 11, 120
2, 154045, Control_c, 0, 11, 117
2, 154053, Control_c, 0, 11, 116
2, 154071, Control_c, 0, 11, 113
2, 154080, Control_c, 0, 11, 110
2, 154097, Control_c, 0, 11, 107
2, 154123, Control_c, 0, 11, 104
2, 154132, Control_c, 0, 11, 101
2, 154149, Control_c, 0, 11, 99
2, 154176, Note_on_c, 0, 79, 0
2, 154272, Note_on_c, 0, 79, 55
2, 154272, Control_c, 0, 11, 127
2, 154332, Note_on_c, 0, 79, 0
2, 154368, Note_on_c, 0, 77, 55
2, 154458, Note_on_c, 0, 77, 0
2, 154560, Note_on_c, 0, 76, 55
2, 154650, Note_on_c, 0, 76, 0
2, 154752, Note_on_c, 0, 74, 55
2, 154842, Note_on_c, 0, 74, 0
2, 154944, Note_on_c, 0, 77, 55
2, 155034, Note_on_c, 0, 77, 0
2, 155136, Note_on_c, 0, 76, 55
2, 155300, Note_on_c, 0, 76, 0
2, 155472, Note_on_c, 0, 72, 92
2, 155496, Note_on_c, 0, 72, 0
2, 155496, Note_on_c, 0, 74, 93
2, 155520, Note_on_c, 0, 74, 0
2, 155520, Note_on_c, 0, 76, 94
2, 155563, Control_c, 0, 11, 125
2, 155572, Control_c, 0, 11, 120
2, 155581, Control_c, 0, 11, 117
2, 155589, Control_c, 0, 11, 116
2, 155607, Control_c, 0, 11, 113
2, 155616, Control_c, 0, 11, 110
2, 155633, Control_c, 0, 11, 107
2, 155659, Control_c, 0, 11, 104
2, 155668, Control_c, 0, 11, 101
2, 155685, Control_c, 0, 11, 99
2, 155712, Note_on_c, 0, 76, 0
2, 155808, Note_on_c, 0, 76, 55
2, 155808, Control_c, 0, 11, 127
2, 155862, Note_on_c, 0, 76, 0
2, 155904, Note_on_c, 0, 74, 55
2, 155994, Note_on_c, 0, 74, 0
2, 156096, Note_on_c, 0, 72, 55
2, 156186, Note_on_c, 0, 72, 0
2, 156288, Note_on_c, 0, 71, 55
2, 156378, Note_on_c, 0, 71, 0
2, 156480, Note_on_c, 0, 74, 55
2, 156570, Note_on_c, 0, 74, 0
2, 156672, Note_on_c, 0, 72, 55
2, 156836, Note_on_c, 0, 72, 0
2, 157008, Note_on_c, 0, 76, 92
2, 157032, Note_on_c, 0, 76, 0
2, 157032, Note_on_c, 0, 77, 95
2, 157056, Note_on_c, 0, 77, 0
2, 157056, Note_on_c, 0, 79, 99
2, 157099, Control_c, 0, 11, 125
2, 157108, Control_c, 0, 11, 120
2, 157117, Control_c, 0, 11, 117
2, 157125, Control_c, 0, 11, 116
2, 157143, Control_c, 0, 11, 113
2, 157152, Control_c, 0, 11, 110
2, 157169, Control_c, 0, 11, 107
2, 157195, Control_c, 0, 11, 104
2, 157204, Control_c, 0, 11, 101
2, 157221, Control_c, 0, 11, 99
2, 157248, Note_on_c, 0, 79, 0
2, 157344, Note_on_c, 0, 79, 55
2, 157344, Control_c, 0, 11, 127
2, 157398, Note_on_c, 0, 79, 0
2, 157440, Note_on_c, 0, 77, 55
2, 157530, Note_on_c, 0, 77, 0
2, 157632, Note_on_c, 0, 76, 55
2, 157722, Note_on_c, 0, 76, 0
2, 157824, Note_on_c, 0, 74, 55
2, 157914, Note_on_c, 0, 74, 0
2, 158016, Note_on_c, 0, 77, 55
2, 158106, Note_on_c, 0, 77, 0
2, 158208, Note_on_c, 0, 76, 55
2, 158372, Note_on_c, 0, 76, 0
2, 158544, Note_on_c, 0, 72, 87
2, 158568, Note_on_c, 0, 72, 0
2, 158568, Note_on_c, 0, 74, 89
2, 158592, Note_on_c, 0, 74, 0
2, 158592, Note_on_c, 0, 76, 91
2, 158635, Control_c, 0, 11, 125
2, 158644, Control_c, 0, 11, 120
2, 158653, Control_c, 0, 11, 117
2, 158661, Control_c, 0, 11, 116
2, 158679, Control_c, 0, 11, 113
2, 158688, Control_c, 0, 11, 110
2, 158705, Control_c, 0, 11, 107
2, 158731, Control_c, 0, 11, 104
2, 158740, Control_c, 0, 11, 101
2, 158757, Control_c, 0, 11, 99
2, 158784, Note_on_c, 0, 76, 0
2, 158880, Note_on_c, 0, 76, 55
2, 158880, Control_c, 0, 11, 127
2, 158934, Note_on_c, 0, 76, 0
2, 158976, Note_on_c, 0, 74, 55
2, 159066, Note_on_c, 0, 74, 0
2, 159168, Note_on_c, 0, 72, 55
2, 159258, Note_on_c, 0, 72, 0
2, 159360, Note_on_c, 0, 71, 55
2, 159450, Note_on_c, 0, 71, 0
2, 159552, Note_on_c, 0, 74, 55
2, 159642, Note_on_c, 0, 74, 0
2, 159744, Note_on_c, 0, 72, 55
2, 159908, Note_on_c, 0, 72, 0
2, 160512, Control_c, 0, 11, 126
2, 160512, Note_on_c, 0, 79, 88
2, 160520, Control_c, 0, 11, 127
2, 160599, Control_c, 0, 11, 125
2, 160616, Control_c, 0, 11, 122
2, 160625, Control_c, 0, 11, 120
2, 160642, Control_c, 0, 11, 117
2, 160669, Control_c, 0, 11, 113
2, 160677, Control_c, 0, 11, 111
2, 160704, Control_c, 0, 11, 110
2, 160730, Control_c, 0, 11, 108
2, 160773, Control_c, 0, 11, 105
2, 160782, Control_c, 0, 11, 104
2, 160852, Control_c, 0, 11, 102
2, 160887, Control_c, 0, 11, 101
2, 161018, Control_c, 0, 11, 102
2, 161114, Control_c, 0, 11, 103
2, 161122, Control_c, 0, 11, 105
2, 161149, Control_c, 0, 11, 106
2, 161192, Control_c, 0, 11, 108
2, 161218, Control_c, 0, 11, 109
2, 161224, Note_on_c, 0, 79, 0
2, 161227, Control_c, 0, 11, 111
2, 161245, Control_c, 0, 11, 112
2, 161271, Control_c, 0, 11, 114
2, 161280, Note_on_c, 0, 77, 82
2, 161288, Control_c, 0, 11, 115
2, 161297, Control_c, 0, 11, 116
2, 161314, Control_c, 0, 11, 117
2, 161323, Control_c, 0, 11, 118
2, 161332, Control_c, 0, 11, 119
2, 161349, Control_c, 0, 11, 120
2, 161358, Control_c, 0, 11, 121
2, 161376, Control_c, 0, 11, 122
2, 161384, Control_c, 0, 11, 123
2, 161393, Control_c, 0, 11, 124
2, 161410, Control_c, 0, 11, 125
2, 161419, Control_c, 0, 11, 126
2, 161428, Control_c, 0, 11, 127
2, 161472, Note_on_c, 0, 77, 0
2, 161472, Note_on_c, 0, 82, 82
2, 161664, Note_on_c, 0, 82, 0
2, 161664, Note_on_c, 0, 81, 82
2, 161856, Note_on_c, 0, 81, 0
2, 161856, Note_on_c, 0, 79, 82
2, 162018, Note_on_c, 0, 79, 0
2, 162048, Note_on_c, 0, 77, 82
2, 162240, Note_on_c, 0, 77, 0
2, 162240, Note_on_c, 0, 80, 82
2, 162432, Note_on_c, 0, 80, 0
2, 162432, Note_on_c, 0, 79, 82
2, 162624, Note_on_c, 0, 79, 0
2, 162624, Note_on_c, 0, 77, 82
2, 162786, Note_on_c, 0, 77, 0
2, 162816, Note_on_c, 0, 76, 82
2, 163008, Note_on_c, 0, 76, 0
2, 163008, Note_on_c, 0, 77, 82
2, 163200, Note_on_c, 0, 77, 0
2, 163200, Note_on_c, 0, 76, 82
2, 163392, Note_on_c, 0, 76, 0
2, 163392, Note_on_c, 0, 74, 82
2, 163548, Note_on_c, 0, 74, 0
2, 163584, Note_on_c, 0, 72, 87
2, 163627, Control_c, 0, 11, 127
2, 163636, Control_c, 0, 11, 125
2, 163645, Control_c, 0, 11, 123
2, 163653, Control_c, 0, 11, 121
2, 163662, Control_c, 0, 11, 119
2, 163671, Control_c, 0, 11, 116
2, 163680, Control_c, 0, 11, 114
2, 163688, Control_c, 0, 11, 112
2, 163697, Control_c, 0, 11, 110
2, 163706, Control_c, 0, 11, 108
2, 163714, Control_c, 0, 11, 105
2, 163894, Note_on_c, 0, 72, 0
2, 163968, Control_c, 0, 11, 126
2, 163968, Note_on_c, 0, 77, 87
2, 164029, Control_c, 0, 11, 126
2, 164037, Control_c, 0, 11, 124
2, 164046, Control_c, 0, 11, 122
2, 164055, Control_c, 0, 11, 119
2, 164064, Control_c, 0, 11, 117
2, 164072, Control_c, 0, 11, 115
2, 164081, Control_c, 0, 11, 112
2, 164090, Control_c, 0, 11, 110
2, 164098, Control_c, 0, 11, 108
2, 164107, Control_c, 0, 11, 105
2, 164278, Note_on_c, 0, 77, 0
2, 164348, Control_c, 0, 11, 127
2, 164352, Note_on_c, 0, 76, 103
2, 164376, Note_on_c, 0, 76, 0
2, 164376, Note_on_c, 0, 77, 103
2, 164400, Note_on_c, 0, 77, 0
2, 164400, Note_on_c, 0, 79, 103
2, 164476, Note_on_c, 0, 79, 0
2, 164544, Note_on_c, 0, 79, 103
2, 164590, Note_on_c, 0, 79, 0
2, 164640, Note_on_c, 0, 79, 103
2, 164686, Note_on_c, 0, 79, 0
2, 164736, Note_on_c, 0, 76, 103
2, 164760, Note_on_c, 0, 76, 0
2, 164760, Note_on_c, 0, 77, 103
2, 164784, Note_on_c, 0, 77, 0
2, 164784, Note_on_c, 0, 79, 103
2, 164860, Note_on_c, 0, 79, 0
2, 164928, Note_on_c, 0, 79, 103
2, 164974, Note_on_c, 0, 79, 0
2, 165024, Note_on_c, 0, 79, 103
2, 165070, Note_on_c, 0, 79, 0
2, 165120, Note_on_c, 0, 84, 103
2, 165216, Note_on_c, 0, 84, 0
2, 165216, Note_on_c, 0, 79, 103
2, 165270, Note_on_c, 0, 79, 0
2, 165312, Note_on_c, 0, 79, 103
2, 165358, Note_on_c, 0, 79, 0
2, 165408, Note_on_c, 0, 79, 103
2, 165454, Note_on_c, 0, 79, 0
2, 165504, Note_on_c, 0, 79, 103
2, 165600, Note_on_c, 0, 79, 0
2, 165600, Note_on_c, 0, 77, 103
2, 165654, Note_on_c, 0, 77, 0
2, 165696, Note_on_c, 0, 76, 103
2, 165742, Note_on_c, 0, 76, 0
2, 165792, Note_on_c, 0, 74, 103
2, 165838, Note_on_c, 0, 74, 0
2, 165888, Note_on_c, 0, 72, 103
2, 166066, Note_on_c, 0, 72, 0
2, 166656, Note_on_c, 0, 79, 87
2, 166673, Control_c, 0, 11, 127
2, 166700, Control_c, 0, 11, 126
2, 166708, Control_c, 0, 11, 125
2, 166717, Control_c, 0, 11, 126
2, 166726, Control_c, 0, 11, 123
2, 166735, Control_c, 0, 11, 119
2, 166752, Control_c, 0, 11, 114
2, 166778, Control_c, 0, 11, 111
2, 166787, Control_c, 0, 11, 110
2, 166804, Control_c, 0, 11, 108
2, 166935, Control_c, 0, 11, 109
2, 167040, Control_c, 0, 11, 111
2, 167127, Control_c, 0, 11, 112
2, 167145, Control_c, 0, 11, 114
2, 167249, Control_c, 0, 11, 115
2, 167354, Control_c, 0, 11, 117
2, 167368, Note_on_c, 0, 79, 0
2, 167415, Control_c, 0, 11, 118
2, 167424, Note_on_c, 0, 77, 82
2, 167468, Control_c, 0, 11, 121
2, 167511, Control_c, 0, 11, 123
2, 167546, Control_c, 0, 11, 124
2, 167572, Control_c, 0, 11, 127
2, 167616, Note_on_c, 0, 77, 0
2, 167616, Note_on_c, 0, 82, 82
2, 167808, Note_on_c, 0, 82, 0
2, 167808, Note_on_c, 0, 81, 82
2, 168000, Note_on_c, 0, 81, 0
2, 168000, Note_on_c, 0, 79, 82
2, 168156, Note_on_c, 0, 79, 0
2, 168192, Note_on_c, 0, 77, 82
2, 168384, Note_on_c, 0, 77, 0
2, 168384, Note_on_c, 0, 80, 82
2, 168576, Note_on_c, 0, 80, 0
2, 168576, Note_on_c, 0, 79, 82
2, 168768, Note_on_c, 0, 79, 0
2, 168768, Note_on_c, 0, 77, 82
2, 168928, Note_on_c, 0, 77, 0
2, 168960, Note_on_c, 0, 76, 82
2, 169152, Note_on_c, 0, 76, 0
2, 169152, Note_on_c, 0, 77, 82
2, 169344, Note_on_c, 0, 77, 0
2, 169344, Note_on_c, 0, 76, 82
2, 169536, Note_on_c, 0, 76, 0
2, 169536, Note_on_c, 0, 74, 82
2, 169692, Note_on_c, 0, 74, 0
2, 169728, Note_on_c, 0, 72, 87
2, 169740, Control_c, 0, 11, 126
2, 169766, Control_c, 0, 11, 125
2, 169774, Control_c, 0, 11, 123
2, 169792, Control_c, 0, 11, 122
2, 169827, Control_c, 0, 11, 119
2, 169844, Control_c, 0, 11, 117
2, 169853, Control_c, 0, 11, 116
2, 169870, Control_c, 0, 11, 114
2, 169879, Control_c, 0, 11, 113
2, 169897, Control_c, 0, 11, 111
2, 169905, Control_c, 0, 11, 110
2, 169958, Control_c, 0, 11, 108
2, 170010, Control_c, 0, 11, 107
2, 170080, Control_c, 0, 11, 105
2, 170115, Control_c, 0, 11, 104
2, 170368, Control_c, 0, 11, 105
2, 170560, Control_c, 0, 11, 106
2, 170682, Control_c, 0, 11, 108
2, 170787, Control_c, 0, 11, 109
2, 170892, Control_c, 0, 11, 111
2, 170996, Control_c, 0, 11, 112
2, 171084, Control_c, 0, 11, 114
2, 171101, Control_c, 0, 11, 115
2, 171162, Control_c, 0, 11, 117
2, 171202, Note_on_c, 0, 72, 0
2, 171206, Control_c, 0, 11, 118
2, 171264, Note_on_c, 0, 72, 87
2, 171302, Control_c, 0, 11, 126
2, 171310, Control_c, 0, 11, 127
2, 171337, Control_c, 0, 11, 126
2, 171363, Control_c, 0, 11, 123
2, 171372, Control_c, 0, 11, 122
2, 171389, Control_c, 0, 11, 120
2, 171398, Control_c, 0, 11, 119
2, 171441, Control_c, 0, 11, 117
2, 171450, Control_c, 0, 11, 116
2, 171476, Control_c, 0, 11, 113
2, 171494, Control_c, 0, 11, 111
2, 171502, Control_c, 0, 11, 110
2, 171520, Control_c, 0, 11, 108
2, 171581, Control_c, 0, 11, 107
2, 171607, Control_c, 0, 11, 105
2, 171625, Control_c, 0, 11, 104
2, 171703, Control_c, 0, 11, 102
2, 171790, Control_c, 0, 11, 101
2, 171843, Control_c, 0, 11, 99
2, 172070, Control_c, 0, 11, 100
2, 172183, Control_c, 0, 11, 102
2, 172305, Control_c, 0, 11, 103
2, 172358, Control_c, 0, 11, 105
2, 172410, Control_c, 0, 11, 106
2, 172436, Control_c, 0, 11, 108
2, 172489, Control_c, 0, 11, 109
2, 172497, Control_c, 0, 11, 112
2, 172524, Control_c, 0, 11, 114
2, 172728, Note_on_c, 0, 72, 0
2, 172800, Note_on_c, 0, 72, 82
2, 172800, Control_c, 0, 11, 127
2, 172934, Note_on_c, 0, 72, 0
2, 172992, Note_on_c, 0, 77, 103
2, 173132, Note_on_c, 0, 77, 0
2, 173184, Note_on_c, 0, 75, 103
2, 173324, Note_on_c, 0, 75, 0
2, 173376, Note_on_c, 0, 74, 103
2, 173516, Note_on_c, 0, 74, 0
2, 173568, Note_on_c, 0, 76, 103
2, 173708, Note_on_c, 0, 76, 0
2, 173760, Note_on_c, 0, 77, 103
2, 173900, Note_on_c, 0, 77, 0
2, 173952, Note_on_c, 0, 75, 103
2, 174092, Note_on_c, 0, 75, 0
2, 174144, Note_on_c, 0, 74, 103
2, 174284, Note_on_c, 0, 74, 0
2, 174336, Note_on_c, 0, 76, 103
2, 174476, Note_on_c, 0, 76, 0
2, 174528, Note_on_c, 0, 77, 103
2, 174668, Note_on_c, 0, 77, 0
2, 174720, Note_on_c, 0, 75, 103
2, 174860, Note_on_c, 0, 75, 0
2, 174912, Note_on_c, 0, 74, 103
2, 175052, Note_on_c, 0, 74, 0
2, 175104, Note_on_c, 0, 76, 103
2, 175244, Note_on_c, 0, 76, 0
2, 176064, Note_on_c, 0, 67, 92
2, 176079, Control_c, 0, 11, 90
2, 176097, Control_c, 0, 11, 96
2, 176105, Control_c, 0, 11, 97
2, 176123, Control_c, 0, 11, 100
2, 176132, Control_c, 0, 11, 102
2, 176149, Control_c, 0, 11, 103
2, 176158, Control_c, 0, 11, 105
2, 176175, Control_c, 0, 11, 109
2, 176184, Control_c, 0, 11, 111
2, 176210, Control_c, 0, 11, 112
2, 176236, Control_c, 0, 11, 114
2, 176254, Control_c, 0, 11, 115
2, 176256, Note_on_c, 0, 67, 0
2, 176256, Note_on_c, 0, 72, 79
2, 176280, Control_c, 0, 11, 118
2, 176332, Control_c, 0, 11, 120
2, 176358, Control_c, 0, 11, 121
2, 176385, Control_c, 0, 11, 123
2, 176420, Control_c, 0, 11, 124
2, 176446, Control_c, 0, 11, 126
2, 176448, Note_on_c, 0, 72, 0
2, 176448, Note_on_c, 0, 76, 76
2, 176489, Control_c, 0, 11, 127
2, 176617, Note_on_c, 0, 76, 0
2, 176636, Control_c, 0, 11, 124
2, 176640, Note_on_c, 0, 79, 73
2, 176653, Control_c, 0, 11, 123
2, 176662, Control_c, 0, 11, 122
2, 176671, Control_c, 0, 11, 121
2, 176680, Control_c, 0, 11, 120
2, 176688, Control_c, 0, 11, 119
2, 176697, Control_c, 0, 11, 118
2, 176714, Control_c, 0, 11, 117
2, 176723, Control_c, 0, 11, 116
2, 176732, Control_c, 0, 11, 115
2, 176741, Control_c, 0, 11, 114
2, 176749, Control_c, 0, 11, 113
2, 176758, Control_c, 0, 11, 111
2, 176767, Control_c, 0, 11, 109
2, 176776, Control_c, 0, 11, 107
2, 176784, Control_c, 0, 11, 105
2, 176793, Control_c, 0, 11, 103
2, 176802, Control_c, 0, 11, 101
2, 176810, Control_c, 0, 11, 99
2, 176819, Control_c, 0, 11, 97
2, 176828, Control_c, 0, 11, 95
2, 176837, Control_c, 0, 11, 93
2, 176844, Note_on_c, 0, 79, 0
2, 176845, Control_c, 0, 11, 90
2, 177421, Control_c, 0, 11, 127
2, 178934, Control_c, 0, 11, 124
2, 178944, Note_on_c, 0, 84, 80
2, 178969, Control_c, 0, 11, 125
2, 178995, Control_c, 0, 11, 126
2, 179022, Control_c, 0, 11, 127
2, 179039, Control_c, 0, 11, 127
2, 179056, Control_c, 0, 11, 126
2, 179065, Control_c, 0, 11, 125
2, 179074, Control_c, 0, 11, 124
2, 179083, Control_c, 0, 11, 123
2, 179091, Control_c, 0, 11, 122
2, 179100, Control_c, 0, 11, 121
2, 179109, Control_c, 0, 11, 120
2, 179118, Control_c, 0, 11, 119
2, 179126, Control_c, 0, 11, 118
2, 179135, Control_c, 0, 11, 117
2, 179144, Control_c, 0, 11, 116
2, 179152, Control_c, 0, 11, 115
2, 179170, Control_c, 0, 11, 114
2, 179179, Control_c, 0, 11, 113
2, 179187, Control_c, 0, 11, 112
2, 179196, Control_c, 0, 11, 111
2, 179205, Control_c, 0, 11, 109
2, 179260, Note_on_c, 0, 84, 0
2, 179328, Note_on_c, 0, 84, 77
2, 179336, Control_c, 0, 11, 124
2, 179458, Note_on_c, 0, 84, 0
2, 179520, Note_on_c, 0, 84, 77
2, 179610, Note_on_c, 0, 84, 0
2, 179664, Note_on_c, 0, 84, 77
2, 179692, Note_on_c, 0, 84, 0
2, 179712, Note_on_c, 0, 86, 80
2, 179720, Control_c, 0, 11, 123
2, 179737, Control_c, 0, 11, 124
2, 179755, Control_c, 0, 11, 125
2, 179772, Control_c, 0, 11, 126
2, 179781, Control_c, 0, 11, 124
2, 179790, Control_c, 0, 11, 123
2, 179798, Control_c, 0, 11, 122
2, 179807, Control_c, 0, 11, 121
2, 179816, Control_c, 0, 11, 120
2, 179824, Control_c, 0, 11, 119
2, 179833, Control_c, 0, 11, 118
2, 179842, Control_c, 0, 11, 117
2, 179851, Control_c, 0, 11, 116
2, 179859, Control_c, 0, 11, 115
2, 179868, Control_c, 0, 11, 114
2, 179877, Control_c, 0, 11, 113
2, 179886, Control_c, 0, 11, 112
2, 179929, Control_c, 0, 11, 111
2, 179964, Control_c, 0, 11, 110
2, 180008, Control_c, 0, 11, 109
2, 180028, Note_on_c, 0, 86, 0
2, 180043, Control_c, 0, 11, 108
2, 180096, Note_on_c, 0, 83, 77
2, 180104, Control_c, 0, 11, 124
2, 180226, Note_on_c, 0, 83, 0
2, 180288, Note_on_c, 0, 83, 77
2, 180378, Note_on_c, 0, 83, 0
2, 180432, Note_on_c, 0, 83, 77
2, 180460, Note_on_c, 0, 83, 0
2, 180470, Control_c, 0, 11, 121
2, 180479, Control_c, 0, 11, 122
2, 180480, Note_on_c, 0, 84, 80
2, 180488, Control_c, 0, 11, 123
2, 180496, Control_c, 0, 11, 124
2, 180505, Control_c, 0, 11, 125
2, 180514, Control_c, 0, 11, 127
2, 180531, Control_c, 0, 11, 125
2, 180549, Control_c, 0, 11, 124
2, 180558, Control_c, 0, 11, 123
2, 180566, Control_c, 0, 11, 122
2, 180575, Control_c, 0, 11, 121
2, 180584, Control_c, 0, 11, 120
2, 180592, Control_c, 0, 11, 119
2, 180601, Control_c, 0, 11, 118
2, 180610, Control_c, 0, 11, 117
2, 180619, Control_c, 0, 11, 116
2, 180627, Control_c, 0, 11, 115
2, 180636, Control_c, 0, 11, 114
2, 180645, Control_c, 0, 11, 113
2, 180662, Control_c, 0, 11, 112
2, 180671, Control_c, 0, 11, 111
2, 180680, Control_c, 0, 11, 110
2, 180688, Control_c, 0, 11, 110
2, 180697, Control_c, 0, 11, 109
2, 180706, Control_c, 0, 11, 108
2, 180715, Control_c, 0, 11, 107
2, 180796, Note_on_c, 0, 84, 0
2, 180828, Control_c, 0, 11, 125
2, 180864, Note_on_c, 0, 84, 77
2, 180994, Note_on_c, 0, 84, 0
2, 181056, Note_on_c, 0, 84, 77
2, 181146, Note_on_c, 0, 84, 0
2, 181200, Note_on_c, 0, 84, 77
2, 181228, Note_on_c, 0, 84, 0
2, 181247, Control_c, 0, 11, 123
2, 181248, Note_on_c, 0, 86, 80
2, 181264, Control_c, 0, 11, 124
2, 181282, Control_c, 0, 11, 125
2, 181299, Control_c, 0, 11, 126
2, 181308, Control_c, 0, 11, 127
2, 181326, Control_c, 0, 11, 127
2, 181334, Control_c, 0, 11, 126
2, 181343, Control_c, 0, 11, 124
2, 181352, Control_c, 0, 11, 122
2, 181360, Control_c, 0, 11, 121
2, 181369, Control_c, 0, 11, 119
2, 181378, Control_c, 0, 11, 117
2, 181387, Control_c, 0, 11, 116
2, 181395, Control_c, 0, 11, 114
2, 181404, Control_c, 0, 11, 112
2, 181413, Control_c, 0, 11, 111
2, 181422, Control_c, 0, 11, 109
2, 181430, Control_c, 0, 11, 107
2, 181465, Control_c, 0, 11, 106
2, 181500, Control_c, 0, 11, 105
2, 181535, Control_c, 0, 11, 104
2, 181564, Note_on_c, 0, 86, 0
2, 181579, Control_c, 0, 11, 125
2, 181632, Note_on_c, 0, 83, 77
2, 181762, Note_on_c, 0, 83, 0
2, 181824, Note_on_c, 0, 83, 77
2, 181914, Note_on_c, 0, 83, 0
2, 181968, Note_on_c, 0, 83, 77
2, 181996, Note_on_c, 0, 83, 0
2, 182016, Control_c, 0, 11, 123
2, 182024, Note_on_c, 0, 79, 109
2, 182029, Control_c, 0, 11, 125
2, 182036, Control_c, 0, 11, 126
2, 182050, Control_c, 0, 11, 127
2, 182084, Control_c, 0, 11, 127
2, 182112, Control_c, 0, 11, 126
2, 182139, Control_c, 0, 11, 125
2, 182160, Control_c, 0, 11, 124
2, 182187, Control_c, 0, 11, 123
2, 182208, Control_c, 0, 11, 122
2, 182235, Control_c, 0, 11, 121
2, 182256, Control_c, 0, 11, 120
2, 182262, Control_c, 0, 11, 119
2, 182269, Control_c, 0, 11, 118
2, 182276, Control_c, 0, 11, 117
2, 182283, Control_c, 0, 11, 116
2, 182290, Control_c, 0, 11, 115
2, 182297, Control_c, 0, 11, 114
2, 182304, Control_c, 0, 11, 113
2, 182310, Control_c, 0, 11, 112
2, 182317, Control_c, 0, 11, 111
2, 182324, Control_c, 0, 11, 109
2, 182331, Control_c, 0, 11, 108
2, 182338, Control_c, 0, 11, 107
2, 182345, Control_c, 0, 11, 105
2, 182352, Control_c, 0, 11, 104
2, 182358, Control_c, 0, 11, 103
2, 182365, Control_c, 0, 11, 101
2, 182372, Control_c, 0, 11, 100
2, 182379, Control_c, 0, 11, 98
2, 182432, Note_on_c, 0, 79, 0
2, 182681, Control_c, 0, 11, 127
2, 182736, Note_on_c, 0, 60, 116
2, 182766, Note_on_c, 0, 60, 0
2, 182784, Note_on_c, 0, 60, 116
2, 182832, Control_c, 0, 11, 127
2, 182852, Control_c, 0, 11, 125
2, 182859, Control_c, 0, 11, 124
2, 182880, Control_c, 0, 11, 122
2, 182900, Control_c, 0, 11, 119
2, 182914, Control_c, 0, 11, 118
2, 182921, Control_c, 0, 11, 115
2, 182934, Control_c, 0, 11, 112
2, 182941, Control_c, 0, 11, 110
2, 182955, Control_c, 0, 11, 109
2, 182962, Control_c, 0, 11, 106
2, 182976, Control_c, 0, 11, 104
2, 182982, Control_c, 0, 11, 103
2, 183229, Control_c, 0, 11, 103
2, 183264, Control_c, 0, 11, 101
2, 183284, Control_c, 0, 11, 100
2, 183320, Note_on_c, 0, 60, 0
2, 183325, Control_c, 0, 11, 98
2, 183332, Control_c, 0, 11, 97
2, 183346, Control_c, 0, 11, 95
2, 183366, Control_c, 0, 11, 94
2, 183552, Note_on_c, 0, 60, 116
2, 183552, Control_c, 0, 11, 127
2, 183640, Note_on_c, 0, 60, 0
2, 183744, Note_on_c, 0, 64, 116
2, 183832, Note_on_c, 0, 64, 0
2, 183936, Note_on_c, 0, 67, 116
2, 184024, Note_on_c, 0, 67, 0
2, 184128, Note_on_c, 0, 72, 116
2, 184216, Note_on_c, 0, 72, 0
2, 184308, Note_on_c, 0, 72, 116
2, 184334, Pitch_bend_c, 0, 4097
2, 184344, Pitch_bend_c, 0, 8193
2, 184368, Note_on_c, 0, 71, 116
2, 184396, Note_on_c, 0, 72, 0
2, 184428, Note_on_c, 0, 71, 0
2, 184466, Note_on_c, 0, 69, 116
2, 184500, Note_on_c, 0, 69, 0
2, 184512, Note_on_c, 0, 67, 116
2, 184644, Note_on_c, 0, 67, 0
2, 186632, Note_on_c, 0, 81, 103
2, 186732, Note_on_c, 0, 81, 0
2, 186820, Note_on_c, 0, 81, 103
2, 186900, Note_on_c, 0, 81, 0
2, 186963, Note_on_c, 0, 81, 103
2, 186991, Note_on_c, 0, 81, 0
2, 187008, Note_on_c, 0, 81, 103
2, 187107, Note_on_c, 0, 81, 0
2, 187200, Note_on_c, 0, 81, 103
2, 187299, Note_on_c, 0, 81, 0
2, 187398, Note_on_c, 0, 84, 103
2, 187478, Control_c, 0, 11, 127
2, 187533, Control_c, 0, 11, 125
2, 187553, Control_c, 0, 11, 124
2, 187594, Control_c, 0, 11, 122
2, 187601, Control_c, 0, 11, 121
2, 187615, Control_c, 0, 11, 119
2, 187635, Control_c, 0, 11, 118
2, 187642, Control_c, 0, 11, 115
2, 187663, Control_c, 0, 11, 112
2, 187875, Control_c, 0, 11, 109
2, 187889, Control_c, 0, 11, 108
2, 187903, Control_c, 0, 11, 107
2, 187910, Control_c, 0, 11, 106
2, 187923, Control_c, 0, 11, 105
2, 187930, Control_c, 0, 11, 104
2, 187944, Control_c, 0, 11, 103
2, 187951, Control_c, 0, 11, 102
2, 187954, Note_on_c, 0, 84, 0
2, 187965, Control_c, 0, 11, 101
2, 187971, Control_c, 0, 11, 100
2, 188143, Control_c, 0, 11, 127
2, 189664, Control_c, 0, 11, 127
2, 189696, Note_on_c, 0, 76, 103
2, 190414, Note_on_c, 0, 76, 0
2, 190464, Note_on_c, 0, 74, 103
2, 191182, Note_on_c, 0, 74, 0
2, 191232, Note_on_c, 0, 72, 116
2, 191372, Note_on_c, 0, 72, 0
2, 192768, Note_on_c, 0, 72, 116
2, 192908, Note_on_c, 0, 72, 0
2, 192960, Note_on_c, 0, 79, 103
2, 193050, Note_on_c, 0, 79, 0
2, 193104, Note_on_c, 0, 79, 103
2, 193128, Note_on_c, 0, 79, 0
2, 193152, Note_on_c, 0, 79, 103
2, 193302, Note_on_c, 0, 79, 0
2, 193344, Note_on_c, 0, 79, 103
2, 193368, Note_on_c, 0, 79, 0
2, 193368, Note_on_c, 0, 77, 103
2, 193392, Note_on_c, 0, 77, 0
2, 193392, Note_on_c, 0, 79, 103
2, 193416, Note_on_c, 0, 79, 0
2, 193416, Note_on_c, 0, 77, 103
2, 193440, Note_on_c, 0, 77, 0
2, 193440, Note_on_c, 0, 76, 103
2, 193488, Note_on_c, 0, 76, 0
2, 193488, Note_on_c, 0, 77, 103
2, 193522, Note_on_c, 0, 77, 0
2, 193536, Note_on_c, 0, 76, 103
2, 193676, Note_on_c, 0, 76, 0
2, 193728, Note_on_c, 0, 76, 103
2, 193818, Note_on_c, 0, 76, 0
2, 193872, Note_on_c, 0, 76, 103
2, 193896, Note_on_c, 0, 76, 0
2, 193920, Note_on_c, 0, 74, 103
2, 194070, Note_on_c, 0, 74, 0
2, 194112, Note_on_c, 0, 76, 103
2, 194136, Note_on_c, 0, 76, 0
2, 194136, Note_on_c, 0, 74, 103
2, 194160, Note_on_c, 0, 74, 0
2, 194160, Note_on_c, 0, 76, 103
2, 194184, Note_on_c, 0, 76, 0
2, 194184, Note_on_c, 0, 74, 103
2, 194208, Note_on_c, 0, 74, 0
2, 194208, Note_on_c, 0, 72, 103
2, 194256, Note_on_c, 0, 72, 0
2, 194256, Note_on_c, 0, 74, 103
2, 194290, Note_on_c, 0, 74, 0
2, 194304, Note_on_c, 0, 72, 116
2, 194444, Note_on_c, 0, 72, 0
2, 195068, Control_c, 0, 11, 127
2, 195072, Note_on_c, 0, 72, 103
2, 195117, Control_c, 0, 11, 127
2, 195152, Control_c, 0, 11, 126
2, 195170, Control_c, 0, 11, 122
2, 195222, Control_c, 0, 11, 120
2, 195231, Control_c, 0, 11, 119
2, 195248, Control_c, 0, 11, 117
2, 195257, Control_c, 0, 11, 113
2, 195275, Control_c, 0, 11, 110
2, 195283, Control_c, 0, 11, 108
2, 195301, Control_c, 0, 11, 105
2, 195309, Control_c, 0, 11, 104
2, 195327, Control_c, 0, 11, 101
2, 195353, Control_c, 0, 11, 99
2, 195362, Control_c, 0, 11, 98
2, 195790, Note_on_c, 0, 72, 0
2, 195840, Note_on_c, 0, 76, 103
2, 195840, Control_c, 0, 11, 127
2, 195912, Control_c, 0, 11, 126
2, 195938, Control_c, 0, 11, 125
2, 195955, Control_c, 0, 11, 119
2, 195964, Control_c, 0, 11, 116
2, 195981, Control_c, 0, 11, 113
2, 195990, Control_c, 0, 11, 110
2, 196008, Control_c, 0, 11, 107
2, 196016, Control_c, 0, 11, 105
2, 196034, Control_c, 0, 11, 104
2, 196060, Control_c, 0, 11, 102
2, 196069, Control_c, 0, 11, 101
2, 196558, Note_on_c, 0, 76, 0
2, 196608, Note_on_c, 0, 79, 103
2, 196608, Control_c, 0, 11, 127
2, 196680, Control_c, 0, 11, 126
2, 196706, Control_c, 0, 11, 125
2, 196723, Control_c, 0, 11, 119
2, 196732, Control_c, 0, 11, 116
2, 196749, Control_c, 0, 11, 113
2, 196758, Control_c, 0, 11, 110
2, 196776, Control_c, 0, 11, 107
2, 196784, Control_c, 0, 11, 105
2, 196802, Control_c, 0, 11, 104
2, 196828, Control_c, 0, 11, 102
2, 196837, Control_c, 0, 11, 101
2, 197312, Note_on_c, 0, 79, 0
2, 197376, Note_on_c, 0, 84, 103
2, 197376, Control_c, 0, 11, 127
2, 197448, Control_c, 0, 11, 126
2, 197474, Control_c, 0, 11, 125
2, 197491, Control_c, 0, 11, 119
2, 197500, Control_c, 0, 11, 116
2, 197517, Control_c, 0, 11, 113
2, 197526, Control_c, 0, 11, 110
2, 197544, Control_c, 0, 11, 107
2, 197552, Control_c, 0, 11, 105
2, 197570, Control_c, 0, 11, 104
2, 197596, Control_c, 0, 11, 102
2, 197605, Control_c, 0, 11, 101
2, 198088, Note_on_c, 0, 84, 0
2, 198144, Note_on_c, 0, 79, 103
2, 198144, Control_c, 0, 11, 127
2, 198216, Control_c, 0, 11, 126
2, 198242, Control_c, 0, 11, 125
2, 198259, Control_c, 0, 11, 119
2, 198268, Control_c, 0, 11, 116
2, 198285, Control_c, 0, 11, 113
2, 198294, Control_c, 0, 11, 110
2, 198312, Control_c, 0, 11, 107
2, 198320, Control_c, 0, 11, 105
2, 198338, Control_c, 0, 11, 104
2, 198364, Control_c, 0, 11, 102
2, 198373, Control_c, 0, 11, 101
2, 198856, Note_on_c, 0, 79, 0
2, 198912, Note_on_c, 0, 76, 103
2, 198912, Control_c, 0, 11, 127
2, 198984, Control_c, 0, 11, 126
2, 199010, Control_c, 0, 11, 125
2, 199027, Control_c, 0, 11, 119
2, 199036, Control_c, 0, 11, 116
2, 199053, Control_c, 0, 11, 113
2, 199062, Control_c, 0, 11, 110
2, 199080, Control_c, 0, 11, 107
2, 199088, Control_c, 0, 11, 105
2, 199106, Control_c, 0, 11, 104
2, 199132, Control_c, 0, 11, 102
2, 199141, Control_c, 0, 11, 101
2, 199630, Note_on_c, 0, 76, 0
2, 199680, Note_on_c, 0, 72, 103
2, 199680, Control_c, 0, 11, 127
2, 199752, Control_c, 0, 11, 126
2, 199778, Control_c, 0, 11, 125
2, 199795, Control_c, 0, 11, 119
2, 199804, Control_c, 0, 11, 116
2, 199821, Control_c, 0, 11, 113
2, 199830, Control_c, 0, 11, 110
2, 199848, Control_c, 0, 11, 107
2, 199856, Control_c, 0, 11, 105
2, 199874, Control_c, 0, 11, 104
2, 199900, Control_c, 0, 11, 102
2, 199909, Control_c, 0, 11, 101
2, 200392, Note_on_c, 0, 72, 0
2, 200448, Note_on_c, 0, 67, 103
2, 200448, Control_c, 0, 11, 127
2, 200520, Control_c, 0, 11, 126
2, 200546, Control_c, 0, 11, 125
2, 200563, Control_c, 0, 11, 119
2, 200572, Control_c, 0, 11, 116
2, 200589, Control_c, 0, 11, 113
2, 200598, Control_c, 0, 11, 110
2, 200616, Control_c, 0, 11, 107
2, 200624, Control_c, 0, 11, 105
2, 200642, Control_c, 0, 11, 104
2, 200668, Control_c, 0, 11, 102
2, 200677, Control_c, 0, 11, 101
2, 200952, Note_on_c, 0, 67, 0
2, 201020, Control_c, 0, 11, 127
2, 201024, Note_on_c, 0, 72, 120
2, 201144, Note_on_c, 0, 72, 0
2, 201216, Note_on_c, 0, 76, 119
2, 201336, Note_on_c, 0, 76, 0
2, 201408, Note_on_c, 0, 72, 119
2, 201528, Note_on_c, 0, 72, 0
2, 201600, Note_on_c, 0, 79, 119
2, 201720, Note_on_c, 0, 79, 0
2, 201792, Note_on_c, 0, 76, 119
2, 201912, Note_on_c, 0, 76, 0
2, 201984, Note_on_c, 0, 84, 118
2, 202296, Note_on_c, 0, 84, 0
2, 202368, Note_on_c, 0, 72, 118
2, 202594, Note_on_c, 0, 72, 0
2, 202656, Note_on_c, 0, 72, 118
2, 202708, Note_on_c, 0, 72, 0
2, 202752, Note_on_c, 0, 72, 118
2, 202764, Control_c, 0, 11, 127
2, 202816, Control_c, 0, 11, 126
2, 202825, Control_c, 0, 11, 125
2, 202834, Control_c, 0, 11, 124
2, 202843, Control_c, 0, 11, 123
2, 202851, Control_c, 0, 11, 122
2, 202860, Control_c, 0, 11, 121
2, 202869, Control_c, 0, 11, 119
2, 203008, Control_c, 0, 11, 117
2, 203026, Control_c, 0, 11, 116
2, 203043, Control_c, 0, 11, 115
2, 203061, Control_c, 0, 11, 114
2, 203070, Control_c, 0, 11, 113
2, 203087, Control_c, 0, 11, 112
2, 203104, Control_c, 0, 11, 111
2, 203113, Control_c, 0, 11, 110
2, 203126, Note_on_c, 0, 72, 0
2, 204864, Control_c, 0, 121, 127
2, 204864, End_track
3, 0, Start_track
3, 0, MIDI_port, 0
3, 0, Title_t, "Oboe 2"
3, 0, Program_c, 1, 68
3, 0, Control_c, 1, 7, 101
3, 0, Control_c, 1, 10, 77
3, 0, Text_t, ""
3, 96, Control_c, 1, 121, 0
3, 192, Control_c, 1, 91, 54
3, 288, Control_c, 1, 93, 5
3, 768, Control_c, 1, 11, 123
3, 780, Note_on_c, 1, 76, 103
3, 781, Control_c, 1, 11, 125
3, 788, Control_c, 1, 11, 126
3, 802, Control_c, 1, 11, 127
3, 836, Control_c, 1, 11, 127
3, 864, Control_c, 1, 11, 126
3, 891, Control_c, 1, 11, 125
3, 912, Control_c, 1, 11, 124
3, 939, Control_c, 1, 11, 123
3, 960, Control_c, 1, 11, 122
3, 987, Control_c, 1, 11, 121
3, 1008, Control_c, 1, 11, 120
3, 1014, Control_c, 1, 11, 119
3, 1021, Control_c, 1, 11, 118
3, 1028, Control_c, 1, 11, 117
3, 1035, Control_c, 1, 11, 116
3, 1042, Control_c, 1, 11, 115
3, 1049, Control_c, 1, 11, 114
3, 1056, Control_c, 1, 11, 113
3, 1062, Control_c, 1, 11, 112
3, 1069, Control_c, 1, 11, 111
3, 1076, Control_c, 1, 11, 109
3, 1083, Control_c, 1, 11, 108
3, 1090, Control_c, 1, 11, 107
3, 1097, Control_c, 1, 11, 105
3, 1104, Control_c, 1, 11, 104
3, 1110, Control_c, 1, 11, 103
3, 1117, Control_c, 1, 11, 101
3, 1124, Control_c, 1, 11, 100
3, 1131, Control_c, 1, 11, 98
3, 1188, Note_on_c, 1, 76, 0
3, 1433, Control_c, 1, 11, 127
3, 5376, Note_on_c, 1, 77, 103
3, 5476, Note_on_c, 1, 77, 0
3, 5568, Note_on_c, 1, 77, 103
3, 5652, Note_on_c, 1, 77, 0
3, 5714, Note_on_c, 1, 77, 103
3, 5742, Note_on_c, 1, 77, 0
3, 5760, Note_on_c, 1, 77, 103
3, 5858, Note_on_c, 1, 77, 0
3, 5952, Note_on_c, 1, 77, 103
3, 6050, Note_on_c, 1, 77, 0
3, 6134, Control_c, 1, 11, 121
3, 6144, Note_on_c, 1, 81, 103
3, 6147, Control_c, 1, 11, 122
3, 6168, Control_c, 1, 11, 123
3, 6182, Control_c, 1, 11, 125
3, 6202, Control_c, 1, 11, 126
3, 6209, Control_c, 1, 11, 127
3, 6271, Control_c, 1, 11, 127
3, 6312, Control_c, 1, 11, 125
3, 6353, Control_c, 1, 11, 124
3, 6374, Control_c, 1, 11, 122
3, 6401, Control_c, 1, 11, 117
3, 6429, Control_c, 1, 11, 116
3, 6449, Control_c, 1, 11, 115
3, 6470, Control_c, 1, 11, 114
3, 6497, Control_c, 1, 11, 113
3, 6518, Control_c, 1, 11, 112
3, 6538, Control_c, 1, 11, 111
3, 6559, Control_c, 1, 11, 110
3, 6573, Control_c, 1, 11, 109
3, 6579, Control_c, 1, 11, 108
3, 6593, Control_c, 1, 11, 107
3, 6600, Control_c, 1, 11, 106
3, 6607, Control_c, 1, 11, 105
3, 6621, Control_c, 1, 11, 104
3, 6627, Control_c, 1, 11, 103
3, 6641, Control_c, 1, 11, 102
3, 6648, Control_c, 1, 11, 101
3, 6655, Control_c, 1, 11, 100
3, 6674, Note_on_c, 1, 81, 0
3, 6717, Control_c, 1, 11, 127
3, 6720, Note_on_c, 1, 77, 92
3, 6818, Note_on_c, 1, 77, 0
3, 6912, Note_on_c, 1, 76, 103
3, 7008, Note_on_c, 1, 76, 0
3, 7104, Note_on_c, 1, 74, 103
3, 7194, Note_on_c, 1, 74, 0
3, 7296, Note_on_c, 1, 72, 103
3, 7386, Note_on_c, 1, 72, 0
3, 7488, Note_on_c, 1, 71, 103
3, 7578, Note_on_c, 1, 71, 0
3, 8448, Note_on_c, 1, 77, 103
3, 8548, Note_on_c, 1, 77, 0
3, 8640, Note_on_c, 1, 77, 103
3, 8728, Note_on_c, 1, 77, 0
3, 8786, Note_on_c, 1, 77, 103
3, 8813, Note_on_c, 1, 77, 0
3, 8832, Note_on_c, 1, 77, 103
3, 8930, Note_on_c, 1, 77, 0
3, 9024, Note_on_c, 1, 77, 103
3, 9122, Note_on_c, 1, 77, 0
3, 9221, Note_on_c, 1, 81, 103
3, 9357, Control_c, 1, 11, 127
3, 9405, Control_c, 1, 11, 125
3, 9426, Control_c, 1, 11, 124
3, 9439, Control_c, 1, 11, 122
3, 9446, Control_c, 1, 11, 121
3, 9460, Control_c, 1, 11, 119
3, 9467, Control_c, 1, 11, 118
3, 9481, Control_c, 1, 11, 115
3, 9487, Control_c, 1, 11, 113
3, 9700, Control_c, 1, 11, 110
3, 9727, Control_c, 1, 11, 109
3, 9734, Control_c, 1, 11, 107
3, 9755, Control_c, 1, 11, 106
3, 9769, Control_c, 1, 11, 104
3, 9775, Note_on_c, 1, 81, 0
3, 9789, Control_c, 1, 11, 101
3, 10365, Control_c, 1, 11, 127
3, 13056, Note_on_c, 1, 76, 68
3, 13102, Note_on_c, 1, 76, 0
3, 13152, Note_on_c, 1, 72, 68
3, 13198, Note_on_c, 1, 72, 0
3, 13248, Note_on_c, 1, 72, 68
3, 13272, Note_on_c, 1, 72, 0
3, 13272, Note_on_c, 1, 74, 68
3, 13296, Note_on_c, 1, 74, 0
3, 13296, Note_on_c, 1, 72, 68
3, 13320, Note_on_c, 1, 72, 0
3, 13320, Note_on_c, 1, 74, 68
3, 13344, Note_on_c, 1, 74, 0
3, 13344, Note_on_c, 1, 72, 68
3, 13400, Note_on_c, 1, 72, 0
3, 13440, Note_on_c, 1, 74, 68
3, 13486, Note_on_c, 1, 74, 0
3, 13536, Note_on_c, 1, 71, 68
3, 13582, Note_on_c, 1, 71, 0
3, 13632, Note_on_c, 1, 71, 68
3, 13656, Note_on_c, 1, 71, 0
3, 13656, Note_on_c, 1, 72, 68
3, 13680, Note_on_c, 1, 72, 0
3, 13680, Note_on_c, 1, 71, 68
3, 13704, Note_on_c, 1, 71, 0
3, 13704, Note_on_c, 1, 72, 68
3, 13728, Note_on_c, 1, 72, 0
3, 13728, Note_on_c, 1, 71, 68
3, 13784, Note_on_c, 1, 71, 0
3, 14592, Note_on_c, 1, 76, 73
3, 14638, Note_on_c, 1, 76, 0
3, 14688, Note_on_c, 1, 72, 79
3, 14734, Note_on_c, 1, 72, 0
3, 14784, Note_on_c, 1, 72, 85
3, 14808, Note_on_c, 1, 72, 0
3, 14808, Note_on_c, 1, 74, 87
3, 14832, Note_on_c, 1, 74, 0
3, 14832, Note_on_c, 1, 72, 88
3, 14856, Note_on_c, 1, 72, 0
3, 14856, Note_on_c, 1, 74, 90
3, 14880, Note_on_c, 1, 74, 0
3, 14880, Note_on_c, 1, 72, 91
3, 14936, Note_on_c, 1, 72, 0
3, 14976, Note_on_c, 1, 74, 98
3, 15022, Note_on_c, 1, 74, 0
3, 15072, Note_on_c, 1, 71, 104
3, 15118, Note_on_c, 1, 71, 0
3, 15168, Note_on_c, 1, 71, 110
3, 15192, Note_on_c, 1, 71, 0
3, 15192, Note_on_c, 1, 72, 112
3, 15216, Note_on_c, 1, 72, 0
3, 15216, Note_on_c, 1, 71, 113
3, 15240, Note_on_c, 1, 71, 0
3, 15240, Note_on_c, 1, 72, 116
3, 15264, Note_on_c, 1, 72, 0
3, 15264, Note_on_c, 1, 71, 116
3, 15320, Note_on_c, 1, 71, 0
3, 15556, Note_on_c, 1, 76, 80
3, 15644, Note_on_c, 1, 76, 0
3, 15700, Note_on_c, 1, 76, 80
3, 15723, Note_on_c, 1, 76, 0
3, 15748, Note_on_c, 1, 76, 80
3, 15866, Note_on_c, 1, 76, 0
3, 15940, Note_on_c, 1, 76, 80
3, 16058, Note_on_c, 1, 76, 0
3, 16119, Control_c, 1, 11, 122
3, 16125, Control_c, 1, 11, 124
3, 16132, Note_on_c, 1, 76, 80
3, 16141, Control_c, 1, 11, 127
3, 16202, Control_c, 1, 11, 124
3, 16207, Control_c, 1, 11, 123
3, 16218, Control_c, 1, 11, 115
3, 16224, Control_c, 1, 11, 114
3, 16235, Control_c, 1, 11, 109
3, 16251, Control_c, 1, 11, 108
3, 16257, Control_c, 1, 11, 105
3, 16268, Control_c, 1, 11, 103
3, 16828, Note_on_c, 1, 76, 0
3, 16887, Control_c, 1, 11, 123
3, 16900, Note_on_c, 1, 78, 80
3, 16909, Control_c, 1, 11, 124
3, 16926, Control_c, 1, 11, 125
3, 16931, Control_c, 1, 11, 127
3, 17018, Note_on_c, 1, 78, 0
3, 17092, Note_on_c, 1, 78, 80
3, 17180, Note_on_c, 1, 78, 0
3, 17236, Note_on_c, 1, 78, 80
3, 17260, Note_on_c, 1, 78, 0
3, 17284, Note_on_c, 1, 78, 80
3, 17402, Note_on_c, 1, 78, 0
3, 17476, Note_on_c, 1, 78, 80
3, 17594, Note_on_c, 1, 78, 0
3, 17666, Control_c, 1, 11, 122
3, 17668, Note_on_c, 1, 78, 80
3, 17699, Control_c, 1, 11, 125
3, 17716, Control_c, 1, 11, 127
3, 17738, Control_c, 1, 11, 126
3, 17749, Control_c, 1, 11, 121
3, 17754, Control_c, 1, 11, 117
3, 17765, Control_c, 1, 11, 114
3, 17782, Control_c, 1, 11, 112
3, 17787, Control_c, 1, 11, 109
3, 17798, Control_c, 1, 11, 108
3, 17804, Control_c, 1, 11, 106
3, 17815, Control_c, 1, 11, 105
3, 17820, Control_c, 1, 11, 103
3, 17831, Control_c, 1, 11, 102
3, 18362, Note_on_c, 1, 78, 0
3, 18432, Control_c, 1, 11, 127
3, 18436, Note_on_c, 1, 79, 80
3, 18554, Note_on_c, 1, 79, 0
3, 18628, Note_on_c, 1, 79, 80
3, 18716, Note_on_c, 1, 79, 0
3, 18772, Note_on_c, 1, 79, 80
3, 18796, Note_on_c, 1, 79, 0
3, 18820, Note_on_c, 1, 79, 80
3, 18938, Note_on_c, 1, 79, 0
3, 19012, Note_on_c, 1, 79, 80
3, 19130, Note_on_c, 1, 79, 0
3, 19204, Note_on_c, 1, 79, 80
3, 19213, Control_c, 1, 11, 121
3, 19235, Control_c, 1, 11, 122
3, 19246, Control_c, 1, 11, 124
3, 19252, Control_c, 1, 11, 127
3, 19279, Control_c, 1, 11, 126
3, 19285, Control_c, 1, 11, 123
3, 19301, Control_c, 1, 11, 120
3, 19318, Control_c, 1, 11, 118
3, 19329, Control_c, 1, 11, 115
3, 19334, Control_c, 1, 11, 111
3, 19345, Control_c, 1, 11, 108
3, 19351, Control_c, 1, 11, 106
3, 19361, Control_c, 1, 11, 105
3, 19367, Control_c, 1, 11, 102
3, 19378, Control_c, 1, 11, 100
3, 19902, Note_on_c, 1, 79, 0
3, 19935, Control_c, 1, 11, 127
3, 19972, Note_on_c, 1, 81, 80
3, 20092, Note_on_c, 1, 81, 0
3, 20164, Note_on_c, 1, 81, 80
3, 20254, Note_on_c, 1, 81, 0
3, 20308, Note_on_c, 1, 81, 80
3, 20332, Note_on_c, 1, 81, 0
3, 20356, Note_on_c, 1, 81, 80
3, 20472, Note_on_c, 1, 81, 0
3, 20548, Note_on_c, 1, 81, 80
3, 20664, Note_on_c, 1, 81, 0
3, 20736, Control_c, 1, 11, 122
3, 20740, Note_on_c, 1, 81, 80
3, 20741, Control_c, 1, 11, 124
3, 20757, Control_c, 1, 11, 127
3, 20790, Control_c, 1, 11, 123
3, 20801, Control_c, 1, 11, 121
3, 20807, Control_c, 1, 11, 114
3, 20818, Control_c, 1, 11, 111
3, 20823, Control_c, 1, 11, 109
3, 20834, Control_c, 1, 11, 108
3, 20840, Control_c, 1, 11, 105
3, 20856, Control_c, 1, 11, 103
3, 20873, Control_c, 1, 11, 102
3, 20900, Control_c, 1, 11, 100
3, 20917, Control_c, 1, 11, 100
3, 20982, Control_c, 1, 11, 101
3, 21048, Control_c, 1, 11, 103
3, 21120, Control_c, 1, 11, 104
3, 21185, Control_c, 1, 11, 106
3, 21251, Control_c, 1, 11, 107
3, 21317, Control_c, 1, 11, 109
3, 21366, Control_c, 1, 11, 110
3, 21377, Control_c, 1, 11, 112
3, 21434, Note_on_c, 1, 81, 0
3, 21508, Note_on_c, 1, 79, 80
3, 21509, Control_c, 1, 11, 121
3, 21525, Control_c, 1, 11, 122
3, 21531, Control_c, 1, 11, 124
3, 21547, Control_c, 1, 11, 125
3, 21558, Control_c, 1, 11, 127
3, 21591, Control_c, 1, 11, 124
3, 21597, Control_c, 1, 11, 121
3, 21608, Control_c, 1, 11, 118
3, 21613, Control_c, 1, 11, 117
3, 21624, Control_c, 1, 11, 114
3, 21630, Control_c, 1, 11, 111
3, 21641, Control_c, 1, 11, 108
3, 21646, Control_c, 1, 11, 106
3, 21679, Control_c, 1, 11, 105
3, 21696, Control_c, 1, 11, 103
3, 22074, Control_c, 1, 11, 103
3, 22107, Control_c, 1, 11, 104
3, 22134, Control_c, 1, 11, 106
3, 22140, Control_c, 1, 11, 107
3, 22151, Control_c, 1, 11, 109
3, 22156, Control_c, 1, 11, 112
3, 22173, Control_c, 1, 11, 113
3, 22184, Control_c, 1, 11, 115
3, 22202, Note_on_c, 1, 79, 0
3, 22276, Note_on_c, 1, 72, 80
3, 22282, Control_c, 1, 11, 123
3, 22299, Control_c, 1, 11, 127
3, 22315, Control_c, 1, 11, 126
3, 22321, Control_c, 1, 11, 123
3, 22332, Control_c, 1, 11, 117
3, 22337, Control_c, 1, 11, 114
3, 22354, Control_c, 1, 11, 108
3, 22365, Control_c, 1, 11, 105
3, 22381, Control_c, 1, 11, 103
3, 22387, Control_c, 1, 11, 102
3, 22848, Control_c, 1, 11, 101
3, 22858, Control_c, 1, 11, 103
3, 22875, Control_c, 1, 11, 107
3, 22880, Control_c, 1, 11, 109
3, 22891, Control_c, 1, 11, 110
3, 22897, Control_c, 1, 11, 112
3, 22908, Control_c, 1, 11, 113
3, 22913, Control_c, 1, 11, 115
3, 22970, Note_on_c, 1, 72, 0
3, 23029, Control_c, 1, 11, 121
3, 23044, Note_on_c, 1, 74, 80
3, 23056, Control_c, 1, 11, 121
3, 23061, Control_c, 1, 11, 124
3, 23072, Control_c, 1, 11, 127
3, 23122, Control_c, 1, 11, 124
3, 23127, Control_c, 1, 11, 121
3, 23138, Control_c, 1, 11, 120
3, 23144, Control_c, 1, 11, 115
3, 23155, Control_c, 1, 11, 111
3, 23171, Control_c, 1, 11, 108
3, 23177, Control_c, 1, 11, 105
3, 23188, Control_c, 1, 11, 103
3, 23605, Control_c, 1, 11, 100
3, 23616, Control_c, 1, 11, 101
3, 23621, Control_c, 1, 11, 104
3, 23637, Control_c, 1, 11, 107
3, 23648, Control_c, 1, 11, 109
3, 23654, Control_c, 1, 11, 112
3, 23665, Control_c, 1, 11, 115
3, 23738, Note_on_c, 1, 74, 0
3, 23791, Control_c, 1, 11, 121
3, 23802, Control_c, 1, 11, 122
3, 23812, Note_on_c, 1, 73, 80
3, 23813, Control_c, 1, 11, 127
3, 23868, Control_c, 1, 11, 126
3, 23879, Control_c, 1, 11, 121
3, 23884, Control_c, 1, 11, 120
3, 23895, Control_c, 1, 11, 118
3, 23901, Control_c, 1, 11, 117
3, 23912, Control_c, 1, 11, 114
3, 23917, Control_c, 1, 11, 112
3, 23928, Control_c, 1, 11, 109
3, 23934, Control_c, 1, 11, 108
3, 23945, Control_c, 1, 11, 106
3, 23961, Control_c, 1, 11, 107
3, 24093, Control_c, 1, 11, 109
3, 24164, Control_c, 1, 11, 110
3, 24208, Control_c, 1, 11, 112
3, 24230, Control_c, 1, 11, 113
3, 24241, Control_c, 1, 11, 115
3, 24296, Control_c, 1, 11, 116
3, 24307, Control_c, 1, 11, 118
3, 24362, Control_c, 1, 11, 119
3, 24438, Control_c, 1, 11, 121
3, 24488, Control_c, 1, 11, 122
3, 24493, Control_c, 1, 11, 124
3, 24499, Control_c, 1, 11, 127
3, 24506, Note_on_c, 1, 73, 0
3, 24580, Note_on_c, 1, 74, 80
3, 24581, Control_c, 1, 11, 121
3, 24586, Control_c, 1, 11, 122
3, 24603, Control_c, 1, 11, 125
3, 24614, Control_c, 1, 11, 127
3, 24647, Control_c, 1, 11, 123
3, 24652, Control_c, 1, 11, 120
3, 24663, Control_c, 1, 11, 118
3, 24669, Control_c, 1, 11, 115
3, 24685, Control_c, 1, 11, 114
3, 24696, Control_c, 1, 11, 112
3, 24729, Control_c, 1, 11, 111
3, 24768, Control_c, 1, 11, 109
3, 24844, Control_c, 1, 11, 110
3, 24910, Control_c, 1, 11, 112
3, 24981, Control_c, 1, 11, 113
3, 25047, Control_c, 1, 11, 115
3, 25058, Control_c, 1, 11, 116
3, 25091, Control_c, 1, 11, 118
3, 25108, Control_c, 1, 11, 119
3, 25124, Control_c, 1, 11, 121
3, 25141, Control_c, 1, 11, 122
3, 25173, Control_c, 1, 11, 124
3, 25179, Control_c, 1, 11, 125
3, 25195, Control_c, 1, 11, 127
3, 25274, Note_on_c, 1, 74, 0
3, 25348, Note_on_c, 1, 73, 80
3, 25349, Control_c, 1, 11, 122
3, 25354, Control_c, 1, 11, 125
3, 25360, Control_c, 1, 11, 127
3, 25404, Control_c, 1, 11, 123
3, 25409, Control_c, 1, 11, 121
3, 25420, Control_c, 1, 11, 117
3, 25426, Control_c, 1, 11, 112
3, 25437, Control_c, 1, 11, 111
3, 25442, Control_c, 1, 11, 109
3, 25459, Control_c, 1, 11, 108
3, 25475, Control_c, 1, 11, 106
3, 25492, Control_c, 1, 11, 105
3, 25503, Control_c, 1, 11, 103
3, 25541, Control_c, 1, 11, 102
3, 25568, Control_c, 1, 11, 100
3, 25711, Control_c, 1, 11, 100
3, 25722, Control_c, 1, 11, 101
3, 25788, Control_c, 1, 11, 104
3, 25804, Control_c, 1, 11, 106
3, 25821, Control_c, 1, 11, 107
3, 25832, Control_c, 1, 11, 109
3, 25837, Control_c, 1, 11, 110
3, 25865, Control_c, 1, 11, 113
3, 25870, Control_c, 1, 11, 115
3, 25898, Control_c, 1, 11, 116
3, 25920, Control_c, 1, 11, 118
3, 25963, Control_c, 1, 11, 119
3, 25985, Control_c, 1, 11, 122
3, 25996, Control_c, 1, 11, 124
3, 26042, Note_on_c, 1, 73, 0
3, 26116, Note_on_c, 1, 74, 80
3, 26117, Control_c, 1, 11, 127
3, 26133, Control_c, 1, 11, 126
3, 26144, Control_c, 1, 11, 124
3, 26150, Control_c, 1, 11, 121
3, 26161, Control_c, 1, 11, 120
3, 26166, Control_c, 1, 11, 118
3, 26183, Control_c, 1, 11, 117
3, 26194, Control_c, 1, 11, 115
3, 26199, Control_c, 1, 11, 114
3, 26216, Control_c, 1, 11, 112
3, 26227, Control_c, 1, 11, 111
3, 26232, Control_c, 1, 11, 109
3, 26243, Control_c, 1, 11, 108
3, 26249, Control_c, 1, 11, 106
3, 26276, Control_c, 1, 11, 105
3, 26304, Note_on_c, 1, 74, 0
3, 26474, Control_c, 1, 11, 127
3, 26496, Note_on_c, 1, 79, 82
3, 26640, Note_on_c, 1, 79, 0
3, 26688, Note_on_c, 1, 79, 82
3, 26778, Note_on_c, 1, 79, 0
3, 26832, Note_on_c, 1, 79, 82
3, 26860, Note_on_c, 1, 79, 0
3, 26880, Note_on_c, 1, 78, 82
3, 26934, Control_c, 1, 11, 126
3, 26951, Control_c, 1, 11, 124
3, 26956, Control_c, 1, 11, 123
3, 26967, Control_c, 1, 11, 121
3, 26973, Control_c, 1, 11, 120
3, 26984, Control_c, 1, 11, 118
3, 26989, Control_c, 1, 11, 115
3, 27006, Control_c, 1, 11, 112
3, 27017, Control_c, 1, 11, 111
3, 27022, Control_c, 1, 11, 108
3, 27033, Control_c, 1, 11, 105
3, 27039, Control_c, 1, 11, 102
3, 27046, Note_on_c, 1, 78, 0
3, 27050, Control_c, 1, 11, 100
3, 27247, Control_c, 1, 11, 127
3, 27264, Note_on_c, 1, 79, 82
3, 27408, Note_on_c, 1, 79, 0
3, 27456, Note_on_c, 1, 79, 82
3, 27546, Note_on_c, 1, 79, 0
3, 27600, Note_on_c, 1, 79, 82
3, 27628, Note_on_c, 1, 79, 0
3, 27648, Note_on_c, 1, 78, 82
3, 27742, Note_on_c, 1, 78, 0
3, 27840, Note_on_c, 1, 79, 82
3, 27930, Note_on_c, 1, 79, 0
3, 28032, Note_on_c, 1, 78, 82
3, 28122, Note_on_c, 1, 78, 0
3, 28224, Note_on_c, 1, 79, 82
3, 28314, Note_on_c, 1, 79, 0
3, 28410, Control_c, 1, 11, 127
3, 28416, Note_on_c, 1, 78, 82
3, 28426, Control_c, 1, 11, 126
3, 28443, Control_c, 1, 11, 124
3, 28459, Control_c, 1, 11, 123
3, 28465, Control_c, 1, 11, 121
3, 28476, Control_c, 1, 11, 120
3, 28498, Control_c, 1, 11, 118
3, 28509, Control_c, 1, 11, 117
3, 28514, Control_c, 1, 11, 115
3, 28525, Control_c, 1, 11, 114
3, 28542, Control_c, 1, 11, 112
3, 28547, Control_c, 1, 11, 111
3, 28548, Note_on_c, 1, 78, 0
3, 28558, Control_c, 1, 11, 109
3, 40292, Control_c, 1, 11, 93
3, 40298, Control_c, 1, 11, 95
3, 40303, Control_c, 1, 11, 96
3, 40320, Control_c, 1, 11, 99
3, 40320, Note_on_c, 1, 71, 55
3, 40336, Control_c, 1, 11, 101
3, 40347, Control_c, 1, 11, 102
3, 40352, Control_c, 1, 11, 105
3, 40363, Control_c, 1, 11, 107
3, 40369, Control_c, 1, 11, 108
3, 40380, Control_c, 1, 11, 111
3, 40385, Control_c, 1, 11, 113
3, 40402, Control_c, 1, 11, 114
3, 40418, Control_c, 1, 11, 116
3, 40429, Control_c, 1, 11, 117
3, 40446, Control_c, 1, 11, 120
3, 40468, Control_c, 1, 11, 122
3, 40512, Control_c, 1, 11, 123
3, 40583, Control_c, 1, 11, 125
3, 40643, Control_c, 1, 11, 124
3, 40660, Control_c, 1, 11, 122
3, 40665, Control_c, 1, 11, 121
3, 40682, Control_c, 1, 11, 119
3, 40693, Control_c, 1, 11, 118
3, 40698, Control_c, 1, 11, 115
3, 40704, Note_on_c, 1, 71, 0
3, 40704, Note_on_c, 1, 72, 55
3, 40709, Control_c, 1, 11, 113
3, 40714, Control_c, 1, 11, 112
3, 40725, Control_c, 1, 11, 110
3, 40731, Control_c, 1, 11, 109
3, 40747, Control_c, 1, 11, 106
3, 40758, Control_c, 1, 11, 104
3, 40882, Note_on_c, 1, 72, 0
3, 41088, Control_c, 1, 11, 99
3, 41088, Note_on_c, 1, 69, 55
3, 41093, Control_c, 1, 11, 102
3, 41104, Control_c, 1, 11, 104
3, 41109, Control_c, 1, 11, 107
3, 41120, Control_c, 1, 11, 108
3, 41126, Control_c, 1, 11, 111
3, 41137, Control_c, 1, 11, 113
3, 41142, Control_c, 1, 11, 114
3, 41153, Control_c, 1, 11, 116
3, 41170, Control_c, 1, 11, 117
3, 41186, Control_c, 1, 11, 119
3, 41192, Control_c, 1, 11, 120
3, 41203, Control_c, 1, 11, 122
3, 41219, Control_c, 1, 11, 123
3, 41241, Control_c, 1, 11, 125
3, 41252, Control_c, 1, 11, 126
3, 41274, Control_c, 1, 11, 127
3, 41439, Control_c, 1, 11, 125
3, 41455, Control_c, 1, 11, 124
3, 41472, Note_on_c, 1, 69, 0
3, 41472, Note_on_c, 1, 71, 55
3, 41488, Control_c, 1, 11, 122
3, 41499, Control_c, 1, 11, 121
3, 41504, Control_c, 1, 11, 119
3, 41515, Control_c, 1, 11, 118
3, 41537, Control_c, 1, 11, 116
3, 41548, Control_c, 1, 11, 115
3, 41554, Control_c, 1, 11, 113
3, 41565, Control_c, 1, 11, 110
3, 41570, Control_c, 1, 11, 109
3, 41581, Control_c, 1, 11, 107
3, 41587, Control_c, 1, 11, 103
3, 41598, Control_c, 1, 11, 101
3, 41650, Note_on_c, 1, 71, 0
3, 55296, Note_on_c, 1, 67, 82
3, 55296, Control_c, 1, 11, 127
3, 56034, Note_on_c, 1, 67, 0
3, 56064, Note_on_c, 1, 69, 82
3, 56802, Note_on_c, 1, 69, 0
3, 56832, Note_on_c, 1, 71, 82
3, 57010, Note_on_c, 1, 71, 0
3, 63689, Control_c, 1, 11, 96
3, 63703, Control_c, 1, 11, 98
3, 63710, Control_c, 1, 11, 99
3, 63723, Control_c, 1, 11, 101
3, 63744, Control_c, 1, 11, 102
3, 63744, Note_on_c, 1, 74, 82
3, 63765, Control_c, 1, 11, 104
3, 63785, Control_c, 1, 11, 105
3, 63813, Control_c, 1, 11, 107
3, 63826, Control_c, 1, 11, 108
3, 63833, Control_c, 1, 11, 110
3, 63854, Control_c, 1, 11, 111
3, 63895, Control_c, 1, 11, 113
3, 63929, Control_c, 1, 11, 116
3, 63957, Control_c, 1, 11, 117
3, 63991, Control_c, 1, 11, 119
3, 64011, Control_c, 1, 11, 122
3, 64032, Control_c, 1, 11, 123
3, 64039, Control_c, 1, 11, 125
3, 64059, Control_c, 1, 11, 126
3, 64073, Control_c, 1, 11, 127
3, 64091, Note_on_c, 1, 74, 0
3, 64128, Note_on_c, 1, 72, 82
3, 64284, Note_on_c, 1, 72, 0
3, 64320, Note_on_c, 1, 74, 82
3, 64476, Note_on_c, 1, 74, 0
3, 64512, Note_on_c, 1, 72, 82
3, 64676, Note_on_c, 1, 72, 0
3, 64704, Note_on_c, 1, 69, 82
3, 64860, Note_on_c, 1, 69, 0
3, 64896, Note_on_c, 1, 71, 82
3, 65060, Note_on_c, 1, 71, 0
3, 65088, Note_on_c, 1, 72, 82
3, 65252, Note_on_c, 1, 72, 0
3, 65280, Note_on_c, 1, 71, 82
3, 65414, Note_on_c, 1, 71, 0
3, 65465, Control_c, 1, 11, 109
3, 65472, Note_on_c, 1, 67, 82
3, 65541, Control_c, 1, 11, 111
3, 65575, Control_c, 1, 11, 113
3, 65595, Control_c, 1, 11, 114
3, 65616, Control_c, 1, 11, 116
3, 65623, Control_c, 1, 11, 117
3, 65643, Control_c, 1, 11, 119
3, 65698, Control_c, 1, 11, 120
3, 65705, Control_c, 1, 11, 122
3, 65787, Control_c, 1, 11, 123
3, 65808, Note_on_c, 1, 67, 0
3, 65849, Control_c, 1, 11, 116
3, 65856, Note_on_c, 1, 67, 82
3, 65863, Control_c, 1, 11, 117
3, 65883, Control_c, 1, 11, 119
3, 65904, Control_c, 1, 11, 120
3, 65925, Control_c, 1, 11, 122
3, 65945, Control_c, 1, 11, 123
3, 65952, Control_c, 1, 11, 126
3, 65973, Control_c, 1, 11, 127
3, 65988, Note_on_c, 1, 67, 0
3, 66048, Note_on_c, 1, 67, 82
3, 66178, Control_c, 1, 11, 124
3, 66192, Control_c, 1, 11, 122
3, 66213, Control_c, 1, 11, 119
3, 66219, Control_c, 1, 11, 118
3, 66233, Control_c, 1, 11, 115
3, 66388, Note_on_c, 1, 67, 0
3, 66432, Note_on_c, 1, 72, 82
3, 66445, Control_c, 1, 11, 123
3, 66452, Control_c, 1, 11, 125
3, 66459, Control_c, 1, 11, 126
3, 66473, Control_c, 1, 11, 127
3, 66541, Control_c, 1, 11, 121
3, 66555, Control_c, 1, 11, 118
3, 66562, Control_c, 1, 11, 115
3, 66576, Control_c, 1, 11, 112
3, 66768, Note_on_c, 1, 72, 0
3, 66816, Note_on_c, 1, 71, 82
3, 66822, Control_c, 1, 11, 127
3, 66960, Note_on_c, 1, 71, 0
3, 67008, Note_on_c, 1, 74, 82
3, 67054, Note_on_c, 1, 74, 0
3, 67104, Note_on_c, 1, 74, 82
3, 67150, Note_on_c, 1, 74, 0
3, 67200, Note_on_c, 1, 74, 82
3, 67296, Note_on_c, 1, 74, 0
3, 67296, Note_on_c, 1, 72, 82
3, 67364, Note_on_c, 1, 72, 0
3, 67392, Note_on_c, 1, 71, 82
3, 67438, Note_on_c, 1, 71, 0
3, 67488, Note_on_c, 1, 69, 82
3, 67534, Note_on_c, 1, 69, 0
3, 67584, Control_c, 1, 11, 121
3, 67584, Note_on_c, 1, 71, 82
3, 67590, Control_c, 1, 11, 119
3, 67604, Control_c, 1, 11, 118
3, 67611, Control_c, 1, 11, 116
3, 67625, Control_c, 1, 11, 115
3, 67645, Control_c, 1, 11, 113
3, 67652, Control_c, 1, 11, 110
3, 67666, Control_c, 1, 11, 107
3, 67673, Control_c, 1, 11, 106
3, 67748, Note_on_c, 1, 71, 0
3, 68345, Control_c, 1, 11, 100
3, 68352, Note_on_c, 1, 74, 82
3, 68393, Control_c, 1, 11, 101
3, 68413, Control_c, 1, 11, 102
3, 68434, Control_c, 1, 11, 104
3, 68468, Control_c, 1, 11, 105
3, 68496, Control_c, 1, 11, 107
3, 68516, Control_c, 1, 11, 108
3, 68550, Control_c, 1, 11, 110
3, 68571, Control_c, 1, 11, 111
3, 68578, Control_c, 1, 11, 113
3, 68598, Control_c, 1, 11, 114
3, 68619, Control_c, 1, 11, 116
3, 68640, Control_c, 1, 11, 117
3, 68653, Control_c, 1, 11, 119
3, 68660, Control_c, 1, 11, 120
3, 68694, Control_c, 1, 11, 122
3, 68715, Control_c, 1, 11, 123
3, 68722, Control_c, 1, 11, 125
3, 68736, Note_on_c, 1, 74, 0
3, 68736, Control_c, 1, 11, 127
3, 68736, Note_on_c, 1, 72, 82
3, 68928, Note_on_c, 1, 72, 0
3, 68928, Note_on_c, 1, 74, 82
3, 69102, Note_on_c, 1, 74, 0
3, 69120, Note_on_c, 1, 72, 82
3, 69312, Note_on_c, 1, 72, 0
3, 69312, Note_on_c, 1, 69, 82
3, 69504, Note_on_c, 1, 69, 0
3, 69504, Note_on_c, 1, 71, 82
3, 69696, Note_on_c, 1, 71, 0
3, 69696, Note_on_c, 1, 72, 82
3, 69870, Note_on_c, 1, 72, 0
3, 69888, Note_on_c, 1, 71, 82
3, 70024, Note_on_c, 1, 71, 0
3, 70073, Control_c, 1, 11, 113
3, 70080, Control_c, 1, 11, 116
3, 70080, Note_on_c, 1, 67, 82
3, 70093, Control_c, 1, 11, 117
3, 70100, Control_c, 1, 11, 122
3, 70114, Control_c, 1, 11, 123
3, 70134, Control_c, 1, 11, 119
3, 70141, Control_c, 1, 11, 118
3, 70155, Control_c, 1, 11, 115
3, 70162, Control_c, 1, 11, 113
3, 70176, Control_c, 1, 11, 110
3, 70203, Control_c, 1, 11, 109
3, 70361, Control_c, 1, 11, 111
3, 70388, Control_c, 1, 11, 113
3, 70416, Note_on_c, 1, 67, 0
3, 70429, Control_c, 1, 11, 116
3, 70464, Control_c, 1, 11, 117
3, 70464, Note_on_c, 1, 67, 82
3, 70505, Control_c, 1, 11, 119
3, 70525, Control_c, 1, 11, 120
3, 70546, Control_c, 1, 11, 122
3, 70573, Control_c, 1, 11, 123
3, 70600, Note_on_c, 1, 67, 0
3, 70608, Control_c, 1, 11, 126
3, 70635, Control_c, 1, 11, 127
3, 70656, Note_on_c, 1, 67, 82
3, 70676, Control_c, 1, 11, 125
3, 70690, Control_c, 1, 11, 124
3, 70697, Control_c, 1, 11, 121
3, 70710, Control_c, 1, 11, 119
3, 70717, Control_c, 1, 11, 109
3, 70861, Control_c, 1, 11, 110
3, 70937, Control_c, 1, 11, 106
3, 71040, Control_c, 1, 11, 107
3, 71108, Control_c, 1, 11, 108
3, 71129, Control_c, 1, 11, 110
3, 71184, Control_c, 1, 11, 111
3, 71190, Control_c, 1, 11, 113
3, 71204, Control_c, 1, 11, 114
3, 71252, Control_c, 1, 11, 116
3, 71366, Note_on_c, 1, 67, 0
3, 71424, Note_on_c, 1, 76, 82
3, 71430, Control_c, 1, 11, 120
3, 71458, Control_c, 1, 11, 122
3, 71472, Control_c, 1, 11, 123
3, 71492, Control_c, 1, 11, 125
3, 71499, Control_c, 1, 11, 126
3, 71513, Control_c, 1, 11, 127
3, 71554, Control_c, 1, 11, 119
3, 71561, Control_c, 1, 11, 116
3, 71574, Control_c, 1, 11, 115
3, 71581, Control_c, 1, 11, 113
3, 71595, Control_c, 1, 11, 110
3, 71602, Control_c, 1, 11, 107
3, 71616, Control_c, 1, 11, 106
3, 71636, Control_c, 1, 11, 104
3, 71643, Control_c, 1, 11, 103
3, 71684, Control_c, 1, 11, 101
3, 71698, Control_c, 1, 11, 98
3, 71718, Control_c, 1, 11, 101
3, 71787, Control_c, 1, 11, 102
3, 71821, Control_c, 1, 11, 104
3, 71869, Control_c, 1, 11, 105
3, 71972, Control_c, 1, 11, 107
3, 72048, Control_c, 1, 11, 108
3, 72130, Control_c, 1, 11, 110
3, 72134, Note_on_c, 1, 76, 0
3, 72171, Control_c, 1, 11, 111
3, 72192, Note_on_c, 1, 79, 82
3, 72198, Control_c, 1, 11, 113
3, 72212, Control_c, 1, 11, 119
3, 72219, Control_c, 1, 11, 120
3, 72233, Control_c, 1, 11, 125
3, 72240, Control_c, 1, 11, 126
3, 72253, Control_c, 1, 11, 127
3, 72281, Control_c, 1, 11, 124
3, 72294, Control_c, 1, 11, 121
3, 72301, Control_c, 1, 11, 119
3, 72315, Control_c, 1, 11, 113
3, 72322, Control_c, 1, 11, 112
3, 72336, Control_c, 1, 11, 110
3, 72342, Control_c, 1, 11, 109
3, 72363, Control_c, 1, 11, 107
3, 72466, Control_c, 1, 11, 108
3, 72562, Control_c, 1, 11, 110
3, 72713, Control_c, 1, 11, 111
3, 72809, Control_c, 1, 11, 113
3, 72891, Control_c, 1, 11, 114
3, 72918, Control_c, 1, 11, 116
3, 72924, Note_on_c, 1, 79, 0
3, 72980, Control_c, 1, 11, 117
3, 72994, Control_c, 1, 11, 119
3, 76985, Control_c, 1, 11, 96
3, 76992, Note_on_c, 1, 62, 64
3, 76994, Control_c, 1, 11, 99
3, 77012, Control_c, 1, 11, 100
3, 77038, Control_c, 1, 11, 103
3, 77046, Control_c, 1, 11, 105
3, 77073, Control_c, 1, 11, 106
3, 77099, Control_c, 1, 11, 108
3, 77116, Control_c, 1, 11, 109
3, 77142, Control_c, 1, 11, 112
3, 77151, Control_c, 1, 11, 114
3, 77169, Control_c, 1, 11, 115
3, 77184, Note_on_c, 1, 62, 0
3, 77184, Note_on_c, 1, 67, 64
3, 77204, Control_c, 1, 11, 117
3, 77230, Control_c, 1, 11, 118
3, 77273, Control_c, 1, 11, 120
3, 77300, Control_c, 1, 11, 121
3, 77334, Control_c, 1, 11, 123
3, 77352, Control_c, 1, 11, 124
3, 77376, Note_on_c, 1, 67, 0
3, 77376, Note_on_c, 1, 71, 64
3, 77404, Control_c, 1, 11, 126
3, 77457, Control_c, 1, 11, 127
3, 77483, Control_c, 1, 11, 126
3, 77492, Control_c, 1, 11, 123
3, 77509, Control_c, 1, 11, 122
3, 77518, Control_c, 1, 11, 119
3, 77535, Control_c, 1, 11, 116
3, 77568, Note_on_c, 1, 71, 0
3, 77568, Note_on_c, 1, 74, 64
3, 77570, Control_c, 1, 11, 111
3, 77666, Control_c, 1, 11, 110
3, 77701, Control_c, 1, 11, 105
3, 77718, Control_c, 1, 11, 104
3, 77746, Note_on_c, 1, 74, 0
3, 79104, Control_c, 1, 11, 127
3, 79872, Note_on_c, 1, 71, 93
3, 79872, Control_c, 1, 11, 127
3, 80004, Control_c, 1, 11, 126
3, 80025, Control_c, 1, 11, 125
3, 80032, Control_c, 1, 11, 123
3, 80045, Control_c, 1, 11, 120
3, 80052, Control_c, 1, 11, 120
3, 80059, Control_c, 1, 11, 119
3, 80066, Control_c, 1, 11, 118
3, 80073, Control_c, 1, 11, 116
3, 80080, Control_c, 1, 11, 115
3, 80086, Control_c, 1, 11, 113
3, 80093, Control_c, 1, 11, 112
3, 80100, Control_c, 1, 11, 110
3, 80107, Control_c, 1, 11, 109
3, 80114, Control_c, 1, 11, 107
3, 80121, Control_c, 1, 11, 106
3, 80128, Control_c, 1, 11, 104
3, 80182, Note_on_c, 1, 71, 0
3, 80230, Control_c, 1, 11, 120
3, 80256, Note_on_c, 1, 71, 93
3, 80368, Note_on_c, 1, 71, 0
3, 80448, Note_on_c, 1, 71, 93
3, 80538, Note_on_c, 1, 71, 0
3, 80592, Note_on_c, 1, 71, 93
3, 80622, Note_on_c, 1, 71, 0
3, 80640, Note_on_c, 1, 69, 93
3, 80640, Control_c, 1, 11, 127
3, 80641, Control_c, 1, 11, 127
3, 80773, Control_c, 1, 11, 126
3, 80794, Control_c, 1, 11, 125
3, 80801, Control_c, 1, 11, 123
3, 80814, Control_c, 1, 11, 120
3, 80821, Control_c, 1, 11, 120
3, 80828, Control_c, 1, 11, 119
3, 80835, Control_c, 1, 11, 118
3, 80842, Control_c, 1, 11, 116
3, 80849, Control_c, 1, 11, 115
3, 80855, Control_c, 1, 11, 113
3, 80862, Control_c, 1, 11, 112
3, 80869, Control_c, 1, 11, 110
3, 80876, Control_c, 1, 11, 109
3, 80883, Control_c, 1, 11, 107
3, 80890, Control_c, 1, 11, 106
3, 80897, Control_c, 1, 11, 104
3, 80948, Note_on_c, 1, 69, 0
3, 80999, Control_c, 1, 11, 120
3, 81024, Note_on_c, 1, 69, 93
3, 81138, Note_on_c, 1, 69, 0
3, 81216, Note_on_c, 1, 69, 93
3, 81306, Note_on_c, 1, 69, 0
3, 81360, Note_on_c, 1, 69, 93
3, 81390, Note_on_c, 1, 69, 0
3, 81408, Note_on_c, 1, 71, 93
3, 81409, Control_c, 1, 11, 127
3, 81410, Control_c, 1, 11, 127
3, 81542, Control_c, 1, 11, 126
3, 81563, Control_c, 1, 11, 125
3, 81570, Control_c, 1, 11, 123
3, 81583, Control_c, 1, 11, 120
3, 81590, Control_c, 1, 11, 120
3, 81597, Control_c, 1, 11, 119
3, 81604, Control_c, 1, 11, 118
3, 81611, Control_c, 1, 11, 116
3, 81618, Control_c, 1, 11, 115
3, 81624, Control_c, 1, 11, 113
3, 81631, Control_c, 1, 11, 112
3, 81638, Control_c, 1, 11, 110
3, 81645, Control_c, 1, 11, 109
3, 81652, Control_c, 1, 11, 107
3, 81659, Control_c, 1, 11, 106
3, 81666, Control_c, 1, 11, 104
3, 81719, Note_on_c, 1, 71, 0
3, 81768, Control_c, 1, 11, 120
3, 81792, Note_on_c, 1, 71, 93
3, 81906, Note_on_c, 1, 71, 0
3, 81984, Note_on_c, 1, 71, 93
3, 82074, Note_on_c, 1, 71, 0
3, 82128, Note_on_c, 1, 71, 93
3, 82158, Note_on_c, 1, 71, 0
3, 82176, Note_on_c, 1, 69, 93
3, 82178, Control_c, 1, 11, 127
3, 82179, Control_c, 1, 11, 127
3, 82311, Control_c, 1, 11, 126
3, 82332, Control_c, 1, 11, 125
3, 82339, Control_c, 1, 11, 123
3, 82352, Control_c, 1, 11, 120
3, 82359, Control_c, 1, 11, 120
3, 82366, Control_c, 1, 11, 119
3, 82373, Control_c, 1, 11, 118
3, 82380, Control_c, 1, 11, 116
3, 82387, Control_c, 1, 11, 115
3, 82393, Control_c, 1, 11, 113
3, 82400, Control_c, 1, 11, 112
3, 82407, Control_c, 1, 11, 110
3, 82414, Control_c, 1, 11, 109
3, 82421, Control_c, 1, 11, 107
3, 82428, Control_c, 1, 11, 106
3, 82435, Control_c, 1, 11, 104
3, 82483, Note_on_c, 1, 69, 0
3, 82537, Control_c, 1, 11, 120
3, 82560, Note_on_c, 1, 69, 93
3, 82676, Note_on_c, 1, 69, 0
3, 82752, Note_on_c, 1, 69, 93
3, 82842, Note_on_c, 1, 69, 0
3, 82896, Note_on_c, 1, 69, 93
3, 82926, Note_on_c, 1, 69, 0
3, 82944, Note_on_c, 1, 71, 93
3, 82947, Control_c, 1, 11, 127
3, 83122, Note_on_c, 1, 71, 0
3, 84672, Note_on_c, 1, 83, 82
3, 84762, Note_on_c, 1, 83, 0
3, 84816, Note_on_c, 1, 83, 82
3, 84840, Note_on_c, 1, 83, 0
3, 84864, Note_on_c, 1, 83, 82
3, 85002, Note_on_c, 1, 83, 0
3, 85056, Note_on_c, 1, 83, 82
3, 85080, Note_on_c, 1, 83, 0
3, 85080, Note_on_c, 1, 81, 82
3, 85104, Note_on_c, 1, 81, 0
3, 85104, Note_on_c, 1, 83, 82
3, 85128, Note_on_c, 1, 83, 0
3, 85128, Note_on_c, 1, 81, 82
3, 85152, Note_on_c, 1, 81, 0
3, 85152, Note_on_c, 1, 79, 82
3, 85200, Note_on_c, 1, 79, 0
3, 85200, Note_on_c, 1, 81, 82
3, 85234, Note_on_c, 1, 81, 0
3, 85248, Note_on_c, 1, 79, 82
3, 85380, Note_on_c, 1, 79, 0
3, 85440, Note_on_c, 1, 74, 82
3, 85530, Note_on_c, 1, 74, 0
3, 85584, Note_on_c, 1, 74, 82
3, 85608, Note_on_c, 1, 74, 0
3, 85632, Note_on_c, 1, 74, 82
3, 85772, Note_on_c, 1, 74, 0
3, 85824, Note_on_c, 1, 74, 82
3, 85848, Note_on_c, 1, 74, 0
3, 85848, Note_on_c, 1, 72, 82
3, 85872, Note_on_c, 1, 72, 0
3, 85872, Note_on_c, 1, 74, 82
3, 85896, Note_on_c, 1, 74, 0
3, 85896, Note_on_c, 1, 72, 82
3, 85920, Note_on_c, 1, 72, 0
3, 85920, Note_on_c, 1, 71, 82
3, 85966, Note_on_c, 1, 71, 0
3, 85968, Note_on_c, 1, 72, 82
3, 86002, Note_on_c, 1, 72, 0
3, 86016, Note_on_c, 1, 71, 82
3, 86194, Note_on_c, 1, 71, 0
3, 87519, Control_c, 1, 11, 105
3, 87528, Control_c, 1, 11, 107
3, 87537, Control_c, 1, 11, 110
3, 87545, Control_c, 1, 11, 112
3, 87552, Note_on_c, 1, 74, 73
3, 87554, Control_c, 1, 11, 115
3, 87563, Control_c, 1, 11, 118
3, 87572, Control_c, 1, 11, 120
3, 87580, Control_c, 1, 11, 123
3, 87589, Control_c, 1, 11, 126
3, 87606, Control_c, 1, 11, 125
3, 87611, Control_c, 1, 11, 125
3, 87615, Control_c, 1, 11, 126
3, 87637, Control_c, 1, 11, 126
3, 87639, Control_c, 1, 11, 127
3, 87710, Control_c, 1, 11, 125
3, 87718, Control_c, 1, 11, 124
3, 87727, Control_c, 1, 11, 123
3, 87736, Control_c, 1, 11, 122
3, 87745, Control_c, 1, 11, 121
3, 87753, Control_c, 1, 11, 120
3, 87762, Control_c, 1, 11, 119
3, 87771, Control_c, 1, 11, 118
3, 87779, Control_c, 1, 11, 116
3, 87788, Control_c, 1, 11, 115
3, 87797, Control_c, 1, 11, 114
3, 87806, Control_c, 1, 11, 113
3, 87814, Control_c, 1, 11, 112
3, 87823, Control_c, 1, 11, 111
3, 87832, Control_c, 1, 11, 110
3, 87841, Control_c, 1, 11, 109
3, 87849, Control_c, 1, 11, 107
3, 87858, Control_c, 1, 11, 106
3, 87867, Control_c, 1, 11, 105
3, 87875, Control_c, 1, 11, 104
3, 87884, Control_c, 1, 11, 103
3, 87893, Control_c, 1, 11, 102
3, 87902, Control_c, 1, 11, 101
3, 87910, Control_c, 1, 11, 99
3, 87919, Control_c, 1, 11, 97
3, 87928, Control_c, 1, 11, 95
3, 87937, Control_c, 1, 11, 93
3, 87945, Control_c, 1, 11, 91
3, 87954, Control_c, 1, 11, 89
3, 87963, Control_c, 1, 11, 86
3, 87971, Control_c, 1, 11, 84
3, 87980, Control_c, 1, 11, 82
3, 87989, Control_c, 1, 11, 80
3, 87998, Control_c, 1, 11, 78
3, 88006, Control_c, 1, 11, 76
3, 88015, Control_c, 1, 11, 73
3, 88024, Control_c, 1, 11, 71
3, 88033, Control_c, 1, 11, 69
3, 89030, Note_on_c, 1, 74, 0
3, 89046, Control_c, 1, 11, 99
3, 89055, Control_c, 1, 11, 103
3, 89064, Control_c, 1, 11, 106
3, 89073, Control_c, 1, 11, 110
3, 89081, Control_c, 1, 11, 113
3, 89088, Note_on_c, 1, 74, 73
3, 89090, Control_c, 1, 11, 120
3, 89108, Control_c, 1, 11, 121
3, 89125, Control_c, 1, 11, 122
3, 89142, Control_c, 1, 11, 123
3, 89160, Control_c, 1, 11, 124
3, 89177, Control_c, 1, 11, 125
3, 89195, Control_c, 1, 11, 126
3, 89204, Control_c, 1, 11, 127
3, 89253, Control_c, 1, 11, 126
3, 89262, Control_c, 1, 11, 124
3, 89263, Control_c, 1, 11, 124
3, 89272, Control_c, 1, 11, 123
3, 89281, Control_c, 1, 11, 121
3, 89289, Control_c, 1, 11, 120
3, 89298, Control_c, 1, 11, 118
3, 89307, Control_c, 1, 11, 117
3, 89315, Control_c, 1, 11, 115
3, 89324, Control_c, 1, 11, 114
3, 89333, Control_c, 1, 11, 112
3, 89342, Control_c, 1, 11, 111
3, 89350, Control_c, 1, 11, 109
3, 89359, Control_c, 1, 11, 108
3, 89368, Control_c, 1, 11, 106
3, 89377, Control_c, 1, 11, 105
3, 89385, Control_c, 1, 11, 103
3, 89394, Control_c, 1, 11, 101
3, 89403, Control_c, 1, 11, 99
3, 89411, Control_c, 1, 11, 96
3, 89420, Control_c, 1, 11, 93
3, 89429, Control_c, 1, 11, 90
3, 89438, Control_c, 1, 11, 87
3, 89446, Control_c, 1, 11, 84
3, 89455, Control_c, 1, 11, 81
3, 89464, Control_c, 1, 11, 78
3, 89473, Control_c, 1, 11, 75
3, 89481, Control_c, 1, 11, 72
3, 89490, Control_c, 1, 11, 69
3, 90566, Note_on_c, 1, 74, 0
3, 90582, Control_c, 1, 11, 99
3, 90591, Control_c, 1, 11, 103
3, 90600, Control_c, 1, 11, 106
3, 90609, Control_c, 1, 11, 110
3, 90617, Control_c, 1, 11, 113
3, 90624, Note_on_c, 1, 75, 73
3, 90626, Control_c, 1, 11, 120
3, 90644, Control_c, 1, 11, 121
3, 90661, Control_c, 1, 11, 122
3, 90678, Control_c, 1, 11, 123
3, 90696, Control_c, 1, 11, 124
3, 90713, Control_c, 1, 11, 125
3, 90731, Control_c, 1, 11, 126
3, 90740, Control_c, 1, 11, 127
3, 90789, Control_c, 1, 11, 126
3, 90798, Control_c, 1, 11, 126
3, 90807, Control_c, 1, 11, 125
3, 90816, Control_c, 1, 11, 123
3, 90824, Control_c, 1, 11, 121
3, 90833, Control_c, 1, 11, 119
3, 90842, Control_c, 1, 11, 117
3, 90850, Control_c, 1, 11, 116
3, 90859, Control_c, 1, 11, 114
3, 90868, Control_c, 1, 11, 112
3, 90877, Control_c, 1, 11, 110
3, 90885, Control_c, 1, 11, 108
3, 90894, Control_c, 1, 11, 107
3, 90903, Control_c, 1, 11, 105
3, 90920, Control_c, 1, 11, 95
3, 90929, Control_c, 1, 11, 94
3, 90938, Control_c, 1, 11, 92
3, 90946, Control_c, 1, 11, 91
3, 90955, Control_c, 1, 11, 89
3, 90964, Control_c, 1, 11, 87
3, 90973, Control_c, 1, 11, 86
3, 90981, Control_c, 1, 11, 84
3, 90990, Control_c, 1, 11, 82
3, 90999, Control_c, 1, 11, 81
3, 91008, Control_c, 1, 11, 79
3, 91016, Control_c, 1, 11, 77
3, 91025, Control_c, 1, 11, 76
3, 91034, Control_c, 1, 11, 74
3, 91042, Control_c, 1, 11, 72
3, 91051, Control_c, 1, 11, 71
3, 91060, Control_c, 1, 11, 69
3, 91069, Control_c, 1, 11, 67
3, 91077, Control_c, 1, 11, 66
3, 92102, Note_on_c, 1, 75, 0
3, 92118, Control_c, 1, 11, 99
3, 92127, Control_c, 1, 11, 103
3, 92136, Control_c, 1, 11, 106
3, 92145, Control_c, 1, 11, 110
3, 92153, Control_c, 1, 11, 113
3, 92160, Note_on_c, 1, 75, 71
3, 92162, Control_c, 1, 11, 120
3, 92180, Control_c, 1, 11, 121
3, 92197, Control_c, 1, 11, 122
3, 92214, Control_c, 1, 11, 123
3, 92232, Control_c, 1, 11, 124
3, 92249, Control_c, 1, 11, 125
3, 92267, Control_c, 1, 11, 126
3, 92276, Control_c, 1, 11, 127
3, 92325, Control_c, 1, 11, 126
3, 92334, Control_c, 1, 11, 126
3, 92343, Control_c, 1, 11, 125
3, 92352, Control_c, 1, 11, 123
3, 92360, Control_c, 1, 11, 121
3, 92369, Control_c, 1, 11, 119
3, 92378, Control_c, 1, 11, 117
3, 92386, Control_c, 1, 11, 116
3, 92395, Control_c, 1, 11, 114
3, 92404, Control_c, 1, 11, 112
3, 92413, Control_c, 1, 11, 110
3, 92421, Control_c, 1, 11, 108
3, 92430, Control_c, 1, 11, 107
3, 92439, Control_c, 1, 11, 105
3, 92448, Control_c, 1, 11, 102
3, 92456, Control_c, 1, 11, 99
3, 92465, Control_c, 1, 11, 97
3, 92474, Control_c, 1, 11, 95
3, 92482, Control_c, 1, 11, 93
3, 92491, Control_c, 1, 11, 90
3, 92500, Control_c, 1, 11, 88
3, 92509, Control_c, 1, 11, 86
3, 92517, Control_c, 1, 11, 84
3, 92526, Control_c, 1, 11, 81
3, 92535, Control_c, 1, 11, 79
3, 92544, Control_c, 1, 11, 77
3, 92552, Control_c, 1, 11, 75
3, 92561, Control_c, 1, 11, 72
3, 92570, Control_c, 1, 11, 70
3, 92578, Control_c, 1, 11, 68
3, 92587, Control_c, 1, 11, 66
3, 92596, Control_c, 1, 11, 63
3, 93638, Note_on_c, 1, 75, 0
3, 93654, Control_c, 1, 11, 99
3, 93663, Control_c, 1, 11, 103
3, 93672, Control_c, 1, 11, 106
3, 93681, Control_c, 1, 11, 110
3, 93689, Control_c, 1, 11, 113
3, 93696, Note_on_c, 1, 73, 71
3, 93698, Control_c, 1, 11, 120
3, 93716, Control_c, 1, 11, 121
3, 93733, Control_c, 1, 11, 122
3, 93750, Control_c, 1, 11, 123
3, 93768, Control_c, 1, 11, 124
3, 93785, Control_c, 1, 11, 125
3, 93803, Control_c, 1, 11, 126
3, 93812, Control_c, 1, 11, 127
3, 93861, Control_c, 1, 11, 126
3, 93870, Control_c, 1, 11, 126
3, 93879, Control_c, 1, 11, 125
3, 93888, Control_c, 1, 11, 123
3, 93896, Control_c, 1, 11, 121
3, 93905, Control_c, 1, 11, 119
3, 93914, Control_c, 1, 11, 117
3, 93922, Control_c, 1, 11, 116
3, 93931, Control_c, 1, 11, 114
3, 93940, Control_c, 1, 11, 112
3, 93949, Control_c, 1, 11, 110
3, 93957, Control_c, 1, 11, 108
3, 93966, Control_c, 1, 11, 107
3, 93975, Control_c, 1, 11, 105
3, 93979, Control_c, 1, 11, 102
3, 93988, Control_c, 1, 11, 100
3, 93996, Control_c, 1, 11, 97
3, 94005, Control_c, 1, 11, 95
3, 94014, Control_c, 1, 11, 92
3, 94022, Control_c, 1, 11, 89
3, 94031, Control_c, 1, 11, 87
3, 94040, Control_c, 1, 11, 84
3, 94049, Control_c, 1, 11, 82
3, 94057, Control_c, 1, 11, 79
3, 94066, Control_c, 1, 11, 76
3, 94075, Control_c, 1, 11, 74
3, 94084, Control_c, 1, 11, 71
3, 94092, Control_c, 1, 11, 69
3, 94101, Control_c, 1, 11, 66
3, 94110, Control_c, 1, 11, 63
3, 95174, Note_on_c, 1, 73, 0
3, 95190, Control_c, 1, 11, 99
3, 95199, Control_c, 1, 11, 103
3, 95208, Control_c, 1, 11, 106
3, 95217, Control_c, 1, 11, 110
3, 95225, Control_c, 1, 11, 113
3, 95232, Note_on_c, 1, 73, 71
3, 95234, Control_c, 1, 11, 120
3, 95252, Control_c, 1, 11, 121
3, 95269, Control_c, 1, 11, 122
3, 95286, Control_c, 1, 11, 123
3, 95304, Control_c, 1, 11, 124
3, 95321, Control_c, 1, 11, 125
3, 95339, Control_c, 1, 11, 126
3, 95348, Control_c, 1, 11, 127
3, 95397, Control_c, 1, 11, 126
3, 95406, Control_c, 1, 11, 126
3, 95415, Control_c, 1, 11, 125
3, 95424, Control_c, 1, 11, 123
3, 95432, Control_c, 1, 11, 121
3, 95441, Control_c, 1, 11, 119
3, 95450, Control_c, 1, 11, 117
3, 95458, Control_c, 1, 11, 116
3, 95467, Control_c, 1, 11, 114
3, 95476, Control_c, 1, 11, 112
3, 95485, Control_c, 1, 11, 110
3, 95493, Control_c, 1, 11, 108
3, 95502, Control_c, 1, 11, 107
3, 95511, Control_c, 1, 11, 105
3, 95532, Control_c, 1, 11, 104
3, 95541, Control_c, 1, 11, 102
3, 95550, Control_c, 1, 11, 99
3, 95558, Control_c, 1, 11, 97
3, 95567, Control_c, 1, 11, 94
3, 95576, Control_c, 1, 11, 91
3, 95585, Control_c, 1, 11, 89
3, 95593, Control_c, 1, 11, 86
3, 95602, Control_c, 1, 11, 84
3, 95611, Control_c, 1, 11, 81
3, 95620, Control_c, 1, 11, 78
3, 95628, Control_c, 1, 11, 76
3, 95637, Control_c, 1, 11, 73
3, 95646, Control_c, 1, 11, 71
3, 95654, Control_c, 1, 11, 68
3, 95663, Control_c, 1, 11, 65
3, 96710, Note_on_c, 1, 73, 0
3, 96768, Note_on_c, 1, 72, 71
3, 96946, Note_on_c, 1, 72, 0
3, 99840, Control_c, 1, 11, 127
3, 100224, Note_on_c, 1, 72, 52
3, 100364, Note_on_c, 1, 72, 0
3, 100608, Note_on_c, 1, 75, 52
3, 100748, Note_on_c, 1, 75, 0
3, 100992, Note_on_c, 1, 80, 52
3, 101132, Note_on_c, 1, 80, 0
3, 101376, Note_on_c, 1, 82, 52
3, 101516, Note_on_c, 1, 82, 0
3, 101760, Note_on_c, 1, 79, 52
3, 101900, Note_on_c, 1, 79, 0
3, 102144, Note_on_c, 1, 73, 52
3, 102284, Note_on_c, 1, 73, 0
3, 102528, Note_on_c, 1, 70, 52
3, 102668, Note_on_c, 1, 70, 0
3, 103008, Note_on_c, 1, 71, 84
3, 103104, Note_on_c, 1, 71, 0
3, 103104, Note_on_c, 1, 72, 60
3, 103200, Note_on_c, 1, 72, 0
3, 103200, Note_on_c, 1, 71, 52
3, 103296, Note_on_c, 1, 71, 0
3, 103296, Note_on_c, 1, 72, 47
3, 103392, Note_on_c, 1, 72, 0
3, 103392, Note_on_c, 1, 71, 47
3, 103488, Note_on_c, 1, 71, 0
3, 103488, Note_on_c, 1, 72, 47
3, 103584, Note_on_c, 1, 72, 0
3, 103584, Note_on_c, 1, 71, 47
3, 103680, Note_on_c, 1, 71, 0
3, 103680, Note_on_c, 1, 72, 48
3, 104544, Note_on_c, 1, 72, 0
3, 104544, Note_on_c, 1, 71, 84
3, 104640, Note_on_c, 1, 71, 0
3, 104640, Note_on_c, 1, 72, 60
3, 104736, Note_on_c, 1, 72, 0
3, 104736, Note_on_c, 1, 71, 52
3, 104832, Note_on_c, 1, 71, 0
3, 104832, Note_on_c, 1, 72, 47
3, 104928, Note_on_c, 1, 72, 0
3, 104928, Note_on_c, 1, 71, 47
3, 105024, Note_on_c, 1, 71, 0
3, 105024, Note_on_c, 1, 72, 47
3, 105120, Note_on_c, 1, 72, 0
3, 105120, Note_on_c, 1, 71, 47
3, 105216, Note_on_c, 1, 71, 0
3, 105216, Note_on_c, 1, 72, 47
3, 106080, Note_on_c, 1, 72, 0
3, 106080, Note_on_c, 1, 71, 84
3, 106176, Note_on_c, 1, 71, 0
3, 106176, Note_on_c, 1, 72, 60
3, 106272, Note_on_c, 1, 72, 0
3, 106272, Note_on_c, 1, 71, 52
3, 106368, Note_on_c, 1, 71, 0
3, 106368, Note_on_c, 1, 72, 47
3, 106464, Note_on_c, 1, 72, 0
3, 106464, Note_on_c, 1, 71, 47
3, 106560, Note_on_c, 1, 71, 0
3, 106560, Note_on_c, 1, 72, 47
3, 106656, Note_on_c, 1, 72, 0
3, 106656, Note_on_c, 1, 71, 47
3, 106738, Note_on_c, 1, 71, 0
3, 106749, Control_c, 1, 11, 125
3, 106752, Note_on_c, 1, 72, 48
3, 106770, Control_c, 1, 11, 124
3, 106783, Control_c, 1, 11, 122
3, 106804, Control_c, 1, 11, 121
3, 106811, Control_c, 1, 11, 118
3, 106825, Control_c, 1, 11, 115
3, 106831, Control_c, 1, 11, 113
3, 106845, Control_c, 1, 11, 109
3, 106852, Control_c, 1, 11, 106
3, 106873, Control_c, 1, 11, 101
3, 106886, Control_c, 1, 11, 98
3, 106893, Control_c, 1, 11, 97
3, 106907, Control_c, 1, 11, 95
3, 106956, Note_on_c, 1, 72, 0
3, 107489, Control_c, 1, 11, 127
3, 107616, Note_on_c, 1, 66, 82
3, 107712, Note_on_c, 1, 66, 0
3, 107712, Note_on_c, 1, 67, 65
3, 107808, Note_on_c, 1, 67, 0
3, 107808, Note_on_c, 1, 66, 52
3, 107904, Note_on_c, 1, 66, 0
3, 107904, Note_on_c, 1, 67, 47
3, 108000, Note_on_c, 1, 67, 0
3, 108000, Note_on_c, 1, 66, 47
3, 108096, Note_on_c, 1, 66, 0
3, 108096, Note_on_c, 1, 67, 47
3, 108192, Note_on_c, 1, 67, 0
3, 108192, Note_on_c, 1, 66, 47
3, 108282, Note_on_c, 1, 66, 0
3, 108288, Note_on_c, 1, 67, 47
3, 109152, Note_on_c, 1, 67, 0
3, 109152, Note_on_c, 1, 66, 82
3, 109248, Note_on_c, 1, 66, 0
3, 109248, Note_on_c, 1, 67, 60
3, 109344, Note_on_c, 1, 67, 0
3, 109344, Note_on_c, 1, 66, 52
3, 109440, Note_on_c, 1, 66, 0
3, 109440, Note_on_c, 1, 67, 47
3, 109536, Note_on_c, 1, 67, 0
3, 109536, Note_on_c, 1, 66, 47
3, 109632, Note_on_c, 1, 66, 0
3, 109632, Note_on_c, 1, 67, 47
3, 109728, Note_on_c, 1, 67, 0
3, 109728, Note_on_c, 1, 66, 47
3, 109818, Note_on_c, 1, 66, 0
3, 109824, Note_on_c, 1, 67, 47
3, 110688, Note_on_c, 1, 67, 0
3, 110688, Note_on_c, 1, 66, 84
3, 110784, Note_on_c, 1, 66, 0
3, 110784, Note_on_c, 1, 67, 60
3, 110880, Note_on_c, 1, 67, 0
3, 110880, Note_on_c, 1, 66, 52
3, 110976, Note_on_c, 1, 66, 0
3, 110976, Note_on_c, 1, 67, 47
3, 111072, Note_on_c, 1, 67, 0
3, 111072, Note_on_c, 1, 66, 47
3, 111168, Note_on_c, 1, 66, 0
3, 111168, Note_on_c, 1, 67, 47
3, 111264, Note_on_c, 1, 67, 0
3, 111264, Note_on_c, 1, 66, 47
3, 111354, Note_on_c, 1, 66, 0
3, 111360, Note_on_c, 1, 67, 48
3, 111366, Control_c, 1, 11, 124
3, 111457, Control_c, 1, 11, 126
3, 111547, Control_c, 1, 11, 125
3, 111649, Control_c, 1, 11, 123
3, 111682, Control_c, 1, 11, 122
3, 111728, Control_c, 1, 11, 120
3, 111784, Control_c, 1, 11, 119
3, 111795, Control_c, 1, 11, 117
3, 111818, Control_c, 1, 11, 116
3, 111852, Control_c, 1, 11, 114
3, 111886, Control_c, 1, 11, 113
3, 111931, Control_c, 1, 11, 111
3, 111953, Control_c, 1, 11, 110
3, 111965, Control_c, 1, 11, 108
3, 111999, Control_c, 1, 11, 105
3, 112055, Control_c, 1, 11, 104
3, 112066, Control_c, 1, 11, 101
3, 112089, Control_c, 1, 11, 99
3, 112100, Control_c, 1, 11, 98
3, 112114, Note_on_c, 1, 67, 0
3, 112224, Note_on_c, 1, 67, 56
3, 112224, Control_c, 1, 11, 112
3, 112229, Control_c, 1, 11, 114
3, 112252, Control_c, 1, 11, 118
3, 112263, Control_c, 1, 11, 121
3, 112286, Control_c, 1, 11, 123
3, 112297, Control_c, 1, 11, 126
3, 112320, Note_on_c, 1, 67, 0
3, 112320, Control_c, 1, 11, 127
3, 112320, Note_on_c, 1, 66, 57
3, 112416, Note_on_c, 1, 66, 0
3, 112416, Note_on_c, 1, 67, 60
3, 112512, Note_on_c, 1, 67, 0
3, 112512, Note_on_c, 1, 68, 61
3, 112608, Note_on_c, 1, 68, 0
3, 112608, Note_on_c, 1, 69, 64
3, 112704, Note_on_c, 1, 69, 0
3, 112704, Note_on_c, 1, 70, 69
3, 112715, Control_c, 1, 11, 126
3, 112800, Note_on_c, 1, 70, 0
3, 112800, Note_on_c, 1, 71, 75
3, 112873, Control_c, 1, 11, 116
3, 112881, Note_on_c, 1, 71, 0
3, 112896, Note_on_c, 1, 72, 58
3, 112918, Control_c, 1, 11, 117
3, 112929, Control_c, 1, 11, 118
3, 112963, Control_c, 1, 11, 120
3, 112986, Control_c, 1, 11, 123
3, 113020, Control_c, 1, 11, 124
3, 113133, Control_c, 1, 11, 126
3, 113268, Control_c, 1, 11, 127
3, 113392, Control_c, 1, 11, 125
3, 113426, Control_c, 1, 11, 123
3, 113460, Control_c, 1, 11, 122
3, 113472, Control_c, 1, 11, 119
3, 113505, Control_c, 1, 11, 116
3, 113528, Control_c, 1, 11, 113
3, 113539, Control_c, 1, 11, 111
3, 113562, Control_c, 1, 11, 108
3, 113573, Control_c, 1, 11, 107
3, 113596, Control_c, 1, 11, 104
3, 113630, Control_c, 1, 11, 101
3, 113650, Note_on_c, 1, 72, 0
3, 113760, Note_on_c, 1, 74, 91
3, 113760, Control_c, 1, 11, 127
3, 113856, Note_on_c, 1, 74, 0
3, 113856, Note_on_c, 1, 75, 69
3, 113952, Note_on_c, 1, 75, 0
3, 113952, Note_on_c, 1, 74, 57
3, 114025, Control_c, 1, 11, 126
3, 114034, Note_on_c, 1, 74, 0
3, 114048, Note_on_c, 1, 75, 57
3, 114217, Control_c, 1, 11, 123
3, 114228, Control_c, 1, 11, 122
3, 114251, Control_c, 1, 11, 119
3, 114262, Control_c, 1, 11, 117
3, 114285, Control_c, 1, 11, 114
3, 114319, Control_c, 1, 11, 113
3, 114330, Control_c, 1, 11, 110
3, 114364, Control_c, 1, 11, 108
3, 114386, Control_c, 1, 11, 107
3, 114398, Control_c, 1, 11, 105
3, 114428, Note_on_c, 1, 75, 0
3, 114432, Control_c, 1, 11, 104
3, 114511, Control_c, 1, 11, 126
3, 114528, Note_on_c, 1, 74, 90
3, 114624, Note_on_c, 1, 74, 0
3, 114624, Note_on_c, 1, 75, 65
3, 114720, Note_on_c, 1, 75, 0
3, 114720, Note_on_c, 1, 74, 57
3, 114802, Note_on_c, 1, 74, 0
3, 114816, Note_on_c, 1, 75, 57
3, 114827, Control_c, 1, 11, 126
3, 114838, Control_c, 1, 11, 127
3, 114974, Control_c, 1, 11, 125
3, 114996, Control_c, 1, 11, 123
3, 115008, Control_c, 1, 11, 119
3, 115030, Control_c, 1, 11, 117
3, 115041, Control_c, 1, 11, 116
3, 115064, Control_c, 1, 11, 114
3, 115075, Control_c, 1, 11, 113
3, 115098, Control_c, 1, 11, 111
3, 115109, Control_c, 1, 11, 110
3, 115143, Control_c, 1, 11, 108
3, 115156, Note_on_c, 1, 75, 0
3, 115166, Control_c, 1, 11, 107
3, 115200, Control_c, 1, 11, 105
3, 115200, Note_on_c, 1, 74, 57
3, 115267, Control_c, 1, 11, 104
3, 115279, Control_c, 1, 11, 102
3, 115312, Control_c, 1, 11, 101
3, 115335, Control_c, 1, 11, 99
3, 115346, Control_c, 1, 11, 98
3, 115369, Control_c, 1, 11, 96
3, 115378, Note_on_c, 1, 74, 0
3, 115380, Control_c, 1, 11, 95
3, 115403, Control_c, 1, 11, 93
3, 119808, Note_on_c, 1, 77, 55
3, 119808, Control_c, 1, 11, 127
3, 119996, Note_on_c, 1, 77, 0
3, 120192, Note_on_c, 1, 77, 55
3, 120380, Note_on_c, 1, 77, 0
3, 120576, Note_on_c, 1, 77, 55
3, 120764, Note_on_c, 1, 77, 0
3, 121344, Control_c, 1, 11, 123
3, 121356, Note_on_c, 1, 76, 103
3, 121357, Control_c, 1, 11, 125
3, 121364, Control_c, 1, 11, 126
3, 121378, Control_c, 1, 11, 127
3, 121412, Control_c, 1, 11, 127
3, 121440, Control_c, 1, 11, 126
3, 121467, Control_c, 1, 11, 125
3, 121488, Control_c, 1, 11, 124
3, 121515, Control_c, 1, 11, 123
3, 121536, Control_c, 1, 11, 122
3, 121563, Control_c, 1, 11, 121
3, 121584, Control_c, 1, 11, 120
3, 121590, Control_c, 1, 11, 119
3, 121597, Control_c, 1, 11, 118
3, 121604, Control_c, 1, 11, 117
3, 121611, Control_c, 1, 11, 116
3, 121618, Control_c, 1, 11, 115
3, 121625, Control_c, 1, 11, 114
3, 121632, Control_c, 1, 11, 113
3, 121638, Control_c, 1, 11, 112
3, 121645, Control_c, 1, 11, 111
3, 121652, Control_c, 1, 11, 109
3, 121659, Control_c, 1, 11, 108
3, 121666, Control_c, 1, 11, 107
3, 121673, Control_c, 1, 11, 105
3, 121680, Control_c, 1, 11, 104
3, 121686, Control_c, 1, 11, 103
3, 121693, Control_c, 1, 11, 101
3, 121700, Control_c, 1, 11, 100
3, 121707, Control_c, 1, 11, 98
3, 121764, Note_on_c, 1, 76, 0
3, 122009, Control_c, 1, 11, 127
3, 124423, Note_on_c, 1, 67, 103
3, 124531, Note_on_c, 1, 67, 0
3, 124611, Note_on_c, 1, 67, 103
3, 124699, Note_on_c, 1, 67, 0
3, 124759, Note_on_c, 1, 67, 103
3, 124789, Note_on_c, 1, 67, 0
3, 124803, Note_on_c, 1, 67, 103
3, 124901, Note_on_c, 1, 67, 0
3, 124995, Note_on_c, 1, 67, 103
3, 125093, Note_on_c, 1, 67, 0
3, 125187, Note_on_c, 1, 74, 91
3, 125187, Control_c, 1, 11, 127
3, 125326, Control_c, 1, 11, 124
3, 125344, Control_c, 1, 11, 117
3, 125352, Control_c, 1, 11, 114
3, 125379, Control_c, 1, 11, 112
3, 125396, Control_c, 1, 11, 108
3, 125405, Control_c, 1, 11, 105
3, 125422, Control_c, 1, 11, 103
3, 125448, Control_c, 1, 11, 102
3, 125457, Control_c, 1, 11, 99
3, 125475, Control_c, 1, 11, 97
3, 125483, Control_c, 1, 11, 96
3, 125501, Control_c, 1, 11, 94
3, 125879, Note_on_c, 1, 74, 0
3, 125955, Control_c, 1, 11, 127
3, 125955, Note_on_c, 1, 67, 103
3, 126063, Note_on_c, 1, 67, 0
3, 126147, Note_on_c, 1, 67, 103
3, 126235, Note_on_c, 1, 67, 0
3, 126295, Note_on_c, 1, 67, 103
3, 126325, Note_on_c, 1, 67, 0
3, 126339, Note_on_c, 1, 67, 103
3, 126437, Note_on_c, 1, 67, 0
3, 126531, Note_on_c, 1, 67, 103
3, 126629, Note_on_c, 1, 67, 0
3, 126723, Note_on_c, 1, 69, 91
3, 126810, Control_c, 1, 11, 126
3, 126819, Control_c, 1, 11, 124
3, 126836, Control_c, 1, 11, 123
3, 126845, Control_c, 1, 11, 115
3, 126862, Control_c, 1, 11, 112
3, 126888, Control_c, 1, 11, 109
3, 126897, Control_c, 1, 11, 108
3, 126915, Control_c, 1, 11, 106
3, 126923, Control_c, 1, 11, 105
3, 126941, Control_c, 1, 11, 102
3, 126949, Control_c, 1, 11, 100
3, 126976, Control_c, 1, 11, 99
3, 126993, Control_c, 1, 11, 97
3, 127019, Control_c, 1, 11, 96
3, 127045, Control_c, 1, 11, 94
3, 127054, Control_c, 1, 11, 93
3, 127416, Note_on_c, 1, 69, 0
3, 127491, Note_on_c, 1, 68, 103
3, 127491, Control_c, 1, 11, 127
3, 127599, Note_on_c, 1, 68, 0
3, 127683, Note_on_c, 1, 68, 103
3, 127771, Note_on_c, 1, 68, 0
3, 127831, Note_on_c, 1, 68, 103
3, 127861, Note_on_c, 1, 68, 0
3, 127875, Note_on_c, 1, 68, 103
3, 127973, Note_on_c, 1, 68, 0
3, 128067, Note_on_c, 1, 68, 103
3, 128165, Note_on_c, 1, 68, 0
3, 128259, Note_on_c, 1, 67, 92
3, 128328, Control_c, 1, 11, 125
3, 128407, Control_c, 1, 11, 123
3, 128416, Control_c, 1, 11, 118
3, 128433, Control_c, 1, 11, 115
3, 128442, Control_c, 1, 11, 112
3, 128459, Control_c, 1, 11, 111
3, 128468, Control_c, 1, 11, 103
3, 128485, Control_c, 1, 11, 99
3, 128494, Control_c, 1, 11, 97
3, 128512, Control_c, 1, 11, 96
3, 128538, Control_c, 1, 11, 94
3, 128564, Control_c, 1, 11, 93
3, 128952, Note_on_c, 1, 67, 0
3, 129027, Control_c, 1, 11, 127
3, 129027, Note_on_c, 1, 67, 103
3, 129135, Note_on_c, 1, 67, 0
3, 129219, Note_on_c, 1, 67, 103
3, 129307, Note_on_c, 1, 67, 0
3, 129367, Note_on_c, 1, 67, 103
3, 129397, Note_on_c, 1, 67, 0
3, 129411, Note_on_c, 1, 67, 103
3, 129509, Note_on_c, 1, 67, 0
3, 129603, Note_on_c, 1, 67, 103
3, 129701, Note_on_c, 1, 67, 0
3, 129795, Note_on_c, 1, 69, 92
3, 129891, Control_c, 1, 11, 127
3, 129917, Control_c, 1, 11, 126
3, 129934, Control_c, 1, 11, 121
3, 129943, Control_c, 1, 11, 108
3, 129960, Control_c, 1, 11, 105
3, 129969, Control_c, 1, 11, 100
3, 129987, Control_c, 1, 11, 99
3, 130013, Control_c, 1, 11, 97
3, 130021, Control_c, 1, 11, 96
3, 130074, Control_c, 1, 11, 94
3, 130488, Note_on_c, 1, 69, 0
3, 130563, Note_on_c, 1, 69, 103
3, 130563, Control_c, 1, 11, 127
3, 130671, Note_on_c, 1, 69, 0
3, 130755, Note_on_c, 1, 69, 103
3, 130843, Note_on_c, 1, 69, 0
3, 130903, Note_on_c, 1, 69, 103
3, 130933, Note_on_c, 1, 69, 0
3, 130947, Note_on_c, 1, 69, 103
3, 131045, Note_on_c, 1, 69, 0
3, 131139, Note_on_c, 1, 69, 103
3, 131237, Note_on_c, 1, 69, 0
3, 131331, Note_on_c, 1, 71, 103
3, 131443, Note_on_c, 1, 71, 0
3, 131523, Note_on_c, 1, 69, 103
3, 131643, Note_on_c, 1, 69, 0
3, 131715, Note_on_c, 1, 67, 103
3, 131835, Note_on_c, 1, 67, 0
3, 131907, Note_on_c, 1, 69, 103
3, 132027, Note_on_c, 1, 69, 0
3, 132099, Note_on_c, 1, 67, 103
3, 132219, Note_on_c, 1, 67, 0
3, 132291, Note_on_c, 1, 69, 103
3, 132411, Note_on_c, 1, 69, 0
3, 132483, Note_on_c, 1, 67, 103
3, 132603, Note_on_c, 1, 67, 0
3, 132675, Note_on_c, 1, 69, 103
3, 132795, Note_on_c, 1, 69, 0
3, 132867, Note_on_c, 1, 67, 103
3, 133001, Note_on_c, 1, 67, 0
3, 143040, Note_on_c, 1, 72, 60
3, 143076, Control_c, 1, 11, 93
3, 143111, Control_c, 1, 11, 94
3, 143138, Control_c, 1, 11, 96
3, 143164, Control_c, 1, 11, 99
3, 143181, Control_c, 1, 11, 100
3, 143190, Control_c, 1, 11, 102
3, 143216, Control_c, 1, 11, 103
3, 143232, Note_on_c, 1, 72, 0
3, 143232, Note_on_c, 1, 71, 60
3, 143234, Control_c, 1, 11, 105
3, 143268, Control_c, 1, 11, 108
3, 143286, Control_c, 1, 11, 109
3, 143295, Control_c, 1, 11, 111
3, 143321, Control_c, 1, 11, 112
3, 143364, Control_c, 1, 11, 114
3, 143424, Note_on_c, 1, 71, 0
3, 143424, Note_on_c, 1, 70, 60
3, 143469, Control_c, 1, 11, 115
3, 143604, Note_on_c, 1, 70, 0
3, 143609, Control_c, 1, 11, 114
3, 143616, Note_on_c, 1, 69, 60
3, 143635, Control_c, 1, 11, 113
3, 143661, Control_c, 1, 11, 111
3, 143679, Control_c, 1, 11, 110
3, 143731, Control_c, 1, 11, 108
3, 143808, Note_on_c, 1, 69, 0
3, 143808, Note_on_c, 1, 68, 60
3, 143844, Control_c, 1, 11, 107
3, 143888, Control_c, 1, 11, 105
3, 143993, Control_c, 1, 11, 104
3, 144000, Note_on_c, 1, 68, 0
3, 144000, Note_on_c, 1, 67, 60
3, 144019, Control_c, 1, 11, 102
3, 144098, Control_c, 1, 11, 101
3, 144192, Note_on_c, 1, 67, 0
3, 144192, Note_on_c, 1, 65, 60
3, 144333, Control_c, 1, 11, 99
3, 144370, Note_on_c, 1, 65, 0
3, 144384, Note_on_c, 1, 64, 60
3, 144438, Control_c, 1, 11, 98
3, 144525, Control_c, 1, 11, 96
3, 144562, Note_on_c, 1, 64, 0
3, 144569, Control_c, 1, 11, 95
3, 144768, Note_on_c, 1, 73, 63
3, 144770, Control_c, 1, 11, 99
3, 144778, Control_c, 1, 11, 99
3, 144804, Control_c, 1, 11, 100
3, 144813, Control_c, 1, 11, 102
3, 144839, Control_c, 1, 11, 105
3, 144866, Control_c, 1, 11, 106
3, 144883, Control_c, 1, 11, 111
3, 144892, Control_c, 1, 11, 112
3, 144909, Control_c, 1, 11, 114
3, 144918, Control_c, 1, 11, 115
3, 144935, Control_c, 1, 11, 117
3, 144944, Control_c, 1, 11, 118
3, 144962, Control_c, 1, 11, 120
3, 144970, Control_c, 1, 11, 123
3, 144988, Control_c, 1, 11, 124
3, 145049, Control_c, 1, 11, 126
3, 145075, Control_c, 1, 11, 127
3, 145145, Control_c, 1, 11, 125
3, 145152, Note_on_c, 1, 73, 0
3, 145152, Note_on_c, 1, 74, 55
3, 145171, Control_c, 1, 11, 123
3, 145330, Note_on_c, 1, 74, 0
3, 145529, Control_c, 1, 11, 95
3, 145536, Note_on_c, 1, 71, 64
3, 145564, Control_c, 1, 11, 96
3, 145599, Control_c, 1, 11, 97
3, 145616, Control_c, 1, 11, 99
3, 145642, Control_c, 1, 11, 103
3, 145677, Control_c, 1, 11, 105
3, 145695, Control_c, 1, 11, 106
3, 145721, Control_c, 1, 11, 109
3, 145730, Control_c, 1, 11, 111
3, 145747, Control_c, 1, 11, 114
3, 145756, Control_c, 1, 11, 115
3, 145773, Control_c, 1, 11, 117
3, 145782, Control_c, 1, 11, 118
3, 145799, Control_c, 1, 11, 120
3, 145808, Control_c, 1, 11, 123
3, 145826, Control_c, 1, 11, 124
3, 145834, Control_c, 1, 11, 126
3, 145852, Control_c, 1, 11, 127
3, 145920, Note_on_c, 1, 71, 0
3, 145920, Note_on_c, 1, 72, 55
3, 146098, Note_on_c, 1, 72, 0
3, 160512, Note_on_c, 1, 73, 87
3, 160555, Control_c, 1, 11, 126
3, 160564, Control_c, 1, 11, 125
3, 160581, Control_c, 1, 11, 123
3, 160590, Control_c, 1, 11, 122
3, 160608, Control_c, 1, 11, 120
3, 160616, Control_c, 1, 11, 119
3, 160660, Control_c, 1, 11, 117
3, 160686, Control_c, 1, 11, 111
3, 161223, Note_on_c, 1, 73, 0
3, 161280, Control_c, 1, 11, 115
3, 161280, Note_on_c, 1, 74, 82
3, 161393, Control_c, 1, 11, 117
3, 161402, Control_c, 1, 11, 118
3, 161428, Control_c, 1, 11, 120
3, 161472, Note_on_c, 1, 74, 0
3, 161472, Control_c, 1, 11, 121
3, 161472, Note_on_c, 1, 79, 82
3, 161498, Control_c, 1, 11, 124
3, 161559, Control_c, 1, 11, 126
3, 161602, Control_c, 1, 11, 127
3, 161664, Note_on_c, 1, 79, 0
3, 161664, Note_on_c, 1, 77, 82
3, 161760, Control_c, 1, 11, 126
3, 161794, Control_c, 1, 11, 125
3, 161812, Control_c, 1, 11, 123
3, 161856, Note_on_c, 1, 77, 0
3, 161856, Note_on_c, 1, 76, 82
3, 161864, Control_c, 1, 11, 122
3, 161873, Control_c, 1, 11, 120
3, 161995, Control_c, 1, 11, 119
3, 162016, Note_on_c, 1, 76, 0
3, 162048, Control_c, 1, 11, 119
3, 162048, Note_on_c, 1, 74, 82
3, 162065, Control_c, 1, 11, 120
3, 162074, Control_c, 1, 11, 121
3, 162135, Control_c, 1, 11, 119
3, 162152, Control_c, 1, 11, 117
3, 162161, Control_c, 1, 11, 116
3, 162178, Control_c, 1, 11, 113
3, 162205, Control_c, 1, 11, 115
3, 162213, Control_c, 1, 11, 118
3, 162231, Control_c, 1, 11, 120
3, 162240, Control_c, 1, 11, 123
3, 162257, Control_c, 1, 11, 126
3, 162370, Control_c, 1, 11, 125
3, 162388, Control_c, 1, 11, 123
3, 162432, Note_on_c, 1, 74, 0
3, 162432, Note_on_c, 1, 76, 82
3, 162624, Note_on_c, 1, 76, 0
3, 162624, Note_on_c, 1, 74, 82
3, 162676, Control_c, 1, 11, 126
3, 162702, Control_c, 1, 11, 125
3, 162728, Control_c, 1, 11, 123
3, 162737, Control_c, 1, 11, 122
3, 162763, Control_c, 1, 11, 117
3, 162784, Note_on_c, 1, 74, 0
3, 162789, Control_c, 1, 11, 116
3, 162816, Note_on_c, 1, 72, 82
3, 162859, Control_c, 1, 11, 117
3, 162920, Control_c, 1, 11, 118
3, 162981, Control_c, 1, 11, 119
3, 163008, Note_on_c, 1, 72, 0
3, 163008, Note_on_c, 1, 71, 82
3, 163051, Control_c, 1, 11, 120
3, 163112, Control_c, 1, 11, 121
3, 163173, Control_c, 1, 11, 122
3, 163200, Note_on_c, 1, 71, 0
3, 163200, Note_on_c, 1, 72, 82
3, 163234, Control_c, 1, 11, 123
3, 163304, Control_c, 1, 11, 124
3, 163365, Control_c, 1, 11, 125
3, 163392, Note_on_c, 1, 72, 0
3, 163392, Note_on_c, 1, 71, 82
3, 163426, Control_c, 1, 11, 126
3, 163488, Control_c, 1, 11, 127
3, 163548, Note_on_c, 1, 71, 0
3, 163584, Note_on_c, 1, 69, 82
3, 163636, Control_c, 1, 11, 126
3, 163645, Control_c, 1, 11, 127
3, 163653, Control_c, 1, 11, 126
3, 163680, Control_c, 1, 11, 125
3, 163697, Control_c, 1, 11, 122
3, 163706, Control_c, 1, 11, 117
3, 163723, Control_c, 1, 11, 114
3, 163732, Control_c, 1, 11, 113
3, 163749, Control_c, 1, 11, 110
3, 163758, Control_c, 1, 11, 107
3, 163776, Control_c, 1, 11, 105
3, 163894, Note_on_c, 1, 69, 0
3, 163968, Note_on_c, 1, 74, 82
3, 163976, Control_c, 1, 11, 127
3, 164064, Control_c, 1, 11, 127
3, 164090, Control_c, 1, 11, 123
3, 164116, Control_c, 1, 11, 120
3, 164125, Control_c, 1, 11, 119
3, 164151, Control_c, 1, 11, 116
3, 164168, Control_c, 1, 11, 114
3, 164177, Control_c, 1, 11, 110
3, 164194, Control_c, 1, 11, 108
3, 164203, Control_c, 1, 11, 107
3, 164221, Control_c, 1, 11, 105
3, 164229, Control_c, 1, 11, 104
3, 164256, Control_c, 1, 11, 102
3, 164278, Note_on_c, 1, 74, 0
3, 164352, Control_c, 1, 11, 127
3, 164352, Note_on_c, 1, 72, 103
3, 164376, Note_on_c, 1, 72, 0
3, 164376, Note_on_c, 1, 74, 103
3, 164400, Note_on_c, 1, 74, 0
3, 164400, Note_on_c, 1, 76, 103
3, 164476, Note_on_c, 1, 76, 0
3, 164544, Note_on_c, 1, 76, 103
3, 164590, Note_on_c, 1, 76, 0
3, 164640, Note_on_c, 1, 76, 103
3, 164686, Note_on_c, 1, 76, 0
3, 164736, Note_on_c, 1, 72, 103
3, 164760, Note_on_c, 1, 72, 0
3, 164760, Note_on_c, 1, 74, 103
3, 164784, Note_on_c, 1, 74, 0
3, 164784, Note_on_c, 1, 76, 103
3, 164860, Note_on_c, 1, 76, 0
3, 164928, Note_on_c, 1, 76, 103
3, 164974, Note_on_c, 1, 76, 0
3, 165024, Note_on_c, 1, 76, 103
3, 165070, Note_on_c, 1, 76, 0
3, 165120, Note_on_c, 1, 79, 103
3, 165216, Note_on_c, 1, 79, 0
3, 165216, Note_on_c, 1, 76, 103
3, 165270, Note_on_c, 1, 76, 0
3, 165312, Note_on_c, 1, 76, 103
3, 165358, Note_on_c, 1, 76, 0
3, 165408, Note_on_c, 1, 76, 103
3, 165454, Note_on_c, 1, 76, 0
3, 165504, Note_on_c, 1, 76, 103
3, 165600, Note_on_c, 1, 76, 0
3, 165600, Note_on_c, 1, 74, 103
3, 165654, Note_on_c, 1, 74, 0
3, 165696, Note_on_c, 1, 72, 103
3, 165742, Note_on_c, 1, 72, 0
3, 165792, Note_on_c, 1, 71, 103
3, 165838, Note_on_c, 1, 71, 0
3, 166656, Note_on_c, 1, 73, 86
3, 166760, Control_c, 1, 11, 126
3, 166778, Control_c, 1, 11, 125
3, 166786, Control_c, 1, 11, 120
3, 166804, Control_c, 1, 11, 116
3, 166813, Control_c, 1, 11, 114
3, 166830, Control_c, 1, 11, 113
3, 166839, Control_c, 1, 11, 110
3, 166856, Control_c, 1, 11, 108
3, 166865, Control_c, 1, 11, 107
3, 166882, Control_c, 1, 11, 105
3, 166891, Control_c, 1, 11, 104
3, 166909, Control_c, 1, 11, 102
3, 166970, Control_c, 1, 11, 101
3, 167214, Control_c, 1, 11, 102
3, 167249, Control_c, 1, 11, 105
3, 167258, Control_c, 1, 11, 106
3, 167284, Control_c, 1, 11, 108
3, 167336, Control_c, 1, 11, 109
3, 167354, Control_c, 1, 11, 112
3, 167382, Note_on_c, 1, 73, 0
3, 167406, Control_c, 1, 11, 114
3, 167415, Control_c, 1, 11, 115
3, 167424, Note_on_c, 1, 74, 82
3, 167432, Control_c, 1, 11, 117
3, 167458, Control_c, 1, 11, 118
3, 167485, Control_c, 1, 11, 120
3, 167493, Control_c, 1, 11, 121
3, 167511, Control_c, 1, 11, 123
3, 167520, Control_c, 1, 11, 124
3, 167537, Control_c, 1, 11, 126
3, 167546, Control_c, 1, 11, 127
3, 167616, Note_on_c, 1, 74, 0
3, 167616, Note_on_c, 1, 79, 82
3, 167808, Note_on_c, 1, 79, 0
3, 167808, Note_on_c, 1, 77, 82
3, 168000, Note_on_c, 1, 77, 0
3, 168000, Note_on_c, 1, 76, 82
3, 168168, Note_on_c, 1, 76, 0
3, 168192, Note_on_c, 1, 74, 82
3, 168576, Note_on_c, 1, 74, 0
3, 168576, Note_on_c, 1, 76, 82
3, 168768, Note_on_c, 1, 76, 0
3, 168768, Note_on_c, 1, 74, 82
3, 168936, Note_on_c, 1, 74, 0
3, 168960, Note_on_c, 1, 72, 82
3, 169152, Note_on_c, 1, 72, 0
3, 169152, Note_on_c, 1, 71, 82
3, 169344, Note_on_c, 1, 71, 0
3, 169344, Note_on_c, 1, 72, 82
3, 169536, Note_on_c, 1, 72, 0
3, 169536, Note_on_c, 1, 71, 82
3, 169692, Note_on_c, 1, 71, 0
3, 169728, Note_on_c, 1, 69, 86
3, 169728, Control_c, 1, 11, 127
3, 169771, Control_c, 1, 11, 126
3, 169780, Control_c, 1, 11, 125
3, 169824, Control_c, 1, 11, 123
3, 169832, Control_c, 1, 11, 122
3, 169850, Control_c, 1, 11, 120
3, 169876, Control_c, 1, 11, 119
3, 169885, Control_c, 1, 11, 117
3, 169902, Control_c, 1, 11, 116
3, 169911, Control_c, 1, 11, 114
3, 169937, Control_c, 1, 11, 113
3, 169954, Control_c, 1, 11, 111
3, 169981, Control_c, 1, 11, 110
3, 170016, Control_c, 1, 11, 108
3, 170085, Control_c, 1, 11, 107
3, 170112, Control_c, 1, 11, 105
3, 170434, Note_on_c, 1, 69, 0
3, 170496, Note_on_c, 1, 67, 86
3, 170504, Control_c, 1, 11, 126
3, 170539, Control_c, 1, 11, 125
3, 170592, Control_c, 1, 11, 123
3, 170609, Control_c, 1, 11, 122
3, 170618, Control_c, 1, 11, 120
3, 170635, Control_c, 1, 11, 119
3, 170644, Control_c, 1, 11, 117
3, 170661, Control_c, 1, 11, 116
3, 170688, Control_c, 1, 11, 114
3, 170696, Control_c, 1, 11, 113
3, 170722, Control_c, 1, 11, 110
3, 170740, Control_c, 1, 11, 108
3, 170749, Control_c, 1, 11, 107
3, 170775, Control_c, 1, 11, 105
3, 170827, Control_c, 1, 11, 104
3, 171202, Note_on_c, 1, 67, 0
3, 171264, Control_c, 1, 11, 127
3, 171264, Note_on_c, 1, 68, 86
3, 171342, Control_c, 1, 11, 126
3, 171351, Control_c, 1, 11, 125
3, 171368, Control_c, 1, 11, 122
3, 171377, Control_c, 1, 11, 120
3, 171394, Control_c, 1, 11, 119
3, 171403, Control_c, 1, 11, 117
3, 171421, Control_c, 1, 11, 114
3, 171456, Control_c, 1, 11, 113
3, 171473, Control_c, 1, 11, 111
3, 171499, Control_c, 1, 11, 108
3, 171525, Control_c, 1, 11, 107
3, 171970, Note_on_c, 1, 68, 0
3, 172032, Note_on_c, 1, 69, 86
3, 172032, Control_c, 1, 11, 126
3, 172049, Control_c, 1, 11, 123
3, 172084, Control_c, 1, 11, 120
3, 172101, Control_c, 1, 11, 119
3, 172110, Control_c, 1, 11, 113
3, 172128, Control_c, 1, 11, 111
3, 172154, Control_c, 1, 11, 108
3, 172180, Control_c, 1, 11, 107
3, 172232, Control_c, 1, 11, 105
3, 172728, Note_on_c, 1, 69, 0
3, 172800, Control_c, 1, 11, 126
3, 172800, Note_on_c, 1, 67, 82
3, 172934, Note_on_c, 1, 67, 0
3, 172992, Note_on_c, 1, 65, 103
3, 173132, Note_on_c, 1, 65, 0
3, 173184, Note_on_c, 1, 67, 103
3, 173324, Note_on_c, 1, 67, 0
3, 173376, Note_on_c, 1, 69, 103
3, 173516, Note_on_c, 1, 69, 0
3, 173568, Note_on_c, 1, 67, 103
3, 173708, Note_on_c, 1, 67, 0
3, 173760, Note_on_c, 1, 65, 103
3, 173900, Note_on_c, 1, 65, 0
3, 173952, Note_on_c, 1, 67, 103
3, 174092, Note_on_c, 1, 67, 0
3, 174144, Note_on_c, 1, 69, 103
3, 174284, Note_on_c, 1, 69, 0
3, 174336, Note_on_c, 1, 67, 103
3, 174476, Note_on_c, 1, 67, 0
3, 174528, Note_on_c, 1, 65, 103
3, 174668, Note_on_c, 1, 65, 0
3, 174720, Note_on_c, 1, 67, 103
3, 174860, Note_on_c, 1, 67, 0
3, 174912, Note_on_c, 1, 69, 103
3, 175052, Note_on_c, 1, 69, 0
3, 175104, Note_on_c, 1, 67, 103
3, 175244, Note_on_c, 1, 67, 0
3, 176256, Note_on_c, 1, 60, 64
3, 176448, Note_on_c, 1, 60, 0
3, 176448, Note_on_c, 1, 64, 64
3, 176622, Note_on_c, 1, 64, 0
3, 176640, Note_on_c, 1, 67, 64
3, 176844, Note_on_c, 1, 67, 0
3, 178933, Control_c, 1, 11, 119
3, 178944, Note_on_c, 1, 76, 88
3, 178950, Control_c, 1, 11, 120
3, 178959, Control_c, 1, 11, 121
3, 178976, Control_c, 1, 11, 122
3, 178985, Control_c, 1, 11, 123
3, 178994, Control_c, 1, 11, 124
3, 179011, Control_c, 1, 11, 125
3, 179020, Control_c, 1, 11, 126
3, 179029, Control_c, 1, 11, 127
3, 179055, Control_c, 1, 11, 125
3, 179064, Control_c, 1, 11, 124
3, 179072, Control_c, 1, 11, 122
3, 179081, Control_c, 1, 11, 121
3, 179090, Control_c, 1, 11, 119
3, 179099, Control_c, 1, 11, 118
3, 179107, Control_c, 1, 11, 116
3, 179116, Control_c, 1, 11, 115
3, 179125, Control_c, 1, 11, 113
3, 179133, Control_c, 1, 11, 112
3, 179142, Control_c, 1, 11, 110
3, 179262, Note_on_c, 1, 76, 0
3, 179282, Control_c, 1, 11, 127
3, 179328, Note_on_c, 1, 76, 88
3, 179458, Note_on_c, 1, 76, 0
3, 179520, Note_on_c, 1, 76, 88
3, 179610, Note_on_c, 1, 76, 0
3, 179664, Note_on_c, 1, 76, 88
3, 179692, Note_on_c, 1, 76, 0
3, 179709, Control_c, 1, 11, 120
3, 179712, Note_on_c, 1, 77, 88
3, 179718, Control_c, 1, 11, 121
3, 179727, Control_c, 1, 11, 123
3, 179736, Control_c, 1, 11, 125
3, 179744, Control_c, 1, 11, 127
3, 179762, Control_c, 1, 11, 127
3, 179771, Control_c, 1, 11, 126
3, 179779, Control_c, 1, 11, 125
3, 179788, Control_c, 1, 11, 124
3, 179797, Control_c, 1, 11, 122
3, 179805, Control_c, 1, 11, 121
3, 179814, Control_c, 1, 11, 120
3, 179823, Control_c, 1, 11, 119
3, 179832, Control_c, 1, 11, 117
3, 179840, Control_c, 1, 11, 116
3, 179849, Control_c, 1, 11, 115
3, 179858, Control_c, 1, 11, 114
3, 179867, Control_c, 1, 11, 112
3, 179875, Control_c, 1, 11, 111
3, 179884, Control_c, 1, 11, 110
3, 179893, Control_c, 1, 11, 108
3, 179910, Control_c, 1, 11, 107
3, 179919, Control_c, 1, 11, 106
3, 179928, Control_c, 1, 11, 105
3, 179936, Control_c, 1, 11, 104
3, 179954, Control_c, 1, 11, 103
3, 179963, Control_c, 1, 11, 102
3, 179971, Control_c, 1, 11, 101
3, 179980, Control_c, 1, 11, 100
3, 180030, Note_on_c, 1, 77, 0
3, 180093, Control_c, 1, 11, 127
3, 180096, Note_on_c, 1, 74, 88
3, 180226, Note_on_c, 1, 74, 0
3, 180288, Note_on_c, 1, 74, 88
3, 180378, Note_on_c, 1, 74, 0
3, 180432, Note_on_c, 1, 74, 88
3, 180460, Note_on_c, 1, 74, 0
3, 180469, Control_c, 1, 11, 123
3, 180480, Note_on_c, 1, 76, 88
3, 180495, Control_c, 1, 11, 124
3, 180512, Control_c, 1, 11, 125
3, 180539, Control_c, 1, 11, 126
3, 180556, Control_c, 1, 11, 127
3, 180573, Control_c, 1, 11, 126
3, 180582, Control_c, 1, 11, 125
3, 180591, Control_c, 1, 11, 124
3, 180600, Control_c, 1, 11, 123
3, 180608, Control_c, 1, 11, 122
3, 180617, Control_c, 1, 11, 121
3, 180626, Control_c, 1, 11, 120
3, 180635, Control_c, 1, 11, 119
3, 180643, Control_c, 1, 11, 118
3, 180652, Control_c, 1, 11, 117
3, 180661, Control_c, 1, 11, 116
3, 180669, Control_c, 1, 11, 115
3, 180678, Control_c, 1, 11, 114
3, 180687, Control_c, 1, 11, 113
3, 180696, Control_c, 1, 11, 112
3, 180704, Control_c, 1, 11, 111
3, 180731, Control_c, 1, 11, 110
3, 180757, Control_c, 1, 11, 109
3, 180783, Control_c, 1, 11, 108
3, 180798, Note_on_c, 1, 76, 0
3, 180835, Control_c, 1, 11, 126
3, 180864, Note_on_c, 1, 76, 88
3, 180994, Note_on_c, 1, 76, 0
3, 181056, Note_on_c, 1, 76, 88
3, 181146, Note_on_c, 1, 76, 0
3, 181200, Note_on_c, 1, 76, 88
3, 181228, Note_on_c, 1, 76, 0
3, 181237, Control_c, 1, 11, 122
3, 181248, Note_on_c, 1, 77, 88
3, 181254, Control_c, 1, 11, 123
3, 181272, Control_c, 1, 11, 124
3, 181289, Control_c, 1, 11, 125
3, 181307, Control_c, 1, 11, 126
3, 181315, Control_c, 1, 11, 127
3, 181324, Control_c, 1, 11, 126
3, 181333, Control_c, 1, 11, 125
3, 181341, Control_c, 1, 11, 124
3, 181350, Control_c, 1, 11, 123
3, 181359, Control_c, 1, 11, 122
3, 181368, Control_c, 1, 11, 121
3, 181376, Control_c, 1, 11, 120
3, 181385, Control_c, 1, 11, 119
3, 181394, Control_c, 1, 11, 118
3, 181403, Control_c, 1, 11, 117
3, 181411, Control_c, 1, 11, 116
3, 181420, Control_c, 1, 11, 115
3, 181429, Control_c, 1, 11, 114
3, 181437, Control_c, 1, 11, 113
3, 181446, Control_c, 1, 11, 112
3, 181455, Control_c, 1, 11, 111
3, 181464, Control_c, 1, 11, 110
3, 181499, Control_c, 1, 11, 109
3, 181533, Control_c, 1, 11, 108
3, 181566, Note_on_c, 1, 77, 0
3, 181568, Control_c, 1, 11, 107
3, 181612, Control_c, 1, 11, 127
3, 181632, Note_on_c, 1, 74, 88
3, 181762, Note_on_c, 1, 74, 0
3, 181824, Note_on_c, 1, 74, 88
3, 181914, Note_on_c, 1, 74, 0
3, 181968, Note_on_c, 1, 74, 88
3, 181996, Note_on_c, 1, 74, 0
3, 182013, Control_c, 1, 11, 123
3, 182016, Control_c, 1, 11, 123
3, 182028, Note_on_c, 1, 76, 103
3, 182029, Control_c, 1, 11, 125
3, 182036, Control_c, 1, 11, 126
3, 182050, Control_c, 1, 11, 127
3, 182084, Control_c, 1, 11, 127
3, 182112, Control_c, 1, 11, 126
3, 182139, Control_c, 1, 11, 125
3, 182160, Control_c, 1, 11, 124
3, 182187, Control_c, 1, 11, 123
3, 182208, Control_c, 1, 11, 122
3, 182235, Control_c, 1, 11, 121
3, 182256, Control_c, 1, 11, 120
3, 182262, Control_c, 1, 11, 119
3, 182269, Control_c, 1, 11, 118
3, 182276, Control_c, 1, 11, 117
3, 182283, Control_c, 1, 11, 116
3, 182290, Control_c, 1, 11, 115
3, 182297, Control_c, 1, 11, 114
3, 182304, Control_c, 1, 11, 113
3, 182310, Control_c, 1, 11, 112
3, 182317, Control_c, 1, 11, 111
3, 182324, Control_c, 1, 11, 109
3, 182331, Control_c, 1, 11, 108
3, 182338, Control_c, 1, 11, 107
3, 182345, Control_c, 1, 11, 105
3, 182352, Control_c, 1, 11, 104
3, 182358, Control_c, 1, 11, 103
3, 182365, Control_c, 1, 11, 101
3, 182372, Control_c, 1, 11, 100
3, 182379, Control_c, 1, 11, 98
3, 182436, Note_on_c, 1, 76, 0
3, 182681, Control_c, 1, 11, 127
3, 186624, Note_on_c, 1, 77, 103
3, 186724, Note_on_c, 1, 77, 0
3, 186816, Note_on_c, 1, 77, 103
3, 186904, Note_on_c, 1, 77, 0
3, 186962, Note_on_c, 1, 77, 103
3, 186989, Note_on_c, 1, 77, 0
3, 187008, Note_on_c, 1, 77, 103
3, 187106, Note_on_c, 1, 77, 0
3, 187200, Note_on_c, 1, 77, 103
3, 187298, Note_on_c, 1, 77, 0
3, 187397, Note_on_c, 1, 81, 103
3, 187533, Control_c, 1, 11, 127
3, 187581, Control_c, 1, 11, 125
3, 187602, Control_c, 1, 11, 124
3, 187615, Control_c, 1, 11, 122
3, 187622, Control_c, 1, 11, 121
3, 187636, Control_c, 1, 11, 119
3, 187643, Control_c, 1, 11, 118
3, 187657, Control_c, 1, 11, 115
3, 187663, Control_c, 1, 11, 113
3, 187876, Control_c, 1, 11, 110
3, 187903, Control_c, 1, 11, 109
3, 187910, Control_c, 1, 11, 107
3, 187931, Control_c, 1, 11, 106
3, 187945, Control_c, 1, 11, 104
3, 187951, Note_on_c, 1, 81, 0
3, 187965, Control_c, 1, 11, 101
3, 188541, Control_c, 1, 11, 127
3, 189696, Note_on_c, 1, 72, 103
3, 190812, Note_on_c, 1, 72, 0
3, 190848, Note_on_c, 1, 71, 103
3, 191182, Note_on_c, 1, 71, 0
3, 192960, Note_on_c, 1, 76, 103
3, 193050, Note_on_c, 1, 76, 0
3, 193104, Note_on_c, 1, 76, 103
3, 193128, Note_on_c, 1, 76, 0
3, 193152, Note_on_c, 1, 76, 103
3, 193302, Note_on_c, 1, 76, 0
3, 193344, Note_on_c, 1, 76, 103
3, 193368, Note_on_c, 1, 76, 0
3, 193368, Note_on_c, 1, 74, 103
3, 193392, Note_on_c, 1, 74, 0
3, 193392, Note_on_c, 1, 76, 103
3, 193416, Note_on_c, 1, 76, 0
3, 193416, Note_on_c, 1, 74, 103
3, 193440, Note_on_c, 1, 74, 0
3, 193440, Note_on_c, 1, 72, 103
3, 193488, Note_on_c, 1, 72, 0
3, 193488, Note_on_c, 1, 74, 103
3, 193522, Note_on_c, 1, 74, 0
3, 193536, Note_on_c, 1, 72, 103
3, 193676, Note_on_c, 1, 72, 0
3, 193728, Note_on_c, 1, 72, 103
3, 193818, Note_on_c, 1, 72, 0
3, 193872, Note_on_c, 1, 72, 103
3, 193896, Note_on_c, 1, 72, 0
3, 193920, Note_on_c, 1, 72, 103
3, 194070, Note_on_c, 1, 72, 0
3, 194112, Note_on_c, 1, 72, 103
3, 194136, Note_on_c, 1, 72, 0
3, 194136, Note_on_c, 1, 71, 103
3, 194160, Note_on_c, 1, 71, 0
3, 194160, Note_on_c, 1, 72, 103
3, 194184, Note_on_c, 1, 72, 0
3, 194184, Note_on_c, 1, 71, 103
3, 194208, Note_on_c, 1, 71, 0
3, 194208, Note_on_c, 1, 69, 103
3, 194256, Note_on_c, 1, 69, 0
3, 194256, Note_on_c, 1, 71, 103
3, 194290, Note_on_c, 1, 71, 0
3, 195068, Control_c, 1, 11, 127
3, 195072, Note_on_c, 1, 67, 103
3, 195117, Control_c, 1, 11, 127
3, 195152, Control_c, 1, 11, 126
3, 195170, Control_c, 1, 11, 122
3, 195222, Control_c, 1, 11, 120
3, 195231, Control_c, 1, 11, 119
3, 195248, Control_c, 1, 11, 117
3, 195257, Control_c, 1, 11, 113
3, 195275, Control_c, 1, 11, 110
3, 195283, Control_c, 1, 11, 108
3, 195301, Control_c, 1, 11, 105
3, 195309, Control_c, 1, 11, 104
3, 195327, Control_c, 1, 11, 101
3, 195353, Control_c, 1, 11, 99
3, 195362, Control_c, 1, 11, 98
3, 195786, Note_on_c, 1, 67, 0
3, 195840, Note_on_c, 1, 72, 103
3, 195840, Control_c, 1, 11, 127
3, 195912, Control_c, 1, 11, 126
3, 195938, Control_c, 1, 11, 125
3, 195955, Control_c, 1, 11, 119
3, 195964, Control_c, 1, 11, 116
3, 195981, Control_c, 1, 11, 113
3, 195990, Control_c, 1, 11, 110
3, 196008, Control_c, 1, 11, 107
3, 196016, Control_c, 1, 11, 105
3, 196034, Control_c, 1, 11, 104
3, 196060, Control_c, 1, 11, 102
3, 196069, Control_c, 1, 11, 101
3, 196554, Note_on_c, 1, 72, 0
3, 196608, Control_c, 1, 11, 127
3, 196608, Note_on_c, 1, 76, 103
3, 196680, Control_c, 1, 11, 126
3, 196706, Control_c, 1, 11, 125
3, 196723, Control_c, 1, 11, 119
3, 196732, Control_c, 1, 11, 116
3, 196749, Control_c, 1, 11, 113
3, 196758, Control_c, 1, 11, 110
3, 196776, Control_c, 1, 11, 107
3, 196784, Control_c, 1, 11, 105
3, 196802, Control_c, 1, 11, 104
3, 196828, Control_c, 1, 11, 102
3, 196837, Control_c, 1, 11, 101
3, 197316, Note_on_c, 1, 76, 0
3, 197376, Note_on_c, 1, 79, 103
3, 197376, Control_c, 1, 11, 127
3, 197448, Control_c, 1, 11, 126
3, 197474, Control_c, 1, 11, 125
3, 197491, Control_c, 1, 11, 119
3, 197500, Control_c, 1, 11, 116
3, 197517, Control_c, 1, 11, 113
3, 197526, Control_c, 1, 11, 110
3, 197544, Control_c, 1, 11, 107
3, 197552, Control_c, 1, 11, 105
3, 197570, Control_c, 1, 11, 104
3, 197596, Control_c, 1, 11, 102
3, 197605, Control_c, 1, 11, 101
3, 198094, Note_on_c, 1, 79, 0
3, 198144, Control_c, 1, 11, 127
3, 198144, Note_on_c, 1, 76, 103
3, 198216, Control_c, 1, 11, 126
3, 198242, Control_c, 1, 11, 125
3, 198259, Control_c, 1, 11, 119
3, 198268, Control_c, 1, 11, 116
3, 198285, Control_c, 1, 11, 113
3, 198294, Control_c, 1, 11, 110
3, 198312, Control_c, 1, 11, 107
3, 198320, Control_c, 1, 11, 105
3, 198338, Control_c, 1, 11, 104
3, 198364, Control_c, 1, 11, 102
3, 198373, Control_c, 1, 11, 101
3, 198862, Note_on_c, 1, 76, 0
3, 198912, Control_c, 1, 11, 127
3, 198912, Note_on_c, 1, 72, 103
3, 198984, Control_c, 1, 11, 126
3, 199010, Control_c, 1, 11, 125
3, 199027, Control_c, 1, 11, 119
3, 199036, Control_c, 1, 11, 116
3, 199053, Control_c, 1, 11, 113
3, 199062, Control_c, 1, 11, 110
3, 199080, Control_c, 1, 11, 107
3, 199088, Control_c, 1, 11, 105
3, 199106, Control_c, 1, 11, 104
3, 199132, Control_c, 1, 11, 102
3, 199141, Control_c, 1, 11, 101
3, 199630, Note_on_c, 1, 72, 0
3, 199680, Control_c, 1, 11, 127
3, 199680, Note_on_c, 1, 67, 103
3, 199752, Control_c, 1, 11, 126
3, 199778, Control_c, 1, 11, 125
3, 199795, Control_c, 1, 11, 119
3, 199804, Control_c, 1, 11, 116
3, 199821, Control_c, 1, 11, 113
3, 199830, Control_c, 1, 11, 110
3, 199848, Control_c, 1, 11, 107
3, 199856, Control_c, 1, 11, 105
3, 199874, Control_c, 1, 11, 104
3, 199900, Control_c, 1, 11, 102
3, 199909, Control_c, 1, 11, 101
3, 200388, Note_on_c, 1, 67, 0
3, 200448, Note_on_c, 1, 64, 103
3, 200448, Control_c, 1, 11, 127
3, 200520, Control_c, 1, 11, 126
3, 200546, Control_c, 1, 11, 125
3, 200563, Control_c, 1, 11, 119
3, 200572, Control_c, 1, 11, 116
3, 200589, Control_c, 1, 11, 113
3, 200598, Control_c, 1, 11, 110
3, 200616, Control_c, 1, 11, 107
3, 200624, Control_c, 1, 11, 105
3, 200642, Control_c, 1, 11, 104
3, 200668, Control_c, 1, 11, 102
3, 200677, Control_c, 1, 11, 101
3, 200952, Note_on_c, 1, 64, 0
3, 201020, Control_c, 1, 11, 127
3, 204864, Control_c, 1, 121, 0
3, 204864, End_track
4, 0, Start_track
4, 0, MIDI_port, 0
4, 0, Title_t, "Bassoon 1"
4, 0, Program_c, 2, 70
4, 0, Control_c, 2, 7, 101
4, 0, Control_c, 2, 10, 54
4, 0, Text_t, ""
4, 96, Control_c, 2, 121, 0
4, 192, Control_c, 2, 91, 54
4, 288, Control_c, 2, 93, 5
4, 761, Control_c, 2, 11, 125
4, 772, Note_on_c, 2, 60, 116
4, 774, Control_c, 2, 11, 126
4, 788, Control_c, 2, 11, 127
4, 864, Control_c, 2, 11, 127
4, 912, Control_c, 2, 11, 125
4, 925, Control_c, 2, 11, 124
4, 946, Control_c, 2, 11, 121
4, 953, Control_c, 2, 11, 118
4, 966, Control_c, 2, 11, 116
4, 973, Control_c, 2, 11, 113
4, 987, Control_c, 2, 11, 112
4, 994, Control_c, 2, 11, 110
4, 1008, Control_c, 2, 11, 109
4, 1035, Control_c, 2, 11, 107
4, 1056, Control_c, 2, 11, 106
4, 1076, Control_c, 2, 11, 104
4, 1180, Note_on_c, 2, 60, 0
4, 1440, Control_c, 2, 11, 127
4, 1488, Note_on_c, 2, 48, 116
4, 1518, Note_on_c, 2, 48, 0
4, 1536, Note_on_c, 2, 48, 116
4, 1542, Control_c, 2, 11, 119
4, 1590, Control_c, 2, 11, 120
4, 1604, Control_c, 2, 11, 122
4, 1611, Control_c, 2, 11, 123
4, 1625, Control_c, 2, 11, 125
4, 1632, Control_c, 2, 11, 126
4, 1645, Control_c, 2, 11, 127
4, 1652, Control_c, 2, 11, 123
4, 1669, Control_c, 2, 11, 121
4, 1678, Control_c, 2, 11, 118
4, 1691, Control_c, 2, 11, 114
4, 1695, Control_c, 2, 11, 111
4, 1704, Control_c, 2, 11, 109
4, 1709, Control_c, 2, 11, 108
4, 1726, Control_c, 2, 11, 106
4, 1735, Control_c, 2, 11, 107
4, 1783, Control_c, 2, 11, 106
4, 1822, Control_c, 2, 11, 105
4, 1835, Control_c, 2, 11, 103
4, 1839, Control_c, 2, 11, 102
4, 1997, Control_c, 2, 11, 100
4, 2031, Control_c, 2, 11, 99
4, 2049, Control_c, 2, 11, 97
4, 2052, Note_on_c, 2, 48, 0
4, 2084, Control_c, 2, 11, 96
4, 2101, Control_c, 2, 11, 94
4, 2256, Control_c, 2, 11, 127
4, 2256, Note_on_c, 2, 43, 116
4, 2272, Note_on_c, 2, 45, 116
4, 2288, Note_on_c, 2, 45, 0
4, 2288, Note_on_c, 2, 47, 116
4, 2304, Note_on_c, 2, 47, 0
4, 2304, Note_on_c, 2, 43, 0
4, 2304, Note_on_c, 2, 48, 116
4, 2392, Note_on_c, 2, 48, 0
4, 2496, Note_on_c, 2, 52, 116
4, 2584, Note_on_c, 2, 52, 0
4, 2688, Note_on_c, 2, 55, 116
4, 2776, Note_on_c, 2, 55, 0
4, 2880, Note_on_c, 2, 60, 116
4, 2967, Note_on_c, 2, 60, 0
4, 3048, Note_on_c, 2, 60, 116
4, 3072, Note_on_c, 2, 59, 116
4, 3080, Note_on_c, 2, 60, 0
4, 3092, Pitch_bend_c, 2, 12287
4, 3120, Note_on_c, 2, 59, 0
4, 3120, Pitch_bend_c, 2, 8192
4, 3120, Note_on_c, 2, 59, 116
4, 3178, Note_on_c, 2, 59, 0
4, 3219, Note_on_c, 2, 57, 116
4, 3251, Note_on_c, 2, 57, 0
4, 3264, Note_on_c, 2, 55, 116
4, 3412, Note_on_c, 2, 55, 0
4, 3648, Note_on_c, 2, 60, 53
4, 3747, Note_on_c, 2, 60, 0
4, 3812, Note_on_c, 2, 60, 53
4, 3840, Note_on_c, 2, 59, 53
4, 3844, Note_on_c, 2, 60, 0
4, 3864, Pitch_bend_c, 2, 12287
4, 3887, Pitch_bend_c, 2, 8192
4, 3888, Note_on_c, 2, 59, 0
4, 3888, Note_on_c, 2, 59, 53
4, 3948, Note_on_c, 2, 59, 0
4, 3986, Note_on_c, 2, 57, 53
4, 4019, Note_on_c, 2, 57, 0
4, 4032, Note_on_c, 2, 55, 53
4, 4100, Note_on_c, 2, 55, 0
4, 4128, Note_on_c, 2, 60, 53
4, 4174, Note_on_c, 2, 60, 0
4, 4192, Note_on_c, 2, 60, 53
4, 4224, Note_on_c, 2, 60, 0
4, 4224, Note_on_c, 2, 59, 53
4, 4248, Pitch_bend_c, 2, 12287
4, 4271, Pitch_bend_c, 2, 8192
4, 4272, Note_on_c, 2, 59, 0
4, 4272, Note_on_c, 2, 59, 53
4, 4324, Note_on_c, 2, 59, 0
4, 4370, Note_on_c, 2, 57, 53
4, 4403, Note_on_c, 2, 57, 0
4, 4416, Note_on_c, 2, 55, 53
4, 4484, Note_on_c, 2, 55, 0
4, 4512, Note_on_c, 2, 60, 53
4, 4558, Note_on_c, 2, 60, 0
4, 4576, Note_on_c, 2, 60, 53
4, 4608, Note_on_c, 2, 60, 0
4, 4608, Note_on_c, 2, 59, 53
4, 4632, Pitch_bend_c, 2, 12287
4, 4655, Pitch_bend_c, 2, 8192
4, 4656, Note_on_c, 2, 59, 0
4, 4656, Note_on_c, 2, 59, 53
4, 4716, Note_on_c, 2, 59, 0
4, 4754, Note_on_c, 2, 57, 53
4, 4787, Note_on_c, 2, 57, 0
4, 4800, Note_on_c, 2, 55, 53
4, 4934, Note_on_c, 2, 55, 0
4, 5382, Note_on_c, 2, 53, 116
4, 5490, Note_on_c, 2, 53, 0
4, 5568, Note_on_c, 2, 53, 116
4, 5660, Note_on_c, 2, 53, 0
4, 5715, Note_on_c, 2, 53, 116
4, 5743, Note_on_c, 2, 53, 0
4, 5760, Note_on_c, 2, 53, 116
4, 5858, Note_on_c, 2, 53, 0
4, 5952, Note_on_c, 2, 53, 116
4, 6050, Note_on_c, 2, 53, 0
4, 6147, Note_on_c, 2, 53, 116
4, 6668, Note_on_c, 2, 53, 0
4, 6720, Note_on_c, 2, 53, 116
4, 6842, Note_on_c, 2, 53, 0
4, 6912, Note_on_c, 2, 55, 116
4, 6994, Note_on_c, 2, 55, 0
4, 7008, Note_on_c, 2, 55, 116
4, 7086, Note_on_c, 2, 55, 0
4, 7104, Note_on_c, 2, 55, 116
4, 7182, Note_on_c, 2, 55, 0
4, 7200, Note_on_c, 2, 55, 116
4, 7278, Note_on_c, 2, 55, 0
4, 7296, Note_on_c, 2, 55, 116
4, 7374, Note_on_c, 2, 55, 0
4, 7392, Note_on_c, 2, 55, 116
4, 7470, Note_on_c, 2, 55, 0
4, 7488, Note_on_c, 2, 55, 116
4, 7566, Note_on_c, 2, 55, 0
4, 7584, Note_on_c, 2, 55, 116
4, 7662, Note_on_c, 2, 55, 0
4, 7680, Note_on_c, 2, 48, 116
4, 7774, Note_on_c, 2, 48, 0
4, 7872, Note_on_c, 2, 52, 116
4, 7962, Note_on_c, 2, 52, 0
4, 8064, Note_on_c, 2, 55, 116
4, 8154, Note_on_c, 2, 55, 0
4, 8448, Note_on_c, 2, 53, 116
4, 8556, Note_on_c, 2, 53, 0
4, 8640, Note_on_c, 2, 53, 116
4, 8728, Note_on_c, 2, 53, 0
4, 8787, Note_on_c, 2, 53, 116
4, 8815, Note_on_c, 2, 53, 0
4, 8832, Note_on_c, 2, 53, 116
4, 8928, Note_on_c, 2, 53, 0
4, 9024, Note_on_c, 2, 53, 116
4, 9119, Note_on_c, 2, 53, 0
4, 9218, Note_on_c, 2, 53, 116
4, 9291, Control_c, 2, 11, 126
4, 9317, Control_c, 2, 11, 125
4, 9321, Control_c, 2, 11, 124
4, 9325, Control_c, 2, 11, 123
4, 9334, Control_c, 2, 11, 122
4, 9343, Control_c, 2, 11, 121
4, 9347, Control_c, 2, 11, 120
4, 9356, Control_c, 2, 11, 119
4, 9360, Control_c, 2, 11, 118
4, 9369, Control_c, 2, 11, 117
4, 9373, Control_c, 2, 11, 115
4, 9378, Control_c, 2, 11, 114
4, 9382, Control_c, 2, 11, 112
4, 9387, Control_c, 2, 11, 110
4, 9391, Control_c, 2, 11, 107
4, 9395, Control_c, 2, 11, 105
4, 9400, Control_c, 2, 11, 102
4, 9404, Control_c, 2, 11, 101
4, 9413, Control_c, 2, 11, 100
4, 9435, Control_c, 2, 11, 99
4, 9768, Note_on_c, 2, 53, 0
4, 9976, Control_c, 2, 11, 127
4, 9984, Note_on_c, 2, 53, 48
4, 10084, Note_on_c, 2, 53, 0
4, 10176, Note_on_c, 2, 53, 48
4, 10262, Note_on_c, 2, 53, 0
4, 10326, Note_on_c, 2, 53, 48
4, 10350, Note_on_c, 2, 53, 0
4, 10368, Note_on_c, 2, 53, 48
4, 10466, Note_on_c, 2, 53, 0
4, 10560, Note_on_c, 2, 53, 48
4, 10658, Note_on_c, 2, 53, 0
4, 10752, Note_on_c, 2, 53, 48
4, 10853, Control_c, 2, 11, 126
4, 10857, Control_c, 2, 11, 127
4, 10866, Control_c, 2, 11, 126
4, 10870, Control_c, 2, 11, 125
4, 10875, Control_c, 2, 11, 123
4, 10879, Control_c, 2, 11, 122
4, 10883, Control_c, 2, 11, 121
4, 10888, Control_c, 2, 11, 120
4, 10892, Control_c, 2, 11, 119
4, 10896, Control_c, 2, 11, 118
4, 10905, Control_c, 2, 11, 117
4, 10909, Control_c, 2, 11, 116
4, 10914, Control_c, 2, 11, 114
4, 10918, Control_c, 2, 11, 112
4, 10923, Control_c, 2, 11, 110
4, 10927, Control_c, 2, 11, 109
4, 10931, Control_c, 2, 11, 108
4, 10936, Control_c, 2, 11, 105
4, 10940, Control_c, 2, 11, 103
4, 10944, Control_c, 2, 11, 102
4, 10949, Control_c, 2, 11, 100
4, 10971, Control_c, 2, 11, 99
4, 11268, Note_on_c, 2, 53, 0
4, 11327, Control_c, 2, 11, 127
4, 11328, Note_on_c, 2, 53, 48
4, 11412, Note_on_c, 2, 53, 0
4, 11520, Note_on_c, 2, 55, 48
4, 11610, Note_on_c, 2, 55, 0
4, 11712, Note_on_c, 2, 55, 48
4, 11802, Note_on_c, 2, 55, 0
4, 11904, Note_on_c, 2, 55, 48
4, 11994, Note_on_c, 2, 55, 0
4, 12096, Note_on_c, 2, 55, 48
4, 12186, Note_on_c, 2, 55, 0
4, 12288, Note_on_c, 2, 60, 48
4, 12460, Note_on_c, 2, 60, 0
4, 13056, Note_on_c, 2, 48, 55
4, 13212, Note_on_c, 2, 48, 0
4, 13248, Note_on_c, 2, 52, 50
4, 13404, Note_on_c, 2, 52, 0
4, 13440, Note_on_c, 2, 55, 61
4, 13596, Note_on_c, 2, 55, 0
4, 13632, Note_on_c, 2, 43, 64
4, 13776, Note_on_c, 2, 43, 0
4, 13824, Note_on_c, 2, 48, 68
4, 13980, Note_on_c, 2, 48, 0
4, 14016, Note_on_c, 2, 52, 71
4, 14172, Note_on_c, 2, 52, 0
4, 14208, Note_on_c, 2, 55, 74
4, 14364, Note_on_c, 2, 55, 0
4, 14400, Note_on_c, 2, 43, 78
4, 14544, Note_on_c, 2, 43, 0
4, 14592, Note_on_c, 2, 48, 83
4, 14748, Note_on_c, 2, 48, 0
4, 14784, Note_on_c, 2, 52, 88
4, 14940, Note_on_c, 2, 52, 0
4, 14976, Note_on_c, 2, 55, 93
4, 15122, Note_on_c, 2, 55, 0
4, 15168, Note_on_c, 2, 55, 98
4, 15314, Note_on_c, 2, 55, 0
4, 15360, Note_on_c, 2, 60, 116
4, 15496, Note_on_c, 2, 60, 0
4, 15552, Note_on_c, 2, 64, 82
4, 15642, Note_on_c, 2, 64, 0
4, 15696, Note_on_c, 2, 64, 82
4, 15720, Note_on_c, 2, 64, 0
4, 15744, Note_on_c, 2, 64, 82
4, 15864, Note_on_c, 2, 64, 0
4, 15936, Note_on_c, 2, 64, 82
4, 16056, Note_on_c, 2, 64, 0
4, 16128, Note_on_c, 2, 64, 82
4, 16838, Note_on_c, 2, 64, 0
4, 16896, Note_on_c, 2, 62, 82
4, 17016, Note_on_c, 2, 62, 0
4, 17088, Note_on_c, 2, 62, 82
4, 17178, Note_on_c, 2, 62, 0
4, 17232, Note_on_c, 2, 62, 82
4, 17256, Note_on_c, 2, 62, 0
4, 17280, Note_on_c, 2, 62, 82
4, 17400, Note_on_c, 2, 62, 0
4, 17472, Note_on_c, 2, 62, 82
4, 17592, Note_on_c, 2, 62, 0
4, 17664, Note_on_c, 2, 62, 82
4, 18374, Note_on_c, 2, 62, 0
4, 18432, Note_on_c, 2, 62, 82
4, 18552, Note_on_c, 2, 62, 0
4, 18624, Note_on_c, 2, 62, 82
4, 18714, Note_on_c, 2, 62, 0
4, 18768, Note_on_c, 2, 62, 82
4, 18792, Note_on_c, 2, 62, 0
4, 18816, Note_on_c, 2, 62, 82
4, 18936, Note_on_c, 2, 62, 0
4, 19008, Note_on_c, 2, 62, 82
4, 19128, Note_on_c, 2, 62, 0
4, 19200, Note_on_c, 2, 62, 82
4, 19910, Note_on_c, 2, 62, 0
4, 19968, Note_on_c, 2, 60, 82
4, 20088, Note_on_c, 2, 60, 0
4, 20160, Note_on_c, 2, 57, 82
4, 20250, Note_on_c, 2, 57, 0
4, 20304, Note_on_c, 2, 57, 82
4, 20328, Note_on_c, 2, 57, 0
4, 20352, Note_on_c, 2, 57, 82
4, 20472, Note_on_c, 2, 57, 0
4, 20544, Note_on_c, 2, 57, 82
4, 20664, Note_on_c, 2, 57, 0
4, 20736, Note_on_c, 2, 57, 82
4, 21430, Note_on_c, 2, 57, 0
4, 21504, Note_on_c, 2, 58, 82
4, 22198, Note_on_c, 2, 58, 0
4, 22272, Note_on_c, 2, 60, 82
4, 22966, Note_on_c, 2, 60, 0
4, 23040, Note_on_c, 2, 58, 82
4, 23734, Note_on_c, 2, 58, 0
4, 23808, Note_on_c, 2, 51, 103
4, 23876, Note_on_c, 2, 51, 0
4, 23904, Note_on_c, 2, 51, 103
4, 23972, Note_on_c, 2, 51, 0
4, 24000, Note_on_c, 2, 51, 103
4, 24068, Note_on_c, 2, 51, 0
4, 24096, Note_on_c, 2, 51, 103
4, 24164, Note_on_c, 2, 51, 0
4, 24192, Note_on_c, 2, 51, 103
4, 24260, Note_on_c, 2, 51, 0
4, 24288, Note_on_c, 2, 51, 103
4, 24356, Note_on_c, 2, 51, 0
4, 24384, Note_on_c, 2, 51, 103
4, 24452, Note_on_c, 2, 51, 0
4, 24480, Note_on_c, 2, 51, 103
4, 24548, Note_on_c, 2, 51, 0
4, 24576, Note_on_c, 2, 50, 103
4, 24644, Note_on_c, 2, 50, 0
4, 24672, Note_on_c, 2, 50, 103
4, 24740, Note_on_c, 2, 50, 0
4, 24768, Note_on_c, 2, 50, 103
4, 24836, Note_on_c, 2, 50, 0
4, 24864, Note_on_c, 2, 50, 103
4, 24932, Note_on_c, 2, 50, 0
4, 24960, Note_on_c, 2, 50, 103
4, 25028, Note_on_c, 2, 50, 0
4, 25056, Note_on_c, 2, 50, 103
4, 25124, Note_on_c, 2, 50, 0
4, 25152, Note_on_c, 2, 50, 103
4, 25220, Note_on_c, 2, 50, 0
4, 25248, Note_on_c, 2, 50, 103
4, 25316, Note_on_c, 2, 50, 0
4, 25344, Note_on_c, 2, 51, 103
4, 25412, Note_on_c, 2, 51, 0
4, 25440, Note_on_c, 2, 51, 103
4, 25508, Note_on_c, 2, 51, 0
4, 25536, Note_on_c, 2, 51, 103
4, 25604, Note_on_c, 2, 51, 0
4, 25632, Note_on_c, 2, 51, 103
4, 25700, Note_on_c, 2, 51, 0
4, 25728, Note_on_c, 2, 51, 103
4, 25796, Note_on_c, 2, 51, 0
4, 25824, Note_on_c, 2, 51, 103
4, 25892, Note_on_c, 2, 51, 0
4, 25920, Note_on_c, 2, 51, 103
4, 25988, Note_on_c, 2, 51, 0
4, 26016, Note_on_c, 2, 51, 103
4, 26084, Note_on_c, 2, 51, 0
4, 26112, Note_on_c, 2, 50, 103
4, 26286, Note_on_c, 2, 50, 0
4, 26400, Note_on_c, 2, 50, 103
4, 26478, Note_on_c, 2, 50, 0
4, 26496, Note_on_c, 2, 58, 103
4, 26592, Note_on_c, 2, 58, 0
4, 26592, Note_on_c, 2, 57, 103
4, 26688, Note_on_c, 2, 57, 0
4, 26688, Note_on_c, 2, 55, 103
4, 26784, Note_on_c, 2, 55, 0
4, 26784, Note_on_c, 2, 58, 103
4, 26862, Note_on_c, 2, 58, 0
4, 26880, Note_on_c, 2, 62, 103
4, 27054, Note_on_c, 2, 62, 0
4, 27168, Note_on_c, 2, 50, 103
4, 27246, Note_on_c, 2, 50, 0
4, 27264, Note_on_c, 2, 58, 103
4, 27360, Note_on_c, 2, 58, 0
4, 27360, Note_on_c, 2, 57, 103
4, 27456, Note_on_c, 2, 57, 0
4, 27456, Note_on_c, 2, 55, 103
4, 27552, Note_on_c, 2, 55, 0
4, 27552, Note_on_c, 2, 58, 103
4, 27630, Note_on_c, 2, 58, 0
4, 27648, Note_on_c, 2, 62, 103
4, 27804, Note_on_c, 2, 62, 0
4, 27840, Note_on_c, 2, 55, 103
4, 27886, Note_on_c, 2, 55, 0
4, 27936, Note_on_c, 2, 58, 103
4, 27982, Note_on_c, 2, 58, 0
4, 28032, Note_on_c, 2, 62, 103
4, 28188, Note_on_c, 2, 62, 0
4, 28224, Note_on_c, 2, 55, 103
4, 28270, Note_on_c, 2, 55, 0
4, 28320, Note_on_c, 2, 58, 103
4, 28366, Note_on_c, 2, 58, 0
4, 28416, Note_on_c, 2, 62, 103
4, 28594, Note_on_c, 2, 62, 0
4, 28752, Note_on_c, 2, 50, 103
4, 28776, Note_on_c, 2, 50, 0
4, 28800, Note_on_c, 2, 50, 103
4, 28934, Note_on_c, 2, 50, 0
4, 28992, Note_on_c, 2, 50, 103
4, 29126, Note_on_c, 2, 50, 0
4, 29184, Note_on_c, 2, 50, 103
4, 29362, Note_on_c, 2, 50, 0
4, 29952, Note_on_c, 2, 50, 103
4, 30382, Note_on_c, 2, 50, 0
4, 30432, Note_on_c, 2, 52, 103
4, 30468, Note_on_c, 2, 52, 0
4, 30480, Note_on_c, 2, 54, 103
4, 30516, Note_on_c, 2, 54, 0
4, 30528, Note_on_c, 2, 55, 103
4, 30564, Note_on_c, 2, 55, 0
4, 30576, Note_on_c, 2, 57, 103
4, 30612, Note_on_c, 2, 57, 0
4, 30624, Note_on_c, 2, 59, 103
4, 30660, Note_on_c, 2, 59, 0
4, 30672, Note_on_c, 2, 61, 103
4, 30708, Note_on_c, 2, 61, 0
4, 30720, Note_on_c, 2, 62, 103
4, 30898, Note_on_c, 2, 62, 0
4, 32404, Control_c, 2, 11, 94
4, 32415, Control_c, 2, 11, 98
4, 32431, Control_c, 2, 11, 101
4, 32448, Control_c, 2, 11, 104
4, 32448, Note_on_c, 2, 67, 68
4, 32464, Control_c, 2, 11, 107
4, 32470, Control_c, 2, 11, 110
4, 32481, Control_c, 2, 11, 112
4, 32486, Control_c, 2, 11, 113
4, 32497, Control_c, 2, 11, 115
4, 32503, Control_c, 2, 11, 116
4, 32514, Control_c, 2, 11, 118
4, 32519, Control_c, 2, 11, 119
4, 32530, Control_c, 2, 11, 122
4, 32547, Control_c, 2, 11, 124
4, 32585, Control_c, 2, 11, 125
4, 32640, Note_on_c, 2, 67, 0
4, 32640, Note_on_c, 2, 66, 69
4, 32662, Control_c, 2, 11, 127
4, 32777, Control_c, 2, 11, 126
4, 32782, Control_c, 2, 11, 124
4, 32799, Control_c, 2, 11, 123
4, 32810, Control_c, 2, 11, 121
4, 32832, Note_on_c, 2, 66, 0
4, 32832, Note_on_c, 2, 65, 71
4, 33024, Note_on_c, 2, 65, 0
4, 33024, Note_on_c, 2, 64, 71
4, 33216, Note_on_c, 2, 64, 0
4, 33216, Note_on_c, 2, 63, 71
4, 33408, Note_on_c, 2, 63, 0
4, 33408, Note_on_c, 2, 62, 71
4, 33600, Note_on_c, 2, 62, 0
4, 33600, Note_on_c, 2, 60, 68
4, 33792, Note_on_c, 2, 60, 0
4, 33792, Note_on_c, 2, 59, 65
4, 33797, Control_c, 2, 11, 124
4, 33803, Control_c, 2, 11, 125
4, 33852, Control_c, 2, 11, 124
4, 33863, Control_c, 2, 11, 121
4, 33885, Control_c, 2, 11, 120
4, 33896, Control_c, 2, 11, 117
4, 33902, Control_c, 2, 11, 115
4, 33913, Control_c, 2, 11, 114
4, 33918, Control_c, 2, 11, 112
4, 33929, Control_c, 2, 11, 111
4, 33934, Control_c, 2, 11, 109
4, 33945, Control_c, 2, 11, 108
4, 33951, Control_c, 2, 11, 105
4, 33962, Control_c, 2, 11, 103
4, 33967, Control_c, 2, 11, 100
4, 33980, Note_on_c, 2, 59, 0
4, 34176, Note_on_c, 2, 52, 57
4, 34176, Control_c, 2, 11, 120
4, 34340, Note_on_c, 2, 52, 0
4, 34560, Note_on_c, 2, 57, 57
4, 34724, Note_on_c, 2, 57, 0
4, 34944, Note_on_c, 2, 50, 57
4, 35108, Note_on_c, 2, 50, 0
4, 35328, Note_on_c, 2, 55, 57
4, 35492, Note_on_c, 2, 55, 0
4, 35712, Note_on_c, 2, 52, 57
4, 35876, Note_on_c, 2, 52, 0
4, 36065, Control_c, 2, 11, 109
4, 36076, Control_c, 2, 11, 110
4, 36096, Note_on_c, 2, 48, 57
4, 36109, Control_c, 2, 11, 113
4, 36142, Control_c, 2, 11, 115
4, 36175, Control_c, 2, 11, 116
4, 36186, Control_c, 2, 11, 118
4, 36191, Control_c, 2, 11, 119
4, 36208, Control_c, 2, 11, 121
4, 36224, Control_c, 2, 11, 122
4, 36235, Control_c, 2, 11, 124
4, 36241, Control_c, 2, 11, 125
4, 36252, Control_c, 2, 11, 127
4, 36372, Control_c, 2, 11, 126
4, 36405, Control_c, 2, 11, 124
4, 36416, Control_c, 2, 11, 123
4, 36433, Control_c, 2, 11, 121
4, 36436, Note_on_c, 2, 48, 0
4, 36438, Control_c, 2, 11, 120
4, 36455, Control_c, 2, 11, 118
4, 36477, Control_c, 2, 11, 120
4, 36480, Note_on_c, 2, 50, 55
4, 36600, Note_on_c, 2, 50, 0
4, 36672, Note_on_c, 2, 50, 55
4, 36792, Note_on_c, 2, 50, 0
4, 36864, Note_on_c, 2, 43, 54
4, 36984, Note_on_c, 2, 43, 0
4, 37056, Note_on_c, 2, 55, 52
4, 37184, Note_on_c, 2, 55, 0
4, 38400, Note_on_c, 2, 55, 55
4, 39906, Note_on_c, 2, 55, 0
4, 39936, Note_on_c, 2, 55, 55
4, 40100, Note_on_c, 2, 55, 0
4, 40320, Note_on_c, 2, 52, 55
4, 40484, Note_on_c, 2, 52, 0
4, 40704, Note_on_c, 2, 57, 55
4, 40868, Note_on_c, 2, 57, 0
4, 41088, Note_on_c, 2, 50, 55
4, 41252, Note_on_c, 2, 50, 0
4, 41472, Note_on_c, 2, 55, 55
4, 41636, Note_on_c, 2, 55, 0
4, 41856, Note_on_c, 2, 52, 55
4, 42020, Note_on_c, 2, 52, 0
4, 42240, Note_on_c, 2, 48, 55
4, 42404, Note_on_c, 2, 48, 0
4, 42624, Note_on_c, 2, 50, 55
4, 42788, Note_on_c, 2, 50, 0
4, 43008, Note_on_c, 2, 52, 55
4, 43172, Note_on_c, 2, 52, 0
4, 43776, Note_on_c, 2, 50, 55
4, 43940, Note_on_c, 2, 50, 0
4, 44160, Note_on_c, 2, 52, 55
4, 44324, Note_on_c, 2, 52, 0
4, 44544, Note_on_c, 2, 47, 55
4, 44708, Note_on_c, 2, 47, 0
4, 46272, Note_on_c, 2, 59, 53
4, 46368, Note_on_c, 2, 59, 0
4, 46464, Note_on_c, 2, 59, 53
4, 46562, Note_on_c, 2, 59, 0
4, 46656, Note_on_c, 2, 59, 53
4, 46754, Note_on_c, 2, 59, 0
4, 46848, Note_on_c, 2, 59, 53
4, 47040, Note_on_c, 2, 59, 0
4, 47040, Note_on_c, 2, 60, 53
4, 47154, Note_on_c, 2, 60, 0
4, 48384, Note_on_c, 2, 50, 55
4, 48390, Control_c, 2, 11, 91
4, 48406, Control_c, 2, 11, 92
4, 48412, Control_c, 2, 11, 95
4, 48423, Control_c, 2, 11, 98
4, 48428, Control_c, 2, 11, 101
4, 48439, Control_c, 2, 11, 103
4, 48456, Control_c, 2, 11, 104
4, 48461, Control_c, 2, 11, 106
4, 48477, Control_c, 2, 11, 109
4, 48488, Control_c, 2, 11, 110
4, 48505, Control_c, 2, 11, 112
4, 48510, Control_c, 2, 11, 113
4, 48521, Control_c, 2, 11, 115
4, 48527, Control_c, 2, 11, 116
4, 48538, Control_c, 2, 11, 118
4, 48571, Control_c, 2, 11, 119
4, 48609, Control_c, 2, 11, 121
4, 48637, Control_c, 2, 11, 122
4, 48675, Control_c, 2, 11, 124
4, 48790, Control_c, 2, 11, 123
4, 48801, Control_c, 2, 11, 121
4, 48834, Control_c, 2, 11, 120
4, 48856, Control_c, 2, 11, 118
4, 48867, Control_c, 2, 11, 117
4, 48872, Control_c, 2, 11, 115
4, 48900, Control_c, 2, 11, 114
4, 48905, Control_c, 2, 11, 112
4, 48922, Control_c, 2, 11, 111
4, 48938, Control_c, 2, 11, 109
4, 48966, Control_c, 2, 11, 108
4, 48971, Control_c, 2, 11, 106
4, 48982, Control_c, 2, 11, 105
4, 48988, Control_c, 2, 11, 103
4, 49004, Control_c, 2, 11, 102
4, 49015, Control_c, 2, 11, 100
4, 49021, Control_c, 2, 11, 99
4, 49048, Control_c, 2, 11, 97
4, 49064, Control_c, 2, 11, 96
4, 49070, Control_c, 2, 11, 94
4, 49081, Control_c, 2, 11, 93
4, 49103, Control_c, 2, 11, 91
4, 49119, Control_c, 2, 11, 88
4, 49122, Note_on_c, 2, 50, 0
4, 49130, Control_c, 2, 11, 87
4, 49136, Control_c, 2, 11, 85
4, 49147, Control_c, 2, 11, 84
4, 49149, Control_c, 2, 11, 94
4, 49152, Note_on_c, 2, 43, 46
4, 49154, Control_c, 2, 11, 95
4, 49160, Control_c, 2, 11, 97
4, 49171, Control_c, 2, 11, 98
4, 49176, Control_c, 2, 11, 100
4, 49187, Control_c, 2, 11, 101
4, 49193, Control_c, 2, 11, 103
4, 49220, Control_c, 2, 11, 104
4, 49226, Control_c, 2, 11, 103
4, 49236, Control_c, 2, 11, 102
4, 49242, Control_c, 2, 11, 100
4, 49253, Control_c, 2, 11, 99
4, 49258, Control_c, 2, 11, 96
4, 49269, Control_c, 2, 11, 91
4, 49275, Control_c, 2, 11, 90
4, 49291, Control_c, 2, 11, 88
4, 49302, Control_c, 2, 11, 87
4, 49308, Control_c, 2, 11, 85
4, 49324, Note_on_c, 2, 43, 0
4, 53568, Control_c, 2, 11, 127
4, 53760, Note_on_c, 2, 55, 50
4, 53834, Note_on_c, 2, 55, 0
4, 53856, Note_on_c, 2, 55, 52
4, 53930, Note_on_c, 2, 55, 0
4, 53952, Note_on_c, 2, 55, 53
4, 54026, Note_on_c, 2, 55, 0
4, 54048, Note_on_c, 2, 55, 56
4, 54122, Note_on_c, 2, 55, 0
4, 54144, Note_on_c, 2, 55, 57
4, 54218, Note_on_c, 2, 55, 0
4, 54240, Note_on_c, 2, 55, 59
4, 54314, Note_on_c, 2, 55, 0
4, 54336, Note_on_c, 2, 55, 60
4, 54410, Note_on_c, 2, 55, 0
4, 54432, Note_on_c, 2, 55, 62
4, 54506, Note_on_c, 2, 55, 0
4, 54528, Note_on_c, 2, 55, 64
4, 54602, Note_on_c, 2, 55, 0
4, 54624, Note_on_c, 2, 55, 66
4, 54698, Note_on_c, 2, 55, 0
4, 54720, Note_on_c, 2, 55, 68
4, 54794, Note_on_c, 2, 55, 0
4, 54816, Note_on_c, 2, 55, 69
4, 54890, Note_on_c, 2, 55, 0
4, 54912, Note_on_c, 2, 55, 71
4, 54986, Note_on_c, 2, 55, 0
4, 55008, Note_on_c, 2, 55, 72
4, 55082, Note_on_c, 2, 55, 0
4, 55104, Note_on_c, 2, 55, 74
4, 55178, Note_on_c, 2, 55, 0
4, 55200, Note_on_c, 2, 55, 76
4, 55274, Note_on_c, 2, 55, 0
4, 55296, Note_on_c, 2, 55, 79
4, 55370, Note_on_c, 2, 55, 0
4, 55392, Note_on_c, 2, 55, 82
4, 55466, Note_on_c, 2, 55, 0
4, 55488, Note_on_c, 2, 55, 82
4, 55562, Note_on_c, 2, 55, 0
4, 55584, Note_on_c, 2, 55, 82
4, 55658, Note_on_c, 2, 55, 0
4, 55680, Note_on_c, 2, 55, 82
4, 55754, Note_on_c, 2, 55, 0
4, 55776, Note_on_c, 2, 55, 82
4, 55850, Note_on_c, 2, 55, 0
4, 55872, Note_on_c, 2, 55, 82
4, 55946, Note_on_c, 2, 55, 0
4, 55968, Note_on_c, 2, 55, 82
4, 56042, Note_on_c, 2, 55, 0
4, 56064, Note_on_c, 2, 55, 82
4, 56138, Note_on_c, 2, 55, 0
4, 56160, Note_on_c, 2, 55, 82
4, 56234, Note_on_c, 2, 55, 0
4, 56256, Note_on_c, 2, 55, 82
4, 56330, Note_on_c, 2, 55, 0
4, 56352, Note_on_c, 2, 55, 82
4, 56426, Note_on_c, 2, 55, 0
4, 56448, Note_on_c, 2, 55, 82
4, 56522, Note_on_c, 2, 55, 0
4, 56544, Note_on_c, 2, 55, 82
4, 56618, Note_on_c, 2, 55, 0
4, 56640, Note_on_c, 2, 55, 82
4, 56714, Note_on_c, 2, 55, 0
4, 56736, Note_on_c, 2, 55, 82
4, 56810, Note_on_c, 2, 55, 0
4, 56832, Note_on_c, 2, 55, 82
4, 57004, Note_on_c, 2, 55, 0
4, 57168, Note_on_c, 2, 55, 84
4, 57192, Note_on_c, 2, 55, 0
4, 57192, Note_on_c, 2, 57, 86
4, 57216, Note_on_c, 2, 57, 0
4, 57216, Note_on_c, 2, 59, 89
4, 57279, Control_c, 2, 11, 127
4, 57285, Control_c, 2, 11, 126
4, 57296, Control_c, 2, 11, 122
4, 57301, Control_c, 2, 11, 120
4, 57312, Control_c, 2, 11, 114
4, 57318, Control_c, 2, 11, 110
4, 57329, Control_c, 2, 11, 107
4, 57334, Control_c, 2, 11, 105
4, 57345, Control_c, 2, 11, 102
4, 57351, Control_c, 2, 11, 101
4, 57362, Control_c, 2, 11, 99
4, 57378, Control_c, 2, 11, 96
4, 57432, Note_on_c, 2, 59, 0
4, 57504, Note_on_c, 2, 59, 55
4, 57504, Control_c, 2, 11, 127
4, 57558, Note_on_c, 2, 59, 0
4, 57600, Note_on_c, 2, 57, 55
4, 57690, Note_on_c, 2, 57, 0
4, 57792, Note_on_c, 2, 55, 55
4, 57882, Note_on_c, 2, 55, 0
4, 57984, Note_on_c, 2, 54, 55
4, 58074, Note_on_c, 2, 54, 0
4, 58176, Note_on_c, 2, 57, 55
4, 58266, Note_on_c, 2, 57, 0
4, 58368, Note_on_c, 2, 55, 55
4, 58546, Note_on_c, 2, 55, 0
4, 58704, Note_on_c, 2, 59, 81
4, 58728, Note_on_c, 2, 59, 0
4, 58728, Note_on_c, 2, 60, 83
4, 58752, Note_on_c, 2, 60, 0
4, 58752, Note_on_c, 2, 62, 86
4, 58761, Control_c, 2, 11, 125
4, 58793, Control_c, 2, 11, 126
4, 58799, Control_c, 2, 11, 127
4, 58832, Control_c, 2, 11, 123
4, 58843, Control_c, 2, 11, 122
4, 58848, Control_c, 2, 11, 117
4, 58859, Control_c, 2, 11, 114
4, 58865, Control_c, 2, 11, 113
4, 58876, Control_c, 2, 11, 111
4, 58881, Control_c, 2, 11, 108
4, 58892, Control_c, 2, 11, 102
4, 58898, Control_c, 2, 11, 99
4, 58925, Control_c, 2, 11, 98
4, 58931, Control_c, 2, 11, 96
4, 58950, Note_on_c, 2, 62, 0
4, 59040, Note_on_c, 2, 62, 55
4, 59040, Control_c, 2, 11, 127
4, 59094, Note_on_c, 2, 62, 0
4, 59136, Note_on_c, 2, 60, 55
4, 59226, Note_on_c, 2, 60, 0
4, 59328, Note_on_c, 2, 59, 55
4, 59418, Note_on_c, 2, 59, 0
4, 59520, Note_on_c, 2, 57, 55
4, 59610, Note_on_c, 2, 57, 0
4, 59712, Note_on_c, 2, 60, 55
4, 59802, Note_on_c, 2, 60, 0
4, 59904, Note_on_c, 2, 59, 55
4, 60082, Note_on_c, 2, 59, 0
4, 60240, Note_on_c, 2, 55, 83
4, 60264, Note_on_c, 2, 55, 0
4, 60264, Note_on_c, 2, 57, 84
4, 60288, Note_on_c, 2, 57, 0
4, 60288, Note_on_c, 2, 59, 85
4, 60337, Control_c, 2, 11, 126
4, 60353, Control_c, 2, 11, 125
4, 60359, Control_c, 2, 11, 123
4, 60370, Control_c, 2, 11, 120
4, 60375, Control_c, 2, 11, 119
4, 60386, Control_c, 2, 11, 116
4, 60392, Control_c, 2, 11, 114
4, 60403, Control_c, 2, 11, 113
4, 60419, Control_c, 2, 11, 110
4, 60425, Control_c, 2, 11, 108
4, 60436, Control_c, 2, 11, 105
4, 60441, Control_c, 2, 11, 104
4, 60504, Note_on_c, 2, 59, 0
4, 60576, Note_on_c, 2, 59, 55
4, 60576, Control_c, 2, 11, 127
4, 60630, Note_on_c, 2, 59, 0
4, 60672, Note_on_c, 2, 57, 55
4, 60762, Note_on_c, 2, 57, 0
4, 60864, Note_on_c, 2, 55, 55
4, 60954, Note_on_c, 2, 55, 0
4, 61056, Note_on_c, 2, 54, 55
4, 61146, Note_on_c, 2, 54, 0
4, 61248, Note_on_c, 2, 57, 55
4, 61338, Note_on_c, 2, 57, 0
4, 61440, Note_on_c, 2, 55, 55
4, 61618, Note_on_c, 2, 55, 0
4, 61776, Note_on_c, 2, 59, 84
4, 61800, Note_on_c, 2, 59, 0
4, 61800, Note_on_c, 2, 60, 85
4, 61818, Control_c, 2, 11, 126
4, 61824, Note_on_c, 2, 60, 0
4, 61824, Control_c, 2, 11, 127
4, 61824, Note_on_c, 2, 62, 87
4, 61889, Control_c, 2, 11, 126
4, 61900, Control_c, 2, 11, 120
4, 61906, Control_c, 2, 11, 119
4, 61917, Control_c, 2, 11, 117
4, 61922, Control_c, 2, 11, 114
4, 61933, Control_c, 2, 11, 110
4, 61939, Control_c, 2, 11, 107
4, 61955, Control_c, 2, 11, 105
4, 62022, Note_on_c, 2, 62, 0
4, 62112, Note_on_c, 2, 62, 55
4, 62112, Control_c, 2, 11, 127
4, 62166, Note_on_c, 2, 62, 0
4, 62208, Note_on_c, 2, 60, 55
4, 62298, Note_on_c, 2, 60, 0
4, 62400, Note_on_c, 2, 59, 55
4, 62490, Note_on_c, 2, 59, 0
4, 62592, Note_on_c, 2, 57, 55
4, 62682, Note_on_c, 2, 57, 0
4, 62784, Note_on_c, 2, 60, 55
4, 62874, Note_on_c, 2, 60, 0
4, 62976, Note_on_c, 2, 59, 55
4, 62986, Control_c, 2, 11, 125
4, 62992, Control_c, 2, 11, 125
4, 63058, Control_c, 2, 11, 123
4, 63074, Control_c, 2, 11, 122
4, 63091, Control_c, 2, 11, 119
4, 63107, Control_c, 2, 11, 117
4, 63118, Control_c, 2, 11, 116
4, 63124, Control_c, 2, 11, 113
4, 63135, Control_c, 2, 11, 110
4, 63140, Control_c, 2, 11, 108
4, 63142, Note_on_c, 2, 59, 0
4, 63157, Control_c, 2, 11, 104
4, 63727, Control_c, 2, 11, 127
4, 63744, Note_on_c, 2, 62, 82
4, 64128, Note_on_c, 2, 62, 0
4, 64128, Note_on_c, 2, 64, 82
4, 64320, Note_on_c, 2, 64, 0
4, 64320, Note_on_c, 2, 62, 82
4, 64484, Note_on_c, 2, 62, 0
4, 64512, Note_on_c, 2, 60, 82
4, 64704, Note_on_c, 2, 60, 0
4, 64704, Note_on_c, 2, 63, 82
4, 64896, Note_on_c, 2, 63, 0
4, 64896, Note_on_c, 2, 62, 82
4, 65088, Note_on_c, 2, 62, 0
4, 65088, Note_on_c, 2, 60, 82
4, 65254, Note_on_c, 2, 60, 0
4, 65280, Note_on_c, 2, 59, 85
4, 65472, Note_on_c, 2, 59, 0
4, 65472, Note_on_c, 2, 62, 93
4, 65664, Note_on_c, 2, 62, 0
4, 65664, Note_on_c, 2, 64, 93
4, 65856, Note_on_c, 2, 64, 0
4, 65856, Note_on_c, 2, 65, 93
4, 66018, Note_on_c, 2, 65, 0
4, 66048, Control_c, 2, 11, 127
4, 66048, Note_on_c, 2, 64, 93
4, 66096, Control_c, 2, 11, 124
4, 66102, Control_c, 2, 11, 123
4, 66116, Control_c, 2, 11, 121
4, 66123, Control_c, 2, 11, 120
4, 66144, Control_c, 2, 11, 117
4, 66157, Control_c, 2, 11, 115
4, 66178, Control_c, 2, 11, 111
4, 66185, Control_c, 2, 11, 109
4, 66198, Control_c, 2, 11, 108
4, 66205, Control_c, 2, 11, 106
4, 66219, Control_c, 2, 11, 105
4, 66267, Control_c, 2, 11, 103
4, 66753, Note_on_c, 2, 64, 0
4, 66816, Control_c, 2, 11, 116
4, 66816, Note_on_c, 2, 62, 82
4, 66822, Control_c, 2, 11, 119
4, 66843, Control_c, 2, 11, 121
4, 66857, Control_c, 2, 11, 122
4, 66864, Control_c, 2, 11, 124
4, 66884, Control_c, 2, 11, 125
4, 66898, Control_c, 2, 11, 127
4, 66955, Note_on_c, 2, 62, 0
4, 67008, Note_on_c, 2, 62, 82
4, 67056, Note_on_c, 2, 62, 0
4, 67104, Note_on_c, 2, 62, 82
4, 67152, Note_on_c, 2, 62, 0
4, 67200, Note_on_c, 2, 62, 82
4, 67296, Note_on_c, 2, 62, 0
4, 67296, Note_on_c, 2, 60, 82
4, 67364, Note_on_c, 2, 60, 0
4, 67392, Note_on_c, 2, 59, 82
4, 67440, Note_on_c, 2, 59, 0
4, 67488, Note_on_c, 2, 57, 82
4, 67536, Note_on_c, 2, 57, 0
4, 67584, Note_on_c, 2, 55, 103
4, 67625, Control_c, 2, 11, 125
4, 67659, Control_c, 2, 11, 124
4, 67680, Control_c, 2, 11, 123
4, 67686, Control_c, 2, 11, 115
4, 67700, Control_c, 2, 11, 112
4, 67721, Control_c, 2, 11, 109
4, 67728, Control_c, 2, 11, 108
4, 67741, Control_c, 2, 11, 105
4, 67748, Note_on_c, 2, 55, 0
4, 67748, Control_c, 2, 11, 102
4, 68352, Control_c, 2, 11, 106
4, 68352, Note_on_c, 2, 62, 82
4, 68365, Control_c, 2, 11, 107
4, 68386, Control_c, 2, 11, 109
4, 68448, Control_c, 2, 11, 112
4, 68509, Control_c, 2, 11, 113
4, 68544, Control_c, 2, 11, 115
4, 68585, Control_c, 2, 11, 116
4, 68612, Control_c, 2, 11, 118
4, 68633, Control_c, 2, 11, 119
4, 68688, Control_c, 2, 11, 122
4, 68708, Control_c, 2, 11, 124
4, 68736, Note_on_c, 2, 62, 0
4, 68736, Note_on_c, 2, 64, 82
4, 68770, Control_c, 2, 11, 127
4, 68928, Note_on_c, 2, 64, 0
4, 68928, Note_on_c, 2, 62, 82
4, 69096, Note_on_c, 2, 62, 0
4, 69120, Note_on_c, 2, 60, 82
4, 69286, Note_on_c, 2, 60, 0
4, 69312, Note_on_c, 2, 63, 82
4, 69504, Note_on_c, 2, 63, 0
4, 69504, Note_on_c, 2, 62, 82
4, 69696, Note_on_c, 2, 62, 0
4, 69696, Note_on_c, 2, 60, 89
4, 69862, Note_on_c, 2, 60, 0
4, 69888, Note_on_c, 2, 59, 89
4, 70080, Note_on_c, 2, 59, 0
4, 70080, Note_on_c, 2, 62, 89
4, 70272, Note_on_c, 2, 62, 0
4, 70272, Note_on_c, 2, 64, 89
4, 70464, Note_on_c, 2, 64, 0
4, 70464, Note_on_c, 2, 65, 91
4, 70622, Note_on_c, 2, 65, 0
4, 70656, Note_on_c, 2, 64, 93
4, 70662, Control_c, 2, 11, 120
4, 70724, Control_c, 2, 11, 121
4, 70731, Control_c, 2, 11, 122
4, 70745, Control_c, 2, 11, 127
4, 70793, Control_c, 2, 11, 124
4, 70806, Control_c, 2, 11, 121
4, 70827, Control_c, 2, 11, 117
4, 70834, Control_c, 2, 11, 115
4, 70854, Control_c, 2, 11, 112
4, 70875, Control_c, 2, 11, 109
4, 70916, Control_c, 2, 11, 108
4, 70930, Control_c, 2, 11, 106
4, 70957, Control_c, 2, 11, 103
4, 72118, Note_on_c, 2, 64, 0
4, 72192, Note_on_c, 2, 67, 82
4, 72198, Control_c, 2, 11, 118
4, 72226, Control_c, 2, 11, 121
4, 72246, Control_c, 2, 11, 125
4, 72253, Control_c, 2, 11, 127
4, 72294, Control_c, 2, 11, 124
4, 72308, Control_c, 2, 11, 121
4, 72315, Control_c, 2, 11, 118
4, 72329, Control_c, 2, 11, 117
4, 72349, Control_c, 2, 11, 115
4, 72356, Control_c, 2, 11, 114
4, 72377, Control_c, 2, 11, 111
4, 72397, Control_c, 2, 11, 109
4, 72418, Control_c, 2, 11, 108
4, 72432, Control_c, 2, 11, 106
4, 72438, Control_c, 2, 11, 105
4, 72459, Control_c, 2, 11, 103
4, 72500, Control_c, 2, 11, 102
4, 72900, Note_on_c, 2, 67, 0
4, 72946, Control_c, 2, 11, 101
4, 72953, Control_c, 2, 11, 103
4, 72960, Note_on_c, 2, 49, 103
4, 72966, Control_c, 2, 11, 106
4, 72973, Control_c, 2, 11, 107
4, 72987, Control_c, 2, 11, 109
4, 72994, Control_c, 2, 11, 110
4, 73008, Control_c, 2, 11, 115
4, 73014, Control_c, 2, 11, 116
4, 73035, Control_c, 2, 11, 118
4, 73049, Control_c, 2, 11, 119
4, 73069, Control_c, 2, 11, 121
4, 73090, Control_c, 2, 11, 124
4, 73110, Control_c, 2, 11, 125
4, 73152, Control_c, 2, 11, 127
4, 73275, Control_c, 2, 11, 124
4, 73296, Control_c, 2, 11, 123
4, 73302, Control_c, 2, 11, 121
4, 73316, Control_c, 2, 11, 118
4, 73323, Control_c, 2, 11, 115
4, 73337, Control_c, 2, 11, 114
4, 73678, Note_on_c, 2, 49, 0
4, 73728, Note_on_c, 2, 50, 107
4, 73728, Control_c, 2, 11, 127
4, 73892, Note_on_c, 2, 50, 0
4, 73920, Note_on_c, 2, 51, 107
4, 74084, Note_on_c, 2, 51, 0
4, 74112, Note_on_c, 2, 50, 107
4, 74276, Note_on_c, 2, 50, 0
4, 74304, Note_on_c, 2, 49, 107
4, 74462, Note_on_c, 2, 49, 0
4, 74496, Note_on_c, 2, 50, 107
4, 74660, Note_on_c, 2, 50, 0
4, 74688, Note_on_c, 2, 51, 107
4, 74852, Note_on_c, 2, 51, 0
4, 74880, Note_on_c, 2, 50, 107
4, 75044, Note_on_c, 2, 50, 0
4, 75072, Note_on_c, 2, 49, 107
4, 75228, Note_on_c, 2, 49, 0
4, 75264, Note_on_c, 2, 50, 107
4, 75428, Note_on_c, 2, 50, 0
4, 75456, Note_on_c, 2, 51, 107
4, 75620, Note_on_c, 2, 51, 0
4, 75648, Note_on_c, 2, 50, 107
4, 75812, Note_on_c, 2, 50, 0
4, 75840, Note_on_c, 2, 49, 107
4, 75996, Note_on_c, 2, 49, 0
4, 76032, Note_on_c, 2, 50, 107
4, 76172, Note_on_c, 2, 50, 0
4, 76224, Note_on_c, 2, 62, 107
4, 76374, Note_on_c, 2, 62, 0
4, 76416, Note_on_c, 2, 59, 109
4, 76566, Note_on_c, 2, 59, 0
4, 76608, Note_on_c, 2, 55, 109
4, 76758, Note_on_c, 2, 55, 0
4, 76800, Note_on_c, 2, 50, 109
4, 76950, Note_on_c, 2, 50, 0
4, 79104, Note_on_c, 2, 50, 55
4, 79842, Note_on_c, 2, 50, 0
4, 79872, Note_on_c, 2, 55, 103
4, 79962, Note_on_c, 2, 55, 0
4, 79968, Note_on_c, 2, 55, 103
4, 80058, Note_on_c, 2, 55, 0
4, 80064, Note_on_c, 2, 55, 103
4, 80154, Note_on_c, 2, 55, 0
4, 80160, Note_on_c, 2, 55, 103
4, 80250, Note_on_c, 2, 55, 0
4, 80256, Note_on_c, 2, 55, 103
4, 80346, Note_on_c, 2, 55, 0
4, 80352, Note_on_c, 2, 55, 103
4, 80442, Note_on_c, 2, 55, 0
4, 80448, Note_on_c, 2, 55, 103
4, 80538, Note_on_c, 2, 55, 0
4, 80544, Note_on_c, 2, 55, 103
4, 80634, Note_on_c, 2, 55, 0
4, 80640, Note_on_c, 2, 55, 103
4, 80730, Note_on_c, 2, 55, 0
4, 80736, Note_on_c, 2, 55, 103
4, 80826, Note_on_c, 2, 55, 0
4, 80832, Note_on_c, 2, 55, 103
4, 80922, Note_on_c, 2, 55, 0
4, 80928, Note_on_c, 2, 55, 103
4, 81018, Note_on_c, 2, 55, 0
4, 81024, Note_on_c, 2, 55, 103
4, 81114, Note_on_c, 2, 55, 0
4, 81120, Note_on_c, 2, 55, 103
4, 81210, Note_on_c, 2, 55, 0
4, 81216, Note_on_c, 2, 55, 103
4, 81306, Note_on_c, 2, 55, 0
4, 81312, Note_on_c, 2, 55, 103
4, 81402, Note_on_c, 2, 55, 0
4, 81408, Note_on_c, 2, 55, 103
4, 81498, Note_on_c, 2, 55, 0
4, 81504, Note_on_c, 2, 55, 103
4, 81594, Note_on_c, 2, 55, 0
4, 81600, Note_on_c, 2, 55, 103
4, 81690, Note_on_c, 2, 55, 0
4, 81696, Note_on_c, 2, 55, 103
4, 81786, Note_on_c, 2, 55, 0
4, 81792, Note_on_c, 2, 55, 103
4, 81882, Note_on_c, 2, 55, 0
4, 81888, Note_on_c, 2, 55, 103
4, 81978, Note_on_c, 2, 55, 0
4, 81984, Note_on_c, 2, 55, 103
4, 82074, Note_on_c, 2, 55, 0
4, 82080, Note_on_c, 2, 55, 103
4, 82170, Note_on_c, 2, 55, 0
4, 82176, Note_on_c, 2, 55, 103
4, 82266, Note_on_c, 2, 55, 0
4, 82272, Note_on_c, 2, 55, 103
4, 82362, Note_on_c, 2, 55, 0
4, 82368, Note_on_c, 2, 55, 103
4, 82458, Note_on_c, 2, 55, 0
4, 82464, Note_on_c, 2, 55, 103
4, 82554, Note_on_c, 2, 55, 0
4, 82560, Note_on_c, 2, 55, 103
4, 82650, Note_on_c, 2, 55, 0
4, 82656, Note_on_c, 2, 55, 103
4, 82746, Note_on_c, 2, 55, 0
4, 82752, Note_on_c, 2, 55, 103
4, 82842, Note_on_c, 2, 55, 0
4, 82848, Note_on_c, 2, 55, 103
4, 82938, Note_on_c, 2, 55, 0
4, 82944, Note_on_c, 2, 55, 103
4, 83084, Note_on_c, 2, 55, 0
4, 83136, Note_on_c, 2, 62, 89
4, 83222, Note_on_c, 2, 62, 0
4, 83283, Note_on_c, 2, 62, 89
4, 83307, Note_on_c, 2, 62, 0
4, 83328, Note_on_c, 2, 62, 89
4, 83472, Note_on_c, 2, 62, 0
4, 83520, Note_on_c, 2, 62, 89
4, 83544, Note_on_c, 2, 62, 0
4, 83544, Note_on_c, 2, 60, 89
4, 83568, Note_on_c, 2, 60, 0
4, 83568, Note_on_c, 2, 62, 89
4, 83592, Note_on_c, 2, 62, 0
4, 83592, Note_on_c, 2, 60, 89
4, 83616, Note_on_c, 2, 60, 0
4, 83616, Note_on_c, 2, 59, 89
4, 83664, Note_on_c, 2, 59, 0
4, 83664, Note_on_c, 2, 60, 89
4, 83698, Note_on_c, 2, 60, 0
4, 83712, Note_on_c, 2, 59, 89
4, 83844, Note_on_c, 2, 59, 0
4, 83904, Note_on_c, 2, 59, 89
4, 83990, Note_on_c, 2, 59, 0
4, 84051, Note_on_c, 2, 59, 89
4, 84075, Note_on_c, 2, 59, 0
4, 84096, Note_on_c, 2, 59, 89
4, 84240, Note_on_c, 2, 59, 0
4, 84288, Note_on_c, 2, 59, 89
4, 84312, Note_on_c, 2, 59, 0
4, 84312, Note_on_c, 2, 57, 89
4, 84336, Note_on_c, 2, 57, 0
4, 84336, Note_on_c, 2, 59, 89
4, 84360, Note_on_c, 2, 59, 0
4, 84360, Note_on_c, 2, 57, 89
4, 84384, Note_on_c, 2, 57, 0
4, 84384, Note_on_c, 2, 55, 89
4, 84432, Note_on_c, 2, 55, 0
4, 84432, Note_on_c, 2, 57, 89
4, 84466, Note_on_c, 2, 57, 0
4, 87552, Note_on_c, 2, 65, 91
4, 87570, Control_c, 2, 11, 120
4, 87581, Control_c, 2, 11, 121
4, 87604, Control_c, 2, 11, 125
4, 87638, Control_c, 2, 11, 127
4, 87717, Control_c, 2, 11, 123
4, 87739, Control_c, 2, 11, 124
4, 87750, Control_c, 2, 11, 123
4, 87773, Control_c, 2, 11, 120
4, 87784, Control_c, 2, 11, 108
4, 87807, Control_c, 2, 11, 96
4, 87818, Control_c, 2, 11, 91
4, 87852, Control_c, 2, 11, 88
4, 87875, Control_c, 2, 11, 85
4, 87886, Control_c, 2, 11, 81
4, 87920, Control_c, 2, 11, 76
4, 87942, Control_c, 2, 11, 72
4, 87954, Control_c, 2, 11, 70
4, 87976, Control_c, 2, 11, 69
4, 88022, Control_c, 2, 11, 64
4, 88044, Control_c, 2, 11, 61
4, 88259, Control_c, 2, 11, 62
4, 89014, Note_on_c, 2, 65, 0
4, 89083, Control_c, 2, 11, 127
4, 89088, Note_on_c, 2, 65, 91
4, 89377, Control_c, 2, 11, 123
4, 89399, Control_c, 2, 11, 120
4, 89411, Control_c, 2, 11, 115
4, 89433, Control_c, 2, 11, 112
4, 89445, Control_c, 2, 11, 105
4, 89467, Control_c, 2, 11, 91
4, 89478, Control_c, 2, 11, 84
4, 89501, Control_c, 2, 11, 79
4, 89512, Control_c, 2, 11, 76
4, 89535, Control_c, 2, 11, 70
4, 89546, Control_c, 2, 11, 69
4, 89569, Control_c, 2, 11, 66
4, 89580, Control_c, 2, 11, 64
4, 89614, Control_c, 2, 11, 63
4, 90566, Note_on_c, 2, 65, 0
4, 90619, Control_c, 2, 11, 125
4, 90624, Note_on_c, 2, 63, 91
4, 90630, Control_c, 2, 11, 127
4, 90755, Control_c, 2, 11, 126
4, 90766, Control_c, 2, 11, 124
4, 90789, Control_c, 2, 11, 118
4, 90800, Control_c, 2, 11, 112
4, 90822, Control_c, 2, 11, 105
4, 90834, Control_c, 2, 11, 99
4, 90856, Control_c, 2, 11, 94
4, 90868, Control_c, 2, 11, 91
4, 90902, Control_c, 2, 11, 87
4, 90924, Control_c, 2, 11, 84
4, 90935, Control_c, 2, 11, 81
4, 90958, Control_c, 2, 11, 75
4, 90992, Control_c, 2, 11, 70
4, 91003, Control_c, 2, 11, 67
4, 92102, Note_on_c, 2, 63, 0
4, 92160, Note_on_c, 2, 63, 91
4, 92182, Control_c, 2, 11, 126
4, 92318, Control_c, 2, 11, 123
4, 92329, Control_c, 2, 11, 120
4, 92352, Control_c, 2, 11, 108
4, 92385, Control_c, 2, 11, 97
4, 92397, Control_c, 2, 11, 96
4, 92419, Control_c, 2, 11, 90
4, 92431, Control_c, 2, 11, 87
4, 92453, Control_c, 2, 11, 84
4, 92487, Control_c, 2, 11, 79
4, 92498, Control_c, 2, 11, 76
4, 92521, Control_c, 2, 11, 72
4, 92532, Control_c, 2, 11, 70
4, 92555, Control_c, 2, 11, 69
4, 92566, Control_c, 2, 11, 67
4, 92589, Control_c, 2, 11, 66
4, 92600, Control_c, 2, 11, 64
4, 92623, Control_c, 2, 11, 63
4, 93638, Note_on_c, 2, 63, 0
4, 93696, Control_c, 2, 11, 123
4, 93696, Note_on_c, 2, 63, 92
4, 93718, Control_c, 2, 11, 124
4, 93752, Control_c, 2, 11, 125
4, 93775, Control_c, 2, 11, 127
4, 93921, Control_c, 2, 11, 124
4, 93944, Control_c, 2, 11, 120
4, 93955, Control_c, 2, 11, 117
4, 93978, Control_c, 2, 11, 114
4, 93989, Control_c, 2, 11, 111
4, 94012, Control_c, 2, 11, 103
4, 94046, Control_c, 2, 11, 97
4, 94057, Control_c, 2, 11, 91
4, 94091, Control_c, 2, 11, 82
4, 94113, Control_c, 2, 11, 81
4, 94125, Control_c, 2, 11, 78
4, 94147, Control_c, 2, 11, 75
4, 94159, Control_c, 2, 11, 72
4, 94181, Control_c, 2, 11, 70
4, 94192, Control_c, 2, 11, 69
4, 95174, Note_on_c, 2, 63, 0
4, 95232, Control_c, 2, 11, 121
4, 95232, Note_on_c, 2, 63, 92
4, 95277, Control_c, 2, 11, 122
4, 95299, Control_c, 2, 11, 124
4, 95311, Control_c, 2, 11, 127
4, 95344, Control_c, 2, 11, 126
4, 95378, Control_c, 2, 11, 120
4, 95401, Control_c, 2, 11, 114
4, 95412, Control_c, 2, 11, 111
4, 95435, Control_c, 2, 11, 108
4, 95446, Control_c, 2, 11, 100
4, 95480, Control_c, 2, 11, 88
4, 95503, Control_c, 2, 11, 79
4, 95514, Control_c, 2, 11, 75
4, 95536, Control_c, 2, 11, 73
4, 95548, Control_c, 2, 11, 72
4, 96790, Control_c, 2, 11, 67
4, 96835, Control_c, 2, 11, 66
4, 96869, Control_c, 2, 11, 64
4, 96892, Control_c, 2, 11, 63
4, 96903, Control_c, 2, 11, 61
4, 96937, Control_c, 2, 11, 60
4, 96946, Note_on_c, 2, 63, 0
4, 96960, Control_c, 2, 11, 58
4, 99779, Control_c, 2, 11, 64
4, 99840, Note_on_c, 2, 56, 65
4, 99841, Control_c, 2, 11, 65
4, 99847, Control_c, 2, 11, 67
4, 99861, Control_c, 2, 11, 70
4, 99868, Control_c, 2, 11, 71
4, 99882, Control_c, 2, 11, 74
4, 99889, Control_c, 2, 11, 76
4, 99902, Control_c, 2, 11, 79
4, 99909, Control_c, 2, 11, 80
4, 99923, Control_c, 2, 11, 82
4, 99930, Control_c, 2, 11, 83
4, 99943, Control_c, 2, 11, 85
4, 99950, Control_c, 2, 11, 86
4, 99971, Control_c, 2, 11, 88
4, 99991, Control_c, 2, 11, 89
4, 100005, Control_c, 2, 11, 91
4, 100026, Control_c, 2, 11, 94
4, 100046, Control_c, 2, 11, 95
4, 100053, Control_c, 2, 11, 97
4, 100074, Control_c, 2, 11, 100
4, 100094, Control_c, 2, 11, 101
4, 100108, Control_c, 2, 11, 103
4, 100149, Control_c, 2, 11, 106
4, 100156, Control_c, 2, 11, 107
4, 100218, Control_c, 2, 11, 109
4, 100238, Control_c, 2, 11, 108
4, 100375, Control_c, 2, 11, 107
4, 100513, Control_c, 2, 11, 106
4, 100650, Control_c, 2, 11, 105
4, 100779, Control_c, 2, 11, 105
4, 100868, Control_c, 2, 11, 104
4, 100957, Control_c, 2, 11, 103
4, 101046, Control_c, 2, 11, 102
4, 101129, Control_c, 2, 11, 101
4, 101218, Control_c, 2, 11, 100
4, 101307, Control_c, 2, 11, 99
4, 101396, Control_c, 2, 11, 98
4, 101478, Control_c, 2, 11, 97
4, 101568, Control_c, 2, 11, 96
4, 101657, Control_c, 2, 11, 95
4, 101746, Control_c, 2, 11, 94
4, 101828, Control_c, 2, 11, 93
4, 101917, Control_c, 2, 11, 92
4, 102006, Control_c, 2, 11, 91
4, 102089, Control_c, 2, 11, 89
4, 102178, Control_c, 2, 11, 88
4, 102260, Control_c, 2, 11, 87
4, 102342, Control_c, 2, 11, 86
4, 102425, Control_c, 2, 11, 85
4, 102507, Control_c, 2, 11, 84
4, 102589, Control_c, 2, 11, 83
4, 102672, Control_c, 2, 11, 82
4, 102754, Control_c, 2, 11, 81
4, 102774, Control_c, 2, 11, 80
4, 102795, Control_c, 2, 11, 79
4, 102809, Control_c, 2, 11, 78
4, 102829, Control_c, 2, 11, 77
4, 102836, Control_c, 2, 11, 76
4, 102843, Control_c, 2, 11, 74
4, 102850, Control_c, 2, 11, 72
4, 102857, Control_c, 2, 11, 70
4, 102864, Control_c, 2, 11, 68
4, 102870, Control_c, 2, 11, 66
4, 102877, Control_c, 2, 11, 64
4, 102882, Note_on_c, 2, 56, 0
4, 102884, Control_c, 2, 11, 62
4, 103007, Control_c, 2, 11, 127
4, 103008, Note_on_c, 2, 59, 88
4, 103104, Note_on_c, 2, 59, 0
4, 103104, Note_on_c, 2, 60, 79
4, 103200, Note_on_c, 2, 60, 0
4, 103200, Note_on_c, 2, 59, 71
4, 103296, Note_on_c, 2, 59, 0
4, 103296, Note_on_c, 2, 60, 55
4, 103392, Note_on_c, 2, 60, 0
4, 103392, Note_on_c, 2, 59, 54
4, 103488, Note_on_c, 2, 59, 0
4, 103488, Note_on_c, 2, 60, 54
4, 103584, Note_on_c, 2, 60, 0
4, 103584, Note_on_c, 2, 59, 53
4, 103680, Note_on_c, 2, 59, 0
4, 103680, Note_on_c, 2, 60, 53
4, 104544, Note_on_c, 2, 60, 0
4, 104544, Note_on_c, 2, 59, 80
4, 104640, Note_on_c, 2, 59, 0
4, 104640, Note_on_c, 2, 60, 63
4, 104736, Note_on_c, 2, 60, 0
4, 104736, Note_on_c, 2, 59, 55
4, 104832, Note_on_c, 2, 59, 0
4, 104832, Note_on_c, 2, 60, 55
4, 104928, Note_on_c, 2, 60, 0
4, 104928, Note_on_c, 2, 59, 55
4, 105024, Note_on_c, 2, 59, 0
4, 105024, Note_on_c, 2, 60, 55
4, 105120, Note_on_c, 2, 60, 0
4, 105120, Note_on_c, 2, 59, 55
4, 105216, Note_on_c, 2, 59, 0
4, 105216, Note_on_c, 2, 60, 55
4, 106080, Note_on_c, 2, 60, 0
4, 106080, Note_on_c, 2, 59, 80
4, 106176, Note_on_c, 2, 59, 0
4, 106176, Note_on_c, 2, 60, 64
4, 106272, Note_on_c, 2, 60, 0
4, 106272, Note_on_c, 2, 59, 58
4, 106368, Note_on_c, 2, 59, 0
4, 106368, Note_on_c, 2, 60, 55
4, 106464, Note_on_c, 2, 60, 0
4, 106464, Note_on_c, 2, 59, 55
4, 106560, Note_on_c, 2, 59, 0
4, 106560, Note_on_c, 2, 60, 55
4, 106656, Note_on_c, 2, 60, 0
4, 106656, Note_on_c, 2, 59, 55
4, 106738, Note_on_c, 2, 59, 0
4, 106747, Control_c, 2, 11, 122
4, 106752, Note_on_c, 2, 60, 55
4, 106788, Control_c, 2, 11, 121
4, 106809, Control_c, 2, 11, 119
4, 106829, Control_c, 2, 11, 118
4, 106836, Control_c, 2, 11, 116
4, 106857, Control_c, 2, 11, 113
4, 106870, Control_c, 2, 11, 112
4, 106877, Control_c, 2, 11, 107
4, 106898, Control_c, 2, 11, 103
4, 106912, Control_c, 2, 11, 95
4, 106918, Control_c, 2, 11, 91
4, 106925, Control_c, 2, 11, 86
4, 106932, Control_c, 2, 11, 81
4, 106939, Control_c, 2, 11, 77
4, 106946, Control_c, 2, 11, 72
4, 106953, Control_c, 2, 11, 67
4, 106960, Control_c, 2, 11, 62
4, 106968, Note_on_c, 2, 60, 0
4, 107316, Control_c, 2, 11, 127
4, 107616, Note_on_c, 2, 54, 84
4, 107712, Note_on_c, 2, 54, 0
4, 107712, Note_on_c, 2, 55, 63
4, 107808, Note_on_c, 2, 55, 0
4, 107808, Note_on_c, 2, 54, 55
4, 107904, Note_on_c, 2, 54, 0
4, 107904, Note_on_c, 2, 55, 55
4, 108000, Note_on_c, 2, 55, 0
4, 108000, Note_on_c, 2, 54, 55
4, 108096, Note_on_c, 2, 54, 0
4, 108096, Note_on_c, 2, 55, 55
4, 108192, Note_on_c, 2, 55, 0
4, 108192, Note_on_c, 2, 54, 55
4, 108282, Note_on_c, 2, 54, 0
4, 108288, Note_on_c, 2, 55, 55
4, 109152, Note_on_c, 2, 55, 0
4, 109152, Note_on_c, 2, 54, 79
4, 109248, Note_on_c, 2, 54, 0
4, 109248, Note_on_c, 2, 55, 64
4, 109344, Note_on_c, 2, 55, 0
4, 109344, Note_on_c, 2, 54, 55
4, 109440, Note_on_c, 2, 54, 0
4, 109440, Note_on_c, 2, 55, 55
4, 109536, Note_on_c, 2, 55, 0
4, 109536, Note_on_c, 2, 54, 55
4, 109632, Note_on_c, 2, 54, 0
4, 109632, Note_on_c, 2, 55, 55
4, 109728, Note_on_c, 2, 55, 0
4, 109728, Note_on_c, 2, 54, 55
4, 109818, Note_on_c, 2, 54, 0
4, 109824, Note_on_c, 2, 55, 55
4, 110688, Note_on_c, 2, 55, 0
4, 110688, Note_on_c, 2, 54, 81
4, 110784, Note_on_c, 2, 54, 0
4, 110784, Note_on_c, 2, 55, 63
4, 110880, Note_on_c, 2, 55, 0
4, 110880, Note_on_c, 2, 54, 55
4, 110976, Note_on_c, 2, 54, 0
4, 110976, Note_on_c, 2, 55, 55
4, 111072, Note_on_c, 2, 55, 0
4, 111072, Note_on_c, 2, 54, 55
4, 111168, Note_on_c, 2, 54, 0
4, 111168, Note_on_c, 2, 55, 55
4, 111264, Note_on_c, 2, 55, 0
4, 111264, Note_on_c, 2, 54, 55
4, 111354, Note_on_c, 2, 54, 0
4, 111360, Note_on_c, 2, 55, 55
4, 112114, Note_on_c, 2, 55, 0
4, 116736, Note_on_c, 2, 55, 58
4, 116914, Note_on_c, 2, 55, 0
4, 117120, Note_on_c, 2, 55, 58
4, 117298, Note_on_c, 2, 55, 0
4, 117504, Note_on_c, 2, 55, 58
4, 117682, Note_on_c, 2, 55, 0
4, 118272, Note_on_c, 2, 55, 49
4, 118450, Note_on_c, 2, 55, 0
4, 118656, Note_on_c, 2, 55, 49
4, 118834, Note_on_c, 2, 55, 0
4, 119040, Note_on_c, 2, 55, 49
4, 119218, Note_on_c, 2, 55, 0
4, 121348, Note_on_c, 2, 60, 116
4, 121350, Control_c, 2, 11, 125
4, 121364, Control_c, 2, 11, 127
4, 121440, Control_c, 2, 11, 127
4, 121488, Control_c, 2, 11, 125
4, 121501, Control_c, 2, 11, 124
4, 121522, Control_c, 2, 11, 121
4, 121529, Control_c, 2, 11, 118
4, 121542, Control_c, 2, 11, 116
4, 121549, Control_c, 2, 11, 113
4, 121563, Control_c, 2, 11, 112
4, 121570, Control_c, 2, 11, 110
4, 121584, Control_c, 2, 11, 109
4, 121611, Control_c, 2, 11, 107
4, 121632, Control_c, 2, 11, 106
4, 121652, Control_c, 2, 11, 104
4, 121756, Note_on_c, 2, 60, 0
4, 122016, Control_c, 2, 11, 127
4, 122064, Note_on_c, 2, 48, 116
4, 122094, Note_on_c, 2, 48, 0
4, 122112, Note_on_c, 2, 48, 116
4, 122118, Control_c, 2, 11, 119
4, 122166, Control_c, 2, 11, 120
4, 122180, Control_c, 2, 11, 122
4, 122187, Control_c, 2, 11, 123
4, 122201, Control_c, 2, 11, 125
4, 122208, Control_c, 2, 11, 126
4, 122221, Control_c, 2, 11, 127
4, 122228, Control_c, 2, 11, 123
4, 122245, Control_c, 2, 11, 121
4, 122254, Control_c, 2, 11, 118
4, 122267, Control_c, 2, 11, 114
4, 122271, Control_c, 2, 11, 111
4, 122280, Control_c, 2, 11, 109
4, 122285, Control_c, 2, 11, 108
4, 122302, Control_c, 2, 11, 106
4, 122311, Control_c, 2, 11, 107
4, 122359, Control_c, 2, 11, 106
4, 122398, Control_c, 2, 11, 105
4, 122411, Control_c, 2, 11, 103
4, 122415, Control_c, 2, 11, 102
4, 122573, Control_c, 2, 11, 100
4, 122607, Control_c, 2, 11, 99
4, 122625, Control_c, 2, 11, 97
4, 122660, Control_c, 2, 11, 96
4, 122672, Note_on_c, 2, 48, 0
4, 122677, Control_c, 2, 11, 94
4, 122832, Control_c, 2, 11, 127
4, 122832, Note_on_c, 2, 43, 116
4, 122848, Note_on_c, 2, 45, 116
4, 122864, Note_on_c, 2, 45, 0
4, 122864, Note_on_c, 2, 47, 116
4, 122880, Note_on_c, 2, 47, 0
4, 122880, Note_on_c, 2, 43, 0
4, 122880, Note_on_c, 2, 48, 116
4, 122968, Note_on_c, 2, 48, 0
4, 123072, Note_on_c, 2, 52, 116
4, 123160, Note_on_c, 2, 52, 0
4, 123264, Note_on_c, 2, 55, 116
4, 123352, Note_on_c, 2, 55, 0
4, 123456, Note_on_c, 2, 60, 116
4, 123543, Note_on_c, 2, 60, 0
4, 123624, Note_on_c, 2, 60, 116
4, 123648, Note_on_c, 2, 59, 116
4, 123656, Note_on_c, 2, 60, 0
4, 123668, Pitch_bend_c, 2, 12287
4, 123696, Note_on_c, 2, 59, 0
4, 123696, Pitch_bend_c, 2, 8192
4, 123696, Note_on_c, 2, 59, 116
4, 123754, Note_on_c, 2, 59, 0
4, 123795, Note_on_c, 2, 57, 116
4, 123827, Note_on_c, 2, 57, 0
4, 123840, Note_on_c, 2, 55, 116
4, 123988, Note_on_c, 2, 55, 0
4, 124424, Note_on_c, 2, 64, 103
4, 124528, Note_on_c, 2, 64, 0
4, 124608, Note_on_c, 2, 64, 103
4, 124694, Note_on_c, 2, 64, 0
4, 124757, Note_on_c, 2, 64, 103
4, 124785, Note_on_c, 2, 64, 0
4, 124800, Note_on_c, 2, 64, 103
4, 124898, Note_on_c, 2, 64, 0
4, 124992, Note_on_c, 2, 64, 103
4, 125090, Note_on_c, 2, 64, 0
4, 125184, Note_on_c, 2, 65, 82
4, 125884, Note_on_c, 2, 65, 0
4, 125952, Note_on_c, 2, 64, 103
4, 126056, Note_on_c, 2, 64, 0
4, 126144, Note_on_c, 2, 64, 103
4, 126230, Note_on_c, 2, 64, 0
4, 126293, Note_on_c, 2, 64, 103
4, 126321, Note_on_c, 2, 64, 0
4, 126336, Note_on_c, 2, 64, 103
4, 126434, Note_on_c, 2, 64, 0
4, 126528, Note_on_c, 2, 64, 103
4, 126626, Note_on_c, 2, 64, 0
4, 126720, Note_on_c, 2, 65, 82
4, 127420, Note_on_c, 2, 65, 0
4, 127488, Note_on_c, 2, 65, 103
4, 127592, Note_on_c, 2, 65, 0
4, 127680, Note_on_c, 2, 65, 103
4, 127766, Note_on_c, 2, 65, 0
4, 127829, Note_on_c, 2, 65, 103
4, 127857, Note_on_c, 2, 65, 0
4, 127872, Note_on_c, 2, 65, 103
4, 127970, Note_on_c, 2, 65, 0
4, 128064, Note_on_c, 2, 65, 103
4, 128162, Note_on_c, 2, 65, 0
4, 128256, Note_on_c, 2, 63, 82
4, 128956, Note_on_c, 2, 63, 0
4, 129024, Note_on_c, 2, 63, 103
4, 129128, Note_on_c, 2, 63, 0
4, 129216, Note_on_c, 2, 63, 103
4, 129302, Note_on_c, 2, 63, 0
4, 129365, Note_on_c, 2, 63, 103
4, 129393, Note_on_c, 2, 63, 0
4, 129408, Note_on_c, 2, 63, 103
4, 129506, Note_on_c, 2, 63, 0
4, 129600, Note_on_c, 2, 63, 103
4, 129698, Note_on_c, 2, 63, 0
4, 129792, Note_on_c, 2, 62, 82
4, 130492, Note_on_c, 2, 62, 0
4, 130560, Note_on_c, 2, 62, 103
4, 130664, Note_on_c, 2, 62, 0
4, 130752, Note_on_c, 2, 62, 103
4, 130838, Note_on_c, 2, 62, 0
4, 130901, Note_on_c, 2, 62, 103
4, 130929, Note_on_c, 2, 62, 0
4, 130944, Note_on_c, 2, 62, 103
4, 131042, Note_on_c, 2, 62, 0
4, 131136, Note_on_c, 2, 62, 103
4, 131234, Note_on_c, 2, 62, 0
4, 131328, Note_on_c, 2, 62, 103
4, 131432, Note_on_c, 2, 62, 0
4, 131520, Note_on_c, 2, 60, 103
4, 131624, Note_on_c, 2, 60, 0
4, 131712, Note_on_c, 2, 59, 103
4, 131816, Note_on_c, 2, 59, 0
4, 131904, Note_on_c, 2, 60, 103
4, 132008, Note_on_c, 2, 60, 0
4, 132096, Note_on_c, 2, 59, 103
4, 132200, Note_on_c, 2, 59, 0
4, 132288, Note_on_c, 2, 60, 103
4, 132392, Note_on_c, 2, 60, 0
4, 132480, Note_on_c, 2, 59, 103
4, 132584, Note_on_c, 2, 59, 0
4, 132672, Note_on_c, 2, 60, 103
4, 132776, Note_on_c, 2, 60, 0
4, 132864, Note_on_c, 2, 59, 103
4, 132998, Note_on_c, 2, 59, 0
4, 133203, Note_on_c, 2, 55, 116
4, 133227, Note_on_c, 2, 55, 0
4, 133248, Note_on_c, 2, 55, 116
4, 133382, Note_on_c, 2, 55, 0
4, 133587, Note_on_c, 2, 43, 116
4, 133611, Note_on_c, 2, 43, 0
4, 133632, Note_on_c, 2, 43, 116
4, 133810, Note_on_c, 2, 43, 0
4, 134400, Note_on_c, 2, 43, 116
4, 134830, Note_on_c, 2, 43, 0
4, 134880, Note_on_c, 2, 45, 116
4, 134916, Note_on_c, 2, 45, 0
4, 134928, Note_on_c, 2, 47, 116
4, 134964, Note_on_c, 2, 47, 0
4, 134976, Note_on_c, 2, 48, 116
4, 135012, Note_on_c, 2, 48, 0
4, 135024, Note_on_c, 2, 50, 116
4, 135060, Note_on_c, 2, 50, 0
4, 135072, Note_on_c, 2, 52, 116
4, 135108, Note_on_c, 2, 52, 0
4, 135120, Note_on_c, 2, 54, 116
4, 135156, Note_on_c, 2, 54, 0
4, 135168, Note_on_c, 2, 55, 116
4, 135346, Note_on_c, 2, 55, 0
4, 136896, Control_c, 2, 11, 94
4, 136896, Note_on_c, 2, 60, 73
4, 136904, Control_c, 2, 11, 96
4, 136922, Control_c, 2, 11, 97
4, 136930, Control_c, 2, 11, 98
4, 136939, Control_c, 2, 11, 99
4, 136948, Control_c, 2, 11, 100
4, 136957, Control_c, 2, 11, 101
4, 136965, Control_c, 2, 11, 102
4, 136974, Control_c, 2, 11, 103
4, 136983, Control_c, 2, 11, 104
4, 137000, Control_c, 2, 11, 105
4, 137009, Control_c, 2, 11, 106
4, 137018, Control_c, 2, 11, 107
4, 137026, Control_c, 2, 11, 108
4, 137035, Control_c, 2, 11, 109
4, 137044, Control_c, 2, 11, 110
4, 137053, Control_c, 2, 11, 111
4, 137061, Control_c, 2, 11, 112
4, 137088, Note_on_c, 2, 60, 0
4, 137088, Control_c, 2, 11, 113
4, 137088, Note_on_c, 2, 59, 69
4, 137114, Control_c, 2, 11, 114
4, 137131, Control_c, 2, 11, 115
4, 137157, Control_c, 2, 11, 116
4, 137175, Control_c, 2, 11, 117
4, 137201, Control_c, 2, 11, 118
4, 137227, Control_c, 2, 11, 119
4, 137245, Control_c, 2, 11, 120
4, 137271, Control_c, 2, 11, 121
4, 137280, Note_on_c, 2, 59, 0
4, 137280, Note_on_c, 2, 58, 69
4, 137288, Control_c, 2, 11, 122
4, 137314, Control_c, 2, 11, 123
4, 137341, Control_c, 2, 11, 124
4, 137358, Control_c, 2, 11, 125
4, 137384, Control_c, 2, 11, 126
4, 137402, Control_c, 2, 11, 127
4, 137472, Note_on_c, 2, 58, 0
4, 137472, Note_on_c, 2, 57, 69
4, 137480, Control_c, 2, 11, 127
4, 137533, Control_c, 2, 11, 126
4, 137585, Control_c, 2, 11, 125
4, 137637, Control_c, 2, 11, 124
4, 137664, Note_on_c, 2, 57, 0
4, 137664, Note_on_c, 2, 56, 70
4, 137681, Control_c, 2, 11, 123
4, 137733, Control_c, 2, 11, 122
4, 137786, Control_c, 2, 11, 121
4, 137829, Control_c, 2, 11, 120
4, 137856, Note_on_c, 2, 56, 0
4, 137856, Note_on_c, 2, 55, 70
4, 137882, Control_c, 2, 11, 119
4, 137934, Control_c, 2, 11, 118
4, 137978, Control_c, 2, 11, 117
4, 138048, Note_on_c, 2, 55, 0
4, 138048, Note_on_c, 2, 53, 70
4, 138048, Control_c, 2, 11, 127
4, 138216, Note_on_c, 2, 53, 0
4, 138240, Note_on_c, 2, 52, 68
4, 138412, Note_on_c, 2, 52, 0
4, 138624, Note_on_c, 2, 45, 55
4, 138792, Note_on_c, 2, 45, 0
4, 139008, Note_on_c, 2, 50, 55
4, 139176, Note_on_c, 2, 50, 0
4, 139392, Note_on_c, 2, 43, 55
4, 139560, Note_on_c, 2, 43, 0
4, 139776, Note_on_c, 2, 48, 55
4, 139944, Note_on_c, 2, 48, 0
4, 140160, Note_on_c, 2, 45, 55
4, 140328, Note_on_c, 2, 45, 0
4, 140544, Note_on_c, 2, 41, 58
4, 140872, Note_on_c, 2, 41, 0
4, 140928, Note_on_c, 2, 43, 55
4, 141048, Note_on_c, 2, 43, 0
4, 141120, Note_on_c, 2, 43, 55
4, 141239, Note_on_c, 2, 43, 0
4, 141312, Note_on_c, 2, 48, 55
4, 141426, Note_on_c, 2, 48, 0
4, 141504, Note_on_c, 2, 60, 55
4, 141624, Note_on_c, 2, 60, 0
4, 142839, Control_c, 2, 11, 94
4, 142848, Note_on_c, 2, 48, 55
4, 142856, Control_c, 2, 11, 95
4, 142865, Control_c, 2, 11, 96
4, 142882, Control_c, 2, 11, 98
4, 142891, Control_c, 2, 11, 99
4, 142909, Control_c, 2, 11, 101
4, 142935, Control_c, 2, 11, 104
4, 142970, Control_c, 2, 11, 105
4, 143013, Control_c, 2, 11, 107
4, 143022, Control_c, 2, 11, 108
4, 143040, Control_c, 2, 11, 110
4, 143074, Control_c, 2, 11, 111
4, 143153, Control_c, 2, 11, 113
4, 143258, Control_c, 2, 11, 114
4, 144331, Control_c, 2, 11, 110
4, 144340, Control_c, 2, 11, 109
4, 144384, Control_c, 2, 11, 107
4, 144392, Control_c, 2, 11, 104
4, 144410, Control_c, 2, 11, 101
4, 144436, Control_c, 2, 11, 100
4, 144445, Control_c, 2, 11, 99
4, 144471, Control_c, 2, 11, 97
4, 144488, Control_c, 2, 11, 96
4, 144497, Control_c, 2, 11, 94
4, 144514, Control_c, 2, 11, 91
4, 144541, Control_c, 2, 11, 88
4, 144548, Note_on_c, 2, 48, 0
4, 144549, Control_c, 2, 11, 84
4, 144567, Control_c, 2, 11, 80
4, 144768, Note_on_c, 2, 57, 55
4, 144768, Control_c, 2, 11, 127
4, 144936, Note_on_c, 2, 57, 0
4, 145152, Note_on_c, 2, 50, 55
4, 145320, Note_on_c, 2, 50, 0
4, 145536, Note_on_c, 2, 55, 55
4, 145704, Note_on_c, 2, 55, 0
4, 145920, Note_on_c, 2, 48, 55
4, 146088, Note_on_c, 2, 48, 0
4, 146304, Note_on_c, 2, 57, 55
4, 146472, Note_on_c, 2, 57, 0
4, 146688, Note_on_c, 2, 53, 55
4, 146852, Note_on_c, 2, 53, 0
4, 147072, Note_on_c, 2, 55, 55
4, 147236, Note_on_c, 2, 55, 0
4, 147456, Note_on_c, 2, 57, 55
4, 147620, Note_on_c, 2, 57, 0
4, 148224, Note_on_c, 2, 55, 55
4, 148388, Note_on_c, 2, 55, 0
4, 148608, Note_on_c, 2, 57, 55
4, 148772, Note_on_c, 2, 57, 0
4, 148992, Note_on_c, 2, 52, 55
4, 149156, Note_on_c, 2, 52, 0
4, 150700, Control_c, 2, 11, 122
4, 150720, Note_on_c, 2, 64, 52
4, 150828, Note_on_c, 2, 64, 0
4, 150912, Note_on_c, 2, 64, 52
4, 151020, Note_on_c, 2, 64, 0
4, 151104, Note_on_c, 2, 64, 52
4, 151212, Note_on_c, 2, 64, 0
4, 151296, Note_on_c, 2, 64, 52
4, 151342, Control_c, 2, 11, 123
4, 151377, Control_c, 2, 11, 122
4, 151390, Control_c, 2, 11, 121
4, 151403, Control_c, 2, 11, 120
4, 151407, Control_c, 2, 11, 119
4, 151412, Control_c, 2, 11, 118
4, 151416, Control_c, 2, 11, 117
4, 151429, Control_c, 2, 11, 114
4, 151434, Control_c, 2, 11, 113
4, 151438, Control_c, 2, 11, 112
4, 151442, Control_c, 2, 11, 111
4, 151447, Control_c, 2, 11, 110
4, 151451, Control_c, 2, 11, 109
4, 151455, Control_c, 2, 11, 108
4, 151460, Control_c, 2, 11, 107
4, 151464, Control_c, 2, 11, 105
4, 151468, Control_c, 2, 11, 104
4, 151473, Control_c, 2, 11, 103
4, 151477, Control_c, 2, 11, 102
4, 151486, Control_c, 2, 11, 101
4, 151488, Note_on_c, 2, 64, 0
4, 151488, Note_on_c, 2, 65, 52
4, 151618, Note_on_c, 2, 65, 0
4, 152814, Control_c, 2, 11, 107
4, 152832, Note_on_c, 2, 55, 55
4, 152836, Control_c, 2, 11, 107
4, 152840, Control_c, 2, 11, 108
4, 152845, Control_c, 2, 11, 109
4, 152849, Control_c, 2, 11, 111
4, 152853, Control_c, 2, 11, 114
4, 152858, Control_c, 2, 11, 115
4, 152862, Control_c, 2, 11, 119
4, 152866, Control_c, 2, 11, 120
4, 152871, Control_c, 2, 11, 123
4, 152875, Control_c, 2, 11, 124
4, 152880, Control_c, 2, 11, 127
4, 153216, Note_on_c, 2, 55, 0
4, 153216, Note_on_c, 2, 43, 55
4, 153570, Note_on_c, 2, 43, 0
4, 153936, Note_on_c, 2, 60, 82
4, 153960, Note_on_c, 2, 60, 0
4, 153960, Note_on_c, 2, 62, 82
4, 153984, Note_on_c, 2, 62, 0
4, 153984, Note_on_c, 2, 64, 82
4, 154030, Control_c, 2, 11, 126
4, 154047, Control_c, 2, 11, 122
4, 154056, Control_c, 2, 11, 114
4, 154073, Control_c, 2, 11, 111
4, 154100, Control_c, 2, 11, 105
4, 154108, Control_c, 2, 11, 102
4, 154126, Control_c, 2, 11, 101
4, 154152, Control_c, 2, 11, 99
4, 154200, Note_on_c, 2, 64, 0
4, 154272, Note_on_c, 2, 64, 52
4, 154272, Control_c, 2, 11, 127
4, 154326, Note_on_c, 2, 64, 0
4, 154368, Note_on_c, 2, 62, 52
4, 154458, Note_on_c, 2, 62, 0
4, 154560, Note_on_c, 2, 60, 52
4, 154650, Note_on_c, 2, 60, 0
4, 154752, Note_on_c, 2, 59, 52
4, 154842, Note_on_c, 2, 59, 0
4, 154944, Note_on_c, 2, 62, 52
4, 155034, Note_on_c, 2, 62, 0
4, 155136, Note_on_c, 2, 60, 52
4, 155314, Note_on_c, 2, 60, 0
4, 155472, Note_on_c, 2, 52, 82
4, 155496, Note_on_c, 2, 52, 0
4, 155496, Note_on_c, 2, 53, 82
4, 155520, Note_on_c, 2, 53, 0
4, 155520, Note_on_c, 2, 55, 82
4, 155566, Control_c, 2, 11, 126
4, 155583, Control_c, 2, 11, 122
4, 155592, Control_c, 2, 11, 114
4, 155609, Control_c, 2, 11, 111
4, 155636, Control_c, 2, 11, 105
4, 155644, Control_c, 2, 11, 102
4, 155662, Control_c, 2, 11, 101
4, 155688, Control_c, 2, 11, 99
4, 155718, Note_on_c, 2, 55, 0
4, 155808, Note_on_c, 2, 55, 52
4, 155808, Control_c, 2, 11, 127
4, 155862, Note_on_c, 2, 55, 0
4, 155904, Note_on_c, 2, 53, 52
4, 155994, Note_on_c, 2, 53, 0
4, 156096, Note_on_c, 2, 52, 52
4, 156186, Note_on_c, 2, 52, 0
4, 156288, Note_on_c, 2, 50, 52
4, 156378, Note_on_c, 2, 50, 0
4, 156480, Note_on_c, 2, 53, 52
4, 156570, Note_on_c, 2, 53, 0
4, 156672, Note_on_c, 2, 52, 52
4, 156850, Note_on_c, 2, 52, 0
4, 157008, Note_on_c, 2, 60, 82
4, 157032, Note_on_c, 2, 60, 0
4, 157032, Note_on_c, 2, 62, 82
4, 157056, Note_on_c, 2, 62, 0
4, 157056, Note_on_c, 2, 64, 82
4, 157102, Control_c, 2, 11, 126
4, 157119, Control_c, 2, 11, 122
4, 157128, Control_c, 2, 11, 114
4, 157145, Control_c, 2, 11, 111
4, 157172, Control_c, 2, 11, 105
4, 157180, Control_c, 2, 11, 102
4, 157198, Control_c, 2, 11, 101
4, 157224, Control_c, 2, 11, 99
4, 157272, Note_on_c, 2, 64, 0
4, 157344, Note_on_c, 2, 64, 52
4, 157344, Control_c, 2, 11, 127
4, 157398, Note_on_c, 2, 64, 0
4, 157440, Note_on_c, 2, 62, 52
4, 157530, Note_on_c, 2, 62, 0
4, 157632, Note_on_c, 2, 60, 52
4, 157722, Note_on_c, 2, 60, 0
4, 157824, Note_on_c, 2, 59, 52
4, 157914, Note_on_c, 2, 59, 0
4, 158016, Note_on_c, 2, 62, 52
4, 158106, Note_on_c, 2, 62, 0
4, 158208, Note_on_c, 2, 60, 52
4, 158386, Note_on_c, 2, 60, 0
4, 158544, Note_on_c, 2, 52, 82
4, 158568, Note_on_c, 2, 52, 0
4, 158568, Note_on_c, 2, 53, 82
4, 158592, Note_on_c, 2, 53, 0
4, 158592, Note_on_c, 2, 55, 82
4, 158638, Control_c, 2, 11, 126
4, 158655, Control_c, 2, 11, 122
4, 158664, Control_c, 2, 11, 114
4, 158681, Control_c, 2, 11, 111
4, 158708, Control_c, 2, 11, 105
4, 158716, Control_c, 2, 11, 102
4, 158734, Control_c, 2, 11, 101
4, 158760, Control_c, 2, 11, 99
4, 158790, Note_on_c, 2, 55, 0
4, 158880, Control_c, 2, 11, 127
4, 158880, Note_on_c, 2, 55, 52
4, 158934, Note_on_c, 2, 55, 0
4, 158976, Note_on_c, 2, 53, 52
4, 159066, Note_on_c, 2, 53, 0
4, 159168, Note_on_c, 2, 52, 52
4, 159258, Note_on_c, 2, 52, 0
4, 159360, Note_on_c, 2, 50, 52
4, 159450, Note_on_c, 2, 50, 0
4, 159552, Note_on_c, 2, 53, 52
4, 159642, Note_on_c, 2, 53, 0
4, 159744, Note_on_c, 2, 64, 52
4, 159922, Note_on_c, 2, 64, 0
4, 160512, Note_on_c, 2, 67, 82
4, 161238, Note_on_c, 2, 67, 0
4, 161280, Note_on_c, 2, 65, 82
4, 161414, Note_on_c, 2, 65, 0
4, 161472, Note_on_c, 2, 67, 82
4, 161620, Note_on_c, 2, 67, 0
4, 161664, Note_on_c, 2, 65, 82
4, 161812, Note_on_c, 2, 65, 0
4, 161856, Note_on_c, 2, 67, 82
4, 162004, Note_on_c, 2, 67, 0
4, 162048, Note_on_c, 2, 65, 82
4, 162388, Note_on_c, 2, 65, 0
4, 162432, Note_on_c, 2, 64, 82
4, 162580, Note_on_c, 2, 64, 0
4, 162624, Note_on_c, 2, 65, 82
4, 162772, Note_on_c, 2, 65, 0
4, 162816, Note_on_c, 2, 64, 82
4, 162964, Note_on_c, 2, 64, 0
4, 163008, Note_on_c, 2, 65, 82
4, 163156, Note_on_c, 2, 65, 0
4, 163200, Note_on_c, 2, 64, 82
4, 163540, Note_on_c, 2, 64, 0
4, 163584, Note_on_c, 2, 64, 82
4, 163776, Note_on_c, 2, 64, 0
4, 163776, Note_on_c, 2, 65, 82
4, 164146, Note_on_c, 2, 65, 0
4, 164160, Note_on_c, 2, 65, 82
4, 164308, Note_on_c, 2, 65, 0
4, 164352, Note_on_c, 2, 64, 82
4, 164678, Note_on_c, 2, 64, 0
4, 164736, Note_on_c, 2, 64, 82
4, 165062, Note_on_c, 2, 64, 0
4, 165120, Note_on_c, 2, 64, 82
4, 165216, Note_on_c, 2, 64, 0
4, 165216, Note_on_c, 2, 67, 82
4, 165270, Note_on_c, 2, 67, 0
4, 165312, Note_on_c, 2, 67, 82
4, 165358, Note_on_c, 2, 67, 0
4, 165408, Note_on_c, 2, 67, 82
4, 165454, Note_on_c, 2, 67, 0
4, 165504, Note_on_c, 2, 67, 82
4, 165594, Note_on_c, 2, 67, 0
4, 165600, Note_on_c, 2, 65, 82
4, 165654, Note_on_c, 2, 65, 0
4, 165696, Note_on_c, 2, 64, 82
4, 165742, Note_on_c, 2, 64, 0
4, 165792, Note_on_c, 2, 62, 82
4, 165838, Note_on_c, 2, 62, 0
4, 165888, Note_on_c, 2, 60, 82
4, 166066, Note_on_c, 2, 60, 0
4, 166656, Note_on_c, 2, 67, 82
4, 167382, Note_on_c, 2, 67, 0
4, 167424, Note_on_c, 2, 65, 82
4, 167616, Note_on_c, 2, 65, 0
4, 167616, Note_on_c, 2, 67, 82
4, 167808, Note_on_c, 2, 67, 0
4, 167808, Note_on_c, 2, 65, 82
4, 168000, Note_on_c, 2, 65, 0
4, 168000, Note_on_c, 2, 67, 82
4, 168168, Note_on_c, 2, 67, 0
4, 168192, Note_on_c, 2, 65, 82
4, 168576, Note_on_c, 2, 65, 0
4, 168576, Note_on_c, 2, 64, 82
4, 168768, Note_on_c, 2, 64, 0
4, 168768, Note_on_c, 2, 65, 82
4, 168932, Note_on_c, 2, 65, 0
4, 168960, Note_on_c, 2, 64, 82
4, 169152, Note_on_c, 2, 64, 0
4, 169152, Note_on_c, 2, 65, 82
4, 169344, Note_on_c, 2, 65, 0
4, 169344, Note_on_c, 2, 64, 82
4, 169692, Note_on_c, 2, 64, 0
4, 169728, Note_on_c, 2, 64, 82
4, 170434, Note_on_c, 2, 64, 0
4, 170496, Note_on_c, 2, 64, 82
4, 171202, Note_on_c, 2, 64, 0
4, 171264, Note_on_c, 2, 65, 82
4, 171970, Note_on_c, 2, 65, 0
4, 172032, Note_on_c, 2, 63, 82
4, 172728, Note_on_c, 2, 63, 0
4, 172800, Note_on_c, 2, 64, 82
4, 172934, Note_on_c, 2, 64, 0
4, 172992, Note_on_c, 2, 65, 103
4, 173132, Note_on_c, 2, 65, 0
4, 173184, Note_on_c, 2, 63, 103
4, 173324, Note_on_c, 2, 63, 0
4, 173376, Note_on_c, 2, 62, 103
4, 173516, Note_on_c, 2, 62, 0
4, 173568, Note_on_c, 2, 64, 103
4, 173708, Note_on_c, 2, 64, 0
4, 173760, Note_on_c, 2, 65, 103
4, 173900, Note_on_c, 2, 65, 0
4, 173952, Note_on_c, 2, 63, 103
4, 174092, Note_on_c, 2, 63, 0
4, 174144, Note_on_c, 2, 62, 103
4, 174284, Note_on_c, 2, 62, 0
4, 174336, Note_on_c, 2, 64, 103
4, 174476, Note_on_c, 2, 64, 0
4, 174528, Note_on_c, 2, 65, 103
4, 174668, Note_on_c, 2, 65, 0
4, 174720, Note_on_c, 2, 63, 103
4, 174860, Note_on_c, 2, 63, 0
4, 174912, Note_on_c, 2, 62, 103
4, 175052, Note_on_c, 2, 62, 0
4, 175104, Note_on_c, 2, 64, 103
4, 175244, Note_on_c, 2, 64, 0
4, 175296, Note_on_c, 2, 55, 103
4, 175430, Note_on_c, 2, 55, 0
4, 175488, Note_on_c, 2, 52, 103
4, 175622, Note_on_c, 2, 52, 0
4, 175680, Note_on_c, 2, 48, 103
4, 175814, Note_on_c, 2, 48, 0
4, 175872, Note_on_c, 2, 43, 103
4, 176006, Note_on_c, 2, 43, 0
4, 178944, Note_on_c, 2, 48, 103
4, 179022, Note_on_c, 2, 48, 0
4, 179040, Note_on_c, 2, 48, 103
4, 179118, Note_on_c, 2, 48, 0
4, 179136, Note_on_c, 2, 48, 103
4, 179214, Note_on_c, 2, 48, 0
4, 179232, Note_on_c, 2, 48, 103
4, 179310, Note_on_c, 2, 48, 0
4, 179328, Note_on_c, 2, 48, 103
4, 179406, Note_on_c, 2, 48, 0
4, 179424, Note_on_c, 2, 48, 103
4, 179502, Note_on_c, 2, 48, 0
4, 179520, Note_on_c, 2, 48, 103
4, 179598, Note_on_c, 2, 48, 0
4, 179616, Note_on_c, 2, 48, 103
4, 179694, Note_on_c, 2, 48, 0
4, 179712, Note_on_c, 2, 48, 103
4, 179790, Note_on_c, 2, 48, 0
4, 179808, Note_on_c, 2, 48, 103
4, 179886, Note_on_c, 2, 48, 0
4, 179904, Note_on_c, 2, 48, 103
4, 179982, Note_on_c, 2, 48, 0
4, 180000, Note_on_c, 2, 48, 103
4, 180078, Note_on_c, 2, 48, 0
4, 180096, Note_on_c, 2, 48, 103
4, 180174, Note_on_c, 2, 48, 0
4, 180192, Note_on_c, 2, 48, 103
4, 180270, Note_on_c, 2, 48, 0
4, 180288, Note_on_c, 2, 48, 103
4, 180366, Note_on_c, 2, 48, 0
4, 180384, Note_on_c, 2, 48, 103
4, 180462, Note_on_c, 2, 48, 0
4, 180480, Note_on_c, 2, 48, 103
4, 180558, Note_on_c, 2, 48, 0
4, 180576, Note_on_c, 2, 48, 103
4, 180654, Note_on_c, 2, 48, 0
4, 180672, Note_on_c, 2, 48, 103
4, 180750, Note_on_c, 2, 48, 0
4, 180768, Note_on_c, 2, 48, 103
4, 180846, Note_on_c, 2, 48, 0
4, 180864, Note_on_c, 2, 48, 103
4, 180942, Note_on_c, 2, 48, 0
4, 180960, Note_on_c, 2, 48, 103
4, 181038, Note_on_c, 2, 48, 0
4, 181056, Note_on_c, 2, 48, 103
4, 181134, Note_on_c, 2, 48, 0
4, 181152, Note_on_c, 2, 48, 103
4, 181230, Note_on_c, 2, 48, 0
4, 181248, Note_on_c, 2, 48, 103
4, 181326, Note_on_c, 2, 48, 0
4, 181344, Note_on_c, 2, 48, 103
4, 181422, Note_on_c, 2, 48, 0
4, 181440, Note_on_c, 2, 48, 103
4, 181518, Note_on_c, 2, 48, 0
4, 181536, Note_on_c, 2, 48, 103
4, 181614, Note_on_c, 2, 48, 0
4, 181632, Note_on_c, 2, 48, 103
4, 181710, Note_on_c, 2, 48, 0
4, 181728, Note_on_c, 2, 48, 103
4, 181806, Note_on_c, 2, 48, 0
4, 181824, Note_on_c, 2, 48, 103
4, 181902, Note_on_c, 2, 48, 0
4, 181920, Note_on_c, 2, 48, 103
4, 181998, Note_on_c, 2, 48, 0
4, 182020, Note_on_c, 2, 60, 116
4, 182022, Control_c, 2, 11, 125
4, 182036, Control_c, 2, 11, 127
4, 182112, Control_c, 2, 11, 127
4, 182160, Control_c, 2, 11, 125
4, 182173, Control_c, 2, 11, 124
4, 182194, Control_c, 2, 11, 121
4, 182201, Control_c, 2, 11, 118
4, 182214, Control_c, 2, 11, 116
4, 182221, Control_c, 2, 11, 113
4, 182235, Control_c, 2, 11, 112
4, 182242, Control_c, 2, 11, 110
4, 182256, Control_c, 2, 11, 109
4, 182283, Control_c, 2, 11, 107
4, 182304, Control_c, 2, 11, 106
4, 182324, Control_c, 2, 11, 104
4, 182428, Note_on_c, 2, 60, 0
4, 182688, Control_c, 2, 11, 127
4, 182736, Note_on_c, 2, 48, 116
4, 182766, Note_on_c, 2, 48, 0
4, 182784, Note_on_c, 2, 48, 116
4, 182790, Control_c, 2, 11, 119
4, 182838, Control_c, 2, 11, 120
4, 182852, Control_c, 2, 11, 122
4, 182859, Control_c, 2, 11, 123
4, 182873, Control_c, 2, 11, 125
4, 182880, Control_c, 2, 11, 126
4, 182893, Control_c, 2, 11, 127
4, 182900, Control_c, 2, 11, 123
4, 182917, Control_c, 2, 11, 121
4, 182926, Control_c, 2, 11, 118
4, 182939, Control_c, 2, 11, 114
4, 182943, Control_c, 2, 11, 111
4, 182952, Control_c, 2, 11, 109
4, 182957, Control_c, 2, 11, 108
4, 182974, Control_c, 2, 11, 106
4, 182983, Control_c, 2, 11, 107
4, 183031, Control_c, 2, 11, 106
4, 183070, Control_c, 2, 11, 105
4, 183083, Control_c, 2, 11, 103
4, 183087, Control_c, 2, 11, 102
4, 183245, Control_c, 2, 11, 100
4, 183279, Control_c, 2, 11, 99
4, 183297, Control_c, 2, 11, 97
4, 183332, Control_c, 2, 11, 96
4, 183344, Note_on_c, 2, 48, 0
4, 183349, Control_c, 2, 11, 94
4, 183504, Control_c, 2, 11, 127
4, 183504, Note_on_c, 2, 43, 116
4, 183520, Note_on_c, 2, 45, 116
4, 183536, Note_on_c, 2, 45, 0
4, 183536, Note_on_c, 2, 47, 116
4, 183552, Note_on_c, 2, 47, 0
4, 183552, Note_on_c, 2, 43, 0
4, 183552, Note_on_c, 2, 48, 116
4, 183640, Note_on_c, 2, 48, 0
4, 183744, Note_on_c, 2, 52, 116
4, 183832, Note_on_c, 2, 52, 0
4, 183936, Note_on_c, 2, 55, 116
4, 184024, Note_on_c, 2, 55, 0
4, 184128, Note_on_c, 2, 60, 116
4, 184215, Note_on_c, 2, 60, 0
4, 184296, Note_on_c, 2, 60, 116
4, 184320, Note_on_c, 2, 59, 116
4, 184328, Note_on_c, 2, 60, 0
4, 184340, Pitch_bend_c, 2, 12287
4, 184368, Note_on_c, 2, 59, 0
4, 184368, Pitch_bend_c, 2, 8192
4, 184368, Note_on_c, 2, 59, 116
4, 184426, Note_on_c, 2, 59, 0
4, 184467, Note_on_c, 2, 57, 116
4, 184499, Note_on_c, 2, 57, 0
4, 184512, Note_on_c, 2, 55, 116
4, 184660, Note_on_c, 2, 55, 0
4, 184896, Note_on_c, 2, 60, 53
4, 184995, Note_on_c, 2, 60, 0
4, 185060, Note_on_c, 2, 60, 53
4, 185088, Note_on_c, 2, 59, 53
4, 185092, Note_on_c, 2, 60, 0
4, 185112, Pitch_bend_c, 2, 12287
4, 185135, Pitch_bend_c, 2, 8192
4, 185136, Note_on_c, 2, 59, 0
4, 185136, Note_on_c, 2, 59, 53
4, 185196, Note_on_c, 2, 59, 0
4, 185234, Note_on_c, 2, 57, 53
4, 185267, Note_on_c, 2, 57, 0
4, 185280, Note_on_c, 2, 55, 53
4, 185348, Note_on_c, 2, 55, 0
4, 185376, Note_on_c, 2, 60, 53
4, 185422, Note_on_c, 2, 60, 0
4, 185440, Note_on_c, 2, 60, 53
4, 185472, Note_on_c, 2, 60, 0
4, 185472, Note_on_c, 2, 59, 53
4, 185496, Pitch_bend_c, 2, 12287
4, 185519, Pitch_bend_c, 2, 8192
4, 185520, Note_on_c, 2, 59, 0
4, 185520, Note_on_c, 2, 59, 53
4, 185572, Note_on_c, 2, 59, 0
4, 185618, Note_on_c, 2, 57, 53
4, 185651, Note_on_c, 2, 57, 0
4, 185664, Note_on_c, 2, 55, 53
4, 185732, Note_on_c, 2, 55, 0
4, 185760, Note_on_c, 2, 60, 53
4, 185806, Note_on_c, 2, 60, 0
4, 185824, Note_on_c, 2, 60, 53
4, 185856, Note_on_c, 2, 60, 0
4, 185856, Note_on_c, 2, 59, 53
4, 185880, Pitch_bend_c, 2, 12287
4, 185903, Pitch_bend_c, 2, 8192
4, 185904, Note_on_c, 2, 59, 0
4, 185904, Note_on_c, 2, 59, 53
4, 185964, Note_on_c, 2, 59, 0
4, 186002, Note_on_c, 2, 57, 53
4, 186035, Note_on_c, 2, 57, 0
4, 186048, Note_on_c, 2, 55, 53
4, 186182, Note_on_c, 2, 55, 0
4, 186624, Note_on_c, 2, 53, 116
4, 186732, Note_on_c, 2, 53, 0
4, 186816, Note_on_c, 2, 53, 116
4, 186904, Note_on_c, 2, 53, 0
4, 186963, Note_on_c, 2, 53, 116
4, 186991, Note_on_c, 2, 53, 0
4, 187008, Note_on_c, 2, 53, 116
4, 187104, Note_on_c, 2, 53, 0
4, 187200, Note_on_c, 2, 53, 116
4, 187295, Note_on_c, 2, 53, 0
4, 187394, Note_on_c, 2, 53, 116
4, 187944, Note_on_c, 2, 53, 0
4, 188160, Note_on_c, 2, 53, 54
4, 188260, Note_on_c, 2, 53, 0
4, 188352, Note_on_c, 2, 53, 54
4, 188438, Note_on_c, 2, 53, 0
4, 188502, Note_on_c, 2, 53, 54
4, 188526, Note_on_c, 2, 53, 0
4, 188544, Note_on_c, 2, 53, 54
4, 188642, Note_on_c, 2, 53, 0
4, 188736, Note_on_c, 2, 53, 54
4, 188834, Note_on_c, 2, 53, 0
4, 188928, Note_on_c, 2, 53, 54
4, 189444, Note_on_c, 2, 53, 0
4, 189696, Note_on_c, 2, 55, 116
4, 189852, Note_on_c, 2, 55, 0
4, 190032, Note_on_c, 2, 55, 116
4, 190060, Note_on_c, 2, 55, 0
4, 190080, Note_on_c, 2, 57, 116
4, 190236, Note_on_c, 2, 57, 0
4, 190416, Note_on_c, 2, 57, 116
4, 190444, Note_on_c, 2, 57, 0
4, 190464, Note_on_c, 2, 53, 116
4, 190620, Note_on_c, 2, 53, 0
4, 190800, Note_on_c, 2, 53, 116
4, 190828, Note_on_c, 2, 53, 0
4, 190848, Note_on_c, 2, 55, 116
4, 191004, Note_on_c, 2, 55, 0
4, 191184, Note_on_c, 2, 55, 116
4, 191212, Note_on_c, 2, 55, 0
4, 191232, Note_on_c, 2, 48, 116
4, 191372, Note_on_c, 2, 48, 0
4, 191424, Note_on_c, 2, 55, 116
4, 191514, Note_on_c, 2, 55, 0
4, 191568, Note_on_c, 2, 55, 116
4, 191592, Note_on_c, 2, 55, 0
4, 191616, Note_on_c, 2, 55, 118
4, 191748, Note_on_c, 2, 55, 0
4, 191808, Note_on_c, 2, 55, 116
4, 191832, Note_on_c, 2, 55, 0
4, 191832, Note_on_c, 2, 53, 116
4, 191856, Note_on_c, 2, 53, 0
4, 191856, Note_on_c, 2, 55, 116
4, 191880, Note_on_c, 2, 55, 0
4, 191880, Note_on_c, 2, 53, 116
4, 191904, Note_on_c, 2, 53, 0
4, 191904, Note_on_c, 2, 52, 116
4, 191952, Note_on_c, 2, 52, 0
4, 191952, Note_on_c, 2, 53, 116
4, 191986, Note_on_c, 2, 53, 0
4, 192000, Note_on_c, 2, 52, 116
4, 192128, Note_on_c, 2, 52, 0
4, 192192, Note_on_c, 2, 52, 116
4, 192282, Note_on_c, 2, 52, 0
4, 192336, Note_on_c, 2, 52, 116
4, 192360, Note_on_c, 2, 52, 0
4, 192384, Note_on_c, 2, 52, 116
4, 192516, Note_on_c, 2, 52, 0
4, 192576, Note_on_c, 2, 52, 116
4, 192600, Note_on_c, 2, 52, 0
4, 192600, Note_on_c, 2, 50, 116
4, 192624, Note_on_c, 2, 50, 0
4, 192624, Note_on_c, 2, 52, 116
4, 192648, Note_on_c, 2, 52, 0
4, 192648, Note_on_c, 2, 50, 116
4, 192672, Note_on_c, 2, 50, 0
4, 192672, Note_on_c, 2, 48, 116
4, 192720, Note_on_c, 2, 48, 0
4, 192720, Note_on_c, 2, 50, 116
4, 192754, Note_on_c, 2, 50, 0
4, 192768, Note_on_c, 2, 48, 120
4, 192924, Note_on_c, 2, 48, 0
4, 193344, Note_on_c, 2, 55, 103
4, 193456, Note_on_c, 2, 55, 0
4, 193536, Note_on_c, 2, 60, 103
4, 193666, Note_on_c, 2, 60, 0
4, 194112, Note_on_c, 2, 55, 103
4, 194224, Note_on_c, 2, 55, 0
4, 194304, Note_on_c, 2, 48, 103
4, 194372, Note_on_c, 2, 48, 0
4, 194400, Note_on_c, 2, 48, 103
4, 194468, Note_on_c, 2, 48, 0
4, 194496, Note_on_c, 2, 48, 103
4, 194564, Note_on_c, 2, 48, 0
4, 194592, Note_on_c, 2, 48, 103
4, 194660, Note_on_c, 2, 48, 0
4, 194688, Note_on_c, 2, 48, 103
4, 194756, Note_on_c, 2, 48, 0
4, 194784, Note_on_c, 2, 48, 103
4, 194852, Note_on_c, 2, 48, 0
4, 194880, Note_on_c, 2, 48, 103
4, 194948, Note_on_c, 2, 48, 0
4, 194976, Note_on_c, 2, 48, 103
4, 195044, Note_on_c, 2, 48, 0
4, 195072, Note_on_c, 2, 48, 103
4, 195140, Note_on_c, 2, 48, 0
4, 195168, Note_on_c, 2, 48, 103
4, 195236, Note_on_c, 2, 48, 0
4, 195264, Note_on_c, 2, 48, 103
4, 195332, Note_on_c, 2, 48, 0
4, 195360, Note_on_c, 2, 48, 103
4, 195428, Note_on_c, 2, 48, 0
4, 195456, Note_on_c, 2, 48, 103
4, 195524, Note_on_c, 2, 48, 0
4, 195552, Note_on_c, 2, 48, 103
4, 195620, Note_on_c, 2, 48, 0
4, 195648, Note_on_c, 2, 48, 103
4, 195716, Note_on_c, 2, 48, 0
4, 195744, Note_on_c, 2, 48, 103
4, 195812, Note_on_c, 2, 48, 0
4, 195840, Note_on_c, 2, 48, 103
4, 195908, Note_on_c, 2, 48, 0
4, 195936, Note_on_c, 2, 48, 103
4, 196004, Note_on_c, 2, 48, 0
4, 196032, Note_on_c, 2, 48, 103
4, 196100, Note_on_c, 2, 48, 0
4, 196128, Note_on_c, 2, 48, 103
4, 196196, Note_on_c, 2, 48, 0
4, 196224, Note_on_c, 2, 48, 103
4, 196292, Note_on_c, 2, 48, 0
4, 196320, Note_on_c, 2, 48, 103
4, 196388, Note_on_c, 2, 48, 0
4, 196416, Note_on_c, 2, 48, 103
4, 196484, Note_on_c, 2, 48, 0
4, 196512, Note_on_c, 2, 48, 103
4, 196580, Note_on_c, 2, 48, 0
4, 196608, Note_on_c, 2, 48, 103
4, 196676, Note_on_c, 2, 48, 0
4, 196704, Note_on_c, 2, 48, 103
4, 196772, Note_on_c, 2, 48, 0
4, 196800, Note_on_c, 2, 48, 103
4, 196868, Note_on_c, 2, 48, 0
4, 196896, Note_on_c, 2, 48, 103
4, 196964, Note_on_c, 2, 48, 0
4, 196992, Note_on_c, 2, 48, 103
4, 197060, Note_on_c, 2, 48, 0
4, 197088, Note_on_c, 2, 48, 103
4, 197156, Note_on_c, 2, 48, 0
4, 197184, Note_on_c, 2, 48, 103
4, 197252, Note_on_c, 2, 48, 0
4, 197280, Note_on_c, 2, 48, 103
4, 197348, Note_on_c, 2, 48, 0
4, 197376, Note_on_c, 2, 48, 103
4, 197556, Note_on_c, 2, 48, 0
4, 197712, Note_on_c, 2, 43, 116
4, 197728, Note_on_c, 2, 43, 0
4, 197728, Note_on_c, 2, 45, 116
4, 197744, Note_on_c, 2, 45, 0
4, 197744, Note_on_c, 2, 47, 116
4, 197760, Note_on_c, 2, 47, 0
4, 197760, Note_on_c, 2, 48, 116
4, 197850, Note_on_c, 2, 48, 0
4, 197904, Note_on_c, 2, 48, 116
4, 197932, Note_on_c, 2, 48, 0
4, 197952, Note_on_c, 2, 52, 116
4, 198042, Note_on_c, 2, 52, 0
4, 198096, Note_on_c, 2, 52, 116
4, 198124, Note_on_c, 2, 52, 0
4, 198144, Note_on_c, 2, 55, 116
4, 198308, Note_on_c, 2, 55, 0
4, 198480, Note_on_c, 2, 48, 116
4, 198504, Note_on_c, 2, 48, 0
4, 198504, Note_on_c, 2, 50, 116
4, 198528, Note_on_c, 2, 50, 0
4, 198528, Note_on_c, 2, 52, 116
4, 198618, Note_on_c, 2, 52, 0
4, 198672, Note_on_c, 2, 52, 116
4, 198700, Note_on_c, 2, 52, 0
4, 198720, Note_on_c, 2, 55, 116
4, 198810, Note_on_c, 2, 55, 0
4, 198864, Note_on_c, 2, 55, 116
4, 198892, Note_on_c, 2, 55, 0
4, 198912, Note_on_c, 2, 60, 116
4, 199076, Note_on_c, 2, 60, 0
4, 199248, Note_on_c, 2, 52, 116
4, 199272, Note_on_c, 2, 52, 0
4, 199272, Note_on_c, 2, 53, 116
4, 199296, Note_on_c, 2, 53, 0
4, 199296, Note_on_c, 2, 55, 116
4, 199386, Note_on_c, 2, 55, 0
4, 199440, Note_on_c, 2, 55, 116
4, 199468, Note_on_c, 2, 55, 0
4, 199488, Note_on_c, 2, 60, 116
4, 199578, Note_on_c, 2, 60, 0
4, 199632, Note_on_c, 2, 60, 116
4, 199660, Note_on_c, 2, 60, 0
4, 199680, Note_on_c, 2, 64, 116
4, 199844, Note_on_c, 2, 64, 0
4, 200016, Note_on_c, 2, 55, 116
4, 200032, Note_on_c, 2, 55, 0
4, 200032, Note_on_c, 2, 57, 116
4, 200048, Note_on_c, 2, 57, 0
4, 200048, Note_on_c, 2, 59, 116
4, 200064, Note_on_c, 2, 59, 0
4, 200064, Note_on_c, 2, 60, 116
4, 200154, Note_on_c, 2, 60, 0
4, 200208, Note_on_c, 2, 60, 116
4, 200236, Note_on_c, 2, 60, 0
4, 200256, Note_on_c, 2, 64, 116
4, 200346, Note_on_c, 2, 64, 0
4, 200400, Note_on_c, 2, 64, 116
4, 200428, Note_on_c, 2, 64, 0
4, 200448, Note_on_c, 2, 67, 116
4, 200782, Note_on_c, 2, 67, 0
4, 200832, Note_on_c, 2, 64, 116
4, 200952, Note_on_c, 2, 64, 0
4, 201024, Note_on_c, 2, 60, 116
4, 201144, Note_on_c, 2, 60, 0
4, 201216, Note_on_c, 2, 55, 116
4, 201336, Note_on_c, 2, 55, 0
4, 201408, Note_on_c, 2, 60, 116
4, 201528, Note_on_c, 2, 60, 0
4, 201600, Note_on_c, 2, 52, 116
4, 201720, Note_on_c, 2, 52, 0
4, 201792, Note_on_c, 2, 55, 116
4, 201912, Note_on_c, 2, 55, 0
4, 201984, Note_on_c, 2, 48, 116
4, 202296, Note_on_c, 2, 48, 0
4, 202368, Note_on_c, 2, 48, 116
4, 202594, Note_on_c, 2, 48, 0
4, 202656, Note_on_c, 2, 48, 116
4, 202708, Note_on_c, 2, 48, 0
4, 202752, Note_on_c, 2, 48, 116
4, 203126, Note_on_c, 2, 48, 0
4, 204864, Control_c, 2, 121, 0
4, 204864, End_track
5, 0, Start_track
5, 0, MIDI_port, 0
5, 0, Title_t, "Bassoon 2"
5, 0, Program_c, 3, 70
5, 0, Control_c, 3, 7, 101
5, 0, Control_c, 3, 10, 50
5, 0, Text_t, ""
5, 96, Control_c, 3, 121, 0
5, 192, Control_c, 3, 91, 54
5, 288, Control_c, 3, 93, 5
5, 15559, Note_on_c, 3, 60, 82
5, 15649, Note_on_c, 3, 60, 0
5, 15703, Note_on_c, 3, 60, 82
5, 15727, Note_on_c, 3, 60, 0
5, 15751, Note_on_c, 3, 60, 82
5, 15871, Note_on_c, 3, 60, 0
5, 15943, Note_on_c, 3, 60, 82
5, 16063, Note_on_c, 3, 60, 0
5, 16135, Note_on_c, 3, 60, 82
5, 16845, Note_on_c, 3, 60, 0
5, 16903, Note_on_c, 3, 57, 82
5, 17023, Note_on_c, 3, 57, 0
5, 17095, Note_on_c, 3, 57, 82
5, 17185, Note_on_c, 3, 57, 0
5, 17239, Note_on_c, 3, 57, 82
5, 17263, Note_on_c, 3, 57, 0
5, 17287, Note_on_c, 3, 57, 82
5, 17407, Note_on_c, 3, 57, 0
5, 17479, Note_on_c, 3, 57, 82
5, 17599, Note_on_c, 3, 57, 0
5, 17671, Note_on_c, 3, 57, 82
5, 18381, Note_on_c, 3, 57, 0
5, 18439, Note_on_c, 3, 59, 82
5, 18559, Note_on_c, 3, 59, 0
5, 18631, Note_on_c, 3, 59, 82
5, 18721, Note_on_c, 3, 59, 0
5, 18775, Note_on_c, 3, 59, 82
5, 18799, Note_on_c, 3, 59, 0
5, 18823, Note_on_c, 3, 59, 82
5, 18943, Note_on_c, 3, 59, 0
5, 19015, Note_on_c, 3, 59, 82
5, 19135, Note_on_c, 3, 59, 0
5, 19207, Note_on_c, 3, 59, 82
5, 19917, Note_on_c, 3, 59, 0
5, 19975, Note_on_c, 3, 57, 82
5, 20095, Note_on_c, 3, 57, 0
5, 20167, Note_on_c, 3, 50, 82
5, 20257, Note_on_c, 3, 50, 0
5, 20311, Note_on_c, 3, 50, 82
5, 20335, Note_on_c, 3, 50, 0
5, 20359, Note_on_c, 3, 50, 82
5, 20479, Note_on_c, 3, 50, 0
5, 20551, Note_on_c, 3, 50, 82
5, 20671, Note_on_c, 3, 50, 0
5, 20743, Note_on_c, 3, 50, 82
5, 21437, Note_on_c, 3, 50, 0
5, 21511, Note_on_c, 3, 50, 82
5, 22205, Note_on_c, 3, 50, 0
5, 22279, Note_on_c, 3, 54, 82
5, 22973, Note_on_c, 3, 54, 0
5, 23047, Note_on_c, 3, 50, 82
5, 23741, Note_on_c, 3, 50, 0
5, 63744, Note_on_c, 3, 59, 82
5, 64128, Note_on_c, 3, 59, 0
5, 64128, Note_on_c, 3, 60, 82
5, 64320, Note_on_c, 3, 60, 0
5, 64320, Note_on_c, 3, 59, 82
5, 64484, Note_on_c, 3, 59, 0
5, 64512, Note_on_c, 3, 57, 82
5, 64896, Note_on_c, 3, 57, 0
5, 64896, Note_on_c, 3, 59, 82
5, 65088, Note_on_c, 3, 59, 0
5, 65088, Note_on_c, 3, 57, 82
5, 65254, Note_on_c, 3, 57, 0
5, 65280, Note_on_c, 3, 55, 82
5, 65472, Note_on_c, 3, 55, 0
5, 65472, Note_on_c, 3, 59, 86
5, 65664, Note_on_c, 3, 59, 0
5, 65664, Note_on_c, 3, 60, 88
5, 65856, Note_on_c, 3, 60, 0
5, 65856, Note_on_c, 3, 62, 91
5, 66018, Note_on_c, 3, 62, 0
5, 66048, Note_on_c, 3, 60, 91
5, 66755, Note_on_c, 3, 60, 0
5, 66816, Note_on_c, 3, 59, 91
5, 66956, Note_on_c, 3, 59, 0
5, 67008, Note_on_c, 3, 59, 91
5, 67057, Note_on_c, 3, 59, 0
5, 67104, Note_on_c, 3, 59, 91
5, 67153, Note_on_c, 3, 59, 0
5, 67200, Note_on_c, 3, 59, 91
5, 67296, Note_on_c, 3, 59, 0
5, 67296, Note_on_c, 3, 57, 91
5, 67364, Note_on_c, 3, 57, 0
5, 67392, Note_on_c, 3, 55, 91
5, 67441, Note_on_c, 3, 55, 0
5, 67488, Note_on_c, 3, 54, 91
5, 67537, Note_on_c, 3, 54, 0
5, 68345, Control_c, 3, 11, 103
5, 68352, Control_c, 3, 11, 104
5, 68352, Note_on_c, 3, 59, 82
5, 68400, Control_c, 3, 11, 106
5, 68434, Control_c, 3, 11, 107
5, 68482, Control_c, 3, 11, 110
5, 68496, Control_c, 3, 11, 112
5, 68544, Control_c, 3, 11, 113
5, 68578, Control_c, 3, 11, 116
5, 68598, Control_c, 3, 11, 118
5, 68646, Control_c, 3, 11, 121
5, 68667, Control_c, 3, 11, 122
5, 68722, Control_c, 3, 11, 124
5, 68729, Control_c, 3, 11, 125
5, 68736, Note_on_c, 3, 59, 0
5, 68736, Note_on_c, 3, 60, 82
5, 68790, Control_c, 3, 11, 127
5, 68928, Note_on_c, 3, 60, 0
5, 68928, Note_on_c, 3, 59, 82
5, 69094, Note_on_c, 3, 59, 0
5, 69113, Control_c, 3, 11, 127
5, 69120, Note_on_c, 3, 57, 82
5, 69140, Control_c, 3, 11, 126
5, 69181, Control_c, 3, 11, 124
5, 69202, Control_c, 3, 11, 123
5, 69216, Control_c, 3, 11, 121
5, 69222, Control_c, 3, 11, 120
5, 69264, Control_c, 3, 11, 117
5, 69298, Control_c, 3, 11, 115
5, 69305, Control_c, 3, 11, 114
5, 69380, Control_c, 3, 11, 112
5, 69401, Control_c, 3, 11, 111
5, 69449, Control_c, 3, 11, 109
5, 69504, Note_on_c, 3, 57, 0
5, 69504, Note_on_c, 3, 59, 82
5, 69552, Control_c, 3, 11, 110
5, 69565, Control_c, 3, 11, 112
5, 69572, Control_c, 3, 11, 113
5, 69586, Control_c, 3, 11, 116
5, 69606, Control_c, 3, 11, 118
5, 69613, Control_c, 3, 11, 121
5, 69627, Control_c, 3, 11, 124
5, 69648, Control_c, 3, 11, 127
5, 69696, Note_on_c, 3, 59, 0
5, 69696, Note_on_c, 3, 57, 82
5, 69862, Note_on_c, 3, 57, 0
5, 69888, Note_on_c, 3, 55, 82
5, 70080, Note_on_c, 3, 55, 0
5, 70080, Note_on_c, 3, 59, 88
5, 70272, Note_on_c, 3, 59, 0
5, 70272, Note_on_c, 3, 60, 91
5, 70464, Note_on_c, 3, 60, 0
5, 70464, Note_on_c, 3, 62, 94
5, 70621, Note_on_c, 3, 62, 0
5, 70656, Control_c, 3, 11, 124
5, 70656, Note_on_c, 3, 60, 94
5, 70662, Control_c, 3, 11, 125
5, 70676, Control_c, 3, 11, 127
5, 70779, Control_c, 3, 11, 123
5, 70786, Control_c, 3, 11, 120
5, 70806, Control_c, 3, 11, 117
5, 70820, Control_c, 3, 11, 115
5, 70827, Control_c, 3, 11, 114
5, 70841, Control_c, 3, 11, 112
5, 70868, Control_c, 3, 11, 111
5, 70902, Control_c, 3, 11, 109
5, 72118, Note_on_c, 3, 60, 0
5, 72178, Control_c, 3, 11, 118
5, 72192, Note_on_c, 3, 64, 96
5, 72198, Control_c, 3, 11, 119
5, 72219, Control_c, 3, 11, 121
5, 72240, Control_c, 3, 11, 122
5, 72260, Control_c, 3, 11, 124
5, 72267, Control_c, 3, 11, 127
5, 72342, Control_c, 3, 11, 124
5, 72349, Control_c, 3, 11, 121
5, 72370, Control_c, 3, 11, 117
5, 72384, Control_c, 3, 11, 115
5, 72390, Control_c, 3, 11, 112
5, 72404, Control_c, 3, 11, 109
5, 72432, Control_c, 3, 11, 108
5, 72452, Control_c, 3, 11, 106
5, 72486, Control_c, 3, 11, 105
5, 72528, Control_c, 3, 11, 103
5, 72576, Control_c, 3, 11, 102
5, 72902, Note_on_c, 3, 64, 0
5, 83136, Note_on_c, 3, 59, 88
5, 83226, Note_on_c, 3, 59, 0
5, 83280, Note_on_c, 3, 59, 88
5, 83304, Note_on_c, 3, 59, 0
5, 83328, Note_on_c, 3, 59, 88
5, 83478, Note_on_c, 3, 59, 0
5, 83520, Note_on_c, 3, 59, 88
5, 83544, Note_on_c, 3, 59, 0
5, 83544, Note_on_c, 3, 57, 88
5, 83568, Note_on_c, 3, 57, 0
5, 83568, Note_on_c, 3, 59, 88
5, 83592, Note_on_c, 3, 59, 0
5, 83592, Note_on_c, 3, 57, 88
5, 83616, Note_on_c, 3, 57, 0
5, 83616, Note_on_c, 3, 55, 88
5, 83664, Note_on_c, 3, 55, 0
5, 83664, Note_on_c, 3, 57, 88
5, 83698, Note_on_c, 3, 57, 0
5, 83712, Note_on_c, 3, 55, 88
5, 83852, Note_on_c, 3, 55, 0
5, 83904, Note_on_c, 3, 55, 88
5, 83994, Note_on_c, 3, 55, 0
5, 84048, Note_on_c, 3, 55, 88
5, 84072, Note_on_c, 3, 55, 0
5, 84096, Note_on_c, 3, 55, 88
5, 84246, Note_on_c, 3, 55, 0
5, 84288, Note_on_c, 3, 55, 88
5, 84312, Note_on_c, 3, 55, 0
5, 84312, Note_on_c, 3, 54, 88
5, 84336, Note_on_c, 3, 54, 0
5, 84336, Note_on_c, 3, 55, 88
5, 84360, Note_on_c, 3, 55, 0
5, 84360, Note_on_c, 3, 54, 88
5, 84384, Note_on_c, 3, 54, 0
5, 84384, Note_on_c, 3, 52, 88
5, 84430, Note_on_c, 3, 52, 0
5, 84432, Note_on_c, 3, 54, 88
5, 84466, Note_on_c, 3, 54, 0
5, 84480, Note_on_c, 3, 55, 88
5, 84636, Note_on_c, 3, 55, 0
5, 85056, Note_on_c, 3, 50, 82
5, 85180, Note_on_c, 3, 50, 0
5, 85248, Note_on_c, 3, 55, 82
5, 85404, Note_on_c, 3, 55, 0
5, 85824, Note_on_c, 3, 50, 82
5, 85948, Note_on_c, 3, 50, 0
5, 86016, Note_on_c, 3, 55, 82
5, 86172, Note_on_c, 3, 55, 0
5, 87552, Note_on_c, 3, 62, 88
5, 87552, Control_c, 3, 11, 118
5, 87585, Control_c, 3, 11, 121
5, 87619, Control_c, 3, 11, 122
5, 87653, Control_c, 3, 11, 125
5, 87676, Control_c, 3, 11, 127
5, 87755, Control_c, 3, 11, 126
5, 87777, Control_c, 3, 11, 124
5, 87786, Control_c, 3, 11, 121
5, 87809, Control_c, 3, 11, 115
5, 87832, Control_c, 3, 11, 112
5, 87843, Control_c, 3, 11, 109
5, 87877, Control_c, 3, 11, 106
5, 87899, Control_c, 3, 11, 102
5, 87911, Control_c, 3, 11, 99
5, 87933, Control_c, 3, 11, 97
5, 87945, Control_c, 3, 11, 96
5, 87967, Control_c, 3, 11, 93
5, 87978, Control_c, 3, 11, 91
5, 88001, Control_c, 3, 11, 88
5, 88012, Control_c, 3, 11, 84
5, 88042, Control_c, 3, 11, 82
5, 88053, Control_c, 3, 11, 80
5, 88065, Control_c, 3, 11, 77
5, 88087, Control_c, 3, 11, 76
5, 88099, Control_c, 3, 11, 74
5, 88133, Control_c, 3, 11, 70
5, 88155, Control_c, 3, 11, 67
5, 88166, Control_c, 3, 11, 65
5, 88189, Control_c, 3, 11, 64
5, 88223, Control_c, 3, 11, 61
5, 88234, Control_c, 3, 11, 58
5, 89030, Note_on_c, 3, 62, 0
5, 89088, Note_on_c, 3, 62, 88
5, 89088, Control_c, 3, 11, 118
5, 89121, Control_c, 3, 11, 121
5, 89155, Control_c, 3, 11, 122
5, 89189, Control_c, 3, 11, 125
5, 89212, Control_c, 3, 11, 127
5, 89291, Control_c, 3, 11, 126
5, 89313, Control_c, 3, 11, 124
5, 89322, Control_c, 3, 11, 121
5, 89345, Control_c, 3, 11, 115
5, 89368, Control_c, 3, 11, 112
5, 89379, Control_c, 3, 11, 109
5, 89413, Control_c, 3, 11, 106
5, 89435, Control_c, 3, 11, 102
5, 89447, Control_c, 3, 11, 99
5, 89469, Control_c, 3, 11, 97
5, 89481, Control_c, 3, 11, 96
5, 89503, Control_c, 3, 11, 93
5, 89514, Control_c, 3, 11, 91
5, 89537, Control_c, 3, 11, 88
5, 89548, Control_c, 3, 11, 84
5, 89582, Control_c, 3, 11, 82
5, 89605, Control_c, 3, 11, 79
5, 89616, Control_c, 3, 11, 78
5, 89639, Control_c, 3, 11, 76
5, 89650, Control_c, 3, 11, 73
5, 89680, Control_c, 3, 11, 74
5, 89691, Control_c, 3, 11, 73
5, 89702, Control_c, 3, 11, 71
5, 89714, Control_c, 3, 11, 69
5, 89725, Control_c, 3, 11, 68
5, 89736, Control_c, 3, 11, 66
5, 89748, Control_c, 3, 11, 64
5, 89759, Control_c, 3, 11, 63
5, 89770, Control_c, 3, 11, 61
5, 89781, Control_c, 3, 11, 59
5, 90566, Note_on_c, 3, 62, 0
5, 90624, Note_on_c, 3, 60, 88
5, 90624, Control_c, 3, 11, 118
5, 90657, Control_c, 3, 11, 121
5, 90691, Control_c, 3, 11, 122
5, 90725, Control_c, 3, 11, 125
5, 90748, Control_c, 3, 11, 127
5, 90827, Control_c, 3, 11, 126
5, 90849, Control_c, 3, 11, 124
5, 90858, Control_c, 3, 11, 121
5, 90881, Control_c, 3, 11, 115
5, 90904, Control_c, 3, 11, 112
5, 90915, Control_c, 3, 11, 109
5, 90949, Control_c, 3, 11, 106
5, 90971, Control_c, 3, 11, 102
5, 90983, Control_c, 3, 11, 99
5, 91005, Control_c, 3, 11, 97
5, 91017, Control_c, 3, 11, 96
5, 91039, Control_c, 3, 11, 93
5, 91050, Control_c, 3, 11, 91
5, 91073, Control_c, 3, 11, 88
5, 91084, Control_c, 3, 11, 84
5, 91118, Control_c, 3, 11, 82
5, 91141, Control_c, 3, 11, 79
5, 91152, Control_c, 3, 11, 78
5, 91175, Control_c, 3, 11, 76
5, 91186, Control_c, 3, 11, 73
5, 91220, Control_c, 3, 11, 72
5, 91227, Control_c, 3, 11, 71
5, 91238, Control_c, 3, 11, 70
5, 91250, Control_c, 3, 11, 68
5, 91261, Control_c, 3, 11, 66
5, 91272, Control_c, 3, 11, 64
5, 91284, Control_c, 3, 11, 62
5, 91295, Control_c, 3, 11, 60
5, 91306, Control_c, 3, 11, 58
5, 91317, Control_c, 3, 11, 56
5, 92102, Note_on_c, 3, 60, 0
5, 92160, Note_on_c, 3, 60, 89
5, 92160, Control_c, 3, 11, 118
5, 92193, Control_c, 3, 11, 121
5, 92227, Control_c, 3, 11, 122
5, 92261, Control_c, 3, 11, 125
5, 92284, Control_c, 3, 11, 127
5, 92363, Control_c, 3, 11, 126
5, 92385, Control_c, 3, 11, 124
5, 92394, Control_c, 3, 11, 121
5, 92417, Control_c, 3, 11, 115
5, 92440, Control_c, 3, 11, 112
5, 92451, Control_c, 3, 11, 109
5, 92485, Control_c, 3, 11, 106
5, 92507, Control_c, 3, 11, 102
5, 92519, Control_c, 3, 11, 99
5, 92541, Control_c, 3, 11, 97
5, 92553, Control_c, 3, 11, 96
5, 92575, Control_c, 3, 11, 93
5, 92586, Control_c, 3, 11, 91
5, 92609, Control_c, 3, 11, 88
5, 92620, Control_c, 3, 11, 84
5, 92654, Control_c, 3, 11, 82
5, 92677, Control_c, 3, 11, 79
5, 92688, Control_c, 3, 11, 78
5, 92711, Control_c, 3, 11, 76
5, 92722, Control_c, 3, 11, 73
5, 92752, Control_c, 3, 11, 74
5, 92763, Control_c, 3, 11, 73
5, 92774, Control_c, 3, 11, 72
5, 92786, Control_c, 3, 11, 70
5, 92797, Control_c, 3, 11, 68
5, 92808, Control_c, 3, 11, 67
5, 92820, Control_c, 3, 11, 65
5, 92831, Control_c, 3, 11, 63
5, 92842, Control_c, 3, 11, 61
5, 92853, Control_c, 3, 11, 63
5, 93638, Note_on_c, 3, 60, 0
5, 93696, Note_on_c, 3, 58, 89
5, 93696, Control_c, 3, 11, 118
5, 93729, Control_c, 3, 11, 121
5, 93763, Control_c, 3, 11, 122
5, 93797, Control_c, 3, 11, 125
5, 93820, Control_c, 3, 11, 127
5, 93899, Control_c, 3, 11, 126
5, 93921, Control_c, 3, 11, 124
5, 93930, Control_c, 3, 11, 121
5, 93953, Control_c, 3, 11, 115
5, 93976, Control_c, 3, 11, 112
5, 93987, Control_c, 3, 11, 109
5, 94021, Control_c, 3, 11, 106
5, 94043, Control_c, 3, 11, 102
5, 94055, Control_c, 3, 11, 99
5, 94077, Control_c, 3, 11, 97
5, 94089, Control_c, 3, 11, 96
5, 94111, Control_c, 3, 11, 93
5, 94122, Control_c, 3, 11, 91
5, 94145, Control_c, 3, 11, 88
5, 94156, Control_c, 3, 11, 84
5, 94190, Control_c, 3, 11, 82
5, 94213, Control_c, 3, 11, 79
5, 94224, Control_c, 3, 11, 78
5, 94247, Control_c, 3, 11, 76
5, 94258, Control_c, 3, 11, 73
5, 94288, Control_c, 3, 11, 72
5, 94299, Control_c, 3, 11, 71
5, 94310, Control_c, 3, 11, 69
5, 94322, Control_c, 3, 11, 67
5, 94333, Control_c, 3, 11, 65
5, 94344, Control_c, 3, 11, 64
5, 94356, Control_c, 3, 11, 62
5, 94367, Control_c, 3, 11, 60
5, 94378, Control_c, 3, 11, 58
5, 94389, Control_c, 3, 11, 56
5, 95174, Note_on_c, 3, 58, 0
5, 95232, Note_on_c, 3, 58, 89
5, 95232, Control_c, 3, 11, 118
5, 95265, Control_c, 3, 11, 121
5, 95299, Control_c, 3, 11, 122
5, 95333, Control_c, 3, 11, 125
5, 95356, Control_c, 3, 11, 127
5, 95435, Control_c, 3, 11, 126
5, 95457, Control_c, 3, 11, 124
5, 95466, Control_c, 3, 11, 121
5, 95489, Control_c, 3, 11, 115
5, 95512, Control_c, 3, 11, 112
5, 95523, Control_c, 3, 11, 109
5, 95557, Control_c, 3, 11, 106
5, 95579, Control_c, 3, 11, 102
5, 95591, Control_c, 3, 11, 99
5, 95613, Control_c, 3, 11, 97
5, 95625, Control_c, 3, 11, 96
5, 95647, Control_c, 3, 11, 93
5, 95658, Control_c, 3, 11, 91
5, 95681, Control_c, 3, 11, 88
5, 95692, Control_c, 3, 11, 84
5, 95726, Control_c, 3, 11, 82
5, 95749, Control_c, 3, 11, 79
5, 95760, Control_c, 3, 11, 78
5, 95783, Control_c, 3, 11, 76
5, 95794, Control_c, 3, 11, 73
5, 95828, Control_c, 3, 11, 72
5, 95846, Control_c, 3, 11, 71
5, 95858, Control_c, 3, 11, 70
5, 95869, Control_c, 3, 11, 68
5, 95880, Control_c, 3, 11, 66
5, 95892, Control_c, 3, 11, 64
5, 95903, Control_c, 3, 11, 62
5, 95914, Control_c, 3, 11, 60
5, 95925, Control_c, 3, 11, 58
5, 96768, Note_on_c, 3, 58, 0
5, 96768, Note_on_c, 3, 60, 85
5, 96768, Control_c, 3, 11, 63
5, 96946, Note_on_c, 3, 60, 0
5, 124332, Control_c, 3, 11, 127
5, 124420, Note_on_c, 3, 55, 103
5, 124525, Note_on_c, 3, 55, 0
5, 124612, Note_on_c, 3, 55, 103
5, 124700, Note_on_c, 3, 55, 0
5, 124760, Note_on_c, 3, 55, 103
5, 124788, Note_on_c, 3, 55, 0
5, 124804, Note_on_c, 3, 55, 103
5, 124901, Note_on_c, 3, 55, 0
5, 124996, Note_on_c, 3, 55, 103
5, 125093, Note_on_c, 3, 55, 0
5, 125188, Note_on_c, 3, 62, 82
5, 125889, Note_on_c, 3, 62, 0
5, 125956, Note_on_c, 3, 55, 103
5, 126064, Note_on_c, 3, 55, 0
5, 126148, Note_on_c, 3, 55, 103
5, 126236, Note_on_c, 3, 55, 0
5, 126296, Note_on_c, 3, 55, 103
5, 126324, Note_on_c, 3, 55, 0
5, 126340, Note_on_c, 3, 55, 103
5, 126437, Note_on_c, 3, 55, 0
5, 126532, Note_on_c, 3, 55, 103
5, 126629, Note_on_c, 3, 55, 0
5, 126724, Note_on_c, 3, 57, 82
5, 127425, Note_on_c, 3, 57, 0
5, 127492, Note_on_c, 3, 56, 103
5, 127597, Note_on_c, 3, 56, 0
5, 127684, Note_on_c, 3, 56, 103
5, 127772, Note_on_c, 3, 56, 0
5, 127832, Note_on_c, 3, 56, 103
5, 127860, Note_on_c, 3, 56, 0
5, 127876, Note_on_c, 3, 56, 103
5, 127973, Note_on_c, 3, 56, 0
5, 128068, Note_on_c, 3, 56, 103
5, 128165, Note_on_c, 3, 56, 0
5, 128260, Note_on_c, 3, 55, 82
5, 128961, Note_on_c, 3, 55, 0
5, 129028, Note_on_c, 3, 55, 103
5, 129133, Note_on_c, 3, 55, 0
5, 129220, Note_on_c, 3, 55, 103
5, 129308, Note_on_c, 3, 55, 0
5, 129368, Note_on_c, 3, 55, 103
5, 129396, Note_on_c, 3, 55, 0
5, 129412, Note_on_c, 3, 55, 103
5, 129509, Note_on_c, 3, 55, 0
5, 129604, Note_on_c, 3, 55, 103
5, 129683, Note_on_c, 3, 55, 0
5, 129796, Note_on_c, 3, 57, 82
5, 130497, Note_on_c, 3, 57, 0
5, 130564, Note_on_c, 3, 57, 103
5, 130669, Note_on_c, 3, 57, 0
5, 130756, Note_on_c, 3, 57, 103
5, 130844, Note_on_c, 3, 57, 0
5, 130904, Note_on_c, 3, 57, 103
5, 130932, Note_on_c, 3, 57, 0
5, 130948, Note_on_c, 3, 57, 103
5, 131045, Note_on_c, 3, 57, 0
5, 131140, Note_on_c, 3, 57, 103
5, 131237, Note_on_c, 3, 57, 0
5, 131332, Note_on_c, 3, 59, 103
5, 131440, Note_on_c, 3, 59, 0
5, 131524, Note_on_c, 3, 57, 103
5, 131628, Note_on_c, 3, 57, 0
5, 131716, Note_on_c, 3, 55, 103
5, 131820, Note_on_c, 3, 55, 0
5, 131908, Note_on_c, 3, 57, 103
5, 132012, Note_on_c, 3, 57, 0
5, 132100, Note_on_c, 3, 55, 103
5, 132204, Note_on_c, 3, 55, 0
5, 132292, Note_on_c, 3, 57, 103
5, 132396, Note_on_c, 3, 57, 0
5, 132484, Note_on_c, 3, 55, 103
5, 132588, Note_on_c, 3, 55, 0
5, 132676, Note_on_c, 3, 57, 103
5, 132780, Note_on_c, 3, 57, 0
5, 132868, Note_on_c, 3, 55, 103
5, 133002, Note_on_c, 3, 55, 0
5, 160512, Note_on_c, 3, 61, 82
5, 161238, Note_on_c, 3, 61, 0
5, 161280, Note_on_c, 3, 62, 82
5, 161414, Note_on_c, 3, 62, 0
5, 161472, Note_on_c, 3, 58, 82
5, 161632, Note_on_c, 3, 58, 0
5, 161664, Note_on_c, 3, 57, 82
5, 162196, Note_on_c, 3, 57, 0
5, 162240, Note_on_c, 3, 56, 82
5, 162400, Note_on_c, 3, 56, 0
5, 162432, Note_on_c, 3, 55, 82
5, 162772, Note_on_c, 3, 55, 0
5, 162816, Note_on_c, 3, 55, 82
5, 162964, Note_on_c, 3, 55, 0
5, 163008, Note_on_c, 3, 59, 82
5, 163176, Note_on_c, 3, 59, 0
5, 163200, Note_on_c, 3, 60, 82
5, 163368, Note_on_c, 3, 60, 0
5, 163392, Note_on_c, 3, 62, 82
5, 163540, Note_on_c, 3, 62, 0
5, 163584, Note_on_c, 3, 60, 82
5, 163910, Note_on_c, 3, 60, 0
5, 163968, Note_on_c, 3, 62, 82
5, 164294, Note_on_c, 3, 62, 0
5, 164352, Note_on_c, 3, 60, 82
5, 164678, Note_on_c, 3, 60, 0
5, 164736, Note_on_c, 3, 60, 82
5, 165062, Note_on_c, 3, 60, 0
5, 165120, Note_on_c, 3, 60, 82
5, 165216, Note_on_c, 3, 60, 0
5, 165216, Note_on_c, 3, 64, 82
5, 165270, Note_on_c, 3, 64, 0
5, 165312, Note_on_c, 3, 64, 82
5, 165358, Note_on_c, 3, 64, 0
5, 165408, Note_on_c, 3, 64, 82
5, 165454, Note_on_c, 3, 64, 0
5, 165504, Note_on_c, 3, 64, 82
5, 165594, Note_on_c, 3, 64, 0
5, 165600, Note_on_c, 3, 62, 82
5, 165654, Note_on_c, 3, 62, 0
5, 165696, Note_on_c, 3, 60, 82
5, 165742, Note_on_c, 3, 60, 0
5, 165792, Note_on_c, 3, 59, 82
5, 165838, Note_on_c, 3, 59, 0
5, 166656, Note_on_c, 3, 61, 82
5, 167382, Note_on_c, 3, 61, 0
5, 167424, Note_on_c, 3, 62, 82
5, 167616, Note_on_c, 3, 62, 0
5, 167616, Note_on_c, 3, 58, 82
5, 167808, Note_on_c, 3, 58, 0
5, 167808, Note_on_c, 3, 57, 82
5, 168340, Note_on_c, 3, 57, 0
5, 168384, Note_on_c, 3, 56, 82
5, 168544, Note_on_c, 3, 56, 0
5, 168576, Note_on_c, 3, 55, 82
5, 168916, Note_on_c, 3, 55, 0
5, 168960, Note_on_c, 3, 55, 82
5, 169116, Note_on_c, 3, 55, 0
5, 169152, Note_on_c, 3, 59, 82
5, 169320, Note_on_c, 3, 59, 0
5, 169344, Note_on_c, 3, 60, 82
5, 169512, Note_on_c, 3, 60, 0
5, 169536, Note_on_c, 3, 62, 82
5, 169684, Note_on_c, 3, 62, 0
5, 169728, Note_on_c, 3, 60, 82
5, 170434, Note_on_c, 3, 60, 0
5, 170496, Note_on_c, 3, 60, 82
5, 171202, Note_on_c, 3, 60, 0
5, 171264, Note_on_c, 3, 60, 82
5, 171970, Note_on_c, 3, 60, 0
5, 172032, Note_on_c, 3, 60, 82
5, 172738, Note_on_c, 3, 60, 0
5, 172800, Note_on_c, 3, 60, 82
5, 172934, Note_on_c, 3, 60, 0
5, 191424, Note_on_c, 3, 52, 116
5, 191514, Note_on_c, 3, 52, 0
5, 191568, Note_on_c, 3, 52, 116
5, 191592, Note_on_c, 3, 52, 0
5, 191616, Note_on_c, 3, 52, 116
5, 191748, Note_on_c, 3, 52, 0
5, 191808, Note_on_c, 3, 52, 116
5, 191832, Note_on_c, 3, 52, 0
5, 191832, Note_on_c, 3, 50, 116
5, 191856, Note_on_c, 3, 50, 0
5, 191856, Note_on_c, 3, 52, 116
5, 191880, Note_on_c, 3, 52, 0
5, 191880, Note_on_c, 3, 50, 116
5, 191904, Note_on_c, 3, 50, 0
5, 191904, Note_on_c, 3, 48, 116
5, 191952, Note_on_c, 3, 48, 0
5, 191952, Note_on_c, 3, 50, 116
5, 191986, Note_on_c, 3, 50, 0
5, 192000, Note_on_c, 3, 48, 116
5, 192128, Note_on_c, 3, 48, 0
5, 192192, Note_on_c, 3, 48, 116
5, 192282, Note_on_c, 3, 48, 0
5, 192336, Note_on_c, 3, 48, 116
5, 192360, Note_on_c, 3, 48, 0
5, 192384, Note_on_c, 3, 48, 116
5, 192517, Note_on_c, 3, 48, 0
5, 192576, Note_on_c, 3, 48, 116
5, 192600, Note_on_c, 3, 48, 0
5, 192600, Note_on_c, 3, 47, 116
5, 192624, Note_on_c, 3, 47, 0
5, 192624, Note_on_c, 3, 48, 116
5, 192648, Note_on_c, 3, 48, 0
5, 192648, Note_on_c, 3, 47, 116
5, 192672, Note_on_c, 3, 47, 0
5, 192672, Note_on_c, 3, 45, 116
5, 192720, Note_on_c, 3, 45, 0
5, 192720, Note_on_c, 3, 47, 116
5, 192754, Note_on_c, 3, 47, 0
5, 204864, Control_c, 3, 121, 0
5, 204864, End_track
6, 0, Start_track
6, 0, MIDI_port, 0
6, 0, Title_t, "Horn 1"
6, 0, Program_c, 4, 60
6, 0, Control_c, 4, 7, 106
6, 0, Control_c, 4, 10, 83
6, 0, Text_t, ""
6, 96, Control_c, 4, 121, 0
6, 192, Control_c, 4, 91, 54
6, 288, Control_c, 4, 93, 7
6, 768, Control_c, 4, 11, 124
6, 768, Note_on_c, 4, 60, 103
6, 776, Control_c, 4, 11, 125
6, 785, Control_c, 4, 11, 126
6, 789, Control_c, 4, 11, 127
6, 824, Control_c, 4, 11, 122
6, 829, Control_c, 4, 11, 119
6, 837, Control_c, 4, 11, 115
6, 842, Control_c, 4, 11, 112
6, 850, Control_c, 4, 11, 107
6, 868, Control_c, 4, 11, 104
6, 881, Control_c, 4, 11, 103
6, 894, Control_c, 4, 11, 101
6, 907, Control_c, 4, 11, 100
6, 933, Control_c, 4, 11, 98
6, 960, Control_c, 4, 11, 97
6, 1176, Note_on_c, 4, 60, 0
6, 2282, Control_c, 4, 11, 127
6, 2304, Note_on_c, 4, 60, 107
6, 2416, Note_on_c, 4, 60, 0
6, 2496, Note_on_c, 4, 60, 103
6, 2580, Note_on_c, 4, 60, 0
6, 2644, Note_on_c, 4, 60, 103
6, 2672, Note_on_c, 4, 60, 0
6, 2688, Note_on_c, 4, 60, 103
6, 2796, Note_on_c, 4, 60, 0
6, 2880, Note_on_c, 4, 60, 103
6, 2988, Note_on_c, 4, 60, 0
6, 3072, Note_on_c, 4, 55, 103
6, 3176, Note_on_c, 4, 55, 0
6, 3264, Note_on_c, 4, 55, 103
6, 3366, Note_on_c, 4, 55, 0
6, 5376, Note_on_c, 4, 60, 108
6, 5488, Note_on_c, 4, 60, 0
6, 5568, Note_on_c, 4, 60, 103
6, 5656, Note_on_c, 4, 60, 0
6, 5713, Note_on_c, 4, 60, 103
6, 5741, Note_on_c, 4, 60, 0
6, 5760, Note_on_c, 4, 60, 103
6, 5860, Note_on_c, 4, 60, 0
6, 5952, Note_on_c, 4, 60, 103
6, 6051, Note_on_c, 4, 60, 0
6, 6144, Note_on_c, 4, 60, 106
6, 6146, Control_c, 4, 11, 118
6, 6150, Control_c, 4, 11, 120
6, 6159, Control_c, 4, 11, 123
6, 6164, Control_c, 4, 11, 124
6, 6172, Control_c, 4, 11, 127
6, 6216, Control_c, 4, 11, 126
6, 6225, Control_c, 4, 11, 125
6, 6229, Control_c, 4, 11, 123
6, 6238, Control_c, 4, 11, 122
6, 6242, Control_c, 4, 11, 120
6, 6251, Control_c, 4, 11, 117
6, 6255, Control_c, 4, 11, 116
6, 6264, Control_c, 4, 11, 113
6, 6277, Control_c, 4, 11, 110
6, 6281, Control_c, 4, 11, 107
6, 6290, Control_c, 4, 11, 105
6, 6308, Control_c, 4, 11, 104
6, 6660, Note_on_c, 4, 60, 0
6, 6897, Control_c, 4, 11, 127
6, 6912, Note_on_c, 4, 55, 116
6, 7020, Note_on_c, 4, 55, 0
6, 7104, Note_on_c, 4, 55, 116
6, 7192, Note_on_c, 4, 55, 0
6, 7250, Note_on_c, 4, 55, 116
6, 7274, Note_on_c, 4, 55, 0
6, 7296, Note_on_c, 4, 55, 116
6, 7396, Note_on_c, 4, 55, 0
6, 7488, Note_on_c, 4, 55, 116
6, 7588, Note_on_c, 4, 55, 0
6, 7680, Note_on_c, 4, 60, 103
6, 7778, Note_on_c, 4, 60, 0
6, 7872, Note_on_c, 4, 64, 103
6, 7962, Note_on_c, 4, 64, 0
6, 8064, Note_on_c, 4, 67, 103
6, 8154, Note_on_c, 4, 67, 0
6, 8448, Note_on_c, 4, 60, 103
6, 8552, Note_on_c, 4, 60, 0
6, 8640, Note_on_c, 4, 60, 103
6, 8736, Note_on_c, 4, 60, 0
6, 8785, Note_on_c, 4, 60, 103
6, 8813, Note_on_c, 4, 60, 0
6, 8832, Note_on_c, 4, 60, 103
6, 8932, Note_on_c, 4, 60, 0
6, 9024, Note_on_c, 4, 60, 103
6, 9124, Note_on_c, 4, 60, 0
6, 9216, Note_on_c, 4, 60, 103
6, 9220, Control_c, 4, 11, 121
6, 9229, Control_c, 4, 11, 123
6, 9233, Control_c, 4, 11, 124
6, 9242, Control_c, 4, 11, 126
6, 9246, Control_c, 4, 11, 127
6, 9294, Control_c, 4, 11, 122
6, 9307, Control_c, 4, 11, 119
6, 9312, Control_c, 4, 11, 114
6, 9320, Control_c, 4, 11, 111
6, 9333, Control_c, 4, 11, 108
6, 9338, Control_c, 4, 11, 107
6, 9346, Control_c, 4, 11, 105
6, 9351, Control_c, 4, 11, 104
6, 9360, Control_c, 4, 11, 102
6, 9377, Control_c, 4, 11, 101
6, 9765, Note_on_c, 4, 60, 0
6, 9984, Note_on_c, 4, 60, 51
6, 10106, Note_on_c, 4, 60, 0
6, 10176, Note_on_c, 4, 60, 51
6, 10280, Note_on_c, 4, 60, 0
6, 10321, Note_on_c, 4, 60, 51
6, 10351, Note_on_c, 4, 60, 0
6, 10368, Note_on_c, 4, 60, 51
6, 10480, Note_on_c, 4, 60, 0
6, 10560, Note_on_c, 4, 60, 50
6, 10672, Note_on_c, 4, 60, 0
6, 10751, Control_c, 4, 11, 97
6, 10752, Note_on_c, 4, 60, 50
6, 10790, Control_c, 4, 11, 100
6, 10801, Control_c, 4, 11, 101
6, 10823, Control_c, 4, 11, 103
6, 10856, Control_c, 4, 11, 104
6, 10922, Control_c, 4, 11, 106
6, 10938, Control_c, 4, 11, 105
6, 10954, Control_c, 4, 11, 103
6, 10965, Control_c, 4, 11, 102
6, 10982, Control_c, 4, 11, 100
6, 11004, Control_c, 4, 11, 99
6, 11020, Control_c, 4, 11, 97
6, 11053, Control_c, 4, 11, 96
6, 11086, Control_c, 4, 11, 94
6, 11103, Control_c, 4, 11, 93
6, 11146, Control_c, 4, 11, 91
6, 11157, Control_c, 4, 11, 87
6, 11163, Control_c, 4, 11, 85
6, 11168, Control_c, 4, 11, 84
6, 11179, Control_c, 4, 11, 82
6, 11185, Control_c, 4, 11, 81
6, 11196, Control_c, 4, 11, 79
6, 11212, Control_c, 4, 11, 78
6, 11218, Control_c, 4, 11, 76
6, 11234, Control_c, 4, 11, 75
6, 11245, Control_c, 4, 11, 73
6, 11251, Control_c, 4, 11, 70
6, 11267, Control_c, 4, 11, 69
6, 11293, Note_on_c, 4, 60, 0
6, 11295, Control_c, 4, 11, 67
6, 11300, Control_c, 4, 11, 66
6, 12079, Control_c, 4, 11, 95
6, 12096, Note_on_c, 4, 55, 60
6, 12109, Control_c, 4, 11, 98
6, 12122, Control_c, 4, 11, 99
6, 12126, Control_c, 4, 11, 100
6, 12139, Control_c, 4, 11, 102
6, 12152, Control_c, 4, 11, 105
6, 12161, Control_c, 4, 11, 106
6, 12165, Control_c, 4, 11, 108
6, 12178, Control_c, 4, 11, 111
6, 12187, Control_c, 4, 11, 112
6, 12192, Control_c, 4, 11, 114
6, 12200, Control_c, 4, 11, 115
6, 12205, Control_c, 4, 11, 117
6, 12213, Control_c, 4, 11, 118
6, 12218, Control_c, 4, 11, 120
6, 12226, Control_c, 4, 11, 121
6, 12231, Control_c, 4, 11, 126
6, 12236, Note_on_c, 4, 55, 0
6, 12240, Control_c, 4, 11, 127
6, 12288, Note_on_c, 4, 60, 60
6, 12424, Note_on_c, 4, 60, 0
6, 12480, Note_on_c, 4, 60, 60
6, 12572, Note_on_c, 4, 60, 0
6, 12624, Note_on_c, 4, 60, 60
6, 12656, Note_on_c, 4, 60, 0
6, 12672, Note_on_c, 4, 62, 60
6, 12804, Note_on_c, 4, 62, 0
6, 12864, Note_on_c, 4, 62, 60
6, 12996, Note_on_c, 4, 62, 0
6, 13056, Note_on_c, 4, 64, 60
6, 13224, Note_on_c, 4, 64, 0
6, 13632, Note_on_c, 4, 55, 59
6, 13772, Note_on_c, 4, 55, 0
6, 13824, Note_on_c, 4, 60, 63
6, 13960, Note_on_c, 4, 60, 0
6, 14016, Note_on_c, 4, 60, 69
6, 14108, Note_on_c, 4, 60, 0
6, 14160, Note_on_c, 4, 60, 74
6, 14192, Note_on_c, 4, 60, 0
6, 14208, Note_on_c, 4, 62, 75
6, 14340, Note_on_c, 4, 62, 0
6, 14400, Note_on_c, 4, 62, 84
6, 14533, Note_on_c, 4, 62, 0
6, 14592, Note_on_c, 4, 64, 94
6, 14736, Note_on_c, 4, 64, 0
6, 14784, Note_on_c, 4, 64, 104
6, 14874, Note_on_c, 4, 64, 0
6, 14928, Note_on_c, 4, 64, 104
6, 14960, Note_on_c, 4, 64, 0
6, 14976, Note_on_c, 4, 62, 104
6, 15110, Note_on_c, 4, 62, 0
6, 15168, Note_on_c, 4, 62, 104
6, 15302, Note_on_c, 4, 62, 0
6, 15360, Note_on_c, 4, 60, 104
6, 15508, Note_on_c, 4, 60, 0
6, 15552, Note_on_c, 4, 55, 82
6, 15646, Note_on_c, 4, 55, 0
6, 15698, Note_on_c, 4, 55, 82
6, 15728, Note_on_c, 4, 55, 0
6, 15744, Note_on_c, 4, 55, 82
6, 15872, Note_on_c, 4, 55, 0
6, 15936, Note_on_c, 4, 55, 82
6, 16064, Note_on_c, 4, 55, 0
6, 16128, Note_on_c, 4, 55, 88
6, 16128, Control_c, 4, 11, 124
6, 16144, Control_c, 4, 11, 125
6, 16149, Control_c, 4, 11, 127
6, 16232, Control_c, 4, 11, 126
6, 16237, Control_c, 4, 11, 126
6, 16248, Control_c, 4, 11, 124
6, 16259, Control_c, 4, 11, 123
6, 16281, Control_c, 4, 11, 121
6, 16298, Control_c, 4, 11, 120
6, 16309, Control_c, 4, 11, 118
6, 16314, Control_c, 4, 11, 117
6, 16330, Control_c, 4, 11, 115
6, 16347, Control_c, 4, 11, 114
6, 16358, Control_c, 4, 11, 112
6, 16380, Control_c, 4, 11, 111
6, 16396, Control_c, 4, 11, 109
6, 16424, Control_c, 4, 11, 108
6, 16446, Control_c, 4, 11, 106
6, 16462, Control_c, 4, 11, 105
6, 16490, Control_c, 4, 11, 103
6, 16506, Control_c, 4, 11, 102
6, 16828, Note_on_c, 4, 55, 0
6, 16896, Control_c, 4, 11, 127
6, 16896, Note_on_c, 4, 60, 82
6, 17028, Note_on_c, 4, 60, 0
6, 17088, Note_on_c, 4, 60, 82
6, 17182, Note_on_c, 4, 60, 0
6, 17234, Note_on_c, 4, 60, 82
6, 17262, Note_on_c, 4, 60, 0
6, 17280, Note_on_c, 4, 60, 82
6, 17410, Note_on_c, 4, 60, 0
6, 17472, Note_on_c, 4, 60, 82
6, 17602, Note_on_c, 4, 60, 0
6, 17664, Note_on_c, 4, 60, 88
6, 17664, Control_c, 4, 11, 124
6, 17680, Control_c, 4, 11, 125
6, 17685, Control_c, 4, 11, 127
6, 17768, Control_c, 4, 11, 126
6, 17773, Control_c, 4, 11, 126
6, 17784, Control_c, 4, 11, 124
6, 17795, Control_c, 4, 11, 123
6, 17817, Control_c, 4, 11, 121
6, 17834, Control_c, 4, 11, 120
6, 17845, Control_c, 4, 11, 118
6, 17850, Control_c, 4, 11, 117
6, 17866, Control_c, 4, 11, 115
6, 17883, Control_c, 4, 11, 114
6, 17894, Control_c, 4, 11, 112
6, 17916, Control_c, 4, 11, 111
6, 17932, Control_c, 4, 11, 109
6, 17960, Control_c, 4, 11, 108
6, 17982, Control_c, 4, 11, 106
6, 17998, Control_c, 4, 11, 105
6, 18026, Control_c, 4, 11, 103
6, 18042, Control_c, 4, 11, 102
6, 18368, Note_on_c, 4, 60, 0
6, 18432, Control_c, 4, 11, 127
6, 18432, Note_on_c, 4, 55, 82
6, 18566, Note_on_c, 4, 55, 0
6, 18624, Note_on_c, 4, 55, 82
6, 18720, Note_on_c, 4, 55, 0
6, 18768, Note_on_c, 4, 55, 82
6, 18796, Note_on_c, 4, 55, 0
6, 18816, Note_on_c, 4, 55, 82
6, 18948, Note_on_c, 4, 55, 0
6, 19008, Note_on_c, 4, 55, 82
6, 19140, Note_on_c, 4, 55, 0
6, 19200, Note_on_c, 4, 55, 89
6, 19200, Control_c, 4, 11, 124
6, 19216, Control_c, 4, 11, 125
6, 19221, Control_c, 4, 11, 127
6, 19304, Control_c, 4, 11, 126
6, 19309, Control_c, 4, 11, 126
6, 19320, Control_c, 4, 11, 124
6, 19331, Control_c, 4, 11, 123
6, 19353, Control_c, 4, 11, 121
6, 19370, Control_c, 4, 11, 120
6, 19381, Control_c, 4, 11, 118
6, 19386, Control_c, 4, 11, 117
6, 19402, Control_c, 4, 11, 115
6, 19419, Control_c, 4, 11, 114
6, 19430, Control_c, 4, 11, 112
6, 19452, Control_c, 4, 11, 111
6, 19468, Control_c, 4, 11, 109
6, 19496, Control_c, 4, 11, 108
6, 19518, Control_c, 4, 11, 106
6, 19534, Control_c, 4, 11, 105
6, 19562, Control_c, 4, 11, 103
6, 19578, Control_c, 4, 11, 102
6, 19904, Note_on_c, 4, 55, 0
6, 19968, Control_c, 4, 11, 127
6, 19968, Note_on_c, 4, 62, 99
6, 20106, Note_on_c, 4, 62, 0
6, 20160, Note_on_c, 4, 62, 82
6, 20256, Note_on_c, 4, 62, 0
6, 20306, Note_on_c, 4, 62, 82
6, 20334, Note_on_c, 4, 62, 0
6, 20352, Note_on_c, 4, 62, 82
6, 20480, Note_on_c, 4, 62, 0
6, 20544, Note_on_c, 4, 62, 82
6, 20672, Note_on_c, 4, 62, 0
6, 20736, Note_on_c, 4, 62, 95
6, 20736, Control_c, 4, 11, 124
6, 20752, Control_c, 4, 11, 125
6, 20757, Control_c, 4, 11, 127
6, 20840, Control_c, 4, 11, 126
6, 20845, Control_c, 4, 11, 126
6, 20856, Control_c, 4, 11, 124
6, 20867, Control_c, 4, 11, 123
6, 20889, Control_c, 4, 11, 121
6, 20906, Control_c, 4, 11, 120
6, 20917, Control_c, 4, 11, 118
6, 20922, Control_c, 4, 11, 117
6, 20938, Control_c, 4, 11, 115
6, 20955, Control_c, 4, 11, 114
6, 20966, Control_c, 4, 11, 112
6, 20988, Control_c, 4, 11, 111
6, 21004, Control_c, 4, 11, 109
6, 21032, Control_c, 4, 11, 108
6, 21054, Control_c, 4, 11, 106
6, 21070, Control_c, 4, 11, 105
6, 21098, Control_c, 4, 11, 103
6, 21114, Control_c, 4, 11, 103
6, 21394, Control_c, 4, 11, 104
6, 21460, Control_c, 4, 11, 106
6, 21514, Control_c, 4, 11, 107
6, 21525, Control_c, 4, 11, 109
6, 21597, Control_c, 4, 11, 110
6, 21663, Control_c, 4, 11, 113
6, 21728, Control_c, 4, 11, 115
6, 21794, Control_c, 4, 11, 116
6, 21871, Control_c, 4, 11, 118
6, 21937, Control_c, 4, 11, 119
6, 22003, Control_c, 4, 11, 121
6, 22167, Control_c, 4, 11, 120
6, 22214, Note_on_c, 4, 62, 0
6, 22272, Note_on_c, 4, 62, 92
6, 22332, Control_c, 4, 11, 121
6, 22337, Control_c, 4, 11, 124
6, 22348, Control_c, 4, 11, 127
6, 22370, Control_c, 4, 11, 126
6, 22381, Control_c, 4, 11, 124
6, 22387, Control_c, 4, 11, 123
6, 22398, Control_c, 4, 11, 121
6, 22414, Control_c, 4, 11, 120
6, 22420, Control_c, 4, 11, 118
6, 22431, Control_c, 4, 11, 117
6, 22453, Control_c, 4, 11, 115
6, 22464, Control_c, 4, 11, 114
6, 22469, Control_c, 4, 11, 112
6, 22502, Control_c, 4, 11, 111
6, 22529, Control_c, 4, 11, 109
6, 22535, Control_c, 4, 11, 108
6, 22562, Control_c, 4, 11, 106
6, 22584, Control_c, 4, 11, 105
6, 22601, Control_c, 4, 11, 103
6, 22612, Control_c, 4, 11, 102
6, 22634, Control_c, 4, 11, 100
6, 22666, Control_c, 4, 11, 99
6, 22716, Control_c, 4, 11, 97
6, 23232, Control_c, 4, 11, 99
6, 23369, Control_c, 4, 11, 100
6, 23434, Control_c, 4, 11, 101
6, 23440, Control_c, 4, 11, 103
6, 23489, Control_c, 4, 11, 104
6, 23500, Control_c, 4, 11, 106
6, 23522, Control_c, 4, 11, 107
6, 23539, Control_c, 4, 11, 109
6, 23555, Control_c, 4, 11, 110
6, 23566, Control_c, 4, 11, 112
6, 23572, Control_c, 4, 11, 113
6, 23588, Control_c, 4, 11, 115
6, 23599, Control_c, 4, 11, 116
6, 23616, Control_c, 4, 11, 118
6, 23621, Control_c, 4, 11, 119
6, 23632, Control_c, 4, 11, 121
6, 23654, Control_c, 4, 11, 122
6, 23670, Control_c, 4, 11, 124
6, 23756, Note_on_c, 4, 62, 0
6, 23791, Control_c, 4, 11, 121
6, 23802, Control_c, 4, 11, 122
6, 23808, Note_on_c, 4, 67, 92
6, 23813, Control_c, 4, 11, 125
6, 23818, Control_c, 4, 11, 127
6, 23884, Control_c, 4, 11, 126
6, 23895, Control_c, 4, 11, 124
6, 23901, Control_c, 4, 11, 121
6, 23912, Control_c, 4, 11, 120
6, 23917, Control_c, 4, 11, 118
6, 23928, Control_c, 4, 11, 117
6, 23934, Control_c, 4, 11, 115
6, 23950, Control_c, 4, 11, 114
6, 23961, Control_c, 4, 11, 112
6, 23983, Control_c, 4, 11, 111
6, 24000, Control_c, 4, 11, 109
6, 24526, Note_on_c, 4, 67, 0
6, 24576, Control_c, 4, 11, 123
6, 24576, Note_on_c, 4, 62, 103
6, 24586, Control_c, 4, 11, 124
6, 24592, Control_c, 4, 11, 125
6, 24603, Control_c, 4, 11, 127
6, 24669, Control_c, 4, 11, 126
6, 24691, Control_c, 4, 11, 124
6, 24702, Control_c, 4, 11, 123
6, 24718, Control_c, 4, 11, 121
6, 24735, Control_c, 4, 11, 120
6, 24740, Control_c, 4, 11, 118
6, 24757, Control_c, 4, 11, 117
6, 24806, Control_c, 4, 11, 115
6, 24833, Control_c, 4, 11, 114
6, 24872, Control_c, 4, 11, 112
6, 24888, Control_c, 4, 11, 111
6, 24905, Control_c, 4, 11, 109
6, 24970, Control_c, 4, 11, 108
6, 25113, Control_c, 4, 11, 109
6, 25184, Control_c, 4, 11, 112
6, 25217, Control_c, 4, 11, 113
6, 25228, Control_c, 4, 11, 115
6, 25234, Control_c, 4, 11, 116
6, 25245, Control_c, 4, 11, 118
6, 25250, Control_c, 4, 11, 121
6, 25267, Control_c, 4, 11, 124
6, 25283, Control_c, 4, 11, 125
6, 25293, Note_on_c, 4, 62, 0
6, 25300, Control_c, 4, 11, 127
6, 25344, Note_on_c, 4, 67, 86
6, 25404, Control_c, 4, 11, 127
6, 25415, Control_c, 4, 11, 126
6, 25420, Control_c, 4, 11, 124
6, 25431, Control_c, 4, 11, 123
6, 25437, Control_c, 4, 11, 121
6, 25453, Control_c, 4, 11, 120
6, 25497, Control_c, 4, 11, 118
6, 25514, Control_c, 4, 11, 117
6, 25563, Control_c, 4, 11, 115
6, 25579, Control_c, 4, 11, 114
6, 25777, Control_c, 4, 11, 115
6, 25810, Control_c, 4, 11, 118
6, 25832, Control_c, 4, 11, 119
6, 25859, Control_c, 4, 11, 121
6, 25881, Control_c, 4, 11, 124
6, 25914, Control_c, 4, 11, 125
6, 25941, Control_c, 4, 11, 127
6, 26062, Note_on_c, 4, 67, 0
6, 26112, Note_on_c, 4, 62, 116
6, 26300, Note_on_c, 4, 62, 0
6, 26496, Note_on_c, 4, 62, 82
6, 26632, Note_on_c, 4, 62, 0
6, 26688, Note_on_c, 4, 62, 76
6, 26780, Note_on_c, 4, 62, 0
6, 26834, Note_on_c, 4, 62, 82
6, 26862, Note_on_c, 4, 62, 0
6, 26880, Note_on_c, 4, 62, 116
6, 27034, Note_on_c, 4, 62, 0
6, 27264, Note_on_c, 4, 62, 82
6, 27396, Note_on_c, 4, 62, 0
6, 27456, Note_on_c, 4, 62, 82
6, 27549, Note_on_c, 4, 62, 0
6, 27602, Note_on_c, 4, 62, 82
6, 27628, Note_on_c, 4, 62, 0
6, 27648, Note_on_c, 4, 62, 116
6, 27776, Note_on_c, 4, 62, 0
6, 27840, Note_on_c, 4, 62, 82
6, 27968, Note_on_c, 4, 62, 0
6, 28032, Note_on_c, 4, 62, 116
6, 28160, Note_on_c, 4, 62, 0
6, 28224, Note_on_c, 4, 62, 82
6, 28352, Note_on_c, 4, 62, 0
6, 28416, Note_on_c, 4, 62, 116
6, 28578, Note_on_c, 4, 62, 0
6, 28800, Note_on_c, 4, 62, 116
6, 28920, Note_on_c, 4, 62, 0
6, 28992, Note_on_c, 4, 62, 116
6, 29112, Note_on_c, 4, 62, 0
6, 29184, Control_c, 4, 11, 124
6, 29184, Note_on_c, 4, 62, 116
6, 29205, Control_c, 4, 11, 123
6, 29222, Control_c, 4, 11, 121
6, 29238, Control_c, 4, 11, 120
6, 29337, Control_c, 4, 11, 118
6, 29346, Note_on_c, 4, 62, 0
6, 29348, Control_c, 4, 11, 117
6, 29354, Control_c, 4, 11, 115
6, 29365, Control_c, 4, 11, 114
6, 29370, Control_c, 4, 11, 111
6, 29924, Control_c, 4, 11, 127
6, 29952, Note_on_c, 4, 62, 116
6, 29968, Control_c, 4, 11, 121
6, 29973, Control_c, 4, 11, 118
6, 29984, Control_c, 4, 11, 117
6, 29990, Control_c, 4, 11, 115
6, 30001, Control_c, 4, 11, 114
6, 30006, Control_c, 4, 11, 111
6, 30017, Control_c, 4, 11, 109
6, 30039, Control_c, 4, 11, 108
6, 30050, Control_c, 4, 11, 106
6, 30056, Control_c, 4, 11, 105
6, 30083, Control_c, 4, 11, 103
6, 30100, Control_c, 4, 11, 102
6, 30122, Control_c, 4, 11, 100
6, 30138, Control_c, 4, 11, 99
6, 30198, Control_c, 4, 11, 97
6, 30511, Control_c, 4, 11, 98
6, 30566, Control_c, 4, 11, 100
6, 30643, Control_c, 4, 11, 101
6, 30709, Control_c, 4, 11, 103
6, 30774, Control_c, 4, 11, 104
6, 30791, Control_c, 4, 11, 106
6, 30829, Control_c, 4, 11, 107
6, 30857, Control_c, 4, 11, 110
6, 30898, Note_on_c, 4, 62, 0
6, 31488, Control_c, 4, 11, 127
6, 41439, Control_c, 4, 11, 64
6, 41472, Note_on_c, 4, 55, 46
6, 41477, Control_c, 4, 11, 66
6, 41488, Control_c, 4, 11, 67
6, 41494, Control_c, 4, 11, 70
6, 41521, Control_c, 4, 11, 72
6, 41527, Control_c, 4, 11, 73
6, 41537, Control_c, 4, 11, 76
6, 41543, Control_c, 4, 11, 81
6, 41548, Control_c, 4, 11, 81
6, 41559, Control_c, 4, 11, 82
6, 41564, Control_c, 4, 11, 84
6, 41575, Control_c, 4, 11, 85
6, 41581, Control_c, 4, 11, 87
6, 41597, Control_c, 4, 11, 88
6, 41608, Control_c, 4, 11, 90
6, 41614, Control_c, 4, 11, 91
6, 41630, Control_c, 4, 11, 93
6, 41658, Control_c, 4, 11, 94
6, 41680, Control_c, 4, 11, 96
6, 44544, Control_c, 4, 11, 96
6, 44554, Control_c, 4, 11, 95
6, 44571, Control_c, 4, 11, 93
6, 44582, Control_c, 4, 11, 92
6, 44604, Control_c, 4, 11, 90
6, 44615, Control_c, 4, 11, 89
6, 44637, Control_c, 4, 11, 87
6, 44648, Control_c, 4, 11, 86
6, 44664, Control_c, 4, 11, 84
6, 44681, Control_c, 4, 11, 83
6, 44686, Control_c, 4, 11, 80
6, 44697, Control_c, 4, 11, 75
6, 44703, Control_c, 4, 11, 69
6, 44714, Control_c, 4, 11, 63
6, 44719, Control_c, 4, 11, 62
6, 44730, Control_c, 4, 11, 59
6, 44732, Note_on_c, 4, 55, 0
6, 44736, Control_c, 4, 11, 57
6, 52025, Control_c, 4, 11, 58
6, 52224, Note_on_c, 4, 55, 76
6, 53762, Control_c, 4, 11, 56
6, 53788, Control_c, 4, 11, 57
6, 53806, Control_c, 4, 11, 58
6, 53832, Control_c, 4, 11, 59
6, 53849, Control_c, 4, 11, 60
6, 53867, Control_c, 4, 11, 61
6, 53893, Control_c, 4, 11, 62
6, 53910, Control_c, 4, 11, 63
6, 53928, Control_c, 4, 11, 64
6, 53954, Control_c, 4, 11, 65
6, 53972, Control_c, 4, 11, 66
6, 53989, Control_c, 4, 11, 67
6, 54015, Control_c, 4, 11, 68
6, 54033, Control_c, 4, 11, 69
6, 54050, Control_c, 4, 11, 70
6, 54076, Control_c, 4, 11, 71
6, 54094, Control_c, 4, 11, 72
6, 54111, Control_c, 4, 11, 73
6, 54137, Control_c, 4, 11, 74
6, 54155, Control_c, 4, 11, 75
6, 54172, Control_c, 4, 11, 76
6, 54198, Control_c, 4, 11, 77
6, 54216, Control_c, 4, 11, 78
6, 54233, Control_c, 4, 11, 79
6, 54260, Control_c, 4, 11, 80
6, 54277, Control_c, 4, 11, 81
6, 54294, Control_c, 4, 11, 82
6, 54321, Control_c, 4, 11, 83
6, 54338, Control_c, 4, 11, 84
6, 54356, Control_c, 4, 11, 85
6, 54382, Control_c, 4, 11, 86
6, 54399, Control_c, 4, 11, 87
6, 54417, Control_c, 4, 11, 88
6, 54443, Control_c, 4, 11, 89
6, 54460, Control_c, 4, 11, 90
6, 54478, Control_c, 4, 11, 91
6, 54504, Control_c, 4, 11, 92
6, 54521, Control_c, 4, 11, 93
6, 54539, Control_c, 4, 11, 94
6, 54565, Control_c, 4, 11, 95
6, 54582, Control_c, 4, 11, 96
6, 54600, Control_c, 4, 11, 97
6, 54626, Control_c, 4, 11, 98
6, 54644, Control_c, 4, 11, 99
6, 54661, Control_c, 4, 11, 100
6, 54687, Control_c, 4, 11, 101
6, 54705, Control_c, 4, 11, 102
6, 54722, Control_c, 4, 11, 103
6, 54748, Control_c, 4, 11, 104
6, 54766, Control_c, 4, 11, 105
6, 54783, Control_c, 4, 11, 106
6, 54809, Control_c, 4, 11, 107
6, 54827, Control_c, 4, 11, 108
6, 54844, Control_c, 4, 11, 109
6, 54870, Control_c, 4, 11, 110
6, 54888, Control_c, 4, 11, 111
6, 54905, Control_c, 4, 11, 112
6, 54932, Control_c, 4, 11, 113
6, 54949, Control_c, 4, 11, 114
6, 54966, Control_c, 4, 11, 115
6, 54993, Control_c, 4, 11, 116
6, 55010, Control_c, 4, 11, 117
6, 55028, Control_c, 4, 11, 118
6, 55054, Control_c, 4, 11, 119
6, 55071, Control_c, 4, 11, 120
6, 55089, Control_c, 4, 11, 121
6, 55115, Control_c, 4, 11, 122
6, 55132, Control_c, 4, 11, 123
6, 55150, Control_c, 4, 11, 124
6, 55176, Control_c, 4, 11, 125
6, 55193, Control_c, 4, 11, 126
6, 55211, Control_c, 4, 11, 127
6, 55266, Note_on_c, 4, 55, 0
6, 55296, Note_on_c, 4, 55, 82
6, 56974, Note_on_c, 4, 55, 0
6, 57024, Note_on_c, 4, 62, 116
6, 57114, Note_on_c, 4, 62, 0
6, 57168, Note_on_c, 4, 62, 115
6, 57196, Note_on_c, 4, 62, 0
6, 57216, Note_on_c, 4, 62, 115
6, 57241, Control_c, 4, 11, 127
6, 57250, Control_c, 4, 11, 126
6, 57259, Control_c, 4, 11, 124
6, 57267, Control_c, 4, 11, 123
6, 57276, Control_c, 4, 11, 121
6, 57285, Control_c, 4, 11, 120
6, 57294, Control_c, 4, 11, 118
6, 57302, Control_c, 4, 11, 117
6, 57311, Control_c, 4, 11, 115
6, 57320, Control_c, 4, 11, 114
6, 57328, Control_c, 4, 11, 112
6, 57337, Control_c, 4, 11, 110
6, 57346, Control_c, 4, 11, 109
6, 57355, Control_c, 4, 11, 107
6, 57363, Control_c, 4, 11, 106
6, 57372, Control_c, 4, 11, 104
6, 57381, Control_c, 4, 11, 103
6, 57390, Control_c, 4, 11, 101
6, 57398, Control_c, 4, 11, 100
6, 57407, Control_c, 4, 11, 98
6, 57416, Control_c, 4, 11, 96
6, 57424, Control_c, 4, 11, 93
6, 57433, Control_c, 4, 11, 90
6, 57442, Control_c, 4, 11, 87
6, 57451, Control_c, 4, 11, 84
6, 57459, Control_c, 4, 11, 81
6, 57468, Control_c, 4, 11, 78
6, 57477, Control_c, 4, 11, 75
6, 57486, Control_c, 4, 11, 72
6, 57494, Control_c, 4, 11, 69
6, 57503, Control_c, 4, 11, 66
6, 57506, Control_c, 4, 11, 63
6, 57515, Control_c, 4, 11, 61
6, 57524, Control_c, 4, 11, 59
6, 58326, Note_on_c, 4, 62, 0
6, 59685, Control_c, 4, 11, 117
6, 59694, Control_c, 4, 11, 116
6, 59904, Note_on_c, 4, 62, 115
6, 59912, Control_c, 4, 11, 113
6, 59930, Control_c, 4, 11, 110
6, 59956, Control_c, 4, 11, 107
6, 59982, Control_c, 4, 11, 105
6, 60008, Control_c, 4, 11, 104
6, 60017, Control_c, 4, 11, 102
6, 60034, Control_c, 4, 11, 99
6, 60043, Control_c, 4, 11, 98
6, 60061, Control_c, 4, 11, 95
6, 60069, Control_c, 4, 11, 93
6, 60087, Control_c, 4, 11, 92
6, 60113, Control_c, 4, 11, 90
6, 60122, Control_c, 4, 11, 87
6, 60139, Control_c, 4, 11, 86
6, 60148, Control_c, 4, 11, 84
6, 60165, Control_c, 4, 11, 81
6, 60174, Control_c, 4, 11, 78
6, 60183, Control_c, 4, 11, 75
6, 60192, Control_c, 4, 11, 74
6, 60200, Control_c, 4, 11, 72
6, 60209, Control_c, 4, 11, 71
6, 60218, Control_c, 4, 11, 69
6, 60226, Control_c, 4, 11, 68
6, 60235, Control_c, 4, 11, 66
6, 60244, Control_c, 4, 11, 65
6, 60253, Control_c, 4, 11, 63
6, 60261, Control_c, 4, 11, 62
6, 60270, Control_c, 4, 11, 60
6, 60279, Control_c, 4, 11, 59
6, 60288, Control_c, 4, 11, 57
6, 60296, Control_c, 4, 11, 56
6, 61398, Note_on_c, 4, 62, 0
6, 62592, Control_c, 4, 11, 127
6, 62976, Note_on_c, 4, 62, 56
6, 63154, Note_on_c, 4, 62, 0
6, 64128, Note_on_c, 4, 64, 82
6, 64264, Note_on_c, 4, 64, 0
6, 64320, Note_on_c, 4, 64, 82
6, 64456, Note_on_c, 4, 64, 0
6, 64512, Note_on_c, 4, 64, 82
6, 64656, Note_on_c, 4, 64, 0
6, 64896, Note_on_c, 4, 62, 103
6, 65032, Note_on_c, 4, 62, 0
6, 65088, Note_on_c, 4, 62, 103
6, 65224, Note_on_c, 4, 62, 0
6, 65280, Note_on_c, 4, 62, 82
6, 65416, Note_on_c, 4, 62, 0
6, 65472, Note_on_c, 4, 55, 82
6, 65814, Note_on_c, 4, 55, 0
6, 65856, Note_on_c, 4, 55, 82
6, 65992, Note_on_c, 4, 55, 0
6, 66048, Note_on_c, 4, 55, 82
6, 66380, Note_on_c, 4, 55, 0
6, 66432, Note_on_c, 4, 64, 82
6, 66764, Note_on_c, 4, 64, 0
6, 66816, Note_on_c, 4, 62, 103
6, 67148, Note_on_c, 4, 62, 0
6, 67200, Note_on_c, 4, 62, 103
6, 67332, Note_on_c, 4, 62, 0
6, 67392, Note_on_c, 4, 62, 103
6, 67524, Note_on_c, 4, 62, 0
6, 67584, Note_on_c, 4, 62, 82
6, 67762, Note_on_c, 4, 62, 0
6, 68736, Note_on_c, 4, 64, 82
6, 68880, Note_on_c, 4, 64, 0
6, 68928, Note_on_c, 4, 64, 82
6, 69072, Note_on_c, 4, 64, 0
6, 69120, Note_on_c, 4, 64, 82
6, 69262, Note_on_c, 4, 64, 0
6, 69504, Note_on_c, 4, 62, 103
6, 69648, Note_on_c, 4, 62, 0
6, 69696, Note_on_c, 4, 62, 103
6, 69840, Note_on_c, 4, 62, 0
6, 69888, Note_on_c, 4, 62, 82
6, 70024, Note_on_c, 4, 62, 0
6, 70080, Note_on_c, 4, 55, 82
6, 70422, Note_on_c, 4, 55, 0
6, 70464, Note_on_c, 4, 55, 82
6, 70608, Note_on_c, 4, 55, 0
6, 70656, Note_on_c, 4, 55, 82
6, 72904, Note_on_c, 4, 55, 0
6, 72960, Note_on_c, 4, 64, 101
6, 73292, Note_on_c, 4, 64, 0
6, 73344, Note_on_c, 4, 64, 95
6, 73482, Note_on_c, 4, 64, 0
6, 73536, Note_on_c, 4, 64, 95
6, 73674, Note_on_c, 4, 64, 0
6, 73728, Note_on_c, 4, 62, 95
6, 73906, Note_on_c, 4, 62, 0
6, 73920, Note_on_c, 4, 60, 95
6, 74098, Note_on_c, 4, 60, 0
6, 74112, Note_on_c, 4, 62, 95
6, 74290, Note_on_c, 4, 62, 0
6, 74304, Note_on_c, 4, 64, 96
6, 74482, Note_on_c, 4, 64, 0
6, 74496, Note_on_c, 4, 62, 96
6, 74674, Note_on_c, 4, 62, 0
6, 74688, Note_on_c, 4, 60, 96
6, 74866, Note_on_c, 4, 60, 0
6, 74880, Note_on_c, 4, 62, 96
6, 75058, Note_on_c, 4, 62, 0
6, 75072, Note_on_c, 4, 64, 96
6, 75250, Note_on_c, 4, 64, 0
6, 75264, Note_on_c, 4, 62, 96
6, 75442, Note_on_c, 4, 62, 0
6, 75456, Note_on_c, 4, 60, 96
6, 75634, Note_on_c, 4, 60, 0
6, 75648, Note_on_c, 4, 62, 97
6, 75826, Note_on_c, 4, 62, 0
6, 75840, Note_on_c, 4, 64, 97
6, 76018, Note_on_c, 4, 64, 0
6, 76032, Note_on_c, 4, 62, 97
6, 76188, Note_on_c, 4, 62, 0
6, 76224, Note_on_c, 4, 62, 97
6, 76380, Note_on_c, 4, 62, 0
6, 76416, Note_on_c, 4, 62, 97
6, 76572, Note_on_c, 4, 62, 0
6, 76608, Note_on_c, 4, 62, 97
6, 76764, Note_on_c, 4, 62, 0
6, 76800, Note_on_c, 4, 62, 97
6, 76956, Note_on_c, 4, 62, 0
6, 79867, Control_c, 4, 11, 112
6, 79872, Note_on_c, 4, 55, 82
6, 79876, Control_c, 4, 11, 124
6, 79890, Control_c, 4, 11, 125
6, 79897, Control_c, 4, 11, 127
6, 79979, Control_c, 4, 11, 126
6, 79985, Control_c, 4, 11, 127
6, 79999, Control_c, 4, 11, 123
6, 80006, Control_c, 4, 11, 121
6, 80020, Control_c, 4, 11, 120
6, 80027, Control_c, 4, 11, 114
6, 80040, Control_c, 4, 11, 112
6, 80047, Control_c, 4, 11, 109
6, 80068, Control_c, 4, 11, 106
6, 80081, Control_c, 4, 11, 105
6, 80088, Control_c, 4, 11, 100
6, 80102, Control_c, 4, 11, 97
6, 83116, Note_on_c, 4, 55, 0
6, 84423, Control_c, 4, 11, 127
6, 84480, Note_on_c, 4, 55, 103
6, 84624, Note_on_c, 4, 55, 0
6, 85056, Note_on_c, 4, 62, 103
6, 85180, Note_on_c, 4, 62, 0
6, 85248, Note_on_c, 4, 55, 103
6, 85392, Note_on_c, 4, 55, 0
6, 85824, Note_on_c, 4, 62, 103
6, 85949, Note_on_c, 4, 62, 0
6, 86016, Note_on_c, 4, 55, 103
6, 86160, Note_on_c, 4, 55, 0
6, 87552, Note_on_c, 4, 55, 75
6, 87560, Control_c, 4, 11, 118
6, 87578, Control_c, 4, 11, 120
6, 87586, Control_c, 4, 11, 121
6, 87604, Control_c, 4, 11, 123
6, 87613, Control_c, 4, 11, 124
6, 87630, Control_c, 4, 11, 126
6, 87639, Control_c, 4, 11, 127
6, 87709, Control_c, 4, 11, 126
6, 87717, Control_c, 4, 11, 125
6, 87726, Control_c, 4, 11, 124
6, 87735, Control_c, 4, 11, 122
6, 87744, Control_c, 4, 11, 121
6, 87752, Control_c, 4, 11, 120
6, 87761, Control_c, 4, 11, 118
6, 87770, Control_c, 4, 11, 117
6, 87778, Control_c, 4, 11, 116
6, 87787, Control_c, 4, 11, 114
6, 87796, Control_c, 4, 11, 113
6, 87805, Control_c, 4, 11, 112
6, 87813, Control_c, 4, 11, 110
6, 87822, Control_c, 4, 11, 109
6, 87831, Control_c, 4, 11, 108
6, 87840, Control_c, 4, 11, 106
6, 87848, Control_c, 4, 11, 104
6, 87857, Control_c, 4, 11, 101
6, 87866, Control_c, 4, 11, 98
6, 87874, Control_c, 4, 11, 95
6, 87877, Control_c, 4, 11, 95
6, 87886, Control_c, 4, 11, 93
6, 87891, Control_c, 4, 11, 99
6, 87902, Control_c, 4, 11, 96
6, 87914, Control_c, 4, 11, 92
6, 87925, Control_c, 4, 11, 88
6, 87936, Control_c, 4, 11, 85
6, 87948, Control_c, 4, 11, 81
6, 87959, Control_c, 4, 11, 77
6, 87970, Control_c, 4, 11, 74
6, 87981, Control_c, 4, 11, 70
6, 87993, Control_c, 4, 11, 66
6, 88004, Control_c, 4, 11, 63
6, 88015, Control_c, 4, 11, 59
6, 88027, Control_c, 4, 11, 55
6, 89028, Note_on_c, 4, 55, 0
6, 89088, Note_on_c, 4, 55, 75
6, 89088, Control_c, 4, 11, 118
6, 89106, Control_c, 4, 11, 120
6, 89114, Control_c, 4, 11, 121
6, 89132, Control_c, 4, 11, 123
6, 89141, Control_c, 4, 11, 124
6, 89158, Control_c, 4, 11, 126
6, 89167, Control_c, 4, 11, 127
6, 89237, Control_c, 4, 11, 126
6, 89245, Control_c, 4, 11, 125
6, 89254, Control_c, 4, 11, 124
6, 89263, Control_c, 4, 11, 122
6, 89272, Control_c, 4, 11, 121
6, 89280, Control_c, 4, 11, 120
6, 89289, Control_c, 4, 11, 118
6, 89298, Control_c, 4, 11, 117
6, 89306, Control_c, 4, 11, 116
6, 89315, Control_c, 4, 11, 114
6, 89324, Control_c, 4, 11, 113
6, 89333, Control_c, 4, 11, 112
6, 89341, Control_c, 4, 11, 110
6, 89350, Control_c, 4, 11, 109
6, 89359, Control_c, 4, 11, 108
6, 89368, Control_c, 4, 11, 106
6, 89376, Control_c, 4, 11, 104
6, 89385, Control_c, 4, 11, 101
6, 89394, Control_c, 4, 11, 98
6, 89402, Control_c, 4, 11, 95
6, 89405, Control_c, 4, 11, 95
6, 89414, Control_c, 4, 11, 93
6, 89422, Control_c, 4, 11, 91
6, 89431, Control_c, 4, 11, 89
6, 89438, Control_c, 4, 11, 92
6, 89450, Control_c, 4, 11, 89
6, 89461, Control_c, 4, 11, 85
6, 89472, Control_c, 4, 11, 81
6, 89484, Control_c, 4, 11, 77
6, 89495, Control_c, 4, 11, 73
6, 89506, Control_c, 4, 11, 69
6, 89517, Control_c, 4, 11, 65
6, 89529, Control_c, 4, 11, 61
6, 89540, Control_c, 4, 11, 57
6, 89551, Control_c, 4, 11, 53
6, 90564, Note_on_c, 4, 55, 0
6, 90624, Note_on_c, 4, 55, 75
6, 90624, Control_c, 4, 11, 118
6, 90642, Control_c, 4, 11, 120
6, 90650, Control_c, 4, 11, 121
6, 90668, Control_c, 4, 11, 123
6, 90677, Control_c, 4, 11, 124
6, 90694, Control_c, 4, 11, 126
6, 90703, Control_c, 4, 11, 127
6, 90773, Control_c, 4, 11, 126
6, 90781, Control_c, 4, 11, 125
6, 90790, Control_c, 4, 11, 124
6, 90799, Control_c, 4, 11, 122
6, 90808, Control_c, 4, 11, 121
6, 90816, Control_c, 4, 11, 120
6, 90825, Control_c, 4, 11, 118
6, 90834, Control_c, 4, 11, 117
6, 90842, Control_c, 4, 11, 116
6, 90851, Control_c, 4, 11, 114
6, 90860, Control_c, 4, 11, 113
6, 90869, Control_c, 4, 11, 112
6, 90877, Control_c, 4, 11, 110
6, 90886, Control_c, 4, 11, 109
6, 90895, Control_c, 4, 11, 108
6, 90904, Control_c, 4, 11, 106
6, 90912, Control_c, 4, 11, 104
6, 90921, Control_c, 4, 11, 101
6, 90930, Control_c, 4, 11, 98
6, 90938, Control_c, 4, 11, 95
6, 90941, Control_c, 4, 11, 95
6, 90950, Control_c, 4, 11, 93
6, 90958, Control_c, 4, 11, 91
6, 90967, Control_c, 4, 11, 89
6, 90976, Control_c, 4, 11, 86
6, 90985, Control_c, 4, 11, 84
6, 90993, Control_c, 4, 11, 82
6, 91002, Control_c, 4, 11, 80
6, 91008, Control_c, 4, 11, 84
6, 91020, Control_c, 4, 11, 82
6, 91031, Control_c, 4, 11, 79
6, 91042, Control_c, 4, 11, 76
6, 91053, Control_c, 4, 11, 73
6, 91065, Control_c, 4, 11, 71
6, 91076, Control_c, 4, 11, 68
6, 91087, Control_c, 4, 11, 65
6, 91099, Control_c, 4, 11, 62
6, 91110, Control_c, 4, 11, 59
6, 92100, Note_on_c, 4, 55, 0
6, 92160, Note_on_c, 4, 55, 76
6, 92160, Control_c, 4, 11, 118
6, 92178, Control_c, 4, 11, 120
6, 92186, Control_c, 4, 11, 121
6, 92204, Control_c, 4, 11, 123
6, 92213, Control_c, 4, 11, 124
6, 92230, Control_c, 4, 11, 126
6, 92239, Control_c, 4, 11, 127
6, 92309, Control_c, 4, 11, 126
6, 92317, Control_c, 4, 11, 125
6, 92326, Control_c, 4, 11, 124
6, 92335, Control_c, 4, 11, 122
6, 92344, Control_c, 4, 11, 121
6, 92352, Control_c, 4, 11, 120
6, 92361, Control_c, 4, 11, 118
6, 92370, Control_c, 4, 11, 117
6, 92378, Control_c, 4, 11, 116
6, 92387, Control_c, 4, 11, 114
6, 92396, Control_c, 4, 11, 113
6, 92405, Control_c, 4, 11, 112
6, 92413, Control_c, 4, 11, 110
6, 92422, Control_c, 4, 11, 109
6, 92431, Control_c, 4, 11, 108
6, 92440, Control_c, 4, 11, 106
6, 92448, Control_c, 4, 11, 104
6, 92457, Control_c, 4, 11, 101
6, 92466, Control_c, 4, 11, 98
6, 92474, Control_c, 4, 11, 95
6, 92477, Control_c, 4, 11, 95
6, 92486, Control_c, 4, 11, 93
6, 92494, Control_c, 4, 11, 91
6, 92499, Control_c, 4, 11, 92
6, 92510, Control_c, 4, 11, 90
6, 92522, Control_c, 4, 11, 87
6, 92533, Control_c, 4, 11, 85
6, 92544, Control_c, 4, 11, 82
6, 92556, Control_c, 4, 11, 79
6, 92567, Control_c, 4, 11, 77
6, 92578, Control_c, 4, 11, 74
6, 92589, Control_c, 4, 11, 72
6, 92601, Control_c, 4, 11, 69
6, 92612, Control_c, 4, 11, 66
6, 92623, Control_c, 4, 11, 64
6, 92635, Control_c, 4, 11, 61
6, 92646, Control_c, 4, 11, 58
6, 93636, Note_on_c, 4, 55, 0
6, 93696, Note_on_c, 4, 55, 76
6, 93696, Control_c, 4, 11, 118
6, 93714, Control_c, 4, 11, 120
6, 93722, Control_c, 4, 11, 121
6, 93740, Control_c, 4, 11, 123
6, 93749, Control_c, 4, 11, 124
6, 93766, Control_c, 4, 11, 126
6, 93775, Control_c, 4, 11, 127
6, 93845, Control_c, 4, 11, 126
6, 93853, Control_c, 4, 11, 125
6, 93862, Control_c, 4, 11, 124
6, 93871, Control_c, 4, 11, 122
6, 93880, Control_c, 4, 11, 121
6, 93888, Control_c, 4, 11, 120
6, 93897, Control_c, 4, 11, 118
6, 93906, Control_c, 4, 11, 117
6, 93914, Control_c, 4, 11, 116
6, 93923, Control_c, 4, 11, 114
6, 93932, Control_c, 4, 11, 113
6, 93941, Control_c, 4, 11, 112
6, 93949, Control_c, 4, 11, 110
6, 93958, Control_c, 4, 11, 109
6, 93967, Control_c, 4, 11, 108
6, 93976, Control_c, 4, 11, 106
6, 93984, Control_c, 4, 11, 104
6, 93993, Control_c, 4, 11, 101
6, 94002, Control_c, 4, 11, 98
6, 94010, Control_c, 4, 11, 95
6, 94013, Control_c, 4, 11, 95
6, 94022, Control_c, 4, 11, 93
6, 94030, Control_c, 4, 11, 91
6, 94039, Control_c, 4, 11, 89
6, 94048, Control_c, 4, 11, 86
6, 94057, Control_c, 4, 11, 84
6, 94065, Control_c, 4, 11, 82
6, 94074, Control_c, 4, 11, 80
6, 94083, Control_c, 4, 11, 77
6, 94092, Control_c, 4, 11, 75
6, 94100, Control_c, 4, 11, 73
6, 94109, Control_c, 4, 11, 71
6, 94118, Control_c, 4, 11, 68
6, 94137, Control_c, 4, 11, 68
6, 94148, Control_c, 4, 11, 65
6, 94159, Control_c, 4, 11, 62
6, 94171, Control_c, 4, 11, 59
6, 94182, Control_c, 4, 11, 56
6, 95172, Note_on_c, 4, 55, 0
6, 95232, Note_on_c, 4, 55, 77
6, 95232, Control_c, 4, 11, 118
6, 95250, Control_c, 4, 11, 120
6, 95258, Control_c, 4, 11, 121
6, 95276, Control_c, 4, 11, 123
6, 95285, Control_c, 4, 11, 124
6, 95302, Control_c, 4, 11, 126
6, 95311, Control_c, 4, 11, 127
6, 95381, Control_c, 4, 11, 126
6, 95389, Control_c, 4, 11, 125
6, 95398, Control_c, 4, 11, 124
6, 95407, Control_c, 4, 11, 122
6, 95416, Control_c, 4, 11, 121
6, 95424, Control_c, 4, 11, 120
6, 95433, Control_c, 4, 11, 118
6, 95442, Control_c, 4, 11, 117
6, 95450, Control_c, 4, 11, 116
6, 95459, Control_c, 4, 11, 114
6, 95468, Control_c, 4, 11, 113
6, 95477, Control_c, 4, 11, 112
6, 95485, Control_c, 4, 11, 110
6, 95494, Control_c, 4, 11, 109
6, 95503, Control_c, 4, 11, 108
6, 95512, Control_c, 4, 11, 106
6, 95520, Control_c, 4, 11, 104
6, 95529, Control_c, 4, 11, 101
6, 95538, Control_c, 4, 11, 98
6, 95546, Control_c, 4, 11, 95
6, 95549, Control_c, 4, 11, 95
6, 95558, Control_c, 4, 11, 93
6, 95566, Control_c, 4, 11, 91
6, 95575, Control_c, 4, 11, 89
6, 95584, Control_c, 4, 11, 86
6, 95593, Control_c, 4, 11, 84
6, 95601, Control_c, 4, 11, 82
6, 95610, Control_c, 4, 11, 80
6, 95619, Control_c, 4, 11, 77
6, 95628, Control_c, 4, 11, 75
6, 95636, Control_c, 4, 11, 73
6, 95645, Control_c, 4, 11, 71
6, 95654, Control_c, 4, 11, 68
6, 95661, Control_c, 4, 11, 67
6, 95672, Control_c, 4, 11, 64
6, 95683, Control_c, 4, 11, 60
6, 95695, Control_c, 4, 11, 57
6, 95706, Control_c, 4, 11, 53
6, 96708, Note_on_c, 4, 55, 0
6, 97553, Control_c, 4, 11, 127
6, 102870, Control_c, 4, 11, 83
6, 102881, Control_c, 4, 11, 84
6, 102892, Control_c, 4, 11, 86
6, 102912, Note_on_c, 4, 60, 53
6, 102915, Control_c, 4, 11, 92
6, 102926, Control_c, 4, 11, 93
6, 102949, Control_c, 4, 11, 96
6, 102960, Control_c, 4, 11, 99
6, 102983, Control_c, 4, 11, 101
6, 102994, Control_c, 4, 11, 105
6, 103017, Control_c, 4, 11, 107
6, 103028, Control_c, 4, 11, 108
6, 103062, Control_c, 4, 11, 110
6, 103084, Control_c, 4, 11, 113
6, 103118, Control_c, 4, 11, 114
6, 103186, Control_c, 4, 11, 116
6, 103197, Control_c, 4, 11, 117
6, 103254, Control_c, 4, 11, 119
6, 103333, Control_c, 4, 11, 120
6, 103423, Control_c, 4, 11, 119
6, 103502, Control_c, 4, 11, 118
6, 103525, Control_c, 4, 11, 116
6, 103536, Control_c, 4, 11, 115
6, 103604, Control_c, 4, 11, 113
6, 103864, Control_c, 4, 11, 112
6, 104123, Control_c, 4, 11, 111
6, 104372, Control_c, 4, 11, 110
6, 104632, Control_c, 4, 11, 109
6, 104880, Control_c, 4, 11, 108
6, 105140, Control_c, 4, 11, 107
6, 105400, Control_c, 4, 11, 106
6, 105648, Control_c, 4, 11, 105
6, 105908, Control_c, 4, 11, 104
6, 106156, Control_c, 4, 11, 103
6, 106416, Control_c, 4, 11, 102
6, 106676, Control_c, 4, 11, 101
6, 106924, Control_c, 4, 11, 100
6, 107184, Control_c, 4, 11, 99
6, 107433, Control_c, 4, 11, 98
6, 107452, Control_c, 4, 11, 98
6, 107474, Control_c, 4, 11, 97
6, 107477, Note_on_c, 4, 60, 0
6, 107497, Control_c, 4, 11, 95
6, 107520, Note_on_c, 4, 55, 54
6, 107542, Control_c, 4, 11, 91
6, 112071, Control_c, 4, 11, 86
6, 112082, Control_c, 4, 11, 85
6, 112105, Control_c, 4, 11, 82
6, 112139, Control_c, 4, 11, 80
6, 112150, Control_c, 4, 11, 77
6, 112173, Control_c, 4, 11, 76
6, 112207, Control_c, 4, 11, 73
6, 112218, Control_c, 4, 11, 71
6, 112240, Control_c, 4, 11, 70
6, 112252, Control_c, 4, 11, 68
6, 112274, Control_c, 4, 11, 65
6, 112286, Control_c, 4, 11, 64
6, 112316, Note_on_c, 4, 55, 0
6, 112320, Control_c, 4, 11, 58
6, 113657, Control_c, 4, 11, 116
6, 113664, Note_on_c, 4, 55, 44
6, 113710, Control_c, 4, 11, 118
6, 113745, Control_c, 4, 11, 120
6, 113762, Control_c, 4, 11, 121
6, 113797, Control_c, 4, 11, 123
6, 113823, Control_c, 4, 11, 124
6, 113849, Control_c, 4, 11, 127
6, 115202, Control_c, 4, 11, 126
6, 115316, Control_c, 4, 11, 125
6, 115429, Control_c, 4, 11, 124
6, 115534, Control_c, 4, 11, 123
6, 115647, Control_c, 4, 11, 122
6, 115761, Control_c, 4, 11, 121
6, 115865, Control_c, 4, 11, 120
6, 115979, Control_c, 4, 11, 119
6, 116092, Control_c, 4, 11, 118
6, 116197, Control_c, 4, 11, 117
6, 116852, Control_c, 4, 11, 111
6, 116869, Control_c, 4, 11, 110
6, 116878, Control_c, 4, 11, 109
6, 116886, Control_c, 4, 11, 108
6, 116895, Control_c, 4, 11, 107
6, 116904, Control_c, 4, 11, 106
6, 116913, Control_c, 4, 11, 105
6, 116921, Control_c, 4, 11, 104
6, 116930, Control_c, 4, 11, 103
6, 116939, Control_c, 4, 11, 102
6, 116948, Control_c, 4, 11, 101
6, 116956, Control_c, 4, 11, 100
6, 116965, Control_c, 4, 11, 99
6, 116974, Control_c, 4, 11, 98
6, 116982, Control_c, 4, 11, 97
6, 116991, Control_c, 4, 11, 96
6, 120427, Control_c, 4, 11, 95
6, 120453, Control_c, 4, 11, 94
6, 120471, Control_c, 4, 11, 93
6, 120488, Control_c, 4, 11, 92
6, 120514, Control_c, 4, 11, 91
6, 120532, Control_c, 4, 11, 90
6, 120549, Control_c, 4, 11, 89
6, 120576, Control_c, 4, 11, 88
6, 120593, Control_c, 4, 11, 87
6, 120610, Control_c, 4, 11, 86
6, 120628, Control_c, 4, 11, 85
6, 120654, Control_c, 4, 11, 84
6, 120672, Control_c, 4, 11, 83
6, 120689, Control_c, 4, 11, 82
6, 120715, Control_c, 4, 11, 81
6, 120733, Control_c, 4, 11, 80
6, 120750, Control_c, 4, 11, 79
6, 120754, Note_on_c, 4, 55, 0
6, 120768, Control_c, 4, 11, 78
6, 121152, Control_c, 4, 11, 127
6, 121344, Control_c, 4, 11, 124
6, 121344, Note_on_c, 4, 60, 103
6, 121352, Control_c, 4, 11, 125
6, 121361, Control_c, 4, 11, 126
6, 121365, Control_c, 4, 11, 127
6, 121400, Control_c, 4, 11, 122
6, 121405, Control_c, 4, 11, 119
6, 121413, Control_c, 4, 11, 115
6, 121418, Control_c, 4, 11, 112
6, 121426, Control_c, 4, 11, 107
6, 121444, Control_c, 4, 11, 104
6, 121457, Control_c, 4, 11, 103
6, 121470, Control_c, 4, 11, 101
6, 121483, Control_c, 4, 11, 100
6, 121509, Control_c, 4, 11, 98
6, 121536, Control_c, 4, 11, 97
6, 121752, Note_on_c, 4, 60, 0
6, 122858, Control_c, 4, 11, 127
6, 122880, Note_on_c, 4, 60, 107
6, 122988, Note_on_c, 4, 60, 0
6, 123072, Note_on_c, 4, 60, 103
6, 123156, Note_on_c, 4, 60, 0
6, 123220, Note_on_c, 4, 60, 103
6, 123248, Note_on_c, 4, 60, 0
6, 123264, Note_on_c, 4, 60, 103
6, 123372, Note_on_c, 4, 60, 0
6, 123456, Note_on_c, 4, 60, 103
6, 123564, Note_on_c, 4, 60, 0
6, 123648, Note_on_c, 4, 55, 103
6, 123752, Note_on_c, 4, 55, 0
6, 123840, Note_on_c, 4, 55, 103
6, 123942, Note_on_c, 4, 55, 0
6, 124416, Note_on_c, 4, 60, 107
6, 124520, Note_on_c, 4, 60, 0
6, 124608, Note_on_c, 4, 60, 107
6, 124694, Note_on_c, 4, 60, 0
6, 124758, Note_on_c, 4, 60, 107
6, 124784, Note_on_c, 4, 60, 0
6, 124800, Note_on_c, 4, 60, 107
6, 124900, Note_on_c, 4, 60, 0
6, 124992, Note_on_c, 4, 60, 107
6, 125092, Note_on_c, 4, 60, 0
6, 125184, Note_on_c, 4, 55, 109
6, 125201, Control_c, 4, 11, 124
6, 125210, Control_c, 4, 11, 127
6, 125262, Control_c, 4, 11, 127
6, 125314, Control_c, 4, 11, 126
6, 125349, Control_c, 4, 11, 125
6, 125367, Control_c, 4, 11, 122
6, 125393, Control_c, 4, 11, 119
6, 125402, Control_c, 4, 11, 117
6, 125419, Control_c, 4, 11, 116
6, 125428, Control_c, 4, 11, 113
6, 125445, Control_c, 4, 11, 111
6, 125454, Control_c, 4, 11, 105
6, 125472, Control_c, 4, 11, 104
6, 125480, Control_c, 4, 11, 101
6, 125498, Control_c, 4, 11, 99
6, 125506, Control_c, 4, 11, 98
6, 125524, Control_c, 4, 11, 95
6, 125533, Control_c, 4, 11, 93
6, 125882, Note_on_c, 4, 55, 0
6, 125952, Control_c, 4, 11, 127
6, 125952, Note_on_c, 4, 60, 107
6, 126056, Note_on_c, 4, 60, 0
6, 126144, Note_on_c, 4, 60, 107
6, 126230, Note_on_c, 4, 60, 0
6, 126294, Note_on_c, 4, 60, 107
6, 126320, Note_on_c, 4, 60, 0
6, 126336, Note_on_c, 4, 60, 107
6, 126436, Note_on_c, 4, 60, 0
6, 126528, Note_on_c, 4, 60, 107
6, 126628, Note_on_c, 4, 60, 0
6, 126720, Note_on_c, 4, 60, 108
6, 126737, Control_c, 4, 11, 127
6, 126781, Control_c, 4, 11, 125
6, 126807, Control_c, 4, 11, 123
6, 126842, Control_c, 4, 11, 122
6, 126859, Control_c, 4, 11, 120
6, 126868, Control_c, 4, 11, 119
6, 126885, Control_c, 4, 11, 117
6, 126912, Control_c, 4, 11, 116
6, 126946, Control_c, 4, 11, 114
6, 126964, Control_c, 4, 11, 110
6, 126973, Control_c, 4, 11, 104
6, 126990, Control_c, 4, 11, 102
6, 126999, Control_c, 4, 11, 101
6, 127016, Control_c, 4, 11, 96
6, 127025, Control_c, 4, 11, 95
6, 127042, Control_c, 4, 11, 92
6, 127077, Control_c, 4, 11, 90
6, 127418, Note_on_c, 4, 60, 0
6, 127488, Note_on_c, 4, 60, 107
6, 127488, Control_c, 4, 11, 127
6, 127592, Note_on_c, 4, 60, 0
6, 127680, Note_on_c, 4, 60, 107
6, 127766, Note_on_c, 4, 60, 0
6, 127830, Note_on_c, 4, 60, 107
6, 127856, Note_on_c, 4, 60, 0
6, 127872, Note_on_c, 4, 60, 107
6, 127972, Note_on_c, 4, 60, 0
6, 128064, Note_on_c, 4, 60, 107
6, 128164, Note_on_c, 4, 60, 0
6, 128256, Note_on_c, 4, 60, 107
6, 128325, Control_c, 4, 11, 125
6, 128334, Control_c, 4, 11, 123
6, 128360, Control_c, 4, 11, 122
6, 128378, Control_c, 4, 11, 120
6, 128386, Control_c, 4, 11, 117
6, 128404, Control_c, 4, 11, 116
6, 128413, Control_c, 4, 11, 111
6, 128430, Control_c, 4, 11, 108
6, 128439, Control_c, 4, 11, 105
6, 128456, Control_c, 4, 11, 104
6, 128465, Control_c, 4, 11, 101
6, 128482, Control_c, 4, 11, 99
6, 128517, Control_c, 4, 11, 96
6, 128535, Control_c, 4, 11, 93
6, 128544, Control_c, 4, 11, 92
6, 128561, Control_c, 4, 11, 90
6, 128954, Note_on_c, 4, 60, 0
6, 129024, Note_on_c, 4, 60, 107
6, 129024, Control_c, 4, 11, 127
6, 129128, Note_on_c, 4, 60, 0
6, 129216, Note_on_c, 4, 60, 107
6, 129302, Note_on_c, 4, 60, 0
6, 129366, Note_on_c, 4, 60, 107
6, 129392, Note_on_c, 4, 60, 0
6, 129408, Note_on_c, 4, 60, 107
6, 129508, Note_on_c, 4, 60, 0
6, 129600, Note_on_c, 4, 60, 107
6, 129700, Note_on_c, 4, 60, 0
6, 129792, Note_on_c, 4, 60, 107
6, 129800, Control_c, 4, 11, 126
6, 129844, Control_c, 4, 11, 123
6, 129870, Control_c, 4, 11, 122
6, 129896, Control_c, 4, 11, 120
6, 129922, Control_c, 4, 11, 119
6, 129957, Control_c, 4, 11, 116
6, 129975, Control_c, 4, 11, 110
6, 129984, Control_c, 4, 11, 107
6, 130001, Control_c, 4, 11, 101
6, 130010, Control_c, 4, 11, 98
6, 130027, Control_c, 4, 11, 96
6, 130036, Control_c, 4, 11, 95
6, 130053, Control_c, 4, 11, 91
6, 130071, Control_c, 4, 11, 90
6, 130080, Control_c, 4, 11, 91
6, 130184, Control_c, 4, 11, 94
6, 130245, Control_c, 4, 11, 96
6, 130272, Control_c, 4, 11, 97
6, 130289, Control_c, 4, 11, 99
6, 130315, Control_c, 4, 11, 102
6, 130341, Control_c, 4, 11, 103
6, 130368, Control_c, 4, 11, 105
6, 130376, Control_c, 4, 11, 106
6, 130394, Control_c, 4, 11, 109
6, 130402, Control_c, 4, 11, 112
6, 130429, Control_c, 4, 11, 114
6, 130446, Control_c, 4, 11, 115
6, 130455, Control_c, 4, 11, 118
6, 130472, Control_c, 4, 11, 120
6, 130490, Note_on_c, 4, 60, 0
6, 130498, Control_c, 4, 11, 124
6, 130507, Control_c, 4, 11, 126
6, 130560, Note_on_c, 4, 62, 107
6, 130560, Control_c, 4, 11, 127
6, 130664, Note_on_c, 4, 62, 0
6, 130752, Note_on_c, 4, 62, 107
6, 130838, Note_on_c, 4, 62, 0
6, 130902, Note_on_c, 4, 62, 107
6, 130928, Note_on_c, 4, 62, 0
6, 130944, Note_on_c, 4, 62, 107
6, 131044, Note_on_c, 4, 62, 0
6, 131136, Note_on_c, 4, 62, 107
6, 131236, Note_on_c, 4, 62, 0
6, 131328, Note_on_c, 4, 55, 120
6, 131430, Note_on_c, 4, 55, 0
6, 131520, Note_on_c, 4, 62, 120
6, 131622, Note_on_c, 4, 62, 0
6, 131712, Note_on_c, 4, 55, 120
6, 131814, Note_on_c, 4, 55, 0
6, 131904, Note_on_c, 4, 62, 120
6, 132006, Note_on_c, 4, 62, 0
6, 132096, Note_on_c, 4, 55, 120
6, 132198, Note_on_c, 4, 55, 0
6, 132288, Note_on_c, 4, 62, 120
6, 132390, Note_on_c, 4, 62, 0
6, 132480, Note_on_c, 4, 55, 120
6, 132582, Note_on_c, 4, 55, 0
6, 132672, Note_on_c, 4, 62, 120
6, 132774, Note_on_c, 4, 62, 0
6, 132864, Note_on_c, 4, 62, 107
6, 132998, Note_on_c, 4, 62, 0
6, 133200, Note_on_c, 4, 55, 107
6, 133224, Note_on_c, 4, 55, 0
6, 133248, Note_on_c, 4, 55, 107
6, 133376, Note_on_c, 4, 55, 0
6, 133584, Note_on_c, 4, 55, 107
6, 133608, Note_on_c, 4, 55, 0
6, 133632, Note_on_c, 4, 55, 107
6, 133986, Note_on_c, 4, 55, 0
6, 134383, Control_c, 4, 11, 121
6, 134391, Control_c, 4, 11, 121
6, 134400, Note_on_c, 4, 55, 107
6, 134409, Control_c, 4, 11, 123
6, 134435, Control_c, 4, 11, 124
6, 134461, Control_c, 4, 11, 126
6, 134470, Control_c, 4, 11, 127
6, 134592, Control_c, 4, 11, 125
6, 134601, Control_c, 4, 11, 117
6, 134618, Control_c, 4, 11, 114
6, 134627, Control_c, 4, 11, 111
6, 134644, Control_c, 4, 11, 108
6, 134653, Control_c, 4, 11, 102
6, 134679, Control_c, 4, 11, 98
6, 134697, Control_c, 4, 11, 96
6, 134705, Control_c, 4, 11, 95
6, 134732, Control_c, 4, 11, 93
6, 134758, Control_c, 4, 11, 92
6, 134775, Control_c, 4, 11, 90
6, 135346, Note_on_c, 4, 55, 0
6, 145852, Control_c, 4, 11, 77
6, 145878, Control_c, 4, 11, 78
6, 145887, Control_c, 4, 11, 79
6, 145904, Control_c, 4, 11, 81
6, 145913, Control_c, 4, 11, 82
6, 145920, Note_on_c, 4, 60, 48
6, 145939, Control_c, 4, 11, 85
6, 145956, Control_c, 4, 11, 87
6, 145965, Control_c, 4, 11, 93
6, 145991, Control_c, 4, 11, 94
6, 146009, Control_c, 4, 11, 96
6, 146017, Control_c, 4, 11, 97
6, 146061, Control_c, 4, 11, 100
6, 146070, Control_c, 4, 11, 102
6, 146131, Control_c, 4, 11, 101
6, 146157, Control_c, 4, 11, 100
6, 146724, Control_c, 4, 11, 99
6, 147283, Control_c, 4, 11, 98
6, 147850, Control_c, 4, 11, 97
6, 148409, Control_c, 4, 11, 96
6, 148967, Control_c, 4, 11, 95
6, 149002, Control_c, 4, 11, 93
6, 149020, Control_c, 4, 11, 92
6, 149028, Control_c, 4, 11, 89
6, 149046, Control_c, 4, 11, 87
6, 149055, Control_c, 4, 11, 86
6, 149072, Control_c, 4, 11, 83
6, 149081, Control_c, 4, 11, 81
6, 149098, Control_c, 4, 11, 77
6, 149124, Control_c, 4, 11, 75
6, 149133, Control_c, 4, 11, 74
6, 149180, Note_on_c, 4, 60, 0
6, 153792, Note_on_c, 4, 55, 82
6, 153894, Note_on_c, 4, 55, 0
6, 153936, Note_on_c, 4, 55, 84
6, 153964, Note_on_c, 4, 55, 0
6, 153984, Note_on_c, 4, 55, 84
6, 153992, Control_c, 4, 11, 127
6, 153999, Note_on_c, 4, 43, 84
6, 154027, Control_c, 4, 11, 124
6, 154053, Control_c, 4, 11, 120
6, 154097, Control_c, 4, 11, 117
6, 154106, Control_c, 4, 11, 115
6, 154132, Control_c, 4, 11, 111
6, 154158, Control_c, 4, 11, 108
6, 154176, Control_c, 4, 11, 103
6, 154204, Control_c, 4, 11, 101
6, 154213, Control_c, 4, 11, 99
6, 154222, Control_c, 4, 11, 96
6, 154230, Control_c, 4, 11, 94
6, 154239, Control_c, 4, 11, 91
6, 154248, Control_c, 4, 11, 88
6, 154257, Control_c, 4, 11, 86
6, 154265, Control_c, 4, 11, 83
6, 154274, Control_c, 4, 11, 81
6, 154283, Control_c, 4, 11, 78
6, 154292, Control_c, 4, 11, 75
6, 154300, Control_c, 4, 11, 73
6, 154309, Control_c, 4, 11, 70
6, 154318, Control_c, 4, 11, 68
6, 154326, Control_c, 4, 11, 65
6, 154335, Control_c, 4, 11, 62
6, 154344, Control_c, 4, 11, 60
6, 154353, Control_c, 4, 11, 57
6, 154361, Control_c, 4, 11, 54
6, 155094, Note_on_c, 4, 55, 0
6, 155109, Note_on_c, 4, 43, 0
6, 156665, Control_c, 4, 11, 112
6, 156672, Control_c, 4, 11, 112
6, 156672, Note_on_c, 4, 55, 84
6, 156672, Note_on_c, 4, 43, 84
6, 156680, Control_c, 4, 11, 111
6, 156689, Control_c, 4, 11, 110
6, 156698, Control_c, 4, 11, 108
6, 156706, Control_c, 4, 11, 107
6, 156715, Control_c, 4, 11, 105
6, 156724, Control_c, 4, 11, 104
6, 156733, Control_c, 4, 11, 103
6, 156741, Control_c, 4, 11, 101
6, 156750, Control_c, 4, 11, 100
6, 156759, Control_c, 4, 11, 98
6, 156768, Control_c, 4, 11, 97
6, 156776, Control_c, 4, 11, 95
6, 156785, Control_c, 4, 11, 94
6, 156794, Control_c, 4, 11, 93
6, 156802, Control_c, 4, 11, 91
6, 156811, Control_c, 4, 11, 90
6, 156820, Control_c, 4, 11, 88
6, 156829, Control_c, 4, 11, 87
6, 156837, Control_c, 4, 11, 85
6, 156846, Control_c, 4, 11, 83
6, 156855, Control_c, 4, 11, 80
6, 156864, Control_c, 4, 11, 77
6, 156872, Control_c, 4, 11, 75
6, 156881, Control_c, 4, 11, 72
6, 156890, Control_c, 4, 11, 69
6, 156898, Control_c, 4, 11, 67
6, 156907, Control_c, 4, 11, 64
6, 156916, Control_c, 4, 11, 61
6, 156925, Control_c, 4, 11, 58
6, 156933, Control_c, 4, 11, 55
6, 156942, Control_c, 4, 11, 52
6, 156945, Control_c, 4, 11, 52
6, 158166, Note_on_c, 4, 43, 0
6, 158166, Note_on_c, 4, 55, 0
6, 160328, Control_c, 4, 11, 127
6, 160512, Note_on_c, 4, 64, 99
6, 160846, Note_on_c, 4, 64, 0
6, 160896, Note_on_c, 4, 64, 99
6, 161020, Note_on_c, 4, 64, 0
6, 161088, Note_on_c, 4, 64, 99
6, 161212, Note_on_c, 4, 64, 0
6, 161280, Note_on_c, 4, 65, 99
6, 161420, Note_on_c, 4, 65, 0
6, 161472, Note_on_c, 4, 67, 99
6, 161628, Note_on_c, 4, 67, 0
6, 161664, Note_on_c, 4, 65, 99
6, 161820, Note_on_c, 4, 65, 0
6, 161856, Note_on_c, 4, 67, 99
6, 162012, Note_on_c, 4, 67, 0
6, 162048, Note_on_c, 4, 65, 99
6, 162396, Note_on_c, 4, 65, 0
6, 162432, Note_on_c, 4, 64, 102
6, 162588, Note_on_c, 4, 64, 0
6, 162624, Note_on_c, 4, 65, 103
6, 162780, Note_on_c, 4, 65, 0
6, 162816, Note_on_c, 4, 64, 104
6, 162972, Note_on_c, 4, 64, 0
6, 163008, Note_on_c, 4, 65, 106
6, 163176, Note_on_c, 4, 65, 0
6, 163200, Note_on_c, 4, 64, 107
6, 163368, Note_on_c, 4, 64, 0
6, 163392, Note_on_c, 4, 62, 108
6, 163540, Note_on_c, 4, 62, 0
6, 163584, Note_on_c, 4, 60, 105
6, 163584, Control_c, 4, 11, 127
6, 163624, Control_c, 4, 11, 124
6, 163650, Control_c, 4, 11, 123
6, 163667, Control_c, 4, 11, 120
6, 163694, Control_c, 4, 11, 117
6, 163702, Control_c, 4, 11, 115
6, 163720, Control_c, 4, 11, 114
6, 163729, Control_c, 4, 11, 112
6, 163746, Control_c, 4, 11, 111
6, 163755, Control_c, 4, 11, 109
6, 163807, Control_c, 4, 11, 108
6, 163982, Control_c, 4, 11, 109
6, 164294, Note_on_c, 4, 60, 0
6, 164352, Note_on_c, 4, 55, 90
6, 164352, Control_c, 4, 11, 127
6, 164427, Control_c, 4, 11, 124
6, 164435, Control_c, 4, 11, 123
6, 164453, Control_c, 4, 11, 120
6, 164462, Control_c, 4, 11, 117
6, 164479, Control_c, 4, 11, 115
6, 164488, Control_c, 4, 11, 114
6, 164514, Control_c, 4, 11, 112
6, 164540, Control_c, 4, 11, 111
6, 164558, Control_c, 4, 11, 109
6, 164584, Control_c, 4, 11, 108
6, 164678, Note_on_c, 4, 55, 0
6, 164736, Note_on_c, 4, 55, 90
6, 164736, Control_c, 4, 11, 127
6, 164776, Control_c, 4, 11, 126
6, 164802, Control_c, 4, 11, 124
6, 164819, Control_c, 4, 11, 123
6, 164828, Control_c, 4, 11, 120
6, 164846, Control_c, 4, 11, 118
6, 164854, Control_c, 4, 11, 117
6, 164872, Control_c, 4, 11, 114
6, 164898, Control_c, 4, 11, 112
6, 164907, Control_c, 4, 11, 111
6, 164933, Control_c, 4, 11, 109
6, 165062, Note_on_c, 4, 55, 0
6, 165120, Note_on_c, 4, 55, 92
6, 165120, Control_c, 4, 11, 127
6, 165134, Control_c, 4, 11, 124
6, 165142, Control_c, 4, 11, 123
6, 165160, Control_c, 4, 11, 121
6, 165169, Control_c, 4, 11, 117
6, 165186, Control_c, 4, 11, 115
6, 165195, Control_c, 4, 11, 114
6, 165212, Control_c, 4, 11, 111
6, 165221, Control_c, 4, 11, 109
6, 165238, Control_c, 4, 11, 106
6, 165247, Control_c, 4, 11, 105
6, 165265, Control_c, 4, 11, 103
6, 165299, Control_c, 4, 11, 102
6, 165317, Control_c, 4, 11, 100
6, 165483, Control_c, 4, 11, 99
6, 165605, Control_c, 4, 11, 100
6, 165710, Control_c, 4, 11, 101
6, 165745, Control_c, 4, 11, 103
6, 165788, Control_c, 4, 11, 104
6, 165797, Control_c, 4, 11, 106
6, 165814, Note_on_c, 4, 55, 0
6, 165814, Control_c, 4, 11, 107
6, 165823, Control_c, 4, 11, 109
6, 165888, Note_on_c, 4, 55, 87
6, 165893, Control_c, 4, 11, 118
6, 165902, Control_c, 4, 11, 119
6, 165919, Control_c, 4, 11, 122
6, 165928, Control_c, 4, 11, 124
6, 165954, Control_c, 4, 11, 125
6, 165980, Control_c, 4, 11, 127
6, 166066, Note_on_c, 4, 55, 0
6, 166656, Note_on_c, 4, 64, 106
6, 166656, Control_c, 4, 11, 127
6, 166678, Control_c, 4, 11, 125
6, 166713, Control_c, 4, 11, 124
6, 166731, Control_c, 4, 11, 123
6, 166757, Control_c, 4, 11, 118
6, 166792, Control_c, 4, 11, 115
6, 166835, Control_c, 4, 11, 114
6, 166862, Control_c, 4, 11, 112
6, 166923, Control_c, 4, 11, 113
6, 166940, Control_c, 4, 11, 115
6, 166949, Control_c, 4, 11, 116
6, 166966, Control_c, 4, 11, 118
6, 166975, Control_c, 4, 11, 119
6, 166990, Note_on_c, 4, 64, 0
6, 166993, Control_c, 4, 11, 121
6, 167001, Control_c, 4, 11, 122
6, 167019, Control_c, 4, 11, 127
6, 167040, Note_on_c, 4, 64, 98
6, 167164, Note_on_c, 4, 64, 0
6, 167232, Note_on_c, 4, 64, 98
6, 167356, Note_on_c, 4, 64, 0
6, 167424, Note_on_c, 4, 65, 104
6, 167616, Note_on_c, 4, 65, 0
6, 167616, Note_on_c, 4, 67, 104
6, 167808, Note_on_c, 4, 67, 0
6, 167808, Note_on_c, 4, 65, 105
6, 168000, Note_on_c, 4, 65, 0
6, 168000, Note_on_c, 4, 67, 105
6, 168168, Note_on_c, 4, 67, 0
6, 168192, Note_on_c, 4, 65, 106
6, 168576, Note_on_c, 4, 65, 0
6, 168576, Note_on_c, 4, 64, 107
6, 168768, Note_on_c, 4, 64, 0
6, 168768, Note_on_c, 4, 65, 108
6, 168932, Note_on_c, 4, 65, 0
6, 168960, Note_on_c, 4, 64, 108
6, 169152, Note_on_c, 4, 64, 0
6, 169152, Note_on_c, 4, 65, 109
6, 169344, Note_on_c, 4, 65, 0
6, 169344, Note_on_c, 4, 64, 110
6, 169536, Note_on_c, 4, 64, 0
6, 169536, Note_on_c, 4, 62, 110
6, 169692, Note_on_c, 4, 62, 0
6, 169728, Note_on_c, 4, 60, 106
6, 169736, Control_c, 4, 11, 126
6, 169762, Control_c, 4, 11, 124
6, 169780, Control_c, 4, 11, 123
6, 169789, Control_c, 4, 11, 121
6, 169832, Control_c, 4, 11, 120
6, 169841, Control_c, 4, 11, 117
6, 169885, Control_c, 4, 11, 115
6, 169937, Control_c, 4, 11, 114
6, 169972, Control_c, 4, 11, 111
6, 170024, Control_c, 4, 11, 109
6, 170042, Control_c, 4, 11, 109
6, 170487, Control_c, 4, 11, 108
6, 170932, Control_c, 4, 11, 107
6, 171368, Control_c, 4, 11, 106
6, 171813, Control_c, 4, 11, 105
6, 172258, Control_c, 4, 11, 104
6, 172695, Control_c, 4, 11, 103
6, 172750, Note_on_c, 4, 60, 0
6, 172800, Control_c, 4, 11, 125
6, 172800, Note_on_c, 4, 60, 103
6, 172843, Control_c, 4, 11, 124
6, 172852, Control_c, 4, 11, 123
6, 172869, Control_c, 4, 11, 118
6, 172896, Control_c, 4, 11, 115
6, 172904, Control_c, 4, 11, 114
6, 172930, Control_c, 4, 11, 111
6, 172974, Control_c, 4, 11, 109
6, 173026, Control_c, 4, 11, 109
6, 173314, Control_c, 4, 11, 108
6, 173602, Control_c, 4, 11, 107
6, 173890, Control_c, 4, 11, 106
6, 174178, Control_c, 4, 11, 105
6, 174466, Control_c, 4, 11, 104
6, 174754, Control_c, 4, 11, 103
6, 175042, Control_c, 4, 11, 102
6, 175054, Note_on_c, 4, 60, 0
6, 175104, Note_on_c, 4, 60, 90
6, 175104, Control_c, 4, 11, 127
6, 175238, Note_on_c, 4, 60, 0
6, 175296, Note_on_c, 4, 60, 87
6, 175430, Note_on_c, 4, 60, 0
6, 175488, Note_on_c, 4, 60, 87
6, 175622, Note_on_c, 4, 60, 0
6, 175680, Note_on_c, 4, 60, 86
6, 175814, Note_on_c, 4, 60, 0
6, 175872, Note_on_c, 4, 60, 86
6, 176006, Note_on_c, 4, 60, 0
6, 178944, Note_on_c, 4, 60, 103
6, 182424, Note_on_c, 4, 60, 0
6, 183530, Control_c, 4, 11, 127
6, 183552, Note_on_c, 4, 60, 107
6, 183664, Note_on_c, 4, 60, 0
6, 183744, Note_on_c, 4, 60, 103
6, 183828, Note_on_c, 4, 60, 0
6, 183892, Note_on_c, 4, 60, 103
6, 183920, Note_on_c, 4, 60, 0
6, 183936, Note_on_c, 4, 60, 103
6, 184044, Note_on_c, 4, 60, 0
6, 184128, Note_on_c, 4, 60, 103
6, 184236, Note_on_c, 4, 60, 0
6, 184320, Note_on_c, 4, 55, 103
6, 184424, Note_on_c, 4, 55, 0
6, 184512, Note_on_c, 4, 55, 103
6, 184614, Note_on_c, 4, 55, 0
6, 186624, Note_on_c, 4, 60, 103
6, 186728, Note_on_c, 4, 60, 0
6, 186816, Note_on_c, 4, 60, 103
6, 186912, Note_on_c, 4, 60, 0
6, 186961, Note_on_c, 4, 60, 103
6, 186989, Note_on_c, 4, 60, 0
6, 187008, Note_on_c, 4, 60, 103
6, 187108, Note_on_c, 4, 60, 0
6, 187200, Note_on_c, 4, 60, 103
6, 187300, Note_on_c, 4, 60, 0
6, 187392, Note_on_c, 4, 60, 103
6, 187396, Control_c, 4, 11, 121
6, 187405, Control_c, 4, 11, 123
6, 187409, Control_c, 4, 11, 124
6, 187418, Control_c, 4, 11, 126
6, 187422, Control_c, 4, 11, 127
6, 187470, Control_c, 4, 11, 122
6, 187483, Control_c, 4, 11, 119
6, 187488, Control_c, 4, 11, 114
6, 187496, Control_c, 4, 11, 111
6, 187509, Control_c, 4, 11, 108
6, 187514, Control_c, 4, 11, 107
6, 187522, Control_c, 4, 11, 105
6, 187527, Control_c, 4, 11, 104
6, 187536, Control_c, 4, 11, 102
6, 187553, Control_c, 4, 11, 101
6, 187941, Note_on_c, 4, 60, 0
6, 188160, Note_on_c, 4, 60, 57
6, 188282, Note_on_c, 4, 60, 0
6, 188352, Note_on_c, 4, 60, 57
6, 188456, Note_on_c, 4, 60, 0
6, 188497, Note_on_c, 4, 60, 57
6, 188527, Note_on_c, 4, 60, 0
6, 188544, Note_on_c, 4, 60, 57
6, 188656, Note_on_c, 4, 60, 0
6, 188736, Note_on_c, 4, 60, 56
6, 188848, Note_on_c, 4, 60, 0
6, 188927, Control_c, 4, 11, 97
6, 188928, Note_on_c, 4, 60, 56
6, 188966, Control_c, 4, 11, 100
6, 188977, Control_c, 4, 11, 101
6, 188999, Control_c, 4, 11, 103
6, 189032, Control_c, 4, 11, 104
6, 189098, Control_c, 4, 11, 106
6, 189114, Control_c, 4, 11, 105
6, 189130, Control_c, 4, 11, 103
6, 189141, Control_c, 4, 11, 102
6, 189158, Control_c, 4, 11, 100
6, 189180, Control_c, 4, 11, 99
6, 189196, Control_c, 4, 11, 97
6, 189229, Control_c, 4, 11, 96
6, 189262, Control_c, 4, 11, 94
6, 189279, Control_c, 4, 11, 93
6, 189322, Control_c, 4, 11, 91
6, 189333, Control_c, 4, 11, 87
6, 189339, Control_c, 4, 11, 85
6, 189344, Control_c, 4, 11, 84
6, 189355, Control_c, 4, 11, 82
6, 189361, Control_c, 4, 11, 81
6, 189372, Control_c, 4, 11, 79
6, 189388, Control_c, 4, 11, 78
6, 189394, Control_c, 4, 11, 76
6, 189410, Control_c, 4, 11, 75
6, 189421, Control_c, 4, 11, 73
6, 189427, Control_c, 4, 11, 70
6, 189443, Control_c, 4, 11, 69
6, 189469, Note_on_c, 4, 60, 0
6, 189471, Control_c, 4, 11, 67
6, 189476, Control_c, 4, 11, 66
6, 189696, Control_c, 4, 11, 117
6, 189696, Note_on_c, 4, 64, 103
6, 189713, Control_c, 4, 11, 116
6, 189722, Control_c, 4, 11, 115
6, 189739, Control_c, 4, 11, 114
6, 189748, Control_c, 4, 11, 113
6, 189774, Control_c, 4, 11, 112
6, 189800, Control_c, 4, 11, 114
6, 189818, Control_c, 4, 11, 115
6, 189844, Control_c, 4, 11, 117
6, 189870, Control_c, 4, 11, 118
6, 189896, Control_c, 4, 11, 120
6, 189905, Control_c, 4, 11, 121
6, 189931, Control_c, 4, 11, 123
6, 189984, Control_c, 4, 11, 124
6, 190010, Control_c, 4, 11, 127
6, 190368, Control_c, 4, 11, 126
6, 190394, Control_c, 4, 11, 125
6, 190414, Note_on_c, 4, 64, 0
6, 190420, Control_c, 4, 11, 123
6, 190464, Note_on_c, 4, 62, 103
6, 190481, Control_c, 4, 11, 125
6, 190577, Control_c, 4, 11, 126
6, 190664, Control_c, 4, 11, 127
6, 190682, Control_c, 4, 11, 126
6, 190690, Control_c, 4, 11, 125
6, 190717, Control_c, 4, 11, 122
6, 190743, Control_c, 4, 11, 119
6, 190760, Control_c, 4, 11, 117
6, 190769, Control_c, 4, 11, 116
6, 190830, Control_c, 4, 11, 117
6, 190891, Control_c, 4, 11, 118
6, 190952, Control_c, 4, 11, 119
6, 191005, Control_c, 4, 11, 120
6, 191066, Control_c, 4, 11, 121
6, 191127, Control_c, 4, 11, 122
6, 191182, Note_on_c, 4, 62, 0
6, 191188, Control_c, 4, 11, 123
6, 191232, Note_on_c, 4, 60, 103
6, 191240, Control_c, 4, 11, 124
6, 191301, Control_c, 4, 11, 125
6, 191362, Control_c, 4, 11, 126
6, 191388, Note_on_c, 4, 60, 0
6, 191415, Control_c, 4, 11, 127
6, 192768, Control_c, 4, 11, 127
6, 192768, Note_on_c, 4, 60, 115
6, 192932, Note_on_c, 4, 60, 0
6, 192960, Note_on_c, 4, 67, 126
6, 193060, Note_on_c, 4, 67, 0
6, 193104, Note_on_c, 4, 67, 126
6, 193132, Note_on_c, 4, 67, 0
6, 193152, Note_on_c, 4, 65, 126
6, 193308, Note_on_c, 4, 65, 0
6, 193344, Note_on_c, 4, 65, 126
6, 193500, Note_on_c, 4, 65, 0
6, 193536, Note_on_c, 4, 64, 126
6, 193692, Note_on_c, 4, 64, 0
6, 193728, Note_on_c, 4, 64, 125
6, 193828, Note_on_c, 4, 64, 0
6, 193872, Note_on_c, 4, 64, 125
6, 193900, Note_on_c, 4, 64, 0
6, 193920, Note_on_c, 4, 62, 125
6, 194076, Note_on_c, 4, 62, 0
6, 194112, Note_on_c, 4, 62, 125
6, 194268, Note_on_c, 4, 62, 0
6, 194304, Note_on_c, 4, 60, 126
6, 194371, Control_c, 4, 11, 126
6, 194397, Control_c, 4, 11, 127
6, 194424, Control_c, 4, 11, 126
6, 194450, Control_c, 4, 11, 123
6, 194476, Control_c, 4, 11, 122
6, 194493, Control_c, 4, 11, 119
6, 194528, Control_c, 4, 11, 117
6, 194546, Control_c, 4, 11, 116
6, 194572, Control_c, 4, 11, 114
6, 194581, Control_c, 4, 11, 111
6, 194607, Control_c, 4, 11, 108
6, 194624, Control_c, 4, 11, 107
6, 194651, Control_c, 4, 11, 105
6, 194659, Control_c, 4, 11, 104
6, 194685, Control_c, 4, 11, 102
6, 196667, Control_c, 4, 11, 102
6, 196675, Control_c, 4, 11, 104
6, 196710, Control_c, 4, 11, 105
6, 196736, Control_c, 4, 11, 106
6, 196771, Control_c, 4, 11, 107
6, 196797, Control_c, 4, 11, 108
6, 196832, Control_c, 4, 11, 109
6, 196859, Control_c, 4, 11, 110
6, 196885, Control_c, 4, 11, 111
6, 196911, Control_c, 4, 11, 112
6, 196928, Control_c, 4, 11, 113
6, 196955, Control_c, 4, 11, 114
6, 196972, Control_c, 4, 11, 115
6, 196989, Control_c, 4, 11, 116
6, 197016, Control_c, 4, 11, 117
6, 197033, Control_c, 4, 11, 118
6, 197051, Control_c, 4, 11, 119
6, 197077, Control_c, 4, 11, 120
6, 197094, Control_c, 4, 11, 121
6, 197112, Control_c, 4, 11, 122
6, 197138, Control_c, 4, 11, 123
6, 197155, Control_c, 4, 11, 124
6, 197173, Control_c, 4, 11, 125
6, 197260, Control_c, 4, 11, 126
6, 197347, Control_c, 4, 11, 127
6, 197532, Note_on_c, 4, 60, 0
6, 199260, Control_c, 4, 11, 127
6, 199296, Note_on_c, 4, 55, 116
6, 199396, Note_on_c, 4, 55, 0
6, 199443, Note_on_c, 4, 55, 116
6, 199471, Note_on_c, 4, 55, 0
6, 199488, Note_on_c, 4, 60, 116
6, 199590, Note_on_c, 4, 60, 0
6, 199635, Note_on_c, 4, 60, 116
6, 199663, Note_on_c, 4, 60, 0
6, 199680, Note_on_c, 4, 64, 116
6, 199828, Note_on_c, 4, 64, 0
6, 200064, Note_on_c, 4, 60, 116
6, 200156, Note_on_c, 4, 60, 0
6, 200211, Note_on_c, 4, 60, 116
6, 200239, Note_on_c, 4, 60, 0
6, 200256, Note_on_c, 4, 64, 116
6, 200348, Note_on_c, 4, 64, 0
6, 200403, Note_on_c, 4, 64, 116
6, 200431, Note_on_c, 4, 64, 0
6, 200448, Note_on_c, 4, 67, 116
6, 200778, Note_on_c, 4, 67, 0
6, 204864, Control_c, 4, 121, 0
6, 204864, End_track
7, 0, Start_track
7, 0, MIDI_port, 0
7, 0, Title_t, "Horn 2"
7, 0, Program_c, 5, 60
7, 0, Control_c, 5, 7, 106
7, 0, Control_c, 5, 10, 86
7, 0, Text_t, ""
7, 96, Control_c, 5, 121, 0
7, 192, Control_c, 5, 91, 54
7, 288, Control_c, 5, 93, 7
7, 759, Control_c, 5, 11, 121
7, 768, Note_on_c, 5, 52, 103
7, 785, Control_c, 5, 11, 122
7, 789, Control_c, 5, 11, 123
7, 798, Control_c, 5, 11, 125
7, 802, Control_c, 5, 11, 127
7, 833, Control_c, 5, 11, 118
7, 837, Control_c, 5, 11, 116
7, 842, Control_c, 5, 11, 115
7, 850, Control_c, 5, 11, 112
7, 855, Control_c, 5, 11, 110
7, 864, Control_c, 5, 11, 109
7, 868, Control_c, 5, 11, 107
7, 877, Control_c, 5, 11, 106
7, 881, Control_c, 5, 11, 104
7, 890, Control_c, 5, 11, 101
7, 894, Control_c, 5, 11, 100
7, 903, Control_c, 5, 11, 98
7, 907, Control_c, 5, 11, 97
7, 933, Control_c, 5, 11, 95
7, 1176, Note_on_c, 5, 52, 0
7, 1440, Control_c, 5, 11, 126
7, 1488, Note_on_c, 5, 48, 116
7, 1516, Note_on_c, 5, 48, 0
7, 1536, Control_c, 5, 11, 116
7, 1536, Note_on_c, 5, 48, 116
7, 1549, Control_c, 5, 11, 119
7, 1557, Control_c, 5, 11, 120
7, 1562, Control_c, 5, 11, 122
7, 1575, Control_c, 5, 11, 123
7, 1584, Control_c, 5, 11, 127
7, 1623, Control_c, 5, 11, 124
7, 1627, Control_c, 5, 11, 122
7, 1636, Control_c, 5, 11, 121
7, 1640, Control_c, 5, 11, 119
7, 1653, Control_c, 5, 11, 118
7, 1680, Control_c, 5, 11, 116
7, 1688, Control_c, 5, 11, 115
7, 1693, Control_c, 5, 11, 113
7, 1701, Control_c, 5, 11, 112
7, 1706, Control_c, 5, 11, 110
7, 1714, Control_c, 5, 11, 109
7, 1728, Control_c, 5, 11, 107
7, 1745, Control_c, 5, 11, 106
7, 1758, Control_c, 5, 11, 104
7, 1793, Control_c, 5, 11, 103
7, 1806, Control_c, 5, 11, 101
7, 1936, Note_on_c, 5, 48, 0
7, 2277, Control_c, 5, 11, 114
7, 2304, Note_on_c, 5, 48, 103
7, 2418, Note_on_c, 5, 48, 0
7, 2496, Note_on_c, 5, 48, 103
7, 2584, Note_on_c, 5, 48, 0
7, 2642, Note_on_c, 5, 48, 103
7, 2670, Note_on_c, 5, 48, 0
7, 2688, Note_on_c, 5, 48, 103
7, 2796, Note_on_c, 5, 48, 0
7, 2880, Note_on_c, 5, 48, 103
7, 2988, Note_on_c, 5, 48, 0
7, 3072, Note_on_c, 5, 43, 103
7, 3176, Note_on_c, 5, 43, 0
7, 3264, Note_on_c, 5, 43, 103
7, 3368, Note_on_c, 5, 43, 0
7, 5310, Control_c, 5, 11, 117
7, 5376, Note_on_c, 5, 48, 103
7, 5496, Note_on_c, 5, 48, 0
7, 5568, Note_on_c, 5, 48, 103
7, 5658, Note_on_c, 5, 48, 0
7, 5712, Note_on_c, 5, 48, 103
7, 5742, Note_on_c, 5, 48, 0
7, 5760, Note_on_c, 5, 48, 103
7, 5880, Note_on_c, 5, 48, 0
7, 5952, Note_on_c, 5, 48, 103
7, 6072, Note_on_c, 5, 48, 0
7, 6138, Control_c, 5, 11, 119
7, 6144, Note_on_c, 5, 48, 103
7, 6164, Control_c, 5, 11, 120
7, 6168, Control_c, 5, 11, 123
7, 6177, Control_c, 5, 11, 124
7, 6190, Control_c, 5, 11, 126
7, 6194, Control_c, 5, 11, 127
7, 6221, Control_c, 5, 11, 126
7, 6234, Control_c, 5, 11, 125
7, 6242, Control_c, 5, 11, 122
7, 6247, Control_c, 5, 11, 116
7, 6255, Control_c, 5, 11, 111
7, 6269, Control_c, 5, 11, 108
7, 6273, Control_c, 5, 11, 105
7, 6282, Control_c, 5, 11, 102
7, 6286, Control_c, 5, 11, 101
7, 6299, Control_c, 5, 11, 99
7, 6674, Note_on_c, 5, 48, 0
7, 7658, Control_c, 5, 11, 120
7, 7680, Note_on_c, 5, 48, 103
7, 7778, Note_on_c, 5, 48, 0
7, 7872, Note_on_c, 5, 52, 103
7, 7962, Note_on_c, 5, 52, 0
7, 8064, Note_on_c, 5, 55, 103
7, 8154, Note_on_c, 5, 55, 0
7, 8448, Note_on_c, 5, 48, 103
7, 8568, Note_on_c, 5, 48, 0
7, 8640, Note_on_c, 5, 48, 103
7, 8740, Note_on_c, 5, 48, 0
7, 8784, Note_on_c, 5, 48, 103
7, 8814, Note_on_c, 5, 48, 0
7, 8832, Note_on_c, 5, 48, 103
7, 8952, Note_on_c, 5, 48, 0
7, 9024, Note_on_c, 5, 48, 103
7, 9144, Note_on_c, 5, 48, 0
7, 9202, Control_c, 5, 11, 121
7, 9216, Note_on_c, 5, 48, 103
7, 9220, Control_c, 5, 11, 123
7, 9229, Control_c, 5, 11, 126
7, 9233, Control_c, 5, 11, 127
7, 9281, Control_c, 5, 11, 125
7, 9285, Control_c, 5, 11, 120
7, 9298, Control_c, 5, 11, 116
7, 9307, Control_c, 5, 11, 111
7, 9312, Control_c, 5, 11, 108
7, 9325, Control_c, 5, 11, 107
7, 9333, Control_c, 5, 11, 105
7, 9338, Control_c, 5, 11, 104
7, 9360, Control_c, 5, 11, 102
7, 9776, Note_on_c, 5, 48, 0
7, 9984, Note_on_c, 5, 48, 48
7, 10112, Note_on_c, 5, 48, 0
7, 10176, Note_on_c, 5, 48, 48
7, 10288, Note_on_c, 5, 48, 0
7, 10320, Note_on_c, 5, 48, 48
7, 10350, Note_on_c, 5, 48, 0
7, 10368, Note_on_c, 5, 48, 48
7, 10496, Note_on_c, 5, 48, 0
7, 10560, Note_on_c, 5, 48, 48
7, 10688, Note_on_c, 5, 48, 0
7, 10752, Note_on_c, 5, 48, 48
7, 10754, Control_c, 5, 11, 103
7, 10760, Control_c, 5, 11, 104
7, 10771, Control_c, 5, 11, 106
7, 10776, Control_c, 5, 11, 107
7, 10793, Control_c, 5, 11, 109
7, 10820, Control_c, 5, 11, 110
7, 10842, Control_c, 5, 11, 113
7, 10908, Control_c, 5, 11, 115
7, 10968, Control_c, 5, 11, 114
7, 11001, Control_c, 5, 11, 112
7, 11018, Control_c, 5, 11, 111
7, 11023, Control_c, 5, 11, 109
7, 11072, Control_c, 5, 11, 108
7, 11089, Control_c, 5, 11, 106
7, 11105, Control_c, 5, 11, 105
7, 11149, Control_c, 5, 11, 99
7, 11166, Control_c, 5, 11, 97
7, 11171, Control_c, 5, 11, 96
7, 11182, Control_c, 5, 11, 94
7, 11199, Control_c, 5, 11, 93
7, 11204, Control_c, 5, 11, 91
7, 11215, Control_c, 5, 11, 90
7, 11231, Control_c, 5, 11, 88
7, 11237, Control_c, 5, 11, 87
7, 11253, Control_c, 5, 11, 85
7, 11270, Control_c, 5, 11, 84
7, 11281, Control_c, 5, 11, 81
7, 11286, Control_c, 5, 11, 76
7, 11293, Note_on_c, 5, 48, 0
7, 11303, Control_c, 5, 11, 72
7, 11314, Control_c, 5, 11, 69
7, 11319, Control_c, 5, 11, 66
7, 12288, Note_on_c, 5, 52, 61
7, 12288, Control_c, 5, 11, 127
7, 12427, Note_on_c, 5, 52, 0
7, 12480, Note_on_c, 5, 52, 61
7, 12570, Note_on_c, 5, 52, 0
7, 12624, Note_on_c, 5, 52, 61
7, 12656, Note_on_c, 5, 52, 0
7, 12672, Note_on_c, 5, 55, 61
7, 12804, Note_on_c, 5, 55, 0
7, 12864, Note_on_c, 5, 55, 61
7, 12996, Note_on_c, 5, 55, 0
7, 13056, Note_on_c, 5, 60, 61
7, 13214, Note_on_c, 5, 60, 0
7, 13824, Note_on_c, 5, 52, 69
7, 13962, Note_on_c, 5, 52, 0
7, 14016, Note_on_c, 5, 52, 70
7, 14108, Note_on_c, 5, 52, 0
7, 14160, Note_on_c, 5, 52, 76
7, 14193, Note_on_c, 5, 52, 0
7, 14208, Note_on_c, 5, 55, 78
7, 14340, Note_on_c, 5, 55, 0
7, 14400, Note_on_c, 5, 55, 85
7, 14534, Note_on_c, 5, 55, 0
7, 14592, Note_on_c, 5, 60, 93
7, 14738, Note_on_c, 5, 60, 0
7, 14784, Note_on_c, 5, 60, 100
7, 14875, Note_on_c, 5, 60, 0
7, 14928, Note_on_c, 5, 60, 101
7, 14961, Note_on_c, 5, 60, 0
7, 14976, Note_on_c, 5, 55, 101
7, 15112, Note_on_c, 5, 55, 0
7, 15168, Note_on_c, 5, 55, 101
7, 15300, Note_on_c, 5, 55, 0
7, 15360, Note_on_c, 5, 52, 101
7, 15504, Note_on_c, 5, 52, 0
7, 15552, Note_on_c, 5, 48, 82
7, 15648, Note_on_c, 5, 48, 0
7, 15698, Note_on_c, 5, 48, 82
7, 15726, Note_on_c, 5, 48, 0
7, 15744, Note_on_c, 5, 48, 82
7, 15870, Note_on_c, 5, 48, 0
7, 15936, Note_on_c, 5, 48, 82
7, 16062, Note_on_c, 5, 48, 0
7, 16122, Control_c, 5, 11, 123
7, 16128, Note_on_c, 5, 48, 82
7, 16144, Control_c, 5, 11, 125
7, 16155, Control_c, 5, 11, 127
7, 16226, Control_c, 5, 11, 124
7, 16237, Control_c, 5, 11, 121
7, 16242, Control_c, 5, 11, 118
7, 16253, Control_c, 5, 11, 114
7, 16259, Control_c, 5, 11, 112
7, 16275, Control_c, 5, 11, 109
7, 16292, Control_c, 5, 11, 106
7, 16308, Control_c, 5, 11, 105
7, 16319, Control_c, 5, 11, 103
7, 16325, Control_c, 5, 11, 102
7, 16336, Control_c, 5, 11, 100
7, 16830, Note_on_c, 5, 48, 0
7, 16896, Note_on_c, 5, 48, 82
7, 16896, Control_c, 5, 11, 125
7, 17028, Note_on_c, 5, 48, 0
7, 17088, Note_on_c, 5, 48, 82
7, 17180, Note_on_c, 5, 48, 0
7, 17234, Note_on_c, 5, 48, 82
7, 17262, Note_on_c, 5, 48, 0
7, 17280, Note_on_c, 5, 48, 82
7, 17412, Note_on_c, 5, 48, 0
7, 17472, Note_on_c, 5, 48, 82
7, 17602, Note_on_c, 5, 48, 0
7, 17664, Note_on_c, 5, 48, 82
7, 17674, Control_c, 5, 11, 126
7, 17685, Control_c, 5, 11, 124
7, 17702, Control_c, 5, 11, 123
7, 17707, Control_c, 5, 11, 121
7, 17718, Control_c, 5, 11, 120
7, 17735, Control_c, 5, 11, 118
7, 17740, Control_c, 5, 11, 117
7, 17767, Control_c, 5, 11, 115
7, 17773, Control_c, 5, 11, 114
7, 17784, Control_c, 5, 11, 112
7, 17789, Control_c, 5, 11, 111
7, 17800, Control_c, 5, 11, 109
7, 17806, Control_c, 5, 11, 108
7, 17817, Control_c, 5, 11, 106
7, 17850, Control_c, 5, 11, 105
7, 17866, Control_c, 5, 11, 103
7, 17954, Control_c, 5, 11, 102
7, 18367, Note_on_c, 5, 48, 0
7, 18432, Control_c, 5, 11, 120
7, 18432, Note_on_c, 5, 43, 82
7, 18568, Note_on_c, 5, 43, 0
7, 18624, Note_on_c, 5, 43, 82
7, 18720, Note_on_c, 5, 43, 0
7, 18768, Note_on_c, 5, 43, 82
7, 18795, Note_on_c, 5, 43, 0
7, 18816, Note_on_c, 5, 43, 82
7, 18950, Note_on_c, 5, 43, 0
7, 19008, Note_on_c, 5, 43, 82
7, 19142, Note_on_c, 5, 43, 0
7, 19200, Note_on_c, 5, 43, 82
7, 19205, Control_c, 5, 11, 124
7, 19221, Control_c, 5, 11, 125
7, 19238, Control_c, 5, 11, 124
7, 19243, Control_c, 5, 11, 123
7, 19254, Control_c, 5, 11, 121
7, 19271, Control_c, 5, 11, 118
7, 19287, Control_c, 5, 11, 115
7, 19309, Control_c, 5, 11, 114
7, 19320, Control_c, 5, 11, 112
7, 19326, Control_c, 5, 11, 111
7, 19337, Control_c, 5, 11, 109
7, 19353, Control_c, 5, 11, 108
7, 19359, Control_c, 5, 11, 106
7, 19408, Control_c, 5, 11, 105
7, 19419, Control_c, 5, 11, 103
7, 19485, Control_c, 5, 11, 102
7, 19490, Control_c, 5, 11, 100
7, 19906, Note_on_c, 5, 43, 0
7, 19968, Control_c, 5, 11, 127
7, 19968, Note_on_c, 5, 48, 82
7, 20104, Note_on_c, 5, 48, 0
7, 20160, Note_on_c, 5, 60, 82
7, 20256, Note_on_c, 5, 60, 0
7, 20306, Note_on_c, 5, 60, 82
7, 20334, Note_on_c, 5, 60, 0
7, 20352, Note_on_c, 5, 60, 82
7, 20479, Note_on_c, 5, 60, 0
7, 20544, Note_on_c, 5, 60, 82
7, 20671, Note_on_c, 5, 60, 0
7, 20736, Control_c, 5, 11, 127
7, 20736, Note_on_c, 5, 60, 82
7, 20757, Control_c, 5, 11, 126
7, 20768, Control_c, 5, 11, 124
7, 20801, Control_c, 5, 11, 123
7, 20807, Control_c, 5, 11, 121
7, 20823, Control_c, 5, 11, 118
7, 20834, Control_c, 5, 11, 117
7, 20840, Control_c, 5, 11, 115
7, 20873, Control_c, 5, 11, 114
7, 20900, Control_c, 5, 11, 112
7, 20971, Control_c, 5, 11, 111
7, 21032, Control_c, 5, 11, 109
7, 21048, Control_c, 5, 11, 108
7, 21185, Control_c, 5, 11, 109
7, 21262, Control_c, 5, 11, 110
7, 21284, Control_c, 5, 11, 112
7, 21301, Control_c, 5, 11, 113
7, 21317, Control_c, 5, 11, 118
7, 21333, Control_c, 5, 11, 119
7, 21344, Control_c, 5, 11, 121
7, 21361, Control_c, 5, 11, 122
7, 21366, Control_c, 5, 11, 124
7, 21377, Control_c, 5, 11, 125
7, 21452, Note_on_c, 5, 60, 0
7, 21504, Control_c, 5, 11, 124
7, 21504, Note_on_c, 5, 55, 82
7, 21509, Control_c, 5, 11, 121
7, 21514, Control_c, 5, 11, 125
7, 21525, Control_c, 5, 11, 127
7, 21542, Control_c, 5, 11, 124
7, 21547, Control_c, 5, 11, 123
7, 21558, Control_c, 5, 11, 121
7, 21575, Control_c, 5, 11, 118
7, 21580, Control_c, 5, 11, 117
7, 21591, Control_c, 5, 11, 115
7, 21608, Control_c, 5, 11, 114
7, 21624, Control_c, 5, 11, 112
7, 21641, Control_c, 5, 11, 111
7, 21657, Control_c, 5, 11, 109
7, 21696, Control_c, 5, 11, 108
7, 21712, Control_c, 5, 11, 106
7, 21756, Control_c, 5, 11, 105
7, 21772, Control_c, 5, 11, 103
7, 21937, Control_c, 5, 11, 104
7, 21975, Control_c, 5, 11, 106
7, 22003, Control_c, 5, 11, 109
7, 22025, Control_c, 5, 11, 110
7, 22041, Control_c, 5, 11, 112
7, 22069, Control_c, 5, 11, 113
7, 22074, Control_c, 5, 11, 115
7, 22101, Control_c, 5, 11, 116
7, 22123, Control_c, 5, 11, 118
7, 22134, Control_c, 5, 11, 119
7, 22151, Control_c, 5, 11, 121
7, 22184, Control_c, 5, 11, 122
7, 22200, Control_c, 5, 11, 124
7, 22206, Control_c, 5, 11, 125
7, 22220, Note_on_c, 5, 55, 0
7, 22233, Control_c, 5, 11, 127
7, 22272, Note_on_c, 5, 60, 82
7, 22282, Control_c, 5, 11, 126
7, 22304, Control_c, 5, 11, 124
7, 22321, Control_c, 5, 11, 123
7, 22332, Control_c, 5, 11, 121
7, 22365, Control_c, 5, 11, 120
7, 22370, Control_c, 5, 11, 118
7, 22398, Control_c, 5, 11, 115
7, 22436, Control_c, 5, 11, 114
7, 22447, Control_c, 5, 11, 112
7, 22453, Control_c, 5, 11, 111
7, 22469, Control_c, 5, 11, 109
7, 22474, Control_c, 5, 11, 107
7, 22480, Control_c, 5, 11, 109
7, 22529, Control_c, 5, 11, 108
7, 22579, Control_c, 5, 11, 106
7, 22595, Control_c, 5, 11, 105
7, 22601, Control_c, 5, 11, 103
7, 22612, Control_c, 5, 11, 102
7, 22634, Control_c, 5, 11, 100
7, 22988, Note_on_c, 5, 60, 0
7, 23034, Control_c, 5, 11, 115
7, 23040, Control_c, 5, 11, 116
7, 23040, Note_on_c, 5, 55, 82
7, 23045, Control_c, 5, 11, 118
7, 23061, Control_c, 5, 11, 119
7, 23072, Control_c, 5, 11, 122
7, 23078, Control_c, 5, 11, 125
7, 23089, Control_c, 5, 11, 127
7, 23111, Control_c, 5, 11, 124
7, 23144, Control_c, 5, 11, 123
7, 23160, Control_c, 5, 11, 121
7, 23171, Control_c, 5, 11, 118
7, 23177, Control_c, 5, 11, 117
7, 23188, Control_c, 5, 11, 115
7, 23210, Control_c, 5, 11, 114
7, 23221, Control_c, 5, 11, 112
7, 23237, Control_c, 5, 11, 111
7, 23242, Control_c, 5, 11, 109
7, 23253, Control_c, 5, 11, 108
7, 23259, Control_c, 5, 11, 106
7, 23325, Control_c, 5, 11, 105
7, 23813, Control_c, 5, 11, 103
7, 23835, Control_c, 5, 11, 104
7, 23934, Control_c, 5, 11, 103
7, 24043, Control_c, 5, 11, 104
7, 24109, Control_c, 5, 11, 106
7, 24175, Control_c, 5, 11, 107
7, 24241, Control_c, 5, 11, 109
7, 24246, Control_c, 5, 11, 110
7, 24307, Control_c, 5, 11, 112
7, 24373, Control_c, 5, 11, 113
7, 24411, Control_c, 5, 11, 115
7, 24438, Control_c, 5, 11, 116
7, 24471, Control_c, 5, 11, 118
7, 24504, Control_c, 5, 11, 119
7, 24518, Note_on_c, 5, 55, 0
7, 25311, Control_c, 5, 11, 127
7, 25344, Note_on_c, 5, 55, 82
7, 25398, Control_c, 5, 11, 126
7, 25409, Control_c, 5, 11, 124
7, 25415, Control_c, 5, 11, 123
7, 25431, Control_c, 5, 11, 121
7, 25442, Control_c, 5, 11, 120
7, 25448, Control_c, 5, 11, 118
7, 25464, Control_c, 5, 11, 115
7, 25475, Control_c, 5, 11, 114
7, 25481, Control_c, 5, 11, 111
7, 25492, Control_c, 5, 11, 107
7, 25503, Control_c, 5, 11, 106
7, 25514, Control_c, 5, 11, 105
7, 25546, Control_c, 5, 11, 102
7, 25557, Control_c, 5, 11, 100
7, 25563, Control_c, 5, 11, 99
7, 25574, Control_c, 5, 11, 97
7, 25579, Control_c, 5, 11, 96
7, 25607, Control_c, 5, 11, 94
7, 25629, Control_c, 5, 11, 93
7, 25645, Control_c, 5, 11, 90
7, 25738, Control_c, 5, 11, 91
7, 25793, Control_c, 5, 11, 92
7, 25804, Control_c, 5, 11, 94
7, 26058, Note_on_c, 5, 55, 0
7, 26457, Control_c, 5, 11, 127
7, 26496, Note_on_c, 5, 55, 82
7, 26631, Note_on_c, 5, 55, 0
7, 26688, Note_on_c, 5, 55, 82
7, 26785, Note_on_c, 5, 55, 0
7, 26834, Note_on_c, 5, 55, 82
7, 26862, Note_on_c, 5, 55, 0
7, 27264, Note_on_c, 5, 55, 82
7, 27394, Note_on_c, 5, 55, 0
7, 27456, Note_on_c, 5, 55, 82
7, 27552, Note_on_c, 5, 55, 0
7, 27602, Note_on_c, 5, 55, 82
7, 27630, Note_on_c, 5, 55, 0
7, 27840, Note_on_c, 5, 55, 82
7, 27968, Note_on_c, 5, 55, 0
7, 28224, Note_on_c, 5, 55, 82
7, 28352, Note_on_c, 5, 55, 0
7, 41472, Note_on_c, 5, 43, 42
7, 41482, Control_c, 5, 11, 66
7, 41488, Control_c, 5, 11, 70
7, 41498, Control_c, 5, 11, 72
7, 41504, Control_c, 5, 11, 75
7, 41515, Control_c, 5, 11, 78
7, 41531, Control_c, 5, 11, 79
7, 41537, Control_c, 5, 11, 82
7, 41564, Control_c, 5, 11, 84
7, 41597, Control_c, 5, 11, 85
7, 41614, Control_c, 5, 11, 88
7, 41630, Control_c, 5, 11, 90
7, 41652, Control_c, 5, 11, 91
7, 44546, Control_c, 5, 11, 90
7, 44584, Control_c, 5, 11, 87
7, 44595, Control_c, 5, 11, 86
7, 44601, Control_c, 5, 11, 81
7, 44612, Control_c, 5, 11, 80
7, 44617, Control_c, 5, 11, 78
7, 44628, Control_c, 5, 11, 77
7, 44634, Control_c, 5, 11, 75
7, 44650, Control_c, 5, 11, 74
7, 44667, Control_c, 5, 11, 72
7, 44678, Control_c, 5, 11, 69
7, 44694, Control_c, 5, 11, 68
7, 44700, Control_c, 5, 11, 66
7, 44711, Control_c, 5, 11, 65
7, 44727, Control_c, 5, 11, 63
7, 44732, Note_on_c, 5, 43, 0
7, 44733, Control_c, 5, 11, 62
7, 44743, Control_c, 5, 11, 60
7, 52156, Control_c, 5, 11, 50
7, 52224, Note_on_c, 5, 43, 60
7, 53762, Control_c, 5, 11, 48
7, 53788, Control_c, 5, 11, 49
7, 53806, Control_c, 5, 11, 50
7, 53823, Control_c, 5, 11, 51
7, 53841, Control_c, 5, 11, 52
7, 53867, Control_c, 5, 11, 53
7, 53884, Control_c, 5, 11, 54
7, 53902, Control_c, 5, 11, 55
7, 53919, Control_c, 5, 11, 56
7, 53937, Control_c, 5, 11, 57
7, 53963, Control_c, 5, 11, 58
7, 53980, Control_c, 5, 11, 59
7, 53998, Control_c, 5, 11, 60
7, 54015, Control_c, 5, 11, 61
7, 54041, Control_c, 5, 11, 62
7, 54059, Control_c, 5, 11, 63
7, 54076, Control_c, 5, 11, 64
7, 54094, Control_c, 5, 11, 65
7, 54111, Control_c, 5, 11, 66
7, 54137, Control_c, 5, 11, 67
7, 54155, Control_c, 5, 11, 68
7, 54172, Control_c, 5, 11, 69
7, 54190, Control_c, 5, 11, 70
7, 54207, Control_c, 5, 11, 71
7, 54233, Control_c, 5, 11, 72
7, 54251, Control_c, 5, 11, 73
7, 54268, Control_c, 5, 11, 74
7, 54286, Control_c, 5, 11, 75
7, 54312, Control_c, 5, 11, 76
7, 54329, Control_c, 5, 11, 77
7, 54347, Control_c, 5, 11, 78
7, 54364, Control_c, 5, 11, 79
7, 54382, Control_c, 5, 11, 80
7, 54408, Control_c, 5, 11, 81
7, 54425, Control_c, 5, 11, 82
7, 54443, Control_c, 5, 11, 83
7, 54460, Control_c, 5, 11, 84
7, 54478, Control_c, 5, 11, 85
7, 54504, Control_c, 5, 11, 86
7, 54521, Control_c, 5, 11, 87
7, 54539, Control_c, 5, 11, 88
7, 54556, Control_c, 5, 11, 89
7, 54582, Control_c, 5, 11, 90
7, 54600, Control_c, 5, 11, 91
7, 54617, Control_c, 5, 11, 92
7, 54635, Control_c, 5, 11, 93
7, 54652, Control_c, 5, 11, 94
7, 54678, Control_c, 5, 11, 95
7, 54696, Control_c, 5, 11, 96
7, 54713, Control_c, 5, 11, 97
7, 54731, Control_c, 5, 11, 98
7, 54748, Control_c, 5, 11, 99
7, 54774, Control_c, 5, 11, 100
7, 54792, Control_c, 5, 11, 101
7, 54809, Control_c, 5, 11, 102
7, 54827, Control_c, 5, 11, 103
7, 54853, Control_c, 5, 11, 104
7, 54870, Control_c, 5, 11, 105
7, 54888, Control_c, 5, 11, 106
7, 54905, Control_c, 5, 11, 107
7, 54923, Control_c, 5, 11, 108
7, 54949, Control_c, 5, 11, 109
7, 54966, Control_c, 5, 11, 110
7, 54984, Control_c, 5, 11, 111
7, 55001, Control_c, 5, 11, 112
7, 55019, Control_c, 5, 11, 113
7, 55045, Control_c, 5, 11, 114
7, 55062, Control_c, 5, 11, 115
7, 55080, Control_c, 5, 11, 116
7, 55097, Control_c, 5, 11, 117
7, 55124, Control_c, 5, 11, 118
7, 55141, Control_c, 5, 11, 119
7, 55158, Control_c, 5, 11, 120
7, 55176, Control_c, 5, 11, 121
7, 55193, Control_c, 5, 11, 122
7, 55220, Control_c, 5, 11, 123
7, 55237, Control_c, 5, 11, 124
7, 55254, Control_c, 5, 11, 125
7, 55266, Note_on_c, 5, 43, 0
7, 55272, Control_c, 5, 11, 126
7, 55289, Control_c, 5, 11, 127
7, 55296, Note_on_c, 5, 43, 82
7, 57010, Note_on_c, 5, 43, 0
7, 57600, Control_c, 5, 10, 83
7, 58368, Note_on_c, 5, 62, 115
7, 58376, Control_c, 5, 11, 113
7, 58394, Control_c, 5, 11, 110
7, 58420, Control_c, 5, 11, 107
7, 58446, Control_c, 5, 11, 105
7, 58472, Control_c, 5, 11, 104
7, 58481, Control_c, 5, 11, 102
7, 58498, Control_c, 5, 11, 99
7, 58507, Control_c, 5, 11, 98
7, 58525, Control_c, 5, 11, 95
7, 58533, Control_c, 5, 11, 93
7, 58551, Control_c, 5, 11, 92
7, 58577, Control_c, 5, 11, 90
7, 58586, Control_c, 5, 11, 87
7, 58603, Control_c, 5, 11, 86
7, 58612, Control_c, 5, 11, 84
7, 58629, Control_c, 5, 11, 81
7, 58638, Control_c, 5, 11, 78
7, 58647, Control_c, 5, 11, 75
7, 58656, Control_c, 5, 11, 74
7, 58664, Control_c, 5, 11, 72
7, 58673, Control_c, 5, 11, 71
7, 58682, Control_c, 5, 11, 69
7, 58690, Control_c, 5, 11, 68
7, 58699, Control_c, 5, 11, 66
7, 58708, Control_c, 5, 11, 65
7, 58717, Control_c, 5, 11, 63
7, 58725, Control_c, 5, 11, 62
7, 58734, Control_c, 5, 11, 60
7, 58743, Control_c, 5, 11, 59
7, 58752, Control_c, 5, 11, 57
7, 58760, Control_c, 5, 11, 56
7, 59862, Note_on_c, 5, 62, 0
7, 61440, Note_on_c, 5, 62, 115
7, 61448, Control_c, 5, 11, 113
7, 61466, Control_c, 5, 11, 110
7, 61492, Control_c, 5, 11, 107
7, 61518, Control_c, 5, 11, 105
7, 61544, Control_c, 5, 11, 104
7, 61553, Control_c, 5, 11, 102
7, 61570, Control_c, 5, 11, 99
7, 61579, Control_c, 5, 11, 98
7, 61597, Control_c, 5, 11, 95
7, 61605, Control_c, 5, 11, 93
7, 61623, Control_c, 5, 11, 92
7, 61649, Control_c, 5, 11, 90
7, 61658, Control_c, 5, 11, 87
7, 61675, Control_c, 5, 11, 86
7, 61684, Control_c, 5, 11, 84
7, 61701, Control_c, 5, 11, 81
7, 61710, Control_c, 5, 11, 78
7, 61719, Control_c, 5, 11, 75
7, 61728, Control_c, 5, 11, 74
7, 61736, Control_c, 5, 11, 72
7, 61745, Control_c, 5, 11, 71
7, 61754, Control_c, 5, 11, 69
7, 61762, Control_c, 5, 11, 68
7, 61771, Control_c, 5, 11, 66
7, 61780, Control_c, 5, 11, 65
7, 61789, Control_c, 5, 11, 63
7, 61797, Control_c, 5, 11, 62
7, 61806, Control_c, 5, 11, 60
7, 61815, Control_c, 5, 11, 59
7, 61824, Control_c, 5, 11, 57
7, 61832, Control_c, 5, 11, 56
7, 62922, Note_on_c, 5, 62, 0
7, 62976, Note_on_c, 5, 55, 94
7, 63154, Note_on_c, 5, 55, 0
7, 63744, Control_c, 5, 11, 127
7, 63744, Control_c, 5, 10, 86
7, 64128, Note_on_c, 5, 52, 82
7, 64264, Note_on_c, 5, 52, 0
7, 64320, Note_on_c, 5, 52, 82
7, 64456, Note_on_c, 5, 52, 0
7, 64512, Note_on_c, 5, 52, 82
7, 64652, Note_on_c, 5, 52, 0
7, 65280, Note_on_c, 5, 55, 82
7, 65424, Note_on_c, 5, 55, 0
7, 65472, Note_on_c, 5, 43, 82
7, 65812, Note_on_c, 5, 43, 0
7, 65856, Note_on_c, 5, 43, 82
7, 66004, Note_on_c, 5, 43, 0
7, 66048, Note_on_c, 5, 48, 82
7, 66378, Note_on_c, 5, 48, 0
7, 66432, Note_on_c, 5, 60, 82
7, 66762, Note_on_c, 5, 60, 0
7, 67584, Note_on_c, 5, 55, 82
7, 67760, Note_on_c, 5, 55, 0
7, 68736, Note_on_c, 5, 52, 82
7, 68876, Note_on_c, 5, 52, 0
7, 68928, Note_on_c, 5, 52, 82
7, 69068, Note_on_c, 5, 52, 0
7, 69120, Note_on_c, 5, 52, 82
7, 69262, Note_on_c, 5, 52, 0
7, 69888, Note_on_c, 5, 55, 82
7, 70028, Note_on_c, 5, 55, 0
7, 70080, Note_on_c, 5, 43, 82
7, 70420, Note_on_c, 5, 43, 0
7, 70464, Note_on_c, 5, 43, 82
7, 70600, Note_on_c, 5, 43, 0
7, 70656, Note_on_c, 5, 48, 82
7, 72134, Note_on_c, 5, 48, 0
7, 72192, Note_on_c, 5, 43, 82
7, 72904, Note_on_c, 5, 43, 0
7, 72960, Note_on_c, 5, 55, 87
7, 73296, Note_on_c, 5, 55, 0
7, 73344, Note_on_c, 5, 55, 87
7, 73481, Note_on_c, 5, 55, 0
7, 73536, Note_on_c, 5, 55, 87
7, 73673, Note_on_c, 5, 55, 0
7, 73728, Note_on_c, 5, 55, 87
7, 73768, Control_c, 5, 11, 124
7, 73795, Control_c, 5, 11, 123
7, 73809, Control_c, 5, 11, 120
7, 73829, Control_c, 5, 11, 117
7, 73836, Control_c, 5, 11, 114
7, 73850, Control_c, 5, 11, 111
7, 73857, Control_c, 5, 11, 108
7, 73870, Control_c, 5, 11, 106
7, 73898, Control_c, 5, 11, 103
7, 73912, Control_c, 5, 11, 102
7, 73932, Control_c, 5, 11, 100
7, 73953, Control_c, 5, 11, 99
7, 73960, Control_c, 5, 11, 97
7, 75994, Note_on_c, 5, 55, 0
7, 76032, Note_on_c, 5, 55, 87
7, 76032, Control_c, 5, 11, 119
7, 76051, Control_c, 5, 11, 121
7, 76058, Control_c, 5, 11, 124
7, 76072, Control_c, 5, 11, 127
7, 76175, Note_on_c, 5, 55, 0
7, 76224, Note_on_c, 5, 55, 87
7, 76365, Note_on_c, 5, 55, 0
7, 76416, Note_on_c, 5, 55, 87
7, 76557, Note_on_c, 5, 55, 0
7, 76608, Note_on_c, 5, 55, 87
7, 76749, Note_on_c, 5, 55, 0
7, 76800, Note_on_c, 5, 55, 87
7, 76940, Note_on_c, 5, 55, 0
7, 79872, Control_c, 5, 11, 125
7, 79872, Note_on_c, 5, 43, 82
7, 79879, Control_c, 5, 11, 127
7, 79920, Control_c, 5, 11, 126
7, 79934, Control_c, 5, 11, 124
7, 79947, Control_c, 5, 11, 121
7, 79954, Control_c, 5, 11, 120
7, 79961, Control_c, 5, 11, 118
7, 79975, Control_c, 5, 11, 117
7, 79982, Control_c, 5, 11, 115
7, 79995, Control_c, 5, 11, 114
7, 80016, Control_c, 5, 11, 112
7, 80023, Control_c, 5, 11, 111
7, 80037, Control_c, 5, 11, 109
7, 80043, Control_c, 5, 11, 108
7, 80057, Control_c, 5, 11, 105
7, 80064, Control_c, 5, 11, 103
7, 80085, Control_c, 5, 11, 100
7, 80098, Control_c, 5, 11, 99
7, 80105, Control_c, 5, 11, 97
7, 80126, Control_c, 5, 11, 96
7, 80146, Control_c, 5, 11, 94
7, 80160, Control_c, 5, 11, 93
7, 80181, Control_c, 5, 11, 91
7, 80222, Control_c, 5, 11, 90
7, 80242, Control_c, 5, 11, 88
7, 80283, Control_c, 5, 11, 87
7, 83113, Note_on_c, 5, 43, 0
7, 87552, Note_on_c, 5, 43, 65
7, 87552, Control_c, 5, 11, 118
7, 87570, Control_c, 5, 11, 120
7, 87578, Control_c, 5, 11, 121
7, 87596, Control_c, 5, 11, 123
7, 87605, Control_c, 5, 11, 124
7, 87622, Control_c, 5, 11, 126
7, 87631, Control_c, 5, 11, 127
7, 87701, Control_c, 5, 11, 126
7, 87709, Control_c, 5, 11, 125
7, 87718, Control_c, 5, 11, 124
7, 87727, Control_c, 5, 11, 122
7, 87736, Control_c, 5, 11, 121
7, 87744, Control_c, 5, 11, 120
7, 87753, Control_c, 5, 11, 118
7, 87762, Control_c, 5, 11, 117
7, 87770, Control_c, 5, 11, 116
7, 87779, Control_c, 5, 11, 114
7, 87788, Control_c, 5, 11, 113
7, 87797, Control_c, 5, 11, 112
7, 87805, Control_c, 5, 11, 110
7, 87814, Control_c, 5, 11, 109
7, 87823, Control_c, 5, 11, 108
7, 87832, Control_c, 5, 11, 106
7, 87840, Control_c, 5, 11, 104
7, 87849, Control_c, 5, 11, 101
7, 87858, Control_c, 5, 11, 98
7, 87866, Control_c, 5, 11, 95
7, 87869, Control_c, 5, 11, 95
7, 87878, Control_c, 5, 11, 93
7, 87886, Control_c, 5, 11, 91
7, 87895, Control_c, 5, 11, 89
7, 87904, Control_c, 5, 11, 86
7, 87913, Control_c, 5, 11, 84
7, 87921, Control_c, 5, 11, 82
7, 87930, Control_c, 5, 11, 80
7, 87939, Control_c, 5, 11, 77
7, 87948, Control_c, 5, 11, 75
7, 87956, Control_c, 5, 11, 73
7, 87965, Control_c, 5, 11, 71
7, 87974, Control_c, 5, 11, 68
7, 89028, Note_on_c, 5, 43, 0
7, 89088, Note_on_c, 5, 43, 65
7, 89088, Control_c, 5, 11, 118
7, 89106, Control_c, 5, 11, 120
7, 89114, Control_c, 5, 11, 121
7, 89132, Control_c, 5, 11, 123
7, 89141, Control_c, 5, 11, 124
7, 89158, Control_c, 5, 11, 126
7, 89167, Control_c, 5, 11, 127
7, 89237, Control_c, 5, 11, 126
7, 89245, Control_c, 5, 11, 125
7, 89254, Control_c, 5, 11, 124
7, 89263, Control_c, 5, 11, 122
7, 89272, Control_c, 5, 11, 121
7, 89280, Control_c, 5, 11, 120
7, 89289, Control_c, 5, 11, 118
7, 89298, Control_c, 5, 11, 117
7, 89306, Control_c, 5, 11, 116
7, 89315, Control_c, 5, 11, 114
7, 89324, Control_c, 5, 11, 113
7, 89333, Control_c, 5, 11, 112
7, 89341, Control_c, 5, 11, 110
7, 89350, Control_c, 5, 11, 109
7, 89359, Control_c, 5, 11, 108
7, 89368, Control_c, 5, 11, 106
7, 89376, Control_c, 5, 11, 104
7, 89385, Control_c, 5, 11, 101
7, 89394, Control_c, 5, 11, 98
7, 89402, Control_c, 5, 11, 95
7, 89405, Control_c, 5, 11, 95
7, 89414, Control_c, 5, 11, 93
7, 89422, Control_c, 5, 11, 91
7, 89431, Control_c, 5, 11, 89
7, 89440, Control_c, 5, 11, 86
7, 89449, Control_c, 5, 11, 84
7, 89457, Control_c, 5, 11, 82
7, 89466, Control_c, 5, 11, 80
7, 89475, Control_c, 5, 11, 77
7, 89484, Control_c, 5, 11, 75
7, 89492, Control_c, 5, 11, 73
7, 89501, Control_c, 5, 11, 71
7, 89510, Control_c, 5, 11, 68
7, 90564, Note_on_c, 5, 43, 0
7, 90624, Note_on_c, 5, 43, 65
7, 90624, Control_c, 5, 11, 118
7, 90642, Control_c, 5, 11, 120
7, 90650, Control_c, 5, 11, 121
7, 90668, Control_c, 5, 11, 123
7, 90677, Control_c, 5, 11, 124
7, 90694, Control_c, 5, 11, 126
7, 90703, Control_c, 5, 11, 127
7, 90773, Control_c, 5, 11, 126
7, 90781, Control_c, 5, 11, 125
7, 90790, Control_c, 5, 11, 124
7, 90799, Control_c, 5, 11, 122
7, 90808, Control_c, 5, 11, 121
7, 90816, Control_c, 5, 11, 120
7, 90825, Control_c, 5, 11, 118
7, 90834, Control_c, 5, 11, 117
7, 90842, Control_c, 5, 11, 116
7, 90851, Control_c, 5, 11, 114
7, 90860, Control_c, 5, 11, 113
7, 90869, Control_c, 5, 11, 112
7, 90877, Control_c, 5, 11, 110
7, 90886, Control_c, 5, 11, 109
7, 90895, Control_c, 5, 11, 108
7, 90904, Control_c, 5, 11, 106
7, 90912, Control_c, 5, 11, 104
7, 90921, Control_c, 5, 11, 101
7, 90930, Control_c, 5, 11, 98
7, 90938, Control_c, 5, 11, 95
7, 90941, Control_c, 5, 11, 95
7, 90950, Control_c, 5, 11, 93
7, 90958, Control_c, 5, 11, 91
7, 90967, Control_c, 5, 11, 89
7, 90976, Control_c, 5, 11, 86
7, 90985, Control_c, 5, 11, 84
7, 90993, Control_c, 5, 11, 82
7, 91002, Control_c, 5, 11, 80
7, 91011, Control_c, 5, 11, 77
7, 91020, Control_c, 5, 11, 75
7, 91028, Control_c, 5, 11, 73
7, 91037, Control_c, 5, 11, 71
7, 91046, Control_c, 5, 11, 68
7, 92100, Note_on_c, 5, 43, 0
7, 92160, Note_on_c, 5, 43, 65
7, 92160, Control_c, 5, 11, 118
7, 92178, Control_c, 5, 11, 120
7, 92186, Control_c, 5, 11, 121
7, 92204, Control_c, 5, 11, 123
7, 92213, Control_c, 5, 11, 124
7, 92230, Control_c, 5, 11, 126
7, 92239, Control_c, 5, 11, 127
7, 92309, Control_c, 5, 11, 126
7, 92317, Control_c, 5, 11, 125
7, 92326, Control_c, 5, 11, 124
7, 92335, Control_c, 5, 11, 122
7, 92344, Control_c, 5, 11, 121
7, 92352, Control_c, 5, 11, 120
7, 92361, Control_c, 5, 11, 118
7, 92370, Control_c, 5, 11, 117
7, 92378, Control_c, 5, 11, 116
7, 92387, Control_c, 5, 11, 114
7, 92396, Control_c, 5, 11, 113
7, 92405, Control_c, 5, 11, 112
7, 92413, Control_c, 5, 11, 110
7, 92422, Control_c, 5, 11, 109
7, 92431, Control_c, 5, 11, 108
7, 92440, Control_c, 5, 11, 106
7, 92448, Control_c, 5, 11, 104
7, 92457, Control_c, 5, 11, 101
7, 92466, Control_c, 5, 11, 98
7, 92474, Control_c, 5, 11, 95
7, 92477, Control_c, 5, 11, 95
7, 92486, Control_c, 5, 11, 93
7, 92494, Control_c, 5, 11, 91
7, 92503, Control_c, 5, 11, 89
7, 92512, Control_c, 5, 11, 86
7, 92521, Control_c, 5, 11, 84
7, 92529, Control_c, 5, 11, 82
7, 92538, Control_c, 5, 11, 80
7, 92547, Control_c, 5, 11, 77
7, 92556, Control_c, 5, 11, 75
7, 92564, Control_c, 5, 11, 73
7, 92573, Control_c, 5, 11, 71
7, 92582, Control_c, 5, 11, 68
7, 93636, Note_on_c, 5, 43, 0
7, 93696, Note_on_c, 5, 43, 65
7, 93696, Control_c, 5, 11, 118
7, 93714, Control_c, 5, 11, 120
7, 93722, Control_c, 5, 11, 121
7, 93740, Control_c, 5, 11, 123
7, 93749, Control_c, 5, 11, 124
7, 93766, Control_c, 5, 11, 126
7, 93775, Control_c, 5, 11, 127
7, 93845, Control_c, 5, 11, 126
7, 93853, Control_c, 5, 11, 125
7, 93862, Control_c, 5, 11, 124
7, 93871, Control_c, 5, 11, 122
7, 93880, Control_c, 5, 11, 121
7, 93888, Control_c, 5, 11, 120
7, 93897, Control_c, 5, 11, 118
7, 93906, Control_c, 5, 11, 117
7, 93914, Control_c, 5, 11, 116
7, 93923, Control_c, 5, 11, 114
7, 93932, Control_c, 5, 11, 113
7, 93941, Control_c, 5, 11, 112
7, 93949, Control_c, 5, 11, 110
7, 93958, Control_c, 5, 11, 109
7, 93967, Control_c, 5, 11, 108
7, 93976, Control_c, 5, 11, 106
7, 93984, Control_c, 5, 11, 104
7, 93993, Control_c, 5, 11, 101
7, 94002, Control_c, 5, 11, 98
7, 94010, Control_c, 5, 11, 95
7, 94013, Control_c, 5, 11, 95
7, 94022, Control_c, 5, 11, 93
7, 94030, Control_c, 5, 11, 91
7, 94039, Control_c, 5, 11, 89
7, 94048, Control_c, 5, 11, 86
7, 94057, Control_c, 5, 11, 84
7, 94065, Control_c, 5, 11, 82
7, 94074, Control_c, 5, 11, 80
7, 94083, Control_c, 5, 11, 77
7, 94092, Control_c, 5, 11, 75
7, 94100, Control_c, 5, 11, 73
7, 94109, Control_c, 5, 11, 71
7, 94118, Control_c, 5, 11, 68
7, 95172, Note_on_c, 5, 43, 0
7, 95232, Note_on_c, 5, 43, 65
7, 95232, Control_c, 5, 11, 118
7, 95250, Control_c, 5, 11, 120
7, 95258, Control_c, 5, 11, 121
7, 95276, Control_c, 5, 11, 123
7, 95285, Control_c, 5, 11, 124
7, 95302, Control_c, 5, 11, 126
7, 95311, Control_c, 5, 11, 127
7, 95381, Control_c, 5, 11, 126
7, 95389, Control_c, 5, 11, 125
7, 95398, Control_c, 5, 11, 124
7, 95407, Control_c, 5, 11, 122
7, 95416, Control_c, 5, 11, 121
7, 95424, Control_c, 5, 11, 120
7, 95433, Control_c, 5, 11, 118
7, 95442, Control_c, 5, 11, 117
7, 95450, Control_c, 5, 11, 116
7, 95459, Control_c, 5, 11, 114
7, 95468, Control_c, 5, 11, 113
7, 95477, Control_c, 5, 11, 112
7, 95485, Control_c, 5, 11, 110
7, 95494, Control_c, 5, 11, 109
7, 95503, Control_c, 5, 11, 108
7, 95512, Control_c, 5, 11, 106
7, 95520, Control_c, 5, 11, 104
7, 95529, Control_c, 5, 11, 101
7, 95538, Control_c, 5, 11, 98
7, 95546, Control_c, 5, 11, 95
7, 95549, Control_c, 5, 11, 95
7, 95558, Control_c, 5, 11, 93
7, 95566, Control_c, 5, 11, 91
7, 95575, Control_c, 5, 11, 89
7, 95584, Control_c, 5, 11, 86
7, 95593, Control_c, 5, 11, 84
7, 95601, Control_c, 5, 11, 82
7, 95610, Control_c, 5, 11, 80
7, 95619, Control_c, 5, 11, 77
7, 95628, Control_c, 5, 11, 75
7, 95636, Control_c, 5, 11, 73
7, 95645, Control_c, 5, 11, 71
7, 95654, Control_c, 5, 11, 68
7, 96708, Note_on_c, 5, 43, 0
7, 97536, Control_c, 5, 11, 127
7, 102900, Control_c, 5, 11, 84
7, 102912, Note_on_c, 5, 48, 48
7, 102934, Control_c, 5, 11, 86
7, 102945, Control_c, 5, 11, 90
7, 102968, Control_c, 5, 11, 92
7, 102979, Control_c, 5, 11, 95
7, 103013, Control_c, 5, 11, 96
7, 103036, Control_c, 5, 11, 98
7, 103047, Control_c, 5, 11, 101
7, 103070, Control_c, 5, 11, 102
7, 103081, Control_c, 5, 11, 105
7, 103104, Control_c, 5, 11, 107
7, 103149, Control_c, 5, 11, 108
7, 103171, Control_c, 5, 11, 110
7, 103205, Control_c, 5, 11, 111
7, 103217, Control_c, 5, 11, 113
7, 103250, Control_c, 5, 11, 114
7, 103284, Control_c, 5, 11, 116
7, 103318, Control_c, 5, 11, 117
7, 103329, Control_c, 5, 11, 119
7, 103341, Control_c, 5, 11, 120
7, 103442, Control_c, 5, 11, 119
7, 103476, Control_c, 5, 11, 118
7, 103510, Control_c, 5, 11, 116
7, 103521, Control_c, 5, 11, 115
7, 103555, Control_c, 5, 11, 113
7, 103589, Control_c, 5, 11, 112
7, 103646, Control_c, 5, 11, 111
7, 104222, Control_c, 5, 11, 110
7, 104798, Control_c, 5, 11, 109
7, 105374, Control_c, 5, 11, 108
7, 105950, Control_c, 5, 11, 107
7, 106526, Control_c, 5, 11, 106
7, 107102, Control_c, 5, 11, 105
7, 107478, Note_on_c, 5, 48, 0
7, 107520, Note_on_c, 5, 43, 48
7, 107678, Control_c, 5, 11, 104
7, 112316, Note_on_c, 5, 43, 0
7, 113664, Note_on_c, 5, 43, 40
7, 113672, Control_c, 5, 11, 93
7, 113751, Control_c, 5, 11, 94
7, 113760, Control_c, 5, 11, 96
7, 113786, Control_c, 5, 11, 99
7, 113812, Control_c, 5, 11, 100
7, 113838, Control_c, 5, 11, 105
7, 113864, Control_c, 5, 11, 106
7, 113882, Control_c, 5, 11, 108
7, 113890, Control_c, 5, 11, 109
7, 113917, Control_c, 5, 11, 111
7, 113934, Control_c, 5, 11, 114
7, 113960, Control_c, 5, 11, 115
7, 113969, Control_c, 5, 11, 117
7, 113986, Control_c, 5, 11, 118
7, 113995, Control_c, 5, 11, 120
7, 115138, Control_c, 5, 11, 117
7, 115296, Control_c, 5, 11, 116
7, 115444, Control_c, 5, 11, 115
7, 115592, Control_c, 5, 11, 114
7, 115741, Control_c, 5, 11, 113
7, 115898, Control_c, 5, 11, 112
7, 116046, Control_c, 5, 11, 111
7, 116194, Control_c, 5, 11, 110
7, 116343, Control_c, 5, 11, 109
7, 116629, Control_c, 5, 11, 106
7, 116646, Control_c, 5, 11, 105
7, 116655, Control_c, 5, 11, 104
7, 116664, Control_c, 5, 11, 103
7, 116672, Control_c, 5, 11, 102
7, 116681, Control_c, 5, 11, 101
7, 116690, Control_c, 5, 11, 100
7, 116707, Control_c, 5, 11, 99
7, 116716, Control_c, 5, 11, 98
7, 116725, Control_c, 5, 11, 97
7, 116733, Control_c, 5, 11, 96
7, 116742, Control_c, 5, 11, 95
7, 116751, Control_c, 5, 11, 94
7, 116768, Control_c, 5, 11, 93
7, 116777, Control_c, 5, 11, 92
7, 116786, Control_c, 5, 11, 91
7, 116795, Control_c, 5, 11, 90
7, 116803, Control_c, 5, 11, 89
7, 116812, Control_c, 5, 11, 88
7, 116829, Control_c, 5, 11, 87
7, 116838, Control_c, 5, 11, 86
7, 116847, Control_c, 5, 11, 85
7, 116856, Control_c, 5, 11, 84
7, 116858, Control_c, 5, 11, 81
7, 120392, Control_c, 5, 11, 83
7, 120462, Control_c, 5, 11, 82
7, 120523, Control_c, 5, 11, 81
7, 120584, Control_c, 5, 11, 80
7, 120637, Control_c, 5, 11, 78
7, 120654, Control_c, 5, 11, 77
7, 120663, Control_c, 5, 11, 76
7, 120672, Control_c, 5, 11, 75
7, 120680, Control_c, 5, 11, 74
7, 120689, Control_c, 5, 11, 73
7, 120698, Control_c, 5, 11, 72
7, 120706, Control_c, 5, 11, 71
7, 120715, Control_c, 5, 11, 70
7, 120724, Control_c, 5, 11, 69
7, 120733, Control_c, 5, 11, 68
7, 120741, Control_c, 5, 11, 67
7, 120750, Control_c, 5, 11, 66
7, 120754, Note_on_c, 5, 43, 0
7, 120759, Control_c, 5, 11, 65
7, 121160, Control_c, 5, 11, 127
7, 121344, Note_on_c, 5, 52, 103
7, 121361, Control_c, 5, 11, 122
7, 121365, Control_c, 5, 11, 123
7, 121374, Control_c, 5, 11, 125
7, 121378, Control_c, 5, 11, 127
7, 121409, Control_c, 5, 11, 118
7, 121413, Control_c, 5, 11, 116
7, 121418, Control_c, 5, 11, 115
7, 121426, Control_c, 5, 11, 112
7, 121431, Control_c, 5, 11, 110
7, 121440, Control_c, 5, 11, 109
7, 121444, Control_c, 5, 11, 107
7, 121453, Control_c, 5, 11, 106
7, 121457, Control_c, 5, 11, 104
7, 121466, Control_c, 5, 11, 101
7, 121470, Control_c, 5, 11, 100
7, 121479, Control_c, 5, 11, 98
7, 121483, Control_c, 5, 11, 97
7, 121509, Control_c, 5, 11, 95
7, 121752, Note_on_c, 5, 52, 0
7, 122016, Control_c, 5, 11, 126
7, 122064, Note_on_c, 5, 48, 116
7, 122092, Note_on_c, 5, 48, 0
7, 122112, Control_c, 5, 11, 116
7, 122112, Note_on_c, 5, 48, 116
7, 122125, Control_c, 5, 11, 119
7, 122133, Control_c, 5, 11, 120
7, 122138, Control_c, 5, 11, 122
7, 122151, Control_c, 5, 11, 123
7, 122160, Control_c, 5, 11, 127
7, 122199, Control_c, 5, 11, 124
7, 122203, Control_c, 5, 11, 122
7, 122212, Control_c, 5, 11, 121
7, 122216, Control_c, 5, 11, 119
7, 122229, Control_c, 5, 11, 118
7, 122256, Control_c, 5, 11, 116
7, 122264, Control_c, 5, 11, 115
7, 122269, Control_c, 5, 11, 113
7, 122277, Control_c, 5, 11, 112
7, 122282, Control_c, 5, 11, 110
7, 122290, Control_c, 5, 11, 109
7, 122304, Control_c, 5, 11, 107
7, 122321, Control_c, 5, 11, 106
7, 122334, Control_c, 5, 11, 104
7, 122369, Control_c, 5, 11, 103
7, 122382, Control_c, 5, 11, 101
7, 122512, Note_on_c, 5, 48, 0
7, 122853, Control_c, 5, 11, 114
7, 122880, Note_on_c, 5, 48, 103
7, 122994, Note_on_c, 5, 48, 0
7, 123072, Note_on_c, 5, 48, 103
7, 123160, Note_on_c, 5, 48, 0
7, 123218, Note_on_c, 5, 48, 103
7, 123246, Note_on_c, 5, 48, 0
7, 123264, Note_on_c, 5, 48, 103
7, 123372, Note_on_c, 5, 48, 0
7, 123456, Note_on_c, 5, 48, 103
7, 123564, Note_on_c, 5, 48, 0
7, 123648, Note_on_c, 5, 43, 103
7, 123752, Note_on_c, 5, 43, 0
7, 123840, Note_on_c, 5, 43, 103
7, 123944, Note_on_c, 5, 43, 0
7, 124416, Note_on_c, 5, 48, 103
7, 124522, Note_on_c, 5, 48, 0
7, 124608, Note_on_c, 5, 48, 103
7, 124696, Note_on_c, 5, 48, 0
7, 124757, Note_on_c, 5, 48, 103
7, 124785, Note_on_c, 5, 48, 0
7, 124800, Note_on_c, 5, 48, 103
7, 124904, Note_on_c, 5, 48, 0
7, 124992, Note_on_c, 5, 48, 103
7, 125096, Note_on_c, 5, 48, 0
7, 125184, Note_on_c, 5, 43, 98
7, 125205, Control_c, 5, 11, 125
7, 125249, Control_c, 5, 11, 123
7, 125266, Control_c, 5, 11, 122
7, 125275, Control_c, 5, 11, 120
7, 125292, Control_c, 5, 11, 116
7, 125301, Control_c, 5, 11, 114
7, 125327, Control_c, 5, 11, 110
7, 125345, Control_c, 5, 11, 104
7, 125353, Control_c, 5, 11, 102
7, 125380, Control_c, 5, 11, 101
7, 125397, Control_c, 5, 11, 98
7, 125406, Control_c, 5, 11, 90
7, 125432, Control_c, 5, 11, 86
7, 125449, Control_c, 5, 11, 84
7, 125884, Note_on_c, 5, 43, 0
7, 125952, Note_on_c, 5, 48, 103
7, 125952, Control_c, 5, 11, 127
7, 126058, Note_on_c, 5, 48, 0
7, 126144, Note_on_c, 5, 48, 103
7, 126232, Note_on_c, 5, 48, 0
7, 126293, Note_on_c, 5, 48, 103
7, 126321, Note_on_c, 5, 48, 0
7, 126336, Note_on_c, 5, 48, 103
7, 126440, Note_on_c, 5, 48, 0
7, 126528, Note_on_c, 5, 48, 103
7, 126632, Note_on_c, 5, 48, 0
7, 126720, Note_on_c, 5, 48, 103
7, 126785, Control_c, 5, 11, 126
7, 126793, Control_c, 5, 11, 125
7, 126820, Control_c, 5, 11, 123
7, 126837, Control_c, 5, 11, 119
7, 126846, Control_c, 5, 11, 113
7, 126863, Control_c, 5, 11, 111
7, 126872, Control_c, 5, 11, 104
7, 126898, Control_c, 5, 11, 102
7, 126916, Control_c, 5, 11, 101
7, 126924, Control_c, 5, 11, 99
7, 126942, Control_c, 5, 11, 98
7, 126951, Control_c, 5, 11, 95
7, 126968, Control_c, 5, 11, 93
7, 126977, Control_c, 5, 11, 90
7, 127003, Control_c, 5, 11, 89
7, 127020, Control_c, 5, 11, 87
7, 127047, Control_c, 5, 11, 86
7, 127419, Note_on_c, 5, 48, 0
7, 127488, Note_on_c, 5, 48, 103
7, 127488, Control_c, 5, 11, 127
7, 127594, Note_on_c, 5, 48, 0
7, 127680, Note_on_c, 5, 48, 103
7, 127768, Note_on_c, 5, 48, 0
7, 127829, Note_on_c, 5, 48, 103
7, 127857, Note_on_c, 5, 48, 0
7, 127872, Note_on_c, 5, 48, 103
7, 127976, Note_on_c, 5, 48, 0
7, 128064, Note_on_c, 5, 48, 103
7, 128168, Note_on_c, 5, 48, 0
7, 128256, Note_on_c, 5, 48, 103
7, 128303, Control_c, 5, 11, 127
7, 128356, Control_c, 5, 11, 126
7, 128364, Control_c, 5, 11, 123
7, 128391, Control_c, 5, 11, 122
7, 128408, Control_c, 5, 11, 117
7, 128417, Control_c, 5, 11, 113
7, 128434, Control_c, 5, 11, 111
7, 128443, Control_c, 5, 11, 104
7, 128460, Control_c, 5, 11, 98
7, 128487, Control_c, 5, 11, 93
7, 128495, Control_c, 5, 11, 87
7, 128521, Control_c, 5, 11, 86
7, 128955, Note_on_c, 5, 48, 0
7, 129024, Note_on_c, 5, 48, 103
7, 129024, Control_c, 5, 11, 126
7, 129130, Note_on_c, 5, 48, 0
7, 129216, Note_on_c, 5, 48, 103
7, 129304, Note_on_c, 5, 48, 0
7, 129365, Note_on_c, 5, 48, 103
7, 129393, Note_on_c, 5, 48, 0
7, 129408, Note_on_c, 5, 48, 103
7, 129512, Note_on_c, 5, 48, 0
7, 129600, Note_on_c, 5, 48, 103
7, 129704, Note_on_c, 5, 48, 0
7, 129792, Note_on_c, 5, 48, 103
7, 129844, Control_c, 5, 11, 125
7, 129870, Control_c, 5, 11, 123
7, 129896, Control_c, 5, 11, 120
7, 129922, Control_c, 5, 11, 117
7, 129931, Control_c, 5, 11, 114
7, 129949, Control_c, 5, 11, 113
7, 129957, Control_c, 5, 11, 110
7, 129984, Control_c, 5, 11, 105
7, 130001, Control_c, 5, 11, 102
7, 130010, Control_c, 5, 11, 99
7, 130027, Control_c, 5, 11, 98
7, 130036, Control_c, 5, 11, 96
7, 130053, Control_c, 5, 11, 93
7, 130062, Control_c, 5, 11, 90
7, 130080, Control_c, 5, 11, 87
7, 130167, Control_c, 5, 11, 88
7, 130184, Control_c, 5, 11, 90
7, 130193, Control_c, 5, 11, 91
7, 130219, Control_c, 5, 11, 93
7, 130245, Control_c, 5, 11, 94
7, 130289, Control_c, 5, 11, 97
7, 130341, Control_c, 5, 11, 99
7, 130376, Control_c, 5, 11, 100
7, 130394, Control_c, 5, 11, 102
7, 130429, Control_c, 5, 11, 103
7, 130455, Control_c, 5, 11, 105
7, 130481, Control_c, 5, 11, 106
7, 130491, Note_on_c, 5, 48, 0
7, 130498, Control_c, 5, 11, 108
7, 130507, Control_c, 5, 11, 109
7, 130525, Control_c, 5, 11, 111
7, 130533, Control_c, 5, 11, 112
7, 130551, Control_c, 5, 11, 114
7, 130560, Control_c, 5, 11, 127
7, 130560, Note_on_c, 5, 50, 103
7, 130666, Note_on_c, 5, 50, 0
7, 130752, Note_on_c, 5, 50, 103
7, 130840, Note_on_c, 5, 50, 0
7, 130901, Note_on_c, 5, 50, 103
7, 130929, Note_on_c, 5, 50, 0
7, 130944, Note_on_c, 5, 50, 103
7, 131048, Note_on_c, 5, 50, 0
7, 131136, Note_on_c, 5, 50, 103
7, 131240, Note_on_c, 5, 50, 0
7, 132864, Note_on_c, 5, 55, 103
7, 132992, Note_on_c, 5, 55, 0
7, 133204, Note_on_c, 5, 43, 103
7, 133228, Note_on_c, 5, 43, 0
7, 133248, Note_on_c, 5, 43, 103
7, 133376, Note_on_c, 5, 43, 0
7, 133588, Note_on_c, 5, 43, 103
7, 133612, Note_on_c, 5, 43, 0
7, 133632, Note_on_c, 5, 43, 103
7, 133980, Note_on_c, 5, 43, 0
7, 134378, Control_c, 5, 11, 123
7, 134387, Control_c, 5, 11, 124
7, 134400, Note_on_c, 5, 43, 103
7, 134422, Control_c, 5, 11, 127
7, 134605, Control_c, 5, 11, 126
7, 134623, Control_c, 5, 11, 124
7, 134649, Control_c, 5, 11, 116
7, 134658, Control_c, 5, 11, 114
7, 134675, Control_c, 5, 11, 111
7, 134684, Control_c, 5, 11, 108
7, 134701, Control_c, 5, 11, 104
7, 134710, Control_c, 5, 11, 102
7, 134728, Control_c, 5, 11, 96
7, 134736, Control_c, 5, 11, 93
7, 134754, Control_c, 5, 11, 90
7, 134780, Control_c, 5, 11, 89
7, 134789, Control_c, 5, 11, 87
7, 134806, Control_c, 5, 11, 86
7, 134815, Control_c, 5, 11, 84
7, 134841, Control_c, 5, 11, 83
7, 135346, Note_on_c, 5, 43, 0
7, 145907, Control_c, 5, 11, 84
7, 145920, Note_on_c, 5, 48, 44
7, 145933, Control_c, 5, 11, 85
7, 145951, Control_c, 5, 11, 87
7, 145960, Control_c, 5, 11, 88
7, 145977, Control_c, 5, 11, 90
7, 145986, Control_c, 5, 11, 91
7, 146012, Control_c, 5, 11, 94
7, 146038, Control_c, 5, 11, 96
7, 146056, Control_c, 5, 11, 97
7, 146064, Control_c, 5, 11, 99
7, 146090, Control_c, 5, 11, 100
7, 146117, Control_c, 5, 11, 103
7, 146134, Control_c, 5, 11, 105
7, 146186, Control_c, 5, 11, 106
7, 146221, Control_c, 5, 11, 109
7, 146274, Control_c, 5, 11, 111
7, 146335, Control_c, 5, 11, 109
7, 146675, Control_c, 5, 11, 108
7, 147016, Control_c, 5, 11, 107
7, 147356, Control_c, 5, 11, 106
7, 147688, Control_c, 5, 11, 105
7, 148028, Control_c, 5, 11, 104
7, 148368, Control_c, 5, 11, 103
7, 148709, Control_c, 5, 11, 102
7, 148986, Control_c, 5, 11, 100
7, 149013, Control_c, 5, 11, 99
7, 149021, Control_c, 5, 11, 98
7, 149047, Control_c, 5, 11, 96
7, 149065, Control_c, 5, 11, 95
7, 149074, Control_c, 5, 11, 93
7, 149091, Control_c, 5, 11, 92
7, 149100, Control_c, 5, 11, 90
7, 149117, Control_c, 5, 11, 87
7, 149152, Control_c, 5, 11, 84
7, 149170, Control_c, 5, 11, 83
7, 149180, Note_on_c, 5, 48, 0
7, 153792, Note_on_c, 5, 43, 82
7, 153894, Note_on_c, 5, 43, 0
7, 153936, Note_on_c, 5, 43, 82
7, 153964, Note_on_c, 5, 43, 0
7, 155127, Control_c, 5, 11, 118
7, 155136, Note_on_c, 5, 43, 78
7, 155136, Note_on_c, 5, 55, 84
7, 155153, Control_c, 5, 11, 118
7, 155162, Control_c, 5, 11, 117
7, 155170, Control_c, 5, 11, 116
7, 155179, Control_c, 5, 11, 115
7, 155188, Control_c, 5, 11, 114
7, 155197, Control_c, 5, 11, 113
7, 155205, Control_c, 5, 11, 112
7, 155214, Control_c, 5, 11, 111
7, 155223, Control_c, 5, 11, 110
7, 155232, Control_c, 5, 11, 108
7, 155240, Control_c, 5, 11, 107
7, 155249, Control_c, 5, 11, 106
7, 155258, Control_c, 5, 11, 105
7, 155266, Control_c, 5, 11, 104
7, 155275, Control_c, 5, 11, 103
7, 155284, Control_c, 5, 11, 102
7, 155293, Control_c, 5, 11, 101
7, 155301, Control_c, 5, 11, 100
7, 155310, Control_c, 5, 11, 99
7, 155319, Control_c, 5, 11, 91
7, 155328, Control_c, 5, 11, 87
7, 155336, Control_c, 5, 11, 83
7, 155345, Control_c, 5, 11, 79
7, 155354, Control_c, 5, 11, 75
7, 155362, Control_c, 5, 11, 71
7, 155371, Control_c, 5, 11, 67
7, 155380, Control_c, 5, 11, 63
7, 155389, Control_c, 5, 11, 62
7, 155397, Control_c, 5, 11, 60
7, 155406, Control_c, 5, 11, 59
7, 155415, Control_c, 5, 11, 57
7, 155424, Control_c, 5, 11, 56
7, 155432, Control_c, 5, 11, 54
7, 156630, Note_on_c, 5, 55, 0
7, 156630, Note_on_c, 5, 43, 0
7, 158208, Control_c, 5, 11, 113
7, 158208, Note_on_c, 5, 43, 78
7, 158216, Control_c, 5, 11, 112
7, 158216, Note_on_c, 5, 55, 84
7, 158225, Control_c, 5, 11, 111
7, 158234, Control_c, 5, 11, 110
7, 158242, Control_c, 5, 11, 109
7, 158251, Control_c, 5, 11, 107
7, 158260, Control_c, 5, 11, 106
7, 158269, Control_c, 5, 11, 105
7, 158277, Control_c, 5, 11, 104
7, 158286, Control_c, 5, 11, 103
7, 158295, Control_c, 5, 11, 101
7, 158304, Control_c, 5, 11, 100
7, 158312, Control_c, 5, 11, 99
7, 158321, Control_c, 5, 11, 98
7, 158330, Control_c, 5, 11, 97
7, 158338, Control_c, 5, 11, 95
7, 158347, Control_c, 5, 11, 94
7, 158356, Control_c, 5, 11, 93
7, 158365, Control_c, 5, 11, 92
7, 158373, Control_c, 5, 11, 90
7, 158382, Control_c, 5, 11, 86
7, 158391, Control_c, 5, 11, 82
7, 158400, Control_c, 5, 11, 78
7, 158408, Control_c, 5, 11, 74
7, 158417, Control_c, 5, 11, 70
7, 158426, Control_c, 5, 11, 66
7, 158434, Control_c, 5, 11, 62
7, 158443, Control_c, 5, 11, 58
7, 158452, Control_c, 5, 11, 55
7, 158461, Control_c, 5, 11, 52
7, 158469, Control_c, 5, 11, 48
7, 159922, Note_on_c, 5, 43, 0
7, 159930, Note_on_c, 5, 55, 0
7, 160326, Control_c, 5, 11, 127
7, 160512, Note_on_c, 5, 55, 89
7, 160839, Note_on_c, 5, 55, 0
7, 160896, Note_on_c, 5, 55, 89
7, 161026, Note_on_c, 5, 55, 0
7, 161088, Note_on_c, 5, 55, 89
7, 161218, Note_on_c, 5, 55, 0
7, 161280, Note_on_c, 5, 62, 89
7, 161420, Note_on_c, 5, 62, 0
7, 161472, Note_on_c, 5, 64, 89
7, 161628, Note_on_c, 5, 64, 0
7, 161664, Note_on_c, 5, 62, 89
7, 161820, Note_on_c, 5, 62, 0
7, 161856, Note_on_c, 5, 64, 89
7, 162012, Note_on_c, 5, 64, 0
7, 162048, Note_on_c, 5, 62, 89
7, 162396, Note_on_c, 5, 62, 0
7, 162432, Note_on_c, 5, 60, 89
7, 162588, Note_on_c, 5, 60, 0
7, 162624, Note_on_c, 5, 62, 89
7, 162780, Note_on_c, 5, 62, 0
7, 162816, Note_on_c, 5, 60, 89
7, 162972, Note_on_c, 5, 60, 0
7, 163008, Note_on_c, 5, 62, 89
7, 163176, Note_on_c, 5, 62, 0
7, 163200, Note_on_c, 5, 60, 89
7, 163368, Note_on_c, 5, 60, 0
7, 163392, Note_on_c, 5, 55, 89
7, 163540, Note_on_c, 5, 55, 0
7, 163584, Note_on_c, 5, 48, 91
7, 163653, Control_c, 5, 11, 127
7, 163697, Control_c, 5, 11, 126
7, 163706, Control_c, 5, 11, 123
7, 163714, Control_c, 5, 11, 124
7, 163723, Control_c, 5, 11, 115
7, 163732, Control_c, 5, 11, 120
7, 163749, Control_c, 5, 11, 112
7, 163758, Control_c, 5, 11, 117
7, 163767, Control_c, 5, 11, 115
7, 163776, Control_c, 5, 11, 110
7, 163784, Control_c, 5, 11, 112
7, 163793, Control_c, 5, 11, 111
7, 163802, Control_c, 5, 11, 109
7, 163819, Control_c, 5, 11, 106
7, 163828, Control_c, 5, 11, 109
7, 163837, Control_c, 5, 11, 103
7, 163845, Control_c, 5, 11, 102
7, 163854, Control_c, 5, 11, 107
7, 164294, Note_on_c, 5, 48, 0
7, 164352, Note_on_c, 5, 43, 82
7, 164360, Control_c, 5, 11, 125
7, 164421, Control_c, 5, 11, 124
7, 164439, Control_c, 5, 11, 123
7, 164448, Control_c, 5, 11, 118
7, 164465, Control_c, 5, 11, 115
7, 164491, Control_c, 5, 11, 112
7, 164500, Control_c, 5, 11, 109
7, 164517, Control_c, 5, 11, 105
7, 164544, Control_c, 5, 11, 103
7, 164570, Control_c, 5, 11, 102
7, 164578, Control_c, 5, 11, 99
7, 164605, Control_c, 5, 11, 97
7, 164678, Note_on_c, 5, 43, 0
7, 164727, Control_c, 5, 11, 127
7, 164736, Note_on_c, 5, 43, 82
7, 164779, Control_c, 5, 11, 127
7, 164788, Control_c, 5, 11, 126
7, 164805, Control_c, 5, 11, 121
7, 164814, Control_c, 5, 11, 118
7, 164832, Control_c, 5, 11, 116
7, 164840, Control_c, 5, 11, 113
7, 164858, Control_c, 5, 11, 112
7, 164866, Control_c, 5, 11, 110
7, 164884, Control_c, 5, 11, 109
7, 164893, Control_c, 5, 11, 106
7, 164919, Control_c, 5, 11, 104
7, 164936, Control_c, 5, 11, 101
7, 164971, Control_c, 5, 11, 100
7, 164989, Control_c, 5, 11, 98
7, 165015, Control_c, 5, 11, 97
7, 165062, Note_on_c, 5, 43, 0
7, 165120, Note_on_c, 5, 43, 82
7, 165128, Control_c, 5, 11, 127
7, 165181, Control_c, 5, 11, 125
7, 165198, Control_c, 5, 11, 122
7, 165207, Control_c, 5, 11, 121
7, 165233, Control_c, 5, 11, 119
7, 165250, Control_c, 5, 11, 116
7, 165259, Control_c, 5, 11, 113
7, 165285, Control_c, 5, 11, 110
7, 165303, Control_c, 5, 11, 109
7, 165329, Control_c, 5, 11, 106
7, 165338, Control_c, 5, 11, 104
7, 165355, Control_c, 5, 11, 103
7, 165381, Control_c, 5, 11, 101
7, 165434, Control_c, 5, 11, 102
7, 165452, Control_c, 5, 11, 101
7, 165461, Control_c, 5, 11, 100
7, 165478, Control_c, 5, 11, 99
7, 165487, Control_c, 5, 11, 98
7, 165504, Control_c, 5, 11, 97
7, 165513, Control_c, 5, 11, 96
7, 165530, Control_c, 5, 11, 95
7, 165539, Control_c, 5, 11, 94
7, 165557, Control_c, 5, 11, 93
7, 165565, Control_c, 5, 11, 92
7, 165583, Control_c, 5, 11, 91
7, 165592, Control_c, 5, 11, 90
7, 165609, Control_c, 5, 11, 89
7, 165618, Control_c, 5, 11, 88
7, 165626, Control_c, 5, 11, 87
7, 165814, Note_on_c, 5, 43, 0
7, 165888, Control_c, 5, 11, 123
7, 165888, Note_on_c, 5, 48, 82
7, 165905, Control_c, 5, 11, 126
7, 165914, Control_c, 5, 11, 127
7, 166066, Note_on_c, 5, 48, 0
7, 166656, Note_on_c, 5, 55, 91
7, 166990, Note_on_c, 5, 55, 0
7, 167040, Note_on_c, 5, 55, 91
7, 167172, Note_on_c, 5, 55, 0
7, 167232, Note_on_c, 5, 55, 91
7, 167364, Note_on_c, 5, 55, 0
7, 167424, Note_on_c, 5, 62, 91
7, 167616, Note_on_c, 5, 62, 0
7, 167616, Note_on_c, 5, 64, 91
7, 167808, Note_on_c, 5, 64, 0
7, 167808, Note_on_c, 5, 62, 91
7, 168000, Note_on_c, 5, 62, 0
7, 168000, Note_on_c, 5, 64, 91
7, 168168, Note_on_c, 5, 64, 0
7, 168192, Note_on_c, 5, 62, 91
7, 168576, Note_on_c, 5, 62, 0
7, 168576, Note_on_c, 5, 60, 91
7, 168768, Note_on_c, 5, 60, 0
7, 168768, Note_on_c, 5, 62, 91
7, 168932, Note_on_c, 5, 62, 0
7, 168960, Note_on_c, 5, 60, 91
7, 169152, Note_on_c, 5, 60, 0
7, 169152, Note_on_c, 5, 62, 91
7, 169344, Note_on_c, 5, 62, 0
7, 169344, Note_on_c, 5, 60, 91
7, 169536, Note_on_c, 5, 60, 0
7, 169536, Note_on_c, 5, 55, 91
7, 169692, Note_on_c, 5, 55, 0
7, 169728, Note_on_c, 5, 52, 91
7, 169771, Control_c, 5, 11, 125
7, 169797, Control_c, 5, 11, 123
7, 169806, Control_c, 5, 11, 120
7, 169824, Control_c, 5, 11, 117
7, 169832, Control_c, 5, 11, 114
7, 169850, Control_c, 5, 11, 113
7, 169885, Control_c, 5, 11, 111
7, 169902, Control_c, 5, 11, 110
7, 169937, Control_c, 5, 11, 108
7, 169963, Control_c, 5, 11, 107
7, 170085, Control_c, 5, 11, 108
7, 170146, Control_c, 5, 11, 109
7, 170190, Control_c, 5, 11, 111
7, 170242, Control_c, 5, 11, 112
7, 170269, Control_c, 5, 11, 114
7, 170295, Control_c, 5, 11, 117
7, 170321, Control_c, 5, 11, 118
7, 170373, Control_c, 5, 11, 120
7, 170400, Control_c, 5, 11, 121
7, 170408, Control_c, 5, 11, 123
7, 170434, Note_on_c, 5, 52, 0
7, 170434, Control_c, 5, 11, 124
7, 170478, Control_c, 5, 11, 127
7, 170496, Note_on_c, 5, 48, 92
7, 170600, Control_c, 5, 11, 119
7, 170609, Control_c, 5, 11, 114
7, 170618, Control_c, 5, 11, 113
7, 170635, Control_c, 5, 11, 111
7, 170644, Control_c, 5, 11, 110
7, 170661, Control_c, 5, 11, 108
7, 170670, Control_c, 5, 11, 107
7, 170696, Control_c, 5, 11, 105
7, 170749, Control_c, 5, 11, 104
7, 170766, Control_c, 5, 11, 102
7, 170792, Control_c, 5, 11, 101
7, 170810, Control_c, 5, 11, 102
7, 171499, Control_c, 5, 11, 101
7, 172180, Control_c, 5, 11, 100
7, 172750, Note_on_c, 5, 48, 0
7, 172800, Note_on_c, 5, 48, 95
7, 172861, Control_c, 5, 11, 99
7, 173550, Control_c, 5, 11, 98
7, 174231, Control_c, 5, 11, 97
7, 174912, Control_c, 5, 11, 96
7, 175054, Note_on_c, 5, 48, 0
7, 175104, Note_on_c, 5, 48, 84
7, 175104, Control_c, 5, 11, 126
7, 175238, Note_on_c, 5, 48, 0
7, 175296, Note_on_c, 5, 52, 85
7, 175430, Note_on_c, 5, 52, 0
7, 175488, Note_on_c, 5, 52, 86
7, 175622, Note_on_c, 5, 52, 0
7, 175680, Note_on_c, 5, 52, 88
7, 175814, Note_on_c, 5, 52, 0
7, 175872, Note_on_c, 5, 52, 89
7, 176006, Note_on_c, 5, 52, 0
7, 178909, Control_c, 5, 11, 127
7, 178944, Note_on_c, 5, 48, 103
7, 182424, Note_on_c, 5, 48, 0
7, 182688, Control_c, 5, 11, 126
7, 182736, Note_on_c, 5, 48, 116
7, 182764, Note_on_c, 5, 48, 0
7, 182784, Control_c, 5, 11, 116
7, 182784, Note_on_c, 5, 48, 116
7, 182797, Control_c, 5, 11, 119
7, 182805, Control_c, 5, 11, 120
7, 182810, Control_c, 5, 11, 122
7, 182823, Control_c, 5, 11, 123
7, 182832, Control_c, 5, 11, 127
7, 182871, Control_c, 5, 11, 124
7, 182875, Control_c, 5, 11, 122
7, 182884, Control_c, 5, 11, 121
7, 182888, Control_c, 5, 11, 119
7, 182901, Control_c, 5, 11, 118
7, 182928, Control_c, 5, 11, 116
7, 182936, Control_c, 5, 11, 115
7, 182941, Control_c, 5, 11, 113
7, 182949, Control_c, 5, 11, 112
7, 182954, Control_c, 5, 11, 110
7, 182962, Control_c, 5, 11, 109
7, 182976, Control_c, 5, 11, 107
7, 182993, Control_c, 5, 11, 106
7, 183006, Control_c, 5, 11, 104
7, 183041, Control_c, 5, 11, 103
7, 183054, Control_c, 5, 11, 101
7, 183184, Note_on_c, 5, 48, 0
7, 183525, Control_c, 5, 11, 114
7, 183552, Note_on_c, 5, 48, 103
7, 183666, Note_on_c, 5, 48, 0
7, 183744, Note_on_c, 5, 48, 103
7, 183832, Note_on_c, 5, 48, 0
7, 183890, Note_on_c, 5, 48, 103
7, 183918, Note_on_c, 5, 48, 0
7, 183936, Note_on_c, 5, 48, 103
7, 184044, Note_on_c, 5, 48, 0
7, 184128, Note_on_c, 5, 48, 103
7, 184236, Note_on_c, 5, 48, 0
7, 184320, Note_on_c, 5, 43, 103
7, 184424, Note_on_c, 5, 43, 0
7, 184512, Note_on_c, 5, 43, 103
7, 184616, Note_on_c, 5, 43, 0
7, 186624, Note_on_c, 5, 48, 103
7, 186744, Note_on_c, 5, 48, 0
7, 186816, Note_on_c, 5, 48, 103
7, 186916, Note_on_c, 5, 48, 0
7, 186960, Note_on_c, 5, 48, 103
7, 186990, Note_on_c, 5, 48, 0
7, 187008, Note_on_c, 5, 48, 103
7, 187128, Note_on_c, 5, 48, 0
7, 187200, Note_on_c, 5, 48, 103
7, 187320, Note_on_c, 5, 48, 0
7, 187378, Control_c, 5, 11, 121
7, 187392, Note_on_c, 5, 48, 103
7, 187396, Control_c, 5, 11, 123
7, 187405, Control_c, 5, 11, 126
7, 187409, Control_c, 5, 11, 127
7, 187457, Control_c, 5, 11, 125
7, 187461, Control_c, 5, 11, 120
7, 187474, Control_c, 5, 11, 116
7, 187483, Control_c, 5, 11, 111
7, 187488, Control_c, 5, 11, 108
7, 187501, Control_c, 5, 11, 107
7, 187509, Control_c, 5, 11, 105
7, 187514, Control_c, 5, 11, 104
7, 187536, Control_c, 5, 11, 102
7, 187952, Note_on_c, 5, 48, 0
7, 188160, Note_on_c, 5, 48, 54
7, 188288, Note_on_c, 5, 48, 0
7, 188352, Note_on_c, 5, 48, 54
7, 188464, Note_on_c, 5, 48, 0
7, 188496, Note_on_c, 5, 48, 54
7, 188526, Note_on_c, 5, 48, 0
7, 188544, Note_on_c, 5, 48, 54
7, 188672, Note_on_c, 5, 48, 0
7, 188736, Note_on_c, 5, 48, 54
7, 188864, Note_on_c, 5, 48, 0
7, 188928, Note_on_c, 5, 48, 54
7, 188930, Control_c, 5, 11, 103
7, 188936, Control_c, 5, 11, 104
7, 188947, Control_c, 5, 11, 106
7, 188952, Control_c, 5, 11, 107
7, 188969, Control_c, 5, 11, 109
7, 188996, Control_c, 5, 11, 110
7, 189018, Control_c, 5, 11, 113
7, 189084, Control_c, 5, 11, 115
7, 189144, Control_c, 5, 11, 114
7, 189177, Control_c, 5, 11, 112
7, 189194, Control_c, 5, 11, 111
7, 189199, Control_c, 5, 11, 109
7, 189248, Control_c, 5, 11, 108
7, 189265, Control_c, 5, 11, 106
7, 189281, Control_c, 5, 11, 105
7, 189325, Control_c, 5, 11, 99
7, 189342, Control_c, 5, 11, 97
7, 189347, Control_c, 5, 11, 96
7, 189358, Control_c, 5, 11, 94
7, 189375, Control_c, 5, 11, 93
7, 189380, Control_c, 5, 11, 91
7, 189391, Control_c, 5, 11, 90
7, 189407, Control_c, 5, 11, 88
7, 189413, Control_c, 5, 11, 87
7, 189429, Control_c, 5, 11, 85
7, 189446, Control_c, 5, 11, 84
7, 189457, Control_c, 5, 11, 81
7, 189462, Control_c, 5, 11, 76
7, 189469, Note_on_c, 5, 48, 0
7, 189479, Control_c, 5, 11, 72
7, 189490, Control_c, 5, 11, 69
7, 189495, Control_c, 5, 11, 66
7, 189696, Control_c, 5, 11, 120
7, 189696, Note_on_c, 5, 60, 103
7, 189714, Control_c, 5, 11, 119
7, 189722, Control_c, 5, 11, 118
7, 189731, Control_c, 5, 11, 117
7, 189749, Control_c, 5, 11, 116
7, 189757, Control_c, 5, 11, 115
7, 189766, Control_c, 5, 11, 114
7, 189784, Control_c, 5, 11, 113
7, 189792, Control_c, 5, 11, 112
7, 189801, Control_c, 5, 11, 111
7, 189810, Control_c, 5, 11, 110
7, 189862, Control_c, 5, 11, 111
7, 189906, Control_c, 5, 11, 112
7, 189949, Control_c, 5, 11, 113
7, 189993, Control_c, 5, 11, 114
7, 190037, Control_c, 5, 11, 115
7, 190080, Control_c, 5, 11, 116
7, 190124, Control_c, 5, 11, 117
7, 190168, Control_c, 5, 11, 118
7, 190220, Control_c, 5, 11, 119
7, 190264, Control_c, 5, 11, 120
7, 190307, Control_c, 5, 11, 121
7, 190351, Control_c, 5, 11, 122
7, 190394, Control_c, 5, 11, 123
7, 190438, Control_c, 5, 11, 124
7, 190482, Control_c, 5, 11, 125
7, 190525, Control_c, 5, 11, 126
7, 190569, Control_c, 5, 11, 127
7, 190824, Note_on_c, 5, 60, 0
7, 190848, Note_on_c, 5, 59, 103
7, 191182, Note_on_c, 5, 59, 0
7, 191232, Note_on_c, 5, 52, 103
7, 191388, Note_on_c, 5, 52, 0
7, 192716, Control_c, 5, 11, 127
7, 192768, Note_on_c, 5, 52, 118
7, 192932, Note_on_c, 5, 52, 0
7, 192960, Note_on_c, 5, 64, 124
7, 193060, Note_on_c, 5, 64, 0
7, 193104, Note_on_c, 5, 64, 124
7, 193132, Note_on_c, 5, 64, 0
7, 193152, Note_on_c, 5, 62, 124
7, 193308, Note_on_c, 5, 62, 0
7, 193344, Note_on_c, 5, 62, 124
7, 193500, Note_on_c, 5, 62, 0
7, 193536, Note_on_c, 5, 60, 124
7, 193692, Note_on_c, 5, 60, 0
7, 193728, Note_on_c, 5, 60, 124
7, 193828, Note_on_c, 5, 60, 0
7, 193872, Note_on_c, 5, 60, 124
7, 193900, Note_on_c, 5, 60, 0
7, 193920, Note_on_c, 5, 55, 124
7, 194076, Note_on_c, 5, 55, 0
7, 194112, Note_on_c, 5, 55, 121
7, 194268, Note_on_c, 5, 55, 0
7, 194304, Note_on_c, 5, 48, 119
7, 194362, Control_c, 5, 11, 126
7, 194370, Control_c, 5, 11, 123
7, 194388, Control_c, 5, 11, 118
7, 194397, Control_c, 5, 11, 115
7, 194423, Control_c, 5, 11, 112
7, 194440, Control_c, 5, 11, 111
7, 194466, Control_c, 5, 11, 108
7, 194475, Control_c, 5, 11, 106
7, 194493, Control_c, 5, 11, 105
7, 194528, Control_c, 5, 11, 99
7, 195060, Control_c, 5, 11, 98
7, 195592, Control_c, 5, 11, 97
7, 197532, Note_on_c, 5, 48, 0
7, 197748, Control_c, 5, 11, 127
7, 197760, Note_on_c, 5, 48, 127
7, 197852, Note_on_c, 5, 48, 0
7, 197907, Note_on_c, 5, 48, 127
7, 197935, Note_on_c, 5, 48, 0
7, 197952, Note_on_c, 5, 52, 127
7, 198044, Note_on_c, 5, 52, 0
7, 198099, Note_on_c, 5, 52, 127
7, 198127, Note_on_c, 5, 52, 0
7, 198144, Note_on_c, 5, 55, 127
7, 198299, Note_on_c, 5, 55, 0
7, 198528, Note_on_c, 5, 52, 127
7, 198620, Note_on_c, 5, 52, 0
7, 198675, Note_on_c, 5, 52, 127
7, 198703, Note_on_c, 5, 52, 0
7, 198720, Note_on_c, 5, 55, 127
7, 198812, Note_on_c, 5, 55, 0
7, 198867, Note_on_c, 5, 55, 127
7, 198895, Note_on_c, 5, 55, 0
7, 198912, Note_on_c, 5, 60, 127
7, 199067, Note_on_c, 5, 60, 0
7, 199296, Note_on_c, 5, 43, 103
7, 199398, Note_on_c, 5, 43, 0
7, 199488, Note_on_c, 5, 48, 103
7, 199590, Note_on_c, 5, 48, 0
7, 199680, Note_on_c, 5, 52, 103
7, 199828, Note_on_c, 5, 52, 0
7, 200064, Note_on_c, 5, 48, 103
7, 200156, Note_on_c, 5, 48, 0
7, 200256, Note_on_c, 5, 52, 103
7, 200348, Note_on_c, 5, 52, 0
7, 200448, Note_on_c, 5, 55, 103
7, 200779, Note_on_c, 5, 55, 0
7, 200832, Note_on_c, 5, 64, 127
7, 200948, Note_on_c, 5, 64, 0
7, 201024, Note_on_c, 5, 60, 127
7, 201141, Note_on_c, 5, 60, 0
7, 201216, Note_on_c, 5, 55, 127
7, 201333, Note_on_c, 5, 55, 0
7, 201408, Note_on_c, 5, 60, 127
7, 201525, Note_on_c, 5, 60, 0
7, 201600, Note_on_c, 5, 52, 127
7, 201717, Note_on_c, 5, 52, 0
7, 201792, Note_on_c, 5, 55, 127
7, 201909, Note_on_c, 5, 55, 0
7, 201984, Note_on_c, 5, 48, 127
7, 202296, Note_on_c, 5, 48, 0
7, 202368, Note_on_c, 5, 48, 127
7, 202594, Note_on_c, 5, 48, 0
7, 202656, Note_on_c, 5, 48, 127
7, 202716, Note_on_c, 5, 48, 0
7, 202752, Note_on_c, 5, 48, 127
7, 203126, Note_on_c, 5, 48, 0
7, 204864, Control_c, 5, 121, 0
7, 204864, End_track
8, 0, Start_track
8, 0, MIDI_port, 0
8, 0, Title_t, "Trumpet 1"
8, 0, Program_c, 6, 56
8, 0, Control_c, 6, 7, 108
8, 0, Control_c, 6, 10, 45
8, 0, Text_t, ""
8, 96, Control_c, 6, 121, 0
8, 192, Control_c, 6, 93, 7
8, 288, Control_c, 6, 91, 54
8, 768, Note_on_c, 6, 72, 108
8, 1176, Note_on_c, 6, 72, 0
8, 1488, Note_on_c, 6, 60, 118
8, 1518, Note_on_c, 6, 60, 0
8, 1536, Note_on_c, 6, 60, 118
8, 1944, Note_on_c, 6, 60, 0
8, 2304, Note_on_c, 6, 72, 108
8, 2416, Note_on_c, 6, 72, 0
8, 2496, Note_on_c, 6, 72, 108
8, 2579, Note_on_c, 6, 72, 0
8, 2644, Note_on_c, 6, 72, 108
8, 2670, Note_on_c, 6, 72, 0
8, 2688, Note_on_c, 6, 72, 108
8, 2784, Note_on_c, 6, 72, 0
8, 2880, Note_on_c, 6, 72, 108
8, 2976, Note_on_c, 6, 72, 0
8, 3072, Note_on_c, 6, 67, 108
8, 3169, Note_on_c, 6, 67, 0
8, 3264, Note_on_c, 6, 67, 108
8, 3359, Note_on_c, 6, 67, 0
8, 5339, Control_c, 6, 11, 120
8, 5376, Note_on_c, 6, 72, 103
8, 5488, Note_on_c, 6, 72, 0
8, 5568, Note_on_c, 6, 72, 103
8, 5656, Note_on_c, 6, 72, 0
8, 5717, Note_on_c, 6, 72, 103
8, 5743, Note_on_c, 6, 72, 0
8, 5760, Note_on_c, 6, 72, 103
8, 5862, Note_on_c, 6, 72, 0
8, 5952, Note_on_c, 6, 72, 103
8, 6054, Note_on_c, 6, 72, 0
8, 6133, Control_c, 6, 11, 114
8, 6137, Control_c, 6, 11, 118
8, 6142, Control_c, 6, 11, 120
8, 6144, Note_on_c, 6, 72, 103
8, 6150, Control_c, 6, 11, 123
8, 6155, Control_c, 6, 11, 124
8, 6164, Control_c, 6, 11, 126
8, 6168, Control_c, 6, 11, 127
8, 6207, Control_c, 6, 11, 125
8, 6216, Control_c, 6, 11, 122
8, 6220, Control_c, 6, 11, 120
8, 6229, Control_c, 6, 11, 117
8, 6233, Control_c, 6, 11, 114
8, 6242, Control_c, 6, 11, 111
8, 6246, Control_c, 6, 11, 110
8, 6260, Control_c, 6, 11, 107
8, 6273, Control_c, 6, 11, 105
8, 6281, Control_c, 6, 11, 104
8, 6286, Control_c, 6, 11, 102
8, 6294, Control_c, 6, 11, 101
8, 6299, Control_c, 6, 11, 99
8, 6543, Control_c, 6, 11, 99
8, 6569, Control_c, 6, 11, 98
8, 6582, Control_c, 6, 11, 96
8, 6609, Control_c, 6, 11, 95
8, 6613, Control_c, 6, 11, 93
8, 6622, Control_c, 6, 11, 92
8, 6635, Control_c, 6, 11, 90
8, 6652, Control_c, 6, 11, 89
8, 6667, Note_on_c, 6, 72, 0
8, 6888, Control_c, 6, 11, 120
8, 6912, Note_on_c, 6, 67, 116
8, 7020, Note_on_c, 6, 67, 0
8, 7104, Note_on_c, 6, 67, 116
8, 7192, Note_on_c, 6, 67, 0
8, 7253, Note_on_c, 6, 67, 116
8, 7278, Note_on_c, 6, 67, 0
8, 7296, Note_on_c, 6, 67, 116
8, 7396, Note_on_c, 6, 67, 0
8, 7488, Note_on_c, 6, 67, 116
8, 7588, Note_on_c, 6, 67, 0
8, 7680, Note_on_c, 6, 72, 103
8, 7772, Note_on_c, 6, 72, 0
8, 7872, Note_on_c, 6, 76, 103
8, 7962, Note_on_c, 6, 76, 0
8, 8064, Note_on_c, 6, 79, 103
8, 8154, Note_on_c, 6, 79, 0
8, 8421, Control_c, 6, 11, 123
8, 8448, Note_on_c, 6, 72, 103
8, 8552, Note_on_c, 6, 72, 0
8, 8640, Note_on_c, 6, 72, 103
8, 8728, Note_on_c, 6, 72, 0
8, 8789, Note_on_c, 6, 72, 103
8, 8815, Note_on_c, 6, 72, 0
8, 8832, Note_on_c, 6, 72, 103
8, 8930, Note_on_c, 6, 72, 0
8, 9024, Note_on_c, 6, 72, 103
8, 9122, Note_on_c, 6, 72, 0
8, 9216, Control_c, 6, 11, 117
8, 9216, Note_on_c, 6, 72, 103
8, 9233, Control_c, 6, 11, 121
8, 9237, Control_c, 6, 11, 123
8, 9250, Control_c, 6, 11, 124
8, 9259, Control_c, 6, 11, 126
8, 9272, Control_c, 6, 11, 127
8, 9290, Control_c, 6, 11, 126
8, 9298, Control_c, 6, 11, 125
8, 9303, Control_c, 6, 11, 122
8, 9312, Control_c, 6, 11, 120
8, 9316, Control_c, 6, 11, 114
8, 9325, Control_c, 6, 11, 111
8, 9329, Control_c, 6, 11, 110
8, 9342, Control_c, 6, 11, 104
8, 9355, Control_c, 6, 11, 102
8, 9364, Control_c, 6, 11, 101
8, 9368, Control_c, 6, 11, 99
8, 9377, Control_c, 6, 11, 98
8, 9390, Control_c, 6, 11, 96
8, 9730, Control_c, 6, 11, 96
8, 9739, Control_c, 6, 11, 95
8, 9744, Control_c, 6, 11, 94
8, 9752, Control_c, 6, 11, 93
8, 9757, Control_c, 6, 11, 92
8, 9765, Control_c, 6, 11, 91
8, 9766, Note_on_c, 6, 72, 0
8, 9770, Control_c, 6, 11, 90
8, 12091, Control_c, 6, 11, 101
8, 12096, Note_on_c, 6, 67, 68
8, 12100, Control_c, 6, 11, 102
8, 12104, Control_c, 6, 11, 103
8, 12113, Control_c, 6, 11, 104
8, 12117, Control_c, 6, 11, 105
8, 12126, Control_c, 6, 11, 106
8, 12130, Control_c, 6, 11, 107
8, 12139, Control_c, 6, 11, 108
8, 12144, Control_c, 6, 11, 109
8, 12152, Control_c, 6, 11, 110
8, 12157, Control_c, 6, 11, 111
8, 12165, Control_c, 6, 11, 112
8, 12170, Control_c, 6, 11, 113
8, 12178, Control_c, 6, 11, 114
8, 12183, Control_c, 6, 11, 115
8, 12192, Control_c, 6, 11, 116
8, 12196, Control_c, 6, 11, 117
8, 12205, Control_c, 6, 11, 118
8, 12209, Control_c, 6, 11, 119
8, 12218, Control_c, 6, 11, 120
8, 12222, Control_c, 6, 11, 121
8, 12223, Note_on_c, 6, 67, 0
8, 12231, Control_c, 6, 11, 122
8, 12235, Control_c, 6, 11, 123
8, 12244, Control_c, 6, 11, 124
8, 12248, Control_c, 6, 11, 125
8, 12257, Control_c, 6, 11, 126
8, 12261, Control_c, 6, 11, 127
8, 12288, Note_on_c, 6, 72, 71
8, 12422, Note_on_c, 6, 72, 0
8, 12480, Note_on_c, 6, 72, 71
8, 12572, Note_on_c, 6, 72, 0
8, 12627, Note_on_c, 6, 72, 70
8, 12655, Note_on_c, 6, 72, 0
8, 12672, Note_on_c, 6, 74, 70
8, 12800, Note_on_c, 6, 74, 0
8, 12864, Note_on_c, 6, 74, 69
8, 12992, Note_on_c, 6, 74, 0
8, 13056, Note_on_c, 6, 76, 68
8, 13212, Note_on_c, 6, 76, 0
8, 13632, Note_on_c, 6, 67, 74
8, 13756, Note_on_c, 6, 67, 0
8, 13824, Note_on_c, 6, 72, 73
8, 13958, Note_on_c, 6, 72, 0
8, 14016, Note_on_c, 6, 72, 82
8, 14108, Note_on_c, 6, 72, 0
8, 14162, Note_on_c, 6, 72, 88
8, 14192, Note_on_c, 6, 72, 0
8, 14208, Note_on_c, 6, 74, 90
8, 14332, Note_on_c, 6, 74, 0
8, 14400, Note_on_c, 6, 74, 99
8, 14526, Note_on_c, 6, 74, 0
8, 14592, Note_on_c, 6, 76, 107
8, 14722, Note_on_c, 6, 76, 0
8, 14784, Note_on_c, 6, 76, 109
8, 14868, Note_on_c, 6, 76, 0
8, 14930, Note_on_c, 6, 76, 107
8, 14958, Note_on_c, 6, 76, 0
8, 14976, Note_on_c, 6, 74, 107
8, 15098, Note_on_c, 6, 74, 0
8, 15168, Note_on_c, 6, 74, 107
8, 15290, Note_on_c, 6, 74, 0
8, 15360, Note_on_c, 6, 72, 107
8, 15538, Note_on_c, 6, 72, 0
8, 16128, Note_on_c, 6, 72, 103
8, 16250, Note_on_c, 6, 72, 0
8, 16320, Note_on_c, 6, 72, 103
8, 16408, Note_on_c, 6, 72, 0
8, 16467, Note_on_c, 6, 72, 103
8, 16491, Note_on_c, 6, 72, 0
8, 16512, Note_on_c, 6, 72, 103
8, 16624, Note_on_c, 6, 72, 0
8, 16704, Note_on_c, 6, 72, 103
8, 16816, Note_on_c, 6, 72, 0
8, 16896, Note_on_c, 6, 72, 103
8, 17062, Note_on_c, 6, 72, 0
8, 17664, Note_on_c, 6, 72, 103
8, 17786, Note_on_c, 6, 72, 0
8, 17856, Note_on_c, 6, 72, 103
8, 17944, Note_on_c, 6, 72, 0
8, 18003, Note_on_c, 6, 72, 103
8, 18027, Note_on_c, 6, 72, 0
8, 18048, Note_on_c, 6, 72, 103
8, 18160, Note_on_c, 6, 72, 0
8, 18240, Note_on_c, 6, 72, 103
8, 18352, Note_on_c, 6, 72, 0
8, 18432, Note_on_c, 6, 67, 103
8, 18588, Note_on_c, 6, 67, 0
8, 19200, Note_on_c, 6, 74, 103
8, 19328, Note_on_c, 6, 74, 0
8, 19392, Note_on_c, 6, 74, 103
8, 19481, Note_on_c, 6, 74, 0
8, 19539, Note_on_c, 6, 74, 103
8, 19565, Note_on_c, 6, 74, 0
8, 19584, Note_on_c, 6, 74, 103
8, 19696, Note_on_c, 6, 74, 0
8, 19776, Note_on_c, 6, 74, 103
8, 19888, Note_on_c, 6, 74, 0
8, 19968, Note_on_c, 6, 74, 116
8, 20134, Note_on_c, 6, 74, 0
8, 20736, Note_on_c, 6, 74, 88
8, 20741, Control_c, 6, 11, 127
8, 20763, Control_c, 6, 11, 126
8, 20779, Control_c, 6, 11, 125
8, 20829, Control_c, 6, 11, 122
8, 20845, Control_c, 6, 11, 120
8, 20862, Control_c, 6, 11, 117
8, 20889, Control_c, 6, 11, 114
8, 20906, Control_c, 6, 11, 113
8, 20911, Control_c, 6, 11, 111
8, 20922, Control_c, 6, 11, 110
8, 20928, Control_c, 6, 11, 108
8, 20938, Control_c, 6, 11, 107
8, 20955, Control_c, 6, 11, 105
8, 20960, Control_c, 6, 11, 104
8, 20977, Control_c, 6, 11, 101
8, 20993, Control_c, 6, 11, 99
8, 21004, Control_c, 6, 11, 98
8, 21010, Control_c, 6, 11, 95
8, 22217, Note_on_c, 6, 74, 0
8, 22272, Note_on_c, 6, 74, 82
8, 22272, Control_c, 6, 11, 117
8, 22288, Control_c, 6, 11, 120
8, 22293, Control_c, 6, 11, 121
8, 22304, Control_c, 6, 11, 127
8, 22348, Control_c, 6, 11, 125
8, 22359, Control_c, 6, 11, 123
8, 22381, Control_c, 6, 11, 122
8, 22392, Control_c, 6, 11, 120
8, 22409, Control_c, 6, 11, 119
8, 22414, Control_c, 6, 11, 117
8, 22425, Control_c, 6, 11, 116
8, 22431, Control_c, 6, 11, 114
8, 22442, Control_c, 6, 11, 113
8, 22464, Control_c, 6, 11, 111
8, 22474, Control_c, 6, 11, 110
8, 22480, Control_c, 6, 11, 108
8, 22496, Control_c, 6, 11, 107
8, 22507, Control_c, 6, 11, 105
8, 22513, Control_c, 6, 11, 104
8, 22546, Control_c, 6, 11, 102
8, 22557, Control_c, 6, 11, 101
8, 22573, Control_c, 6, 11, 99
8, 22579, Control_c, 6, 11, 98
8, 23752, Note_on_c, 6, 74, 0
8, 23808, Note_on_c, 6, 79, 82
8, 23818, Control_c, 6, 11, 118
8, 23824, Control_c, 6, 11, 120
8, 23829, Control_c, 6, 11, 123
8, 23840, Control_c, 6, 11, 126
8, 23846, Control_c, 6, 11, 127
8, 23879, Control_c, 6, 11, 126
8, 23890, Control_c, 6, 11, 123
8, 23906, Control_c, 6, 11, 122
8, 23912, Control_c, 6, 11, 120
8, 23923, Control_c, 6, 11, 117
8, 23928, Control_c, 6, 11, 116
8, 23939, Control_c, 6, 11, 114
8, 23956, Control_c, 6, 11, 111
8, 23978, Control_c, 6, 11, 108
8, 23989, Control_c, 6, 11, 107
8, 24010, Control_c, 6, 11, 105
8, 24027, Control_c, 6, 11, 104
8, 24043, Control_c, 6, 11, 102
8, 24060, Control_c, 6, 11, 101
8, 24104, Control_c, 6, 11, 99
8, 24126, Control_c, 6, 11, 98
8, 24524, Note_on_c, 6, 79, 0
8, 24576, Note_on_c, 6, 74, 103
8, 24576, Control_c, 6, 11, 114
8, 24597, Control_c, 6, 11, 117
8, 24603, Control_c, 6, 11, 120
8, 24614, Control_c, 6, 11, 123
8, 24619, Control_c, 6, 11, 126
8, 24647, Control_c, 6, 11, 125
8, 24652, Control_c, 6, 11, 120
8, 24669, Control_c, 6, 11, 116
8, 24680, Control_c, 6, 11, 111
8, 24696, Control_c, 6, 11, 108
8, 24713, Control_c, 6, 11, 105
8, 24718, Control_c, 6, 11, 104
8, 24729, Control_c, 6, 11, 101
8, 24735, Control_c, 6, 11, 99
8, 24746, Control_c, 6, 11, 96
8, 24784, Control_c, 6, 11, 95
8, 24883, Control_c, 6, 11, 96
8, 24960, Control_c, 6, 11, 97
8, 24998, Control_c, 6, 11, 99
8, 25025, Control_c, 6, 11, 100
8, 25047, Control_c, 6, 11, 102
8, 25091, Control_c, 6, 11, 103
8, 25113, Control_c, 6, 11, 105
8, 25146, Control_c, 6, 11, 106
8, 25162, Control_c, 6, 11, 108
8, 25179, Control_c, 6, 11, 109
8, 25190, Control_c, 6, 11, 112
8, 25292, Note_on_c, 6, 74, 0
8, 25344, Control_c, 6, 11, 120
8, 25344, Note_on_c, 6, 79, 82
8, 25360, Control_c, 6, 11, 123
8, 25371, Control_c, 6, 11, 124
8, 25376, Control_c, 6, 11, 127
8, 25409, Control_c, 6, 11, 125
8, 25420, Control_c, 6, 11, 123
8, 25426, Control_c, 6, 11, 122
8, 25437, Control_c, 6, 11, 119
8, 25442, Control_c, 6, 11, 117
8, 25453, Control_c, 6, 11, 116
8, 25459, Control_c, 6, 11, 113
8, 25470, Control_c, 6, 11, 111
8, 25475, Control_c, 6, 11, 108
8, 25492, Control_c, 6, 11, 107
8, 25508, Control_c, 6, 11, 105
8, 25525, Control_c, 6, 11, 104
8, 25552, Control_c, 6, 11, 102
8, 25568, Control_c, 6, 11, 101
8, 25607, Control_c, 6, 11, 99
8, 25618, Control_c, 6, 11, 98
8, 25645, Control_c, 6, 11, 96
8, 25717, Control_c, 6, 11, 97
8, 25771, Control_c, 6, 11, 100
8, 25804, Control_c, 6, 11, 102
8, 25832, Control_c, 6, 11, 103
8, 25837, Control_c, 6, 11, 105
8, 25887, Control_c, 6, 11, 106
8, 25903, Control_c, 6, 11, 108
8, 25914, Control_c, 6, 11, 109
8, 25969, Control_c, 6, 11, 111
8, 26002, Control_c, 6, 11, 112
8, 26035, Control_c, 6, 11, 114
8, 26046, Control_c, 6, 11, 115
8, 26058, Note_on_c, 6, 79, 0
8, 26062, Control_c, 6, 11, 117
8, 26068, Control_c, 6, 11, 118
8, 26084, Control_c, 6, 11, 120
8, 26095, Control_c, 6, 11, 123
8, 26101, Control_c, 6, 11, 124
8, 26112, Control_c, 6, 11, 126
8, 26112, Note_on_c, 6, 74, 116
8, 26117, Control_c, 6, 11, 127
8, 26139, Control_c, 6, 11, 125
8, 26144, Control_c, 6, 11, 123
8, 26150, Control_c, 6, 11, 122
8, 26161, Control_c, 6, 11, 120
8, 26166, Control_c, 6, 11, 117
8, 26183, Control_c, 6, 11, 114
8, 26194, Control_c, 6, 11, 113
8, 26199, Control_c, 6, 11, 111
8, 26210, Control_c, 6, 11, 110
8, 26227, Control_c, 6, 11, 108
8, 26232, Control_c, 6, 11, 107
8, 26300, Note_on_c, 6, 74, 0
8, 26457, Control_c, 6, 11, 127
8, 26496, Note_on_c, 6, 74, 82
8, 26626, Note_on_c, 6, 74, 0
8, 26688, Note_on_c, 6, 74, 82
8, 26818, Note_on_c, 6, 74, 0
8, 26880, Note_on_c, 6, 74, 116
8, 27058, Note_on_c, 6, 74, 0
8, 27264, Note_on_c, 6, 74, 82
8, 27394, Note_on_c, 6, 74, 0
8, 27456, Note_on_c, 6, 74, 82
8, 27586, Note_on_c, 6, 74, 0
8, 27648, Note_on_c, 6, 74, 116
8, 27784, Note_on_c, 6, 74, 0
8, 27840, Note_on_c, 6, 74, 82
8, 27970, Note_on_c, 6, 74, 0
8, 28032, Note_on_c, 6, 74, 116
8, 28164, Note_on_c, 6, 74, 0
8, 28224, Note_on_c, 6, 74, 82
8, 28354, Note_on_c, 6, 74, 0
8, 28416, Note_on_c, 6, 74, 116
8, 28594, Note_on_c, 6, 74, 0
8, 29952, Note_on_c, 6, 74, 116
8, 30898, Note_on_c, 6, 74, 0
8, 55296, Note_on_c, 6, 67, 109
8, 56374, Note_on_c, 6, 67, 0
8, 56448, Note_on_c, 6, 67, 103
8, 56570, Note_on_c, 6, 67, 0
8, 56640, Note_on_c, 6, 67, 103
8, 56762, Note_on_c, 6, 67, 0
8, 56832, Note_on_c, 6, 67, 103
8, 56976, Note_on_c, 6, 67, 0
8, 58368, Note_on_c, 6, 74, 88
8, 58546, Note_on_c, 6, 74, 0
8, 59904, Note_on_c, 6, 74, 88
8, 60082, Note_on_c, 6, 74, 0
8, 61440, Note_on_c, 6, 74, 87
8, 61618, Note_on_c, 6, 74, 0
8, 62976, Note_on_c, 6, 74, 87
8, 63154, Note_on_c, 6, 74, 0
8, 64128, Note_on_c, 6, 64, 103
8, 64284, Note_on_c, 6, 64, 0
8, 64320, Note_on_c, 6, 64, 103
8, 64476, Note_on_c, 6, 64, 0
8, 67584, Note_on_c, 6, 74, 82
8, 67762, Note_on_c, 6, 74, 0
8, 70656, Note_on_c, 6, 72, 82
8, 70834, Note_on_c, 6, 72, 0
8, 71424, Note_on_c, 6, 72, 82
8, 71602, Note_on_c, 6, 72, 0
8, 72192, Note_on_c, 6, 67, 82
8, 72370, Note_on_c, 6, 67, 0
8, 72960, Note_on_c, 6, 67, 88
8, 73308, Note_on_c, 6, 67, 0
8, 73344, Note_on_c, 6, 67, 88
8, 73500, Note_on_c, 6, 67, 0
8, 73536, Note_on_c, 6, 67, 88
8, 73692, Note_on_c, 6, 67, 0
8, 73728, Note_on_c, 6, 67, 103
8, 73916, Note_on_c, 6, 67, 0
8, 74496, Note_on_c, 6, 67, 103
8, 74684, Note_on_c, 6, 67, 0
8, 75264, Note_on_c, 6, 67, 103
8, 75452, Note_on_c, 6, 67, 0
8, 76032, Note_on_c, 6, 74, 82
8, 76386, Note_on_c, 6, 74, 0
8, 76416, Note_on_c, 6, 74, 82
8, 76572, Note_on_c, 6, 74, 0
8, 76608, Note_on_c, 6, 74, 82
8, 76764, Note_on_c, 6, 74, 0
8, 76800, Note_on_c, 6, 74, 82
8, 76956, Note_on_c, 6, 74, 0
8, 79872, Note_on_c, 6, 67, 87
8, 80050, Note_on_c, 6, 67, 0
8, 80640, Note_on_c, 6, 67, 87
8, 80699, Control_c, 6, 11, 127
8, 80712, Control_c, 6, 11, 126
8, 80719, Control_c, 6, 11, 125
8, 80740, Control_c, 6, 11, 124
8, 80760, Control_c, 6, 11, 123
8, 80767, Control_c, 6, 11, 120
8, 80781, Control_c, 6, 11, 117
8, 80801, Control_c, 6, 11, 115
8, 80808, Control_c, 6, 11, 114
8, 80822, Control_c, 6, 11, 112
8, 80829, Control_c, 6, 11, 111
8, 80843, Control_c, 6, 11, 109
8, 80849, Control_c, 6, 11, 108
8, 80863, Control_c, 6, 11, 106
8, 80870, Control_c, 6, 11, 105
8, 80925, Control_c, 6, 11, 103
8, 80945, Control_c, 6, 11, 102
8, 80966, Control_c, 6, 11, 100
8, 81076, Control_c, 6, 11, 101
8, 81089, Control_c, 6, 11, 103
8, 81137, Control_c, 6, 11, 104
8, 81281, Control_c, 6, 11, 103
8, 81398, Control_c, 6, 11, 104
8, 81460, Control_c, 6, 11, 106
8, 81480, Control_c, 6, 11, 109
8, 81487, Control_c, 6, 11, 110
8, 81501, Control_c, 6, 11, 112
8, 81508, Control_c, 6, 11, 113
8, 81521, Control_c, 6, 11, 115
8, 81528, Control_c, 6, 11, 116
8, 81542, Control_c, 6, 11, 118
8, 81549, Control_c, 6, 11, 119
8, 81563, Control_c, 6, 11, 122
8, 81586, Note_on_c, 6, 67, 0
8, 81590, Control_c, 6, 11, 124
8, 82176, Note_on_c, 6, 67, 87
8, 82180, Control_c, 6, 11, 127
8, 82248, Control_c, 6, 11, 124
8, 82269, Control_c, 6, 11, 123
8, 82283, Control_c, 6, 11, 118
8, 82303, Control_c, 6, 11, 117
8, 82310, Control_c, 6, 11, 115
8, 82331, Control_c, 6, 11, 114
8, 82344, Control_c, 6, 11, 112
8, 82365, Control_c, 6, 11, 111
8, 82372, Control_c, 6, 11, 109
8, 82392, Control_c, 6, 11, 105
8, 82900, Control_c, 6, 11, 108
8, 82961, Control_c, 6, 11, 109
8, 82989, Control_c, 6, 11, 110
8, 83009, Control_c, 6, 11, 112
8, 83030, Control_c, 6, 11, 113
8, 83051, Control_c, 6, 11, 115
8, 83085, Control_c, 6, 11, 118
8, 83092, Control_c, 6, 11, 119
8, 83122, Note_on_c, 6, 67, 0
8, 83126, Control_c, 6, 11, 121
8, 83147, Control_c, 6, 11, 122
8, 83153, Control_c, 6, 11, 125
8, 83167, Control_c, 6, 11, 127
8, 84459, Control_c, 6, 11, 127
8, 84480, Note_on_c, 6, 67, 103
8, 84644, Note_on_c, 6, 67, 0
8, 85056, Note_on_c, 6, 74, 103
8, 85184, Note_on_c, 6, 74, 0
8, 85248, Note_on_c, 6, 67, 103
8, 85412, Note_on_c, 6, 67, 0
8, 85824, Note_on_c, 6, 74, 103
8, 85952, Note_on_c, 6, 74, 0
8, 86016, Note_on_c, 6, 67, 103
8, 86180, Note_on_c, 6, 67, 0
8, 87552, Note_on_c, 6, 67, 103
8, 87730, Note_on_c, 6, 67, 0
8, 89088, Note_on_c, 6, 67, 103
8, 89266, Note_on_c, 6, 67, 0
8, 90624, Note_on_c, 6, 67, 103
8, 90802, Note_on_c, 6, 67, 0
8, 92160, Note_on_c, 6, 67, 103
8, 92338, Note_on_c, 6, 67, 0
8, 93696, Note_on_c, 6, 67, 103
8, 93874, Note_on_c, 6, 67, 0
8, 95232, Note_on_c, 6, 67, 103
8, 95410, Note_on_c, 6, 67, 0
8, 119808, Note_on_c, 6, 74, 42
8, 119986, Note_on_c, 6, 74, 0
8, 120192, Note_on_c, 6, 74, 42
8, 120370, Note_on_c, 6, 74, 0
8, 120576, Note_on_c, 6, 74, 42
8, 120754, Note_on_c, 6, 74, 0
8, 121344, Note_on_c, 6, 72, 108
8, 121752, Note_on_c, 6, 72, 0
8, 122064, Note_on_c, 6, 60, 118
8, 122094, Note_on_c, 6, 60, 0
8, 122112, Note_on_c, 6, 60, 118
8, 122520, Note_on_c, 6, 60, 0
8, 122880, Note_on_c, 6, 72, 108
8, 122992, Note_on_c, 6, 72, 0
8, 123072, Note_on_c, 6, 72, 108
8, 123155, Note_on_c, 6, 72, 0
8, 123220, Note_on_c, 6, 72, 108
8, 123246, Note_on_c, 6, 72, 0
8, 123264, Note_on_c, 6, 72, 108
8, 123360, Note_on_c, 6, 72, 0
8, 123456, Note_on_c, 6, 72, 108
8, 123552, Note_on_c, 6, 72, 0
8, 123648, Note_on_c, 6, 67, 108
8, 123745, Note_on_c, 6, 67, 0
8, 123840, Note_on_c, 6, 67, 108
8, 123935, Note_on_c, 6, 67, 0
8, 124416, Note_on_c, 6, 72, 103
8, 124550, Note_on_c, 6, 72, 0
8, 125184, Note_on_c, 6, 67, 122
8, 125288, Note_on_c, 6, 67, 0
8, 125376, Note_on_c, 6, 67, 122
8, 125458, Note_on_c, 6, 67, 0
8, 125525, Note_on_c, 6, 67, 122
8, 125549, Note_on_c, 6, 67, 0
8, 125568, Note_on_c, 6, 67, 122
8, 125664, Note_on_c, 6, 67, 0
8, 125760, Note_on_c, 6, 67, 122
8, 125856, Note_on_c, 6, 67, 0
8, 125952, Note_on_c, 6, 72, 122
8, 126108, Note_on_c, 6, 72, 0
8, 126720, Note_on_c, 6, 72, 122
8, 126824, Note_on_c, 6, 72, 0
8, 126912, Note_on_c, 6, 72, 122
8, 126994, Note_on_c, 6, 72, 0
8, 127061, Note_on_c, 6, 72, 122
8, 127085, Note_on_c, 6, 72, 0
8, 127104, Note_on_c, 6, 72, 122
8, 127200, Note_on_c, 6, 72, 0
8, 127296, Note_on_c, 6, 72, 122
8, 127392, Note_on_c, 6, 72, 0
8, 127488, Note_on_c, 6, 72, 122
8, 127644, Note_on_c, 6, 72, 0
8, 128256, Note_on_c, 6, 72, 122
8, 128360, Note_on_c, 6, 72, 0
8, 128448, Note_on_c, 6, 72, 122
8, 128530, Note_on_c, 6, 72, 0
8, 128597, Note_on_c, 6, 72, 122
8, 128621, Note_on_c, 6, 72, 0
8, 128640, Note_on_c, 6, 72, 122
8, 128736, Note_on_c, 6, 72, 0
8, 128832, Note_on_c, 6, 72, 122
8, 128928, Note_on_c, 6, 72, 0
8, 129024, Note_on_c, 6, 72, 122
8, 129180, Note_on_c, 6, 72, 0
8, 129792, Note_on_c, 6, 72, 122
8, 129912, Note_on_c, 6, 72, 0
8, 129984, Note_on_c, 6, 72, 122
8, 130066, Note_on_c, 6, 72, 0
8, 130133, Note_on_c, 6, 72, 123
8, 130157, Note_on_c, 6, 72, 0
8, 130176, Note_on_c, 6, 72, 122
8, 130272, Note_on_c, 6, 72, 0
8, 130368, Note_on_c, 6, 72, 120
8, 130464, Note_on_c, 6, 72, 0
8, 130560, Note_on_c, 6, 72, 118
8, 130569, Control_c, 6, 11, 125
8, 130577, Control_c, 6, 11, 123
8, 130604, Control_c, 6, 11, 122
8, 130630, Control_c, 6, 11, 119
8, 130647, Control_c, 6, 11, 117
8, 130673, Control_c, 6, 11, 116
8, 130682, Control_c, 6, 11, 114
8, 130700, Control_c, 6, 11, 113
8, 130726, Control_c, 6, 11, 111
8, 130752, Control_c, 6, 11, 110
8, 130804, Control_c, 6, 11, 108
8, 130839, Control_c, 6, 11, 107
8, 130988, Control_c, 6, 11, 108
8, 131119, Control_c, 6, 11, 109
8, 131206, Control_c, 6, 11, 111
8, 131254, Note_on_c, 6, 72, 0
8, 131267, Control_c, 6, 11, 114
8, 131293, Control_c, 6, 11, 117
8, 131302, Control_c, 6, 11, 118
8, 131328, Control_c, 6, 11, 127
8, 131328, Note_on_c, 6, 67, 115
8, 131428, Note_on_c, 6, 67, 0
8, 131520, Note_on_c, 6, 74, 115
8, 131620, Note_on_c, 6, 74, 0
8, 131712, Note_on_c, 6, 67, 115
8, 131812, Note_on_c, 6, 67, 0
8, 131904, Note_on_c, 6, 74, 115
8, 132004, Note_on_c, 6, 74, 0
8, 132096, Note_on_c, 6, 67, 115
8, 132196, Note_on_c, 6, 67, 0
8, 132288, Note_on_c, 6, 74, 115
8, 132388, Note_on_c, 6, 74, 0
8, 132480, Note_on_c, 6, 67, 115
8, 132580, Note_on_c, 6, 67, 0
8, 132672, Note_on_c, 6, 74, 115
8, 132772, Note_on_c, 6, 74, 0
8, 132864, Note_on_c, 6, 74, 103
8, 132992, Note_on_c, 6, 74, 0
8, 133205, Note_on_c, 6, 67, 103
8, 133229, Note_on_c, 6, 67, 0
8, 133248, Note_on_c, 6, 67, 103
8, 133378, Note_on_c, 6, 67, 0
8, 133589, Note_on_c, 6, 67, 103
8, 133613, Note_on_c, 6, 67, 0
8, 133632, Note_on_c, 6, 67, 103
8, 133980, Note_on_c, 6, 67, 0
8, 134374, Control_c, 6, 11, 127
8, 134400, Note_on_c, 6, 67, 103
8, 134557, Control_c, 6, 11, 122
8, 134566, Control_c, 6, 11, 119
8, 134583, Control_c, 6, 11, 117
8, 134592, Control_c, 6, 11, 114
8, 134609, Control_c, 6, 11, 111
8, 134618, Control_c, 6, 11, 110
8, 134636, Control_c, 6, 11, 107
8, 134671, Control_c, 6, 11, 105
8, 134688, Control_c, 6, 11, 104
8, 134714, Control_c, 6, 11, 102
8, 134801, Control_c, 6, 11, 101
8, 134924, Control_c, 6, 11, 102
8, 134950, Control_c, 6, 11, 103
8, 134976, Control_c, 6, 11, 105
8, 135011, Control_c, 6, 11, 106
8, 135037, Control_c, 6, 11, 108
8, 135063, Control_c, 6, 11, 109
8, 135089, Control_c, 6, 11, 111
8, 135133, Control_c, 6, 11, 112
8, 135159, Control_c, 6, 11, 115
8, 135185, Control_c, 6, 11, 117
8, 135212, Control_c, 6, 11, 118
8, 135220, Control_c, 6, 11, 120
8, 135238, Control_c, 6, 11, 121
8, 135247, Control_c, 6, 11, 124
8, 135273, Control_c, 6, 11, 126
8, 135299, Control_c, 6, 11, 127
8, 135346, Note_on_c, 6, 67, 0
8, 135936, Control_c, 6, 11, 127
8, 153600, Note_on_c, 6, 67, 85
8, 153602, Control_c, 6, 11, 127
8, 153611, Control_c, 6, 11, 126
8, 153620, Control_c, 6, 11, 125
8, 153628, Control_c, 6, 11, 123
8, 153637, Control_c, 6, 11, 122
8, 153646, Control_c, 6, 11, 121
8, 153654, Control_c, 6, 11, 119
8, 153663, Control_c, 6, 11, 118
8, 153672, Control_c, 6, 11, 116
8, 153681, Control_c, 6, 11, 115
8, 153689, Control_c, 6, 11, 114
8, 153698, Control_c, 6, 11, 112
8, 153707, Control_c, 6, 11, 111
8, 153716, Control_c, 6, 11, 109
8, 153724, Control_c, 6, 11, 108
8, 153733, Control_c, 6, 11, 107
8, 153742, Control_c, 6, 11, 105
8, 153750, Control_c, 6, 11, 104
8, 153759, Control_c, 6, 11, 102
8, 153768, Control_c, 6, 11, 101
8, 153777, Control_c, 6, 11, 100
8, 153778, Note_on_c, 6, 67, 0
8, 153785, Control_c, 6, 11, 98
8, 153794, Control_c, 6, 11, 97
8, 153803, Control_c, 6, 11, 95
8, 155094, Control_c, 6, 11, 122
8, 155112, Control_c, 6, 11, 121
8, 155129, Control_c, 6, 11, 120
8, 155136, Note_on_c, 6, 67, 85
8, 155147, Control_c, 6, 11, 119
8, 155164, Control_c, 6, 11, 118
8, 155182, Control_c, 6, 11, 117
8, 155199, Control_c, 6, 11, 116
8, 155217, Control_c, 6, 11, 115
8, 155234, Control_c, 6, 11, 114
8, 155252, Control_c, 6, 11, 113
8, 155269, Control_c, 6, 11, 112
8, 155286, Control_c, 6, 11, 111
8, 155304, Control_c, 6, 11, 110
8, 155314, Note_on_c, 6, 67, 0
8, 155321, Control_c, 6, 11, 109
8, 156630, Control_c, 6, 11, 120
8, 156657, Control_c, 6, 11, 119
8, 156672, Note_on_c, 6, 67, 85
8, 156674, Control_c, 6, 11, 118
8, 156700, Control_c, 6, 11, 117
8, 156726, Control_c, 6, 11, 116
8, 156744, Control_c, 6, 11, 115
8, 156770, Control_c, 6, 11, 114
8, 156796, Control_c, 6, 11, 113
8, 156814, Control_c, 6, 11, 112
8, 156840, Control_c, 6, 11, 111
8, 156850, Note_on_c, 6, 67, 0
8, 156866, Control_c, 6, 11, 110
8, 156884, Control_c, 6, 11, 109
8, 158208, Control_c, 6, 11, 120
8, 158208, Note_on_c, 6, 67, 85
8, 158225, Control_c, 6, 11, 119
8, 158234, Control_c, 6, 11, 118
8, 158251, Control_c, 6, 11, 117
8, 158269, Control_c, 6, 11, 116
8, 158277, Control_c, 6, 11, 115
8, 158295, Control_c, 6, 11, 114
8, 158312, Control_c, 6, 11, 113
8, 158321, Control_c, 6, 11, 112
8, 158338, Control_c, 6, 11, 111
8, 158356, Control_c, 6, 11, 110
8, 158365, Control_c, 6, 11, 109
8, 158382, Control_c, 6, 11, 108
8, 158386, Note_on_c, 6, 67, 0
8, 158400, Control_c, 6, 11, 107
8, 158408, Control_c, 6, 11, 106
8, 159543, Control_c, 6, 11, 127
8, 159744, Note_on_c, 6, 67, 85
8, 159908, Note_on_c, 6, 67, 0
8, 160512, Note_on_c, 6, 67, 103
8, 161256, Note_on_c, 6, 67, 0
8, 161280, Note_on_c, 6, 74, 103
8, 161458, Note_on_c, 6, 74, 0
8, 163584, Note_on_c, 6, 72, 103
8, 163740, Note_on_c, 6, 72, 0
8, 163968, Note_on_c, 6, 72, 103
8, 164124, Note_on_c, 6, 72, 0
8, 164352, Note_on_c, 6, 67, 116
8, 164508, Note_on_c, 6, 67, 0
8, 164736, Note_on_c, 6, 67, 116
8, 164892, Note_on_c, 6, 67, 0
8, 165120, Note_on_c, 6, 67, 116
8, 165432, Note_on_c, 6, 67, 0
8, 165504, Note_on_c, 6, 67, 116
8, 165612, Note_on_c, 6, 67, 0
8, 165696, Note_on_c, 6, 67, 116
8, 165803, Note_on_c, 6, 67, 0
8, 165888, Note_on_c, 6, 64, 116
8, 166066, Note_on_c, 6, 64, 0
8, 166656, Note_on_c, 6, 67, 103
8, 167400, Note_on_c, 6, 67, 0
8, 167424, Note_on_c, 6, 74, 103
8, 167602, Note_on_c, 6, 74, 0
8, 169728, Note_on_c, 6, 72, 123
8, 169797, Control_c, 6, 11, 127
8, 169806, Control_c, 6, 11, 126
8, 169824, Control_c, 6, 11, 124
8, 169828, Control_c, 6, 11, 122
8, 169832, Control_c, 6, 11, 121
8, 169837, Control_c, 6, 11, 120
8, 169841, Control_c, 6, 11, 116
8, 169845, Control_c, 6, 11, 114
8, 169850, Control_c, 6, 11, 113
8, 169854, Control_c, 6, 11, 112
8, 169858, Control_c, 6, 11, 110
8, 169863, Control_c, 6, 11, 109
8, 169867, Control_c, 6, 11, 108
8, 169872, Control_c, 6, 11, 107
8, 169880, Control_c, 6, 11, 106
8, 169952, Note_on_c, 6, 72, 0
8, 170016, Control_c, 6, 11, 127
8, 170016, Note_on_c, 6, 72, 114
8, 170044, Note_on_c, 6, 72, 0
8, 170064, Note_on_c, 6, 72, 114
8, 170092, Note_on_c, 6, 72, 0
8, 170112, Note_on_c, 6, 72, 114
8, 170220, Note_on_c, 6, 72, 0
8, 170304, Note_on_c, 6, 72, 114
8, 170412, Note_on_c, 6, 72, 0
8, 170482, Control_c, 6, 11, 127
8, 170496, Note_on_c, 6, 72, 119
8, 170548, Control_c, 6, 11, 125
8, 170561, Control_c, 6, 11, 124
8, 170565, Control_c, 6, 11, 123
8, 170570, Control_c, 6, 11, 122
8, 170574, Control_c, 6, 11, 119
8, 170578, Control_c, 6, 11, 115
8, 170583, Control_c, 6, 11, 113
8, 170587, Control_c, 6, 11, 111
8, 170592, Control_c, 6, 11, 110
8, 170600, Control_c, 6, 11, 109
8, 170605, Control_c, 6, 11, 108
8, 170609, Control_c, 6, 11, 107
8, 170613, Control_c, 6, 11, 106
8, 170622, Control_c, 6, 11, 105
8, 170720, Note_on_c, 6, 72, 0
8, 170779, Control_c, 6, 11, 127
8, 170784, Note_on_c, 6, 72, 114
8, 170812, Note_on_c, 6, 72, 0
8, 170832, Note_on_c, 6, 72, 114
8, 170860, Note_on_c, 6, 72, 0
8, 170880, Note_on_c, 6, 72, 114
8, 170988, Note_on_c, 6, 72, 0
8, 171072, Note_on_c, 6, 72, 114
8, 171180, Note_on_c, 6, 72, 0
8, 171264, Note_on_c, 6, 72, 118
8, 171320, Control_c, 6, 11, 124
8, 171325, Control_c, 6, 11, 123
8, 171329, Control_c, 6, 11, 119
8, 171333, Control_c, 6, 11, 117
8, 171338, Control_c, 6, 11, 114
8, 171342, Control_c, 6, 11, 112
8, 171346, Control_c, 6, 11, 110
8, 171351, Control_c, 6, 11, 109
8, 171355, Control_c, 6, 11, 107
8, 171360, Control_c, 6, 11, 105
8, 171364, Control_c, 6, 11, 103
8, 171442, Control_c, 6, 11, 104
8, 171488, Note_on_c, 6, 72, 0
8, 171543, Control_c, 6, 11, 127
8, 171552, Note_on_c, 6, 72, 114
8, 171580, Note_on_c, 6, 72, 0
8, 171600, Note_on_c, 6, 72, 114
8, 171628, Note_on_c, 6, 72, 0
8, 171648, Note_on_c, 6, 72, 114
8, 171756, Note_on_c, 6, 72, 0
8, 171840, Note_on_c, 6, 72, 114
8, 171947, Note_on_c, 6, 72, 0
8, 172032, Note_on_c, 6, 72, 118
8, 172071, Control_c, 6, 11, 127
8, 172101, Control_c, 6, 11, 125
8, 172110, Control_c, 6, 11, 123
8, 172114, Control_c, 6, 11, 121
8, 172119, Control_c, 6, 11, 119
8, 172123, Control_c, 6, 11, 115
8, 172128, Control_c, 6, 11, 114
8, 172132, Control_c, 6, 11, 112
8, 172136, Control_c, 6, 11, 111
8, 172141, Control_c, 6, 11, 109
8, 172145, Control_c, 6, 11, 108
8, 172149, Control_c, 6, 11, 107
8, 172154, Control_c, 6, 11, 106
8, 172255, Note_on_c, 6, 72, 0
8, 172320, Note_on_c, 6, 72, 114
8, 172324, Control_c, 6, 11, 127
8, 172348, Note_on_c, 6, 72, 0
8, 172368, Note_on_c, 6, 72, 114
8, 172396, Note_on_c, 6, 72, 0
8, 172416, Note_on_c, 6, 72, 114
8, 172526, Note_on_c, 6, 72, 0
8, 172608, Note_on_c, 6, 72, 114
8, 172719, Note_on_c, 6, 72, 0
8, 172800, Note_on_c, 6, 72, 113
8, 172940, Note_on_c, 6, 72, 0
8, 173568, Note_on_c, 6, 72, 109
8, 173708, Note_on_c, 6, 72, 0
8, 174336, Note_on_c, 6, 72, 109
8, 174476, Note_on_c, 6, 72, 0
8, 175104, Note_on_c, 6, 72, 110
8, 175238, Note_on_c, 6, 72, 0
8, 175296, Note_on_c, 6, 67, 116
8, 175430, Note_on_c, 6, 67, 0
8, 175488, Note_on_c, 6, 67, 116
8, 175622, Note_on_c, 6, 67, 0
8, 175680, Note_on_c, 6, 67, 116
8, 175814, Note_on_c, 6, 67, 0
8, 175872, Note_on_c, 6, 67, 116
8, 176006, Note_on_c, 6, 67, 0
8, 178944, Note_on_c, 6, 72, 103
8, 179122, Note_on_c, 6, 72, 0
8, 179712, Note_on_c, 6, 72, 103
8, 180658, Note_on_c, 6, 72, 0
8, 181248, Note_on_c, 6, 72, 103
8, 181958, Note_on_c, 6, 72, 0
8, 182016, Note_on_c, 6, 72, 108
8, 182424, Note_on_c, 6, 72, 0
8, 182736, Note_on_c, 6, 60, 118
8, 182766, Note_on_c, 6, 60, 0
8, 182784, Note_on_c, 6, 60, 118
8, 183192, Note_on_c, 6, 60, 0
8, 183552, Note_on_c, 6, 72, 108
8, 183664, Note_on_c, 6, 72, 0
8, 183744, Note_on_c, 6, 72, 108
8, 183827, Note_on_c, 6, 72, 0
8, 183892, Note_on_c, 6, 72, 108
8, 183918, Note_on_c, 6, 72, 0
8, 183936, Note_on_c, 6, 72, 108
8, 184032, Note_on_c, 6, 72, 0
8, 184128, Note_on_c, 6, 72, 108
8, 184224, Note_on_c, 6, 72, 0
8, 184320, Note_on_c, 6, 67, 108
8, 184417, Note_on_c, 6, 67, 0
8, 184512, Note_on_c, 6, 67, 108
8, 184607, Note_on_c, 6, 67, 0
8, 186624, Note_on_c, 6, 72, 103
8, 186728, Note_on_c, 6, 72, 0
8, 186816, Note_on_c, 6, 72, 103
8, 186904, Note_on_c, 6, 72, 0
8, 186965, Note_on_c, 6, 72, 103
8, 186991, Note_on_c, 6, 72, 0
8, 187008, Note_on_c, 6, 72, 103
8, 187106, Note_on_c, 6, 72, 0
8, 187200, Note_on_c, 6, 72, 103
8, 187298, Note_on_c, 6, 72, 0
8, 187392, Control_c, 6, 11, 117
8, 187392, Note_on_c, 6, 72, 103
8, 187409, Control_c, 6, 11, 121
8, 187413, Control_c, 6, 11, 123
8, 187426, Control_c, 6, 11, 124
8, 187435, Control_c, 6, 11, 126
8, 187448, Control_c, 6, 11, 127
8, 187466, Control_c, 6, 11, 126
8, 187474, Control_c, 6, 11, 125
8, 187479, Control_c, 6, 11, 122
8, 187488, Control_c, 6, 11, 120
8, 187492, Control_c, 6, 11, 114
8, 187501, Control_c, 6, 11, 111
8, 187505, Control_c, 6, 11, 110
8, 187518, Control_c, 6, 11, 104
8, 187531, Control_c, 6, 11, 102
8, 187540, Control_c, 6, 11, 101
8, 187544, Control_c, 6, 11, 99
8, 187553, Control_c, 6, 11, 98
8, 187566, Control_c, 6, 11, 96
8, 187906, Control_c, 6, 11, 96
8, 187915, Control_c, 6, 11, 95
8, 187920, Control_c, 6, 11, 94
8, 187928, Control_c, 6, 11, 93
8, 187933, Control_c, 6, 11, 92
8, 187941, Control_c, 6, 11, 91
8, 187942, Note_on_c, 6, 72, 0
8, 187946, Control_c, 6, 11, 90
8, 189120, Control_c, 6, 11, 127
8, 189696, Note_on_c, 6, 72, 103
8, 189852, Note_on_c, 6, 72, 0
8, 190464, Note_on_c, 6, 72, 103
8, 190620, Note_on_c, 6, 72, 0
8, 190848, Note_on_c, 6, 67, 103
8, 191004, Note_on_c, 6, 67, 0
8, 191232, Note_on_c, 6, 67, 103
8, 191388, Note_on_c, 6, 67, 0
8, 192768, Note_on_c, 6, 72, 103
8, 192924, Note_on_c, 6, 72, 0
8, 193344, Note_on_c, 6, 74, 103
8, 193464, Note_on_c, 6, 74, 0
8, 193536, Note_on_c, 6, 76, 103
8, 193692, Note_on_c, 6, 76, 0
8, 194112, Note_on_c, 6, 74, 103
8, 194232, Note_on_c, 6, 74, 0
8, 194304, Note_on_c, 6, 72, 103
8, 194460, Note_on_c, 6, 72, 0
8, 195072, Note_on_c, 6, 64, 103
8, 195760, Note_on_c, 6, 64, 0
8, 195840, Note_on_c, 6, 67, 103
8, 196526, Note_on_c, 6, 67, 0
8, 196608, Note_on_c, 6, 72, 103
8, 197292, Note_on_c, 6, 72, 0
8, 197376, Note_on_c, 6, 76, 103
8, 198061, Note_on_c, 6, 76, 0
8, 198144, Note_on_c, 6, 72, 103
8, 198829, Note_on_c, 6, 72, 0
8, 198912, Note_on_c, 6, 67, 103
8, 199596, Note_on_c, 6, 67, 0
8, 199680, Note_on_c, 6, 64, 103
8, 200362, Note_on_c, 6, 64, 0
8, 200448, Note_on_c, 6, 60, 127
8, 200578, Note_on_c, 6, 60, 0
8, 200640, Note_on_c, 6, 60, 127
8, 200730, Note_on_c, 6, 60, 0
8, 200784, Note_on_c, 6, 60, 127
8, 200812, Note_on_c, 6, 60, 0
8, 200832, Note_on_c, 6, 60, 127
8, 200952, Note_on_c, 6, 60, 0
8, 201024, Note_on_c, 6, 60, 127
8, 201144, Note_on_c, 6, 60, 0
8, 201216, Note_on_c, 6, 64, 127
8, 201336, Note_on_c, 6, 64, 0
8, 201408, Note_on_c, 6, 60, 127
8, 201528, Note_on_c, 6, 60, 0
8, 201600, Note_on_c, 6, 67, 127
8, 201720, Note_on_c, 6, 67, 0
8, 201792, Note_on_c, 6, 64, 127
8, 201912, Note_on_c, 6, 64, 0
8, 201984, Note_on_c, 6, 72, 127
8, 202296, Note_on_c, 6, 72, 0
8, 202368, Note_on_c, 6, 60, 127
8, 202594, Note_on_c, 6, 60, 0
8, 202656, Note_on_c, 6, 60, 127
8, 202708, Note_on_c, 6, 60, 0
8, 202752, Note_on_c, 6, 60, 127
8, 203126, Note_on_c, 6, 60, 0
8, 204864, Control_c, 6, 121, 0
8, 204864, End_track
9, 0, Start_track
9, 0, MIDI_port, 0
9, 0, Title_t, "Trumpet 2"
9, 0, Program_c, 7, 56
9, 0, Control_c, 7, 7, 106
9, 0, Control_c, 7, 10, 41
9, 0, Text_t, ""
9, 96, Control_c, 7, 121, 0
9, 192, Control_c, 7, 91, 54
9, 288, Control_c, 7, 93, 7
9, 768, Note_on_c, 7, 64, 106
9, 1176, Note_on_c, 7, 64, 0
9, 2304, Note_on_c, 7, 60, 103
9, 2412, Note_on_c, 7, 60, 0
9, 2496, Note_on_c, 7, 60, 103
9, 2582, Note_on_c, 7, 60, 0
9, 2643, Note_on_c, 7, 60, 103
9, 2669, Note_on_c, 7, 60, 0
9, 2688, Note_on_c, 7, 60, 103
9, 2786, Note_on_c, 7, 60, 0
9, 2880, Note_on_c, 7, 60, 103
9, 2978, Note_on_c, 7, 60, 0
9, 3072, Note_on_c, 7, 55, 103
9, 3168, Note_on_c, 7, 55, 0
9, 3264, Note_on_c, 7, 55, 103
9, 3360, Note_on_c, 7, 55, 0
9, 5329, Control_c, 7, 11, 114
9, 5376, Note_on_c, 7, 60, 103
9, 5488, Note_on_c, 7, 60, 0
9, 5568, Note_on_c, 7, 60, 103
9, 5656, Note_on_c, 7, 60, 0
9, 5715, Note_on_c, 7, 60, 103
9, 5741, Note_on_c, 7, 60, 0
9, 5760, Note_on_c, 7, 60, 103
9, 5862, Note_on_c, 7, 60, 0
9, 5952, Note_on_c, 7, 60, 103
9, 6052, Note_on_c, 7, 60, 0
9, 6140, Control_c, 7, 11, 113
9, 6144, Note_on_c, 7, 60, 103
9, 6154, Control_c, 7, 11, 114
9, 6158, Control_c, 7, 11, 118
9, 6167, Control_c, 7, 11, 123
9, 6193, Control_c, 7, 11, 122
9, 6197, Control_c, 7, 11, 120
9, 6210, Control_c, 7, 11, 119
9, 6219, Control_c, 7, 11, 117
9, 6223, Control_c, 7, 11, 114
9, 6232, Control_c, 7, 11, 110
9, 6236, Control_c, 7, 11, 108
9, 6245, Control_c, 7, 11, 105
9, 6250, Control_c, 7, 11, 102
9, 6258, Control_c, 7, 11, 101
9, 6263, Control_c, 7, 11, 99
9, 6289, Control_c, 7, 11, 98
9, 6667, Note_on_c, 7, 60, 0
9, 7680, Note_on_c, 7, 60, 103
9, 7775, Note_on_c, 7, 60, 0
9, 7872, Note_on_c, 7, 64, 103
9, 7962, Note_on_c, 7, 64, 0
9, 8064, Note_on_c, 7, 67, 103
9, 8154, Note_on_c, 7, 67, 0
9, 8404, Control_c, 7, 11, 119
9, 8448, Note_on_c, 7, 60, 103
9, 8556, Note_on_c, 7, 60, 0
9, 8640, Note_on_c, 7, 60, 103
9, 8726, Note_on_c, 7, 60, 0
9, 8788, Note_on_c, 7, 60, 103
9, 8815, Note_on_c, 7, 60, 0
9, 8832, Note_on_c, 7, 60, 103
9, 8928, Note_on_c, 7, 60, 0
9, 9024, Note_on_c, 7, 60, 103
9, 9120, Note_on_c, 7, 60, 0
9, 9216, Control_c, 7, 11, 112
9, 9216, Note_on_c, 7, 60, 103
9, 9220, Control_c, 7, 11, 114
9, 9229, Control_c, 7, 11, 117
9, 9233, Control_c, 7, 11, 121
9, 9242, Control_c, 7, 11, 123
9, 9285, Control_c, 7, 11, 124
9, 9298, Control_c, 7, 11, 122
9, 9312, Control_c, 7, 11, 119
9, 9320, Control_c, 7, 11, 114
9, 9333, Control_c, 7, 11, 111
9, 9338, Control_c, 7, 11, 110
9, 9346, Control_c, 7, 11, 105
9, 9351, Control_c, 7, 11, 104
9, 9360, Control_c, 7, 11, 102
9, 9364, Control_c, 7, 11, 101
9, 9373, Control_c, 7, 11, 99
9, 9377, Control_c, 7, 11, 98
9, 9386, Control_c, 7, 11, 96
9, 9390, Control_c, 7, 11, 95
9, 9674, Control_c, 7, 11, 92
9, 9678, Control_c, 7, 11, 90
9, 9687, Control_c, 7, 11, 87
9, 9691, Control_c, 7, 11, 86
9, 9700, Control_c, 7, 11, 83
9, 9713, Control_c, 7, 11, 81
9, 9717, Control_c, 7, 11, 80
9, 9764, Note_on_c, 7, 60, 0
9, 9765, Control_c, 7, 11, 78
9, 12261, Control_c, 7, 11, 127
9, 12288, Note_on_c, 7, 64, 62
9, 12416, Note_on_c, 7, 64, 0
9, 12480, Note_on_c, 7, 64, 62
9, 12572, Note_on_c, 7, 64, 0
9, 12627, Note_on_c, 7, 64, 62
9, 12655, Note_on_c, 7, 64, 0
9, 12672, Note_on_c, 7, 67, 62
9, 12798, Note_on_c, 7, 67, 0
9, 12864, Note_on_c, 7, 67, 62
9, 12991, Note_on_c, 7, 67, 0
9, 13056, Note_on_c, 7, 72, 62
9, 13212, Note_on_c, 7, 72, 0
9, 13824, Note_on_c, 7, 64, 69
9, 13954, Note_on_c, 7, 64, 0
9, 14016, Note_on_c, 7, 64, 79
9, 14108, Note_on_c, 7, 64, 0
9, 14162, Note_on_c, 7, 64, 85
9, 14192, Note_on_c, 7, 64, 0
9, 14208, Note_on_c, 7, 67, 87
9, 14333, Note_on_c, 7, 67, 0
9, 14400, Note_on_c, 7, 67, 96
9, 14525, Note_on_c, 7, 67, 0
9, 14592, Note_on_c, 7, 72, 105
9, 14721, Note_on_c, 7, 72, 0
9, 14784, Note_on_c, 7, 72, 106
9, 14868, Note_on_c, 7, 72, 0
9, 14930, Note_on_c, 7, 72, 106
9, 14958, Note_on_c, 7, 72, 0
9, 14976, Note_on_c, 7, 67, 106
9, 15092, Note_on_c, 7, 67, 0
9, 15168, Note_on_c, 7, 67, 105
9, 15284, Note_on_c, 7, 67, 0
9, 15360, Note_on_c, 7, 64, 105
9, 15538, Note_on_c, 7, 64, 0
9, 16128, Note_on_c, 7, 60, 103
9, 16258, Note_on_c, 7, 60, 0
9, 16320, Note_on_c, 7, 60, 103
9, 16408, Note_on_c, 7, 60, 0
9, 16465, Note_on_c, 7, 60, 103
9, 16491, Note_on_c, 7, 60, 0
9, 16512, Note_on_c, 7, 60, 103
9, 16626, Note_on_c, 7, 60, 0
9, 16704, Note_on_c, 7, 60, 103
9, 16818, Note_on_c, 7, 60, 0
9, 16896, Note_on_c, 7, 60, 103
9, 17052, Note_on_c, 7, 60, 0
9, 17664, Note_on_c, 7, 60, 103
9, 17786, Note_on_c, 7, 60, 0
9, 17856, Note_on_c, 7, 60, 103
9, 17945, Note_on_c, 7, 60, 0
9, 18001, Note_on_c, 7, 60, 103
9, 18027, Note_on_c, 7, 60, 0
9, 18048, Note_on_c, 7, 60, 103
9, 18160, Note_on_c, 7, 60, 0
9, 18240, Note_on_c, 7, 60, 103
9, 18352, Note_on_c, 7, 60, 0
9, 18432, Note_on_c, 7, 55, 103
9, 18586, Note_on_c, 7, 55, 0
9, 19200, Note_on_c, 7, 67, 103
9, 19324, Note_on_c, 7, 67, 0
9, 19392, Note_on_c, 7, 67, 103
9, 19482, Note_on_c, 7, 67, 0
9, 19538, Note_on_c, 7, 67, 103
9, 19565, Note_on_c, 7, 67, 0
9, 19584, Note_on_c, 7, 67, 103
9, 19696, Note_on_c, 7, 67, 0
9, 19776, Note_on_c, 7, 67, 103
9, 19888, Note_on_c, 7, 67, 0
9, 20722, Control_c, 7, 11, 127
9, 20736, Note_on_c, 7, 72, 82
9, 20771, Control_c, 7, 11, 126
9, 20782, Control_c, 7, 11, 123
9, 20788, Control_c, 7, 11, 122
9, 20799, Control_c, 7, 11, 120
9, 20815, Control_c, 7, 11, 119
9, 20820, Control_c, 7, 11, 116
9, 20831, Control_c, 7, 11, 114
9, 20837, Control_c, 7, 11, 111
9, 20848, Control_c, 7, 11, 110
9, 20881, Control_c, 7, 11, 108
9, 20903, Control_c, 7, 11, 107
9, 20914, Control_c, 7, 11, 105
9, 20919, Control_c, 7, 11, 104
9, 20963, Control_c, 7, 11, 102
9, 20980, Control_c, 7, 11, 101
9, 21456, Note_on_c, 7, 72, 0
9, 21501, Control_c, 7, 11, 120
9, 21504, Note_on_c, 7, 67, 82
9, 21512, Control_c, 7, 11, 121
9, 21523, Control_c, 7, 11, 123
9, 21539, Control_c, 7, 11, 126
9, 21545, Control_c, 7, 11, 127
9, 21572, Control_c, 7, 11, 126
9, 21578, Control_c, 7, 11, 122
9, 21588, Control_c, 7, 11, 120
9, 21605, Control_c, 7, 11, 117
9, 21610, Control_c, 7, 11, 116
9, 21621, Control_c, 7, 11, 114
9, 21627, Control_c, 7, 11, 113
9, 21638, Control_c, 7, 11, 111
9, 21643, Control_c, 7, 11, 110
9, 21660, Control_c, 7, 11, 108
9, 21687, Control_c, 7, 11, 107
9, 21693, Control_c, 7, 11, 105
9, 21720, Control_c, 7, 11, 104
9, 21737, Control_c, 7, 11, 102
9, 21770, Control_c, 7, 11, 101
9, 22224, Note_on_c, 7, 67, 0
9, 22272, Note_on_c, 7, 72, 82
9, 22280, Control_c, 7, 11, 121
9, 22285, Control_c, 7, 11, 123
9, 22302, Control_c, 7, 11, 124
9, 22313, Control_c, 7, 11, 126
9, 22318, Control_c, 7, 11, 127
9, 22346, Control_c, 7, 11, 125
9, 22362, Control_c, 7, 11, 122
9, 22367, Control_c, 7, 11, 117
9, 22378, Control_c, 7, 11, 114
9, 22384, Control_c, 7, 11, 113
9, 22395, Control_c, 7, 11, 111
9, 22400, Control_c, 7, 11, 110
9, 22417, Control_c, 7, 11, 107
9, 22428, Control_c, 7, 11, 105
9, 22433, Control_c, 7, 11, 104
9, 22450, Control_c, 7, 11, 102
9, 22461, Control_c, 7, 11, 101
9, 22466, Control_c, 7, 11, 99
9, 22992, Note_on_c, 7, 72, 0
9, 23040, Control_c, 7, 11, 123
9, 23040, Note_on_c, 7, 67, 82
9, 23045, Control_c, 7, 11, 124
9, 23061, Control_c, 7, 11, 126
9, 23083, Control_c, 7, 11, 127
9, 23100, Control_c, 7, 11, 125
9, 23111, Control_c, 7, 11, 122
9, 23116, Control_c, 7, 11, 120
9, 23133, Control_c, 7, 11, 119
9, 23144, Control_c, 7, 11, 117
9, 23177, Control_c, 7, 11, 116
9, 23193, Control_c, 7, 11, 114
9, 23210, Control_c, 7, 11, 111
9, 23232, Control_c, 7, 11, 110
9, 23264, Control_c, 7, 11, 107
9, 23341, Control_c, 7, 11, 105
9, 23391, Control_c, 7, 11, 105
9, 23626, Control_c, 7, 11, 106
9, 23758, Control_c, 7, 11, 108
9, 23835, Control_c, 7, 11, 109
9, 23901, Control_c, 7, 11, 111
9, 23917, Control_c, 7, 11, 112
9, 23967, Control_c, 7, 11, 114
9, 24032, Control_c, 7, 11, 115
9, 24098, Control_c, 7, 11, 117
9, 24164, Control_c, 7, 11, 118
9, 24230, Control_c, 7, 11, 120
9, 24296, Control_c, 7, 11, 121
9, 24367, Control_c, 7, 11, 123
9, 24433, Control_c, 7, 11, 126
9, 24499, Control_c, 7, 11, 127
9, 24534, Note_on_c, 7, 67, 0
9, 25333, Control_c, 7, 11, 124
9, 25338, Control_c, 7, 11, 126
9, 25344, Note_on_c, 7, 67, 82
9, 25354, Control_c, 7, 11, 127
9, 25404, Control_c, 7, 11, 125
9, 25415, Control_c, 7, 11, 123
9, 25431, Control_c, 7, 11, 122
9, 25437, Control_c, 7, 11, 120
9, 25481, Control_c, 7, 11, 117
9, 25503, Control_c, 7, 11, 114
9, 25519, Control_c, 7, 11, 113
9, 25536, Control_c, 7, 11, 111
9, 25552, Control_c, 7, 11, 110
9, 25568, Control_c, 7, 11, 107
9, 25585, Control_c, 7, 11, 105
9, 25612, Control_c, 7, 11, 104
9, 25634, Control_c, 7, 11, 102
9, 25793, Control_c, 7, 11, 103
9, 25859, Control_c, 7, 11, 105
9, 25876, Control_c, 7, 11, 106
9, 25909, Control_c, 7, 11, 108
9, 25930, Control_c, 7, 11, 109
9, 25947, Control_c, 7, 11, 111
9, 25996, Control_c, 7, 11, 114
9, 26013, Control_c, 7, 11, 115
9, 26040, Control_c, 7, 11, 117
9, 26052, Note_on_c, 7, 67, 0
9, 26062, Control_c, 7, 11, 120
9, 26079, Control_c, 7, 11, 121
9, 26095, Control_c, 7, 11, 123
9, 26106, Control_c, 7, 11, 124
9, 26122, Control_c, 7, 11, 127
9, 26496, Note_on_c, 7, 67, 82
9, 26628, Note_on_c, 7, 67, 0
9, 26688, Note_on_c, 7, 67, 82
9, 26820, Note_on_c, 7, 67, 0
9, 27264, Note_on_c, 7, 67, 82
9, 27396, Note_on_c, 7, 67, 0
9, 27456, Note_on_c, 7, 67, 82
9, 27588, Note_on_c, 7, 67, 0
9, 27840, Note_on_c, 7, 67, 82
9, 27972, Note_on_c, 7, 67, 0
9, 28224, Note_on_c, 7, 67, 82
9, 28356, Note_on_c, 7, 67, 0
9, 55296, Note_on_c, 7, 55, 82
9, 56374, Note_on_c, 7, 55, 0
9, 56448, Note_on_c, 7, 55, 82
9, 56571, Note_on_c, 7, 55, 0
9, 56640, Note_on_c, 7, 55, 82
9, 56763, Note_on_c, 7, 55, 0
9, 56832, Note_on_c, 7, 55, 82
9, 56976, Note_on_c, 7, 55, 0
9, 58368, Note_on_c, 7, 67, 81
9, 58546, Note_on_c, 7, 67, 0
9, 59904, Note_on_c, 7, 67, 81
9, 60082, Note_on_c, 7, 67, 0
9, 61440, Note_on_c, 7, 67, 81
9, 61618, Note_on_c, 7, 67, 0
9, 62976, Note_on_c, 7, 67, 81
9, 63154, Note_on_c, 7, 67, 0
9, 67584, Note_on_c, 7, 67, 82
9, 67762, Note_on_c, 7, 67, 0
9, 70656, Note_on_c, 7, 64, 82
9, 70834, Note_on_c, 7, 64, 0
9, 71424, Note_on_c, 7, 64, 82
9, 71602, Note_on_c, 7, 64, 0
9, 72192, Note_on_c, 7, 64, 82
9, 72370, Note_on_c, 7, 64, 0
9, 72960, Note_on_c, 7, 64, 82
9, 73308, Note_on_c, 7, 64, 0
9, 73344, Note_on_c, 7, 64, 82
9, 73500, Note_on_c, 7, 64, 0
9, 73536, Note_on_c, 7, 64, 82
9, 73692, Note_on_c, 7, 64, 0
9, 76032, Note_on_c, 7, 67, 82
9, 76386, Note_on_c, 7, 67, 0
9, 76416, Note_on_c, 7, 67, 82
9, 76572, Note_on_c, 7, 67, 0
9, 76608, Note_on_c, 7, 67, 82
9, 76764, Note_on_c, 7, 67, 0
9, 76800, Note_on_c, 7, 67, 82
9, 76956, Note_on_c, 7, 67, 0
9, 79872, Note_on_c, 7, 55, 82
9, 80050, Note_on_c, 7, 55, 0
9, 80640, Note_on_c, 7, 55, 82
9, 81586, Note_on_c, 7, 55, 0
9, 82176, Note_on_c, 7, 55, 82
9, 83122, Note_on_c, 7, 55, 0
9, 87552, Note_on_c, 7, 55, 82
9, 87730, Note_on_c, 7, 55, 0
9, 89088, Note_on_c, 7, 55, 82
9, 89266, Note_on_c, 7, 55, 0
9, 90624, Note_on_c, 7, 55, 82
9, 90802, Note_on_c, 7, 55, 0
9, 92160, Note_on_c, 7, 55, 82
9, 92338, Note_on_c, 7, 55, 0
9, 93696, Note_on_c, 7, 55, 82
9, 93874, Note_on_c, 7, 55, 0
9, 95232, Note_on_c, 7, 55, 82
9, 95410, Note_on_c, 7, 55, 0
9, 119808, Note_on_c, 7, 67, 43
9, 119986, Note_on_c, 7, 67, 0
9, 120192, Note_on_c, 7, 67, 43
9, 120370, Note_on_c, 7, 67, 0
9, 120576, Note_on_c, 7, 67, 43
9, 120754, Note_on_c, 7, 67, 0
9, 122880, Note_on_c, 7, 60, 103
9, 122980, Note_on_c, 7, 60, 0
9, 123072, Note_on_c, 7, 60, 103
9, 123158, Note_on_c, 7, 60, 0
9, 123219, Note_on_c, 7, 60, 103
9, 123245, Note_on_c, 7, 60, 0
9, 123264, Note_on_c, 7, 60, 103
9, 123362, Note_on_c, 7, 60, 0
9, 123456, Note_on_c, 7, 60, 103
9, 123554, Note_on_c, 7, 60, 0
9, 123648, Note_on_c, 7, 55, 103
9, 123744, Note_on_c, 7, 55, 0
9, 123840, Note_on_c, 7, 55, 103
9, 123936, Note_on_c, 7, 55, 0
9, 124416, Note_on_c, 7, 60, 103
9, 124542, Note_on_c, 7, 60, 0
9, 125184, Note_on_c, 7, 55, 116
9, 125284, Note_on_c, 7, 55, 0
9, 125376, Note_on_c, 7, 55, 116
9, 125458, Note_on_c, 7, 55, 0
9, 125526, Note_on_c, 7, 55, 116
9, 125550, Note_on_c, 7, 55, 0
9, 125568, Note_on_c, 7, 55, 116
9, 125664, Note_on_c, 7, 55, 0
9, 125760, Note_on_c, 7, 55, 116
9, 125856, Note_on_c, 7, 55, 0
9, 125952, Note_on_c, 7, 60, 116
9, 126107, Note_on_c, 7, 60, 0
9, 126720, Note_on_c, 7, 60, 116
9, 126820, Note_on_c, 7, 60, 0
9, 126912, Note_on_c, 7, 60, 116
9, 126994, Note_on_c, 7, 60, 0
9, 127062, Note_on_c, 7, 60, 116
9, 127086, Note_on_c, 7, 60, 0
9, 127104, Note_on_c, 7, 60, 116
9, 127200, Note_on_c, 7, 60, 0
9, 127296, Note_on_c, 7, 60, 116
9, 127392, Note_on_c, 7, 60, 0
9, 127488, Note_on_c, 7, 60, 116
9, 127643, Note_on_c, 7, 60, 0
9, 128256, Note_on_c, 7, 60, 116
9, 128356, Note_on_c, 7, 60, 0
9, 128448, Note_on_c, 7, 60, 116
9, 128530, Note_on_c, 7, 60, 0
9, 128598, Note_on_c, 7, 60, 116
9, 128622, Note_on_c, 7, 60, 0
9, 128640, Note_on_c, 7, 60, 116
9, 128736, Note_on_c, 7, 60, 0
9, 128832, Note_on_c, 7, 60, 116
9, 128928, Note_on_c, 7, 60, 0
9, 129024, Note_on_c, 7, 60, 116
9, 129179, Note_on_c, 7, 60, 0
9, 129792, Note_on_c, 7, 60, 116
9, 129892, Note_on_c, 7, 60, 0
9, 129984, Note_on_c, 7, 60, 116
9, 130066, Note_on_c, 7, 60, 0
9, 130134, Note_on_c, 7, 60, 116
9, 130158, Note_on_c, 7, 60, 0
9, 130176, Note_on_c, 7, 60, 116
9, 130272, Note_on_c, 7, 60, 0
9, 130368, Note_on_c, 7, 60, 116
9, 130464, Note_on_c, 7, 60, 0
9, 130560, Note_on_c, 7, 60, 116
9, 130595, Control_c, 7, 11, 126
9, 130621, Control_c, 7, 11, 123
9, 130630, Control_c, 7, 11, 120
9, 130673, Control_c, 7, 11, 117
9, 130682, Control_c, 7, 11, 116
9, 130700, Control_c, 7, 11, 114
9, 130708, Control_c, 7, 11, 113
9, 130726, Control_c, 7, 11, 110
9, 130735, Control_c, 7, 11, 108
9, 130787, Control_c, 7, 11, 107
9, 130813, Control_c, 7, 11, 105
9, 130961, Control_c, 7, 11, 106
9, 130988, Control_c, 7, 11, 108
9, 131023, Control_c, 7, 11, 109
9, 131040, Control_c, 7, 11, 111
9, 131066, Control_c, 7, 11, 112
9, 131075, Control_c, 7, 11, 114
9, 131101, Control_c, 7, 11, 115
9, 131180, Control_c, 7, 11, 117
9, 131197, Control_c, 7, 11, 118
9, 131249, Control_c, 7, 11, 120
9, 131252, Note_on_c, 7, 60, 0
9, 131258, Control_c, 7, 11, 121
9, 132864, Note_on_c, 7, 67, 103
9, 132864, Control_c, 7, 11, 127
9, 132992, Note_on_c, 7, 67, 0
9, 133206, Note_on_c, 7, 55, 103
9, 133230, Note_on_c, 7, 55, 0
9, 133248, Note_on_c, 7, 55, 103
9, 133378, Note_on_c, 7, 55, 0
9, 133590, Note_on_c, 7, 55, 103
9, 133614, Note_on_c, 7, 55, 0
9, 133632, Note_on_c, 7, 55, 103
9, 133980, Note_on_c, 7, 55, 0
9, 134400, Note_on_c, 7, 55, 103
9, 134441, Control_c, 7, 11, 127
9, 134450, Control_c, 7, 11, 125
9, 134459, Control_c, 7, 11, 122
9, 134476, Control_c, 7, 11, 120
9, 134485, Control_c, 7, 11, 119
9, 134528, Control_c, 7, 11, 114
9, 134537, Control_c, 7, 11, 113
9, 134555, Control_c, 7, 11, 111
9, 134563, Control_c, 7, 11, 108
9, 134581, Control_c, 7, 11, 107
9, 134694, Control_c, 7, 11, 102
9, 134738, Control_c, 7, 11, 101
9, 134764, Control_c, 7, 11, 99
9, 134790, Control_c, 7, 11, 96
9, 134799, Control_c, 7, 11, 95
9, 134921, Control_c, 7, 11, 96
9, 135026, Control_c, 7, 11, 97
9, 135061, Control_c, 7, 11, 99
9, 135087, Control_c, 7, 11, 100
9, 135113, Control_c, 7, 11, 102
9, 135157, Control_c, 7, 11, 105
9, 135165, Control_c, 7, 11, 106
9, 135183, Control_c, 7, 11, 108
9, 135209, Control_c, 7, 11, 109
9, 135235, Control_c, 7, 11, 112
9, 135244, Control_c, 7, 11, 114
9, 135270, Control_c, 7, 11, 115
9, 135288, Control_c, 7, 11, 117
9, 135296, Control_c, 7, 11, 118
9, 135323, Control_c, 7, 11, 120
9, 135340, Control_c, 7, 11, 121
9, 135346, Note_on_c, 7, 55, 0
9, 135936, Control_c, 7, 11, 127
9, 153600, Note_on_c, 7, 64, 73
9, 153617, Control_c, 7, 11, 127
9, 153626, Control_c, 7, 11, 126
9, 153634, Control_c, 7, 11, 124
9, 153643, Control_c, 7, 11, 123
9, 153652, Control_c, 7, 11, 121
9, 153661, Control_c, 7, 11, 120
9, 153669, Control_c, 7, 11, 118
9, 153678, Control_c, 7, 11, 117
9, 153687, Control_c, 7, 11, 115
9, 153696, Control_c, 7, 11, 114
9, 153704, Control_c, 7, 11, 112
9, 153713, Control_c, 7, 11, 111
9, 153722, Control_c, 7, 11, 109
9, 153730, Control_c, 7, 11, 108
9, 153739, Control_c, 7, 11, 106
9, 153748, Control_c, 7, 11, 105
9, 153757, Control_c, 7, 11, 103
9, 153765, Control_c, 7, 11, 102
9, 153774, Control_c, 7, 11, 100
9, 153778, Note_on_c, 7, 64, 0
9, 153783, Control_c, 7, 11, 99
9, 153792, Control_c, 7, 11, 97
9, 153800, Control_c, 7, 11, 95
9, 155128, Control_c, 7, 11, 122
9, 155136, Note_on_c, 7, 64, 74
9, 155145, Control_c, 7, 11, 121
9, 155163, Control_c, 7, 11, 120
9, 155171, Control_c, 7, 11, 119
9, 155189, Control_c, 7, 11, 118
9, 155198, Control_c, 7, 11, 117
9, 155215, Control_c, 7, 11, 116
9, 155224, Control_c, 7, 11, 115
9, 155241, Control_c, 7, 11, 114
9, 155250, Control_c, 7, 11, 113
9, 155267, Control_c, 7, 11, 112
9, 155276, Control_c, 7, 11, 111
9, 155294, Control_c, 7, 11, 110
9, 155302, Control_c, 7, 11, 109
9, 155314, Note_on_c, 7, 64, 0
9, 155320, Control_c, 7, 11, 108
9, 155329, Control_c, 7, 11, 107
9, 156672, Note_on_c, 7, 60, 74
9, 156673, Control_c, 7, 11, 120
9, 156690, Control_c, 7, 11, 119
9, 156707, Control_c, 7, 11, 118
9, 156725, Control_c, 7, 11, 117
9, 156734, Control_c, 7, 11, 116
9, 156751, Control_c, 7, 11, 115
9, 156769, Control_c, 7, 11, 114
9, 156777, Control_c, 7, 11, 113
9, 156795, Control_c, 7, 11, 112
9, 156812, Control_c, 7, 11, 111
9, 156821, Control_c, 7, 11, 110
9, 156838, Control_c, 7, 11, 109
9, 156850, Note_on_c, 7, 60, 0
9, 156856, Control_c, 7, 11, 108
9, 156865, Control_c, 7, 11, 107
9, 158182, Control_c, 7, 11, 116
9, 158208, Note_on_c, 7, 67, 74
9, 158209, Control_c, 7, 11, 115
9, 158226, Control_c, 7, 11, 114
9, 158243, Control_c, 7, 11, 113
9, 158261, Control_c, 7, 11, 112
9, 158278, Control_c, 7, 11, 111
9, 158296, Control_c, 7, 11, 110
9, 158322, Control_c, 7, 11, 109
9, 158339, Control_c, 7, 11, 108
9, 158357, Control_c, 7, 11, 107
9, 158374, Control_c, 7, 11, 106
9, 158386, Note_on_c, 7, 67, 0
9, 158392, Control_c, 7, 11, 105
9, 158409, Control_c, 7, 11, 104
9, 159360, Control_c, 7, 11, 127
9, 159744, Note_on_c, 7, 60, 74
9, 159922, Note_on_c, 7, 60, 0
9, 163584, Note_on_c, 7, 60, 103
9, 163740, Note_on_c, 7, 60, 0
9, 163968, Note_on_c, 7, 60, 103
9, 164124, Note_on_c, 7, 60, 0
9, 169728, Note_on_c, 7, 60, 116
9, 169790, Control_c, 7, 11, 124
9, 169794, Control_c, 7, 11, 123
9, 169797, Control_c, 7, 11, 122
9, 169801, Control_c, 7, 11, 120
9, 169804, Control_c, 7, 11, 118
9, 169808, Control_c, 7, 11, 115
9, 169811, Control_c, 7, 11, 114
9, 169815, Control_c, 7, 11, 113
9, 169818, Control_c, 7, 11, 111
9, 169822, Control_c, 7, 11, 110
9, 169825, Control_c, 7, 11, 109
9, 169829, Control_c, 7, 11, 107
9, 169832, Control_c, 7, 11, 106
9, 169836, Control_c, 7, 11, 105
9, 169839, Control_c, 7, 11, 104
9, 169853, Control_c, 7, 11, 103
9, 169885, Control_c, 7, 11, 104
9, 169892, Control_c, 7, 11, 105
9, 169895, Control_c, 7, 11, 106
9, 169951, Note_on_c, 7, 60, 0
9, 169982, Control_c, 7, 11, 120
9, 170016, Note_on_c, 7, 60, 116
9, 170044, Note_on_c, 7, 60, 0
9, 170064, Note_on_c, 7, 60, 116
9, 170092, Note_on_c, 7, 60, 0
9, 170112, Note_on_c, 7, 60, 116
9, 170220, Note_on_c, 7, 60, 0
9, 170304, Note_on_c, 7, 60, 116
9, 170412, Note_on_c, 7, 60, 0
9, 170485, Control_c, 7, 11, 127
9, 170496, Note_on_c, 7, 60, 116
9, 170537, Control_c, 7, 11, 126
9, 170541, Control_c, 7, 11, 125
9, 170544, Control_c, 7, 11, 124
9, 170548, Control_c, 7, 11, 123
9, 170551, Control_c, 7, 11, 122
9, 170555, Control_c, 7, 11, 120
9, 170558, Control_c, 7, 11, 119
9, 170562, Control_c, 7, 11, 116
9, 170565, Control_c, 7, 11, 115
9, 170572, Control_c, 7, 11, 113
9, 170576, Control_c, 7, 11, 112
9, 170579, Control_c, 7, 11, 111
9, 170583, Control_c, 7, 11, 109
9, 170586, Control_c, 7, 11, 108
9, 170590, Control_c, 7, 11, 107
9, 170593, Control_c, 7, 11, 106
9, 170611, Control_c, 7, 11, 105
9, 170719, Note_on_c, 7, 60, 0
9, 170768, Control_c, 7, 11, 120
9, 170784, Note_on_c, 7, 60, 115
9, 170812, Note_on_c, 7, 60, 0
9, 170832, Note_on_c, 7, 60, 115
9, 170860, Note_on_c, 7, 60, 0
9, 170880, Note_on_c, 7, 60, 115
9, 170988, Note_on_c, 7, 60, 0
9, 171072, Note_on_c, 7, 60, 115
9, 171179, Note_on_c, 7, 60, 0
9, 171264, Note_on_c, 7, 60, 115
9, 171312, Control_c, 7, 11, 126
9, 171319, Control_c, 7, 11, 120
9, 171323, Control_c, 7, 11, 117
9, 171326, Control_c, 7, 11, 115
9, 171330, Control_c, 7, 11, 114
9, 171333, Control_c, 7, 11, 112
9, 171337, Control_c, 7, 11, 111
9, 171340, Control_c, 7, 11, 110
9, 171344, Control_c, 7, 11, 109
9, 171351, Control_c, 7, 11, 108
9, 171354, Control_c, 7, 11, 107
9, 171368, Control_c, 7, 11, 107
9, 171375, Control_c, 7, 11, 106
9, 171386, Control_c, 7, 11, 105
9, 171389, Control_c, 7, 11, 104
9, 171396, Control_c, 7, 11, 103
9, 171487, Note_on_c, 7, 60, 0
9, 171543, Control_c, 7, 11, 122
9, 171552, Note_on_c, 7, 60, 115
9, 171580, Note_on_c, 7, 60, 0
9, 171600, Note_on_c, 7, 60, 115
9, 171628, Note_on_c, 7, 60, 0
9, 171648, Note_on_c, 7, 60, 115
9, 171756, Note_on_c, 7, 60, 0
9, 171840, Note_on_c, 7, 60, 115
9, 171947, Note_on_c, 7, 60, 0
9, 172021, Control_c, 7, 11, 127
9, 172032, Note_on_c, 7, 60, 115
9, 172073, Control_c, 7, 11, 125
9, 172087, Control_c, 7, 11, 124
9, 172091, Control_c, 7, 11, 123
9, 172094, Control_c, 7, 11, 122
9, 172101, Control_c, 7, 11, 119
9, 172105, Control_c, 7, 11, 118
9, 172108, Control_c, 7, 11, 116
9, 172112, Control_c, 7, 11, 115
9, 172115, Control_c, 7, 11, 111
9, 172119, Control_c, 7, 11, 108
9, 172122, Control_c, 7, 11, 106
9, 172126, Control_c, 7, 11, 104
9, 172129, Control_c, 7, 11, 103
9, 172136, Control_c, 7, 11, 102
9, 172143, Control_c, 7, 11, 101
9, 172164, Control_c, 7, 11, 100
9, 172256, Note_on_c, 7, 60, 0
9, 172307, Control_c, 7, 11, 120
9, 172320, Note_on_c, 7, 60, 115
9, 172348, Note_on_c, 7, 60, 0
9, 172368, Note_on_c, 7, 60, 115
9, 172396, Note_on_c, 7, 60, 0
9, 172416, Note_on_c, 7, 60, 115
9, 172527, Note_on_c, 7, 60, 0
9, 172608, Note_on_c, 7, 60, 115
9, 172719, Note_on_c, 7, 60, 0
9, 172782, Control_c, 7, 11, 127
9, 172800, Note_on_c, 7, 60, 103
9, 172940, Note_on_c, 7, 60, 0
9, 173568, Note_on_c, 7, 60, 103
9, 173708, Note_on_c, 7, 60, 0
9, 174336, Note_on_c, 7, 60, 103
9, 174476, Note_on_c, 7, 60, 0
9, 175104, Note_on_c, 7, 60, 103
9, 175238, Note_on_c, 7, 60, 0
9, 178944, Note_on_c, 7, 60, 103
9, 179122, Note_on_c, 7, 60, 0
9, 179712, Note_on_c, 7, 60, 103
9, 180658, Note_on_c, 7, 60, 0
9, 181248, Note_on_c, 7, 60, 103
9, 181958, Note_on_c, 7, 60, 0
9, 182016, Note_on_c, 7, 64, 106
9, 182424, Note_on_c, 7, 64, 0
9, 183552, Note_on_c, 7, 60, 103
9, 183660, Note_on_c, 7, 60, 0
9, 183744, Note_on_c, 7, 60, 103
9, 183830, Note_on_c, 7, 60, 0
9, 183891, Note_on_c, 7, 60, 103
9, 183917, Note_on_c, 7, 60, 0
9, 183936, Note_on_c, 7, 60, 103
9, 184034, Note_on_c, 7, 60, 0
9, 184128, Note_on_c, 7, 60, 103
9, 184226, Note_on_c, 7, 60, 0
9, 184320, Note_on_c, 7, 55, 103
9, 184416, Note_on_c, 7, 55, 0
9, 184512, Note_on_c, 7, 55, 103
9, 184608, Note_on_c, 7, 55, 0
9, 186624, Note_on_c, 7, 60, 103
9, 186732, Note_on_c, 7, 60, 0
9, 186816, Note_on_c, 7, 60, 103
9, 186902, Note_on_c, 7, 60, 0
9, 186964, Note_on_c, 7, 60, 103
9, 186991, Note_on_c, 7, 60, 0
9, 187008, Note_on_c, 7, 60, 103
9, 187104, Note_on_c, 7, 60, 0
9, 187200, Note_on_c, 7, 60, 103
9, 187296, Note_on_c, 7, 60, 0
9, 187392, Control_c, 7, 11, 112
9, 187392, Note_on_c, 7, 60, 103
9, 187396, Control_c, 7, 11, 114
9, 187405, Control_c, 7, 11, 117
9, 187409, Control_c, 7, 11, 121
9, 187418, Control_c, 7, 11, 123
9, 187461, Control_c, 7, 11, 124
9, 187474, Control_c, 7, 11, 122
9, 187488, Control_c, 7, 11, 119
9, 187496, Control_c, 7, 11, 114
9, 187509, Control_c, 7, 11, 111
9, 187514, Control_c, 7, 11, 110
9, 187522, Control_c, 7, 11, 105
9, 187527, Control_c, 7, 11, 104
9, 187536, Control_c, 7, 11, 102
9, 187540, Control_c, 7, 11, 101
9, 187549, Control_c, 7, 11, 99
9, 187553, Control_c, 7, 11, 98
9, 187562, Control_c, 7, 11, 96
9, 187566, Control_c, 7, 11, 95
9, 187850, Control_c, 7, 11, 92
9, 187854, Control_c, 7, 11, 90
9, 187863, Control_c, 7, 11, 87
9, 187867, Control_c, 7, 11, 86
9, 187876, Control_c, 7, 11, 83
9, 187889, Control_c, 7, 11, 81
9, 187893, Control_c, 7, 11, 80
9, 187940, Note_on_c, 7, 60, 0
9, 187941, Control_c, 7, 11, 78
9, 188538, Control_c, 7, 11, 127
9, 189696, Note_on_c, 7, 60, 103
9, 189852, Note_on_c, 7, 60, 0
9, 190464, Note_on_c, 7, 60, 103
9, 190620, Note_on_c, 7, 60, 0
9, 190848, Note_on_c, 7, 55, 103
9, 191004, Note_on_c, 7, 55, 0
9, 191232, Note_on_c, 7, 60, 103
9, 191388, Note_on_c, 7, 60, 0
9, 192768, Note_on_c, 7, 64, 103
9, 192924, Note_on_c, 7, 64, 0
9, 193344, Note_on_c, 7, 67, 103
9, 193464, Note_on_c, 7, 67, 0
9, 193536, Note_on_c, 7, 72, 103
9, 193692, Note_on_c, 7, 72, 0
9, 194112, Note_on_c, 7, 67, 103
9, 194232, Note_on_c, 7, 67, 0
9, 194304, Note_on_c, 7, 64, 103
9, 194460, Note_on_c, 7, 64, 0
9, 195072, Note_on_c, 7, 60, 103
9, 195759, Note_on_c, 7, 60, 0
9, 195840, Note_on_c, 7, 64, 103
9, 196525, Note_on_c, 7, 64, 0
9, 196608, Note_on_c, 7, 67, 103
9, 197293, Note_on_c, 7, 67, 0
9, 197376, Note_on_c, 7, 72, 103
9, 198059, Note_on_c, 7, 72, 0
9, 198144, Note_on_c, 7, 67, 103
9, 198827, Note_on_c, 7, 67, 0
9, 198912, Note_on_c, 7, 64, 103
9, 199596, Note_on_c, 7, 64, 0
9, 199680, Note_on_c, 7, 60, 103
9, 200362, Note_on_c, 7, 60, 0
9, 204864, Control_c, 7, 121, 0
9, 204864, End_track
10, 0, Start_track
10, 0, MIDI_port, 0
10, 0, Title_t, "Timpani"
10, 0, Program_c, 8, 47
10, 0, Control_c, 8, 7, 105
10, 0, Control_c, 8, 10, 81
10, 0, Text_t, ""
10, 96, Control_c, 8, 121, 0
10, 192, Control_c, 8, 91, 54
10, 288, Control_c, 8, 93, 5
10, 774, Note_on_c, 8, 48, 103
10, 1148, Note_on_c, 8, 48, 0
10, 1488, Note_on_c, 8, 48, 103
10, 1504, Note_on_c, 8, 48, 103
10, 1512, Note_on_c, 8, 48, 0
10, 1528, Note_on_c, 8, 48, 0
10, 1536, Note_on_c, 8, 48, 103
10, 2096, Note_on_c, 8, 48, 0
10, 2256, Note_on_c, 8, 48, 103
10, 2280, Note_on_c, 8, 48, 0
10, 2280, Note_on_c, 8, 48, 103
10, 2304, Note_on_c, 8, 48, 0
10, 2304, Note_on_c, 8, 48, 103
10, 2438, Note_on_c, 8, 48, 0
10, 2496, Note_on_c, 8, 48, 103
10, 2630, Note_on_c, 8, 48, 0
10, 2688, Note_on_c, 8, 48, 103
10, 2822, Note_on_c, 8, 48, 0
10, 2880, Note_on_c, 8, 48, 103
10, 3014, Note_on_c, 8, 48, 0
10, 3072, Note_on_c, 8, 43, 103
10, 3206, Note_on_c, 8, 43, 0
10, 3264, Note_on_c, 8, 43, 103
10, 3398, Note_on_c, 8, 43, 0
10, 5382, Note_on_c, 8, 48, 103
10, 5516, Note_on_c, 8, 48, 0
10, 5568, Note_on_c, 8, 48, 103
10, 5668, Note_on_c, 8, 48, 0
10, 5718, Note_on_c, 8, 48, 103
10, 5748, Note_on_c, 8, 48, 0
10, 5760, Note_on_c, 8, 48, 103
10, 5880, Note_on_c, 8, 48, 0
10, 5952, Note_on_c, 8, 48, 103
10, 6060, Note_on_c, 8, 48, 0
10, 6151, Note_on_c, 8, 48, 103
10, 6339, Note_on_c, 8, 48, 0
10, 6917, Note_on_c, 8, 43, 103
10, 7051, Note_on_c, 8, 43, 0
10, 7108, Note_on_c, 8, 43, 103
10, 7216, Note_on_c, 8, 43, 0
10, 7254, Note_on_c, 8, 43, 103
10, 7284, Note_on_c, 8, 43, 0
10, 7296, Note_on_c, 8, 43, 103
10, 7430, Note_on_c, 8, 43, 0
10, 7492, Note_on_c, 8, 43, 103
10, 7634, Note_on_c, 8, 43, 0
10, 7680, Note_on_c, 8, 48, 103
10, 7800, Note_on_c, 8, 48, 0
10, 7875, Note_on_c, 8, 48, 103
10, 7965, Note_on_c, 8, 48, 0
10, 8064, Note_on_c, 8, 43, 103
10, 8154, Note_on_c, 8, 43, 0
10, 8453, Note_on_c, 8, 48, 103
10, 8593, Note_on_c, 8, 48, 0
10, 8647, Note_on_c, 8, 48, 103
10, 8755, Note_on_c, 8, 48, 0
10, 8791, Note_on_c, 8, 48, 103
10, 8821, Note_on_c, 8, 48, 0
10, 8832, Note_on_c, 8, 48, 103
10, 8966, Note_on_c, 8, 48, 0
10, 9024, Note_on_c, 8, 48, 103
10, 9132, Note_on_c, 8, 48, 0
10, 9223, Note_on_c, 8, 48, 103
10, 9411, Note_on_c, 8, 48, 0
10, 15360, Note_on_c, 8, 48, 103
10, 15538, Note_on_c, 8, 48, 0
10, 16128, Note_on_c, 8, 48, 82
10, 16284, Note_on_c, 8, 48, 0
10, 16320, Note_on_c, 8, 48, 82
10, 16422, Note_on_c, 8, 48, 0
10, 16469, Note_on_c, 8, 48, 82
10, 16499, Note_on_c, 8, 48, 0
10, 16512, Note_on_c, 8, 48, 82
10, 16660, Note_on_c, 8, 48, 0
10, 16704, Note_on_c, 8, 48, 82
10, 16852, Note_on_c, 8, 48, 0
10, 16896, Note_on_c, 8, 48, 82
10, 17074, Note_on_c, 8, 48, 0
10, 17664, Note_on_c, 8, 48, 82
10, 17820, Note_on_c, 8, 48, 0
10, 17856, Note_on_c, 8, 48, 82
10, 17958, Note_on_c, 8, 48, 0
10, 18006, Note_on_c, 8, 48, 82
10, 18036, Note_on_c, 8, 48, 0
10, 18048, Note_on_c, 8, 48, 82
10, 18196, Note_on_c, 8, 48, 0
10, 18240, Note_on_c, 8, 48, 82
10, 18388, Note_on_c, 8, 48, 0
10, 18432, Note_on_c, 8, 43, 82
10, 18610, Note_on_c, 8, 43, 0
10, 19200, Note_on_c, 8, 43, 82
10, 19356, Note_on_c, 8, 43, 0
10, 19392, Note_on_c, 8, 43, 82
10, 19494, Note_on_c, 8, 43, 0
10, 19541, Note_on_c, 8, 43, 82
10, 19571, Note_on_c, 8, 43, 0
10, 19584, Note_on_c, 8, 43, 82
10, 19732, Note_on_c, 8, 43, 0
10, 19776, Note_on_c, 8, 43, 82
10, 19924, Note_on_c, 8, 43, 0
10, 19968, Note_on_c, 8, 48, 82
10, 20146, Note_on_c, 8, 48, 0
10, 21504, Note_on_c, 8, 43, 82
10, 21682, Note_on_c, 8, 43, 0
10, 22272, Note_on_c, 8, 48, 82
10, 22450, Note_on_c, 8, 48, 0
10, 23040, Note_on_c, 8, 43, 82
10, 23218, Note_on_c, 8, 43, 0
10, 55296, Note_on_c, 8, 43, 94
10, 55484, Note_on_c, 8, 43, 0
10, 56064, Note_on_c, 8, 43, 93
10, 56242, Note_on_c, 8, 43, 0
10, 56448, Note_on_c, 8, 43, 93
10, 56626, Note_on_c, 8, 43, 0
10, 56640, Note_on_c, 8, 43, 93
10, 56818, Note_on_c, 8, 43, 0
10, 56832, Note_on_c, 8, 43, 92
10, 57010, Note_on_c, 8, 43, 0
10, 58368, Note_on_c, 8, 43, 81
10, 58546, Note_on_c, 8, 43, 0
10, 59904, Note_on_c, 8, 43, 82
10, 60082, Note_on_c, 8, 43, 0
10, 61440, Note_on_c, 8, 43, 82
10, 61618, Note_on_c, 8, 43, 0
10, 62976, Note_on_c, 8, 43, 64
10, 63154, Note_on_c, 8, 43, 0
10, 67584, Note_on_c, 8, 43, 103
10, 67762, Note_on_c, 8, 43, 0
10, 70656, Note_on_c, 8, 48, 103
10, 70834, Note_on_c, 8, 48, 0
10, 71424, Note_on_c, 8, 48, 103
10, 71602, Note_on_c, 8, 48, 0
10, 72192, Note_on_c, 8, 43, 103
10, 72370, Note_on_c, 8, 43, 0
10, 72960, Note_on_c, 8, 43, 116
10, 73138, Note_on_c, 8, 43, 0
10, 73152, Note_on_c, 8, 43, 116
10, 73242, Note_on_c, 8, 43, 0
10, 73248, Note_on_c, 8, 43, 116
10, 73338, Note_on_c, 8, 43, 0
10, 73344, Note_on_c, 8, 43, 116
10, 73522, Note_on_c, 8, 43, 0
10, 73536, Note_on_c, 8, 43, 116
10, 73714, Note_on_c, 8, 43, 0
10, 73728, Note_on_c, 8, 43, 103
10, 73906, Note_on_c, 8, 43, 0
10, 74496, Note_on_c, 8, 43, 103
10, 74674, Note_on_c, 8, 43, 0
10, 75264, Note_on_c, 8, 43, 103
10, 75442, Note_on_c, 8, 43, 0
10, 76032, Note_on_c, 8, 43, 116
10, 76210, Note_on_c, 8, 43, 0
10, 76224, Note_on_c, 8, 43, 116
10, 76314, Note_on_c, 8, 43, 0
10, 76320, Note_on_c, 8, 43, 116
10, 76410, Note_on_c, 8, 43, 0
10, 76416, Note_on_c, 8, 43, 116
10, 76594, Note_on_c, 8, 43, 0
10, 76608, Note_on_c, 8, 43, 116
10, 76786, Note_on_c, 8, 43, 0
10, 76800, Note_on_c, 8, 43, 103
10, 76978, Note_on_c, 8, 43, 0
10, 79872, Note_on_c, 8, 43, 103
10, 80050, Note_on_c, 8, 43, 0
10, 80640, Note_on_c, 8, 43, 103
10, 80818, Note_on_c, 8, 43, 0
10, 81408, Note_on_c, 8, 43, 103
10, 81586, Note_on_c, 8, 43, 0
10, 82176, Note_on_c, 8, 43, 103
10, 82354, Note_on_c, 8, 43, 0
10, 82944, Note_on_c, 8, 43, 103
10, 83122, Note_on_c, 8, 43, 0
10, 84480, Note_on_c, 8, 43, 103
10, 84658, Note_on_c, 8, 43, 0
10, 85248, Note_on_c, 8, 43, 103
10, 85426, Note_on_c, 8, 43, 0
10, 86016, Note_on_c, 8, 43, 103
10, 86194, Note_on_c, 8, 43, 0
10, 87552, Note_on_c, 8, 43, 103
10, 87730, Note_on_c, 8, 43, 0
10, 89088, Note_on_c, 8, 43, 103
10, 89266, Note_on_c, 8, 43, 0
10, 90624, Note_on_c, 8, 43, 103
10, 90802, Note_on_c, 8, 43, 0
10, 92160, Note_on_c, 8, 43, 103
10, 92338, Note_on_c, 8, 43, 0
10, 93696, Note_on_c, 8, 43, 103
10, 93874, Note_on_c, 8, 43, 0
10, 95232, Note_on_c, 8, 43, 103
10, 95410, Note_on_c, 8, 43, 0
10, 121350, Note_on_c, 8, 48, 103
10, 121724, Note_on_c, 8, 48, 0
10, 122064, Note_on_c, 8, 48, 103
10, 122088, Note_on_c, 8, 48, 0
10, 122088, Note_on_c, 8, 48, 103
10, 122112, Note_on_c, 8, 48, 0
10, 122112, Note_on_c, 8, 48, 103
10, 122672, Note_on_c, 8, 48, 0
10, 122832, Note_on_c, 8, 48, 103
10, 122856, Note_on_c, 8, 48, 0
10, 122856, Note_on_c, 8, 48, 103
10, 122880, Note_on_c, 8, 48, 0
10, 122880, Note_on_c, 8, 48, 103
10, 123014, Note_on_c, 8, 48, 0
10, 123072, Note_on_c, 8, 48, 103
10, 123206, Note_on_c, 8, 48, 0
10, 123264, Note_on_c, 8, 48, 103
10, 123398, Note_on_c, 8, 48, 0
10, 123456, Note_on_c, 8, 48, 103
10, 123590, Note_on_c, 8, 48, 0
10, 123648, Note_on_c, 8, 43, 103
10, 123782, Note_on_c, 8, 43, 0
10, 123840, Note_on_c, 8, 43, 103
10, 123974, Note_on_c, 8, 43, 0
10, 124420, Note_on_c, 8, 48, 103
10, 124598, Note_on_c, 8, 48, 0
10, 125188, Note_on_c, 8, 43, 103
10, 125322, Note_on_c, 8, 43, 0
10, 125380, Note_on_c, 8, 43, 103
10, 125470, Note_on_c, 8, 43, 0
10, 125524, Note_on_c, 8, 43, 103
10, 125570, Note_on_c, 8, 43, 0
10, 125572, Note_on_c, 8, 43, 103
10, 125750, Note_on_c, 8, 43, 0
10, 125764, Note_on_c, 8, 43, 103
10, 125942, Note_on_c, 8, 43, 0
10, 125956, Note_on_c, 8, 48, 103
10, 126134, Note_on_c, 8, 48, 0
10, 126724, Note_on_c, 8, 48, 103
10, 126858, Note_on_c, 8, 48, 0
10, 126916, Note_on_c, 8, 48, 103
10, 127006, Note_on_c, 8, 48, 0
10, 127060, Note_on_c, 8, 48, 103
10, 127106, Note_on_c, 8, 48, 0
10, 127108, Note_on_c, 8, 48, 103
10, 127286, Note_on_c, 8, 48, 0
10, 127300, Note_on_c, 8, 48, 103
10, 127478, Note_on_c, 8, 48, 0
10, 127492, Note_on_c, 8, 48, 103
10, 127670, Note_on_c, 8, 48, 0
10, 128260, Note_on_c, 8, 48, 103
10, 128394, Note_on_c, 8, 48, 0
10, 128452, Note_on_c, 8, 48, 103
10, 128542, Note_on_c, 8, 48, 0
10, 128596, Note_on_c, 8, 48, 103
10, 128642, Note_on_c, 8, 48, 0
10, 128644, Note_on_c, 8, 48, 103
10, 128822, Note_on_c, 8, 48, 0
10, 128836, Note_on_c, 8, 48, 103
10, 129014, Note_on_c, 8, 48, 0
10, 129028, Note_on_c, 8, 48, 103
10, 129206, Note_on_c, 8, 48, 0
10, 129796, Note_on_c, 8, 48, 103
10, 129930, Note_on_c, 8, 48, 0
10, 129988, Note_on_c, 8, 48, 103
10, 130078, Note_on_c, 8, 48, 0
10, 130132, Note_on_c, 8, 48, 103
10, 130178, Note_on_c, 8, 48, 0
10, 130180, Note_on_c, 8, 48, 103
10, 130358, Note_on_c, 8, 48, 0
10, 130372, Note_on_c, 8, 48, 103
10, 130550, Note_on_c, 8, 48, 0
10, 130564, Note_on_c, 8, 48, 103
10, 130742, Note_on_c, 8, 48, 0
10, 130948, Note_on_c, 8, 48, 103
10, 131126, Note_on_c, 8, 48, 0
10, 131140, Note_on_c, 8, 48, 103
10, 131318, Note_on_c, 8, 48, 0
10, 131332, Note_on_c, 8, 43, 103
10, 131510, Note_on_c, 8, 43, 0
10, 132100, Note_on_c, 8, 43, 103
10, 132278, Note_on_c, 8, 43, 0
10, 132868, Note_on_c, 8, 43, 103
10, 133046, Note_on_c, 8, 43, 0
10, 133252, Note_on_c, 8, 43, 103
10, 133430, Note_on_c, 8, 43, 0
10, 133636, Note_on_c, 8, 43, 103
10, 133990, Note_on_c, 8, 43, 0
10, 134404, Note_on_c, 8, 43, 109
10, 134438, Note_on_c, 8, 43, 0
10, 134440, Note_on_c, 8, 43, 107
10, 134474, Note_on_c, 8, 43, 0
10, 134476, Note_on_c, 8, 43, 104
10, 134510, Note_on_c, 8, 43, 0
10, 134512, Note_on_c, 8, 43, 103
10, 134546, Note_on_c, 8, 43, 0
10, 134548, Note_on_c, 8, 43, 103
10, 134582, Note_on_c, 8, 43, 0
10, 134584, Note_on_c, 8, 43, 100
10, 134616, Note_on_c, 8, 43, 0
10, 134618, Note_on_c, 8, 43, 95
10, 134650, Note_on_c, 8, 43, 0
10, 134652, Note_on_c, 8, 43, 89
10, 134684, Note_on_c, 8, 43, 0
10, 134686, Note_on_c, 8, 43, 86
10, 134718, Note_on_c, 8, 43, 0
10, 134720, Note_on_c, 8, 43, 80
10, 134752, Note_on_c, 8, 43, 0
10, 134754, Note_on_c, 8, 43, 79
10, 134786, Note_on_c, 8, 43, 0
10, 134788, Note_on_c, 8, 43, 79
10, 134822, Note_on_c, 8, 43, 0
10, 134824, Note_on_c, 8, 43, 77
10, 134858, Note_on_c, 8, 43, 0
10, 134860, Note_on_c, 8, 43, 77
10, 134894, Note_on_c, 8, 43, 0
10, 134896, Note_on_c, 8, 43, 77
10, 134930, Note_on_c, 8, 43, 0
10, 134932, Note_on_c, 8, 43, 77
10, 134966, Note_on_c, 8, 43, 0
10, 134968, Note_on_c, 8, 43, 78
10, 135000, Note_on_c, 8, 43, 0
10, 135002, Note_on_c, 8, 43, 78
10, 135034, Note_on_c, 8, 43, 0
10, 135036, Note_on_c, 8, 43, 78
10, 135068, Note_on_c, 8, 43, 0
10, 135070, Note_on_c, 8, 43, 78
10, 135102, Note_on_c, 8, 43, 0
10, 135104, Note_on_c, 8, 43, 78
10, 135136, Note_on_c, 8, 43, 0
10, 135138, Note_on_c, 8, 43, 77
10, 135170, Note_on_c, 8, 43, 0
10, 135172, Note_on_c, 8, 43, 96
10, 135350, Note_on_c, 8, 43, 0
10, 153600, Note_on_c, 8, 43, 64
10, 153778, Note_on_c, 8, 43, 0
10, 155136, Note_on_c, 8, 43, 55
10, 155314, Note_on_c, 8, 43, 0
10, 156672, Note_on_c, 8, 43, 55
10, 156850, Note_on_c, 8, 43, 0
10, 158208, Note_on_c, 8, 43, 55
10, 158386, Note_on_c, 8, 43, 0
10, 159744, Note_on_c, 8, 48, 55
10, 159922, Note_on_c, 8, 48, 0
10, 160512, Note_on_c, 8, 43, 103
10, 160690, Note_on_c, 8, 43, 0
10, 163584, Note_on_c, 8, 48, 103
10, 163762, Note_on_c, 8, 48, 0
10, 163968, Note_on_c, 8, 48, 103
10, 164146, Note_on_c, 8, 48, 0
10, 164352, Note_on_c, 8, 43, 103
10, 164530, Note_on_c, 8, 43, 0
10, 164736, Note_on_c, 8, 43, 103
10, 164914, Note_on_c, 8, 43, 0
10, 165120, Note_on_c, 8, 43, 103
10, 165298, Note_on_c, 8, 43, 0
10, 165504, Note_on_c, 8, 43, 103
10, 165682, Note_on_c, 8, 43, 0
10, 165696, Note_on_c, 8, 43, 103
10, 165874, Note_on_c, 8, 43, 0
10, 165888, Note_on_c, 8, 48, 103
10, 166066, Note_on_c, 8, 48, 0
10, 166656, Note_on_c, 8, 43, 103
10, 166834, Note_on_c, 8, 43, 0
10, 169728, Note_on_c, 8, 48, 103
10, 169906, Note_on_c, 8, 48, 0
10, 170112, Note_on_c, 8, 48, 103
10, 170246, Note_on_c, 8, 48, 0
10, 170304, Note_on_c, 8, 48, 103
10, 170438, Note_on_c, 8, 48, 0
10, 170496, Note_on_c, 8, 48, 103
10, 170674, Note_on_c, 8, 48, 0
10, 170880, Note_on_c, 8, 48, 103
10, 171014, Note_on_c, 8, 48, 0
10, 171072, Note_on_c, 8, 48, 103
10, 171206, Note_on_c, 8, 48, 0
10, 171264, Note_on_c, 8, 48, 103
10, 171442, Note_on_c, 8, 48, 0
10, 171648, Note_on_c, 8, 48, 103
10, 171782, Note_on_c, 8, 48, 0
10, 171840, Note_on_c, 8, 48, 103
10, 171974, Note_on_c, 8, 48, 0
10, 172032, Note_on_c, 8, 48, 103
10, 172210, Note_on_c, 8, 48, 0
10, 172416, Note_on_c, 8, 48, 103
10, 172550, Note_on_c, 8, 48, 0
10, 172608, Note_on_c, 8, 48, 103
10, 172742, Note_on_c, 8, 48, 0
10, 172800, Note_on_c, 8, 48, 103
10, 172978, Note_on_c, 8, 48, 0
10, 173568, Note_on_c, 8, 48, 103
10, 173746, Note_on_c, 8, 48, 0
10, 174336, Note_on_c, 8, 48, 103
10, 174514, Note_on_c, 8, 48, 0
10, 175104, Note_on_c, 8, 48, 103
10, 175238, Note_on_c, 8, 48, 0
10, 175296, Note_on_c, 8, 43, 103
10, 175452, Note_on_c, 8, 43, 0
10, 175488, Note_on_c, 8, 43, 103
10, 175644, Note_on_c, 8, 43, 0
10, 175680, Note_on_c, 8, 43, 103
10, 175836, Note_on_c, 8, 43, 0
10, 175872, Note_on_c, 8, 43, 103
10, 176028, Note_on_c, 8, 43, 0
10, 178944, Note_on_c, 8, 48, 103
10, 179122, Note_on_c, 8, 48, 0
10, 179712, Note_on_c, 8, 48, 103
10, 179890, Note_on_c, 8, 48, 0
10, 180480, Note_on_c, 8, 48, 103
10, 180658, Note_on_c, 8, 48, 0
10, 181248, Note_on_c, 8, 48, 103
10, 181426, Note_on_c, 8, 48, 0
10, 182022, Note_on_c, 8, 48, 103
10, 182396, Note_on_c, 8, 48, 0
10, 182736, Note_on_c, 8, 48, 103
10, 182752, Note_on_c, 8, 48, 103
10, 182760, Note_on_c, 8, 48, 0
10, 182776, Note_on_c, 8, 48, 0
10, 182784, Note_on_c, 8, 48, 103
10, 183344, Note_on_c, 8, 48, 0
10, 183504, Note_on_c, 8, 48, 103
10, 183528, Note_on_c, 8, 48, 0
10, 183528, Note_on_c, 8, 48, 103
10, 183552, Note_on_c, 8, 48, 0
10, 183552, Note_on_c, 8, 48, 103
10, 183686, Note_on_c, 8, 48, 0
10, 183744, Note_on_c, 8, 48, 103
10, 183878, Note_on_c, 8, 48, 0
10, 183936, Note_on_c, 8, 48, 103
10, 184070, Note_on_c, 8, 48, 0
10, 184128, Note_on_c, 8, 48, 103
10, 184262, Note_on_c, 8, 48, 0
10, 184320, Note_on_c, 8, 43, 103
10, 184454, Note_on_c, 8, 43, 0
10, 184512, Note_on_c, 8, 43, 103
10, 184646, Note_on_c, 8, 43, 0
10, 186629, Note_on_c, 8, 48, 103
10, 186769, Note_on_c, 8, 48, 0
10, 186823, Note_on_c, 8, 48, 103
10, 186931, Note_on_c, 8, 48, 0
10, 186967, Note_on_c, 8, 48, 103
10, 186997, Note_on_c, 8, 48, 0
10, 187008, Note_on_c, 8, 48, 103
10, 187142, Note_on_c, 8, 48, 0
10, 187200, Note_on_c, 8, 48, 103
10, 187308, Note_on_c, 8, 48, 0
10, 187399, Note_on_c, 8, 48, 103
10, 187587, Note_on_c, 8, 48, 0
10, 189696, Note_on_c, 8, 43, 103
10, 189874, Note_on_c, 8, 43, 0
10, 190080, Note_on_c, 8, 48, 103
10, 190258, Note_on_c, 8, 48, 0
10, 190464, Note_on_c, 8, 48, 103
10, 190642, Note_on_c, 8, 48, 0
10, 190848, Note_on_c, 8, 43, 103
10, 191026, Note_on_c, 8, 43, 0
10, 191232, Note_on_c, 8, 48, 103
10, 191388, Note_on_c, 8, 48, 0
10, 192768, Note_on_c, 8, 48, 103
10, 192924, Note_on_c, 8, 48, 0
10, 193344, Note_on_c, 8, 43, 103
10, 193478, Note_on_c, 8, 43, 0
10, 193536, Note_on_c, 8, 48, 103
10, 193692, Note_on_c, 8, 48, 0
10, 194112, Note_on_c, 8, 43, 103
10, 194246, Note_on_c, 8, 43, 0
10, 194304, Note_on_c, 8, 48, 103
10, 194460, Note_on_c, 8, 48, 0
10, 195072, Note_on_c, 8, 48, 103
10, 195228, Note_on_c, 8, 48, 0
10, 195840, Note_on_c, 8, 48, 103
10, 195996, Note_on_c, 8, 48, 0
10, 196608, Note_on_c, 8, 48, 103
10, 196764, Note_on_c, 8, 48, 0
10, 197376, Note_on_c, 8, 48, 103
10, 197532, Note_on_c, 8, 48, 0
10, 198144, Note_on_c, 8, 48, 103
10, 198300, Note_on_c, 8, 48, 0
10, 198912, Note_on_c, 8, 48, 103
10, 199068, Note_on_c, 8, 48, 0
10, 199680, Note_on_c, 8, 48, 103
10, 199836, Note_on_c, 8, 48, 0
10, 200448, Note_on_c, 8, 48, 116
10, 200582, Note_on_c, 8, 48, 0
10, 200640, Note_on_c, 8, 48, 116
10, 200730, Note_on_c, 8, 48, 0
10, 200784, Note_on_c, 8, 48, 116
10, 200830, Note_on_c, 8, 48, 0
10, 200832, Note_on_c, 8, 48, 116
10, 200966, Note_on_c, 8, 48, 0
10, 201024, Note_on_c, 8, 48, 116
10, 201158, Note_on_c, 8, 48, 0
10, 201216, Note_on_c, 8, 48, 116
10, 201350, Note_on_c, 8, 48, 0
10, 201408, Note_on_c, 8, 48, 116
10, 201542, Note_on_c, 8, 48, 0
10, 201600, Note_on_c, 8, 48, 116
10, 201734, Note_on_c, 8, 48, 0
10, 201792, Note_on_c, 8, 48, 116
10, 201926, Note_on_c, 8, 48, 0
10, 201984, Note_on_c, 8, 48, 116
10, 202338, Note_on_c, 8, 48, 0
10, 202368, Note_on_c, 8, 48, 116
10, 202634, Note_on_c, 8, 48, 0
10, 202656, Note_on_c, 8, 48, 116
10, 202724, Note_on_c, 8, 48, 0
10, 202752, Note_on_c, 8, 48, 116
10, 203106, Note_on_c, 8, 48, 0
10, 204864, Control_c, 8, 121, 0
10, 204864, End_track
11, 0, Start_track
11, 0, MIDI_port, 0
11, 0, Title_t, "Tutti strings"
11, 0, Program_c, 10, 48
11, 0, Control_c, 10, 7, 127
11, 0, Control_c, 10, 10, 60
11, 0, Text_t, ""
11, 96, Control_c, 10, 121, 0
11, 192, Control_c, 10, 91, 54
11, 288, Control_c, 10, 93, 12
11, 741, Control_c, 10, 11, 111
11, 744, Note_on_c, 10, 67, 103
11, 746, Control_c, 10, 11, 112
11, 754, Control_c, 10, 11, 115
11, 756, Note_on_c, 10, 76, 103
11, 768, Control_c, 10, 11, 121
11, 771, Note_on_c, 10, 84, 116
11, 772, Control_c, 10, 11, 124
11, 781, Control_c, 10, 11, 127
11, 794, Control_c, 10, 11, 126
11, 840, Note_on_c, 10, 67, 0
11, 846, Control_c, 10, 11, 125
11, 859, Control_c, 10, 11, 123
11, 864, Control_c, 10, 11, 122
11, 885, Control_c, 10, 11, 120
11, 896, Note_on_c, 10, 76, 0
11, 1056, Control_c, 10, 11, 119
11, 1060, Control_c, 10, 11, 117
11, 1073, Control_c, 10, 11, 116
11, 1082, Control_c, 10, 11, 114
11, 1095, Control_c, 10, 11, 113
11, 1099, Control_c, 10, 11, 110
11, 1112, Control_c, 10, 11, 108
11, 1121, Control_c, 10, 11, 105
11, 1138, Control_c, 10, 11, 104
11, 1167, Note_on_c, 10, 84, 0
11, 1461, Control_c, 10, 11, 125
11, 1488, Note_on_c, 10, 60, 127
11, 1526, Note_on_c, 10, 60, 0
11, 1536, Note_on_c, 10, 60, 127
11, 1549, Control_c, 10, 11, 109
11, 1557, Control_c, 10, 11, 112
11, 1566, Control_c, 10, 11, 114
11, 1570, Control_c, 10, 11, 115
11, 1579, Control_c, 10, 11, 117
11, 1584, Control_c, 10, 11, 118
11, 1597, Control_c, 10, 11, 120
11, 1605, Control_c, 10, 11, 121
11, 1618, Control_c, 10, 11, 124
11, 1658, Control_c, 10, 11, 126
11, 1671, Control_c, 10, 11, 127
11, 1928, Control_c, 10, 11, 125
11, 1933, Control_c, 10, 11, 124
11, 1950, Control_c, 10, 11, 123
11, 1959, Control_c, 10, 11, 122
11, 1972, Control_c, 10, 11, 120
11, 1976, Control_c, 10, 11, 119
11, 1985, Control_c, 10, 11, 117
11, 1998, Control_c, 10, 11, 114
11, 2016, Control_c, 10, 11, 113
11, 2024, Control_c, 10, 11, 111
11, 2029, Control_c, 10, 11, 110
11, 2037, Control_c, 10, 11, 108
11, 2042, Control_c, 10, 11, 107
11, 2044, Note_on_c, 10, 60, 0
11, 2050, Control_c, 10, 11, 105
11, 2064, Control_c, 10, 11, 104
11, 2247, Control_c, 10, 11, 127
11, 2256, Note_on_c, 10, 55, 127
11, 2272, Note_on_c, 10, 55, 0
11, 2272, Note_on_c, 10, 57, 127
11, 2288, Note_on_c, 10, 57, 0
11, 2288, Note_on_c, 10, 59, 127
11, 2304, Note_on_c, 10, 59, 0
11, 2304, Note_on_c, 10, 60, 127
11, 2390, Note_on_c, 10, 60, 0
11, 2496, Note_on_c, 10, 64, 127
11, 2582, Note_on_c, 10, 64, 0
11, 2688, Note_on_c, 10, 67, 127
11, 2774, Note_on_c, 10, 67, 0
11, 2880, Note_on_c, 10, 72, 127
11, 2966, Note_on_c, 10, 72, 0
11, 3040, Note_on_c, 10, 72, 127
11, 3072, Note_on_c, 10, 72, 0
11, 3072, Note_on_c, 10, 71, 127
11, 3096, Note_on_c, 10, 71, 0
11, 3096, Note_on_c, 10, 72, 127
11, 3120, Note_on_c, 10, 72, 0
11, 3120, Note_on_c, 10, 71, 127
11, 3176, Note_on_c, 10, 71, 0
11, 3218, Note_on_c, 10, 69, 127
11, 3254, Note_on_c, 10, 69, 0
11, 3264, Control_c, 10, 11, 125
11, 3264, Note_on_c, 10, 67, 127
11, 3270, Control_c, 10, 11, 123
11, 3284, Control_c, 10, 11, 120
11, 3291, Control_c, 10, 11, 119
11, 3305, Control_c, 10, 11, 117
11, 3312, Control_c, 10, 11, 116
11, 3325, Control_c, 10, 11, 114
11, 3332, Control_c, 10, 11, 113
11, 3346, Control_c, 10, 11, 110
11, 3353, Control_c, 10, 11, 104
11, 3366, Control_c, 10, 11, 101
11, 3373, Control_c, 10, 11, 98
11, 3394, Control_c, 10, 11, 96
11, 3404, Note_on_c, 10, 67, 0
11, 3408, Control_c, 10, 11, 95
11, 3634, Control_c, 10, 11, 127
11, 3648, Note_on_c, 10, 72, 46
11, 3750, Note_on_c, 10, 72, 0
11, 3808, Note_on_c, 10, 72, 46
11, 3840, Note_on_c, 10, 72, 0
11, 3840, Note_on_c, 10, 71, 46
11, 3864, Note_on_c, 10, 71, 0
11, 3864, Note_on_c, 10, 72, 46
11, 3888, Note_on_c, 10, 72, 0
11, 3888, Note_on_c, 10, 71, 46
11, 3948, Note_on_c, 10, 71, 0
11, 3984, Note_on_c, 10, 69, 46
11, 4018, Note_on_c, 10, 69, 0
11, 4032, Note_on_c, 10, 67, 46
11, 4100, Note_on_c, 10, 67, 0
11, 4128, Note_on_c, 10, 72, 46
11, 4174, Note_on_c, 10, 72, 0
11, 4192, Note_on_c, 10, 72, 46
11, 4224, Note_on_c, 10, 72, 0
11, 4224, Note_on_c, 10, 71, 46
11, 4248, Note_on_c, 10, 71, 0
11, 4248, Note_on_c, 10, 72, 46
11, 4272, Note_on_c, 10, 72, 0
11, 4272, Note_on_c, 10, 71, 46
11, 4324, Note_on_c, 10, 71, 0
11, 4368, Note_on_c, 10, 69, 46
11, 4402, Note_on_c, 10, 69, 0
11, 4416, Note_on_c, 10, 67, 46
11, 4484, Note_on_c, 10, 67, 0
11, 4512, Note_on_c, 10, 72, 46
11, 4558, Note_on_c, 10, 72, 0
11, 4576, Note_on_c, 10, 72, 46
11, 4608, Note_on_c, 10, 72, 0
11, 4608, Note_on_c, 10, 71, 46
11, 4632, Note_on_c, 10, 71, 0
11, 4632, Note_on_c, 10, 72, 46
11, 4656, Note_on_c, 10, 72, 0
11, 4656, Note_on_c, 10, 71, 46
11, 4716, Note_on_c, 10, 71, 0
11, 4752, Note_on_c, 10, 69, 46
11, 4786, Note_on_c, 10, 69, 0
11, 4800, Control_c, 10, 11, 123
11, 4800, Note_on_c, 10, 67, 46
11, 4813, Control_c, 10, 11, 122
11, 4827, Control_c, 10, 11, 119
11, 4834, Control_c, 10, 11, 117
11, 4848, Control_c, 10, 11, 114
11, 4854, Control_c, 10, 11, 113
11, 4868, Control_c, 10, 11, 108
11, 4875, Control_c, 10, 11, 107
11, 4896, Control_c, 10, 11, 105
11, 4934, Note_on_c, 10, 67, 0
11, 5321, Control_c, 10, 11, 127
11, 5376, Note_on_c, 10, 69, 103
11, 5476, Note_on_c, 10, 69, 0
11, 5568, Note_on_c, 10, 69, 103
11, 5648, Note_on_c, 10, 69, 0
11, 5713, Note_on_c, 10, 69, 103
11, 5737, Note_on_c, 10, 69, 0
11, 5760, Note_on_c, 10, 69, 103
11, 5858, Note_on_c, 10, 69, 0
11, 5952, Note_on_c, 10, 69, 103
11, 6050, Note_on_c, 10, 69, 0
11, 7680, Note_on_c, 10, 72, 103
11, 7768, Note_on_c, 10, 72, 0
11, 7872, Note_on_c, 10, 76, 103
11, 7960, Note_on_c, 10, 76, 0
11, 8064, Note_on_c, 10, 79, 103
11, 8152, Note_on_c, 10, 79, 0
11, 8448, Note_on_c, 10, 69, 103
11, 8548, Note_on_c, 10, 69, 0
11, 8640, Note_on_c, 10, 69, 103
11, 8720, Note_on_c, 10, 69, 0
11, 8786, Note_on_c, 10, 69, 103
11, 8810, Note_on_c, 10, 69, 0
11, 8832, Note_on_c, 10, 69, 103
11, 8930, Note_on_c, 10, 69, 0
11, 9024, Note_on_c, 10, 69, 103
11, 9122, Note_on_c, 10, 69, 0
11, 12288, Note_on_c, 10, 72, 44
11, 12288, Note_on_c, 10, 60, 44
11, 12466, Note_on_c, 10, 60, 0
11, 12466, Note_on_c, 10, 72, 0
11, 13056, Note_on_c, 10, 72, 52
11, 13104, Note_on_c, 10, 72, 0
11, 13104, Note_on_c, 10, 72, 52
11, 13152, Note_on_c, 10, 72, 0
11, 13152, Note_on_c, 10, 72, 52
11, 13200, Note_on_c, 10, 72, 0
11, 13200, Note_on_c, 10, 72, 52
11, 13248, Note_on_c, 10, 72, 0
11, 13248, Note_on_c, 10, 76, 52
11, 13296, Note_on_c, 10, 76, 0
11, 13296, Note_on_c, 10, 76, 52
11, 13344, Note_on_c, 10, 76, 0
11, 13344, Note_on_c, 10, 76, 52
11, 13392, Note_on_c, 10, 76, 0
11, 13392, Note_on_c, 10, 76, 52
11, 13440, Note_on_c, 10, 76, 0
11, 13440, Note_on_c, 10, 79, 52
11, 13488, Note_on_c, 10, 79, 0
11, 13488, Note_on_c, 10, 79, 52
11, 13536, Note_on_c, 10, 79, 0
11, 13536, Note_on_c, 10, 79, 52
11, 13584, Note_on_c, 10, 79, 0
11, 13584, Note_on_c, 10, 79, 52
11, 13632, Note_on_c, 10, 79, 0
11, 13632, Note_on_c, 10, 67, 52
11, 13680, Note_on_c, 10, 67, 0
11, 13680, Note_on_c, 10, 67, 53
11, 13728, Note_on_c, 10, 67, 0
11, 13728, Note_on_c, 10, 67, 54
11, 13776, Note_on_c, 10, 67, 0
11, 13776, Note_on_c, 10, 67, 55
11, 13824, Note_on_c, 10, 67, 0
11, 13824, Note_on_c, 10, 72, 56
11, 13872, Note_on_c, 10, 72, 0
11, 13872, Note_on_c, 10, 72, 57
11, 13920, Note_on_c, 10, 72, 0
11, 13920, Note_on_c, 10, 72, 58
11, 13968, Note_on_c, 10, 72, 0
11, 13968, Note_on_c, 10, 72, 59
11, 14016, Note_on_c, 10, 72, 0
11, 14016, Note_on_c, 10, 76, 60
11, 14064, Note_on_c, 10, 76, 0
11, 14064, Note_on_c, 10, 76, 62
11, 14112, Note_on_c, 10, 76, 0
11, 14112, Note_on_c, 10, 76, 63
11, 14160, Note_on_c, 10, 76, 0
11, 14160, Note_on_c, 10, 76, 64
11, 14208, Note_on_c, 10, 76, 0
11, 14208, Note_on_c, 10, 79, 65
11, 14256, Note_on_c, 10, 79, 0
11, 14256, Note_on_c, 10, 79, 66
11, 14304, Note_on_c, 10, 79, 0
11, 14304, Note_on_c, 10, 79, 67
11, 14352, Note_on_c, 10, 79, 0
11, 14352, Note_on_c, 10, 79, 69
11, 14400, Note_on_c, 10, 79, 0
11, 14400, Note_on_c, 10, 67, 70
11, 14448, Note_on_c, 10, 67, 0
11, 14448, Note_on_c, 10, 67, 71
11, 14496, Note_on_c, 10, 67, 0
11, 14496, Note_on_c, 10, 67, 73
11, 14544, Note_on_c, 10, 67, 0
11, 14544, Note_on_c, 10, 67, 74
11, 14590, Note_on_c, 10, 67, 0
11, 26400, Note_on_c, 10, 74, 103
11, 26534, Note_on_c, 10, 74, 0
11, 27168, Note_on_c, 10, 74, 103
11, 27302, Note_on_c, 10, 74, 0
11, 28752, Note_on_c, 10, 62, 127
11, 28788, Note_on_c, 10, 62, 0
11, 28800, Note_on_c, 10, 62, 127
11, 28934, Note_on_c, 10, 62, 0
11, 28992, Note_on_c, 10, 62, 127
11, 29126, Note_on_c, 10, 62, 0
11, 29184, Note_on_c, 10, 62, 127
11, 29614, Note_on_c, 10, 62, 0
11, 29664, Note_on_c, 10, 64, 116
11, 29712, Note_on_c, 10, 64, 0
11, 29712, Note_on_c, 10, 66, 116
11, 29760, Note_on_c, 10, 66, 0
11, 29760, Note_on_c, 10, 67, 116
11, 29808, Note_on_c, 10, 67, 0
11, 29808, Note_on_c, 10, 69, 116
11, 29856, Note_on_c, 10, 69, 0
11, 29856, Note_on_c, 10, 71, 116
11, 29904, Note_on_c, 10, 71, 0
11, 29904, Note_on_c, 10, 73, 116
11, 29934, Note_on_c, 10, 73, 0
11, 29952, Note_on_c, 10, 74, 116
11, 30382, Note_on_c, 10, 74, 0
11, 30432, Note_on_c, 10, 76, 116
11, 30480, Note_on_c, 10, 76, 0
11, 30480, Note_on_c, 10, 78, 116
11, 30528, Note_on_c, 10, 78, 0
11, 30528, Note_on_c, 10, 79, 116
11, 30576, Note_on_c, 10, 79, 0
11, 30576, Note_on_c, 10, 81, 116
11, 30624, Note_on_c, 10, 81, 0
11, 30624, Note_on_c, 10, 83, 116
11, 30672, Note_on_c, 10, 83, 0
11, 30672, Note_on_c, 10, 85, 116
11, 30712, Note_on_c, 10, 85, 0
11, 30720, Note_on_c, 10, 86, 116
11, 30898, Note_on_c, 10, 86, 0
11, 31085, Control_c, 10, 11, 77
11, 31096, Control_c, 10, 11, 79
11, 31101, Control_c, 10, 11, 80
11, 31104, Control_c, 10, 10, 50
11, 31104, Note_on_c, 10, 62, 51
11, 31112, Control_c, 10, 11, 82
11, 31118, Control_c, 10, 11, 86
11, 31129, Control_c, 10, 11, 89
11, 31134, Control_c, 10, 11, 92
11, 31145, Control_c, 10, 11, 97
11, 31150, Control_c, 10, 11, 98
11, 31161, Control_c, 10, 11, 101
11, 31167, Control_c, 10, 11, 103
11, 31178, Control_c, 10, 11, 104
11, 31194, Control_c, 10, 11, 107
11, 31211, Control_c, 10, 11, 109
11, 31216, Control_c, 10, 11, 110
11, 31227, Control_c, 10, 11, 112
11, 31244, Control_c, 10, 11, 113
11, 31277, Control_c, 10, 11, 115
11, 31293, Control_c, 10, 11, 116
11, 31296, Note_on_c, 10, 62, 0
11, 31296, Note_on_c, 10, 61, 53
11, 31326, Control_c, 10, 11, 118
11, 31342, Control_c, 10, 11, 119
11, 31359, Control_c, 10, 11, 121
11, 31381, Control_c, 10, 11, 122
11, 31397, Control_c, 10, 11, 124
11, 31425, Control_c, 10, 11, 125
11, 31488, Note_on_c, 10, 61, 0
11, 31488, Note_on_c, 10, 60, 54
11, 31491, Control_c, 10, 11, 127
11, 31655, Control_c, 10, 11, 126
11, 31672, Control_c, 10, 11, 124
11, 31677, Control_c, 10, 11, 123
11, 31680, Note_on_c, 10, 60, 0
11, 31680, Note_on_c, 10, 59, 55
11, 31705, Control_c, 10, 11, 121
11, 31710, Control_c, 10, 11, 120
11, 31721, Control_c, 10, 11, 118
11, 31737, Control_c, 10, 11, 117
11, 31754, Control_c, 10, 11, 115
11, 31759, Control_c, 10, 11, 114
11, 31787, Control_c, 10, 11, 112
11, 31792, Control_c, 10, 11, 111
11, 31820, Control_c, 10, 11, 109
11, 31858, Control_c, 10, 11, 108
11, 31872, Note_on_c, 10, 59, 0
11, 31872, Note_on_c, 10, 60, 54
11, 31891, Control_c, 10, 11, 106
11, 31935, Control_c, 10, 11, 105
11, 31957, Control_c, 10, 11, 103
11, 31990, Control_c, 10, 11, 102
11, 32006, Control_c, 10, 11, 100
11, 32034, Control_c, 10, 11, 99
11, 32056, Control_c, 10, 11, 97
11, 32064, Note_on_c, 10, 60, 0
11, 32064, Note_on_c, 10, 57, 51
11, 32067, Control_c, 10, 11, 96
11, 32083, Control_c, 10, 11, 94
11, 32089, Control_c, 10, 11, 93
11, 32100, Control_c, 10, 11, 91
11, 32132, Control_c, 10, 11, 90
11, 32149, Control_c, 10, 11, 88
11, 32154, Control_c, 10, 11, 87
11, 32165, Control_c, 10, 11, 85
11, 32198, Control_c, 10, 11, 84
11, 32215, Control_c, 10, 11, 82
11, 32220, Control_c, 10, 11, 81
11, 32231, Control_c, 10, 11, 82
11, 32240, Control_c, 10, 11, 91
11, 32243, Control_c, 10, 11, 83
11, 32248, Note_on_c, 10, 57, 0
11, 32252, Control_c, 10, 11, 84
11, 32256, Note_on_c, 10, 67, 65
11, 32260, Control_c, 10, 11, 85
11, 32278, Control_c, 10, 11, 87
11, 32287, Control_c, 10, 11, 88
11, 32291, Control_c, 10, 11, 89
11, 32295, Control_c, 10, 11, 90
11, 32300, Control_c, 10, 11, 91
11, 32304, Control_c, 10, 11, 92
11, 32308, Control_c, 10, 11, 93
11, 32313, Control_c, 10, 11, 94
11, 32317, Control_c, 10, 11, 96
11, 32322, Control_c, 10, 11, 97
11, 32326, Control_c, 10, 11, 98
11, 32330, Control_c, 10, 11, 99
11, 32335, Control_c, 10, 11, 100
11, 32339, Control_c, 10, 11, 101
11, 32343, Control_c, 10, 11, 102
11, 32348, Control_c, 10, 11, 103
11, 32352, Control_c, 10, 11, 104
11, 32356, Control_c, 10, 11, 105
11, 32361, Control_c, 10, 11, 107
11, 32365, Control_c, 10, 11, 108
11, 32370, Control_c, 10, 11, 109
11, 32374, Control_c, 10, 11, 112
11, 32378, Control_c, 10, 11, 113
11, 32383, Control_c, 10, 11, 114
11, 32387, Control_c, 10, 11, 115
11, 32391, Control_c, 10, 11, 116
11, 32396, Control_c, 10, 11, 117
11, 32404, Control_c, 10, 11, 118
11, 32422, Control_c, 10, 11, 119
11, 32426, Control_c, 10, 11, 120
11, 32439, Control_c, 10, 11, 121
11, 32448, Control_c, 10, 11, 122
11, 32457, Control_c, 10, 11, 123
11, 32466, Control_c, 10, 11, 124
11, 32483, Control_c, 10, 11, 125
11, 32500, Control_c, 10, 11, 126
11, 32583, Control_c, 10, 11, 125
11, 32627, Control_c, 10, 11, 124
11, 32649, Control_c, 10, 11, 123
11, 32671, Control_c, 10, 11, 122
11, 32675, Control_c, 10, 11, 121
11, 32688, Control_c, 10, 11, 120
11, 32714, Control_c, 10, 11, 119
11, 32723, Control_c, 10, 11, 118
11, 32736, Control_c, 10, 11, 117
11, 32745, Control_c, 10, 11, 116
11, 32749, Control_c, 10, 11, 115
11, 32754, Control_c, 10, 11, 114
11, 32758, Control_c, 10, 11, 113
11, 32767, Control_c, 10, 11, 112
11, 32771, Control_c, 10, 11, 110
11, 32784, Control_c, 10, 11, 109
11, 32793, Control_c, 10, 11, 108
11, 32802, Control_c, 10, 11, 107
11, 32815, Control_c, 10, 11, 106
11, 32823, Control_c, 10, 11, 105
11, 32828, Control_c, 10, 11, 100
11, 32832, Control_c, 10, 11, 92
11, 32836, Control_c, 10, 11, 80
11, 32841, Control_c, 10, 11, 77
11, 32845, Control_c, 10, 11, 75
11, 33762, Note_on_c, 10, 67, 0
11, 33997, Control_c, 10, 11, 127
11, 36864, Note_on_c, 10, 67, 52
11, 37020, Note_on_c, 10, 67, 0
11, 38400, Note_on_c, 10, 67, 57
11, 38408, Control_c, 10, 11, 115
11, 38434, Control_c, 10, 11, 116
11, 38452, Control_c, 10, 11, 117
11, 38469, Control_c, 10, 11, 118
11, 38487, Control_c, 10, 11, 119
11, 38513, Control_c, 10, 11, 120
11, 38530, Control_c, 10, 11, 121
11, 38548, Control_c, 10, 11, 122
11, 38565, Control_c, 10, 11, 123
11, 38592, Control_c, 10, 11, 124
11, 38609, Control_c, 10, 11, 125
11, 38626, Control_c, 10, 11, 126
11, 38644, Control_c, 10, 11, 127
11, 38976, Control_c, 10, 11, 88
11, 39906, Note_on_c, 10, 67, 0
11, 40320, Control_c, 10, 11, 127
11, 49152, Control_c, 10, 10, 60
11, 49152, Note_on_c, 10, 55, 47
11, 49340, Note_on_c, 10, 55, 0
11, 67584, Note_on_c, 10, 79, 116
11, 67652, Note_on_c, 10, 79, 0
11, 70848, Note_on_c, 10, 84, 125
11, 70950, Note_on_c, 10, 84, 0
11, 71040, Note_on_c, 10, 79, 125
11, 71142, Note_on_c, 10, 79, 0
11, 71232, Note_on_c, 10, 76, 125
11, 71334, Note_on_c, 10, 76, 0
11, 71424, Note_on_c, 10, 72, 125
11, 71526, Note_on_c, 10, 72, 0
11, 71616, Note_on_c, 10, 67, 125
11, 71736, Note_on_c, 10, 67, 0
11, 71808, Note_on_c, 10, 64, 125
11, 71928, Note_on_c, 10, 64, 0
11, 72000, Note_on_c, 10, 60, 125
11, 72120, Note_on_c, 10, 60, 0
11, 76224, Note_on_c, 10, 74, 116
11, 76224, Note_on_c, 10, 62, 116
11, 76354, Note_on_c, 10, 62, 0
11, 76354, Note_on_c, 10, 74, 0
11, 76416, Note_on_c, 10, 62, 116
11, 76546, Note_on_c, 10, 62, 0
11, 76608, Note_on_c, 10, 62, 116
11, 76738, Note_on_c, 10, 62, 0
11, 76776, Note_on_c, 10, 62, 116
11, 76800, Note_on_c, 10, 62, 0
11, 76800, Note_on_c, 10, 62, 116
11, 76956, Note_on_c, 10, 62, 0
11, 79872, Note_on_c, 10, 67, 116
11, 79940, Note_on_c, 10, 67, 0
11, 82944, Note_on_c, 10, 55, 116
11, 83122, Note_on_c, 10, 55, 0
11, 83504, Note_on_c, 10, 62, 116
11, 83670, Note_on_c, 10, 62, 0
11, 86016, Note_on_c, 10, 67, 116
11, 86194, Note_on_c, 10, 67, 0
11, 86304, Note_on_c, 10, 79, 116
11, 86320, Note_on_c, 10, 79, 0
11, 86320, Note_on_c, 10, 81, 116
11, 86336, Note_on_c, 10, 81, 0
11, 86336, Note_on_c, 10, 79, 116
11, 86352, Note_on_c, 10, 79, 0
11, 86352, Note_on_c, 10, 78, 116
11, 86376, Note_on_c, 10, 78, 0
11, 86376, Note_on_c, 10, 79, 116
11, 86382, Note_on_c, 10, 79, 0
11, 86400, Note_on_c, 10, 83, 116
11, 86556, Note_on_c, 10, 83, 0
11, 86688, Note_on_c, 10, 74, 116
11, 86704, Note_on_c, 10, 74, 0
11, 86704, Note_on_c, 10, 76, 116
11, 86720, Note_on_c, 10, 76, 0
11, 86720, Note_on_c, 10, 74, 116
11, 86736, Note_on_c, 10, 74, 0
11, 86736, Note_on_c, 10, 73, 116
11, 86760, Note_on_c, 10, 73, 0
11, 86760, Note_on_c, 10, 74, 116
11, 86766, Note_on_c, 10, 74, 0
11, 86784, Note_on_c, 10, 79, 116
11, 86940, Note_on_c, 10, 79, 0
11, 87072, Note_on_c, 10, 71, 116
11, 87088, Note_on_c, 10, 71, 0
11, 87088, Note_on_c, 10, 72, 116
11, 87104, Note_on_c, 10, 72, 0
11, 87104, Note_on_c, 10, 71, 116
11, 87120, Note_on_c, 10, 71, 0
11, 87120, Note_on_c, 10, 69, 116
11, 87144, Note_on_c, 10, 69, 0
11, 87144, Note_on_c, 10, 71, 116
11, 87168, Note_on_c, 10, 71, 0
11, 87168, Note_on_c, 10, 74, 116
11, 87222, Note_on_c, 10, 74, 0
11, 87264, Note_on_c, 10, 67, 116
11, 87310, Note_on_c, 10, 67, 0
11, 87360, Note_on_c, 10, 71, 116
11, 87406, Note_on_c, 10, 71, 0
11, 87456, Note_on_c, 10, 62, 116
11, 87502, Note_on_c, 10, 62, 0
11, 87543, Control_c, 10, 11, 122
11, 87552, Note_on_c, 10, 65, 122
11, 87578, Control_c, 10, 11, 124
11, 87604, Control_c, 10, 11, 125
11, 87630, Control_c, 10, 11, 127
11, 87682, Control_c, 10, 11, 127
11, 87691, Control_c, 10, 11, 126
11, 87700, Control_c, 10, 11, 124
11, 87709, Control_c, 10, 11, 122
11, 87717, Control_c, 10, 11, 120
11, 87726, Control_c, 10, 11, 118
11, 87735, Control_c, 10, 11, 117
11, 87744, Control_c, 10, 11, 115
11, 87752, Control_c, 10, 11, 113
11, 87761, Control_c, 10, 11, 111
11, 87770, Control_c, 10, 11, 109
11, 87778, Control_c, 10, 11, 107
11, 87787, Control_c, 10, 11, 106
11, 87796, Control_c, 10, 11, 104
11, 87805, Control_c, 10, 11, 102
11, 87813, Control_c, 10, 11, 100
11, 87822, Control_c, 10, 11, 98
11, 87831, Control_c, 10, 11, 97
11, 87840, Control_c, 10, 11, 95
11, 87848, Control_c, 10, 11, 93
11, 87857, Control_c, 10, 11, 91
11, 87866, Control_c, 10, 11, 89
11, 87874, Control_c, 10, 11, 87
11, 87883, Control_c, 10, 11, 86
11, 87892, Control_c, 10, 11, 84
11, 87901, Control_c, 10, 11, 82
11, 87909, Control_c, 10, 11, 80
11, 87918, Control_c, 10, 11, 78
11, 87927, Control_c, 10, 11, 77
11, 87936, Note_on_c, 10, 65, 0
11, 87936, Control_c, 10, 11, 75
11, 87944, Control_c, 10, 11, 73
11, 87953, Control_c, 10, 11, 71
11, 87962, Control_c, 10, 11, 69
11, 87970, Control_c, 10, 11, 67
11, 89078, Control_c, 10, 11, 110
11, 89087, Control_c, 10, 11, 111
11, 89088, Note_on_c, 10, 65, 122
11, 89096, Control_c, 10, 11, 113
11, 89104, Control_c, 10, 11, 115
11, 89113, Control_c, 10, 11, 116
11, 89122, Control_c, 10, 11, 118
11, 89131, Control_c, 10, 11, 120
11, 89139, Control_c, 10, 11, 121
11, 89148, Control_c, 10, 11, 123
11, 89157, Control_c, 10, 11, 125
11, 89166, Control_c, 10, 11, 127
11, 89253, Control_c, 10, 11, 127
11, 89262, Control_c, 10, 11, 125
11, 89271, Control_c, 10, 11, 123
11, 89280, Control_c, 10, 11, 121
11, 89288, Control_c, 10, 11, 119
11, 89297, Control_c, 10, 11, 116
11, 89306, Control_c, 10, 11, 114
11, 89314, Control_c, 10, 11, 112
11, 89323, Control_c, 10, 11, 110
11, 89332, Control_c, 10, 11, 107
11, 89341, Control_c, 10, 11, 105
11, 89349, Control_c, 10, 11, 103
11, 89358, Control_c, 10, 11, 101
11, 89367, Control_c, 10, 11, 98
11, 89376, Control_c, 10, 11, 96
11, 89384, Control_c, 10, 11, 94
11, 89393, Control_c, 10, 11, 92
11, 89402, Control_c, 10, 11, 89
11, 89410, Control_c, 10, 11, 87
11, 89419, Control_c, 10, 11, 85
11, 89428, Control_c, 10, 11, 83
11, 89437, Control_c, 10, 11, 80
11, 89445, Control_c, 10, 11, 78
11, 89454, Control_c, 10, 11, 76
11, 89463, Control_c, 10, 11, 74
11, 89472, Note_on_c, 10, 65, 0
11, 89472, Control_c, 10, 11, 71
11, 90624, Note_on_c, 10, 67, 122
11, 90632, Control_c, 10, 11, 118
11, 90641, Control_c, 10, 11, 119
11, 90650, Control_c, 10, 11, 120
11, 90658, Control_c, 10, 11, 121
11, 90667, Control_c, 10, 11, 122
11, 90676, Control_c, 10, 11, 123
11, 90685, Control_c, 10, 11, 124
11, 90693, Control_c, 10, 11, 125
11, 90702, Control_c, 10, 11, 127
11, 90824, Control_c, 10, 11, 126
11, 90833, Control_c, 10, 11, 124
11, 90842, Control_c, 10, 11, 121
11, 90850, Control_c, 10, 11, 118
11, 90859, Control_c, 10, 11, 116
11, 90868, Control_c, 10, 11, 113
11, 90877, Control_c, 10, 11, 110
11, 90885, Control_c, 10, 11, 107
11, 90894, Control_c, 10, 11, 105
11, 90903, Control_c, 10, 11, 102
11, 90912, Control_c, 10, 11, 99
11, 90920, Control_c, 10, 11, 96
11, 90929, Control_c, 10, 11, 94
11, 90938, Control_c, 10, 11, 91
11, 90946, Control_c, 10, 11, 88
11, 90955, Control_c, 10, 11, 85
11, 90964, Control_c, 10, 11, 83
11, 90973, Control_c, 10, 11, 80
11, 90981, Control_c, 10, 11, 77
11, 90990, Control_c, 10, 11, 74
11, 90999, Control_c, 10, 11, 72
11, 91008, Note_on_c, 10, 67, 0
11, 91008, Control_c, 10, 11, 69
11, 91016, Control_c, 10, 11, 66
11, 91025, Control_c, 10, 11, 63
11, 92151, Control_c, 10, 11, 121
11, 92160, Note_on_c, 10, 67, 122
11, 92168, Control_c, 10, 11, 122
11, 92177, Control_c, 10, 11, 123
11, 92194, Control_c, 10, 11, 124
11, 92203, Control_c, 10, 11, 125
11, 92221, Control_c, 10, 11, 126
11, 92229, Control_c, 10, 11, 127
11, 92290, Control_c, 10, 11, 127
11, 92317, Control_c, 10, 11, 126
11, 92343, Control_c, 10, 11, 125
11, 92352, Control_c, 10, 11, 123
11, 92360, Control_c, 10, 11, 120
11, 92369, Control_c, 10, 11, 117
11, 92378, Control_c, 10, 11, 115
11, 92386, Control_c, 10, 11, 112
11, 92395, Control_c, 10, 11, 109
11, 92404, Control_c, 10, 11, 107
11, 92413, Control_c, 10, 11, 104
11, 92421, Control_c, 10, 11, 101
11, 92430, Control_c, 10, 11, 99
11, 92439, Control_c, 10, 11, 96
11, 92448, Control_c, 10, 11, 93
11, 92456, Control_c, 10, 11, 91
11, 92465, Control_c, 10, 11, 88
11, 92474, Control_c, 10, 11, 85
11, 92482, Control_c, 10, 11, 83
11, 92491, Control_c, 10, 11, 80
11, 92500, Control_c, 10, 11, 77
11, 92509, Control_c, 10, 11, 75
11, 92517, Control_c, 10, 11, 72
11, 92526, Control_c, 10, 11, 69
11, 92535, Control_c, 10, 11, 66
11, 92544, Note_on_c, 10, 67, 0
11, 93696, Control_c, 10, 11, 123
11, 93696, Note_on_c, 10, 67, 122
11, 93722, Control_c, 10, 11, 124
11, 93739, Control_c, 10, 11, 125
11, 93757, Control_c, 10, 11, 126
11, 93774, Control_c, 10, 11, 127
11, 93826, Control_c, 10, 11, 127
11, 93844, Control_c, 10, 11, 126
11, 93853, Control_c, 10, 11, 125
11, 93870, Control_c, 10, 11, 124
11, 93879, Control_c, 10, 11, 123
11, 93888, Control_c, 10, 11, 120
11, 93896, Control_c, 10, 11, 117
11, 93905, Control_c, 10, 11, 114
11, 93914, Control_c, 10, 11, 111
11, 93922, Control_c, 10, 11, 108
11, 93931, Control_c, 10, 11, 105
11, 93940, Control_c, 10, 11, 102
11, 93949, Control_c, 10, 11, 99
11, 93957, Control_c, 10, 11, 96
11, 93966, Control_c, 10, 11, 93
11, 93975, Control_c, 10, 11, 90
11, 93984, Control_c, 10, 11, 87
11, 93992, Control_c, 10, 11, 84
11, 94001, Control_c, 10, 11, 81
11, 94010, Control_c, 10, 11, 78
11, 94018, Control_c, 10, 11, 75
11, 94027, Control_c, 10, 11, 72
11, 94036, Control_c, 10, 11, 69
11, 94045, Control_c, 10, 11, 67
11, 94062, Control_c, 10, 11, 66
11, 94071, Control_c, 10, 11, 65
11, 94080, Note_on_c, 10, 67, 0
11, 94080, Control_c, 10, 11, 64
11, 94088, Control_c, 10, 11, 63
11, 94097, Control_c, 10, 11, 62
11, 94106, Control_c, 10, 11, 61
11, 95232, Control_c, 10, 11, 123
11, 95232, Note_on_c, 10, 67, 122
11, 95258, Control_c, 10, 11, 124
11, 95275, Control_c, 10, 11, 125
11, 95301, Control_c, 10, 11, 126
11, 95319, Control_c, 10, 11, 127
11, 95371, Control_c, 10, 11, 127
11, 95397, Control_c, 10, 11, 126
11, 95424, Control_c, 10, 11, 125
11, 95441, Control_c, 10, 11, 124
11, 95450, Control_c, 10, 11, 121
11, 95458, Control_c, 10, 11, 118
11, 95467, Control_c, 10, 11, 115
11, 95476, Control_c, 10, 11, 112
11, 95485, Control_c, 10, 11, 109
11, 95493, Control_c, 10, 11, 106
11, 95502, Control_c, 10, 11, 103
11, 95511, Control_c, 10, 11, 100
11, 95520, Control_c, 10, 11, 97
11, 95528, Control_c, 10, 11, 94
11, 95537, Control_c, 10, 11, 91
11, 95546, Control_c, 10, 11, 88
11, 95554, Control_c, 10, 11, 85
11, 95563, Control_c, 10, 11, 82
11, 95572, Control_c, 10, 11, 79
11, 95581, Control_c, 10, 11, 76
11, 95589, Control_c, 10, 11, 73
11, 95598, Control_c, 10, 11, 70
11, 95607, Control_c, 10, 11, 67
11, 95616, Note_on_c, 10, 67, 0
11, 97352, Control_c, 10, 11, 127
11, 121322, Control_c, 10, 11, 112
11, 121328, Note_on_c, 10, 67, 103
11, 121330, Control_c, 10, 11, 115
11, 121332, Note_on_c, 10, 76, 103
11, 121344, Control_c, 10, 11, 121
11, 121348, Control_c, 10, 11, 124
11, 121356, Note_on_c, 10, 84, 116
11, 121357, Control_c, 10, 11, 127
11, 121370, Control_c, 10, 11, 126
11, 121422, Control_c, 10, 11, 125
11, 121435, Control_c, 10, 11, 123
11, 121440, Control_c, 10, 11, 122
11, 121461, Control_c, 10, 11, 120
11, 121476, Note_on_c, 10, 76, 0
11, 121476, Note_on_c, 10, 67, 0
11, 121632, Control_c, 10, 11, 119
11, 121636, Control_c, 10, 11, 117
11, 121649, Control_c, 10, 11, 116
11, 121658, Control_c, 10, 11, 114
11, 121671, Control_c, 10, 11, 113
11, 121675, Control_c, 10, 11, 110
11, 121688, Control_c, 10, 11, 108
11, 121697, Control_c, 10, 11, 105
11, 121714, Control_c, 10, 11, 104
11, 121752, Note_on_c, 10, 84, 0
11, 122037, Control_c, 10, 11, 125
11, 122064, Note_on_c, 10, 60, 127
11, 122092, Note_on_c, 10, 60, 0
11, 122112, Note_on_c, 10, 60, 127
11, 122125, Control_c, 10, 11, 109
11, 122133, Control_c, 10, 11, 112
11, 122142, Control_c, 10, 11, 114
11, 122146, Control_c, 10, 11, 115
11, 122155, Control_c, 10, 11, 117
11, 122160, Control_c, 10, 11, 118
11, 122173, Control_c, 10, 11, 120
11, 122181, Control_c, 10, 11, 121
11, 122194, Control_c, 10, 11, 124
11, 122234, Control_c, 10, 11, 126
11, 122247, Control_c, 10, 11, 127
11, 122504, Control_c, 10, 11, 125
11, 122509, Control_c, 10, 11, 124
11, 122526, Control_c, 10, 11, 123
11, 122535, Control_c, 10, 11, 122
11, 122548, Control_c, 10, 11, 120
11, 122552, Control_c, 10, 11, 119
11, 122561, Control_c, 10, 11, 117
11, 122574, Control_c, 10, 11, 114
11, 122592, Control_c, 10, 11, 113
11, 122600, Control_c, 10, 11, 111
11, 122605, Control_c, 10, 11, 110
11, 122613, Control_c, 10, 11, 108
11, 122640, Note_on_c, 10, 60, 0
11, 122823, Control_c, 10, 11, 127
11, 122832, Note_on_c, 10, 55, 127
11, 122848, Note_on_c, 10, 55, 0
11, 122848, Note_on_c, 10, 57, 127
11, 122864, Note_on_c, 10, 57, 0
11, 122864, Note_on_c, 10, 59, 127
11, 122880, Note_on_c, 10, 59, 0
11, 122880, Note_on_c, 10, 60, 127
11, 122966, Note_on_c, 10, 60, 0
11, 123072, Note_on_c, 10, 64, 127
11, 123158, Note_on_c, 10, 64, 0
11, 123264, Note_on_c, 10, 67, 127
11, 123350, Note_on_c, 10, 67, 0
11, 123456, Note_on_c, 10, 72, 127
11, 123542, Note_on_c, 10, 72, 0
11, 123616, Note_on_c, 10, 72, 127
11, 123648, Note_on_c, 10, 72, 0
11, 123648, Note_on_c, 10, 71, 127
11, 123672, Note_on_c, 10, 71, 0
11, 123672, Note_on_c, 10, 72, 127
11, 123696, Note_on_c, 10, 72, 0
11, 123696, Note_on_c, 10, 71, 127
11, 123752, Note_on_c, 10, 71, 0
11, 123794, Note_on_c, 10, 69, 127
11, 123825, Note_on_c, 10, 69, 0
11, 123840, Note_on_c, 10, 67, 127
11, 123840, Control_c, 10, 11, 125
11, 123846, Control_c, 10, 11, 123
11, 123860, Control_c, 10, 11, 120
11, 123867, Control_c, 10, 11, 119
11, 123881, Control_c, 10, 11, 117
11, 123888, Control_c, 10, 11, 116
11, 123901, Control_c, 10, 11, 114
11, 123908, Control_c, 10, 11, 113
11, 123922, Control_c, 10, 11, 110
11, 123929, Control_c, 10, 11, 104
11, 123980, Note_on_c, 10, 67, 0
11, 133056, Control_c, 10, 11, 127
11, 133200, Note_on_c, 10, 67, 127
11, 133232, Note_on_c, 10, 67, 0
11, 133248, Note_on_c, 10, 67, 127
11, 133426, Note_on_c, 10, 67, 0
11, 133584, Note_on_c, 10, 55, 127
11, 133616, Note_on_c, 10, 55, 0
11, 133632, Note_on_c, 10, 55, 127
11, 134040, Note_on_c, 10, 55, 0
11, 134112, Note_on_c, 10, 57, 116
11, 134158, Note_on_c, 10, 57, 0
11, 134160, Note_on_c, 10, 59, 116
11, 134206, Note_on_c, 10, 59, 0
11, 134208, Note_on_c, 10, 60, 116
11, 134254, Note_on_c, 10, 60, 0
11, 134256, Note_on_c, 10, 62, 116
11, 134302, Note_on_c, 10, 62, 0
11, 134304, Note_on_c, 10, 64, 116
11, 134350, Note_on_c, 10, 64, 0
11, 134352, Note_on_c, 10, 66, 116
11, 134382, Note_on_c, 10, 66, 0
11, 134400, Note_on_c, 10, 67, 116
11, 134808, Note_on_c, 10, 67, 0
11, 134880, Note_on_c, 10, 69, 116
11, 134926, Note_on_c, 10, 69, 0
11, 134928, Note_on_c, 10, 71, 116
11, 134974, Note_on_c, 10, 71, 0
11, 134976, Note_on_c, 10, 72, 116
11, 135022, Note_on_c, 10, 72, 0
11, 135024, Note_on_c, 10, 74, 116
11, 135070, Note_on_c, 10, 74, 0
11, 135072, Note_on_c, 10, 76, 116
11, 135118, Note_on_c, 10, 76, 0
11, 135120, Note_on_c, 10, 78, 116
11, 135156, Note_on_c, 10, 78, 0
11, 135168, Note_on_c, 10, 79, 116
11, 135346, Note_on_c, 10, 79, 0
11, 135456, Control_c, 10, 10, 50
11, 135543, Control_c, 10, 11, 110
11, 135552, Control_c, 10, 11, 116
11, 135552, Note_on_c, 10, 67, 60
11, 135560, Control_c, 10, 11, 100
11, 135569, Control_c, 10, 11, 118
11, 135578, Control_c, 10, 11, 119
11, 135595, Control_c, 10, 11, 121
11, 135604, Control_c, 10, 11, 122
11, 135621, Control_c, 10, 11, 124
11, 135630, Control_c, 10, 11, 127
11, 135744, Note_on_c, 10, 67, 0
11, 135744, Note_on_c, 10, 66, 59
11, 135831, Control_c, 10, 11, 125
11, 135840, Control_c, 10, 11, 125
11, 135936, Note_on_c, 10, 66, 0
11, 135936, Note_on_c, 10, 65, 58
11, 135944, Control_c, 10, 11, 124
11, 136023, Control_c, 10, 11, 123
11, 136049, Control_c, 10, 11, 121
11, 136101, Control_c, 10, 11, 120
11, 136128, Note_on_c, 10, 65, 0
11, 136128, Note_on_c, 10, 64, 57
11, 136320, Note_on_c, 10, 64, 0
11, 136320, Note_on_c, 10, 65, 56
11, 136512, Note_on_c, 10, 65, 0
11, 136512, Note_on_c, 10, 62, 55
11, 136684, Note_on_c, 10, 62, 0
11, 136704, Note_on_c, 10, 60, 55
11, 136712, Control_c, 10, 11, 109
11, 136747, Control_c, 10, 11, 110
11, 136756, Control_c, 10, 11, 112
11, 136782, Control_c, 10, 11, 113
11, 136808, Control_c, 10, 11, 116
11, 136826, Control_c, 10, 11, 118
11, 136834, Control_c, 10, 11, 119
11, 136852, Control_c, 10, 11, 121
11, 136878, Control_c, 10, 11, 122
11, 136887, Control_c, 10, 11, 124
11, 136904, Control_c, 10, 11, 125
11, 136913, Control_c, 10, 11, 127
11, 137114, Control_c, 10, 11, 123
11, 137149, Control_c, 10, 11, 121
11, 137175, Control_c, 10, 11, 120
11, 137201, Control_c, 10, 11, 118
11, 137218, Control_c, 10, 11, 117
11, 137245, Control_c, 10, 11, 115
11, 137286, Control_c, 10, 11, 97
11, 137295, Control_c, 10, 11, 92
11, 137304, Control_c, 10, 11, 86
11, 137312, Control_c, 10, 11, 80
11, 138418, Note_on_c, 10, 60, 0
11, 139008, Control_c, 10, 11, 127
11, 139008, Control_c, 10, 10, 60
11, 141312, Note_on_c, 10, 60, 62
11, 141490, Note_on_c, 10, 60, 0
11, 142842, Control_c, 10, 11, 97
11, 142848, Note_on_c, 10, 60, 52
11, 142877, Control_c, 10, 11, 98
11, 142912, Control_c, 10, 11, 99
11, 142956, Control_c, 10, 11, 102
11, 142982, Control_c, 10, 11, 104
11, 143008, Control_c, 10, 11, 105
11, 143043, Control_c, 10, 11, 107
11, 143060, Control_c, 10, 11, 108
11, 143095, Control_c, 10, 11, 110
11, 143139, Control_c, 10, 11, 111
11, 143165, Control_c, 10, 11, 113
11, 143200, Control_c, 10, 11, 114
11, 143270, Control_c, 10, 11, 116
11, 143348, Control_c, 10, 11, 117
11, 143375, Control_c, 10, 11, 119
11, 143464, Control_c, 10, 11, 93
11, 143551, Control_c, 10, 11, 92
11, 143603, Control_c, 10, 11, 90
11, 143682, Control_c, 10, 11, 87
11, 143760, Control_c, 10, 11, 86
11, 143821, Control_c, 10, 11, 83
11, 143900, Control_c, 10, 11, 81
11, 144031, Control_c, 10, 11, 78
11, 144057, Control_c, 10, 11, 77
11, 144214, Control_c, 10, 11, 75
11, 144354, Note_on_c, 10, 60, 0
11, 163584, Control_c, 10, 11, 127
11, 163776, Note_on_c, 10, 77, 123
11, 163866, Note_on_c, 10, 77, 0
11, 163968, Note_on_c, 10, 81, 123
11, 164058, Note_on_c, 10, 81, 0
11, 164160, Note_on_c, 10, 74, 123
11, 164250, Note_on_c, 10, 74, 0
11, 165888, Note_on_c, 10, 72, 116
11, 165956, Note_on_c, 10, 72, 0
11, 169920, Note_on_c, 10, 76, 121
11, 170020, Note_on_c, 10, 76, 0
11, 170112, Note_on_c, 10, 81, 121
11, 170212, Note_on_c, 10, 81, 0
11, 170304, Note_on_c, 10, 72, 121
11, 170404, Note_on_c, 10, 72, 0
11, 170496, Note_on_c, 10, 84, 121
11, 170596, Note_on_c, 10, 84, 0
11, 170688, Note_on_c, 10, 76, 121
11, 170788, Note_on_c, 10, 76, 0
11, 170880, Note_on_c, 10, 79, 121
11, 170980, Note_on_c, 10, 79, 0
11, 171072, Note_on_c, 10, 72, 121
11, 171172, Note_on_c, 10, 72, 0
11, 171264, Note_on_c, 10, 84, 121
11, 171364, Note_on_c, 10, 84, 0
11, 171456, Note_on_c, 10, 77, 121
11, 171556, Note_on_c, 10, 77, 0
11, 171648, Note_on_c, 10, 80, 121
11, 171748, Note_on_c, 10, 80, 0
11, 171840, Note_on_c, 10, 72, 121
11, 171940, Note_on_c, 10, 72, 0
11, 172032, Note_on_c, 10, 84, 121
11, 172132, Note_on_c, 10, 84, 0
11, 172224, Note_on_c, 10, 75, 121
11, 172324, Note_on_c, 10, 75, 0
11, 172416, Note_on_c, 10, 81, 121
11, 172516, Note_on_c, 10, 81, 0
11, 172608, Note_on_c, 10, 72, 121
11, 172708, Note_on_c, 10, 72, 0
11, 175288, Note_on_c, 10, 55, 123
11, 175296, Note_on_c, 10, 67, 123
11, 175380, Note_on_c, 10, 55, 0
11, 175416, Note_on_c, 10, 67, 0
11, 175472, Note_on_c, 10, 55, 123
11, 175564, Note_on_c, 10, 55, 0
11, 175664, Note_on_c, 10, 55, 123
11, 175672, Note_on_c, 10, 67, 123
11, 175680, Note_on_c, 10, 72, 123
11, 175749, Note_on_c, 10, 55, 0
11, 175768, Note_on_c, 10, 67, 0
11, 175808, Note_on_c, 10, 72, 0
11, 175854, Note_on_c, 10, 55, 123
11, 175872, Note_on_c, 10, 72, 123
11, 175880, Note_on_c, 10, 79, 123
11, 175938, Note_on_c, 10, 55, 0
11, 176004, Note_on_c, 10, 72, 0
11, 176014, Note_on_c, 10, 79, 0
11, 181989, Control_c, 10, 11, 111
11, 181994, Control_c, 10, 11, 112
11, 182000, Note_on_c, 10, 67, 103
11, 182002, Control_c, 10, 11, 115
11, 182004, Note_on_c, 10, 76, 103
11, 182016, Control_c, 10, 11, 121
11, 182020, Control_c, 10, 11, 124
11, 182029, Control_c, 10, 11, 127
11, 182032, Note_on_c, 10, 84, 116
11, 182042, Control_c, 10, 11, 126
11, 182094, Control_c, 10, 11, 125
11, 182107, Control_c, 10, 11, 123
11, 182112, Control_c, 10, 11, 122
11, 182133, Control_c, 10, 11, 120
11, 182164, Note_on_c, 10, 67, 0
11, 182200, Note_on_c, 10, 76, 0
11, 182304, Control_c, 10, 11, 119
11, 182308, Control_c, 10, 11, 117
11, 182321, Control_c, 10, 11, 116
11, 182330, Control_c, 10, 11, 114
11, 182343, Control_c, 10, 11, 113
11, 182347, Control_c, 10, 11, 110
11, 182360, Control_c, 10, 11, 108
11, 182369, Control_c, 10, 11, 105
11, 182386, Control_c, 10, 11, 104
11, 182424, Note_on_c, 10, 84, 0
11, 182709, Control_c, 10, 11, 125
11, 182736, Note_on_c, 10, 60, 127
11, 182764, Note_on_c, 10, 60, 0
11, 182784, Control_c, 10, 11, 118
11, 182784, Note_on_c, 10, 60, 127
11, 182790, Control_c, 10, 11, 124
11, 182797, Control_c, 10, 11, 126
11, 182811, Control_c, 10, 11, 127
11, 182893, Control_c, 10, 11, 126
11, 182900, Control_c, 10, 11, 123
11, 182921, Control_c, 10, 11, 120
11, 182934, Control_c, 10, 11, 119
11, 182941, Control_c, 10, 11, 116
11, 182955, Control_c, 10, 11, 114
11, 182962, Control_c, 10, 11, 111
11, 182982, Control_c, 10, 11, 110
11, 182996, Control_c, 10, 11, 108
11, 183003, Control_c, 10, 11, 107
11, 183058, Control_c, 10, 11, 105
11, 183085, Control_c, 10, 11, 104
11, 183270, Control_c, 10, 11, 97
11, 183316, Note_on_c, 10, 60, 0
11, 183495, Control_c, 10, 11, 127
11, 183504, Note_on_c, 10, 55, 127
11, 183520, Note_on_c, 10, 55, 0
11, 183520, Note_on_c, 10, 57, 127
11, 183536, Note_on_c, 10, 57, 0
11, 183536, Note_on_c, 10, 59, 127
11, 183552, Note_on_c, 10, 59, 0
11, 183552, Note_on_c, 10, 60, 127
11, 183638, Note_on_c, 10, 60, 0
11, 183744, Note_on_c, 10, 64, 127
11, 183830, Note_on_c, 10, 64, 0
11, 183936, Note_on_c, 10, 67, 127
11, 184022, Note_on_c, 10, 67, 0
11, 184128, Note_on_c, 10, 72, 127
11, 184214, Note_on_c, 10, 72, 0
11, 184288, Note_on_c, 10, 72, 127
11, 184320, Note_on_c, 10, 72, 0
11, 184320, Note_on_c, 10, 71, 127
11, 184344, Note_on_c, 10, 71, 0
11, 184344, Note_on_c, 10, 72, 127
11, 184368, Note_on_c, 10, 72, 0
11, 184368, Note_on_c, 10, 71, 127
11, 184424, Note_on_c, 10, 71, 0
11, 184466, Note_on_c, 10, 69, 127
11, 184497, Note_on_c, 10, 69, 0
11, 184512, Note_on_c, 10, 67, 127
11, 184512, Control_c, 10, 11, 125
11, 184518, Control_c, 10, 11, 123
11, 184532, Control_c, 10, 11, 120
11, 184539, Control_c, 10, 11, 119
11, 184553, Control_c, 10, 11, 117
11, 184560, Control_c, 10, 11, 116
11, 184573, Control_c, 10, 11, 114
11, 184580, Control_c, 10, 11, 113
11, 184594, Control_c, 10, 11, 110
11, 184601, Control_c, 10, 11, 104
11, 184614, Control_c, 10, 11, 101
11, 184621, Control_c, 10, 11, 98
11, 184642, Control_c, 10, 11, 96
11, 184652, Note_on_c, 10, 67, 0
11, 184656, Control_c, 10, 11, 95
11, 184882, Control_c, 10, 11, 127
11, 184896, Note_on_c, 10, 72, 46
11, 184998, Note_on_c, 10, 72, 0
11, 185056, Note_on_c, 10, 72, 46
11, 185088, Note_on_c, 10, 72, 0
11, 185088, Note_on_c, 10, 71, 46
11, 185112, Note_on_c, 10, 71, 0
11, 185112, Note_on_c, 10, 72, 46
11, 185136, Note_on_c, 10, 72, 0
11, 185136, Note_on_c, 10, 71, 46
11, 185196, Note_on_c, 10, 71, 0
11, 185232, Note_on_c, 10, 69, 46
11, 185266, Note_on_c, 10, 69, 0
11, 185280, Note_on_c, 10, 67, 46
11, 185348, Note_on_c, 10, 67, 0
11, 185376, Note_on_c, 10, 72, 46
11, 185422, Note_on_c, 10, 72, 0
11, 185440, Note_on_c, 10, 72, 46
11, 185472, Note_on_c, 10, 72, 0
11, 185472, Note_on_c, 10, 71, 46
11, 185496, Note_on_c, 10, 71, 0
11, 185496, Note_on_c, 10, 72, 46
11, 185520, Note_on_c, 10, 72, 0
11, 185520, Note_on_c, 10, 71, 46
11, 185572, Note_on_c, 10, 71, 0
11, 185616, Note_on_c, 10, 69, 46
11, 185650, Note_on_c, 10, 69, 0
11, 185664, Note_on_c, 10, 67, 46
11, 185732, Note_on_c, 10, 67, 0
11, 185760, Note_on_c, 10, 72, 46
11, 185806, Note_on_c, 10, 72, 0
11, 185824, Note_on_c, 10, 72, 46
11, 185856, Note_on_c, 10, 72, 0
11, 185856, Note_on_c, 10, 71, 46
11, 185880, Note_on_c, 10, 71, 0
11, 185880, Note_on_c, 10, 72, 46
11, 185904, Note_on_c, 10, 72, 0
11, 185904, Note_on_c, 10, 71, 46
11, 185964, Note_on_c, 10, 71, 0
11, 186000, Note_on_c, 10, 69, 46
11, 186034, Note_on_c, 10, 69, 0
11, 186048, Note_on_c, 10, 67, 46
11, 186048, Control_c, 10, 11, 123
11, 186061, Control_c, 10, 11, 122
11, 186075, Control_c, 10, 11, 119
11, 186082, Control_c, 10, 11, 117
11, 186096, Control_c, 10, 11, 114
11, 186102, Control_c, 10, 11, 113
11, 186116, Control_c, 10, 11, 108
11, 186123, Control_c, 10, 11, 107
11, 186144, Control_c, 10, 11, 105
11, 186182, Note_on_c, 10, 67, 0
11, 186580, Control_c, 10, 11, 127
11, 186624, Note_on_c, 10, 69, 103
11, 186724, Note_on_c, 10, 69, 0
11, 186816, Note_on_c, 10, 69, 103
11, 186896, Note_on_c, 10, 69, 0
11, 186962, Note_on_c, 10, 69, 103
11, 186994, Note_on_c, 10, 69, 0
11, 187008, Note_on_c, 10, 69, 103
11, 187107, Note_on_c, 10, 69, 0
11, 187200, Note_on_c, 10, 69, 103
11, 187299, Note_on_c, 10, 69, 0
11, 189696, Note_on_c, 10, 76, 103
11, 189742, Note_on_c, 10, 76, 0
11, 189744, Note_on_c, 10, 76, 103
11, 189790, Note_on_c, 10, 76, 0
11, 189792, Note_on_c, 10, 76, 103
11, 189838, Note_on_c, 10, 76, 0
11, 189840, Note_on_c, 10, 76, 103
11, 189886, Note_on_c, 10, 76, 0
11, 189888, Note_on_c, 10, 76, 103
11, 189934, Note_on_c, 10, 76, 0
11, 189936, Note_on_c, 10, 76, 103
11, 189982, Note_on_c, 10, 76, 0
11, 189984, Note_on_c, 10, 76, 103
11, 190030, Note_on_c, 10, 76, 0
11, 190032, Note_on_c, 10, 76, 103
11, 190078, Note_on_c, 10, 76, 0
11, 190080, Note_on_c, 10, 76, 103
11, 190126, Note_on_c, 10, 76, 0
11, 190128, Note_on_c, 10, 76, 103
11, 190174, Note_on_c, 10, 76, 0
11, 190176, Note_on_c, 10, 76, 103
11, 190222, Note_on_c, 10, 76, 0
11, 190224, Note_on_c, 10, 76, 103
11, 190270, Note_on_c, 10, 76, 0
11, 190272, Note_on_c, 10, 76, 103
11, 190318, Note_on_c, 10, 76, 0
11, 190320, Note_on_c, 10, 76, 103
11, 190366, Note_on_c, 10, 76, 0
11, 190368, Note_on_c, 10, 76, 103
11, 190414, Note_on_c, 10, 76, 0
11, 190416, Note_on_c, 10, 76, 103
11, 190462, Note_on_c, 10, 76, 0
11, 198144, Note_on_c, 10, 72, 103
11, 198190, Note_on_c, 10, 72, 0
11, 198192, Note_on_c, 10, 72, 103
11, 198238, Note_on_c, 10, 72, 0
11, 198240, Note_on_c, 10, 72, 103
11, 198286, Note_on_c, 10, 72, 0
11, 198288, Note_on_c, 10, 72, 103
11, 198334, Note_on_c, 10, 72, 0
11, 198336, Note_on_c, 10, 72, 103
11, 198382, Note_on_c, 10, 72, 0
11, 198384, Note_on_c, 10, 72, 103
11, 198430, Note_on_c, 10, 72, 0
11, 198432, Note_on_c, 10, 72, 103
11, 198478, Note_on_c, 10, 72, 0
11, 198480, Note_on_c, 10, 72, 103
11, 198526, Note_on_c, 10, 72, 0
11, 198528, Note_on_c, 10, 72, 103
11, 198574, Note_on_c, 10, 72, 0
11, 198576, Note_on_c, 10, 72, 103
11, 198622, Note_on_c, 10, 72, 0
11, 198624, Note_on_c, 10, 72, 103
11, 198670, Note_on_c, 10, 72, 0
11, 198672, Note_on_c, 10, 72, 103
11, 198718, Note_on_c, 10, 72, 0
11, 198720, Note_on_c, 10, 72, 103
11, 198766, Note_on_c, 10, 72, 0
11, 198768, Note_on_c, 10, 72, 103
11, 198814, Note_on_c, 10, 72, 0
11, 198816, Note_on_c, 10, 72, 103
11, 198862, Note_on_c, 10, 72, 0
11, 198864, Note_on_c, 10, 72, 103
11, 198910, Note_on_c, 10, 72, 0
11, 202368, Note_on_c, 10, 60, 127
11, 202594, Note_on_c, 10, 60, 0
11, 202656, Note_on_c, 10, 60, 127
11, 202720, Note_on_c, 10, 60, 0
11, 202752, Note_on_c, 10, 60, 127
11, 203126, Note_on_c, 10, 60, 0
11, 204864, Control_c, 10, 121, 0
11, 204864, End_track
12, 0, Start_track
12, 0, MIDI_port, 0
12, 0, Title_t, "Violin 1"
12, 0, Program_c, 11, 48
12, 0, Control_c, 11, 7, 118
12, 0, Control_c, 11, 10, 40
12, 0, Text_t, ""
12, 96, Control_c, 11, 121, 0
12, 192, Control_c, 11, 91, 54
12, 288, Control_c, 11, 93, 6
12, 5376, Note_on_c, 11, 65, 103
12, 5388, Note_on_c, 11, 72, 103
12, 5400, Note_on_c, 11, 81, 103
12, 5484, Note_on_c, 11, 81, 0
12, 5484, Note_on_c, 11, 72, 0
12, 5484, Note_on_c, 11, 65, 0
12, 5568, Note_on_c, 11, 81, 103
12, 5568, Note_on_c, 11, 72, 103
12, 5646, Note_on_c, 11, 72, 0
12, 5646, Note_on_c, 11, 81, 0
12, 5713, Note_on_c, 11, 72, 103
12, 5714, Note_on_c, 11, 81, 103
12, 5747, Note_on_c, 11, 72, 0
12, 5748, Note_on_c, 11, 81, 0
12, 5760, Note_on_c, 11, 81, 103
12, 5760, Note_on_c, 11, 72, 103
12, 5860, Note_on_c, 11, 72, 0
12, 5860, Note_on_c, 11, 81, 0
12, 5952, Note_on_c, 11, 81, 103
12, 5952, Note_on_c, 11, 72, 103
12, 6052, Note_on_c, 11, 72, 0
12, 6052, Note_on_c, 11, 81, 0
12, 6144, Control_c, 11, 11, 120
12, 6144, Note_on_c, 11, 84, 120
12, 6152, Control_c, 11, 11, 123
12, 6157, Control_c, 11, 11, 124
12, 6165, Control_c, 11, 11, 127
12, 6231, Control_c, 11, 11, 126
12, 6244, Control_c, 11, 11, 125
12, 6248, Control_c, 11, 11, 123
12, 6257, Control_c, 11, 11, 122
12, 6270, Control_c, 11, 11, 120
12, 6283, Control_c, 11, 11, 119
12, 6288, Control_c, 11, 11, 117
12, 6296, Control_c, 11, 11, 116
12, 6322, Control_c, 11, 11, 113
12, 6336, Control_c, 11, 11, 111
12, 6349, Control_c, 11, 11, 110
12, 6379, Control_c, 11, 11, 108
12, 6401, Control_c, 11, 11, 107
12, 6596, Note_on_c, 11, 84, 0
12, 6706, Control_c, 11, 11, 118
12, 6720, Note_on_c, 11, 81, 103
12, 6840, Note_on_c, 11, 81, 0
12, 6890, Control_c, 11, 11, 126
12, 6912, Note_on_c, 11, 79, 103
12, 6958, Note_on_c, 11, 79, 0
12, 6960, Note_on_c, 11, 79, 103
12, 7006, Note_on_c, 11, 79, 0
12, 7008, Note_on_c, 11, 79, 103
12, 7054, Note_on_c, 11, 79, 0
12, 7056, Note_on_c, 11, 79, 103
12, 7102, Note_on_c, 11, 79, 0
12, 7104, Note_on_c, 11, 77, 103
12, 7150, Note_on_c, 11, 77, 0
12, 7152, Note_on_c, 11, 77, 103
12, 7198, Note_on_c, 11, 77, 0
12, 7200, Note_on_c, 11, 77, 103
12, 7246, Note_on_c, 11, 77, 0
12, 7248, Note_on_c, 11, 77, 103
12, 7294, Note_on_c, 11, 77, 0
12, 7296, Note_on_c, 11, 76, 103
12, 7342, Note_on_c, 11, 76, 0
12, 7344, Note_on_c, 11, 76, 103
12, 7390, Note_on_c, 11, 76, 0
12, 7392, Note_on_c, 11, 76, 103
12, 7438, Note_on_c, 11, 76, 0
12, 7440, Note_on_c, 11, 76, 103
12, 7486, Note_on_c, 11, 76, 0
12, 7488, Note_on_c, 11, 74, 103
12, 7534, Note_on_c, 11, 74, 0
12, 7536, Note_on_c, 11, 74, 103
12, 7582, Note_on_c, 11, 74, 0
12, 7584, Note_on_c, 11, 74, 103
12, 7630, Note_on_c, 11, 74, 0
12, 7632, Note_on_c, 11, 74, 103
12, 7656, Note_on_c, 11, 74, 0
12, 8448, Note_on_c, 11, 65, 103
12, 8460, Note_on_c, 11, 72, 103
12, 8472, Note_on_c, 11, 81, 103
12, 8512, Note_on_c, 11, 65, 0
12, 8524, Note_on_c, 11, 72, 0
12, 8572, Note_on_c, 11, 81, 0
12, 8640, Note_on_c, 11, 81, 103
12, 8640, Note_on_c, 11, 72, 103
12, 8712, Note_on_c, 11, 72, 0
12, 8712, Note_on_c, 11, 81, 0
12, 8784, Note_on_c, 11, 81, 103
12, 8784, Note_on_c, 11, 72, 103
12, 8818, Note_on_c, 11, 72, 0
12, 8818, Note_on_c, 11, 81, 0
12, 8832, Note_on_c, 11, 81, 103
12, 8832, Note_on_c, 11, 72, 103
12, 8934, Note_on_c, 11, 72, 0
12, 8934, Note_on_c, 11, 81, 0
12, 9024, Note_on_c, 11, 81, 103
12, 9024, Note_on_c, 11, 72, 103
12, 9126, Note_on_c, 11, 72, 0
12, 9126, Note_on_c, 11, 81, 0
12, 9216, Note_on_c, 11, 84, 116
12, 9220, Control_c, 11, 11, 119
12, 9237, Control_c, 11, 11, 121
12, 9246, Control_c, 11, 11, 126
12, 9250, Control_c, 11, 11, 127
12, 9290, Control_c, 11, 11, 126
12, 9298, Control_c, 11, 11, 124
12, 9312, Control_c, 11, 11, 123
12, 9316, Control_c, 11, 11, 122
12, 9325, Control_c, 11, 11, 119
12, 9329, Control_c, 11, 11, 117
12, 9338, Control_c, 11, 11, 116
12, 9351, Control_c, 11, 11, 114
12, 9355, Control_c, 11, 11, 113
12, 9364, Control_c, 11, 11, 111
12, 9368, Control_c, 11, 11, 110
12, 9377, Control_c, 11, 11, 108
12, 9381, Control_c, 11, 11, 107
12, 9390, Control_c, 11, 11, 105
12, 9776, Note_on_c, 11, 84, 0
12, 9984, Note_on_c, 11, 65, 45
12, 9984, Control_c, 11, 11, 127
12, 9996, Note_on_c, 11, 72, 45
12, 10008, Note_on_c, 11, 80, 45
12, 10086, Note_on_c, 11, 72, 0
12, 10086, Note_on_c, 11, 65, 0
12, 10100, Note_on_c, 11, 80, 0
12, 10176, Note_on_c, 11, 80, 45
12, 10176, Note_on_c, 11, 72, 45
12, 10246, Note_on_c, 11, 72, 0
12, 10246, Note_on_c, 11, 80, 0
12, 10320, Note_on_c, 11, 80, 45
12, 10320, Note_on_c, 11, 72, 45
12, 10354, Note_on_c, 11, 72, 0
12, 10354, Note_on_c, 11, 80, 0
12, 10368, Note_on_c, 11, 80, 45
12, 10368, Note_on_c, 11, 72, 45
12, 10458, Note_on_c, 11, 72, 0
12, 10458, Note_on_c, 11, 80, 0
12, 10560, Note_on_c, 11, 80, 45
12, 10560, Note_on_c, 11, 72, 45
12, 10652, Note_on_c, 11, 72, 0
12, 10652, Note_on_c, 11, 80, 0
12, 10751, Control_c, 11, 11, 125
12, 10752, Note_on_c, 11, 84, 52
12, 10757, Control_c, 11, 11, 123
12, 10768, Control_c, 11, 11, 124
12, 10784, Control_c, 11, 11, 127
12, 10801, Control_c, 11, 11, 127
12, 10812, Control_c, 11, 11, 126
12, 10817, Control_c, 11, 11, 125
12, 10828, Control_c, 11, 11, 122
12, 10834, Control_c, 11, 11, 120
12, 10845, Control_c, 11, 11, 117
12, 10861, Control_c, 11, 11, 116
12, 10867, Control_c, 11, 11, 114
12, 10878, Control_c, 11, 11, 113
12, 10883, Control_c, 11, 11, 111
12, 10894, Control_c, 11, 11, 110
12, 10900, Control_c, 11, 11, 107
12, 10916, Control_c, 11, 11, 105
12, 10944, Control_c, 11, 11, 104
12, 10949, Control_c, 11, 11, 102
12, 10965, Control_c, 11, 11, 101
12, 10993, Control_c, 11, 11, 99
12, 11256, Note_on_c, 11, 84, 0
12, 11300, Control_c, 11, 11, 126
12, 11328, Control_c, 11, 11, 127
12, 11328, Note_on_c, 11, 80, 46
12, 11396, Note_on_c, 11, 80, 0
12, 11520, Note_on_c, 11, 79, 46
12, 11588, Note_on_c, 11, 79, 0
12, 11712, Note_on_c, 11, 77, 46
12, 11780, Note_on_c, 11, 77, 0
12, 11904, Note_on_c, 11, 75, 46
12, 11972, Note_on_c, 11, 75, 0
12, 12096, Note_on_c, 11, 74, 46
12, 12164, Note_on_c, 11, 74, 0
12, 14592, Note_on_c, 11, 72, 73
12, 14638, Note_on_c, 11, 72, 0
12, 14640, Note_on_c, 11, 72, 74
12, 14686, Note_on_c, 11, 72, 0
12, 14688, Note_on_c, 11, 72, 76
12, 14734, Note_on_c, 11, 72, 0
12, 14736, Note_on_c, 11, 72, 78
12, 14782, Note_on_c, 11, 72, 0
12, 14784, Note_on_c, 11, 76, 80
12, 14830, Note_on_c, 11, 76, 0
12, 14832, Note_on_c, 11, 76, 82
12, 14878, Note_on_c, 11, 76, 0
12, 14880, Note_on_c, 11, 76, 84
12, 14926, Note_on_c, 11, 76, 0
12, 14928, Note_on_c, 11, 76, 86
12, 14974, Note_on_c, 11, 76, 0
12, 14976, Note_on_c, 11, 79, 88
12, 15022, Note_on_c, 11, 79, 0
12, 15024, Note_on_c, 11, 79, 89
12, 15070, Note_on_c, 11, 79, 0
12, 15072, Note_on_c, 11, 79, 91
12, 15118, Note_on_c, 11, 79, 0
12, 15120, Note_on_c, 11, 79, 93
12, 15166, Note_on_c, 11, 79, 0
12, 15168, Note_on_c, 11, 67, 95
12, 15214, Note_on_c, 11, 67, 0
12, 15216, Note_on_c, 11, 67, 97
12, 15262, Note_on_c, 11, 67, 0
12, 15264, Note_on_c, 11, 67, 99
12, 15310, Note_on_c, 11, 67, 0
12, 15312, Note_on_c, 11, 67, 101
12, 15344, Note_on_c, 11, 55, 102
12, 15352, Note_on_c, 11, 55, 0
12, 15352, Note_on_c, 11, 64, 102
12, 15360, Note_on_c, 11, 67, 0
12, 15360, Note_on_c, 11, 72, 103
12, 15360, Note_on_c, 11, 55, 103
12, 15448, Note_on_c, 11, 64, 0
12, 15454, Note_on_c, 11, 55, 0
12, 15730, Note_on_c, 11, 72, 0
12, 15840, Note_on_c, 11, 84, 108
12, 15888, Note_on_c, 11, 84, 0
12, 15888, Note_on_c, 11, 83, 108
12, 15936, Note_on_c, 11, 83, 0
12, 15936, Note_on_c, 11, 84, 109
12, 15984, Note_on_c, 11, 84, 0
12, 15984, Note_on_c, 11, 83, 110
12, 16032, Note_on_c, 11, 83, 0
12, 16032, Note_on_c, 11, 84, 112
12, 16080, Note_on_c, 11, 84, 0
12, 16080, Note_on_c, 11, 83, 114
12, 16120, Note_on_c, 11, 83, 0
12, 16128, Note_on_c, 11, 84, 114
12, 16232, Note_on_c, 11, 84, 0
12, 16320, Note_on_c, 11, 76, 111
12, 16410, Note_on_c, 11, 76, 0
12, 16512, Note_on_c, 11, 79, 111
12, 16602, Note_on_c, 11, 79, 0
12, 16704, Note_on_c, 11, 72, 111
12, 16794, Note_on_c, 11, 72, 0
12, 16896, Note_on_c, 11, 78, 112
12, 16920, Note_on_c, 11, 78, 0
12, 16920, Note_on_c, 11, 79, 112
12, 16944, Note_on_c, 11, 79, 0
12, 16944, Note_on_c, 11, 81, 112
12, 17022, Note_on_c, 11, 81, 0
12, 17088, Note_on_c, 11, 81, 114
12, 17266, Note_on_c, 11, 81, 0
12, 17376, Note_on_c, 11, 86, 110
12, 17424, Note_on_c, 11, 86, 0
12, 17424, Note_on_c, 11, 85, 110
12, 17472, Note_on_c, 11, 85, 0
12, 17472, Note_on_c, 11, 86, 110
12, 17520, Note_on_c, 11, 86, 0
12, 17520, Note_on_c, 11, 85, 111
12, 17568, Note_on_c, 11, 85, 0
12, 17568, Note_on_c, 11, 86, 112
12, 17616, Note_on_c, 11, 86, 0
12, 17616, Note_on_c, 11, 85, 113
12, 17657, Note_on_c, 11, 85, 0
12, 17664, Note_on_c, 11, 86, 114
12, 17768, Note_on_c, 11, 86, 0
12, 17856, Note_on_c, 11, 78, 112
12, 17946, Note_on_c, 11, 78, 0
12, 18048, Note_on_c, 11, 81, 112
12, 18138, Note_on_c, 11, 81, 0
12, 18240, Note_on_c, 11, 74, 112
12, 18330, Note_on_c, 11, 74, 0
12, 18432, Note_on_c, 11, 79, 112
12, 18456, Note_on_c, 11, 79, 0
12, 18456, Note_on_c, 11, 81, 113
12, 18480, Note_on_c, 11, 81, 0
12, 18480, Note_on_c, 11, 83, 114
12, 18554, Note_on_c, 11, 83, 0
12, 18624, Note_on_c, 11, 83, 111
12, 18802, Note_on_c, 11, 83, 0
12, 18912, Note_on_c, 11, 86, 110
12, 18960, Note_on_c, 11, 86, 0
12, 18960, Note_on_c, 11, 85, 110
12, 19008, Note_on_c, 11, 85, 0
12, 19008, Note_on_c, 11, 86, 111
12, 19056, Note_on_c, 11, 86, 0
12, 19056, Note_on_c, 11, 85, 112
12, 19104, Note_on_c, 11, 85, 0
12, 19104, Note_on_c, 11, 86, 113
12, 19152, Note_on_c, 11, 86, 0
12, 19152, Note_on_c, 11, 85, 114
12, 19192, Note_on_c, 11, 85, 0
12, 19200, Note_on_c, 11, 86, 114
12, 19304, Note_on_c, 11, 86, 0
12, 19392, Note_on_c, 11, 79, 111
12, 19482, Note_on_c, 11, 79, 0
12, 19584, Note_on_c, 11, 83, 111
12, 19674, Note_on_c, 11, 83, 0
12, 19776, Note_on_c, 11, 74, 111
12, 19866, Note_on_c, 11, 74, 0
12, 19968, Note_on_c, 11, 81, 110
12, 19992, Note_on_c, 11, 81, 0
12, 19992, Note_on_c, 11, 83, 112
12, 20016, Note_on_c, 11, 83, 0
12, 20016, Note_on_c, 11, 84, 114
12, 20090, Note_on_c, 11, 84, 0
12, 20160, Note_on_c, 11, 84, 114
12, 20338, Note_on_c, 11, 84, 0
12, 20448, Note_on_c, 11, 86, 110
12, 20496, Note_on_c, 11, 86, 0
12, 20496, Note_on_c, 11, 85, 110
12, 20544, Note_on_c, 11, 85, 0
12, 20544, Note_on_c, 11, 86, 111
12, 20592, Note_on_c, 11, 86, 0
12, 20592, Note_on_c, 11, 85, 112
12, 20640, Note_on_c, 11, 85, 0
12, 20640, Note_on_c, 11, 86, 113
12, 20688, Note_on_c, 11, 86, 0
12, 20688, Note_on_c, 11, 85, 114
12, 20728, Note_on_c, 11, 85, 0
12, 20736, Note_on_c, 11, 86, 115
12, 20840, Note_on_c, 11, 86, 0
12, 20928, Note_on_c, 11, 81, 111
12, 21018, Note_on_c, 11, 81, 0
12, 21120, Note_on_c, 11, 84, 111
12, 21210, Note_on_c, 11, 84, 0
12, 21312, Note_on_c, 11, 74, 111
12, 21402, Note_on_c, 11, 74, 0
12, 21504, Note_on_c, 11, 86, 115
12, 21600, Note_on_c, 11, 86, 0
12, 21696, Note_on_c, 11, 79, 111
12, 21786, Note_on_c, 11, 79, 0
12, 21888, Note_on_c, 11, 82, 111
12, 21978, Note_on_c, 11, 82, 0
12, 22080, Note_on_c, 11, 74, 111
12, 22170, Note_on_c, 11, 74, 0
12, 22272, Note_on_c, 11, 86, 115
12, 22368, Note_on_c, 11, 86, 0
12, 22464, Note_on_c, 11, 78, 111
12, 22554, Note_on_c, 11, 78, 0
12, 22656, Note_on_c, 11, 81, 111
12, 22746, Note_on_c, 11, 81, 0
12, 22848, Note_on_c, 11, 74, 111
12, 22938, Note_on_c, 11, 74, 0
12, 23040, Note_on_c, 11, 86, 115
12, 23136, Note_on_c, 11, 86, 0
12, 23232, Note_on_c, 11, 79, 111
12, 23322, Note_on_c, 11, 79, 0
12, 23424, Note_on_c, 11, 82, 112
12, 23514, Note_on_c, 11, 82, 0
12, 23616, Note_on_c, 11, 74, 113
12, 23706, Note_on_c, 11, 74, 0
12, 23808, Note_on_c, 11, 85, 115
12, 23854, Note_on_c, 11, 85, 0
12, 23904, Note_on_c, 11, 85, 114
12, 24038, Note_on_c, 11, 85, 0
12, 24096, Note_on_c, 11, 85, 107
12, 24230, Note_on_c, 11, 85, 0
12, 24288, Note_on_c, 11, 85, 107
12, 24422, Note_on_c, 11, 85, 0
12, 24480, Note_on_c, 11, 85, 107
12, 24540, Note_on_c, 11, 85, 0
12, 24576, Note_on_c, 11, 86, 107
12, 24622, Note_on_c, 11, 86, 0
12, 24624, Note_on_c, 11, 74, 107
12, 24670, Note_on_c, 11, 74, 0
12, 24672, Note_on_c, 11, 86, 107
12, 24718, Note_on_c, 11, 86, 0
12, 24720, Note_on_c, 11, 86, 107
12, 24766, Note_on_c, 11, 86, 0
12, 24768, Note_on_c, 11, 86, 107
12, 24814, Note_on_c, 11, 86, 0
12, 24816, Note_on_c, 11, 86, 107
12, 24862, Note_on_c, 11, 86, 0
12, 24864, Note_on_c, 11, 86, 107
12, 24910, Note_on_c, 11, 86, 0
12, 24912, Note_on_c, 11, 86, 107
12, 24958, Note_on_c, 11, 86, 0
12, 24960, Note_on_c, 11, 86, 107
12, 25006, Note_on_c, 11, 86, 0
12, 25008, Note_on_c, 11, 86, 107
12, 25054, Note_on_c, 11, 86, 0
12, 25056, Note_on_c, 11, 86, 107
12, 25102, Note_on_c, 11, 86, 0
12, 25104, Note_on_c, 11, 86, 107
12, 25150, Note_on_c, 11, 86, 0
12, 25152, Note_on_c, 11, 86, 107
12, 25198, Note_on_c, 11, 86, 0
12, 25200, Note_on_c, 11, 86, 107
12, 25246, Note_on_c, 11, 86, 0
12, 25248, Note_on_c, 11, 86, 107
12, 25294, Note_on_c, 11, 86, 0
12, 25296, Note_on_c, 11, 86, 107
12, 25308, Note_on_c, 11, 86, 0
12, 25344, Note_on_c, 11, 85, 107
12, 25390, Note_on_c, 11, 85, 0
12, 25392, Note_on_c, 11, 85, 107
12, 25438, Note_on_c, 11, 85, 0
12, 25440, Note_on_c, 11, 85, 107
12, 25486, Note_on_c, 11, 85, 0
12, 25488, Note_on_c, 11, 85, 107
12, 25534, Note_on_c, 11, 85, 0
12, 25536, Note_on_c, 11, 85, 107
12, 25582, Note_on_c, 11, 85, 0
12, 25584, Note_on_c, 11, 85, 107
12, 25630, Note_on_c, 11, 85, 0
12, 25632, Note_on_c, 11, 85, 107
12, 25678, Note_on_c, 11, 85, 0
12, 25680, Note_on_c, 11, 85, 107
12, 25726, Note_on_c, 11, 85, 0
12, 25728, Note_on_c, 11, 85, 107
12, 25774, Note_on_c, 11, 85, 0
12, 25776, Note_on_c, 11, 85, 107
12, 25822, Note_on_c, 11, 85, 0
12, 25824, Note_on_c, 11, 85, 107
12, 25870, Note_on_c, 11, 85, 0
12, 25872, Note_on_c, 11, 85, 107
12, 25918, Note_on_c, 11, 85, 0
12, 25920, Note_on_c, 11, 85, 107
12, 25966, Note_on_c, 11, 85, 0
12, 25968, Note_on_c, 11, 85, 107
12, 26014, Note_on_c, 11, 85, 0
12, 26016, Note_on_c, 11, 85, 107
12, 26062, Note_on_c, 11, 85, 0
12, 26064, Note_on_c, 11, 85, 107
12, 26092, Note_on_c, 11, 85, 0
12, 26112, Note_on_c, 11, 86, 107
12, 26158, Note_on_c, 11, 86, 0
12, 26208, Note_on_c, 11, 86, 107
12, 26208, Note_on_c, 11, 74, 107
12, 26342, Note_on_c, 11, 74, 0
12, 26342, Note_on_c, 11, 86, 0
12, 26400, Note_on_c, 11, 86, 107
12, 26534, Note_on_c, 11, 86, 0
12, 26592, Note_on_c, 11, 86, 107
12, 26592, Note_on_c, 11, 74, 107
12, 26726, Note_on_c, 11, 74, 0
12, 26726, Note_on_c, 11, 86, 0
12, 26784, Note_on_c, 11, 86, 107
12, 26784, Note_on_c, 11, 74, 107
12, 26926, Note_on_c, 11, 74, 0
12, 26926, Note_on_c, 11, 86, 0
12, 26976, Note_on_c, 11, 86, 107
12, 26976, Note_on_c, 11, 74, 107
12, 27110, Note_on_c, 11, 74, 0
12, 27110, Note_on_c, 11, 86, 0
12, 27168, Note_on_c, 11, 86, 107
12, 27302, Note_on_c, 11, 86, 0
12, 27360, Note_on_c, 11, 86, 107
12, 27360, Note_on_c, 11, 74, 107
12, 27494, Note_on_c, 11, 74, 0
12, 27494, Note_on_c, 11, 86, 0
12, 27552, Note_on_c, 11, 86, 107
12, 27552, Note_on_c, 11, 74, 107
12, 27694, Note_on_c, 11, 74, 0
12, 27694, Note_on_c, 11, 86, 0
12, 27744, Note_on_c, 11, 86, 107
12, 27744, Note_on_c, 11, 74, 107
12, 27878, Note_on_c, 11, 74, 0
12, 27878, Note_on_c, 11, 86, 0
12, 27936, Note_on_c, 11, 86, 107
12, 27936, Note_on_c, 11, 74, 107
12, 28070, Note_on_c, 11, 74, 0
12, 28070, Note_on_c, 11, 86, 0
12, 28128, Note_on_c, 11, 86, 107
12, 28128, Note_on_c, 11, 74, 107
12, 28262, Note_on_c, 11, 74, 0
12, 28262, Note_on_c, 11, 86, 0
12, 28320, Note_on_c, 11, 86, 107
12, 28320, Note_on_c, 11, 74, 107
12, 28380, Note_on_c, 11, 74, 0
12, 28380, Note_on_c, 11, 86, 0
12, 28416, Note_on_c, 11, 86, 107
12, 28416, Note_on_c, 11, 74, 107
12, 28594, Note_on_c, 11, 74, 0
12, 28594, Note_on_c, 11, 86, 0
12, 31104, Note_on_c, 11, 74, 50
12, 31113, Control_c, 11, 11, 109
12, 31121, Control_c, 11, 11, 111
12, 31130, Control_c, 11, 11, 114
12, 31148, Control_c, 11, 11, 115
12, 31156, Control_c, 11, 11, 121
12, 31174, Control_c, 11, 11, 123
12, 31183, Control_c, 11, 11, 124
12, 31200, Control_c, 11, 11, 127
12, 31296, Note_on_c, 11, 74, 0
12, 31296, Note_on_c, 11, 73, 54
12, 31488, Note_on_c, 11, 73, 0
12, 31488, Note_on_c, 11, 72, 57
12, 31680, Note_on_c, 11, 72, 0
12, 31680, Note_on_c, 11, 71, 57
12, 31872, Note_on_c, 11, 71, 0
12, 31872, Note_on_c, 11, 72, 54
12, 32064, Note_on_c, 11, 72, 0
12, 32064, Note_on_c, 11, 69, 50
12, 32237, Note_on_c, 11, 69, 0
12, 32832, Note_on_c, 11, 69, 59
12, 32940, Note_on_c, 11, 69, 0
12, 32982, Note_on_c, 11, 71, 61
12, 33024, Note_on_c, 11, 72, 62
12, 33026, Note_on_c, 11, 71, 0
12, 33158, Note_on_c, 11, 72, 0
12, 33216, Note_on_c, 11, 72, 64
12, 33408, Note_on_c, 11, 72, 0
12, 33408, Note_on_c, 11, 71, 63
12, 33600, Note_on_c, 11, 71, 0
12, 33600, Note_on_c, 11, 76, 60
12, 33742, Note_on_c, 11, 76, 0
12, 33792, Note_on_c, 11, 74, 57
12, 33926, Note_on_c, 11, 74, 0
12, 34176, Note_on_c, 11, 73, 59
12, 34218, Note_on_c, 11, 73, 0
12, 34218, Note_on_c, 11, 74, 59
12, 34302, Note_on_c, 11, 74, 0
12, 34368, Note_on_c, 11, 76, 59
12, 34410, Note_on_c, 11, 76, 0
12, 34410, Note_on_c, 11, 74, 59
12, 34494, Note_on_c, 11, 74, 0
12, 34560, Note_on_c, 11, 71, 59
12, 34602, Note_on_c, 11, 71, 0
12, 34602, Note_on_c, 11, 72, 59
12, 34690, Note_on_c, 11, 72, 0
12, 34944, Note_on_c, 11, 71, 59
12, 34986, Note_on_c, 11, 71, 0
12, 34986, Note_on_c, 11, 72, 59
12, 35070, Note_on_c, 11, 72, 0
12, 35136, Note_on_c, 11, 74, 59
12, 35178, Note_on_c, 11, 74, 0
12, 35178, Note_on_c, 11, 72, 59
12, 35262, Note_on_c, 11, 72, 0
12, 35328, Note_on_c, 11, 70, 59
12, 35370, Note_on_c, 11, 70, 0
12, 35370, Note_on_c, 11, 71, 59
12, 35458, Note_on_c, 11, 71, 0
12, 35712, Note_on_c, 11, 70, 59
12, 35754, Note_on_c, 11, 70, 0
12, 35754, Note_on_c, 11, 71, 59
12, 35842, Note_on_c, 11, 71, 0
12, 35904, Note_on_c, 11, 72, 59
12, 35946, Note_on_c, 11, 72, 0
12, 35946, Note_on_c, 11, 71, 59
12, 36034, Note_on_c, 11, 71, 0
12, 36096, Note_on_c, 11, 68, 59
12, 36138, Note_on_c, 11, 68, 0
12, 36138, Note_on_c, 11, 69, 59
12, 36222, Note_on_c, 11, 69, 0
12, 36288, Note_on_c, 11, 72, 59
12, 36330, Note_on_c, 11, 72, 0
12, 36330, Note_on_c, 11, 76, 59
12, 36414, Note_on_c, 11, 76, 0
12, 36480, Note_on_c, 11, 74, 59
12, 36522, Note_on_c, 11, 74, 0
12, 36522, Note_on_c, 11, 71, 59
12, 36606, Note_on_c, 11, 71, 0
12, 36672, Note_on_c, 11, 72, 59
12, 36714, Note_on_c, 11, 72, 0
12, 36714, Note_on_c, 11, 69, 59
12, 36798, Note_on_c, 11, 69, 0
12, 37195, Control_c, 11, 11, 95
12, 37217, Control_c, 11, 11, 96
12, 37226, Control_c, 11, 11, 97
12, 37235, Control_c, 11, 11, 98
12, 37243, Control_c, 11, 11, 99
12, 37248, Control_c, 11, 11, 100
12, 37248, Note_on_c, 11, 74, 63
12, 37252, Control_c, 11, 11, 101
12, 37257, Control_c, 11, 11, 102
12, 37261, Control_c, 11, 11, 103
12, 37265, Control_c, 11, 11, 104
12, 37270, Control_c, 11, 11, 105
12, 37287, Control_c, 11, 11, 106
12, 37291, Control_c, 11, 11, 107
12, 37296, Control_c, 11, 11, 108
12, 37300, Control_c, 11, 11, 109
12, 37322, Control_c, 11, 11, 110
12, 37339, Control_c, 11, 11, 111
12, 37353, Control_c, 11, 11, 112
12, 37374, Control_c, 11, 11, 113
12, 37379, Control_c, 11, 11, 114
12, 37409, Control_c, 11, 11, 115
12, 37435, Control_c, 11, 11, 116
12, 37440, Note_on_c, 11, 74, 0
12, 37440, Note_on_c, 11, 73, 67
12, 37479, Control_c, 11, 11, 117
12, 37497, Control_c, 11, 11, 118
12, 37527, Control_c, 11, 11, 119
12, 37579, Control_c, 11, 11, 120
12, 37606, Control_c, 11, 11, 122
12, 37632, Note_on_c, 11, 73, 0
12, 37632, Note_on_c, 11, 72, 67
12, 37689, Control_c, 11, 11, 123
12, 37723, Control_c, 11, 11, 122
12, 37737, Control_c, 11, 11, 121
12, 37758, Control_c, 11, 11, 120
12, 37771, Control_c, 11, 11, 119
12, 37785, Control_c, 11, 11, 118
12, 37789, Control_c, 11, 11, 117
12, 37798, Control_c, 11, 11, 116
12, 37802, Control_c, 11, 11, 115
12, 37806, Control_c, 11, 11, 114
12, 37811, Control_c, 11, 11, 112
12, 37815, Control_c, 11, 11, 110
12, 37819, Control_c, 11, 11, 108
12, 37824, Note_on_c, 11, 72, 0
12, 37824, Control_c, 11, 11, 107
12, 37824, Note_on_c, 11, 71, 63
12, 37828, Control_c, 11, 11, 106
12, 37898, Control_c, 11, 11, 110
12, 37915, Control_c, 11, 11, 111
12, 37929, Control_c, 11, 11, 112
12, 37950, Control_c, 11, 11, 113
12, 37959, Control_c, 11, 11, 114
12, 37968, Control_c, 11, 11, 115
12, 37972, Control_c, 11, 11, 116
12, 37985, Control_c, 11, 11, 117
12, 37997, Note_on_c, 11, 71, 0
12, 37998, Control_c, 11, 11, 118
12, 38003, Control_c, 11, 11, 119
12, 38011, Control_c, 11, 11, 120
12, 38016, Note_on_c, 11, 74, 60
12, 38020, Control_c, 11, 11, 121
12, 38033, Control_c, 11, 11, 122
12, 38038, Control_c, 11, 11, 123
12, 38042, Control_c, 11, 11, 124
12, 38112, Note_on_c, 11, 74, 0
12, 38112, Note_on_c, 11, 72, 61
12, 38196, Note_on_c, 11, 72, 0
12, 38208, Note_on_c, 11, 71, 62
12, 38304, Note_on_c, 11, 71, 0
12, 38304, Note_on_c, 11, 69, 60
12, 38388, Note_on_c, 11, 69, 0
12, 38958, Control_c, 11, 11, 127
12, 38976, Note_on_c, 11, 69, 59
12, 39096, Note_on_c, 11, 69, 0
12, 39120, Note_on_c, 11, 71, 62
12, 39152, Note_on_c, 11, 71, 0
12, 39168, Note_on_c, 11, 72, 62
12, 39302, Note_on_c, 11, 72, 0
12, 39360, Note_on_c, 11, 72, 61
12, 39552, Note_on_c, 11, 72, 0
12, 39552, Note_on_c, 11, 71, 60
12, 39744, Note_on_c, 11, 71, 0
12, 39744, Note_on_c, 11, 76, 58
12, 39894, Note_on_c, 11, 76, 0
12, 39936, Note_on_c, 11, 74, 57
12, 40070, Note_on_c, 11, 74, 0
12, 40320, Note_on_c, 11, 73, 59
12, 40362, Note_on_c, 11, 74, 59
12, 40368, Note_on_c, 11, 73, 0
12, 40450, Note_on_c, 11, 74, 0
12, 40512, Note_on_c, 11, 76, 59
12, 40554, Note_on_c, 11, 74, 59
12, 40560, Note_on_c, 11, 76, 0
12, 40642, Note_on_c, 11, 74, 0
12, 40704, Note_on_c, 11, 71, 59
12, 40746, Note_on_c, 11, 72, 59
12, 40752, Note_on_c, 11, 71, 0
12, 40840, Note_on_c, 11, 72, 0
12, 41088, Note_on_c, 11, 71, 60
12, 41130, Note_on_c, 11, 72, 60
12, 41136, Note_on_c, 11, 71, 0
12, 41218, Note_on_c, 11, 72, 0
12, 41280, Note_on_c, 11, 74, 60
12, 41322, Note_on_c, 11, 72, 60
12, 41328, Note_on_c, 11, 74, 0
12, 41410, Note_on_c, 11, 72, 0
12, 41472, Note_on_c, 11, 70, 60
12, 41514, Note_on_c, 11, 71, 60
12, 41520, Note_on_c, 11, 70, 0
12, 41608, Note_on_c, 11, 71, 0
12, 41856, Note_on_c, 11, 70, 60
12, 41898, Note_on_c, 11, 71, 60
12, 41904, Note_on_c, 11, 70, 0
12, 41986, Note_on_c, 11, 71, 0
12, 42048, Note_on_c, 11, 72, 60
12, 42090, Note_on_c, 11, 71, 60
12, 42096, Note_on_c, 11, 72, 0
12, 42178, Note_on_c, 11, 71, 0
12, 42240, Note_on_c, 11, 68, 60
12, 42282, Note_on_c, 11, 69, 60
12, 42288, Note_on_c, 11, 68, 0
12, 42370, Note_on_c, 11, 69, 0
12, 42624, Note_on_c, 11, 72, 60
12, 42666, Note_on_c, 11, 71, 60
12, 42672, Note_on_c, 11, 72, 0
12, 42754, Note_on_c, 11, 71, 0
12, 43008, Note_on_c, 11, 74, 60
12, 43050, Note_on_c, 11, 72, 60
12, 43056, Note_on_c, 11, 74, 0
12, 43138, Note_on_c, 11, 72, 0
12, 43392, Note_on_c, 11, 71, 60
12, 43434, Note_on_c, 11, 72, 60
12, 43440, Note_on_c, 11, 71, 0
12, 43520, Note_on_c, 11, 72, 0
12, 43584, Note_on_c, 11, 74, 60
12, 43626, Note_on_c, 11, 72, 60
12, 43632, Note_on_c, 11, 74, 0
12, 43712, Note_on_c, 11, 72, 0
12, 43776, Note_on_c, 11, 70, 60
12, 43818, Note_on_c, 11, 71, 60
12, 43824, Note_on_c, 11, 70, 0
12, 43906, Note_on_c, 11, 71, 0
12, 44160, Note_on_c, 11, 74, 60
12, 44202, Note_on_c, 11, 73, 60
12, 44208, Note_on_c, 11, 74, 0
12, 44290, Note_on_c, 11, 73, 0
12, 44544, Note_on_c, 11, 76, 60
12, 44586, Note_on_c, 11, 74, 60
12, 44592, Note_on_c, 11, 76, 0
12, 44674, Note_on_c, 11, 74, 0
12, 44928, Note_on_c, 11, 78, 60
12, 44970, Note_on_c, 11, 79, 60
12, 44976, Note_on_c, 11, 78, 0
12, 45056, Note_on_c, 11, 79, 0
12, 45120, Note_on_c, 11, 81, 60
12, 45162, Note_on_c, 11, 79, 60
12, 45168, Note_on_c, 11, 81, 0
12, 45248, Note_on_c, 11, 79, 0
12, 45312, Note_on_c, 11, 83, 104
12, 45317, Control_c, 11, 11, 126
12, 45339, Control_c, 11, 11, 126
12, 45388, Control_c, 11, 11, 127
12, 45427, Control_c, 11, 11, 116
12, 45438, Control_c, 11, 11, 113
12, 45443, Control_c, 11, 11, 107
12, 45454, Control_c, 11, 11, 104
12, 45471, Control_c, 11, 11, 102
12, 45476, Control_c, 11, 11, 101
12, 45487, Control_c, 11, 11, 99
12, 45493, Control_c, 11, 11, 98
12, 45504, Control_c, 11, 11, 96
12, 45509, Control_c, 11, 11, 95
12, 45520, Control_c, 11, 11, 93
12, 45525, Control_c, 11, 11, 92
12, 45553, Control_c, 11, 11, 90
12, 45558, Control_c, 11, 11, 89
12, 45826, Note_on_c, 11, 83, 0
12, 45888, Note_on_c, 11, 81, 84
12, 45936, Note_on_c, 11, 81, 0
12, 45936, Note_on_c, 11, 79, 84
12, 45984, Note_on_c, 11, 79, 0
12, 45984, Note_on_c, 11, 78, 84
12, 46032, Note_on_c, 11, 78, 0
12, 46032, Note_on_c, 11, 76, 84
12, 46080, Note_on_c, 11, 76, 0
12, 46080, Note_on_c, 11, 75, 84
12, 46214, Note_on_c, 11, 75, 0
12, 46272, Note_on_c, 11, 75, 84
12, 46362, Note_on_c, 11, 75, 0
12, 46464, Note_on_c, 11, 75, 84
12, 46554, Note_on_c, 11, 75, 0
12, 46656, Note_on_c, 11, 75, 84
12, 46746, Note_on_c, 11, 75, 0
12, 46848, Note_on_c, 11, 75, 84
12, 47040, Note_on_c, 11, 75, 0
12, 47040, Note_on_c, 11, 76, 84
12, 47167, Note_on_c, 11, 76, 0
12, 47232, Note_on_c, 11, 75, 84
12, 47274, Note_on_c, 11, 76, 84
12, 47280, Note_on_c, 11, 75, 0
12, 47360, Note_on_c, 11, 76, 0
12, 47424, Note_on_c, 11, 78, 84
12, 47466, Note_on_c, 11, 76, 84
12, 47472, Note_on_c, 11, 78, 0
12, 47552, Note_on_c, 11, 76, 0
12, 47616, Note_on_c, 11, 79, 84
12, 47616, Control_c, 11, 11, 127
12, 47720, Control_c, 11, 11, 123
12, 47725, Control_c, 11, 11, 120
12, 47736, Control_c, 11, 11, 117
12, 47742, Control_c, 11, 11, 112
12, 47753, Control_c, 11, 11, 109
12, 47758, Control_c, 11, 11, 106
12, 47769, Control_c, 11, 11, 105
12, 47775, Control_c, 11, 11, 103
12, 47786, Control_c, 11, 11, 100
12, 47791, Control_c, 11, 11, 99
12, 47802, Control_c, 11, 11, 97
12, 47807, Control_c, 11, 11, 94
12, 47818, Control_c, 11, 11, 93
12, 47835, Control_c, 11, 11, 91
12, 47840, Control_c, 11, 11, 90
12, 47851, Control_c, 11, 11, 88
12, 48128, Note_on_c, 11, 79, 0
12, 48137, Control_c, 11, 11, 95
12, 48175, Control_c, 11, 11, 96
12, 48192, Note_on_c, 11, 78, 72
12, 48208, Control_c, 11, 11, 97
12, 48240, Note_on_c, 11, 78, 0
12, 48240, Note_on_c, 11, 76, 72
12, 48288, Note_on_c, 11, 76, 0
12, 48288, Note_on_c, 11, 74, 72
12, 48336, Note_on_c, 11, 74, 0
12, 48336, Note_on_c, 11, 72, 72
12, 48348, Note_on_c, 11, 72, 0
12, 48384, Note_on_c, 11, 71, 72
12, 48526, Note_on_c, 11, 71, 0
12, 48576, Note_on_c, 11, 71, 63
12, 48586, Control_c, 11, 11, 111
12, 48658, Control_c, 11, 11, 114
12, 48690, Control_c, 11, 11, 115
12, 48707, Control_c, 11, 11, 117
12, 48718, Control_c, 11, 11, 118
12, 48723, Control_c, 11, 11, 120
12, 48751, Control_c, 11, 11, 121
12, 48768, Note_on_c, 11, 71, 0
12, 48768, Note_on_c, 11, 72, 63
12, 48784, Control_c, 11, 11, 123
12, 48800, Control_c, 11, 11, 124
12, 48855, Control_c, 11, 11, 126
12, 48904, Control_c, 11, 11, 125
12, 48915, Control_c, 11, 11, 123
12, 48937, Control_c, 11, 11, 122
12, 48954, Control_c, 11, 11, 120
12, 48960, Note_on_c, 11, 72, 0
12, 48960, Note_on_c, 11, 69, 63
12, 48970, Control_c, 11, 11, 119
12, 48987, Control_c, 11, 11, 117
12, 49047, Control_c, 11, 11, 116
12, 49069, Control_c, 11, 11, 114
12, 49080, Control_c, 11, 11, 111
12, 49096, Control_c, 11, 11, 108
12, 49102, Control_c, 11, 11, 104
12, 49113, Control_c, 11, 11, 102
12, 49128, Note_on_c, 11, 69, 0
12, 49129, Control_c, 11, 11, 99
12, 49152, Note_on_c, 11, 67, 46
12, 49153, Control_c, 11, 11, 127
12, 49198, Note_on_c, 11, 67, 0
12, 49200, Note_on_c, 11, 67, 46
12, 49246, Note_on_c, 11, 67, 0
12, 49248, Note_on_c, 11, 67, 46
12, 49294, Note_on_c, 11, 67, 0
12, 49296, Note_on_c, 11, 67, 46
12, 49342, Note_on_c, 11, 67, 0
12, 49344, Note_on_c, 11, 55, 46
12, 49390, Note_on_c, 11, 55, 0
12, 49392, Note_on_c, 11, 55, 46
12, 49438, Note_on_c, 11, 55, 0
12, 49440, Note_on_c, 11, 55, 46
12, 49486, Note_on_c, 11, 55, 0
12, 49488, Note_on_c, 11, 55, 46
12, 49534, Note_on_c, 11, 55, 0
12, 49536, Note_on_c, 11, 67, 46
12, 49582, Note_on_c, 11, 67, 0
12, 49584, Note_on_c, 11, 67, 46
12, 49630, Note_on_c, 11, 67, 0
12, 49632, Note_on_c, 11, 67, 46
12, 49678, Note_on_c, 11, 67, 0
12, 49680, Note_on_c, 11, 67, 46
12, 49726, Note_on_c, 11, 67, 0
12, 49728, Note_on_c, 11, 68, 46
12, 49774, Note_on_c, 11, 68, 0
12, 49776, Note_on_c, 11, 68, 46
12, 49822, Note_on_c, 11, 68, 0
12, 49824, Note_on_c, 11, 68, 46
12, 49870, Note_on_c, 11, 68, 0
12, 49872, Note_on_c, 11, 68, 46
12, 49918, Note_on_c, 11, 68, 0
12, 49920, Note_on_c, 11, 69, 46
12, 49966, Note_on_c, 11, 69, 0
12, 49968, Note_on_c, 11, 69, 46
12, 50014, Note_on_c, 11, 69, 0
12, 50016, Note_on_c, 11, 69, 46
12, 50062, Note_on_c, 11, 69, 0
12, 50064, Note_on_c, 11, 69, 46
12, 50110, Note_on_c, 11, 69, 0
12, 50112, Note_on_c, 11, 61, 46
12, 50158, Note_on_c, 11, 61, 0
12, 50160, Note_on_c, 11, 61, 46
12, 50206, Note_on_c, 11, 61, 0
12, 50208, Note_on_c, 11, 61, 46
12, 50254, Note_on_c, 11, 61, 0
12, 50256, Note_on_c, 11, 61, 46
12, 50302, Note_on_c, 11, 61, 0
12, 50304, Note_on_c, 11, 62, 46
12, 50350, Note_on_c, 11, 62, 0
12, 50352, Note_on_c, 11, 62, 46
12, 50398, Note_on_c, 11, 62, 0
12, 50400, Note_on_c, 11, 62, 46
12, 50446, Note_on_c, 11, 62, 0
12, 50448, Note_on_c, 11, 62, 46
12, 50494, Note_on_c, 11, 62, 0
12, 50496, Note_on_c, 11, 72, 46
12, 50542, Note_on_c, 11, 72, 0
12, 50544, Note_on_c, 11, 72, 46
12, 50590, Note_on_c, 11, 72, 0
12, 50592, Note_on_c, 11, 72, 46
12, 50638, Note_on_c, 11, 72, 0
12, 50640, Note_on_c, 11, 72, 46
12, 50652, Note_on_c, 11, 72, 0
12, 50688, Note_on_c, 11, 71, 46
12, 50782, Note_on_c, 11, 71, 0
12, 50880, Note_on_c, 11, 71, 46
12, 50934, Note_on_c, 11, 71, 0
12, 50976, Note_on_c, 11, 71, 46
12, 51030, Note_on_c, 11, 71, 0
12, 51072, Note_on_c, 11, 71, 46
12, 51126, Note_on_c, 11, 71, 0
12, 51168, Note_on_c, 11, 71, 46
12, 51222, Note_on_c, 11, 71, 0
12, 51264, Note_on_c, 11, 72, 46
12, 51300, Note_on_c, 11, 72, 0
12, 51300, Note_on_c, 11, 71, 46
12, 51336, Note_on_c, 11, 71, 0
12, 51336, Note_on_c, 11, 72, 46
12, 51372, Note_on_c, 11, 72, 0
12, 51372, Note_on_c, 11, 71, 46
12, 51408, Note_on_c, 11, 71, 0
12, 51408, Note_on_c, 11, 69, 46
12, 51432, Note_on_c, 11, 69, 0
12, 51432, Note_on_c, 11, 71, 46
12, 51450, Note_on_c, 11, 71, 0
12, 51456, Note_on_c, 11, 72, 46
12, 51490, Note_on_c, 11, 72, 0
12, 51552, Note_on_c, 11, 71, 46
12, 51586, Note_on_c, 11, 71, 0
12, 51648, Note_on_c, 11, 69, 46
12, 51682, Note_on_c, 11, 69, 0
12, 51744, Note_on_c, 11, 67, 46
12, 51778, Note_on_c, 11, 67, 0
12, 51840, Note_on_c, 11, 66, 46
12, 51874, Note_on_c, 11, 66, 0
12, 51936, Note_on_c, 11, 64, 46
12, 51970, Note_on_c, 11, 64, 0
12, 52032, Note_on_c, 11, 66, 46
12, 52066, Note_on_c, 11, 66, 0
12, 52128, Note_on_c, 11, 62, 46
12, 52162, Note_on_c, 11, 62, 0
12, 52224, Note_on_c, 11, 74, 46
12, 52270, Note_on_c, 11, 74, 0
12, 52272, Note_on_c, 11, 74, 46
12, 52318, Note_on_c, 11, 74, 0
12, 52320, Note_on_c, 11, 74, 46
12, 52366, Note_on_c, 11, 74, 0
12, 52368, Note_on_c, 11, 74, 46
12, 52414, Note_on_c, 11, 74, 0
12, 52416, Note_on_c, 11, 62, 46
12, 52462, Note_on_c, 11, 62, 0
12, 52464, Note_on_c, 11, 62, 46
12, 52510, Note_on_c, 11, 62, 0
12, 52512, Note_on_c, 11, 62, 46
12, 52558, Note_on_c, 11, 62, 0
12, 52560, Note_on_c, 11, 62, 46
12, 52606, Note_on_c, 11, 62, 0
12, 52608, Note_on_c, 11, 74, 46
12, 52654, Note_on_c, 11, 74, 0
12, 52656, Note_on_c, 11, 74, 46
12, 52702, Note_on_c, 11, 74, 0
12, 52704, Note_on_c, 11, 74, 46
12, 52750, Note_on_c, 11, 74, 0
12, 52752, Note_on_c, 11, 74, 46
12, 52798, Note_on_c, 11, 74, 0
12, 52800, Note_on_c, 11, 75, 46
12, 52846, Note_on_c, 11, 75, 0
12, 52848, Note_on_c, 11, 75, 46
12, 52894, Note_on_c, 11, 75, 0
12, 52896, Note_on_c, 11, 75, 46
12, 52942, Note_on_c, 11, 75, 0
12, 52944, Note_on_c, 11, 75, 46
12, 52990, Note_on_c, 11, 75, 0
12, 52992, Note_on_c, 11, 76, 46
12, 53038, Note_on_c, 11, 76, 0
12, 53040, Note_on_c, 11, 76, 46
12, 53086, Note_on_c, 11, 76, 0
12, 53088, Note_on_c, 11, 76, 46
12, 53134, Note_on_c, 11, 76, 0
12, 53136, Note_on_c, 11, 76, 46
12, 53182, Note_on_c, 11, 76, 0
12, 53184, Note_on_c, 11, 72, 46
12, 53230, Note_on_c, 11, 72, 0
12, 53232, Note_on_c, 11, 72, 46
12, 53278, Note_on_c, 11, 72, 0
12, 53280, Note_on_c, 11, 72, 46
12, 53326, Note_on_c, 11, 72, 0
12, 53328, Note_on_c, 11, 72, 46
12, 53374, Note_on_c, 11, 72, 0
12, 53376, Note_on_c, 11, 69, 46
12, 53422, Note_on_c, 11, 69, 0
12, 53424, Note_on_c, 11, 69, 46
12, 53470, Note_on_c, 11, 69, 0
12, 53472, Note_on_c, 11, 69, 46
12, 53518, Note_on_c, 11, 69, 0
12, 53520, Note_on_c, 11, 69, 46
12, 53566, Note_on_c, 11, 69, 0
12, 53568, Note_on_c, 11, 78, 46
12, 53614, Note_on_c, 11, 78, 0
12, 53616, Note_on_c, 11, 78, 46
12, 53662, Note_on_c, 11, 78, 0
12, 53664, Note_on_c, 11, 78, 46
12, 53710, Note_on_c, 11, 78, 0
12, 53712, Note_on_c, 11, 78, 46
12, 53758, Note_on_c, 11, 78, 0
12, 53760, Note_on_c, 11, 79, 46
12, 53854, Note_on_c, 11, 79, 0
12, 53952, Note_on_c, 11, 79, 50
12, 53998, Note_on_c, 11, 79, 0
12, 54048, Note_on_c, 11, 79, 54
12, 54094, Note_on_c, 11, 79, 0
12, 54144, Note_on_c, 11, 79, 56
12, 54190, Note_on_c, 11, 79, 0
12, 54240, Note_on_c, 11, 79, 59
12, 54286, Note_on_c, 11, 79, 0
12, 54336, Note_on_c, 11, 81, 62
12, 54372, Note_on_c, 11, 81, 0
12, 54372, Note_on_c, 11, 79, 63
12, 54408, Note_on_c, 11, 79, 0
12, 54408, Note_on_c, 11, 81, 64
12, 54444, Note_on_c, 11, 81, 0
12, 54444, Note_on_c, 11, 79, 65
12, 54480, Note_on_c, 11, 79, 0
12, 54480, Note_on_c, 11, 78, 66
12, 54504, Note_on_c, 11, 78, 0
12, 54504, Note_on_c, 11, 79, 66
12, 54510, Note_on_c, 11, 79, 0
12, 54528, Note_on_c, 11, 81, 67
12, 54568, Note_on_c, 11, 81, 0
12, 54624, Note_on_c, 11, 79, 77
12, 54664, Note_on_c, 11, 79, 0
12, 54720, Note_on_c, 11, 78, 83
12, 54760, Note_on_c, 11, 78, 0
12, 54816, Note_on_c, 11, 76, 88
12, 54856, Note_on_c, 11, 76, 0
12, 54912, Note_on_c, 11, 74, 94
12, 54952, Note_on_c, 11, 74, 0
12, 55008, Note_on_c, 11, 76, 99
12, 55048, Note_on_c, 11, 76, 0
12, 55104, Note_on_c, 11, 78, 105
12, 55144, Note_on_c, 11, 78, 0
12, 55200, Note_on_c, 11, 74, 111
12, 55240, Note_on_c, 11, 74, 0
12, 55296, Note_on_c, 11, 83, 116
12, 55390, Note_on_c, 11, 83, 0
12, 55488, Note_on_c, 11, 83, 116
12, 55534, Note_on_c, 11, 83, 0
12, 55584, Note_on_c, 11, 83, 116
12, 55630, Note_on_c, 11, 83, 0
12, 55680, Note_on_c, 11, 83, 116
12, 55726, Note_on_c, 11, 83, 0
12, 55776, Note_on_c, 11, 83, 116
12, 55822, Note_on_c, 11, 83, 0
12, 55872, Note_on_c, 11, 84, 116
12, 55908, Note_on_c, 11, 84, 0
12, 55908, Note_on_c, 11, 83, 116
12, 55944, Note_on_c, 11, 83, 0
12, 55944, Note_on_c, 11, 84, 116
12, 55980, Note_on_c, 11, 84, 0
12, 55980, Note_on_c, 11, 83, 116
12, 56016, Note_on_c, 11, 83, 0
12, 56016, Note_on_c, 11, 81, 116
12, 56040, Note_on_c, 11, 81, 0
12, 56040, Note_on_c, 11, 83, 116
12, 56046, Note_on_c, 11, 83, 0
12, 56064, Note_on_c, 11, 84, 116
12, 56104, Note_on_c, 11, 84, 0
12, 56160, Note_on_c, 11, 83, 116
12, 56200, Note_on_c, 11, 83, 0
12, 56256, Note_on_c, 11, 81, 116
12, 56296, Note_on_c, 11, 81, 0
12, 56352, Note_on_c, 11, 79, 116
12, 56392, Note_on_c, 11, 79, 0
12, 56448, Note_on_c, 11, 78, 116
12, 56488, Note_on_c, 11, 78, 0
12, 56544, Note_on_c, 11, 79, 116
12, 56584, Note_on_c, 11, 79, 0
12, 56640, Note_on_c, 11, 81, 116
12, 56680, Note_on_c, 11, 81, 0
12, 56736, Note_on_c, 11, 78, 116
12, 56776, Note_on_c, 11, 78, 0
12, 56832, Note_on_c, 11, 86, 116
12, 57010, Note_on_c, 11, 86, 0
12, 57168, Note_on_c, 11, 83, 116
12, 57192, Note_on_c, 11, 83, 0
12, 57192, Note_on_c, 11, 84, 116
12, 57216, Note_on_c, 11, 84, 0
12, 57216, Note_on_c, 11, 86, 116
12, 57408, Note_on_c, 11, 86, 0
12, 57504, Note_on_c, 11, 86, 56
12, 57558, Note_on_c, 11, 86, 0
12, 57600, Note_on_c, 11, 84, 56
12, 57690, Note_on_c, 11, 84, 0
12, 57792, Note_on_c, 11, 83, 56
12, 57882, Note_on_c, 11, 83, 0
12, 57984, Note_on_c, 11, 81, 56
12, 58074, Note_on_c, 11, 81, 0
12, 58176, Note_on_c, 11, 84, 56
12, 58266, Note_on_c, 11, 84, 0
12, 58368, Note_on_c, 11, 83, 56
12, 58546, Note_on_c, 11, 83, 0
12, 58704, Note_on_c, 11, 79, 103
12, 58728, Note_on_c, 11, 79, 0
12, 58728, Note_on_c, 11, 81, 103
12, 58752, Note_on_c, 11, 81, 0
12, 58752, Note_on_c, 11, 83, 103
12, 58944, Note_on_c, 11, 83, 0
12, 59040, Note_on_c, 11, 83, 55
12, 59094, Note_on_c, 11, 83, 0
12, 59136, Note_on_c, 11, 81, 55
12, 59226, Note_on_c, 11, 81, 0
12, 59328, Note_on_c, 11, 79, 55
12, 59418, Note_on_c, 11, 79, 0
12, 59520, Note_on_c, 11, 78, 55
12, 59610, Note_on_c, 11, 78, 0
12, 59712, Note_on_c, 11, 81, 55
12, 59802, Note_on_c, 11, 81, 0
12, 59904, Note_on_c, 11, 79, 55
12, 60082, Note_on_c, 11, 79, 0
12, 60240, Note_on_c, 11, 83, 103
12, 60264, Note_on_c, 11, 83, 0
12, 60264, Note_on_c, 11, 84, 103
12, 60288, Note_on_c, 11, 84, 0
12, 60288, Note_on_c, 11, 86, 103
12, 60480, Note_on_c, 11, 86, 0
12, 60576, Note_on_c, 11, 86, 55
12, 60630, Note_on_c, 11, 86, 0
12, 60672, Note_on_c, 11, 84, 55
12, 60762, Note_on_c, 11, 84, 0
12, 60864, Note_on_c, 11, 83, 55
12, 60954, Note_on_c, 11, 83, 0
12, 61056, Note_on_c, 11, 81, 55
12, 61146, Note_on_c, 11, 81, 0
12, 61248, Note_on_c, 11, 84, 55
12, 61338, Note_on_c, 11, 84, 0
12, 61440, Note_on_c, 11, 83, 55
12, 61618, Note_on_c, 11, 83, 0
12, 61776, Note_on_c, 11, 79, 103
12, 61800, Note_on_c, 11, 79, 0
12, 61800, Note_on_c, 11, 81, 103
12, 61824, Note_on_c, 11, 81, 0
12, 61824, Note_on_c, 11, 83, 103
12, 62016, Note_on_c, 11, 83, 0
12, 62112, Note_on_c, 11, 83, 52
12, 62166, Note_on_c, 11, 83, 0
12, 62208, Note_on_c, 11, 81, 52
12, 62298, Note_on_c, 11, 81, 0
12, 62400, Note_on_c, 11, 79, 52
12, 62490, Note_on_c, 11, 79, 0
12, 62592, Note_on_c, 11, 78, 52
12, 62682, Note_on_c, 11, 78, 0
12, 62784, Note_on_c, 11, 81, 52
12, 62874, Note_on_c, 11, 81, 0
12, 62976, Note_on_c, 11, 79, 52
12, 63044, Note_on_c, 11, 79, 0
12, 63072, Note_on_c, 11, 86, 122
12, 63108, Note_on_c, 11, 86, 0
12, 63168, Note_on_c, 11, 86, 122
12, 63204, Note_on_c, 11, 86, 0
12, 63264, Note_on_c, 11, 86, 122
12, 63300, Note_on_c, 11, 86, 0
12, 63360, Note_on_c, 11, 86, 122
12, 63396, Note_on_c, 11, 86, 0
12, 63456, Note_on_c, 11, 86, 122
12, 63492, Note_on_c, 11, 86, 0
12, 63552, Note_on_c, 11, 86, 122
12, 63588, Note_on_c, 11, 86, 0
12, 63648, Note_on_c, 11, 86, 122
12, 63684, Note_on_c, 11, 86, 0
12, 63744, Note_on_c, 11, 80, 116
12, 63982, Note_on_c, 11, 80, 0
12, 64032, Note_on_c, 11, 80, 116
12, 64052, Note_on_c, 11, 80, 0
12, 64052, Note_on_c, 11, 81, 116
12, 64072, Note_on_c, 11, 81, 0
12, 64072, Note_on_c, 11, 80, 116
12, 64092, Note_on_c, 11, 80, 0
12, 64092, Note_on_c, 11, 78, 116
12, 64110, Note_on_c, 11, 78, 0
12, 64110, Note_on_c, 11, 80, 116
12, 64128, Note_on_c, 11, 80, 0
12, 64128, Note_on_c, 11, 81, 116
12, 64176, Note_on_c, 11, 81, 0
12, 64224, Note_on_c, 11, 81, 116
12, 64264, Note_on_c, 11, 81, 0
12, 64320, Note_on_c, 11, 83, 116
12, 64360, Note_on_c, 11, 83, 0
12, 64416, Note_on_c, 11, 83, 116
12, 64456, Note_on_c, 11, 83, 0
12, 64512, Note_on_c, 11, 84, 116
12, 64552, Note_on_c, 11, 84, 0
12, 64608, Note_on_c, 11, 84, 116
12, 64648, Note_on_c, 11, 84, 0
12, 64800, Note_on_c, 11, 78, 116
12, 64820, Note_on_c, 11, 78, 0
12, 64820, Note_on_c, 11, 79, 116
12, 64840, Note_on_c, 11, 79, 0
12, 64840, Note_on_c, 11, 78, 116
12, 64860, Note_on_c, 11, 78, 0
12, 64860, Note_on_c, 11, 76, 116
12, 64878, Note_on_c, 11, 76, 0
12, 64878, Note_on_c, 11, 78, 116
12, 64896, Note_on_c, 11, 78, 0
12, 64896, Note_on_c, 11, 79, 116
12, 64944, Note_on_c, 11, 79, 0
12, 64992, Note_on_c, 11, 79, 116
12, 65032, Note_on_c, 11, 79, 0
12, 65088, Note_on_c, 11, 81, 116
12, 65128, Note_on_c, 11, 81, 0
12, 65184, Note_on_c, 11, 81, 116
12, 65224, Note_on_c, 11, 81, 0
12, 65280, Note_on_c, 11, 83, 116
12, 65320, Note_on_c, 11, 83, 0
12, 65376, Note_on_c, 11, 83, 116
12, 65416, Note_on_c, 11, 83, 0
12, 65568, Note_on_c, 11, 83, 116
12, 65588, Note_on_c, 11, 83, 0
12, 65588, Note_on_c, 11, 84, 116
12, 65608, Note_on_c, 11, 84, 0
12, 65608, Note_on_c, 11, 83, 116
12, 65628, Note_on_c, 11, 83, 0
12, 65628, Note_on_c, 11, 81, 116
12, 65646, Note_on_c, 11, 81, 0
12, 65646, Note_on_c, 11, 83, 116
12, 65664, Note_on_c, 11, 83, 0
12, 65664, Note_on_c, 11, 84, 116
12, 65712, Note_on_c, 11, 84, 0
12, 65760, Note_on_c, 11, 84, 116
12, 65800, Note_on_c, 11, 84, 0
12, 65856, Note_on_c, 11, 86, 116
12, 65896, Note_on_c, 11, 86, 0
12, 65952, Note_on_c, 11, 86, 116
12, 65992, Note_on_c, 11, 86, 0
12, 66048, Note_on_c, 11, 88, 116
12, 66168, Note_on_c, 11, 88, 0
12, 66240, Note_on_c, 11, 84, 116
12, 66360, Note_on_c, 11, 84, 0
12, 66432, Note_on_c, 11, 79, 116
12, 66552, Note_on_c, 11, 79, 0
12, 66624, Note_on_c, 11, 76, 116
12, 66744, Note_on_c, 11, 76, 0
12, 66816, Note_on_c, 11, 74, 116
12, 66870, Note_on_c, 11, 74, 0
12, 66912, Note_on_c, 11, 79, 116
12, 66952, Note_on_c, 11, 79, 0
12, 66960, Note_on_c, 11, 83, 116
12, 67000, Note_on_c, 11, 83, 0
12, 67008, Note_on_c, 11, 86, 116
12, 67054, Note_on_c, 11, 86, 0
12, 67104, Note_on_c, 11, 86, 116
12, 67150, Note_on_c, 11, 86, 0
12, 67200, Note_on_c, 11, 86, 116
12, 67296, Note_on_c, 11, 86, 0
12, 67296, Note_on_c, 11, 84, 116
12, 67364, Note_on_c, 11, 84, 0
12, 67392, Note_on_c, 11, 83, 116
12, 67436, Note_on_c, 11, 83, 0
12, 67488, Note_on_c, 11, 81, 116
12, 67532, Note_on_c, 11, 81, 0
12, 67680, Note_on_c, 11, 86, 122
12, 67716, Note_on_c, 11, 86, 0
12, 67776, Note_on_c, 11, 86, 123
12, 67812, Note_on_c, 11, 86, 0
12, 67872, Note_on_c, 11, 86, 123
12, 67908, Note_on_c, 11, 86, 0
12, 67968, Note_on_c, 11, 86, 123
12, 68004, Note_on_c, 11, 86, 0
12, 68064, Note_on_c, 11, 86, 123
12, 68100, Note_on_c, 11, 86, 0
12, 68160, Note_on_c, 11, 86, 123
12, 68196, Note_on_c, 11, 86, 0
12, 68256, Note_on_c, 11, 86, 123
12, 68292, Note_on_c, 11, 86, 0
12, 68352, Note_on_c, 11, 80, 115
12, 68590, Note_on_c, 11, 80, 0
12, 68640, Note_on_c, 11, 80, 116
12, 68660, Note_on_c, 11, 80, 0
12, 68660, Note_on_c, 11, 81, 116
12, 68680, Note_on_c, 11, 81, 0
12, 68680, Note_on_c, 11, 80, 116
12, 68700, Note_on_c, 11, 80, 0
12, 68700, Note_on_c, 11, 78, 116
12, 68718, Note_on_c, 11, 78, 0
12, 68718, Note_on_c, 11, 80, 116
12, 68736, Note_on_c, 11, 80, 0
12, 68736, Note_on_c, 11, 81, 116
12, 68780, Note_on_c, 11, 81, 0
12, 68832, Note_on_c, 11, 81, 116
12, 68872, Note_on_c, 11, 81, 0
12, 68928, Note_on_c, 11, 83, 116
12, 68968, Note_on_c, 11, 83, 0
12, 69024, Note_on_c, 11, 83, 116
12, 69064, Note_on_c, 11, 83, 0
12, 69120, Note_on_c, 11, 84, 116
12, 69160, Note_on_c, 11, 84, 0
12, 69216, Note_on_c, 11, 84, 116
12, 69256, Note_on_c, 11, 84, 0
12, 69408, Note_on_c, 11, 78, 116
12, 69428, Note_on_c, 11, 78, 0
12, 69428, Note_on_c, 11, 79, 116
12, 69448, Note_on_c, 11, 79, 0
12, 69448, Note_on_c, 11, 78, 116
12, 69468, Note_on_c, 11, 78, 0
12, 69468, Note_on_c, 11, 76, 116
12, 69486, Note_on_c, 11, 76, 0
12, 69486, Note_on_c, 11, 78, 116
12, 69504, Note_on_c, 11, 78, 0
12, 69504, Note_on_c, 11, 79, 116
12, 69548, Note_on_c, 11, 79, 0
12, 69600, Note_on_c, 11, 79, 116
12, 69640, Note_on_c, 11, 79, 0
12, 69696, Note_on_c, 11, 81, 116
12, 69736, Note_on_c, 11, 81, 0
12, 69792, Note_on_c, 11, 81, 116
12, 69832, Note_on_c, 11, 81, 0
12, 69888, Note_on_c, 11, 83, 116
12, 69928, Note_on_c, 11, 83, 0
12, 69984, Note_on_c, 11, 83, 116
12, 70024, Note_on_c, 11, 83, 0
12, 70176, Note_on_c, 11, 83, 116
12, 70196, Note_on_c, 11, 83, 0
12, 70196, Note_on_c, 11, 84, 116
12, 70216, Note_on_c, 11, 84, 0
12, 70216, Note_on_c, 11, 83, 116
12, 70236, Note_on_c, 11, 83, 0
12, 70236, Note_on_c, 11, 81, 116
12, 70254, Note_on_c, 11, 81, 0
12, 70254, Note_on_c, 11, 83, 116
12, 70272, Note_on_c, 11, 83, 0
12, 70272, Note_on_c, 11, 84, 116
12, 70316, Note_on_c, 11, 84, 0
12, 70368, Note_on_c, 11, 84, 116
12, 70408, Note_on_c, 11, 84, 0
12, 70464, Note_on_c, 11, 86, 116
12, 70504, Note_on_c, 11, 86, 0
12, 70560, Note_on_c, 11, 86, 116
12, 70600, Note_on_c, 11, 86, 0
12, 70656, Note_on_c, 11, 88, 116
12, 70758, Note_on_c, 11, 88, 0
12, 72192, Note_on_c, 11, 62, 122
12, 72220, Note_on_c, 11, 62, 0
12, 72220, Note_on_c, 11, 61, 122
12, 72248, Note_on_c, 11, 61, 0
12, 72248, Note_on_c, 11, 62, 122
12, 72276, Note_on_c, 11, 62, 0
12, 72276, Note_on_c, 11, 61, 122
12, 72304, Note_on_c, 11, 61, 0
12, 72304, Note_on_c, 11, 62, 122
12, 72332, Note_on_c, 11, 62, 0
12, 72332, Note_on_c, 11, 61, 122
12, 72360, Note_on_c, 11, 61, 0
12, 72384, Note_on_c, 11, 64, 122
12, 72424, Note_on_c, 11, 64, 0
12, 72480, Note_on_c, 11, 67, 122
12, 72520, Note_on_c, 11, 67, 0
12, 72576, Note_on_c, 11, 70, 122
12, 72616, Note_on_c, 11, 70, 0
12, 72672, Note_on_c, 11, 73, 122
12, 72712, Note_on_c, 11, 73, 0
12, 72768, Note_on_c, 11, 76, 122
12, 72808, Note_on_c, 11, 76, 0
12, 72864, Note_on_c, 11, 79, 122
12, 72904, Note_on_c, 11, 79, 0
12, 72960, Note_on_c, 11, 82, 122
12, 73006, Note_on_c, 11, 82, 0
12, 73056, Note_on_c, 11, 82, 122
12, 73102, Note_on_c, 11, 82, 0
12, 73152, Note_on_c, 11, 82, 122
12, 73198, Note_on_c, 11, 82, 0
12, 73248, Note_on_c, 11, 82, 122
12, 73294, Note_on_c, 11, 82, 0
12, 73344, Note_on_c, 11, 82, 122
12, 73390, Note_on_c, 11, 82, 0
12, 73440, Note_on_c, 11, 82, 122
12, 73486, Note_on_c, 11, 82, 0
12, 73536, Note_on_c, 11, 82, 122
12, 73582, Note_on_c, 11, 82, 0
12, 73632, Note_on_c, 11, 82, 122
12, 73678, Note_on_c, 11, 82, 0
12, 73728, Note_on_c, 11, 83, 122
12, 73906, Note_on_c, 11, 83, 0
12, 74016, Note_on_c, 11, 84, 116
12, 74112, Note_on_c, 11, 84, 0
12, 74112, Note_on_c, 11, 82, 116
12, 74180, Note_on_c, 11, 82, 0
12, 74208, Note_on_c, 11, 82, 116
12, 74304, Note_on_c, 11, 82, 0
12, 74304, Note_on_c, 11, 81, 116
12, 74372, Note_on_c, 11, 81, 0
12, 74400, Note_on_c, 11, 81, 116
12, 74496, Note_on_c, 11, 81, 0
12, 74496, Note_on_c, 11, 83, 116
12, 74550, Note_on_c, 11, 83, 0
12, 74592, Note_on_c, 11, 83, 116
12, 74638, Note_on_c, 11, 83, 0
12, 74784, Note_on_c, 11, 84, 116
12, 74880, Note_on_c, 11, 84, 0
12, 74880, Note_on_c, 11, 82, 116
12, 74948, Note_on_c, 11, 82, 0
12, 74976, Note_on_c, 11, 82, 116
12, 75072, Note_on_c, 11, 82, 0
12, 75072, Note_on_c, 11, 81, 116
12, 75140, Note_on_c, 11, 81, 0
12, 75168, Note_on_c, 11, 81, 116
12, 75258, Note_on_c, 11, 81, 0
12, 75264, Note_on_c, 11, 83, 116
12, 75318, Note_on_c, 11, 83, 0
12, 75360, Note_on_c, 11, 83, 116
12, 75406, Note_on_c, 11, 83, 0
12, 75552, Note_on_c, 11, 84, 116
12, 75648, Note_on_c, 11, 84, 0
12, 75648, Note_on_c, 11, 82, 116
12, 75716, Note_on_c, 11, 82, 0
12, 75744, Note_on_c, 11, 82, 116
12, 75840, Note_on_c, 11, 82, 0
12, 75840, Note_on_c, 11, 81, 116
12, 75908, Note_on_c, 11, 81, 0
12, 75936, Note_on_c, 11, 81, 116
12, 76032, Note_on_c, 11, 81, 0
12, 76032, Note_on_c, 11, 83, 116
12, 76166, Note_on_c, 11, 83, 0
12, 76416, Note_on_c, 11, 79, 116
12, 76416, Note_on_c, 11, 71, 116
12, 76546, Note_on_c, 11, 71, 0
12, 76546, Note_on_c, 11, 79, 0
12, 76608, Note_on_c, 11, 83, 116
12, 76608, Note_on_c, 11, 74, 116
12, 76738, Note_on_c, 11, 74, 0
12, 76738, Note_on_c, 11, 83, 0
12, 76788, Note_on_c, 11, 74, 116
12, 76800, Note_on_c, 11, 86, 116
12, 76956, Note_on_c, 11, 86, 0
12, 76956, Note_on_c, 11, 74, 0
12, 77556, Control_c, 11, 11, 96
12, 77563, Control_c, 11, 11, 99
12, 77568, Note_on_c, 11, 74, 61
12, 77577, Control_c, 11, 11, 102
12, 77584, Control_c, 11, 11, 103
12, 77597, Control_c, 11, 11, 105
12, 77604, Control_c, 11, 11, 108
12, 77618, Control_c, 11, 11, 109
12, 77625, Control_c, 11, 11, 111
12, 77638, Control_c, 11, 11, 112
12, 77659, Control_c, 11, 11, 114
12, 77686, Control_c, 11, 11, 115
12, 77707, Control_c, 11, 11, 117
12, 77741, Control_c, 11, 11, 118
12, 77748, Control_c, 11, 11, 120
12, 77769, Control_c, 11, 11, 121
12, 77803, Control_c, 11, 11, 123
12, 77844, Control_c, 11, 11, 124
12, 77872, Control_c, 11, 11, 126
12, 78009, Control_c, 11, 11, 125
12, 78016, Control_c, 11, 11, 122
12, 78029, Control_c, 11, 11, 117
12, 78036, Control_c, 11, 11, 114
12, 78048, Note_on_c, 11, 74, 0
12, 78048, Note_on_c, 11, 76, 64
12, 78050, Control_c, 11, 11, 113
12, 78070, Control_c, 11, 11, 110
12, 78105, Control_c, 11, 11, 114
12, 78144, Note_on_c, 11, 76, 0
12, 78144, Note_on_c, 11, 78, 65
12, 78194, Control_c, 11, 11, 115
12, 78210, Note_on_c, 11, 78, 0
12, 78215, Control_c, 11, 11, 116
12, 78240, Note_on_c, 11, 79, 66
12, 78242, Control_c, 11, 11, 117
12, 78263, Control_c, 11, 11, 118
12, 78283, Control_c, 11, 11, 119
12, 78298, Note_on_c, 11, 79, 0
12, 78304, Control_c, 11, 11, 120
12, 78331, Control_c, 11, 11, 121
12, 78336, Note_on_c, 11, 79, 67
12, 78352, Control_c, 11, 11, 122
12, 78372, Control_c, 11, 11, 123
12, 78400, Control_c, 11, 11, 124
12, 78420, Control_c, 11, 11, 125
12, 78432, Note_on_c, 11, 79, 0
12, 78432, Note_on_c, 11, 78, 68
12, 78441, Control_c, 11, 11, 126
12, 78462, Control_c, 11, 11, 127
12, 78502, Note_on_c, 11, 78, 0
12, 78528, Note_on_c, 11, 76, 67
12, 78584, Note_on_c, 11, 76, 0
12, 78624, Note_on_c, 11, 74, 66
12, 78680, Note_on_c, 11, 74, 0
12, 78720, Note_on_c, 11, 74, 65
12, 78816, Note_on_c, 11, 74, 0
12, 78816, Note_on_c, 11, 72, 64
12, 78886, Note_on_c, 11, 72, 0
12, 78912, Note_on_c, 11, 71, 63
12, 78968, Note_on_c, 11, 71, 0
12, 79008, Note_on_c, 11, 69, 62
12, 79062, Note_on_c, 11, 69, 0
12, 79104, Note_on_c, 11, 67, 61
12, 79113, Control_c, 11, 11, 124
12, 79140, Control_c, 11, 11, 125
12, 79147, Control_c, 11, 11, 127
12, 79182, Control_c, 11, 11, 126
12, 79188, Control_c, 11, 11, 123
12, 79202, Control_c, 11, 11, 121
12, 79223, Control_c, 11, 11, 120
12, 79230, Control_c, 11, 11, 118
12, 79250, Control_c, 11, 11, 117
12, 79264, Control_c, 11, 11, 115
12, 79291, Control_c, 11, 11, 114
12, 79326, Control_c, 11, 11, 112
12, 79387, Control_c, 11, 11, 113
12, 79394, Control_c, 11, 11, 115
12, 79408, Control_c, 11, 11, 118
12, 79415, Control_c, 11, 11, 124
12, 79428, Control_c, 11, 11, 125
12, 79435, Control_c, 11, 11, 127
12, 79450, Note_on_c, 11, 67, 0
12, 79488, Note_on_c, 11, 71, 59
12, 79584, Note_on_c, 11, 71, 0
12, 79584, Note_on_c, 11, 69, 59
12, 79776, Note_on_c, 11, 69, 0
12, 79776, Note_on_c, 11, 67, 59
12, 79864, Note_on_c, 11, 67, 0
12, 79885, Control_c, 11, 11, 127
12, 79968, Note_on_c, 11, 55, 116
12, 80036, Note_on_c, 11, 55, 0
12, 80064, Note_on_c, 11, 71, 116
12, 80132, Note_on_c, 11, 71, 0
12, 80160, Note_on_c, 11, 55, 116
12, 80214, Note_on_c, 11, 55, 0
12, 80256, Note_on_c, 11, 74, 116
12, 80420, Note_on_c, 11, 74, 0
12, 80544, Note_on_c, 11, 67, 116
12, 80598, Note_on_c, 11, 67, 0
12, 80640, Note_on_c, 11, 66, 116
12, 80708, Note_on_c, 11, 66, 0
12, 80736, Note_on_c, 11, 78, 116
12, 80804, Note_on_c, 11, 78, 0
12, 80832, Note_on_c, 11, 69, 116
12, 80900, Note_on_c, 11, 69, 0
12, 80928, Note_on_c, 11, 81, 116
12, 80982, Note_on_c, 11, 81, 0
12, 81024, Note_on_c, 11, 84, 116
12, 81188, Note_on_c, 11, 84, 0
12, 81312, Note_on_c, 11, 66, 116
12, 81366, Note_on_c, 11, 66, 0
12, 81408, Note_on_c, 11, 67, 116
12, 81476, Note_on_c, 11, 67, 0
12, 81504, Note_on_c, 11, 55, 116
12, 81572, Note_on_c, 11, 55, 0
12, 81600, Note_on_c, 11, 71, 116
12, 81668, Note_on_c, 11, 71, 0
12, 81696, Note_on_c, 11, 55, 116
12, 81750, Note_on_c, 11, 55, 0
12, 81792, Note_on_c, 11, 74, 116
12, 81956, Note_on_c, 11, 74, 0
12, 82080, Note_on_c, 11, 67, 116
12, 82134, Note_on_c, 11, 67, 0
12, 82176, Note_on_c, 11, 66, 116
12, 82244, Note_on_c, 11, 66, 0
12, 82272, Note_on_c, 11, 78, 116
12, 82340, Note_on_c, 11, 78, 0
12, 82368, Note_on_c, 11, 69, 116
12, 82436, Note_on_c, 11, 69, 0
12, 82464, Note_on_c, 11, 81, 116
12, 82518, Note_on_c, 11, 81, 0
12, 82560, Note_on_c, 11, 84, 116
12, 82724, Note_on_c, 11, 84, 0
12, 82848, Note_on_c, 11, 78, 116
12, 82920, Note_on_c, 11, 78, 0
12, 82944, Note_on_c, 11, 79, 116
12, 82990, Note_on_c, 11, 79, 0
12, 82992, Note_on_c, 11, 79, 116
12, 83038, Note_on_c, 11, 79, 0
12, 83040, Note_on_c, 11, 74, 116
12, 83086, Note_on_c, 11, 74, 0
12, 83088, Note_on_c, 11, 74, 116
12, 83134, Note_on_c, 11, 74, 0
12, 83136, Note_on_c, 11, 71, 116
12, 83182, Note_on_c, 11, 71, 0
12, 83184, Note_on_c, 11, 71, 116
12, 83230, Note_on_c, 11, 71, 0
12, 83232, Note_on_c, 11, 74, 116
12, 83278, Note_on_c, 11, 74, 0
12, 83280, Note_on_c, 11, 74, 116
12, 83326, Note_on_c, 11, 74, 0
12, 83328, Note_on_c, 11, 79, 116
12, 83374, Note_on_c, 11, 79, 0
12, 83376, Note_on_c, 11, 79, 116
12, 83422, Note_on_c, 11, 79, 0
12, 83424, Note_on_c, 11, 83, 116
12, 83470, Note_on_c, 11, 83, 0
12, 83472, Note_on_c, 11, 83, 116
12, 83518, Note_on_c, 11, 83, 0
12, 83520, Note_on_c, 11, 81, 116
12, 83566, Note_on_c, 11, 81, 0
12, 83568, Note_on_c, 11, 81, 116
12, 83614, Note_on_c, 11, 81, 0
12, 83616, Note_on_c, 11, 78, 116
12, 83662, Note_on_c, 11, 78, 0
12, 83664, Note_on_c, 11, 78, 116
12, 83710, Note_on_c, 11, 78, 0
12, 83712, Note_on_c, 11, 79, 116
12, 83758, Note_on_c, 11, 79, 0
12, 83760, Note_on_c, 11, 79, 116
12, 83806, Note_on_c, 11, 79, 0
12, 83808, Note_on_c, 11, 74, 116
12, 83854, Note_on_c, 11, 74, 0
12, 83856, Note_on_c, 11, 74, 116
12, 83902, Note_on_c, 11, 74, 0
12, 83904, Note_on_c, 11, 71, 116
12, 83950, Note_on_c, 11, 71, 0
12, 83952, Note_on_c, 11, 71, 116
12, 83998, Note_on_c, 11, 71, 0
12, 84000, Note_on_c, 11, 74, 116
12, 84046, Note_on_c, 11, 74, 0
12, 84048, Note_on_c, 11, 74, 116
12, 84094, Note_on_c, 11, 74, 0
12, 84096, Note_on_c, 11, 79, 116
12, 84142, Note_on_c, 11, 79, 0
12, 84144, Note_on_c, 11, 79, 116
12, 84190, Note_on_c, 11, 79, 0
12, 84192, Note_on_c, 11, 83, 116
12, 84238, Note_on_c, 11, 83, 0
12, 84240, Note_on_c, 11, 83, 116
12, 84286, Note_on_c, 11, 83, 0
12, 84288, Note_on_c, 11, 84, 116
12, 84334, Note_on_c, 11, 84, 0
12, 84336, Note_on_c, 11, 84, 116
12, 84382, Note_on_c, 11, 84, 0
12, 84384, Note_on_c, 11, 78, 116
12, 84430, Note_on_c, 11, 78, 0
12, 84432, Note_on_c, 11, 78, 116
12, 84478, Note_on_c, 11, 78, 0
12, 84480, Note_on_c, 11, 79, 116
12, 84526, Note_on_c, 11, 79, 0
12, 84528, Note_on_c, 11, 79, 116
12, 84574, Note_on_c, 11, 79, 0
12, 84576, Note_on_c, 11, 74, 116
12, 84622, Note_on_c, 11, 74, 0
12, 84624, Note_on_c, 11, 74, 116
12, 84670, Note_on_c, 11, 74, 0
12, 84672, Note_on_c, 11, 71, 116
12, 84718, Note_on_c, 11, 71, 0
12, 84720, Note_on_c, 11, 71, 116
12, 84766, Note_on_c, 11, 71, 0
12, 84768, Note_on_c, 11, 74, 116
12, 84814, Note_on_c, 11, 74, 0
12, 84816, Note_on_c, 11, 74, 116
12, 84862, Note_on_c, 11, 74, 0
12, 84864, Note_on_c, 11, 79, 116
12, 84910, Note_on_c, 11, 79, 0
12, 84912, Note_on_c, 11, 79, 116
12, 84958, Note_on_c, 11, 79, 0
12, 84960, Note_on_c, 11, 83, 116
12, 85006, Note_on_c, 11, 83, 0
12, 85008, Note_on_c, 11, 83, 116
12, 85054, Note_on_c, 11, 83, 0
12, 85056, Note_on_c, 11, 81, 116
12, 85102, Note_on_c, 11, 81, 0
12, 85104, Note_on_c, 11, 81, 116
12, 85150, Note_on_c, 11, 81, 0
12, 85152, Note_on_c, 11, 78, 116
12, 85198, Note_on_c, 11, 78, 0
12, 85200, Note_on_c, 11, 78, 116
12, 85246, Note_on_c, 11, 78, 0
12, 85248, Note_on_c, 11, 79, 116
12, 85294, Note_on_c, 11, 79, 0
12, 85296, Note_on_c, 11, 79, 116
12, 85342, Note_on_c, 11, 79, 0
12, 85344, Note_on_c, 11, 74, 116
12, 85390, Note_on_c, 11, 74, 0
12, 85392, Note_on_c, 11, 74, 116
12, 85438, Note_on_c, 11, 74, 0
12, 85440, Note_on_c, 11, 71, 116
12, 85486, Note_on_c, 11, 71, 0
12, 85488, Note_on_c, 11, 71, 116
12, 85534, Note_on_c, 11, 71, 0
12, 85536, Note_on_c, 11, 74, 116
12, 85582, Note_on_c, 11, 74, 0
12, 85584, Note_on_c, 11, 74, 116
12, 85630, Note_on_c, 11, 74, 0
12, 85632, Note_on_c, 11, 79, 116
12, 85678, Note_on_c, 11, 79, 0
12, 85680, Note_on_c, 11, 79, 116
12, 85726, Note_on_c, 11, 79, 0
12, 85728, Note_on_c, 11, 83, 116
12, 85774, Note_on_c, 11, 83, 0
12, 85776, Note_on_c, 11, 83, 116
12, 85822, Note_on_c, 11, 83, 0
12, 85824, Note_on_c, 11, 84, 116
12, 85870, Note_on_c, 11, 84, 0
12, 85872, Note_on_c, 11, 84, 116
12, 85918, Note_on_c, 11, 84, 0
12, 85920, Note_on_c, 11, 78, 116
12, 85966, Note_on_c, 11, 78, 0
12, 85968, Note_on_c, 11, 78, 116
12, 86000, Note_on_c, 11, 78, 0
12, 86016, Note_on_c, 11, 79, 116
12, 86194, Note_on_c, 11, 79, 0
12, 87552, Control_c, 11, 10, 60
12, 87552, Control_c, 11, 7, 127
12, 87936, Note_on_c, 11, 62, 57
12, 88064, Note_on_c, 11, 62, 0
12, 88128, Note_on_c, 11, 59, 57
12, 88256, Note_on_c, 11, 59, 0
12, 88320, Note_on_c, 11, 56, 57
12, 88512, Note_on_c, 11, 56, 0
12, 88512, Note_on_c, 11, 55, 54
12, 88640, Note_on_c, 11, 55, 0
12, 88704, Note_on_c, 11, 56, 57
12, 88896, Note_on_c, 11, 56, 0
12, 88896, Note_on_c, 11, 55, 54
12, 89024, Note_on_c, 11, 55, 0
12, 89472, Note_on_c, 11, 62, 57
12, 89600, Note_on_c, 11, 62, 0
12, 89664, Note_on_c, 11, 59, 57
12, 89792, Note_on_c, 11, 59, 0
12, 89856, Note_on_c, 11, 56, 57
12, 90048, Note_on_c, 11, 56, 0
12, 90048, Note_on_c, 11, 55, 54
12, 90176, Note_on_c, 11, 55, 0
12, 90240, Note_on_c, 11, 56, 57
12, 90432, Note_on_c, 11, 56, 0
12, 90432, Note_on_c, 11, 55, 54
12, 90560, Note_on_c, 11, 55, 0
12, 91008, Note_on_c, 11, 63, 57
12, 91136, Note_on_c, 11, 63, 0
12, 91200, Note_on_c, 11, 60, 57
12, 91328, Note_on_c, 11, 60, 0
12, 91392, Note_on_c, 11, 56, 57
12, 91584, Note_on_c, 11, 56, 0
12, 91584, Note_on_c, 11, 55, 54
12, 91712, Note_on_c, 11, 55, 0
12, 91776, Note_on_c, 11, 56, 57
12, 91968, Note_on_c, 11, 56, 0
12, 91968, Note_on_c, 11, 55, 54
12, 92096, Note_on_c, 11, 55, 0
12, 92544, Note_on_c, 11, 63, 57
12, 92672, Note_on_c, 11, 63, 0
12, 92736, Note_on_c, 11, 60, 57
12, 92864, Note_on_c, 11, 60, 0
12, 92928, Note_on_c, 11, 56, 57
12, 93120, Note_on_c, 11, 56, 0
12, 93120, Note_on_c, 11, 55, 54
12, 93248, Note_on_c, 11, 55, 0
12, 93312, Note_on_c, 11, 56, 57
12, 93504, Note_on_c, 11, 56, 0
12, 93504, Note_on_c, 11, 55, 54
12, 93632, Note_on_c, 11, 55, 0
12, 94080, Note_on_c, 11, 63, 57
12, 94208, Note_on_c, 11, 63, 0
12, 94272, Note_on_c, 11, 58, 57
12, 94400, Note_on_c, 11, 58, 0
12, 94464, Note_on_c, 11, 56, 57
12, 94656, Note_on_c, 11, 56, 0
12, 94656, Note_on_c, 11, 55, 54
12, 94784, Note_on_c, 11, 55, 0
12, 94848, Note_on_c, 11, 56, 57
12, 95040, Note_on_c, 11, 56, 0
12, 95040, Note_on_c, 11, 55, 54
12, 95168, Note_on_c, 11, 55, 0
12, 95616, Note_on_c, 11, 63, 57
12, 95744, Note_on_c, 11, 63, 0
12, 95808, Note_on_c, 11, 58, 57
12, 95936, Note_on_c, 11, 58, 0
12, 96000, Note_on_c, 11, 56, 56
12, 96192, Note_on_c, 11, 56, 0
12, 96192, Note_on_c, 11, 55, 53
12, 96320, Note_on_c, 11, 55, 0
12, 96384, Note_on_c, 11, 56, 54
12, 96576, Note_on_c, 11, 56, 0
12, 96576, Note_on_c, 11, 55, 52
12, 96702, Note_on_c, 11, 55, 0
12, 96768, Note_on_c, 11, 56, 51
12, 96864, Control_c, 11, 10, 44
12, 96864, Control_c, 11, 7, 119
12, 96870, Note_on_c, 11, 56, 0
12, 96960, Note_on_c, 11, 72, 48
12, 97042, Note_on_c, 11, 72, 0
12, 97344, Note_on_c, 11, 75, 48
12, 97426, Note_on_c, 11, 75, 0
12, 97728, Note_on_c, 11, 80, 48
12, 97810, Note_on_c, 11, 80, 0
12, 98112, Note_on_c, 11, 84, 48
12, 98194, Note_on_c, 11, 84, 0
12, 98496, Note_on_c, 11, 85, 48
12, 98578, Note_on_c, 11, 85, 0
12, 98880, Note_on_c, 11, 82, 48
12, 98962, Note_on_c, 11, 82, 0
12, 99264, Note_on_c, 11, 79, 48
12, 99346, Note_on_c, 11, 79, 0
12, 99648, Note_on_c, 11, 73, 48
12, 99730, Note_on_c, 11, 73, 0
12, 100032, Note_on_c, 11, 73, 50
12, 100056, Note_on_c, 11, 73, 0
12, 100056, Note_on_c, 11, 72, 49
12, 100080, Note_on_c, 11, 72, 0
12, 100080, Note_on_c, 11, 73, 48
12, 100104, Note_on_c, 11, 73, 0
12, 100104, Note_on_c, 11, 72, 47
12, 100128, Note_on_c, 11, 72, 0
12, 100128, Note_on_c, 11, 70, 46
12, 100176, Note_on_c, 11, 70, 0
12, 100176, Note_on_c, 11, 72, 44
12, 100222, Note_on_c, 11, 72, 0
12, 100416, Note_on_c, 11, 77, 49
12, 100440, Note_on_c, 11, 77, 0
12, 100440, Note_on_c, 11, 75, 48
12, 100464, Note_on_c, 11, 75, 0
12, 100464, Note_on_c, 11, 77, 47
12, 100488, Note_on_c, 11, 77, 0
12, 100488, Note_on_c, 11, 75, 46
12, 100512, Note_on_c, 11, 75, 0
12, 100512, Note_on_c, 11, 73, 45
12, 100560, Note_on_c, 11, 73, 0
12, 100560, Note_on_c, 11, 75, 42
12, 100606, Note_on_c, 11, 75, 0
12, 100800, Note_on_c, 11, 82, 52
12, 100824, Note_on_c, 11, 82, 0
12, 100824, Note_on_c, 11, 80, 51
12, 100848, Note_on_c, 11, 80, 0
12, 100848, Note_on_c, 11, 82, 50
12, 100872, Note_on_c, 11, 82, 0
12, 100872, Note_on_c, 11, 80, 49
12, 100896, Note_on_c, 11, 80, 0
12, 100896, Note_on_c, 11, 79, 48
12, 100944, Note_on_c, 11, 79, 0
12, 100944, Note_on_c, 11, 80, 45
12, 100990, Note_on_c, 11, 80, 0
12, 101184, Note_on_c, 11, 85, 54
12, 101208, Note_on_c, 11, 85, 0
12, 101208, Note_on_c, 11, 84, 51
12, 101232, Note_on_c, 11, 84, 0
12, 101232, Note_on_c, 11, 85, 50
12, 101256, Note_on_c, 11, 85, 0
12, 101256, Note_on_c, 11, 84, 48
12, 101280, Note_on_c, 11, 84, 0
12, 101280, Note_on_c, 11, 82, 47
12, 101328, Note_on_c, 11, 82, 0
12, 101328, Note_on_c, 11, 84, 44
12, 101374, Note_on_c, 11, 84, 0
12, 101568, Note_on_c, 11, 87, 53
12, 101592, Note_on_c, 11, 87, 0
12, 101592, Note_on_c, 11, 85, 52
12, 101616, Note_on_c, 11, 85, 0
12, 101616, Note_on_c, 11, 87, 52
12, 101640, Note_on_c, 11, 87, 0
12, 101640, Note_on_c, 11, 85, 51
12, 101664, Note_on_c, 11, 85, 0
12, 101664, Note_on_c, 11, 84, 50
12, 101712, Note_on_c, 11, 84, 0
12, 101712, Note_on_c, 11, 85, 48
12, 101758, Note_on_c, 11, 85, 0
12, 101952, Note_on_c, 11, 84, 53
12, 101976, Note_on_c, 11, 84, 0
12, 101976, Note_on_c, 11, 82, 52
12, 102000, Note_on_c, 11, 82, 0
12, 102000, Note_on_c, 11, 84, 50
12, 102024, Note_on_c, 11, 84, 0
12, 102024, Note_on_c, 11, 82, 48
12, 102048, Note_on_c, 11, 82, 0
12, 102048, Note_on_c, 11, 80, 47
12, 102096, Note_on_c, 11, 80, 0
12, 102096, Note_on_c, 11, 82, 43
12, 102142, Note_on_c, 11, 82, 0
12, 102336, Note_on_c, 11, 80, 53
12, 102360, Note_on_c, 11, 80, 0
12, 102360, Note_on_c, 11, 79, 53
12, 102384, Note_on_c, 11, 79, 0
12, 102384, Note_on_c, 11, 80, 49
12, 102408, Note_on_c, 11, 80, 0
12, 102408, Note_on_c, 11, 79, 48
12, 102432, Note_on_c, 11, 79, 0
12, 102432, Note_on_c, 11, 77, 46
12, 102480, Note_on_c, 11, 77, 0
12, 102480, Note_on_c, 11, 79, 44
12, 102526, Note_on_c, 11, 79, 0
12, 102720, Note_on_c, 11, 75, 52
12, 102744, Note_on_c, 11, 75, 0
12, 102744, Note_on_c, 11, 73, 51
12, 102768, Note_on_c, 11, 73, 0
12, 102768, Note_on_c, 11, 75, 51
12, 102792, Note_on_c, 11, 75, 0
12, 102792, Note_on_c, 11, 73, 50
12, 102816, Note_on_c, 11, 73, 0
12, 102816, Note_on_c, 11, 72, 50
12, 102864, Note_on_c, 11, 72, 0
12, 102864, Note_on_c, 11, 73, 49
12, 102894, Note_on_c, 11, 73, 0
12, 102912, Note_on_c, 11, 72, 47
12, 103090, Note_on_c, 11, 72, 0
12, 103872, Note_on_c, 11, 84, 57
12, 104064, Note_on_c, 11, 84, 0
12, 104064, Note_on_c, 11, 80, 61
12, 104256, Note_on_c, 11, 80, 0
12, 104256, Note_on_c, 11, 77, 70
12, 104434, Note_on_c, 11, 77, 0
12, 104448, Note_on_c, 11, 76, 90
12, 104592, Note_on_c, 11, 76, 0
12, 104592, Note_on_c, 11, 79, 57
12, 104640, Note_on_c, 11, 79, 0
12, 104640, Note_on_c, 11, 82, 55
12, 104818, Note_on_c, 11, 82, 0
12, 105312, Note_on_c, 11, 79, 55
12, 105408, Note_on_c, 11, 79, 0
12, 105408, Note_on_c, 11, 82, 55
12, 105476, Note_on_c, 11, 82, 0
12, 105504, Note_on_c, 11, 76, 55
12, 105600, Note_on_c, 11, 76, 0
12, 105600, Note_on_c, 11, 79, 55
12, 105668, Note_on_c, 11, 79, 0
12, 105696, Note_on_c, 11, 70, 55
12, 105792, Note_on_c, 11, 70, 0
12, 105792, Note_on_c, 11, 73, 55
12, 105860, Note_on_c, 11, 73, 0
12, 105888, Note_on_c, 11, 67, 55
12, 105984, Note_on_c, 11, 67, 0
12, 105984, Note_on_c, 11, 70, 55
12, 106162, Note_on_c, 11, 70, 0
12, 106176, Note_on_c, 11, 68, 53
12, 106332, Note_on_c, 11, 68, 0
12, 106816, Note_on_c, 11, 77, 55
12, 106860, Note_on_c, 11, 77, 0
12, 106880, Note_on_c, 11, 79, 55
12, 106924, Note_on_c, 11, 79, 0
12, 106944, Note_on_c, 11, 80, 55
12, 106988, Note_on_c, 11, 80, 0
12, 107008, Note_on_c, 11, 79, 55
12, 107052, Note_on_c, 11, 79, 0
12, 107072, Note_on_c, 11, 77, 55
12, 107116, Note_on_c, 11, 77, 0
12, 107136, Note_on_c, 11, 75, 55
12, 107180, Note_on_c, 11, 75, 0
12, 107200, Note_on_c, 11, 74, 55
12, 107244, Note_on_c, 11, 74, 0
12, 107264, Note_on_c, 11, 75, 55
12, 107308, Note_on_c, 11, 75, 0
12, 107328, Note_on_c, 11, 77, 55
12, 107372, Note_on_c, 11, 77, 0
12, 107392, Note_on_c, 11, 75, 55
12, 107436, Note_on_c, 11, 75, 0
12, 107456, Note_on_c, 11, 74, 55
12, 107500, Note_on_c, 11, 74, 0
12, 107520, Note_on_c, 11, 72, 55
12, 107712, Note_on_c, 11, 72, 0
12, 107712, Note_on_c, 11, 71, 55
12, 107868, Note_on_c, 11, 71, 0
12, 108480, Note_on_c, 11, 78, 57
12, 108528, Note_on_c, 11, 78, 0
12, 108528, Note_on_c, 11, 79, 57
12, 108636, Note_on_c, 11, 79, 0
12, 108672, Note_on_c, 11, 79, 60
12, 108720, Note_on_c, 11, 79, 0
12, 108720, Note_on_c, 11, 80, 61
12, 108828, Note_on_c, 11, 80, 0
12, 108864, Note_on_c, 11, 80, 64
12, 108912, Note_on_c, 11, 80, 0
12, 108912, Note_on_c, 11, 71, 62
12, 109020, Note_on_c, 11, 71, 0
12, 109056, Note_on_c, 11, 74, 61
12, 109248, Note_on_c, 11, 74, 0
12, 109248, Note_on_c, 11, 72, 56
12, 109404, Note_on_c, 11, 72, 0
12, 109888, Note_on_c, 11, 72, 56
12, 109952, Note_on_c, 11, 72, 0
12, 109952, Note_on_c, 11, 74, 58
12, 110016, Note_on_c, 11, 74, 0
12, 110016, Note_on_c, 11, 75, 61
12, 110080, Note_on_c, 11, 75, 0
12, 110080, Note_on_c, 11, 74, 58
12, 110144, Note_on_c, 11, 74, 0
12, 110144, Note_on_c, 11, 72, 56
12, 110204, Note_on_c, 11, 72, 0
12, 110272, Note_on_c, 11, 75, 57
12, 110336, Note_on_c, 11, 75, 0
12, 110336, Note_on_c, 11, 77, 58
12, 110400, Note_on_c, 11, 77, 0
12, 110400, Note_on_c, 11, 79, 60
12, 110464, Note_on_c, 11, 79, 0
12, 110464, Note_on_c, 11, 77, 60
12, 110528, Note_on_c, 11, 77, 0
12, 110528, Note_on_c, 11, 75, 58
12, 110588, Note_on_c, 11, 75, 0
12, 110592, Note_on_c, 11, 73, 55
12, 110784, Note_on_c, 11, 73, 0
12, 110784, Note_on_c, 11, 74, 53
12, 110940, Note_on_c, 11, 74, 0
12, 111456, Note_on_c, 11, 83, 85
12, 111552, Note_on_c, 11, 83, 0
12, 111552, Note_on_c, 11, 86, 63
12, 111648, Note_on_c, 11, 86, 0
12, 111648, Note_on_c, 11, 84, 55
12, 111744, Note_on_c, 11, 84, 0
12, 111744, Note_on_c, 11, 83, 55
12, 111840, Note_on_c, 11, 83, 0
12, 111840, Note_on_c, 11, 80, 55
12, 111936, Note_on_c, 11, 80, 0
12, 111936, Note_on_c, 11, 79, 55
12, 112032, Note_on_c, 11, 79, 0
12, 112032, Note_on_c, 11, 77, 55
12, 112110, Note_on_c, 11, 77, 0
12, 112128, Note_on_c, 11, 75, 55
12, 112272, Note_on_c, 11, 75, 0
12, 112320, Note_on_c, 11, 79, 54
12, 112468, Note_on_c, 11, 79, 0
12, 112992, Note_on_c, 11, 71, 57
12, 113088, Note_on_c, 11, 71, 0
12, 113088, Note_on_c, 11, 72, 56
12, 113184, Note_on_c, 11, 72, 0
12, 113184, Note_on_c, 11, 74, 57
12, 113280, Note_on_c, 11, 74, 0
12, 113280, Note_on_c, 11, 75, 58
12, 113376, Note_on_c, 11, 75, 0
12, 113376, Note_on_c, 11, 76, 60
12, 113472, Note_on_c, 11, 76, 0
12, 113472, Note_on_c, 11, 77, 61
12, 113568, Note_on_c, 11, 77, 0
12, 113568, Note_on_c, 11, 78, 63
12, 113658, Note_on_c, 11, 78, 0
12, 113664, Note_on_c, 11, 79, 57
12, 114088, Note_on_c, 11, 79, 0
12, 114112, Note_on_c, 11, 78, 62
12, 114156, Note_on_c, 11, 78, 0
12, 114176, Note_on_c, 11, 79, 62
12, 114220, Note_on_c, 11, 79, 0
12, 114240, Note_on_c, 11, 80, 63
12, 114284, Note_on_c, 11, 80, 0
12, 114304, Note_on_c, 11, 79, 63
12, 114348, Note_on_c, 11, 79, 0
12, 114368, Note_on_c, 11, 78, 63
12, 114412, Note_on_c, 11, 78, 0
12, 114432, Note_on_c, 11, 79, 57
12, 114856, Note_on_c, 11, 79, 0
12, 114880, Note_on_c, 11, 78, 63
12, 114924, Note_on_c, 11, 78, 0
12, 114944, Note_on_c, 11, 79, 63
12, 114988, Note_on_c, 11, 79, 0
12, 115008, Note_on_c, 11, 80, 63
12, 115052, Note_on_c, 11, 80, 0
12, 115072, Note_on_c, 11, 79, 63
12, 115116, Note_on_c, 11, 79, 0
12, 115136, Note_on_c, 11, 78, 63
12, 115180, Note_on_c, 11, 78, 0
12, 115200, Note_on_c, 11, 79, 63
12, 115240, Note_on_c, 11, 79, 0
12, 115264, Note_on_c, 11, 78, 63
12, 115304, Note_on_c, 11, 78, 0
12, 115328, Note_on_c, 11, 79, 63
12, 115368, Note_on_c, 11, 79, 0
12, 115392, Note_on_c, 11, 80, 63
12, 115432, Note_on_c, 11, 80, 0
12, 115456, Note_on_c, 11, 79, 63
12, 115496, Note_on_c, 11, 79, 0
12, 115520, Note_on_c, 11, 78, 63
12, 115560, Note_on_c, 11, 78, 0
12, 115584, Note_on_c, 11, 79, 63
12, 115624, Note_on_c, 11, 79, 0
12, 115648, Note_on_c, 11, 78, 63
12, 115688, Note_on_c, 11, 78, 0
12, 115712, Note_on_c, 11, 79, 63
12, 115752, Note_on_c, 11, 79, 0
12, 115776, Note_on_c, 11, 80, 63
12, 115816, Note_on_c, 11, 80, 0
12, 115840, Note_on_c, 11, 79, 63
12, 115880, Note_on_c, 11, 79, 0
12, 115904, Note_on_c, 11, 78, 63
12, 115944, Note_on_c, 11, 78, 0
12, 115968, Note_on_c, 11, 79, 63
12, 116008, Note_on_c, 11, 79, 0
12, 116032, Note_on_c, 11, 78, 63
12, 116072, Note_on_c, 11, 78, 0
12, 116096, Note_on_c, 11, 79, 63
12, 116136, Note_on_c, 11, 79, 0
12, 116160, Note_on_c, 11, 80, 63
12, 116200, Note_on_c, 11, 80, 0
12, 116224, Note_on_c, 11, 79, 63
12, 116264, Note_on_c, 11, 79, 0
12, 116288, Note_on_c, 11, 78, 63
12, 116328, Note_on_c, 11, 78, 0
12, 116352, Note_on_c, 11, 79, 63
12, 116392, Note_on_c, 11, 79, 0
12, 116416, Note_on_c, 11, 78, 63
12, 116456, Note_on_c, 11, 78, 0
12, 116480, Note_on_c, 11, 79, 63
12, 116520, Note_on_c, 11, 79, 0
12, 116544, Note_on_c, 11, 80, 63
12, 116584, Note_on_c, 11, 80, 0
12, 116608, Note_on_c, 11, 79, 62
12, 116648, Note_on_c, 11, 79, 0
12, 116672, Note_on_c, 11, 78, 62
12, 116712, Note_on_c, 11, 78, 0
12, 116736, Note_on_c, 11, 78, 58
12, 116928, Note_on_c, 11, 78, 0
12, 116928, Note_on_c, 11, 79, 52
12, 117022, Note_on_c, 11, 79, 0
12, 117120, Note_on_c, 11, 78, 58
12, 117312, Note_on_c, 11, 78, 0
12, 117312, Note_on_c, 11, 79, 52
12, 117406, Note_on_c, 11, 79, 0
12, 117504, Note_on_c, 11, 78, 58
12, 117696, Note_on_c, 11, 78, 0
12, 117696, Note_on_c, 11, 79, 52
12, 117790, Note_on_c, 11, 79, 0
12, 118272, Note_on_c, 11, 76, 51
12, 118464, Note_on_c, 11, 76, 0
12, 118464, Note_on_c, 11, 77, 46
12, 118558, Note_on_c, 11, 77, 0
12, 118656, Note_on_c, 11, 76, 51
12, 118848, Note_on_c, 11, 76, 0
12, 118848, Note_on_c, 11, 77, 46
12, 118942, Note_on_c, 11, 77, 0
12, 119040, Note_on_c, 11, 76, 50
12, 119232, Note_on_c, 11, 76, 0
12, 119232, Note_on_c, 11, 77, 46
12, 119326, Note_on_c, 11, 77, 0
12, 124416, Note_on_c, 11, 84, 109
12, 124416, Note_on_c, 11, 76, 109
12, 124462, Note_on_c, 11, 76, 0
12, 124462, Note_on_c, 11, 84, 0
12, 124464, Note_on_c, 11, 84, 109
12, 124464, Note_on_c, 11, 76, 109
12, 124510, Note_on_c, 11, 76, 0
12, 124510, Note_on_c, 11, 84, 0
12, 124512, Note_on_c, 11, 84, 109
12, 124512, Note_on_c, 11, 76, 109
12, 124558, Note_on_c, 11, 76, 0
12, 124558, Note_on_c, 11, 84, 0
12, 124560, Note_on_c, 11, 84, 109
12, 124560, Note_on_c, 11, 76, 109
12, 124606, Note_on_c, 11, 76, 0
12, 124606, Note_on_c, 11, 84, 0
12, 124608, Note_on_c, 11, 84, 109
12, 124608, Note_on_c, 11, 76, 109
12, 124654, Note_on_c, 11, 76, 0
12, 124654, Note_on_c, 11, 84, 0
12, 124656, Note_on_c, 11, 84, 109
12, 124656, Note_on_c, 11, 76, 109
12, 124702, Note_on_c, 11, 76, 0
12, 124702, Note_on_c, 11, 84, 0
12, 124704, Note_on_c, 11, 84, 109
12, 124704, Note_on_c, 11, 76, 109
12, 124750, Note_on_c, 11, 76, 0
12, 124750, Note_on_c, 11, 84, 0
12, 124752, Note_on_c, 11, 84, 104
12, 124752, Note_on_c, 11, 76, 104
12, 124798, Note_on_c, 11, 76, 0
12, 124798, Note_on_c, 11, 84, 0
12, 124800, Note_on_c, 11, 84, 102
12, 124800, Note_on_c, 11, 76, 102
12, 124846, Note_on_c, 11, 76, 0
12, 124846, Note_on_c, 11, 84, 0
12, 124848, Note_on_c, 11, 84, 100
12, 124848, Note_on_c, 11, 76, 100
12, 124894, Note_on_c, 11, 76, 0
12, 124894, Note_on_c, 11, 84, 0
12, 124896, Note_on_c, 11, 84, 98
12, 124896, Note_on_c, 11, 76, 98
12, 124942, Note_on_c, 11, 76, 0
12, 124942, Note_on_c, 11, 84, 0
12, 124944, Note_on_c, 11, 84, 97
12, 124944, Note_on_c, 11, 76, 97
12, 124990, Note_on_c, 11, 76, 0
12, 124990, Note_on_c, 11, 84, 0
12, 124992, Note_on_c, 11, 84, 95
12, 124992, Note_on_c, 11, 76, 95
12, 125038, Note_on_c, 11, 76, 0
12, 125038, Note_on_c, 11, 84, 0
12, 125040, Note_on_c, 11, 84, 93
12, 125040, Note_on_c, 11, 76, 93
12, 125086, Note_on_c, 11, 76, 0
12, 125086, Note_on_c, 11, 84, 0
12, 125088, Note_on_c, 11, 84, 92
12, 125088, Note_on_c, 11, 76, 92
12, 125134, Note_on_c, 11, 76, 0
12, 125134, Note_on_c, 11, 84, 0
12, 125136, Note_on_c, 11, 84, 92
12, 125136, Note_on_c, 11, 76, 92
12, 125182, Note_on_c, 11, 76, 0
12, 125182, Note_on_c, 11, 84, 0
12, 125184, Note_on_c, 11, 86, 92
12, 125184, Note_on_c, 11, 77, 92
12, 125230, Note_on_c, 11, 77, 0
12, 125230, Note_on_c, 11, 86, 0
12, 125232, Note_on_c, 11, 86, 92
12, 125232, Note_on_c, 11, 77, 92
12, 125278, Note_on_c, 11, 77, 0
12, 125278, Note_on_c, 11, 86, 0
12, 125280, Note_on_c, 11, 86, 92
12, 125280, Note_on_c, 11, 77, 92
12, 125326, Note_on_c, 11, 77, 0
12, 125326, Note_on_c, 11, 86, 0
12, 125328, Note_on_c, 11, 86, 92
12, 125328, Note_on_c, 11, 77, 92
12, 125374, Note_on_c, 11, 77, 0
12, 125374, Note_on_c, 11, 86, 0
12, 125376, Note_on_c, 11, 86, 92
12, 125376, Note_on_c, 11, 77, 92
12, 125422, Note_on_c, 11, 77, 0
12, 125422, Note_on_c, 11, 86, 0
12, 125424, Note_on_c, 11, 86, 92
12, 125424, Note_on_c, 11, 77, 92
12, 125470, Note_on_c, 11, 77, 0
12, 125470, Note_on_c, 11, 86, 0
12, 125472, Note_on_c, 11, 86, 92
12, 125472, Note_on_c, 11, 77, 92
12, 125518, Note_on_c, 11, 77, 0
12, 125518, Note_on_c, 11, 86, 0
12, 125520, Note_on_c, 11, 86, 92
12, 125520, Note_on_c, 11, 77, 92
12, 125566, Note_on_c, 11, 77, 0
12, 125566, Note_on_c, 11, 86, 0
12, 125568, Note_on_c, 11, 86, 92
12, 125568, Note_on_c, 11, 77, 92
12, 125614, Note_on_c, 11, 77, 0
12, 125614, Note_on_c, 11, 86, 0
12, 125616, Note_on_c, 11, 86, 92
12, 125616, Note_on_c, 11, 77, 92
12, 125662, Note_on_c, 11, 77, 0
12, 125662, Note_on_c, 11, 86, 0
12, 125664, Note_on_c, 11, 86, 92
12, 125664, Note_on_c, 11, 77, 92
12, 125710, Note_on_c, 11, 77, 0
12, 125710, Note_on_c, 11, 86, 0
12, 125712, Note_on_c, 11, 86, 92
12, 125712, Note_on_c, 11, 77, 92
12, 125758, Note_on_c, 11, 77, 0
12, 125758, Note_on_c, 11, 86, 0
12, 125760, Note_on_c, 11, 86, 92
12, 125760, Note_on_c, 11, 77, 92
12, 125806, Note_on_c, 11, 77, 0
12, 125806, Note_on_c, 11, 86, 0
12, 125808, Note_on_c, 11, 86, 92
12, 125808, Note_on_c, 11, 77, 92
12, 125854, Note_on_c, 11, 77, 0
12, 125854, Note_on_c, 11, 86, 0
12, 125856, Note_on_c, 11, 86, 92
12, 125856, Note_on_c, 11, 77, 92
12, 125902, Note_on_c, 11, 77, 0
12, 125902, Note_on_c, 11, 86, 0
12, 125904, Note_on_c, 11, 86, 92
12, 125904, Note_on_c, 11, 77, 92
12, 125950, Note_on_c, 11, 77, 0
12, 125950, Note_on_c, 11, 86, 0
12, 125952, Note_on_c, 11, 84, 92
12, 125952, Note_on_c, 11, 76, 92
12, 125998, Note_on_c, 11, 76, 0
12, 125998, Note_on_c, 11, 84, 0
12, 126000, Note_on_c, 11, 84, 92
12, 126000, Note_on_c, 11, 76, 92
12, 126046, Note_on_c, 11, 76, 0
12, 126046, Note_on_c, 11, 84, 0
12, 126048, Note_on_c, 11, 84, 92
12, 126048, Note_on_c, 11, 76, 92
12, 126094, Note_on_c, 11, 76, 0
12, 126094, Note_on_c, 11, 84, 0
12, 126096, Note_on_c, 11, 84, 92
12, 126096, Note_on_c, 11, 76, 92
12, 126142, Note_on_c, 11, 76, 0
12, 126142, Note_on_c, 11, 84, 0
12, 126144, Note_on_c, 11, 84, 92
12, 126144, Note_on_c, 11, 76, 92
12, 126190, Note_on_c, 11, 76, 0
12, 126190, Note_on_c, 11, 84, 0
12, 126192, Note_on_c, 11, 84, 92
12, 126192, Note_on_c, 11, 76, 92
12, 126238, Note_on_c, 11, 76, 0
12, 126238, Note_on_c, 11, 84, 0
12, 126240, Note_on_c, 11, 84, 92
12, 126240, Note_on_c, 11, 76, 92
12, 126286, Note_on_c, 11, 76, 0
12, 126286, Note_on_c, 11, 84, 0
12, 126288, Note_on_c, 11, 84, 92
12, 126288, Note_on_c, 11, 76, 92
12, 126334, Note_on_c, 11, 76, 0
12, 126334, Note_on_c, 11, 84, 0
12, 126336, Note_on_c, 11, 84, 92
12, 126336, Note_on_c, 11, 76, 92
12, 126382, Note_on_c, 11, 76, 0
12, 126382, Note_on_c, 11, 84, 0
12, 126384, Note_on_c, 11, 84, 92
12, 126384, Note_on_c, 11, 76, 92
12, 126430, Note_on_c, 11, 76, 0
12, 126430, Note_on_c, 11, 84, 0
12, 126432, Note_on_c, 11, 84, 92
12, 126432, Note_on_c, 11, 76, 92
12, 126478, Note_on_c, 11, 76, 0
12, 126478, Note_on_c, 11, 84, 0
12, 126480, Note_on_c, 11, 84, 92
12, 126480, Note_on_c, 11, 76, 92
12, 126526, Note_on_c, 11, 76, 0
12, 126526, Note_on_c, 11, 84, 0
12, 126528, Note_on_c, 11, 84, 92
12, 126528, Note_on_c, 11, 76, 92
12, 126574, Note_on_c, 11, 76, 0
12, 126574, Note_on_c, 11, 84, 0
12, 126576, Note_on_c, 11, 84, 92
12, 126576, Note_on_c, 11, 76, 92
12, 126622, Note_on_c, 11, 76, 0
12, 126622, Note_on_c, 11, 84, 0
12, 126624, Note_on_c, 11, 84, 92
12, 126624, Note_on_c, 11, 76, 92
12, 126670, Note_on_c, 11, 76, 0
12, 126670, Note_on_c, 11, 84, 0
12, 126672, Note_on_c, 11, 84, 92
12, 126672, Note_on_c, 11, 76, 92
12, 126718, Note_on_c, 11, 76, 0
12, 126718, Note_on_c, 11, 84, 0
12, 126720, Note_on_c, 11, 84, 92
12, 126720, Note_on_c, 11, 77, 92
12, 126766, Note_on_c, 11, 77, 0
12, 126766, Note_on_c, 11, 84, 0
12, 126768, Note_on_c, 11, 84, 92
12, 126768, Note_on_c, 11, 77, 92
12, 126814, Note_on_c, 11, 77, 0
12, 126814, Note_on_c, 11, 84, 0
12, 126816, Note_on_c, 11, 84, 92
12, 126816, Note_on_c, 11, 77, 92
12, 126862, Note_on_c, 11, 77, 0
12, 126862, Note_on_c, 11, 84, 0
12, 126864, Note_on_c, 11, 84, 92
12, 126864, Note_on_c, 11, 77, 92
12, 126910, Note_on_c, 11, 77, 0
12, 126910, Note_on_c, 11, 84, 0
12, 126912, Note_on_c, 11, 84, 92
12, 126912, Note_on_c, 11, 77, 92
12, 126958, Note_on_c, 11, 77, 0
12, 126958, Note_on_c, 11, 84, 0
12, 126960, Note_on_c, 11, 84, 92
12, 126960, Note_on_c, 11, 77, 92
12, 127006, Note_on_c, 11, 77, 0
12, 127006, Note_on_c, 11, 84, 0
12, 127008, Note_on_c, 11, 84, 92
12, 127008, Note_on_c, 11, 77, 92
12, 127054, Note_on_c, 11, 77, 0
12, 127054, Note_on_c, 11, 84, 0
12, 127056, Note_on_c, 11, 84, 92
12, 127056, Note_on_c, 11, 77, 92
12, 127102, Note_on_c, 11, 77, 0
12, 127102, Note_on_c, 11, 84, 0
12, 127104, Note_on_c, 11, 84, 92
12, 127104, Note_on_c, 11, 77, 92
12, 127150, Note_on_c, 11, 77, 0
12, 127150, Note_on_c, 11, 84, 0
12, 127152, Note_on_c, 11, 84, 92
12, 127152, Note_on_c, 11, 77, 92
12, 127198, Note_on_c, 11, 77, 0
12, 127198, Note_on_c, 11, 84, 0
12, 127200, Note_on_c, 11, 84, 92
12, 127200, Note_on_c, 11, 77, 92
12, 127246, Note_on_c, 11, 77, 0
12, 127246, Note_on_c, 11, 84, 0
12, 127248, Note_on_c, 11, 84, 92
12, 127248, Note_on_c, 11, 77, 92
12, 127294, Note_on_c, 11, 77, 0
12, 127294, Note_on_c, 11, 84, 0
12, 127296, Note_on_c, 11, 84, 92
12, 127296, Note_on_c, 11, 77, 92
12, 127342, Note_on_c, 11, 77, 0
12, 127342, Note_on_c, 11, 84, 0
12, 127344, Note_on_c, 11, 84, 92
12, 127344, Note_on_c, 11, 77, 92
12, 127390, Note_on_c, 11, 77, 0
12, 127390, Note_on_c, 11, 84, 0
12, 127392, Note_on_c, 11, 84, 92
12, 127392, Note_on_c, 11, 77, 92
12, 127438, Note_on_c, 11, 77, 0
12, 127438, Note_on_c, 11, 84, 0
12, 127440, Note_on_c, 11, 84, 92
12, 127440, Note_on_c, 11, 77, 92
12, 127486, Note_on_c, 11, 77, 0
12, 127486, Note_on_c, 11, 84, 0
12, 127488, Note_on_c, 11, 84, 92
12, 127488, Note_on_c, 11, 77, 92
12, 127534, Note_on_c, 11, 77, 0
12, 127534, Note_on_c, 11, 84, 0
12, 127536, Note_on_c, 11, 84, 92
12, 127536, Note_on_c, 11, 77, 92
12, 127582, Note_on_c, 11, 77, 0
12, 127582, Note_on_c, 11, 84, 0
12, 127584, Note_on_c, 11, 84, 92
12, 127584, Note_on_c, 11, 77, 92
12, 127630, Note_on_c, 11, 77, 0
12, 127630, Note_on_c, 11, 84, 0
12, 127632, Note_on_c, 11, 84, 92
12, 127632, Note_on_c, 11, 77, 92
12, 127678, Note_on_c, 11, 77, 0
12, 127678, Note_on_c, 11, 84, 0
12, 127680, Note_on_c, 11, 84, 92
12, 127680, Note_on_c, 11, 77, 92
12, 127726, Note_on_c, 11, 77, 0
12, 127726, Note_on_c, 11, 84, 0
12, 127728, Note_on_c, 11, 84, 92
12, 127728, Note_on_c, 11, 77, 92
12, 127774, Note_on_c, 11, 77, 0
12, 127774, Note_on_c, 11, 84, 0
12, 127776, Note_on_c, 11, 84, 92
12, 127776, Note_on_c, 11, 77, 92
12, 127822, Note_on_c, 11, 77, 0
12, 127822, Note_on_c, 11, 84, 0
12, 127824, Note_on_c, 11, 84, 92
12, 127824, Note_on_c, 11, 77, 92
12, 127870, Note_on_c, 11, 77, 0
12, 127870, Note_on_c, 11, 84, 0
12, 127872, Note_on_c, 11, 84, 92
12, 127872, Note_on_c, 11, 77, 92
12, 127918, Note_on_c, 11, 77, 0
12, 127918, Note_on_c, 11, 84, 0
12, 127920, Note_on_c, 11, 84, 92
12, 127920, Note_on_c, 11, 77, 92
12, 127966, Note_on_c, 11, 77, 0
12, 127966, Note_on_c, 11, 84, 0
12, 127968, Note_on_c, 11, 84, 92
12, 127968, Note_on_c, 11, 77, 92
12, 128014, Note_on_c, 11, 77, 0
12, 128014, Note_on_c, 11, 84, 0
12, 128016, Note_on_c, 11, 84, 92
12, 128016, Note_on_c, 11, 77, 92
12, 128062, Note_on_c, 11, 77, 0
12, 128062, Note_on_c, 11, 84, 0
12, 128064, Note_on_c, 11, 84, 92
12, 128064, Note_on_c, 11, 77, 92
12, 128110, Note_on_c, 11, 77, 0
12, 128110, Note_on_c, 11, 84, 0
12, 128112, Note_on_c, 11, 84, 92
12, 128112, Note_on_c, 11, 77, 92
12, 128158, Note_on_c, 11, 77, 0
12, 128158, Note_on_c, 11, 84, 0
12, 128160, Note_on_c, 11, 84, 92
12, 128160, Note_on_c, 11, 77, 92
12, 128206, Note_on_c, 11, 77, 0
12, 128206, Note_on_c, 11, 84, 0
12, 128208, Note_on_c, 11, 84, 92
12, 128208, Note_on_c, 11, 77, 92
12, 128254, Note_on_c, 11, 77, 0
12, 128254, Note_on_c, 11, 84, 0
12, 128256, Note_on_c, 11, 84, 92
12, 128256, Note_on_c, 11, 75, 92
12, 128302, Note_on_c, 11, 75, 0
12, 128302, Note_on_c, 11, 84, 0
12, 128304, Note_on_c, 11, 84, 92
12, 128304, Note_on_c, 11, 75, 92
12, 128350, Note_on_c, 11, 75, 0
12, 128350, Note_on_c, 11, 84, 0
12, 128352, Note_on_c, 11, 84, 92
12, 128352, Note_on_c, 11, 75, 92
12, 128398, Note_on_c, 11, 75, 0
12, 128398, Note_on_c, 11, 84, 0
12, 128400, Note_on_c, 11, 84, 92
12, 128400, Note_on_c, 11, 75, 92
12, 128446, Note_on_c, 11, 75, 0
12, 128446, Note_on_c, 11, 84, 0
12, 128448, Note_on_c, 11, 84, 92
12, 128448, Note_on_c, 11, 75, 92
12, 128494, Note_on_c, 11, 75, 0
12, 128494, Note_on_c, 11, 84, 0
12, 128496, Note_on_c, 11, 84, 92
12, 128496, Note_on_c, 11, 75, 92
12, 128542, Note_on_c, 11, 75, 0
12, 128542, Note_on_c, 11, 84, 0
12, 128544, Note_on_c, 11, 84, 92
12, 128544, Note_on_c, 11, 75, 92
12, 128590, Note_on_c, 11, 75, 0
12, 128590, Note_on_c, 11, 84, 0
12, 128592, Note_on_c, 11, 84, 92
12, 128592, Note_on_c, 11, 75, 92
12, 128638, Note_on_c, 11, 75, 0
12, 128638, Note_on_c, 11, 84, 0
12, 128640, Note_on_c, 11, 84, 92
12, 128640, Note_on_c, 11, 75, 92
12, 128686, Note_on_c, 11, 75, 0
12, 128686, Note_on_c, 11, 84, 0
12, 128688, Note_on_c, 11, 84, 92
12, 128688, Note_on_c, 11, 75, 92
12, 128734, Note_on_c, 11, 75, 0
12, 128734, Note_on_c, 11, 84, 0
12, 128736, Note_on_c, 11, 84, 92
12, 128736, Note_on_c, 11, 75, 92
12, 128782, Note_on_c, 11, 75, 0
12, 128782, Note_on_c, 11, 84, 0
12, 128784, Note_on_c, 11, 84, 92
12, 128784, Note_on_c, 11, 75, 92
12, 128830, Note_on_c, 11, 75, 0
12, 128830, Note_on_c, 11, 84, 0
12, 128832, Note_on_c, 11, 84, 92
12, 128832, Note_on_c, 11, 75, 92
12, 128878, Note_on_c, 11, 75, 0
12, 128878, Note_on_c, 11, 84, 0
12, 128880, Note_on_c, 11, 84, 92
12, 128880, Note_on_c, 11, 75, 92
12, 128926, Note_on_c, 11, 75, 0
12, 128926, Note_on_c, 11, 84, 0
12, 128928, Note_on_c, 11, 84, 92
12, 128928, Note_on_c, 11, 75, 92
12, 128974, Note_on_c, 11, 75, 0
12, 128974, Note_on_c, 11, 84, 0
12, 128976, Note_on_c, 11, 84, 92
12, 128976, Note_on_c, 11, 75, 92
12, 129022, Note_on_c, 11, 75, 0
12, 129022, Note_on_c, 11, 84, 0
12, 129024, Note_on_c, 11, 84, 92
12, 129024, Note_on_c, 11, 75, 92
12, 129070, Note_on_c, 11, 75, 0
12, 129070, Note_on_c, 11, 84, 0
12, 129072, Note_on_c, 11, 84, 92
12, 129072, Note_on_c, 11, 75, 92
12, 129118, Note_on_c, 11, 75, 0
12, 129118, Note_on_c, 11, 84, 0
12, 129120, Note_on_c, 11, 84, 92
12, 129120, Note_on_c, 11, 75, 92
12, 129166, Note_on_c, 11, 75, 0
12, 129166, Note_on_c, 11, 84, 0
12, 129168, Note_on_c, 11, 84, 92
12, 129168, Note_on_c, 11, 75, 92
12, 129214, Note_on_c, 11, 75, 0
12, 129214, Note_on_c, 11, 84, 0
12, 129216, Note_on_c, 11, 84, 92
12, 129216, Note_on_c, 11, 75, 92
12, 129262, Note_on_c, 11, 75, 0
12, 129262, Note_on_c, 11, 84, 0
12, 129264, Note_on_c, 11, 84, 92
12, 129264, Note_on_c, 11, 75, 92
12, 129310, Note_on_c, 11, 75, 0
12, 129310, Note_on_c, 11, 84, 0
12, 129312, Note_on_c, 11, 84, 92
12, 129312, Note_on_c, 11, 75, 92
12, 129358, Note_on_c, 11, 75, 0
12, 129358, Note_on_c, 11, 84, 0
12, 129360, Note_on_c, 11, 84, 92
12, 129360, Note_on_c, 11, 75, 92
12, 129406, Note_on_c, 11, 75, 0
12, 129406, Note_on_c, 11, 84, 0
12, 129408, Note_on_c, 11, 84, 92
12, 129408, Note_on_c, 11, 75, 92
12, 129454, Note_on_c, 11, 75, 0
12, 129454, Note_on_c, 11, 84, 0
12, 129456, Note_on_c, 11, 84, 92
12, 129456, Note_on_c, 11, 75, 92
12, 129502, Note_on_c, 11, 75, 0
12, 129502, Note_on_c, 11, 84, 0
12, 129504, Note_on_c, 11, 84, 92
12, 129504, Note_on_c, 11, 75, 92
12, 129550, Note_on_c, 11, 75, 0
12, 129550, Note_on_c, 11, 84, 0
12, 129552, Note_on_c, 11, 84, 92
12, 129552, Note_on_c, 11, 75, 92
12, 129598, Note_on_c, 11, 75, 0
12, 129598, Note_on_c, 11, 84, 0
12, 129600, Note_on_c, 11, 84, 92
12, 129600, Note_on_c, 11, 75, 92
12, 129646, Note_on_c, 11, 75, 0
12, 129646, Note_on_c, 11, 84, 0
12, 129648, Note_on_c, 11, 84, 92
12, 129648, Note_on_c, 11, 75, 92
12, 129694, Note_on_c, 11, 75, 0
12, 129694, Note_on_c, 11, 84, 0
12, 129696, Note_on_c, 11, 84, 92
12, 129696, Note_on_c, 11, 75, 92
12, 129742, Note_on_c, 11, 75, 0
12, 129742, Note_on_c, 11, 84, 0
12, 129744, Note_on_c, 11, 84, 92
12, 129744, Note_on_c, 11, 75, 92
12, 129790, Note_on_c, 11, 75, 0
12, 129790, Note_on_c, 11, 84, 0
12, 129792, Note_on_c, 11, 84, 92
12, 129792, Note_on_c, 11, 74, 92
12, 129838, Note_on_c, 11, 74, 0
12, 129838, Note_on_c, 11, 84, 0
12, 129840, Note_on_c, 11, 84, 92
12, 129840, Note_on_c, 11, 74, 92
12, 129886, Note_on_c, 11, 74, 0
12, 129886, Note_on_c, 11, 84, 0
12, 129888, Note_on_c, 11, 84, 92
12, 129888, Note_on_c, 11, 74, 92
12, 129934, Note_on_c, 11, 74, 0
12, 129934, Note_on_c, 11, 84, 0
12, 129936, Note_on_c, 11, 84, 92
12, 129936, Note_on_c, 11, 74, 92
12, 129982, Note_on_c, 11, 74, 0
12, 129982, Note_on_c, 11, 84, 0
12, 129984, Note_on_c, 11, 84, 92
12, 129984, Note_on_c, 11, 74, 92
12, 130030, Note_on_c, 11, 74, 0
12, 130030, Note_on_c, 11, 84, 0
12, 130032, Note_on_c, 11, 84, 92
12, 130032, Note_on_c, 11, 74, 92
12, 130078, Note_on_c, 11, 74, 0
12, 130078, Note_on_c, 11, 84, 0
12, 130080, Note_on_c, 11, 84, 92
12, 130080, Note_on_c, 11, 74, 92
12, 130126, Note_on_c, 11, 74, 0
12, 130126, Note_on_c, 11, 84, 0
12, 130128, Note_on_c, 11, 84, 92
12, 130128, Note_on_c, 11, 74, 92
12, 130174, Note_on_c, 11, 74, 0
12, 130174, Note_on_c, 11, 84, 0
12, 130176, Note_on_c, 11, 84, 92
12, 130176, Note_on_c, 11, 74, 92
12, 130222, Note_on_c, 11, 74, 0
12, 130222, Note_on_c, 11, 84, 0
12, 130224, Note_on_c, 11, 84, 92
12, 130224, Note_on_c, 11, 74, 92
12, 130270, Note_on_c, 11, 74, 0
12, 130270, Note_on_c, 11, 84, 0
12, 130272, Note_on_c, 11, 84, 92
12, 130272, Note_on_c, 11, 74, 92
12, 130318, Note_on_c, 11, 74, 0
12, 130318, Note_on_c, 11, 84, 0
12, 130320, Note_on_c, 11, 84, 92
12, 130320, Note_on_c, 11, 74, 92
12, 130366, Note_on_c, 11, 74, 0
12, 130366, Note_on_c, 11, 84, 0
12, 130368, Note_on_c, 11, 84, 92
12, 130368, Note_on_c, 11, 74, 92
12, 130414, Note_on_c, 11, 74, 0
12, 130414, Note_on_c, 11, 84, 0
12, 130416, Note_on_c, 11, 84, 92
12, 130416, Note_on_c, 11, 74, 92
12, 130462, Note_on_c, 11, 74, 0
12, 130462, Note_on_c, 11, 84, 0
12, 130464, Note_on_c, 11, 84, 92
12, 130464, Note_on_c, 11, 74, 92
12, 130510, Note_on_c, 11, 74, 0
12, 130510, Note_on_c, 11, 84, 0
12, 130512, Note_on_c, 11, 84, 92
12, 130512, Note_on_c, 11, 74, 92
12, 130558, Note_on_c, 11, 74, 0
12, 130558, Note_on_c, 11, 84, 0
12, 130560, Note_on_c, 11, 84, 92
12, 130560, Note_on_c, 11, 74, 92
12, 130606, Note_on_c, 11, 74, 0
12, 130606, Note_on_c, 11, 84, 0
12, 130608, Note_on_c, 11, 84, 92
12, 130608, Note_on_c, 11, 74, 92
12, 130654, Note_on_c, 11, 74, 0
12, 130654, Note_on_c, 11, 84, 0
12, 130656, Note_on_c, 11, 84, 92
12, 130656, Note_on_c, 11, 74, 92
12, 130702, Note_on_c, 11, 74, 0
12, 130702, Note_on_c, 11, 84, 0
12, 130704, Note_on_c, 11, 84, 92
12, 130704, Note_on_c, 11, 74, 92
12, 130750, Note_on_c, 11, 74, 0
12, 130750, Note_on_c, 11, 84, 0
12, 130752, Note_on_c, 11, 84, 92
12, 130752, Note_on_c, 11, 74, 92
12, 130798, Note_on_c, 11, 74, 0
12, 130798, Note_on_c, 11, 84, 0
12, 130800, Note_on_c, 11, 84, 92
12, 130800, Note_on_c, 11, 74, 92
12, 130846, Note_on_c, 11, 74, 0
12, 130846, Note_on_c, 11, 84, 0
12, 130848, Note_on_c, 11, 84, 92
12, 130848, Note_on_c, 11, 74, 92
12, 130894, Note_on_c, 11, 74, 0
12, 130894, Note_on_c, 11, 84, 0
12, 130896, Note_on_c, 11, 84, 89
12, 130896, Note_on_c, 11, 74, 89
12, 130942, Note_on_c, 11, 74, 0
12, 130942, Note_on_c, 11, 84, 0
12, 130944, Note_on_c, 11, 84, 90
12, 130944, Note_on_c, 11, 74, 90
12, 130990, Note_on_c, 11, 74, 0
12, 130990, Note_on_c, 11, 84, 0
12, 130992, Note_on_c, 11, 84, 90
12, 130992, Note_on_c, 11, 74, 90
12, 131038, Note_on_c, 11, 74, 0
12, 131038, Note_on_c, 11, 84, 0
12, 131040, Note_on_c, 11, 84, 91
12, 131040, Note_on_c, 11, 74, 91
12, 131086, Note_on_c, 11, 74, 0
12, 131086, Note_on_c, 11, 84, 0
12, 131088, Note_on_c, 11, 84, 91
12, 131088, Note_on_c, 11, 74, 91
12, 131134, Note_on_c, 11, 74, 0
12, 131134, Note_on_c, 11, 84, 0
12, 131136, Note_on_c, 11, 84, 92
12, 131136, Note_on_c, 11, 74, 92
12, 131182, Note_on_c, 11, 74, 0
12, 131182, Note_on_c, 11, 84, 0
12, 131184, Note_on_c, 11, 84, 92
12, 131184, Note_on_c, 11, 74, 92
12, 131230, Note_on_c, 11, 74, 0
12, 131230, Note_on_c, 11, 84, 0
12, 131232, Note_on_c, 11, 84, 93
12, 131232, Note_on_c, 11, 74, 93
12, 131278, Note_on_c, 11, 74, 0
12, 131278, Note_on_c, 11, 84, 0
12, 131280, Note_on_c, 11, 84, 93
12, 131280, Note_on_c, 11, 74, 93
12, 131326, Note_on_c, 11, 74, 0
12, 131326, Note_on_c, 11, 84, 0
12, 131328, Note_on_c, 11, 83, 94
12, 131328, Note_on_c, 11, 74, 94
12, 131374, Note_on_c, 11, 74, 0
12, 131374, Note_on_c, 11, 83, 0
12, 131376, Note_on_c, 11, 83, 94
12, 131376, Note_on_c, 11, 74, 94
12, 131422, Note_on_c, 11, 74, 0
12, 131422, Note_on_c, 11, 83, 0
12, 131424, Note_on_c, 11, 83, 95
12, 131424, Note_on_c, 11, 74, 95
12, 131470, Note_on_c, 11, 74, 0
12, 131470, Note_on_c, 11, 83, 0
12, 131472, Note_on_c, 11, 83, 95
12, 131472, Note_on_c, 11, 74, 95
12, 131518, Note_on_c, 11, 74, 0
12, 131518, Note_on_c, 11, 83, 0
12, 131520, Note_on_c, 11, 84, 96
12, 131520, Note_on_c, 11, 74, 96
12, 131566, Note_on_c, 11, 74, 0
12, 131566, Note_on_c, 11, 84, 0
12, 131568, Note_on_c, 11, 84, 96
12, 131568, Note_on_c, 11, 74, 96
12, 131614, Note_on_c, 11, 74, 0
12, 131614, Note_on_c, 11, 84, 0
12, 131616, Note_on_c, 11, 84, 97
12, 131616, Note_on_c, 11, 74, 97
12, 131662, Note_on_c, 11, 74, 0
12, 131662, Note_on_c, 11, 84, 0
12, 131664, Note_on_c, 11, 84, 97
12, 131664, Note_on_c, 11, 74, 97
12, 131710, Note_on_c, 11, 74, 0
12, 131710, Note_on_c, 11, 84, 0
12, 131712, Note_on_c, 11, 83, 95
12, 131712, Note_on_c, 11, 74, 95
12, 131758, Note_on_c, 11, 74, 0
12, 131758, Note_on_c, 11, 83, 0
12, 131760, Note_on_c, 11, 83, 95
12, 131760, Note_on_c, 11, 74, 95
12, 131806, Note_on_c, 11, 74, 0
12, 131806, Note_on_c, 11, 83, 0
12, 131808, Note_on_c, 11, 83, 95
12, 131808, Note_on_c, 11, 74, 95
12, 131854, Note_on_c, 11, 74, 0
12, 131854, Note_on_c, 11, 83, 0
12, 131856, Note_on_c, 11, 83, 95
12, 131856, Note_on_c, 11, 74, 95
12, 131902, Note_on_c, 11, 74, 0
12, 131902, Note_on_c, 11, 83, 0
12, 131904, Note_on_c, 11, 84, 95
12, 131904, Note_on_c, 11, 74, 95
12, 131950, Note_on_c, 11, 74, 0
12, 131950, Note_on_c, 11, 84, 0
12, 131952, Note_on_c, 11, 84, 95
12, 131952, Note_on_c, 11, 74, 95
12, 131998, Note_on_c, 11, 74, 0
12, 131998, Note_on_c, 11, 84, 0
12, 132000, Note_on_c, 11, 84, 95
12, 132000, Note_on_c, 11, 74, 95
12, 132046, Note_on_c, 11, 74, 0
12, 132046, Note_on_c, 11, 84, 0
12, 132048, Note_on_c, 11, 84, 95
12, 132048, Note_on_c, 11, 74, 95
12, 132094, Note_on_c, 11, 74, 0
12, 132094, Note_on_c, 11, 84, 0
12, 132096, Note_on_c, 11, 83, 95
12, 132096, Note_on_c, 11, 74, 95
12, 132142, Note_on_c, 11, 74, 0
12, 132142, Note_on_c, 11, 83, 0
12, 132144, Note_on_c, 11, 83, 95
12, 132144, Note_on_c, 11, 74, 95
12, 132190, Note_on_c, 11, 74, 0
12, 132190, Note_on_c, 11, 83, 0
12, 132192, Note_on_c, 11, 83, 95
12, 132192, Note_on_c, 11, 74, 95
12, 132238, Note_on_c, 11, 74, 0
12, 132238, Note_on_c, 11, 83, 0
12, 132240, Note_on_c, 11, 83, 95
12, 132240, Note_on_c, 11, 74, 95
12, 132286, Note_on_c, 11, 74, 0
12, 132286, Note_on_c, 11, 83, 0
12, 132288, Note_on_c, 11, 84, 95
12, 132288, Note_on_c, 11, 74, 95
12, 132334, Note_on_c, 11, 74, 0
12, 132334, Note_on_c, 11, 84, 0
12, 132336, Note_on_c, 11, 84, 95
12, 132336, Note_on_c, 11, 74, 95
12, 132382, Note_on_c, 11, 74, 0
12, 132382, Note_on_c, 11, 84, 0
12, 132384, Note_on_c, 11, 84, 95
12, 132384, Note_on_c, 11, 74, 95
12, 132430, Note_on_c, 11, 74, 0
12, 132430, Note_on_c, 11, 84, 0
12, 132432, Note_on_c, 11, 84, 95
12, 132432, Note_on_c, 11, 74, 95
12, 132478, Note_on_c, 11, 74, 0
12, 132478, Note_on_c, 11, 84, 0
12, 132480, Note_on_c, 11, 83, 95
12, 132480, Note_on_c, 11, 74, 95
12, 132526, Note_on_c, 11, 74, 0
12, 132526, Note_on_c, 11, 83, 0
12, 132528, Note_on_c, 11, 83, 95
12, 132528, Note_on_c, 11, 74, 95
12, 132574, Note_on_c, 11, 74, 0
12, 132574, Note_on_c, 11, 83, 0
12, 132576, Note_on_c, 11, 83, 95
12, 132576, Note_on_c, 11, 74, 95
12, 132622, Note_on_c, 11, 74, 0
12, 132622, Note_on_c, 11, 83, 0
12, 132624, Note_on_c, 11, 83, 95
12, 132624, Note_on_c, 11, 74, 95
12, 132670, Note_on_c, 11, 74, 0
12, 132670, Note_on_c, 11, 83, 0
12, 132672, Note_on_c, 11, 84, 95
12, 132672, Note_on_c, 11, 74, 95
12, 132718, Note_on_c, 11, 74, 0
12, 132718, Note_on_c, 11, 84, 0
12, 132720, Note_on_c, 11, 84, 95
12, 132720, Note_on_c, 11, 74, 95
12, 132766, Note_on_c, 11, 74, 0
12, 132766, Note_on_c, 11, 84, 0
12, 132768, Note_on_c, 11, 84, 95
12, 132768, Note_on_c, 11, 74, 95
12, 132814, Note_on_c, 11, 74, 0
12, 132814, Note_on_c, 11, 84, 0
12, 132816, Note_on_c, 11, 84, 95
12, 132816, Note_on_c, 11, 74, 95
12, 132862, Note_on_c, 11, 74, 0
12, 132862, Note_on_c, 11, 84, 0
12, 132864, Note_on_c, 11, 83, 95
12, 132864, Note_on_c, 11, 74, 95
12, 133004, Note_on_c, 11, 74, 0
12, 133004, Note_on_c, 11, 83, 0
12, 137280, Note_on_c, 11, 62, 58
12, 137382, Note_on_c, 11, 62, 0
12, 137427, Note_on_c, 11, 64, 61
12, 137472, Note_on_c, 11, 65, 61
12, 137475, Note_on_c, 11, 64, 0
12, 137601, Note_on_c, 11, 65, 0
12, 137664, Note_on_c, 11, 65, 62
12, 137856, Note_on_c, 11, 65, 0
12, 137856, Note_on_c, 11, 64, 61
12, 138048, Note_on_c, 11, 64, 0
12, 138048, Note_on_c, 11, 69, 63
12, 138192, Note_on_c, 11, 69, 0
12, 138240, Note_on_c, 11, 67, 59
12, 138375, Note_on_c, 11, 67, 0
12, 138624, Note_on_c, 11, 66, 61
12, 138666, Note_on_c, 11, 66, 0
12, 138666, Note_on_c, 11, 67, 61
12, 138750, Note_on_c, 11, 67, 0
12, 138816, Note_on_c, 11, 69, 61
12, 138858, Note_on_c, 11, 69, 0
12, 138858, Note_on_c, 11, 67, 61
12, 138942, Note_on_c, 11, 67, 0
12, 139008, Note_on_c, 11, 64, 61
12, 139050, Note_on_c, 11, 64, 0
12, 139050, Note_on_c, 11, 65, 61
12, 139140, Note_on_c, 11, 65, 0
12, 139392, Note_on_c, 11, 64, 61
12, 139434, Note_on_c, 11, 64, 0
12, 139434, Note_on_c, 11, 65, 61
12, 139518, Note_on_c, 11, 65, 0
12, 139584, Note_on_c, 11, 67, 61
12, 139626, Note_on_c, 11, 67, 0
12, 139626, Note_on_c, 11, 65, 61
12, 139710, Note_on_c, 11, 65, 0
12, 139776, Note_on_c, 11, 63, 61
12, 139818, Note_on_c, 11, 63, 0
12, 139818, Note_on_c, 11, 64, 61
12, 139909, Note_on_c, 11, 64, 0
12, 140160, Note_on_c, 11, 63, 61
12, 140202, Note_on_c, 11, 63, 0
12, 140202, Note_on_c, 11, 64, 61
12, 140288, Note_on_c, 11, 64, 0
12, 140352, Note_on_c, 11, 65, 61
12, 140394, Note_on_c, 11, 65, 0
12, 140394, Note_on_c, 11, 64, 61
12, 140480, Note_on_c, 11, 64, 0
12, 140544, Note_on_c, 11, 61, 61
12, 140586, Note_on_c, 11, 61, 0
12, 140586, Note_on_c, 11, 62, 61
12, 140670, Note_on_c, 11, 62, 0
12, 140736, Note_on_c, 11, 65, 61
12, 140778, Note_on_c, 11, 65, 0
12, 140778, Note_on_c, 11, 69, 61
12, 140866, Note_on_c, 11, 69, 0
12, 140928, Note_on_c, 11, 67, 61
12, 140970, Note_on_c, 11, 67, 0
12, 140970, Note_on_c, 11, 64, 61
12, 141058, Note_on_c, 11, 64, 0
12, 141120, Note_on_c, 11, 65, 61
12, 141162, Note_on_c, 11, 65, 0
12, 141162, Note_on_c, 11, 62, 61
12, 141250, Note_on_c, 11, 62, 0
12, 141666, Control_c, 11, 11, 94
12, 141692, Control_c, 11, 11, 96
12, 141696, Note_on_c, 11, 79, 56
12, 141701, Control_c, 11, 11, 97
12, 141744, Control_c, 11, 11, 99
12, 141753, Control_c, 11, 11, 102
12, 141770, Control_c, 11, 11, 103
12, 141797, Control_c, 11, 11, 105
12, 141805, Control_c, 11, 11, 106
12, 141832, Control_c, 11, 11, 108
12, 141849, Control_c, 11, 11, 109
12, 141858, Control_c, 11, 11, 112
12, 141884, Control_c, 11, 11, 114
12, 141888, Note_on_c, 11, 79, 0
12, 141888, Note_on_c, 11, 78, 56
12, 141910, Control_c, 11, 11, 115
12, 141928, Control_c, 11, 11, 117
12, 141962, Control_c, 11, 11, 118
12, 141989, Control_c, 11, 11, 120
12, 142041, Control_c, 11, 11, 121
12, 142067, Control_c, 11, 11, 123
12, 142080, Note_on_c, 11, 78, 0
12, 142080, Note_on_c, 11, 77, 56
12, 142163, Control_c, 11, 11, 120
12, 142181, Control_c, 11, 11, 119
12, 142198, Control_c, 11, 11, 118
12, 142216, Control_c, 11, 11, 117
12, 142224, Control_c, 11, 11, 116
12, 142242, Control_c, 11, 11, 115
12, 142259, Control_c, 11, 11, 114
12, 142272, Note_on_c, 11, 77, 0
12, 142272, Note_on_c, 11, 76, 56
12, 142277, Control_c, 11, 11, 113
12, 142285, Control_c, 11, 11, 112
12, 142303, Control_c, 11, 11, 111
12, 142320, Control_c, 11, 11, 110
12, 142338, Control_c, 11, 11, 109
12, 142346, Control_c, 11, 11, 108
12, 142355, Control_c, 11, 11, 108
12, 142373, Control_c, 11, 11, 107
12, 142381, Control_c, 11, 11, 105
12, 142425, Control_c, 11, 11, 114
12, 142446, Note_on_c, 11, 76, 0
12, 142464, Note_on_c, 11, 79, 56
12, 142560, Note_on_c, 11, 79, 0
12, 142560, Note_on_c, 11, 77, 56
12, 142582, Control_c, 11, 11, 113
12, 142634, Control_c, 11, 11, 111
12, 142642, Note_on_c, 11, 77, 0
12, 142656, Note_on_c, 11, 76, 56
12, 142687, Control_c, 11, 11, 110
12, 142748, Control_c, 11, 11, 108
12, 142752, Note_on_c, 11, 76, 0
12, 142752, Note_on_c, 11, 74, 56
12, 142765, Control_c, 11, 11, 107
12, 142774, Control_c, 11, 11, 105
12, 142792, Control_c, 11, 11, 104
12, 142800, Control_c, 11, 11, 101
12, 142818, Control_c, 11, 11, 104
12, 142833, Note_on_c, 11, 74, 0
12, 142836, Control_c, 11, 11, 105
12, 142848, Note_on_c, 11, 72, 56
12, 142853, Control_c, 11, 11, 108
12, 142862, Control_c, 11, 11, 109
12, 142879, Control_c, 11, 11, 111
12, 142888, Control_c, 11, 11, 114
12, 142905, Control_c, 11, 11, 115
12, 142914, Control_c, 11, 11, 117
12, 142932, Control_c, 11, 11, 118
12, 142940, Control_c, 11, 11, 120
12, 142958, Control_c, 11, 11, 121
12, 142984, Control_c, 11, 11, 123
12, 142993, Control_c, 11, 11, 124
12, 143063, Control_c, 11, 11, 126
12, 143097, Control_c, 11, 11, 127
12, 143176, Control_c, 11, 11, 126
12, 143228, Control_c, 11, 11, 125
12, 143272, Control_c, 11, 11, 123
12, 143307, Control_c, 11, 11, 122
12, 143359, Control_c, 11, 11, 120
12, 143377, Control_c, 11, 11, 119
12, 143385, Control_c, 11, 11, 117
12, 143400, Note_on_c, 11, 72, 0
12, 143424, Note_on_c, 11, 74, 56
12, 143438, Control_c, 11, 11, 116
12, 143447, Control_c, 11, 11, 116
12, 143508, Control_c, 11, 11, 117
12, 143544, Note_on_c, 11, 74, 0
12, 143560, Control_c, 11, 11, 118
12, 143570, Note_on_c, 11, 76, 56
12, 143614, Note_on_c, 11, 76, 0
12, 143616, Note_on_c, 11, 77, 56
12, 143639, Control_c, 11, 11, 120
12, 143750, Note_on_c, 11, 77, 0
12, 143752, Control_c, 11, 11, 121
12, 143796, Control_c, 11, 11, 123
12, 143808, Note_on_c, 11, 77, 56
12, 143831, Control_c, 11, 11, 124
12, 143848, Control_c, 11, 11, 127
12, 144000, Note_on_c, 11, 77, 0
12, 144000, Note_on_c, 11, 76, 56
12, 144192, Note_on_c, 11, 76, 0
12, 144192, Note_on_c, 11, 81, 56
12, 144332, Note_on_c, 11, 81, 0
12, 144384, Note_on_c, 11, 79, 56
12, 144512, Note_on_c, 11, 79, 0
12, 144768, Note_on_c, 11, 78, 56
12, 144810, Note_on_c, 11, 78, 0
12, 144810, Note_on_c, 11, 79, 56
12, 144894, Note_on_c, 11, 79, 0
12, 144960, Note_on_c, 11, 81, 56
12, 145002, Note_on_c, 11, 81, 0
12, 145002, Note_on_c, 11, 79, 56
12, 145086, Note_on_c, 11, 79, 0
12, 145152, Note_on_c, 11, 76, 56
12, 145194, Note_on_c, 11, 76, 0
12, 145194, Note_on_c, 11, 77, 56
12, 145284, Note_on_c, 11, 77, 0
12, 145536, Note_on_c, 11, 76, 56
12, 145578, Note_on_c, 11, 76, 0
12, 145578, Note_on_c, 11, 77, 56
12, 145662, Note_on_c, 11, 77, 0
12, 145728, Note_on_c, 11, 79, 56
12, 145770, Note_on_c, 11, 79, 0
12, 145770, Note_on_c, 11, 77, 56
12, 145854, Note_on_c, 11, 77, 0
12, 145920, Note_on_c, 11, 75, 56
12, 145962, Note_on_c, 11, 75, 0
12, 145962, Note_on_c, 11, 76, 56
12, 146052, Note_on_c, 11, 76, 0
12, 146304, Note_on_c, 11, 75, 56
12, 146346, Note_on_c, 11, 75, 0
12, 146346, Note_on_c, 11, 76, 56
12, 146430, Note_on_c, 11, 76, 0
12, 146496, Note_on_c, 11, 77, 56
12, 146538, Note_on_c, 11, 77, 0
12, 146538, Note_on_c, 11, 76, 56
12, 146622, Note_on_c, 11, 76, 0
12, 146688, Note_on_c, 11, 73, 56
12, 146730, Note_on_c, 11, 73, 0
12, 146730, Note_on_c, 11, 74, 56
12, 146818, Note_on_c, 11, 74, 0
12, 147072, Note_on_c, 11, 77, 56
12, 147114, Note_on_c, 11, 77, 0
12, 147114, Note_on_c, 11, 76, 56
12, 147202, Note_on_c, 11, 76, 0
12, 147456, Note_on_c, 11, 79, 56
12, 147498, Note_on_c, 11, 79, 0
12, 147498, Note_on_c, 11, 77, 56
12, 147586, Note_on_c, 11, 77, 0
12, 147840, Note_on_c, 11, 76, 56
12, 147882, Note_on_c, 11, 76, 0
12, 147882, Note_on_c, 11, 77, 56
12, 147970, Note_on_c, 11, 77, 0
12, 148032, Note_on_c, 11, 79, 56
12, 148074, Note_on_c, 11, 79, 0
12, 148074, Note_on_c, 11, 77, 56
12, 148162, Note_on_c, 11, 77, 0
12, 148224, Note_on_c, 11, 75, 56
12, 148266, Note_on_c, 11, 75, 0
12, 148266, Note_on_c, 11, 76, 56
12, 148354, Note_on_c, 11, 76, 0
12, 148608, Note_on_c, 11, 79, 56
12, 148650, Note_on_c, 11, 79, 0
12, 148650, Note_on_c, 11, 78, 56
12, 148738, Note_on_c, 11, 78, 0
12, 148992, Note_on_c, 11, 81, 56
12, 149034, Note_on_c, 11, 81, 0
12, 149034, Note_on_c, 11, 79, 56
12, 149122, Note_on_c, 11, 79, 0
12, 149376, Note_on_c, 11, 83, 57
12, 149418, Note_on_c, 11, 83, 0
12, 149418, Note_on_c, 11, 84, 59
12, 149506, Note_on_c, 11, 84, 0
12, 149568, Note_on_c, 11, 86, 67
12, 149610, Note_on_c, 11, 86, 0
12, 149610, Note_on_c, 11, 84, 68
12, 149698, Note_on_c, 11, 84, 0
12, 149740, Control_c, 11, 11, 121
12, 149758, Control_c, 11, 11, 122
12, 149760, Note_on_c, 11, 88, 93
12, 149784, Control_c, 11, 11, 124
12, 149906, Control_c, 11, 11, 120
12, 149915, Control_c, 11, 11, 114
12, 149924, Control_c, 11, 11, 111
12, 149941, Control_c, 11, 11, 109
12, 149950, Control_c, 11, 11, 106
12, 149967, Control_c, 11, 11, 99
12, 149976, Control_c, 11, 11, 96
12, 150002, Control_c, 11, 11, 93
12, 150028, Control_c, 11, 11, 91
12, 150046, Control_c, 11, 11, 90
12, 150072, Control_c, 11, 11, 88
12, 150081, Control_c, 11, 11, 87
12, 150107, Control_c, 11, 11, 85
12, 150272, Note_on_c, 11, 88, 0
12, 150322, Control_c, 11, 11, 95
12, 150336, Note_on_c, 11, 86, 67
12, 150384, Note_on_c, 11, 86, 0
12, 150384, Note_on_c, 11, 84, 67
12, 150432, Note_on_c, 11, 84, 0
12, 150432, Note_on_c, 11, 83, 67
12, 150480, Note_on_c, 11, 83, 0
12, 150480, Note_on_c, 11, 81, 67
12, 150528, Note_on_c, 11, 81, 0
12, 150528, Note_on_c, 11, 80, 67
12, 150662, Note_on_c, 11, 80, 0
12, 150720, Note_on_c, 11, 80, 67
12, 150810, Note_on_c, 11, 80, 0
12, 150912, Note_on_c, 11, 80, 67
12, 151002, Note_on_c, 11, 80, 0
12, 151104, Note_on_c, 11, 80, 67
12, 151194, Note_on_c, 11, 80, 0
12, 151296, Note_on_c, 11, 80, 67
12, 151488, Note_on_c, 11, 80, 0
12, 151488, Note_on_c, 11, 81, 67
12, 151622, Note_on_c, 11, 81, 0
12, 151680, Note_on_c, 11, 80, 64
12, 151683, Control_c, 11, 11, 107
12, 151722, Note_on_c, 11, 80, 0
12, 151722, Note_on_c, 11, 81, 65
12, 151810, Note_on_c, 11, 81, 0
12, 151872, Note_on_c, 11, 83, 70
12, 151914, Note_on_c, 11, 83, 0
12, 151914, Note_on_c, 11, 81, 74
12, 152007, Note_on_c, 11, 81, 0
12, 152062, Control_c, 11, 11, 122
12, 152064, Note_on_c, 11, 84, 96
12, 152088, Control_c, 11, 11, 124
12, 152097, Control_c, 11, 11, 125
12, 152114, Control_c, 11, 11, 127
12, 152149, Control_c, 11, 11, 124
12, 152166, Control_c, 11, 11, 117
12, 152175, Control_c, 11, 11, 112
12, 152193, Control_c, 11, 11, 109
12, 152201, Control_c, 11, 11, 105
12, 152219, Control_c, 11, 11, 102
12, 152228, Control_c, 11, 11, 99
12, 152254, Control_c, 11, 11, 96
12, 152271, Control_c, 11, 11, 94
12, 152280, Control_c, 11, 11, 93
12, 152306, Control_c, 11, 11, 91
12, 152324, Control_c, 11, 11, 90
12, 152350, Control_c, 11, 11, 88
12, 152376, Control_c, 11, 11, 87
12, 152575, Note_on_c, 11, 84, 0
12, 152640, Note_on_c, 11, 83, 67
12, 152640, Control_c, 11, 11, 96
12, 152688, Note_on_c, 11, 83, 0
12, 152688, Note_on_c, 11, 81, 68
12, 152736, Note_on_c, 11, 81, 0
12, 152736, Note_on_c, 11, 79, 69
12, 152784, Note_on_c, 11, 79, 0
12, 152784, Note_on_c, 11, 77, 71
12, 152824, Note_on_c, 11, 77, 0
12, 152832, Note_on_c, 11, 76, 72
12, 152964, Note_on_c, 11, 76, 0
12, 153024, Note_on_c, 11, 76, 76
12, 153216, Note_on_c, 11, 76, 0
12, 153216, Note_on_c, 11, 77, 75
12, 153408, Note_on_c, 11, 77, 0
12, 153408, Note_on_c, 11, 74, 73
12, 153550, Note_on_c, 11, 74, 0
12, 153600, Note_on_c, 11, 72, 71
12, 153778, Note_on_c, 11, 72, 0
12, 153935, Control_c, 11, 11, 127
12, 153936, Note_on_c, 11, 76, 103
12, 153960, Note_on_c, 11, 76, 0
12, 153960, Note_on_c, 11, 77, 103
12, 153984, Note_on_c, 11, 77, 0
12, 153984, Note_on_c, 11, 79, 103
12, 154160, Note_on_c, 11, 79, 0
12, 154272, Note_on_c, 11, 79, 52
12, 154326, Note_on_c, 11, 79, 0
12, 154368, Note_on_c, 11, 77, 52
12, 154458, Note_on_c, 11, 77, 0
12, 154560, Note_on_c, 11, 76, 52
12, 154650, Note_on_c, 11, 76, 0
12, 154752, Note_on_c, 11, 74, 52
12, 154842, Note_on_c, 11, 74, 0
12, 154944, Note_on_c, 11, 77, 52
12, 155034, Note_on_c, 11, 77, 0
12, 155136, Note_on_c, 11, 76, 52
12, 155314, Note_on_c, 11, 76, 0
12, 155472, Note_on_c, 11, 72, 103
12, 155496, Note_on_c, 11, 72, 0
12, 155496, Note_on_c, 11, 74, 103
12, 155520, Note_on_c, 11, 74, 0
12, 155520, Note_on_c, 11, 76, 103
12, 155696, Note_on_c, 11, 76, 0
12, 155808, Note_on_c, 11, 76, 52
12, 155862, Note_on_c, 11, 76, 0
12, 155904, Note_on_c, 11, 74, 52
12, 155994, Note_on_c, 11, 74, 0
12, 156096, Note_on_c, 11, 72, 52
12, 156186, Note_on_c, 11, 72, 0
12, 156288, Note_on_c, 11, 71, 52
12, 156378, Note_on_c, 11, 71, 0
12, 156480, Note_on_c, 11, 74, 52
12, 156570, Note_on_c, 11, 74, 0
12, 156672, Note_on_c, 11, 72, 52
12, 156850, Note_on_c, 11, 72, 0
12, 157008, Note_on_c, 11, 76, 103
12, 157032, Note_on_c, 11, 76, 0
12, 157032, Note_on_c, 11, 77, 103
12, 157056, Note_on_c, 11, 77, 0
12, 157056, Note_on_c, 11, 79, 103
12, 157232, Note_on_c, 11, 79, 0
12, 157344, Note_on_c, 11, 79, 52
12, 157398, Note_on_c, 11, 79, 0
12, 157440, Note_on_c, 11, 77, 52
12, 157530, Note_on_c, 11, 77, 0
12, 157632, Note_on_c, 11, 76, 52
12, 157722, Note_on_c, 11, 76, 0
12, 157824, Note_on_c, 11, 74, 52
12, 157914, Note_on_c, 11, 74, 0
12, 158016, Note_on_c, 11, 77, 52
12, 158106, Note_on_c, 11, 77, 0
12, 158208, Note_on_c, 11, 76, 52
12, 158386, Note_on_c, 11, 76, 0
12, 158544, Note_on_c, 11, 72, 103
12, 158568, Note_on_c, 11, 72, 0
12, 158568, Note_on_c, 11, 74, 103
12, 158592, Note_on_c, 11, 74, 0
12, 158592, Note_on_c, 11, 76, 103
12, 158770, Note_on_c, 11, 76, 0
12, 158880, Note_on_c, 11, 76, 52
12, 158934, Note_on_c, 11, 76, 0
12, 158976, Note_on_c, 11, 74, 52
12, 159066, Note_on_c, 11, 74, 0
12, 159168, Note_on_c, 11, 72, 52
12, 159258, Note_on_c, 11, 72, 0
12, 159360, Note_on_c, 11, 71, 52
12, 159450, Note_on_c, 11, 71, 0
12, 159552, Note_on_c, 11, 74, 52
12, 159642, Note_on_c, 11, 74, 0
12, 159744, Note_on_c, 11, 84, 52
12, 159812, Note_on_c, 11, 84, 0
12, 159840, Note_on_c, 11, 84, 123
12, 159884, Note_on_c, 11, 84, 0
12, 159936, Note_on_c, 11, 84, 123
12, 159980, Note_on_c, 11, 84, 0
12, 160032, Note_on_c, 11, 84, 123
12, 160076, Note_on_c, 11, 84, 0
12, 160128, Note_on_c, 11, 84, 123
12, 160172, Note_on_c, 11, 84, 0
12, 160224, Note_on_c, 11, 84, 123
12, 160268, Note_on_c, 11, 84, 0
12, 160320, Note_on_c, 11, 84, 123
12, 160364, Note_on_c, 11, 84, 0
12, 160416, Note_on_c, 11, 84, 123
12, 160460, Note_on_c, 11, 84, 0
12, 160503, Control_c, 11, 11, 122
12, 160512, Control_c, 11, 11, 123
12, 160512, Note_on_c, 11, 82, 114
12, 160520, Control_c, 11, 11, 121
12, 160529, Control_c, 11, 11, 126
12, 160555, Control_c, 11, 11, 127
12, 160581, Control_c, 11, 11, 124
12, 160590, Control_c, 11, 11, 121
12, 160608, Control_c, 11, 11, 118
12, 160616, Control_c, 11, 11, 115
12, 160660, Control_c, 11, 11, 113
12, 161220, Note_on_c, 11, 82, 0
12, 161280, Note_on_c, 11, 81, 111
12, 161280, Control_c, 11, 11, 123
12, 161352, Note_on_c, 11, 81, 0
12, 161376, Note_on_c, 11, 81, 111
12, 161436, Note_on_c, 11, 81, 0
12, 161568, Note_on_c, 11, 85, 116
12, 161568, Control_c, 11, 11, 127
12, 161588, Note_on_c, 11, 85, 0
12, 161588, Note_on_c, 11, 86, 116
12, 161608, Note_on_c, 11, 86, 0
12, 161608, Note_on_c, 11, 85, 116
12, 161628, Note_on_c, 11, 85, 0
12, 161628, Note_on_c, 11, 83, 116
12, 161646, Note_on_c, 11, 83, 0
12, 161646, Note_on_c, 11, 85, 116
12, 161664, Note_on_c, 11, 85, 0
12, 161664, Note_on_c, 11, 86, 116
12, 161704, Note_on_c, 11, 86, 0
12, 161760, Note_on_c, 11, 86, 116
12, 161798, Note_on_c, 11, 86, 0
12, 161856, Note_on_c, 11, 88, 116
12, 161896, Note_on_c, 11, 88, 0
12, 161952, Note_on_c, 11, 88, 116
12, 161988, Note_on_c, 11, 88, 0
12, 162048, Note_on_c, 11, 89, 116
12, 162108, Note_on_c, 11, 89, 0
12, 162144, Note_on_c, 11, 89, 116
12, 162204, Note_on_c, 11, 89, 0
12, 162336, Note_on_c, 11, 83, 116
12, 162356, Note_on_c, 11, 83, 0
12, 162356, Note_on_c, 11, 84, 116
12, 162376, Note_on_c, 11, 84, 0
12, 162376, Note_on_c, 11, 83, 116
12, 162396, Note_on_c, 11, 83, 0
12, 162396, Note_on_c, 11, 81, 116
12, 162414, Note_on_c, 11, 81, 0
12, 162414, Note_on_c, 11, 83, 116
12, 162432, Note_on_c, 11, 83, 0
12, 162432, Note_on_c, 11, 84, 116
12, 162476, Note_on_c, 11, 84, 0
12, 162528, Note_on_c, 11, 84, 116
12, 162568, Note_on_c, 11, 84, 0
12, 162624, Note_on_c, 11, 86, 116
12, 162668, Note_on_c, 11, 86, 0
12, 162720, Note_on_c, 11, 86, 116
12, 162760, Note_on_c, 11, 86, 0
12, 162816, Note_on_c, 11, 88, 116
12, 162876, Note_on_c, 11, 88, 0
12, 162912, Note_on_c, 11, 88, 116
12, 162972, Note_on_c, 11, 88, 0
12, 163104, Note_on_c, 11, 80, 116
12, 163124, Note_on_c, 11, 80, 0
12, 163124, Note_on_c, 11, 81, 116
12, 163144, Note_on_c, 11, 81, 0
12, 163144, Note_on_c, 11, 80, 116
12, 163164, Note_on_c, 11, 80, 0
12, 163164, Note_on_c, 11, 78, 116
12, 163182, Note_on_c, 11, 78, 0
12, 163182, Note_on_c, 11, 80, 116
12, 163200, Note_on_c, 11, 80, 0
12, 163200, Note_on_c, 11, 81, 116
12, 163242, Note_on_c, 11, 81, 0
12, 163296, Note_on_c, 11, 81, 116
12, 163336, Note_on_c, 11, 81, 0
12, 163392, Note_on_c, 11, 83, 116
12, 163433, Note_on_c, 11, 83, 0
12, 163488, Note_on_c, 11, 83, 116
12, 163528, Note_on_c, 11, 83, 0
12, 163584, Note_on_c, 11, 84, 116
12, 163674, Note_on_c, 11, 84, 0
12, 164352, Note_on_c, 11, 76, 116
12, 164376, Note_on_c, 11, 76, 0
12, 164376, Note_on_c, 11, 77, 116
12, 164400, Note_on_c, 11, 77, 0
12, 164400, Note_on_c, 11, 79, 116
12, 164478, Note_on_c, 11, 79, 0
12, 164544, Note_on_c, 11, 79, 116
12, 164590, Note_on_c, 11, 79, 0
12, 164640, Note_on_c, 11, 79, 116
12, 164686, Note_on_c, 11, 79, 0
12, 164736, Note_on_c, 11, 76, 116
12, 164760, Note_on_c, 11, 76, 0
12, 164760, Note_on_c, 11, 77, 116
12, 164784, Note_on_c, 11, 77, 0
12, 164784, Note_on_c, 11, 79, 116
12, 164862, Note_on_c, 11, 79, 0
12, 164928, Note_on_c, 11, 79, 116
12, 164974, Note_on_c, 11, 79, 0
12, 165024, Note_on_c, 11, 79, 116
12, 165070, Note_on_c, 11, 79, 0
12, 165120, Note_on_c, 11, 84, 116
12, 165216, Note_on_c, 11, 84, 0
12, 165216, Note_on_c, 11, 79, 116
12, 165270, Note_on_c, 11, 79, 0
12, 165312, Note_on_c, 11, 79, 116
12, 165358, Note_on_c, 11, 79, 0
12, 165408, Note_on_c, 11, 79, 116
12, 165454, Note_on_c, 11, 79, 0
12, 165504, Note_on_c, 11, 79, 116
12, 165600, Note_on_c, 11, 79, 0
12, 165600, Note_on_c, 11, 77, 116
12, 165654, Note_on_c, 11, 77, 0
12, 165696, Note_on_c, 11, 76, 116
12, 165742, Note_on_c, 11, 76, 0
12, 165792, Note_on_c, 11, 74, 116
12, 165838, Note_on_c, 11, 74, 0
12, 165984, Note_on_c, 11, 84, 124
12, 166028, Note_on_c, 11, 84, 0
12, 166080, Note_on_c, 11, 84, 124
12, 166124, Note_on_c, 11, 84, 0
12, 166176, Note_on_c, 11, 84, 124
12, 166220, Note_on_c, 11, 84, 0
12, 166272, Note_on_c, 11, 84, 124
12, 166316, Note_on_c, 11, 84, 0
12, 166368, Note_on_c, 11, 84, 124
12, 166412, Note_on_c, 11, 84, 0
12, 166464, Note_on_c, 11, 84, 124
12, 166508, Note_on_c, 11, 84, 0
12, 166560, Note_on_c, 11, 84, 124
12, 166604, Note_on_c, 11, 84, 0
12, 166656, Note_on_c, 11, 82, 119
12, 166671, Control_c, 11, 11, 120
12, 166688, Control_c, 11, 11, 123
12, 166697, Control_c, 11, 11, 124
12, 166714, Control_c, 11, 11, 127
12, 166802, Control_c, 11, 11, 126
12, 166819, Control_c, 11, 11, 120
12, 166828, Control_c, 11, 11, 117
12, 166845, Control_c, 11, 11, 116
12, 166854, Control_c, 11, 11, 114
12, 166872, Control_c, 11, 11, 113
12, 166880, Control_c, 11, 11, 111
12, 166898, Control_c, 11, 11, 110
12, 167364, Note_on_c, 11, 82, 0
12, 167424, Note_on_c, 11, 81, 103
12, 167424, Control_c, 11, 11, 123
12, 167496, Note_on_c, 11, 81, 0
12, 167520, Note_on_c, 11, 81, 103
12, 167580, Note_on_c, 11, 81, 0
12, 167711, Control_c, 11, 11, 127
12, 167712, Note_on_c, 11, 85, 116
12, 167732, Note_on_c, 11, 85, 0
12, 167732, Note_on_c, 11, 86, 116
12, 167752, Note_on_c, 11, 86, 0
12, 167752, Note_on_c, 11, 85, 116
12, 167772, Note_on_c, 11, 85, 0
12, 167772, Note_on_c, 11, 83, 116
12, 167790, Note_on_c, 11, 83, 0
12, 167790, Note_on_c, 11, 85, 116
12, 167808, Note_on_c, 11, 85, 0
12, 167808, Note_on_c, 11, 86, 116
12, 167852, Note_on_c, 11, 86, 0
12, 167904, Note_on_c, 11, 86, 116
12, 167944, Note_on_c, 11, 86, 0
12, 168000, Note_on_c, 11, 88, 116
12, 168040, Note_on_c, 11, 88, 0
12, 168096, Note_on_c, 11, 88, 116
12, 168136, Note_on_c, 11, 88, 0
12, 168192, Note_on_c, 11, 89, 116
12, 168252, Note_on_c, 11, 89, 0
12, 168288, Note_on_c, 11, 89, 116
12, 168348, Note_on_c, 11, 89, 0
12, 168480, Note_on_c, 11, 83, 116
12, 168500, Note_on_c, 11, 83, 0
12, 168500, Note_on_c, 11, 84, 116
12, 168520, Note_on_c, 11, 84, 0
12, 168520, Note_on_c, 11, 83, 116
12, 168540, Note_on_c, 11, 83, 0
12, 168540, Note_on_c, 11, 81, 116
12, 168558, Note_on_c, 11, 81, 0
12, 168558, Note_on_c, 11, 83, 116
12, 168576, Note_on_c, 11, 83, 0
12, 168576, Note_on_c, 11, 84, 116
12, 168620, Note_on_c, 11, 84, 0
12, 168672, Note_on_c, 11, 84, 116
12, 168712, Note_on_c, 11, 84, 0
12, 168768, Note_on_c, 11, 86, 116
12, 168808, Note_on_c, 11, 86, 0
12, 168864, Note_on_c, 11, 86, 116
12, 168904, Note_on_c, 11, 86, 0
12, 168960, Note_on_c, 11, 88, 116
12, 169020, Note_on_c, 11, 88, 0
12, 169056, Note_on_c, 11, 88, 116
12, 169116, Note_on_c, 11, 88, 0
12, 169248, Note_on_c, 11, 80, 116
12, 169268, Note_on_c, 11, 80, 0
12, 169268, Note_on_c, 11, 81, 116
12, 169288, Note_on_c, 11, 81, 0
12, 169288, Note_on_c, 11, 80, 116
12, 169308, Note_on_c, 11, 80, 0
12, 169308, Note_on_c, 11, 78, 116
12, 169326, Note_on_c, 11, 78, 0
12, 169326, Note_on_c, 11, 80, 116
12, 169344, Note_on_c, 11, 80, 0
12, 169344, Note_on_c, 11, 81, 116
12, 169388, Note_on_c, 11, 81, 0
12, 169440, Note_on_c, 11, 81, 116
12, 169480, Note_on_c, 11, 81, 0
12, 169536, Note_on_c, 11, 83, 116
12, 169576, Note_on_c, 11, 83, 0
12, 169632, Note_on_c, 11, 83, 116
12, 169672, Note_on_c, 11, 83, 0
12, 169728, Note_on_c, 11, 84, 116
12, 169828, Note_on_c, 11, 84, 0
12, 172800, Note_on_c, 11, 84, 116
12, 172868, Note_on_c, 11, 84, 0
12, 172896, Note_on_c, 11, 84, 111
12, 173030, Note_on_c, 11, 84, 0
12, 173088, Note_on_c, 11, 84, 111
12, 173222, Note_on_c, 11, 84, 0
12, 173280, Note_on_c, 11, 84, 111
12, 173414, Note_on_c, 11, 84, 0
12, 173472, Note_on_c, 11, 84, 111
12, 173614, Note_on_c, 11, 84, 0
12, 173664, Note_on_c, 11, 84, 111
12, 173712, Note_on_c, 11, 84, 0
12, 173760, Note_on_c, 11, 84, 111
12, 173808, Note_on_c, 11, 84, 0
12, 173856, Note_on_c, 11, 84, 111
12, 173904, Note_on_c, 11, 84, 0
12, 173952, Note_on_c, 11, 84, 111
12, 174000, Note_on_c, 11, 84, 0
12, 174048, Note_on_c, 11, 84, 111
12, 174096, Note_on_c, 11, 84, 0
12, 174144, Note_on_c, 11, 84, 110
12, 174192, Note_on_c, 11, 84, 0
12, 174240, Note_on_c, 11, 84, 110
12, 174288, Note_on_c, 11, 84, 0
12, 174336, Note_on_c, 11, 84, 110
12, 174376, Note_on_c, 11, 84, 0
12, 174384, Note_on_c, 11, 84, 110
12, 174424, Note_on_c, 11, 84, 0
12, 174432, Note_on_c, 11, 84, 110
12, 174472, Note_on_c, 11, 84, 0
12, 174480, Note_on_c, 11, 84, 110
12, 174520, Note_on_c, 11, 84, 0
12, 174528, Note_on_c, 11, 84, 110
12, 174568, Note_on_c, 11, 84, 0
12, 174576, Note_on_c, 11, 84, 110
12, 174616, Note_on_c, 11, 84, 0
12, 174624, Note_on_c, 11, 84, 110
12, 174664, Note_on_c, 11, 84, 0
12, 174672, Note_on_c, 11, 84, 110
12, 174712, Note_on_c, 11, 84, 0
12, 174720, Note_on_c, 11, 84, 110
12, 174760, Note_on_c, 11, 84, 0
12, 174768, Note_on_c, 11, 84, 110
12, 174808, Note_on_c, 11, 84, 0
12, 174816, Note_on_c, 11, 84, 110
12, 174856, Note_on_c, 11, 84, 0
12, 174864, Note_on_c, 11, 84, 110
12, 174904, Note_on_c, 11, 84, 0
12, 174912, Note_on_c, 11, 84, 110
12, 174952, Note_on_c, 11, 84, 0
12, 174960, Note_on_c, 11, 84, 110
12, 175000, Note_on_c, 11, 84, 0
12, 175008, Note_on_c, 11, 84, 110
12, 175048, Note_on_c, 11, 84, 0
12, 175056, Note_on_c, 11, 84, 110
12, 175096, Note_on_c, 11, 84, 0
12, 175104, Note_on_c, 11, 84, 110
12, 175224, Note_on_c, 11, 84, 0
12, 175480, Note_on_c, 11, 64, 103
12, 175488, Note_on_c, 11, 72, 103
12, 175574, Note_on_c, 11, 64, 0
12, 175608, Note_on_c, 11, 72, 0
12, 175664, Note_on_c, 11, 67, 103
12, 175680, Note_on_c, 11, 76, 103
12, 175756, Note_on_c, 11, 67, 0
12, 175800, Note_on_c, 11, 76, 0
12, 175860, Note_on_c, 11, 64, 103
12, 176006, Note_on_c, 11, 64, 0
12, 176624, Control_c, 11, 11, 94
12, 176640, Note_on_c, 11, 79, 59
12, 176659, Control_c, 11, 11, 96
12, 176738, Control_c, 11, 11, 99
12, 176781, Control_c, 11, 11, 100
12, 176816, Control_c, 11, 11, 103
12, 176869, Control_c, 11, 11, 105
12, 176886, Control_c, 11, 11, 106
12, 176921, Control_c, 11, 11, 109
12, 176965, Control_c, 11, 11, 111
12, 177000, Control_c, 11, 11, 112
12, 177017, Control_c, 11, 11, 117
12, 177026, Control_c, 11, 11, 118
12, 177035, Control_c, 11, 11, 114
12, 177043, Control_c, 11, 11, 118
12, 177052, Control_c, 11, 11, 120
12, 177069, Control_c, 11, 11, 121
12, 177078, Control_c, 11, 11, 123
12, 177094, Note_on_c, 11, 79, 0
12, 177096, Control_c, 11, 11, 124
12, 177104, Control_c, 11, 11, 126
12, 177120, Note_on_c, 11, 81, 62
12, 177148, Control_c, 11, 11, 127
12, 177176, Note_on_c, 11, 81, 0
12, 177216, Note_on_c, 11, 83, 63
12, 177272, Note_on_c, 11, 83, 0
12, 177312, Note_on_c, 11, 84, 63
12, 177368, Note_on_c, 11, 84, 0
12, 177408, Note_on_c, 11, 84, 68
12, 177504, Note_on_c, 11, 84, 0
12, 177504, Note_on_c, 11, 83, 65
12, 177574, Note_on_c, 11, 83, 0
12, 177600, Note_on_c, 11, 81, 64
12, 177650, Note_on_c, 11, 81, 0
12, 177696, Note_on_c, 11, 79, 64
12, 177746, Note_on_c, 11, 79, 0
12, 177792, Note_on_c, 11, 79, 66
12, 177888, Note_on_c, 11, 79, 0
12, 177888, Note_on_c, 11, 77, 62
12, 177958, Note_on_c, 11, 77, 0
12, 177984, Note_on_c, 11, 76, 62
12, 178034, Note_on_c, 11, 76, 0
12, 178080, Note_on_c, 11, 74, 61
12, 178129, Note_on_c, 11, 74, 0
12, 178176, Note_on_c, 11, 72, 60
12, 178530, Note_on_c, 11, 72, 0
12, 178560, Note_on_c, 11, 76, 56
12, 178656, Note_on_c, 11, 76, 0
12, 178656, Note_on_c, 11, 74, 56
12, 178848, Note_on_c, 11, 74, 0
12, 178848, Note_on_c, 11, 72, 57
12, 178924, Note_on_c, 11, 72, 0
12, 178944, Note_on_c, 11, 72, 116
12, 179012, Note_on_c, 11, 72, 0
12, 179040, Note_on_c, 11, 60, 116
12, 179108, Note_on_c, 11, 60, 0
12, 179136, Note_on_c, 11, 76, 116
12, 179204, Note_on_c, 11, 76, 0
12, 179232, Note_on_c, 11, 64, 116
12, 179286, Note_on_c, 11, 64, 0
12, 179328, Note_on_c, 11, 79, 116
12, 179492, Note_on_c, 11, 79, 0
12, 179616, Note_on_c, 11, 60, 116
12, 179670, Note_on_c, 11, 60, 0
12, 179712, Note_on_c, 11, 59, 116
12, 179780, Note_on_c, 11, 59, 0
12, 179808, Note_on_c, 11, 71, 116
12, 179876, Note_on_c, 11, 71, 0
12, 179904, Note_on_c, 11, 62, 116
12, 179972, Note_on_c, 11, 62, 0
12, 180000, Note_on_c, 11, 74, 116
12, 180054, Note_on_c, 11, 74, 0
12, 180096, Note_on_c, 11, 77, 116
12, 180260, Note_on_c, 11, 77, 0
12, 180384, Note_on_c, 11, 71, 116
12, 180438, Note_on_c, 11, 71, 0
12, 180480, Note_on_c, 11, 72, 116
12, 180548, Note_on_c, 11, 72, 0
12, 180576, Note_on_c, 11, 60, 116
12, 180644, Note_on_c, 11, 60, 0
12, 180672, Note_on_c, 11, 76, 116
12, 180740, Note_on_c, 11, 76, 0
12, 180768, Note_on_c, 11, 64, 116
12, 180822, Note_on_c, 11, 64, 0
12, 180864, Note_on_c, 11, 79, 116
12, 181028, Note_on_c, 11, 79, 0
12, 181152, Note_on_c, 11, 60, 116
12, 181206, Note_on_c, 11, 60, 0
12, 181248, Note_on_c, 11, 59, 116
12, 181316, Note_on_c, 11, 59, 0
12, 181344, Note_on_c, 11, 71, 116
12, 181412, Note_on_c, 11, 71, 0
12, 181440, Note_on_c, 11, 62, 116
12, 181508, Note_on_c, 11, 62, 0
12, 181536, Note_on_c, 11, 74, 116
12, 181604, Note_on_c, 11, 74, 0
12, 181632, Note_on_c, 11, 65, 116
12, 181700, Note_on_c, 11, 65, 0
12, 181728, Note_on_c, 11, 77, 116
12, 181796, Note_on_c, 11, 77, 0
12, 181824, Note_on_c, 11, 71, 116
12, 181892, Note_on_c, 11, 71, 0
12, 181920, Note_on_c, 11, 83, 116
12, 181974, Note_on_c, 11, 83, 0
12, 186624, Note_on_c, 11, 65, 103
12, 186636, Note_on_c, 11, 72, 103
12, 186648, Note_on_c, 11, 81, 103
12, 186732, Note_on_c, 11, 81, 0
12, 186732, Note_on_c, 11, 72, 0
12, 186732, Note_on_c, 11, 65, 0
12, 186816, Note_on_c, 11, 81, 103
12, 186816, Note_on_c, 11, 72, 103
12, 186888, Note_on_c, 11, 72, 0
12, 186888, Note_on_c, 11, 81, 0
12, 186960, Note_on_c, 11, 72, 103
12, 186960, Note_on_c, 11, 81, 103
12, 186994, Note_on_c, 11, 81, 0
12, 186994, Note_on_c, 11, 72, 0
12, 187008, Note_on_c, 11, 72, 103
12, 187008, Note_on_c, 11, 81, 103
12, 187110, Note_on_c, 11, 81, 0
12, 187110, Note_on_c, 11, 72, 0
12, 187200, Note_on_c, 11, 72, 103
12, 187200, Note_on_c, 11, 81, 103
12, 187302, Note_on_c, 11, 81, 0
12, 187302, Note_on_c, 11, 72, 0
12, 187392, Note_on_c, 11, 84, 116
12, 187396, Control_c, 11, 11, 119
12, 187413, Control_c, 11, 11, 121
12, 187422, Control_c, 11, 11, 126
12, 187426, Control_c, 11, 11, 127
12, 187466, Control_c, 11, 11, 126
12, 187474, Control_c, 11, 11, 124
12, 187488, Control_c, 11, 11, 123
12, 187492, Control_c, 11, 11, 122
12, 187501, Control_c, 11, 11, 119
12, 187505, Control_c, 11, 11, 117
12, 187514, Control_c, 11, 11, 116
12, 187527, Control_c, 11, 11, 114
12, 187531, Control_c, 11, 11, 113
12, 187540, Control_c, 11, 11, 111
12, 187544, Control_c, 11, 11, 110
12, 187553, Control_c, 11, 11, 108
12, 187557, Control_c, 11, 11, 107
12, 187566, Control_c, 11, 11, 105
12, 187952, Note_on_c, 11, 84, 0
12, 188160, Control_c, 11, 11, 127
12, 188160, Note_on_c, 11, 65, 49
12, 188172, Note_on_c, 11, 72, 49
12, 188184, Note_on_c, 11, 80, 49
12, 188262, Note_on_c, 11, 80, 0
12, 188262, Note_on_c, 11, 72, 0
12, 188262, Note_on_c, 11, 65, 0
12, 188352, Note_on_c, 11, 80, 49
12, 188352, Note_on_c, 11, 72, 49
12, 188422, Note_on_c, 11, 72, 0
12, 188422, Note_on_c, 11, 80, 0
12, 188496, Note_on_c, 11, 80, 49
12, 188496, Note_on_c, 11, 72, 49
12, 188530, Note_on_c, 11, 72, 0
12, 188530, Note_on_c, 11, 80, 0
12, 188544, Note_on_c, 11, 80, 49
12, 188544, Note_on_c, 11, 72, 49
12, 188634, Note_on_c, 11, 72, 0
12, 188634, Note_on_c, 11, 80, 0
12, 188736, Note_on_c, 11, 80, 49
12, 188736, Note_on_c, 11, 72, 49
12, 188828, Note_on_c, 11, 72, 0
12, 188828, Note_on_c, 11, 80, 0
12, 188927, Control_c, 11, 11, 125
12, 188928, Note_on_c, 11, 84, 53
12, 188933, Control_c, 11, 11, 123
12, 188944, Control_c, 11, 11, 124
12, 188960, Control_c, 11, 11, 127
12, 188977, Control_c, 11, 11, 127
12, 188988, Control_c, 11, 11, 126
12, 188993, Control_c, 11, 11, 125
12, 189004, Control_c, 11, 11, 122
12, 189010, Control_c, 11, 11, 120
12, 189021, Control_c, 11, 11, 117
12, 189037, Control_c, 11, 11, 116
12, 189043, Control_c, 11, 11, 114
12, 189054, Control_c, 11, 11, 113
12, 189059, Control_c, 11, 11, 111
12, 189070, Control_c, 11, 11, 110
12, 189076, Control_c, 11, 11, 107
12, 189092, Control_c, 11, 11, 105
12, 189120, Control_c, 11, 11, 104
12, 189125, Control_c, 11, 11, 102
12, 189141, Control_c, 11, 11, 101
12, 189169, Control_c, 11, 11, 99
12, 189432, Note_on_c, 11, 84, 0
12, 189476, Control_c, 11, 11, 126
12, 189696, Note_on_c, 11, 84, 103
12, 189742, Note_on_c, 11, 84, 0
12, 189744, Note_on_c, 11, 84, 103
12, 189790, Note_on_c, 11, 84, 0
12, 189792, Note_on_c, 11, 84, 103
12, 189838, Note_on_c, 11, 84, 0
12, 189840, Note_on_c, 11, 84, 103
12, 189886, Note_on_c, 11, 84, 0
12, 189888, Note_on_c, 11, 84, 103
12, 189934, Note_on_c, 11, 84, 0
12, 189936, Note_on_c, 11, 84, 103
12, 189982, Note_on_c, 11, 84, 0
12, 189984, Note_on_c, 11, 84, 103
12, 190030, Note_on_c, 11, 84, 0
12, 190032, Note_on_c, 11, 84, 103
12, 190078, Note_on_c, 11, 84, 0
12, 190080, Note_on_c, 11, 84, 103
12, 190126, Note_on_c, 11, 84, 0
12, 190128, Note_on_c, 11, 84, 103
12, 190174, Note_on_c, 11, 84, 0
12, 190176, Note_on_c, 11, 84, 103
12, 190222, Note_on_c, 11, 84, 0
12, 190224, Note_on_c, 11, 84, 103
12, 190270, Note_on_c, 11, 84, 0
12, 190272, Note_on_c, 11, 84, 103
12, 190318, Note_on_c, 11, 84, 0
12, 190320, Note_on_c, 11, 84, 103
12, 190366, Note_on_c, 11, 84, 0
12, 190368, Note_on_c, 11, 84, 103
12, 190414, Note_on_c, 11, 84, 0
12, 190416, Note_on_c, 11, 84, 103
12, 190462, Note_on_c, 11, 84, 0
12, 190464, Note_on_c, 11, 76, 103
12, 190464, Note_on_c, 11, 84, 103
12, 190510, Note_on_c, 11, 84, 0
12, 190510, Note_on_c, 11, 76, 0
12, 190512, Note_on_c, 11, 84, 103
12, 190512, Note_on_c, 11, 76, 103
12, 190558, Note_on_c, 11, 76, 0
12, 190558, Note_on_c, 11, 84, 0
12, 190560, Note_on_c, 11, 84, 103
12, 190560, Note_on_c, 11, 76, 103
12, 190606, Note_on_c, 11, 76, 0
12, 190606, Note_on_c, 11, 84, 0
12, 190608, Note_on_c, 11, 84, 103
12, 190608, Note_on_c, 11, 76, 103
12, 190654, Note_on_c, 11, 76, 0
12, 190654, Note_on_c, 11, 84, 0
12, 190656, Note_on_c, 11, 76, 103
12, 190656, Note_on_c, 11, 84, 103
12, 190702, Note_on_c, 11, 84, 0
12, 190702, Note_on_c, 11, 76, 0
12, 190704, Note_on_c, 11, 76, 103
12, 190704, Note_on_c, 11, 84, 103
12, 190750, Note_on_c, 11, 84, 0
12, 190750, Note_on_c, 11, 76, 0
12, 190752, Note_on_c, 11, 76, 103
12, 190752, Note_on_c, 11, 84, 103
12, 190798, Note_on_c, 11, 84, 0
12, 190798, Note_on_c, 11, 76, 0
12, 190800, Note_on_c, 11, 84, 103
12, 190800, Note_on_c, 11, 76, 103
12, 190846, Note_on_c, 11, 76, 0
12, 190846, Note_on_c, 11, 84, 0
12, 190848, Note_on_c, 11, 83, 103
12, 190848, Note_on_c, 11, 74, 103
12, 190894, Note_on_c, 11, 74, 0
12, 190894, Note_on_c, 11, 83, 0
12, 190896, Note_on_c, 11, 83, 103
12, 190896, Note_on_c, 11, 74, 103
12, 190942, Note_on_c, 11, 74, 0
12, 190942, Note_on_c, 11, 83, 0
12, 190944, Note_on_c, 11, 83, 103
12, 190944, Note_on_c, 11, 74, 103
12, 190990, Note_on_c, 11, 74, 0
12, 190990, Note_on_c, 11, 83, 0
12, 190992, Note_on_c, 11, 83, 103
12, 190992, Note_on_c, 11, 74, 103
12, 191038, Note_on_c, 11, 74, 0
12, 191038, Note_on_c, 11, 83, 0
12, 191040, Note_on_c, 11, 74, 103
12, 191040, Note_on_c, 11, 83, 103
12, 191086, Note_on_c, 11, 83, 0
12, 191086, Note_on_c, 11, 74, 0
12, 191088, Note_on_c, 11, 74, 103
12, 191088, Note_on_c, 11, 83, 103
12, 191134, Note_on_c, 11, 83, 0
12, 191134, Note_on_c, 11, 74, 0
12, 191136, Note_on_c, 11, 74, 103
12, 191136, Note_on_c, 11, 83, 103
12, 191182, Note_on_c, 11, 83, 0
12, 191182, Note_on_c, 11, 74, 0
12, 191184, Note_on_c, 11, 83, 103
12, 191184, Note_on_c, 11, 74, 103
12, 191230, Note_on_c, 11, 74, 0
12, 191230, Note_on_c, 11, 83, 0
12, 191232, Note_on_c, 11, 84, 103
12, 191278, Note_on_c, 11, 84, 0
12, 191280, Note_on_c, 11, 84, 103
12, 191326, Note_on_c, 11, 84, 0
12, 191328, Note_on_c, 11, 79, 103
12, 191374, Note_on_c, 11, 79, 0
12, 191376, Note_on_c, 11, 79, 103
12, 191422, Note_on_c, 11, 79, 0
12, 191424, Note_on_c, 11, 76, 103
12, 191470, Note_on_c, 11, 76, 0
12, 191472, Note_on_c, 11, 76, 103
12, 191518, Note_on_c, 11, 76, 0
12, 191520, Note_on_c, 11, 72, 103
12, 191566, Note_on_c, 11, 72, 0
12, 191568, Note_on_c, 11, 72, 103
12, 191614, Note_on_c, 11, 72, 0
12, 191616, Note_on_c, 11, 77, 103
12, 191662, Note_on_c, 11, 77, 0
12, 191664, Note_on_c, 11, 77, 103
12, 191710, Note_on_c, 11, 77, 0
12, 191712, Note_on_c, 11, 74, 103
12, 191758, Note_on_c, 11, 74, 0
12, 191760, Note_on_c, 11, 74, 103
12, 191806, Note_on_c, 11, 74, 0
12, 191808, Note_on_c, 11, 71, 103
12, 191854, Note_on_c, 11, 71, 0
12, 191856, Note_on_c, 11, 71, 103
12, 191902, Note_on_c, 11, 71, 0
12, 191904, Note_on_c, 11, 67, 103
12, 191950, Note_on_c, 11, 67, 0
12, 191952, Note_on_c, 11, 67, 103
12, 191990, Note_on_c, 11, 67, 0
12, 192000, Note_on_c, 11, 72, 103
12, 192046, Note_on_c, 11, 72, 0
12, 192048, Note_on_c, 11, 72, 103
12, 192094, Note_on_c, 11, 72, 0
12, 192096, Note_on_c, 11, 76, 103
12, 192142, Note_on_c, 11, 76, 0
12, 192144, Note_on_c, 11, 76, 103
12, 192190, Note_on_c, 11, 76, 0
12, 192192, Note_on_c, 11, 79, 103
12, 192238, Note_on_c, 11, 79, 0
12, 192240, Note_on_c, 11, 79, 103
12, 192286, Note_on_c, 11, 79, 0
12, 192288, Note_on_c, 11, 76, 103
12, 192334, Note_on_c, 11, 76, 0
12, 192336, Note_on_c, 11, 76, 103
12, 192382, Note_on_c, 11, 76, 0
12, 192384, Note_on_c, 11, 77, 103
12, 192430, Note_on_c, 11, 77, 0
12, 192432, Note_on_c, 11, 77, 103
12, 192478, Note_on_c, 11, 77, 0
12, 192480, Note_on_c, 11, 74, 103
12, 192526, Note_on_c, 11, 74, 0
12, 192528, Note_on_c, 11, 74, 103
12, 192574, Note_on_c, 11, 74, 0
12, 192576, Note_on_c, 11, 83, 103
12, 192622, Note_on_c, 11, 83, 0
12, 192624, Note_on_c, 11, 83, 103
12, 192670, Note_on_c, 11, 83, 0
12, 192672, Note_on_c, 11, 79, 103
12, 192718, Note_on_c, 11, 79, 0
12, 192720, Note_on_c, 11, 79, 103
12, 192758, Note_on_c, 11, 79, 0
12, 192768, Note_on_c, 11, 84, 103
12, 192814, Note_on_c, 11, 84, 0
12, 192816, Note_on_c, 11, 84, 103
12, 192862, Note_on_c, 11, 84, 0
12, 192864, Note_on_c, 11, 79, 103
12, 192910, Note_on_c, 11, 79, 0
12, 192912, Note_on_c, 11, 79, 103
12, 192958, Note_on_c, 11, 79, 0
12, 192960, Note_on_c, 11, 76, 103
12, 193006, Note_on_c, 11, 76, 0
12, 193008, Note_on_c, 11, 76, 103
12, 193054, Note_on_c, 11, 76, 0
12, 193056, Note_on_c, 11, 72, 103
12, 193102, Note_on_c, 11, 72, 0
12, 193104, Note_on_c, 11, 72, 103
12, 193150, Note_on_c, 11, 72, 0
12, 193152, Note_on_c, 11, 77, 103
12, 193198, Note_on_c, 11, 77, 0
12, 193200, Note_on_c, 11, 77, 103
12, 193246, Note_on_c, 11, 77, 0
12, 193248, Note_on_c, 11, 74, 103
12, 193294, Note_on_c, 11, 74, 0
12, 193296, Note_on_c, 11, 74, 103
12, 193342, Note_on_c, 11, 74, 0
12, 193344, Note_on_c, 11, 71, 103
12, 193390, Note_on_c, 11, 71, 0
12, 193392, Note_on_c, 11, 71, 103
12, 193438, Note_on_c, 11, 71, 0
12, 193440, Note_on_c, 11, 67, 103
12, 193486, Note_on_c, 11, 67, 0
12, 193488, Note_on_c, 11, 67, 103
12, 193526, Note_on_c, 11, 67, 0
12, 193536, Note_on_c, 11, 72, 103
12, 193582, Note_on_c, 11, 72, 0
12, 193584, Note_on_c, 11, 72, 103
12, 193630, Note_on_c, 11, 72, 0
12, 193632, Note_on_c, 11, 76, 103
12, 193678, Note_on_c, 11, 76, 0
12, 193680, Note_on_c, 11, 76, 103
12, 193726, Note_on_c, 11, 76, 0
12, 193728, Note_on_c, 11, 79, 103
12, 193774, Note_on_c, 11, 79, 0
12, 193776, Note_on_c, 11, 79, 103
12, 193822, Note_on_c, 11, 79, 0
12, 193824, Note_on_c, 11, 76, 103
12, 193870, Note_on_c, 11, 76, 0
12, 193872, Note_on_c, 11, 76, 103
12, 193918, Note_on_c, 11, 76, 0
12, 193920, Note_on_c, 11, 77, 103
12, 193966, Note_on_c, 11, 77, 0
12, 193968, Note_on_c, 11, 77, 103
12, 194014, Note_on_c, 11, 77, 0
12, 194016, Note_on_c, 11, 74, 103
12, 194062, Note_on_c, 11, 74, 0
12, 194064, Note_on_c, 11, 74, 103
12, 194110, Note_on_c, 11, 74, 0
12, 194112, Note_on_c, 11, 83, 103
12, 194158, Note_on_c, 11, 83, 0
12, 194160, Note_on_c, 11, 83, 103
12, 194206, Note_on_c, 11, 83, 0
12, 194208, Note_on_c, 11, 79, 103
12, 194254, Note_on_c, 11, 79, 0
12, 194256, Note_on_c, 11, 79, 103
12, 194294, Note_on_c, 11, 79, 0
12, 194304, Note_on_c, 11, 84, 116
12, 194468, Note_on_c, 11, 84, 0
12, 194640, Note_on_c, 11, 55, 116
12, 194656, Note_on_c, 11, 55, 0
12, 194656, Note_on_c, 11, 57, 116
12, 194672, Note_on_c, 11, 57, 0
12, 194672, Note_on_c, 11, 59, 116
12, 194688, Note_on_c, 11, 59, 0
12, 194688, Note_on_c, 11, 60, 116
12, 194778, Note_on_c, 11, 60, 0
12, 194832, Note_on_c, 11, 60, 116
12, 194868, Note_on_c, 11, 60, 0
12, 194880, Note_on_c, 11, 64, 116
12, 194970, Note_on_c, 11, 64, 0
12, 195024, Note_on_c, 11, 64, 116
12, 195060, Note_on_c, 11, 64, 0
12, 195072, Note_on_c, 11, 67, 116
12, 195206, Note_on_c, 11, 67, 0
12, 195408, Note_on_c, 11, 60, 116
12, 195432, Note_on_c, 11, 60, 0
12, 195432, Note_on_c, 11, 62, 116
12, 195456, Note_on_c, 11, 62, 0
12, 195456, Note_on_c, 11, 64, 116
12, 195546, Note_on_c, 11, 64, 0
12, 195600, Note_on_c, 11, 64, 116
12, 195636, Note_on_c, 11, 64, 0
12, 195648, Note_on_c, 11, 67, 116
12, 195738, Note_on_c, 11, 67, 0
12, 195792, Note_on_c, 11, 67, 116
12, 195828, Note_on_c, 11, 67, 0
12, 195840, Note_on_c, 11, 72, 116
12, 195974, Note_on_c, 11, 72, 0
12, 196176, Note_on_c, 11, 64, 116
12, 196200, Note_on_c, 11, 64, 0
12, 196200, Note_on_c, 11, 65, 116
12, 196224, Note_on_c, 11, 65, 0
12, 196224, Note_on_c, 11, 67, 116
12, 196314, Note_on_c, 11, 67, 0
12, 196368, Note_on_c, 11, 67, 116
12, 196404, Note_on_c, 11, 67, 0
12, 196416, Note_on_c, 11, 72, 116
12, 196506, Note_on_c, 11, 72, 0
12, 196560, Note_on_c, 11, 72, 116
12, 196596, Note_on_c, 11, 72, 0
12, 196608, Note_on_c, 11, 76, 116
12, 196742, Note_on_c, 11, 76, 0
12, 196944, Note_on_c, 11, 67, 116
12, 196960, Note_on_c, 11, 67, 0
12, 196960, Note_on_c, 11, 69, 116
12, 196976, Note_on_c, 11, 69, 0
12, 196976, Note_on_c, 11, 71, 116
12, 196992, Note_on_c, 11, 71, 0
12, 196992, Note_on_c, 11, 72, 116
12, 197082, Note_on_c, 11, 72, 0
12, 197136, Note_on_c, 11, 72, 116
12, 197172, Note_on_c, 11, 72, 0
12, 197184, Note_on_c, 11, 76, 116
12, 197274, Note_on_c, 11, 76, 0
12, 197328, Note_on_c, 11, 76, 116
12, 197364, Note_on_c, 11, 76, 0
12, 197376, Note_on_c, 11, 79, 116
12, 197422, Note_on_c, 11, 79, 0
12, 197424, Note_on_c, 11, 76, 103
12, 197470, Note_on_c, 11, 76, 0
12, 197472, Note_on_c, 11, 76, 103
12, 197518, Note_on_c, 11, 76, 0
12, 197520, Note_on_c, 11, 76, 103
12, 197566, Note_on_c, 11, 76, 0
12, 197568, Note_on_c, 11, 76, 103
12, 197614, Note_on_c, 11, 76, 0
12, 197616, Note_on_c, 11, 76, 103
12, 197662, Note_on_c, 11, 76, 0
12, 197664, Note_on_c, 11, 76, 103
12, 197710, Note_on_c, 11, 76, 0
12, 197712, Note_on_c, 11, 76, 103
12, 197758, Note_on_c, 11, 76, 0
12, 197760, Note_on_c, 11, 76, 103
12, 197806, Note_on_c, 11, 76, 0
12, 197808, Note_on_c, 11, 76, 103
12, 197854, Note_on_c, 11, 76, 0
12, 197856, Note_on_c, 11, 76, 103
12, 197902, Note_on_c, 11, 76, 0
12, 197904, Note_on_c, 11, 76, 103
12, 197950, Note_on_c, 11, 76, 0
12, 197952, Note_on_c, 11, 76, 103
12, 197998, Note_on_c, 11, 76, 0
12, 198000, Note_on_c, 11, 76, 103
12, 198046, Note_on_c, 11, 76, 0
12, 198048, Note_on_c, 11, 76, 103
12, 198094, Note_on_c, 11, 76, 0
12, 198096, Note_on_c, 11, 76, 103
12, 198142, Note_on_c, 11, 76, 0
12, 198144, Note_on_c, 11, 76, 103
12, 198190, Note_on_c, 11, 76, 0
12, 198192, Note_on_c, 11, 76, 103
12, 198238, Note_on_c, 11, 76, 0
12, 198240, Note_on_c, 11, 76, 103
12, 198286, Note_on_c, 11, 76, 0
12, 198288, Note_on_c, 11, 76, 103
12, 198334, Note_on_c, 11, 76, 0
12, 198336, Note_on_c, 11, 76, 103
12, 198382, Note_on_c, 11, 76, 0
12, 198384, Note_on_c, 11, 76, 103
12, 198430, Note_on_c, 11, 76, 0
12, 198432, Note_on_c, 11, 76, 103
12, 198478, Note_on_c, 11, 76, 0
12, 198480, Note_on_c, 11, 76, 103
12, 198526, Note_on_c, 11, 76, 0
12, 198528, Note_on_c, 11, 76, 103
12, 198574, Note_on_c, 11, 76, 0
12, 198576, Note_on_c, 11, 76, 103
12, 198622, Note_on_c, 11, 76, 0
12, 198624, Note_on_c, 11, 76, 103
12, 198670, Note_on_c, 11, 76, 0
12, 198672, Note_on_c, 11, 76, 103
12, 198718, Note_on_c, 11, 76, 0
12, 198720, Note_on_c, 11, 76, 103
12, 198766, Note_on_c, 11, 76, 0
12, 198768, Note_on_c, 11, 76, 103
12, 198814, Note_on_c, 11, 76, 0
12, 198816, Note_on_c, 11, 76, 103
12, 198862, Note_on_c, 11, 76, 0
12, 198864, Note_on_c, 11, 76, 103
12, 198910, Note_on_c, 11, 76, 0
12, 198912, Note_on_c, 11, 79, 103
12, 198912, Note_on_c, 11, 72, 103
12, 198958, Note_on_c, 11, 72, 0
12, 198958, Note_on_c, 11, 79, 0
12, 198960, Note_on_c, 11, 79, 103
12, 198960, Note_on_c, 11, 72, 103
12, 199006, Note_on_c, 11, 72, 0
12, 199006, Note_on_c, 11, 79, 0
12, 199008, Note_on_c, 11, 72, 103
12, 199008, Note_on_c, 11, 79, 103
12, 199054, Note_on_c, 11, 79, 0
12, 199054, Note_on_c, 11, 72, 0
12, 199056, Note_on_c, 11, 72, 103
12, 199056, Note_on_c, 11, 79, 103
12, 199102, Note_on_c, 11, 79, 0
12, 199102, Note_on_c, 11, 72, 0
12, 199104, Note_on_c, 11, 72, 103
12, 199104, Note_on_c, 11, 79, 103
12, 199150, Note_on_c, 11, 79, 0
12, 199150, Note_on_c, 11, 72, 0
12, 199152, Note_on_c, 11, 79, 103
12, 199152, Note_on_c, 11, 72, 103
12, 199198, Note_on_c, 11, 72, 0
12, 199198, Note_on_c, 11, 79, 0
12, 199200, Note_on_c, 11, 72, 103
12, 199200, Note_on_c, 11, 79, 103
12, 199246, Note_on_c, 11, 79, 0
12, 199246, Note_on_c, 11, 72, 0
12, 199248, Note_on_c, 11, 79, 103
12, 199248, Note_on_c, 11, 72, 103
12, 199294, Note_on_c, 11, 72, 0
12, 199294, Note_on_c, 11, 79, 0
12, 199296, Note_on_c, 11, 72, 103
12, 199296, Note_on_c, 11, 79, 103
12, 199342, Note_on_c, 11, 79, 0
12, 199342, Note_on_c, 11, 72, 0
12, 199344, Note_on_c, 11, 72, 103
12, 199344, Note_on_c, 11, 79, 103
12, 199390, Note_on_c, 11, 79, 0
12, 199390, Note_on_c, 11, 72, 0
12, 199392, Note_on_c, 11, 72, 103
12, 199392, Note_on_c, 11, 79, 103
12, 199438, Note_on_c, 11, 79, 0
12, 199438, Note_on_c, 11, 72, 0
12, 199440, Note_on_c, 11, 72, 103
12, 199440, Note_on_c, 11, 79, 103
12, 199486, Note_on_c, 11, 79, 0
12, 199486, Note_on_c, 11, 72, 0
12, 199488, Note_on_c, 11, 79, 103
12, 199488, Note_on_c, 11, 72, 103
12, 199534, Note_on_c, 11, 72, 0
12, 199534, Note_on_c, 11, 79, 0
12, 199536, Note_on_c, 11, 72, 103
12, 199536, Note_on_c, 11, 79, 103
12, 199582, Note_on_c, 11, 79, 0
12, 199582, Note_on_c, 11, 72, 0
12, 199584, Note_on_c, 11, 79, 103
12, 199584, Note_on_c, 11, 72, 103
12, 199630, Note_on_c, 11, 72, 0
12, 199630, Note_on_c, 11, 79, 0
12, 199632, Note_on_c, 11, 79, 103
12, 199632, Note_on_c, 11, 72, 103
12, 199678, Note_on_c, 11, 72, 0
12, 199678, Note_on_c, 11, 79, 0
12, 199680, Note_on_c, 11, 79, 103
12, 199680, Note_on_c, 11, 72, 103
12, 199726, Note_on_c, 11, 72, 0
12, 199726, Note_on_c, 11, 79, 0
12, 199728, Note_on_c, 11, 72, 103
12, 199728, Note_on_c, 11, 79, 103
12, 199774, Note_on_c, 11, 79, 0
12, 199774, Note_on_c, 11, 72, 0
12, 199776, Note_on_c, 11, 72, 103
12, 199776, Note_on_c, 11, 79, 103
12, 199822, Note_on_c, 11, 79, 0
12, 199822, Note_on_c, 11, 72, 0
12, 199824, Note_on_c, 11, 72, 103
12, 199824, Note_on_c, 11, 79, 103
12, 199870, Note_on_c, 11, 79, 0
12, 199870, Note_on_c, 11, 72, 0
12, 199872, Note_on_c, 11, 79, 103
12, 199872, Note_on_c, 11, 72, 103
12, 199918, Note_on_c, 11, 72, 0
12, 199918, Note_on_c, 11, 79, 0
12, 199920, Note_on_c, 11, 79, 103
12, 199920, Note_on_c, 11, 72, 103
12, 199966, Note_on_c, 11, 72, 0
12, 199966, Note_on_c, 11, 79, 0
12, 199968, Note_on_c, 11, 79, 103
12, 199968, Note_on_c, 11, 72, 103
12, 200014, Note_on_c, 11, 72, 0
12, 200014, Note_on_c, 11, 79, 0
12, 200016, Note_on_c, 11, 79, 103
12, 200016, Note_on_c, 11, 72, 103
12, 200062, Note_on_c, 11, 72, 0
12, 200062, Note_on_c, 11, 79, 0
12, 200064, Note_on_c, 11, 79, 103
12, 200064, Note_on_c, 11, 72, 103
12, 200110, Note_on_c, 11, 72, 0
12, 200110, Note_on_c, 11, 79, 0
12, 200112, Note_on_c, 11, 72, 103
12, 200112, Note_on_c, 11, 79, 103
12, 200158, Note_on_c, 11, 79, 0
12, 200158, Note_on_c, 11, 72, 0
12, 200160, Note_on_c, 11, 72, 103
12, 200160, Note_on_c, 11, 79, 103
12, 200206, Note_on_c, 11, 79, 0
12, 200206, Note_on_c, 11, 72, 0
12, 200208, Note_on_c, 11, 72, 103
12, 200208, Note_on_c, 11, 79, 103
12, 200254, Note_on_c, 11, 79, 0
12, 200254, Note_on_c, 11, 72, 0
12, 200256, Note_on_c, 11, 79, 103
12, 200256, Note_on_c, 11, 72, 103
12, 200302, Note_on_c, 11, 72, 0
12, 200302, Note_on_c, 11, 79, 0
12, 200304, Note_on_c, 11, 72, 103
12, 200304, Note_on_c, 11, 79, 103
12, 200350, Note_on_c, 11, 79, 0
12, 200350, Note_on_c, 11, 72, 0
12, 200352, Note_on_c, 11, 79, 103
12, 200352, Note_on_c, 11, 72, 103
12, 200398, Note_on_c, 11, 72, 0
12, 200398, Note_on_c, 11, 79, 0
12, 200400, Note_on_c, 11, 72, 103
12, 200400, Note_on_c, 11, 79, 103
12, 200446, Note_on_c, 11, 79, 0
12, 200446, Note_on_c, 11, 72, 0
12, 200448, Note_on_c, 11, 76, 116
12, 200448, Note_on_c, 11, 84, 116
12, 200494, Note_on_c, 11, 84, 0
12, 200494, Note_on_c, 11, 76, 0
12, 200496, Note_on_c, 11, 76, 116
12, 200496, Note_on_c, 11, 84, 116
12, 200542, Note_on_c, 11, 84, 0
12, 200542, Note_on_c, 11, 76, 0
12, 200544, Note_on_c, 11, 76, 116
12, 200544, Note_on_c, 11, 84, 116
12, 200590, Note_on_c, 11, 84, 0
12, 200590, Note_on_c, 11, 76, 0
12, 200592, Note_on_c, 11, 84, 116
12, 200592, Note_on_c, 11, 76, 116
12, 200638, Note_on_c, 11, 76, 0
12, 200638, Note_on_c, 11, 84, 0
12, 200640, Note_on_c, 11, 76, 116
12, 200640, Note_on_c, 11, 84, 116
12, 200686, Note_on_c, 11, 84, 0
12, 200686, Note_on_c, 11, 76, 0
12, 200688, Note_on_c, 11, 84, 116
12, 200688, Note_on_c, 11, 76, 116
12, 200734, Note_on_c, 11, 76, 0
12, 200734, Note_on_c, 11, 84, 0
12, 200736, Note_on_c, 11, 84, 116
12, 200736, Note_on_c, 11, 76, 116
12, 200782, Note_on_c, 11, 76, 0
12, 200782, Note_on_c, 11, 84, 0
12, 200784, Note_on_c, 11, 84, 116
12, 200784, Note_on_c, 11, 76, 116
12, 200830, Note_on_c, 11, 76, 0
12, 200830, Note_on_c, 11, 84, 0
12, 200832, Note_on_c, 11, 76, 116
12, 200832, Note_on_c, 11, 84, 116
12, 200878, Note_on_c, 11, 84, 0
12, 200878, Note_on_c, 11, 76, 0
12, 200880, Note_on_c, 11, 76, 116
12, 200880, Note_on_c, 11, 84, 116
12, 200926, Note_on_c, 11, 84, 0
12, 200926, Note_on_c, 11, 76, 0
12, 200928, Note_on_c, 11, 76, 116
12, 200928, Note_on_c, 11, 84, 116
12, 200974, Note_on_c, 11, 84, 0
12, 200974, Note_on_c, 11, 76, 0
12, 200976, Note_on_c, 11, 84, 116
12, 200976, Note_on_c, 11, 76, 116
12, 201022, Note_on_c, 11, 76, 0
12, 201022, Note_on_c, 11, 84, 0
12, 201024, Note_on_c, 11, 84, 116
12, 201024, Note_on_c, 11, 76, 116
12, 201070, Note_on_c, 11, 76, 0
12, 201070, Note_on_c, 11, 84, 0
12, 201072, Note_on_c, 11, 84, 116
12, 201072, Note_on_c, 11, 76, 116
12, 201118, Note_on_c, 11, 76, 0
12, 201118, Note_on_c, 11, 84, 0
12, 201120, Note_on_c, 11, 84, 116
12, 201120, Note_on_c, 11, 76, 116
12, 201166, Note_on_c, 11, 76, 0
12, 201166, Note_on_c, 11, 84, 0
12, 201168, Note_on_c, 11, 84, 116
12, 201168, Note_on_c, 11, 76, 116
12, 201214, Note_on_c, 11, 76, 0
12, 201214, Note_on_c, 11, 84, 0
12, 201216, Note_on_c, 11, 76, 116
12, 201216, Note_on_c, 11, 84, 116
12, 201262, Note_on_c, 11, 84, 0
12, 201262, Note_on_c, 11, 76, 0
12, 201264, Note_on_c, 11, 76, 116
12, 201264, Note_on_c, 11, 84, 116
12, 201310, Note_on_c, 11, 84, 0
12, 201310, Note_on_c, 11, 76, 0
12, 201312, Note_on_c, 11, 76, 116
12, 201312, Note_on_c, 11, 84, 116
12, 201358, Note_on_c, 11, 84, 0
12, 201358, Note_on_c, 11, 76, 0
12, 201360, Note_on_c, 11, 84, 116
12, 201360, Note_on_c, 11, 76, 116
12, 201406, Note_on_c, 11, 76, 0
12, 201406, Note_on_c, 11, 84, 0
12, 201408, Note_on_c, 11, 76, 116
12, 201408, Note_on_c, 11, 84, 116
12, 201454, Note_on_c, 11, 84, 0
12, 201454, Note_on_c, 11, 76, 0
12, 201456, Note_on_c, 11, 84, 116
12, 201456, Note_on_c, 11, 76, 116
12, 201502, Note_on_c, 11, 76, 0
12, 201502, Note_on_c, 11, 84, 0
12, 201504, Note_on_c, 11, 76, 116
12, 201504, Note_on_c, 11, 84, 116
12, 201550, Note_on_c, 11, 84, 0
12, 201550, Note_on_c, 11, 76, 0
12, 201552, Note_on_c, 11, 76, 116
12, 201552, Note_on_c, 11, 84, 116
12, 201598, Note_on_c, 11, 84, 0
12, 201598, Note_on_c, 11, 76, 0
12, 201600, Note_on_c, 11, 76, 116
12, 201600, Note_on_c, 11, 84, 116
12, 201646, Note_on_c, 11, 84, 0
12, 201646, Note_on_c, 11, 76, 0
12, 201648, Note_on_c, 11, 76, 116
12, 201648, Note_on_c, 11, 84, 116
12, 201694, Note_on_c, 11, 84, 0
12, 201694, Note_on_c, 11, 76, 0
12, 201696, Note_on_c, 11, 84, 116
12, 201696, Note_on_c, 11, 76, 116
12, 201742, Note_on_c, 11, 76, 0
12, 201742, Note_on_c, 11, 84, 0
12, 201744, Note_on_c, 11, 76, 116
12, 201744, Note_on_c, 11, 84, 116
12, 201790, Note_on_c, 11, 84, 0
12, 201790, Note_on_c, 11, 76, 0
12, 201792, Note_on_c, 11, 84, 116
12, 201792, Note_on_c, 11, 76, 116
12, 201838, Note_on_c, 11, 76, 0
12, 201838, Note_on_c, 11, 84, 0
12, 201840, Note_on_c, 11, 84, 116
12, 201840, Note_on_c, 11, 76, 116
12, 201886, Note_on_c, 11, 76, 0
12, 201886, Note_on_c, 11, 84, 0
12, 201888, Note_on_c, 11, 84, 116
12, 201888, Note_on_c, 11, 76, 116
12, 201934, Note_on_c, 11, 76, 0
12, 201934, Note_on_c, 11, 84, 0
12, 201936, Note_on_c, 11, 76, 116
12, 201936, Note_on_c, 11, 84, 116
12, 201974, Note_on_c, 11, 84, 0
12, 201974, Note_on_c, 11, 76, 0
12, 201984, Note_on_c, 11, 76, 116
12, 201984, Note_on_c, 11, 84, 116
12, 202296, Note_on_c, 11, 84, 0
12, 202296, Note_on_c, 11, 76, 0
12, 204864, Control_c, 11, 121, 0
12, 204864, End_track
13, 0, Start_track
13, 0, MIDI_port, 0
13, 0, Title_t, "Violin 2"
13, 0, Program_c, 12, 48
13, 0, Control_c, 12, 7, 115
13, 0, Control_c, 12, 10, 90
13, 0, Text_t, ""
13, 96, Control_c, 12, 121, 0
13, 192, Control_c, 12, 91, 54
13, 288, Control_c, 12, 93, 6
13, 5388, Note_on_c, 12, 77, 103
13, 5480, Note_on_c, 12, 77, 0
13, 5568, Note_on_c, 12, 77, 103
13, 5646, Note_on_c, 12, 77, 0
13, 5715, Note_on_c, 12, 77, 103
13, 5755, Note_on_c, 12, 77, 0
13, 5760, Note_on_c, 12, 77, 103
13, 5852, Note_on_c, 12, 77, 0
13, 5952, Note_on_c, 12, 77, 103
13, 6043, Note_on_c, 12, 77, 0
13, 6144, Note_on_c, 12, 81, 103
13, 6147, Control_c, 12, 11, 124
13, 6173, Control_c, 12, 11, 127
13, 6225, Control_c, 12, 11, 123
13, 6243, Control_c, 12, 11, 120
13, 6252, Control_c, 12, 11, 118
13, 6269, Control_c, 12, 11, 117
13, 6278, Control_c, 12, 11, 115
13, 6295, Control_c, 12, 11, 112
13, 6304, Control_c, 12, 11, 111
13, 6321, Control_c, 12, 11, 108
13, 6348, Control_c, 12, 11, 106
13, 6356, Control_c, 12, 11, 105
13, 6461, Control_c, 12, 11, 99
13, 6598, Note_on_c, 12, 81, 0
13, 6705, Control_c, 12, 11, 127
13, 6720, Note_on_c, 12, 77, 103
13, 6844, Note_on_c, 12, 77, 0
13, 6912, Note_on_c, 12, 76, 103
13, 6958, Note_on_c, 12, 76, 0
13, 6960, Note_on_c, 12, 76, 103
13, 7006, Note_on_c, 12, 76, 0
13, 7008, Note_on_c, 12, 76, 103
13, 7054, Note_on_c, 12, 76, 0
13, 7056, Note_on_c, 12, 76, 103
13, 7102, Note_on_c, 12, 76, 0
13, 7104, Note_on_c, 12, 74, 103
13, 7150, Note_on_c, 12, 74, 0
13, 7152, Note_on_c, 12, 74, 103
13, 7198, Note_on_c, 12, 74, 0
13, 7200, Note_on_c, 12, 74, 103
13, 7246, Note_on_c, 12, 74, 0
13, 7248, Note_on_c, 12, 74, 103
13, 7294, Note_on_c, 12, 74, 0
13, 7296, Note_on_c, 12, 72, 103
13, 7342, Note_on_c, 12, 72, 0
13, 7344, Note_on_c, 12, 72, 103
13, 7390, Note_on_c, 12, 72, 0
13, 7392, Note_on_c, 12, 72, 103
13, 7438, Note_on_c, 12, 72, 0
13, 7440, Note_on_c, 12, 72, 103
13, 7486, Note_on_c, 12, 72, 0
13, 7488, Note_on_c, 12, 71, 103
13, 7534, Note_on_c, 12, 71, 0
13, 7536, Note_on_c, 12, 71, 103
13, 7582, Note_on_c, 12, 71, 0
13, 7584, Note_on_c, 12, 71, 103
13, 7630, Note_on_c, 12, 71, 0
13, 7632, Note_on_c, 12, 71, 103
13, 7668, Note_on_c, 12, 71, 0
13, 8460, Note_on_c, 12, 77, 103
13, 8550, Note_on_c, 12, 77, 0
13, 8640, Note_on_c, 12, 77, 103
13, 8708, Note_on_c, 12, 77, 0
13, 8786, Note_on_c, 12, 77, 103
13, 8826, Note_on_c, 12, 77, 0
13, 8832, Note_on_c, 12, 77, 103
13, 8922, Note_on_c, 12, 77, 0
13, 9024, Note_on_c, 12, 77, 103
13, 9114, Note_on_c, 12, 77, 0
13, 9216, Note_on_c, 12, 81, 103
13, 9219, Control_c, 12, 11, 127
13, 9332, Control_c, 12, 11, 121
13, 9341, Control_c, 12, 11, 120
13, 9359, Control_c, 12, 11, 117
13, 9437, Control_c, 12, 11, 115
13, 9489, Control_c, 12, 11, 114
13, 9524, Control_c, 12, 11, 112
13, 9568, Control_c, 12, 11, 108
13, 9577, Control_c, 12, 11, 105
13, 9594, Control_c, 12, 11, 103
13, 9620, Control_c, 12, 11, 102
13, 9629, Control_c, 12, 11, 100
13, 9752, Note_on_c, 12, 81, 0
13, 9984, Control_c, 12, 11, 127
13, 9996, Note_on_c, 12, 77, 44
13, 10086, Note_on_c, 12, 77, 0
13, 10176, Note_on_c, 12, 77, 44
13, 10246, Note_on_c, 12, 77, 0
13, 10322, Note_on_c, 12, 77, 44
13, 10362, Note_on_c, 12, 77, 0
13, 10368, Note_on_c, 12, 77, 44
13, 10464, Note_on_c, 12, 77, 0
13, 10560, Note_on_c, 12, 77, 44
13, 10656, Note_on_c, 12, 77, 0
13, 10752, Note_on_c, 12, 80, 49
13, 10765, Control_c, 12, 11, 126
13, 10792, Control_c, 12, 11, 127
13, 10809, Control_c, 12, 11, 127
13, 10814, Control_c, 12, 11, 125
13, 10825, Control_c, 12, 11, 119
13, 10831, Control_c, 12, 11, 117
13, 10842, Control_c, 12, 11, 110
13, 10847, Control_c, 12, 11, 107
13, 10875, Control_c, 12, 11, 105
13, 10880, Control_c, 12, 11, 104
13, 10891, Control_c, 12, 11, 102
13, 10897, Control_c, 12, 11, 101
13, 11258, Note_on_c, 12, 80, 0
13, 11328, Note_on_c, 12, 77, 47
13, 11328, Control_c, 12, 11, 127
13, 11396, Note_on_c, 12, 77, 0
13, 11520, Note_on_c, 12, 75, 47
13, 11588, Note_on_c, 12, 75, 0
13, 11712, Note_on_c, 12, 74, 47
13, 11780, Note_on_c, 12, 74, 0
13, 11904, Note_on_c, 12, 72, 47
13, 11972, Note_on_c, 12, 72, 0
13, 12096, Note_on_c, 12, 71, 47
13, 12164, Note_on_c, 12, 71, 0
13, 14592, Note_on_c, 12, 72, 65
13, 14756, Note_on_c, 12, 72, 0
13, 14784, Note_on_c, 12, 76, 65
13, 14948, Note_on_c, 12, 76, 0
13, 14976, Note_on_c, 12, 79, 84
13, 15140, Note_on_c, 12, 79, 0
13, 15168, Note_on_c, 12, 67, 95
13, 15332, Note_on_c, 12, 67, 0
13, 15360, Note_on_c, 12, 64, 86
13, 15406, Note_on_c, 12, 64, 0
13, 15408, Note_on_c, 12, 64, 86
13, 15454, Note_on_c, 12, 64, 0
13, 15456, Note_on_c, 12, 60, 86
13, 15502, Note_on_c, 12, 60, 0
13, 15504, Note_on_c, 12, 60, 86
13, 15550, Note_on_c, 12, 60, 0
13, 15552, Note_on_c, 12, 64, 86
13, 15598, Note_on_c, 12, 64, 0
13, 15600, Note_on_c, 12, 64, 86
13, 15646, Note_on_c, 12, 64, 0
13, 15648, Note_on_c, 12, 67, 86
13, 15694, Note_on_c, 12, 67, 0
13, 15696, Note_on_c, 12, 67, 86
13, 15742, Note_on_c, 12, 67, 0
13, 15744, Note_on_c, 12, 64, 86
13, 15790, Note_on_c, 12, 64, 0
13, 15792, Note_on_c, 12, 64, 86
13, 15838, Note_on_c, 12, 64, 0
13, 15840, Note_on_c, 12, 60, 86
13, 15886, Note_on_c, 12, 60, 0
13, 15888, Note_on_c, 12, 60, 86
13, 15934, Note_on_c, 12, 60, 0
13, 15936, Note_on_c, 12, 64, 86
13, 15982, Note_on_c, 12, 64, 0
13, 15984, Note_on_c, 12, 64, 86
13, 16030, Note_on_c, 12, 64, 0
13, 16032, Note_on_c, 12, 67, 86
13, 16078, Note_on_c, 12, 67, 0
13, 16080, Note_on_c, 12, 67, 86
13, 16126, Note_on_c, 12, 67, 0
13, 16128, Note_on_c, 12, 64, 86
13, 16174, Note_on_c, 12, 64, 0
13, 16176, Note_on_c, 12, 64, 86
13, 16222, Note_on_c, 12, 64, 0
13, 16224, Note_on_c, 12, 60, 86
13, 16270, Note_on_c, 12, 60, 0
13, 16272, Note_on_c, 12, 60, 86
13, 16318, Note_on_c, 12, 60, 0
13, 16320, Note_on_c, 12, 64, 86
13, 16366, Note_on_c, 12, 64, 0
13, 16368, Note_on_c, 12, 64, 86
13, 16414, Note_on_c, 12, 64, 0
13, 16416, Note_on_c, 12, 67, 86
13, 16462, Note_on_c, 12, 67, 0
13, 16464, Note_on_c, 12, 67, 86
13, 16510, Note_on_c, 12, 67, 0
13, 16512, Note_on_c, 12, 64, 86
13, 16558, Note_on_c, 12, 64, 0
13, 16560, Note_on_c, 12, 64, 86
13, 16606, Note_on_c, 12, 64, 0
13, 16608, Note_on_c, 12, 60, 86
13, 16654, Note_on_c, 12, 60, 0
13, 16656, Note_on_c, 12, 60, 86
13, 16702, Note_on_c, 12, 60, 0
13, 16704, Note_on_c, 12, 64, 86
13, 16750, Note_on_c, 12, 64, 0
13, 16752, Note_on_c, 12, 64, 86
13, 16798, Note_on_c, 12, 64, 0
13, 16800, Note_on_c, 12, 67, 86
13, 16846, Note_on_c, 12, 67, 0
13, 16848, Note_on_c, 12, 67, 86
13, 16894, Note_on_c, 12, 67, 0
13, 16896, Note_on_c, 12, 66, 86
13, 16942, Note_on_c, 12, 66, 0
13, 16944, Note_on_c, 12, 66, 86
13, 16990, Note_on_c, 12, 66, 0
13, 16992, Note_on_c, 12, 62, 86
13, 17038, Note_on_c, 12, 62, 0
13, 17040, Note_on_c, 12, 62, 86
13, 17086, Note_on_c, 12, 62, 0
13, 17088, Note_on_c, 12, 66, 86
13, 17134, Note_on_c, 12, 66, 0
13, 17136, Note_on_c, 12, 66, 86
13, 17182, Note_on_c, 12, 66, 0
13, 17184, Note_on_c, 12, 69, 86
13, 17230, Note_on_c, 12, 69, 0
13, 17232, Note_on_c, 12, 69, 86
13, 17278, Note_on_c, 12, 69, 0
13, 17280, Note_on_c, 12, 66, 86
13, 17326, Note_on_c, 12, 66, 0
13, 17328, Note_on_c, 12, 66, 86
13, 17374, Note_on_c, 12, 66, 0
13, 17376, Note_on_c, 12, 62, 86
13, 17422, Note_on_c, 12, 62, 0
13, 17424, Note_on_c, 12, 62, 86
13, 17470, Note_on_c, 12, 62, 0
13, 17472, Note_on_c, 12, 66, 86
13, 17518, Note_on_c, 12, 66, 0
13, 17520, Note_on_c, 12, 66, 86
13, 17566, Note_on_c, 12, 66, 0
13, 17568, Note_on_c, 12, 69, 86
13, 17614, Note_on_c, 12, 69, 0
13, 17616, Note_on_c, 12, 69, 86
13, 17662, Note_on_c, 12, 69, 0
13, 17664, Note_on_c, 12, 66, 86
13, 17710, Note_on_c, 12, 66, 0
13, 17712, Note_on_c, 12, 66, 86
13, 17758, Note_on_c, 12, 66, 0
13, 17760, Note_on_c, 12, 62, 86
13, 17806, Note_on_c, 12, 62, 0
13, 17808, Note_on_c, 12, 62, 86
13, 17854, Note_on_c, 12, 62, 0
13, 17856, Note_on_c, 12, 66, 86
13, 17902, Note_on_c, 12, 66, 0
13, 17904, Note_on_c, 12, 66, 86
13, 17950, Note_on_c, 12, 66, 0
13, 17952, Note_on_c, 12, 69, 86
13, 17998, Note_on_c, 12, 69, 0
13, 18000, Note_on_c, 12, 69, 86
13, 18046, Note_on_c, 12, 69, 0
13, 18048, Note_on_c, 12, 66, 86
13, 18094, Note_on_c, 12, 66, 0
13, 18096, Note_on_c, 12, 66, 86
13, 18142, Note_on_c, 12, 66, 0
13, 18144, Note_on_c, 12, 62, 86
13, 18190, Note_on_c, 12, 62, 0
13, 18192, Note_on_c, 12, 62, 86
13, 18238, Note_on_c, 12, 62, 0
13, 18240, Note_on_c, 12, 66, 86
13, 18286, Note_on_c, 12, 66, 0
13, 18288, Note_on_c, 12, 66, 86
13, 18334, Note_on_c, 12, 66, 0
13, 18336, Note_on_c, 12, 69, 86
13, 18382, Note_on_c, 12, 69, 0
13, 18384, Note_on_c, 12, 69, 86
13, 18430, Note_on_c, 12, 69, 0
13, 18432, Note_on_c, 12, 67, 86
13, 18478, Note_on_c, 12, 67, 0
13, 18480, Note_on_c, 12, 67, 86
13, 18526, Note_on_c, 12, 67, 0
13, 18528, Note_on_c, 12, 62, 86
13, 18574, Note_on_c, 12, 62, 0
13, 18576, Note_on_c, 12, 62, 86
13, 18622, Note_on_c, 12, 62, 0
13, 18624, Note_on_c, 12, 67, 86
13, 18670, Note_on_c, 12, 67, 0
13, 18672, Note_on_c, 12, 67, 86
13, 18718, Note_on_c, 12, 67, 0
13, 18720, Note_on_c, 12, 71, 86
13, 18766, Note_on_c, 12, 71, 0
13, 18768, Note_on_c, 12, 71, 86
13, 18814, Note_on_c, 12, 71, 0
13, 18816, Note_on_c, 12, 67, 86
13, 18862, Note_on_c, 12, 67, 0
13, 18864, Note_on_c, 12, 67, 86
13, 18910, Note_on_c, 12, 67, 0
13, 18912, Note_on_c, 12, 62, 86
13, 18958, Note_on_c, 12, 62, 0
13, 18960, Note_on_c, 12, 62, 86
13, 19006, Note_on_c, 12, 62, 0
13, 19008, Note_on_c, 12, 67, 86
13, 19054, Note_on_c, 12, 67, 0
13, 19056, Note_on_c, 12, 67, 86
13, 19102, Note_on_c, 12, 67, 0
13, 19104, Note_on_c, 12, 71, 86
13, 19150, Note_on_c, 12, 71, 0
13, 19152, Note_on_c, 12, 71, 86
13, 19198, Note_on_c, 12, 71, 0
13, 19200, Note_on_c, 12, 67, 86
13, 19246, Note_on_c, 12, 67, 0
13, 19248, Note_on_c, 12, 67, 86
13, 19294, Note_on_c, 12, 67, 0
13, 19296, Note_on_c, 12, 62, 86
13, 19342, Note_on_c, 12, 62, 0
13, 19344, Note_on_c, 12, 62, 86
13, 19390, Note_on_c, 12, 62, 0
13, 19392, Note_on_c, 12, 67, 86
13, 19438, Note_on_c, 12, 67, 0
13, 19440, Note_on_c, 12, 67, 86
13, 19486, Note_on_c, 12, 67, 0
13, 19488, Note_on_c, 12, 71, 86
13, 19534, Note_on_c, 12, 71, 0
13, 19536, Note_on_c, 12, 71, 86
13, 19582, Note_on_c, 12, 71, 0
13, 19584, Note_on_c, 12, 67, 86
13, 19630, Note_on_c, 12, 67, 0
13, 19632, Note_on_c, 12, 67, 86
13, 19678, Note_on_c, 12, 67, 0
13, 19680, Note_on_c, 12, 62, 86
13, 19726, Note_on_c, 12, 62, 0
13, 19728, Note_on_c, 12, 62, 86
13, 19774, Note_on_c, 12, 62, 0
13, 19776, Note_on_c, 12, 67, 86
13, 19822, Note_on_c, 12, 67, 0
13, 19824, Note_on_c, 12, 67, 86
13, 19870, Note_on_c, 12, 67, 0
13, 19872, Note_on_c, 12, 71, 86
13, 19918, Note_on_c, 12, 71, 0
13, 19920, Note_on_c, 12, 71, 86
13, 19966, Note_on_c, 12, 71, 0
13, 19968, Note_on_c, 12, 69, 86
13, 20014, Note_on_c, 12, 69, 0
13, 20016, Note_on_c, 12, 69, 86
13, 20062, Note_on_c, 12, 69, 0
13, 20064, Note_on_c, 12, 62, 86
13, 20110, Note_on_c, 12, 62, 0
13, 20112, Note_on_c, 12, 62, 86
13, 20158, Note_on_c, 12, 62, 0
13, 20160, Note_on_c, 12, 69, 86
13, 20206, Note_on_c, 12, 69, 0
13, 20208, Note_on_c, 12, 69, 86
13, 20254, Note_on_c, 12, 69, 0
13, 20256, Note_on_c, 12, 72, 86
13, 20302, Note_on_c, 12, 72, 0
13, 20304, Note_on_c, 12, 72, 86
13, 20350, Note_on_c, 12, 72, 0
13, 20352, Note_on_c, 12, 69, 86
13, 20398, Note_on_c, 12, 69, 0
13, 20400, Note_on_c, 12, 69, 86
13, 20446, Note_on_c, 12, 69, 0
13, 20448, Note_on_c, 12, 62, 86
13, 20494, Note_on_c, 12, 62, 0
13, 20496, Note_on_c, 12, 62, 86
13, 20542, Note_on_c, 12, 62, 0
13, 20544, Note_on_c, 12, 69, 86
13, 20590, Note_on_c, 12, 69, 0
13, 20592, Note_on_c, 12, 69, 86
13, 20638, Note_on_c, 12, 69, 0
13, 20640, Note_on_c, 12, 72, 86
13, 20686, Note_on_c, 12, 72, 0
13, 20688, Note_on_c, 12, 72, 86
13, 20734, Note_on_c, 12, 72, 0
13, 20736, Note_on_c, 12, 69, 86
13, 20782, Note_on_c, 12, 69, 0
13, 20784, Note_on_c, 12, 69, 86
13, 20830, Note_on_c, 12, 69, 0
13, 20832, Note_on_c, 12, 62, 86
13, 20878, Note_on_c, 12, 62, 0
13, 20880, Note_on_c, 12, 62, 86
13, 20926, Note_on_c, 12, 62, 0
13, 20928, Note_on_c, 12, 69, 86
13, 20974, Note_on_c, 12, 69, 0
13, 20976, Note_on_c, 12, 69, 86
13, 21022, Note_on_c, 12, 69, 0
13, 21024, Note_on_c, 12, 72, 86
13, 21070, Note_on_c, 12, 72, 0
13, 21072, Note_on_c, 12, 72, 86
13, 21118, Note_on_c, 12, 72, 0
13, 21120, Note_on_c, 12, 69, 86
13, 21166, Note_on_c, 12, 69, 0
13, 21168, Note_on_c, 12, 69, 86
13, 21214, Note_on_c, 12, 69, 0
13, 21216, Note_on_c, 12, 62, 86
13, 21262, Note_on_c, 12, 62, 0
13, 21264, Note_on_c, 12, 62, 86
13, 21310, Note_on_c, 12, 62, 0
13, 21312, Note_on_c, 12, 69, 86
13, 21358, Note_on_c, 12, 69, 0
13, 21360, Note_on_c, 12, 69, 86
13, 21406, Note_on_c, 12, 69, 0
13, 21408, Note_on_c, 12, 72, 86
13, 21454, Note_on_c, 12, 72, 0
13, 21456, Note_on_c, 12, 72, 86
13, 21502, Note_on_c, 12, 72, 0
13, 21504, Note_on_c, 12, 67, 86
13, 21550, Note_on_c, 12, 67, 0
13, 21552, Note_on_c, 12, 67, 86
13, 21598, Note_on_c, 12, 67, 0
13, 21600, Note_on_c, 12, 62, 86
13, 21646, Note_on_c, 12, 62, 0
13, 21648, Note_on_c, 12, 62, 86
13, 21694, Note_on_c, 12, 62, 0
13, 21696, Note_on_c, 12, 67, 86
13, 21742, Note_on_c, 12, 67, 0
13, 21744, Note_on_c, 12, 67, 86
13, 21790, Note_on_c, 12, 67, 0
13, 21792, Note_on_c, 12, 70, 86
13, 21838, Note_on_c, 12, 70, 0
13, 21840, Note_on_c, 12, 70, 86
13, 21886, Note_on_c, 12, 70, 0
13, 21888, Note_on_c, 12, 67, 86
13, 21934, Note_on_c, 12, 67, 0
13, 21936, Note_on_c, 12, 67, 86
13, 21982, Note_on_c, 12, 67, 0
13, 21984, Note_on_c, 12, 62, 86
13, 22030, Note_on_c, 12, 62, 0
13, 22032, Note_on_c, 12, 62, 86
13, 22078, Note_on_c, 12, 62, 0
13, 22080, Note_on_c, 12, 67, 86
13, 22126, Note_on_c, 12, 67, 0
13, 22128, Note_on_c, 12, 67, 86
13, 22174, Note_on_c, 12, 67, 0
13, 22176, Note_on_c, 12, 70, 86
13, 22222, Note_on_c, 12, 70, 0
13, 22224, Note_on_c, 12, 70, 86
13, 22270, Note_on_c, 12, 70, 0
13, 22272, Note_on_c, 12, 69, 86
13, 22318, Note_on_c, 12, 69, 0
13, 22320, Note_on_c, 12, 69, 86
13, 22366, Note_on_c, 12, 69, 0
13, 22368, Note_on_c, 12, 62, 86
13, 22414, Note_on_c, 12, 62, 0
13, 22416, Note_on_c, 12, 62, 86
13, 22462, Note_on_c, 12, 62, 0
13, 22464, Note_on_c, 12, 69, 86
13, 22510, Note_on_c, 12, 69, 0
13, 22512, Note_on_c, 12, 69, 86
13, 22558, Note_on_c, 12, 69, 0
13, 22560, Note_on_c, 12, 72, 86
13, 22606, Note_on_c, 12, 72, 0
13, 22608, Note_on_c, 12, 72, 86
13, 22654, Note_on_c, 12, 72, 0
13, 22656, Note_on_c, 12, 69, 86
13, 22702, Note_on_c, 12, 69, 0
13, 22704, Note_on_c, 12, 69, 86
13, 22750, Note_on_c, 12, 69, 0
13, 22752, Note_on_c, 12, 62, 86
13, 22798, Note_on_c, 12, 62, 0
13, 22800, Note_on_c, 12, 62, 86
13, 22846, Note_on_c, 12, 62, 0
13, 22848, Note_on_c, 12, 69, 86
13, 22894, Note_on_c, 12, 69, 0
13, 22896, Note_on_c, 12, 69, 86
13, 22942, Note_on_c, 12, 69, 0
13, 22944, Note_on_c, 12, 72, 86
13, 22990, Note_on_c, 12, 72, 0
13, 22992, Note_on_c, 12, 72, 86
13, 23038, Note_on_c, 12, 72, 0
13, 23040, Note_on_c, 12, 70, 86
13, 23086, Note_on_c, 12, 70, 0
13, 23088, Note_on_c, 12, 70, 86
13, 23134, Note_on_c, 12, 70, 0
13, 23136, Note_on_c, 12, 62, 86
13, 23182, Note_on_c, 12, 62, 0
13, 23184, Note_on_c, 12, 62, 86
13, 23230, Note_on_c, 12, 62, 0
13, 23232, Note_on_c, 12, 70, 86
13, 23278, Note_on_c, 12, 70, 0
13, 23280, Note_on_c, 12, 70, 86
13, 23326, Note_on_c, 12, 70, 0
13, 23328, Note_on_c, 12, 74, 86
13, 23374, Note_on_c, 12, 74, 0
13, 23376, Note_on_c, 12, 74, 86
13, 23422, Note_on_c, 12, 74, 0
13, 23424, Note_on_c, 12, 70, 86
13, 23470, Note_on_c, 12, 70, 0
13, 23472, Note_on_c, 12, 70, 86
13, 23518, Note_on_c, 12, 70, 0
13, 23520, Note_on_c, 12, 62, 86
13, 23566, Note_on_c, 12, 62, 0
13, 23568, Note_on_c, 12, 62, 86
13, 23614, Note_on_c, 12, 62, 0
13, 23616, Note_on_c, 12, 70, 86
13, 23662, Note_on_c, 12, 70, 0
13, 23664, Note_on_c, 12, 70, 86
13, 23710, Note_on_c, 12, 70, 0
13, 23712, Note_on_c, 12, 74, 86
13, 23758, Note_on_c, 12, 74, 0
13, 23760, Note_on_c, 12, 74, 86
13, 23806, Note_on_c, 12, 74, 0
13, 23808, Note_on_c, 12, 79, 107
13, 23854, Note_on_c, 12, 79, 0
13, 23904, Note_on_c, 12, 81, 109
13, 24038, Note_on_c, 12, 81, 0
13, 24096, Note_on_c, 12, 82, 109
13, 24230, Note_on_c, 12, 82, 0
13, 24288, Note_on_c, 12, 81, 109
13, 24422, Note_on_c, 12, 81, 0
13, 24480, Note_on_c, 12, 79, 109
13, 24540, Note_on_c, 12, 79, 0
13, 24576, Note_on_c, 12, 78, 109
13, 24622, Note_on_c, 12, 78, 0
13, 24672, Note_on_c, 12, 79, 109
13, 24806, Note_on_c, 12, 79, 0
13, 24864, Note_on_c, 12, 81, 109
13, 24998, Note_on_c, 12, 81, 0
13, 25056, Note_on_c, 12, 79, 108
13, 25190, Note_on_c, 12, 79, 0
13, 25248, Note_on_c, 12, 78, 108
13, 25308, Note_on_c, 12, 78, 0
13, 25344, Note_on_c, 12, 79, 108
13, 25390, Note_on_c, 12, 79, 0
13, 25440, Note_on_c, 12, 81, 108
13, 25574, Note_on_c, 12, 81, 0
13, 25632, Note_on_c, 12, 82, 108
13, 25766, Note_on_c, 12, 82, 0
13, 25824, Note_on_c, 12, 81, 108
13, 25958, Note_on_c, 12, 81, 0
13, 26016, Note_on_c, 12, 79, 108
13, 26076, Note_on_c, 12, 79, 0
13, 26112, Note_on_c, 12, 78, 108
13, 26286, Note_on_c, 12, 78, 0
13, 26496, Note_on_c, 12, 82, 103
13, 26496, Note_on_c, 12, 79, 103
13, 26542, Note_on_c, 12, 79, 0
13, 26542, Note_on_c, 12, 82, 0
13, 26544, Note_on_c, 12, 82, 103
13, 26544, Note_on_c, 12, 79, 103
13, 26590, Note_on_c, 12, 79, 0
13, 26590, Note_on_c, 12, 82, 0
13, 26592, Note_on_c, 12, 82, 103
13, 26592, Note_on_c, 12, 79, 103
13, 26638, Note_on_c, 12, 79, 0
13, 26638, Note_on_c, 12, 82, 0
13, 26640, Note_on_c, 12, 82, 103
13, 26640, Note_on_c, 12, 79, 103
13, 26686, Note_on_c, 12, 79, 0
13, 26686, Note_on_c, 12, 82, 0
13, 26688, Note_on_c, 12, 82, 103
13, 26688, Note_on_c, 12, 79, 103
13, 26734, Note_on_c, 12, 79, 0
13, 26734, Note_on_c, 12, 82, 0
13, 26736, Note_on_c, 12, 82, 103
13, 26736, Note_on_c, 12, 79, 103
13, 26782, Note_on_c, 12, 79, 0
13, 26782, Note_on_c, 12, 82, 0
13, 26784, Note_on_c, 12, 82, 103
13, 26784, Note_on_c, 12, 79, 103
13, 26830, Note_on_c, 12, 79, 0
13, 26830, Note_on_c, 12, 82, 0
13, 26832, Note_on_c, 12, 82, 103
13, 26832, Note_on_c, 12, 79, 103
13, 26878, Note_on_c, 12, 79, 0
13, 26878, Note_on_c, 12, 82, 0
13, 26880, Note_on_c, 12, 81, 103
13, 27054, Note_on_c, 12, 81, 0
13, 27264, Note_on_c, 12, 82, 102
13, 27264, Note_on_c, 12, 79, 102
13, 27310, Note_on_c, 12, 79, 0
13, 27310, Note_on_c, 12, 82, 0
13, 27312, Note_on_c, 12, 82, 102
13, 27312, Note_on_c, 12, 79, 102
13, 27358, Note_on_c, 12, 79, 0
13, 27358, Note_on_c, 12, 82, 0
13, 27360, Note_on_c, 12, 82, 102
13, 27360, Note_on_c, 12, 79, 102
13, 27406, Note_on_c, 12, 79, 0
13, 27406, Note_on_c, 12, 82, 0
13, 27408, Note_on_c, 12, 82, 101
13, 27408, Note_on_c, 12, 79, 101
13, 27454, Note_on_c, 12, 79, 0
13, 27454, Note_on_c, 12, 82, 0
13, 27456, Note_on_c, 12, 82, 101
13, 27456, Note_on_c, 12, 79, 101
13, 27502, Note_on_c, 12, 79, 0
13, 27502, Note_on_c, 12, 82, 0
13, 27504, Note_on_c, 12, 82, 101
13, 27504, Note_on_c, 12, 79, 101
13, 27550, Note_on_c, 12, 79, 0
13, 27550, Note_on_c, 12, 82, 0
13, 27552, Note_on_c, 12, 82, 101
13, 27552, Note_on_c, 12, 79, 101
13, 27598, Note_on_c, 12, 79, 0
13, 27598, Note_on_c, 12, 82, 0
13, 27600, Note_on_c, 12, 82, 101
13, 27600, Note_on_c, 12, 79, 101
13, 27646, Note_on_c, 12, 79, 0
13, 27646, Note_on_c, 12, 82, 0
13, 27648, Note_on_c, 12, 81, 101
13, 27648, Note_on_c, 12, 78, 101
13, 27804, Note_on_c, 12, 78, 0
13, 27804, Note_on_c, 12, 81, 0
13, 27840, Note_on_c, 12, 82, 103
13, 27840, Note_on_c, 12, 79, 103
13, 27990, Note_on_c, 12, 79, 0
13, 27990, Note_on_c, 12, 82, 0
13, 28032, Note_on_c, 12, 81, 103
13, 28032, Note_on_c, 12, 78, 103
13, 28182, Note_on_c, 12, 78, 0
13, 28182, Note_on_c, 12, 81, 0
13, 28224, Note_on_c, 12, 82, 103
13, 28224, Note_on_c, 12, 79, 103
13, 28374, Note_on_c, 12, 79, 0
13, 28374, Note_on_c, 12, 82, 0
13, 28416, Note_on_c, 12, 81, 104
13, 28416, Note_on_c, 12, 78, 104
13, 28594, Note_on_c, 12, 78, 0
13, 28594, Note_on_c, 12, 81, 0
13, 32253, Control_c, 12, 11, 100
13, 32256, Note_on_c, 12, 55, 42
13, 32262, Control_c, 12, 11, 102
13, 32271, Control_c, 12, 11, 103
13, 32288, Control_c, 12, 11, 105
13, 32297, Control_c, 12, 11, 109
13, 32315, Control_c, 12, 11, 111
13, 32323, Control_c, 12, 11, 114
13, 32349, Control_c, 12, 11, 115
13, 32367, Control_c, 12, 11, 117
13, 32376, Control_c, 12, 11, 118
13, 32419, Control_c, 12, 11, 121
13, 32445, Control_c, 12, 11, 123
13, 32472, Control_c, 12, 11, 124
13, 32524, Control_c, 12, 11, 126
13, 32576, Control_c, 12, 11, 127
13, 32796, Note_on_c, 12, 55, 0
13, 32832, Note_on_c, 12, 57, 54
13, 32951, Note_on_c, 12, 57, 0
13, 32975, Note_on_c, 12, 59, 55
13, 33015, Note_on_c, 12, 59, 0
13, 33024, Note_on_c, 12, 60, 56
13, 33140, Note_on_c, 12, 60, 0
13, 33216, Note_on_c, 12, 60, 59
13, 33408, Note_on_c, 12, 60, 0
13, 33408, Note_on_c, 12, 59, 60
13, 33586, Note_on_c, 12, 59, 0
13, 33600, Note_on_c, 12, 64, 59
13, 33754, Note_on_c, 12, 64, 0
13, 33792, Note_on_c, 12, 62, 56
13, 33904, Note_on_c, 12, 62, 0
13, 33984, Note_on_c, 12, 71, 47
13, 34094, Note_on_c, 12, 71, 0
13, 34368, Note_on_c, 12, 71, 47
13, 34478, Note_on_c, 12, 71, 0
13, 34752, Note_on_c, 12, 64, 47
13, 34863, Note_on_c, 12, 64, 0
13, 35136, Note_on_c, 12, 69, 47
13, 35247, Note_on_c, 12, 69, 0
13, 35520, Note_on_c, 12, 62, 47
13, 35631, Note_on_c, 12, 62, 0
13, 35904, Note_on_c, 12, 67, 47
13, 36015, Note_on_c, 12, 67, 0
13, 36096, Note_on_c, 12, 62, 50
13, 36207, Note_on_c, 12, 62, 0
13, 36288, Note_on_c, 12, 69, 53
13, 36330, Note_on_c, 12, 69, 0
13, 36330, Note_on_c, 12, 72, 53
13, 36417, Note_on_c, 12, 72, 0
13, 36480, Note_on_c, 12, 71, 53
13, 36523, Note_on_c, 12, 71, 0
13, 36523, Note_on_c, 12, 67, 53
13, 36610, Note_on_c, 12, 67, 0
13, 36672, Note_on_c, 12, 69, 53
13, 36715, Note_on_c, 12, 69, 0
13, 36715, Note_on_c, 12, 66, 53
13, 36803, Note_on_c, 12, 66, 0
13, 37248, Note_on_c, 12, 62, 52
13, 37440, Note_on_c, 12, 62, 0
13, 37440, Note_on_c, 12, 61, 59
13, 37632, Note_on_c, 12, 61, 0
13, 37632, Note_on_c, 12, 60, 62
13, 37824, Note_on_c, 12, 60, 0
13, 37824, Note_on_c, 12, 59, 65
13, 37980, Note_on_c, 12, 59, 0
13, 38016, Note_on_c, 12, 62, 54
13, 38112, Note_on_c, 12, 62, 0
13, 38112, Note_on_c, 12, 60, 52
13, 38186, Note_on_c, 12, 60, 0
13, 38208, Note_on_c, 12, 59, 50
13, 38304, Note_on_c, 12, 59, 0
13, 38304, Note_on_c, 12, 57, 48
13, 38378, Note_on_c, 12, 57, 0
13, 38400, Note_on_c, 12, 55, 50
13, 38932, Note_on_c, 12, 55, 0
13, 38976, Note_on_c, 12, 57, 52
13, 39096, Note_on_c, 12, 57, 0
13, 39120, Note_on_c, 12, 59, 53
13, 39160, Note_on_c, 12, 59, 0
13, 39168, Note_on_c, 12, 60, 53
13, 39296, Note_on_c, 12, 60, 0
13, 39360, Note_on_c, 12, 60, 55
13, 39552, Note_on_c, 12, 60, 0
13, 39552, Note_on_c, 12, 59, 57
13, 39730, Note_on_c, 12, 59, 0
13, 39744, Note_on_c, 12, 64, 52
13, 39884, Note_on_c, 12, 64, 0
13, 39936, Note_on_c, 12, 62, 52
13, 40070, Note_on_c, 12, 62, 0
13, 40320, Note_on_c, 12, 61, 54
13, 40363, Note_on_c, 12, 61, 0
13, 40363, Note_on_c, 12, 62, 54
13, 40450, Note_on_c, 12, 62, 0
13, 40512, Note_on_c, 12, 64, 54
13, 40555, Note_on_c, 12, 64, 0
13, 40555, Note_on_c, 12, 62, 54
13, 40643, Note_on_c, 12, 62, 0
13, 40704, Note_on_c, 12, 59, 54
13, 40747, Note_on_c, 12, 59, 0
13, 40747, Note_on_c, 12, 60, 54
13, 40837, Note_on_c, 12, 60, 0
13, 41088, Note_on_c, 12, 59, 54
13, 41131, Note_on_c, 12, 59, 0
13, 41131, Note_on_c, 12, 60, 54
13, 41218, Note_on_c, 12, 60, 0
13, 41280, Note_on_c, 12, 62, 54
13, 41323, Note_on_c, 12, 62, 0
13, 41323, Note_on_c, 12, 60, 54
13, 41411, Note_on_c, 12, 60, 0
13, 41472, Note_on_c, 12, 58, 54
13, 41515, Note_on_c, 12, 58, 0
13, 41515, Note_on_c, 12, 59, 54
13, 41605, Note_on_c, 12, 59, 0
13, 41856, Note_on_c, 12, 58, 54
13, 41899, Note_on_c, 12, 58, 0
13, 41899, Note_on_c, 12, 59, 54
13, 41987, Note_on_c, 12, 59, 0
13, 42048, Note_on_c, 12, 60, 54
13, 42091, Note_on_c, 12, 60, 0
13, 42091, Note_on_c, 12, 59, 54
13, 42179, Note_on_c, 12, 59, 0
13, 42240, Note_on_c, 12, 56, 54
13, 42283, Note_on_c, 12, 56, 0
13, 42283, Note_on_c, 12, 57, 54
13, 42371, Note_on_c, 12, 57, 0
13, 42624, Note_on_c, 12, 60, 54
13, 42667, Note_on_c, 12, 60, 0
13, 42667, Note_on_c, 12, 59, 54
13, 42755, Note_on_c, 12, 59, 0
13, 43008, Note_on_c, 12, 62, 54
13, 43051, Note_on_c, 12, 62, 0
13, 43051, Note_on_c, 12, 60, 54
13, 43139, Note_on_c, 12, 60, 0
13, 43392, Note_on_c, 12, 59, 54
13, 43435, Note_on_c, 12, 59, 0
13, 43435, Note_on_c, 12, 60, 54
13, 43523, Note_on_c, 12, 60, 0
13, 43584, Note_on_c, 12, 62, 54
13, 43627, Note_on_c, 12, 62, 0
13, 43627, Note_on_c, 12, 60, 54
13, 43715, Note_on_c, 12, 60, 0
13, 43776, Note_on_c, 12, 58, 54
13, 43819, Note_on_c, 12, 58, 0
13, 43819, Note_on_c, 12, 59, 54
13, 43907, Note_on_c, 12, 59, 0
13, 44160, Note_on_c, 12, 62, 54
13, 44203, Note_on_c, 12, 62, 0
13, 44203, Note_on_c, 12, 61, 54
13, 44291, Note_on_c, 12, 61, 0
13, 44544, Note_on_c, 12, 64, 54
13, 44587, Note_on_c, 12, 64, 0
13, 44587, Note_on_c, 12, 62, 54
13, 44675, Note_on_c, 12, 62, 0
13, 44928, Note_on_c, 12, 66, 57
13, 44971, Note_on_c, 12, 66, 0
13, 44971, Note_on_c, 12, 67, 57
13, 45057, Note_on_c, 12, 67, 0
13, 45120, Note_on_c, 12, 69, 58
13, 45163, Note_on_c, 12, 69, 0
13, 45163, Note_on_c, 12, 67, 58
13, 45249, Note_on_c, 12, 67, 0
13, 45311, Control_c, 12, 11, 127
13, 45312, Note_on_c, 12, 71, 75
13, 45437, Control_c, 12, 11, 123
13, 45448, Control_c, 12, 11, 120
13, 45454, Control_c, 12, 11, 117
13, 45465, Control_c, 12, 11, 116
13, 45470, Control_c, 12, 11, 114
13, 45481, Control_c, 12, 11, 113
13, 45487, Control_c, 12, 11, 111
13, 45498, Control_c, 12, 11, 108
13, 45503, Control_c, 12, 11, 107
13, 45520, Control_c, 12, 11, 105
13, 45531, Control_c, 12, 11, 104
13, 45536, Control_c, 12, 11, 101
13, 45547, Control_c, 12, 11, 99
13, 45553, Control_c, 12, 11, 98
13, 45564, Control_c, 12, 11, 96
13, 45597, Control_c, 12, 11, 95
13, 45629, Control_c, 12, 11, 93
13, 45646, Control_c, 12, 11, 92
13, 45816, Note_on_c, 12, 71, 0
13, 45888, Note_on_c, 12, 69, 52
13, 45888, Control_c, 12, 11, 127
13, 45936, Note_on_c, 12, 69, 0
13, 45936, Note_on_c, 12, 67, 52
13, 45984, Note_on_c, 12, 67, 0
13, 45984, Note_on_c, 12, 66, 52
13, 46032, Note_on_c, 12, 66, 0
13, 46032, Note_on_c, 12, 64, 52
13, 46080, Note_on_c, 12, 64, 0
13, 46080, Note_on_c, 12, 63, 52
13, 46200, Note_on_c, 12, 63, 0
13, 46272, Note_on_c, 12, 63, 52
13, 46362, Note_on_c, 12, 63, 0
13, 46464, Note_on_c, 12, 63, 51
13, 46554, Note_on_c, 12, 63, 0
13, 46656, Note_on_c, 12, 63, 51
13, 46746, Note_on_c, 12, 63, 0
13, 46848, Note_on_c, 12, 63, 52
13, 47040, Note_on_c, 12, 63, 0
13, 47040, Note_on_c, 12, 64, 49
13, 47168, Note_on_c, 12, 64, 0
13, 47232, Note_on_c, 12, 63, 52
13, 47274, Note_on_c, 12, 63, 0
13, 47274, Note_on_c, 12, 64, 52
13, 47360, Note_on_c, 12, 64, 0
13, 47424, Note_on_c, 12, 66, 52
13, 47466, Note_on_c, 12, 66, 0
13, 47466, Note_on_c, 12, 64, 52
13, 47552, Note_on_c, 12, 64, 0
13, 47615, Control_c, 12, 11, 117
13, 47616, Note_on_c, 12, 67, 73
13, 47632, Control_c, 12, 11, 118
13, 47637, Control_c, 12, 11, 119
13, 47648, Control_c, 12, 11, 121
13, 47654, Control_c, 12, 11, 122
13, 47665, Control_c, 12, 11, 124
13, 47670, Control_c, 12, 11, 127
13, 47753, Control_c, 12, 11, 124
13, 47764, Control_c, 12, 11, 120
13, 47780, Control_c, 12, 11, 117
13, 47786, Control_c, 12, 11, 114
13, 47796, Control_c, 12, 11, 112
13, 47802, Control_c, 12, 11, 111
13, 47813, Control_c, 12, 11, 108
13, 47829, Control_c, 12, 11, 106
13, 47835, Control_c, 12, 11, 105
13, 47846, Control_c, 12, 11, 103
13, 47851, Control_c, 12, 11, 102
13, 47868, Control_c, 12, 11, 100
13, 47912, Control_c, 12, 11, 99
13, 48120, Note_on_c, 12, 67, 0
13, 48192, Note_on_c, 12, 66, 52
13, 48194, Control_c, 12, 11, 127
13, 48240, Note_on_c, 12, 66, 0
13, 48240, Note_on_c, 12, 64, 56
13, 48288, Note_on_c, 12, 64, 0
13, 48288, Note_on_c, 12, 62, 56
13, 48336, Note_on_c, 12, 62, 0
13, 48336, Note_on_c, 12, 60, 56
13, 48348, Note_on_c, 12, 60, 0
13, 48384, Note_on_c, 12, 59, 56
13, 48510, Note_on_c, 12, 59, 0
13, 48575, Control_c, 12, 11, 100
13, 48576, Note_on_c, 12, 59, 56
13, 48619, Control_c, 12, 11, 102
13, 48635, Control_c, 12, 11, 103
13, 48641, Control_c, 12, 11, 105
13, 48652, Control_c, 12, 11, 109
13, 48657, Control_c, 12, 11, 111
13, 48668, Control_c, 12, 11, 112
13, 48685, Control_c, 12, 11, 114
13, 48701, Control_c, 12, 11, 115
13, 48718, Control_c, 12, 11, 117
13, 48768, Note_on_c, 12, 59, 0
13, 48768, Note_on_c, 12, 60, 56
13, 48784, Control_c, 12, 11, 118
13, 48849, Control_c, 12, 11, 120
13, 48904, Control_c, 12, 11, 119
13, 48937, Control_c, 12, 11, 117
13, 48948, Control_c, 12, 11, 116
13, 48954, Control_c, 12, 11, 114
13, 48960, Note_on_c, 12, 60, 0
13, 48960, Note_on_c, 12, 57, 56
13, 49003, Control_c, 12, 11, 113
13, 49019, Control_c, 12, 11, 111
13, 49030, Control_c, 12, 11, 110
13, 49036, Control_c, 12, 11, 108
13, 49047, Control_c, 12, 11, 105
13, 49052, Control_c, 12, 11, 104
13, 49063, Control_c, 12, 11, 101
13, 49080, Control_c, 12, 11, 99
13, 49085, Control_c, 12, 11, 96
13, 49112, Note_on_c, 12, 57, 0
13, 49113, Control_c, 12, 11, 95
13, 50688, Note_on_c, 12, 67, 44
13, 50688, Control_c, 12, 11, 127
13, 50734, Note_on_c, 12, 67, 0
13, 50736, Note_on_c, 12, 67, 44
13, 50782, Note_on_c, 12, 67, 0
13, 50784, Note_on_c, 12, 67, 44
13, 50830, Note_on_c, 12, 67, 0
13, 50832, Note_on_c, 12, 67, 44
13, 50878, Note_on_c, 12, 67, 0
13, 50880, Note_on_c, 12, 55, 44
13, 50926, Note_on_c, 12, 55, 0
13, 50928, Note_on_c, 12, 55, 44
13, 50974, Note_on_c, 12, 55, 0
13, 50976, Note_on_c, 12, 55, 44
13, 51022, Note_on_c, 12, 55, 0
13, 51024, Note_on_c, 12, 55, 44
13, 51070, Note_on_c, 12, 55, 0
13, 51072, Note_on_c, 12, 67, 44
13, 51118, Note_on_c, 12, 67, 0
13, 51120, Note_on_c, 12, 67, 44
13, 51166, Note_on_c, 12, 67, 0
13, 51168, Note_on_c, 12, 67, 44
13, 51214, Note_on_c, 12, 67, 0
13, 51216, Note_on_c, 12, 67, 44
13, 51262, Note_on_c, 12, 67, 0
13, 51264, Note_on_c, 12, 68, 44
13, 51310, Note_on_c, 12, 68, 0
13, 51312, Note_on_c, 12, 68, 44
13, 51358, Note_on_c, 12, 68, 0
13, 51360, Note_on_c, 12, 68, 44
13, 51406, Note_on_c, 12, 68, 0
13, 51408, Note_on_c, 12, 68, 44
13, 51454, Note_on_c, 12, 68, 0
13, 51456, Note_on_c, 12, 69, 44
13, 51502, Note_on_c, 12, 69, 0
13, 51504, Note_on_c, 12, 69, 44
13, 51550, Note_on_c, 12, 69, 0
13, 51552, Note_on_c, 12, 69, 44
13, 51598, Note_on_c, 12, 69, 0
13, 51600, Note_on_c, 12, 69, 44
13, 51646, Note_on_c, 12, 69, 0
13, 51648, Note_on_c, 12, 61, 44
13, 51694, Note_on_c, 12, 61, 0
13, 51696, Note_on_c, 12, 61, 44
13, 51742, Note_on_c, 12, 61, 0
13, 51744, Note_on_c, 12, 61, 44
13, 51790, Note_on_c, 12, 61, 0
13, 51792, Note_on_c, 12, 61, 44
13, 51838, Note_on_c, 12, 61, 0
13, 51840, Note_on_c, 12, 62, 44
13, 51886, Note_on_c, 12, 62, 0
13, 51888, Note_on_c, 12, 62, 44
13, 51934, Note_on_c, 12, 62, 0
13, 51936, Note_on_c, 12, 62, 44
13, 51982, Note_on_c, 12, 62, 0
13, 51984, Note_on_c, 12, 62, 44
13, 52030, Note_on_c, 12, 62, 0
13, 52032, Note_on_c, 12, 72, 44
13, 52078, Note_on_c, 12, 72, 0
13, 52080, Note_on_c, 12, 72, 44
13, 52126, Note_on_c, 12, 72, 0
13, 52128, Note_on_c, 12, 72, 44
13, 52174, Note_on_c, 12, 72, 0
13, 52176, Note_on_c, 12, 72, 44
13, 52214, Note_on_c, 12, 72, 0
13, 52224, Note_on_c, 12, 71, 46
13, 52318, Note_on_c, 12, 71, 0
13, 52416, Note_on_c, 12, 71, 46
13, 52470, Note_on_c, 12, 71, 0
13, 52512, Note_on_c, 12, 71, 46
13, 52566, Note_on_c, 12, 71, 0
13, 52608, Note_on_c, 12, 71, 46
13, 52662, Note_on_c, 12, 71, 0
13, 52704, Note_on_c, 12, 71, 46
13, 52758, Note_on_c, 12, 71, 0
13, 52800, Note_on_c, 12, 72, 47
13, 52836, Note_on_c, 12, 72, 0
13, 52836, Note_on_c, 12, 71, 47
13, 52872, Note_on_c, 12, 71, 0
13, 52872, Note_on_c, 12, 72, 47
13, 52908, Note_on_c, 12, 72, 0
13, 52908, Note_on_c, 12, 71, 47
13, 52944, Note_on_c, 12, 71, 0
13, 52944, Note_on_c, 12, 69, 47
13, 52968, Note_on_c, 12, 69, 0
13, 52968, Note_on_c, 12, 71, 47
13, 52986, Note_on_c, 12, 71, 0
13, 52992, Note_on_c, 12, 72, 47
13, 53036, Note_on_c, 12, 72, 0
13, 53088, Note_on_c, 12, 71, 47
13, 53132, Note_on_c, 12, 71, 0
13, 53184, Note_on_c, 12, 69, 47
13, 53228, Note_on_c, 12, 69, 0
13, 53280, Note_on_c, 12, 67, 48
13, 53324, Note_on_c, 12, 67, 0
13, 53376, Note_on_c, 12, 66, 48
13, 53420, Note_on_c, 12, 66, 0
13, 53472, Note_on_c, 12, 64, 48
13, 53516, Note_on_c, 12, 64, 0
13, 53568, Note_on_c, 12, 62, 48
13, 53612, Note_on_c, 12, 62, 0
13, 53664, Note_on_c, 12, 60, 48
13, 53708, Note_on_c, 12, 60, 0
13, 53760, Note_on_c, 12, 59, 48
13, 53806, Note_on_c, 12, 59, 0
13, 53808, Note_on_c, 12, 59, 46
13, 53854, Note_on_c, 12, 59, 0
13, 53856, Note_on_c, 12, 59, 46
13, 53902, Note_on_c, 12, 59, 0
13, 53904, Note_on_c, 12, 59, 46
13, 53950, Note_on_c, 12, 59, 0
13, 53952, Note_on_c, 12, 71, 48
13, 53998, Note_on_c, 12, 71, 0
13, 54000, Note_on_c, 12, 71, 49
13, 54046, Note_on_c, 12, 71, 0
13, 54048, Note_on_c, 12, 71, 50
13, 54094, Note_on_c, 12, 71, 0
13, 54096, Note_on_c, 12, 71, 51
13, 54142, Note_on_c, 12, 71, 0
13, 54144, Note_on_c, 12, 67, 52
13, 54190, Note_on_c, 12, 67, 0
13, 54192, Note_on_c, 12, 67, 53
13, 54238, Note_on_c, 12, 67, 0
13, 54240, Note_on_c, 12, 67, 54
13, 54286, Note_on_c, 12, 67, 0
13, 54288, Note_on_c, 12, 67, 55
13, 54334, Note_on_c, 12, 67, 0
13, 54336, Note_on_c, 12, 62, 56
13, 54382, Note_on_c, 12, 62, 0
13, 54384, Note_on_c, 12, 62, 57
13, 54430, Note_on_c, 12, 62, 0
13, 54432, Note_on_c, 12, 62, 58
13, 54478, Note_on_c, 12, 62, 0
13, 54480, Note_on_c, 12, 62, 59
13, 54526, Note_on_c, 12, 62, 0
13, 54528, Note_on_c, 12, 60, 60
13, 54574, Note_on_c, 12, 60, 0
13, 54576, Note_on_c, 12, 60, 61
13, 54622, Note_on_c, 12, 60, 0
13, 54624, Note_on_c, 12, 60, 62
13, 54670, Note_on_c, 12, 60, 0
13, 54672, Note_on_c, 12, 60, 63
13, 54718, Note_on_c, 12, 60, 0
13, 54720, Note_on_c, 12, 69, 64
13, 54766, Note_on_c, 12, 69, 0
13, 54768, Note_on_c, 12, 69, 65
13, 54814, Note_on_c, 12, 69, 0
13, 54816, Note_on_c, 12, 69, 66
13, 54862, Note_on_c, 12, 69, 0
13, 54864, Note_on_c, 12, 69, 67
13, 54910, Note_on_c, 12, 69, 0
13, 54912, Note_on_c, 12, 66, 69
13, 54958, Note_on_c, 12, 66, 0
13, 54960, Note_on_c, 12, 66, 70
13, 55006, Note_on_c, 12, 66, 0
13, 55008, Note_on_c, 12, 66, 72
13, 55054, Note_on_c, 12, 66, 0
13, 55056, Note_on_c, 12, 66, 74
13, 55102, Note_on_c, 12, 66, 0
13, 55104, Note_on_c, 12, 62, 75
13, 55150, Note_on_c, 12, 62, 0
13, 55152, Note_on_c, 12, 62, 77
13, 55198, Note_on_c, 12, 62, 0
13, 55200, Note_on_c, 12, 62, 78
13, 55246, Note_on_c, 12, 62, 0
13, 55248, Note_on_c, 12, 62, 80
13, 55294, Note_on_c, 12, 62, 0
13, 55296, Note_on_c, 12, 67, 103
13, 55390, Note_on_c, 12, 67, 0
13, 55488, Note_on_c, 12, 79, 103
13, 55534, Note_on_c, 12, 79, 0
13, 55584, Note_on_c, 12, 79, 103
13, 55630, Note_on_c, 12, 79, 0
13, 55680, Note_on_c, 12, 79, 103
13, 55726, Note_on_c, 12, 79, 0
13, 55776, Note_on_c, 12, 79, 103
13, 55822, Note_on_c, 12, 79, 0
13, 55872, Note_on_c, 12, 81, 103
13, 55908, Note_on_c, 12, 81, 0
13, 55908, Note_on_c, 12, 79, 103
13, 55944, Note_on_c, 12, 79, 0
13, 55944, Note_on_c, 12, 81, 103
13, 55980, Note_on_c, 12, 81, 0
13, 55980, Note_on_c, 12, 79, 103
13, 56016, Note_on_c, 12, 79, 0
13, 56016, Note_on_c, 12, 78, 103
13, 56040, Note_on_c, 12, 78, 0
13, 56040, Note_on_c, 12, 79, 103
13, 56060, Note_on_c, 12, 79, 0
13, 56064, Note_on_c, 12, 81, 103
13, 56110, Note_on_c, 12, 81, 0
13, 56160, Note_on_c, 12, 79, 103
13, 56206, Note_on_c, 12, 79, 0
13, 56256, Note_on_c, 12, 78, 103
13, 56302, Note_on_c, 12, 78, 0
13, 56352, Note_on_c, 12, 76, 103
13, 56398, Note_on_c, 12, 76, 0
13, 56448, Note_on_c, 12, 74, 103
13, 56494, Note_on_c, 12, 74, 0
13, 56544, Note_on_c, 12, 76, 103
13, 56590, Note_on_c, 12, 76, 0
13, 56640, Note_on_c, 12, 78, 103
13, 56686, Note_on_c, 12, 78, 0
13, 56736, Note_on_c, 12, 74, 103
13, 56782, Note_on_c, 12, 74, 0
13, 56832, Note_on_c, 12, 83, 103
13, 56878, Note_on_c, 12, 83, 0
13, 56880, Note_on_c, 12, 74, 103
13, 56926, Note_on_c, 12, 74, 0
13, 56928, Note_on_c, 12, 74, 103
13, 56974, Note_on_c, 12, 74, 0
13, 56976, Note_on_c, 12, 74, 103
13, 57022, Note_on_c, 12, 74, 0
13, 57024, Note_on_c, 12, 74, 103
13, 57070, Note_on_c, 12, 74, 0
13, 57072, Note_on_c, 12, 74, 103
13, 57118, Note_on_c, 12, 74, 0
13, 57120, Note_on_c, 12, 74, 103
13, 57166, Note_on_c, 12, 74, 0
13, 57168, Note_on_c, 12, 74, 103
13, 57214, Note_on_c, 12, 74, 0
13, 57216, Note_on_c, 12, 74, 51
13, 57262, Note_on_c, 12, 74, 0
13, 57264, Note_on_c, 12, 74, 48
13, 57310, Note_on_c, 12, 74, 0
13, 57312, Note_on_c, 12, 74, 48
13, 57358, Note_on_c, 12, 74, 0
13, 57360, Note_on_c, 12, 74, 48
13, 57406, Note_on_c, 12, 74, 0
13, 57408, Note_on_c, 12, 74, 48
13, 57454, Note_on_c, 12, 74, 0
13, 57456, Note_on_c, 12, 74, 48
13, 57502, Note_on_c, 12, 74, 0
13, 57504, Note_on_c, 12, 74, 48
13, 57550, Note_on_c, 12, 74, 0
13, 57552, Note_on_c, 12, 74, 48
13, 57598, Note_on_c, 12, 74, 0
13, 57600, Note_on_c, 12, 74, 48
13, 57646, Note_on_c, 12, 74, 0
13, 57648, Note_on_c, 12, 74, 48
13, 57694, Note_on_c, 12, 74, 0
13, 57696, Note_on_c, 12, 74, 48
13, 57742, Note_on_c, 12, 74, 0
13, 57744, Note_on_c, 12, 74, 48
13, 57790, Note_on_c, 12, 74, 0
13, 57792, Note_on_c, 12, 74, 48
13, 57838, Note_on_c, 12, 74, 0
13, 57840, Note_on_c, 12, 74, 48
13, 57886, Note_on_c, 12, 74, 0
13, 57888, Note_on_c, 12, 74, 48
13, 57934, Note_on_c, 12, 74, 0
13, 57936, Note_on_c, 12, 74, 48
13, 57982, Note_on_c, 12, 74, 0
13, 57984, Note_on_c, 12, 74, 48
13, 58030, Note_on_c, 12, 74, 0
13, 58032, Note_on_c, 12, 74, 48
13, 58078, Note_on_c, 12, 74, 0
13, 58080, Note_on_c, 12, 74, 48
13, 58126, Note_on_c, 12, 74, 0
13, 58128, Note_on_c, 12, 74, 48
13, 58174, Note_on_c, 12, 74, 0
13, 58176, Note_on_c, 12, 74, 48
13, 58222, Note_on_c, 12, 74, 0
13, 58224, Note_on_c, 12, 74, 48
13, 58270, Note_on_c, 12, 74, 0
13, 58272, Note_on_c, 12, 74, 48
13, 58318, Note_on_c, 12, 74, 0
13, 58320, Note_on_c, 12, 74, 48
13, 58366, Note_on_c, 12, 74, 0
13, 58368, Note_on_c, 12, 74, 95
13, 58414, Note_on_c, 12, 74, 0
13, 58416, Note_on_c, 12, 62, 92
13, 58462, Note_on_c, 12, 62, 0
13, 58464, Note_on_c, 12, 74, 90
13, 58510, Note_on_c, 12, 74, 0
13, 58512, Note_on_c, 12, 74, 88
13, 58558, Note_on_c, 12, 74, 0
13, 58560, Note_on_c, 12, 74, 85
13, 58606, Note_on_c, 12, 74, 0
13, 58608, Note_on_c, 12, 74, 85
13, 58654, Note_on_c, 12, 74, 0
13, 58656, Note_on_c, 12, 74, 84
13, 58702, Note_on_c, 12, 74, 0
13, 58704, Note_on_c, 12, 74, 84
13, 58750, Note_on_c, 12, 74, 0
13, 58752, Note_on_c, 12, 74, 50
13, 58798, Note_on_c, 12, 74, 0
13, 58800, Note_on_c, 12, 74, 48
13, 58846, Note_on_c, 12, 74, 0
13, 58848, Note_on_c, 12, 74, 48
13, 58894, Note_on_c, 12, 74, 0
13, 58896, Note_on_c, 12, 74, 48
13, 58942, Note_on_c, 12, 74, 0
13, 58944, Note_on_c, 12, 74, 48
13, 58990, Note_on_c, 12, 74, 0
13, 58992, Note_on_c, 12, 74, 48
13, 59038, Note_on_c, 12, 74, 0
13, 59040, Note_on_c, 12, 74, 48
13, 59086, Note_on_c, 12, 74, 0
13, 59088, Note_on_c, 12, 74, 48
13, 59134, Note_on_c, 12, 74, 0
13, 59136, Note_on_c, 12, 74, 48
13, 59182, Note_on_c, 12, 74, 0
13, 59184, Note_on_c, 12, 74, 48
13, 59230, Note_on_c, 12, 74, 0
13, 59232, Note_on_c, 12, 74, 48
13, 59278, Note_on_c, 12, 74, 0
13, 59280, Note_on_c, 12, 74, 48
13, 59326, Note_on_c, 12, 74, 0
13, 59328, Note_on_c, 12, 74, 48
13, 59374, Note_on_c, 12, 74, 0
13, 59376, Note_on_c, 12, 74, 48
13, 59422, Note_on_c, 12, 74, 0
13, 59424, Note_on_c, 12, 74, 48
13, 59470, Note_on_c, 12, 74, 0
13, 59472, Note_on_c, 12, 74, 48
13, 59518, Note_on_c, 12, 74, 0
13, 59520, Note_on_c, 12, 74, 48
13, 59566, Note_on_c, 12, 74, 0
13, 59568, Note_on_c, 12, 74, 48
13, 59614, Note_on_c, 12, 74, 0
13, 59616, Note_on_c, 12, 74, 48
13, 59662, Note_on_c, 12, 74, 0
13, 59664, Note_on_c, 12, 74, 48
13, 59710, Note_on_c, 12, 74, 0
13, 59712, Note_on_c, 12, 74, 48
13, 59758, Note_on_c, 12, 74, 0
13, 59760, Note_on_c, 12, 74, 48
13, 59806, Note_on_c, 12, 74, 0
13, 59808, Note_on_c, 12, 74, 48
13, 59854, Note_on_c, 12, 74, 0
13, 59856, Note_on_c, 12, 74, 48
13, 59902, Note_on_c, 12, 74, 0
13, 59904, Note_on_c, 12, 74, 91
13, 59950, Note_on_c, 12, 74, 0
13, 59952, Note_on_c, 12, 62, 91
13, 59998, Note_on_c, 12, 62, 0
13, 60000, Note_on_c, 12, 74, 89
13, 60046, Note_on_c, 12, 74, 0
13, 60048, Note_on_c, 12, 74, 86
13, 60094, Note_on_c, 12, 74, 0
13, 60096, Note_on_c, 12, 74, 85
13, 60142, Note_on_c, 12, 74, 0
13, 60144, Note_on_c, 12, 74, 82
13, 60190, Note_on_c, 12, 74, 0
13, 60192, Note_on_c, 12, 74, 82
13, 60238, Note_on_c, 12, 74, 0
13, 60240, Note_on_c, 12, 74, 82
13, 60286, Note_on_c, 12, 74, 0
13, 60288, Note_on_c, 12, 74, 48
13, 60334, Note_on_c, 12, 74, 0
13, 60336, Note_on_c, 12, 74, 48
13, 60382, Note_on_c, 12, 74, 0
13, 60384, Note_on_c, 12, 74, 48
13, 60430, Note_on_c, 12, 74, 0
13, 60432, Note_on_c, 12, 74, 48
13, 60478, Note_on_c, 12, 74, 0
13, 60480, Note_on_c, 12, 74, 48
13, 60526, Note_on_c, 12, 74, 0
13, 60528, Note_on_c, 12, 74, 48
13, 60574, Note_on_c, 12, 74, 0
13, 60576, Note_on_c, 12, 74, 48
13, 60622, Note_on_c, 12, 74, 0
13, 60624, Note_on_c, 12, 74, 48
13, 60670, Note_on_c, 12, 74, 0
13, 60672, Note_on_c, 12, 74, 48
13, 60718, Note_on_c, 12, 74, 0
13, 60720, Note_on_c, 12, 74, 48
13, 60766, Note_on_c, 12, 74, 0
13, 60768, Note_on_c, 12, 74, 48
13, 60814, Note_on_c, 12, 74, 0
13, 60816, Note_on_c, 12, 74, 48
13, 60862, Note_on_c, 12, 74, 0
13, 60864, Note_on_c, 12, 74, 48
13, 60910, Note_on_c, 12, 74, 0
13, 60912, Note_on_c, 12, 74, 48
13, 60958, Note_on_c, 12, 74, 0
13, 60960, Note_on_c, 12, 74, 48
13, 61006, Note_on_c, 12, 74, 0
13, 61008, Note_on_c, 12, 74, 48
13, 61054, Note_on_c, 12, 74, 0
13, 61056, Note_on_c, 12, 74, 48
13, 61102, Note_on_c, 12, 74, 0
13, 61104, Note_on_c, 12, 74, 48
13, 61150, Note_on_c, 12, 74, 0
13, 61152, Note_on_c, 12, 74, 48
13, 61198, Note_on_c, 12, 74, 0
13, 61200, Note_on_c, 12, 74, 48
13, 61246, Note_on_c, 12, 74, 0
13, 61248, Note_on_c, 12, 74, 48
13, 61294, Note_on_c, 12, 74, 0
13, 61296, Note_on_c, 12, 74, 48
13, 61342, Note_on_c, 12, 74, 0
13, 61344, Note_on_c, 12, 74, 48
13, 61390, Note_on_c, 12, 74, 0
13, 61392, Note_on_c, 12, 74, 48
13, 61438, Note_on_c, 12, 74, 0
13, 61440, Note_on_c, 12, 74, 91
13, 61486, Note_on_c, 12, 74, 0
13, 61488, Note_on_c, 12, 62, 92
13, 61534, Note_on_c, 12, 62, 0
13, 61536, Note_on_c, 12, 74, 90
13, 61582, Note_on_c, 12, 74, 0
13, 61584, Note_on_c, 12, 74, 87
13, 61630, Note_on_c, 12, 74, 0
13, 61632, Note_on_c, 12, 74, 85
13, 61678, Note_on_c, 12, 74, 0
13, 61680, Note_on_c, 12, 74, 82
13, 61726, Note_on_c, 12, 74, 0
13, 61728, Note_on_c, 12, 74, 82
13, 61774, Note_on_c, 12, 74, 0
13, 61776, Note_on_c, 12, 74, 82
13, 61822, Note_on_c, 12, 74, 0
13, 61824, Note_on_c, 12, 74, 50
13, 61870, Note_on_c, 12, 74, 0
13, 61872, Note_on_c, 12, 74, 48
13, 61918, Note_on_c, 12, 74, 0
13, 61920, Note_on_c, 12, 74, 48
13, 61966, Note_on_c, 12, 74, 0
13, 61968, Note_on_c, 12, 74, 48
13, 62014, Note_on_c, 12, 74, 0
13, 62016, Note_on_c, 12, 74, 48
13, 62062, Note_on_c, 12, 74, 0
13, 62064, Note_on_c, 12, 74, 48
13, 62110, Note_on_c, 12, 74, 0
13, 62112, Note_on_c, 12, 74, 48
13, 62158, Note_on_c, 12, 74, 0
13, 62160, Note_on_c, 12, 74, 48
13, 62206, Note_on_c, 12, 74, 0
13, 62208, Note_on_c, 12, 74, 48
13, 62254, Note_on_c, 12, 74, 0
13, 62256, Note_on_c, 12, 74, 48
13, 62302, Note_on_c, 12, 74, 0
13, 62304, Note_on_c, 12, 74, 48
13, 62350, Note_on_c, 12, 74, 0
13, 62352, Note_on_c, 12, 74, 48
13, 62398, Note_on_c, 12, 74, 0
13, 62400, Note_on_c, 12, 74, 48
13, 62446, Note_on_c, 12, 74, 0
13, 62448, Note_on_c, 12, 74, 48
13, 62494, Note_on_c, 12, 74, 0
13, 62496, Note_on_c, 12, 74, 48
13, 62542, Note_on_c, 12, 74, 0
13, 62544, Note_on_c, 12, 74, 48
13, 62590, Note_on_c, 12, 74, 0
13, 62592, Note_on_c, 12, 74, 48
13, 62638, Note_on_c, 12, 74, 0
13, 62640, Note_on_c, 12, 74, 48
13, 62686, Note_on_c, 12, 74, 0
13, 62688, Note_on_c, 12, 74, 48
13, 62734, Note_on_c, 12, 74, 0
13, 62736, Note_on_c, 12, 74, 48
13, 62782, Note_on_c, 12, 74, 0
13, 62784, Note_on_c, 12, 74, 48
13, 62830, Note_on_c, 12, 74, 0
13, 62832, Note_on_c, 12, 74, 48
13, 62878, Note_on_c, 12, 74, 0
13, 62880, Note_on_c, 12, 74, 48
13, 62926, Note_on_c, 12, 74, 0
13, 62928, Note_on_c, 12, 74, 48
13, 62974, Note_on_c, 12, 74, 0
13, 62976, Note_on_c, 12, 74, 48
13, 63044, Note_on_c, 12, 74, 0
13, 63072, Note_on_c, 12, 74, 108
13, 63112, Note_on_c, 12, 74, 0
13, 63168, Note_on_c, 12, 74, 108
13, 63208, Note_on_c, 12, 74, 0
13, 63264, Note_on_c, 12, 74, 108
13, 63304, Note_on_c, 12, 74, 0
13, 63360, Note_on_c, 12, 74, 108
13, 63400, Note_on_c, 12, 74, 0
13, 63456, Note_on_c, 12, 74, 108
13, 63496, Note_on_c, 12, 74, 0
13, 63552, Note_on_c, 12, 74, 108
13, 63592, Note_on_c, 12, 74, 0
13, 63648, Note_on_c, 12, 74, 108
13, 63688, Note_on_c, 12, 74, 0
13, 63744, Note_on_c, 12, 68, 103
13, 63982, Note_on_c, 12, 68, 0
13, 64032, Note_on_c, 12, 68, 103
13, 64052, Note_on_c, 12, 68, 0
13, 64052, Note_on_c, 12, 69, 103
13, 64072, Note_on_c, 12, 69, 0
13, 64072, Note_on_c, 12, 68, 103
13, 64092, Note_on_c, 12, 68, 0
13, 64092, Note_on_c, 12, 66, 103
13, 64110, Note_on_c, 12, 66, 0
13, 64110, Note_on_c, 12, 68, 103
13, 64128, Note_on_c, 12, 68, 0
13, 64128, Note_on_c, 12, 69, 103
13, 64168, Note_on_c, 12, 69, 0
13, 64224, Note_on_c, 12, 69, 103
13, 64264, Note_on_c, 12, 69, 0
13, 64320, Note_on_c, 12, 71, 103
13, 64360, Note_on_c, 12, 71, 0
13, 64416, Note_on_c, 12, 71, 103
13, 64456, Note_on_c, 12, 71, 0
13, 64512, Note_on_c, 12, 72, 103
13, 64560, Note_on_c, 12, 72, 0
13, 64608, Note_on_c, 12, 72, 103
13, 64648, Note_on_c, 12, 72, 0
13, 64800, Note_on_c, 12, 66, 103
13, 64820, Note_on_c, 12, 66, 0
13, 64820, Note_on_c, 12, 67, 103
13, 64840, Note_on_c, 12, 67, 0
13, 64840, Note_on_c, 12, 66, 103
13, 64860, Note_on_c, 12, 66, 0
13, 64860, Note_on_c, 12, 64, 103
13, 64878, Note_on_c, 12, 64, 0
13, 64878, Note_on_c, 12, 66, 103
13, 64896, Note_on_c, 12, 66, 0
13, 64896, Note_on_c, 12, 67, 103
13, 64936, Note_on_c, 12, 67, 0
13, 64992, Note_on_c, 12, 67, 103
13, 65032, Note_on_c, 12, 67, 0
13, 65088, Note_on_c, 12, 69, 103
13, 65128, Note_on_c, 12, 69, 0
13, 65184, Note_on_c, 12, 69, 103
13, 65224, Note_on_c, 12, 69, 0
13, 65280, Note_on_c, 12, 71, 103
13, 65328, Note_on_c, 12, 71, 0
13, 65376, Note_on_c, 12, 71, 103
13, 65416, Note_on_c, 12, 71, 0
13, 65568, Note_on_c, 12, 71, 103
13, 65588, Note_on_c, 12, 71, 0
13, 65588, Note_on_c, 12, 72, 103
13, 65608, Note_on_c, 12, 72, 0
13, 65608, Note_on_c, 12, 71, 103
13, 65628, Note_on_c, 12, 71, 0
13, 65628, Note_on_c, 12, 69, 103
13, 65646, Note_on_c, 12, 69, 0
13, 65646, Note_on_c, 12, 71, 103
13, 65664, Note_on_c, 12, 71, 0
13, 65664, Note_on_c, 12, 72, 103
13, 65704, Note_on_c, 12, 72, 0
13, 65760, Note_on_c, 12, 72, 103
13, 65800, Note_on_c, 12, 72, 0
13, 65856, Note_on_c, 12, 74, 103
13, 65896, Note_on_c, 12, 74, 0
13, 65952, Note_on_c, 12, 74, 103
13, 65992, Note_on_c, 12, 74, 0
13, 66048, Note_on_c, 12, 76, 103
13, 66168, Note_on_c, 12, 76, 0
13, 66240, Note_on_c, 12, 79, 103
13, 66360, Note_on_c, 12, 79, 0
13, 66432, Note_on_c, 12, 76, 103
13, 66552, Note_on_c, 12, 76, 0
13, 66624, Note_on_c, 12, 72, 103
13, 66744, Note_on_c, 12, 72, 0
13, 66816, Note_on_c, 12, 71, 103
13, 66870, Note_on_c, 12, 71, 0
13, 66912, Note_on_c, 12, 74, 103
13, 66948, Note_on_c, 12, 74, 0
13, 66960, Note_on_c, 12, 79, 103
13, 66996, Note_on_c, 12, 79, 0
13, 67008, Note_on_c, 12, 83, 103
13, 67054, Note_on_c, 12, 83, 0
13, 67104, Note_on_c, 12, 83, 103
13, 67150, Note_on_c, 12, 83, 0
13, 67200, Note_on_c, 12, 83, 103
13, 67296, Note_on_c, 12, 83, 0
13, 67296, Note_on_c, 12, 81, 103
13, 67364, Note_on_c, 12, 81, 0
13, 67392, Note_on_c, 12, 79, 103
13, 67428, Note_on_c, 12, 79, 0
13, 67488, Note_on_c, 12, 78, 103
13, 67524, Note_on_c, 12, 78, 0
13, 67680, Note_on_c, 12, 74, 107
13, 67719, Note_on_c, 12, 74, 0
13, 67776, Note_on_c, 12, 74, 108
13, 67815, Note_on_c, 12, 74, 0
13, 67872, Note_on_c, 12, 74, 108
13, 67911, Note_on_c, 12, 74, 0
13, 67968, Note_on_c, 12, 74, 108
13, 68007, Note_on_c, 12, 74, 0
13, 68064, Note_on_c, 12, 74, 108
13, 68103, Note_on_c, 12, 74, 0
13, 68160, Note_on_c, 12, 74, 108
13, 68199, Note_on_c, 12, 74, 0
13, 68256, Note_on_c, 12, 74, 107
13, 68295, Note_on_c, 12, 74, 0
13, 68352, Note_on_c, 12, 68, 106
13, 68590, Note_on_c, 12, 68, 0
13, 68640, Note_on_c, 12, 68, 103
13, 68660, Note_on_c, 12, 68, 0
13, 68660, Note_on_c, 12, 69, 103
13, 68680, Note_on_c, 12, 69, 0
13, 68680, Note_on_c, 12, 68, 103
13, 68700, Note_on_c, 12, 68, 0
13, 68700, Note_on_c, 12, 66, 103
13, 68718, Note_on_c, 12, 66, 0
13, 68718, Note_on_c, 12, 68, 103
13, 68736, Note_on_c, 12, 68, 0
13, 68736, Note_on_c, 12, 69, 103
13, 68780, Note_on_c, 12, 69, 0
13, 68832, Note_on_c, 12, 69, 103
13, 68876, Note_on_c, 12, 69, 0
13, 68928, Note_on_c, 12, 71, 103
13, 68972, Note_on_c, 12, 71, 0
13, 69024, Note_on_c, 12, 71, 103
13, 69068, Note_on_c, 12, 71, 0
13, 69120, Note_on_c, 12, 72, 103
13, 69168, Note_on_c, 12, 72, 0
13, 69216, Note_on_c, 12, 72, 103
13, 69256, Note_on_c, 12, 72, 0
13, 69408, Note_on_c, 12, 66, 103
13, 69428, Note_on_c, 12, 66, 0
13, 69428, Note_on_c, 12, 67, 103
13, 69448, Note_on_c, 12, 67, 0
13, 69448, Note_on_c, 12, 66, 103
13, 69468, Note_on_c, 12, 66, 0
13, 69468, Note_on_c, 12, 64, 103
13, 69486, Note_on_c, 12, 64, 0
13, 69486, Note_on_c, 12, 66, 103
13, 69504, Note_on_c, 12, 66, 0
13, 69504, Note_on_c, 12, 67, 103
13, 69548, Note_on_c, 12, 67, 0
13, 69600, Note_on_c, 12, 67, 103
13, 69644, Note_on_c, 12, 67, 0
13, 69696, Note_on_c, 12, 69, 103
13, 69740, Note_on_c, 12, 69, 0
13, 69792, Note_on_c, 12, 69, 103
13, 69836, Note_on_c, 12, 69, 0
13, 69888, Note_on_c, 12, 71, 103
13, 69936, Note_on_c, 12, 71, 0
13, 69984, Note_on_c, 12, 71, 103
13, 70024, Note_on_c, 12, 71, 0
13, 70176, Note_on_c, 12, 71, 103
13, 70196, Note_on_c, 12, 71, 0
13, 70196, Note_on_c, 12, 72, 103
13, 70216, Note_on_c, 12, 72, 0
13, 70216, Note_on_c, 12, 71, 103
13, 70236, Note_on_c, 12, 71, 0
13, 70236, Note_on_c, 12, 69, 103
13, 70254, Note_on_c, 12, 69, 0
13, 70254, Note_on_c, 12, 71, 103
13, 70272, Note_on_c, 12, 71, 0
13, 70272, Note_on_c, 12, 72, 103
13, 70316, Note_on_c, 12, 72, 0
13, 70368, Note_on_c, 12, 72, 103
13, 70412, Note_on_c, 12, 72, 0
13, 70464, Note_on_c, 12, 74, 103
13, 70508, Note_on_c, 12, 74, 0
13, 70560, Note_on_c, 12, 74, 103
13, 70604, Note_on_c, 12, 74, 0
13, 70656, Note_on_c, 12, 76, 103
13, 70758, Note_on_c, 12, 76, 0
13, 72192, Note_on_c, 12, 58, 103
13, 72370, Note_on_c, 12, 58, 0
13, 72960, Note_on_c, 12, 62, 103
13, 72988, Note_on_c, 12, 62, 0
13, 72988, Note_on_c, 12, 61, 103
13, 73016, Note_on_c, 12, 61, 0
13, 73016, Note_on_c, 12, 62, 103
13, 73044, Note_on_c, 12, 62, 0
13, 73044, Note_on_c, 12, 61, 103
13, 73072, Note_on_c, 12, 61, 0
13, 73072, Note_on_c, 12, 62, 103
13, 73100, Note_on_c, 12, 62, 0
13, 73100, Note_on_c, 12, 61, 103
13, 73132, Note_on_c, 12, 61, 0
13, 73152, Note_on_c, 12, 64, 103
13, 73196, Note_on_c, 12, 64, 0
13, 73248, Note_on_c, 12, 67, 103
13, 73292, Note_on_c, 12, 67, 0
13, 73344, Note_on_c, 12, 70, 103
13, 73388, Note_on_c, 12, 70, 0
13, 73440, Note_on_c, 12, 73, 103
13, 73484, Note_on_c, 12, 73, 0
13, 73536, Note_on_c, 12, 76, 103
13, 73580, Note_on_c, 12, 76, 0
13, 73632, Note_on_c, 12, 79, 103
13, 73676, Note_on_c, 12, 79, 0
13, 73728, Note_on_c, 12, 79, 103
13, 73782, Note_on_c, 12, 79, 0
13, 73824, Note_on_c, 12, 79, 103
13, 73980, Note_on_c, 12, 79, 0
13, 74016, Note_on_c, 12, 79, 103
13, 74172, Note_on_c, 12, 79, 0
13, 74208, Note_on_c, 12, 79, 103
13, 74364, Note_on_c, 12, 79, 0
13, 74400, Note_on_c, 12, 79, 103
13, 74564, Note_on_c, 12, 79, 0
13, 74592, Note_on_c, 12, 79, 103
13, 74640, Note_on_c, 12, 79, 0
13, 74688, Note_on_c, 12, 79, 103
13, 74736, Note_on_c, 12, 79, 0
13, 74784, Note_on_c, 12, 79, 103
13, 74832, Note_on_c, 12, 79, 0
13, 74880, Note_on_c, 12, 79, 103
13, 74928, Note_on_c, 12, 79, 0
13, 74976, Note_on_c, 12, 79, 103
13, 75024, Note_on_c, 12, 79, 0
13, 75072, Note_on_c, 12, 79, 103
13, 75120, Note_on_c, 12, 79, 0
13, 75168, Note_on_c, 12, 79, 103
13, 75216, Note_on_c, 12, 79, 0
13, 75264, Note_on_c, 12, 79, 103
13, 75312, Note_on_c, 12, 79, 0
13, 75360, Note_on_c, 12, 79, 103
13, 75408, Note_on_c, 12, 79, 0
13, 75456, Note_on_c, 12, 79, 103
13, 75504, Note_on_c, 12, 79, 0
13, 75552, Note_on_c, 12, 79, 103
13, 75600, Note_on_c, 12, 79, 0
13, 75648, Note_on_c, 12, 79, 103
13, 75696, Note_on_c, 12, 79, 0
13, 75744, Note_on_c, 12, 79, 103
13, 75792, Note_on_c, 12, 79, 0
13, 75840, Note_on_c, 12, 79, 103
13, 75888, Note_on_c, 12, 79, 0
13, 75936, Note_on_c, 12, 79, 103
13, 75984, Note_on_c, 12, 79, 0
13, 76032, Note_on_c, 12, 79, 103
13, 76166, Note_on_c, 12, 79, 0
13, 76224, Note_on_c, 12, 71, 103
13, 76354, Note_on_c, 12, 71, 0
13, 76416, Note_on_c, 12, 74, 103
13, 76546, Note_on_c, 12, 74, 0
13, 76608, Note_on_c, 12, 79, 103
13, 76608, Note_on_c, 12, 71, 103
13, 76692, Note_on_c, 12, 71, 0
13, 76738, Note_on_c, 12, 79, 0
13, 76788, Note_on_c, 12, 71, 103
13, 76800, Note_on_c, 12, 83, 103
13, 76886, Note_on_c, 12, 71, 0
13, 76956, Note_on_c, 12, 83, 0
13, 79104, Note_on_c, 12, 62, 47
13, 79488, Note_on_c, 12, 62, 0
13, 79488, Note_on_c, 12, 66, 47
13, 79842, Note_on_c, 12, 66, 0
13, 79920, Note_on_c, 12, 62, 82
13, 79966, Note_on_c, 12, 62, 0
13, 79968, Note_on_c, 12, 62, 82
13, 80014, Note_on_c, 12, 62, 0
13, 80016, Note_on_c, 12, 62, 82
13, 80062, Note_on_c, 12, 62, 0
13, 80064, Note_on_c, 12, 62, 82
13, 80110, Note_on_c, 12, 62, 0
13, 80112, Note_on_c, 12, 62, 82
13, 80158, Note_on_c, 12, 62, 0
13, 80160, Note_on_c, 12, 62, 82
13, 80206, Note_on_c, 12, 62, 0
13, 80208, Note_on_c, 12, 62, 82
13, 80254, Note_on_c, 12, 62, 0
13, 80256, Note_on_c, 12, 62, 82
13, 80256, Note_on_c, 12, 59, 82
13, 80302, Note_on_c, 12, 59, 0
13, 80302, Note_on_c, 12, 62, 0
13, 80304, Note_on_c, 12, 62, 82
13, 80304, Note_on_c, 12, 59, 82
13, 80350, Note_on_c, 12, 59, 0
13, 80350, Note_on_c, 12, 62, 0
13, 80352, Note_on_c, 12, 62, 82
13, 80352, Note_on_c, 12, 59, 82
13, 80398, Note_on_c, 12, 59, 0
13, 80398, Note_on_c, 12, 62, 0
13, 80400, Note_on_c, 12, 62, 82
13, 80400, Note_on_c, 12, 59, 82
13, 80446, Note_on_c, 12, 59, 0
13, 80446, Note_on_c, 12, 62, 0
13, 80448, Note_on_c, 12, 62, 82
13, 80448, Note_on_c, 12, 59, 82
13, 80494, Note_on_c, 12, 59, 0
13, 80494, Note_on_c, 12, 62, 0
13, 80496, Note_on_c, 12, 62, 82
13, 80496, Note_on_c, 12, 59, 82
13, 80542, Note_on_c, 12, 59, 0
13, 80542, Note_on_c, 12, 62, 0
13, 80544, Note_on_c, 12, 62, 82
13, 80544, Note_on_c, 12, 59, 82
13, 80590, Note_on_c, 12, 59, 0
13, 80590, Note_on_c, 12, 62, 0
13, 80592, Note_on_c, 12, 62, 82
13, 80592, Note_on_c, 12, 59, 82
13, 80638, Note_on_c, 12, 59, 0
13, 80638, Note_on_c, 12, 62, 0
13, 80640, Note_on_c, 12, 62, 82
13, 80640, Note_on_c, 12, 60, 82
13, 80686, Note_on_c, 12, 60, 0
13, 80686, Note_on_c, 12, 62, 0
13, 80688, Note_on_c, 12, 62, 82
13, 80688, Note_on_c, 12, 60, 82
13, 80734, Note_on_c, 12, 60, 0
13, 80734, Note_on_c, 12, 62, 0
13, 80736, Note_on_c, 12, 62, 82
13, 80736, Note_on_c, 12, 60, 82
13, 80782, Note_on_c, 12, 60, 0
13, 80782, Note_on_c, 12, 62, 0
13, 80784, Note_on_c, 12, 62, 82
13, 80784, Note_on_c, 12, 60, 82
13, 80830, Note_on_c, 12, 60, 0
13, 80830, Note_on_c, 12, 62, 0
13, 80832, Note_on_c, 12, 62, 82
13, 80832, Note_on_c, 12, 60, 82
13, 80878, Note_on_c, 12, 60, 0
13, 80878, Note_on_c, 12, 62, 0
13, 80880, Note_on_c, 12, 62, 82
13, 80880, Note_on_c, 12, 60, 82
13, 80926, Note_on_c, 12, 60, 0
13, 80926, Note_on_c, 12, 62, 0
13, 80928, Note_on_c, 12, 62, 82
13, 80928, Note_on_c, 12, 60, 82
13, 80974, Note_on_c, 12, 60, 0
13, 80974, Note_on_c, 12, 62, 0
13, 80976, Note_on_c, 12, 62, 82
13, 80976, Note_on_c, 12, 60, 82
13, 81022, Note_on_c, 12, 60, 0
13, 81022, Note_on_c, 12, 62, 0
13, 81024, Note_on_c, 12, 62, 82
13, 81024, Note_on_c, 12, 60, 82
13, 81070, Note_on_c, 12, 60, 0
13, 81070, Note_on_c, 12, 62, 0
13, 81072, Note_on_c, 12, 62, 82
13, 81072, Note_on_c, 12, 60, 82
13, 81118, Note_on_c, 12, 60, 0
13, 81118, Note_on_c, 12, 62, 0
13, 81120, Note_on_c, 12, 62, 82
13, 81120, Note_on_c, 12, 60, 82
13, 81166, Note_on_c, 12, 60, 0
13, 81166, Note_on_c, 12, 62, 0
13, 81168, Note_on_c, 12, 62, 82
13, 81168, Note_on_c, 12, 60, 82
13, 81214, Note_on_c, 12, 60, 0
13, 81214, Note_on_c, 12, 62, 0
13, 81216, Note_on_c, 12, 62, 82
13, 81216, Note_on_c, 12, 60, 82
13, 81262, Note_on_c, 12, 60, 0
13, 81262, Note_on_c, 12, 62, 0
13, 81264, Note_on_c, 12, 62, 82
13, 81264, Note_on_c, 12, 60, 82
13, 81310, Note_on_c, 12, 60, 0
13, 81310, Note_on_c, 12, 62, 0
13, 81312, Note_on_c, 12, 62, 82
13, 81312, Note_on_c, 12, 60, 82
13, 81358, Note_on_c, 12, 60, 0
13, 81358, Note_on_c, 12, 62, 0
13, 81360, Note_on_c, 12, 62, 82
13, 81360, Note_on_c, 12, 60, 82
13, 81406, Note_on_c, 12, 60, 0
13, 81406, Note_on_c, 12, 62, 0
13, 81408, Note_on_c, 12, 62, 82
13, 81408, Note_on_c, 12, 59, 82
13, 81454, Note_on_c, 12, 59, 0
13, 81454, Note_on_c, 12, 62, 0
13, 81456, Note_on_c, 12, 62, 82
13, 81456, Note_on_c, 12, 59, 82
13, 81502, Note_on_c, 12, 59, 0
13, 81502, Note_on_c, 12, 62, 0
13, 81504, Note_on_c, 12, 62, 82
13, 81504, Note_on_c, 12, 59, 82
13, 81550, Note_on_c, 12, 59, 0
13, 81550, Note_on_c, 12, 62, 0
13, 81552, Note_on_c, 12, 62, 82
13, 81552, Note_on_c, 12, 59, 82
13, 81598, Note_on_c, 12, 59, 0
13, 81598, Note_on_c, 12, 62, 0
13, 81600, Note_on_c, 12, 62, 82
13, 81600, Note_on_c, 12, 59, 82
13, 81646, Note_on_c, 12, 59, 0
13, 81646, Note_on_c, 12, 62, 0
13, 81648, Note_on_c, 12, 62, 82
13, 81648, Note_on_c, 12, 59, 82
13, 81694, Note_on_c, 12, 59, 0
13, 81694, Note_on_c, 12, 62, 0
13, 81696, Note_on_c, 12, 62, 82
13, 81696, Note_on_c, 12, 59, 82
13, 81742, Note_on_c, 12, 59, 0
13, 81742, Note_on_c, 12, 62, 0
13, 81744, Note_on_c, 12, 62, 82
13, 81744, Note_on_c, 12, 59, 82
13, 81790, Note_on_c, 12, 59, 0
13, 81790, Note_on_c, 12, 62, 0
13, 81792, Note_on_c, 12, 62, 82
13, 81792, Note_on_c, 12, 59, 82
13, 81838, Note_on_c, 12, 59, 0
13, 81838, Note_on_c, 12, 62, 0
13, 81840, Note_on_c, 12, 62, 82
13, 81840, Note_on_c, 12, 59, 82
13, 81886, Note_on_c, 12, 59, 0
13, 81886, Note_on_c, 12, 62, 0
13, 81888, Note_on_c, 12, 62, 82
13, 81888, Note_on_c, 12, 59, 82
13, 81934, Note_on_c, 12, 59, 0
13, 81934, Note_on_c, 12, 62, 0
13, 81936, Note_on_c, 12, 62, 82
13, 81936, Note_on_c, 12, 59, 82
13, 81982, Note_on_c, 12, 59, 0
13, 81982, Note_on_c, 12, 62, 0
13, 81984, Note_on_c, 12, 62, 82
13, 81984, Note_on_c, 12, 59, 82
13, 82030, Note_on_c, 12, 59, 0
13, 82030, Note_on_c, 12, 62, 0
13, 82032, Note_on_c, 12, 62, 82
13, 82032, Note_on_c, 12, 59, 82
13, 82078, Note_on_c, 12, 59, 0
13, 82078, Note_on_c, 12, 62, 0
13, 82080, Note_on_c, 12, 62, 82
13, 82080, Note_on_c, 12, 59, 82
13, 82126, Note_on_c, 12, 59, 0
13, 82126, Note_on_c, 12, 62, 0
13, 82128, Note_on_c, 12, 62, 82
13, 82128, Note_on_c, 12, 59, 82
13, 82174, Note_on_c, 12, 59, 0
13, 82174, Note_on_c, 12, 62, 0
13, 82176, Note_on_c, 12, 62, 82
13, 82176, Note_on_c, 12, 60, 82
13, 82222, Note_on_c, 12, 60, 0
13, 82222, Note_on_c, 12, 62, 0
13, 82224, Note_on_c, 12, 62, 82
13, 82224, Note_on_c, 12, 60, 82
13, 82270, Note_on_c, 12, 60, 0
13, 82270, Note_on_c, 12, 62, 0
13, 82272, Note_on_c, 12, 62, 82
13, 82272, Note_on_c, 12, 60, 82
13, 82318, Note_on_c, 12, 60, 0
13, 82318, Note_on_c, 12, 62, 0
13, 82320, Note_on_c, 12, 62, 82
13, 82320, Note_on_c, 12, 60, 82
13, 82366, Note_on_c, 12, 60, 0
13, 82366, Note_on_c, 12, 62, 0
13, 82368, Note_on_c, 12, 62, 82
13, 82368, Note_on_c, 12, 60, 82
13, 82414, Note_on_c, 12, 60, 0
13, 82414, Note_on_c, 12, 62, 0
13, 82416, Note_on_c, 12, 62, 82
13, 82416, Note_on_c, 12, 60, 82
13, 82462, Note_on_c, 12, 60, 0
13, 82462, Note_on_c, 12, 62, 0
13, 82464, Note_on_c, 12, 62, 82
13, 82464, Note_on_c, 12, 60, 82
13, 82510, Note_on_c, 12, 60, 0
13, 82510, Note_on_c, 12, 62, 0
13, 82512, Note_on_c, 12, 62, 82
13, 82512, Note_on_c, 12, 60, 82
13, 82558, Note_on_c, 12, 60, 0
13, 82558, Note_on_c, 12, 62, 0
13, 82560, Note_on_c, 12, 62, 82
13, 82560, Note_on_c, 12, 60, 82
13, 82606, Note_on_c, 12, 60, 0
13, 82606, Note_on_c, 12, 62, 0
13, 82608, Note_on_c, 12, 62, 82
13, 82608, Note_on_c, 12, 60, 82
13, 82654, Note_on_c, 12, 60, 0
13, 82654, Note_on_c, 12, 62, 0
13, 82656, Note_on_c, 12, 62, 82
13, 82656, Note_on_c, 12, 60, 82
13, 82702, Note_on_c, 12, 60, 0
13, 82702, Note_on_c, 12, 62, 0
13, 82704, Note_on_c, 12, 62, 82
13, 82704, Note_on_c, 12, 60, 82
13, 82750, Note_on_c, 12, 60, 0
13, 82750, Note_on_c, 12, 62, 0
13, 82752, Note_on_c, 12, 62, 82
13, 82752, Note_on_c, 12, 60, 82
13, 82798, Note_on_c, 12, 60, 0
13, 82798, Note_on_c, 12, 62, 0
13, 82800, Note_on_c, 12, 62, 82
13, 82800, Note_on_c, 12, 60, 82
13, 82846, Note_on_c, 12, 60, 0
13, 82846, Note_on_c, 12, 62, 0
13, 82848, Note_on_c, 12, 62, 82
13, 82848, Note_on_c, 12, 60, 82
13, 82894, Note_on_c, 12, 60, 0
13, 82894, Note_on_c, 12, 62, 0
13, 82896, Note_on_c, 12, 62, 82
13, 82896, Note_on_c, 12, 60, 82
13, 82942, Note_on_c, 12, 60, 0
13, 82942, Note_on_c, 12, 62, 0
13, 82944, Note_on_c, 12, 62, 82
13, 82944, Note_on_c, 12, 59, 82
13, 83122, Note_on_c, 12, 59, 0
13, 83122, Note_on_c, 12, 62, 0
13, 83520, Note_on_c, 12, 81, 82
13, 83520, Note_on_c, 12, 72, 82
13, 83640, Note_on_c, 12, 72, 0
13, 83640, Note_on_c, 12, 81, 0
13, 83696, Note_on_c, 12, 62, 82
13, 83704, Note_on_c, 12, 71, 82
13, 83712, Note_on_c, 12, 79, 82
13, 83792, Note_on_c, 12, 62, 0
13, 83809, Note_on_c, 12, 71, 0
13, 83886, Note_on_c, 12, 79, 0
13, 84272, Note_on_c, 12, 62, 82
13, 84280, Note_on_c, 12, 69, 82
13, 84288, Note_on_c, 12, 78, 82
13, 84364, Note_on_c, 12, 62, 0
13, 84376, Note_on_c, 12, 69, 0
13, 84408, Note_on_c, 12, 78, 0
13, 84480, Note_on_c, 12, 67, 82
13, 84526, Note_on_c, 12, 67, 0
13, 84528, Note_on_c, 12, 67, 82
13, 84574, Note_on_c, 12, 67, 0
13, 84576, Note_on_c, 12, 62, 82
13, 84622, Note_on_c, 12, 62, 0
13, 84624, Note_on_c, 12, 62, 82
13, 84670, Note_on_c, 12, 62, 0
13, 84672, Note_on_c, 12, 59, 82
13, 84718, Note_on_c, 12, 59, 0
13, 84720, Note_on_c, 12, 59, 82
13, 84766, Note_on_c, 12, 59, 0
13, 84768, Note_on_c, 12, 62, 82
13, 84814, Note_on_c, 12, 62, 0
13, 84816, Note_on_c, 12, 62, 82
13, 84862, Note_on_c, 12, 62, 0
13, 84864, Note_on_c, 12, 67, 82
13, 84910, Note_on_c, 12, 67, 0
13, 84912, Note_on_c, 12, 67, 82
13, 84958, Note_on_c, 12, 67, 0
13, 84960, Note_on_c, 12, 71, 82
13, 85006, Note_on_c, 12, 71, 0
13, 85008, Note_on_c, 12, 71, 82
13, 85054, Note_on_c, 12, 71, 0
13, 85056, Note_on_c, 12, 69, 82
13, 85102, Note_on_c, 12, 69, 0
13, 85104, Note_on_c, 12, 69, 82
13, 85150, Note_on_c, 12, 69, 0
13, 85152, Note_on_c, 12, 66, 82
13, 85198, Note_on_c, 12, 66, 0
13, 85200, Note_on_c, 12, 66, 82
13, 85246, Note_on_c, 12, 66, 0
13, 85248, Note_on_c, 12, 67, 82
13, 85294, Note_on_c, 12, 67, 0
13, 85296, Note_on_c, 12, 67, 82
13, 85342, Note_on_c, 12, 67, 0
13, 85344, Note_on_c, 12, 62, 82
13, 85390, Note_on_c, 12, 62, 0
13, 85392, Note_on_c, 12, 62, 82
13, 85438, Note_on_c, 12, 62, 0
13, 85440, Note_on_c, 12, 59, 82
13, 85486, Note_on_c, 12, 59, 0
13, 85488, Note_on_c, 12, 59, 82
13, 85534, Note_on_c, 12, 59, 0
13, 85536, Note_on_c, 12, 62, 82
13, 85582, Note_on_c, 12, 62, 0
13, 85584, Note_on_c, 12, 62, 82
13, 85630, Note_on_c, 12, 62, 0
13, 85632, Note_on_c, 12, 67, 82
13, 85678, Note_on_c, 12, 67, 0
13, 85680, Note_on_c, 12, 67, 82
13, 85726, Note_on_c, 12, 67, 0
13, 85728, Note_on_c, 12, 71, 82
13, 85774, Note_on_c, 12, 71, 0
13, 85776, Note_on_c, 12, 71, 82
13, 85822, Note_on_c, 12, 71, 0
13, 85824, Note_on_c, 12, 72, 82
13, 85870, Note_on_c, 12, 72, 0
13, 85872, Note_on_c, 12, 72, 82
13, 85918, Note_on_c, 12, 72, 0
13, 85920, Note_on_c, 12, 66, 82
13, 85966, Note_on_c, 12, 66, 0
13, 85968, Note_on_c, 12, 66, 82
13, 86016, Note_on_c, 12, 66, 0
13, 96832, Note_on_c, 12, 60, 47
13, 96880, Note_on_c, 12, 60, 0
13, 96896, Note_on_c, 12, 63, 47
13, 96944, Note_on_c, 12, 63, 0
13, 96960, Note_on_c, 12, 63, 45
13, 97008, Note_on_c, 12, 63, 0
13, 97024, Note_on_c, 12, 63, 44
13, 97072, Note_on_c, 12, 63, 0
13, 97088, Note_on_c, 12, 63, 43
13, 97136, Note_on_c, 12, 63, 0
13, 97152, Note_on_c, 12, 60, 47
13, 97200, Note_on_c, 12, 60, 0
13, 97216, Note_on_c, 12, 61, 47
13, 97264, Note_on_c, 12, 61, 0
13, 97280, Note_on_c, 12, 63, 47
13, 97328, Note_on_c, 12, 63, 0
13, 97344, Note_on_c, 12, 63, 45
13, 97392, Note_on_c, 12, 63, 0
13, 97408, Note_on_c, 12, 63, 44
13, 97456, Note_on_c, 12, 63, 0
13, 97472, Note_on_c, 12, 63, 42
13, 97520, Note_on_c, 12, 63, 0
13, 97536, Note_on_c, 12, 60, 47
13, 97584, Note_on_c, 12, 60, 0
13, 97600, Note_on_c, 12, 61, 47
13, 97648, Note_on_c, 12, 61, 0
13, 97664, Note_on_c, 12, 63, 47
13, 97712, Note_on_c, 12, 63, 0
13, 97728, Note_on_c, 12, 63, 46
13, 97776, Note_on_c, 12, 63, 0
13, 97792, Note_on_c, 12, 63, 45
13, 97840, Note_on_c, 12, 63, 0
13, 97856, Note_on_c, 12, 63, 43
13, 97904, Note_on_c, 12, 63, 0
13, 97920, Note_on_c, 12, 60, 47
13, 97968, Note_on_c, 12, 60, 0
13, 97984, Note_on_c, 12, 61, 46
13, 98032, Note_on_c, 12, 61, 0
13, 98048, Note_on_c, 12, 63, 45
13, 98096, Note_on_c, 12, 63, 0
13, 98112, Note_on_c, 12, 63, 44
13, 98160, Note_on_c, 12, 63, 0
13, 98176, Note_on_c, 12, 63, 43
13, 98224, Note_on_c, 12, 63, 0
13, 98240, Note_on_c, 12, 63, 42
13, 98288, Note_on_c, 12, 63, 0
13, 98304, Note_on_c, 12, 58, 47
13, 98352, Note_on_c, 12, 58, 0
13, 98368, Note_on_c, 12, 60, 46
13, 98416, Note_on_c, 12, 60, 0
13, 98432, Note_on_c, 12, 61, 44
13, 98480, Note_on_c, 12, 61, 0
13, 98496, Note_on_c, 12, 61, 42
13, 98544, Note_on_c, 12, 61, 0
13, 98560, Note_on_c, 12, 61, 41
13, 98608, Note_on_c, 12, 61, 0
13, 98624, Note_on_c, 12, 61, 43
13, 98672, Note_on_c, 12, 61, 0
13, 98688, Note_on_c, 12, 58, 47
13, 98736, Note_on_c, 12, 58, 0
13, 98752, Note_on_c, 12, 60, 46
13, 98800, Note_on_c, 12, 60, 0
13, 98816, Note_on_c, 12, 61, 45
13, 98864, Note_on_c, 12, 61, 0
13, 98880, Note_on_c, 12, 61, 44
13, 98928, Note_on_c, 12, 61, 0
13, 98944, Note_on_c, 12, 61, 43
13, 98992, Note_on_c, 12, 61, 0
13, 99008, Note_on_c, 12, 61, 41
13, 99056, Note_on_c, 12, 61, 0
13, 99072, Note_on_c, 12, 58, 47
13, 99120, Note_on_c, 12, 58, 0
13, 99136, Note_on_c, 12, 60, 46
13, 99184, Note_on_c, 12, 60, 0
13, 99200, Note_on_c, 12, 61, 45
13, 99248, Note_on_c, 12, 61, 0
13, 99264, Note_on_c, 12, 61, 44
13, 99312, Note_on_c, 12, 61, 0
13, 99328, Note_on_c, 12, 61, 44
13, 99376, Note_on_c, 12, 61, 0
13, 99392, Note_on_c, 12, 61, 43
13, 99440, Note_on_c, 12, 61, 0
13, 99456, Note_on_c, 12, 58, 47
13, 99504, Note_on_c, 12, 58, 0
13, 99520, Note_on_c, 12, 60, 47
13, 99568, Note_on_c, 12, 60, 0
13, 99584, Note_on_c, 12, 61, 46
13, 99632, Note_on_c, 12, 61, 0
13, 99648, Note_on_c, 12, 61, 45
13, 99696, Note_on_c, 12, 61, 0
13, 99712, Note_on_c, 12, 61, 44
13, 99760, Note_on_c, 12, 61, 0
13, 99776, Note_on_c, 12, 61, 44
13, 99824, Note_on_c, 12, 61, 0
13, 99840, Note_on_c, 12, 60, 47
13, 99888, Note_on_c, 12, 60, 0
13, 99904, Note_on_c, 12, 61, 46
13, 99952, Note_on_c, 12, 61, 0
13, 99968, Note_on_c, 12, 63, 45
13, 100016, Note_on_c, 12, 63, 0
13, 100032, Note_on_c, 12, 63, 44
13, 100080, Note_on_c, 12, 63, 0
13, 100096, Note_on_c, 12, 63, 44
13, 100144, Note_on_c, 12, 63, 0
13, 100160, Note_on_c, 12, 63, 43
13, 100208, Note_on_c, 12, 63, 0
13, 100224, Note_on_c, 12, 60, 47
13, 100272, Note_on_c, 12, 60, 0
13, 100288, Note_on_c, 12, 61, 44
13, 100336, Note_on_c, 12, 61, 0
13, 100352, Note_on_c, 12, 63, 44
13, 100400, Note_on_c, 12, 63, 0
13, 100416, Note_on_c, 12, 63, 44
13, 100464, Note_on_c, 12, 63, 0
13, 100480, Note_on_c, 12, 63, 44
13, 100528, Note_on_c, 12, 63, 0
13, 100544, Note_on_c, 12, 63, 42
13, 100592, Note_on_c, 12, 63, 0
13, 100608, Note_on_c, 12, 60, 47
13, 100656, Note_on_c, 12, 60, 0
13, 100672, Note_on_c, 12, 61, 47
13, 100720, Note_on_c, 12, 61, 0
13, 100736, Note_on_c, 12, 63, 46
13, 100784, Note_on_c, 12, 63, 0
13, 100800, Note_on_c, 12, 63, 45
13, 100848, Note_on_c, 12, 63, 0
13, 100864, Note_on_c, 12, 63, 44
13, 100912, Note_on_c, 12, 63, 0
13, 100928, Note_on_c, 12, 63, 43
13, 100976, Note_on_c, 12, 63, 0
13, 100992, Note_on_c, 12, 60, 47
13, 101040, Note_on_c, 12, 60, 0
13, 101056, Note_on_c, 12, 61, 46
13, 101104, Note_on_c, 12, 61, 0
13, 101120, Note_on_c, 12, 63, 45
13, 101168, Note_on_c, 12, 63, 0
13, 101184, Note_on_c, 12, 63, 44
13, 101232, Note_on_c, 12, 63, 0
13, 101248, Note_on_c, 12, 63, 43
13, 101296, Note_on_c, 12, 63, 0
13, 101312, Note_on_c, 12, 63, 42
13, 101360, Note_on_c, 12, 63, 0
13, 101376, Note_on_c, 12, 58, 47
13, 101424, Note_on_c, 12, 58, 0
13, 101440, Note_on_c, 12, 60, 46
13, 101488, Note_on_c, 12, 60, 0
13, 101504, Note_on_c, 12, 61, 45
13, 101552, Note_on_c, 12, 61, 0
13, 101568, Note_on_c, 12, 61, 44
13, 101616, Note_on_c, 12, 61, 0
13, 101632, Note_on_c, 12, 61, 43
13, 101680, Note_on_c, 12, 61, 0
13, 101696, Note_on_c, 12, 61, 42
13, 101744, Note_on_c, 12, 61, 0
13, 101760, Note_on_c, 12, 58, 47
13, 101808, Note_on_c, 12, 58, 0
13, 101824, Note_on_c, 12, 60, 46
13, 101872, Note_on_c, 12, 60, 0
13, 101888, Note_on_c, 12, 61, 45
13, 101936, Note_on_c, 12, 61, 0
13, 101952, Note_on_c, 12, 61, 44
13, 102000, Note_on_c, 12, 61, 0
13, 102016, Note_on_c, 12, 61, 44
13, 102064, Note_on_c, 12, 61, 0
13, 102080, Note_on_c, 12, 61, 43
13, 102128, Note_on_c, 12, 61, 0
13, 102144, Note_on_c, 12, 58, 46
13, 102192, Note_on_c, 12, 58, 0
13, 102208, Note_on_c, 12, 60, 45
13, 102256, Note_on_c, 12, 60, 0
13, 102272, Note_on_c, 12, 61, 44
13, 102320, Note_on_c, 12, 61, 0
13, 102336, Note_on_c, 12, 61, 42
13, 102384, Note_on_c, 12, 61, 0
13, 102400, Note_on_c, 12, 61, 41
13, 102448, Note_on_c, 12, 61, 0
13, 102464, Note_on_c, 12, 61, 47
13, 102512, Note_on_c, 12, 61, 0
13, 102528, Note_on_c, 12, 58, 47
13, 102576, Note_on_c, 12, 58, 0
13, 102592, Note_on_c, 12, 60, 47
13, 102640, Note_on_c, 12, 60, 0
13, 102656, Note_on_c, 12, 61, 46
13, 102704, Note_on_c, 12, 61, 0
13, 102720, Note_on_c, 12, 61, 44
13, 102768, Note_on_c, 12, 61, 0
13, 102784, Note_on_c, 12, 61, 43
13, 102832, Note_on_c, 12, 61, 0
13, 102848, Note_on_c, 12, 61, 42
13, 102896, Note_on_c, 12, 61, 0
13, 102912, Note_on_c, 12, 60, 41
13, 103090, Note_on_c, 12, 60, 0
13, 103872, Note_on_c, 12, 72, 55
13, 104064, Note_on_c, 12, 72, 0
13, 104064, Note_on_c, 12, 68, 60
13, 104256, Note_on_c, 12, 68, 0
13, 104256, Note_on_c, 12, 65, 62
13, 104434, Note_on_c, 12, 65, 0
13, 104448, Note_on_c, 12, 64, 87
13, 104592, Note_on_c, 12, 64, 0
13, 104592, Note_on_c, 12, 67, 64
13, 104640, Note_on_c, 12, 67, 0
13, 104640, Note_on_c, 12, 70, 60
13, 104818, Note_on_c, 12, 70, 0
13, 105312, Note_on_c, 12, 67, 53
13, 105408, Note_on_c, 12, 67, 0
13, 105408, Note_on_c, 12, 70, 53
13, 105476, Note_on_c, 12, 70, 0
13, 105504, Note_on_c, 12, 64, 53
13, 105600, Note_on_c, 12, 64, 0
13, 105600, Note_on_c, 12, 67, 53
13, 105668, Note_on_c, 12, 67, 0
13, 105696, Note_on_c, 12, 58, 53
13, 105792, Note_on_c, 12, 58, 0
13, 105792, Note_on_c, 12, 61, 53
13, 105860, Note_on_c, 12, 61, 0
13, 105888, Note_on_c, 12, 55, 53
13, 105984, Note_on_c, 12, 55, 0
13, 105984, Note_on_c, 12, 58, 53
13, 106162, Note_on_c, 12, 58, 0
13, 106176, Note_on_c, 12, 56, 53
13, 106332, Note_on_c, 12, 56, 0
13, 106816, Note_on_c, 12, 65, 52
13, 106860, Note_on_c, 12, 65, 0
13, 106880, Note_on_c, 12, 67, 53
13, 106924, Note_on_c, 12, 67, 0
13, 106944, Note_on_c, 12, 68, 54
13, 106988, Note_on_c, 12, 68, 0
13, 107008, Note_on_c, 12, 67, 55
13, 107052, Note_on_c, 12, 67, 0
13, 107072, Note_on_c, 12, 65, 56
13, 107116, Note_on_c, 12, 65, 0
13, 107136, Note_on_c, 12, 63, 57
13, 107180, Note_on_c, 12, 63, 0
13, 107200, Note_on_c, 12, 62, 56
13, 107244, Note_on_c, 12, 62, 0
13, 107264, Note_on_c, 12, 63, 55
13, 107308, Note_on_c, 12, 63, 0
13, 107328, Note_on_c, 12, 65, 55
13, 107372, Note_on_c, 12, 65, 0
13, 107392, Note_on_c, 12, 63, 54
13, 107436, Note_on_c, 12, 63, 0
13, 107456, Note_on_c, 12, 62, 53
13, 107500, Note_on_c, 12, 62, 0
13, 107520, Note_on_c, 12, 60, 52
13, 107712, Note_on_c, 12, 60, 0
13, 107712, Note_on_c, 12, 59, 47
13, 107858, Note_on_c, 12, 59, 0
13, 108480, Note_on_c, 12, 66, 55
13, 108528, Note_on_c, 12, 66, 0
13, 108528, Note_on_c, 12, 67, 55
13, 108624, Note_on_c, 12, 67, 0
13, 108672, Note_on_c, 12, 67, 57
13, 108720, Note_on_c, 12, 67, 0
13, 108720, Note_on_c, 12, 68, 57
13, 108816, Note_on_c, 12, 68, 0
13, 108864, Note_on_c, 12, 68, 59
13, 108912, Note_on_c, 12, 68, 0
13, 108912, Note_on_c, 12, 59, 55
13, 109008, Note_on_c, 12, 59, 0
13, 109056, Note_on_c, 12, 62, 53
13, 109248, Note_on_c, 12, 62, 0
13, 109248, Note_on_c, 12, 60, 51
13, 109395, Note_on_c, 12, 60, 0
13, 109888, Note_on_c, 12, 60, 52
13, 109952, Note_on_c, 12, 60, 0
13, 109952, Note_on_c, 12, 62, 54
13, 110016, Note_on_c, 12, 62, 0
13, 110016, Note_on_c, 12, 63, 56
13, 110080, Note_on_c, 12, 63, 0
13, 110080, Note_on_c, 12, 62, 53
13, 110144, Note_on_c, 12, 62, 0
13, 110144, Note_on_c, 12, 60, 53
13, 110204, Note_on_c, 12, 60, 0
13, 110272, Note_on_c, 12, 63, 53
13, 110336, Note_on_c, 12, 63, 0
13, 110336, Note_on_c, 12, 65, 57
13, 110400, Note_on_c, 12, 65, 0
13, 110400, Note_on_c, 12, 67, 62
13, 110464, Note_on_c, 12, 67, 0
13, 110464, Note_on_c, 12, 65, 61
13, 110528, Note_on_c, 12, 65, 0
13, 110528, Note_on_c, 12, 63, 55
13, 110588, Note_on_c, 12, 63, 0
13, 110592, Note_on_c, 12, 61, 53
13, 110784, Note_on_c, 12, 61, 0
13, 110784, Note_on_c, 12, 62, 51
13, 110930, Note_on_c, 12, 62, 0
13, 111456, Note_on_c, 12, 71, 88
13, 111552, Note_on_c, 12, 71, 0
13, 111552, Note_on_c, 12, 74, 65
13, 111648, Note_on_c, 12, 74, 0
13, 111648, Note_on_c, 12, 72, 53
13, 111744, Note_on_c, 12, 72, 0
13, 111744, Note_on_c, 12, 71, 52
13, 111840, Note_on_c, 12, 71, 0
13, 111840, Note_on_c, 12, 68, 52
13, 111936, Note_on_c, 12, 68, 0
13, 111936, Note_on_c, 12, 67, 52
13, 112032, Note_on_c, 12, 67, 0
13, 112032, Note_on_c, 12, 65, 52
13, 112109, Note_on_c, 12, 65, 0
13, 112128, Note_on_c, 12, 63, 52
13, 112272, Note_on_c, 12, 63, 0
13, 112320, Note_on_c, 12, 67, 52
13, 112469, Note_on_c, 12, 67, 0
13, 112992, Note_on_c, 12, 59, 56
13, 113088, Note_on_c, 12, 59, 0
13, 113088, Note_on_c, 12, 60, 58
13, 113184, Note_on_c, 12, 60, 0
13, 113184, Note_on_c, 12, 62, 58
13, 113280, Note_on_c, 12, 62, 0
13, 113280, Note_on_c, 12, 63, 59
13, 113376, Note_on_c, 12, 63, 0
13, 113376, Note_on_c, 12, 64, 60
13, 113472, Note_on_c, 12, 64, 0
13, 113472, Note_on_c, 12, 65, 60
13, 113568, Note_on_c, 12, 65, 0
13, 113568, Note_on_c, 12, 66, 61
13, 113658, Note_on_c, 12, 66, 0
13, 113664, Note_on_c, 12, 67, 61
13, 113760, Note_on_c, 12, 67, 0
13, 113760, Note_on_c, 12, 62, 103
13, 113856, Note_on_c, 12, 62, 0
13, 113856, Note_on_c, 12, 63, 71
13, 113952, Note_on_c, 12, 63, 0
13, 113952, Note_on_c, 12, 62, 61
13, 114042, Note_on_c, 12, 62, 0
13, 114048, Note_on_c, 12, 63, 53
13, 114384, Note_on_c, 12, 63, 0
13, 114528, Note_on_c, 12, 62, 104
13, 114624, Note_on_c, 12, 62, 0
13, 114624, Note_on_c, 12, 63, 67
13, 114720, Note_on_c, 12, 63, 0
13, 114720, Note_on_c, 12, 62, 58
13, 114810, Note_on_c, 12, 62, 0
13, 114816, Note_on_c, 12, 63, 53
13, 115152, Note_on_c, 12, 63, 0
13, 115200, Note_on_c, 12, 62, 53
13, 115392, Note_on_c, 12, 62, 0
13, 115392, Note_on_c, 12, 63, 53
13, 115584, Note_on_c, 12, 63, 0
13, 115584, Note_on_c, 12, 62, 53
13, 115776, Note_on_c, 12, 62, 0
13, 115776, Note_on_c, 12, 63, 53
13, 115968, Note_on_c, 12, 63, 0
13, 115968, Note_on_c, 12, 62, 53
13, 116160, Note_on_c, 12, 62, 0
13, 116160, Note_on_c, 12, 63, 53
13, 116352, Note_on_c, 12, 63, 0
13, 116352, Note_on_c, 12, 62, 53
13, 116544, Note_on_c, 12, 62, 0
13, 116544, Note_on_c, 12, 63, 53
13, 116710, Note_on_c, 12, 63, 0
13, 116736, Note_on_c, 12, 62, 53
13, 116900, Note_on_c, 12, 62, 0
13, 117120, Note_on_c, 12, 62, 53
13, 117284, Note_on_c, 12, 62, 0
13, 117504, Note_on_c, 12, 62, 53
13, 117668, Note_on_c, 12, 62, 0
13, 118272, Note_on_c, 12, 71, 45
13, 118434, Note_on_c, 12, 71, 0
13, 118656, Note_on_c, 12, 71, 45
13, 118818, Note_on_c, 12, 71, 0
13, 119040, Note_on_c, 12, 71, 45
13, 119202, Note_on_c, 12, 71, 0
13, 124416, Note_on_c, 12, 79, 103
13, 124416, Note_on_c, 12, 72, 103
13, 124462, Note_on_c, 12, 72, 0
13, 124462, Note_on_c, 12, 79, 0
13, 124464, Note_on_c, 12, 79, 103
13, 124464, Note_on_c, 12, 72, 103
13, 124510, Note_on_c, 12, 72, 0
13, 124510, Note_on_c, 12, 79, 0
13, 124512, Note_on_c, 12, 79, 103
13, 124512, Note_on_c, 12, 72, 103
13, 124558, Note_on_c, 12, 72, 0
13, 124558, Note_on_c, 12, 79, 0
13, 124560, Note_on_c, 12, 79, 103
13, 124560, Note_on_c, 12, 72, 103
13, 124606, Note_on_c, 12, 72, 0
13, 124606, Note_on_c, 12, 79, 0
13, 124608, Note_on_c, 12, 79, 103
13, 124608, Note_on_c, 12, 72, 103
13, 124654, Note_on_c, 12, 72, 0
13, 124654, Note_on_c, 12, 79, 0
13, 124656, Note_on_c, 12, 79, 103
13, 124656, Note_on_c, 12, 72, 103
13, 124702, Note_on_c, 12, 72, 0
13, 124702, Note_on_c, 12, 79, 0
13, 124704, Note_on_c, 12, 79, 103
13, 124704, Note_on_c, 12, 72, 103
13, 124750, Note_on_c, 12, 72, 0
13, 124750, Note_on_c, 12, 79, 0
13, 124752, Note_on_c, 12, 79, 103
13, 124752, Note_on_c, 12, 72, 103
13, 124798, Note_on_c, 12, 72, 0
13, 124798, Note_on_c, 12, 79, 0
13, 124800, Note_on_c, 12, 79, 103
13, 124800, Note_on_c, 12, 72, 103
13, 124846, Note_on_c, 12, 72, 0
13, 124846, Note_on_c, 12, 79, 0
13, 124848, Note_on_c, 12, 79, 102
13, 124848, Note_on_c, 12, 72, 102
13, 124894, Note_on_c, 12, 72, 0
13, 124894, Note_on_c, 12, 79, 0
13, 124896, Note_on_c, 12, 79, 102
13, 124896, Note_on_c, 12, 72, 102
13, 124942, Note_on_c, 12, 72, 0
13, 124942, Note_on_c, 12, 79, 0
13, 124944, Note_on_c, 12, 79, 101
13, 124944, Note_on_c, 12, 72, 101
13, 124990, Note_on_c, 12, 72, 0
13, 124990, Note_on_c, 12, 79, 0
13, 124992, Note_on_c, 12, 79, 101
13, 124992, Note_on_c, 12, 72, 101
13, 125038, Note_on_c, 12, 72, 0
13, 125038, Note_on_c, 12, 79, 0
13, 125040, Note_on_c, 12, 79, 100
13, 125040, Note_on_c, 12, 72, 100
13, 125086, Note_on_c, 12, 72, 0
13, 125086, Note_on_c, 12, 79, 0
13, 125088, Note_on_c, 12, 79, 100
13, 125088, Note_on_c, 12, 72, 100
13, 125134, Note_on_c, 12, 72, 0
13, 125134, Note_on_c, 12, 79, 0
13, 125136, Note_on_c, 12, 79, 99
13, 125136, Note_on_c, 12, 72, 99
13, 125182, Note_on_c, 12, 72, 0
13, 125182, Note_on_c, 12, 79, 0
13, 125184, Note_on_c, 12, 79, 99
13, 125184, Note_on_c, 12, 74, 99
13, 125230, Note_on_c, 12, 74, 0
13, 125230, Note_on_c, 12, 79, 0
13, 125232, Note_on_c, 12, 79, 98
13, 125232, Note_on_c, 12, 74, 98
13, 125278, Note_on_c, 12, 74, 0
13, 125278, Note_on_c, 12, 79, 0
13, 125280, Note_on_c, 12, 79, 98
13, 125280, Note_on_c, 12, 74, 98
13, 125326, Note_on_c, 12, 74, 0
13, 125326, Note_on_c, 12, 79, 0
13, 125328, Note_on_c, 12, 79, 97
13, 125328, Note_on_c, 12, 74, 97
13, 125374, Note_on_c, 12, 74, 0
13, 125374, Note_on_c, 12, 79, 0
13, 125376, Note_on_c, 12, 79, 97
13, 125376, Note_on_c, 12, 74, 97
13, 125422, Note_on_c, 12, 74, 0
13, 125422, Note_on_c, 12, 79, 0
13, 125424, Note_on_c, 12, 79, 96
13, 125424, Note_on_c, 12, 74, 96
13, 125470, Note_on_c, 12, 74, 0
13, 125470, Note_on_c, 12, 79, 0
13, 125472, Note_on_c, 12, 79, 96
13, 125472, Note_on_c, 12, 74, 96
13, 125518, Note_on_c, 12, 74, 0
13, 125518, Note_on_c, 12, 79, 0
13, 125520, Note_on_c, 12, 79, 95
13, 125520, Note_on_c, 12, 74, 95
13, 125566, Note_on_c, 12, 74, 0
13, 125566, Note_on_c, 12, 79, 0
13, 125568, Note_on_c, 12, 79, 95
13, 125568, Note_on_c, 12, 74, 95
13, 125614, Note_on_c, 12, 74, 0
13, 125614, Note_on_c, 12, 79, 0
13, 125616, Note_on_c, 12, 79, 95
13, 125616, Note_on_c, 12, 74, 95
13, 125662, Note_on_c, 12, 74, 0
13, 125662, Note_on_c, 12, 79, 0
13, 125664, Note_on_c, 12, 79, 95
13, 125664, Note_on_c, 12, 74, 95
13, 125710, Note_on_c, 12, 74, 0
13, 125710, Note_on_c, 12, 79, 0
13, 125712, Note_on_c, 12, 79, 95
13, 125712, Note_on_c, 12, 74, 95
13, 125758, Note_on_c, 12, 74, 0
13, 125758, Note_on_c, 12, 79, 0
13, 125760, Note_on_c, 12, 79, 95
13, 125760, Note_on_c, 12, 74, 95
13, 125806, Note_on_c, 12, 74, 0
13, 125806, Note_on_c, 12, 79, 0
13, 125808, Note_on_c, 12, 79, 95
13, 125808, Note_on_c, 12, 74, 95
13, 125854, Note_on_c, 12, 74, 0
13, 125854, Note_on_c, 12, 79, 0
13, 125856, Note_on_c, 12, 79, 95
13, 125856, Note_on_c, 12, 74, 95
13, 125902, Note_on_c, 12, 74, 0
13, 125902, Note_on_c, 12, 79, 0
13, 125904, Note_on_c, 12, 79, 95
13, 125904, Note_on_c, 12, 74, 95
13, 125950, Note_on_c, 12, 74, 0
13, 125950, Note_on_c, 12, 79, 0
13, 125952, Note_on_c, 12, 79, 95
13, 125952, Note_on_c, 12, 72, 95
13, 125998, Note_on_c, 12, 72, 0
13, 125998, Note_on_c, 12, 79, 0
13, 126000, Note_on_c, 12, 79, 95
13, 126000, Note_on_c, 12, 72, 95
13, 126046, Note_on_c, 12, 72, 0
13, 126046, Note_on_c, 12, 79, 0
13, 126048, Note_on_c, 12, 79, 95
13, 126048, Note_on_c, 12, 72, 95
13, 126094, Note_on_c, 12, 72, 0
13, 126094, Note_on_c, 12, 79, 0
13, 126096, Note_on_c, 12, 79, 95
13, 126096, Note_on_c, 12, 72, 95
13, 126142, Note_on_c, 12, 72, 0
13, 126142, Note_on_c, 12, 79, 0
13, 126144, Note_on_c, 12, 79, 96
13, 126144, Note_on_c, 12, 72, 96
13, 126190, Note_on_c, 12, 72, 0
13, 126190, Note_on_c, 12, 79, 0
13, 126192, Note_on_c, 12, 79, 96
13, 126192, Note_on_c, 12, 72, 96
13, 126238, Note_on_c, 12, 72, 0
13, 126238, Note_on_c, 12, 79, 0
13, 126240, Note_on_c, 12, 79, 96
13, 126240, Note_on_c, 12, 72, 96
13, 126286, Note_on_c, 12, 72, 0
13, 126286, Note_on_c, 12, 79, 0
13, 126288, Note_on_c, 12, 79, 96
13, 126288, Note_on_c, 12, 72, 96
13, 126334, Note_on_c, 12, 72, 0
13, 126334, Note_on_c, 12, 79, 0
13, 126336, Note_on_c, 12, 79, 96
13, 126336, Note_on_c, 12, 72, 96
13, 126382, Note_on_c, 12, 72, 0
13, 126382, Note_on_c, 12, 79, 0
13, 126384, Note_on_c, 12, 79, 96
13, 126384, Note_on_c, 12, 72, 96
13, 126430, Note_on_c, 12, 72, 0
13, 126430, Note_on_c, 12, 79, 0
13, 126432, Note_on_c, 12, 79, 96
13, 126432, Note_on_c, 12, 72, 96
13, 126478, Note_on_c, 12, 72, 0
13, 126478, Note_on_c, 12, 79, 0
13, 126480, Note_on_c, 12, 79, 96
13, 126480, Note_on_c, 12, 72, 96
13, 126526, Note_on_c, 12, 72, 0
13, 126526, Note_on_c, 12, 79, 0
13, 126528, Note_on_c, 12, 79, 96
13, 126528, Note_on_c, 12, 72, 96
13, 126574, Note_on_c, 12, 72, 0
13, 126574, Note_on_c, 12, 79, 0
13, 126576, Note_on_c, 12, 79, 96
13, 126576, Note_on_c, 12, 72, 96
13, 126622, Note_on_c, 12, 72, 0
13, 126622, Note_on_c, 12, 79, 0
13, 126624, Note_on_c, 12, 79, 96
13, 126624, Note_on_c, 12, 72, 96
13, 126670, Note_on_c, 12, 72, 0
13, 126670, Note_on_c, 12, 79, 0
13, 126672, Note_on_c, 12, 79, 96
13, 126672, Note_on_c, 12, 72, 96
13, 126718, Note_on_c, 12, 72, 0
13, 126718, Note_on_c, 12, 79, 0
13, 126720, Note_on_c, 12, 77, 96
13, 126720, Note_on_c, 12, 72, 96
13, 126766, Note_on_c, 12, 72, 0
13, 126766, Note_on_c, 12, 77, 0
13, 126768, Note_on_c, 12, 77, 96
13, 126768, Note_on_c, 12, 72, 96
13, 126814, Note_on_c, 12, 72, 0
13, 126814, Note_on_c, 12, 77, 0
13, 126816, Note_on_c, 12, 77, 96
13, 126816, Note_on_c, 12, 72, 96
13, 126862, Note_on_c, 12, 72, 0
13, 126862, Note_on_c, 12, 77, 0
13, 126864, Note_on_c, 12, 77, 96
13, 126864, Note_on_c, 12, 72, 96
13, 126910, Note_on_c, 12, 72, 0
13, 126910, Note_on_c, 12, 77, 0
13, 126912, Note_on_c, 12, 77, 96
13, 126912, Note_on_c, 12, 72, 96
13, 126958, Note_on_c, 12, 72, 0
13, 126958, Note_on_c, 12, 77, 0
13, 126960, Note_on_c, 12, 77, 96
13, 126960, Note_on_c, 12, 72, 96
13, 127006, Note_on_c, 12, 72, 0
13, 127006, Note_on_c, 12, 77, 0
13, 127008, Note_on_c, 12, 77, 96
13, 127008, Note_on_c, 12, 72, 96
13, 127054, Note_on_c, 12, 72, 0
13, 127054, Note_on_c, 12, 77, 0
13, 127056, Note_on_c, 12, 77, 96
13, 127056, Note_on_c, 12, 72, 96
13, 127102, Note_on_c, 12, 72, 0
13, 127102, Note_on_c, 12, 77, 0
13, 127104, Note_on_c, 12, 77, 96
13, 127104, Note_on_c, 12, 72, 96
13, 127150, Note_on_c, 12, 72, 0
13, 127150, Note_on_c, 12, 77, 0
13, 127152, Note_on_c, 12, 77, 96
13, 127152, Note_on_c, 12, 72, 96
13, 127198, Note_on_c, 12, 72, 0
13, 127198, Note_on_c, 12, 77, 0
13, 127200, Note_on_c, 12, 77, 96
13, 127200, Note_on_c, 12, 72, 96
13, 127246, Note_on_c, 12, 72, 0
13, 127246, Note_on_c, 12, 77, 0
13, 127248, Note_on_c, 12, 77, 96
13, 127248, Note_on_c, 12, 72, 96
13, 127294, Note_on_c, 12, 72, 0
13, 127294, Note_on_c, 12, 77, 0
13, 127296, Note_on_c, 12, 77, 96
13, 127296, Note_on_c, 12, 72, 96
13, 127342, Note_on_c, 12, 72, 0
13, 127342, Note_on_c, 12, 77, 0
13, 127344, Note_on_c, 12, 77, 96
13, 127344, Note_on_c, 12, 72, 96
13, 127390, Note_on_c, 12, 72, 0
13, 127390, Note_on_c, 12, 77, 0
13, 127392, Note_on_c, 12, 77, 96
13, 127392, Note_on_c, 12, 72, 96
13, 127438, Note_on_c, 12, 72, 0
13, 127438, Note_on_c, 12, 77, 0
13, 127440, Note_on_c, 12, 77, 96
13, 127440, Note_on_c, 12, 72, 96
13, 127486, Note_on_c, 12, 72, 0
13, 127486, Note_on_c, 12, 77, 0
13, 127488, Note_on_c, 12, 77, 96
13, 127488, Note_on_c, 12, 72, 96
13, 127534, Note_on_c, 12, 72, 0
13, 127534, Note_on_c, 12, 77, 0
13, 127536, Note_on_c, 12, 77, 96
13, 127536, Note_on_c, 12, 72, 96
13, 127582, Note_on_c, 12, 72, 0
13, 127582, Note_on_c, 12, 77, 0
13, 127584, Note_on_c, 12, 77, 96
13, 127584, Note_on_c, 12, 72, 96
13, 127630, Note_on_c, 12, 72, 0
13, 127630, Note_on_c, 12, 77, 0
13, 127632, Note_on_c, 12, 77, 96
13, 127632, Note_on_c, 12, 72, 96
13, 127678, Note_on_c, 12, 72, 0
13, 127678, Note_on_c, 12, 77, 0
13, 127680, Note_on_c, 12, 77, 96
13, 127680, Note_on_c, 12, 72, 96
13, 127726, Note_on_c, 12, 72, 0
13, 127726, Note_on_c, 12, 77, 0
13, 127728, Note_on_c, 12, 77, 96
13, 127728, Note_on_c, 12, 72, 96
13, 127774, Note_on_c, 12, 72, 0
13, 127774, Note_on_c, 12, 77, 0
13, 127776, Note_on_c, 12, 77, 96
13, 127776, Note_on_c, 12, 72, 96
13, 127822, Note_on_c, 12, 72, 0
13, 127822, Note_on_c, 12, 77, 0
13, 127824, Note_on_c, 12, 77, 96
13, 127824, Note_on_c, 12, 72, 96
13, 127870, Note_on_c, 12, 72, 0
13, 127870, Note_on_c, 12, 77, 0
13, 127872, Note_on_c, 12, 77, 96
13, 127872, Note_on_c, 12, 72, 96
13, 127918, Note_on_c, 12, 72, 0
13, 127918, Note_on_c, 12, 77, 0
13, 127920, Note_on_c, 12, 77, 96
13, 127920, Note_on_c, 12, 72, 96
13, 127966, Note_on_c, 12, 72, 0
13, 127966, Note_on_c, 12, 77, 0
13, 127968, Note_on_c, 12, 77, 96
13, 127968, Note_on_c, 12, 72, 96
13, 128014, Note_on_c, 12, 72, 0
13, 128014, Note_on_c, 12, 77, 0
13, 128016, Note_on_c, 12, 77, 96
13, 128016, Note_on_c, 12, 72, 96
13, 128062, Note_on_c, 12, 72, 0
13, 128062, Note_on_c, 12, 77, 0
13, 128064, Note_on_c, 12, 77, 96
13, 128064, Note_on_c, 12, 72, 96
13, 128110, Note_on_c, 12, 72, 0
13, 128110, Note_on_c, 12, 77, 0
13, 128112, Note_on_c, 12, 77, 96
13, 128112, Note_on_c, 12, 72, 96
13, 128158, Note_on_c, 12, 72, 0
13, 128158, Note_on_c, 12, 77, 0
13, 128160, Note_on_c, 12, 77, 96
13, 128160, Note_on_c, 12, 72, 96
13, 128206, Note_on_c, 12, 72, 0
13, 128206, Note_on_c, 12, 77, 0
13, 128208, Note_on_c, 12, 77, 96
13, 128208, Note_on_c, 12, 72, 96
13, 128254, Note_on_c, 12, 72, 0
13, 128254, Note_on_c, 12, 77, 0
13, 128256, Note_on_c, 12, 79, 96
13, 128256, Note_on_c, 12, 72, 96
13, 128302, Note_on_c, 12, 72, 0
13, 128302, Note_on_c, 12, 79, 0
13, 128304, Note_on_c, 12, 79, 96
13, 128304, Note_on_c, 12, 72, 96
13, 128350, Note_on_c, 12, 72, 0
13, 128350, Note_on_c, 12, 79, 0
13, 128352, Note_on_c, 12, 79, 96
13, 128352, Note_on_c, 12, 72, 96
13, 128398, Note_on_c, 12, 72, 0
13, 128398, Note_on_c, 12, 79, 0
13, 128400, Note_on_c, 12, 79, 96
13, 128400, Note_on_c, 12, 72, 96
13, 128446, Note_on_c, 12, 72, 0
13, 128446, Note_on_c, 12, 79, 0
13, 128448, Note_on_c, 12, 79, 96
13, 128448, Note_on_c, 12, 72, 96
13, 128494, Note_on_c, 12, 72, 0
13, 128494, Note_on_c, 12, 79, 0
13, 128496, Note_on_c, 12, 79, 96
13, 128496, Note_on_c, 12, 72, 96
13, 128542, Note_on_c, 12, 72, 0
13, 128542, Note_on_c, 12, 79, 0
13, 128544, Note_on_c, 12, 79, 96
13, 128544, Note_on_c, 12, 72, 96
13, 128590, Note_on_c, 12, 72, 0
13, 128590, Note_on_c, 12, 79, 0
13, 128592, Note_on_c, 12, 79, 96
13, 128592, Note_on_c, 12, 72, 96
13, 128638, Note_on_c, 12, 72, 0
13, 128638, Note_on_c, 12, 79, 0
13, 128640, Note_on_c, 12, 79, 96
13, 128640, Note_on_c, 12, 72, 96
13, 128686, Note_on_c, 12, 72, 0
13, 128686, Note_on_c, 12, 79, 0
13, 128688, Note_on_c, 12, 79, 96
13, 128688, Note_on_c, 12, 72, 96
13, 128734, Note_on_c, 12, 72, 0
13, 128734, Note_on_c, 12, 79, 0
13, 128736, Note_on_c, 12, 79, 96
13, 128736, Note_on_c, 12, 72, 96
13, 128782, Note_on_c, 12, 72, 0
13, 128782, Note_on_c, 12, 79, 0
13, 128784, Note_on_c, 12, 79, 96
13, 128784, Note_on_c, 12, 72, 96
13, 128830, Note_on_c, 12, 72, 0
13, 128830, Note_on_c, 12, 79, 0
13, 128832, Note_on_c, 12, 79, 96
13, 128832, Note_on_c, 12, 72, 96
13, 128878, Note_on_c, 12, 72, 0
13, 128878, Note_on_c, 12, 79, 0
13, 128880, Note_on_c, 12, 79, 96
13, 128880, Note_on_c, 12, 72, 96
13, 128926, Note_on_c, 12, 72, 0
13, 128926, Note_on_c, 12, 79, 0
13, 128928, Note_on_c, 12, 79, 96
13, 128928, Note_on_c, 12, 72, 96
13, 128974, Note_on_c, 12, 72, 0
13, 128974, Note_on_c, 12, 79, 0
13, 128976, Note_on_c, 12, 79, 96
13, 128976, Note_on_c, 12, 72, 96
13, 129022, Note_on_c, 12, 72, 0
13, 129022, Note_on_c, 12, 79, 0
13, 129024, Note_on_c, 12, 79, 96
13, 129024, Note_on_c, 12, 72, 96
13, 129070, Note_on_c, 12, 72, 0
13, 129070, Note_on_c, 12, 79, 0
13, 129072, Note_on_c, 12, 79, 96
13, 129072, Note_on_c, 12, 72, 96
13, 129118, Note_on_c, 12, 72, 0
13, 129118, Note_on_c, 12, 79, 0
13, 129120, Note_on_c, 12, 79, 96
13, 129120, Note_on_c, 12, 72, 96
13, 129166, Note_on_c, 12, 72, 0
13, 129166, Note_on_c, 12, 79, 0
13, 129168, Note_on_c, 12, 79, 96
13, 129168, Note_on_c, 12, 72, 96
13, 129214, Note_on_c, 12, 72, 0
13, 129214, Note_on_c, 12, 79, 0
13, 129216, Note_on_c, 12, 79, 96
13, 129216, Note_on_c, 12, 72, 96
13, 129262, Note_on_c, 12, 72, 0
13, 129262, Note_on_c, 12, 79, 0
13, 129264, Note_on_c, 12, 79, 96
13, 129264, Note_on_c, 12, 72, 96
13, 129310, Note_on_c, 12, 72, 0
13, 129310, Note_on_c, 12, 79, 0
13, 129312, Note_on_c, 12, 79, 96
13, 129312, Note_on_c, 12, 72, 96
13, 129358, Note_on_c, 12, 72, 0
13, 129358, Note_on_c, 12, 79, 0
13, 129360, Note_on_c, 12, 79, 96
13, 129360, Note_on_c, 12, 72, 96
13, 129406, Note_on_c, 12, 72, 0
13, 129406, Note_on_c, 12, 79, 0
13, 129408, Note_on_c, 12, 79, 96
13, 129408, Note_on_c, 12, 72, 96
13, 129454, Note_on_c, 12, 72, 0
13, 129454, Note_on_c, 12, 79, 0
13, 129456, Note_on_c, 12, 79, 96
13, 129456, Note_on_c, 12, 72, 96
13, 129502, Note_on_c, 12, 72, 0
13, 129502, Note_on_c, 12, 79, 0
13, 129504, Note_on_c, 12, 79, 96
13, 129504, Note_on_c, 12, 72, 96
13, 129550, Note_on_c, 12, 72, 0
13, 129550, Note_on_c, 12, 79, 0
13, 129552, Note_on_c, 12, 79, 96
13, 129552, Note_on_c, 12, 72, 96
13, 129598, Note_on_c, 12, 72, 0
13, 129598, Note_on_c, 12, 79, 0
13, 129600, Note_on_c, 12, 79, 96
13, 129600, Note_on_c, 12, 72, 96
13, 129646, Note_on_c, 12, 72, 0
13, 129646, Note_on_c, 12, 79, 0
13, 129648, Note_on_c, 12, 79, 96
13, 129648, Note_on_c, 12, 72, 96
13, 129694, Note_on_c, 12, 72, 0
13, 129694, Note_on_c, 12, 79, 0
13, 129696, Note_on_c, 12, 79, 96
13, 129696, Note_on_c, 12, 72, 96
13, 129742, Note_on_c, 12, 72, 0
13, 129742, Note_on_c, 12, 79, 0
13, 129744, Note_on_c, 12, 79, 96
13, 129744, Note_on_c, 12, 72, 96
13, 129790, Note_on_c, 12, 72, 0
13, 129790, Note_on_c, 12, 79, 0
13, 129792, Note_on_c, 12, 81, 96
13, 129792, Note_on_c, 12, 72, 96
13, 129838, Note_on_c, 12, 72, 0
13, 129838, Note_on_c, 12, 81, 0
13, 129840, Note_on_c, 12, 81, 96
13, 129840, Note_on_c, 12, 72, 96
13, 129886, Note_on_c, 12, 72, 0
13, 129886, Note_on_c, 12, 81, 0
13, 129888, Note_on_c, 12, 81, 96
13, 129888, Note_on_c, 12, 72, 96
13, 129934, Note_on_c, 12, 72, 0
13, 129934, Note_on_c, 12, 81, 0
13, 129936, Note_on_c, 12, 81, 96
13, 129936, Note_on_c, 12, 72, 96
13, 129982, Note_on_c, 12, 72, 0
13, 129982, Note_on_c, 12, 81, 0
13, 129984, Note_on_c, 12, 81, 96
13, 129984, Note_on_c, 12, 72, 96
13, 130030, Note_on_c, 12, 72, 0
13, 130030, Note_on_c, 12, 81, 0
13, 130032, Note_on_c, 12, 81, 96
13, 130032, Note_on_c, 12, 72, 96
13, 130078, Note_on_c, 12, 72, 0
13, 130078, Note_on_c, 12, 81, 0
13, 130080, Note_on_c, 12, 81, 96
13, 130080, Note_on_c, 12, 72, 96
13, 130126, Note_on_c, 12, 72, 0
13, 130126, Note_on_c, 12, 81, 0
13, 130128, Note_on_c, 12, 81, 96
13, 130128, Note_on_c, 12, 72, 96
13, 130174, Note_on_c, 12, 72, 0
13, 130174, Note_on_c, 12, 81, 0
13, 130176, Note_on_c, 12, 81, 96
13, 130176, Note_on_c, 12, 72, 96
13, 130222, Note_on_c, 12, 72, 0
13, 130222, Note_on_c, 12, 81, 0
13, 130224, Note_on_c, 12, 81, 96
13, 130224, Note_on_c, 12, 72, 96
13, 130270, Note_on_c, 12, 72, 0
13, 130270, Note_on_c, 12, 81, 0
13, 130272, Note_on_c, 12, 81, 96
13, 130272, Note_on_c, 12, 72, 96
13, 130318, Note_on_c, 12, 72, 0
13, 130318, Note_on_c, 12, 81, 0
13, 130320, Note_on_c, 12, 81, 96
13, 130320, Note_on_c, 12, 72, 96
13, 130366, Note_on_c, 12, 72, 0
13, 130366, Note_on_c, 12, 81, 0
13, 130368, Note_on_c, 12, 81, 96
13, 130368, Note_on_c, 12, 72, 96
13, 130414, Note_on_c, 12, 72, 0
13, 130414, Note_on_c, 12, 81, 0
13, 130416, Note_on_c, 12, 81, 96
13, 130416, Note_on_c, 12, 72, 96
13, 130462, Note_on_c, 12, 72, 0
13, 130462, Note_on_c, 12, 81, 0
13, 130464, Note_on_c, 12, 81, 96
13, 130464, Note_on_c, 12, 72, 96
13, 130510, Note_on_c, 12, 72, 0
13, 130510, Note_on_c, 12, 81, 0
13, 130512, Note_on_c, 12, 81, 96
13, 130512, Note_on_c, 12, 72, 96
13, 130558, Note_on_c, 12, 72, 0
13, 130558, Note_on_c, 12, 81, 0
13, 130560, Note_on_c, 12, 81, 96
13, 130560, Note_on_c, 12, 72, 96
13, 130606, Note_on_c, 12, 72, 0
13, 130606, Note_on_c, 12, 81, 0
13, 130608, Note_on_c, 12, 81, 96
13, 130608, Note_on_c, 12, 72, 96
13, 130654, Note_on_c, 12, 72, 0
13, 130654, Note_on_c, 12, 81, 0
13, 130656, Note_on_c, 12, 81, 96
13, 130656, Note_on_c, 12, 72, 96
13, 130702, Note_on_c, 12, 72, 0
13, 130702, Note_on_c, 12, 81, 0
13, 130704, Note_on_c, 12, 81, 96
13, 130704, Note_on_c, 12, 72, 96
13, 130750, Note_on_c, 12, 72, 0
13, 130750, Note_on_c, 12, 81, 0
13, 130752, Note_on_c, 12, 81, 96
13, 130752, Note_on_c, 12, 72, 96
13, 130798, Note_on_c, 12, 72, 0
13, 130798, Note_on_c, 12, 81, 0
13, 130800, Note_on_c, 12, 81, 96
13, 130800, Note_on_c, 12, 72, 96
13, 130846, Note_on_c, 12, 72, 0
13, 130846, Note_on_c, 12, 81, 0
13, 130848, Note_on_c, 12, 81, 96
13, 130848, Note_on_c, 12, 72, 96
13, 130894, Note_on_c, 12, 72, 0
13, 130894, Note_on_c, 12, 81, 0
13, 130896, Note_on_c, 12, 81, 96
13, 130896, Note_on_c, 12, 72, 96
13, 130942, Note_on_c, 12, 72, 0
13, 130942, Note_on_c, 12, 81, 0
13, 130944, Note_on_c, 12, 81, 96
13, 130944, Note_on_c, 12, 72, 96
13, 130990, Note_on_c, 12, 72, 0
13, 130990, Note_on_c, 12, 81, 0
13, 130992, Note_on_c, 12, 81, 96
13, 130992, Note_on_c, 12, 72, 96
13, 131038, Note_on_c, 12, 72, 0
13, 131038, Note_on_c, 12, 81, 0
13, 131040, Note_on_c, 12, 81, 96
13, 131040, Note_on_c, 12, 72, 96
13, 131086, Note_on_c, 12, 72, 0
13, 131086, Note_on_c, 12, 81, 0
13, 131088, Note_on_c, 12, 81, 96
13, 131088, Note_on_c, 12, 72, 96
13, 131134, Note_on_c, 12, 72, 0
13, 131134, Note_on_c, 12, 81, 0
13, 131136, Note_on_c, 12, 81, 96
13, 131136, Note_on_c, 12, 72, 96
13, 131182, Note_on_c, 12, 72, 0
13, 131182, Note_on_c, 12, 81, 0
13, 131184, Note_on_c, 12, 81, 96
13, 131184, Note_on_c, 12, 72, 96
13, 131230, Note_on_c, 12, 72, 0
13, 131230, Note_on_c, 12, 81, 0
13, 131232, Note_on_c, 12, 81, 96
13, 131232, Note_on_c, 12, 72, 96
13, 131278, Note_on_c, 12, 72, 0
13, 131278, Note_on_c, 12, 81, 0
13, 131280, Note_on_c, 12, 81, 96
13, 131280, Note_on_c, 12, 72, 96
13, 131326, Note_on_c, 12, 72, 0
13, 131326, Note_on_c, 12, 81, 0
13, 131328, Note_on_c, 12, 79, 96
13, 131328, Note_on_c, 12, 71, 96
13, 131374, Note_on_c, 12, 71, 0
13, 131374, Note_on_c, 12, 79, 0
13, 131376, Note_on_c, 12, 79, 96
13, 131376, Note_on_c, 12, 71, 96
13, 131422, Note_on_c, 12, 71, 0
13, 131422, Note_on_c, 12, 79, 0
13, 131424, Note_on_c, 12, 79, 96
13, 131424, Note_on_c, 12, 71, 96
13, 131470, Note_on_c, 12, 71, 0
13, 131470, Note_on_c, 12, 79, 0
13, 131472, Note_on_c, 12, 79, 96
13, 131472, Note_on_c, 12, 71, 96
13, 131518, Note_on_c, 12, 71, 0
13, 131518, Note_on_c, 12, 79, 0
13, 131520, Note_on_c, 12, 81, 96
13, 131520, Note_on_c, 12, 72, 96
13, 131566, Note_on_c, 12, 72, 0
13, 131566, Note_on_c, 12, 81, 0
13, 131568, Note_on_c, 12, 81, 96
13, 131568, Note_on_c, 12, 72, 96
13, 131614, Note_on_c, 12, 72, 0
13, 131614, Note_on_c, 12, 81, 0
13, 131616, Note_on_c, 12, 81, 96
13, 131616, Note_on_c, 12, 72, 96
13, 131662, Note_on_c, 12, 72, 0
13, 131662, Note_on_c, 12, 81, 0
13, 131664, Note_on_c, 12, 81, 96
13, 131664, Note_on_c, 12, 72, 96
13, 131710, Note_on_c, 12, 72, 0
13, 131710, Note_on_c, 12, 81, 0
13, 131712, Note_on_c, 12, 79, 96
13, 131712, Note_on_c, 12, 71, 96
13, 131758, Note_on_c, 12, 71, 0
13, 131758, Note_on_c, 12, 79, 0
13, 131760, Note_on_c, 12, 79, 96
13, 131760, Note_on_c, 12, 71, 96
13, 131806, Note_on_c, 12, 71, 0
13, 131806, Note_on_c, 12, 79, 0
13, 131808, Note_on_c, 12, 79, 96
13, 131808, Note_on_c, 12, 71, 96
13, 131854, Note_on_c, 12, 71, 0
13, 131854, Note_on_c, 12, 79, 0
13, 131856, Note_on_c, 12, 79, 96
13, 131856, Note_on_c, 12, 71, 96
13, 131902, Note_on_c, 12, 71, 0
13, 131902, Note_on_c, 12, 79, 0
13, 131904, Note_on_c, 12, 81, 96
13, 131904, Note_on_c, 12, 72, 96
13, 131950, Note_on_c, 12, 72, 0
13, 131950, Note_on_c, 12, 81, 0
13, 131952, Note_on_c, 12, 81, 96
13, 131952, Note_on_c, 12, 72, 96
13, 131998, Note_on_c, 12, 72, 0
13, 131998, Note_on_c, 12, 81, 0
13, 132000, Note_on_c, 12, 81, 96
13, 132000, Note_on_c, 12, 72, 96
13, 132046, Note_on_c, 12, 72, 0
13, 132046, Note_on_c, 12, 81, 0
13, 132048, Note_on_c, 12, 81, 96
13, 132048, Note_on_c, 12, 72, 96
13, 132094, Note_on_c, 12, 72, 0
13, 132094, Note_on_c, 12, 81, 0
13, 132096, Note_on_c, 12, 79, 96
13, 132096, Note_on_c, 12, 71, 96
13, 132142, Note_on_c, 12, 71, 0
13, 132142, Note_on_c, 12, 79, 0
13, 132144, Note_on_c, 12, 79, 95
13, 132144, Note_on_c, 12, 71, 95
13, 132190, Note_on_c, 12, 71, 0
13, 132190, Note_on_c, 12, 79, 0
13, 132192, Note_on_c, 12, 79, 95
13, 132192, Note_on_c, 12, 71, 95
13, 132238, Note_on_c, 12, 71, 0
13, 132238, Note_on_c, 12, 79, 0
13, 132240, Note_on_c, 12, 79, 95
13, 132240, Note_on_c, 12, 71, 95
13, 132286, Note_on_c, 12, 71, 0
13, 132286, Note_on_c, 12, 79, 0
13, 132288, Note_on_c, 12, 81, 95
13, 132288, Note_on_c, 12, 72, 95
13, 132334, Note_on_c, 12, 72, 0
13, 132334, Note_on_c, 12, 81, 0
13, 132336, Note_on_c, 12, 81, 95
13, 132336, Note_on_c, 12, 72, 95
13, 132382, Note_on_c, 12, 72, 0
13, 132382, Note_on_c, 12, 81, 0
13, 132384, Note_on_c, 12, 81, 95
13, 132384, Note_on_c, 12, 72, 95
13, 132430, Note_on_c, 12, 72, 0
13, 132430, Note_on_c, 12, 81, 0
13, 132432, Note_on_c, 12, 81, 95
13, 132432, Note_on_c, 12, 72, 95
13, 132478, Note_on_c, 12, 72, 0
13, 132478, Note_on_c, 12, 81, 0
13, 132480, Note_on_c, 12, 79, 95
13, 132480, Note_on_c, 12, 71, 95
13, 132526, Note_on_c, 12, 71, 0
13, 132526, Note_on_c, 12, 79, 0
13, 132528, Note_on_c, 12, 79, 95
13, 132528, Note_on_c, 12, 71, 95
13, 132574, Note_on_c, 12, 71, 0
13, 132574, Note_on_c, 12, 79, 0
13, 132576, Note_on_c, 12, 79, 95
13, 132576, Note_on_c, 12, 71, 95
13, 132622, Note_on_c, 12, 71, 0
13, 132622, Note_on_c, 12, 79, 0
13, 132624, Note_on_c, 12, 79, 95
13, 132624, Note_on_c, 12, 71, 95
13, 132670, Note_on_c, 12, 71, 0
13, 132670, Note_on_c, 12, 79, 0
13, 132672, Note_on_c, 12, 81, 95
13, 132672, Note_on_c, 12, 72, 95
13, 132718, Note_on_c, 12, 72, 0
13, 132718, Note_on_c, 12, 81, 0
13, 132720, Note_on_c, 12, 81, 95
13, 132720, Note_on_c, 12, 72, 95
13, 132766, Note_on_c, 12, 72, 0
13, 132766, Note_on_c, 12, 81, 0
13, 132768, Note_on_c, 12, 81, 95
13, 132768, Note_on_c, 12, 72, 95
13, 132814, Note_on_c, 12, 72, 0
13, 132814, Note_on_c, 12, 81, 0
13, 132816, Note_on_c, 12, 81, 95
13, 132816, Note_on_c, 12, 72, 95
13, 132862, Note_on_c, 12, 72, 0
13, 132862, Note_on_c, 12, 81, 0
13, 132864, Note_on_c, 12, 79, 95
13, 132864, Note_on_c, 12, 71, 95
13, 133004, Note_on_c, 12, 71, 0
13, 133004, Note_on_c, 12, 79, 0
13, 138432, Note_on_c, 12, 64, 47
13, 138528, Note_on_c, 12, 64, 0
13, 138816, Note_on_c, 12, 64, 47
13, 138912, Note_on_c, 12, 64, 0
13, 139200, Note_on_c, 12, 57, 47
13, 139296, Note_on_c, 12, 57, 0
13, 139584, Note_on_c, 12, 62, 47
13, 139680, Note_on_c, 12, 62, 0
13, 139968, Note_on_c, 12, 55, 47
13, 140064, Note_on_c, 12, 55, 0
13, 140352, Note_on_c, 12, 60, 47
13, 140448, Note_on_c, 12, 60, 0
13, 140544, Note_on_c, 12, 57, 47
13, 140640, Note_on_c, 12, 57, 0
13, 140736, Note_on_c, 12, 62, 47
13, 140780, Note_on_c, 12, 62, 0
13, 140780, Note_on_c, 12, 65, 47
13, 140868, Note_on_c, 12, 65, 0
13, 140928, Note_on_c, 12, 64, 47
13, 140972, Note_on_c, 12, 64, 0
13, 140972, Note_on_c, 12, 60, 47
13, 141060, Note_on_c, 12, 60, 0
13, 141120, Note_on_c, 12, 62, 47
13, 141164, Note_on_c, 12, 62, 0
13, 141164, Note_on_c, 12, 59, 47
13, 141252, Note_on_c, 12, 59, 0
13, 141696, Note_on_c, 12, 67, 47
13, 141888, Note_on_c, 12, 67, 0
13, 141888, Note_on_c, 12, 66, 52
13, 142080, Note_on_c, 12, 66, 0
13, 142080, Note_on_c, 12, 65, 52
13, 142272, Note_on_c, 12, 65, 0
13, 142272, Note_on_c, 12, 64, 52
13, 142436, Note_on_c, 12, 64, 0
13, 142464, Note_on_c, 12, 67, 52
13, 142560, Note_on_c, 12, 67, 0
13, 142560, Note_on_c, 12, 65, 52
13, 142644, Note_on_c, 12, 65, 0
13, 142656, Note_on_c, 12, 64, 52
13, 142752, Note_on_c, 12, 64, 0
13, 142752, Note_on_c, 12, 62, 52
13, 142836, Note_on_c, 12, 62, 0
13, 143424, Note_on_c, 12, 62, 52
13, 143544, Note_on_c, 12, 62, 0
13, 143570, Note_on_c, 12, 64, 52
13, 143610, Note_on_c, 12, 64, 0
13, 143616, Note_on_c, 12, 65, 52
13, 143750, Note_on_c, 12, 65, 0
13, 143808, Note_on_c, 12, 65, 52
13, 144000, Note_on_c, 12, 65, 0
13, 144000, Note_on_c, 12, 64, 52
13, 144178, Note_on_c, 12, 64, 0
13, 144192, Note_on_c, 12, 69, 52
13, 144370, Note_on_c, 12, 69, 0
13, 144384, Note_on_c, 12, 67, 52
13, 144518, Note_on_c, 12, 67, 0
13, 144768, Note_on_c, 12, 66, 52
13, 144810, Note_on_c, 12, 66, 0
13, 144810, Note_on_c, 12, 67, 52
13, 144896, Note_on_c, 12, 67, 0
13, 144960, Note_on_c, 12, 69, 52
13, 145002, Note_on_c, 12, 69, 0
13, 145002, Note_on_c, 12, 67, 52
13, 145088, Note_on_c, 12, 67, 0
13, 145152, Note_on_c, 12, 64, 52
13, 145194, Note_on_c, 12, 64, 0
13, 145194, Note_on_c, 12, 65, 52
13, 145286, Note_on_c, 12, 65, 0
13, 145536, Note_on_c, 12, 64, 52
13, 145578, Note_on_c, 12, 64, 0
13, 145578, Note_on_c, 12, 65, 52
13, 145664, Note_on_c, 12, 65, 0
13, 145728, Note_on_c, 12, 67, 52
13, 145770, Note_on_c, 12, 67, 0
13, 145770, Note_on_c, 12, 65, 52
13, 145856, Note_on_c, 12, 65, 0
13, 145920, Note_on_c, 12, 63, 52
13, 145962, Note_on_c, 12, 63, 0
13, 145962, Note_on_c, 12, 64, 52
13, 146054, Note_on_c, 12, 64, 0
13, 146304, Note_on_c, 12, 63, 52
13, 146346, Note_on_c, 12, 63, 0
13, 146346, Note_on_c, 12, 64, 52
13, 146432, Note_on_c, 12, 64, 0
13, 146496, Note_on_c, 12, 65, 52
13, 146538, Note_on_c, 12, 65, 0
13, 146538, Note_on_c, 12, 64, 52
13, 146624, Note_on_c, 12, 64, 0
13, 146688, Note_on_c, 12, 61, 52
13, 146730, Note_on_c, 12, 61, 0
13, 146730, Note_on_c, 12, 62, 52
13, 146816, Note_on_c, 12, 62, 0
13, 147072, Note_on_c, 12, 65, 52
13, 147114, Note_on_c, 12, 65, 0
13, 147114, Note_on_c, 12, 64, 52
13, 147200, Note_on_c, 12, 64, 0
13, 147456, Note_on_c, 12, 67, 52
13, 147498, Note_on_c, 12, 67, 0
13, 147498, Note_on_c, 12, 65, 52
13, 147584, Note_on_c, 12, 65, 0
13, 147840, Note_on_c, 12, 64, 52
13, 147882, Note_on_c, 12, 64, 0
13, 147882, Note_on_c, 12, 65, 52
13, 147968, Note_on_c, 12, 65, 0
13, 148032, Note_on_c, 12, 67, 52
13, 148074, Note_on_c, 12, 67, 0
13, 148074, Note_on_c, 12, 65, 52
13, 148160, Note_on_c, 12, 65, 0
13, 148224, Note_on_c, 12, 63, 52
13, 148266, Note_on_c, 12, 63, 0
13, 148266, Note_on_c, 12, 64, 52
13, 148352, Note_on_c, 12, 64, 0
13, 148608, Note_on_c, 12, 67, 52
13, 148650, Note_on_c, 12, 67, 0
13, 148650, Note_on_c, 12, 66, 52
13, 148736, Note_on_c, 12, 66, 0
13, 148992, Note_on_c, 12, 69, 52
13, 149034, Note_on_c, 12, 69, 0
13, 149034, Note_on_c, 12, 67, 52
13, 149120, Note_on_c, 12, 67, 0
13, 149376, Note_on_c, 12, 71, 55
13, 149418, Note_on_c, 12, 71, 0
13, 149418, Note_on_c, 12, 72, 55
13, 149504, Note_on_c, 12, 72, 0
13, 149568, Note_on_c, 12, 74, 58
13, 149610, Note_on_c, 12, 74, 0
13, 149610, Note_on_c, 12, 72, 58
13, 149696, Note_on_c, 12, 72, 0
13, 149756, Control_c, 12, 11, 118
13, 149760, Note_on_c, 12, 76, 86
13, 149760, Control_c, 12, 11, 126
13, 149791, Control_c, 12, 11, 119
13, 149808, Control_c, 12, 11, 121
13, 149843, Control_c, 12, 11, 122
13, 149861, Control_c, 12, 11, 124
13, 149869, Control_c, 12, 11, 127
13, 150009, Control_c, 12, 11, 124
13, 150011, Control_c, 12, 11, 123
13, 150020, Control_c, 12, 11, 120
13, 150027, Control_c, 12, 11, 124
13, 150035, Control_c, 12, 11, 121
13, 150044, Control_c, 12, 11, 118
13, 150053, Control_c, 12, 11, 115
13, 150062, Control_c, 12, 11, 111
13, 150070, Control_c, 12, 11, 108
13, 150079, Control_c, 12, 11, 105
13, 150088, Control_c, 12, 11, 101
13, 150097, Control_c, 12, 11, 98
13, 150105, Control_c, 12, 11, 95
13, 150114, Control_c, 12, 11, 92
13, 150123, Control_c, 12, 11, 88
13, 150131, Control_c, 12, 11, 85
13, 150140, Control_c, 12, 11, 82
13, 150149, Control_c, 12, 11, 78
13, 150158, Control_c, 12, 11, 75
13, 150166, Control_c, 12, 11, 72
13, 150175, Control_c, 12, 11, 68
13, 150254, Control_c, 12, 11, 67
13, 150278, Note_on_c, 12, 76, 0
13, 150323, Control_c, 12, 11, 66
13, 150336, Note_on_c, 12, 74, 65
13, 150336, Control_c, 12, 11, 84
13, 150384, Note_on_c, 12, 74, 0
13, 150384, Note_on_c, 12, 72, 65
13, 150432, Note_on_c, 12, 72, 0
13, 150432, Note_on_c, 12, 71, 65
13, 150480, Note_on_c, 12, 71, 0
13, 150480, Note_on_c, 12, 69, 65
13, 150528, Note_on_c, 12, 69, 0
13, 150528, Note_on_c, 12, 68, 65
13, 150662, Note_on_c, 12, 68, 0
13, 150720, Note_on_c, 12, 68, 65
13, 150810, Note_on_c, 12, 68, 0
13, 150912, Note_on_c, 12, 68, 65
13, 151002, Note_on_c, 12, 68, 0
13, 151104, Note_on_c, 12, 68, 65
13, 151194, Note_on_c, 12, 68, 0
13, 151296, Note_on_c, 12, 68, 65
13, 151488, Note_on_c, 12, 68, 0
13, 151488, Note_on_c, 12, 69, 65
13, 151622, Note_on_c, 12, 69, 0
13, 151680, Note_on_c, 12, 68, 65
13, 151722, Note_on_c, 12, 68, 0
13, 151722, Note_on_c, 12, 69, 67
13, 151808, Note_on_c, 12, 69, 0
13, 151872, Note_on_c, 12, 71, 72
13, 151914, Note_on_c, 12, 71, 0
13, 151914, Note_on_c, 12, 69, 73
13, 152000, Note_on_c, 12, 69, 0
13, 152064, Note_on_c, 12, 72, 87
13, 152064, Control_c, 12, 11, 119
13, 152086, Control_c, 12, 11, 121
13, 152112, Control_c, 12, 11, 122
13, 152121, Control_c, 12, 11, 124
13, 152138, Control_c, 12, 11, 125
13, 152147, Control_c, 12, 11, 127
13, 152202, Control_c, 12, 11, 126
13, 152211, Control_c, 12, 11, 120
13, 152226, Control_c, 12, 11, 125
13, 152235, Control_c, 12, 11, 123
13, 152243, Control_c, 12, 11, 120
13, 152252, Control_c, 12, 11, 118
13, 152261, Control_c, 12, 11, 115
13, 152270, Control_c, 12, 11, 113
13, 152278, Control_c, 12, 11, 110
13, 152287, Control_c, 12, 11, 108
13, 152296, Control_c, 12, 11, 105
13, 152305, Control_c, 12, 11, 103
13, 152313, Control_c, 12, 11, 100
13, 152322, Control_c, 12, 11, 97
13, 152331, Control_c, 12, 11, 95
13, 152339, Control_c, 12, 11, 92
13, 152348, Control_c, 12, 11, 90
13, 152357, Control_c, 12, 11, 87
13, 152366, Control_c, 12, 11, 85
13, 152374, Control_c, 12, 11, 82
13, 152383, Control_c, 12, 11, 80
13, 152392, Control_c, 12, 11, 77
13, 152401, Control_c, 12, 11, 75
13, 152409, Control_c, 12, 11, 72
13, 152418, Control_c, 12, 11, 69
13, 152549, Control_c, 12, 11, 70
13, 152568, Note_on_c, 12, 72, 0
13, 152640, Note_on_c, 12, 71, 70
13, 152640, Control_c, 12, 11, 88
13, 152688, Note_on_c, 12, 71, 0
13, 152688, Note_on_c, 12, 69, 70
13, 152736, Note_on_c, 12, 69, 0
13, 152736, Note_on_c, 12, 67, 70
13, 152784, Note_on_c, 12, 67, 0
13, 152784, Note_on_c, 12, 65, 70
13, 152796, Note_on_c, 12, 65, 0
13, 152832, Note_on_c, 12, 64, 70
13, 152960, Note_on_c, 12, 64, 0
13, 153024, Note_on_c, 12, 64, 70
13, 153216, Note_on_c, 12, 64, 0
13, 153216, Note_on_c, 12, 65, 71
13, 153408, Note_on_c, 12, 65, 0
13, 153408, Note_on_c, 12, 62, 71
13, 153552, Note_on_c, 12, 62, 0
13, 153600, Control_c, 12, 11, 111
13, 153600, Note_on_c, 12, 60, 102
13, 153608, Control_c, 12, 11, 112
13, 153617, Control_c, 12, 11, 113
13, 153626, Control_c, 12, 11, 114
13, 153634, Control_c, 12, 11, 115
13, 153643, Control_c, 12, 11, 117
13, 153646, Note_on_c, 12, 60, 0
13, 153648, Note_on_c, 12, 67, 93
13, 153652, Control_c, 12, 11, 118
13, 153661, Control_c, 12, 11, 119
13, 153669, Control_c, 12, 11, 120
13, 153678, Control_c, 12, 11, 122
13, 153687, Control_c, 12, 11, 123
13, 153694, Note_on_c, 12, 67, 0
13, 153696, Control_c, 12, 11, 124
13, 153696, Note_on_c, 12, 67, 82
13, 153704, Control_c, 12, 11, 125
13, 153713, Control_c, 12, 11, 127
13, 153742, Note_on_c, 12, 67, 0
13, 153744, Note_on_c, 12, 67, 73
13, 153790, Note_on_c, 12, 67, 0
13, 153792, Note_on_c, 12, 67, 62
13, 153838, Note_on_c, 12, 67, 0
13, 153840, Note_on_c, 12, 67, 52
13, 153886, Note_on_c, 12, 67, 0
13, 153888, Note_on_c, 12, 67, 51
13, 153934, Note_on_c, 12, 67, 0
13, 153936, Note_on_c, 12, 67, 51
13, 153982, Note_on_c, 12, 67, 0
13, 153984, Note_on_c, 12, 67, 51
13, 154030, Note_on_c, 12, 67, 0
13, 154032, Note_on_c, 12, 67, 51
13, 154078, Note_on_c, 12, 67, 0
13, 154080, Note_on_c, 12, 67, 51
13, 154126, Note_on_c, 12, 67, 0
13, 154128, Note_on_c, 12, 67, 51
13, 154174, Note_on_c, 12, 67, 0
13, 154176, Note_on_c, 12, 67, 51
13, 154222, Note_on_c, 12, 67, 0
13, 154224, Note_on_c, 12, 67, 51
13, 154270, Note_on_c, 12, 67, 0
13, 154272, Note_on_c, 12, 67, 51
13, 154318, Note_on_c, 12, 67, 0
13, 154320, Note_on_c, 12, 67, 51
13, 154366, Note_on_c, 12, 67, 0
13, 154368, Note_on_c, 12, 67, 51
13, 154414, Note_on_c, 12, 67, 0
13, 154416, Note_on_c, 12, 67, 51
13, 154462, Note_on_c, 12, 67, 0
13, 154464, Note_on_c, 12, 67, 51
13, 154510, Note_on_c, 12, 67, 0
13, 154512, Note_on_c, 12, 67, 51
13, 154558, Note_on_c, 12, 67, 0
13, 154560, Note_on_c, 12, 67, 51
13, 154606, Note_on_c, 12, 67, 0
13, 154608, Note_on_c, 12, 67, 51
13, 154654, Note_on_c, 12, 67, 0
13, 154656, Note_on_c, 12, 67, 51
13, 154702, Note_on_c, 12, 67, 0
13, 154704, Note_on_c, 12, 67, 51
13, 154750, Note_on_c, 12, 67, 0
13, 154752, Note_on_c, 12, 67, 51
13, 154798, Note_on_c, 12, 67, 0
13, 154800, Note_on_c, 12, 67, 51
13, 154846, Note_on_c, 12, 67, 0
13, 154848, Note_on_c, 12, 67, 51
13, 154894, Note_on_c, 12, 67, 0
13, 154896, Note_on_c, 12, 67, 51
13, 154942, Note_on_c, 12, 67, 0
13, 154944, Note_on_c, 12, 67, 51
13, 154990, Note_on_c, 12, 67, 0
13, 154992, Note_on_c, 12, 67, 51
13, 155038, Note_on_c, 12, 67, 0
13, 155040, Note_on_c, 12, 67, 51
13, 155086, Note_on_c, 12, 67, 0
13, 155088, Note_on_c, 12, 67, 52
13, 155134, Note_on_c, 12, 67, 0
13, 155136, Note_on_c, 12, 67, 102
13, 155182, Note_on_c, 12, 67, 0
13, 155184, Note_on_c, 12, 55, 102
13, 155230, Note_on_c, 12, 55, 0
13, 155232, Note_on_c, 12, 67, 102
13, 155278, Note_on_c, 12, 67, 0
13, 155280, Note_on_c, 12, 67, 102
13, 155326, Note_on_c, 12, 67, 0
13, 155328, Note_on_c, 12, 67, 52
13, 155374, Note_on_c, 12, 67, 0
13, 155376, Note_on_c, 12, 67, 52
13, 155422, Note_on_c, 12, 67, 0
13, 155424, Note_on_c, 12, 67, 52
13, 155470, Note_on_c, 12, 67, 0
13, 155472, Note_on_c, 12, 67, 52
13, 155518, Note_on_c, 12, 67, 0
13, 155520, Note_on_c, 12, 67, 52
13, 155566, Note_on_c, 12, 67, 0
13, 155568, Note_on_c, 12, 67, 52
13, 155614, Note_on_c, 12, 67, 0
13, 155616, Note_on_c, 12, 67, 52
13, 155662, Note_on_c, 12, 67, 0
13, 155664, Note_on_c, 12, 67, 52
13, 155710, Note_on_c, 12, 67, 0
13, 155712, Note_on_c, 12, 67, 52
13, 155758, Note_on_c, 12, 67, 0
13, 155760, Note_on_c, 12, 67, 52
13, 155806, Note_on_c, 12, 67, 0
13, 155808, Note_on_c, 12, 67, 52
13, 155854, Note_on_c, 12, 67, 0
13, 155856, Note_on_c, 12, 67, 52
13, 155902, Note_on_c, 12, 67, 0
13, 155904, Note_on_c, 12, 67, 52
13, 155950, Note_on_c, 12, 67, 0
13, 155952, Note_on_c, 12, 67, 52
13, 155998, Note_on_c, 12, 67, 0
13, 156000, Note_on_c, 12, 67, 52
13, 156046, Note_on_c, 12, 67, 0
13, 156048, Note_on_c, 12, 67, 52
13, 156094, Note_on_c, 12, 67, 0
13, 156096, Note_on_c, 12, 67, 52
13, 156142, Note_on_c, 12, 67, 0
13, 156144, Note_on_c, 12, 67, 52
13, 156190, Note_on_c, 12, 67, 0
13, 156192, Note_on_c, 12, 67, 52
13, 156238, Note_on_c, 12, 67, 0
13, 156240, Note_on_c, 12, 67, 52
13, 156286, Note_on_c, 12, 67, 0
13, 156288, Note_on_c, 12, 67, 52
13, 156334, Note_on_c, 12, 67, 0
13, 156336, Note_on_c, 12, 67, 52
13, 156382, Note_on_c, 12, 67, 0
13, 156384, Note_on_c, 12, 67, 52
13, 156430, Note_on_c, 12, 67, 0
13, 156432, Note_on_c, 12, 67, 52
13, 156478, Note_on_c, 12, 67, 0
13, 156480, Note_on_c, 12, 67, 52
13, 156526, Note_on_c, 12, 67, 0
13, 156528, Note_on_c, 12, 67, 52
13, 156574, Note_on_c, 12, 67, 0
13, 156576, Note_on_c, 12, 67, 52
13, 156622, Note_on_c, 12, 67, 0
13, 156624, Note_on_c, 12, 67, 52
13, 156670, Note_on_c, 12, 67, 0
13, 156672, Note_on_c, 12, 67, 102
13, 156718, Note_on_c, 12, 67, 0
13, 156720, Note_on_c, 12, 55, 103
13, 156766, Note_on_c, 12, 55, 0
13, 156768, Note_on_c, 12, 67, 104
13, 156814, Note_on_c, 12, 67, 0
13, 156816, Note_on_c, 12, 67, 104
13, 156862, Note_on_c, 12, 67, 0
13, 156864, Note_on_c, 12, 67, 52
13, 156910, Note_on_c, 12, 67, 0
13, 156912, Note_on_c, 12, 67, 52
13, 156958, Note_on_c, 12, 67, 0
13, 156960, Note_on_c, 12, 67, 52
13, 157006, Note_on_c, 12, 67, 0
13, 157008, Note_on_c, 12, 67, 52
13, 157054, Note_on_c, 12, 67, 0
13, 157056, Note_on_c, 12, 67, 52
13, 157102, Note_on_c, 12, 67, 0
13, 157104, Note_on_c, 12, 67, 52
13, 157150, Note_on_c, 12, 67, 0
13, 157152, Note_on_c, 12, 67, 52
13, 157198, Note_on_c, 12, 67, 0
13, 157200, Note_on_c, 12, 67, 52
13, 157246, Note_on_c, 12, 67, 0
13, 157248, Note_on_c, 12, 67, 52
13, 157294, Note_on_c, 12, 67, 0
13, 157296, Note_on_c, 12, 67, 52
13, 157342, Note_on_c, 12, 67, 0
13, 157344, Note_on_c, 12, 67, 52
13, 157390, Note_on_c, 12, 67, 0
13, 157392, Note_on_c, 12, 67, 52
13, 157438, Note_on_c, 12, 67, 0
13, 157440, Note_on_c, 12, 67, 52
13, 157486, Note_on_c, 12, 67, 0
13, 157488, Note_on_c, 12, 67, 52
13, 157534, Note_on_c, 12, 67, 0
13, 157536, Note_on_c, 12, 67, 52
13, 157582, Note_on_c, 12, 67, 0
13, 157584, Note_on_c, 12, 67, 52
13, 157630, Note_on_c, 12, 67, 0
13, 157632, Note_on_c, 12, 67, 52
13, 157678, Note_on_c, 12, 67, 0
13, 157680, Note_on_c, 12, 67, 52
13, 157726, Note_on_c, 12, 67, 0
13, 157728, Note_on_c, 12, 67, 52
13, 157774, Note_on_c, 12, 67, 0
13, 157776, Note_on_c, 12, 67, 52
13, 157822, Note_on_c, 12, 67, 0
13, 157824, Note_on_c, 12, 67, 52
13, 157870, Note_on_c, 12, 67, 0
13, 157872, Note_on_c, 12, 67, 52
13, 157918, Note_on_c, 12, 67, 0
13, 157920, Note_on_c, 12, 67, 52
13, 157966, Note_on_c, 12, 67, 0
13, 157968, Note_on_c, 12, 67, 52
13, 158014, Note_on_c, 12, 67, 0
13, 158016, Note_on_c, 12, 67, 52
13, 158062, Note_on_c, 12, 67, 0
13, 158064, Note_on_c, 12, 67, 52
13, 158110, Note_on_c, 12, 67, 0
13, 158112, Note_on_c, 12, 67, 53
13, 158158, Note_on_c, 12, 67, 0
13, 158160, Note_on_c, 12, 67, 52
13, 158206, Note_on_c, 12, 67, 0
13, 158208, Note_on_c, 12, 67, 105
13, 158254, Note_on_c, 12, 67, 0
13, 158256, Note_on_c, 12, 55, 105
13, 158302, Note_on_c, 12, 55, 0
13, 158304, Note_on_c, 12, 67, 105
13, 158350, Note_on_c, 12, 67, 0
13, 158352, Note_on_c, 12, 67, 105
13, 158398, Note_on_c, 12, 67, 0
13, 158400, Note_on_c, 12, 67, 61
13, 158446, Note_on_c, 12, 67, 0
13, 158448, Note_on_c, 12, 67, 52
13, 158494, Note_on_c, 12, 67, 0
13, 158496, Note_on_c, 12, 67, 52
13, 158542, Note_on_c, 12, 67, 0
13, 158544, Note_on_c, 12, 67, 52
13, 158590, Note_on_c, 12, 67, 0
13, 158592, Note_on_c, 12, 67, 52
13, 158638, Note_on_c, 12, 67, 0
13, 158640, Note_on_c, 12, 67, 52
13, 158686, Note_on_c, 12, 67, 0
13, 158688, Note_on_c, 12, 67, 52
13, 158734, Note_on_c, 12, 67, 0
13, 158736, Note_on_c, 12, 67, 52
13, 158782, Note_on_c, 12, 67, 0
13, 158784, Note_on_c, 12, 67, 52
13, 158830, Note_on_c, 12, 67, 0
13, 158832, Note_on_c, 12, 67, 52
13, 158878, Note_on_c, 12, 67, 0
13, 158880, Note_on_c, 12, 67, 52
13, 158926, Note_on_c, 12, 67, 0
13, 158928, Note_on_c, 12, 67, 52
13, 158974, Note_on_c, 12, 67, 0
13, 158976, Note_on_c, 12, 67, 52
13, 159022, Note_on_c, 12, 67, 0
13, 159024, Note_on_c, 12, 67, 52
13, 159070, Note_on_c, 12, 67, 0
13, 159072, Note_on_c, 12, 67, 52
13, 159118, Note_on_c, 12, 67, 0
13, 159120, Note_on_c, 12, 67, 52
13, 159166, Note_on_c, 12, 67, 0
13, 159168, Note_on_c, 12, 67, 52
13, 159214, Note_on_c, 12, 67, 0
13, 159216, Note_on_c, 12, 67, 52
13, 159262, Note_on_c, 12, 67, 0
13, 159264, Note_on_c, 12, 67, 52
13, 159310, Note_on_c, 12, 67, 0
13, 159312, Note_on_c, 12, 67, 52
13, 159358, Note_on_c, 12, 67, 0
13, 159360, Note_on_c, 12, 67, 52
13, 159406, Note_on_c, 12, 67, 0
13, 159408, Note_on_c, 12, 67, 52
13, 159454, Note_on_c, 12, 67, 0
13, 159456, Note_on_c, 12, 67, 52
13, 159502, Note_on_c, 12, 67, 0
13, 159504, Note_on_c, 12, 67, 52
13, 159550, Note_on_c, 12, 67, 0
13, 159552, Note_on_c, 12, 67, 52
13, 159598, Note_on_c, 12, 67, 0
13, 159600, Note_on_c, 12, 67, 52
13, 159646, Note_on_c, 12, 67, 0
13, 159648, Note_on_c, 12, 67, 52
13, 159694, Note_on_c, 12, 67, 0
13, 159696, Note_on_c, 12, 67, 52
13, 159742, Note_on_c, 12, 67, 0
13, 159744, Note_on_c, 12, 67, 52
13, 159812, Note_on_c, 12, 67, 0
13, 159840, Note_on_c, 12, 72, 107
13, 159884, Note_on_c, 12, 72, 0
13, 159936, Note_on_c, 12, 72, 107
13, 159980, Note_on_c, 12, 72, 0
13, 160032, Note_on_c, 12, 72, 107
13, 160076, Note_on_c, 12, 72, 0
13, 160128, Note_on_c, 12, 72, 107
13, 160172, Note_on_c, 12, 72, 0
13, 160224, Note_on_c, 12, 72, 107
13, 160268, Note_on_c, 12, 72, 0
13, 160320, Note_on_c, 12, 72, 107
13, 160364, Note_on_c, 12, 72, 0
13, 160416, Note_on_c, 12, 72, 107
13, 160460, Note_on_c, 12, 72, 0
13, 160512, Note_on_c, 12, 70, 107
13, 161238, Note_on_c, 12, 70, 0
13, 161280, Note_on_c, 12, 69, 103
13, 161352, Note_on_c, 12, 69, 0
13, 161376, Note_on_c, 12, 69, 103
13, 161436, Note_on_c, 12, 69, 0
13, 161568, Note_on_c, 12, 73, 116
13, 161588, Note_on_c, 12, 73, 0
13, 161588, Note_on_c, 12, 74, 116
13, 161608, Note_on_c, 12, 74, 0
13, 161608, Note_on_c, 12, 73, 116
13, 161628, Note_on_c, 12, 73, 0
13, 161628, Note_on_c, 12, 71, 116
13, 161646, Note_on_c, 12, 71, 0
13, 161646, Note_on_c, 12, 73, 116
13, 161664, Note_on_c, 12, 73, 0
13, 161664, Note_on_c, 12, 74, 116
13, 161708, Note_on_c, 12, 74, 0
13, 161760, Note_on_c, 12, 74, 116
13, 161804, Note_on_c, 12, 74, 0
13, 161856, Note_on_c, 12, 76, 116
13, 161900, Note_on_c, 12, 76, 0
13, 161952, Note_on_c, 12, 76, 116
13, 161996, Note_on_c, 12, 76, 0
13, 162048, Note_on_c, 12, 77, 116
13, 162108, Note_on_c, 12, 77, 0
13, 162144, Note_on_c, 12, 77, 116
13, 162204, Note_on_c, 12, 77, 0
13, 162336, Note_on_c, 12, 71, 116
13, 162356, Note_on_c, 12, 71, 0
13, 162356, Note_on_c, 12, 72, 116
13, 162376, Note_on_c, 12, 72, 0
13, 162376, Note_on_c, 12, 71, 116
13, 162396, Note_on_c, 12, 71, 0
13, 162396, Note_on_c, 12, 69, 116
13, 162414, Note_on_c, 12, 69, 0
13, 162414, Note_on_c, 12, 71, 116
13, 162432, Note_on_c, 12, 71, 0
13, 162432, Note_on_c, 12, 72, 116
13, 162476, Note_on_c, 12, 72, 0
13, 162528, Note_on_c, 12, 72, 116
13, 162572, Note_on_c, 12, 72, 0
13, 162624, Note_on_c, 12, 74, 116
13, 162668, Note_on_c, 12, 74, 0
13, 162720, Note_on_c, 12, 74, 116
13, 162764, Note_on_c, 12, 74, 0
13, 162816, Note_on_c, 12, 76, 116
13, 162876, Note_on_c, 12, 76, 0
13, 162912, Note_on_c, 12, 76, 116
13, 162972, Note_on_c, 12, 76, 0
13, 163104, Note_on_c, 12, 68, 116
13, 163124, Note_on_c, 12, 69, 116
13, 163144, Note_on_c, 12, 68, 116
13, 163148, Note_on_c, 12, 68, 0
13, 163164, Note_on_c, 12, 66, 116
13, 163168, Note_on_c, 12, 69, 0
13, 163182, Note_on_c, 12, 66, 0
13, 163182, Note_on_c, 12, 68, 116
13, 163188, Note_on_c, 12, 68, 0
13, 163200, Note_on_c, 12, 68, 0
13, 163200, Note_on_c, 12, 69, 116
13, 163244, Note_on_c, 12, 69, 0
13, 163296, Note_on_c, 12, 69, 116
13, 163340, Note_on_c, 12, 69, 0
13, 163392, Note_on_c, 12, 71, 116
13, 163436, Note_on_c, 12, 71, 0
13, 163488, Note_on_c, 12, 71, 116
13, 163532, Note_on_c, 12, 71, 0
13, 163584, Note_on_c, 12, 72, 116
13, 163674, Note_on_c, 12, 72, 0
13, 164352, Note_on_c, 12, 72, 116
13, 164376, Note_on_c, 12, 72, 0
13, 164376, Note_on_c, 12, 74, 116
13, 164400, Note_on_c, 12, 74, 0
13, 164400, Note_on_c, 12, 76, 116
13, 164478, Note_on_c, 12, 76, 0
13, 164544, Note_on_c, 12, 76, 116
13, 164590, Note_on_c, 12, 76, 0
13, 164640, Note_on_c, 12, 76, 116
13, 164686, Note_on_c, 12, 76, 0
13, 164736, Note_on_c, 12, 72, 116
13, 164760, Note_on_c, 12, 72, 0
13, 164760, Note_on_c, 12, 74, 116
13, 164784, Note_on_c, 12, 74, 0
13, 164784, Note_on_c, 12, 76, 116
13, 164862, Note_on_c, 12, 76, 0
13, 164928, Note_on_c, 12, 76, 116
13, 164974, Note_on_c, 12, 76, 0
13, 165024, Note_on_c, 12, 76, 116
13, 165070, Note_on_c, 12, 76, 0
13, 165120, Note_on_c, 12, 79, 116
13, 165216, Note_on_c, 12, 79, 0
13, 165216, Note_on_c, 12, 76, 116
13, 165270, Note_on_c, 12, 76, 0
13, 165312, Note_on_c, 12, 76, 116
13, 165358, Note_on_c, 12, 76, 0
13, 165408, Note_on_c, 12, 76, 116
13, 165454, Note_on_c, 12, 76, 0
13, 165504, Note_on_c, 12, 76, 116
13, 165600, Note_on_c, 12, 76, 0
13, 165600, Note_on_c, 12, 74, 116
13, 165654, Note_on_c, 12, 74, 0
13, 165696, Note_on_c, 12, 72, 116
13, 165742, Note_on_c, 12, 72, 0
13, 165792, Note_on_c, 12, 71, 116
13, 165838, Note_on_c, 12, 71, 0
13, 165984, Note_on_c, 12, 72, 112
13, 166028, Note_on_c, 12, 72, 0
13, 166080, Note_on_c, 12, 72, 112
13, 166124, Note_on_c, 12, 72, 0
13, 166176, Note_on_c, 12, 72, 112
13, 166220, Note_on_c, 12, 72, 0
13, 166272, Note_on_c, 12, 72, 112
13, 166316, Note_on_c, 12, 72, 0
13, 166368, Note_on_c, 12, 72, 112
13, 166412, Note_on_c, 12, 72, 0
13, 166464, Note_on_c, 12, 72, 112
13, 166508, Note_on_c, 12, 72, 0
13, 166560, Note_on_c, 12, 72, 112
13, 166604, Note_on_c, 12, 72, 0
13, 166656, Note_on_c, 12, 70, 105
13, 167382, Note_on_c, 12, 70, 0
13, 167424, Note_on_c, 12, 69, 103
13, 167496, Note_on_c, 12, 69, 0
13, 167520, Note_on_c, 12, 69, 103
13, 167580, Note_on_c, 12, 69, 0
13, 167712, Note_on_c, 12, 73, 116
13, 167732, Note_on_c, 12, 73, 0
13, 167732, Note_on_c, 12, 74, 116
13, 167752, Note_on_c, 12, 74, 0
13, 167752, Note_on_c, 12, 73, 116
13, 167772, Note_on_c, 12, 73, 0
13, 167772, Note_on_c, 12, 71, 116
13, 167790, Note_on_c, 12, 71, 0
13, 167790, Note_on_c, 12, 73, 116
13, 167808, Note_on_c, 12, 73, 0
13, 167808, Note_on_c, 12, 74, 116
13, 167851, Note_on_c, 12, 74, 0
13, 167904, Note_on_c, 12, 74, 116
13, 167947, Note_on_c, 12, 74, 0
13, 168000, Note_on_c, 12, 76, 116
13, 168043, Note_on_c, 12, 76, 0
13, 168096, Note_on_c, 12, 76, 116
13, 168139, Note_on_c, 12, 76, 0
13, 168192, Note_on_c, 12, 77, 116
13, 168260, Note_on_c, 12, 77, 0
13, 168288, Note_on_c, 12, 77, 116
13, 168348, Note_on_c, 12, 77, 0
13, 168480, Note_on_c, 12, 71, 116
13, 168500, Note_on_c, 12, 71, 0
13, 168500, Note_on_c, 12, 72, 116
13, 168520, Note_on_c, 12, 72, 0
13, 168520, Note_on_c, 12, 71, 116
13, 168540, Note_on_c, 12, 71, 0
13, 168540, Note_on_c, 12, 69, 116
13, 168558, Note_on_c, 12, 69, 0
13, 168558, Note_on_c, 12, 71, 116
13, 168576, Note_on_c, 12, 71, 0
13, 168576, Note_on_c, 12, 72, 116
13, 168619, Note_on_c, 12, 72, 0
13, 168672, Note_on_c, 12, 72, 116
13, 168715, Note_on_c, 12, 72, 0
13, 168768, Note_on_c, 12, 74, 116
13, 168811, Note_on_c, 12, 74, 0
13, 168864, Note_on_c, 12, 74, 116
13, 168907, Note_on_c, 12, 74, 0
13, 168960, Note_on_c, 12, 76, 116
13, 169028, Note_on_c, 12, 76, 0
13, 169056, Note_on_c, 12, 76, 116
13, 169116, Note_on_c, 12, 76, 0
13, 169248, Note_on_c, 12, 68, 116
13, 169268, Note_on_c, 12, 68, 0
13, 169268, Note_on_c, 12, 69, 116
13, 169288, Note_on_c, 12, 69, 0
13, 169288, Note_on_c, 12, 68, 116
13, 169308, Note_on_c, 12, 68, 0
13, 169308, Note_on_c, 12, 66, 116
13, 169326, Note_on_c, 12, 66, 0
13, 169326, Note_on_c, 12, 68, 116
13, 169344, Note_on_c, 12, 68, 0
13, 169344, Note_on_c, 12, 69, 116
13, 169387, Note_on_c, 12, 69, 0
13, 169440, Note_on_c, 12, 69, 116
13, 169483, Note_on_c, 12, 69, 0
13, 169536, Note_on_c, 12, 71, 116
13, 169579, Note_on_c, 12, 71, 0
13, 169632, Note_on_c, 12, 71, 116
13, 169675, Note_on_c, 12, 71, 0
13, 169728, Note_on_c, 12, 72, 116
13, 169828, Note_on_c, 12, 72, 0
13, 172784, Note_on_c, 12, 67, 116
13, 172792, Note_on_c, 12, 72, 116
13, 172800, Note_on_c, 12, 76, 116
13, 172868, Note_on_c, 12, 67, 0
13, 172876, Note_on_c, 12, 72, 0
13, 172934, Note_on_c, 12, 76, 0
13, 173088, Note_on_c, 12, 77, 116
13, 173178, Note_on_c, 12, 77, 0
13, 173184, Note_on_c, 12, 75, 116
13, 173238, Note_on_c, 12, 75, 0
13, 173280, Note_on_c, 12, 75, 116
13, 173370, Note_on_c, 12, 75, 0
13, 173376, Note_on_c, 12, 74, 116
13, 173430, Note_on_c, 12, 74, 0
13, 173472, Note_on_c, 12, 74, 116
13, 173562, Note_on_c, 12, 74, 0
13, 173568, Note_on_c, 12, 76, 116
13, 173628, Note_on_c, 12, 76, 0
13, 173664, Note_on_c, 12, 76, 116
13, 173718, Note_on_c, 12, 76, 0
13, 173856, Note_on_c, 12, 77, 116
13, 173952, Note_on_c, 12, 77, 0
13, 173952, Note_on_c, 12, 75, 116
13, 174006, Note_on_c, 12, 75, 0
13, 174048, Note_on_c, 12, 75, 116
13, 174138, Note_on_c, 12, 75, 0
13, 174144, Note_on_c, 12, 74, 116
13, 174198, Note_on_c, 12, 74, 0
13, 174240, Note_on_c, 12, 74, 116
13, 174336, Note_on_c, 12, 74, 0
13, 174336, Note_on_c, 12, 76, 116
13, 174396, Note_on_c, 12, 76, 0
13, 174432, Note_on_c, 12, 76, 116
13, 174486, Note_on_c, 12, 76, 0
13, 174624, Note_on_c, 12, 77, 116
13, 174720, Note_on_c, 12, 77, 0
13, 174720, Note_on_c, 12, 75, 116
13, 174774, Note_on_c, 12, 75, 0
13, 174816, Note_on_c, 12, 75, 116
13, 174906, Note_on_c, 12, 75, 0
13, 174912, Note_on_c, 12, 74, 116
13, 174966, Note_on_c, 12, 74, 0
13, 175008, Note_on_c, 12, 74, 116
13, 175104, Note_on_c, 12, 74, 0
13, 175104, Note_on_c, 12, 76, 116
13, 175224, Note_on_c, 12, 76, 0
13, 175296, Note_on_c, 12, 64, 116
13, 175416, Note_on_c, 12, 64, 0
13, 175488, Note_on_c, 12, 67, 116
13, 175608, Note_on_c, 12, 67, 0
13, 175864, Note_on_c, 12, 67, 116
13, 175872, Note_on_c, 12, 76, 116
13, 176006, Note_on_c, 12, 76, 0
13, 176006, Note_on_c, 12, 67, 0
13, 178176, Note_on_c, 12, 64, 47
13, 178560, Note_on_c, 12, 64, 0
13, 178560, Note_on_c, 12, 65, 47
13, 178926, Note_on_c, 12, 65, 0
13, 178944, Note_on_c, 12, 64, 82
13, 178944, Note_on_c, 12, 55, 82
13, 178978, Note_on_c, 12, 55, 0
13, 178978, Note_on_c, 12, 64, 0
13, 178992, Note_on_c, 12, 64, 82
13, 178992, Note_on_c, 12, 55, 82
13, 179026, Note_on_c, 12, 55, 0
13, 179026, Note_on_c, 12, 64, 0
13, 179040, Note_on_c, 12, 64, 82
13, 179040, Note_on_c, 12, 55, 82
13, 179074, Note_on_c, 12, 55, 0
13, 179074, Note_on_c, 12, 64, 0
13, 179088, Note_on_c, 12, 64, 82
13, 179088, Note_on_c, 12, 55, 82
13, 179122, Note_on_c, 12, 55, 0
13, 179122, Note_on_c, 12, 64, 0
13, 179136, Note_on_c, 12, 64, 82
13, 179136, Note_on_c, 12, 55, 82
13, 179170, Note_on_c, 12, 55, 0
13, 179170, Note_on_c, 12, 64, 0
13, 179184, Note_on_c, 12, 64, 82
13, 179184, Note_on_c, 12, 55, 82
13, 179218, Note_on_c, 12, 55, 0
13, 179218, Note_on_c, 12, 64, 0
13, 179232, Note_on_c, 12, 64, 82
13, 179232, Note_on_c, 12, 55, 82
13, 179266, Note_on_c, 12, 55, 0
13, 179266, Note_on_c, 12, 64, 0
13, 179280, Note_on_c, 12, 64, 82
13, 179280, Note_on_c, 12, 55, 82
13, 179314, Note_on_c, 12, 55, 0
13, 179314, Note_on_c, 12, 64, 0
13, 179328, Note_on_c, 12, 64, 82
13, 179328, Note_on_c, 12, 55, 82
13, 179362, Note_on_c, 12, 55, 0
13, 179362, Note_on_c, 12, 64, 0
13, 179376, Note_on_c, 12, 64, 82
13, 179376, Note_on_c, 12, 55, 82
13, 179410, Note_on_c, 12, 55, 0
13, 179410, Note_on_c, 12, 64, 0
13, 179424, Note_on_c, 12, 64, 82
13, 179424, Note_on_c, 12, 55, 82
13, 179458, Note_on_c, 12, 55, 0
13, 179458, Note_on_c, 12, 64, 0
13, 179472, Note_on_c, 12, 64, 82
13, 179472, Note_on_c, 12, 55, 82
13, 179506, Note_on_c, 12, 55, 0
13, 179506, Note_on_c, 12, 64, 0
13, 179520, Note_on_c, 12, 64, 82
13, 179520, Note_on_c, 12, 55, 82
13, 179554, Note_on_c, 12, 55, 0
13, 179554, Note_on_c, 12, 64, 0
13, 179568, Note_on_c, 12, 64, 82
13, 179568, Note_on_c, 12, 55, 82
13, 179602, Note_on_c, 12, 55, 0
13, 179602, Note_on_c, 12, 64, 0
13, 179616, Note_on_c, 12, 64, 82
13, 179616, Note_on_c, 12, 55, 82
13, 179650, Note_on_c, 12, 55, 0
13, 179650, Note_on_c, 12, 64, 0
13, 179664, Note_on_c, 12, 64, 82
13, 179664, Note_on_c, 12, 55, 82
13, 179698, Note_on_c, 12, 55, 0
13, 179698, Note_on_c, 12, 64, 0
13, 179712, Note_on_c, 12, 65, 82
13, 179712, Note_on_c, 12, 55, 82
13, 179746, Note_on_c, 12, 55, 0
13, 179746, Note_on_c, 12, 65, 0
13, 179760, Note_on_c, 12, 65, 82
13, 179760, Note_on_c, 12, 55, 82
13, 179794, Note_on_c, 12, 55, 0
13, 179794, Note_on_c, 12, 65, 0
13, 179808, Note_on_c, 12, 65, 82
13, 179808, Note_on_c, 12, 55, 82
13, 179842, Note_on_c, 12, 55, 0
13, 179842, Note_on_c, 12, 65, 0
13, 179856, Note_on_c, 12, 65, 82
13, 179856, Note_on_c, 12, 55, 82
13, 179890, Note_on_c, 12, 55, 0
13, 179890, Note_on_c, 12, 65, 0
13, 179904, Note_on_c, 12, 65, 82
13, 179904, Note_on_c, 12, 55, 82
13, 179938, Note_on_c, 12, 55, 0
13, 179938, Note_on_c, 12, 65, 0
13, 179952, Note_on_c, 12, 65, 82
13, 179952, Note_on_c, 12, 55, 82
13, 179986, Note_on_c, 12, 55, 0
13, 179986, Note_on_c, 12, 65, 0
13, 180000, Note_on_c, 12, 65, 82
13, 180000, Note_on_c, 12, 55, 82
13, 180034, Note_on_c, 12, 55, 0
13, 180034, Note_on_c, 12, 65, 0
13, 180048, Note_on_c, 12, 65, 82
13, 180048, Note_on_c, 12, 55, 82
13, 180082, Note_on_c, 12, 55, 0
13, 180082, Note_on_c, 12, 65, 0
13, 180096, Note_on_c, 12, 65, 82
13, 180096, Note_on_c, 12, 55, 82
13, 180130, Note_on_c, 12, 55, 0
13, 180130, Note_on_c, 12, 65, 0
13, 180144, Note_on_c, 12, 65, 82
13, 180144, Note_on_c, 12, 55, 82
13, 180178, Note_on_c, 12, 55, 0
13, 180178, Note_on_c, 12, 65, 0
13, 180192, Note_on_c, 12, 65, 82
13, 180192, Note_on_c, 12, 55, 82
13, 180226, Note_on_c, 12, 55, 0
13, 180226, Note_on_c, 12, 65, 0
13, 180240, Note_on_c, 12, 65, 82
13, 180240, Note_on_c, 12, 55, 82
13, 180274, Note_on_c, 12, 55, 0
13, 180274, Note_on_c, 12, 65, 0
13, 180288, Note_on_c, 12, 65, 82
13, 180288, Note_on_c, 12, 55, 82
13, 180322, Note_on_c, 12, 55, 0
13, 180322, Note_on_c, 12, 65, 0
13, 180336, Note_on_c, 12, 65, 82
13, 180336, Note_on_c, 12, 55, 82
13, 180370, Note_on_c, 12, 55, 0
13, 180370, Note_on_c, 12, 65, 0
13, 180384, Note_on_c, 12, 65, 82
13, 180384, Note_on_c, 12, 55, 82
13, 180418, Note_on_c, 12, 55, 0
13, 180418, Note_on_c, 12, 65, 0
13, 180432, Note_on_c, 12, 65, 82
13, 180432, Note_on_c, 12, 55, 82
13, 180466, Note_on_c, 12, 55, 0
13, 180466, Note_on_c, 12, 65, 0
13, 180480, Note_on_c, 12, 64, 82
13, 180480, Note_on_c, 12, 55, 82
13, 180514, Note_on_c, 12, 55, 0
13, 180514, Note_on_c, 12, 64, 0
13, 180528, Note_on_c, 12, 64, 82
13, 180528, Note_on_c, 12, 55, 82
13, 180562, Note_on_c, 12, 55, 0
13, 180562, Note_on_c, 12, 64, 0
13, 180576, Note_on_c, 12, 64, 82
13, 180576, Note_on_c, 12, 55, 82
13, 180610, Note_on_c, 12, 55, 0
13, 180610, Note_on_c, 12, 64, 0
13, 180624, Note_on_c, 12, 64, 82
13, 180624, Note_on_c, 12, 55, 82
13, 180658, Note_on_c, 12, 55, 0
13, 180658, Note_on_c, 12, 64, 0
13, 180672, Note_on_c, 12, 64, 82
13, 180672, Note_on_c, 12, 55, 82
13, 180706, Note_on_c, 12, 55, 0
13, 180706, Note_on_c, 12, 64, 0
13, 180720, Note_on_c, 12, 64, 82
13, 180720, Note_on_c, 12, 55, 82
13, 180754, Note_on_c, 12, 55, 0
13, 180754, Note_on_c, 12, 64, 0
13, 180768, Note_on_c, 12, 64, 82
13, 180768, Note_on_c, 12, 55, 82
13, 180802, Note_on_c, 12, 55, 0
13, 180802, Note_on_c, 12, 64, 0
13, 180816, Note_on_c, 12, 64, 82
13, 180816, Note_on_c, 12, 55, 82
13, 180850, Note_on_c, 12, 55, 0
13, 180850, Note_on_c, 12, 64, 0
13, 180864, Note_on_c, 12, 64, 82
13, 180864, Note_on_c, 12, 55, 82
13, 180898, Note_on_c, 12, 55, 0
13, 180898, Note_on_c, 12, 64, 0
13, 180912, Note_on_c, 12, 64, 82
13, 180912, Note_on_c, 12, 55, 82
13, 180946, Note_on_c, 12, 55, 0
13, 180946, Note_on_c, 12, 64, 0
13, 180960, Note_on_c, 12, 64, 82
13, 180960, Note_on_c, 12, 55, 82
13, 180994, Note_on_c, 12, 55, 0
13, 180994, Note_on_c, 12, 64, 0
13, 181008, Note_on_c, 12, 64, 82
13, 181008, Note_on_c, 12, 55, 82
13, 181042, Note_on_c, 12, 55, 0
13, 181042, Note_on_c, 12, 64, 0
13, 181056, Note_on_c, 12, 64, 82
13, 181056, Note_on_c, 12, 55, 82
13, 181090, Note_on_c, 12, 55, 0
13, 181090, Note_on_c, 12, 64, 0
13, 181104, Note_on_c, 12, 64, 82
13, 181104, Note_on_c, 12, 55, 82
13, 181138, Note_on_c, 12, 55, 0
13, 181138, Note_on_c, 12, 64, 0
13, 181152, Note_on_c, 12, 64, 82
13, 181152, Note_on_c, 12, 55, 82
13, 181186, Note_on_c, 12, 55, 0
13, 181186, Note_on_c, 12, 64, 0
13, 181200, Note_on_c, 12, 64, 82
13, 181200, Note_on_c, 12, 55, 82
13, 181234, Note_on_c, 12, 55, 0
13, 181234, Note_on_c, 12, 64, 0
13, 181248, Note_on_c, 12, 65, 82
13, 181248, Note_on_c, 12, 55, 82
13, 181282, Note_on_c, 12, 55, 0
13, 181282, Note_on_c, 12, 65, 0
13, 181296, Note_on_c, 12, 65, 82
13, 181296, Note_on_c, 12, 55, 82
13, 181330, Note_on_c, 12, 55, 0
13, 181330, Note_on_c, 12, 65, 0
13, 181344, Note_on_c, 12, 65, 82
13, 181344, Note_on_c, 12, 55, 82
13, 181378, Note_on_c, 12, 55, 0
13, 181378, Note_on_c, 12, 65, 0
13, 181392, Note_on_c, 12, 65, 82
13, 181392, Note_on_c, 12, 55, 82
13, 181426, Note_on_c, 12, 55, 0
13, 181426, Note_on_c, 12, 65, 0
13, 181440, Note_on_c, 12, 65, 82
13, 181440, Note_on_c, 12, 55, 82
13, 181474, Note_on_c, 12, 55, 0
13, 181474, Note_on_c, 12, 65, 0
13, 181488, Note_on_c, 12, 65, 82
13, 181488, Note_on_c, 12, 55, 82
13, 181522, Note_on_c, 12, 55, 0
13, 181522, Note_on_c, 12, 65, 0
13, 181536, Note_on_c, 12, 65, 82
13, 181536, Note_on_c, 12, 55, 82
13, 181570, Note_on_c, 12, 55, 0
13, 181570, Note_on_c, 12, 65, 0
13, 181584, Note_on_c, 12, 65, 82
13, 181584, Note_on_c, 12, 55, 82
13, 181618, Note_on_c, 12, 55, 0
13, 181618, Note_on_c, 12, 65, 0
13, 181632, Note_on_c, 12, 65, 82
13, 181632, Note_on_c, 12, 55, 82
13, 181666, Note_on_c, 12, 55, 0
13, 181666, Note_on_c, 12, 65, 0
13, 181680, Note_on_c, 12, 65, 82
13, 181680, Note_on_c, 12, 55, 82
13, 181714, Note_on_c, 12, 55, 0
13, 181714, Note_on_c, 12, 65, 0
13, 181728, Note_on_c, 12, 65, 82
13, 181728, Note_on_c, 12, 55, 82
13, 181762, Note_on_c, 12, 55, 0
13, 181762, Note_on_c, 12, 65, 0
13, 181776, Note_on_c, 12, 65, 82
13, 181776, Note_on_c, 12, 55, 82
13, 181810, Note_on_c, 12, 55, 0
13, 181810, Note_on_c, 12, 65, 0
13, 181824, Note_on_c, 12, 65, 82
13, 181824, Note_on_c, 12, 55, 82
13, 181858, Note_on_c, 12, 55, 0
13, 181858, Note_on_c, 12, 65, 0
13, 181872, Note_on_c, 12, 65, 82
13, 181872, Note_on_c, 12, 55, 82
13, 181906, Note_on_c, 12, 55, 0
13, 181906, Note_on_c, 12, 65, 0
13, 181920, Note_on_c, 12, 65, 82
13, 181920, Note_on_c, 12, 55, 82
13, 181954, Note_on_c, 12, 55, 0
13, 181954, Note_on_c, 12, 65, 0
13, 181968, Note_on_c, 12, 65, 82
13, 181968, Note_on_c, 12, 55, 82
13, 182002, Note_on_c, 12, 55, 0
13, 182002, Note_on_c, 12, 65, 0
13, 186636, Note_on_c, 12, 77, 103
13, 186726, Note_on_c, 12, 77, 0
13, 186816, Note_on_c, 12, 77, 103
13, 186884, Note_on_c, 12, 77, 0
13, 186962, Note_on_c, 12, 77, 103
13, 186990, Note_on_c, 12, 77, 0
13, 187008, Note_on_c, 12, 77, 103
13, 187098, Note_on_c, 12, 77, 0
13, 187200, Note_on_c, 12, 77, 103
13, 187290, Note_on_c, 12, 77, 0
13, 187392, Note_on_c, 12, 81, 102
13, 187928, Note_on_c, 12, 81, 0
13, 188172, Note_on_c, 12, 77, 47
13, 188262, Note_on_c, 12, 77, 0
13, 188352, Note_on_c, 12, 77, 47
13, 188422, Note_on_c, 12, 77, 0
13, 188498, Note_on_c, 12, 77, 47
13, 188526, Note_on_c, 12, 77, 0
13, 188544, Note_on_c, 12, 77, 47
13, 188640, Note_on_c, 12, 77, 0
13, 188736, Note_on_c, 12, 77, 47
13, 188832, Note_on_c, 12, 77, 0
13, 188928, Note_on_c, 12, 80, 46
13, 188941, Control_c, 12, 11, 126
13, 188968, Control_c, 12, 11, 127
13, 188985, Control_c, 12, 11, 127
13, 188990, Control_c, 12, 11, 125
13, 189001, Control_c, 12, 11, 119
13, 189007, Control_c, 12, 11, 117
13, 189018, Control_c, 12, 11, 110
13, 189023, Control_c, 12, 11, 107
13, 189051, Control_c, 12, 11, 105
13, 189056, Control_c, 12, 11, 104
13, 189067, Control_c, 12, 11, 102
13, 189073, Control_c, 12, 11, 101
13, 189434, Note_on_c, 12, 80, 0
13, 189670, Control_c, 12, 11, 127
13, 189696, Note_on_c, 12, 72, 103
13, 189730, Note_on_c, 12, 72, 0
13, 189744, Note_on_c, 12, 72, 103
13, 189778, Note_on_c, 12, 72, 0
13, 189792, Note_on_c, 12, 72, 103
13, 189826, Note_on_c, 12, 72, 0
13, 189840, Note_on_c, 12, 72, 103
13, 189874, Note_on_c, 12, 72, 0
13, 189888, Note_on_c, 12, 72, 103
13, 189922, Note_on_c, 12, 72, 0
13, 189936, Note_on_c, 12, 72, 103
13, 189970, Note_on_c, 12, 72, 0
13, 189984, Note_on_c, 12, 72, 103
13, 190018, Note_on_c, 12, 72, 0
13, 190032, Note_on_c, 12, 72, 103
13, 190066, Note_on_c, 12, 72, 0
13, 190080, Note_on_c, 12, 72, 103
13, 190114, Note_on_c, 12, 72, 0
13, 190128, Note_on_c, 12, 72, 103
13, 190162, Note_on_c, 12, 72, 0
13, 190176, Note_on_c, 12, 72, 103
13, 190210, Note_on_c, 12, 72, 0
13, 190224, Note_on_c, 12, 72, 103
13, 190258, Note_on_c, 12, 72, 0
13, 190272, Note_on_c, 12, 72, 103
13, 190306, Note_on_c, 12, 72, 0
13, 190320, Note_on_c, 12, 72, 103
13, 190354, Note_on_c, 12, 72, 0
13, 190368, Note_on_c, 12, 72, 103
13, 190402, Note_on_c, 12, 72, 0
13, 190416, Note_on_c, 12, 72, 103
13, 190450, Note_on_c, 12, 72, 0
13, 190464, Note_on_c, 12, 81, 103
13, 190464, Note_on_c, 12, 72, 103
13, 190498, Note_on_c, 12, 72, 0
13, 190498, Note_on_c, 12, 81, 0
13, 190512, Note_on_c, 12, 81, 103
13, 190512, Note_on_c, 12, 72, 103
13, 190546, Note_on_c, 12, 72, 0
13, 190546, Note_on_c, 12, 81, 0
13, 190560, Note_on_c, 12, 72, 103
13, 190560, Note_on_c, 12, 81, 103
13, 190594, Note_on_c, 12, 81, 0
13, 190594, Note_on_c, 12, 72, 0
13, 190608, Note_on_c, 12, 72, 103
13, 190608, Note_on_c, 12, 81, 103
13, 190642, Note_on_c, 12, 81, 0
13, 190642, Note_on_c, 12, 72, 0
13, 190656, Note_on_c, 12, 81, 103
13, 190656, Note_on_c, 12, 72, 103
13, 190690, Note_on_c, 12, 72, 0
13, 190690, Note_on_c, 12, 81, 0
13, 190704, Note_on_c, 12, 81, 103
13, 190704, Note_on_c, 12, 72, 103
13, 190738, Note_on_c, 12, 72, 0
13, 190738, Note_on_c, 12, 81, 0
13, 190752, Note_on_c, 12, 72, 103
13, 190752, Note_on_c, 12, 81, 103
13, 190786, Note_on_c, 12, 81, 0
13, 190786, Note_on_c, 12, 72, 0
13, 190800, Note_on_c, 12, 81, 103
13, 190800, Note_on_c, 12, 72, 103
13, 190834, Note_on_c, 12, 72, 0
13, 190834, Note_on_c, 12, 81, 0
13, 190848, Note_on_c, 12, 79, 103
13, 190848, Note_on_c, 12, 71, 103
13, 190882, Note_on_c, 12, 71, 0
13, 190882, Note_on_c, 12, 79, 0
13, 190896, Note_on_c, 12, 79, 103
13, 190896, Note_on_c, 12, 71, 103
13, 190930, Note_on_c, 12, 71, 0
13, 190930, Note_on_c, 12, 79, 0
13, 190944, Note_on_c, 12, 79, 103
13, 190944, Note_on_c, 12, 71, 103
13, 190978, Note_on_c, 12, 71, 0
13, 190978, Note_on_c, 12, 79, 0
13, 190992, Note_on_c, 12, 79, 103
13, 190992, Note_on_c, 12, 71, 103
13, 191026, Note_on_c, 12, 71, 0
13, 191026, Note_on_c, 12, 79, 0
13, 191040, Note_on_c, 12, 79, 103
13, 191040, Note_on_c, 12, 71, 103
13, 191074, Note_on_c, 12, 71, 0
13, 191074, Note_on_c, 12, 79, 0
13, 191088, Note_on_c, 12, 79, 103
13, 191088, Note_on_c, 12, 71, 103
13, 191122, Note_on_c, 12, 71, 0
13, 191122, Note_on_c, 12, 79, 0
13, 191136, Note_on_c, 12, 79, 103
13, 191136, Note_on_c, 12, 71, 103
13, 191170, Note_on_c, 12, 71, 0
13, 191170, Note_on_c, 12, 79, 0
13, 191184, Note_on_c, 12, 79, 103
13, 191184, Note_on_c, 12, 71, 103
13, 191218, Note_on_c, 12, 71, 0
13, 191218, Note_on_c, 12, 79, 0
13, 191232, Note_on_c, 12, 72, 82
13, 191232, Note_on_c, 12, 79, 82
13, 191388, Note_on_c, 12, 79, 0
13, 191388, Note_on_c, 12, 72, 0
13, 191792, Note_on_c, 12, 55, 82
13, 191800, Note_on_c, 12, 65, 82
13, 191808, Note_on_c, 12, 74, 82
13, 191864, Note_on_c, 12, 55, 0
13, 191942, Note_on_c, 12, 74, 0
13, 191942, Note_on_c, 12, 65, 0
13, 191984, Note_on_c, 12, 55, 82
13, 191992, Note_on_c, 12, 64, 82
13, 192000, Note_on_c, 12, 72, 82
13, 192056, Note_on_c, 12, 55, 0
13, 192134, Note_on_c, 12, 72, 0
13, 192134, Note_on_c, 12, 64, 0
13, 192560, Note_on_c, 12, 55, 82
13, 192568, Note_on_c, 12, 62, 82
13, 192576, Note_on_c, 12, 71, 82
13, 192632, Note_on_c, 12, 55, 0
13, 192710, Note_on_c, 12, 71, 0
13, 192710, Note_on_c, 12, 62, 0
13, 192768, Note_on_c, 12, 72, 103
13, 192814, Note_on_c, 12, 72, 0
13, 192816, Note_on_c, 12, 72, 103
13, 192862, Note_on_c, 12, 72, 0
13, 192864, Note_on_c, 12, 67, 103
13, 192910, Note_on_c, 12, 67, 0
13, 192912, Note_on_c, 12, 67, 103
13, 192958, Note_on_c, 12, 67, 0
13, 192960, Note_on_c, 12, 64, 103
13, 193006, Note_on_c, 12, 64, 0
13, 193008, Note_on_c, 12, 64, 103
13, 193054, Note_on_c, 12, 64, 0
13, 193056, Note_on_c, 12, 60, 103
13, 193102, Note_on_c, 12, 60, 0
13, 193104, Note_on_c, 12, 60, 103
13, 193150, Note_on_c, 12, 60, 0
13, 193152, Note_on_c, 12, 65, 103
13, 193198, Note_on_c, 12, 65, 0
13, 193200, Note_on_c, 12, 65, 103
13, 193246, Note_on_c, 12, 65, 0
13, 193248, Note_on_c, 12, 62, 103
13, 193294, Note_on_c, 12, 62, 0
13, 193296, Note_on_c, 12, 62, 103
13, 193342, Note_on_c, 12, 62, 0
13, 193344, Note_on_c, 12, 59, 103
13, 193390, Note_on_c, 12, 59, 0
13, 193392, Note_on_c, 12, 59, 103
13, 193438, Note_on_c, 12, 59, 0
13, 193440, Note_on_c, 12, 55, 103
13, 193486, Note_on_c, 12, 55, 0
13, 193488, Note_on_c, 12, 55, 103
13, 193516, Note_on_c, 12, 55, 0
13, 193536, Note_on_c, 12, 60, 103
13, 193582, Note_on_c, 12, 60, 0
13, 193584, Note_on_c, 12, 60, 103
13, 193630, Note_on_c, 12, 60, 0
13, 193632, Note_on_c, 12, 64, 103
13, 193678, Note_on_c, 12, 64, 0
13, 193680, Note_on_c, 12, 64, 103
13, 193726, Note_on_c, 12, 64, 0
13, 193728, Note_on_c, 12, 67, 103
13, 193774, Note_on_c, 12, 67, 0
13, 193776, Note_on_c, 12, 67, 103
13, 193822, Note_on_c, 12, 67, 0
13, 193824, Note_on_c, 12, 64, 103
13, 193870, Note_on_c, 12, 64, 0
13, 193872, Note_on_c, 12, 64, 103
13, 193918, Note_on_c, 12, 64, 0
13, 193920, Note_on_c, 12, 65, 103
13, 193966, Note_on_c, 12, 65, 0
13, 193968, Note_on_c, 12, 65, 103
13, 194014, Note_on_c, 12, 65, 0
13, 194016, Note_on_c, 12, 62, 103
13, 194062, Note_on_c, 12, 62, 0
13, 194064, Note_on_c, 12, 62, 103
13, 194110, Note_on_c, 12, 62, 0
13, 194112, Note_on_c, 12, 71, 103
13, 194158, Note_on_c, 12, 71, 0
13, 194160, Note_on_c, 12, 71, 103
13, 194206, Note_on_c, 12, 71, 0
13, 194208, Note_on_c, 12, 67, 103
13, 194254, Note_on_c, 12, 67, 0
13, 194256, Note_on_c, 12, 67, 103
13, 194284, Note_on_c, 12, 67, 0
13, 194304, Note_on_c, 12, 72, 103
13, 194468, Note_on_c, 12, 72, 0
13, 195408, Note_on_c, 12, 55, 116
13, 195424, Note_on_c, 12, 55, 0
13, 195424, Note_on_c, 12, 57, 116
13, 195440, Note_on_c, 12, 57, 0
13, 195440, Note_on_c, 12, 59, 116
13, 195456, Note_on_c, 12, 59, 0
13, 195456, Note_on_c, 12, 60, 116
13, 195546, Note_on_c, 12, 60, 0
13, 195600, Note_on_c, 12, 60, 116
13, 195624, Note_on_c, 12, 60, 0
13, 195648, Note_on_c, 12, 64, 116
13, 195738, Note_on_c, 12, 64, 0
13, 195792, Note_on_c, 12, 64, 116
13, 195816, Note_on_c, 12, 64, 0
13, 195840, Note_on_c, 12, 67, 116
13, 195974, Note_on_c, 12, 67, 0
13, 196176, Note_on_c, 12, 60, 116
13, 196200, Note_on_c, 12, 60, 0
13, 196200, Note_on_c, 12, 62, 116
13, 196224, Note_on_c, 12, 62, 0
13, 196224, Note_on_c, 12, 64, 116
13, 196314, Note_on_c, 12, 64, 0
13, 196368, Note_on_c, 12, 64, 116
13, 196392, Note_on_c, 12, 64, 0
13, 196416, Note_on_c, 12, 67, 116
13, 196506, Note_on_c, 12, 67, 0
13, 196560, Note_on_c, 12, 67, 116
13, 196584, Note_on_c, 12, 67, 0
13, 196608, Note_on_c, 12, 72, 116
13, 196742, Note_on_c, 12, 72, 0
13, 196944, Note_on_c, 12, 64, 116
13, 196968, Note_on_c, 12, 64, 0
13, 196968, Note_on_c, 12, 65, 116
13, 196992, Note_on_c, 12, 65, 0
13, 196992, Note_on_c, 12, 67, 116
13, 197082, Note_on_c, 12, 67, 0
13, 197136, Note_on_c, 12, 67, 116
13, 197160, Note_on_c, 12, 67, 0
13, 197184, Note_on_c, 12, 72, 116
13, 197274, Note_on_c, 12, 72, 0
13, 197328, Note_on_c, 12, 72, 116
13, 197352, Note_on_c, 12, 72, 0
13, 197376, Note_on_c, 12, 76, 116
13, 197422, Note_on_c, 12, 76, 0
13, 197424, Note_on_c, 12, 72, 103
13, 197470, Note_on_c, 12, 72, 0
13, 197472, Note_on_c, 12, 72, 103
13, 197518, Note_on_c, 12, 72, 0
13, 197520, Note_on_c, 12, 72, 103
13, 197566, Note_on_c, 12, 72, 0
13, 197568, Note_on_c, 12, 72, 103
13, 197614, Note_on_c, 12, 72, 0
13, 197616, Note_on_c, 12, 72, 103
13, 197662, Note_on_c, 12, 72, 0
13, 197664, Note_on_c, 12, 72, 103
13, 197710, Note_on_c, 12, 72, 0
13, 197712, Note_on_c, 12, 72, 103
13, 197758, Note_on_c, 12, 72, 0
13, 197760, Note_on_c, 12, 72, 103
13, 197806, Note_on_c, 12, 72, 0
13, 197808, Note_on_c, 12, 72, 103
13, 197854, Note_on_c, 12, 72, 0
13, 197856, Note_on_c, 12, 72, 103
13, 197902, Note_on_c, 12, 72, 0
13, 197904, Note_on_c, 12, 72, 103
13, 197950, Note_on_c, 12, 72, 0
13, 197952, Note_on_c, 12, 72, 103
13, 197998, Note_on_c, 12, 72, 0
13, 198000, Note_on_c, 12, 72, 103
13, 198046, Note_on_c, 12, 72, 0
13, 198048, Note_on_c, 12, 72, 103
13, 198094, Note_on_c, 12, 72, 0
13, 198096, Note_on_c, 12, 72, 103
13, 198142, Note_on_c, 12, 72, 0
13, 198144, Note_on_c, 12, 64, 103
13, 198190, Note_on_c, 12, 64, 0
13, 198192, Note_on_c, 12, 64, 103
13, 198238, Note_on_c, 12, 64, 0
13, 198240, Note_on_c, 12, 64, 103
13, 198286, Note_on_c, 12, 64, 0
13, 198288, Note_on_c, 12, 64, 103
13, 198334, Note_on_c, 12, 64, 0
13, 198336, Note_on_c, 12, 64, 103
13, 198382, Note_on_c, 12, 64, 0
13, 198384, Note_on_c, 12, 64, 103
13, 198430, Note_on_c, 12, 64, 0
13, 198432, Note_on_c, 12, 64, 103
13, 198478, Note_on_c, 12, 64, 0
13, 198480, Note_on_c, 12, 64, 103
13, 198526, Note_on_c, 12, 64, 0
13, 198528, Note_on_c, 12, 64, 103
13, 198574, Note_on_c, 12, 64, 0
13, 198576, Note_on_c, 12, 64, 103
13, 198622, Note_on_c, 12, 64, 0
13, 198624, Note_on_c, 12, 64, 103
13, 198670, Note_on_c, 12, 64, 0
13, 198672, Note_on_c, 12, 64, 103
13, 198718, Note_on_c, 12, 64, 0
13, 198720, Note_on_c, 12, 64, 103
13, 198766, Note_on_c, 12, 64, 0
13, 198768, Note_on_c, 12, 64, 103
13, 198814, Note_on_c, 12, 64, 0
13, 198816, Note_on_c, 12, 64, 103
13, 198862, Note_on_c, 12, 64, 0
13, 198864, Note_on_c, 12, 64, 103
13, 198910, Note_on_c, 12, 64, 0
13, 198912, Note_on_c, 12, 76, 103
13, 198912, Note_on_c, 12, 67, 103
13, 198958, Note_on_c, 12, 67, 0
13, 198958, Note_on_c, 12, 76, 0
13, 198960, Note_on_c, 12, 67, 103
13, 198960, Note_on_c, 12, 76, 103
13, 199006, Note_on_c, 12, 76, 0
13, 199006, Note_on_c, 12, 67, 0
13, 199008, Note_on_c, 12, 76, 103
13, 199008, Note_on_c, 12, 67, 103
13, 199054, Note_on_c, 12, 67, 0
13, 199054, Note_on_c, 12, 76, 0
13, 199056, Note_on_c, 12, 67, 103
13, 199056, Note_on_c, 12, 76, 103
13, 199102, Note_on_c, 12, 76, 0
13, 199102, Note_on_c, 12, 67, 0
13, 199104, Note_on_c, 12, 76, 103
13, 199104, Note_on_c, 12, 67, 103
13, 199150, Note_on_c, 12, 67, 0
13, 199150, Note_on_c, 12, 76, 0
13, 199152, Note_on_c, 12, 67, 103
13, 199152, Note_on_c, 12, 76, 103
13, 199198, Note_on_c, 12, 76, 0
13, 199198, Note_on_c, 12, 67, 0
13, 199200, Note_on_c, 12, 67, 103
13, 199200, Note_on_c, 12, 76, 103
13, 199246, Note_on_c, 12, 76, 0
13, 199246, Note_on_c, 12, 67, 0
13, 199248, Note_on_c, 12, 67, 103
13, 199248, Note_on_c, 12, 76, 103
13, 199294, Note_on_c, 12, 76, 0
13, 199294, Note_on_c, 12, 67, 0
13, 199296, Note_on_c, 12, 76, 103
13, 199296, Note_on_c, 12, 67, 103
13, 199342, Note_on_c, 12, 67, 0
13, 199342, Note_on_c, 12, 76, 0
13, 199344, Note_on_c, 12, 76, 103
13, 199344, Note_on_c, 12, 67, 103
13, 199390, Note_on_c, 12, 67, 0
13, 199390, Note_on_c, 12, 76, 0
13, 199392, Note_on_c, 12, 76, 103
13, 199392, Note_on_c, 12, 67, 103
13, 199438, Note_on_c, 12, 67, 0
13, 199438, Note_on_c, 12, 76, 0
13, 199440, Note_on_c, 12, 76, 103
13, 199440, Note_on_c, 12, 67, 103
13, 199486, Note_on_c, 12, 67, 0
13, 199486, Note_on_c, 12, 76, 0
13, 199488, Note_on_c, 12, 67, 103
13, 199488, Note_on_c, 12, 76, 103
13, 199534, Note_on_c, 12, 76, 0
13, 199534, Note_on_c, 12, 67, 0
13, 199536, Note_on_c, 12, 67, 103
13, 199536, Note_on_c, 12, 76, 103
13, 199582, Note_on_c, 12, 76, 0
13, 199582, Note_on_c, 12, 67, 0
13, 199584, Note_on_c, 12, 76, 103
13, 199584, Note_on_c, 12, 67, 103
13, 199630, Note_on_c, 12, 67, 0
13, 199630, Note_on_c, 12, 76, 0
13, 199632, Note_on_c, 12, 76, 103
13, 199632, Note_on_c, 12, 67, 103
13, 199678, Note_on_c, 12, 67, 0
13, 199678, Note_on_c, 12, 76, 0
13, 199680, Note_on_c, 12, 67, 103
13, 199680, Note_on_c, 12, 76, 103
13, 199726, Note_on_c, 12, 76, 0
13, 199726, Note_on_c, 12, 67, 0
13, 199728, Note_on_c, 12, 76, 103
13, 199728, Note_on_c, 12, 67, 103
13, 199774, Note_on_c, 12, 67, 0
13, 199774, Note_on_c, 12, 76, 0
13, 199776, Note_on_c, 12, 76, 103
13, 199776, Note_on_c, 12, 67, 103
13, 199822, Note_on_c, 12, 67, 0
13, 199822, Note_on_c, 12, 76, 0
13, 199824, Note_on_c, 12, 76, 103
13, 199824, Note_on_c, 12, 67, 103
13, 199870, Note_on_c, 12, 67, 0
13, 199870, Note_on_c, 12, 76, 0
13, 199872, Note_on_c, 12, 76, 103
13, 199872, Note_on_c, 12, 67, 103
13, 199918, Note_on_c, 12, 67, 0
13, 199918, Note_on_c, 12, 76, 0
13, 199920, Note_on_c, 12, 76, 103
13, 199920, Note_on_c, 12, 67, 103
13, 199966, Note_on_c, 12, 67, 0
13, 199966, Note_on_c, 12, 76, 0
13, 199968, Note_on_c, 12, 76, 103
13, 199968, Note_on_c, 12, 67, 103
13, 200014, Note_on_c, 12, 67, 0
13, 200014, Note_on_c, 12, 76, 0
13, 200016, Note_on_c, 12, 76, 103
13, 200016, Note_on_c, 12, 67, 103
13, 200062, Note_on_c, 12, 67, 0
13, 200062, Note_on_c, 12, 76, 0
13, 200064, Note_on_c, 12, 76, 103
13, 200064, Note_on_c, 12, 67, 103
13, 200110, Note_on_c, 12, 67, 0
13, 200110, Note_on_c, 12, 76, 0
13, 200112, Note_on_c, 12, 76, 103
13, 200112, Note_on_c, 12, 67, 103
13, 200158, Note_on_c, 12, 67, 0
13, 200158, Note_on_c, 12, 76, 0
13, 200160, Note_on_c, 12, 67, 103
13, 200160, Note_on_c, 12, 76, 103
13, 200206, Note_on_c, 12, 76, 0
13, 200206, Note_on_c, 12, 67, 0
13, 200208, Note_on_c, 12, 76, 103
13, 200208, Note_on_c, 12, 67, 103
13, 200254, Note_on_c, 12, 67, 0
13, 200254, Note_on_c, 12, 76, 0
13, 200256, Note_on_c, 12, 76, 103
13, 200256, Note_on_c, 12, 67, 103
13, 200302, Note_on_c, 12, 67, 0
13, 200302, Note_on_c, 12, 76, 0
13, 200304, Note_on_c, 12, 76, 103
13, 200304, Note_on_c, 12, 67, 103
13, 200350, Note_on_c, 12, 67, 0
13, 200350, Note_on_c, 12, 76, 0
13, 200352, Note_on_c, 12, 67, 103
13, 200352, Note_on_c, 12, 76, 103
13, 200398, Note_on_c, 12, 76, 0
13, 200398, Note_on_c, 12, 67, 0
13, 200400, Note_on_c, 12, 76, 103
13, 200400, Note_on_c, 12, 67, 103
13, 200446, Note_on_c, 12, 67, 0
13, 200446, Note_on_c, 12, 76, 0
13, 200448, Note_on_c, 12, 79, 103
13, 200448, Note_on_c, 12, 72, 103
13, 200494, Note_on_c, 12, 72, 0
13, 200494, Note_on_c, 12, 79, 0
13, 200496, Note_on_c, 12, 79, 103
13, 200496, Note_on_c, 12, 72, 103
13, 200542, Note_on_c, 12, 72, 0
13, 200542, Note_on_c, 12, 79, 0
13, 200544, Note_on_c, 12, 79, 103
13, 200544, Note_on_c, 12, 72, 103
13, 200590, Note_on_c, 12, 72, 0
13, 200590, Note_on_c, 12, 79, 0
13, 200592, Note_on_c, 12, 72, 103
13, 200592, Note_on_c, 12, 79, 103
13, 200638, Note_on_c, 12, 79, 0
13, 200638, Note_on_c, 12, 72, 0
13, 200640, Note_on_c, 12, 72, 103
13, 200640, Note_on_c, 12, 79, 103
13, 200686, Note_on_c, 12, 79, 0
13, 200686, Note_on_c, 12, 72, 0
13, 200688, Note_on_c, 12, 79, 103
13, 200688, Note_on_c, 12, 72, 103
13, 200734, Note_on_c, 12, 72, 0
13, 200734, Note_on_c, 12, 79, 0
13, 200736, Note_on_c, 12, 79, 103
13, 200736, Note_on_c, 12, 72, 103
13, 200782, Note_on_c, 12, 72, 0
13, 200782, Note_on_c, 12, 79, 0
13, 200784, Note_on_c, 12, 72, 103
13, 200784, Note_on_c, 12, 79, 103
13, 200830, Note_on_c, 12, 79, 0
13, 200830, Note_on_c, 12, 72, 0
13, 200832, Note_on_c, 12, 72, 103
13, 200832, Note_on_c, 12, 79, 103
13, 200878, Note_on_c, 12, 79, 0
13, 200878, Note_on_c, 12, 72, 0
13, 200880, Note_on_c, 12, 79, 103
13, 200880, Note_on_c, 12, 72, 103
13, 200926, Note_on_c, 12, 72, 0
13, 200926, Note_on_c, 12, 79, 0
13, 200928, Note_on_c, 12, 72, 103
13, 200928, Note_on_c, 12, 79, 103
13, 200974, Note_on_c, 12, 79, 0
13, 200974, Note_on_c, 12, 72, 0
13, 200976, Note_on_c, 12, 72, 103
13, 200976, Note_on_c, 12, 79, 103
13, 201022, Note_on_c, 12, 79, 0
13, 201022, Note_on_c, 12, 72, 0
13, 201024, Note_on_c, 12, 72, 103
13, 201024, Note_on_c, 12, 79, 103
13, 201070, Note_on_c, 12, 79, 0
13, 201070, Note_on_c, 12, 72, 0
13, 201072, Note_on_c, 12, 79, 103
13, 201072, Note_on_c, 12, 72, 103
13, 201118, Note_on_c, 12, 72, 0
13, 201118, Note_on_c, 12, 79, 0
13, 201120, Note_on_c, 12, 79, 103
13, 201120, Note_on_c, 12, 72, 103
13, 201166, Note_on_c, 12, 72, 0
13, 201166, Note_on_c, 12, 79, 0
13, 201168, Note_on_c, 12, 79, 103
13, 201168, Note_on_c, 12, 72, 103
13, 201214, Note_on_c, 12, 72, 0
13, 201214, Note_on_c, 12, 79, 0
13, 201216, Note_on_c, 12, 79, 103
13, 201216, Note_on_c, 12, 72, 103
13, 201262, Note_on_c, 12, 72, 0
13, 201262, Note_on_c, 12, 79, 0
13, 201264, Note_on_c, 12, 72, 103
13, 201264, Note_on_c, 12, 79, 103
13, 201310, Note_on_c, 12, 79, 0
13, 201310, Note_on_c, 12, 72, 0
13, 201312, Note_on_c, 12, 72, 103
13, 201312, Note_on_c, 12, 79, 103
13, 201358, Note_on_c, 12, 79, 0
13, 201358, Note_on_c, 12, 72, 0
13, 201360, Note_on_c, 12, 79, 103
13, 201360, Note_on_c, 12, 72, 103
13, 201406, Note_on_c, 12, 72, 0
13, 201406, Note_on_c, 12, 79, 0
13, 201408, Note_on_c, 12, 79, 103
13, 201408, Note_on_c, 12, 72, 103
13, 201454, Note_on_c, 12, 72, 0
13, 201454, Note_on_c, 12, 79, 0
13, 201456, Note_on_c, 12, 72, 103
13, 201456, Note_on_c, 12, 79, 103
13, 201502, Note_on_c, 12, 79, 0
13, 201502, Note_on_c, 12, 72, 0
13, 201504, Note_on_c, 12, 79, 103
13, 201504, Note_on_c, 12, 72, 103
13, 201550, Note_on_c, 12, 72, 0
13, 201550, Note_on_c, 12, 79, 0
13, 201552, Note_on_c, 12, 79, 103
13, 201552, Note_on_c, 12, 72, 103
13, 201598, Note_on_c, 12, 72, 0
13, 201598, Note_on_c, 12, 79, 0
13, 201600, Note_on_c, 12, 79, 103
13, 201600, Note_on_c, 12, 72, 103
13, 201646, Note_on_c, 12, 72, 0
13, 201646, Note_on_c, 12, 79, 0
13, 201648, Note_on_c, 12, 79, 103
13, 201648, Note_on_c, 12, 72, 103
13, 201694, Note_on_c, 12, 72, 0
13, 201694, Note_on_c, 12, 79, 0
13, 201696, Note_on_c, 12, 79, 103
13, 201696, Note_on_c, 12, 72, 103
13, 201742, Note_on_c, 12, 72, 0
13, 201742, Note_on_c, 12, 79, 0
13, 201744, Note_on_c, 12, 79, 103
13, 201744, Note_on_c, 12, 72, 103
13, 201790, Note_on_c, 12, 72, 0
13, 201790, Note_on_c, 12, 79, 0
13, 201792, Note_on_c, 12, 79, 103
13, 201792, Note_on_c, 12, 72, 103
13, 201838, Note_on_c, 12, 72, 0
13, 201838, Note_on_c, 12, 79, 0
13, 201840, Note_on_c, 12, 79, 103
13, 201840, Note_on_c, 12, 72, 103
13, 201886, Note_on_c, 12, 72, 0
13, 201886, Note_on_c, 12, 79, 0
13, 201888, Note_on_c, 12, 79, 103
13, 201888, Note_on_c, 12, 72, 103
13, 201934, Note_on_c, 12, 72, 0
13, 201934, Note_on_c, 12, 79, 0
13, 201936, Note_on_c, 12, 72, 103
13, 201936, Note_on_c, 12, 79, 103
13, 201982, Note_on_c, 12, 79, 0
13, 201982, Note_on_c, 12, 72, 0
13, 201984, Note_on_c, 12, 79, 103
13, 201984, Note_on_c, 12, 72, 103
13, 202296, Note_on_c, 12, 72, 0
13, 202296, Note_on_c, 12, 79, 0
13, 204864, Control_c, 12, 121, 0
13, 204864, End_track
14, 0, Start_track
14, 0, MIDI_port, 0
14, 0, Title_t, "Viola"
14, 0, Program_c, 13, 48
14, 0, Control_c, 13, 7, 109
14, 0, Control_c, 13, 10, 58
14, 0, Text_t, ""
14, 96, Control_c, 13, 121, 0
14, 192, Control_c, 13, 91, 54
14, 288, Control_c, 13, 93, 5
14, 768, Control_c, 13, 11, 121
14, 768, Note_on_c, 13, 72, 108
14, 785, Control_c, 13, 11, 122
14, 798, Control_c, 13, 11, 125
14, 807, Control_c, 13, 11, 127
14, 912, Control_c, 13, 11, 124
14, 916, Control_c, 13, 11, 121
14, 925, Control_c, 13, 11, 120
14, 929, Control_c, 13, 11, 118
14, 938, Control_c, 13, 11, 117
14, 951, Control_c, 13, 11, 114
14, 955, Control_c, 13, 11, 111
14, 968, Control_c, 13, 11, 109
14, 994, Control_c, 13, 11, 108
14, 1003, Control_c, 13, 11, 106
14, 1008, Control_c, 13, 11, 105
14, 1029, Control_c, 13, 11, 103
14, 1176, Note_on_c, 13, 72, 0
14, 5336, Control_c, 13, 11, 127
14, 5376, Note_on_c, 13, 65, 103
14, 5474, Note_on_c, 13, 65, 0
14, 5568, Note_on_c, 13, 65, 103
14, 5646, Note_on_c, 13, 65, 0
14, 5713, Note_on_c, 13, 65, 103
14, 5741, Note_on_c, 13, 65, 0
14, 5760, Note_on_c, 13, 65, 103
14, 5851, Note_on_c, 13, 65, 0
14, 5952, Note_on_c, 13, 65, 103
14, 6042, Note_on_c, 13, 65, 0
14, 6144, Note_on_c, 13, 69, 103
14, 6144, Note_on_c, 13, 65, 103
14, 6159, Control_c, 13, 11, 126
14, 6168, Control_c, 13, 11, 124
14, 6194, Control_c, 13, 11, 123
14, 6237, Control_c, 13, 11, 121
14, 6246, Control_c, 13, 11, 120
14, 6264, Control_c, 13, 11, 118
14, 6272, Control_c, 13, 11, 117
14, 6298, Control_c, 13, 11, 115
14, 6316, Control_c, 13, 11, 111
14, 6325, Control_c, 13, 11, 108
14, 6342, Control_c, 13, 11, 106
14, 6351, Control_c, 13, 11, 105
14, 6368, Control_c, 13, 11, 103
14, 6534, Control_c, 13, 11, 104
14, 6600, Note_on_c, 13, 65, 0
14, 6600, Note_on_c, 13, 69, 0
14, 6720, Note_on_c, 13, 69, 103
14, 6720, Note_on_c, 13, 65, 103
14, 6726, Control_c, 13, 11, 127
14, 6828, Note_on_c, 13, 65, 0
14, 6828, Note_on_c, 13, 69, 0
14, 6912, Note_on_c, 13, 67, 103
14, 6912, Note_on_c, 13, 64, 103
14, 7022, Note_on_c, 13, 64, 0
14, 7022, Note_on_c, 13, 67, 0
14, 7104, Note_on_c, 13, 65, 103
14, 7104, Note_on_c, 13, 62, 103
14, 7214, Note_on_c, 13, 62, 0
14, 7214, Note_on_c, 13, 65, 0
14, 7296, Note_on_c, 13, 64, 103
14, 7296, Note_on_c, 13, 60, 103
14, 7406, Note_on_c, 13, 60, 0
14, 7406, Note_on_c, 13, 64, 0
14, 7488, Note_on_c, 13, 62, 103
14, 7488, Note_on_c, 13, 59, 103
14, 7596, Note_on_c, 13, 59, 0
14, 7596, Note_on_c, 13, 62, 0
14, 7680, Note_on_c, 13, 60, 103
14, 7770, Note_on_c, 13, 60, 0
14, 7872, Note_on_c, 13, 64, 103
14, 7962, Note_on_c, 13, 64, 0
14, 8064, Note_on_c, 13, 67, 103
14, 8154, Note_on_c, 13, 67, 0
14, 8448, Note_on_c, 13, 65, 103
14, 8550, Note_on_c, 13, 65, 0
14, 8640, Note_on_c, 13, 65, 103
14, 8700, Note_on_c, 13, 65, 0
14, 8785, Note_on_c, 13, 65, 103
14, 8813, Note_on_c, 13, 65, 0
14, 8832, Note_on_c, 13, 65, 103
14, 8934, Note_on_c, 13, 65, 0
14, 9024, Note_on_c, 13, 65, 103
14, 9126, Note_on_c, 13, 65, 0
14, 9216, Note_on_c, 13, 69, 103
14, 9216, Note_on_c, 13, 65, 103
14, 9222, Control_c, 13, 11, 124
14, 9231, Control_c, 13, 11, 125
14, 9257, Control_c, 13, 11, 127
14, 9353, Control_c, 13, 11, 124
14, 9362, Control_c, 13, 11, 121
14, 9379, Control_c, 13, 11, 120
14, 9388, Control_c, 13, 11, 118
14, 9405, Control_c, 13, 11, 117
14, 9414, Control_c, 13, 11, 115
14, 9440, Control_c, 13, 11, 114
14, 9466, Control_c, 13, 11, 112
14, 9484, Control_c, 13, 11, 111
14, 9493, Control_c, 13, 11, 109
14, 9510, Control_c, 13, 11, 108
14, 9519, Control_c, 13, 11, 106
14, 9757, Note_on_c, 13, 65, 0
14, 9757, Note_on_c, 13, 69, 0
14, 9982, Control_c, 13, 11, 127
14, 9984, Note_on_c, 13, 68, 42
14, 9984, Note_on_c, 13, 65, 42
14, 10083, Note_on_c, 13, 65, 0
14, 10083, Note_on_c, 13, 68, 0
14, 10176, Note_on_c, 13, 68, 42
14, 10176, Note_on_c, 13, 65, 42
14, 10244, Note_on_c, 13, 65, 0
14, 10244, Note_on_c, 13, 68, 0
14, 10321, Note_on_c, 13, 68, 42
14, 10321, Note_on_c, 13, 65, 42
14, 10351, Note_on_c, 13, 65, 0
14, 10351, Note_on_c, 13, 68, 0
14, 10368, Note_on_c, 13, 68, 42
14, 10368, Note_on_c, 13, 65, 42
14, 10464, Note_on_c, 13, 65, 0
14, 10464, Note_on_c, 13, 68, 0
14, 10560, Note_on_c, 13, 68, 42
14, 10560, Note_on_c, 13, 65, 42
14, 10656, Note_on_c, 13, 65, 0
14, 10656, Note_on_c, 13, 68, 0
14, 10752, Note_on_c, 13, 68, 42
14, 10752, Note_on_c, 13, 65, 42
14, 10769, Control_c, 13, 11, 126
14, 10848, Control_c, 13, 11, 127
14, 10900, Control_c, 13, 11, 126
14, 10909, Control_c, 13, 11, 124
14, 10935, Control_c, 13, 11, 121
14, 10952, Control_c, 13, 11, 120
14, 10978, Control_c, 13, 11, 118
14, 11066, Control_c, 13, 11, 117
14, 11136, Control_c, 13, 11, 115
14, 11144, Control_c, 13, 11, 114
14, 11170, Control_c, 13, 11, 111
14, 11188, Control_c, 13, 11, 109
14, 11197, Control_c, 13, 11, 108
14, 11214, Control_c, 13, 11, 106
14, 11249, Control_c, 13, 11, 105
14, 11258, Note_on_c, 13, 68, 0
14, 11259, Note_on_c, 13, 65, 0
14, 11266, Control_c, 13, 11, 102
14, 11328, Note_on_c, 13, 68, 45
14, 11328, Note_on_c, 13, 65, 45
14, 11328, Control_c, 13, 11, 127
14, 11396, Note_on_c, 13, 65, 0
14, 11396, Note_on_c, 13, 68, 0
14, 11520, Note_on_c, 13, 67, 45
14, 11520, Note_on_c, 13, 63, 45
14, 11588, Note_on_c, 13, 63, 0
14, 11588, Note_on_c, 13, 67, 0
14, 11712, Note_on_c, 13, 65, 45
14, 11712, Note_on_c, 13, 62, 45
14, 11780, Note_on_c, 13, 62, 0
14, 11780, Note_on_c, 13, 65, 0
14, 11904, Note_on_c, 13, 63, 45
14, 11904, Note_on_c, 13, 60, 45
14, 11972, Note_on_c, 13, 60, 0
14, 11972, Note_on_c, 13, 63, 0
14, 12096, Note_on_c, 13, 62, 45
14, 12096, Note_on_c, 13, 59, 45
14, 12164, Note_on_c, 13, 59, 0
14, 12164, Note_on_c, 13, 62, 0
14, 13056, Note_on_c, 13, 60, 52
14, 13102, Note_on_c, 13, 60, 0
14, 13104, Note_on_c, 13, 60, 52
14, 13150, Note_on_c, 13, 60, 0
14, 13152, Note_on_c, 13, 60, 52
14, 13198, Note_on_c, 13, 60, 0
14, 13200, Note_on_c, 13, 60, 52
14, 13246, Note_on_c, 13, 60, 0
14, 13248, Note_on_c, 13, 64, 52
14, 13294, Note_on_c, 13, 64, 0
14, 13296, Note_on_c, 13, 64, 52
14, 13342, Note_on_c, 13, 64, 0
14, 13344, Note_on_c, 13, 64, 52
14, 13390, Note_on_c, 13, 64, 0
14, 13392, Note_on_c, 13, 64, 52
14, 13438, Note_on_c, 13, 64, 0
14, 13440, Note_on_c, 13, 67, 52
14, 13486, Note_on_c, 13, 67, 0
14, 13488, Note_on_c, 13, 67, 52
14, 13534, Note_on_c, 13, 67, 0
14, 13536, Note_on_c, 13, 67, 52
14, 13582, Note_on_c, 13, 67, 0
14, 13584, Note_on_c, 13, 67, 52
14, 13630, Note_on_c, 13, 67, 0
14, 13632, Note_on_c, 13, 55, 52
14, 13678, Note_on_c, 13, 55, 0
14, 13680, Note_on_c, 13, 55, 53
14, 13726, Note_on_c, 13, 55, 0
14, 13728, Note_on_c, 13, 55, 54
14, 13774, Note_on_c, 13, 55, 0
14, 13776, Note_on_c, 13, 55, 55
14, 13822, Note_on_c, 13, 55, 0
14, 13824, Note_on_c, 13, 60, 56
14, 13870, Note_on_c, 13, 60, 0
14, 13872, Note_on_c, 13, 60, 57
14, 13918, Note_on_c, 13, 60, 0
14, 13920, Note_on_c, 13, 60, 59
14, 13966, Note_on_c, 13, 60, 0
14, 13968, Note_on_c, 13, 60, 59
14, 14014, Note_on_c, 13, 60, 0
14, 14016, Note_on_c, 13, 64, 60
14, 14062, Note_on_c, 13, 64, 0
14, 14064, Note_on_c, 13, 64, 61
14, 14110, Note_on_c, 13, 64, 0
14, 14112, Note_on_c, 13, 64, 62
14, 14158, Note_on_c, 13, 64, 0
14, 14160, Note_on_c, 13, 64, 63
14, 14206, Note_on_c, 13, 64, 0
14, 14208, Note_on_c, 13, 67, 65
14, 14254, Note_on_c, 13, 67, 0
14, 14256, Note_on_c, 13, 67, 66
14, 14302, Note_on_c, 13, 67, 0
14, 14304, Note_on_c, 13, 67, 67
14, 14350, Note_on_c, 13, 67, 0
14, 14352, Note_on_c, 13, 67, 69
14, 14398, Note_on_c, 13, 67, 0
14, 14400, Note_on_c, 13, 55, 70
14, 14446, Note_on_c, 13, 55, 0
14, 14448, Note_on_c, 13, 55, 71
14, 14494, Note_on_c, 13, 55, 0
14, 14496, Note_on_c, 13, 55, 73
14, 14542, Note_on_c, 13, 55, 0
14, 14544, Note_on_c, 13, 55, 74
14, 14590, Note_on_c, 13, 55, 0
14, 14592, Note_on_c, 13, 60, 76
14, 14638, Note_on_c, 13, 60, 0
14, 14640, Note_on_c, 13, 60, 78
14, 14686, Note_on_c, 13, 60, 0
14, 14688, Note_on_c, 13, 60, 79
14, 14734, Note_on_c, 13, 60, 0
14, 14736, Note_on_c, 13, 60, 81
14, 14782, Note_on_c, 13, 60, 0
14, 14784, Note_on_c, 13, 64, 83
14, 14830, Note_on_c, 13, 64, 0
14, 14832, Note_on_c, 13, 64, 84
14, 14878, Note_on_c, 13, 64, 0
14, 14880, Note_on_c, 13, 64, 86
14, 14926, Note_on_c, 13, 64, 0
14, 14928, Note_on_c, 13, 64, 88
14, 14974, Note_on_c, 13, 64, 0
14, 14976, Note_on_c, 13, 67, 89
14, 15022, Note_on_c, 13, 67, 0
14, 15024, Note_on_c, 13, 67, 91
14, 15070, Note_on_c, 13, 67, 0
14, 15072, Note_on_c, 13, 67, 93
14, 15118, Note_on_c, 13, 67, 0
14, 15120, Note_on_c, 13, 67, 94
14, 15166, Note_on_c, 13, 67, 0
14, 15168, Note_on_c, 13, 55, 96
14, 15214, Note_on_c, 13, 55, 0
14, 15216, Note_on_c, 13, 55, 98
14, 15262, Note_on_c, 13, 55, 0
14, 15264, Note_on_c, 13, 55, 99
14, 15310, Note_on_c, 13, 55, 0
14, 15312, Note_on_c, 13, 55, 101
14, 15358, Note_on_c, 13, 55, 0
14, 15360, Note_on_c, 13, 60, 61
14, 15450, Note_on_c, 13, 60, 0
14, 15456, Note_on_c, 13, 60, 61
14, 15546, Note_on_c, 13, 60, 0
14, 15552, Note_on_c, 13, 60, 61
14, 15642, Note_on_c, 13, 60, 0
14, 15648, Note_on_c, 13, 60, 61
14, 15738, Note_on_c, 13, 60, 0
14, 15744, Note_on_c, 13, 60, 61
14, 15834, Note_on_c, 13, 60, 0
14, 15840, Note_on_c, 13, 60, 61
14, 15930, Note_on_c, 13, 60, 0
14, 15936, Note_on_c, 13, 60, 61
14, 16026, Note_on_c, 13, 60, 0
14, 16032, Note_on_c, 13, 60, 61
14, 16122, Note_on_c, 13, 60, 0
14, 16128, Note_on_c, 13, 60, 61
14, 16218, Note_on_c, 13, 60, 0
14, 16224, Note_on_c, 13, 60, 61
14, 16314, Note_on_c, 13, 60, 0
14, 16320, Note_on_c, 13, 60, 61
14, 16410, Note_on_c, 13, 60, 0
14, 16416, Note_on_c, 13, 60, 61
14, 16506, Note_on_c, 13, 60, 0
14, 16512, Note_on_c, 13, 60, 61
14, 16602, Note_on_c, 13, 60, 0
14, 16608, Note_on_c, 13, 60, 61
14, 16698, Note_on_c, 13, 60, 0
14, 16704, Note_on_c, 13, 60, 61
14, 16794, Note_on_c, 13, 60, 0
14, 16800, Note_on_c, 13, 60, 61
14, 16890, Note_on_c, 13, 60, 0
14, 16896, Note_on_c, 13, 60, 61
14, 16986, Note_on_c, 13, 60, 0
14, 16992, Note_on_c, 13, 60, 61
14, 17082, Note_on_c, 13, 60, 0
14, 17088, Note_on_c, 13, 60, 61
14, 17178, Note_on_c, 13, 60, 0
14, 17184, Note_on_c, 13, 60, 61
14, 17274, Note_on_c, 13, 60, 0
14, 17280, Note_on_c, 13, 60, 61
14, 17370, Note_on_c, 13, 60, 0
14, 17376, Note_on_c, 13, 60, 61
14, 17466, Note_on_c, 13, 60, 0
14, 17472, Note_on_c, 13, 60, 61
14, 17562, Note_on_c, 13, 60, 0
14, 17568, Note_on_c, 13, 60, 61
14, 17658, Note_on_c, 13, 60, 0
14, 17664, Note_on_c, 13, 60, 61
14, 17754, Note_on_c, 13, 60, 0
14, 17760, Note_on_c, 13, 60, 61
14, 17850, Note_on_c, 13, 60, 0
14, 17856, Note_on_c, 13, 60, 61
14, 17946, Note_on_c, 13, 60, 0
14, 17952, Note_on_c, 13, 60, 61
14, 18042, Note_on_c, 13, 60, 0
14, 18048, Note_on_c, 13, 60, 61
14, 18138, Note_on_c, 13, 60, 0
14, 18144, Note_on_c, 13, 60, 61
14, 18234, Note_on_c, 13, 60, 0
14, 18240, Note_on_c, 13, 60, 61
14, 18330, Note_on_c, 13, 60, 0
14, 18336, Note_on_c, 13, 60, 61
14, 18426, Note_on_c, 13, 60, 0
14, 18432, Note_on_c, 13, 59, 61
14, 18522, Note_on_c, 13, 59, 0
14, 18528, Note_on_c, 13, 59, 61
14, 18618, Note_on_c, 13, 59, 0
14, 18624, Note_on_c, 13, 59, 61
14, 18714, Note_on_c, 13, 59, 0
14, 18720, Note_on_c, 13, 59, 61
14, 18810, Note_on_c, 13, 59, 0
14, 18816, Note_on_c, 13, 59, 61
14, 18906, Note_on_c, 13, 59, 0
14, 18912, Note_on_c, 13, 59, 61
14, 19002, Note_on_c, 13, 59, 0
14, 19008, Note_on_c, 13, 59, 61
14, 19098, Note_on_c, 13, 59, 0
14, 19104, Note_on_c, 13, 59, 61
14, 19194, Note_on_c, 13, 59, 0
14, 19200, Note_on_c, 13, 71, 61
14, 19290, Note_on_c, 13, 71, 0
14, 19296, Note_on_c, 13, 71, 61
14, 19386, Note_on_c, 13, 71, 0
14, 19392, Note_on_c, 13, 71, 61
14, 19482, Note_on_c, 13, 71, 0
14, 19488, Note_on_c, 13, 71, 61
14, 19578, Note_on_c, 13, 71, 0
14, 19584, Note_on_c, 13, 71, 61
14, 19674, Note_on_c, 13, 71, 0
14, 19680, Note_on_c, 13, 71, 61
14, 19770, Note_on_c, 13, 71, 0
14, 19776, Note_on_c, 13, 71, 61
14, 19866, Note_on_c, 13, 71, 0
14, 19872, Note_on_c, 13, 71, 61
14, 19962, Note_on_c, 13, 71, 0
14, 19968, Note_on_c, 13, 66, 61
14, 20058, Note_on_c, 13, 66, 0
14, 20064, Note_on_c, 13, 66, 61
14, 20154, Note_on_c, 13, 66, 0
14, 20160, Note_on_c, 13, 66, 61
14, 20250, Note_on_c, 13, 66, 0
14, 20256, Note_on_c, 13, 66, 61
14, 20346, Note_on_c, 13, 66, 0
14, 20352, Note_on_c, 13, 66, 61
14, 20442, Note_on_c, 13, 66, 0
14, 20448, Note_on_c, 13, 66, 61
14, 20538, Note_on_c, 13, 66, 0
14, 20544, Note_on_c, 13, 66, 61
14, 20634, Note_on_c, 13, 66, 0
14, 20640, Note_on_c, 13, 66, 61
14, 20730, Note_on_c, 13, 66, 0
14, 20736, Note_on_c, 13, 66, 61
14, 20826, Note_on_c, 13, 66, 0
14, 20832, Note_on_c, 13, 66, 61
14, 20922, Note_on_c, 13, 66, 0
14, 20928, Note_on_c, 13, 66, 61
14, 21018, Note_on_c, 13, 66, 0
14, 21024, Note_on_c, 13, 66, 61
14, 21114, Note_on_c, 13, 66, 0
14, 21120, Note_on_c, 13, 66, 61
14, 21210, Note_on_c, 13, 66, 0
14, 21216, Note_on_c, 13, 66, 61
14, 21306, Note_on_c, 13, 66, 0
14, 21312, Note_on_c, 13, 66, 61
14, 21402, Note_on_c, 13, 66, 0
14, 21408, Note_on_c, 13, 66, 61
14, 21498, Note_on_c, 13, 66, 0
14, 21504, Note_on_c, 13, 67, 61
14, 21594, Note_on_c, 13, 67, 0
14, 21600, Note_on_c, 13, 67, 61
14, 21690, Note_on_c, 13, 67, 0
14, 21696, Note_on_c, 13, 67, 61
14, 21786, Note_on_c, 13, 67, 0
14, 21792, Note_on_c, 13, 67, 61
14, 21882, Note_on_c, 13, 67, 0
14, 21888, Note_on_c, 13, 67, 61
14, 21978, Note_on_c, 13, 67, 0
14, 21984, Note_on_c, 13, 67, 61
14, 22074, Note_on_c, 13, 67, 0
14, 22080, Note_on_c, 13, 67, 61
14, 22170, Note_on_c, 13, 67, 0
14, 22176, Note_on_c, 13, 67, 61
14, 22266, Note_on_c, 13, 67, 0
14, 22272, Note_on_c, 13, 69, 61
14, 22362, Note_on_c, 13, 69, 0
14, 22368, Note_on_c, 13, 69, 61
14, 22458, Note_on_c, 13, 69, 0
14, 22464, Note_on_c, 13, 69, 61
14, 22554, Note_on_c, 13, 69, 0
14, 22560, Note_on_c, 13, 69, 61
14, 22650, Note_on_c, 13, 69, 0
14, 22656, Note_on_c, 13, 69, 61
14, 22746, Note_on_c, 13, 69, 0
14, 22752, Note_on_c, 13, 69, 61
14, 22842, Note_on_c, 13, 69, 0
14, 22848, Note_on_c, 13, 69, 61
14, 22938, Note_on_c, 13, 69, 0
14, 22944, Note_on_c, 13, 69, 61
14, 23034, Note_on_c, 13, 69, 0
14, 23040, Note_on_c, 13, 70, 61
14, 23130, Note_on_c, 13, 70, 0
14, 23136, Note_on_c, 13, 70, 61
14, 23226, Note_on_c, 13, 70, 0
14, 23232, Note_on_c, 13, 70, 61
14, 23322, Note_on_c, 13, 70, 0
14, 23328, Note_on_c, 13, 70, 61
14, 23418, Note_on_c, 13, 70, 0
14, 23424, Note_on_c, 13, 70, 61
14, 23514, Note_on_c, 13, 70, 0
14, 23520, Note_on_c, 13, 70, 61
14, 23610, Note_on_c, 13, 70, 0
14, 23616, Note_on_c, 13, 70, 61
14, 23706, Note_on_c, 13, 70, 0
14, 23712, Note_on_c, 13, 70, 61
14, 23802, Note_on_c, 13, 70, 0
14, 23808, Note_on_c, 13, 63, 61
14, 23898, Note_on_c, 13, 63, 0
14, 23904, Note_on_c, 13, 63, 61
14, 23994, Note_on_c, 13, 63, 0
14, 24000, Note_on_c, 13, 63, 61
14, 24090, Note_on_c, 13, 63, 0
14, 24096, Note_on_c, 13, 63, 61
14, 24186, Note_on_c, 13, 63, 0
14, 24192, Note_on_c, 13, 63, 61
14, 24282, Note_on_c, 13, 63, 0
14, 24288, Note_on_c, 13, 63, 61
14, 24378, Note_on_c, 13, 63, 0
14, 24384, Note_on_c, 13, 63, 61
14, 24474, Note_on_c, 13, 63, 0
14, 24480, Note_on_c, 13, 63, 61
14, 24570, Note_on_c, 13, 63, 0
14, 24576, Note_on_c, 13, 62, 61
14, 24666, Note_on_c, 13, 62, 0
14, 24672, Note_on_c, 13, 62, 61
14, 24762, Note_on_c, 13, 62, 0
14, 24768, Note_on_c, 13, 62, 61
14, 24858, Note_on_c, 13, 62, 0
14, 24864, Note_on_c, 13, 62, 61
14, 24954, Note_on_c, 13, 62, 0
14, 24960, Note_on_c, 13, 62, 61
14, 25050, Note_on_c, 13, 62, 0
14, 25056, Note_on_c, 13, 62, 61
14, 25146, Note_on_c, 13, 62, 0
14, 25152, Note_on_c, 13, 62, 61
14, 25242, Note_on_c, 13, 62, 0
14, 25248, Note_on_c, 13, 62, 61
14, 25338, Note_on_c, 13, 62, 0
14, 25344, Note_on_c, 13, 63, 61
14, 25434, Note_on_c, 13, 63, 0
14, 25440, Note_on_c, 13, 63, 61
14, 25530, Note_on_c, 13, 63, 0
14, 25536, Note_on_c, 13, 63, 61
14, 25626, Note_on_c, 13, 63, 0
14, 25632, Note_on_c, 13, 63, 61
14, 25722, Note_on_c, 13, 63, 0
14, 25728, Note_on_c, 13, 63, 61
14, 25818, Note_on_c, 13, 63, 0
14, 25824, Note_on_c, 13, 63, 61
14, 25914, Note_on_c, 13, 63, 0
14, 25920, Note_on_c, 13, 63, 61
14, 26010, Note_on_c, 13, 63, 0
14, 26016, Note_on_c, 13, 63, 61
14, 26106, Note_on_c, 13, 63, 0
14, 26112, Note_on_c, 13, 62, 61
14, 26286, Note_on_c, 13, 62, 0
14, 26400, Note_on_c, 13, 62, 82
14, 26478, Note_on_c, 13, 62, 0
14, 26496, Note_on_c, 13, 70, 82
14, 26592, Note_on_c, 13, 70, 0
14, 26592, Note_on_c, 13, 69, 82
14, 26688, Note_on_c, 13, 69, 0
14, 26688, Note_on_c, 13, 67, 82
14, 26784, Note_on_c, 13, 67, 0
14, 26784, Note_on_c, 13, 70, 82
14, 26862, Note_on_c, 13, 70, 0
14, 26880, Note_on_c, 13, 74, 82
14, 27054, Note_on_c, 13, 74, 0
14, 27168, Note_on_c, 13, 62, 82
14, 27246, Note_on_c, 13, 62, 0
14, 27264, Note_on_c, 13, 70, 82
14, 27360, Note_on_c, 13, 70, 0
14, 27360, Note_on_c, 13, 69, 82
14, 27456, Note_on_c, 13, 69, 0
14, 27456, Note_on_c, 13, 67, 82
14, 27552, Note_on_c, 13, 67, 0
14, 27552, Note_on_c, 13, 70, 82
14, 27630, Note_on_c, 13, 70, 0
14, 27648, Note_on_c, 13, 74, 82
14, 27804, Note_on_c, 13, 74, 0
14, 27840, Note_on_c, 13, 67, 82
14, 27886, Note_on_c, 13, 67, 0
14, 27936, Note_on_c, 13, 70, 82
14, 27982, Note_on_c, 13, 70, 0
14, 28032, Note_on_c, 13, 74, 82
14, 28188, Note_on_c, 13, 74, 0
14, 28224, Note_on_c, 13, 67, 82
14, 28270, Note_on_c, 13, 67, 0
14, 28320, Note_on_c, 13, 70, 82
14, 28366, Note_on_c, 13, 70, 0
14, 28416, Note_on_c, 13, 74, 82
14, 28594, Note_on_c, 13, 74, 0
14, 29952, Note_on_c, 13, 62, 82
14, 30382, Note_on_c, 13, 62, 0
14, 30432, Note_on_c, 13, 64, 82
14, 30468, Note_on_c, 13, 64, 0
14, 30480, Note_on_c, 13, 66, 82
14, 30514, Note_on_c, 13, 66, 0
14, 30528, Note_on_c, 13, 67, 82
14, 30562, Note_on_c, 13, 67, 0
14, 30576, Note_on_c, 13, 69, 82
14, 30610, Note_on_c, 13, 69, 0
14, 30624, Note_on_c, 13, 71, 82
14, 30658, Note_on_c, 13, 71, 0
14, 30672, Note_on_c, 13, 73, 82
14, 30696, Note_on_c, 13, 73, 0
14, 30720, Note_on_c, 13, 74, 82
14, 30898, Note_on_c, 13, 74, 0
14, 33792, Note_on_c, 13, 67, 47
14, 33926, Note_on_c, 13, 67, 0
14, 33984, Note_on_c, 13, 67, 47
14, 34096, Note_on_c, 13, 67, 0
14, 34368, Note_on_c, 13, 68, 47
14, 34480, Note_on_c, 13, 68, 0
14, 34752, Note_on_c, 13, 69, 47
14, 34863, Note_on_c, 13, 69, 0
14, 35136, Note_on_c, 13, 66, 47
14, 35247, Note_on_c, 13, 66, 0
14, 35520, Note_on_c, 13, 67, 47
14, 35631, Note_on_c, 13, 67, 0
14, 35904, Note_on_c, 13, 64, 47
14, 36015, Note_on_c, 13, 64, 0
14, 36096, Note_on_c, 13, 60, 47
14, 36415, Note_on_c, 13, 60, 0
14, 36480, Note_on_c, 13, 62, 47
14, 36596, Note_on_c, 13, 62, 0
14, 36672, Note_on_c, 13, 62, 47
14, 36788, Note_on_c, 13, 62, 0
14, 36864, Note_on_c, 13, 55, 47
14, 36984, Note_on_c, 13, 55, 0
14, 37056, Note_on_c, 13, 67, 43
14, 37168, Note_on_c, 13, 67, 0
14, 39936, Note_on_c, 13, 67, 47
14, 40056, Note_on_c, 13, 67, 0
14, 40128, Note_on_c, 13, 67, 47
14, 40128, Note_on_c, 13, 59, 47
14, 40238, Note_on_c, 13, 59, 0
14, 40238, Note_on_c, 13, 67, 0
14, 40512, Note_on_c, 13, 68, 47
14, 40512, Note_on_c, 13, 59, 47
14, 40622, Note_on_c, 13, 59, 0
14, 40622, Note_on_c, 13, 68, 0
14, 40896, Note_on_c, 13, 69, 47
14, 40896, Note_on_c, 13, 60, 47
14, 41006, Note_on_c, 13, 60, 0
14, 41006, Note_on_c, 13, 69, 0
14, 41280, Note_on_c, 13, 66, 47
14, 41280, Note_on_c, 13, 57, 47
14, 41390, Note_on_c, 13, 57, 0
14, 41390, Note_on_c, 13, 66, 0
14, 41664, Note_on_c, 13, 67, 47
14, 41664, Note_on_c, 13, 59, 47
14, 41774, Note_on_c, 13, 67, 0
14, 41775, Note_on_c, 13, 59, 0
14, 42240, Note_on_c, 13, 60, 47
14, 42396, Note_on_c, 13, 60, 0
14, 42624, Note_on_c, 13, 62, 47
14, 42780, Note_on_c, 13, 62, 0
14, 43008, Note_on_c, 13, 64, 47
14, 43164, Note_on_c, 13, 64, 0
14, 43776, Note_on_c, 13, 62, 47
14, 43932, Note_on_c, 13, 62, 0
14, 44160, Note_on_c, 13, 64, 47
14, 44316, Note_on_c, 13, 64, 0
14, 44544, Note_on_c, 13, 59, 47
14, 44700, Note_on_c, 13, 59, 0
14, 46272, Note_on_c, 13, 69, 45
14, 46272, Note_on_c, 13, 66, 45
14, 46360, Note_on_c, 13, 66, 0
14, 46360, Note_on_c, 13, 69, 0
14, 46464, Note_on_c, 13, 69, 45
14, 46464, Note_on_c, 13, 66, 45
14, 46552, Note_on_c, 13, 66, 0
14, 46552, Note_on_c, 13, 69, 0
14, 46656, Note_on_c, 13, 69, 45
14, 46656, Note_on_c, 13, 66, 45
14, 46744, Note_on_c, 13, 66, 0
14, 46744, Note_on_c, 13, 69, 0
14, 46848, Note_on_c, 13, 69, 45
14, 46848, Note_on_c, 13, 66, 45
14, 47040, Note_on_c, 13, 66, 0
14, 47040, Note_on_c, 13, 69, 0
14, 47040, Note_on_c, 13, 67, 45
14, 47040, Note_on_c, 13, 64, 45
14, 47184, Note_on_c, 13, 64, 0
14, 47184, Note_on_c, 13, 67, 0
14, 48359, Control_c, 13, 11, 97
14, 48384, Note_on_c, 13, 55, 57
14, 48512, Note_on_c, 13, 55, 0
14, 48567, Control_c, 13, 11, 100
14, 48576, Note_on_c, 13, 55, 53
14, 48600, Control_c, 13, 11, 102
14, 48633, Control_c, 13, 11, 105
14, 48666, Control_c, 13, 11, 106
14, 48677, Control_c, 13, 11, 108
14, 48693, Control_c, 13, 11, 109
14, 48699, Control_c, 13, 11, 112
14, 48715, Control_c, 13, 11, 114
14, 48726, Control_c, 13, 11, 115
14, 48743, Control_c, 13, 11, 117
14, 48759, Control_c, 13, 11, 118
14, 48765, Control_c, 13, 11, 120
14, 48768, Note_on_c, 13, 55, 0
14, 48768, Note_on_c, 13, 57, 53
14, 48781, Control_c, 13, 11, 121
14, 48798, Control_c, 13, 11, 123
14, 48814, Control_c, 13, 11, 124
14, 48825, Control_c, 13, 11, 126
14, 48831, Control_c, 13, 11, 127
14, 48891, Control_c, 13, 11, 125
14, 48929, Control_c, 13, 11, 123
14, 48940, Control_c, 13, 11, 122
14, 48960, Note_on_c, 13, 57, 0
14, 48960, Note_on_c, 13, 54, 54
14, 48990, Control_c, 13, 11, 120
14, 48995, Control_c, 13, 11, 119
14, 49012, Control_c, 13, 11, 117
14, 49023, Control_c, 13, 11, 116
14, 49028, Control_c, 13, 11, 114
14, 49044, Control_c, 13, 11, 113
14, 49055, Control_c, 13, 11, 111
14, 49061, Control_c, 13, 11, 110
14, 49072, Control_c, 13, 11, 108
14, 49077, Control_c, 13, 11, 107
14, 49088, Control_c, 13, 11, 105
14, 49094, Control_c, 13, 11, 104
14, 49104, Note_on_c, 13, 54, 0
14, 49105, Control_c, 13, 11, 101
14, 55296, Note_on_c, 13, 62, 80
14, 55342, Note_on_c, 13, 62, 0
14, 55344, Note_on_c, 13, 62, 80
14, 55390, Note_on_c, 13, 62, 0
14, 55392, Note_on_c, 13, 62, 80
14, 55438, Note_on_c, 13, 62, 0
14, 55440, Note_on_c, 13, 62, 80
14, 55486, Note_on_c, 13, 62, 0
14, 55488, Note_on_c, 13, 71, 80
14, 55534, Note_on_c, 13, 71, 0
14, 55536, Note_on_c, 13, 71, 80
14, 55582, Note_on_c, 13, 71, 0
14, 55584, Note_on_c, 13, 71, 80
14, 55630, Note_on_c, 13, 71, 0
14, 55632, Note_on_c, 13, 71, 80
14, 55678, Note_on_c, 13, 71, 0
14, 55680, Note_on_c, 13, 67, 80
14, 55726, Note_on_c, 13, 67, 0
14, 55728, Note_on_c, 13, 67, 80
14, 55774, Note_on_c, 13, 67, 0
14, 55776, Note_on_c, 13, 67, 80
14, 55822, Note_on_c, 13, 67, 0
14, 55824, Note_on_c, 13, 67, 80
14, 55870, Note_on_c, 13, 67, 0
14, 55872, Note_on_c, 13, 62, 80
14, 55918, Note_on_c, 13, 62, 0
14, 55920, Note_on_c, 13, 62, 80
14, 55966, Note_on_c, 13, 62, 0
14, 55968, Note_on_c, 13, 62, 80
14, 56014, Note_on_c, 13, 62, 0
14, 56016, Note_on_c, 13, 62, 80
14, 56062, Note_on_c, 13, 62, 0
14, 56064, Note_on_c, 13, 60, 80
14, 56110, Note_on_c, 13, 60, 0
14, 56112, Note_on_c, 13, 60, 80
14, 56158, Note_on_c, 13, 60, 0
14, 56160, Note_on_c, 13, 60, 80
14, 56206, Note_on_c, 13, 60, 0
14, 56208, Note_on_c, 13, 60, 80
14, 56254, Note_on_c, 13, 60, 0
14, 56256, Note_on_c, 13, 66, 80
14, 56302, Note_on_c, 13, 66, 0
14, 56304, Note_on_c, 13, 66, 80
14, 56350, Note_on_c, 13, 66, 0
14, 56352, Note_on_c, 13, 66, 80
14, 56398, Note_on_c, 13, 66, 0
14, 56400, Note_on_c, 13, 66, 80
14, 56446, Note_on_c, 13, 66, 0
14, 56448, Note_on_c, 13, 69, 80
14, 56494, Note_on_c, 13, 69, 0
14, 56496, Note_on_c, 13, 69, 80
14, 56542, Note_on_c, 13, 69, 0
14, 56544, Note_on_c, 13, 69, 80
14, 56590, Note_on_c, 13, 69, 0
14, 56592, Note_on_c, 13, 69, 80
14, 56638, Note_on_c, 13, 69, 0
14, 56640, Note_on_c, 13, 72, 80
14, 56686, Note_on_c, 13, 72, 0
14, 56688, Note_on_c, 13, 72, 80
14, 56734, Note_on_c, 13, 72, 0
14, 56736, Note_on_c, 13, 72, 80
14, 56782, Note_on_c, 13, 72, 0
14, 56784, Note_on_c, 13, 72, 80
14, 56830, Note_on_c, 13, 72, 0
14, 56832, Note_on_c, 13, 71, 80
14, 57010, Note_on_c, 13, 71, 0
14, 57168, Note_on_c, 13, 67, 82
14, 57192, Note_on_c, 13, 67, 0
14, 57192, Note_on_c, 13, 69, 82
14, 57216, Note_on_c, 13, 69, 0
14, 57216, Note_on_c, 13, 71, 82
14, 57432, Note_on_c, 13, 71, 0
14, 57504, Note_on_c, 13, 71, 52
14, 57558, Note_on_c, 13, 71, 0
14, 57600, Note_on_c, 13, 69, 52
14, 57690, Note_on_c, 13, 69, 0
14, 57792, Note_on_c, 13, 67, 52
14, 57882, Note_on_c, 13, 67, 0
14, 57984, Note_on_c, 13, 66, 52
14, 58074, Note_on_c, 13, 66, 0
14, 58176, Note_on_c, 13, 69, 52
14, 58266, Note_on_c, 13, 69, 0
14, 58368, Note_on_c, 13, 67, 52
14, 58546, Note_on_c, 13, 67, 0
14, 58704, Note_on_c, 13, 71, 82
14, 58728, Note_on_c, 13, 71, 0
14, 58728, Note_on_c, 13, 72, 82
14, 58752, Note_on_c, 13, 72, 0
14, 58752, Note_on_c, 13, 74, 82
14, 58950, Note_on_c, 13, 74, 0
14, 59040, Note_on_c, 13, 74, 47
14, 59094, Note_on_c, 13, 74, 0
14, 59136, Note_on_c, 13, 72, 47
14, 59226, Note_on_c, 13, 72, 0
14, 59328, Note_on_c, 13, 71, 47
14, 59418, Note_on_c, 13, 71, 0
14, 59520, Note_on_c, 13, 69, 47
14, 59610, Note_on_c, 13, 69, 0
14, 59712, Note_on_c, 13, 72, 47
14, 59802, Note_on_c, 13, 72, 0
14, 59904, Note_on_c, 13, 71, 47
14, 60082, Note_on_c, 13, 71, 0
14, 60240, Note_on_c, 13, 67, 82
14, 60264, Note_on_c, 13, 67, 0
14, 60264, Note_on_c, 13, 69, 82
14, 60288, Note_on_c, 13, 69, 0
14, 60288, Note_on_c, 13, 71, 82
14, 60504, Note_on_c, 13, 71, 0
14, 60576, Note_on_c, 13, 71, 47
14, 60630, Note_on_c, 13, 71, 0
14, 60672, Note_on_c, 13, 69, 47
14, 60762, Note_on_c, 13, 69, 0
14, 60864, Note_on_c, 13, 67, 47
14, 60954, Note_on_c, 13, 67, 0
14, 61056, Note_on_c, 13, 66, 47
14, 61146, Note_on_c, 13, 66, 0
14, 61248, Note_on_c, 13, 69, 47
14, 61338, Note_on_c, 13, 69, 0
14, 61440, Note_on_c, 13, 67, 47
14, 61618, Note_on_c, 13, 67, 0
14, 61776, Note_on_c, 13, 71, 82
14, 61800, Note_on_c, 13, 71, 0
14, 61800, Note_on_c, 13, 72, 82
14, 61824, Note_on_c, 13, 72, 0
14, 61824, Note_on_c, 13, 74, 82
14, 62022, Note_on_c, 13, 74, 0
14, 62112, Note_on_c, 13, 74, 47
14, 62166, Note_on_c, 13, 74, 0
14, 62208, Note_on_c, 13, 72, 47
14, 62298, Note_on_c, 13, 72, 0
14, 62400, Note_on_c, 13, 71, 47
14, 62490, Note_on_c, 13, 71, 0
14, 62592, Note_on_c, 13, 69, 47
14, 62682, Note_on_c, 13, 69, 0
14, 62784, Note_on_c, 13, 72, 47
14, 62874, Note_on_c, 13, 72, 0
14, 62976, Note_on_c, 13, 71, 47
14, 63154, Note_on_c, 13, 71, 0
14, 63840, Note_on_c, 13, 59, 89
14, 63912, Note_on_c, 13, 59, 0
14, 63936, Note_on_c, 13, 71, 89
14, 64008, Note_on_c, 13, 71, 0
14, 64032, Note_on_c, 13, 71, 89
14, 64104, Note_on_c, 13, 71, 0
14, 64128, Note_on_c, 13, 72, 89
14, 64200, Note_on_c, 13, 72, 0
14, 64224, Note_on_c, 13, 72, 89
14, 64296, Note_on_c, 13, 72, 0
14, 64320, Note_on_c, 13, 68, 89
14, 64392, Note_on_c, 13, 68, 0
14, 64416, Note_on_c, 13, 68, 89
14, 64488, Note_on_c, 13, 68, 0
14, 64512, Note_on_c, 13, 69, 89
14, 64584, Note_on_c, 13, 69, 0
14, 64608, Note_on_c, 13, 69, 89
14, 64680, Note_on_c, 13, 69, 0
14, 64704, Note_on_c, 13, 72, 89
14, 64776, Note_on_c, 13, 72, 0
14, 64800, Note_on_c, 13, 72, 89
14, 64872, Note_on_c, 13, 72, 0
14, 64896, Note_on_c, 13, 71, 89
14, 64968, Note_on_c, 13, 71, 0
14, 64992, Note_on_c, 13, 71, 89
14, 65064, Note_on_c, 13, 71, 0
14, 65088, Note_on_c, 13, 66, 89
14, 65142, Note_on_c, 13, 66, 0
14, 65184, Note_on_c, 13, 66, 89
14, 65256, Note_on_c, 13, 66, 0
14, 65280, Note_on_c, 13, 67, 89
14, 65352, Note_on_c, 13, 67, 0
14, 65376, Note_on_c, 13, 67, 89
14, 65448, Note_on_c, 13, 67, 0
14, 65472, Note_on_c, 13, 65, 89
14, 65544, Note_on_c, 13, 65, 0
14, 65568, Note_on_c, 13, 65, 89
14, 65640, Note_on_c, 13, 65, 0
14, 65664, Note_on_c, 13, 64, 89
14, 65736, Note_on_c, 13, 64, 0
14, 65760, Note_on_c, 13, 64, 88
14, 65832, Note_on_c, 13, 64, 0
14, 65856, Note_on_c, 13, 59, 88
14, 65910, Note_on_c, 13, 59, 0
14, 65952, Note_on_c, 13, 59, 88
14, 66024, Note_on_c, 13, 59, 0
14, 66048, Note_on_c, 13, 60, 88
14, 66120, Note_on_c, 13, 60, 0
14, 66144, Note_on_c, 13, 60, 85
14, 66216, Note_on_c, 13, 60, 0
14, 66240, Note_on_c, 13, 60, 82
14, 66312, Note_on_c, 13, 60, 0
14, 66336, Note_on_c, 13, 60, 82
14, 66408, Note_on_c, 13, 60, 0
14, 66432, Note_on_c, 13, 60, 82
14, 66504, Note_on_c, 13, 60, 0
14, 66528, Note_on_c, 13, 60, 82
14, 66600, Note_on_c, 13, 60, 0
14, 66624, Note_on_c, 13, 60, 82
14, 66678, Note_on_c, 13, 60, 0
14, 66720, Note_on_c, 13, 60, 82
14, 66792, Note_on_c, 13, 60, 0
14, 66816, Note_on_c, 13, 62, 82
14, 66888, Note_on_c, 13, 62, 0
14, 66912, Note_on_c, 13, 62, 82
14, 66984, Note_on_c, 13, 62, 0
14, 67008, Note_on_c, 13, 62, 82
14, 67080, Note_on_c, 13, 62, 0
14, 67104, Note_on_c, 13, 62, 82
14, 67176, Note_on_c, 13, 62, 0
14, 67200, Note_on_c, 13, 62, 82
14, 67272, Note_on_c, 13, 62, 0
14, 67296, Note_on_c, 13, 62, 82
14, 67368, Note_on_c, 13, 62, 0
14, 67392, Note_on_c, 13, 62, 82
14, 67446, Note_on_c, 13, 62, 0
14, 67488, Note_on_c, 13, 62, 82
14, 67560, Note_on_c, 13, 62, 0
14, 67584, Note_on_c, 13, 55, 82
14, 67762, Note_on_c, 13, 55, 0
14, 68448, Note_on_c, 13, 59, 89
14, 68520, Note_on_c, 13, 59, 0
14, 68544, Note_on_c, 13, 71, 89
14, 68616, Note_on_c, 13, 71, 0
14, 68640, Note_on_c, 13, 71, 89
14, 68712, Note_on_c, 13, 71, 0
14, 68736, Note_on_c, 13, 72, 89
14, 68808, Note_on_c, 13, 72, 0
14, 68832, Note_on_c, 13, 72, 89
14, 68904, Note_on_c, 13, 72, 0
14, 68928, Note_on_c, 13, 68, 89
14, 69000, Note_on_c, 13, 68, 0
14, 69024, Note_on_c, 13, 68, 89
14, 69096, Note_on_c, 13, 68, 0
14, 69120, Note_on_c, 13, 69, 89
14, 69192, Note_on_c, 13, 69, 0
14, 69216, Note_on_c, 13, 69, 89
14, 69288, Note_on_c, 13, 69, 0
14, 69312, Note_on_c, 13, 72, 89
14, 69384, Note_on_c, 13, 72, 0
14, 69408, Note_on_c, 13, 72, 89
14, 69480, Note_on_c, 13, 72, 0
14, 69504, Note_on_c, 13, 71, 89
14, 69576, Note_on_c, 13, 71, 0
14, 69600, Note_on_c, 13, 71, 89
14, 69672, Note_on_c, 13, 71, 0
14, 69696, Note_on_c, 13, 66, 89
14, 69750, Note_on_c, 13, 66, 0
14, 69792, Note_on_c, 13, 66, 89
14, 69864, Note_on_c, 13, 66, 0
14, 69888, Note_on_c, 13, 67, 89
14, 69960, Note_on_c, 13, 67, 0
14, 69984, Note_on_c, 13, 67, 89
14, 70056, Note_on_c, 13, 67, 0
14, 70080, Note_on_c, 13, 65, 89
14, 70152, Note_on_c, 13, 65, 0
14, 70176, Note_on_c, 13, 65, 89
14, 70248, Note_on_c, 13, 65, 0
14, 70272, Note_on_c, 13, 64, 89
14, 70344, Note_on_c, 13, 64, 0
14, 70368, Note_on_c, 13, 64, 89
14, 70440, Note_on_c, 13, 64, 0
14, 70464, Note_on_c, 13, 59, 89
14, 70518, Note_on_c, 13, 59, 0
14, 70560, Note_on_c, 13, 59, 89
14, 70632, Note_on_c, 13, 59, 0
14, 70656, Note_on_c, 13, 60, 89
14, 70728, Note_on_c, 13, 60, 0
14, 70752, Note_on_c, 13, 60, 85
14, 70824, Note_on_c, 13, 60, 0
14, 70848, Note_on_c, 13, 60, 85
14, 70920, Note_on_c, 13, 60, 0
14, 70944, Note_on_c, 13, 60, 85
14, 71016, Note_on_c, 13, 60, 0
14, 71040, Note_on_c, 13, 60, 85
14, 71112, Note_on_c, 13, 60, 0
14, 71136, Note_on_c, 13, 60, 85
14, 71208, Note_on_c, 13, 60, 0
14, 71232, Note_on_c, 13, 60, 86
14, 71286, Note_on_c, 13, 60, 0
14, 71328, Note_on_c, 13, 60, 86
14, 71400, Note_on_c, 13, 60, 0
14, 71424, Note_on_c, 13, 60, 86
14, 71496, Note_on_c, 13, 60, 0
14, 71520, Note_on_c, 13, 60, 86
14, 71592, Note_on_c, 13, 60, 0
14, 71616, Note_on_c, 13, 60, 86
14, 71688, Note_on_c, 13, 60, 0
14, 71712, Note_on_c, 13, 60, 87
14, 71784, Note_on_c, 13, 60, 0
14, 71808, Note_on_c, 13, 60, 87
14, 71880, Note_on_c, 13, 60, 0
14, 71904, Note_on_c, 13, 60, 87
14, 71976, Note_on_c, 13, 60, 0
14, 72000, Note_on_c, 13, 60, 87
14, 72054, Note_on_c, 13, 60, 0
14, 72096, Note_on_c, 13, 60, 87
14, 72168, Note_on_c, 13, 60, 0
14, 72192, Note_on_c, 13, 61, 88
14, 72264, Note_on_c, 13, 61, 0
14, 72288, Note_on_c, 13, 61, 88
14, 72360, Note_on_c, 13, 61, 0
14, 72384, Note_on_c, 13, 61, 88
14, 72456, Note_on_c, 13, 61, 0
14, 72480, Note_on_c, 13, 61, 88
14, 72552, Note_on_c, 13, 61, 0
14, 72576, Note_on_c, 13, 61, 88
14, 72648, Note_on_c, 13, 61, 0
14, 72672, Note_on_c, 13, 61, 89
14, 72744, Note_on_c, 13, 61, 0
14, 72768, Note_on_c, 13, 61, 89
14, 72822, Note_on_c, 13, 61, 0
14, 72864, Note_on_c, 13, 61, 89
14, 72936, Note_on_c, 13, 61, 0
14, 72960, Note_on_c, 13, 61, 89
14, 73138, Note_on_c, 13, 61, 0
14, 73728, Note_on_c, 13, 74, 91
14, 73818, Note_on_c, 13, 74, 0
14, 73824, Note_on_c, 13, 74, 91
14, 73914, Note_on_c, 13, 74, 0
14, 73920, Note_on_c, 13, 75, 91
14, 74010, Note_on_c, 13, 75, 0
14, 74016, Note_on_c, 13, 75, 91
14, 74106, Note_on_c, 13, 75, 0
14, 74112, Note_on_c, 13, 74, 91
14, 74202, Note_on_c, 13, 74, 0
14, 74208, Note_on_c, 13, 74, 91
14, 74298, Note_on_c, 13, 74, 0
14, 74304, Note_on_c, 13, 73, 91
14, 74394, Note_on_c, 13, 73, 0
14, 74400, Note_on_c, 13, 73, 91
14, 74490, Note_on_c, 13, 73, 0
14, 74496, Note_on_c, 13, 74, 91
14, 74586, Note_on_c, 13, 74, 0
14, 74592, Note_on_c, 13, 74, 91
14, 74682, Note_on_c, 13, 74, 0
14, 74688, Note_on_c, 13, 75, 91
14, 74778, Note_on_c, 13, 75, 0
14, 74784, Note_on_c, 13, 75, 90
14, 74874, Note_on_c, 13, 75, 0
14, 74880, Note_on_c, 13, 74, 90
14, 74970, Note_on_c, 13, 74, 0
14, 74976, Note_on_c, 13, 74, 90
14, 75066, Note_on_c, 13, 74, 0
14, 75072, Note_on_c, 13, 73, 90
14, 75162, Note_on_c, 13, 73, 0
14, 75168, Note_on_c, 13, 73, 90
14, 75258, Note_on_c, 13, 73, 0
14, 75264, Note_on_c, 13, 74, 90
14, 75354, Note_on_c, 13, 74, 0
14, 75360, Note_on_c, 13, 74, 90
14, 75450, Note_on_c, 13, 74, 0
14, 75456, Note_on_c, 13, 75, 90
14, 75546, Note_on_c, 13, 75, 0
14, 75552, Note_on_c, 13, 75, 90
14, 75642, Note_on_c, 13, 75, 0
14, 75648, Note_on_c, 13, 74, 90
14, 75738, Note_on_c, 13, 74, 0
14, 75744, Note_on_c, 13, 74, 90
14, 75834, Note_on_c, 13, 74, 0
14, 75840, Note_on_c, 13, 73, 89
14, 75930, Note_on_c, 13, 73, 0
14, 75936, Note_on_c, 13, 73, 89
14, 76026, Note_on_c, 13, 73, 0
14, 76032, Note_on_c, 13, 74, 89
14, 76166, Note_on_c, 13, 74, 0
14, 76416, Note_on_c, 13, 71, 89
14, 76546, Note_on_c, 13, 71, 0
14, 76608, Note_on_c, 13, 67, 89
14, 76738, Note_on_c, 13, 67, 0
14, 79069, Control_c, 13, 11, 96
14, 79104, Control_c, 13, 11, 97
14, 79104, Note_on_c, 13, 59, 67
14, 79121, Control_c, 13, 11, 102
14, 79130, Control_c, 13, 11, 105
14, 79148, Control_c, 13, 11, 106
14, 79174, Control_c, 13, 11, 108
14, 79200, Control_c, 13, 11, 109
14, 79209, Control_c, 13, 11, 111
14, 79235, Control_c, 13, 11, 112
14, 79252, Control_c, 13, 11, 115
14, 79261, Control_c, 13, 11, 117
14, 79287, Control_c, 13, 11, 118
14, 79313, Control_c, 13, 11, 120
14, 79357, Control_c, 13, 11, 121
14, 79392, Control_c, 13, 11, 123
14, 79462, Control_c, 13, 11, 124
14, 79488, Note_on_c, 13, 59, 0
14, 79488, Note_on_c, 13, 60, 68
14, 79497, Control_c, 13, 11, 124
14, 79567, Control_c, 13, 11, 126
14, 79619, Control_c, 13, 11, 125
14, 79628, Control_c, 13, 11, 123
14, 79645, Control_c, 13, 11, 122
14, 79654, Control_c, 13, 11, 120
14, 79697, Control_c, 13, 11, 117
14, 79706, Control_c, 13, 11, 115
14, 79811, Control_c, 13, 11, 114
14, 79842, Note_on_c, 13, 60, 0
14, 79855, Control_c, 13, 11, 115
14, 79863, Control_c, 13, 11, 117
14, 79872, Note_on_c, 13, 59, 82
14, 79889, Control_c, 13, 11, 121
14, 79916, Control_c, 13, 11, 123
14, 79918, Note_on_c, 13, 59, 0
14, 79920, Note_on_c, 13, 55, 82
14, 79933, Control_c, 13, 11, 124
14, 79942, Control_c, 13, 11, 126
14, 79959, Control_c, 13, 11, 127
14, 79966, Note_on_c, 13, 55, 0
14, 80016, Note_on_c, 13, 55, 82
14, 80062, Note_on_c, 13, 55, 0
14, 80112, Note_on_c, 13, 55, 82
14, 80158, Note_on_c, 13, 55, 0
14, 80208, Note_on_c, 13, 55, 82
14, 80254, Note_on_c, 13, 55, 0
14, 80304, Note_on_c, 13, 55, 82
14, 80350, Note_on_c, 13, 55, 0
14, 80400, Note_on_c, 13, 55, 82
14, 80446, Note_on_c, 13, 55, 0
14, 80496, Note_on_c, 13, 55, 82
14, 80542, Note_on_c, 13, 55, 0
14, 80592, Note_on_c, 13, 55, 82
14, 80638, Note_on_c, 13, 55, 0
14, 80640, Note_on_c, 13, 57, 82
14, 80686, Note_on_c, 13, 57, 0
14, 80688, Note_on_c, 13, 57, 82
14, 80734, Note_on_c, 13, 57, 0
14, 80736, Note_on_c, 13, 57, 82
14, 80782, Note_on_c, 13, 57, 0
14, 80784, Note_on_c, 13, 57, 82
14, 80830, Note_on_c, 13, 57, 0
14, 80832, Note_on_c, 13, 57, 82
14, 80878, Note_on_c, 13, 57, 0
14, 80880, Note_on_c, 13, 57, 82
14, 80926, Note_on_c, 13, 57, 0
14, 80928, Note_on_c, 13, 57, 82
14, 80974, Note_on_c, 13, 57, 0
14, 80976, Note_on_c, 13, 57, 82
14, 81022, Note_on_c, 13, 57, 0
14, 81024, Note_on_c, 13, 57, 82
14, 81070, Note_on_c, 13, 57, 0
14, 81072, Note_on_c, 13, 57, 82
14, 81118, Note_on_c, 13, 57, 0
14, 81120, Note_on_c, 13, 57, 82
14, 81166, Note_on_c, 13, 57, 0
14, 81168, Note_on_c, 13, 57, 82
14, 81214, Note_on_c, 13, 57, 0
14, 81216, Note_on_c, 13, 57, 82
14, 81262, Note_on_c, 13, 57, 0
14, 81264, Note_on_c, 13, 57, 82
14, 81310, Note_on_c, 13, 57, 0
14, 81312, Note_on_c, 13, 57, 82
14, 81358, Note_on_c, 13, 57, 0
14, 81360, Note_on_c, 13, 57, 82
14, 81406, Note_on_c, 13, 57, 0
14, 81456, Note_on_c, 13, 55, 82
14, 81502, Note_on_c, 13, 55, 0
14, 81552, Note_on_c, 13, 55, 82
14, 81598, Note_on_c, 13, 55, 0
14, 81648, Note_on_c, 13, 55, 82
14, 81694, Note_on_c, 13, 55, 0
14, 81744, Note_on_c, 13, 55, 82
14, 81790, Note_on_c, 13, 55, 0
14, 81840, Note_on_c, 13, 55, 82
14, 81886, Note_on_c, 13, 55, 0
14, 81936, Note_on_c, 13, 55, 82
14, 81982, Note_on_c, 13, 55, 0
14, 82032, Note_on_c, 13, 55, 82
14, 82078, Note_on_c, 13, 55, 0
14, 82128, Note_on_c, 13, 55, 82
14, 82174, Note_on_c, 13, 55, 0
14, 82176, Note_on_c, 13, 57, 82
14, 82222, Note_on_c, 13, 57, 0
14, 82224, Note_on_c, 13, 57, 82
14, 82270, Note_on_c, 13, 57, 0
14, 82272, Note_on_c, 13, 57, 82
14, 82318, Note_on_c, 13, 57, 0
14, 82320, Note_on_c, 13, 57, 82
14, 82366, Note_on_c, 13, 57, 0
14, 82368, Note_on_c, 13, 57, 82
14, 82414, Note_on_c, 13, 57, 0
14, 82416, Note_on_c, 13, 57, 82
14, 82462, Note_on_c, 13, 57, 0
14, 82464, Note_on_c, 13, 57, 82
14, 82510, Note_on_c, 13, 57, 0
14, 82512, Note_on_c, 13, 57, 82
14, 82558, Note_on_c, 13, 57, 0
14, 82560, Note_on_c, 13, 57, 82
14, 82606, Note_on_c, 13, 57, 0
14, 82608, Note_on_c, 13, 57, 82
14, 82654, Note_on_c, 13, 57, 0
14, 82656, Note_on_c, 13, 57, 82
14, 82702, Note_on_c, 13, 57, 0
14, 82704, Note_on_c, 13, 57, 82
14, 82750, Note_on_c, 13, 57, 0
14, 82752, Note_on_c, 13, 57, 82
14, 82798, Note_on_c, 13, 57, 0
14, 82800, Note_on_c, 13, 57, 82
14, 82846, Note_on_c, 13, 57, 0
14, 82848, Note_on_c, 13, 57, 82
14, 82894, Note_on_c, 13, 57, 0
14, 82896, Note_on_c, 13, 57, 82
14, 82942, Note_on_c, 13, 57, 0
14, 83712, Note_on_c, 13, 67, 82
14, 83886, Note_on_c, 13, 67, 0
14, 84288, Note_on_c, 13, 62, 82
14, 84438, Note_on_c, 13, 62, 0
14, 84480, Note_on_c, 13, 67, 82
14, 84620, Note_on_c, 13, 67, 0
14, 84672, Note_on_c, 13, 74, 103
14, 84672, Note_on_c, 13, 71, 103
14, 84762, Note_on_c, 13, 71, 0
14, 84762, Note_on_c, 13, 74, 0
14, 84816, Note_on_c, 13, 74, 103
14, 84816, Note_on_c, 13, 71, 103
14, 84840, Note_on_c, 13, 71, 0
14, 84840, Note_on_c, 13, 74, 0
14, 84864, Note_on_c, 13, 74, 103
14, 84864, Note_on_c, 13, 71, 103
14, 85014, Note_on_c, 13, 71, 0
14, 85014, Note_on_c, 13, 74, 0
14, 85056, Note_on_c, 13, 74, 103
14, 85056, Note_on_c, 13, 71, 103
14, 85080, Note_on_c, 13, 71, 0
14, 85080, Note_on_c, 13, 74, 0
14, 85080, Note_on_c, 13, 72, 103
14, 85080, Note_on_c, 13, 69, 103
14, 85104, Note_on_c, 13, 69, 0
14, 85104, Note_on_c, 13, 72, 0
14, 85104, Note_on_c, 13, 74, 103
14, 85104, Note_on_c, 13, 71, 103
14, 85128, Note_on_c, 13, 71, 0
14, 85128, Note_on_c, 13, 74, 0
14, 85128, Note_on_c, 13, 72, 103
14, 85128, Note_on_c, 13, 69, 103
14, 85152, Note_on_c, 13, 69, 0
14, 85152, Note_on_c, 13, 72, 0
14, 85152, Note_on_c, 13, 71, 103
14, 85152, Note_on_c, 13, 67, 103
14, 85200, Note_on_c, 13, 67, 0
14, 85200, Note_on_c, 13, 71, 0
14, 85200, Note_on_c, 13, 72, 103
14, 85200, Note_on_c, 13, 69, 103
14, 85212, Note_on_c, 13, 69, 0
14, 85212, Note_on_c, 13, 72, 0
14, 85248, Note_on_c, 13, 71, 103
14, 85248, Note_on_c, 13, 67, 103
14, 85388, Note_on_c, 13, 67, 0
14, 85388, Note_on_c, 13, 71, 0
14, 85440, Note_on_c, 13, 62, 103
14, 85440, Note_on_c, 13, 71, 103
14, 85530, Note_on_c, 13, 71, 0
14, 85530, Note_on_c, 13, 62, 0
14, 85584, Note_on_c, 13, 62, 103
14, 85584, Note_on_c, 13, 71, 103
14, 85608, Note_on_c, 13, 71, 0
14, 85608, Note_on_c, 13, 62, 0
14, 85632, Note_on_c, 13, 62, 103
14, 85632, Note_on_c, 13, 71, 103
14, 85782, Note_on_c, 13, 71, 0
14, 85782, Note_on_c, 13, 62, 0
14, 85824, Note_on_c, 13, 62, 103
14, 85824, Note_on_c, 13, 71, 103
14, 85848, Note_on_c, 13, 71, 0
14, 85848, Note_on_c, 13, 62, 0
14, 85848, Note_on_c, 13, 60, 103
14, 85848, Note_on_c, 13, 69, 103
14, 85872, Note_on_c, 13, 69, 0
14, 85872, Note_on_c, 13, 60, 0
14, 85872, Note_on_c, 13, 62, 103
14, 85872, Note_on_c, 13, 71, 103
14, 85896, Note_on_c, 13, 71, 0
14, 85896, Note_on_c, 13, 62, 0
14, 85896, Note_on_c, 13, 60, 103
14, 85896, Note_on_c, 13, 69, 103
14, 85920, Note_on_c, 13, 69, 0
14, 85920, Note_on_c, 13, 60, 0
14, 85920, Note_on_c, 13, 59, 103
14, 85920, Note_on_c, 13, 67, 103
14, 85968, Note_on_c, 13, 67, 0
14, 85968, Note_on_c, 13, 59, 0
14, 85968, Note_on_c, 13, 60, 103
14, 85968, Note_on_c, 13, 69, 103
14, 86004, Note_on_c, 13, 69, 0
14, 86004, Note_on_c, 13, 60, 0
14, 86016, Note_on_c, 13, 59, 103
14, 86194, Note_on_c, 13, 59, 0
14, 87072, Note_on_c, 13, 71, 103
14, 87118, Note_on_c, 13, 71, 0
14, 96960, Note_on_c, 13, 60, 47
14, 97000, Note_on_c, 13, 60, 0
14, 97024, Note_on_c, 13, 60, 47
14, 97064, Note_on_c, 13, 60, 0
14, 97088, Note_on_c, 13, 60, 47
14, 97128, Note_on_c, 13, 60, 0
14, 97152, Note_on_c, 13, 56, 47
14, 97192, Note_on_c, 13, 56, 0
14, 97216, Note_on_c, 13, 58, 47
14, 97256, Note_on_c, 13, 58, 0
14, 97280, Note_on_c, 13, 60, 47
14, 97320, Note_on_c, 13, 60, 0
14, 97344, Note_on_c, 13, 60, 47
14, 97384, Note_on_c, 13, 60, 0
14, 97408, Note_on_c, 13, 60, 47
14, 97448, Note_on_c, 13, 60, 0
14, 97472, Note_on_c, 13, 60, 47
14, 97512, Note_on_c, 13, 60, 0
14, 97536, Note_on_c, 13, 56, 47
14, 97576, Note_on_c, 13, 56, 0
14, 97600, Note_on_c, 13, 58, 47
14, 97640, Note_on_c, 13, 58, 0
14, 97664, Note_on_c, 13, 60, 47
14, 97704, Note_on_c, 13, 60, 0
14, 97728, Note_on_c, 13, 60, 47
14, 97768, Note_on_c, 13, 60, 0
14, 97792, Note_on_c, 13, 60, 47
14, 97832, Note_on_c, 13, 60, 0
14, 97856, Note_on_c, 13, 60, 47
14, 97896, Note_on_c, 13, 60, 0
14, 97920, Note_on_c, 13, 56, 47
14, 97960, Note_on_c, 13, 56, 0
14, 97984, Note_on_c, 13, 58, 47
14, 98024, Note_on_c, 13, 58, 0
14, 98048, Note_on_c, 13, 60, 47
14, 98088, Note_on_c, 13, 60, 0
14, 98112, Note_on_c, 13, 60, 47
14, 98152, Note_on_c, 13, 60, 0
14, 98176, Note_on_c, 13, 60, 47
14, 98216, Note_on_c, 13, 60, 0
14, 98240, Note_on_c, 13, 60, 47
14, 98280, Note_on_c, 13, 60, 0
14, 98304, Note_on_c, 13, 55, 47
14, 98344, Note_on_c, 13, 55, 0
14, 98368, Note_on_c, 13, 56, 47
14, 98408, Note_on_c, 13, 56, 0
14, 98432, Note_on_c, 13, 58, 47
14, 98472, Note_on_c, 13, 58, 0
14, 98496, Note_on_c, 13, 58, 47
14, 98536, Note_on_c, 13, 58, 0
14, 98560, Note_on_c, 13, 58, 47
14, 98600, Note_on_c, 13, 58, 0
14, 98624, Note_on_c, 13, 58, 47
14, 98664, Note_on_c, 13, 58, 0
14, 98688, Note_on_c, 13, 55, 47
14, 98728, Note_on_c, 13, 55, 0
14, 98752, Note_on_c, 13, 56, 47
14, 98792, Note_on_c, 13, 56, 0
14, 98816, Note_on_c, 13, 58, 47
14, 98856, Note_on_c, 13, 58, 0
14, 98880, Note_on_c, 13, 58, 47
14, 98920, Note_on_c, 13, 58, 0
14, 98944, Note_on_c, 13, 58, 47
14, 98984, Note_on_c, 13, 58, 0
14, 99008, Note_on_c, 13, 58, 47
14, 99048, Note_on_c, 13, 58, 0
14, 99072, Note_on_c, 13, 55, 47
14, 99112, Note_on_c, 13, 55, 0
14, 99136, Note_on_c, 13, 56, 47
14, 99176, Note_on_c, 13, 56, 0
14, 99200, Note_on_c, 13, 58, 47
14, 99240, Note_on_c, 13, 58, 0
14, 99264, Note_on_c, 13, 58, 47
14, 99304, Note_on_c, 13, 58, 0
14, 99328, Note_on_c, 13, 58, 47
14, 99368, Note_on_c, 13, 58, 0
14, 99392, Note_on_c, 13, 58, 47
14, 99432, Note_on_c, 13, 58, 0
14, 99456, Note_on_c, 13, 55, 47
14, 99496, Note_on_c, 13, 55, 0
14, 99520, Note_on_c, 13, 56, 47
14, 99560, Note_on_c, 13, 56, 0
14, 99584, Note_on_c, 13, 58, 47
14, 99624, Note_on_c, 13, 58, 0
14, 99648, Note_on_c, 13, 58, 47
14, 99688, Note_on_c, 13, 58, 0
14, 99712, Note_on_c, 13, 58, 47
14, 99752, Note_on_c, 13, 58, 0
14, 99776, Note_on_c, 13, 58, 47
14, 99816, Note_on_c, 13, 58, 0
14, 99840, Note_on_c, 13, 56, 47
14, 99880, Note_on_c, 13, 56, 0
14, 99904, Note_on_c, 13, 58, 47
14, 99944, Note_on_c, 13, 58, 0
14, 99968, Note_on_c, 13, 60, 47
14, 100008, Note_on_c, 13, 60, 0
14, 100032, Note_on_c, 13, 60, 47
14, 100072, Note_on_c, 13, 60, 0
14, 100096, Note_on_c, 13, 60, 47
14, 100136, Note_on_c, 13, 60, 0
14, 100160, Note_on_c, 13, 60, 47
14, 100200, Note_on_c, 13, 60, 0
14, 100224, Note_on_c, 13, 56, 47
14, 100264, Note_on_c, 13, 56, 0
14, 100288, Note_on_c, 13, 58, 47
14, 100328, Note_on_c, 13, 58, 0
14, 100352, Note_on_c, 13, 60, 47
14, 100392, Note_on_c, 13, 60, 0
14, 100416, Note_on_c, 13, 60, 47
14, 100456, Note_on_c, 13, 60, 0
14, 100480, Note_on_c, 13, 60, 47
14, 100520, Note_on_c, 13, 60, 0
14, 100544, Note_on_c, 13, 60, 47
14, 100584, Note_on_c, 13, 60, 0
14, 100608, Note_on_c, 13, 56, 47
14, 100648, Note_on_c, 13, 56, 0
14, 100672, Note_on_c, 13, 58, 47
14, 100712, Note_on_c, 13, 58, 0
14, 100736, Note_on_c, 13, 60, 47
14, 100776, Note_on_c, 13, 60, 0
14, 100800, Note_on_c, 13, 60, 47
14, 100840, Note_on_c, 13, 60, 0
14, 100864, Note_on_c, 13, 60, 47
14, 100904, Note_on_c, 13, 60, 0
14, 100928, Note_on_c, 13, 60, 47
14, 100968, Note_on_c, 13, 60, 0
14, 100992, Note_on_c, 13, 56, 47
14, 101032, Note_on_c, 13, 56, 0
14, 101056, Note_on_c, 13, 58, 47
14, 101096, Note_on_c, 13, 58, 0
14, 101120, Note_on_c, 13, 60, 47
14, 101160, Note_on_c, 13, 60, 0
14, 101184, Note_on_c, 13, 60, 47
14, 101224, Note_on_c, 13, 60, 0
14, 101248, Note_on_c, 13, 60, 47
14, 101288, Note_on_c, 13, 60, 0
14, 101312, Note_on_c, 13, 60, 47
14, 101352, Note_on_c, 13, 60, 0
14, 101376, Note_on_c, 13, 55, 47
14, 101416, Note_on_c, 13, 55, 0
14, 101440, Note_on_c, 13, 56, 47
14, 101480, Note_on_c, 13, 56, 0
14, 101504, Note_on_c, 13, 58, 47
14, 101544, Note_on_c, 13, 58, 0
14, 101568, Note_on_c, 13, 58, 47
14, 101608, Note_on_c, 13, 58, 0
14, 101632, Note_on_c, 13, 58, 47
14, 101672, Note_on_c, 13, 58, 0
14, 101696, Note_on_c, 13, 58, 47
14, 101736, Note_on_c, 13, 58, 0
14, 101760, Note_on_c, 13, 55, 47
14, 101800, Note_on_c, 13, 55, 0
14, 101824, Note_on_c, 13, 56, 47
14, 101864, Note_on_c, 13, 56, 0
14, 101888, Note_on_c, 13, 58, 47
14, 101928, Note_on_c, 13, 58, 0
14, 101952, Note_on_c, 13, 58, 47
14, 101992, Note_on_c, 13, 58, 0
14, 102016, Note_on_c, 13, 58, 47
14, 102056, Note_on_c, 13, 58, 0
14, 102080, Note_on_c, 13, 58, 47
14, 102120, Note_on_c, 13, 58, 0
14, 102144, Note_on_c, 13, 55, 47
14, 102184, Note_on_c, 13, 55, 0
14, 102208, Note_on_c, 13, 56, 47
14, 102248, Note_on_c, 13, 56, 0
14, 102272, Note_on_c, 13, 58, 47
14, 102312, Note_on_c, 13, 58, 0
14, 102336, Note_on_c, 13, 58, 47
14, 102376, Note_on_c, 13, 58, 0
14, 102400, Note_on_c, 13, 58, 47
14, 102440, Note_on_c, 13, 58, 0
14, 102464, Note_on_c, 13, 58, 47
14, 102504, Note_on_c, 13, 58, 0
14, 102528, Note_on_c, 13, 55, 47
14, 102568, Note_on_c, 13, 55, 0
14, 102592, Note_on_c, 13, 56, 47
14, 102632, Note_on_c, 13, 56, 0
14, 102656, Note_on_c, 13, 58, 47
14, 102696, Note_on_c, 13, 58, 0
14, 102720, Note_on_c, 13, 58, 47
14, 102760, Note_on_c, 13, 58, 0
14, 102784, Note_on_c, 13, 58, 47
14, 102824, Note_on_c, 13, 58, 0
14, 102848, Note_on_c, 13, 58, 47
14, 102888, Note_on_c, 13, 58, 0
14, 102912, Note_on_c, 13, 56, 48
14, 103090, Note_on_c, 13, 56, 0
14, 103680, Note_on_c, 13, 68, 48
14, 103858, Note_on_c, 13, 68, 0
14, 104064, Note_on_c, 13, 68, 48
14, 104242, Note_on_c, 13, 68, 0
14, 104448, Note_on_c, 13, 67, 48
14, 104626, Note_on_c, 13, 67, 0
14, 105216, Note_on_c, 13, 64, 48
14, 105394, Note_on_c, 13, 64, 0
14, 105600, Note_on_c, 13, 60, 48
14, 105778, Note_on_c, 13, 60, 0
14, 105984, Note_on_c, 13, 65, 48
14, 106162, Note_on_c, 13, 65, 0
14, 106752, Note_on_c, 13, 68, 48
14, 106930, Note_on_c, 13, 68, 0
14, 107136, Note_on_c, 13, 65, 48
14, 107314, Note_on_c, 13, 65, 0
14, 107520, Note_on_c, 13, 67, 48
14, 107698, Note_on_c, 13, 67, 0
14, 108288, Note_on_c, 13, 67, 48
14, 108466, Note_on_c, 13, 67, 0
14, 108672, Note_on_c, 13, 65, 48
14, 108850, Note_on_c, 13, 65, 0
14, 109056, Note_on_c, 13, 63, 48
14, 109234, Note_on_c, 13, 63, 0
14, 109824, Note_on_c, 13, 63, 48
14, 110002, Note_on_c, 13, 63, 0
14, 110208, Note_on_c, 13, 60, 48
14, 110386, Note_on_c, 13, 60, 0
14, 110592, Note_on_c, 13, 59, 48
14, 110770, Note_on_c, 13, 59, 0
14, 111360, Note_on_c, 13, 55, 48
14, 111538, Note_on_c, 13, 55, 0
14, 111744, Note_on_c, 13, 59, 48
14, 111922, Note_on_c, 13, 59, 0
14, 112128, Note_on_c, 13, 60, 48
14, 112306, Note_on_c, 13, 60, 0
14, 112512, Note_on_c, 13, 58, 48
14, 112690, Note_on_c, 13, 58, 0
14, 112896, Note_on_c, 13, 56, 48
14, 113650, Note_on_c, 13, 56, 0
14, 113664, Note_on_c, 13, 55, 48
14, 113760, Note_on_c, 13, 55, 0
14, 113760, Note_on_c, 13, 59, 90
14, 113856, Note_on_c, 13, 59, 0
14, 113856, Note_on_c, 13, 60, 58
14, 113952, Note_on_c, 13, 60, 0
14, 113952, Note_on_c, 13, 59, 55
14, 114042, Note_on_c, 13, 59, 0
14, 114048, Note_on_c, 13, 60, 53
14, 114392, Note_on_c, 13, 60, 0
14, 114528, Note_on_c, 13, 59, 90
14, 114624, Note_on_c, 13, 59, 0
14, 114624, Note_on_c, 13, 60, 58
14, 114720, Note_on_c, 13, 60, 0
14, 114720, Note_on_c, 13, 59, 55
14, 114810, Note_on_c, 13, 59, 0
14, 114816, Note_on_c, 13, 60, 53
14, 115160, Note_on_c, 13, 60, 0
14, 115200, Note_on_c, 13, 59, 53
14, 115392, Note_on_c, 13, 59, 0
14, 115392, Note_on_c, 13, 60, 53
14, 115584, Note_on_c, 13, 60, 0
14, 115584, Note_on_c, 13, 59, 53
14, 115776, Note_on_c, 13, 59, 0
14, 115776, Note_on_c, 13, 60, 53
14, 115968, Note_on_c, 13, 60, 0
14, 115968, Note_on_c, 13, 59, 53
14, 116160, Note_on_c, 13, 59, 0
14, 116160, Note_on_c, 13, 60, 53
14, 116352, Note_on_c, 13, 60, 0
14, 116352, Note_on_c, 13, 59, 48
14, 116544, Note_on_c, 13, 59, 0
14, 116544, Note_on_c, 13, 60, 48
14, 116709, Note_on_c, 13, 60, 0
14, 116736, Note_on_c, 13, 59, 53
14, 116902, Note_on_c, 13, 59, 0
14, 117120, Note_on_c, 13, 59, 53
14, 117286, Note_on_c, 13, 59, 0
14, 117504, Note_on_c, 13, 59, 53
14, 117670, Note_on_c, 13, 59, 0
14, 118272, Note_on_c, 13, 62, 45
14, 118436, Note_on_c, 13, 62, 0
14, 118656, Note_on_c, 13, 62, 45
14, 118820, Note_on_c, 13, 62, 0
14, 119040, Note_on_c, 13, 62, 45
14, 119204, Note_on_c, 13, 62, 0
14, 121344, Control_c, 13, 11, 121
14, 121344, Note_on_c, 13, 72, 108
14, 121361, Control_c, 13, 11, 122
14, 121374, Control_c, 13, 11, 125
14, 121383, Control_c, 13, 11, 127
14, 121488, Control_c, 13, 11, 124
14, 121492, Control_c, 13, 11, 121
14, 121501, Control_c, 13, 11, 120
14, 121505, Control_c, 13, 11, 118
14, 121514, Control_c, 13, 11, 117
14, 121527, Control_c, 13, 11, 114
14, 121531, Control_c, 13, 11, 111
14, 121544, Control_c, 13, 11, 109
14, 121570, Control_c, 13, 11, 108
14, 121579, Control_c, 13, 11, 106
14, 121584, Control_c, 13, 11, 105
14, 121605, Control_c, 13, 11, 103
14, 121752, Note_on_c, 13, 72, 0
14, 124368, Note_on_c, 13, 55, 122
14, 124384, Note_on_c, 13, 55, 0
14, 124384, Note_on_c, 13, 57, 122
14, 124400, Note_on_c, 13, 57, 0
14, 124400, Note_on_c, 13, 59, 122
14, 124416, Note_on_c, 13, 59, 0
14, 124416, Note_on_c, 13, 60, 122
14, 124506, Note_on_c, 13, 60, 0
14, 124608, Note_on_c, 13, 64, 122
14, 124698, Note_on_c, 13, 64, 0
14, 124800, Note_on_c, 13, 67, 122
14, 124890, Note_on_c, 13, 67, 0
14, 124992, Note_on_c, 13, 72, 122
14, 125082, Note_on_c, 13, 72, 0
14, 125152, Note_on_c, 13, 72, 122
14, 125184, Note_on_c, 13, 72, 0
14, 125184, Note_on_c, 13, 71, 122
14, 125208, Note_on_c, 13, 71, 0
14, 125208, Note_on_c, 13, 72, 122
14, 125232, Note_on_c, 13, 72, 0
14, 125232, Note_on_c, 13, 71, 122
14, 125292, Note_on_c, 13, 71, 0
14, 125328, Note_on_c, 13, 69, 122
14, 125362, Note_on_c, 13, 69, 0
14, 125376, Note_on_c, 13, 67, 122
14, 125524, Note_on_c, 13, 67, 0
14, 125904, Note_on_c, 13, 55, 122
14, 125928, Note_on_c, 13, 55, 0
14, 125928, Note_on_c, 13, 57, 122
14, 125952, Note_on_c, 13, 57, 0
14, 125952, Note_on_c, 13, 58, 122
14, 126042, Note_on_c, 13, 58, 0
14, 126144, Note_on_c, 13, 64, 122
14, 126234, Note_on_c, 13, 64, 0
14, 126336, Note_on_c, 13, 67, 122
14, 126426, Note_on_c, 13, 67, 0
14, 126528, Note_on_c, 13, 70, 122
14, 126618, Note_on_c, 13, 70, 0
14, 126688, Note_on_c, 13, 70, 122
14, 126720, Note_on_c, 13, 70, 0
14, 126720, Note_on_c, 13, 69, 122
14, 126744, Note_on_c, 13, 69, 0
14, 126744, Note_on_c, 13, 70, 122
14, 126768, Note_on_c, 13, 70, 0
14, 126768, Note_on_c, 13, 69, 122
14, 126828, Note_on_c, 13, 69, 0
14, 126864, Note_on_c, 13, 67, 122
14, 126898, Note_on_c, 13, 67, 0
14, 126912, Note_on_c, 13, 65, 122
14, 127060, Note_on_c, 13, 65, 0
14, 127440, Note_on_c, 13, 53, 122
14, 127464, Note_on_c, 13, 53, 0
14, 127464, Note_on_c, 13, 55, 122
14, 127488, Note_on_c, 13, 55, 0
14, 127488, Note_on_c, 13, 56, 122
14, 127578, Note_on_c, 13, 56, 0
14, 127680, Note_on_c, 13, 60, 122
14, 127770, Note_on_c, 13, 60, 0
14, 127872, Note_on_c, 13, 65, 122
14, 127962, Note_on_c, 13, 65, 0
14, 128064, Note_on_c, 13, 68, 122
14, 128154, Note_on_c, 13, 68, 0
14, 128224, Note_on_c, 13, 68, 122
14, 128256, Note_on_c, 13, 68, 0
14, 128256, Note_on_c, 13, 67, 122
14, 128280, Note_on_c, 13, 67, 0
14, 128280, Note_on_c, 13, 68, 122
14, 128304, Note_on_c, 13, 68, 0
14, 128304, Note_on_c, 13, 67, 122
14, 128364, Note_on_c, 13, 67, 0
14, 128400, Note_on_c, 13, 65, 122
14, 128434, Note_on_c, 13, 65, 0
14, 128448, Note_on_c, 13, 63, 122
14, 128596, Note_on_c, 13, 63, 0
14, 128976, Note_on_c, 13, 60, 122
14, 129000, Note_on_c, 13, 60, 0
14, 129000, Note_on_c, 13, 62, 122
14, 129024, Note_on_c, 13, 62, 0
14, 129024, Note_on_c, 13, 63, 122
14, 129114, Note_on_c, 13, 63, 0
14, 129216, Note_on_c, 13, 67, 122
14, 129306, Note_on_c, 13, 67, 0
14, 129408, Note_on_c, 13, 72, 122
14, 129498, Note_on_c, 13, 72, 0
14, 129600, Note_on_c, 13, 75, 122
14, 129690, Note_on_c, 13, 75, 0
14, 129760, Note_on_c, 13, 67, 122
14, 129792, Note_on_c, 13, 67, 0
14, 129792, Note_on_c, 13, 66, 122
14, 129816, Note_on_c, 13, 66, 0
14, 129816, Note_on_c, 13, 67, 122
14, 129840, Note_on_c, 13, 67, 0
14, 129840, Note_on_c, 13, 66, 122
14, 129900, Note_on_c, 13, 66, 0
14, 129936, Note_on_c, 13, 67, 122
14, 129970, Note_on_c, 13, 67, 0
14, 129984, Note_on_c, 13, 69, 122
14, 130132, Note_on_c, 13, 69, 0
14, 130512, Note_on_c, 13, 62, 122
14, 130536, Note_on_c, 13, 62, 0
14, 130536, Note_on_c, 13, 64, 122
14, 130560, Note_on_c, 13, 64, 0
14, 130560, Note_on_c, 13, 66, 122
14, 130650, Note_on_c, 13, 66, 0
14, 130752, Note_on_c, 13, 69, 122
14, 130842, Note_on_c, 13, 69, 0
14, 130944, Note_on_c, 13, 72, 122
14, 131034, Note_on_c, 13, 72, 0
14, 131136, Note_on_c, 13, 66, 122
14, 131226, Note_on_c, 13, 66, 0
14, 131328, Note_on_c, 13, 67, 116
14, 131382, Note_on_c, 13, 67, 0
14, 131424, Note_on_c, 13, 71, 116
14, 131478, Note_on_c, 13, 71, 0
14, 131520, Note_on_c, 13, 66, 116
14, 131574, Note_on_c, 13, 66, 0
14, 131616, Note_on_c, 13, 62, 116
14, 131670, Note_on_c, 13, 62, 0
14, 131712, Note_on_c, 13, 67, 116
14, 131766, Note_on_c, 13, 67, 0
14, 131808, Note_on_c, 13, 71, 116
14, 131862, Note_on_c, 13, 71, 0
14, 131904, Note_on_c, 13, 66, 116
14, 131958, Note_on_c, 13, 66, 0
14, 132000, Note_on_c, 13, 62, 116
14, 132054, Note_on_c, 13, 62, 0
14, 132096, Note_on_c, 13, 67, 116
14, 132150, Note_on_c, 13, 67, 0
14, 132192, Note_on_c, 13, 71, 116
14, 132246, Note_on_c, 13, 71, 0
14, 132288, Note_on_c, 13, 66, 116
14, 132342, Note_on_c, 13, 66, 0
14, 132384, Note_on_c, 13, 62, 116
14, 132438, Note_on_c, 13, 62, 0
14, 132480, Note_on_c, 13, 67, 116
14, 132534, Note_on_c, 13, 67, 0
14, 132576, Note_on_c, 13, 71, 116
14, 132630, Note_on_c, 13, 71, 0
14, 132672, Note_on_c, 13, 66, 116
14, 132726, Note_on_c, 13, 66, 0
14, 132768, Note_on_c, 13, 62, 116
14, 132822, Note_on_c, 13, 62, 0
14, 132864, Note_on_c, 13, 67, 116
14, 133004, Note_on_c, 13, 67, 0
14, 134400, Note_on_c, 13, 55, 116
14, 134808, Note_on_c, 13, 55, 0
14, 134880, Note_on_c, 13, 57, 116
14, 134926, Note_on_c, 13, 57, 0
14, 134928, Note_on_c, 13, 59, 116
14, 134974, Note_on_c, 13, 59, 0
14, 134976, Note_on_c, 13, 60, 116
14, 135022, Note_on_c, 13, 60, 0
14, 135024, Note_on_c, 13, 62, 116
14, 135070, Note_on_c, 13, 62, 0
14, 135072, Note_on_c, 13, 64, 116
14, 135118, Note_on_c, 13, 64, 0
14, 135120, Note_on_c, 13, 66, 116
14, 135150, Note_on_c, 13, 66, 0
14, 135547, Control_c, 13, 11, 109
14, 135552, Note_on_c, 13, 55, 52
14, 135556, Control_c, 13, 11, 112
14, 135565, Control_c, 13, 11, 116
14, 135582, Control_c, 13, 11, 118
14, 135591, Control_c, 13, 11, 121
14, 135608, Control_c, 13, 11, 124
14, 135617, Control_c, 13, 11, 127
14, 135744, Note_on_c, 13, 55, 0
14, 135744, Note_on_c, 13, 54, 52
14, 135936, Note_on_c, 13, 54, 0
14, 135936, Note_on_c, 13, 53, 52
14, 136128, Note_on_c, 13, 53, 0
14, 136128, Note_on_c, 13, 52, 52
14, 136320, Note_on_c, 13, 52, 0
14, 136320, Note_on_c, 13, 53, 52
14, 136512, Note_on_c, 13, 53, 0
14, 136512, Note_on_c, 13, 50, 52
14, 136664, Note_on_c, 13, 50, 0
14, 137280, Note_on_c, 13, 50, 52
14, 137382, Note_on_c, 13, 50, 0
14, 137424, Note_on_c, 13, 52, 52
14, 137472, Note_on_c, 13, 52, 0
14, 137472, Note_on_c, 13, 53, 52
14, 137606, Note_on_c, 13, 53, 0
14, 137664, Note_on_c, 13, 53, 52
14, 137856, Note_on_c, 13, 53, 0
14, 137856, Note_on_c, 13, 52, 52
14, 138048, Note_on_c, 13, 52, 0
14, 138048, Note_on_c, 13, 57, 52
14, 138204, Note_on_c, 13, 57, 0
14, 138240, Note_on_c, 13, 55, 47
14, 138374, Note_on_c, 13, 55, 0
14, 138432, Note_on_c, 13, 60, 47
14, 138536, Note_on_c, 13, 60, 0
14, 138816, Note_on_c, 13, 61, 47
14, 138920, Note_on_c, 13, 61, 0
14, 139200, Note_on_c, 13, 62, 47
14, 139304, Note_on_c, 13, 62, 0
14, 139584, Note_on_c, 13, 59, 47
14, 139688, Note_on_c, 13, 59, 0
14, 139968, Note_on_c, 13, 60, 47
14, 140072, Note_on_c, 13, 60, 0
14, 140352, Note_on_c, 13, 57, 47
14, 140456, Note_on_c, 13, 57, 0
14, 140544, Control_c, 13, 11, 104
14, 140544, Note_on_c, 13, 53, 47
14, 140596, Control_c, 13, 11, 107
14, 140605, Control_c, 13, 11, 109
14, 140631, Control_c, 13, 11, 110
14, 140649, Control_c, 13, 11, 113
14, 140657, Control_c, 13, 11, 115
14, 140675, Control_c, 13, 11, 116
14, 140684, Control_c, 13, 11, 119
14, 140701, Control_c, 13, 11, 122
14, 140710, Control_c, 13, 11, 124
14, 140727, Control_c, 13, 11, 125
14, 140736, Control_c, 13, 11, 127
14, 140867, Control_c, 13, 11, 124
14, 140868, Note_on_c, 13, 53, 0
14, 140884, Control_c, 13, 11, 121
14, 140911, Control_c, 13, 11, 120
14, 140928, Note_on_c, 13, 55, 47
14, 140928, Control_c, 13, 11, 127
14, 141034, Note_on_c, 13, 55, 0
14, 141120, Note_on_c, 13, 55, 47
14, 141226, Note_on_c, 13, 55, 0
14, 144384, Note_on_c, 13, 60, 47
14, 144518, Note_on_c, 13, 60, 0
14, 144576, Note_on_c, 13, 60, 47
14, 144576, Note_on_c, 13, 52, 47
14, 144710, Note_on_c, 13, 52, 0
14, 144710, Note_on_c, 13, 60, 0
14, 144960, Note_on_c, 13, 61, 47
14, 144960, Note_on_c, 13, 52, 47
14, 145094, Note_on_c, 13, 52, 0
14, 145094, Note_on_c, 13, 61, 0
14, 145344, Note_on_c, 13, 62, 47
14, 145344, Note_on_c, 13, 53, 47
14, 145464, Note_on_c, 13, 53, 0
14, 145464, Note_on_c, 13, 62, 0
14, 145728, Note_on_c, 13, 59, 47
14, 145728, Note_on_c, 13, 50, 47
14, 145848, Note_on_c, 13, 50, 0
14, 145848, Note_on_c, 13, 59, 0
14, 146112, Note_on_c, 13, 60, 47
14, 146112, Note_on_c, 13, 52, 47
14, 146232, Note_on_c, 13, 52, 0
14, 146232, Note_on_c, 13, 60, 0
14, 146688, Note_on_c, 13, 65, 47
14, 146844, Note_on_c, 13, 65, 0
14, 147072, Note_on_c, 13, 67, 47
14, 147228, Note_on_c, 13, 67, 0
14, 147456, Note_on_c, 13, 69, 47
14, 147612, Note_on_c, 13, 69, 0
14, 148224, Note_on_c, 13, 67, 47
14, 148380, Note_on_c, 13, 67, 0
14, 148608, Note_on_c, 13, 69, 47
14, 148764, Note_on_c, 13, 69, 0
14, 148992, Note_on_c, 13, 64, 47
14, 149148, Note_on_c, 13, 64, 0
14, 150720, Note_on_c, 13, 74, 47
14, 150720, Note_on_c, 13, 71, 47
14, 150810, Note_on_c, 13, 71, 0
14, 150810, Note_on_c, 13, 74, 0
14, 150912, Note_on_c, 13, 74, 47
14, 150912, Note_on_c, 13, 71, 47
14, 151002, Note_on_c, 13, 71, 0
14, 151002, Note_on_c, 13, 74, 0
14, 151104, Note_on_c, 13, 74, 47
14, 151104, Note_on_c, 13, 71, 47
14, 151194, Note_on_c, 13, 71, 0
14, 151194, Note_on_c, 13, 74, 0
14, 151296, Note_on_c, 13, 74, 47
14, 151296, Note_on_c, 13, 71, 47
14, 151488, Note_on_c, 13, 71, 0
14, 151488, Note_on_c, 13, 74, 0
14, 151488, Note_on_c, 13, 72, 47
14, 151488, Note_on_c, 13, 69, 47
14, 151620, Note_on_c, 13, 69, 0
14, 151644, Note_on_c, 13, 72, 0
14, 152832, Note_on_c, 13, 60, 47
14, 152966, Note_on_c, 13, 60, 0
14, 153024, Note_on_c, 13, 60, 47
14, 153216, Note_on_c, 13, 60, 0
14, 153216, Note_on_c, 13, 62, 47
14, 153408, Note_on_c, 13, 62, 0
14, 153408, Note_on_c, 13, 59, 47
14, 153564, Note_on_c, 13, 59, 0
14, 153600, Note_on_c, 13, 60, 47
14, 153778, Note_on_c, 13, 60, 0
14, 155472, Note_on_c, 13, 64, 62
14, 155496, Note_on_c, 13, 64, 0
14, 155496, Note_on_c, 13, 65, 62
14, 155520, Note_on_c, 13, 65, 0
14, 155520, Note_on_c, 13, 67, 62
14, 155718, Note_on_c, 13, 67, 0
14, 155808, Note_on_c, 13, 67, 47
14, 155862, Note_on_c, 13, 67, 0
14, 155904, Note_on_c, 13, 65, 47
14, 155994, Note_on_c, 13, 65, 0
14, 156096, Note_on_c, 13, 64, 47
14, 156186, Note_on_c, 13, 64, 0
14, 156288, Note_on_c, 13, 62, 47
14, 156378, Note_on_c, 13, 62, 0
14, 156480, Note_on_c, 13, 65, 47
14, 156570, Note_on_c, 13, 65, 0
14, 156672, Note_on_c, 13, 64, 47
14, 156850, Note_on_c, 13, 64, 0
14, 158544, Note_on_c, 13, 64, 62
14, 158568, Note_on_c, 13, 64, 0
14, 158568, Note_on_c, 13, 65, 62
14, 158592, Note_on_c, 13, 65, 0
14, 158592, Note_on_c, 13, 67, 62
14, 158790, Note_on_c, 13, 67, 0
14, 158880, Note_on_c, 13, 67, 47
14, 158934, Note_on_c, 13, 67, 0
14, 158976, Note_on_c, 13, 65, 47
14, 159066, Note_on_c, 13, 65, 0
14, 159168, Note_on_c, 13, 64, 47
14, 159258, Note_on_c, 13, 64, 0
14, 159360, Note_on_c, 13, 62, 47
14, 159450, Note_on_c, 13, 62, 0
14, 159552, Note_on_c, 13, 65, 47
14, 159642, Note_on_c, 13, 65, 0
14, 163968, Note_on_c, 13, 65, 103
14, 164022, Note_on_c, 13, 65, 0
14, 164064, Note_on_c, 13, 65, 103
14, 164118, Note_on_c, 13, 65, 0
14, 164160, Note_on_c, 13, 65, 103
14, 164214, Note_on_c, 13, 65, 0
14, 164256, Note_on_c, 13, 65, 103
14, 164310, Note_on_c, 13, 65, 0
14, 164352, Note_on_c, 13, 67, 103
14, 164406, Note_on_c, 13, 67, 0
14, 164448, Note_on_c, 13, 67, 103
14, 164502, Note_on_c, 13, 67, 0
14, 164544, Note_on_c, 13, 67, 103
14, 164598, Note_on_c, 13, 67, 0
14, 164640, Note_on_c, 13, 67, 103
14, 164694, Note_on_c, 13, 67, 0
14, 164736, Note_on_c, 13, 67, 103
14, 164790, Note_on_c, 13, 67, 0
14, 164832, Note_on_c, 13, 67, 103
14, 164886, Note_on_c, 13, 67, 0
14, 164928, Note_on_c, 13, 67, 103
14, 164982, Note_on_c, 13, 67, 0
14, 165024, Note_on_c, 13, 67, 103
14, 165078, Note_on_c, 13, 67, 0
14, 165120, Note_on_c, 13, 67, 103
14, 165174, Note_on_c, 13, 67, 0
14, 165216, Note_on_c, 13, 67, 103
14, 165270, Note_on_c, 13, 67, 0
14, 165312, Note_on_c, 13, 67, 103
14, 165366, Note_on_c, 13, 67, 0
14, 165408, Note_on_c, 13, 67, 103
14, 165462, Note_on_c, 13, 67, 0
14, 165504, Note_on_c, 13, 67, 103
14, 165558, Note_on_c, 13, 67, 0
14, 165600, Note_on_c, 13, 67, 103
14, 165654, Note_on_c, 13, 67, 0
14, 165696, Note_on_c, 13, 67, 103
14, 165750, Note_on_c, 13, 67, 0
14, 165792, Note_on_c, 13, 67, 103
14, 165846, Note_on_c, 13, 67, 0
14, 165888, Note_on_c, 13, 60, 103
14, 166066, Note_on_c, 13, 60, 0
14, 169824, Note_on_c, 13, 69, 103
14, 169884, Note_on_c, 13, 69, 0
14, 169920, Note_on_c, 13, 69, 103
14, 169980, Note_on_c, 13, 69, 0
14, 170016, Note_on_c, 13, 69, 103
14, 170076, Note_on_c, 13, 69, 0
14, 170112, Note_on_c, 13, 69, 103
14, 170172, Note_on_c, 13, 69, 0
14, 170208, Note_on_c, 13, 69, 103
14, 170268, Note_on_c, 13, 69, 0
14, 170304, Note_on_c, 13, 69, 103
14, 170364, Note_on_c, 13, 69, 0
14, 170400, Note_on_c, 13, 69, 103
14, 170460, Note_on_c, 13, 69, 0
14, 170496, Note_on_c, 13, 70, 103
14, 170556, Note_on_c, 13, 70, 0
14, 170592, Note_on_c, 13, 70, 103
14, 170652, Note_on_c, 13, 70, 0
14, 170688, Note_on_c, 13, 70, 103
14, 170748, Note_on_c, 13, 70, 0
14, 170784, Note_on_c, 13, 70, 103
14, 170844, Note_on_c, 13, 70, 0
14, 170880, Note_on_c, 13, 70, 103
14, 170940, Note_on_c, 13, 70, 0
14, 170976, Note_on_c, 13, 70, 103
14, 171036, Note_on_c, 13, 70, 0
14, 171072, Note_on_c, 13, 70, 103
14, 171132, Note_on_c, 13, 70, 0
14, 171168, Note_on_c, 13, 70, 103
14, 171228, Note_on_c, 13, 70, 0
14, 171264, Note_on_c, 13, 68, 103
14, 171324, Note_on_c, 13, 68, 0
14, 171360, Note_on_c, 13, 68, 103
14, 171420, Note_on_c, 13, 68, 0
14, 171456, Note_on_c, 13, 68, 103
14, 171516, Note_on_c, 13, 68, 0
14, 171552, Note_on_c, 13, 68, 103
14, 171612, Note_on_c, 13, 68, 0
14, 171648, Note_on_c, 13, 68, 103
14, 171708, Note_on_c, 13, 68, 0
14, 171744, Note_on_c, 13, 68, 103
14, 171804, Note_on_c, 13, 68, 0
14, 171840, Note_on_c, 13, 68, 103
14, 171900, Note_on_c, 13, 68, 0
14, 171936, Note_on_c, 13, 68, 103
14, 171996, Note_on_c, 13, 68, 0
14, 172032, Note_on_c, 13, 66, 103
14, 172092, Note_on_c, 13, 66, 0
14, 172128, Note_on_c, 13, 66, 103
14, 172188, Note_on_c, 13, 66, 0
14, 172224, Note_on_c, 13, 66, 103
14, 172284, Note_on_c, 13, 66, 0
14, 172320, Note_on_c, 13, 66, 103
14, 172380, Note_on_c, 13, 66, 0
14, 172416, Note_on_c, 13, 66, 103
14, 172476, Note_on_c, 13, 66, 0
14, 172512, Note_on_c, 13, 66, 103
14, 172572, Note_on_c, 13, 66, 0
14, 172608, Note_on_c, 13, 66, 103
14, 172668, Note_on_c, 13, 66, 0
14, 172704, Note_on_c, 13, 66, 103
14, 172764, Note_on_c, 13, 66, 0
14, 172800, Note_on_c, 13, 67, 103
14, 172860, Note_on_c, 13, 67, 0
14, 172896, Note_on_c, 13, 67, 103
14, 172956, Note_on_c, 13, 67, 0
14, 172992, Note_on_c, 13, 68, 103
14, 173052, Note_on_c, 13, 68, 0
14, 173088, Note_on_c, 13, 68, 103
14, 173148, Note_on_c, 13, 68, 0
14, 173184, Note_on_c, 13, 67, 103
14, 173244, Note_on_c, 13, 67, 0
14, 173280, Note_on_c, 13, 67, 103
14, 173340, Note_on_c, 13, 67, 0
14, 173376, Note_on_c, 13, 66, 103
14, 173436, Note_on_c, 13, 66, 0
14, 173472, Note_on_c, 13, 66, 103
14, 173532, Note_on_c, 13, 66, 0
14, 173568, Note_on_c, 13, 67, 103
14, 173628, Note_on_c, 13, 67, 0
14, 173664, Note_on_c, 13, 67, 103
14, 173724, Note_on_c, 13, 67, 0
14, 173760, Note_on_c, 13, 68, 103
14, 173820, Note_on_c, 13, 68, 0
14, 173856, Note_on_c, 13, 68, 103
14, 173916, Note_on_c, 13, 68, 0
14, 173952, Note_on_c, 13, 67, 103
14, 174012, Note_on_c, 13, 67, 0
14, 174048, Note_on_c, 13, 67, 103
14, 174108, Note_on_c, 13, 67, 0
14, 174144, Note_on_c, 13, 66, 103
14, 174204, Note_on_c, 13, 66, 0
14, 174240, Note_on_c, 13, 66, 103
14, 174300, Note_on_c, 13, 66, 0
14, 174336, Note_on_c, 13, 67, 103
14, 174396, Note_on_c, 13, 67, 0
14, 174432, Note_on_c, 13, 67, 103
14, 174492, Note_on_c, 13, 67, 0
14, 174528, Note_on_c, 13, 68, 103
14, 174588, Note_on_c, 13, 68, 0
14, 174624, Note_on_c, 13, 68, 103
14, 174684, Note_on_c, 13, 68, 0
14, 174720, Note_on_c, 13, 67, 103
14, 174780, Note_on_c, 13, 67, 0
14, 174816, Note_on_c, 13, 67, 103
14, 174876, Note_on_c, 13, 67, 0
14, 174912, Note_on_c, 13, 66, 103
14, 174972, Note_on_c, 13, 66, 0
14, 175008, Note_on_c, 13, 66, 103
14, 175068, Note_on_c, 13, 66, 0
14, 175104, Note_on_c, 13, 67, 103
14, 175234, Note_on_c, 13, 67, 0
14, 175488, Note_on_c, 13, 64, 103
14, 175608, Note_on_c, 13, 64, 0
14, 175680, Note_on_c, 13, 60, 103
14, 175800, Note_on_c, 13, 60, 0
14, 175872, Note_on_c, 13, 55, 103
14, 176006, Note_on_c, 13, 55, 0
14, 178176, Note_on_c, 13, 55, 47
14, 178560, Note_on_c, 13, 55, 0
14, 178560, Note_on_c, 13, 59, 47
14, 178926, Note_on_c, 13, 59, 0
14, 178944, Note_on_c, 13, 60, 82
14, 178978, Note_on_c, 13, 60, 0
14, 178992, Note_on_c, 13, 60, 82
14, 179026, Note_on_c, 13, 60, 0
14, 179040, Note_on_c, 13, 60, 82
14, 179074, Note_on_c, 13, 60, 0
14, 179088, Note_on_c, 13, 60, 82
14, 179122, Note_on_c, 13, 60, 0
14, 179136, Note_on_c, 13, 60, 82
14, 179170, Note_on_c, 13, 60, 0
14, 179184, Note_on_c, 13, 60, 82
14, 179218, Note_on_c, 13, 60, 0
14, 179232, Note_on_c, 13, 60, 82
14, 179266, Note_on_c, 13, 60, 0
14, 179280, Note_on_c, 13, 60, 82
14, 179314, Note_on_c, 13, 60, 0
14, 179328, Note_on_c, 13, 60, 82
14, 179362, Note_on_c, 13, 60, 0
14, 179376, Note_on_c, 13, 60, 82
14, 179410, Note_on_c, 13, 60, 0
14, 179424, Note_on_c, 13, 60, 82
14, 179458, Note_on_c, 13, 60, 0
14, 179472, Note_on_c, 13, 60, 82
14, 179506, Note_on_c, 13, 60, 0
14, 179520, Note_on_c, 13, 60, 82
14, 179554, Note_on_c, 13, 60, 0
14, 179568, Note_on_c, 13, 60, 82
14, 179602, Note_on_c, 13, 60, 0
14, 179616, Note_on_c, 13, 60, 82
14, 179650, Note_on_c, 13, 60, 0
14, 179664, Note_on_c, 13, 60, 82
14, 179698, Note_on_c, 13, 60, 0
14, 179712, Note_on_c, 13, 62, 82
14, 179712, Note_on_c, 13, 59, 82
14, 179746, Note_on_c, 13, 59, 0
14, 179746, Note_on_c, 13, 62, 0
14, 179760, Note_on_c, 13, 62, 82
14, 179760, Note_on_c, 13, 59, 82
14, 179794, Note_on_c, 13, 59, 0
14, 179794, Note_on_c, 13, 62, 0
14, 179808, Note_on_c, 13, 62, 82
14, 179808, Note_on_c, 13, 59, 82
14, 179842, Note_on_c, 13, 59, 0
14, 179842, Note_on_c, 13, 62, 0
14, 179856, Note_on_c, 13, 62, 82
14, 179856, Note_on_c, 13, 59, 82
14, 179890, Note_on_c, 13, 59, 0
14, 179890, Note_on_c, 13, 62, 0
14, 179904, Note_on_c, 13, 62, 82
14, 179904, Note_on_c, 13, 59, 82
14, 179938, Note_on_c, 13, 59, 0
14, 179938, Note_on_c, 13, 62, 0
14, 179952, Note_on_c, 13, 62, 82
14, 179952, Note_on_c, 13, 59, 82
14, 179986, Note_on_c, 13, 59, 0
14, 179986, Note_on_c, 13, 62, 0
14, 180000, Note_on_c, 13, 62, 82
14, 180000, Note_on_c, 13, 59, 82
14, 180034, Note_on_c, 13, 59, 0
14, 180034, Note_on_c, 13, 62, 0
14, 180048, Note_on_c, 13, 62, 82
14, 180048, Note_on_c, 13, 59, 82
14, 180082, Note_on_c, 13, 59, 0
14, 180082, Note_on_c, 13, 62, 0
14, 180096, Note_on_c, 13, 62, 82
14, 180096, Note_on_c, 13, 59, 82
14, 180130, Note_on_c, 13, 59, 0
14, 180130, Note_on_c, 13, 62, 0
14, 180144, Note_on_c, 13, 62, 82
14, 180144, Note_on_c, 13, 59, 82
14, 180178, Note_on_c, 13, 59, 0
14, 180178, Note_on_c, 13, 62, 0
14, 180192, Note_on_c, 13, 62, 82
14, 180192, Note_on_c, 13, 59, 82
14, 180226, Note_on_c, 13, 59, 0
14, 180226, Note_on_c, 13, 62, 0
14, 180240, Note_on_c, 13, 62, 82
14, 180240, Note_on_c, 13, 59, 82
14, 180274, Note_on_c, 13, 59, 0
14, 180274, Note_on_c, 13, 62, 0
14, 180288, Note_on_c, 13, 62, 82
14, 180288, Note_on_c, 13, 59, 82
14, 180322, Note_on_c, 13, 59, 0
14, 180322, Note_on_c, 13, 62, 0
14, 180336, Note_on_c, 13, 62, 82
14, 180336, Note_on_c, 13, 59, 82
14, 180370, Note_on_c, 13, 59, 0
14, 180370, Note_on_c, 13, 62, 0
14, 180384, Note_on_c, 13, 62, 82
14, 180384, Note_on_c, 13, 59, 82
14, 180418, Note_on_c, 13, 59, 0
14, 180418, Note_on_c, 13, 62, 0
14, 180432, Note_on_c, 13, 62, 82
14, 180432, Note_on_c, 13, 59, 82
14, 180466, Note_on_c, 13, 59, 0
14, 180466, Note_on_c, 13, 62, 0
14, 180480, Note_on_c, 13, 60, 82
14, 180514, Note_on_c, 13, 60, 0
14, 180528, Note_on_c, 13, 60, 82
14, 180562, Note_on_c, 13, 60, 0
14, 180576, Note_on_c, 13, 60, 82
14, 180610, Note_on_c, 13, 60, 0
14, 180624, Note_on_c, 13, 60, 82
14, 180658, Note_on_c, 13, 60, 0
14, 180672, Note_on_c, 13, 60, 82
14, 180706, Note_on_c, 13, 60, 0
14, 180720, Note_on_c, 13, 60, 82
14, 180754, Note_on_c, 13, 60, 0
14, 180768, Note_on_c, 13, 60, 82
14, 180802, Note_on_c, 13, 60, 0
14, 180816, Note_on_c, 13, 60, 82
14, 180850, Note_on_c, 13, 60, 0
14, 180864, Note_on_c, 13, 60, 82
14, 180898, Note_on_c, 13, 60, 0
14, 180912, Note_on_c, 13, 60, 82
14, 180946, Note_on_c, 13, 60, 0
14, 180960, Note_on_c, 13, 60, 82
14, 180994, Note_on_c, 13, 60, 0
14, 181008, Note_on_c, 13, 60, 82
14, 181042, Note_on_c, 13, 60, 0
14, 181056, Note_on_c, 13, 60, 82
14, 181090, Note_on_c, 13, 60, 0
14, 181104, Note_on_c, 13, 60, 82
14, 181138, Note_on_c, 13, 60, 0
14, 181152, Note_on_c, 13, 60, 82
14, 181186, Note_on_c, 13, 60, 0
14, 181200, Note_on_c, 13, 60, 82
14, 181234, Note_on_c, 13, 60, 0
14, 181248, Note_on_c, 13, 62, 82
14, 181248, Note_on_c, 13, 59, 82
14, 181282, Note_on_c, 13, 59, 0
14, 181282, Note_on_c, 13, 62, 0
14, 181296, Note_on_c, 13, 62, 82
14, 181296, Note_on_c, 13, 59, 82
14, 181330, Note_on_c, 13, 59, 0
14, 181330, Note_on_c, 13, 62, 0
14, 181344, Note_on_c, 13, 62, 82
14, 181344, Note_on_c, 13, 59, 82
14, 181378, Note_on_c, 13, 59, 0
14, 181378, Note_on_c, 13, 62, 0
14, 181392, Note_on_c, 13, 62, 82
14, 181392, Note_on_c, 13, 59, 82
14, 181426, Note_on_c, 13, 59, 0
14, 181426, Note_on_c, 13, 62, 0
14, 181440, Note_on_c, 13, 62, 82
14, 181440, Note_on_c, 13, 59, 82
14, 181474, Note_on_c, 13, 59, 0
14, 181474, Note_on_c, 13, 62, 0
14, 181488, Note_on_c, 13, 62, 82
14, 181488, Note_on_c, 13, 59, 82
14, 181522, Note_on_c, 13, 59, 0
14, 181522, Note_on_c, 13, 62, 0
14, 181536, Note_on_c, 13, 62, 82
14, 181536, Note_on_c, 13, 59, 82
14, 181570, Note_on_c, 13, 59, 0
14, 181570, Note_on_c, 13, 62, 0
14, 181584, Note_on_c, 13, 62, 82
14, 181584, Note_on_c, 13, 59, 82
14, 181618, Note_on_c, 13, 59, 0
14, 181618, Note_on_c, 13, 62, 0
14, 181632, Note_on_c, 13, 62, 82
14, 181632, Note_on_c, 13, 59, 82
14, 181666, Note_on_c, 13, 59, 0
14, 181666, Note_on_c, 13, 62, 0
14, 181680, Note_on_c, 13, 62, 82
14, 181680, Note_on_c, 13, 59, 82
14, 181714, Note_on_c, 13, 59, 0
14, 181714, Note_on_c, 13, 62, 0
14, 181728, Note_on_c, 13, 62, 82
14, 181728, Note_on_c, 13, 59, 82
14, 181762, Note_on_c, 13, 59, 0
14, 181762, Note_on_c, 13, 62, 0
14, 181776, Note_on_c, 13, 62, 82
14, 181776, Note_on_c, 13, 59, 82
14, 181810, Note_on_c, 13, 59, 0
14, 181810, Note_on_c, 13, 62, 0
14, 181824, Note_on_c, 13, 62, 82
14, 181824, Note_on_c, 13, 59, 82
14, 181858, Note_on_c, 13, 59, 0
14, 181858, Note_on_c, 13, 62, 0
14, 181872, Note_on_c, 13, 62, 82
14, 181872, Note_on_c, 13, 59, 82
14, 181906, Note_on_c, 13, 59, 0
14, 181906, Note_on_c, 13, 62, 0
14, 181920, Note_on_c, 13, 62, 82
14, 181920, Note_on_c, 13, 59, 82
14, 181954, Note_on_c, 13, 59, 0
14, 181954, Note_on_c, 13, 62, 0
14, 181968, Note_on_c, 13, 62, 82
14, 181968, Note_on_c, 13, 59, 82
14, 182002, Note_on_c, 13, 59, 0
14, 182002, Note_on_c, 13, 62, 0
14, 182016, Control_c, 13, 11, 121
14, 182016, Note_on_c, 13, 72, 108
14, 182033, Control_c, 13, 11, 122
14, 182046, Control_c, 13, 11, 125
14, 182055, Control_c, 13, 11, 127
14, 182160, Control_c, 13, 11, 124
14, 182164, Control_c, 13, 11, 121
14, 182173, Control_c, 13, 11, 120
14, 182177, Control_c, 13, 11, 118
14, 182186, Control_c, 13, 11, 117
14, 182199, Control_c, 13, 11, 114
14, 182203, Control_c, 13, 11, 111
14, 182216, Control_c, 13, 11, 109
14, 182242, Control_c, 13, 11, 108
14, 182251, Control_c, 13, 11, 106
14, 182256, Control_c, 13, 11, 105
14, 182277, Control_c, 13, 11, 103
14, 182424, Note_on_c, 13, 72, 0
14, 186554, Control_c, 13, 11, 127
14, 186624, Note_on_c, 13, 65, 103
14, 186726, Note_on_c, 13, 65, 0
14, 186816, Note_on_c, 13, 65, 103
14, 186876, Note_on_c, 13, 65, 0
14, 186961, Note_on_c, 13, 65, 103
14, 186989, Note_on_c, 13, 65, 0
14, 187008, Note_on_c, 13, 65, 103
14, 187110, Note_on_c, 13, 65, 0
14, 187200, Note_on_c, 13, 65, 103
14, 187302, Note_on_c, 13, 65, 0
14, 187392, Note_on_c, 13, 69, 103
14, 187392, Note_on_c, 13, 65, 103
14, 187933, Note_on_c, 13, 65, 0
14, 187933, Note_on_c, 13, 69, 0
14, 188160, Note_on_c, 13, 68, 45
14, 188160, Note_on_c, 13, 65, 45
14, 188259, Note_on_c, 13, 65, 0
14, 188259, Note_on_c, 13, 68, 0
14, 188352, Note_on_c, 13, 68, 45
14, 188352, Note_on_c, 13, 65, 45
14, 188420, Note_on_c, 13, 65, 0
14, 188420, Note_on_c, 13, 68, 0
14, 188497, Note_on_c, 13, 68, 45
14, 188497, Note_on_c, 13, 65, 45
14, 188527, Note_on_c, 13, 65, 0
14, 188527, Note_on_c, 13, 68, 0
14, 188544, Note_on_c, 13, 68, 45
14, 188544, Note_on_c, 13, 65, 45
14, 188640, Note_on_c, 13, 65, 0
14, 188640, Note_on_c, 13, 68, 0
14, 188736, Note_on_c, 13, 65, 45
14, 188736, Note_on_c, 13, 68, 45
14, 188832, Note_on_c, 13, 68, 0
14, 188832, Note_on_c, 13, 65, 0
14, 188928, Note_on_c, 13, 65, 45
14, 188928, Note_on_c, 13, 68, 45
14, 189434, Note_on_c, 13, 68, 0
14, 189435, Note_on_c, 13, 65, 0
14, 189696, Note_on_c, 13, 67, 119
14, 189852, Note_on_c, 13, 67, 0
14, 190032, Note_on_c, 13, 67, 119
14, 190060, Note_on_c, 13, 67, 0
14, 190080, Note_on_c, 13, 69, 119
14, 190236, Note_on_c, 13, 69, 0
14, 190416, Note_on_c, 13, 69, 119
14, 190444, Note_on_c, 13, 69, 0
14, 190464, Note_on_c, 13, 65, 119
14, 190620, Note_on_c, 13, 65, 0
14, 190800, Note_on_c, 13, 65, 119
14, 190828, Note_on_c, 13, 65, 0
14, 190848, Note_on_c, 13, 67, 119
14, 191004, Note_on_c, 13, 67, 0
14, 191184, Note_on_c, 13, 67, 119
14, 191212, Note_on_c, 13, 67, 0
14, 191232, Note_on_c, 13, 60, 119
14, 191372, Note_on_c, 13, 60, 0
14, 191424, Note_on_c, 13, 67, 119
14, 191424, Note_on_c, 13, 64, 119
14, 191514, Note_on_c, 13, 64, 0
14, 191514, Note_on_c, 13, 67, 0
14, 191568, Note_on_c, 13, 67, 119
14, 191568, Note_on_c, 13, 64, 119
14, 191592, Note_on_c, 13, 64, 0
14, 191592, Note_on_c, 13, 67, 0
14, 191616, Note_on_c, 13, 67, 119
14, 191616, Note_on_c, 13, 64, 119
14, 191754, Note_on_c, 13, 64, 0
14, 191754, Note_on_c, 13, 67, 0
14, 191808, Note_on_c, 13, 67, 119
14, 191808, Note_on_c, 13, 64, 119
14, 191832, Note_on_c, 13, 64, 0
14, 191832, Note_on_c, 13, 67, 0
14, 191832, Note_on_c, 13, 65, 119
14, 191832, Note_on_c, 13, 62, 119
14, 191856, Note_on_c, 13, 62, 0
14, 191856, Note_on_c, 13, 65, 0
14, 191856, Note_on_c, 13, 64, 119
14, 191856, Note_on_c, 13, 67, 119
14, 191880, Note_on_c, 13, 67, 0
14, 191880, Note_on_c, 13, 64, 0
14, 191880, Note_on_c, 13, 62, 119
14, 191880, Note_on_c, 13, 65, 119
14, 191904, Note_on_c, 13, 65, 0
14, 191904, Note_on_c, 13, 62, 0
14, 191904, Note_on_c, 13, 60, 119
14, 191904, Note_on_c, 13, 64, 119
14, 191952, Note_on_c, 13, 64, 0
14, 191952, Note_on_c, 13, 60, 0
14, 191952, Note_on_c, 13, 62, 119
14, 191952, Note_on_c, 13, 65, 119
14, 191986, Note_on_c, 13, 65, 0
14, 191986, Note_on_c, 13, 62, 0
14, 192000, Note_on_c, 13, 60, 119
14, 192000, Note_on_c, 13, 64, 119
14, 192132, Note_on_c, 13, 64, 0
14, 192132, Note_on_c, 13, 60, 0
14, 192192, Note_on_c, 13, 60, 119
14, 192192, Note_on_c, 13, 64, 119
14, 192282, Note_on_c, 13, 64, 0
14, 192282, Note_on_c, 13, 60, 0
14, 192336, Note_on_c, 13, 60, 119
14, 192336, Note_on_c, 13, 64, 119
14, 192360, Note_on_c, 13, 64, 0
14, 192360, Note_on_c, 13, 60, 0
14, 192384, Note_on_c, 13, 60, 119
14, 192384, Note_on_c, 13, 64, 119
14, 192522, Note_on_c, 13, 64, 0
14, 192522, Note_on_c, 13, 60, 0
14, 192576, Note_on_c, 13, 60, 119
14, 192576, Note_on_c, 13, 64, 119
14, 192600, Note_on_c, 13, 64, 0
14, 192600, Note_on_c, 13, 60, 0
14, 192600, Note_on_c, 13, 59, 119
14, 192600, Note_on_c, 13, 62, 119
14, 192624, Note_on_c, 13, 62, 0
14, 192624, Note_on_c, 13, 59, 0
14, 192624, Note_on_c, 13, 64, 119
14, 192624, Note_on_c, 13, 60, 119
14, 192648, Note_on_c, 13, 60, 0
14, 192648, Note_on_c, 13, 64, 0
14, 192648, Note_on_c, 13, 62, 119
14, 192648, Note_on_c, 13, 59, 119
14, 192672, Note_on_c, 13, 59, 0
14, 192672, Note_on_c, 13, 62, 0
14, 192672, Note_on_c, 13, 60, 119
14, 192672, Note_on_c, 13, 57, 119
14, 192720, Note_on_c, 13, 57, 0
14, 192720, Note_on_c, 13, 60, 0
14, 192720, Note_on_c, 13, 62, 119
14, 192720, Note_on_c, 13, 59, 119
14, 192754, Note_on_c, 13, 59, 0
14, 192754, Note_on_c, 13, 62, 0
14, 192768, Note_on_c, 13, 60, 119
14, 192930, Note_on_c, 13, 60, 0
14, 193344, Note_on_c, 13, 67, 103
14, 193456, Note_on_c, 13, 67, 0
14, 193536, Note_on_c, 13, 72, 103
14, 193676, Note_on_c, 13, 72, 0
14, 194112, Note_on_c, 13, 67, 103
14, 194224, Note_on_c, 13, 67, 0
14, 194304, Note_on_c, 13, 60, 103
14, 194372, Note_on_c, 13, 60, 0
14, 194400, Note_on_c, 13, 60, 103
14, 194468, Note_on_c, 13, 60, 0
14, 194496, Note_on_c, 13, 60, 103
14, 194564, Note_on_c, 13, 60, 0
14, 194592, Note_on_c, 13, 60, 103
14, 194660, Note_on_c, 13, 60, 0
14, 194688, Note_on_c, 13, 60, 103
14, 194756, Note_on_c, 13, 60, 0
14, 194784, Note_on_c, 13, 60, 103
14, 194852, Note_on_c, 13, 60, 0
14, 194880, Note_on_c, 13, 60, 103
14, 194948, Note_on_c, 13, 60, 0
14, 194976, Note_on_c, 13, 60, 103
14, 195044, Note_on_c, 13, 60, 0
14, 195072, Note_on_c, 13, 60, 103
14, 195140, Note_on_c, 13, 60, 0
14, 195168, Note_on_c, 13, 60, 103
14, 195236, Note_on_c, 13, 60, 0
14, 195264, Note_on_c, 13, 60, 103
14, 195332, Note_on_c, 13, 60, 0
14, 195360, Note_on_c, 13, 60, 103
14, 195428, Note_on_c, 13, 60, 0
14, 195456, Note_on_c, 13, 60, 103
14, 195524, Note_on_c, 13, 60, 0
14, 195552, Note_on_c, 13, 60, 103
14, 195620, Note_on_c, 13, 60, 0
14, 195648, Note_on_c, 13, 60, 103
14, 195716, Note_on_c, 13, 60, 0
14, 195744, Note_on_c, 13, 60, 103
14, 195812, Note_on_c, 13, 60, 0
14, 195840, Note_on_c, 13, 60, 103
14, 195908, Note_on_c, 13, 60, 0
14, 195936, Note_on_c, 13, 60, 103
14, 196004, Note_on_c, 13, 60, 0
14, 196032, Note_on_c, 13, 60, 103
14, 196100, Note_on_c, 13, 60, 0
14, 196128, Note_on_c, 13, 60, 103
14, 196196, Note_on_c, 13, 60, 0
14, 196224, Note_on_c, 13, 60, 103
14, 196292, Note_on_c, 13, 60, 0
14, 196320, Note_on_c, 13, 60, 103
14, 196388, Note_on_c, 13, 60, 0
14, 196416, Note_on_c, 13, 60, 103
14, 196484, Note_on_c, 13, 60, 0
14, 196512, Note_on_c, 13, 60, 103
14, 196580, Note_on_c, 13, 60, 0
14, 196608, Note_on_c, 13, 60, 103
14, 196676, Note_on_c, 13, 60, 0
14, 196704, Note_on_c, 13, 60, 103
14, 196772, Note_on_c, 13, 60, 0
14, 196800, Note_on_c, 13, 60, 103
14, 196868, Note_on_c, 13, 60, 0
14, 196896, Note_on_c, 13, 60, 103
14, 196964, Note_on_c, 13, 60, 0
14, 196992, Note_on_c, 13, 60, 103
14, 197060, Note_on_c, 13, 60, 0
14, 197088, Note_on_c, 13, 60, 103
14, 197156, Note_on_c, 13, 60, 0
14, 197184, Note_on_c, 13, 60, 103
14, 197252, Note_on_c, 13, 60, 0
14, 197280, Note_on_c, 13, 60, 103
14, 197348, Note_on_c, 13, 60, 0
14, 197376, Note_on_c, 13, 60, 103
14, 197556, Note_on_c, 13, 60, 0
14, 197712, Note_on_c, 13, 55, 103
14, 197728, Note_on_c, 13, 55, 0
14, 197728, Note_on_c, 13, 57, 103
14, 197744, Note_on_c, 13, 57, 0
14, 197744, Note_on_c, 13, 59, 103
14, 197760, Note_on_c, 13, 59, 0
14, 197760, Note_on_c, 13, 60, 103
14, 197850, Note_on_c, 13, 60, 0
14, 197904, Note_on_c, 13, 60, 103
14, 197932, Note_on_c, 13, 60, 0
14, 197952, Note_on_c, 13, 64, 103
14, 198042, Note_on_c, 13, 64, 0
14, 198096, Note_on_c, 13, 64, 103
14, 198124, Note_on_c, 13, 64, 0
14, 198144, Note_on_c, 13, 67, 103
14, 198308, Note_on_c, 13, 67, 0
14, 198480, Note_on_c, 13, 60, 103
14, 198504, Note_on_c, 13, 60, 0
14, 198504, Note_on_c, 13, 62, 103
14, 198528, Note_on_c, 13, 62, 0
14, 198528, Note_on_c, 13, 64, 103
14, 198618, Note_on_c, 13, 64, 0
14, 198672, Note_on_c, 13, 64, 103
14, 198700, Note_on_c, 13, 64, 0
14, 198720, Note_on_c, 13, 67, 103
14, 198810, Note_on_c, 13, 67, 0
14, 198864, Note_on_c, 13, 67, 103
14, 198892, Note_on_c, 13, 67, 0
14, 198912, Note_on_c, 13, 72, 103
14, 199076, Note_on_c, 13, 72, 0
14, 199248, Note_on_c, 13, 64, 103
14, 199272, Note_on_c, 13, 64, 0
14, 199272, Note_on_c, 13, 65, 103
14, 199296, Note_on_c, 13, 65, 0
14, 199296, Note_on_c, 13, 67, 103
14, 199386, Note_on_c, 13, 67, 0
14, 199440, Note_on_c, 13, 67, 103
14, 199468, Note_on_c, 13, 67, 0
14, 199488, Note_on_c, 13, 72, 103
14, 199578, Note_on_c, 13, 72, 0
14, 199632, Note_on_c, 13, 72, 103
14, 199660, Note_on_c, 13, 72, 0
14, 199680, Note_on_c, 13, 76, 103
14, 199844, Note_on_c, 13, 76, 0
14, 200016, Note_on_c, 13, 67, 103
14, 200032, Note_on_c, 13, 67, 0
14, 200032, Note_on_c, 13, 69, 103
14, 200048, Note_on_c, 13, 69, 0
14, 200048, Note_on_c, 13, 71, 103
14, 200064, Note_on_c, 13, 71, 0
14, 200064, Note_on_c, 13, 72, 103
14, 200154, Note_on_c, 13, 72, 0
14, 200208, Note_on_c, 13, 72, 103
14, 200236, Note_on_c, 13, 72, 0
14, 200256, Note_on_c, 13, 76, 103
14, 200346, Note_on_c, 13, 76, 0
14, 200400, Note_on_c, 13, 76, 103
14, 200428, Note_on_c, 13, 76, 0
14, 200448, Note_on_c, 13, 79, 103
14, 200782, Note_on_c, 13, 79, 0
14, 200832, Note_on_c, 13, 76, 103
14, 200952, Note_on_c, 13, 76, 0
14, 201024, Note_on_c, 13, 72, 103
14, 201144, Note_on_c, 13, 72, 0
14, 201216, Note_on_c, 13, 67, 103
14, 201336, Note_on_c, 13, 67, 0
14, 201408, Note_on_c, 13, 72, 103
14, 201528, Note_on_c, 13, 72, 0
14, 201600, Note_on_c, 13, 64, 103
14, 201720, Note_on_c, 13, 64, 0
14, 201792, Note_on_c, 13, 67, 103
14, 201912, Note_on_c, 13, 67, 0
14, 201984, Note_on_c, 13, 60, 103
14, 202296, Note_on_c, 13, 60, 0
14, 204864, Control_c, 13, 121, 0
14, 204864, End_track
15, 0, Start_track
15, 0, MIDI_port, 0
15, 0, Title_t, "Cello"
15, 0, Program_c, 14, 48
15, 0, Control_c, 14, 7, 115
15, 0, Control_c, 14, 10, 82
15, 0, Text_t, ""
15, 96, Control_c, 14, 121, 0
15, 192, Control_c, 14, 91, 54
15, 288, Control_c, 14, 93, 6
15, 768, Note_on_c, 14, 60, 116
15, 1165, Note_on_c, 14, 60, 0
15, 1488, Note_on_c, 14, 48, 116
15, 1514, Note_on_c, 14, 48, 0
15, 1536, Note_on_c, 14, 48, 116
15, 2042, Note_on_c, 14, 48, 0
15, 2256, Note_on_c, 14, 43, 116
15, 2272, Note_on_c, 14, 43, 0
15, 2272, Note_on_c, 14, 45, 116
15, 2288, Note_on_c, 14, 45, 0
15, 2288, Note_on_c, 14, 47, 116
15, 2304, Note_on_c, 14, 47, 0
15, 2304, Note_on_c, 14, 48, 116
15, 2390, Note_on_c, 14, 48, 0
15, 2496, Note_on_c, 14, 52, 116
15, 2582, Note_on_c, 14, 52, 0
15, 2688, Note_on_c, 14, 55, 116
15, 2774, Note_on_c, 14, 55, 0
15, 2880, Note_on_c, 14, 60, 116
15, 2966, Note_on_c, 14, 60, 0
15, 3052, Note_on_c, 14, 60, 116
15, 3072, Note_on_c, 14, 59, 116
15, 3084, Note_on_c, 14, 60, 0
15, 3096, Note_on_c, 14, 59, 0
15, 3096, Note_on_c, 14, 60, 116
15, 3120, Note_on_c, 14, 60, 0
15, 3120, Note_on_c, 14, 59, 116
15, 3178, Note_on_c, 14, 59, 0
15, 3220, Note_on_c, 14, 57, 116
15, 3250, Note_on_c, 14, 57, 0
15, 3264, Note_on_c, 14, 55, 116
15, 3388, Note_on_c, 14, 55, 0
15, 3648, Note_on_c, 14, 60, 44
15, 3750, Note_on_c, 14, 60, 0
15, 3808, Note_on_c, 14, 60, 46
15, 3840, Note_on_c, 14, 60, 0
15, 3840, Note_on_c, 14, 59, 46
15, 3864, Note_on_c, 14, 59, 0
15, 3864, Note_on_c, 14, 60, 46
15, 3888, Note_on_c, 14, 60, 0
15, 3888, Note_on_c, 14, 59, 46
15, 3948, Note_on_c, 14, 59, 0
15, 3986, Note_on_c, 14, 57, 46
15, 4018, Note_on_c, 14, 57, 0
15, 4032, Note_on_c, 14, 55, 46
15, 4100, Note_on_c, 14, 55, 0
15, 4128, Note_on_c, 14, 60, 47
15, 4174, Note_on_c, 14, 60, 0
15, 4192, Note_on_c, 14, 60, 47
15, 4224, Note_on_c, 14, 60, 0
15, 4224, Note_on_c, 14, 59, 47
15, 4248, Note_on_c, 14, 59, 0
15, 4248, Note_on_c, 14, 60, 47
15, 4272, Note_on_c, 14, 60, 0
15, 4272, Note_on_c, 14, 59, 47
15, 4324, Note_on_c, 14, 59, 0
15, 4370, Note_on_c, 14, 57, 47
15, 4402, Note_on_c, 14, 57, 0
15, 4416, Note_on_c, 14, 55, 47
15, 4484, Note_on_c, 14, 55, 0
15, 4512, Note_on_c, 14, 60, 48
15, 4558, Note_on_c, 14, 60, 0
15, 4576, Note_on_c, 14, 60, 48
15, 4608, Note_on_c, 14, 60, 0
15, 4608, Note_on_c, 14, 59, 48
15, 4632, Note_on_c, 14, 59, 0
15, 4632, Note_on_c, 14, 60, 47
15, 4656, Note_on_c, 14, 60, 0
15, 4656, Note_on_c, 14, 59, 46
15, 4716, Note_on_c, 14, 59, 0
15, 4754, Note_on_c, 14, 57, 45
15, 4786, Note_on_c, 14, 57, 0
15, 4800, Note_on_c, 14, 55, 44
15, 4934, Note_on_c, 14, 55, 0
15, 5376, Note_on_c, 14, 53, 103
15, 5476, Note_on_c, 14, 53, 0
15, 5568, Note_on_c, 14, 53, 103
15, 5638, Note_on_c, 14, 53, 0
15, 5714, Note_on_c, 14, 53, 103
15, 5744, Note_on_c, 14, 53, 0
15, 5760, Note_on_c, 14, 53, 103
15, 5860, Note_on_c, 14, 53, 0
15, 5952, Note_on_c, 14, 53, 103
15, 6052, Note_on_c, 14, 53, 0
15, 6144, Note_on_c, 14, 53, 103
15, 6152, Control_c, 14, 11, 125
15, 6161, Control_c, 14, 11, 127
15, 6257, Control_c, 14, 11, 126
15, 6266, Control_c, 14, 11, 124
15, 6292, Control_c, 14, 11, 123
15, 6309, Control_c, 14, 11, 121
15, 6336, Control_c, 14, 11, 120
15, 6397, Control_c, 14, 11, 118
15, 6466, Control_c, 14, 11, 117
15, 6475, Control_c, 14, 11, 115
15, 6493, Control_c, 14, 11, 114
15, 6501, Control_c, 14, 11, 112
15, 6519, Control_c, 14, 11, 108
15, 6545, Control_c, 14, 11, 105
15, 6554, Control_c, 14, 11, 103
15, 6571, Control_c, 14, 11, 102
15, 6580, Control_c, 14, 11, 99
15, 6597, Control_c, 14, 11, 97
15, 6600, Note_on_c, 14, 53, 0
15, 6720, Note_on_c, 14, 53, 103
15, 6720, Control_c, 14, 11, 127
15, 6820, Note_on_c, 14, 53, 0
15, 6912, Note_on_c, 14, 55, 103
15, 6990, Note_on_c, 14, 55, 0
15, 7008, Note_on_c, 14, 55, 103
15, 7086, Note_on_c, 14, 55, 0
15, 7104, Note_on_c, 14, 55, 103
15, 7182, Note_on_c, 14, 55, 0
15, 7200, Note_on_c, 14, 55, 103
15, 7278, Note_on_c, 14, 55, 0
15, 7296, Note_on_c, 14, 55, 103
15, 7374, Note_on_c, 14, 55, 0
15, 7392, Note_on_c, 14, 55, 103
15, 7470, Note_on_c, 14, 55, 0
15, 7488, Note_on_c, 14, 55, 103
15, 7566, Note_on_c, 14, 55, 0
15, 7584, Note_on_c, 14, 55, 103
15, 7662, Note_on_c, 14, 55, 0
15, 7680, Note_on_c, 14, 48, 103
15, 7770, Note_on_c, 14, 48, 0
15, 7872, Note_on_c, 14, 52, 103
15, 7962, Note_on_c, 14, 52, 0
15, 8064, Note_on_c, 14, 55, 103
15, 8154, Note_on_c, 14, 55, 0
15, 8448, Note_on_c, 14, 53, 103
15, 8546, Note_on_c, 14, 53, 0
15, 8640, Note_on_c, 14, 53, 103
15, 8708, Note_on_c, 14, 53, 0
15, 8785, Note_on_c, 14, 53, 103
15, 8815, Note_on_c, 14, 53, 0
15, 8832, Note_on_c, 14, 53, 103
15, 8934, Note_on_c, 14, 53, 0
15, 9024, Note_on_c, 14, 53, 103
15, 9126, Note_on_c, 14, 53, 0
15, 9216, Note_on_c, 14, 53, 103
15, 9233, Control_c, 14, 11, 123
15, 9242, Control_c, 14, 11, 125
15, 9259, Control_c, 14, 11, 127
15, 9390, Control_c, 14, 11, 124
15, 9399, Control_c, 14, 11, 121
15, 9416, Control_c, 14, 11, 120
15, 9425, Control_c, 14, 11, 118
15, 9442, Control_c, 14, 11, 117
15, 9469, Control_c, 14, 11, 115
15, 9495, Control_c, 14, 11, 114
15, 9547, Control_c, 14, 11, 109
15, 9556, Control_c, 14, 11, 110
15, 9600, Control_c, 14, 11, 109
15, 9608, Control_c, 14, 11, 106
15, 9626, Control_c, 14, 11, 105
15, 9634, Control_c, 14, 11, 103
15, 9652, Control_c, 14, 11, 102
15, 9752, Note_on_c, 14, 53, 0
15, 9966, Control_c, 14, 11, 127
15, 9984, Note_on_c, 14, 53, 41
15, 10082, Note_on_c, 14, 53, 0
15, 10176, Note_on_c, 14, 53, 41
15, 10242, Note_on_c, 14, 53, 0
15, 10321, Note_on_c, 14, 53, 41
15, 10349, Note_on_c, 14, 53, 0
15, 10368, Note_on_c, 14, 53, 41
15, 10462, Note_on_c, 14, 53, 0
15, 10560, Note_on_c, 14, 53, 41
15, 10654, Note_on_c, 14, 53, 0
15, 10752, Note_on_c, 14, 53, 41
15, 11256, Note_on_c, 14, 53, 0
15, 11328, Note_on_c, 14, 53, 41
15, 11396, Note_on_c, 14, 53, 0
15, 11520, Note_on_c, 14, 55, 41
15, 11588, Note_on_c, 14, 55, 0
15, 11712, Note_on_c, 14, 55, 41
15, 11780, Note_on_c, 14, 55, 0
15, 11904, Note_on_c, 14, 55, 41
15, 11972, Note_on_c, 14, 55, 0
15, 12096, Note_on_c, 14, 55, 41
15, 12164, Note_on_c, 14, 55, 0
15, 13056, Note_on_c, 14, 48, 52
15, 13176, Note_on_c, 14, 48, 0
15, 13248, Note_on_c, 14, 52, 52
15, 13368, Note_on_c, 14, 52, 0
15, 13440, Note_on_c, 14, 55, 52
15, 13560, Note_on_c, 14, 55, 0
15, 13632, Note_on_c, 14, 43, 52
15, 13752, Note_on_c, 14, 43, 0
15, 13824, Note_on_c, 14, 48, 54
15, 13944, Note_on_c, 14, 48, 0
15, 14016, Note_on_c, 14, 52, 58
15, 14136, Note_on_c, 14, 52, 0
15, 14208, Note_on_c, 14, 55, 65
15, 14328, Note_on_c, 14, 55, 0
15, 14400, Note_on_c, 14, 43, 70
15, 14520, Note_on_c, 14, 43, 0
15, 14592, Note_on_c, 14, 48, 76
15, 14748, Note_on_c, 14, 48, 0
15, 14784, Note_on_c, 14, 52, 83
15, 14940, Note_on_c, 14, 52, 0
15, 14976, Note_on_c, 14, 55, 89
15, 15140, Note_on_c, 14, 55, 0
15, 15168, Note_on_c, 14, 43, 96
15, 15332, Note_on_c, 14, 43, 0
15, 15360, Note_on_c, 14, 48, 82
15, 15450, Note_on_c, 14, 48, 0
15, 15456, Note_on_c, 14, 48, 82
15, 15546, Note_on_c, 14, 48, 0
15, 15552, Note_on_c, 14, 48, 82
15, 15642, Note_on_c, 14, 48, 0
15, 15648, Note_on_c, 14, 48, 82
15, 15738, Note_on_c, 14, 48, 0
15, 15744, Note_on_c, 14, 48, 82
15, 15834, Note_on_c, 14, 48, 0
15, 15840, Note_on_c, 14, 48, 82
15, 15930, Note_on_c, 14, 48, 0
15, 15936, Note_on_c, 14, 48, 82
15, 16026, Note_on_c, 14, 48, 0
15, 16032, Note_on_c, 14, 48, 82
15, 16122, Note_on_c, 14, 48, 0
15, 16128, Note_on_c, 14, 48, 82
15, 16218, Note_on_c, 14, 48, 0
15, 16224, Note_on_c, 14, 48, 82
15, 16314, Note_on_c, 14, 48, 0
15, 16320, Note_on_c, 14, 48, 82
15, 16410, Note_on_c, 14, 48, 0
15, 16416, Note_on_c, 14, 48, 82
15, 16506, Note_on_c, 14, 48, 0
15, 16512, Note_on_c, 14, 48, 82
15, 16602, Note_on_c, 14, 48, 0
15, 16608, Note_on_c, 14, 48, 82
15, 16698, Note_on_c, 14, 48, 0
15, 16704, Note_on_c, 14, 48, 82
15, 16794, Note_on_c, 14, 48, 0
15, 16800, Note_on_c, 14, 48, 82
15, 16890, Note_on_c, 14, 48, 0
15, 16896, Note_on_c, 14, 48, 82
15, 16986, Note_on_c, 14, 48, 0
15, 16992, Note_on_c, 14, 48, 82
15, 17082, Note_on_c, 14, 48, 0
15, 17088, Note_on_c, 14, 48, 82
15, 17178, Note_on_c, 14, 48, 0
15, 17184, Note_on_c, 14, 48, 82
15, 17274, Note_on_c, 14, 48, 0
15, 17280, Note_on_c, 14, 48, 82
15, 17370, Note_on_c, 14, 48, 0
15, 17376, Note_on_c, 14, 48, 82
15, 17466, Note_on_c, 14, 48, 0
15, 17472, Note_on_c, 14, 48, 82
15, 17562, Note_on_c, 14, 48, 0
15, 17568, Note_on_c, 14, 48, 82
15, 17658, Note_on_c, 14, 48, 0
15, 17664, Note_on_c, 14, 48, 82
15, 17754, Note_on_c, 14, 48, 0
15, 17760, Note_on_c, 14, 48, 82
15, 17850, Note_on_c, 14, 48, 0
15, 17856, Note_on_c, 14, 48, 82
15, 17946, Note_on_c, 14, 48, 0
15, 17952, Note_on_c, 14, 48, 82
15, 18042, Note_on_c, 14, 48, 0
15, 18048, Note_on_c, 14, 48, 82
15, 18138, Note_on_c, 14, 48, 0
15, 18144, Note_on_c, 14, 48, 82
15, 18234, Note_on_c, 14, 48, 0
15, 18240, Note_on_c, 14, 48, 82
15, 18330, Note_on_c, 14, 48, 0
15, 18336, Note_on_c, 14, 48, 82
15, 18426, Note_on_c, 14, 48, 0
15, 18432, Note_on_c, 14, 47, 82
15, 18522, Note_on_c, 14, 47, 0
15, 18528, Note_on_c, 14, 47, 82
15, 18618, Note_on_c, 14, 47, 0
15, 18624, Note_on_c, 14, 47, 82
15, 18714, Note_on_c, 14, 47, 0
15, 18720, Note_on_c, 14, 47, 82
15, 18810, Note_on_c, 14, 47, 0
15, 18816, Note_on_c, 14, 47, 82
15, 18906, Note_on_c, 14, 47, 0
15, 18912, Note_on_c, 14, 47, 82
15, 19002, Note_on_c, 14, 47, 0
15, 19008, Note_on_c, 14, 47, 82
15, 19098, Note_on_c, 14, 47, 0
15, 19104, Note_on_c, 14, 47, 82
15, 19194, Note_on_c, 14, 47, 0
15, 19200, Note_on_c, 14, 59, 82
15, 19290, Note_on_c, 14, 59, 0
15, 19296, Note_on_c, 14, 59, 82
15, 19386, Note_on_c, 14, 59, 0
15, 19392, Note_on_c, 14, 59, 82
15, 19482, Note_on_c, 14, 59, 0
15, 19488, Note_on_c, 14, 59, 82
15, 19578, Note_on_c, 14, 59, 0
15, 19584, Note_on_c, 14, 59, 82
15, 19674, Note_on_c, 14, 59, 0
15, 19680, Note_on_c, 14, 59, 82
15, 19770, Note_on_c, 14, 59, 0
15, 19776, Note_on_c, 14, 59, 82
15, 19866, Note_on_c, 14, 59, 0
15, 19872, Note_on_c, 14, 59, 82
15, 19962, Note_on_c, 14, 59, 0
15, 19968, Note_on_c, 14, 54, 82
15, 20058, Note_on_c, 14, 54, 0
15, 20064, Note_on_c, 14, 54, 82
15, 20154, Note_on_c, 14, 54, 0
15, 20160, Note_on_c, 14, 54, 82
15, 20250, Note_on_c, 14, 54, 0
15, 20256, Note_on_c, 14, 54, 82
15, 20346, Note_on_c, 14, 54, 0
15, 20352, Note_on_c, 14, 54, 82
15, 20442, Note_on_c, 14, 54, 0
15, 20448, Note_on_c, 14, 54, 82
15, 20538, Note_on_c, 14, 54, 0
15, 20544, Note_on_c, 14, 54, 82
15, 20634, Note_on_c, 14, 54, 0
15, 20640, Note_on_c, 14, 54, 82
15, 20730, Note_on_c, 14, 54, 0
15, 20736, Note_on_c, 14, 54, 82
15, 20826, Note_on_c, 14, 54, 0
15, 20832, Note_on_c, 14, 54, 82
15, 20922, Note_on_c, 14, 54, 0
15, 20928, Note_on_c, 14, 54, 82
15, 21018, Note_on_c, 14, 54, 0
15, 21024, Note_on_c, 14, 54, 82
15, 21114, Note_on_c, 14, 54, 0
15, 21120, Note_on_c, 14, 54, 82
15, 21210, Note_on_c, 14, 54, 0
15, 21216, Note_on_c, 14, 54, 82
15, 21306, Note_on_c, 14, 54, 0
15, 21312, Note_on_c, 14, 54, 82
15, 21402, Note_on_c, 14, 54, 0
15, 21408, Note_on_c, 14, 54, 82
15, 21498, Note_on_c, 14, 54, 0
15, 21504, Note_on_c, 14, 55, 82
15, 21594, Note_on_c, 14, 55, 0
15, 21600, Note_on_c, 14, 55, 82
15, 21690, Note_on_c, 14, 55, 0
15, 21696, Note_on_c, 14, 55, 82
15, 21786, Note_on_c, 14, 55, 0
15, 21792, Note_on_c, 14, 55, 82
15, 21882, Note_on_c, 14, 55, 0
15, 21888, Note_on_c, 14, 55, 82
15, 21978, Note_on_c, 14, 55, 0
15, 21984, Note_on_c, 14, 55, 82
15, 22074, Note_on_c, 14, 55, 0
15, 22080, Note_on_c, 14, 55, 82
15, 22170, Note_on_c, 14, 55, 0
15, 22176, Note_on_c, 14, 55, 82
15, 22266, Note_on_c, 14, 55, 0
15, 22272, Note_on_c, 14, 57, 82
15, 22362, Note_on_c, 14, 57, 0
15, 22368, Note_on_c, 14, 57, 82
15, 22458, Note_on_c, 14, 57, 0
15, 22464, Note_on_c, 14, 57, 82
15, 22554, Note_on_c, 14, 57, 0
15, 22560, Note_on_c, 14, 57, 82
15, 22650, Note_on_c, 14, 57, 0
15, 22656, Note_on_c, 14, 57, 82
15, 22746, Note_on_c, 14, 57, 0
15, 22752, Note_on_c, 14, 57, 82
15, 22842, Note_on_c, 14, 57, 0
15, 22848, Note_on_c, 14, 57, 82
15, 22938, Note_on_c, 14, 57, 0
15, 22944, Note_on_c, 14, 57, 82
15, 23034, Note_on_c, 14, 57, 0
15, 23040, Note_on_c, 14, 58, 82
15, 23130, Note_on_c, 14, 58, 0
15, 23136, Note_on_c, 14, 58, 82
15, 23226, Note_on_c, 14, 58, 0
15, 23232, Note_on_c, 14, 58, 82
15, 23322, Note_on_c, 14, 58, 0
15, 23328, Note_on_c, 14, 58, 82
15, 23418, Note_on_c, 14, 58, 0
15, 23424, Note_on_c, 14, 58, 82
15, 23514, Note_on_c, 14, 58, 0
15, 23520, Note_on_c, 14, 58, 82
15, 23610, Note_on_c, 14, 58, 0
15, 23616, Note_on_c, 14, 58, 82
15, 23706, Note_on_c, 14, 58, 0
15, 23712, Note_on_c, 14, 58, 82
15, 23802, Note_on_c, 14, 58, 0
15, 23808, Note_on_c, 14, 51, 82
15, 23898, Note_on_c, 14, 51, 0
15, 23904, Note_on_c, 14, 51, 82
15, 23994, Note_on_c, 14, 51, 0
15, 24000, Note_on_c, 14, 51, 82
15, 24090, Note_on_c, 14, 51, 0
15, 24096, Note_on_c, 14, 51, 82
15, 24186, Note_on_c, 14, 51, 0
15, 24192, Note_on_c, 14, 51, 82
15, 24282, Note_on_c, 14, 51, 0
15, 24288, Note_on_c, 14, 51, 82
15, 24378, Note_on_c, 14, 51, 0
15, 24384, Note_on_c, 14, 51, 82
15, 24474, Note_on_c, 14, 51, 0
15, 24480, Note_on_c, 14, 51, 82
15, 24570, Note_on_c, 14, 51, 0
15, 24576, Note_on_c, 14, 50, 82
15, 24666, Note_on_c, 14, 50, 0
15, 24672, Note_on_c, 14, 50, 82
15, 24762, Note_on_c, 14, 50, 0
15, 24768, Note_on_c, 14, 50, 82
15, 24858, Note_on_c, 14, 50, 0
15, 24864, Note_on_c, 14, 50, 82
15, 24954, Note_on_c, 14, 50, 0
15, 24960, Note_on_c, 14, 50, 82
15, 25050, Note_on_c, 14, 50, 0
15, 25056, Note_on_c, 14, 50, 82
15, 25146, Note_on_c, 14, 50, 0
15, 25152, Note_on_c, 14, 50, 82
15, 25242, Note_on_c, 14, 50, 0
15, 25248, Note_on_c, 14, 50, 82
15, 25338, Note_on_c, 14, 50, 0
15, 25344, Note_on_c, 14, 51, 82
15, 25434, Note_on_c, 14, 51, 0
15, 25440, Note_on_c, 14, 51, 82
15, 25530, Note_on_c, 14, 51, 0
15, 25536, Note_on_c, 14, 51, 82
15, 25626, Note_on_c, 14, 51, 0
15, 25632, Note_on_c, 14, 51, 82
15, 25722, Note_on_c, 14, 51, 0
15, 25728, Note_on_c, 14, 51, 82
15, 25818, Note_on_c, 14, 51, 0
15, 25824, Note_on_c, 14, 51, 82
15, 25914, Note_on_c, 14, 51, 0
15, 25920, Note_on_c, 14, 51, 82
15, 26010, Note_on_c, 14, 51, 0
15, 26016, Note_on_c, 14, 51, 82
15, 26106, Note_on_c, 14, 51, 0
15, 26112, Note_on_c, 14, 50, 82
15, 26286, Note_on_c, 14, 50, 0
15, 26400, Note_on_c, 14, 50, 82
15, 26478, Note_on_c, 14, 50, 0
15, 26496, Note_on_c, 14, 58, 82
15, 26592, Note_on_c, 14, 58, 0
15, 26592, Note_on_c, 14, 57, 82
15, 26688, Note_on_c, 14, 57, 0
15, 26688, Note_on_c, 14, 55, 82
15, 26784, Note_on_c, 14, 55, 0
15, 26784, Note_on_c, 14, 58, 82
15, 26862, Note_on_c, 14, 58, 0
15, 26880, Note_on_c, 14, 62, 82
15, 27054, Note_on_c, 14, 62, 0
15, 27168, Note_on_c, 14, 50, 82
15, 27246, Note_on_c, 14, 50, 0
15, 27264, Note_on_c, 14, 58, 82
15, 27360, Note_on_c, 14, 58, 0
15, 27360, Note_on_c, 14, 57, 82
15, 27456, Note_on_c, 14, 57, 0
15, 27456, Note_on_c, 14, 55, 82
15, 27552, Note_on_c, 14, 55, 0
15, 27552, Note_on_c, 14, 58, 82
15, 27630, Note_on_c, 14, 58, 0
15, 27648, Note_on_c, 14, 62, 82
15, 27804, Note_on_c, 14, 62, 0
15, 27840, Note_on_c, 14, 55, 82
15, 27886, Note_on_c, 14, 55, 0
15, 27936, Note_on_c, 14, 58, 82
15, 27982, Note_on_c, 14, 58, 0
15, 28032, Note_on_c, 14, 62, 82
15, 28188, Note_on_c, 14, 62, 0
15, 28224, Note_on_c, 14, 55, 82
15, 28270, Note_on_c, 14, 55, 0
15, 28320, Note_on_c, 14, 58, 82
15, 28366, Note_on_c, 14, 58, 0
15, 28416, Note_on_c, 14, 62, 82
15, 28594, Note_on_c, 14, 62, 0
15, 28752, Note_on_c, 14, 50, 82
15, 28796, Note_on_c, 14, 50, 0
15, 28800, Note_on_c, 14, 50, 82
15, 28934, Note_on_c, 14, 50, 0
15, 28992, Note_on_c, 14, 50, 82
15, 29126, Note_on_c, 14, 50, 0
15, 29184, Note_on_c, 14, 50, 82
15, 29362, Note_on_c, 14, 50, 0
15, 29952, Note_on_c, 14, 50, 103
15, 30382, Note_on_c, 14, 50, 0
15, 30432, Note_on_c, 14, 52, 103
15, 30480, Note_on_c, 14, 52, 0
15, 30480, Note_on_c, 14, 54, 103
15, 30528, Note_on_c, 14, 54, 0
15, 30528, Note_on_c, 14, 55, 103
15, 30576, Note_on_c, 14, 55, 0
15, 30576, Note_on_c, 14, 57, 103
15, 30624, Note_on_c, 14, 57, 0
15, 30624, Note_on_c, 14, 59, 103
15, 30672, Note_on_c, 14, 59, 0
15, 30672, Note_on_c, 14, 61, 103
15, 30716, Note_on_c, 14, 61, 0
15, 30720, Note_on_c, 14, 62, 103
15, 30898, Note_on_c, 14, 62, 0
15, 32241, Control_c, 14, 11, 101
15, 32246, Control_c, 14, 11, 101
15, 32256, Note_on_c, 14, 55, 42
15, 32263, Control_c, 14, 11, 102
15, 32272, Control_c, 14, 11, 104
15, 32276, Control_c, 14, 11, 105
15, 32280, Control_c, 14, 11, 106
15, 32289, Control_c, 14, 11, 108
15, 32298, Control_c, 14, 11, 109
15, 32302, Control_c, 14, 11, 110
15, 32307, Control_c, 14, 11, 111
15, 32311, Control_c, 14, 11, 112
15, 32315, Control_c, 14, 11, 113
15, 32324, Control_c, 14, 11, 115
15, 32328, Control_c, 14, 11, 116
15, 32333, Control_c, 14, 11, 118
15, 32337, Control_c, 14, 11, 119
15, 32342, Control_c, 14, 11, 120
15, 32346, Control_c, 14, 11, 121
15, 32355, Control_c, 14, 11, 122
15, 32363, Control_c, 14, 11, 123
15, 32368, Control_c, 14, 11, 124
15, 32398, Control_c, 14, 11, 125
15, 32516, Control_c, 14, 11, 124
15, 32534, Control_c, 14, 11, 123
15, 32542, Control_c, 14, 11, 122
15, 32551, Control_c, 14, 11, 121
15, 32560, Control_c, 14, 11, 120
15, 32564, Control_c, 14, 11, 119
15, 33009, Control_c, 14, 11, 115
15, 33053, Control_c, 14, 11, 114
15, 33092, Control_c, 14, 11, 113
15, 33131, Control_c, 14, 11, 112
15, 33175, Control_c, 14, 11, 111
15, 33214, Control_c, 14, 11, 110
15, 33254, Control_c, 14, 11, 109
15, 33293, Control_c, 14, 11, 108
15, 33336, Control_c, 14, 11, 107
15, 33376, Control_c, 14, 11, 106
15, 33415, Control_c, 14, 11, 105
15, 33459, Control_c, 14, 11, 104
15, 33498, Control_c, 14, 11, 103
15, 33537, Control_c, 14, 11, 102
15, 33576, Control_c, 14, 11, 101
15, 33620, Control_c, 14, 11, 100
15, 33659, Control_c, 14, 11, 99
15, 33699, Control_c, 14, 11, 98
15, 33742, Control_c, 14, 11, 97
15, 33782, Control_c, 14, 11, 96
15, 33821, Control_c, 14, 11, 95
15, 33860, Control_c, 14, 11, 94
15, 33926, Note_on_c, 14, 55, 0
15, 34150, Control_c, 14, 11, 127
15, 34176, Note_on_c, 14, 52, 47
15, 34294, Note_on_c, 14, 52, 0
15, 34560, Note_on_c, 14, 57, 47
15, 34678, Note_on_c, 14, 57, 0
15, 34944, Note_on_c, 14, 50, 47
15, 35062, Note_on_c, 14, 50, 0
15, 35328, Note_on_c, 14, 55, 47
15, 35446, Note_on_c, 14, 55, 0
15, 35712, Note_on_c, 14, 52, 47
15, 35830, Note_on_c, 14, 52, 0
15, 36096, Note_on_c, 14, 48, 47
15, 36408, Note_on_c, 14, 48, 0
15, 36480, Note_on_c, 14, 50, 47
15, 36598, Note_on_c, 14, 50, 0
15, 36672, Note_on_c, 14, 50, 47
15, 36790, Note_on_c, 14, 50, 0
15, 36864, Note_on_c, 14, 43, 47
15, 36982, Note_on_c, 14, 43, 0
15, 37056, Note_on_c, 14, 55, 43
15, 37170, Note_on_c, 14, 55, 0
15, 38400, Note_on_c, 14, 55, 47
15, 40060, Note_on_c, 14, 55, 0
15, 40320, Note_on_c, 14, 52, 47
15, 40438, Note_on_c, 14, 52, 0
15, 40704, Note_on_c, 14, 57, 47
15, 40822, Note_on_c, 14, 57, 0
15, 41088, Note_on_c, 14, 50, 47
15, 41206, Note_on_c, 14, 50, 0
15, 41472, Note_on_c, 14, 55, 47
15, 41590, Note_on_c, 14, 55, 0
15, 41856, Note_on_c, 14, 52, 47
15, 41974, Note_on_c, 14, 52, 0
15, 42240, Note_on_c, 14, 48, 47
15, 42384, Note_on_c, 14, 48, 0
15, 42624, Note_on_c, 14, 50, 47
15, 42768, Note_on_c, 14, 50, 0
15, 43008, Note_on_c, 14, 52, 47
15, 43152, Note_on_c, 14, 52, 0
15, 43776, Note_on_c, 14, 50, 47
15, 43920, Note_on_c, 14, 50, 0
15, 44160, Note_on_c, 14, 52, 47
15, 44304, Note_on_c, 14, 52, 0
15, 44544, Note_on_c, 14, 47, 47
15, 44688, Note_on_c, 14, 47, 0
15, 46272, Note_on_c, 14, 59, 45
15, 46356, Note_on_c, 14, 59, 0
15, 46464, Note_on_c, 14, 59, 45
15, 46548, Note_on_c, 14, 59, 0
15, 46656, Note_on_c, 14, 59, 45
15, 46740, Note_on_c, 14, 59, 0
15, 46848, Note_on_c, 14, 59, 45
15, 47040, Note_on_c, 14, 59, 0
15, 47040, Note_on_c, 14, 60, 45
15, 47184, Note_on_c, 14, 60, 0
15, 48384, Note_on_c, 14, 50, 47
15, 48384, Control_c, 14, 11, 97
15, 48414, Control_c, 14, 11, 98
15, 48430, Control_c, 14, 11, 100
15, 48436, Control_c, 14, 11, 101
15, 48447, Control_c, 14, 11, 103
15, 48452, Control_c, 14, 11, 104
15, 48469, Control_c, 14, 11, 106
15, 48485, Control_c, 14, 11, 107
15, 48496, Control_c, 14, 11, 109
15, 48513, Control_c, 14, 11, 110
15, 48529, Control_c, 14, 11, 112
15, 48562, Control_c, 14, 11, 113
15, 48633, Control_c, 14, 11, 115
15, 48759, Control_c, 14, 11, 114
15, 48814, Control_c, 14, 11, 112
15, 48864, Control_c, 14, 11, 111
15, 48875, Control_c, 14, 11, 109
15, 48891, Control_c, 14, 11, 108
15, 48946, Control_c, 14, 11, 106
15, 49039, Control_c, 14, 11, 107
15, 49122, Note_on_c, 14, 50, 0
15, 49152, Note_on_c, 14, 43, 44
15, 49152, Control_c, 14, 11, 102
15, 49160, Control_c, 14, 11, 112
15, 49187, Control_c, 14, 11, 111
15, 49204, Control_c, 14, 11, 108
15, 49209, Control_c, 14, 11, 105
15, 49226, Control_c, 14, 11, 103
15, 49237, Control_c, 14, 11, 102
15, 49259, Control_c, 14, 11, 99
15, 49270, Control_c, 14, 11, 97
15, 49275, Control_c, 14, 11, 94
15, 49286, Control_c, 14, 11, 93
15, 49292, Control_c, 14, 11, 91
15, 49303, Control_c, 14, 11, 90
15, 49308, Control_c, 14, 11, 87
15, 49319, Control_c, 14, 11, 85
15, 49324, Control_c, 14, 11, 84
15, 49335, Control_c, 14, 11, 82
15, 49340, Note_on_c, 14, 43, 0
15, 49341, Control_c, 14, 11, 81
15, 49357, Control_c, 14, 11, 79
15, 53743, Control_c, 14, 11, 127
15, 53760, Note_on_c, 14, 55, 44
15, 53850, Note_on_c, 14, 55, 0
15, 53856, Note_on_c, 14, 55, 40
15, 53946, Note_on_c, 14, 55, 0
15, 53952, Note_on_c, 14, 55, 48
15, 54042, Note_on_c, 14, 55, 0
15, 54048, Note_on_c, 14, 55, 51
15, 54138, Note_on_c, 14, 55, 0
15, 54144, Note_on_c, 14, 55, 52
15, 54234, Note_on_c, 14, 55, 0
15, 54240, Note_on_c, 14, 55, 54
15, 54330, Note_on_c, 14, 55, 0
15, 54336, Note_on_c, 14, 55, 57
15, 54426, Note_on_c, 14, 55, 0
15, 54432, Note_on_c, 14, 55, 59
15, 54522, Note_on_c, 14, 55, 0
15, 54528, Note_on_c, 14, 55, 60
15, 54618, Note_on_c, 14, 55, 0
15, 54624, Note_on_c, 14, 55, 63
15, 54714, Note_on_c, 14, 55, 0
15, 54720, Note_on_c, 14, 55, 65
15, 54810, Note_on_c, 14, 55, 0
15, 54816, Note_on_c, 14, 55, 67
15, 54906, Note_on_c, 14, 55, 0
15, 54912, Note_on_c, 14, 55, 70
15, 55002, Note_on_c, 14, 55, 0
15, 55008, Note_on_c, 14, 55, 72
15, 55098, Note_on_c, 14, 55, 0
15, 55104, Note_on_c, 14, 55, 75
15, 55194, Note_on_c, 14, 55, 0
15, 55200, Note_on_c, 14, 55, 78
15, 55290, Note_on_c, 14, 55, 0
15, 55296, Note_on_c, 14, 55, 82
15, 55386, Note_on_c, 14, 55, 0
15, 55392, Note_on_c, 14, 55, 82
15, 55482, Note_on_c, 14, 55, 0
15, 55488, Note_on_c, 14, 55, 82
15, 55578, Note_on_c, 14, 55, 0
15, 55584, Note_on_c, 14, 55, 82
15, 55674, Note_on_c, 14, 55, 0
15, 55680, Note_on_c, 14, 55, 82
15, 55770, Note_on_c, 14, 55, 0
15, 55776, Note_on_c, 14, 55, 82
15, 55866, Note_on_c, 14, 55, 0
15, 55872, Note_on_c, 14, 55, 82
15, 55962, Note_on_c, 14, 55, 0
15, 55968, Note_on_c, 14, 55, 82
15, 56058, Note_on_c, 14, 55, 0
15, 56064, Note_on_c, 14, 55, 82
15, 56154, Note_on_c, 14, 55, 0
15, 56160, Note_on_c, 14, 55, 82
15, 56250, Note_on_c, 14, 55, 0
15, 56256, Note_on_c, 14, 55, 82
15, 56346, Note_on_c, 14, 55, 0
15, 56352, Note_on_c, 14, 55, 82
15, 56442, Note_on_c, 14, 55, 0
15, 56448, Note_on_c, 14, 55, 82
15, 56538, Note_on_c, 14, 55, 0
15, 56544, Note_on_c, 14, 55, 82
15, 56634, Note_on_c, 14, 55, 0
15, 56640, Note_on_c, 14, 55, 82
15, 56730, Note_on_c, 14, 55, 0
15, 56736, Note_on_c, 14, 55, 82
15, 56826, Note_on_c, 14, 55, 0
15, 56832, Note_on_c, 14, 55, 82
15, 57010, Note_on_c, 14, 55, 0
15, 57168, Note_on_c, 14, 55, 84
15, 57192, Note_on_c, 14, 55, 0
15, 57192, Note_on_c, 14, 57, 87
15, 57216, Note_on_c, 14, 57, 0
15, 57216, Note_on_c, 14, 59, 89
15, 57432, Note_on_c, 14, 59, 0
15, 57504, Note_on_c, 14, 59, 52
15, 57558, Note_on_c, 14, 59, 0
15, 57600, Note_on_c, 14, 57, 52
15, 57690, Note_on_c, 14, 57, 0
15, 57792, Note_on_c, 14, 55, 52
15, 57882, Note_on_c, 14, 55, 0
15, 57984, Note_on_c, 14, 54, 52
15, 58074, Note_on_c, 14, 54, 0
15, 58176, Note_on_c, 14, 57, 52
15, 58266, Note_on_c, 14, 57, 0
15, 58368, Note_on_c, 14, 55, 52
15, 58546, Note_on_c, 14, 55, 0
15, 58704, Note_on_c, 14, 59, 86
15, 58728, Note_on_c, 14, 59, 0
15, 58728, Note_on_c, 14, 60, 88
15, 58752, Note_on_c, 14, 60, 0
15, 58752, Note_on_c, 14, 62, 91
15, 58950, Note_on_c, 14, 62, 0
15, 59040, Note_on_c, 14, 62, 47
15, 59094, Note_on_c, 14, 62, 0
15, 59136, Note_on_c, 14, 60, 47
15, 59226, Note_on_c, 14, 60, 0
15, 59328, Note_on_c, 14, 59, 47
15, 59418, Note_on_c, 14, 59, 0
15, 59520, Note_on_c, 14, 57, 47
15, 59610, Note_on_c, 14, 57, 0
15, 59712, Note_on_c, 14, 60, 47
15, 59802, Note_on_c, 14, 60, 0
15, 59904, Note_on_c, 14, 59, 47
15, 60082, Note_on_c, 14, 59, 0
15, 60240, Note_on_c, 14, 55, 82
15, 60264, Note_on_c, 14, 55, 0
15, 60264, Note_on_c, 14, 57, 87
15, 60288, Note_on_c, 14, 57, 0
15, 60288, Note_on_c, 14, 59, 90
15, 60504, Note_on_c, 14, 59, 0
15, 60576, Note_on_c, 14, 59, 47
15, 60630, Note_on_c, 14, 59, 0
15, 60672, Note_on_c, 14, 57, 47
15, 60762, Note_on_c, 14, 57, 0
15, 60864, Note_on_c, 14, 55, 47
15, 60954, Note_on_c, 14, 55, 0
15, 61056, Note_on_c, 14, 54, 47
15, 61146, Note_on_c, 14, 54, 0
15, 61248, Note_on_c, 14, 57, 47
15, 61338, Note_on_c, 14, 57, 0
15, 61440, Note_on_c, 14, 55, 47
15, 61618, Note_on_c, 14, 55, 0
15, 61776, Note_on_c, 14, 59, 86
15, 61800, Note_on_c, 14, 59, 0
15, 61800, Note_on_c, 14, 60, 87
15, 61824, Note_on_c, 14, 60, 0
15, 61824, Note_on_c, 14, 62, 89
15, 62022, Note_on_c, 14, 62, 0
15, 62112, Note_on_c, 14, 62, 47
15, 62166, Note_on_c, 14, 62, 0
15, 62208, Note_on_c, 14, 60, 47
15, 62298, Note_on_c, 14, 60, 0
15, 62400, Note_on_c, 14, 59, 47
15, 62490, Note_on_c, 14, 59, 0
15, 62592, Note_on_c, 14, 57, 47
15, 62682, Note_on_c, 14, 57, 0
15, 62784, Note_on_c, 14, 60, 47
15, 62874, Note_on_c, 14, 60, 0
15, 62976, Note_on_c, 14, 59, 45
15, 63154, Note_on_c, 14, 59, 0
15, 63840, Note_on_c, 14, 47, 90
15, 63910, Note_on_c, 14, 47, 0
15, 63936, Note_on_c, 14, 59, 90
15, 64006, Note_on_c, 14, 59, 0
15, 64032, Note_on_c, 14, 59, 90
15, 64102, Note_on_c, 14, 59, 0
15, 64128, Note_on_c, 14, 60, 90
15, 64198, Note_on_c, 14, 60, 0
15, 64224, Note_on_c, 14, 60, 90
15, 64294, Note_on_c, 14, 60, 0
15, 64320, Note_on_c, 14, 56, 90
15, 64390, Note_on_c, 14, 56, 0
15, 64416, Note_on_c, 14, 56, 90
15, 64486, Note_on_c, 14, 56, 0
15, 64512, Note_on_c, 14, 57, 90
15, 64580, Note_on_c, 14, 57, 0
15, 64608, Note_on_c, 14, 57, 90
15, 64676, Note_on_c, 14, 57, 0
15, 64704, Note_on_c, 14, 60, 90
15, 64772, Note_on_c, 14, 60, 0
15, 64800, Note_on_c, 14, 60, 90
15, 64868, Note_on_c, 14, 60, 0
15, 64896, Note_on_c, 14, 59, 90
15, 64964, Note_on_c, 14, 59, 0
15, 64992, Note_on_c, 14, 59, 90
15, 65060, Note_on_c, 14, 59, 0
15, 65088, Note_on_c, 14, 54, 90
15, 65156, Note_on_c, 14, 54, 0
15, 65184, Note_on_c, 14, 54, 90
15, 65252, Note_on_c, 14, 54, 0
15, 65280, Note_on_c, 14, 55, 90
15, 65352, Note_on_c, 14, 55, 0
15, 65376, Note_on_c, 14, 55, 90
15, 65448, Note_on_c, 14, 55, 0
15, 65472, Note_on_c, 14, 53, 90
15, 65544, Note_on_c, 14, 53, 0
15, 65568, Note_on_c, 14, 53, 90
15, 65640, Note_on_c, 14, 53, 0
15, 65664, Note_on_c, 14, 52, 90
15, 65736, Note_on_c, 14, 52, 0
15, 65760, Note_on_c, 14, 52, 90
15, 65832, Note_on_c, 14, 52, 0
15, 65856, Note_on_c, 14, 47, 90
15, 65910, Note_on_c, 14, 47, 0
15, 65952, Note_on_c, 14, 47, 90
15, 66024, Note_on_c, 14, 47, 0
15, 66048, Note_on_c, 14, 48, 90
15, 66138, Note_on_c, 14, 48, 0
15, 66144, Note_on_c, 14, 48, 85
15, 66234, Note_on_c, 14, 48, 0
15, 66240, Note_on_c, 14, 48, 85
15, 66330, Note_on_c, 14, 48, 0
15, 66336, Note_on_c, 14, 48, 85
15, 66426, Note_on_c, 14, 48, 0
15, 66432, Note_on_c, 14, 48, 85
15, 66522, Note_on_c, 14, 48, 0
15, 66528, Note_on_c, 14, 48, 85
15, 66618, Note_on_c, 14, 48, 0
15, 66624, Note_on_c, 14, 48, 85
15, 66714, Note_on_c, 14, 48, 0
15, 66720, Note_on_c, 14, 48, 85
15, 66810, Note_on_c, 14, 48, 0
15, 66816, Note_on_c, 14, 50, 85
15, 66906, Note_on_c, 14, 50, 0
15, 66912, Note_on_c, 14, 50, 85
15, 67002, Note_on_c, 14, 50, 0
15, 67008, Note_on_c, 14, 50, 85
15, 67098, Note_on_c, 14, 50, 0
15, 67104, Note_on_c, 14, 50, 85
15, 67194, Note_on_c, 14, 50, 0
15, 67200, Note_on_c, 14, 50, 85
15, 67290, Note_on_c, 14, 50, 0
15, 67296, Note_on_c, 14, 50, 85
15, 67386, Note_on_c, 14, 50, 0
15, 67392, Note_on_c, 14, 50, 85
15, 67482, Note_on_c, 14, 50, 0
15, 67488, Note_on_c, 14, 50, 85
15, 67578, Note_on_c, 14, 50, 0
15, 67584, Note_on_c, 14, 43, 85
15, 67762, Note_on_c, 14, 43, 0
15, 68448, Note_on_c, 14, 47, 91
15, 68538, Note_on_c, 14, 47, 0
15, 68544, Note_on_c, 14, 59, 90
15, 68634, Note_on_c, 14, 59, 0
15, 68640, Note_on_c, 14, 59, 90
15, 68730, Note_on_c, 14, 59, 0
15, 68736, Note_on_c, 14, 60, 90
15, 68826, Note_on_c, 14, 60, 0
15, 68832, Note_on_c, 14, 60, 90
15, 68922, Note_on_c, 14, 60, 0
15, 68928, Note_on_c, 14, 56, 90
15, 69018, Note_on_c, 14, 56, 0
15, 69024, Note_on_c, 14, 56, 90
15, 69114, Note_on_c, 14, 56, 0
15, 69120, Note_on_c, 14, 57, 90
15, 69210, Note_on_c, 14, 57, 0
15, 69216, Note_on_c, 14, 57, 90
15, 69306, Note_on_c, 14, 57, 0
15, 69312, Note_on_c, 14, 60, 90
15, 69402, Note_on_c, 14, 60, 0
15, 69408, Note_on_c, 14, 60, 90
15, 69498, Note_on_c, 14, 60, 0
15, 69504, Note_on_c, 14, 59, 90
15, 69594, Note_on_c, 14, 59, 0
15, 69600, Note_on_c, 14, 59, 90
15, 69690, Note_on_c, 14, 59, 0
15, 69696, Note_on_c, 14, 54, 90
15, 69786, Note_on_c, 14, 54, 0
15, 69792, Note_on_c, 14, 54, 90
15, 69882, Note_on_c, 14, 54, 0
15, 69888, Note_on_c, 14, 55, 90
15, 69978, Note_on_c, 14, 55, 0
15, 69984, Note_on_c, 14, 55, 90
15, 70074, Note_on_c, 14, 55, 0
15, 70080, Note_on_c, 14, 53, 90
15, 70170, Note_on_c, 14, 53, 0
15, 70176, Note_on_c, 14, 53, 90
15, 70266, Note_on_c, 14, 53, 0
15, 70272, Note_on_c, 14, 52, 90
15, 70362, Note_on_c, 14, 52, 0
15, 70368, Note_on_c, 14, 52, 90
15, 70458, Note_on_c, 14, 52, 0
15, 70464, Note_on_c, 14, 47, 90
15, 70554, Note_on_c, 14, 47, 0
15, 70560, Note_on_c, 14, 47, 90
15, 70650, Note_on_c, 14, 47, 0
15, 70656, Note_on_c, 14, 48, 89
15, 70746, Note_on_c, 14, 48, 0
15, 70752, Note_on_c, 14, 48, 85
15, 70842, Note_on_c, 14, 48, 0
15, 70848, Note_on_c, 14, 48, 85
15, 70938, Note_on_c, 14, 48, 0
15, 70944, Note_on_c, 14, 48, 85
15, 71034, Note_on_c, 14, 48, 0
15, 71040, Note_on_c, 14, 48, 85
15, 71130, Note_on_c, 14, 48, 0
15, 71136, Note_on_c, 14, 48, 85
15, 71226, Note_on_c, 14, 48, 0
15, 71232, Note_on_c, 14, 48, 85
15, 71322, Note_on_c, 14, 48, 0
15, 71328, Note_on_c, 14, 48, 85
15, 71418, Note_on_c, 14, 48, 0
15, 71424, Note_on_c, 14, 48, 85
15, 71514, Note_on_c, 14, 48, 0
15, 71520, Note_on_c, 14, 48, 85
15, 71610, Note_on_c, 14, 48, 0
15, 71616, Note_on_c, 14, 48, 85
15, 71706, Note_on_c, 14, 48, 0
15, 71712, Note_on_c, 14, 48, 85
15, 71802, Note_on_c, 14, 48, 0
15, 71808, Note_on_c, 14, 48, 85
15, 71898, Note_on_c, 14, 48, 0
15, 71904, Note_on_c, 14, 48, 85
15, 71994, Note_on_c, 14, 48, 0
15, 72000, Note_on_c, 14, 48, 85
15, 72090, Note_on_c, 14, 48, 0
15, 72096, Note_on_c, 14, 48, 85
15, 72186, Note_on_c, 14, 48, 0
15, 72192, Note_on_c, 14, 49, 85
15, 72282, Note_on_c, 14, 49, 0
15, 72288, Note_on_c, 14, 49, 85
15, 72378, Note_on_c, 14, 49, 0
15, 72384, Note_on_c, 14, 49, 85
15, 72474, Note_on_c, 14, 49, 0
15, 72480, Note_on_c, 14, 49, 85
15, 72570, Note_on_c, 14, 49, 0
15, 72576, Note_on_c, 14, 49, 85
15, 72666, Note_on_c, 14, 49, 0
15, 72672, Note_on_c, 14, 49, 85
15, 72762, Note_on_c, 14, 49, 0
15, 72768, Note_on_c, 14, 49, 85
15, 72858, Note_on_c, 14, 49, 0
15, 72864, Note_on_c, 14, 49, 85
15, 72954, Note_on_c, 14, 49, 0
15, 72960, Note_on_c, 14, 49, 85
15, 73138, Note_on_c, 14, 49, 0
15, 73728, Note_on_c, 14, 62, 85
15, 73818, Note_on_c, 14, 62, 0
15, 73824, Note_on_c, 14, 62, 85
15, 73914, Note_on_c, 14, 62, 0
15, 73920, Note_on_c, 14, 63, 85
15, 74010, Note_on_c, 14, 63, 0
15, 74016, Note_on_c, 14, 63, 85
15, 74106, Note_on_c, 14, 63, 0
15, 74112, Note_on_c, 14, 62, 85
15, 74202, Note_on_c, 14, 62, 0
15, 74208, Note_on_c, 14, 62, 85
15, 74298, Note_on_c, 14, 62, 0
15, 74304, Note_on_c, 14, 61, 85
15, 74394, Note_on_c, 14, 61, 0
15, 74400, Note_on_c, 14, 61, 85
15, 74490, Note_on_c, 14, 61, 0
15, 74496, Note_on_c, 14, 62, 85
15, 74586, Note_on_c, 14, 62, 0
15, 74592, Note_on_c, 14, 62, 85
15, 74682, Note_on_c, 14, 62, 0
15, 74688, Note_on_c, 14, 63, 85
15, 74778, Note_on_c, 14, 63, 0
15, 74784, Note_on_c, 14, 63, 85
15, 74874, Note_on_c, 14, 63, 0
15, 74880, Note_on_c, 14, 62, 85
15, 74970, Note_on_c, 14, 62, 0
15, 74976, Note_on_c, 14, 62, 87
15, 75066, Note_on_c, 14, 62, 0
15, 75072, Note_on_c, 14, 61, 87
15, 75162, Note_on_c, 14, 61, 0
15, 75168, Note_on_c, 14, 61, 87
15, 75258, Note_on_c, 14, 61, 0
15, 75264, Note_on_c, 14, 62, 87
15, 75354, Note_on_c, 14, 62, 0
15, 75360, Note_on_c, 14, 62, 87
15, 75450, Note_on_c, 14, 62, 0
15, 75456, Note_on_c, 14, 63, 87
15, 75546, Note_on_c, 14, 63, 0
15, 75552, Note_on_c, 14, 63, 88
15, 75642, Note_on_c, 14, 63, 0
15, 75648, Note_on_c, 14, 62, 88
15, 75738, Note_on_c, 14, 62, 0
15, 75744, Note_on_c, 14, 62, 88
15, 75834, Note_on_c, 14, 62, 0
15, 75840, Note_on_c, 14, 61, 88
15, 75930, Note_on_c, 14, 61, 0
15, 75936, Note_on_c, 14, 61, 88
15, 76026, Note_on_c, 14, 61, 0
15, 76032, Note_on_c, 14, 62, 89
15, 76166, Note_on_c, 14, 62, 0
15, 76416, Note_on_c, 14, 59, 89
15, 76546, Note_on_c, 14, 59, 0
15, 76608, Note_on_c, 14, 55, 90
15, 76738, Note_on_c, 14, 55, 0
15, 76800, Note_on_c, 14, 50, 90
15, 76978, Note_on_c, 14, 50, 0
15, 79104, Note_on_c, 14, 50, 47
15, 79842, Note_on_c, 14, 50, 0
15, 79872, Note_on_c, 14, 55, 82
15, 79962, Note_on_c, 14, 55, 0
15, 79968, Note_on_c, 14, 55, 82
15, 80058, Note_on_c, 14, 55, 0
15, 80064, Note_on_c, 14, 55, 82
15, 80154, Note_on_c, 14, 55, 0
15, 80160, Note_on_c, 14, 55, 82
15, 80250, Note_on_c, 14, 55, 0
15, 80256, Note_on_c, 14, 55, 82
15, 80346, Note_on_c, 14, 55, 0
15, 80352, Note_on_c, 14, 55, 82
15, 80442, Note_on_c, 14, 55, 0
15, 80448, Note_on_c, 14, 55, 82
15, 80538, Note_on_c, 14, 55, 0
15, 80544, Note_on_c, 14, 55, 82
15, 80634, Note_on_c, 14, 55, 0
15, 80640, Note_on_c, 14, 55, 82
15, 80730, Note_on_c, 14, 55, 0
15, 80736, Note_on_c, 14, 55, 82
15, 80826, Note_on_c, 14, 55, 0
15, 80832, Note_on_c, 14, 55, 82
15, 80922, Note_on_c, 14, 55, 0
15, 80928, Note_on_c, 14, 55, 82
15, 81018, Note_on_c, 14, 55, 0
15, 81024, Note_on_c, 14, 55, 82
15, 81114, Note_on_c, 14, 55, 0
15, 81120, Note_on_c, 14, 55, 82
15, 81210, Note_on_c, 14, 55, 0
15, 81216, Note_on_c, 14, 55, 82
15, 81306, Note_on_c, 14, 55, 0
15, 81312, Note_on_c, 14, 55, 82
15, 81402, Note_on_c, 14, 55, 0
15, 81408, Note_on_c, 14, 55, 82
15, 81498, Note_on_c, 14, 55, 0
15, 81504, Note_on_c, 14, 55, 82
15, 81594, Note_on_c, 14, 55, 0
15, 81600, Note_on_c, 14, 55, 82
15, 81690, Note_on_c, 14, 55, 0
15, 81696, Note_on_c, 14, 55, 82
15, 81786, Note_on_c, 14, 55, 0
15, 81792, Note_on_c, 14, 55, 82
15, 81882, Note_on_c, 14, 55, 0
15, 81888, Note_on_c, 14, 55, 82
15, 81978, Note_on_c, 14, 55, 0
15, 81984, Note_on_c, 14, 55, 82
15, 82074, Note_on_c, 14, 55, 0
15, 82080, Note_on_c, 14, 55, 82
15, 82170, Note_on_c, 14, 55, 0
15, 82176, Note_on_c, 14, 55, 82
15, 82266, Note_on_c, 14, 55, 0
15, 82272, Note_on_c, 14, 55, 82
15, 82362, Note_on_c, 14, 55, 0
15, 82368, Note_on_c, 14, 55, 82
15, 82458, Note_on_c, 14, 55, 0
15, 82464, Note_on_c, 14, 55, 82
15, 82554, Note_on_c, 14, 55, 0
15, 82560, Note_on_c, 14, 55, 82
15, 82650, Note_on_c, 14, 55, 0
15, 82656, Note_on_c, 14, 55, 82
15, 82746, Note_on_c, 14, 55, 0
15, 82752, Note_on_c, 14, 55, 82
15, 82842, Note_on_c, 14, 55, 0
15, 82848, Note_on_c, 14, 55, 82
15, 82938, Note_on_c, 14, 55, 0
15, 83520, Note_on_c, 14, 50, 82
15, 83652, Note_on_c, 14, 50, 0
15, 83712, Note_on_c, 14, 55, 82
15, 83886, Note_on_c, 14, 55, 0
15, 84288, Note_on_c, 14, 50, 82
15, 84420, Note_on_c, 14, 50, 0
15, 84480, Note_on_c, 14, 55, 82
15, 84654, Note_on_c, 14, 55, 0
15, 85056, Note_on_c, 14, 50, 82
15, 85188, Note_on_c, 14, 50, 0
15, 85248, Note_on_c, 14, 55, 82
15, 85422, Note_on_c, 14, 55, 0
15, 85824, Note_on_c, 14, 50, 82
15, 85956, Note_on_c, 14, 50, 0
15, 86016, Note_on_c, 14, 55, 82
15, 86194, Note_on_c, 14, 55, 0
15, 87072, Note_on_c, 14, 59, 103
15, 87118, Note_on_c, 14, 59, 0
15, 87168, Note_on_c, 14, 62, 103
15, 87214, Note_on_c, 14, 62, 0
15, 87264, Note_on_c, 14, 55, 103
15, 87310, Note_on_c, 14, 55, 0
15, 87360, Note_on_c, 14, 59, 103
15, 87406, Note_on_c, 14, 59, 0
15, 87456, Note_on_c, 14, 50, 103
15, 87502, Note_on_c, 14, 50, 0
15, 87552, Note_on_c, 14, 53, 103
15, 87552, Control_c, 14, 11, 127
15, 87761, Control_c, 14, 11, 121
15, 87796, Control_c, 14, 11, 120
15, 87813, Control_c, 14, 11, 117
15, 87822, Control_c, 14, 11, 114
15, 87840, Control_c, 14, 11, 113
15, 87848, Control_c, 14, 11, 107
15, 87866, Control_c, 14, 11, 102
15, 87892, Control_c, 14, 11, 93
15, 87901, Control_c, 14, 11, 90
15, 87918, Control_c, 14, 11, 84
15, 87927, Control_c, 14, 11, 81
15, 87936, Note_on_c, 14, 53, 0
15, 87936, Note_on_c, 14, 50, 91
15, 87944, Control_c, 14, 11, 78
15, 87970, Control_c, 14, 11, 74
15, 87979, Control_c, 14, 11, 69
15, 87997, Control_c, 14, 11, 66
15, 88005, Control_c, 14, 11, 65
15, 88064, Note_on_c, 14, 50, 0
15, 88128, Note_on_c, 14, 47, 91
15, 88256, Note_on_c, 14, 47, 0
15, 88320, Note_on_c, 14, 44, 91
15, 88512, Note_on_c, 14, 44, 0
15, 88512, Note_on_c, 14, 43, 91
15, 88640, Note_on_c, 14, 43, 0
15, 88704, Note_on_c, 14, 44, 91
15, 88896, Note_on_c, 14, 44, 0
15, 88896, Note_on_c, 14, 43, 91
15, 89024, Note_on_c, 14, 43, 0
15, 89088, Note_on_c, 14, 53, 103
15, 89096, Control_c, 14, 11, 123
15, 89140, Control_c, 14, 11, 124
15, 89157, Control_c, 14, 11, 127
15, 89218, Control_c, 14, 11, 125
15, 89236, Control_c, 14, 11, 120
15, 89245, Control_c, 14, 11, 119
15, 89271, Control_c, 14, 11, 116
15, 89288, Control_c, 14, 11, 114
15, 89306, Control_c, 14, 11, 112
15, 89314, Control_c, 14, 11, 110
15, 89323, Control_c, 14, 11, 107
15, 89332, Control_c, 14, 11, 104
15, 89341, Control_c, 14, 11, 102
15, 89349, Control_c, 14, 11, 99
15, 89358, Control_c, 14, 11, 96
15, 89367, Control_c, 14, 11, 94
15, 89376, Control_c, 14, 11, 91
15, 89384, Control_c, 14, 11, 88
15, 89393, Control_c, 14, 11, 85
15, 89402, Control_c, 14, 11, 83
15, 89410, Control_c, 14, 11, 80
15, 89419, Control_c, 14, 11, 77
15, 89428, Control_c, 14, 11, 75
15, 89437, Control_c, 14, 11, 72
15, 89445, Control_c, 14, 11, 69
15, 89454, Control_c, 14, 11, 66
15, 89472, Note_on_c, 14, 53, 0
15, 89472, Note_on_c, 14, 50, 93
15, 89600, Note_on_c, 14, 50, 0
15, 89664, Note_on_c, 14, 47, 91
15, 89792, Note_on_c, 14, 47, 0
15, 89856, Note_on_c, 14, 44, 89
15, 90048, Note_on_c, 14, 44, 0
15, 90048, Note_on_c, 14, 43, 86
15, 90176, Note_on_c, 14, 43, 0
15, 90240, Note_on_c, 14, 44, 84
15, 90432, Note_on_c, 14, 44, 0
15, 90432, Note_on_c, 14, 43, 82
15, 90560, Note_on_c, 14, 43, 0
15, 90624, Note_on_c, 14, 55, 103
15, 90632, Control_c, 14, 11, 120
15, 90650, Control_c, 14, 11, 123
15, 90658, Control_c, 14, 11, 127
15, 90702, Control_c, 14, 11, 127
15, 90711, Control_c, 14, 11, 126
15, 90720, Control_c, 14, 11, 124
15, 90728, Control_c, 14, 11, 122
15, 90737, Control_c, 14, 11, 120
15, 90746, Control_c, 14, 11, 118
15, 90754, Control_c, 14, 11, 117
15, 90763, Control_c, 14, 11, 115
15, 90772, Control_c, 14, 11, 113
15, 90781, Control_c, 14, 11, 111
15, 90789, Control_c, 14, 11, 109
15, 90798, Control_c, 14, 11, 107
15, 90807, Control_c, 14, 11, 106
15, 90816, Control_c, 14, 11, 104
15, 90824, Control_c, 14, 11, 102
15, 90833, Control_c, 14, 11, 100
15, 90842, Control_c, 14, 11, 98
15, 90850, Control_c, 14, 11, 96
15, 90859, Control_c, 14, 11, 95
15, 90868, Control_c, 14, 11, 93
15, 90877, Control_c, 14, 11, 91
15, 90885, Control_c, 14, 11, 89
15, 90894, Control_c, 14, 11, 87
15, 90903, Control_c, 14, 11, 86
15, 90912, Control_c, 14, 11, 84
15, 90920, Control_c, 14, 11, 82
15, 90929, Control_c, 14, 11, 80
15, 90938, Control_c, 14, 11, 78
15, 90946, Control_c, 14, 11, 76
15, 90955, Control_c, 14, 11, 75
15, 90964, Control_c, 14, 11, 73
15, 90973, Control_c, 14, 11, 71
15, 90981, Control_c, 14, 11, 69
15, 90990, Control_c, 14, 11, 67
15, 90999, Control_c, 14, 11, 65
15, 91008, Note_on_c, 14, 55, 0
15, 91008, Note_on_c, 14, 51, 84
15, 91136, Note_on_c, 14, 51, 0
15, 91200, Note_on_c, 14, 48, 83
15, 91328, Note_on_c, 14, 48, 0
15, 91392, Note_on_c, 14, 44, 81
15, 91584, Note_on_c, 14, 44, 0
15, 91584, Note_on_c, 14, 43, 79
15, 91712, Note_on_c, 14, 43, 0
15, 91776, Note_on_c, 14, 44, 78
15, 91968, Note_on_c, 14, 44, 0
15, 91968, Note_on_c, 14, 43, 76
15, 92096, Note_on_c, 14, 43, 0
15, 92160, Note_on_c, 14, 55, 103
15, 92177, Control_c, 14, 11, 123
15, 92194, Control_c, 14, 11, 126
15, 92203, Control_c, 14, 11, 127
15, 92290, Control_c, 14, 11, 126
15, 92299, Control_c, 14, 11, 124
15, 92308, Control_c, 14, 11, 122
15, 92317, Control_c, 14, 11, 120
15, 92325, Control_c, 14, 11, 118
15, 92334, Control_c, 14, 11, 116
15, 92343, Control_c, 14, 11, 114
15, 92352, Control_c, 14, 11, 111
15, 92360, Control_c, 14, 11, 109
15, 92369, Control_c, 14, 11, 107
15, 92378, Control_c, 14, 11, 105
15, 92386, Control_c, 14, 11, 103
15, 92395, Control_c, 14, 11, 101
15, 92404, Control_c, 14, 11, 99
15, 92413, Control_c, 14, 11, 96
15, 92421, Control_c, 14, 11, 94
15, 92430, Control_c, 14, 11, 92
15, 92439, Control_c, 14, 11, 90
15, 92448, Control_c, 14, 11, 88
15, 92456, Control_c, 14, 11, 86
15, 92465, Control_c, 14, 11, 84
15, 92474, Control_c, 14, 11, 81
15, 92482, Control_c, 14, 11, 79
15, 92491, Control_c, 14, 11, 77
15, 92500, Control_c, 14, 11, 75
15, 92509, Control_c, 14, 11, 73
15, 92517, Control_c, 14, 11, 71
15, 92526, Control_c, 14, 11, 68
15, 92544, Note_on_c, 14, 55, 0
15, 92544, Note_on_c, 14, 51, 87
15, 92672, Note_on_c, 14, 51, 0
15, 92736, Note_on_c, 14, 48, 86
15, 92864, Note_on_c, 14, 48, 0
15, 92928, Note_on_c, 14, 44, 85
15, 93120, Note_on_c, 14, 44, 0
15, 93120, Note_on_c, 14, 43, 85
15, 93248, Note_on_c, 14, 43, 0
15, 93312, Note_on_c, 14, 44, 84
15, 93504, Note_on_c, 14, 44, 0
15, 93504, Note_on_c, 14, 43, 83
15, 93632, Note_on_c, 14, 43, 0
15, 93696, Note_on_c, 14, 55, 103
15, 93722, Control_c, 14, 11, 126
15, 93730, Control_c, 14, 11, 127
15, 93826, Control_c, 14, 11, 125
15, 93835, Control_c, 14, 11, 123
15, 93844, Control_c, 14, 11, 121
15, 93853, Control_c, 14, 11, 119
15, 93861, Control_c, 14, 11, 117
15, 93870, Control_c, 14, 11, 115
15, 93879, Control_c, 14, 11, 113
15, 93888, Control_c, 14, 11, 111
15, 93896, Control_c, 14, 11, 109
15, 93905, Control_c, 14, 11, 107
15, 93914, Control_c, 14, 11, 105
15, 93922, Control_c, 14, 11, 103
15, 93931, Control_c, 14, 11, 101
15, 93940, Control_c, 14, 11, 99
15, 93949, Control_c, 14, 11, 97
15, 93957, Control_c, 14, 11, 95
15, 93966, Control_c, 14, 11, 93
15, 93975, Control_c, 14, 11, 91
15, 93984, Control_c, 14, 11, 89
15, 93992, Control_c, 14, 11, 87
15, 94001, Control_c, 14, 11, 85
15, 94010, Control_c, 14, 11, 83
15, 94018, Control_c, 14, 11, 81
15, 94027, Control_c, 14, 11, 79
15, 94036, Control_c, 14, 11, 77
15, 94045, Control_c, 14, 11, 75
15, 94053, Control_c, 14, 11, 73
15, 94062, Control_c, 14, 11, 71
15, 94080, Note_on_c, 14, 55, 0
15, 94080, Note_on_c, 14, 51, 88
15, 94208, Note_on_c, 14, 51, 0
15, 94272, Note_on_c, 14, 46, 87
15, 94400, Note_on_c, 14, 46, 0
15, 94464, Note_on_c, 14, 44, 86
15, 94656, Note_on_c, 14, 44, 0
15, 94656, Note_on_c, 14, 43, 84
15, 94784, Note_on_c, 14, 43, 0
15, 94848, Note_on_c, 14, 44, 83
15, 95040, Note_on_c, 14, 44, 0
15, 95040, Note_on_c, 14, 43, 82
15, 95168, Note_on_c, 14, 43, 0
15, 95232, Control_c, 14, 11, 127
15, 95232, Note_on_c, 14, 55, 103
15, 95406, Control_c, 14, 11, 126
15, 95415, Control_c, 14, 11, 124
15, 95424, Control_c, 14, 11, 122
15, 95432, Control_c, 14, 11, 120
15, 95441, Control_c, 14, 11, 117
15, 95450, Control_c, 14, 11, 115
15, 95458, Control_c, 14, 11, 112
15, 95467, Control_c, 14, 11, 110
15, 95476, Control_c, 14, 11, 108
15, 95485, Control_c, 14, 11, 105
15, 95493, Control_c, 14, 11, 103
15, 95502, Control_c, 14, 11, 100
15, 95511, Control_c, 14, 11, 98
15, 95520, Control_c, 14, 11, 96
15, 95528, Control_c, 14, 11, 93
15, 95537, Control_c, 14, 11, 91
15, 95546, Control_c, 14, 11, 88
15, 95554, Control_c, 14, 11, 86
15, 95563, Control_c, 14, 11, 84
15, 95572, Control_c, 14, 11, 81
15, 95581, Control_c, 14, 11, 79
15, 95589, Control_c, 14, 11, 76
15, 95598, Control_c, 14, 11, 74
15, 95607, Control_c, 14, 11, 71
15, 95616, Note_on_c, 14, 55, 0
15, 95616, Control_c, 14, 11, 72
15, 95616, Note_on_c, 14, 51, 84
15, 95744, Note_on_c, 14, 51, 0
15, 95808, Note_on_c, 14, 46, 83
15, 95936, Note_on_c, 14, 46, 0
15, 96000, Note_on_c, 14, 44, 82
15, 96192, Note_on_c, 14, 44, 0
15, 96192, Note_on_c, 14, 43, 81
15, 96320, Note_on_c, 14, 43, 0
15, 96384, Note_on_c, 14, 44, 79
15, 96576, Note_on_c, 14, 44, 0
15, 96576, Note_on_c, 14, 43, 78
15, 96700, Note_on_c, 14, 43, 0
15, 96768, Note_on_c, 14, 44, 78
15, 96924, Note_on_c, 14, 44, 0
15, 97008, Program_c, 14, 45
15, 97032, Control_c, 14, 11, 96
15, 97158, Note_on_c, 14, 56, 47
15, 97162, Note_on_c, 14, 56, 47
15, 97336, Note_on_c, 14, 56, 0
15, 97340, Note_on_c, 14, 56, 0
15, 97542, Note_on_c, 14, 56, 47
15, 97546, Note_on_c, 14, 56, 47
15, 97720, Note_on_c, 14, 56, 0
15, 97724, Note_on_c, 14, 56, 0
15, 97926, Note_on_c, 14, 56, 47
15, 97930, Note_on_c, 14, 56, 47
15, 98104, Note_on_c, 14, 56, 0
15, 98108, Note_on_c, 14, 56, 0
15, 98310, Note_on_c, 14, 55, 47
15, 98314, Note_on_c, 14, 55, 47
15, 98488, Note_on_c, 14, 55, 0
15, 98492, Note_on_c, 14, 55, 0
15, 98694, Note_on_c, 14, 55, 47
15, 98698, Note_on_c, 14, 55, 47
15, 98872, Note_on_c, 14, 55, 0
15, 98876, Note_on_c, 14, 55, 0
15, 99078, Note_on_c, 14, 55, 47
15, 99082, Note_on_c, 14, 55, 47
15, 99256, Note_on_c, 14, 55, 0
15, 99260, Note_on_c, 14, 55, 0
15, 99462, Note_on_c, 14, 55, 47
15, 99466, Note_on_c, 14, 55, 47
15, 99640, Note_on_c, 14, 55, 0
15, 99644, Note_on_c, 14, 55, 0
15, 99846, Note_on_c, 14, 56, 47
15, 99850, Note_on_c, 14, 56, 47
15, 100024, Note_on_c, 14, 56, 0
15, 100028, Note_on_c, 14, 56, 0
15, 100230, Note_on_c, 14, 56, 47
15, 100234, Note_on_c, 14, 56, 47
15, 100408, Note_on_c, 14, 56, 0
15, 100412, Note_on_c, 14, 56, 0
15, 100614, Note_on_c, 14, 56, 47
15, 100618, Note_on_c, 14, 56, 47
15, 100792, Note_on_c, 14, 56, 0
15, 100796, Note_on_c, 14, 56, 0
15, 100998, Note_on_c, 14, 56, 47
15, 101002, Note_on_c, 14, 56, 47
15, 101176, Note_on_c, 14, 56, 0
15, 101180, Note_on_c, 14, 56, 0
15, 101382, Note_on_c, 14, 55, 47
15, 101386, Note_on_c, 14, 55, 47
15, 101560, Note_on_c, 14, 55, 0
15, 101564, Note_on_c, 14, 55, 0
15, 101766, Note_on_c, 14, 55, 47
15, 101770, Note_on_c, 14, 55, 47
15, 101944, Note_on_c, 14, 55, 0
15, 101948, Note_on_c, 14, 55, 0
15, 102150, Note_on_c, 14, 55, 47
15, 102154, Note_on_c, 14, 55, 47
15, 102328, Note_on_c, 14, 55, 0
15, 102332, Note_on_c, 14, 55, 0
15, 102534, Note_on_c, 14, 55, 47
15, 102538, Note_on_c, 14, 55, 47
15, 102712, Note_on_c, 14, 55, 0
15, 102716, Note_on_c, 14, 55, 0
15, 102918, Note_on_c, 14, 56, 48
15, 102922, Note_on_c, 14, 56, 48
15, 103096, Note_on_c, 14, 56, 0
15, 103100, Note_on_c, 14, 56, 0
15, 103686, Note_on_c, 14, 56, 45
15, 103690, Note_on_c, 14, 56, 45
15, 103864, Note_on_c, 14, 56, 0
15, 103868, Note_on_c, 14, 56, 0
15, 104070, Note_on_c, 14, 56, 46
15, 104074, Note_on_c, 14, 56, 46
15, 104248, Note_on_c, 14, 56, 0
15, 104252, Note_on_c, 14, 56, 0
15, 104454, Note_on_c, 14, 55, 46
15, 104458, Note_on_c, 14, 55, 46
15, 104632, Note_on_c, 14, 55, 0
15, 104636, Note_on_c, 14, 55, 0
15, 105222, Note_on_c, 14, 52, 48
15, 105226, Note_on_c, 14, 52, 48
15, 105400, Note_on_c, 14, 52, 0
15, 105404, Note_on_c, 14, 52, 0
15, 105606, Note_on_c, 14, 48, 48
15, 105610, Note_on_c, 14, 48, 48
15, 105784, Note_on_c, 14, 48, 0
15, 105788, Note_on_c, 14, 48, 0
15, 105990, Note_on_c, 14, 53, 48
15, 105994, Note_on_c, 14, 53, 48
15, 106168, Note_on_c, 14, 53, 0
15, 106172, Note_on_c, 14, 53, 0
15, 106758, Note_on_c, 14, 56, 48
15, 106762, Note_on_c, 14, 56, 48
15, 106936, Note_on_c, 14, 56, 0
15, 106940, Note_on_c, 14, 56, 0
15, 107142, Note_on_c, 14, 53, 48
15, 107146, Note_on_c, 14, 53, 48
15, 107320, Note_on_c, 14, 53, 0
15, 107324, Note_on_c, 14, 53, 0
15, 107526, Note_on_c, 14, 55, 48
15, 107530, Note_on_c, 14, 55, 48
15, 107704, Note_on_c, 14, 55, 0
15, 107708, Note_on_c, 14, 55, 0
15, 108294, Note_on_c, 14, 55, 48
15, 108298, Note_on_c, 14, 55, 48
15, 108472, Note_on_c, 14, 55, 0
15, 108476, Note_on_c, 14, 55, 0
15, 108678, Note_on_c, 14, 53, 48
15, 108682, Note_on_c, 14, 53, 48
15, 108856, Note_on_c, 14, 53, 0
15, 108860, Note_on_c, 14, 53, 0
15, 109062, Note_on_c, 14, 51, 48
15, 109066, Note_on_c, 14, 51, 48
15, 109240, Note_on_c, 14, 51, 0
15, 109244, Note_on_c, 14, 51, 0
15, 109830, Note_on_c, 14, 51, 48
15, 109834, Note_on_c, 14, 51, 48
15, 110008, Note_on_c, 14, 51, 0
15, 110012, Note_on_c, 14, 51, 0
15, 110214, Note_on_c, 14, 48, 48
15, 110218, Note_on_c, 14, 48, 48
15, 110392, Note_on_c, 14, 48, 0
15, 110396, Note_on_c, 14, 48, 0
15, 110598, Note_on_c, 14, 47, 48
15, 110602, Note_on_c, 14, 47, 48
15, 110776, Note_on_c, 14, 47, 0
15, 110780, Note_on_c, 14, 47, 0
15, 111366, Note_on_c, 14, 43, 48
15, 111370, Note_on_c, 14, 43, 48
15, 111544, Note_on_c, 14, 43, 0
15, 111548, Note_on_c, 14, 43, 0
15, 111750, Note_on_c, 14, 47, 48
15, 111754, Note_on_c, 14, 47, 48
15, 111928, Note_on_c, 14, 47, 0
15, 111932, Note_on_c, 14, 47, 0
15, 112134, Note_on_c, 14, 48, 48
15, 112138, Note_on_c, 14, 48, 48
15, 112312, Note_on_c, 14, 48, 0
15, 112316, Note_on_c, 14, 48, 0
15, 112518, Note_on_c, 14, 46, 48
15, 112522, Note_on_c, 14, 46, 48
15, 112696, Note_on_c, 14, 46, 0
15, 112700, Note_on_c, 14, 46, 0
15, 112902, Note_on_c, 14, 44, 48
15, 112906, Note_on_c, 14, 44, 48
15, 113080, Note_on_c, 14, 44, 0
15, 113084, Note_on_c, 14, 44, 0
15, 113286, Note_on_c, 14, 56, 48
15, 113290, Note_on_c, 14, 56, 48
15, 113458, Note_on_c, 14, 56, 0
15, 113462, Note_on_c, 14, 56, 0
15, 113670, Note_on_c, 14, 55, 48
15, 113674, Note_on_c, 14, 55, 48
15, 113836, Note_on_c, 14, 55, 0
15, 113840, Note_on_c, 14, 55, 0
15, 115968, Program_c, 14, 48
15, 116016, Control_c, 14, 11, 127
15, 116736, Note_on_c, 14, 55, 48
15, 116902, Note_on_c, 14, 55, 0
15, 117120, Note_on_c, 14, 55, 48
15, 117286, Note_on_c, 14, 55, 0
15, 117504, Note_on_c, 14, 55, 48
15, 117670, Note_on_c, 14, 55, 0
15, 118272, Note_on_c, 14, 55, 45
15, 118438, Note_on_c, 14, 55, 0
15, 118656, Note_on_c, 14, 55, 45
15, 118822, Note_on_c, 14, 55, 0
15, 119040, Note_on_c, 14, 55, 45
15, 119206, Note_on_c, 14, 55, 0
15, 121344, Note_on_c, 14, 60, 116
15, 121752, Note_on_c, 14, 60, 0
15, 122064, Note_on_c, 14, 48, 116
15, 122090, Note_on_c, 14, 48, 0
15, 122112, Note_on_c, 14, 48, 116
15, 122640, Note_on_c, 14, 48, 0
15, 122832, Note_on_c, 14, 43, 116
15, 122848, Note_on_c, 14, 43, 0
15, 122848, Note_on_c, 14, 45, 116
15, 122864, Note_on_c, 14, 45, 0
15, 122864, Note_on_c, 14, 47, 116
15, 122880, Note_on_c, 14, 47, 0
15, 122880, Note_on_c, 14, 48, 116
15, 122966, Note_on_c, 14, 48, 0
15, 123072, Note_on_c, 14, 52, 116
15, 123158, Note_on_c, 14, 52, 0
15, 123264, Note_on_c, 14, 55, 116
15, 123350, Note_on_c, 14, 55, 0
15, 123456, Note_on_c, 14, 60, 116
15, 123542, Note_on_c, 14, 60, 0
15, 123628, Note_on_c, 14, 60, 116
15, 123648, Note_on_c, 14, 59, 116
15, 123660, Note_on_c, 14, 60, 0
15, 123672, Note_on_c, 14, 59, 0
15, 123672, Note_on_c, 14, 60, 116
15, 123696, Note_on_c, 14, 60, 0
15, 123696, Note_on_c, 14, 59, 116
15, 123754, Note_on_c, 14, 59, 0
15, 123796, Note_on_c, 14, 57, 116
15, 123826, Note_on_c, 14, 57, 0
15, 123840, Note_on_c, 14, 55, 116
15, 123964, Note_on_c, 14, 55, 0
15, 124368, Note_on_c, 14, 43, 120
15, 124384, Note_on_c, 14, 43, 0
15, 124384, Note_on_c, 14, 45, 120
15, 124400, Note_on_c, 14, 45, 0
15, 124400, Note_on_c, 14, 47, 120
15, 124416, Note_on_c, 14, 47, 0
15, 124416, Note_on_c, 14, 48, 121
15, 124506, Note_on_c, 14, 48, 0
15, 124608, Note_on_c, 14, 52, 122
15, 124698, Note_on_c, 14, 52, 0
15, 124800, Note_on_c, 14, 55, 122
15, 124890, Note_on_c, 14, 55, 0
15, 124992, Note_on_c, 14, 60, 122
15, 125082, Note_on_c, 14, 60, 0
15, 125152, Note_on_c, 14, 60, 122
15, 125184, Note_on_c, 14, 60, 0
15, 125184, Note_on_c, 14, 59, 122
15, 125208, Note_on_c, 14, 59, 0
15, 125208, Note_on_c, 14, 60, 122
15, 125232, Note_on_c, 14, 60, 0
15, 125232, Note_on_c, 14, 59, 122
15, 125292, Note_on_c, 14, 59, 0
15, 125328, Note_on_c, 14, 57, 122
15, 125362, Note_on_c, 14, 57, 0
15, 125376, Note_on_c, 14, 55, 122
15, 125524, Note_on_c, 14, 55, 0
15, 125904, Note_on_c, 14, 43, 122
15, 125928, Note_on_c, 14, 43, 0
15, 125928, Note_on_c, 14, 45, 122
15, 125952, Note_on_c, 14, 45, 0
15, 125952, Note_on_c, 14, 46, 122
15, 126042, Note_on_c, 14, 46, 0
15, 126144, Note_on_c, 14, 52, 122
15, 126234, Note_on_c, 14, 52, 0
15, 126336, Note_on_c, 14, 55, 122
15, 126426, Note_on_c, 14, 55, 0
15, 126528, Note_on_c, 14, 58, 122
15, 126618, Note_on_c, 14, 58, 0
15, 126688, Note_on_c, 14, 58, 122
15, 126720, Note_on_c, 14, 58, 0
15, 126720, Note_on_c, 14, 57, 122
15, 126744, Note_on_c, 14, 57, 0
15, 126744, Note_on_c, 14, 58, 122
15, 126768, Note_on_c, 14, 58, 0
15, 126768, Note_on_c, 14, 57, 122
15, 126828, Note_on_c, 14, 57, 0
15, 126864, Note_on_c, 14, 55, 122
15, 126898, Note_on_c, 14, 55, 0
15, 126912, Note_on_c, 14, 53, 122
15, 127060, Note_on_c, 14, 53, 0
15, 127440, Note_on_c, 14, 41, 122
15, 127464, Note_on_c, 14, 41, 0
15, 127464, Note_on_c, 14, 43, 122
15, 127488, Note_on_c, 14, 43, 0
15, 127488, Note_on_c, 14, 44, 122
15, 127578, Note_on_c, 14, 44, 0
15, 127680, Note_on_c, 14, 48, 122
15, 127770, Note_on_c, 14, 48, 0
15, 127872, Note_on_c, 14, 53, 122
15, 127962, Note_on_c, 14, 53, 0
15, 128064, Note_on_c, 14, 56, 122
15, 128154, Note_on_c, 14, 56, 0
15, 128224, Note_on_c, 14, 56, 122
15, 128256, Note_on_c, 14, 56, 0
15, 128256, Note_on_c, 14, 55, 122
15, 128280, Note_on_c, 14, 55, 0
15, 128280, Note_on_c, 14, 56, 122
15, 128304, Note_on_c, 14, 56, 0
15, 128304, Note_on_c, 14, 55, 122
15, 128364, Note_on_c, 14, 55, 0
15, 128400, Note_on_c, 14, 53, 122
15, 128434, Note_on_c, 14, 53, 0
15, 128448, Note_on_c, 14, 51, 120
15, 128596, Note_on_c, 14, 51, 0
15, 128976, Note_on_c, 14, 48, 122
15, 129000, Note_on_c, 14, 48, 0
15, 129000, Note_on_c, 14, 50, 122
15, 129024, Note_on_c, 14, 50, 0
15, 129024, Note_on_c, 14, 51, 122
15, 129114, Note_on_c, 14, 51, 0
15, 129216, Note_on_c, 14, 55, 122
15, 129306, Note_on_c, 14, 55, 0
15, 129408, Note_on_c, 14, 60, 123
15, 129498, Note_on_c, 14, 60, 0
15, 129600, Note_on_c, 14, 63, 123
15, 129690, Note_on_c, 14, 63, 0
15, 129760, Note_on_c, 14, 55, 123
15, 129792, Note_on_c, 14, 55, 0
15, 129792, Note_on_c, 14, 54, 123
15, 129816, Note_on_c, 14, 54, 0
15, 129816, Note_on_c, 14, 55, 123
15, 129840, Note_on_c, 14, 55, 0
15, 129840, Note_on_c, 14, 54, 123
15, 129900, Note_on_c, 14, 54, 0
15, 129936, Note_on_c, 14, 55, 123
15, 129970, Note_on_c, 14, 55, 0
15, 129984, Note_on_c, 14, 57, 123
15, 130132, Note_on_c, 14, 57, 0
15, 130512, Note_on_c, 14, 50, 124
15, 130536, Note_on_c, 14, 50, 0
15, 130536, Note_on_c, 14, 52, 124
15, 130560, Note_on_c, 14, 52, 0
15, 130560, Note_on_c, 14, 54, 124
15, 130650, Note_on_c, 14, 54, 0
15, 130752, Note_on_c, 14, 57, 124
15, 130842, Note_on_c, 14, 57, 0
15, 130944, Note_on_c, 14, 60, 124
15, 131034, Note_on_c, 14, 60, 0
15, 131136, Note_on_c, 14, 54, 124
15, 131226, Note_on_c, 14, 54, 0
15, 131328, Note_on_c, 14, 55, 116
15, 131382, Note_on_c, 14, 55, 0
15, 131424, Note_on_c, 14, 59, 116
15, 131478, Note_on_c, 14, 59, 0
15, 131520, Note_on_c, 14, 54, 116
15, 131574, Note_on_c, 14, 54, 0
15, 131616, Note_on_c, 14, 50, 116
15, 131670, Note_on_c, 14, 50, 0
15, 131712, Note_on_c, 14, 55, 116
15, 131766, Note_on_c, 14, 55, 0
15, 131808, Note_on_c, 14, 59, 116
15, 131862, Note_on_c, 14, 59, 0
15, 131904, Note_on_c, 14, 54, 116
15, 131958, Note_on_c, 14, 54, 0
15, 132000, Note_on_c, 14, 50, 116
15, 132054, Note_on_c, 14, 50, 0
15, 132096, Note_on_c, 14, 55, 116
15, 132150, Note_on_c, 14, 55, 0
15, 132192, Note_on_c, 14, 59, 116
15, 132246, Note_on_c, 14, 59, 0
15, 132288, Note_on_c, 14, 54, 116
15, 132342, Note_on_c, 14, 54, 0
15, 132384, Note_on_c, 14, 50, 116
15, 132438, Note_on_c, 14, 50, 0
15, 132480, Note_on_c, 14, 55, 116
15, 132534, Note_on_c, 14, 55, 0
15, 132576, Note_on_c, 14, 59, 116
15, 132630, Note_on_c, 14, 59, 0
15, 132672, Note_on_c, 14, 54, 116
15, 132726, Note_on_c, 14, 54, 0
15, 132768, Note_on_c, 14, 50, 116
15, 132822, Note_on_c, 14, 50, 0
15, 132864, Note_on_c, 14, 55, 116
15, 133004, Note_on_c, 14, 55, 0
15, 133200, Note_on_c, 14, 55, 116
15, 133224, Note_on_c, 14, 55, 0
15, 133248, Note_on_c, 14, 55, 116
15, 133426, Note_on_c, 14, 55, 0
15, 133584, Note_on_c, 14, 43, 116
15, 133614, Note_on_c, 14, 43, 0
15, 133632, Note_on_c, 14, 43, 116
15, 133810, Note_on_c, 14, 43, 0
15, 134400, Note_on_c, 14, 43, 116
15, 134808, Note_on_c, 14, 43, 0
15, 134880, Note_on_c, 14, 45, 116
15, 134926, Note_on_c, 14, 45, 0
15, 134928, Note_on_c, 14, 47, 116
15, 134974, Note_on_c, 14, 47, 0
15, 134976, Note_on_c, 14, 48, 116
15, 135022, Note_on_c, 14, 48, 0
15, 135024, Note_on_c, 14, 50, 116
15, 135070, Note_on_c, 14, 50, 0
15, 135072, Note_on_c, 14, 52, 116
15, 135118, Note_on_c, 14, 52, 0
15, 135120, Note_on_c, 14, 54, 116
15, 135150, Note_on_c, 14, 54, 0
15, 135168, Note_on_c, 14, 55, 116
15, 135346, Note_on_c, 14, 55, 0
15, 136679, Control_c, 14, 11, 97
15, 136704, Note_on_c, 14, 48, 52
15, 136740, Control_c, 14, 11, 98
15, 136749, Control_c, 14, 11, 100
15, 136767, Control_c, 14, 11, 101
15, 136775, Control_c, 14, 11, 107
15, 136793, Control_c, 14, 11, 112
15, 136802, Control_c, 14, 11, 113
15, 136819, Control_c, 14, 11, 115
15, 136828, Control_c, 14, 11, 119
15, 136845, Control_c, 14, 11, 121
15, 136854, Control_c, 14, 11, 122
15, 136871, Control_c, 14, 11, 125
15, 136880, Control_c, 14, 11, 127
15, 138374, Note_on_c, 14, 48, 0
15, 138595, Control_c, 14, 11, 127
15, 138624, Note_on_c, 14, 45, 51
15, 138758, Note_on_c, 14, 45, 0
15, 139008, Note_on_c, 14, 50, 51
15, 139142, Note_on_c, 14, 50, 0
15, 139392, Note_on_c, 14, 43, 51
15, 139526, Note_on_c, 14, 43, 0
15, 139776, Note_on_c, 14, 48, 51
15, 139910, Note_on_c, 14, 48, 0
15, 140160, Note_on_c, 14, 45, 51
15, 140294, Note_on_c, 14, 45, 0
15, 140522, Control_c, 14, 11, 112
15, 140544, Note_on_c, 14, 41, 51
15, 140549, Control_c, 14, 11, 114
15, 140557, Control_c, 14, 11, 116
15, 140575, Control_c, 14, 11, 117
15, 140601, Control_c, 14, 11, 119
15, 140636, Control_c, 14, 11, 120
15, 140653, Control_c, 14, 11, 122
15, 140662, Control_c, 14, 11, 125
15, 140767, Control_c, 14, 11, 126
15, 140784, Control_c, 14, 11, 125
15, 140793, Control_c, 14, 11, 122
15, 140810, Control_c, 14, 11, 121
15, 140819, Control_c, 14, 11, 118
15, 140837, Control_c, 14, 11, 116
15, 140863, Control_c, 14, 11, 115
15, 140870, Note_on_c, 14, 41, 0
15, 140872, Control_c, 14, 11, 113
15, 140928, Note_on_c, 14, 43, 51
15, 140928, Control_c, 14, 11, 127
15, 141048, Note_on_c, 14, 43, 0
15, 141120, Note_on_c, 14, 43, 51
15, 141240, Note_on_c, 14, 43, 0
15, 141312, Note_on_c, 14, 48, 61
15, 141432, Note_on_c, 14, 48, 0
15, 141504, Note_on_c, 14, 60, 61
15, 141624, Note_on_c, 14, 60, 0
15, 142848, Note_on_c, 14, 48, 47
15, 144518, Note_on_c, 14, 48, 0
15, 144768, Note_on_c, 14, 57, 47
15, 144902, Note_on_c, 14, 57, 0
15, 145152, Note_on_c, 14, 50, 47
15, 145286, Note_on_c, 14, 50, 0
15, 145536, Note_on_c, 14, 55, 47
15, 145670, Note_on_c, 14, 55, 0
15, 145920, Note_on_c, 14, 48, 47
15, 146054, Note_on_c, 14, 48, 0
15, 146304, Note_on_c, 14, 57, 47
15, 146438, Note_on_c, 14, 57, 0
15, 146688, Note_on_c, 14, 53, 47
15, 146844, Note_on_c, 14, 53, 0
15, 147072, Note_on_c, 14, 55, 47
15, 147228, Note_on_c, 14, 55, 0
15, 147456, Note_on_c, 14, 57, 47
15, 147612, Note_on_c, 14, 57, 0
15, 148224, Note_on_c, 14, 55, 47
15, 148380, Note_on_c, 14, 55, 0
15, 148608, Note_on_c, 14, 57, 47
15, 148764, Note_on_c, 14, 57, 0
15, 148992, Note_on_c, 14, 52, 47
15, 149148, Note_on_c, 14, 52, 0
15, 150720, Note_on_c, 14, 64, 47
15, 150810, Note_on_c, 14, 64, 0
15, 150912, Note_on_c, 14, 64, 47
15, 151002, Note_on_c, 14, 64, 0
15, 151104, Note_on_c, 14, 64, 47
15, 151194, Note_on_c, 14, 64, 0
15, 151296, Note_on_c, 14, 64, 47
15, 151488, Note_on_c, 14, 64, 0
15, 151488, Note_on_c, 14, 65, 47
15, 151620, Note_on_c, 14, 65, 0
15, 152832, Note_on_c, 14, 55, 47
15, 153216, Note_on_c, 14, 55, 0
15, 153216, Note_on_c, 14, 43, 47
15, 153570, Note_on_c, 14, 43, 0
15, 153600, Note_on_c, 14, 48, 47
15, 153778, Note_on_c, 14, 48, 0
15, 153936, Note_on_c, 14, 64, 82
15, 153960, Note_on_c, 14, 64, 0
15, 153960, Note_on_c, 14, 65, 82
15, 153984, Note_on_c, 14, 65, 0
15, 153984, Note_on_c, 14, 67, 82
15, 154200, Note_on_c, 14, 67, 0
15, 154272, Note_on_c, 14, 67, 52
15, 154326, Note_on_c, 14, 67, 0
15, 154368, Note_on_c, 14, 65, 52
15, 154458, Note_on_c, 14, 65, 0
15, 154560, Note_on_c, 14, 64, 52
15, 154650, Note_on_c, 14, 64, 0
15, 154752, Note_on_c, 14, 62, 52
15, 154842, Note_on_c, 14, 62, 0
15, 154944, Note_on_c, 14, 65, 52
15, 155034, Note_on_c, 14, 65, 0
15, 155136, Note_on_c, 14, 64, 52
15, 155314, Note_on_c, 14, 64, 0
15, 155472, Note_on_c, 14, 52, 76
15, 155496, Note_on_c, 14, 52, 0
15, 155496, Note_on_c, 14, 53, 76
15, 155520, Note_on_c, 14, 53, 0
15, 155520, Note_on_c, 14, 55, 76
15, 155718, Note_on_c, 14, 55, 0
15, 155808, Note_on_c, 14, 55, 47
15, 155862, Note_on_c, 14, 55, 0
15, 155904, Note_on_c, 14, 53, 47
15, 155994, Note_on_c, 14, 53, 0
15, 156096, Note_on_c, 14, 52, 47
15, 156186, Note_on_c, 14, 52, 0
15, 156288, Note_on_c, 14, 50, 47
15, 156378, Note_on_c, 14, 50, 0
15, 156480, Note_on_c, 14, 53, 47
15, 156570, Note_on_c, 14, 53, 0
15, 156672, Note_on_c, 14, 52, 47
15, 156850, Note_on_c, 14, 52, 0
15, 157008, Note_on_c, 14, 60, 82
15, 157032, Note_on_c, 14, 60, 0
15, 157032, Note_on_c, 14, 62, 82
15, 157056, Note_on_c, 14, 62, 0
15, 157056, Note_on_c, 14, 64, 82
15, 157272, Note_on_c, 14, 64, 0
15, 157344, Note_on_c, 14, 64, 52
15, 157398, Note_on_c, 14, 64, 0
15, 157440, Note_on_c, 14, 62, 52
15, 157530, Note_on_c, 14, 62, 0
15, 157632, Note_on_c, 14, 60, 52
15, 157722, Note_on_c, 14, 60, 0
15, 157824, Note_on_c, 14, 59, 52
15, 157914, Note_on_c, 14, 59, 0
15, 158016, Note_on_c, 14, 62, 52
15, 158106, Note_on_c, 14, 62, 0
15, 158208, Note_on_c, 14, 60, 52
15, 158386, Note_on_c, 14, 60, 0
15, 158544, Note_on_c, 14, 52, 61
15, 158568, Note_on_c, 14, 52, 0
15, 158568, Note_on_c, 14, 53, 61
15, 158592, Note_on_c, 14, 53, 0
15, 158592, Note_on_c, 14, 55, 61
15, 158790, Note_on_c, 14, 55, 0
15, 158880, Note_on_c, 14, 55, 47
15, 158934, Note_on_c, 14, 55, 0
15, 158976, Note_on_c, 14, 53, 47
15, 159066, Note_on_c, 14, 53, 0
15, 159168, Note_on_c, 14, 52, 47
15, 159258, Note_on_c, 14, 52, 0
15, 159360, Note_on_c, 14, 50, 47
15, 159450, Note_on_c, 14, 50, 0
15, 159552, Note_on_c, 14, 53, 47
15, 159642, Note_on_c, 14, 53, 0
15, 159744, Note_on_c, 14, 64, 47
15, 159922, Note_on_c, 14, 64, 0
15, 160608, Note_on_c, 14, 52, 127
15, 160632, Note_on_c, 14, 52, 0
15, 160704, Note_on_c, 14, 64, 127
15, 160728, Note_on_c, 14, 64, 0
15, 160800, Note_on_c, 14, 64, 127
15, 160824, Note_on_c, 14, 64, 0
15, 160896, Note_on_c, 14, 64, 127
15, 160920, Note_on_c, 14, 64, 0
15, 160992, Note_on_c, 14, 64, 127
15, 161016, Note_on_c, 14, 64, 0
15, 161088, Note_on_c, 14, 64, 127
15, 161112, Note_on_c, 14, 64, 0
15, 161184, Note_on_c, 14, 64, 127
15, 161208, Note_on_c, 14, 64, 0
15, 161280, Note_on_c, 14, 65, 127
15, 161326, Note_on_c, 14, 65, 0
15, 161376, Note_on_c, 14, 65, 121
15, 161422, Note_on_c, 14, 65, 0
15, 161472, Note_on_c, 14, 64, 116
15, 161518, Note_on_c, 14, 64, 0
15, 161568, Note_on_c, 14, 64, 116
15, 161614, Note_on_c, 14, 64, 0
15, 161664, Note_on_c, 14, 65, 116
15, 161710, Note_on_c, 14, 65, 0
15, 161760, Note_on_c, 14, 65, 116
15, 161806, Note_on_c, 14, 65, 0
15, 161856, Note_on_c, 14, 61, 116
15, 161902, Note_on_c, 14, 61, 0
15, 161952, Note_on_c, 14, 61, 116
15, 161998, Note_on_c, 14, 61, 0
15, 162048, Note_on_c, 14, 62, 116
15, 162094, Note_on_c, 14, 62, 0
15, 162144, Note_on_c, 14, 62, 116
15, 162190, Note_on_c, 14, 62, 0
15, 162240, Note_on_c, 14, 65, 116
15, 162286, Note_on_c, 14, 65, 0
15, 162336, Note_on_c, 14, 65, 116
15, 162382, Note_on_c, 14, 65, 0
15, 162432, Note_on_c, 14, 64, 116
15, 162478, Note_on_c, 14, 64, 0
15, 162528, Note_on_c, 14, 64, 116
15, 162574, Note_on_c, 14, 64, 0
15, 162624, Note_on_c, 14, 59, 116
15, 162670, Note_on_c, 14, 59, 0
15, 162720, Note_on_c, 14, 59, 116
15, 162766, Note_on_c, 14, 59, 0
15, 162816, Note_on_c, 14, 60, 116
15, 162862, Note_on_c, 14, 60, 0
15, 162912, Note_on_c, 14, 60, 116
15, 162958, Note_on_c, 14, 60, 0
15, 163008, Note_on_c, 14, 62, 116
15, 163054, Note_on_c, 14, 62, 0
15, 163104, Note_on_c, 14, 62, 116
15, 163150, Note_on_c, 14, 62, 0
15, 163200, Note_on_c, 14, 60, 116
15, 163246, Note_on_c, 14, 60, 0
15, 163296, Note_on_c, 14, 60, 116
15, 163342, Note_on_c, 14, 60, 0
15, 163392, Note_on_c, 14, 56, 116
15, 163438, Note_on_c, 14, 56, 0
15, 163488, Note_on_c, 14, 56, 116
15, 163534, Note_on_c, 14, 56, 0
15, 163584, Note_on_c, 14, 57, 116
15, 163638, Note_on_c, 14, 57, 0
15, 163680, Note_on_c, 14, 57, 116
15, 163734, Note_on_c, 14, 57, 0
15, 163776, Note_on_c, 14, 57, 116
15, 163830, Note_on_c, 14, 57, 0
15, 163872, Note_on_c, 14, 57, 116
15, 163926, Note_on_c, 14, 57, 0
15, 163968, Note_on_c, 14, 53, 111
15, 164022, Note_on_c, 14, 53, 0
15, 164064, Note_on_c, 14, 53, 111
15, 164118, Note_on_c, 14, 53, 0
15, 164160, Note_on_c, 14, 53, 111
15, 164214, Note_on_c, 14, 53, 0
15, 164256, Note_on_c, 14, 53, 111
15, 164310, Note_on_c, 14, 53, 0
15, 164352, Note_on_c, 14, 55, 111
15, 164406, Note_on_c, 14, 55, 0
15, 164448, Note_on_c, 14, 55, 111
15, 164502, Note_on_c, 14, 55, 0
15, 164544, Note_on_c, 14, 55, 111
15, 164598, Note_on_c, 14, 55, 0
15, 164640, Note_on_c, 14, 55, 111
15, 164694, Note_on_c, 14, 55, 0
15, 164736, Note_on_c, 14, 55, 111
15, 164790, Note_on_c, 14, 55, 0
15, 164832, Note_on_c, 14, 55, 111
15, 164886, Note_on_c, 14, 55, 0
15, 164928, Note_on_c, 14, 55, 111
15, 164982, Note_on_c, 14, 55, 0
15, 165024, Note_on_c, 14, 55, 111
15, 165078, Note_on_c, 14, 55, 0
15, 165120, Note_on_c, 14, 55, 111
15, 165174, Note_on_c, 14, 55, 0
15, 165216, Note_on_c, 14, 55, 111
15, 165270, Note_on_c, 14, 55, 0
15, 165312, Note_on_c, 14, 55, 111
15, 165366, Note_on_c, 14, 55, 0
15, 165408, Note_on_c, 14, 55, 111
15, 165462, Note_on_c, 14, 55, 0
15, 165504, Note_on_c, 14, 55, 111
15, 165558, Note_on_c, 14, 55, 0
15, 165600, Note_on_c, 14, 55, 111
15, 165654, Note_on_c, 14, 55, 0
15, 165696, Note_on_c, 14, 55, 111
15, 165750, Note_on_c, 14, 55, 0
15, 165792, Note_on_c, 14, 55, 111
15, 165846, Note_on_c, 14, 55, 0
15, 165888, Note_on_c, 14, 48, 111
15, 166066, Note_on_c, 14, 48, 0
15, 166752, Note_on_c, 14, 52, 127
15, 166776, Note_on_c, 14, 52, 0
15, 166848, Note_on_c, 14, 64, 127
15, 166872, Note_on_c, 14, 64, 0
15, 166944, Note_on_c, 14, 64, 127
15, 166968, Note_on_c, 14, 64, 0
15, 167040, Note_on_c, 14, 64, 127
15, 167064, Note_on_c, 14, 64, 0
15, 167136, Note_on_c, 14, 64, 127
15, 167160, Note_on_c, 14, 64, 0
15, 167232, Note_on_c, 14, 64, 127
15, 167256, Note_on_c, 14, 64, 0
15, 167328, Note_on_c, 14, 64, 127
15, 167352, Note_on_c, 14, 64, 0
15, 167424, Note_on_c, 14, 65, 127
15, 167470, Note_on_c, 14, 65, 0
15, 167520, Note_on_c, 14, 65, 121
15, 167566, Note_on_c, 14, 65, 0
15, 167616, Note_on_c, 14, 64, 116
15, 167662, Note_on_c, 14, 64, 0
15, 167712, Note_on_c, 14, 64, 116
15, 167758, Note_on_c, 14, 64, 0
15, 167808, Note_on_c, 14, 65, 116
15, 167854, Note_on_c, 14, 65, 0
15, 167904, Note_on_c, 14, 65, 116
15, 167950, Note_on_c, 14, 65, 0
15, 168000, Note_on_c, 14, 61, 116
15, 168046, Note_on_c, 14, 61, 0
15, 168096, Note_on_c, 14, 61, 116
15, 168142, Note_on_c, 14, 61, 0
15, 168192, Note_on_c, 14, 62, 116
15, 168238, Note_on_c, 14, 62, 0
15, 168288, Note_on_c, 14, 62, 116
15, 168334, Note_on_c, 14, 62, 0
15, 168384, Note_on_c, 14, 65, 116
15, 168430, Note_on_c, 14, 65, 0
15, 168480, Note_on_c, 14, 65, 116
15, 168526, Note_on_c, 14, 65, 0
15, 168576, Note_on_c, 14, 64, 116
15, 168622, Note_on_c, 14, 64, 0
15, 168672, Note_on_c, 14, 64, 116
15, 168718, Note_on_c, 14, 64, 0
15, 168768, Note_on_c, 14, 59, 116
15, 168814, Note_on_c, 14, 59, 0
15, 168864, Note_on_c, 14, 59, 116
15, 168910, Note_on_c, 14, 59, 0
15, 168960, Note_on_c, 14, 60, 116
15, 169006, Note_on_c, 14, 60, 0
15, 169056, Note_on_c, 14, 60, 116
15, 169102, Note_on_c, 14, 60, 0
15, 169152, Note_on_c, 14, 62, 116
15, 169198, Note_on_c, 14, 62, 0
15, 169248, Note_on_c, 14, 62, 116
15, 169294, Note_on_c, 14, 62, 0
15, 169344, Note_on_c, 14, 60, 116
15, 169390, Note_on_c, 14, 60, 0
15, 169440, Note_on_c, 14, 60, 116
15, 169486, Note_on_c, 14, 60, 0
15, 169536, Note_on_c, 14, 56, 116
15, 169582, Note_on_c, 14, 56, 0
15, 169632, Note_on_c, 14, 56, 116
15, 169678, Note_on_c, 14, 56, 0
15, 169728, Note_on_c, 14, 57, 115
15, 169788, Note_on_c, 14, 57, 0
15, 169824, Note_on_c, 14, 57, 115
15, 169884, Note_on_c, 14, 57, 0
15, 169920, Note_on_c, 14, 57, 115
15, 169980, Note_on_c, 14, 57, 0
15, 170016, Note_on_c, 14, 57, 115
15, 170076, Note_on_c, 14, 57, 0
15, 170112, Note_on_c, 14, 57, 115
15, 170172, Note_on_c, 14, 57, 0
15, 170208, Note_on_c, 14, 57, 115
15, 170268, Note_on_c, 14, 57, 0
15, 170304, Note_on_c, 14, 57, 115
15, 170364, Note_on_c, 14, 57, 0
15, 170400, Note_on_c, 14, 57, 115
15, 170460, Note_on_c, 14, 57, 0
15, 170496, Note_on_c, 14, 58, 115
15, 170556, Note_on_c, 14, 58, 0
15, 170592, Note_on_c, 14, 58, 115
15, 170652, Note_on_c, 14, 58, 0
15, 170688, Note_on_c, 14, 58, 115
15, 170748, Note_on_c, 14, 58, 0
15, 170784, Note_on_c, 14, 58, 115
15, 170844, Note_on_c, 14, 58, 0
15, 170880, Note_on_c, 14, 58, 115
15, 170940, Note_on_c, 14, 58, 0
15, 170976, Note_on_c, 14, 58, 115
15, 171036, Note_on_c, 14, 58, 0
15, 171072, Note_on_c, 14, 58, 115
15, 171132, Note_on_c, 14, 58, 0
15, 171168, Note_on_c, 14, 58, 115
15, 171228, Note_on_c, 14, 58, 0
15, 171264, Note_on_c, 14, 56, 115
15, 171324, Note_on_c, 14, 56, 0
15, 171360, Note_on_c, 14, 56, 115
15, 171420, Note_on_c, 14, 56, 0
15, 171456, Note_on_c, 14, 56, 115
15, 171516, Note_on_c, 14, 56, 0
15, 171552, Note_on_c, 14, 56, 114
15, 171612, Note_on_c, 14, 56, 0
15, 171648, Note_on_c, 14, 56, 111
15, 171708, Note_on_c, 14, 56, 0
15, 171744, Note_on_c, 14, 56, 111
15, 171804, Note_on_c, 14, 56, 0
15, 171840, Note_on_c, 14, 56, 111
15, 171900, Note_on_c, 14, 56, 0
15, 171936, Note_on_c, 14, 56, 111
15, 171996, Note_on_c, 14, 56, 0
15, 172032, Note_on_c, 14, 54, 111
15, 172092, Note_on_c, 14, 54, 0
15, 172128, Note_on_c, 14, 54, 111
15, 172188, Note_on_c, 14, 54, 0
15, 172224, Note_on_c, 14, 54, 111
15, 172284, Note_on_c, 14, 54, 0
15, 172320, Note_on_c, 14, 54, 111
15, 172380, Note_on_c, 14, 54, 0
15, 172416, Note_on_c, 14, 54, 111
15, 172476, Note_on_c, 14, 54, 0
15, 172512, Note_on_c, 14, 54, 111
15, 172572, Note_on_c, 14, 54, 0
15, 172608, Note_on_c, 14, 54, 111
15, 172668, Note_on_c, 14, 54, 0
15, 172704, Note_on_c, 14, 54, 111
15, 172764, Note_on_c, 14, 54, 0
15, 172800, Note_on_c, 14, 55, 111
15, 172860, Note_on_c, 14, 55, 0
15, 172896, Note_on_c, 14, 55, 111
15, 172956, Note_on_c, 14, 55, 0
15, 172992, Note_on_c, 14, 56, 111
15, 173052, Note_on_c, 14, 56, 0
15, 173088, Note_on_c, 14, 56, 111
15, 173148, Note_on_c, 14, 56, 0
15, 173184, Note_on_c, 14, 55, 111
15, 173244, Note_on_c, 14, 55, 0
15, 173280, Note_on_c, 14, 55, 111
15, 173340, Note_on_c, 14, 55, 0
15, 173376, Note_on_c, 14, 54, 111
15, 173436, Note_on_c, 14, 54, 0
15, 173472, Note_on_c, 14, 54, 111
15, 173532, Note_on_c, 14, 54, 0
15, 173568, Note_on_c, 14, 55, 111
15, 173628, Note_on_c, 14, 55, 0
15, 173664, Note_on_c, 14, 55, 111
15, 173724, Note_on_c, 14, 55, 0
15, 173760, Note_on_c, 14, 56, 111
15, 173820, Note_on_c, 14, 56, 0
15, 173856, Note_on_c, 14, 56, 111
15, 173916, Note_on_c, 14, 56, 0
15, 173952, Note_on_c, 14, 55, 111
15, 174012, Note_on_c, 14, 55, 0
15, 174048, Note_on_c, 14, 55, 111
15, 174108, Note_on_c, 14, 55, 0
15, 174144, Note_on_c, 14, 54, 111
15, 174204, Note_on_c, 14, 54, 0
15, 174240, Note_on_c, 14, 54, 103
15, 174300, Note_on_c, 14, 54, 0
15, 174336, Note_on_c, 14, 55, 103
15, 174396, Note_on_c, 14, 55, 0
15, 174432, Note_on_c, 14, 55, 103
15, 174492, Note_on_c, 14, 55, 0
15, 174528, Note_on_c, 14, 56, 103
15, 174588, Note_on_c, 14, 56, 0
15, 174624, Note_on_c, 14, 56, 103
15, 174684, Note_on_c, 14, 56, 0
15, 174720, Note_on_c, 14, 55, 103
15, 174780, Note_on_c, 14, 55, 0
15, 174816, Note_on_c, 14, 55, 103
15, 174876, Note_on_c, 14, 55, 0
15, 174912, Note_on_c, 14, 54, 103
15, 174972, Note_on_c, 14, 54, 0
15, 175008, Note_on_c, 14, 54, 103
15, 175068, Note_on_c, 14, 54, 0
15, 175104, Note_on_c, 14, 55, 103
15, 175234, Note_on_c, 14, 55, 0
15, 175296, Note_on_c, 14, 55, 103
15, 175426, Note_on_c, 14, 55, 0
15, 175488, Note_on_c, 14, 52, 103
15, 175618, Note_on_c, 14, 52, 0
15, 175680, Note_on_c, 14, 48, 103
15, 175810, Note_on_c, 14, 48, 0
15, 175872, Note_on_c, 14, 43, 103
15, 176006, Note_on_c, 14, 43, 0
15, 178176, Note_on_c, 14, 55, 47
15, 178926, Note_on_c, 14, 55, 0
15, 178944, Note_on_c, 14, 48, 103
15, 179022, Note_on_c, 14, 48, 0
15, 179040, Note_on_c, 14, 48, 103
15, 179118, Note_on_c, 14, 48, 0
15, 179136, Note_on_c, 14, 48, 103
15, 179214, Note_on_c, 14, 48, 0
15, 179232, Note_on_c, 14, 48, 103
15, 179310, Note_on_c, 14, 48, 0
15, 179328, Note_on_c, 14, 48, 103
15, 179406, Note_on_c, 14, 48, 0
15, 179424, Note_on_c, 14, 48, 103
15, 179502, Note_on_c, 14, 48, 0
15, 179520, Note_on_c, 14, 48, 103
15, 179598, Note_on_c, 14, 48, 0
15, 179616, Note_on_c, 14, 48, 103
15, 179694, Note_on_c, 14, 48, 0
15, 179712, Note_on_c, 14, 48, 103
15, 179790, Note_on_c, 14, 48, 0
15, 179808, Note_on_c, 14, 48, 103
15, 179886, Note_on_c, 14, 48, 0
15, 179904, Note_on_c, 14, 48, 103
15, 179982, Note_on_c, 14, 48, 0
15, 180000, Note_on_c, 14, 48, 103
15, 180078, Note_on_c, 14, 48, 0
15, 180096, Note_on_c, 14, 48, 103
15, 180174, Note_on_c, 14, 48, 0
15, 180192, Note_on_c, 14, 48, 103
15, 180270, Note_on_c, 14, 48, 0
15, 180288, Note_on_c, 14, 48, 103
15, 180366, Note_on_c, 14, 48, 0
15, 180384, Note_on_c, 14, 48, 103
15, 180462, Note_on_c, 14, 48, 0
15, 180480, Note_on_c, 14, 48, 103
15, 180558, Note_on_c, 14, 48, 0
15, 180576, Note_on_c, 14, 48, 103
15, 180654, Note_on_c, 14, 48, 0
15, 180672, Note_on_c, 14, 48, 103
15, 180750, Note_on_c, 14, 48, 0
15, 180768, Note_on_c, 14, 48, 103
15, 180846, Note_on_c, 14, 48, 0
15, 180864, Note_on_c, 14, 48, 103
15, 180942, Note_on_c, 14, 48, 0
15, 180960, Note_on_c, 14, 48, 103
15, 181038, Note_on_c, 14, 48, 0
15, 181056, Note_on_c, 14, 48, 103
15, 181134, Note_on_c, 14, 48, 0
15, 181152, Note_on_c, 14, 48, 103
15, 181230, Note_on_c, 14, 48, 0
15, 181248, Note_on_c, 14, 48, 103
15, 181326, Note_on_c, 14, 48, 0
15, 181344, Note_on_c, 14, 48, 103
15, 181422, Note_on_c, 14, 48, 0
15, 181440, Note_on_c, 14, 48, 103
15, 181518, Note_on_c, 14, 48, 0
15, 181536, Note_on_c, 14, 48, 103
15, 181614, Note_on_c, 14, 48, 0
15, 181632, Note_on_c, 14, 48, 103
15, 181710, Note_on_c, 14, 48, 0
15, 181728, Note_on_c, 14, 48, 103
15, 181806, Note_on_c, 14, 48, 0
15, 181824, Note_on_c, 14, 48, 103
15, 181902, Note_on_c, 14, 48, 0
15, 181920, Note_on_c, 14, 48, 103
15, 181998, Note_on_c, 14, 48, 0
15, 182016, Note_on_c, 14, 60, 116
15, 182424, Note_on_c, 14, 60, 0
15, 182736, Note_on_c, 14, 48, 116
15, 182762, Note_on_c, 14, 48, 0
15, 182784, Note_on_c, 14, 48, 116
15, 183312, Note_on_c, 14, 48, 0
15, 183504, Note_on_c, 14, 43, 116
15, 183520, Note_on_c, 14, 43, 0
15, 183520, Note_on_c, 14, 45, 116
15, 183536, Note_on_c, 14, 45, 0
15, 183536, Note_on_c, 14, 47, 116
15, 183552, Note_on_c, 14, 47, 0
15, 183552, Note_on_c, 14, 48, 116
15, 183638, Note_on_c, 14, 48, 0
15, 183744, Note_on_c, 14, 52, 116
15, 183830, Note_on_c, 14, 52, 0
15, 183936, Note_on_c, 14, 55, 116
15, 184022, Note_on_c, 14, 55, 0
15, 184128, Note_on_c, 14, 60, 116
15, 184214, Note_on_c, 14, 60, 0
15, 184300, Note_on_c, 14, 60, 116
15, 184320, Note_on_c, 14, 59, 116
15, 184332, Note_on_c, 14, 60, 0
15, 184344, Note_on_c, 14, 59, 0
15, 184344, Note_on_c, 14, 60, 116
15, 184368, Note_on_c, 14, 60, 0
15, 184368, Note_on_c, 14, 59, 116
15, 184426, Note_on_c, 14, 59, 0
15, 184468, Note_on_c, 14, 57, 116
15, 184498, Note_on_c, 14, 57, 0
15, 184512, Note_on_c, 14, 55, 116
15, 184636, Note_on_c, 14, 55, 0
15, 184896, Note_on_c, 14, 60, 44
15, 184998, Note_on_c, 14, 60, 0
15, 185056, Note_on_c, 14, 60, 46
15, 185088, Note_on_c, 14, 60, 0
15, 185088, Note_on_c, 14, 59, 46
15, 185112, Note_on_c, 14, 59, 0
15, 185112, Note_on_c, 14, 60, 46
15, 185136, Note_on_c, 14, 60, 0
15, 185136, Note_on_c, 14, 59, 46
15, 185196, Note_on_c, 14, 59, 0
15, 185234, Note_on_c, 14, 57, 46
15, 185266, Note_on_c, 14, 57, 0
15, 185280, Note_on_c, 14, 55, 46
15, 185348, Note_on_c, 14, 55, 0
15, 185376, Note_on_c, 14, 60, 47
15, 185422, Note_on_c, 14, 60, 0
15, 185440, Note_on_c, 14, 60, 47
15, 185472, Note_on_c, 14, 60, 0
15, 185472, Note_on_c, 14, 59, 47
15, 185496, Note_on_c, 14, 59, 0
15, 185496, Note_on_c, 14, 60, 47
15, 185520, Note_on_c, 14, 60, 0
15, 185520, Note_on_c, 14, 59, 47
15, 185572, Note_on_c, 14, 59, 0
15, 185618, Note_on_c, 14, 57, 47
15, 185650, Note_on_c, 14, 57, 0
15, 185664, Note_on_c, 14, 55, 47
15, 185732, Note_on_c, 14, 55, 0
15, 185760, Note_on_c, 14, 60, 48
15, 185806, Note_on_c, 14, 60, 0
15, 185824, Note_on_c, 14, 60, 48
15, 185856, Note_on_c, 14, 60, 0
15, 185856, Note_on_c, 14, 59, 48
15, 185880, Note_on_c, 14, 59, 0
15, 185880, Note_on_c, 14, 60, 47
15, 185904, Note_on_c, 14, 60, 0
15, 185904, Note_on_c, 14, 59, 46
15, 185964, Note_on_c, 14, 59, 0
15, 186002, Note_on_c, 14, 57, 45
15, 186034, Note_on_c, 14, 57, 0
15, 186048, Note_on_c, 14, 55, 44
15, 186182, Note_on_c, 14, 55, 0
15, 186624, Note_on_c, 14, 53, 103
15, 186722, Note_on_c, 14, 53, 0
15, 186816, Note_on_c, 14, 53, 103
15, 186884, Note_on_c, 14, 53, 0
15, 186961, Note_on_c, 14, 53, 103
15, 186991, Note_on_c, 14, 53, 0
15, 187008, Note_on_c, 14, 53, 103
15, 187110, Note_on_c, 14, 53, 0
15, 187200, Note_on_c, 14, 53, 103
15, 187302, Note_on_c, 14, 53, 0
15, 187392, Note_on_c, 14, 53, 103
15, 187928, Note_on_c, 14, 53, 0
15, 188160, Note_on_c, 14, 53, 47
15, 188258, Note_on_c, 14, 53, 0
15, 188352, Note_on_c, 14, 53, 47
15, 188418, Note_on_c, 14, 53, 0
15, 188497, Note_on_c, 14, 53, 47
15, 188525, Note_on_c, 14, 53, 0
15, 188544, Note_on_c, 14, 53, 47
15, 188638, Note_on_c, 14, 53, 0
15, 188736, Note_on_c, 14, 53, 47
15, 188830, Note_on_c, 14, 53, 0
15, 188928, Note_on_c, 14, 53, 47
15, 189432, Note_on_c, 14, 53, 0
15, 189696, Note_on_c, 14, 55, 119
15, 189852, Note_on_c, 14, 55, 0
15, 190032, Note_on_c, 14, 55, 119
15, 190060, Note_on_c, 14, 55, 0
15, 190080, Note_on_c, 14, 57, 119
15, 190236, Note_on_c, 14, 57, 0
15, 190416, Note_on_c, 14, 57, 119
15, 190444, Note_on_c, 14, 57, 0
15, 190464, Note_on_c, 14, 53, 119
15, 190620, Note_on_c, 14, 53, 0
15, 190800, Note_on_c, 14, 53, 120
15, 190828, Note_on_c, 14, 53, 0
15, 190848, Note_on_c, 14, 55, 120
15, 191004, Note_on_c, 14, 55, 0
15, 191184, Note_on_c, 14, 55, 120
15, 191212, Note_on_c, 14, 55, 0
15, 191232, Note_on_c, 14, 48, 120
15, 191372, Note_on_c, 14, 48, 0
15, 191808, Note_on_c, 14, 55, 116
15, 191930, Note_on_c, 14, 55, 0
15, 192000, Note_on_c, 14, 60, 116
15, 192140, Note_on_c, 14, 60, 0
15, 192576, Note_on_c, 14, 55, 116
15, 192698, Note_on_c, 14, 55, 0
15, 192768, Note_on_c, 14, 48, 116
15, 192932, Note_on_c, 14, 48, 0
15, 193344, Note_on_c, 14, 55, 116
15, 193466, Note_on_c, 14, 55, 0
15, 193536, Note_on_c, 14, 60, 116
15, 193676, Note_on_c, 14, 60, 0
15, 194112, Note_on_c, 14, 55, 116
15, 194234, Note_on_c, 14, 55, 0
15, 194304, Note_on_c, 14, 48, 116
15, 194372, Note_on_c, 14, 48, 0
15, 194400, Note_on_c, 14, 48, 116
15, 194468, Note_on_c, 14, 48, 0
15, 194496, Note_on_c, 14, 48, 116
15, 194564, Note_on_c, 14, 48, 0
15, 194592, Note_on_c, 14, 48, 116
15, 194660, Note_on_c, 14, 48, 0
15, 194688, Note_on_c, 14, 48, 116
15, 194756, Note_on_c, 14, 48, 0
15, 194784, Note_on_c, 14, 48, 116
15, 194852, Note_on_c, 14, 48, 0
15, 194880, Note_on_c, 14, 48, 116
15, 194948, Note_on_c, 14, 48, 0
15, 194976, Note_on_c, 14, 48, 116
15, 195044, Note_on_c, 14, 48, 0
15, 195072, Note_on_c, 14, 48, 116
15, 195140, Note_on_c, 14, 48, 0
15, 195168, Note_on_c, 14, 48, 116
15, 195236, Note_on_c, 14, 48, 0
15, 195264, Note_on_c, 14, 48, 116
15, 195332, Note_on_c, 14, 48, 0
15, 195360, Note_on_c, 14, 48, 116
15, 195428, Note_on_c, 14, 48, 0
15, 195456, Note_on_c, 14, 48, 116
15, 195524, Note_on_c, 14, 48, 0
15, 195552, Note_on_c, 14, 48, 116
15, 195620, Note_on_c, 14, 48, 0
15, 195648, Note_on_c, 14, 48, 116
15, 195716, Note_on_c, 14, 48, 0
15, 195744, Note_on_c, 14, 48, 116
15, 195812, Note_on_c, 14, 48, 0
15, 195840, Note_on_c, 14, 48, 116
15, 195908, Note_on_c, 14, 48, 0
15, 195936, Note_on_c, 14, 48, 116
15, 196004, Note_on_c, 14, 48, 0
15, 196032, Note_on_c, 14, 48, 116
15, 196100, Note_on_c, 14, 48, 0
15, 196128, Note_on_c, 14, 48, 116
15, 196196, Note_on_c, 14, 48, 0
15, 196224, Note_on_c, 14, 48, 116
15, 196292, Note_on_c, 14, 48, 0
15, 196320, Note_on_c, 14, 48, 116
15, 196388, Note_on_c, 14, 48, 0
15, 196416, Note_on_c, 14, 48, 116
15, 196484, Note_on_c, 14, 48, 0
15, 196512, Note_on_c, 14, 48, 116
15, 196580, Note_on_c, 14, 48, 0
15, 196608, Note_on_c, 14, 48, 116
15, 196676, Note_on_c, 14, 48, 0
15, 196704, Note_on_c, 14, 48, 116
15, 196772, Note_on_c, 14, 48, 0
15, 196800, Note_on_c, 14, 48, 116
15, 196868, Note_on_c, 14, 48, 0
15, 196896, Note_on_c, 14, 48, 116
15, 196964, Note_on_c, 14, 48, 0
15, 196992, Note_on_c, 14, 48, 116
15, 197060, Note_on_c, 14, 48, 0
15, 197088, Note_on_c, 14, 48, 116
15, 197156, Note_on_c, 14, 48, 0
15, 197184, Note_on_c, 14, 48, 116
15, 197252, Note_on_c, 14, 48, 0
15, 197280, Note_on_c, 14, 48, 116
15, 197348, Note_on_c, 14, 48, 0
15, 197376, Note_on_c, 14, 48, 116
15, 197556, Note_on_c, 14, 48, 0
15, 197712, Note_on_c, 14, 43, 116
15, 197728, Note_on_c, 14, 43, 0
15, 197728, Note_on_c, 14, 45, 116
15, 197744, Note_on_c, 14, 45, 0
15, 197744, Note_on_c, 14, 47, 116
15, 197760, Note_on_c, 14, 47, 0
15, 197760, Note_on_c, 14, 48, 116
15, 197850, Note_on_c, 14, 48, 0
15, 197904, Note_on_c, 14, 48, 116
15, 197932, Note_on_c, 14, 48, 0
15, 197952, Note_on_c, 14, 52, 116
15, 198042, Note_on_c, 14, 52, 0
15, 198096, Note_on_c, 14, 52, 116
15, 198124, Note_on_c, 14, 52, 0
15, 198144, Note_on_c, 14, 55, 116
15, 198308, Note_on_c, 14, 55, 0
15, 198480, Note_on_c, 14, 48, 116
15, 198504, Note_on_c, 14, 48, 0
15, 198504, Note_on_c, 14, 50, 116
15, 198528, Note_on_c, 14, 50, 0
15, 198528, Note_on_c, 14, 52, 116
15, 198618, Note_on_c, 14, 52, 0
15, 198672, Note_on_c, 14, 52, 116
15, 198700, Note_on_c, 14, 52, 0
15, 198720, Note_on_c, 14, 55, 116
15, 198810, Note_on_c, 14, 55, 0
15, 198864, Note_on_c, 14, 55, 116
15, 198892, Note_on_c, 14, 55, 0
15, 198912, Note_on_c, 14, 60, 116
15, 199076, Note_on_c, 14, 60, 0
15, 199248, Note_on_c, 14, 52, 116
15, 199272, Note_on_c, 14, 52, 0
15, 199272, Note_on_c, 14, 53, 116
15, 199296, Note_on_c, 14, 53, 0
15, 199296, Note_on_c, 14, 55, 116
15, 199386, Note_on_c, 14, 55, 0
15, 199440, Note_on_c, 14, 55, 116
15, 199468, Note_on_c, 14, 55, 0
15, 199488, Note_on_c, 14, 60, 116
15, 199578, Note_on_c, 14, 60, 0
15, 199632, Note_on_c, 14, 60, 116
15, 199660, Note_on_c, 14, 60, 0
15, 199680, Note_on_c, 14, 64, 116
15, 199844, Note_on_c, 14, 64, 0
15, 200016, Note_on_c, 14, 55, 116
15, 200032, Note_on_c, 14, 55, 0
15, 200032, Note_on_c, 14, 57, 116
15, 200048, Note_on_c, 14, 57, 0
15, 200048, Note_on_c, 14, 59, 116
15, 200064, Note_on_c, 14, 59, 0
15, 200064, Note_on_c, 14, 60, 116
15, 200154, Note_on_c, 14, 60, 0
15, 200208, Note_on_c, 14, 60, 116
15, 200236, Note_on_c, 14, 60, 0
15, 200256, Note_on_c, 14, 64, 116
15, 200346, Note_on_c, 14, 64, 0
15, 200400, Note_on_c, 14, 64, 116
15, 200428, Note_on_c, 14, 64, 0
15, 200448, Note_on_c, 14, 67, 116
15, 200782, Note_on_c, 14, 67, 0
15, 200832, Note_on_c, 14, 64, 116
15, 200952, Note_on_c, 14, 64, 0
15, 201024, Note_on_c, 14, 60, 116
15, 201144, Note_on_c, 14, 60, 0
15, 201216, Note_on_c, 14, 55, 116
15, 201336, Note_on_c, 14, 55, 0
15, 201408, Note_on_c, 14, 60, 116
15, 201528, Note_on_c, 14, 60, 0
15, 201600, Note_on_c, 14, 52, 116
15, 201720, Note_on_c, 14, 52, 0
15, 201792, Note_on_c, 14, 55, 116
15, 201912, Note_on_c, 14, 55, 0
15, 201984, Note_on_c, 14, 48, 116
15, 202296, Note_on_c, 14, 48, 0
15, 202368, Note_on_c, 14, 48, 116
15, 202594, Note_on_c, 14, 48, 0
15, 202656, Note_on_c, 14, 48, 116
15, 202716, Note_on_c, 14, 48, 0
15, 202752, Note_on_c, 14, 48, 116
15, 203126, Note_on_c, 14, 48, 0
15, 204864, Control_c, 14, 121, 0
15, 204864, End_track
16, 0, Start_track
16, 0, MIDI_port, 0
16, 0, Title_t, "Contrabass"
16, 0, Program_c, 15, 48
16, 0, Control_c, 15, 7, 107
16, 0, Control_c, 15, 10, 64
16, 0, Text_t, ""
16, 96, Control_c, 15, 121, 0
16, 192, Control_c, 15, 91, 54
16, 288, Control_c, 15, 93, 6
16, 768, Note_on_c, 15, 48, 103
16, 1163, Note_on_c, 15, 48, 0
16, 1488, Note_on_c, 15, 36, 103
16, 1518, Note_on_c, 15, 36, 0
16, 1536, Note_on_c, 15, 36, 103
16, 2045, Note_on_c, 15, 36, 0
16, 2256, Note_on_c, 15, 31, 103
16, 2272, Note_on_c, 15, 31, 0
16, 2272, Note_on_c, 15, 33, 103
16, 2288, Note_on_c, 15, 33, 0
16, 2288, Note_on_c, 15, 35, 103
16, 2304, Note_on_c, 15, 35, 0
16, 2304, Note_on_c, 15, 36, 103
16, 2394, Note_on_c, 15, 36, 0
16, 2496, Note_on_c, 15, 40, 103
16, 2586, Note_on_c, 15, 40, 0
16, 2688, Note_on_c, 15, 43, 103
16, 2778, Note_on_c, 15, 43, 0
16, 2880, Note_on_c, 15, 48, 103
16, 2970, Note_on_c, 15, 48, 0
16, 3040, Note_on_c, 15, 48, 103
16, 3072, Note_on_c, 15, 48, 0
16, 3072, Note_on_c, 15, 47, 103
16, 3096, Note_on_c, 15, 47, 0
16, 3096, Note_on_c, 15, 48, 103
16, 3120, Note_on_c, 15, 48, 0
16, 3120, Note_on_c, 15, 47, 103
16, 3180, Note_on_c, 15, 47, 0
16, 3216, Note_on_c, 15, 45, 103
16, 3250, Note_on_c, 15, 45, 0
16, 3264, Note_on_c, 15, 43, 103
16, 3412, Note_on_c, 15, 43, 0
16, 3648, Note_on_c, 15, 48, 46
16, 3750, Note_on_c, 15, 48, 0
16, 3808, Note_on_c, 15, 48, 46
16, 3840, Note_on_c, 15, 48, 0
16, 3840, Note_on_c, 15, 47, 46
16, 3864, Note_on_c, 15, 47, 0
16, 3864, Note_on_c, 15, 48, 46
16, 3888, Note_on_c, 15, 48, 0
16, 3888, Note_on_c, 15, 47, 46
16, 3948, Note_on_c, 15, 47, 0
16, 3984, Note_on_c, 15, 45, 46
16, 4018, Note_on_c, 15, 45, 0
16, 4032, Note_on_c, 15, 43, 46
16, 4100, Note_on_c, 15, 43, 0
16, 4128, Note_on_c, 15, 48, 46
16, 4174, Note_on_c, 15, 48, 0
16, 4192, Note_on_c, 15, 48, 46
16, 4224, Note_on_c, 15, 48, 0
16, 4224, Note_on_c, 15, 47, 46
16, 4248, Note_on_c, 15, 47, 0
16, 4248, Note_on_c, 15, 48, 46
16, 4272, Note_on_c, 15, 48, 0
16, 4272, Note_on_c, 15, 47, 46
16, 4324, Note_on_c, 15, 47, 0
16, 4368, Note_on_c, 15, 45, 46
16, 4402, Note_on_c, 15, 45, 0
16, 4416, Note_on_c, 15, 43, 46
16, 4484, Note_on_c, 15, 43, 0
16, 4512, Note_on_c, 15, 48, 46
16, 4558, Note_on_c, 15, 48, 0
16, 4576, Note_on_c, 15, 48, 46
16, 4608, Note_on_c, 15, 48, 0
16, 4608, Note_on_c, 15, 47, 46
16, 4632, Note_on_c, 15, 47, 0
16, 4632, Note_on_c, 15, 48, 46
16, 4656, Note_on_c, 15, 48, 0
16, 4656, Note_on_c, 15, 47, 46
16, 4716, Note_on_c, 15, 47, 0
16, 4752, Note_on_c, 15, 45, 46
16, 4786, Note_on_c, 15, 45, 0
16, 4800, Note_on_c, 15, 43, 46
16, 4934, Note_on_c, 15, 43, 0
16, 5376, Note_on_c, 15, 41, 103
16, 5476, Note_on_c, 15, 41, 0
16, 5568, Note_on_c, 15, 41, 103
16, 5636, Note_on_c, 15, 41, 0
16, 5714, Note_on_c, 15, 41, 103
16, 5744, Note_on_c, 15, 41, 0
16, 5760, Note_on_c, 15, 41, 103
16, 5860, Note_on_c, 15, 41, 0
16, 5952, Note_on_c, 15, 41, 103
16, 6052, Note_on_c, 15, 41, 0
16, 6144, Note_on_c, 15, 41, 103
16, 6161, Control_c, 15, 11, 125
16, 6170, Control_c, 15, 11, 127
16, 6257, Control_c, 15, 11, 123
16, 6274, Control_c, 15, 11, 120
16, 6283, Control_c, 15, 11, 118
16, 6327, Control_c, 15, 11, 117
16, 6353, Control_c, 15, 11, 115
16, 6493, Control_c, 15, 11, 109
16, 6510, Control_c, 15, 11, 106
16, 6536, Control_c, 15, 11, 103
16, 6545, Control_c, 15, 11, 102
16, 6562, Control_c, 15, 11, 100
16, 6599, Note_on_c, 15, 41, 0
16, 6711, Control_c, 15, 11, 127
16, 6720, Note_on_c, 15, 41, 103
16, 6828, Note_on_c, 15, 41, 0
16, 6912, Note_on_c, 15, 43, 103
16, 6990, Note_on_c, 15, 43, 0
16, 7008, Note_on_c, 15, 43, 103
16, 7086, Note_on_c, 15, 43, 0
16, 7104, Note_on_c, 15, 43, 103
16, 7182, Note_on_c, 15, 43, 0
16, 7200, Note_on_c, 15, 43, 103
16, 7278, Note_on_c, 15, 43, 0
16, 7296, Note_on_c, 15, 43, 103
16, 7374, Note_on_c, 15, 43, 0
16, 7392, Note_on_c, 15, 43, 103
16, 7470, Note_on_c, 15, 43, 0
16, 7488, Note_on_c, 15, 43, 103
16, 7566, Note_on_c, 15, 43, 0
16, 7584, Note_on_c, 15, 43, 103
16, 7662, Note_on_c, 15, 43, 0
16, 7680, Note_on_c, 15, 36, 103
16, 7770, Note_on_c, 15, 36, 0
16, 7872, Note_on_c, 15, 40, 103
16, 7962, Note_on_c, 15, 40, 0
16, 8064, Note_on_c, 15, 43, 103
16, 8154, Note_on_c, 15, 43, 0
16, 8448, Note_on_c, 15, 41, 103
16, 8548, Note_on_c, 15, 41, 0
16, 8640, Note_on_c, 15, 41, 103
16, 8728, Note_on_c, 15, 41, 0
16, 8784, Note_on_c, 15, 41, 103
16, 8812, Note_on_c, 15, 41, 0
16, 8832, Note_on_c, 15, 41, 103
16, 8930, Note_on_c, 15, 41, 0
16, 9024, Note_on_c, 15, 41, 103
16, 9122, Note_on_c, 15, 41, 0
16, 9207, Control_c, 15, 11, 125
16, 9216, Note_on_c, 15, 41, 103
16, 9242, Control_c, 15, 11, 127
16, 9338, Control_c, 15, 11, 126
16, 9346, Control_c, 15, 11, 124
16, 9373, Control_c, 15, 11, 123
16, 9399, Control_c, 15, 11, 121
16, 9416, Control_c, 15, 11, 120
16, 9451, Control_c, 15, 11, 118
16, 9547, Control_c, 15, 11, 115
16, 9556, Control_c, 15, 11, 114
16, 9582, Control_c, 15, 11, 111
16, 9600, Control_c, 15, 11, 108
16, 9608, Control_c, 15, 11, 106
16, 9634, Control_c, 15, 11, 105
16, 9652, Control_c, 15, 11, 103
16, 9758, Note_on_c, 15, 41, 0
16, 9982, Control_c, 15, 11, 127
16, 9984, Note_on_c, 15, 41, 40
16, 10084, Note_on_c, 15, 41, 0
16, 10176, Note_on_c, 15, 41, 40
16, 10244, Note_on_c, 15, 41, 0
16, 10320, Note_on_c, 15, 41, 40
16, 10354, Note_on_c, 15, 41, 0
16, 10368, Note_on_c, 15, 41, 40
16, 10460, Note_on_c, 15, 41, 0
16, 10560, Note_on_c, 15, 41, 40
16, 10652, Note_on_c, 15, 41, 0
16, 10752, Note_on_c, 15, 41, 40
16, 11257, Note_on_c, 15, 41, 0
16, 11328, Note_on_c, 15, 41, 40
16, 11396, Note_on_c, 15, 41, 0
16, 11520, Note_on_c, 15, 43, 40
16, 11590, Note_on_c, 15, 43, 0
16, 11712, Note_on_c, 15, 43, 40
16, 11782, Note_on_c, 15, 43, 0
16, 11904, Note_on_c, 15, 43, 40
16, 11974, Note_on_c, 15, 43, 0
16, 12096, Note_on_c, 15, 43, 40
16, 12166, Note_on_c, 15, 43, 0
16, 12288, Note_on_c, 15, 48, 40
16, 12466, Note_on_c, 15, 48, 0
16, 13056, Note_on_c, 15, 36, 49
16, 13176, Note_on_c, 15, 36, 0
16, 13248, Note_on_c, 15, 40, 52
16, 13368, Note_on_c, 15, 40, 0
16, 13440, Note_on_c, 15, 43, 52
16, 13560, Note_on_c, 15, 43, 0
16, 13632, Note_on_c, 15, 31, 52
16, 13752, Note_on_c, 15, 31, 0
16, 13824, Note_on_c, 15, 36, 56
16, 13944, Note_on_c, 15, 36, 0
16, 14016, Note_on_c, 15, 40, 60
16, 14136, Note_on_c, 15, 40, 0
16, 14208, Note_on_c, 15, 43, 65
16, 14328, Note_on_c, 15, 43, 0
16, 14400, Note_on_c, 15, 31, 70
16, 14520, Note_on_c, 15, 31, 0
16, 14592, Note_on_c, 15, 36, 76
16, 14748, Note_on_c, 15, 36, 0
16, 14784, Note_on_c, 15, 40, 83
16, 14940, Note_on_c, 15, 40, 0
16, 14976, Note_on_c, 15, 43, 89
16, 15140, Note_on_c, 15, 43, 0
16, 15168, Note_on_c, 15, 31, 96
16, 15332, Note_on_c, 15, 31, 0
16, 15360, Note_on_c, 15, 36, 77
16, 15450, Note_on_c, 15, 36, 0
16, 15456, Note_on_c, 15, 36, 77
16, 15546, Note_on_c, 15, 36, 0
16, 15552, Note_on_c, 15, 36, 77
16, 15642, Note_on_c, 15, 36, 0
16, 15648, Note_on_c, 15, 36, 77
16, 15738, Note_on_c, 15, 36, 0
16, 15744, Note_on_c, 15, 36, 77
16, 15834, Note_on_c, 15, 36, 0
16, 15840, Note_on_c, 15, 36, 77
16, 15930, Note_on_c, 15, 36, 0
16, 15936, Note_on_c, 15, 36, 77
16, 16026, Note_on_c, 15, 36, 0
16, 16032, Note_on_c, 15, 36, 77
16, 16122, Note_on_c, 15, 36, 0
16, 16128, Note_on_c, 15, 36, 77
16, 16218, Note_on_c, 15, 36, 0
16, 16224, Note_on_c, 15, 36, 77
16, 16314, Note_on_c, 15, 36, 0
16, 16320, Note_on_c, 15, 36, 77
16, 16410, Note_on_c, 15, 36, 0
16, 16416, Note_on_c, 15, 36, 77
16, 16506, Note_on_c, 15, 36, 0
16, 16512, Note_on_c, 15, 36, 77
16, 16602, Note_on_c, 15, 36, 0
16, 16608, Note_on_c, 15, 36, 77
16, 16698, Note_on_c, 15, 36, 0
16, 16704, Note_on_c, 15, 36, 77
16, 16794, Note_on_c, 15, 36, 0
16, 16800, Note_on_c, 15, 36, 77
16, 16890, Note_on_c, 15, 36, 0
16, 16896, Note_on_c, 15, 36, 77
16, 16986, Note_on_c, 15, 36, 0
16, 16992, Note_on_c, 15, 36, 77
16, 17082, Note_on_c, 15, 36, 0
16, 17088, Note_on_c, 15, 36, 77
16, 17178, Note_on_c, 15, 36, 0
16, 17184, Note_on_c, 15, 36, 77
16, 17274, Note_on_c, 15, 36, 0
16, 17280, Note_on_c, 15, 36, 77
16, 17370, Note_on_c, 15, 36, 0
16, 17376, Note_on_c, 15, 36, 77
16, 17466, Note_on_c, 15, 36, 0
16, 17472, Note_on_c, 15, 36, 77
16, 17562, Note_on_c, 15, 36, 0
16, 17568, Note_on_c, 15, 36, 77
16, 17658, Note_on_c, 15, 36, 0
16, 17664, Note_on_c, 15, 36, 77
16, 17754, Note_on_c, 15, 36, 0
16, 17760, Note_on_c, 15, 36, 77
16, 17850, Note_on_c, 15, 36, 0
16, 17856, Note_on_c, 15, 36, 77
16, 17946, Note_on_c, 15, 36, 0
16, 17952, Note_on_c, 15, 36, 77
16, 18042, Note_on_c, 15, 36, 0
16, 18048, Note_on_c, 15, 36, 77
16, 18138, Note_on_c, 15, 36, 0
16, 18144, Note_on_c, 15, 36, 77
16, 18234, Note_on_c, 15, 36, 0
16, 18240, Note_on_c, 15, 36, 77
16, 18330, Note_on_c, 15, 36, 0
16, 18336, Note_on_c, 15, 36, 77
16, 18426, Note_on_c, 15, 36, 0
16, 18432, Note_on_c, 15, 35, 77
16, 18522, Note_on_c, 15, 35, 0
16, 18528, Note_on_c, 15, 35, 77
16, 18618, Note_on_c, 15, 35, 0
16, 18624, Note_on_c, 15, 35, 77
16, 18714, Note_on_c, 15, 35, 0
16, 18720, Note_on_c, 15, 35, 77
16, 18810, Note_on_c, 15, 35, 0
16, 18816, Note_on_c, 15, 35, 77
16, 18906, Note_on_c, 15, 35, 0
16, 18912, Note_on_c, 15, 35, 77
16, 19002, Note_on_c, 15, 35, 0
16, 19008, Note_on_c, 15, 35, 77
16, 19098, Note_on_c, 15, 35, 0
16, 19104, Note_on_c, 15, 35, 77
16, 19194, Note_on_c, 15, 35, 0
16, 19200, Note_on_c, 15, 47, 77
16, 19290, Note_on_c, 15, 47, 0
16, 19296, Note_on_c, 15, 47, 77
16, 19386, Note_on_c, 15, 47, 0
16, 19392, Note_on_c, 15, 47, 77
16, 19482, Note_on_c, 15, 47, 0
16, 19488, Note_on_c, 15, 47, 77
16, 19578, Note_on_c, 15, 47, 0
16, 19584, Note_on_c, 15, 47, 77
16, 19674, Note_on_c, 15, 47, 0
16, 19680, Note_on_c, 15, 47, 77
16, 19770, Note_on_c, 15, 47, 0
16, 19776, Note_on_c, 15, 47, 77
16, 19866, Note_on_c, 15, 47, 0
16, 19872, Note_on_c, 15, 47, 77
16, 19962, Note_on_c, 15, 47, 0
16, 19968, Note_on_c, 15, 42, 77
16, 20058, Note_on_c, 15, 42, 0
16, 20064, Note_on_c, 15, 42, 77
16, 20154, Note_on_c, 15, 42, 0
16, 20160, Note_on_c, 15, 42, 77
16, 20250, Note_on_c, 15, 42, 0
16, 20256, Note_on_c, 15, 42, 77
16, 20346, Note_on_c, 15, 42, 0
16, 20352, Note_on_c, 15, 42, 77
16, 20442, Note_on_c, 15, 42, 0
16, 20448, Note_on_c, 15, 42, 77
16, 20538, Note_on_c, 15, 42, 0
16, 20544, Note_on_c, 15, 42, 77
16, 20634, Note_on_c, 15, 42, 0
16, 20640, Note_on_c, 15, 42, 77
16, 20730, Note_on_c, 15, 42, 0
16, 20736, Note_on_c, 15, 42, 77
16, 20826, Note_on_c, 15, 42, 0
16, 20832, Note_on_c, 15, 42, 77
16, 20922, Note_on_c, 15, 42, 0
16, 20928, Note_on_c, 15, 42, 77
16, 21018, Note_on_c, 15, 42, 0
16, 21024, Note_on_c, 15, 42, 77
16, 21114, Note_on_c, 15, 42, 0
16, 21120, Note_on_c, 15, 42, 76
16, 21210, Note_on_c, 15, 42, 0
16, 21216, Note_on_c, 15, 42, 76
16, 21306, Note_on_c, 15, 42, 0
16, 21312, Note_on_c, 15, 42, 76
16, 21402, Note_on_c, 15, 42, 0
16, 21408, Note_on_c, 15, 42, 76
16, 21498, Note_on_c, 15, 42, 0
16, 21504, Note_on_c, 15, 43, 76
16, 21594, Note_on_c, 15, 43, 0
16, 21600, Note_on_c, 15, 43, 76
16, 21690, Note_on_c, 15, 43, 0
16, 21696, Note_on_c, 15, 43, 76
16, 21786, Note_on_c, 15, 43, 0
16, 21792, Note_on_c, 15, 43, 76
16, 21882, Note_on_c, 15, 43, 0
16, 21888, Note_on_c, 15, 43, 76
16, 21978, Note_on_c, 15, 43, 0
16, 21984, Note_on_c, 15, 43, 76
16, 22074, Note_on_c, 15, 43, 0
16, 22080, Note_on_c, 15, 43, 76
16, 22170, Note_on_c, 15, 43, 0
16, 22176, Note_on_c, 15, 43, 76
16, 22266, Note_on_c, 15, 43, 0
16, 22272, Note_on_c, 15, 45, 76
16, 22362, Note_on_c, 15, 45, 0
16, 22368, Note_on_c, 15, 45, 76
16, 22458, Note_on_c, 15, 45, 0
16, 22464, Note_on_c, 15, 45, 76
16, 22554, Note_on_c, 15, 45, 0
16, 22560, Note_on_c, 15, 45, 76
16, 22650, Note_on_c, 15, 45, 0
16, 22656, Note_on_c, 15, 45, 76
16, 22746, Note_on_c, 15, 45, 0
16, 22752, Note_on_c, 15, 45, 76
16, 22842, Note_on_c, 15, 45, 0
16, 22848, Note_on_c, 15, 45, 76
16, 22938, Note_on_c, 15, 45, 0
16, 22944, Note_on_c, 15, 45, 76
16, 23034, Note_on_c, 15, 45, 0
16, 23040, Note_on_c, 15, 46, 76
16, 23130, Note_on_c, 15, 46, 0
16, 23136, Note_on_c, 15, 46, 76
16, 23226, Note_on_c, 15, 46, 0
16, 23232, Note_on_c, 15, 46, 76
16, 23322, Note_on_c, 15, 46, 0
16, 23328, Note_on_c, 15, 46, 76
16, 23418, Note_on_c, 15, 46, 0
16, 23424, Note_on_c, 15, 46, 76
16, 23514, Note_on_c, 15, 46, 0
16, 23520, Note_on_c, 15, 46, 76
16, 23610, Note_on_c, 15, 46, 0
16, 23616, Note_on_c, 15, 46, 76
16, 23706, Note_on_c, 15, 46, 0
16, 23712, Note_on_c, 15, 46, 76
16, 23802, Note_on_c, 15, 46, 0
16, 23808, Note_on_c, 15, 39, 76
16, 23898, Note_on_c, 15, 39, 0
16, 23904, Note_on_c, 15, 39, 76
16, 23994, Note_on_c, 15, 39, 0
16, 24000, Note_on_c, 15, 39, 76
16, 24090, Note_on_c, 15, 39, 0
16, 24096, Note_on_c, 15, 39, 76
16, 24186, Note_on_c, 15, 39, 0
16, 24192, Note_on_c, 15, 39, 76
16, 24282, Note_on_c, 15, 39, 0
16, 24288, Note_on_c, 15, 39, 76
16, 24378, Note_on_c, 15, 39, 0
16, 24384, Note_on_c, 15, 39, 76
16, 24474, Note_on_c, 15, 39, 0
16, 24480, Note_on_c, 15, 39, 76
16, 24570, Note_on_c, 15, 39, 0
16, 24576, Note_on_c, 15, 38, 76
16, 24666, Note_on_c, 15, 38, 0
16, 24672, Note_on_c, 15, 38, 76
16, 24762, Note_on_c, 15, 38, 0
16, 24768, Note_on_c, 15, 38, 76
16, 24858, Note_on_c, 15, 38, 0
16, 24864, Note_on_c, 15, 38, 77
16, 24954, Note_on_c, 15, 38, 0
16, 24960, Note_on_c, 15, 38, 77
16, 25050, Note_on_c, 15, 38, 0
16, 25056, Note_on_c, 15, 38, 76
16, 25146, Note_on_c, 15, 38, 0
16, 25152, Note_on_c, 15, 38, 76
16, 25242, Note_on_c, 15, 38, 0
16, 25248, Note_on_c, 15, 38, 75
16, 25338, Note_on_c, 15, 38, 0
16, 25344, Note_on_c, 15, 39, 75
16, 25434, Note_on_c, 15, 39, 0
16, 25440, Note_on_c, 15, 39, 74
16, 25530, Note_on_c, 15, 39, 0
16, 25536, Note_on_c, 15, 39, 73
16, 25626, Note_on_c, 15, 39, 0
16, 25632, Note_on_c, 15, 39, 73
16, 25722, Note_on_c, 15, 39, 0
16, 25728, Note_on_c, 15, 39, 72
16, 25818, Note_on_c, 15, 39, 0
16, 25824, Note_on_c, 15, 39, 72
16, 25914, Note_on_c, 15, 39, 0
16, 25920, Note_on_c, 15, 39, 71
16, 26010, Note_on_c, 15, 39, 0
16, 26016, Note_on_c, 15, 39, 71
16, 26106, Note_on_c, 15, 39, 0
16, 26112, Note_on_c, 15, 38, 70
16, 26286, Note_on_c, 15, 38, 0
16, 26400, Note_on_c, 15, 38, 82
16, 26478, Note_on_c, 15, 38, 0
16, 26496, Note_on_c, 15, 46, 82
16, 26592, Note_on_c, 15, 46, 0
16, 26592, Note_on_c, 15, 45, 82
16, 26688, Note_on_c, 15, 45, 0
16, 26688, Note_on_c, 15, 43, 82
16, 26784, Note_on_c, 15, 43, 0
16, 26784, Note_on_c, 15, 46, 82
16, 26862, Note_on_c, 15, 46, 0
16, 26880, Note_on_c, 15, 50, 82
16, 27054, Note_on_c, 15, 50, 0
16, 27168, Note_on_c, 15, 38, 82
16, 27246, Note_on_c, 15, 38, 0
16, 27264, Note_on_c, 15, 46, 82
16, 27360, Note_on_c, 15, 46, 0
16, 27360, Note_on_c, 15, 45, 82
16, 27456, Note_on_c, 15, 45, 0
16, 27456, Note_on_c, 15, 43, 82
16, 27552, Note_on_c, 15, 43, 0
16, 27552, Note_on_c, 15, 46, 82
16, 27630, Note_on_c, 15, 46, 0
16, 27648, Note_on_c, 15, 50, 82
16, 27804, Note_on_c, 15, 50, 0
16, 27840, Note_on_c, 15, 43, 82
16, 27886, Note_on_c, 15, 43, 0
16, 27936, Note_on_c, 15, 46, 82
16, 27982, Note_on_c, 15, 46, 0
16, 28032, Note_on_c, 15, 50, 82
16, 28188, Note_on_c, 15, 50, 0
16, 28224, Note_on_c, 15, 43, 82
16, 28270, Note_on_c, 15, 43, 0
16, 28320, Note_on_c, 15, 46, 82
16, 28366, Note_on_c, 15, 46, 0
16, 28416, Note_on_c, 15, 50, 82
16, 28594, Note_on_c, 15, 50, 0
16, 28752, Note_on_c, 15, 38, 82
16, 28796, Note_on_c, 15, 38, 0
16, 28800, Note_on_c, 15, 38, 82
16, 28934, Note_on_c, 15, 38, 0
16, 28992, Note_on_c, 15, 38, 82
16, 29126, Note_on_c, 15, 38, 0
16, 29184, Note_on_c, 15, 38, 82
16, 29362, Note_on_c, 15, 38, 0
16, 29952, Note_on_c, 15, 38, 103
16, 30382, Note_on_c, 15, 38, 0
16, 30432, Note_on_c, 15, 40, 103
16, 30480, Note_on_c, 15, 40, 0
16, 30480, Note_on_c, 15, 42, 103
16, 30528, Note_on_c, 15, 42, 0
16, 30528, Note_on_c, 15, 43, 103
16, 30576, Note_on_c, 15, 43, 0
16, 30576, Note_on_c, 15, 45, 103
16, 30624, Note_on_c, 15, 45, 0
16, 30624, Note_on_c, 15, 47, 103
16, 30672, Note_on_c, 15, 47, 0
16, 30672, Note_on_c, 15, 49, 103
16, 30720, Note_on_c, 15, 49, 0
16, 30720, Note_on_c, 15, 50, 103
16, 30898, Note_on_c, 15, 50, 0
16, 31104, Note_on_c, 15, 50, 47
16, 31296, Note_on_c, 15, 50, 0
16, 31296, Note_on_c, 15, 49, 47
16, 31488, Note_on_c, 15, 49, 0
16, 31488, Note_on_c, 15, 48, 47
16, 31680, Note_on_c, 15, 48, 0
16, 31680, Note_on_c, 15, 47, 47
16, 31872, Note_on_c, 15, 47, 0
16, 31872, Note_on_c, 15, 48, 47
16, 32064, Note_on_c, 15, 48, 0
16, 32064, Note_on_c, 15, 45, 47
16, 32244, Note_on_c, 15, 45, 0
16, 32251, Control_c, 15, 11, 94
16, 32256, Note_on_c, 15, 43, 47
16, 32264, Control_c, 15, 11, 95
16, 32277, Control_c, 15, 11, 96
16, 32286, Control_c, 15, 11, 97
16, 32290, Control_c, 15, 11, 98
16, 32299, Control_c, 15, 11, 99
16, 32304, Control_c, 15, 11, 100
16, 32312, Control_c, 15, 11, 101
16, 32317, Control_c, 15, 11, 102
16, 32321, Control_c, 15, 11, 103
16, 32325, Control_c, 15, 11, 104
16, 32330, Control_c, 15, 11, 106
16, 32334, Control_c, 15, 11, 108
16, 32338, Control_c, 15, 11, 109
16, 32343, Control_c, 15, 11, 111
16, 32347, Control_c, 15, 11, 113
16, 32352, Control_c, 15, 11, 115
16, 32356, Control_c, 15, 11, 116
16, 32360, Control_c, 15, 11, 119
16, 32365, Control_c, 15, 11, 118
16, 32369, Control_c, 15, 11, 119
16, 32805, Control_c, 15, 11, 119
16, 32853, Control_c, 15, 11, 118
16, 32897, Control_c, 15, 11, 117
16, 32941, Control_c, 15, 11, 116
16, 32984, Control_c, 15, 11, 115
16, 33028, Control_c, 15, 11, 114
16, 33072, Control_c, 15, 11, 113
16, 33120, Control_c, 15, 11, 112
16, 33163, Control_c, 15, 11, 111
16, 33207, Control_c, 15, 11, 110
16, 33250, Control_c, 15, 11, 109
16, 33294, Control_c, 15, 11, 108
16, 33338, Control_c, 15, 11, 107
16, 33386, Control_c, 15, 11, 106
16, 33429, Control_c, 15, 11, 105
16, 33473, Control_c, 15, 11, 104
16, 33517, Control_c, 15, 11, 103
16, 33560, Control_c, 15, 11, 102
16, 33604, Control_c, 15, 11, 101
16, 33652, Control_c, 15, 11, 100
16, 33696, Control_c, 15, 11, 99
16, 33739, Control_c, 15, 11, 98
16, 33783, Control_c, 15, 11, 97
16, 33826, Control_c, 15, 11, 96
16, 33870, Control_c, 15, 11, 95
16, 33914, Control_c, 15, 11, 94
16, 33916, Note_on_c, 15, 43, 0
16, 34162, Control_c, 15, 11, 127
16, 34176, Note_on_c, 15, 40, 46
16, 34296, Note_on_c, 15, 40, 0
16, 34560, Note_on_c, 15, 45, 46
16, 34680, Note_on_c, 15, 45, 0
16, 34944, Note_on_c, 15, 38, 46
16, 35064, Note_on_c, 15, 38, 0
16, 35328, Note_on_c, 15, 43, 46
16, 35448, Note_on_c, 15, 43, 0
16, 35712, Note_on_c, 15, 40, 46
16, 35832, Note_on_c, 15, 40, 0
16, 36096, Note_on_c, 15, 36, 46
16, 36416, Note_on_c, 15, 36, 0
16, 36480, Note_on_c, 15, 38, 46
16, 36598, Note_on_c, 15, 38, 0
16, 36672, Note_on_c, 15, 38, 46
16, 36790, Note_on_c, 15, 38, 0
16, 36864, Note_on_c, 15, 31, 46
16, 36982, Note_on_c, 15, 31, 0
16, 37056, Note_on_c, 15, 43, 42
16, 37170, Note_on_c, 15, 43, 0
16, 38400, Note_on_c, 15, 43, 46
16, 40062, Note_on_c, 15, 43, 0
16, 40320, Note_on_c, 15, 40, 47
16, 40440, Note_on_c, 15, 40, 0
16, 40704, Note_on_c, 15, 45, 47
16, 40824, Note_on_c, 15, 45, 0
16, 41088, Note_on_c, 15, 38, 47
16, 41208, Note_on_c, 15, 38, 0
16, 41472, Note_on_c, 15, 43, 47
16, 41592, Note_on_c, 15, 43, 0
16, 41856, Note_on_c, 15, 40, 47
16, 41976, Note_on_c, 15, 40, 0
16, 42240, Note_on_c, 15, 36, 47
16, 42384, Note_on_c, 15, 36, 0
16, 42624, Note_on_c, 15, 38, 47
16, 42768, Note_on_c, 15, 38, 0
16, 43008, Note_on_c, 15, 40, 47
16, 43152, Note_on_c, 15, 40, 0
16, 43776, Note_on_c, 15, 38, 47
16, 43920, Note_on_c, 15, 38, 0
16, 44160, Note_on_c, 15, 40, 47
16, 44304, Note_on_c, 15, 40, 0
16, 44544, Note_on_c, 15, 35, 47
16, 44688, Note_on_c, 15, 35, 0
16, 46272, Note_on_c, 15, 47, 45
16, 46358, Note_on_c, 15, 47, 0
16, 46464, Note_on_c, 15, 47, 45
16, 46550, Note_on_c, 15, 47, 0
16, 46656, Note_on_c, 15, 47, 45
16, 46742, Note_on_c, 15, 47, 0
16, 46848, Note_on_c, 15, 47, 45
16, 47040, Note_on_c, 15, 47, 0
16, 47040, Note_on_c, 15, 48, 45
16, 47182, Note_on_c, 15, 48, 0
16, 48375, Control_c, 15, 11, 118
16, 48384, Note_on_c, 15, 38, 47
16, 49122, Note_on_c, 15, 38, 0
16, 49152, Note_on_c, 15, 31, 44
16, 49154, Control_c, 15, 11, 122
16, 49159, Control_c, 15, 11, 121
16, 49165, Control_c, 15, 11, 118
16, 49198, Control_c, 15, 11, 114
16, 49209, Control_c, 15, 11, 111
16, 49214, Control_c, 15, 11, 109
16, 49225, Control_c, 15, 11, 108
16, 49242, Control_c, 15, 11, 106
16, 49258, Control_c, 15, 11, 105
16, 49264, Control_c, 15, 11, 100
16, 49274, Control_c, 15, 11, 96
16, 49291, Control_c, 15, 11, 93
16, 49296, Control_c, 15, 11, 90
16, 49307, Control_c, 15, 11, 85
16, 49313, Control_c, 15, 11, 84
16, 49324, Note_on_c, 15, 31, 0
16, 49324, Control_c, 15, 11, 76
16, 53760, Note_on_c, 15, 43, 38
16, 53760, Control_c, 15, 11, 127
16, 53850, Note_on_c, 15, 43, 0
16, 53856, Note_on_c, 15, 43, 45
16, 53946, Note_on_c, 15, 43, 0
16, 53952, Note_on_c, 15, 43, 47
16, 54042, Note_on_c, 15, 43, 0
16, 54048, Note_on_c, 15, 43, 50
16, 54138, Note_on_c, 15, 43, 0
16, 54144, Note_on_c, 15, 43, 51
16, 54234, Note_on_c, 15, 43, 0
16, 54240, Note_on_c, 15, 43, 54
16, 54330, Note_on_c, 15, 43, 0
16, 54336, Note_on_c, 15, 43, 55
16, 54426, Note_on_c, 15, 43, 0
16, 54432, Note_on_c, 15, 43, 57
16, 54522, Note_on_c, 15, 43, 0
16, 54528, Note_on_c, 15, 43, 59
16, 54618, Note_on_c, 15, 43, 0
16, 54624, Note_on_c, 15, 43, 51
16, 54714, Note_on_c, 15, 43, 0
16, 54720, Note_on_c, 15, 43, 64
16, 54810, Note_on_c, 15, 43, 0
16, 54816, Note_on_c, 15, 43, 67
16, 54906, Note_on_c, 15, 43, 0
16, 54912, Note_on_c, 15, 43, 70
16, 55002, Note_on_c, 15, 43, 0
16, 55008, Note_on_c, 15, 43, 72
16, 55098, Note_on_c, 15, 43, 0
16, 55104, Note_on_c, 15, 43, 75
16, 55194, Note_on_c, 15, 43, 0
16, 55200, Note_on_c, 15, 43, 78
16, 55290, Note_on_c, 15, 43, 0
16, 55296, Note_on_c, 15, 43, 82
16, 55386, Note_on_c, 15, 43, 0
16, 55392, Note_on_c, 15, 43, 82
16, 55482, Note_on_c, 15, 43, 0
16, 55488, Note_on_c, 15, 43, 82
16, 55578, Note_on_c, 15, 43, 0
16, 55584, Note_on_c, 15, 43, 82
16, 55674, Note_on_c, 15, 43, 0
16, 55680, Note_on_c, 15, 43, 82
16, 55770, Note_on_c, 15, 43, 0
16, 55776, Note_on_c, 15, 43, 82
16, 55866, Note_on_c, 15, 43, 0
16, 55872, Note_on_c, 15, 43, 82
16, 55962, Note_on_c, 15, 43, 0
16, 55968, Note_on_c, 15, 43, 82
16, 56058, Note_on_c, 15, 43, 0
16, 56064, Note_on_c, 15, 43, 82
16, 56154, Note_on_c, 15, 43, 0
16, 56160, Note_on_c, 15, 43, 82
16, 56250, Note_on_c, 15, 43, 0
16, 56256, Note_on_c, 15, 43, 82
16, 56346, Note_on_c, 15, 43, 0
16, 56352, Note_on_c, 15, 43, 82
16, 56442, Note_on_c, 15, 43, 0
16, 56448, Note_on_c, 15, 43, 82
16, 56538, Note_on_c, 15, 43, 0
16, 56544, Note_on_c, 15, 43, 82
16, 56634, Note_on_c, 15, 43, 0
16, 56640, Note_on_c, 15, 43, 82
16, 56730, Note_on_c, 15, 43, 0
16, 56736, Note_on_c, 15, 43, 82
16, 56826, Note_on_c, 15, 43, 0
16, 56832, Note_on_c, 15, 43, 82
16, 57010, Note_on_c, 15, 43, 0
16, 57168, Note_on_c, 15, 43, 82
16, 57192, Note_on_c, 15, 43, 0
16, 57192, Note_on_c, 15, 45, 82
16, 57216, Note_on_c, 15, 45, 0
16, 57216, Note_on_c, 15, 47, 82
16, 57432, Note_on_c, 15, 47, 0
16, 57504, Note_on_c, 15, 47, 51
16, 57558, Note_on_c, 15, 47, 0
16, 57600, Note_on_c, 15, 45, 51
16, 57690, Note_on_c, 15, 45, 0
16, 57792, Note_on_c, 15, 43, 51
16, 57882, Note_on_c, 15, 43, 0
16, 57984, Note_on_c, 15, 42, 51
16, 58074, Note_on_c, 15, 42, 0
16, 58176, Note_on_c, 15, 45, 51
16, 58266, Note_on_c, 15, 45, 0
16, 58368, Note_on_c, 15, 43, 51
16, 58546, Note_on_c, 15, 43, 0
16, 58704, Note_on_c, 15, 47, 82
16, 58728, Note_on_c, 15, 47, 0
16, 58728, Note_on_c, 15, 48, 82
16, 58752, Note_on_c, 15, 48, 0
16, 58752, Note_on_c, 15, 50, 82
16, 58950, Note_on_c, 15, 50, 0
16, 59040, Note_on_c, 15, 50, 47
16, 59094, Note_on_c, 15, 50, 0
16, 59136, Note_on_c, 15, 48, 47
16, 59226, Note_on_c, 15, 48, 0
16, 59328, Note_on_c, 15, 47, 47
16, 59418, Note_on_c, 15, 47, 0
16, 59520, Note_on_c, 15, 45, 47
16, 59610, Note_on_c, 15, 45, 0
16, 59712, Note_on_c, 15, 48, 47
16, 59802, Note_on_c, 15, 48, 0
16, 59904, Note_on_c, 15, 47, 47
16, 60082, Note_on_c, 15, 47, 0
16, 60240, Note_on_c, 15, 43, 82
16, 60264, Note_on_c, 15, 43, 0
16, 60264, Note_on_c, 15, 45, 82
16, 60288, Note_on_c, 15, 45, 0
16, 60288, Note_on_c, 15, 47, 82
16, 60504, Note_on_c, 15, 47, 0
16, 60576, Note_on_c, 15, 47, 47
16, 60630, Note_on_c, 15, 47, 0
16, 60672, Note_on_c, 15, 45, 47
16, 60762, Note_on_c, 15, 45, 0
16, 60864, Note_on_c, 15, 43, 47
16, 60954, Note_on_c, 15, 43, 0
16, 61056, Note_on_c, 15, 42, 47
16, 61146, Note_on_c, 15, 42, 0
16, 61248, Note_on_c, 15, 45, 47
16, 61338, Note_on_c, 15, 45, 0
16, 61440, Note_on_c, 15, 43, 47
16, 61618, Note_on_c, 15, 43, 0
16, 61776, Note_on_c, 15, 47, 82
16, 61800, Note_on_c, 15, 47, 0
16, 61800, Note_on_c, 15, 48, 82
16, 61824, Note_on_c, 15, 48, 0
16, 61824, Note_on_c, 15, 50, 82
16, 62022, Note_on_c, 15, 50, 0
16, 62112, Note_on_c, 15, 50, 47
16, 62166, Note_on_c, 15, 50, 0
16, 62208, Note_on_c, 15, 48, 47
16, 62298, Note_on_c, 15, 48, 0
16, 62400, Note_on_c, 15, 47, 47
16, 62490, Note_on_c, 15, 47, 0
16, 62592, Note_on_c, 15, 45, 47
16, 62682, Note_on_c, 15, 45, 0
16, 62784, Note_on_c, 15, 48, 47
16, 62874, Note_on_c, 15, 48, 0
16, 62976, Note_on_c, 15, 47, 47
16, 63154, Note_on_c, 15, 47, 0
16, 63840, Note_on_c, 15, 35, 82
16, 63930, Note_on_c, 15, 35, 0
16, 63936, Note_on_c, 15, 47, 82
16, 64026, Note_on_c, 15, 47, 0
16, 64032, Note_on_c, 15, 47, 82
16, 64122, Note_on_c, 15, 47, 0
16, 64128, Note_on_c, 15, 48, 82
16, 64218, Note_on_c, 15, 48, 0
16, 64224, Note_on_c, 15, 48, 82
16, 64314, Note_on_c, 15, 48, 0
16, 64320, Note_on_c, 15, 44, 82
16, 64410, Note_on_c, 15, 44, 0
16, 64416, Note_on_c, 15, 44, 82
16, 64506, Note_on_c, 15, 44, 0
16, 64512, Note_on_c, 15, 45, 82
16, 64602, Note_on_c, 15, 45, 0
16, 64608, Note_on_c, 15, 45, 82
16, 64698, Note_on_c, 15, 45, 0
16, 64704, Note_on_c, 15, 48, 82
16, 64794, Note_on_c, 15, 48, 0
16, 64800, Note_on_c, 15, 48, 82
16, 64890, Note_on_c, 15, 48, 0
16, 64896, Note_on_c, 15, 47, 82
16, 64986, Note_on_c, 15, 47, 0
16, 64992, Note_on_c, 15, 47, 82
16, 65082, Note_on_c, 15, 47, 0
16, 65088, Note_on_c, 15, 42, 82
16, 65178, Note_on_c, 15, 42, 0
16, 65184, Note_on_c, 15, 42, 82
16, 65274, Note_on_c, 15, 42, 0
16, 65280, Note_on_c, 15, 43, 82
16, 65370, Note_on_c, 15, 43, 0
16, 65376, Note_on_c, 15, 43, 82
16, 65466, Note_on_c, 15, 43, 0
16, 65472, Note_on_c, 15, 41, 82
16, 65562, Note_on_c, 15, 41, 0
16, 65568, Note_on_c, 15, 41, 82
16, 65658, Note_on_c, 15, 41, 0
16, 65664, Note_on_c, 15, 40, 82
16, 65754, Note_on_c, 15, 40, 0
16, 65760, Note_on_c, 15, 40, 82
16, 65850, Note_on_c, 15, 40, 0
16, 65856, Note_on_c, 15, 35, 82
16, 65946, Note_on_c, 15, 35, 0
16, 65952, Note_on_c, 15, 35, 82
16, 66042, Note_on_c, 15, 35, 0
16, 66048, Note_on_c, 15, 36, 82
16, 66138, Note_on_c, 15, 36, 0
16, 66144, Note_on_c, 15, 36, 82
16, 66234, Note_on_c, 15, 36, 0
16, 66240, Note_on_c, 15, 36, 82
16, 66330, Note_on_c, 15, 36, 0
16, 66336, Note_on_c, 15, 36, 82
16, 66426, Note_on_c, 15, 36, 0
16, 66432, Note_on_c, 15, 36, 82
16, 66522, Note_on_c, 15, 36, 0
16, 66528, Note_on_c, 15, 36, 82
16, 66618, Note_on_c, 15, 36, 0
16, 66624, Note_on_c, 15, 36, 82
16, 66714, Note_on_c, 15, 36, 0
16, 66720, Note_on_c, 15, 36, 82
16, 66810, Note_on_c, 15, 36, 0
16, 66816, Note_on_c, 15, 38, 82
16, 66906, Note_on_c, 15, 38, 0
16, 66912, Note_on_c, 15, 38, 82
16, 67002, Note_on_c, 15, 38, 0
16, 67008, Note_on_c, 15, 38, 82
16, 67098, Note_on_c, 15, 38, 0
16, 67104, Note_on_c, 15, 38, 82
16, 67194, Note_on_c, 15, 38, 0
16, 67200, Note_on_c, 15, 38, 82
16, 67290, Note_on_c, 15, 38, 0
16, 67296, Note_on_c, 15, 38, 82
16, 67386, Note_on_c, 15, 38, 0
16, 67392, Note_on_c, 15, 38, 82
16, 67482, Note_on_c, 15, 38, 0
16, 67488, Note_on_c, 15, 38, 82
16, 67578, Note_on_c, 15, 38, 0
16, 67584, Note_on_c, 15, 31, 82
16, 67762, Note_on_c, 15, 31, 0
16, 68448, Note_on_c, 15, 35, 82
16, 68538, Note_on_c, 15, 35, 0
16, 68544, Note_on_c, 15, 47, 82
16, 68634, Note_on_c, 15, 47, 0
16, 68640, Note_on_c, 15, 47, 82
16, 68730, Note_on_c, 15, 47, 0
16, 68736, Note_on_c, 15, 48, 82
16, 68826, Note_on_c, 15, 48, 0
16, 68832, Note_on_c, 15, 48, 82
16, 68922, Note_on_c, 15, 48, 0
16, 68928, Note_on_c, 15, 44, 82
16, 69018, Note_on_c, 15, 44, 0
16, 69024, Note_on_c, 15, 44, 82
16, 69114, Note_on_c, 15, 44, 0
16, 69120, Note_on_c, 15, 45, 82
16, 69210, Note_on_c, 15, 45, 0
16, 69216, Note_on_c, 15, 45, 82
16, 69306, Note_on_c, 15, 45, 0
16, 69312, Note_on_c, 15, 48, 82
16, 69402, Note_on_c, 15, 48, 0
16, 69408, Note_on_c, 15, 48, 82
16, 69498, Note_on_c, 15, 48, 0
16, 69504, Note_on_c, 15, 47, 82
16, 69594, Note_on_c, 15, 47, 0
16, 69600, Note_on_c, 15, 47, 82
16, 69690, Note_on_c, 15, 47, 0
16, 69696, Note_on_c, 15, 42, 82
16, 69786, Note_on_c, 15, 42, 0
16, 69792, Note_on_c, 15, 42, 82
16, 69882, Note_on_c, 15, 42, 0
16, 69888, Note_on_c, 15, 43, 82
16, 69978, Note_on_c, 15, 43, 0
16, 69984, Note_on_c, 15, 43, 82
16, 70074, Note_on_c, 15, 43, 0
16, 70080, Note_on_c, 15, 41, 82
16, 70170, Note_on_c, 15, 41, 0
16, 70176, Note_on_c, 15, 41, 82
16, 70266, Note_on_c, 15, 41, 0
16, 70272, Note_on_c, 15, 40, 82
16, 70362, Note_on_c, 15, 40, 0
16, 70368, Note_on_c, 15, 40, 82
16, 70458, Note_on_c, 15, 40, 0
16, 70464, Note_on_c, 15, 35, 82
16, 70554, Note_on_c, 15, 35, 0
16, 70560, Note_on_c, 15, 35, 82
16, 70650, Note_on_c, 15, 35, 0
16, 70656, Note_on_c, 15, 36, 82
16, 70746, Note_on_c, 15, 36, 0
16, 70752, Note_on_c, 15, 36, 82
16, 70842, Note_on_c, 15, 36, 0
16, 70848, Note_on_c, 15, 36, 82
16, 70938, Note_on_c, 15, 36, 0
16, 70944, Note_on_c, 15, 36, 82
16, 71034, Note_on_c, 15, 36, 0
16, 71040, Note_on_c, 15, 36, 82
16, 71130, Note_on_c, 15, 36, 0
16, 71136, Note_on_c, 15, 36, 82
16, 71226, Note_on_c, 15, 36, 0
16, 71232, Note_on_c, 15, 36, 82
16, 71322, Note_on_c, 15, 36, 0
16, 71328, Note_on_c, 15, 36, 82
16, 71418, Note_on_c, 15, 36, 0
16, 71424, Note_on_c, 15, 36, 82
16, 71514, Note_on_c, 15, 36, 0
16, 71520, Note_on_c, 15, 36, 82
16, 71610, Note_on_c, 15, 36, 0
16, 71616, Note_on_c, 15, 36, 82
16, 71706, Note_on_c, 15, 36, 0
16, 71712, Note_on_c, 15, 36, 82
16, 71802, Note_on_c, 15, 36, 0
16, 71808, Note_on_c, 15, 36, 82
16, 71898, Note_on_c, 15, 36, 0
16, 71904, Note_on_c, 15, 36, 82
16, 71994, Note_on_c, 15, 36, 0
16, 72000, Note_on_c, 15, 36, 82
16, 72090, Note_on_c, 15, 36, 0
16, 72096, Note_on_c, 15, 36, 82
16, 72186, Note_on_c, 15, 36, 0
16, 72192, Note_on_c, 15, 37, 82
16, 72282, Note_on_c, 15, 37, 0
16, 72288, Note_on_c, 15, 37, 82
16, 72378, Note_on_c, 15, 37, 0
16, 72384, Note_on_c, 15, 37, 82
16, 72474, Note_on_c, 15, 37, 0
16, 72480, Note_on_c, 15, 37, 82
16, 72570, Note_on_c, 15, 37, 0
16, 72576, Note_on_c, 15, 37, 82
16, 72666, Note_on_c, 15, 37, 0
16, 72672, Note_on_c, 15, 37, 82
16, 72762, Note_on_c, 15, 37, 0
16, 72768, Note_on_c, 15, 37, 82
16, 72858, Note_on_c, 15, 37, 0
16, 72864, Note_on_c, 15, 37, 82
16, 72954, Note_on_c, 15, 37, 0
16, 72960, Note_on_c, 15, 37, 82
16, 73138, Note_on_c, 15, 37, 0
16, 73728, Note_on_c, 15, 50, 82
16, 73818, Note_on_c, 15, 50, 0
16, 73824, Note_on_c, 15, 50, 82
16, 73914, Note_on_c, 15, 50, 0
16, 73920, Note_on_c, 15, 51, 82
16, 74010, Note_on_c, 15, 51, 0
16, 74016, Note_on_c, 15, 51, 82
16, 74106, Note_on_c, 15, 51, 0
16, 74112, Note_on_c, 15, 50, 82
16, 74202, Note_on_c, 15, 50, 0
16, 74208, Note_on_c, 15, 50, 82
16, 74298, Note_on_c, 15, 50, 0
16, 74304, Note_on_c, 15, 49, 82
16, 74394, Note_on_c, 15, 49, 0
16, 74400, Note_on_c, 15, 49, 82
16, 74490, Note_on_c, 15, 49, 0
16, 74496, Note_on_c, 15, 50, 82
16, 74586, Note_on_c, 15, 50, 0
16, 74592, Note_on_c, 15, 50, 82
16, 74682, Note_on_c, 15, 50, 0
16, 74688, Note_on_c, 15, 51, 82
16, 74778, Note_on_c, 15, 51, 0
16, 74784, Note_on_c, 15, 51, 82
16, 74874, Note_on_c, 15, 51, 0
16, 74880, Note_on_c, 15, 50, 82
16, 74970, Note_on_c, 15, 50, 0
16, 74976, Note_on_c, 15, 50, 82
16, 75066, Note_on_c, 15, 50, 0
16, 75072, Note_on_c, 15, 49, 82
16, 75162, Note_on_c, 15, 49, 0
16, 75168, Note_on_c, 15, 49, 82
16, 75258, Note_on_c, 15, 49, 0
16, 75264, Note_on_c, 15, 50, 82
16, 75354, Note_on_c, 15, 50, 0
16, 75360, Note_on_c, 15, 50, 82
16, 75450, Note_on_c, 15, 50, 0
16, 75456, Note_on_c, 15, 51, 82
16, 75546, Note_on_c, 15, 51, 0
16, 75552, Note_on_c, 15, 51, 82
16, 75642, Note_on_c, 15, 51, 0
16, 75648, Note_on_c, 15, 50, 82
16, 75738, Note_on_c, 15, 50, 0
16, 75744, Note_on_c, 15, 50, 82
16, 75834, Note_on_c, 15, 50, 0
16, 75840, Note_on_c, 15, 49, 82
16, 75930, Note_on_c, 15, 49, 0
16, 75936, Note_on_c, 15, 49, 82
16, 76026, Note_on_c, 15, 49, 0
16, 76032, Note_on_c, 15, 50, 82
16, 76166, Note_on_c, 15, 50, 0
16, 76416, Note_on_c, 15, 47, 82
16, 76546, Note_on_c, 15, 47, 0
16, 76608, Note_on_c, 15, 43, 82
16, 76738, Note_on_c, 15, 43, 0
16, 76800, Note_on_c, 15, 38, 82
16, 76978, Note_on_c, 15, 38, 0
16, 79104, Note_on_c, 15, 38, 47
16, 79842, Note_on_c, 15, 38, 0
16, 79872, Note_on_c, 15, 43, 82
16, 79962, Note_on_c, 15, 43, 0
16, 79968, Note_on_c, 15, 43, 82
16, 80058, Note_on_c, 15, 43, 0
16, 80064, Note_on_c, 15, 43, 82
16, 80154, Note_on_c, 15, 43, 0
16, 80160, Note_on_c, 15, 43, 82
16, 80250, Note_on_c, 15, 43, 0
16, 80256, Note_on_c, 15, 43, 82
16, 80346, Note_on_c, 15, 43, 0
16, 80352, Note_on_c, 15, 43, 82
16, 80442, Note_on_c, 15, 43, 0
16, 80448, Note_on_c, 15, 43, 82
16, 80538, Note_on_c, 15, 43, 0
16, 80544, Note_on_c, 15, 43, 82
16, 80634, Note_on_c, 15, 43, 0
16, 80640, Note_on_c, 15, 43, 82
16, 80730, Note_on_c, 15, 43, 0
16, 80736, Note_on_c, 15, 43, 82
16, 80826, Note_on_c, 15, 43, 0
16, 80832, Note_on_c, 15, 43, 82
16, 80922, Note_on_c, 15, 43, 0
16, 80928, Note_on_c, 15, 43, 82
16, 81018, Note_on_c, 15, 43, 0
16, 81024, Note_on_c, 15, 43, 82
16, 81114, Note_on_c, 15, 43, 0
16, 81120, Note_on_c, 15, 43, 82
16, 81210, Note_on_c, 15, 43, 0
16, 81216, Note_on_c, 15, 43, 82
16, 81306, Note_on_c, 15, 43, 0
16, 81312, Note_on_c, 15, 43, 82
16, 81402, Note_on_c, 15, 43, 0
16, 81408, Note_on_c, 15, 43, 82
16, 81498, Note_on_c, 15, 43, 0
16, 81504, Note_on_c, 15, 43, 82
16, 81594, Note_on_c, 15, 43, 0
16, 81600, Note_on_c, 15, 43, 82
16, 81690, Note_on_c, 15, 43, 0
16, 81696, Note_on_c, 15, 43, 82
16, 81786, Note_on_c, 15, 43, 0
16, 81792, Note_on_c, 15, 43, 82
16, 81882, Note_on_c, 15, 43, 0
16, 81888, Note_on_c, 15, 43, 82
16, 81978, Note_on_c, 15, 43, 0
16, 81984, Note_on_c, 15, 43, 82
16, 82074, Note_on_c, 15, 43, 0
16, 82080, Note_on_c, 15, 43, 82
16, 82170, Note_on_c, 15, 43, 0
16, 82176, Note_on_c, 15, 43, 82
16, 82266, Note_on_c, 15, 43, 0
16, 82272, Note_on_c, 15, 43, 82
16, 82362, Note_on_c, 15, 43, 0
16, 82368, Note_on_c, 15, 43, 82
16, 82458, Note_on_c, 15, 43, 0
16, 82464, Note_on_c, 15, 43, 82
16, 82554, Note_on_c, 15, 43, 0
16, 82560, Note_on_c, 15, 43, 82
16, 82650, Note_on_c, 15, 43, 0
16, 82656, Note_on_c, 15, 43, 82
16, 82746, Note_on_c, 15, 43, 0
16, 82752, Note_on_c, 15, 43, 82
16, 82842, Note_on_c, 15, 43, 0
16, 82848, Note_on_c, 15, 43, 82
16, 82938, Note_on_c, 15, 43, 0
16, 82944, Note_on_c, 15, 43, 82
16, 83122, Note_on_c, 15, 43, 0
16, 83520, Note_on_c, 15, 38, 82
16, 83652, Note_on_c, 15, 38, 0
16, 83712, Note_on_c, 15, 43, 82
16, 83886, Note_on_c, 15, 43, 0
16, 84288, Note_on_c, 15, 38, 82
16, 84420, Note_on_c, 15, 38, 0
16, 84480, Note_on_c, 15, 43, 82
16, 84654, Note_on_c, 15, 43, 0
16, 85056, Note_on_c, 15, 38, 82
16, 85188, Note_on_c, 15, 38, 0
16, 85248, Note_on_c, 15, 43, 82
16, 85422, Note_on_c, 15, 43, 0
16, 85824, Note_on_c, 15, 38, 82
16, 85956, Note_on_c, 15, 38, 0
16, 86016, Note_on_c, 15, 43, 82
16, 86194, Note_on_c, 15, 43, 0
16, 87072, Note_on_c, 15, 47, 103
16, 87118, Note_on_c, 15, 47, 0
16, 87168, Note_on_c, 15, 50, 103
16, 87214, Note_on_c, 15, 50, 0
16, 87264, Note_on_c, 15, 43, 103
16, 87310, Note_on_c, 15, 43, 0
16, 87360, Note_on_c, 15, 47, 103
16, 87406, Note_on_c, 15, 47, 0
16, 87456, Note_on_c, 15, 38, 103
16, 87502, Note_on_c, 15, 38, 0
16, 87552, Note_on_c, 15, 41, 96
16, 87552, Control_c, 15, 11, 127
16, 87761, Control_c, 15, 11, 121
16, 87796, Control_c, 15, 11, 120
16, 87813, Control_c, 15, 11, 117
16, 87822, Control_c, 15, 11, 114
16, 87840, Control_c, 15, 11, 113
16, 87848, Control_c, 15, 11, 107
16, 87866, Control_c, 15, 11, 102
16, 87892, Control_c, 15, 11, 93
16, 87901, Control_c, 15, 11, 90
16, 87918, Control_c, 15, 11, 84
16, 87927, Control_c, 15, 11, 81
16, 87936, Note_on_c, 15, 41, 0
16, 87936, Note_on_c, 15, 38, 84
16, 87944, Control_c, 15, 11, 78
16, 87970, Control_c, 15, 11, 74
16, 87979, Control_c, 15, 11, 69
16, 87997, Control_c, 15, 11, 66
16, 88005, Control_c, 15, 11, 65
16, 88076, Note_on_c, 15, 38, 0
16, 88128, Note_on_c, 15, 35, 83
16, 88262, Note_on_c, 15, 35, 0
16, 88320, Note_on_c, 15, 32, 82
16, 88512, Note_on_c, 15, 32, 0
16, 88512, Note_on_c, 15, 31, 81
16, 88646, Note_on_c, 15, 31, 0
16, 88704, Note_on_c, 15, 32, 80
16, 88896, Note_on_c, 15, 32, 0
16, 88896, Note_on_c, 15, 31, 79
16, 89030, Note_on_c, 15, 31, 0
16, 89088, Note_on_c, 15, 41, 97
16, 89096, Control_c, 15, 11, 123
16, 89140, Control_c, 15, 11, 124
16, 89157, Control_c, 15, 11, 127
16, 89218, Control_c, 15, 11, 125
16, 89236, Control_c, 15, 11, 120
16, 89245, Control_c, 15, 11, 119
16, 89271, Control_c, 15, 11, 116
16, 89288, Control_c, 15, 11, 114
16, 89306, Control_c, 15, 11, 112
16, 89314, Control_c, 15, 11, 110
16, 89323, Control_c, 15, 11, 107
16, 89332, Control_c, 15, 11, 104
16, 89341, Control_c, 15, 11, 102
16, 89349, Control_c, 15, 11, 99
16, 89358, Control_c, 15, 11, 96
16, 89367, Control_c, 15, 11, 94
16, 89376, Control_c, 15, 11, 91
16, 89384, Control_c, 15, 11, 88
16, 89393, Control_c, 15, 11, 85
16, 89402, Control_c, 15, 11, 83
16, 89410, Control_c, 15, 11, 80
16, 89419, Control_c, 15, 11, 77
16, 89428, Control_c, 15, 11, 75
16, 89437, Control_c, 15, 11, 72
16, 89445, Control_c, 15, 11, 69
16, 89454, Control_c, 15, 11, 66
16, 89472, Note_on_c, 15, 41, 0
16, 89472, Note_on_c, 15, 38, 79
16, 89612, Note_on_c, 15, 38, 0
16, 89664, Note_on_c, 15, 35, 78
16, 89798, Note_on_c, 15, 35, 0
16, 89856, Note_on_c, 15, 32, 77
16, 90048, Note_on_c, 15, 32, 0
16, 90048, Note_on_c, 15, 31, 76
16, 90182, Note_on_c, 15, 31, 0
16, 90240, Note_on_c, 15, 32, 74
16, 90432, Note_on_c, 15, 32, 0
16, 90432, Note_on_c, 15, 31, 73
16, 90566, Note_on_c, 15, 31, 0
16, 90624, Note_on_c, 15, 43, 96
16, 90632, Control_c, 15, 11, 120
16, 90650, Control_c, 15, 11, 123
16, 90658, Control_c, 15, 11, 127
16, 90702, Control_c, 15, 11, 127
16, 90711, Control_c, 15, 11, 126
16, 90720, Control_c, 15, 11, 124
16, 90728, Control_c, 15, 11, 122
16, 90737, Control_c, 15, 11, 120
16, 90746, Control_c, 15, 11, 118
16, 90754, Control_c, 15, 11, 117
16, 90763, Control_c, 15, 11, 115
16, 90772, Control_c, 15, 11, 113
16, 90781, Control_c, 15, 11, 111
16, 90789, Control_c, 15, 11, 109
16, 90798, Control_c, 15, 11, 107
16, 90807, Control_c, 15, 11, 106
16, 90816, Control_c, 15, 11, 104
16, 90824, Control_c, 15, 11, 102
16, 90833, Control_c, 15, 11, 100
16, 90842, Control_c, 15, 11, 98
16, 90850, Control_c, 15, 11, 96
16, 90859, Control_c, 15, 11, 95
16, 90868, Control_c, 15, 11, 93
16, 90877, Control_c, 15, 11, 91
16, 90885, Control_c, 15, 11, 89
16, 90894, Control_c, 15, 11, 87
16, 90903, Control_c, 15, 11, 86
16, 90912, Control_c, 15, 11, 84
16, 90920, Control_c, 15, 11, 82
16, 90929, Control_c, 15, 11, 80
16, 90938, Control_c, 15, 11, 78
16, 90946, Control_c, 15, 11, 76
16, 90955, Control_c, 15, 11, 75
16, 90964, Control_c, 15, 11, 73
16, 90973, Control_c, 15, 11, 71
16, 90981, Control_c, 15, 11, 69
16, 90990, Control_c, 15, 11, 67
16, 90999, Control_c, 15, 11, 65
16, 91008, Note_on_c, 15, 43, 0
16, 91008, Note_on_c, 15, 39, 84
16, 91148, Note_on_c, 15, 39, 0
16, 91200, Note_on_c, 15, 36, 82
16, 91334, Note_on_c, 15, 36, 0
16, 91392, Note_on_c, 15, 32, 81
16, 91584, Note_on_c, 15, 32, 0
16, 91584, Note_on_c, 15, 31, 79
16, 91718, Note_on_c, 15, 31, 0
16, 91776, Note_on_c, 15, 32, 78
16, 91968, Note_on_c, 15, 32, 0
16, 91968, Note_on_c, 15, 31, 76
16, 92102, Note_on_c, 15, 31, 0
16, 92160, Note_on_c, 15, 43, 95
16, 92177, Control_c, 15, 11, 123
16, 92194, Control_c, 15, 11, 126
16, 92203, Control_c, 15, 11, 127
16, 92290, Control_c, 15, 11, 126
16, 92299, Control_c, 15, 11, 124
16, 92308, Control_c, 15, 11, 122
16, 92317, Control_c, 15, 11, 120
16, 92325, Control_c, 15, 11, 118
16, 92334, Control_c, 15, 11, 116
16, 92343, Control_c, 15, 11, 114
16, 92352, Control_c, 15, 11, 111
16, 92360, Control_c, 15, 11, 109
16, 92369, Control_c, 15, 11, 107
16, 92378, Control_c, 15, 11, 105
16, 92386, Control_c, 15, 11, 103
16, 92395, Control_c, 15, 11, 101
16, 92404, Control_c, 15, 11, 99
16, 92413, Control_c, 15, 11, 96
16, 92421, Control_c, 15, 11, 94
16, 92430, Control_c, 15, 11, 92
16, 92439, Control_c, 15, 11, 90
16, 92448, Control_c, 15, 11, 88
16, 92456, Control_c, 15, 11, 86
16, 92465, Control_c, 15, 11, 84
16, 92474, Control_c, 15, 11, 81
16, 92482, Control_c, 15, 11, 79
16, 92491, Control_c, 15, 11, 77
16, 92500, Control_c, 15, 11, 75
16, 92509, Control_c, 15, 11, 73
16, 92517, Control_c, 15, 11, 71
16, 92526, Control_c, 15, 11, 68
16, 92544, Note_on_c, 15, 43, 0
16, 92544, Note_on_c, 15, 39, 81
16, 92684, Note_on_c, 15, 39, 0
16, 92736, Note_on_c, 15, 36, 80
16, 92870, Note_on_c, 15, 36, 0
16, 92928, Note_on_c, 15, 32, 78
16, 93120, Note_on_c, 15, 32, 0
16, 93120, Note_on_c, 15, 31, 77
16, 93254, Note_on_c, 15, 31, 0
16, 93312, Note_on_c, 15, 32, 75
16, 93504, Note_on_c, 15, 32, 0
16, 93504, Note_on_c, 15, 31, 74
16, 93638, Note_on_c, 15, 31, 0
16, 93696, Note_on_c, 15, 43, 96
16, 93722, Control_c, 15, 11, 126
16, 93730, Control_c, 15, 11, 127
16, 93826, Control_c, 15, 11, 125
16, 93835, Control_c, 15, 11, 123
16, 93844, Control_c, 15, 11, 121
16, 93853, Control_c, 15, 11, 119
16, 93861, Control_c, 15, 11, 117
16, 93870, Control_c, 15, 11, 115
16, 93879, Control_c, 15, 11, 113
16, 93888, Control_c, 15, 11, 111
16, 93896, Control_c, 15, 11, 109
16, 93905, Control_c, 15, 11, 107
16, 93914, Control_c, 15, 11, 105
16, 93922, Control_c, 15, 11, 103
16, 93931, Control_c, 15, 11, 101
16, 93940, Control_c, 15, 11, 99
16, 93949, Control_c, 15, 11, 97
16, 93957, Control_c, 15, 11, 95
16, 93966, Control_c, 15, 11, 93
16, 93975, Control_c, 15, 11, 91
16, 93984, Control_c, 15, 11, 89
16, 93992, Control_c, 15, 11, 87
16, 94001, Control_c, 15, 11, 85
16, 94010, Control_c, 15, 11, 83
16, 94018, Control_c, 15, 11, 81
16, 94027, Control_c, 15, 11, 79
16, 94036, Control_c, 15, 11, 77
16, 94045, Control_c, 15, 11, 75
16, 94053, Control_c, 15, 11, 73
16, 94062, Control_c, 15, 11, 71
16, 94080, Note_on_c, 15, 43, 0
16, 94080, Note_on_c, 15, 39, 84
16, 94220, Note_on_c, 15, 39, 0
16, 94272, Note_on_c, 15, 34, 82
16, 94406, Note_on_c, 15, 34, 0
16, 94464, Note_on_c, 15, 32, 80
16, 94656, Note_on_c, 15, 32, 0
16, 94656, Note_on_c, 15, 31, 78
16, 94790, Note_on_c, 15, 31, 0
16, 94848, Note_on_c, 15, 32, 75
16, 95040, Note_on_c, 15, 32, 0
16, 95040, Note_on_c, 15, 31, 73
16, 95174, Note_on_c, 15, 31, 0
16, 95232, Note_on_c, 15, 43, 95
16, 95232, Control_c, 15, 11, 127
16, 95406, Control_c, 15, 11, 126
16, 95415, Control_c, 15, 11, 124
16, 95424, Control_c, 15, 11, 122
16, 95432, Control_c, 15, 11, 120
16, 95441, Control_c, 15, 11, 117
16, 95450, Control_c, 15, 11, 115
16, 95458, Control_c, 15, 11, 112
16, 95467, Control_c, 15, 11, 110
16, 95476, Control_c, 15, 11, 108
16, 95485, Control_c, 15, 11, 105
16, 95493, Control_c, 15, 11, 103
16, 95502, Control_c, 15, 11, 100
16, 95511, Control_c, 15, 11, 98
16, 95520, Control_c, 15, 11, 96
16, 95528, Control_c, 15, 11, 93
16, 95537, Control_c, 15, 11, 91
16, 95546, Control_c, 15, 11, 88
16, 95554, Control_c, 15, 11, 86
16, 95563, Control_c, 15, 11, 84
16, 95572, Control_c, 15, 11, 81
16, 95581, Control_c, 15, 11, 79
16, 95589, Control_c, 15, 11, 76
16, 95598, Control_c, 15, 11, 74
16, 95607, Control_c, 15, 11, 71
16, 95616, Note_on_c, 15, 43, 0
16, 95616, Control_c, 15, 11, 72
16, 95616, Note_on_c, 15, 39, 81
16, 95756, Note_on_c, 15, 39, 0
16, 95808, Note_on_c, 15, 34, 79
16, 95942, Note_on_c, 15, 34, 0
16, 96000, Note_on_c, 15, 32, 78
16, 96192, Note_on_c, 15, 32, 0
16, 96192, Note_on_c, 15, 31, 76
16, 96326, Note_on_c, 15, 31, 0
16, 96384, Note_on_c, 15, 32, 75
16, 96576, Note_on_c, 15, 32, 0
16, 96576, Note_on_c, 15, 31, 73
16, 96710, Note_on_c, 15, 31, 0
16, 96768, Note_on_c, 15, 32, 70
16, 96946, Note_on_c, 15, 32, 0
16, 97008, Program_c, 15, 45
16, 97032, Control_c, 15, 11, 112
16, 97152, Note_on_c, 15, 44, 47
16, 97330, Note_on_c, 15, 44, 0
16, 97536, Note_on_c, 15, 44, 47
16, 97714, Note_on_c, 15, 44, 0
16, 97920, Note_on_c, 15, 44, 47
16, 98098, Note_on_c, 15, 44, 0
16, 98304, Note_on_c, 15, 43, 47
16, 98482, Note_on_c, 15, 43, 0
16, 98688, Note_on_c, 15, 43, 47
16, 98866, Note_on_c, 15, 43, 0
16, 99072, Note_on_c, 15, 43, 47
16, 99250, Note_on_c, 15, 43, 0
16, 99456, Note_on_c, 15, 43, 47
16, 99634, Note_on_c, 15, 43, 0
16, 99840, Note_on_c, 15, 44, 47
16, 100018, Note_on_c, 15, 44, 0
16, 100224, Note_on_c, 15, 44, 47
16, 100402, Note_on_c, 15, 44, 0
16, 100608, Note_on_c, 15, 44, 47
16, 100786, Note_on_c, 15, 44, 0
16, 100992, Note_on_c, 15, 44, 47
16, 101170, Note_on_c, 15, 44, 0
16, 101376, Note_on_c, 15, 43, 47
16, 101554, Note_on_c, 15, 43, 0
16, 101760, Note_on_c, 15, 43, 47
16, 101938, Note_on_c, 15, 43, 0
16, 102144, Note_on_c, 15, 43, 47
16, 102322, Note_on_c, 15, 43, 0
16, 102528, Note_on_c, 15, 43, 47
16, 102706, Note_on_c, 15, 43, 0
16, 102912, Note_on_c, 15, 44, 48
16, 103090, Note_on_c, 15, 44, 0
16, 103680, Note_on_c, 15, 44, 48
16, 103858, Note_on_c, 15, 44, 0
16, 104064, Note_on_c, 15, 44, 48
16, 104256, Note_on_c, 15, 44, 0
16, 104448, Note_on_c, 15, 43, 48
16, 104626, Note_on_c, 15, 43, 0
16, 105216, Note_on_c, 15, 40, 48
16, 105394, Note_on_c, 15, 40, 0
16, 105600, Note_on_c, 15, 36, 48
16, 105792, Note_on_c, 15, 36, 0
16, 105984, Note_on_c, 15, 41, 48
16, 106162, Note_on_c, 15, 41, 0
16, 106752, Note_on_c, 15, 44, 48
16, 106930, Note_on_c, 15, 44, 0
16, 107136, Note_on_c, 15, 41, 48
16, 107314, Note_on_c, 15, 41, 0
16, 107520, Note_on_c, 15, 43, 48
16, 107698, Note_on_c, 15, 43, 0
16, 108288, Note_on_c, 15, 43, 48
16, 108466, Note_on_c, 15, 43, 0
16, 108672, Note_on_c, 15, 41, 48
16, 108850, Note_on_c, 15, 41, 0
16, 109056, Note_on_c, 15, 39, 48
16, 109234, Note_on_c, 15, 39, 0
16, 109824, Note_on_c, 15, 39, 48
16, 110002, Note_on_c, 15, 39, 0
16, 110208, Note_on_c, 15, 36, 48
16, 110386, Note_on_c, 15, 36, 0
16, 110592, Note_on_c, 15, 35, 48
16, 110770, Note_on_c, 15, 35, 0
16, 111360, Note_on_c, 15, 31, 48
16, 111538, Note_on_c, 15, 31, 0
16, 111744, Note_on_c, 15, 35, 48
16, 111922, Note_on_c, 15, 35, 0
16, 112128, Note_on_c, 15, 36, 48
16, 112306, Note_on_c, 15, 36, 0
16, 112512, Note_on_c, 15, 34, 48
16, 112690, Note_on_c, 15, 34, 0
16, 112896, Note_on_c, 15, 32, 50
16, 113074, Note_on_c, 15, 32, 0
16, 113280, Note_on_c, 15, 44, 49
16, 113458, Note_on_c, 15, 44, 0
16, 113664, Note_on_c, 15, 43, 54
16, 113832, Note_on_c, 15, 43, 0
16, 115968, Program_c, 15, 48
16, 116016, Control_c, 15, 11, 127
16, 116736, Note_on_c, 15, 43, 49
16, 116902, Note_on_c, 15, 43, 0
16, 117120, Note_on_c, 15, 43, 49
16, 117286, Note_on_c, 15, 43, 0
16, 117504, Note_on_c, 15, 43, 49
16, 117670, Note_on_c, 15, 43, 0
16, 118272, Note_on_c, 15, 43, 45
16, 118438, Note_on_c, 15, 43, 0
16, 118656, Note_on_c, 15, 43, 45
16, 118822, Note_on_c, 15, 43, 0
16, 119040, Note_on_c, 15, 43, 45
16, 119206, Note_on_c, 15, 43, 0
16, 121344, Note_on_c, 15, 48, 103
16, 121752, Note_on_c, 15, 48, 0
16, 122064, Note_on_c, 15, 36, 103
16, 122094, Note_on_c, 15, 36, 0
16, 122112, Note_on_c, 15, 36, 103
16, 122644, Note_on_c, 15, 36, 0
16, 122832, Note_on_c, 15, 31, 103
16, 122848, Note_on_c, 15, 31, 0
16, 122848, Note_on_c, 15, 33, 103
16, 122864, Note_on_c, 15, 33, 0
16, 122864, Note_on_c, 15, 35, 103
16, 122880, Note_on_c, 15, 35, 0
16, 122880, Note_on_c, 15, 36, 103
16, 122970, Note_on_c, 15, 36, 0
16, 123072, Note_on_c, 15, 40, 103
16, 123162, Note_on_c, 15, 40, 0
16, 123264, Note_on_c, 15, 43, 103
16, 123354, Note_on_c, 15, 43, 0
16, 123456, Note_on_c, 15, 48, 103
16, 123546, Note_on_c, 15, 48, 0
16, 123616, Note_on_c, 15, 48, 103
16, 123648, Note_on_c, 15, 48, 0
16, 123648, Note_on_c, 15, 47, 103
16, 123672, Note_on_c, 15, 47, 0
16, 123672, Note_on_c, 15, 48, 103
16, 123696, Note_on_c, 15, 48, 0
16, 123696, Note_on_c, 15, 47, 103
16, 123756, Note_on_c, 15, 47, 0
16, 123792, Note_on_c, 15, 45, 103
16, 123826, Note_on_c, 15, 45, 0
16, 123840, Note_on_c, 15, 43, 103
16, 123988, Note_on_c, 15, 43, 0
16, 124368, Note_on_c, 15, 31, 119
16, 124384, Note_on_c, 15, 31, 0
16, 124384, Note_on_c, 15, 33, 119
16, 124400, Note_on_c, 15, 33, 0
16, 124400, Note_on_c, 15, 35, 119
16, 124416, Note_on_c, 15, 35, 0
16, 124416, Note_on_c, 15, 36, 119
16, 124506, Note_on_c, 15, 36, 0
16, 124608, Note_on_c, 15, 40, 119
16, 124698, Note_on_c, 15, 40, 0
16, 124800, Note_on_c, 15, 43, 119
16, 124890, Note_on_c, 15, 43, 0
16, 124992, Note_on_c, 15, 48, 119
16, 125082, Note_on_c, 15, 48, 0
16, 125152, Note_on_c, 15, 48, 119
16, 125184, Note_on_c, 15, 48, 0
16, 125184, Note_on_c, 15, 47, 119
16, 125208, Note_on_c, 15, 47, 0
16, 125208, Note_on_c, 15, 48, 119
16, 125232, Note_on_c, 15, 48, 0
16, 125232, Note_on_c, 15, 47, 119
16, 125292, Note_on_c, 15, 47, 0
16, 125328, Note_on_c, 15, 45, 119
16, 125362, Note_on_c, 15, 45, 0
16, 125376, Note_on_c, 15, 43, 119
16, 125524, Note_on_c, 15, 43, 0
16, 125904, Note_on_c, 15, 31, 119
16, 125928, Note_on_c, 15, 31, 0
16, 125928, Note_on_c, 15, 33, 119
16, 125952, Note_on_c, 15, 33, 0
16, 125952, Note_on_c, 15, 34, 119
16, 126042, Note_on_c, 15, 34, 0
16, 126144, Note_on_c, 15, 40, 119
16, 126234, Note_on_c, 15, 40, 0
16, 126336, Note_on_c, 15, 43, 119
16, 126426, Note_on_c, 15, 43, 0
16, 126528, Note_on_c, 15, 46, 119
16, 126618, Note_on_c, 15, 46, 0
16, 126688, Note_on_c, 15, 46, 119
16, 126720, Note_on_c, 15, 46, 0
16, 126720, Note_on_c, 15, 45, 119
16, 126744, Note_on_c, 15, 45, 0
16, 126744, Note_on_c, 15, 46, 119
16, 126768, Note_on_c, 15, 46, 0
16, 126768, Note_on_c, 15, 45, 119
16, 126828, Note_on_c, 15, 45, 0
16, 126864, Note_on_c, 15, 43, 119
16, 126898, Note_on_c, 15, 43, 0
16, 126912, Note_on_c, 15, 41, 119
16, 127060, Note_on_c, 15, 41, 0
16, 127440, Note_on_c, 15, 29, 119
16, 127464, Note_on_c, 15, 29, 0
16, 127464, Note_on_c, 15, 31, 119
16, 127488, Note_on_c, 15, 31, 0
16, 127488, Note_on_c, 15, 32, 119
16, 127578, Note_on_c, 15, 32, 0
16, 127680, Note_on_c, 15, 36, 119
16, 127770, Note_on_c, 15, 36, 0
16, 127872, Note_on_c, 15, 41, 119
16, 127962, Note_on_c, 15, 41, 0
16, 128064, Note_on_c, 15, 44, 119
16, 128154, Note_on_c, 15, 44, 0
16, 128224, Note_on_c, 15, 44, 119
16, 128256, Note_on_c, 15, 44, 0
16, 128256, Note_on_c, 15, 43, 119
16, 128280, Note_on_c, 15, 43, 0
16, 128280, Note_on_c, 15, 44, 119
16, 128304, Note_on_c, 15, 44, 0
16, 128304, Note_on_c, 15, 43, 119
16, 128364, Note_on_c, 15, 43, 0
16, 128400, Note_on_c, 15, 41, 119
16, 128434, Note_on_c, 15, 41, 0
16, 128448, Note_on_c, 15, 39, 119
16, 128596, Note_on_c, 15, 39, 0
16, 128976, Note_on_c, 15, 36, 119
16, 129000, Note_on_c, 15, 36, 0
16, 129000, Note_on_c, 15, 38, 119
16, 129024, Note_on_c, 15, 38, 0
16, 129024, Note_on_c, 15, 39, 119
16, 129114, Note_on_c, 15, 39, 0
16, 129216, Note_on_c, 15, 43, 119
16, 129306, Note_on_c, 15, 43, 0
16, 129408, Note_on_c, 15, 48, 119
16, 129498, Note_on_c, 15, 48, 0
16, 129600, Note_on_c, 15, 51, 119
16, 129690, Note_on_c, 15, 51, 0
16, 129760, Note_on_c, 15, 43, 119
16, 129792, Note_on_c, 15, 43, 0
16, 129792, Note_on_c, 15, 42, 119
16, 129816, Note_on_c, 15, 42, 0
16, 129816, Note_on_c, 15, 43, 119
16, 129840, Note_on_c, 15, 43, 0
16, 129840, Note_on_c, 15, 42, 119
16, 129900, Note_on_c, 15, 42, 0
16, 129936, Note_on_c, 15, 43, 119
16, 129970, Note_on_c, 15, 43, 0
16, 129984, Note_on_c, 15, 45, 119
16, 130132, Note_on_c, 15, 45, 0
16, 130512, Note_on_c, 15, 38, 120
16, 130536, Note_on_c, 15, 38, 0
16, 130536, Note_on_c, 15, 40, 120
16, 130560, Note_on_c, 15, 40, 0
16, 130560, Note_on_c, 15, 42, 120
16, 130650, Note_on_c, 15, 42, 0
16, 130752, Note_on_c, 15, 45, 120
16, 130842, Note_on_c, 15, 45, 0
16, 130944, Note_on_c, 15, 48, 119
16, 131034, Note_on_c, 15, 48, 0
16, 131136, Note_on_c, 15, 42, 119
16, 131226, Note_on_c, 15, 42, 0
16, 131328, Note_on_c, 15, 43, 119
16, 131382, Note_on_c, 15, 43, 0
16, 131424, Note_on_c, 15, 47, 119
16, 131478, Note_on_c, 15, 47, 0
16, 131520, Note_on_c, 15, 42, 119
16, 131574, Note_on_c, 15, 42, 0
16, 131616, Note_on_c, 15, 38, 119
16, 131670, Note_on_c, 15, 38, 0
16, 131712, Note_on_c, 15, 43, 118
16, 131766, Note_on_c, 15, 43, 0
16, 131808, Note_on_c, 15, 47, 118
16, 131862, Note_on_c, 15, 47, 0
16, 131904, Note_on_c, 15, 42, 118
16, 131958, Note_on_c, 15, 42, 0
16, 132000, Note_on_c, 15, 38, 118
16, 132054, Note_on_c, 15, 38, 0
16, 132096, Note_on_c, 15, 43, 118
16, 132150, Note_on_c, 15, 43, 0
16, 132192, Note_on_c, 15, 47, 118
16, 132246, Note_on_c, 15, 47, 0
16, 132288, Note_on_c, 15, 42, 118
16, 132342, Note_on_c, 15, 42, 0
16, 132384, Note_on_c, 15, 38, 118
16, 132438, Note_on_c, 15, 38, 0
16, 132480, Note_on_c, 15, 43, 117
16, 132534, Note_on_c, 15, 43, 0
16, 132576, Note_on_c, 15, 47, 117
16, 132630, Note_on_c, 15, 47, 0
16, 132672, Note_on_c, 15, 42, 117
16, 132726, Note_on_c, 15, 42, 0
16, 132768, Note_on_c, 15, 38, 117
16, 132822, Note_on_c, 15, 38, 0
16, 133632, Note_on_c, 15, 31, 116
16, 133810, Note_on_c, 15, 31, 0
16, 134400, Note_on_c, 15, 31, 116
16, 134808, Note_on_c, 15, 31, 0
16, 134880, Note_on_c, 15, 33, 116
16, 134926, Note_on_c, 15, 33, 0
16, 134928, Note_on_c, 15, 35, 116
16, 134974, Note_on_c, 15, 35, 0
16, 134976, Note_on_c, 15, 36, 116
16, 135022, Note_on_c, 15, 36, 0
16, 135024, Note_on_c, 15, 38, 116
16, 135070, Note_on_c, 15, 38, 0
16, 135072, Note_on_c, 15, 40, 116
16, 135118, Note_on_c, 15, 40, 0
16, 135120, Note_on_c, 15, 42, 116
16, 135150, Note_on_c, 15, 42, 0
16, 135168, Note_on_c, 15, 43, 116
16, 135346, Note_on_c, 15, 43, 0
16, 135552, Note_on_c, 15, 43, 47
16, 135744, Note_on_c, 15, 43, 0
16, 135744, Note_on_c, 15, 42, 47
16, 135936, Note_on_c, 15, 42, 0
16, 135936, Note_on_c, 15, 41, 47
16, 136128, Note_on_c, 15, 41, 0
16, 136128, Note_on_c, 15, 40, 47
16, 136320, Note_on_c, 15, 40, 0
16, 136320, Note_on_c, 15, 41, 47
16, 136512, Note_on_c, 15, 41, 0
16, 136512, Note_on_c, 15, 38, 47
16, 136668, Note_on_c, 15, 38, 0
16, 136704, Note_on_c, 15, 36, 47
16, 138374, Note_on_c, 15, 36, 0
16, 138624, Note_on_c, 15, 33, 47
16, 138758, Note_on_c, 15, 33, 0
16, 139008, Note_on_c, 15, 38, 47
16, 139142, Note_on_c, 15, 38, 0
16, 139392, Note_on_c, 15, 31, 47
16, 139526, Note_on_c, 15, 31, 0
16, 139776, Note_on_c, 15, 36, 47
16, 139910, Note_on_c, 15, 36, 0
16, 140160, Note_on_c, 15, 33, 47
16, 140294, Note_on_c, 15, 33, 0
16, 140544, Note_on_c, 15, 29, 47
16, 140870, Note_on_c, 15, 29, 0
16, 140928, Note_on_c, 15, 31, 47
16, 141048, Note_on_c, 15, 31, 0
16, 141120, Note_on_c, 15, 31, 47
16, 141240, Note_on_c, 15, 31, 0
16, 141312, Note_on_c, 15, 36, 57
16, 141432, Note_on_c, 15, 36, 0
16, 141504, Note_on_c, 15, 48, 57
16, 141624, Note_on_c, 15, 48, 0
16, 142848, Note_on_c, 15, 36, 47
16, 144518, Note_on_c, 15, 36, 0
16, 144768, Note_on_c, 15, 45, 47
16, 144902, Note_on_c, 15, 45, 0
16, 145152, Note_on_c, 15, 38, 47
16, 145286, Note_on_c, 15, 38, 0
16, 145536, Note_on_c, 15, 43, 47
16, 145670, Note_on_c, 15, 43, 0
16, 145920, Note_on_c, 15, 36, 47
16, 146054, Note_on_c, 15, 36, 0
16, 146304, Note_on_c, 15, 45, 47
16, 146438, Note_on_c, 15, 45, 0
16, 146688, Note_on_c, 15, 41, 47
16, 146844, Note_on_c, 15, 41, 0
16, 147072, Note_on_c, 15, 43, 47
16, 147228, Note_on_c, 15, 43, 0
16, 147456, Note_on_c, 15, 45, 47
16, 147612, Note_on_c, 15, 45, 0
16, 148224, Note_on_c, 15, 43, 44
16, 148380, Note_on_c, 15, 43, 0
16, 148608, Note_on_c, 15, 45, 47
16, 148764, Note_on_c, 15, 45, 0
16, 148992, Note_on_c, 15, 40, 47
16, 149148, Note_on_c, 15, 40, 0
16, 150720, Note_on_c, 15, 52, 48
16, 150810, Note_on_c, 15, 52, 0
16, 150912, Note_on_c, 15, 52, 48
16, 151002, Note_on_c, 15, 52, 0
16, 151104, Note_on_c, 15, 52, 48
16, 151194, Note_on_c, 15, 52, 0
16, 151296, Note_on_c, 15, 52, 48
16, 151488, Note_on_c, 15, 52, 0
16, 151488, Note_on_c, 15, 53, 48
16, 151622, Note_on_c, 15, 53, 0
16, 152832, Note_on_c, 15, 43, 48
16, 153216, Note_on_c, 15, 43, 0
16, 153216, Note_on_c, 15, 31, 48
16, 153570, Note_on_c, 15, 31, 0
16, 153600, Note_on_c, 15, 36, 48
16, 153778, Note_on_c, 15, 36, 0
16, 153936, Note_on_c, 15, 52, 65
16, 153960, Note_on_c, 15, 52, 0
16, 153960, Note_on_c, 15, 53, 65
16, 153984, Note_on_c, 15, 53, 0
16, 153984, Note_on_c, 15, 55, 65
16, 154200, Note_on_c, 15, 55, 0
16, 154272, Note_on_c, 15, 55, 47
16, 154326, Note_on_c, 15, 55, 0
16, 154368, Note_on_c, 15, 53, 47
16, 154458, Note_on_c, 15, 53, 0
16, 154560, Note_on_c, 15, 52, 47
16, 154650, Note_on_c, 15, 52, 0
16, 154752, Note_on_c, 15, 50, 47
16, 154842, Note_on_c, 15, 50, 0
16, 154944, Note_on_c, 15, 53, 47
16, 155034, Note_on_c, 15, 53, 0
16, 155136, Note_on_c, 15, 52, 47
16, 155314, Note_on_c, 15, 52, 0
16, 155472, Note_on_c, 15, 40, 64
16, 155496, Note_on_c, 15, 40, 0
16, 155496, Note_on_c, 15, 41, 64
16, 155520, Note_on_c, 15, 41, 0
16, 155520, Note_on_c, 15, 43, 64
16, 155718, Note_on_c, 15, 43, 0
16, 155808, Note_on_c, 15, 43, 47
16, 155862, Note_on_c, 15, 43, 0
16, 155904, Note_on_c, 15, 41, 47
16, 155994, Note_on_c, 15, 41, 0
16, 156096, Note_on_c, 15, 40, 47
16, 156186, Note_on_c, 15, 40, 0
16, 156288, Note_on_c, 15, 38, 47
16, 156378, Note_on_c, 15, 38, 0
16, 156480, Note_on_c, 15, 41, 47
16, 156570, Note_on_c, 15, 41, 0
16, 156672, Note_on_c, 15, 40, 47
16, 156850, Note_on_c, 15, 40, 0
16, 157008, Note_on_c, 15, 48, 65
16, 157032, Note_on_c, 15, 48, 0
16, 157032, Note_on_c, 15, 50, 65
16, 157056, Note_on_c, 15, 50, 0
16, 157056, Note_on_c, 15, 52, 65
16, 157272, Note_on_c, 15, 52, 0
16, 157344, Note_on_c, 15, 52, 47
16, 157398, Note_on_c, 15, 52, 0
16, 157440, Note_on_c, 15, 50, 47
16, 157530, Note_on_c, 15, 50, 0
16, 157632, Note_on_c, 15, 48, 47
16, 157722, Note_on_c, 15, 48, 0
16, 157824, Note_on_c, 15, 47, 47
16, 157914, Note_on_c, 15, 47, 0
16, 158016, Note_on_c, 15, 50, 47
16, 158106, Note_on_c, 15, 50, 0
16, 158208, Note_on_c, 15, 48, 47
16, 158386, Note_on_c, 15, 48, 0
16, 158544, Note_on_c, 15, 40, 65
16, 158568, Note_on_c, 15, 40, 0
16, 158568, Note_on_c, 15, 41, 65
16, 158592, Note_on_c, 15, 41, 0
16, 158592, Note_on_c, 15, 43, 65
16, 158790, Note_on_c, 15, 43, 0
16, 158880, Note_on_c, 15, 43, 47
16, 158934, Note_on_c, 15, 43, 0
16, 158976, Note_on_c, 15, 41, 47
16, 159066, Note_on_c, 15, 41, 0
16, 159168, Note_on_c, 15, 40, 47
16, 159258, Note_on_c, 15, 40, 0
16, 159360, Note_on_c, 15, 38, 47
16, 159450, Note_on_c, 15, 38, 0
16, 159552, Note_on_c, 15, 41, 47
16, 159642, Note_on_c, 15, 41, 0
16, 159744, Note_on_c, 15, 52, 47
16, 159922, Note_on_c, 15, 52, 0
16, 160608, Note_on_c, 15, 40, 117
16, 160654, Note_on_c, 15, 40, 0
16, 160704, Note_on_c, 15, 52, 117
16, 160750, Note_on_c, 15, 52, 0
16, 160800, Note_on_c, 15, 52, 117
16, 160846, Note_on_c, 15, 52, 0
16, 160896, Note_on_c, 15, 52, 117
16, 160942, Note_on_c, 15, 52, 0
16, 160992, Note_on_c, 15, 52, 117
16, 161038, Note_on_c, 15, 52, 0
16, 161088, Note_on_c, 15, 52, 117
16, 161134, Note_on_c, 15, 52, 0
16, 161184, Note_on_c, 15, 52, 117
16, 161230, Note_on_c, 15, 52, 0
16, 161280, Note_on_c, 15, 53, 117
16, 161326, Note_on_c, 15, 53, 0
16, 161376, Note_on_c, 15, 53, 117
16, 161422, Note_on_c, 15, 53, 0
16, 161472, Note_on_c, 15, 52, 117
16, 161518, Note_on_c, 15, 52, 0
16, 161568, Note_on_c, 15, 52, 113
16, 161614, Note_on_c, 15, 52, 0
16, 161664, Note_on_c, 15, 53, 113
16, 161710, Note_on_c, 15, 53, 0
16, 161760, Note_on_c, 15, 53, 113
16, 161806, Note_on_c, 15, 53, 0
16, 161856, Note_on_c, 15, 49, 113
16, 161902, Note_on_c, 15, 49, 0
16, 161952, Note_on_c, 15, 49, 113
16, 161998, Note_on_c, 15, 49, 0
16, 162048, Note_on_c, 15, 50, 113
16, 162094, Note_on_c, 15, 50, 0
16, 162144, Note_on_c, 15, 50, 113
16, 162190, Note_on_c, 15, 50, 0
16, 162240, Note_on_c, 15, 53, 113
16, 162286, Note_on_c, 15, 53, 0
16, 162336, Note_on_c, 15, 53, 113
16, 162382, Note_on_c, 15, 53, 0
16, 162432, Note_on_c, 15, 52, 113
16, 162478, Note_on_c, 15, 52, 0
16, 162528, Note_on_c, 15, 52, 113
16, 162574, Note_on_c, 15, 52, 0
16, 162624, Note_on_c, 15, 47, 113
16, 162670, Note_on_c, 15, 47, 0
16, 162720, Note_on_c, 15, 47, 113
16, 162766, Note_on_c, 15, 47, 0
16, 162816, Note_on_c, 15, 48, 113
16, 162862, Note_on_c, 15, 48, 0
16, 162912, Note_on_c, 15, 48, 113
16, 162958, Note_on_c, 15, 48, 0
16, 163008, Note_on_c, 15, 50, 113
16, 163054, Note_on_c, 15, 50, 0
16, 163104, Note_on_c, 15, 50, 113
16, 163150, Note_on_c, 15, 50, 0
16, 163200, Note_on_c, 15, 48, 113
16, 163246, Note_on_c, 15, 48, 0
16, 163296, Note_on_c, 15, 48, 113
16, 163342, Note_on_c, 15, 48, 0
16, 163392, Note_on_c, 15, 44, 113
16, 163438, Note_on_c, 15, 44, 0
16, 163488, Note_on_c, 15, 44, 113
16, 163534, Note_on_c, 15, 44, 0
16, 163584, Note_on_c, 15, 45, 113
16, 163638, Note_on_c, 15, 45, 0
16, 163680, Note_on_c, 15, 45, 113
16, 163734, Note_on_c, 15, 45, 0
16, 163776, Note_on_c, 15, 45, 113
16, 163830, Note_on_c, 15, 45, 0
16, 163872, Note_on_c, 15, 45, 113
16, 163926, Note_on_c, 15, 45, 0
16, 163968, Note_on_c, 15, 41, 113
16, 164022, Note_on_c, 15, 41, 0
16, 164064, Note_on_c, 15, 41, 113
16, 164118, Note_on_c, 15, 41, 0
16, 164160, Note_on_c, 15, 41, 113
16, 164214, Note_on_c, 15, 41, 0
16, 164256, Note_on_c, 15, 41, 113
16, 164310, Note_on_c, 15, 41, 0
16, 164352, Note_on_c, 15, 43, 112
16, 164406, Note_on_c, 15, 43, 0
16, 164448, Note_on_c, 15, 43, 112
16, 164502, Note_on_c, 15, 43, 0
16, 164544, Note_on_c, 15, 43, 112
16, 164598, Note_on_c, 15, 43, 0
16, 164640, Note_on_c, 15, 43, 112
16, 164694, Note_on_c, 15, 43, 0
16, 164736, Note_on_c, 15, 43, 112
16, 164790, Note_on_c, 15, 43, 0
16, 164832, Note_on_c, 15, 43, 112
16, 164886, Note_on_c, 15, 43, 0
16, 164928, Note_on_c, 15, 43, 112
16, 164982, Note_on_c, 15, 43, 0
16, 165024, Note_on_c, 15, 43, 112
16, 165078, Note_on_c, 15, 43, 0
16, 165120, Note_on_c, 15, 43, 112
16, 165174, Note_on_c, 15, 43, 0
16, 165216, Note_on_c, 15, 43, 112
16, 165270, Note_on_c, 15, 43, 0
16, 165312, Note_on_c, 15, 43, 112
16, 165366, Note_on_c, 15, 43, 0
16, 165408, Note_on_c, 15, 43, 112
16, 165462, Note_on_c, 15, 43, 0
16, 165504, Note_on_c, 15, 43, 112
16, 165558, Note_on_c, 15, 43, 0
16, 165600, Note_on_c, 15, 43, 112
16, 165654, Note_on_c, 15, 43, 0
16, 165696, Note_on_c, 15, 43, 112
16, 165750, Note_on_c, 15, 43, 0
16, 165792, Note_on_c, 15, 43, 112
16, 165846, Note_on_c, 15, 43, 0
16, 165888, Note_on_c, 15, 36, 112
16, 166066, Note_on_c, 15, 36, 0
16, 166752, Note_on_c, 15, 40, 112
16, 166798, Note_on_c, 15, 40, 0
16, 166848, Note_on_c, 15, 52, 112
16, 166894, Note_on_c, 15, 52, 0
16, 166944, Note_on_c, 15, 52, 112
16, 166990, Note_on_c, 15, 52, 0
16, 167040, Note_on_c, 15, 52, 112
16, 167086, Note_on_c, 15, 52, 0
16, 167136, Note_on_c, 15, 52, 111
16, 167182, Note_on_c, 15, 52, 0
16, 167232, Note_on_c, 15, 52, 110
16, 167278, Note_on_c, 15, 52, 0
16, 167328, Note_on_c, 15, 52, 110
16, 167374, Note_on_c, 15, 52, 0
16, 167424, Note_on_c, 15, 53, 110
16, 167470, Note_on_c, 15, 53, 0
16, 167520, Note_on_c, 15, 53, 110
16, 167566, Note_on_c, 15, 53, 0
16, 167616, Note_on_c, 15, 52, 110
16, 167662, Note_on_c, 15, 52, 0
16, 167712, Note_on_c, 15, 52, 110
16, 167758, Note_on_c, 15, 52, 0
16, 167808, Note_on_c, 15, 53, 110
16, 167854, Note_on_c, 15, 53, 0
16, 167904, Note_on_c, 15, 53, 110
16, 167950, Note_on_c, 15, 53, 0
16, 168000, Note_on_c, 15, 49, 110
16, 168046, Note_on_c, 15, 49, 0
16, 168096, Note_on_c, 15, 49, 110
16, 168142, Note_on_c, 15, 49, 0
16, 168192, Note_on_c, 15, 50, 110
16, 168238, Note_on_c, 15, 50, 0
16, 168288, Note_on_c, 15, 50, 110
16, 168334, Note_on_c, 15, 50, 0
16, 168384, Note_on_c, 15, 53, 110
16, 168430, Note_on_c, 15, 53, 0
16, 168480, Note_on_c, 15, 53, 110
16, 168526, Note_on_c, 15, 53, 0
16, 168576, Note_on_c, 15, 52, 110
16, 168622, Note_on_c, 15, 52, 0
16, 168672, Note_on_c, 15, 52, 110
16, 168718, Note_on_c, 15, 52, 0
16, 168768, Note_on_c, 15, 47, 110
16, 168814, Note_on_c, 15, 47, 0
16, 168864, Note_on_c, 15, 47, 110
16, 168910, Note_on_c, 15, 47, 0
16, 168960, Note_on_c, 15, 48, 110
16, 169006, Note_on_c, 15, 48, 0
16, 169056, Note_on_c, 15, 48, 110
16, 169102, Note_on_c, 15, 48, 0
16, 169152, Note_on_c, 15, 50, 110
16, 169198, Note_on_c, 15, 50, 0
16, 169248, Note_on_c, 15, 50, 110
16, 169294, Note_on_c, 15, 50, 0
16, 169344, Note_on_c, 15, 48, 110
16, 169390, Note_on_c, 15, 48, 0
16, 169440, Note_on_c, 15, 48, 110
16, 169486, Note_on_c, 15, 48, 0
16, 169536, Note_on_c, 15, 44, 110
16, 169582, Note_on_c, 15, 44, 0
16, 169632, Note_on_c, 15, 44, 110
16, 169678, Note_on_c, 15, 44, 0
16, 169728, Note_on_c, 15, 45, 110
16, 169788, Note_on_c, 15, 45, 0
16, 169824, Note_on_c, 15, 45, 110
16, 169884, Note_on_c, 15, 45, 0
16, 169920, Note_on_c, 15, 45, 110
16, 169980, Note_on_c, 15, 45, 0
16, 170016, Note_on_c, 15, 45, 110
16, 170076, Note_on_c, 15, 45, 0
16, 170112, Note_on_c, 15, 45, 110
16, 170172, Note_on_c, 15, 45, 0
16, 170208, Note_on_c, 15, 45, 110
16, 170268, Note_on_c, 15, 45, 0
16, 170304, Note_on_c, 15, 45, 110
16, 170364, Note_on_c, 15, 45, 0
16, 170400, Note_on_c, 15, 45, 110
16, 170460, Note_on_c, 15, 45, 0
16, 170496, Note_on_c, 15, 46, 110
16, 170556, Note_on_c, 15, 46, 0
16, 170592, Note_on_c, 15, 46, 110
16, 170652, Note_on_c, 15, 46, 0
16, 170688, Note_on_c, 15, 46, 110
16, 170748, Note_on_c, 15, 46, 0
16, 170784, Note_on_c, 15, 46, 110
16, 170844, Note_on_c, 15, 46, 0
16, 170880, Note_on_c, 15, 46, 110
16, 170940, Note_on_c, 15, 46, 0
16, 170976, Note_on_c, 15, 46, 110
16, 171036, Note_on_c, 15, 46, 0
16, 171072, Note_on_c, 15, 46, 110
16, 171132, Note_on_c, 15, 46, 0
16, 171168, Note_on_c, 15, 46, 109
16, 171228, Note_on_c, 15, 46, 0
16, 171264, Note_on_c, 15, 44, 109
16, 171324, Note_on_c, 15, 44, 0
16, 171360, Note_on_c, 15, 44, 109
16, 171420, Note_on_c, 15, 44, 0
16, 171456, Note_on_c, 15, 44, 109
16, 171516, Note_on_c, 15, 44, 0
16, 171552, Note_on_c, 15, 44, 109
16, 171612, Note_on_c, 15, 44, 0
16, 171648, Note_on_c, 15, 44, 109
16, 171708, Note_on_c, 15, 44, 0
16, 171744, Note_on_c, 15, 44, 109
16, 171804, Note_on_c, 15, 44, 0
16, 171840, Note_on_c, 15, 44, 109
16, 171900, Note_on_c, 15, 44, 0
16, 171936, Note_on_c, 15, 44, 109
16, 171996, Note_on_c, 15, 44, 0
16, 172032, Note_on_c, 15, 42, 109
16, 172092, Note_on_c, 15, 42, 0
16, 172128, Note_on_c, 15, 42, 109
16, 172188, Note_on_c, 15, 42, 0
16, 172224, Note_on_c, 15, 42, 109
16, 172284, Note_on_c, 15, 42, 0
16, 172320, Note_on_c, 15, 42, 109
16, 172380, Note_on_c, 15, 42, 0
16, 172416, Note_on_c, 15, 42, 109
16, 172476, Note_on_c, 15, 42, 0
16, 172512, Note_on_c, 15, 42, 108
16, 172572, Note_on_c, 15, 42, 0
16, 172608, Note_on_c, 15, 42, 109
16, 172668, Note_on_c, 15, 42, 0
16, 172704, Note_on_c, 15, 42, 109
16, 172764, Note_on_c, 15, 42, 0
16, 172800, Note_on_c, 15, 43, 109
16, 172860, Note_on_c, 15, 43, 0
16, 172896, Note_on_c, 15, 43, 109
16, 172956, Note_on_c, 15, 43, 0
16, 172992, Note_on_c, 15, 44, 109
16, 173052, Note_on_c, 15, 44, 0
16, 173088, Note_on_c, 15, 44, 109
16, 173148, Note_on_c, 15, 44, 0
16, 173184, Note_on_c, 15, 43, 109
16, 173244, Note_on_c, 15, 43, 0
16, 173280, Note_on_c, 15, 43, 109
16, 173340, Note_on_c, 15, 43, 0
16, 173376, Note_on_c, 15, 42, 109
16, 173436, Note_on_c, 15, 42, 0
16, 173472, Note_on_c, 15, 42, 109
16, 173532, Note_on_c, 15, 42, 0
16, 173568, Note_on_c, 15, 43, 109
16, 173628, Note_on_c, 15, 43, 0
16, 173664, Note_on_c, 15, 43, 109
16, 173724, Note_on_c, 15, 43, 0
16, 173760, Note_on_c, 15, 44, 109
16, 173820, Note_on_c, 15, 44, 0
16, 173856, Note_on_c, 15, 44, 109
16, 173916, Note_on_c, 15, 44, 0
16, 173952, Note_on_c, 15, 43, 109
16, 174012, Note_on_c, 15, 43, 0
16, 174048, Note_on_c, 15, 43, 109
16, 174108, Note_on_c, 15, 43, 0
16, 174144, Note_on_c, 15, 42, 109
16, 174204, Note_on_c, 15, 42, 0
16, 174240, Note_on_c, 15, 42, 109
16, 174300, Note_on_c, 15, 42, 0
16, 174336, Note_on_c, 15, 43, 109
16, 174396, Note_on_c, 15, 43, 0
16, 174432, Note_on_c, 15, 43, 109
16, 174492, Note_on_c, 15, 43, 0
16, 174528, Note_on_c, 15, 44, 109
16, 174588, Note_on_c, 15, 44, 0
16, 174624, Note_on_c, 15, 44, 109
16, 174684, Note_on_c, 15, 44, 0
16, 174720, Note_on_c, 15, 43, 109
16, 174780, Note_on_c, 15, 43, 0
16, 174816, Note_on_c, 15, 43, 109
16, 174876, Note_on_c, 15, 43, 0
16, 174912, Note_on_c, 15, 42, 109
16, 174972, Note_on_c, 15, 42, 0
16, 175008, Note_on_c, 15, 42, 109
16, 175068, Note_on_c, 15, 42, 0
16, 175104, Note_on_c, 15, 43, 109
16, 175234, Note_on_c, 15, 43, 0
16, 175296, Note_on_c, 15, 43, 108
16, 175426, Note_on_c, 15, 43, 0
16, 175488, Note_on_c, 15, 40, 108
16, 175618, Note_on_c, 15, 40, 0
16, 175680, Note_on_c, 15, 36, 108
16, 175810, Note_on_c, 15, 36, 0
16, 175872, Note_on_c, 15, 31, 108
16, 176006, Note_on_c, 15, 31, 0
16, 178176, Note_on_c, 15, 43, 47
16, 178926, Note_on_c, 15, 43, 0
16, 178944, Note_on_c, 15, 36, 103
16, 179022, Note_on_c, 15, 36, 0
16, 179040, Note_on_c, 15, 36, 103
16, 179118, Note_on_c, 15, 36, 0
16, 179136, Note_on_c, 15, 36, 103
16, 179214, Note_on_c, 15, 36, 0
16, 179232, Note_on_c, 15, 36, 103
16, 179310, Note_on_c, 15, 36, 0
16, 179328, Note_on_c, 15, 36, 103
16, 179406, Note_on_c, 15, 36, 0
16, 179424, Note_on_c, 15, 36, 103
16, 179502, Note_on_c, 15, 36, 0
16, 179520, Note_on_c, 15, 36, 103
16, 179598, Note_on_c, 15, 36, 0
16, 179616, Note_on_c, 15, 36, 103
16, 179694, Note_on_c, 15, 36, 0
16, 179712, Note_on_c, 15, 36, 103
16, 179790, Note_on_c, 15, 36, 0
16, 179808, Note_on_c, 15, 36, 103
16, 179886, Note_on_c, 15, 36, 0
16, 179904, Note_on_c, 15, 36, 103
16, 179982, Note_on_c, 15, 36, 0
16, 180000, Note_on_c, 15, 36, 103
16, 180078, Note_on_c, 15, 36, 0
16, 180096, Note_on_c, 15, 36, 103
16, 180174, Note_on_c, 15, 36, 0
16, 180192, Note_on_c, 15, 36, 103
16, 180270, Note_on_c, 15, 36, 0
16, 180288, Note_on_c, 15, 36, 103
16, 180366, Note_on_c, 15, 36, 0
16, 180384, Note_on_c, 15, 36, 103
16, 180462, Note_on_c, 15, 36, 0
16, 180480, Note_on_c, 15, 36, 103
16, 180558, Note_on_c, 15, 36, 0
16, 180576, Note_on_c, 15, 36, 103
16, 180654, Note_on_c, 15, 36, 0
16, 180672, Note_on_c, 15, 36, 103
16, 180750, Note_on_c, 15, 36, 0
16, 180768, Note_on_c, 15, 36, 103
16, 180846, Note_on_c, 15, 36, 0
16, 180864, Note_on_c, 15, 36, 103
16, 180942, Note_on_c, 15, 36, 0
16, 180960, Note_on_c, 15, 36, 103
16, 181038, Note_on_c, 15, 36, 0
16, 181056, Note_on_c, 15, 36, 103
16, 181134, Note_on_c, 15, 36, 0
16, 181152, Note_on_c, 15, 36, 103
16, 181230, Note_on_c, 15, 36, 0
16, 181248, Note_on_c, 15, 36, 103
16, 181326, Note_on_c, 15, 36, 0
16, 181344, Note_on_c, 15, 36, 103
16, 181422, Note_on_c, 15, 36, 0
16, 181440, Note_on_c, 15, 36, 103
16, 181518, Note_on_c, 15, 36, 0
16, 181536, Note_on_c, 15, 36, 103
16, 181614, Note_on_c, 15, 36, 0
16, 181632, Note_on_c, 15, 36, 103
16, 181710, Note_on_c, 15, 36, 0
16, 181728, Note_on_c, 15, 36, 103
16, 181806, Note_on_c, 15, 36, 0
16, 181824, Note_on_c, 15, 36, 103
16, 181902, Note_on_c, 15, 36, 0
16, 181920, Note_on_c, 15, 36, 103
16, 181998, Note_on_c, 15, 36, 0
16, 182016, Note_on_c, 15, 48, 103
16, 182424, Note_on_c, 15, 48, 0
16, 182736, Note_on_c, 15, 36, 103
16, 182766, Note_on_c, 15, 36, 0
16, 182784, Note_on_c, 15, 36, 103
16, 183316, Note_on_c, 15, 36, 0
16, 183504, Note_on_c, 15, 31, 103
16, 183520, Note_on_c, 15, 31, 0
16, 183520, Note_on_c, 15, 33, 103
16, 183536, Note_on_c, 15, 33, 0
16, 183536, Note_on_c, 15, 35, 103
16, 183552, Note_on_c, 15, 35, 0
16, 183552, Note_on_c, 15, 36, 103
16, 183642, Note_on_c, 15, 36, 0
16, 183744, Note_on_c, 15, 40, 103
16, 183834, Note_on_c, 15, 40, 0
16, 183936, Note_on_c, 15, 43, 103
16, 184026, Note_on_c, 15, 43, 0
16, 184128, Note_on_c, 15, 48, 103
16, 184218, Note_on_c, 15, 48, 0
16, 184288, Note_on_c, 15, 48, 103
16, 184320, Note_on_c, 15, 48, 0
16, 184320, Note_on_c, 15, 47, 103
16, 184344, Note_on_c, 15, 47, 0
16, 184344, Note_on_c, 15, 48, 103
16, 184368, Note_on_c, 15, 48, 0
16, 184368, Note_on_c, 15, 47, 103
16, 184428, Note_on_c, 15, 47, 0
16, 184464, Note_on_c, 15, 45, 103
16, 184498, Note_on_c, 15, 45, 0
16, 184512, Note_on_c, 15, 43, 103
16, 184660, Note_on_c, 15, 43, 0
16, 184896, Note_on_c, 15, 48, 46
16, 184998, Note_on_c, 15, 48, 0
16, 185056, Note_on_c, 15, 48, 46
16, 185088, Note_on_c, 15, 48, 0
16, 185088, Note_on_c, 15, 47, 46
16, 185112, Note_on_c, 15, 47, 0
16, 185112, Note_on_c, 15, 48, 46
16, 185136, Note_on_c, 15, 48, 0
16, 185136, Note_on_c, 15, 47, 46
16, 185196, Note_on_c, 15, 47, 0
16, 185232, Note_on_c, 15, 45, 46
16, 185266, Note_on_c, 15, 45, 0
16, 185280, Note_on_c, 15, 43, 46
16, 185348, Note_on_c, 15, 43, 0
16, 185376, Note_on_c, 15, 48, 46
16, 185422, Note_on_c, 15, 48, 0
16, 185440, Note_on_c, 15, 48, 46
16, 185472, Note_on_c, 15, 48, 0
16, 185472, Note_on_c, 15, 47, 46
16, 185496, Note_on_c, 15, 47, 0
16, 185496, Note_on_c, 15, 48, 46
16, 185520, Note_on_c, 15, 48, 0
16, 185520, Note_on_c, 15, 47, 46
16, 185572, Note_on_c, 15, 47, 0
16, 185616, Note_on_c, 15, 45, 46
16, 185650, Note_on_c, 15, 45, 0
16, 185664, Note_on_c, 15, 43, 46
16, 185732, Note_on_c, 15, 43, 0
16, 185760, Note_on_c, 15, 48, 46
16, 185806, Note_on_c, 15, 48, 0
16, 185824, Note_on_c, 15, 48, 46
16, 185856, Note_on_c, 15, 48, 0
16, 185856, Note_on_c, 15, 47, 46
16, 185880, Note_on_c, 15, 47, 0
16, 185880, Note_on_c, 15, 48, 46
16, 185904, Note_on_c, 15, 48, 0
16, 185904, Note_on_c, 15, 47, 46
16, 185964, Note_on_c, 15, 47, 0
16, 186000, Note_on_c, 15, 45, 46
16, 186034, Note_on_c, 15, 45, 0
16, 186048, Note_on_c, 15, 43, 46
16, 186182, Note_on_c, 15, 43, 0
16, 186624, Note_on_c, 15, 41, 103
16, 186724, Note_on_c, 15, 41, 0
16, 186816, Note_on_c, 15, 41, 103
16, 186904, Note_on_c, 15, 41, 0
16, 186960, Note_on_c, 15, 41, 103
16, 186988, Note_on_c, 15, 41, 0
16, 187008, Note_on_c, 15, 41, 103
16, 187106, Note_on_c, 15, 41, 0
16, 187200, Note_on_c, 15, 41, 103
16, 187298, Note_on_c, 15, 41, 0
16, 187392, Note_on_c, 15, 41, 103
16, 187934, Note_on_c, 15, 41, 0
16, 188160, Note_on_c, 15, 41, 47
16, 188260, Note_on_c, 15, 41, 0
16, 188352, Note_on_c, 15, 41, 47
16, 188420, Note_on_c, 15, 41, 0
16, 188496, Note_on_c, 15, 41, 47
16, 188530, Note_on_c, 15, 41, 0
16, 188544, Note_on_c, 15, 41, 47
16, 188636, Note_on_c, 15, 41, 0
16, 188736, Note_on_c, 15, 41, 47
16, 188828, Note_on_c, 15, 41, 0
16, 188928, Note_on_c, 15, 41, 47
16, 189433, Note_on_c, 15, 41, 0
16, 189696, Note_on_c, 15, 43, 109
16, 189852, Note_on_c, 15, 43, 0
16, 190032, Note_on_c, 15, 43, 109
16, 190060, Note_on_c, 15, 43, 0
16, 190080, Note_on_c, 15, 45, 109
16, 190236, Note_on_c, 15, 45, 0
16, 190416, Note_on_c, 15, 45, 109
16, 190444, Note_on_c, 15, 45, 0
16, 190464, Note_on_c, 15, 41, 109
16, 190620, Note_on_c, 15, 41, 0
16, 190800, Note_on_c, 15, 41, 109
16, 190828, Note_on_c, 15, 41, 0
16, 190848, Note_on_c, 15, 43, 109
16, 191004, Note_on_c, 15, 43, 0
16, 191184, Note_on_c, 15, 43, 109
16, 191212, Note_on_c, 15, 43, 0
16, 191232, Note_on_c, 15, 36, 109
16, 191372, Note_on_c, 15, 36, 0
16, 191808, Note_on_c, 15, 43, 103
16, 191934, Note_on_c, 15, 43, 0
16, 192000, Note_on_c, 15, 48, 103
16, 192140, Note_on_c, 15, 48, 0
16, 192576, Note_on_c, 15, 43, 103
16, 192702, Note_on_c, 15, 43, 0
16, 192768, Note_on_c, 15, 36, 103
16, 192932, Note_on_c, 15, 36, 0
16, 193344, Note_on_c, 15, 43, 103
16, 193470, Note_on_c, 15, 43, 0
16, 193536, Note_on_c, 15, 48, 103
16, 193676, Note_on_c, 15, 48, 0
16, 194112, Note_on_c, 15, 43, 103
16, 194238, Note_on_c, 15, 43, 0
16, 194304, Note_on_c, 15, 36, 103
16, 194372, Note_on_c, 15, 36, 0
16, 194400, Note_on_c, 15, 36, 103
16, 194468, Note_on_c, 15, 36, 0
16, 194496, Note_on_c, 15, 36, 103
16, 194564, Note_on_c, 15, 36, 0
16, 194592, Note_on_c, 15, 36, 103
16, 194660, Note_on_c, 15, 36, 0
16, 194688, Note_on_c, 15, 36, 103
16, 194756, Note_on_c, 15, 36, 0
16, 194784, Note_on_c, 15, 36, 103
16, 194852, Note_on_c, 15, 36, 0
16, 194880, Note_on_c, 15, 36, 103
16, 194948, Note_on_c, 15, 36, 0
16, 194976, Note_on_c, 15, 36, 103
16, 195044, Note_on_c, 15, 36, 0
16, 195072, Note_on_c, 15, 36, 103
16, 195140, Note_on_c, 15, 36, 0
16, 195168, Note_on_c, 15, 36, 103
16, 195236, Note_on_c, 15, 36, 0
16, 195264, Note_on_c, 15, 36, 103
16, 195332, Note_on_c, 15, 36, 0
16, 195360, Note_on_c, 15, 36, 103
16, 195428, Note_on_c, 15, 36, 0
16, 195456, Note_on_c, 15, 36, 103
16, 195524, Note_on_c, 15, 36, 0
16, 195552, Note_on_c, 15, 36, 103
16, 195620, Note_on_c, 15, 36, 0
16, 195648, Note_on_c, 15, 36, 103
16, 195716, Note_on_c, 15, 36, 0
16, 195744, Note_on_c, 15, 36, 103
16, 195812, Note_on_c, 15, 36, 0
16, 195840, Note_on_c, 15, 36, 103
16, 195908, Note_on_c, 15, 36, 0
16, 195936, Note_on_c, 15, 36, 103
16, 196004, Note_on_c, 15, 36, 0
16, 196032, Note_on_c, 15, 36, 103
16, 196100, Note_on_c, 15, 36, 0
16, 196128, Note_on_c, 15, 36, 103
16, 196196, Note_on_c, 15, 36, 0
16, 196224, Note_on_c, 15, 36, 103
16, 196292, Note_on_c, 15, 36, 0
16, 196320, Note_on_c, 15, 36, 103
16, 196388, Note_on_c, 15, 36, 0
16, 196416, Note_on_c, 15, 36, 103
16, 196484, Note_on_c, 15, 36, 0
16, 196512, Note_on_c, 15, 36, 103
16, 196580, Note_on_c, 15, 36, 0
16, 196608, Note_on_c, 15, 36, 103
16, 196676, Note_on_c, 15, 36, 0
16, 196704, Note_on_c, 15, 36, 103
16, 196772, Note_on_c, 15, 36, 0
16, 196800, Note_on_c, 15, 36, 103
16, 196868, Note_on_c, 15, 36, 0
16, 196896, Note_on_c, 15, 36, 103
16, 196964, Note_on_c, 15, 36, 0
16, 196992, Note_on_c, 15, 36, 103
16, 197060, Note_on_c, 15, 36, 0
16, 197088, Note_on_c, 15, 36, 103
16, 197156, Note_on_c, 15, 36, 0
16, 197184, Note_on_c, 15, 36, 103
16, 197252, Note_on_c, 15, 36, 0
16, 197280, Note_on_c, 15, 36, 103
16, 197348, Note_on_c, 15, 36, 0
16, 197376, Note_on_c, 15, 36, 103
16, 197556, Note_on_c, 15, 36, 0
16, 197712, Note_on_c, 15, 31, 103
16, 197728, Note_on_c, 15, 31, 0
16, 197728, Note_on_c, 15, 33, 103
16, 197744, Note_on_c, 15, 33, 0
16, 197744, Note_on_c, 15, 35, 103
16, 197760, Note_on_c, 15, 35, 0
16, 197760, Note_on_c, 15, 36, 103
16, 197850, Note_on_c, 15, 36, 0
16, 197904, Note_on_c, 15, 36, 103
16, 197932, Note_on_c, 15, 36, 0
16, 197952, Note_on_c, 15, 40, 103
16, 198042, Note_on_c, 15, 40, 0
16, 198096, Note_on_c, 15, 40, 103
16, 198124, Note_on_c, 15, 40, 0
16, 198144, Note_on_c, 15, 43, 103
16, 198308, Note_on_c, 15, 43, 0
16, 198480, Note_on_c, 15, 36, 103
16, 198504, Note_on_c, 15, 36, 0
16, 198504, Note_on_c, 15, 38, 103
16, 198528, Note_on_c, 15, 38, 0
16, 198528, Note_on_c, 15, 40, 103
16, 198618, Note_on_c, 15, 40, 0
16, 198672, Note_on_c, 15, 40, 103
16, 198700, Note_on_c, 15, 40, 0
16, 198720, Note_on_c, 15, 43, 103
16, 198810, Note_on_c, 15, 43, 0
16, 198864, Note_on_c, 15, 43, 103
16, 198892, Note_on_c, 15, 43, 0
16, 198912, Note_on_c, 15, 48, 103
16, 199076, Note_on_c, 15, 48, 0
16, 199248, Note_on_c, 15, 40, 103
16, 199272, Note_on_c, 15, 40, 0
16, 199272, Note_on_c, 15, 41, 103
16, 199296, Note_on_c, 15, 41, 0
16, 199296, Note_on_c, 15, 43, 103
16, 199386, Note_on_c, 15, 43, 0
16, 199440, Note_on_c, 15, 43, 103
16, 199468, Note_on_c, 15, 43, 0
16, 199488, Note_on_c, 15, 48, 103
16, 199578, Note_on_c, 15, 48, 0
16, 199632, Note_on_c, 15, 48, 103
16, 199660, Note_on_c, 15, 48, 0
16, 199680, Note_on_c, 15, 52, 103
16, 199844, Note_on_c, 15, 52, 0
16, 200016, Note_on_c, 15, 43, 103
16, 200032, Note_on_c, 15, 43, 0
16, 200032, Note_on_c, 15, 45, 103
16, 200048, Note_on_c, 15, 45, 0
16, 200048, Note_on_c, 15, 47, 103
16, 200064, Note_on_c, 15, 47, 0
16, 200064, Note_on_c, 15, 48, 103
16, 200154, Note_on_c, 15, 48, 0
16, 200208, Note_on_c, 15, 48, 103
16, 200236, Note_on_c, 15, 48, 0
16, 200256, Note_on_c, 15, 52, 103
16, 200346, Note_on_c, 15, 52, 0
16, 200400, Note_on_c, 15, 52, 103
16, 200428, Note_on_c, 15, 52, 0
16, 200448, Note_on_c, 15, 55, 103
16, 200782, Note_on_c, 15, 55, 0
16, 200832, Note_on_c, 15, 52, 103
16, 200952, Note_on_c, 15, 52, 0
16, 201024, Note_on_c, 15, 48, 103
16, 201144, Note_on_c, 15, 48, 0
16, 201216, Note_on_c, 15, 43, 103
16, 201336, Note_on_c, 15, 43, 0
16, 201408, Note_on_c, 15, 48, 103
16, 201528, Note_on_c, 15, 48, 0
16, 201600, Note_on_c, 15, 40, 103
16, 201720, Note_on_c, 15, 40, 0
16, 201792, Note_on_c, 15, 43, 103
16, 201912, Note_on_c, 15, 43, 0
16, 201984, Note_on_c, 15, 36, 103
16, 202296, Note_on_c, 15, 36, 0
16, 202368, Note_on_c, 15, 36, 103
16, 202594, Note_on_c, 15, 36, 0
16, 202656, Note_on_c, 15, 36, 103
16, 202716, Note_on_c, 15, 36, 0
16, 202752, Note_on_c, 15, 36, 103
16, 203126, Note_on_c, 15, 36, 0
16, 204864, Control_c, 15, 121, 0
16, 204864, End_track
17, 0, Start_track
17, 0, MIDI_port, 0
17, 0, Title_t, "information"
17, 0, Text_t, ""
17, 192, Text_t, "Wolfgang Amadeus Mozart (1756-1791)"
17, 768, Text_t, "Symphony no. 34 in C major, K.338"
17, 816, Text_t, "I. Allegro vivace"
17, 1536, Text_t, "sequence copyright Jeremy Dimmick 2000 - June 2002"
17, 1728, Text_t, "fworld@clara.co.uk -- http://come.to/floatingworld"
17, 1728, End_track
18, 0, Start_track
18, 0, MIDI_port, 0
18, 0, Title_t, ""
18, 0, End_track
0, 0, End_of_file