0, 0, Header, 1, 11, 480
1, 0, Start_track
1, 0, Title_t, "Sample Custom Template"
1, 0, Copyright_t, "All Rights Reserved"
1, 0, Tempo, 410958
1, 0, Time_signature, 2, 2, 24, 8
1, 0, Key_signature, 2, "major"
1, 21120, Tempo, 428571
1, 23100, Tempo, 410958
1, 31980, Tempo, 422535
1, 32700, Tempo, 410958
1, 34620, Tempo, 428571
1, 35160, Tempo, 410958
1, 35880, Tempo, 422535
1, 36600, Tempo, 410958
1, 38520, Tempo, 428571
1, 39060, Tempo, 410958
1, 40500, Tempo, 428571
1, 41040, Tempo, 410958
1, 44400, Tempo, 428571
1, 52080, Tempo, 410958
1, 54000, Tempo, 416666
1, 54480, Tempo, 428571
1, 56040, Tempo, 410958
1, 77160, Tempo, 428571
1, 79140, Tempo, 410958
1, 88020, Tempo, 422535
1, 88740, Tempo, 410958
1, 90660, Tempo, 428571
1, 91200, Tempo, 410958
1, 91920, Tempo, 422535
1, 92640, Tempo, 410958
1, 94560, Tempo, 428571
1, 95100, Tempo, 410958
1, 96540, Tempo, 428571
1, 97080, Tempo, 410958
1, 100440, Tempo, 428571
1, 108120, Tempo, 410958
1, 110040, Tempo, 416666
1, 110520, Tempo, 428571
1, 112080, Tempo, 410958
1, 135120, Tempo, 434782
1, 139080, Tempo, 410958
1, 158340, Tempo, 428571
1, 171060, Tempo, 428571
1, 173700, Tempo, 441176
1, 174180, Tempo, 410958
1, 174960, Tempo, 428571
1, 177600, Tempo, 441176
1, 178080, Tempo, 410958
1, 178860, Tempo, 428571
1, 180840, Tempo, 410958
1, 186600, Tempo, 434782
1, 191160, Tempo, 428571
1, 192120, Tempo, 461538
1, 193080, Tempo, 500000
1, 193560, Tempo, 545454
1, 194040, Tempo, 600000
1, 194040, End_track
2, 0, Start_track
2, 0, Title_t, "3. Presto from"
2, 0, MIDI_port, 0
2, 0, Channel_prefix, 0
2, 0, Control_c, 0, 7, 127
2, 0, Control_c, 0, 10, 15
2, 0, Control_c, 0, 91, 60
2, 0, Program_c, 0, 50
2, 0, Note_on_c, 0, 74, 45
2, 80, Note_off_c, 0, 74, 64
2, 480, Note_on_c, 0, 78, 45
2, 560, Note_off_c, 0, 78, 64
2, 960, Note_on_c, 0, 76, 45
2, 1040, Note_off_c, 0, 76, 64
2, 1920, Note_on_c, 0, 79, 45
2, 2000, Note_off_c, 0, 79, 64
2, 2400, Note_on_c, 0, 73, 45
2, 2480, Note_off_c, 0, 73, 64
2, 2880, Note_on_c, 0, 74, 45
2, 2960, Note_off_c, 0, 74, 64
2, 3840, Note_on_c, 0, 81, 92
2, 4800, Note_off_c, 0, 81, 64
2, 4800, Note_on_c, 0, 79, 92
2, 5040, Note_off_c, 0, 79, 64
2, 5040, Note_on_c, 0, 78, 92
2, 5280, Note_off_c, 0, 78, 64
2, 5280, Note_on_c, 0, 76, 92
2, 5520, Note_off_c, 0, 76, 64
2, 5520, Note_on_c, 0, 74, 92
2, 5760, Note_off_c, 0, 74, 64
2, 5760, Note_on_c, 0, 73, 92
2, 6480, Note_off_c, 0, 73, 64
2, 6480, Note_on_c, 0, 74, 92
2, 6600, Note_off_c, 0, 74, 64
2, 6600, Note_on_c, 0, 76, 92
2, 6720, Note_off_c, 0, 76, 64
2, 6720, Note_on_c, 0, 74, 92
2, 7120, Note_off_c, 0, 74, 64
2, 7680, Note_on_c, 0, 81, 92
2, 8640, Note_off_c, 0, 81, 64
2, 8640, Note_on_c, 0, 79, 92
2, 8880, Note_off_c, 0, 79, 64
2, 8880, Note_on_c, 0, 78, 92
2, 9120, Note_off_c, 0, 78, 64
2, 9120, Note_on_c, 0, 76, 92
2, 9360, Note_off_c, 0, 76, 64
2, 9360, Note_on_c, 0, 74, 92
2, 9600, Note_off_c, 0, 74, 64
2, 9600, Note_on_c, 0, 76, 92
2, 10320, Note_off_c, 0, 76, 64
2, 10320, Note_on_c, 0, 78, 92
2, 10440, Note_off_c, 0, 78, 64
2, 10440, Note_on_c, 0, 79, 92
2, 10560, Note_off_c, 0, 79, 64
2, 10560, Note_on_c, 0, 78, 92
2, 10960, Note_off_c, 0, 78, 64
2, 11520, Note_on_c, 0, 83, 92
2, 11920, Note_off_c, 0, 83, 64
2, 12000, Note_on_c, 0, 86, 92
2, 12120, Note_off_c, 0, 86, 64
2, 12120, Note_on_c, 0, 85, 92
2, 12240, Note_off_c, 0, 85, 64
2, 12240, Note_on_c, 0, 83, 92
2, 12360, Note_off_c, 0, 83, 64
2, 12360, Note_on_c, 0, 85, 92
2, 12480, Note_off_c, 0, 85, 64
2, 12480, Note_on_c, 0, 86, 92
2, 12880, Note_off_c, 0, 86, 64
2, 13200, Note_on_c, 0, 74, 92
2, 13280, Note_off_c, 0, 74, 64
2, 13440, Note_on_c, 0, 76, 92
2, 14160, Note_off_c, 0, 76, 64
2, 14160, Note_on_c, 0, 78, 92
2, 14280, Note_off_c, 0, 78, 64
2, 14280, Note_on_c, 0, 79, 92
2, 14400, Note_off_c, 0, 79, 64
2, 14400, Note_on_c, 0, 78, 92
2, 14800, Note_off_c, 0, 78, 64
2, 15360, Note_on_c, 0, 83, 92
2, 15760, Note_off_c, 0, 83, 64
2, 15840, Note_on_c, 0, 86, 92
2, 15960, Note_off_c, 0, 86, 64
2, 15960, Note_on_c, 0, 85, 92
2, 16080, Note_off_c, 0, 85, 64
2, 16080, Note_on_c, 0, 83, 92
2, 16200, Note_off_c, 0, 83, 64
2, 16200, Note_on_c, 0, 85, 92
2, 16320, Note_off_c, 0, 85, 64
2, 16320, Note_on_c, 0, 86, 92
2, 16720, Note_off_c, 0, 86, 64
2, 17040, Note_on_c, 0, 74, 92
2, 17120, Note_off_c, 0, 74, 64
2, 17280, Note_on_c, 0, 76, 92
2, 18000, Note_off_c, 0, 76, 64
2, 18000, Note_on_c, 0, 78, 92
2, 18120, Note_off_c, 0, 78, 64
2, 18120, Note_on_c, 0, 79, 92
2, 18240, Note_off_c, 0, 79, 64
2, 18240, Note_on_c, 0, 78, 92
2, 18640, Note_off_c, 0, 78, 64
2, 19200, Note_on_c, 0, 78, 92
2, 19435, Note_off_c, 0, 78, 64
2, 19680, Note_on_c, 0, 80, 92
2, 19735, Note_off_c, 0, 80, 64
2, 19740, Note_on_c, 0, 81, 92
2, 19800, Note_off_c, 0, 81, 64
2, 19800, Note_on_c, 0, 80, 92
2, 19860, Note_off_c, 0, 80, 64
2, 19860, Note_on_c, 0, 81, 92
2, 19920, Note_off_c, 0, 81, 64
2, 19920, Note_on_c, 0, 80, 92
2, 19980, Note_off_c, 0, 80, 64
2, 19980, Note_on_c, 0, 81, 92
2, 20040, Note_off_c, 0, 81, 64
2, 20040, Note_on_c, 0, 78, 92
2, 20100, Note_off_c, 0, 78, 64
2, 20100, Note_on_c, 0, 80, 92
2, 20160, Note_off_c, 0, 80, 64
2, 20160, Note_on_c, 0, 81, 92
2, 20240, Note_off_c, 0, 81, 64
2, 20400, Note_on_c, 0, 81, 92
2, 20640, Note_off_c, 0, 81, 64
2, 20640, Note_on_c, 0, 83, 92
2, 20880, Note_off_c, 0, 83, 64
2, 20880, Note_on_c, 0, 85, 92
2, 21120, Note_off_c, 0, 85, 64
2, 21120, Note_on_c, 0, 86, 92
2, 21200, Note_off_c, 0, 86, 64
2, 21600, Note_on_c, 0, 85, 92
2, 21680, Note_off_c, 0, 85, 64
2, 22080, Note_on_c, 0, 83, 92
2, 22160, Note_off_c, 0, 83, 64
2, 24300, Note_on_c, 0, 73, 45
2, 24380, Note_off_c, 0, 73, 64
2, 24540, Note_on_c, 0, 74, 45
2, 24620, Note_off_c, 0, 74, 64
2, 24780, Note_on_c, 0, 76, 45
2, 24860, Note_off_c, 0, 76, 64
2, 25020, Note_on_c, 0, 78, 45
2, 25100, Note_off_c, 0, 78, 64
2, 25260, Note_on_c, 0, 80, 45
2, 25340, Note_off_c, 0, 80, 64
2, 25500, Note_on_c, 0, 81, 45
2, 25580, Note_off_c, 0, 81, 64
2, 26220, Note_on_c, 0, 81, 45
2, 26300, Note_off_c, 0, 81, 64
2, 26460, Note_on_c, 0, 80, 45
2, 26540, Note_off_c, 0, 80, 64
2, 26700, Note_on_c, 0, 78, 45
2, 26780, Note_off_c, 0, 78, 64
2, 26940, Note_on_c, 0, 76, 45
2, 27020, Note_off_c, 0, 76, 64
2, 27180, Note_on_c, 0, 74, 45
2, 27260, Note_off_c, 0, 74, 64
2, 27420, Note_on_c, 0, 73, 45
2, 27500, Note_off_c, 0, 73, 64
2, 28140, Note_on_c, 0, 73, 30
2, 28220, Note_off_c, 0, 73, 64
2, 28380, Note_on_c, 0, 74, 30
2, 28460, Note_off_c, 0, 74, 64
2, 28620, Note_on_c, 0, 76, 30
2, 28700, Note_off_c, 0, 76, 64
2, 28860, Note_on_c, 0, 78, 30
2, 28940, Note_off_c, 0, 78, 64
2, 29100, Note_on_c, 0, 80, 30
2, 29180, Note_off_c, 0, 80, 64
2, 29340, Note_on_c, 0, 81, 30
2, 29420, Note_off_c, 0, 81, 64
2, 30060, Note_on_c, 0, 81, 30
2, 30140, Note_off_c, 0, 81, 64
2, 30300, Note_on_c, 0, 80, 30
2, 30380, Note_off_c, 0, 80, 64
2, 30540, Note_on_c, 0, 78, 30
2, 30620, Note_off_c, 0, 78, 64
2, 30780, Note_on_c, 0, 76, 30
2, 30860, Note_off_c, 0, 76, 64
2, 31020, Note_on_c, 0, 74, 30
2, 31100, Note_off_c, 0, 74, 64
2, 31260, Note_on_c, 0, 73, 30
2, 31340, Note_off_c, 0, 73, 64
2, 31980, Note_on_c, 0, 81, 92
2, 32060, Note_off_c, 0, 81, 64
2, 32220, Note_on_c, 0, 83, 92
2, 32300, Note_off_c, 0, 83, 64
2, 32460, Note_on_c, 0, 85, 92
2, 32540, Note_off_c, 0, 85, 64
2, 32700, Note_on_c, 0, 85, 92
2, 32940, Note_off_c, 0, 85, 64
2, 32940, Note_on_c, 0, 86, 92
2, 33175, Note_off_c, 0, 86, 64
2, 33180, Note_on_c, 0, 86, 92
2, 33895, Note_off_c, 0, 86, 64
2, 33900, Note_on_c, 0, 83, 92
2, 33980, Note_off_c, 0, 83, 64
2, 34140, Note_on_c, 0, 81, 92
2, 34260, Note_off_c, 0, 81, 64
2, 34260, Note_on_c, 0, 80, 92
2, 34380, Note_off_c, 0, 80, 64
2, 34380, Note_on_c, 0, 78, 92
2, 34460, Note_off_c, 0, 78, 64
2, 34500, Note_on_c, 0, 76, 92
2, 34580, Note_off_c, 0, 76, 64
2, 34620, Note_on_c, 0, 88, 92
2, 34855, Note_off_c, 0, 88, 64
2, 35160, Note_on_c, 0, 88, 92
2, 35875, Note_off_c, 0, 88, 64
2, 35880, Note_on_c, 0, 81, 92
2, 35960, Note_off_c, 0, 81, 64
2, 36120, Note_on_c, 0, 83, 92
2, 36200, Note_off_c, 0, 83, 64
2, 36360, Note_on_c, 0, 85, 92
2, 36440, Note_off_c, 0, 85, 64
2, 36600, Note_on_c, 0, 85, 92
2, 36840, Note_off_c, 0, 85, 64
2, 36840, Note_on_c, 0, 86, 92
2, 37075, Note_off_c, 0, 86, 64
2, 37080, Note_on_c, 0, 86, 92
2, 37795, Note_off_c, 0, 86, 64
2, 37800, Note_on_c, 0, 83, 92
2, 37880, Note_off_c, 0, 83, 64
2, 38040, Note_on_c, 0, 81, 92
2, 38160, Note_off_c, 0, 81, 64
2, 38160, Note_on_c, 0, 80, 92
2, 38280, Note_off_c, 0, 80, 64
2, 38280, Note_on_c, 0, 78, 92
2, 38400, Note_off_c, 0, 78, 64
2, 38400, Note_on_c, 0, 76, 92
2, 38520, Note_off_c, 0, 76, 64
2, 38520, Note_on_c, 0, 88, 92
2, 38755, Note_off_c, 0, 88, 64
2, 39060, Note_on_c, 0, 88, 92
2, 39775, Note_off_c, 0, 88, 64
2, 39780, Note_on_c, 0, 85, 92
2, 39860, Note_off_c, 0, 85, 64
2, 40020, Note_on_c, 0, 81, 92
2, 40100, Note_off_c, 0, 81, 64
2, 40260, Note_on_c, 0, 76, 92
2, 40340, Note_off_c, 0, 76, 64
2, 40500, Note_on_c, 0, 78, 92
2, 40735, Note_off_c, 0, 78, 64
2, 41040, Note_on_c, 0, 78, 92
2, 41755, Note_off_c, 0, 78, 64
2, 41760, Note_on_c, 0, 74, 92
2, 41840, Note_off_c, 0, 74, 64
2, 42000, Note_on_c, 0, 71, 92
2, 42080, Note_off_c, 0, 71, 64
2, 42240, Note_on_c, 0, 66, 92
2, 42320, Note_off_c, 0, 66, 64
2, 42480, Note_on_c, 0, 64, 92
2, 43320, Note_off_c, 0, 64, 64
2, 43440, Note_on_c, 0, 83, 92
2, 43500, Note_off_c, 0, 83, 64
2, 43500, Note_on_c, 0, 85, 92
2, 43560, Note_off_c, 0, 85, 64
2, 43560, Note_on_c, 0, 83, 92
2, 43620, Note_off_c, 0, 83, 64
2, 43620, Note_on_c, 0, 85, 92
2, 43680, Note_off_c, 0, 85, 64
2, 43680, Note_on_c, 0, 83, 92
2, 43740, Note_off_c, 0, 83, 64
2, 43740, Note_on_c, 0, 85, 92
2, 43800, Note_off_c, 0, 85, 64
2, 43800, Note_on_c, 0, 83, 92
2, 43860, Note_off_c, 0, 83, 64
2, 43860, Note_on_c, 0, 85, 92
2, 43920, Note_off_c, 0, 85, 64
2, 43920, Note_on_c, 0, 83, 92
2, 43980, Note_off_c, 0, 83, 64
2, 43980, Note_on_c, 0, 85, 92
2, 44040, Note_off_c, 0, 85, 64
2, 44040, Note_on_c, 0, 83, 92
2, 44100, Note_off_c, 0, 83, 64
2, 44100, Note_on_c, 0, 85, 92
2, 44160, Note_off_c, 0, 85, 64
2, 44160, Note_on_c, 0, 83, 92
2, 44220, Note_off_c, 0, 83, 64
2, 44220, Note_on_c, 0, 85, 92
2, 44280, Note_off_c, 0, 85, 64
2, 44280, Note_on_c, 0, 83, 92
2, 44340, Note_off_c, 0, 83, 64
2, 44340, Note_on_c, 0, 85, 92
2, 44400, Note_off_c, 0, 85, 64
2, 44400, Note_on_c, 0, 81, 92
2, 44480, Note_off_c, 0, 81, 64
2, 44520, Note_on_c, 0, 69, 92
2, 44600, Note_off_c, 0, 69, 64
2, 44640, Note_on_c, 0, 71, 92
2, 44720, Note_off_c, 0, 71, 64
2, 44760, Note_on_c, 0, 73, 92
2, 44840, Note_off_c, 0, 73, 64
2, 44880, Note_on_c, 0, 74, 92
2, 44960, Note_off_c, 0, 74, 64
2, 45000, Note_on_c, 0, 76, 92
2, 45080, Note_off_c, 0, 76, 64
2, 45120, Note_on_c, 0, 78, 92
2, 45200, Note_off_c, 0, 78, 64
2, 45240, Note_on_c, 0, 80, 92
2, 45320, Note_off_c, 0, 80, 64
2, 45360, Note_on_c, 0, 81, 92
2, 45440, Note_off_c, 0, 81, 64
2, 45480, Note_on_c, 0, 76, 92
2, 45560, Note_off_c, 0, 76, 64
2, 45600, Note_on_c, 0, 78, 92
2, 45680, Note_off_c, 0, 78, 64
2, 45720, Note_on_c, 0, 80, 92
2, 45800, Note_off_c, 0, 80, 64
2, 45840, Note_on_c, 0, 81, 92
2, 45920, Note_off_c, 0, 81, 64
2, 45960, Note_on_c, 0, 83, 92
2, 46040, Note_off_c, 0, 83, 64
2, 46080, Note_on_c, 0, 81, 92
2, 46160, Note_off_c, 0, 81, 64
2, 46200, Note_on_c, 0, 83, 92
2, 46280, Note_off_c, 0, 83, 64
2, 46320, Note_on_c, 0, 85, 92
2, 46400, Note_off_c, 0, 85, 64
2, 46440, Note_on_c, 0, 83, 92
2, 46520, Note_off_c, 0, 83, 64
2, 46560, Note_on_c, 0, 81, 92
2, 46640, Note_off_c, 0, 81, 64
2, 46680, Note_on_c, 0, 83, 92
2, 46760, Note_off_c, 0, 83, 64
2, 46800, Note_on_c, 0, 85, 92
2, 46880, Note_off_c, 0, 85, 64
2, 46920, Note_on_c, 0, 86, 92
2, 47000, Note_off_c, 0, 86, 64
2, 47040, Note_on_c, 0, 85, 92
2, 47120, Note_off_c, 0, 85, 64
2, 47160, Note_on_c, 0, 86, 92
2, 47240, Note_off_c, 0, 86, 64
2, 47280, Note_on_c, 0, 88, 92
2, 47360, Note_off_c, 0, 88, 64
2, 47520, Note_on_c, 0, 85, 92
2, 47760, Note_off_c, 0, 85, 64
2, 47760, Note_on_c, 0, 81, 92
2, 48000, Note_off_c, 0, 81, 64
2, 48000, Note_on_c, 0, 79, 92
2, 48240, Note_off_c, 0, 79, 64
2, 48240, Note_on_c, 0, 78, 92
2, 48475, Note_off_c, 0, 78, 64
2, 48720, Note_on_c, 0, 83, 92
2, 48840, Note_off_c, 0, 83, 64
2, 48840, Note_on_c, 0, 81, 92
2, 48960, Note_off_c, 0, 81, 64
2, 48960, Note_on_c, 0, 80, 92
2, 49040, Note_off_c, 0, 80, 64
2, 49080, Note_on_c, 0, 78, 92
2, 49160, Note_off_c, 0, 78, 64
2, 49200, Note_on_c, 0, 80, 92
2, 49320, Note_off_c, 0, 80, 64
2, 49320, Note_on_c, 0, 78, 92
2, 49440, Note_off_c, 0, 78, 64
2, 49440, Note_on_c, 0, 76, 92
2, 49520, Note_off_c, 0, 76, 64
2, 49560, Note_on_c, 0, 74, 92
2, 49640, Note_off_c, 0, 74, 64
2, 49680, Note_on_c, 0, 76, 92
2, 49800, Note_off_c, 0, 76, 64
2, 49800, Note_on_c, 0, 74, 92
2, 49920, Note_off_c, 0, 74, 64
2, 49920, Note_on_c, 0, 73, 92
2, 50000, Note_off_c, 0, 73, 64
2, 50040, Note_on_c, 0, 71, 92
2, 50120, Note_off_c, 0, 71, 64
2, 50160, Note_on_c, 0, 69, 92
2, 51000, Note_off_c, 0, 69, 64
2, 51120, Note_on_c, 0, 71, 92
2, 51180, Note_off_c, 0, 71, 64
2, 51180, Note_on_c, 0, 73, 92
2, 51240, Note_off_c, 0, 73, 64
2, 51240, Note_on_c, 0, 71, 92
2, 51300, Note_off_c, 0, 71, 64
2, 51300, Note_on_c, 0, 73, 92
2, 51360, Note_off_c, 0, 73, 64
2, 51360, Note_on_c, 0, 71, 92
2, 51420, Note_off_c, 0, 71, 64
2, 51420, Note_on_c, 0, 73, 92
2, 51480, Note_off_c, 0, 73, 64
2, 51480, Note_on_c, 0, 71, 92
2, 51540, Note_off_c, 0, 71, 64
2, 51540, Note_on_c, 0, 73, 92
2, 51600, Note_off_c, 0, 73, 64
2, 51600, Note_on_c, 0, 71, 92
2, 51660, Note_off_c, 0, 71, 64
2, 51660, Note_on_c, 0, 73, 92
2, 51720, Note_off_c, 0, 73, 64
2, 51720, Note_on_c, 0, 71, 92
2, 51780, Note_off_c, 0, 71, 64
2, 51780, Note_on_c, 0, 73, 92
2, 51840, Note_off_c, 0, 73, 64
2, 51840, Note_on_c, 0, 71, 92
2, 51900, Note_off_c, 0, 71, 64
2, 51900, Note_on_c, 0, 73, 92
2, 51960, Note_off_c, 0, 73, 64
2, 51960, Note_on_c, 0, 71, 92
2, 52020, Note_off_c, 0, 71, 64
2, 52020, Note_on_c, 0, 73, 92
2, 52080, Note_off_c, 0, 73, 64
2, 52080, Note_on_c, 0, 69, 92
2, 52160, Note_off_c, 0, 69, 64
2, 52320, Note_on_c, 0, 76, 92
2, 52560, Note_off_c, 0, 76, 64
2, 52560, Note_on_c, 0, 74, 92
2, 52640, Note_off_c, 0, 74, 64
2, 52800, Note_on_c, 0, 71, 92
2, 52800, Note_on_c, 0, 80, 92
2, 52880, Note_off_c, 0, 80, 64
2, 52880, Note_off_c, 0, 71, 64
2, 53040, Note_on_c, 0, 69, 92
2, 53040, Note_on_c, 0, 81, 92
2, 53120, Note_off_c, 0, 81, 64
2, 53120, Note_off_c, 0, 69, 64
2, 53280, Note_on_c, 0, 76, 92
2, 53520, Note_off_c, 0, 76, 64
2, 53520, Note_on_c, 0, 74, 92
2, 53600, Note_off_c, 0, 74, 64
2, 53760, Note_on_c, 0, 71, 92
2, 53760, Note_on_c, 0, 80, 92
2, 53840, Note_off_c, 0, 80, 64
2, 53840, Note_off_c, 0, 71, 64
2, 54000, Note_on_c, 0, 69, 92
2, 54000, Note_on_c, 0, 81, 92
2, 54235, Note_off_c, 0, 81, 64
2, 54235, Note_off_c, 0, 69, 64
2, 54480, Note_on_c, 0, 61, 92
2, 54480, Note_on_c, 0, 69, 92
2, 54715, Note_off_c, 0, 69, 64
2, 54715, Note_off_c, 0, 61, 64
2, 54960, Note_on_c, 0, 61, 92
2, 54960, Note_on_c, 0, 69, 92
2, 55360, Note_off_c, 0, 69, 64
2, 55360, Note_off_c, 0, 61, 64
2, 56040, Note_on_c, 0, 74, 45
2, 56120, Note_off_c, 0, 74, 64
2, 56520, Note_on_c, 0, 78, 45
2, 56600, Note_off_c, 0, 78, 64
2, 57000, Note_on_c, 0, 76, 45
2, 57080, Note_off_c, 0, 76, 64
2, 57960, Note_on_c, 0, 79, 45
2, 58040, Note_off_c, 0, 79, 64
2, 58440, Note_on_c, 0, 73, 45
2, 58520, Note_off_c, 0, 73, 64
2, 58920, Note_on_c, 0, 74, 45
2, 59000, Note_off_c, 0, 74, 64
2, 59880, Note_on_c, 0, 81, 92
2, 60840, Note_off_c, 0, 81, 64
2, 60840, Note_on_c, 0, 79, 92
2, 61080, Note_off_c, 0, 79, 64
2, 61080, Note_on_c, 0, 78, 92
2, 61320, Note_off_c, 0, 78, 64
2, 61320, Note_on_c, 0, 76, 92
2, 61560, Note_off_c, 0, 76, 64
2, 61560, Note_on_c, 0, 74, 92
2, 61800, Note_off_c, 0, 74, 64
2, 61800, Note_on_c, 0, 73, 92
2, 62520, Note_off_c, 0, 73, 64
2, 62520, Note_on_c, 0, 74, 92
2, 62640, Note_off_c, 0, 74, 64
2, 62640, Note_on_c, 0, 76, 92
2, 62760, Note_off_c, 0, 76, 64
2, 62760, Note_on_c, 0, 74, 92
2, 63160, Note_off_c, 0, 74, 64
2, 63720, Note_on_c, 0, 81, 92
2, 64680, Note_off_c, 0, 81, 64
2, 64680, Note_on_c, 0, 79, 92
2, 64920, Note_off_c, 0, 79, 64
2, 64920, Note_on_c, 0, 78, 92
2, 65160, Note_off_c, 0, 78, 64
2, 65160, Note_on_c, 0, 76, 92
2, 65400, Note_off_c, 0, 76, 64
2, 65400, Note_on_c, 0, 74, 92
2, 65640, Note_off_c, 0, 74, 64
2, 65640, Note_on_c, 0, 76, 92
2, 66360, Note_off_c, 0, 76, 64
2, 66360, Note_on_c, 0, 78, 92
2, 66480, Note_off_c, 0, 78, 64
2, 66480, Note_on_c, 0, 79, 92
2, 66600, Note_off_c, 0, 79, 64
2, 66600, Note_on_c, 0, 78, 92
2, 67000, Note_off_c, 0, 78, 64
2, 67560, Note_on_c, 0, 83, 92
2, 67960, Note_off_c, 0, 83, 64
2, 68040, Note_on_c, 0, 86, 92
2, 68160, Note_off_c, 0, 86, 64
2, 68160, Note_on_c, 0, 85, 92
2, 68280, Note_off_c, 0, 85, 64
2, 68280, Note_on_c, 0, 83, 92
2, 68400, Note_off_c, 0, 83, 64
2, 68400, Note_on_c, 0, 85, 92
2, 68520, Note_off_c, 0, 85, 64
2, 68520, Note_on_c, 0, 86, 92
2, 68920, Note_off_c, 0, 86, 64
2, 69240, Note_on_c, 0, 74, 92
2, 69320, Note_off_c, 0, 74, 64
2, 69480, Note_on_c, 0, 76, 92
2, 70200, Note_off_c, 0, 76, 64
2, 70200, Note_on_c, 0, 78, 92
2, 70320, Note_off_c, 0, 78, 64
2, 70320, Note_on_c, 0, 79, 92
2, 70440, Note_off_c, 0, 79, 64
2, 70440, Note_on_c, 0, 78, 92
2, 70840, Note_off_c, 0, 78, 64
2, 71400, Note_on_c, 0, 83, 92
2, 71800, Note_off_c, 0, 83, 64
2, 71880, Note_on_c, 0, 86, 92
2, 72000, Note_off_c, 0, 86, 64
2, 72000, Note_on_c, 0, 85, 92
2, 72120, Note_off_c, 0, 85, 64
2, 72120, Note_on_c, 0, 83, 92
2, 72240, Note_off_c, 0, 83, 64
2, 72240, Note_on_c, 0, 85, 92
2, 72360, Note_off_c, 0, 85, 64
2, 72360, Note_on_c, 0, 86, 92
2, 72760, Note_off_c, 0, 86, 64
2, 73080, Note_on_c, 0, 74, 92
2, 73160, Note_off_c, 0, 74, 64
2, 73320, Note_on_c, 0, 76, 92
2, 74040, Note_off_c, 0, 76, 64
2, 74040, Note_on_c, 0, 78, 92
2, 74160, Note_off_c, 0, 78, 64
2, 74160, Note_on_c, 0, 79, 92
2, 74280, Note_off_c, 0, 79, 64
2, 74280, Note_on_c, 0, 78, 92
2, 74680, Note_off_c, 0, 78, 64
2, 75240, Note_on_c, 0, 78, 92
2, 75475, Note_off_c, 0, 78, 64
2, 75720, Note_on_c, 0, 80, 92
2, 75775, Note_off_c, 0, 80, 64
2, 75780, Note_on_c, 0, 81, 92
2, 75840, Note_off_c, 0, 81, 64
2, 75840, Note_on_c, 0, 80, 92
2, 75900, Note_off_c, 0, 80, 64
2, 75900, Note_on_c, 0, 81, 92
2, 75960, Note_off_c, 0, 81, 64
2, 75960, Note_on_c, 0, 80, 92
2, 76020, Note_off_c, 0, 80, 64
2, 76020, Note_on_c, 0, 81, 92
2, 76080, Note_off_c, 0, 81, 64
2, 76080, Note_on_c, 0, 78, 92
2, 76140, Note_off_c, 0, 78, 64
2, 76140, Note_on_c, 0, 80, 92
2, 76200, Note_off_c, 0, 80, 64
2, 76200, Note_on_c, 0, 81, 92
2, 76280, Note_off_c, 0, 81, 64
2, 76440, Note_on_c, 0, 81, 92
2, 76680, Note_off_c, 0, 81, 64
2, 76680, Note_on_c, 0, 83, 92
2, 76920, Note_off_c, 0, 83, 64
2, 76920, Note_on_c, 0, 85, 92
2, 77160, Note_off_c, 0, 85, 64
2, 77160, Note_on_c, 0, 86, 92
2, 77240, Note_off_c, 0, 86, 64
2, 77640, Note_on_c, 0, 85, 92
2, 77720, Note_off_c, 0, 85, 64
2, 78120, Note_on_c, 0, 83, 92
2, 78200, Note_off_c, 0, 83, 64
2, 80340, Note_on_c, 0, 73, 45
2, 80420, Note_off_c, 0, 73, 64
2, 80580, Note_on_c, 0, 74, 45
2, 80660, Note_off_c, 0, 74, 64
2, 80820, Note_on_c, 0, 76, 45
2, 80900, Note_off_c, 0, 76, 64
2, 81060, Note_on_c, 0, 78, 45
2, 81140, Note_off_c, 0, 78, 64
2, 81300, Note_on_c, 0, 80, 45
2, 81380, Note_off_c, 0, 80, 64
2, 81540, Note_on_c, 0, 81, 45
2, 81620, Note_off_c, 0, 81, 64
2, 82260, Note_on_c, 0, 81, 45
2, 82340, Note_off_c, 0, 81, 64
2, 82500, Note_on_c, 0, 80, 45
2, 82580, Note_off_c, 0, 80, 64
2, 82740, Note_on_c, 0, 78, 45
2, 82820, Note_off_c, 0, 78, 64
2, 82980, Note_on_c, 0, 76, 45
2, 83060, Note_off_c, 0, 76, 64
2, 83220, Note_on_c, 0, 74, 45
2, 83300, Note_off_c, 0, 74, 64
2, 83460, Note_on_c, 0, 73, 45
2, 83540, Note_off_c, 0, 73, 64
2, 84180, Note_on_c, 0, 73, 30
2, 84260, Note_off_c, 0, 73, 64
2, 84420, Note_on_c, 0, 74, 30
2, 84500, Note_off_c, 0, 74, 64
2, 84660, Note_on_c, 0, 76, 30
2, 84740, Note_off_c, 0, 76, 64
2, 84900, Note_on_c, 0, 78, 30
2, 84980, Note_off_c, 0, 78, 64
2, 85140, Note_on_c, 0, 80, 30
2, 85220, Note_off_c, 0, 80, 64
2, 85380, Note_on_c, 0, 81, 30
2, 85460, Note_off_c, 0, 81, 64
2, 86100, Note_on_c, 0, 81, 30
2, 86180, Note_off_c, 0, 81, 64
2, 86340, Note_on_c, 0, 80, 30
2, 86420, Note_off_c, 0, 80, 64
2, 86580, Note_on_c, 0, 78, 30
2, 86660, Note_off_c, 0, 78, 64
2, 86820, Note_on_c, 0, 76, 30
2, 86900, Note_off_c, 0, 76, 64
2, 87060, Note_on_c, 0, 74, 30
2, 87140, Note_off_c, 0, 74, 64
2, 87300, Note_on_c, 0, 73, 30
2, 87380, Note_off_c, 0, 73, 64
2, 88020, Note_on_c, 0, 81, 92
2, 88100, Note_off_c, 0, 81, 64
2, 88260, Note_on_c, 0, 83, 92
2, 88340, Note_off_c, 0, 83, 64
2, 88500, Note_on_c, 0, 85, 92
2, 88580, Note_off_c, 0, 85, 64
2, 88740, Note_on_c, 0, 85, 92
2, 88980, Note_off_c, 0, 85, 64
2, 88980, Note_on_c, 0, 86, 92
2, 89215, Note_off_c, 0, 86, 64
2, 89220, Note_on_c, 0, 86, 92
2, 89935, Note_off_c, 0, 86, 64
2, 89940, Note_on_c, 0, 83, 92
2, 90020, Note_off_c, 0, 83, 64
2, 90180, Note_on_c, 0, 81, 92
2, 90300, Note_off_c, 0, 81, 64
2, 90300, Note_on_c, 0, 80, 92
2, 90420, Note_off_c, 0, 80, 64
2, 90420, Note_on_c, 0, 78, 92
2, 90500, Note_off_c, 0, 78, 64
2, 90540, Note_on_c, 0, 76, 92
2, 90620, Note_off_c, 0, 76, 64
2, 90660, Note_on_c, 0, 88, 92
2, 90895, Note_off_c, 0, 88, 64
2, 91200, Note_on_c, 0, 88, 92
2, 91915, Note_off_c, 0, 88, 64
2, 91920, Note_on_c, 0, 81, 92
2, 92000, Note_off_c, 0, 81, 64
2, 92160, Note_on_c, 0, 83, 92
2, 92240, Note_off_c, 0, 83, 64
2, 92400, Note_on_c, 0, 85, 92
2, 92480, Note_off_c, 0, 85, 64
2, 92640, Note_on_c, 0, 85, 92
2, 92880, Note_off_c, 0, 85, 64
2, 92880, Note_on_c, 0, 86, 92
2, 93115, Note_off_c, 0, 86, 64
2, 93120, Note_on_c, 0, 86, 92
2, 93835, Note_off_c, 0, 86, 64
2, 93840, Note_on_c, 0, 83, 92
2, 93920, Note_off_c, 0, 83, 64
2, 94080, Note_on_c, 0, 81, 92
2, 94200, Note_off_c, 0, 81, 64
2, 94200, Note_on_c, 0, 80, 92
2, 94320, Note_off_c, 0, 80, 64
2, 94320, Note_on_c, 0, 78, 92
2, 94440, Note_off_c, 0, 78, 64
2, 94440, Note_on_c, 0, 76, 92
2, 94560, Note_off_c, 0, 76, 64
2, 94560, Note_on_c, 0, 88, 92
2, 94795, Note_off_c, 0, 88, 64
2, 95100, Note_on_c, 0, 88, 92
2, 95815, Note_off_c, 0, 88, 64
2, 95820, Note_on_c, 0, 85, 92
2, 95900, Note_off_c, 0, 85, 64
2, 96060, Note_on_c, 0, 81, 92
2, 96140, Note_off_c, 0, 81, 64
2, 96300, Note_on_c, 0, 76, 92
2, 96380, Note_off_c, 0, 76, 64
2, 96540, Note_on_c, 0, 78, 92
2, 96775, Note_off_c, 0, 78, 64
2, 97080, Note_on_c, 0, 78, 92
2, 97795, Note_off_c, 0, 78, 64
2, 97800, Note_on_c, 0, 74, 92
2, 97880, Note_off_c, 0, 74, 64
2, 98040, Note_on_c, 0, 71, 92
2, 98120, Note_off_c, 0, 71, 64
2, 98280, Note_on_c, 0, 66, 92
2, 98360, Note_off_c, 0, 66, 64
2, 98520, Note_on_c, 0, 64, 92
2, 99360, Note_off_c, 0, 64, 64
2, 99480, Note_on_c, 0, 83, 92
2, 99540, Note_off_c, 0, 83, 64
2, 99540, Note_on_c, 0, 85, 92
2, 99600, Note_off_c, 0, 85, 64
2, 99600, Note_on_c, 0, 83, 92
2, 99660, Note_off_c, 0, 83, 64
2, 99660, Note_on_c, 0, 85, 92
2, 99720, Note_off_c, 0, 85, 64
2, 99720, Note_on_c, 0, 83, 92
2, 99780, Note_off_c, 0, 83, 64
2, 99780, Note_on_c, 0, 85, 92
2, 99840, Note_off_c, 0, 85, 64
2, 99840, Note_on_c, 0, 83, 92
2, 99900, Note_off_c, 0, 83, 64
2, 99900, Note_on_c, 0, 85, 92
2, 99960, Note_off_c, 0, 85, 64
2, 99960, Note_on_c, 0, 83, 92
2, 100020, Note_off_c, 0, 83, 64
2, 100020, Note_on_c, 0, 85, 92
2, 100080, Note_off_c, 0, 85, 64
2, 100080, Note_on_c, 0, 83, 92
2, 100140, Note_off_c, 0, 83, 64
2, 100140, Note_on_c, 0, 85, 92
2, 100200, Note_off_c, 0, 85, 64
2, 100200, Note_on_c, 0, 83, 92
2, 100260, Note_off_c, 0, 83, 64
2, 100260, Note_on_c, 0, 85, 92
2, 100320, Note_off_c, 0, 85, 64
2, 100320, Note_on_c, 0, 83, 92
2, 100380, Note_off_c, 0, 83, 64
2, 100380, Note_on_c, 0, 85, 92
2, 100440, Note_off_c, 0, 85, 64
2, 100440, Note_on_c, 0, 81, 92
2, 100520, Note_off_c, 0, 81, 64
2, 100560, Note_on_c, 0, 69, 92
2, 100640, Note_off_c, 0, 69, 64
2, 100680, Note_on_c, 0, 71, 92
2, 100760, Note_off_c, 0, 71, 64
2, 100800, Note_on_c, 0, 73, 92
2, 100880, Note_off_c, 0, 73, 64
2, 100920, Note_on_c, 0, 74, 92
2, 101000, Note_off_c, 0, 74, 64
2, 101040, Note_on_c, 0, 76, 92
2, 101120, Note_off_c, 0, 76, 64
2, 101160, Note_on_c, 0, 78, 92
2, 101240, Note_off_c, 0, 78, 64
2, 101280, Note_on_c, 0, 80, 92
2, 101360, Note_off_c, 0, 80, 64
2, 101400, Note_on_c, 0, 81, 92
2, 101480, Note_off_c, 0, 81, 64
2, 101520, Note_on_c, 0, 76, 92
2, 101600, Note_off_c, 0, 76, 64
2, 101640, Note_on_c, 0, 78, 92
2, 101720, Note_off_c, 0, 78, 64
2, 101760, Note_on_c, 0, 80, 92
2, 101840, Note_off_c, 0, 80, 64
2, 101880, Note_on_c, 0, 81, 92
2, 101960, Note_off_c, 0, 81, 64
2, 102000, Note_on_c, 0, 83, 92
2, 102080, Note_off_c, 0, 83, 64
2, 102120, Note_on_c, 0, 81, 92
2, 102200, Note_off_c, 0, 81, 64
2, 102240, Note_on_c, 0, 83, 92
2, 102320, Note_off_c, 0, 83, 64
2, 102360, Note_on_c, 0, 85, 92
2, 102440, Note_off_c, 0, 85, 64
2, 102480, Note_on_c, 0, 83, 92
2, 102560, Note_off_c, 0, 83, 64
2, 102600, Note_on_c, 0, 81, 92
2, 102680, Note_off_c, 0, 81, 64
2, 102720, Note_on_c, 0, 83, 92
2, 102800, Note_off_c, 0, 83, 64
2, 102840, Note_on_c, 0, 85, 92
2, 102920, Note_off_c, 0, 85, 64
2, 102960, Note_on_c, 0, 86, 92
2, 103040, Note_off_c, 0, 86, 64
2, 103080, Note_on_c, 0, 85, 92
2, 103160, Note_off_c, 0, 85, 64
2, 103200, Note_on_c, 0, 86, 92
2, 103280, Note_off_c, 0, 86, 64
2, 103320, Note_on_c, 0, 88, 92
2, 103400, Note_off_c, 0, 88, 64
2, 103560, Note_on_c, 0, 85, 92
2, 103800, Note_off_c, 0, 85, 64
2, 103800, Note_on_c, 0, 81, 92
2, 104040, Note_off_c, 0, 81, 64
2, 104040, Note_on_c, 0, 79, 92
2, 104280, Note_off_c, 0, 79, 64
2, 104280, Note_on_c, 0, 78, 92
2, 104515, Note_off_c, 0, 78, 64
2, 104760, Note_on_c, 0, 83, 92
2, 104880, Note_off_c, 0, 83, 64
2, 104880, Note_on_c, 0, 81, 92
2, 105000, Note_off_c, 0, 81, 64
2, 105000, Note_on_c, 0, 80, 92
2, 105080, Note_off_c, 0, 80, 64
2, 105120, Note_on_c, 0, 78, 92
2, 105200, Note_off_c, 0, 78, 64
2, 105240, Note_on_c, 0, 80, 92
2, 105360, Note_off_c, 0, 80, 64
2, 105360, Note_on_c, 0, 78, 92
2, 105480, Note_off_c, 0, 78, 64
2, 105480, Note_on_c, 0, 76, 92
2, 105560, Note_off_c, 0, 76, 64
2, 105600, Note_on_c, 0, 74, 92
2, 105680, Note_off_c, 0, 74, 64
2, 105720, Note_on_c, 0, 76, 92
2, 105840, Note_off_c, 0, 76, 64
2, 105840, Note_on_c, 0, 74, 92
2, 105960, Note_off_c, 0, 74, 64
2, 105960, Note_on_c, 0, 73, 92
2, 106040, Note_off_c, 0, 73, 64
2, 106080, Note_on_c, 0, 71, 92
2, 106160, Note_off_c, 0, 71, 64
2, 106200, Note_on_c, 0, 69, 92
2, 107040, Note_off_c, 0, 69, 64
2, 107160, Note_on_c, 0, 71, 92
2, 107220, Note_off_c, 0, 71, 64
2, 107220, Note_on_c, 0, 73, 92
2, 107280, Note_off_c, 0, 73, 64
2, 107280, Note_on_c, 0, 71, 92
2, 107340, Note_off_c, 0, 71, 64
2, 107340, Note_on_c, 0, 73, 92
2, 107400, Note_off_c, 0, 73, 64
2, 107400, Note_on_c, 0, 71, 92
2, 107460, Note_off_c, 0, 71, 64
2, 107460, Note_on_c, 0, 73, 92
2, 107520, Note_off_c, 0, 73, 64
2, 107520, Note_on_c, 0, 71, 92
2, 107580, Note_off_c, 0, 71, 64
2, 107580, Note_on_c, 0, 73, 92
2, 107640, Note_off_c, 0, 73, 64
2, 107640, Note_on_c, 0, 71, 92
2, 107700, Note_off_c, 0, 71, 64
2, 107700, Note_on_c, 0, 73, 92
2, 107760, Note_off_c, 0, 73, 64
2, 107760, Note_on_c, 0, 71, 92
2, 107820, Note_off_c, 0, 71, 64
2, 107820, Note_on_c, 0, 73, 92
2, 107880, Note_off_c, 0, 73, 64
2, 107880, Note_on_c, 0, 71, 92
2, 107940, Note_off_c, 0, 71, 64
2, 107940, Note_on_c, 0, 73, 92
2, 108000, Note_off_c, 0, 73, 64
2, 108000, Note_on_c, 0, 71, 92
2, 108060, Note_off_c, 0, 71, 64
2, 108060, Note_on_c, 0, 73, 92
2, 108120, Note_off_c, 0, 73, 64
2, 108120, Note_on_c, 0, 69, 92
2, 108200, Note_off_c, 0, 69, 64
2, 108360, Note_on_c, 0, 76, 92
2, 108600, Note_off_c, 0, 76, 64
2, 108600, Note_on_c, 0, 74, 92
2, 108680, Note_off_c, 0, 74, 64
2, 108840, Note_on_c, 0, 71, 92
2, 108840, Note_on_c, 0, 80, 92
2, 108920, Note_off_c, 0, 80, 64
2, 108920, Note_off_c, 0, 71, 64
2, 109080, Note_on_c, 0, 69, 92
2, 109080, Note_on_c, 0, 81, 92
2, 109160, Note_off_c, 0, 81, 64
2, 109160, Note_off_c, 0, 69, 64
2, 109320, Note_on_c, 0, 76, 92
2, 109560, Note_off_c, 0, 76, 64
2, 109560, Note_on_c, 0, 74, 92
2, 109640, Note_off_c, 0, 74, 64
2, 109800, Note_on_c, 0, 71, 92
2, 109800, Note_on_c, 0, 80, 92
2, 109880, Note_off_c, 0, 80, 64
2, 109880, Note_off_c, 0, 71, 64
2, 110040, Note_on_c, 0, 69, 92
2, 110040, Note_on_c, 0, 81, 92
2, 110275, Note_off_c, 0, 81, 64
2, 110275, Note_off_c, 0, 69, 64
2, 110520, Note_on_c, 0, 61, 92
2, 110520, Note_on_c, 0, 69, 92
2, 110755, Note_off_c, 0, 69, 64
2, 110755, Note_off_c, 0, 61, 64
2, 111000, Note_on_c, 0, 61, 92
2, 111000, Note_on_c, 0, 69, 92
2, 111400, Note_off_c, 0, 69, 64
2, 111400, Note_off_c, 0, 61, 64
2, 114000, Note_on_c, 0, 81, 92
2, 114640, Note_off_c, 0, 81, 64
2, 114720, Note_on_c, 0, 81, 92
2, 114800, Note_off_c, 0, 81, 64
2, 114960, Note_on_c, 0, 79, 92
2, 115040, Note_off_c, 0, 79, 64
2, 115200, Note_on_c, 0, 78, 92
2, 115280, Note_off_c, 0, 78, 64
2, 115440, Note_on_c, 0, 79, 92
2, 115520, Note_off_c, 0, 79, 64
2, 115680, Note_on_c, 0, 76, 92
2, 115760, Note_off_c, 0, 76, 64
2, 115920, Note_on_c, 0, 78, 92
2, 116000, Note_off_c, 0, 78, 64
2, 116160, Note_on_c, 0, 79, 92
2, 116240, Note_off_c, 0, 79, 64
2, 116400, Note_on_c, 0, 81, 92
2, 116480, Note_off_c, 0, 81, 64
2, 116640, Note_on_c, 0, 79, 92
2, 116720, Note_off_c, 0, 79, 64
2, 116880, Note_on_c, 0, 78, 92
2, 117600, Note_off_c, 0, 78, 64
2, 117600, Note_on_c, 0, 79, 92
2, 117720, Note_off_c, 0, 79, 64
2, 117720, Note_on_c, 0, 81, 92
2, 117835, Note_off_c, 0, 81, 64
2, 117840, Note_on_c, 0, 79, 75
2, 117900, Note_off_c, 0, 79, 64
2, 117900, Note_on_c, 0, 81, 75
2, 117960, Note_off_c, 0, 81, 64
2, 117960, Note_on_c, 0, 79, 75
2, 118020, Note_off_c, 0, 79, 64
2, 118020, Note_on_c, 0, 81, 75
2, 118080, Note_off_c, 0, 81, 64
2, 118080, Note_on_c, 0, 79, 75
2, 118140, Note_off_c, 0, 79, 64
2, 118140, Note_on_c, 0, 81, 75
2, 118200, Note_off_c, 0, 81, 64
2, 118200, Note_on_c, 0, 79, 75
2, 118260, Note_off_c, 0, 79, 64
2, 118260, Note_on_c, 0, 81, 75
2, 118320, Note_off_c, 0, 81, 64
2, 118320, Note_on_c, 0, 79, 75
2, 118380, Note_off_c, 0, 79, 64
2, 118380, Note_on_c, 0, 81, 75
2, 118440, Note_off_c, 0, 81, 64
2, 118440, Note_on_c, 0, 79, 75
2, 118500, Note_off_c, 0, 79, 64
2, 118500, Note_on_c, 0, 81, 75
2, 118560, Note_off_c, 0, 81, 64
2, 118560, Note_on_c, 0, 78, 75
2, 118680, Note_off_c, 0, 78, 64
2, 118680, Note_on_c, 0, 79, 75
2, 118800, Note_off_c, 0, 79, 64
2, 118800, Note_on_c, 0, 72, 92
2, 119200, Note_off_c, 0, 72, 64
2, 119280, Note_on_c, 0, 84, 92
2, 119760, Note_off_c, 0, 84, 64
2, 119760, Note_on_c, 0, 83, 92
2, 119995, Note_off_c, 0, 83, 64
2, 120240, Note_on_c, 0, 76, 92
2, 121120, Note_off_c, 0, 76, 64
2, 121200, Note_on_c, 0, 75, 92
2, 121600, Note_off_c, 0, 75, 64
2, 121680, Note_on_c, 0, 76, 92
2, 122400, Note_off_c, 0, 76, 64
2, 122400, Note_on_c, 0, 79, 92
2, 122640, Note_off_c, 0, 79, 64
2, 122640, Note_on_c, 0, 70, 92
2, 122875, Note_off_c, 0, 70, 64
2, 123120, Note_on_c, 0, 66, 92
2, 123600, Note_off_c, 0, 66, 64
2, 123600, Note_on_c, 0, 68, 92
2, 124080, Note_off_c, 0, 68, 64
2, 124080, Note_on_c, 0, 70, 92
2, 124560, Note_off_c, 0, 70, 64
2, 124560, Note_on_c, 0, 71, 92
2, 124960, Note_off_c, 0, 71, 64
2, 128400, Note_on_c, 0, 69, 92
2, 129040, Note_off_c, 0, 69, 64
2, 129120, Note_on_c, 0, 69, 92
2, 129200, Note_off_c, 0, 69, 64
2, 129360, Note_on_c, 0, 67, 92
2, 129440, Note_off_c, 0, 67, 64
2, 129600, Note_on_c, 0, 66, 92
2, 129680, Note_off_c, 0, 66, 64
2, 129840, Note_on_c, 0, 67, 92
2, 129920, Note_off_c, 0, 67, 64
2, 130080, Note_on_c, 0, 64, 92
2, 130160, Note_off_c, 0, 64, 64
2, 130320, Note_on_c, 0, 66, 92
2, 130400, Note_off_c, 0, 66, 64
2, 130560, Note_on_c, 0, 64, 92
2, 130640, Note_off_c, 0, 64, 64
2, 130800, Note_on_c, 0, 66, 92
2, 130880, Note_off_c, 0, 66, 64
2, 131040, Note_on_c, 0, 62, 92
2, 131120, Note_off_c, 0, 62, 64
2, 131280, Note_on_c, 0, 64, 92
2, 131360, Note_off_c, 0, 64, 64
2, 131520, Note_on_c, 0, 62, 92
2, 131600, Note_off_c, 0, 62, 64
2, 131760, Note_on_c, 0, 64, 92
2, 131840, Note_off_c, 0, 64, 64
2, 132000, Note_on_c, 0, 61, 92
2, 132080, Note_off_c, 0, 61, 64
2, 132240, Note_on_c, 0, 62, 92
2, 132320, Note_off_c, 0, 62, 64
2, 132480, Note_on_c, 0, 59, 92
2, 132560, Note_off_c, 0, 59, 64
2, 132720, Note_on_c, 0, 64, 92
2, 132800, Note_off_c, 0, 64, 64
2, 132960, Note_on_c, 0, 62, 92
2, 133040, Note_off_c, 0, 62, 64
2, 133200, Note_on_c, 0, 61, 92
2, 133280, Note_off_c, 0, 61, 64
2, 133440, Note_on_c, 0, 57, 92
2, 133520, Note_off_c, 0, 57, 64
2, 133680, Note_on_c, 0, 62, 92
2, 134560, Note_off_c, 0, 62, 64
2, 134640, Note_on_c, 0, 61, 92
2, 135040, Note_off_c, 0, 61, 64
2, 135120, Note_on_c, 0, 62, 92
2, 135120, Note_on_c, 0, 74, 92
2, 135120, Note_on_c, 0, 86, 92
2, 135520, Note_off_c, 0, 86, 64
2, 135520, Note_off_c, 0, 74, 64
2, 135520, Note_off_c, 0, 62, 64
2, 136140, Note_on_c, 0, 74, 92
2, 136140, Note_on_c, 0, 77, 92
2, 136540, Note_off_c, 0, 77, 64
2, 136540, Note_off_c, 0, 74, 64
2, 137160, Note_on_c, 0, 69, 92
2, 137160, Note_on_c, 0, 76, 92
2, 137560, Note_off_c, 0, 76, 64
2, 137560, Note_off_c, 0, 69, 64
2, 139080, Note_on_c, 0, 74, 45
2, 139160, Note_off_c, 0, 74, 64
2, 139560, Note_on_c, 0, 78, 45
2, 139640, Note_off_c, 0, 78, 64
2, 140040, Note_on_c, 0, 76, 45
2, 140120, Note_off_c, 0, 76, 64
2, 141000, Note_on_c, 0, 79, 45
2, 141080, Note_off_c, 0, 79, 64
2, 141480, Note_on_c, 0, 73, 45
2, 141560, Note_off_c, 0, 73, 64
2, 141960, Note_on_c, 0, 74, 45
2, 142040, Note_off_c, 0, 74, 64
2, 142980, Note_on_c, 0, 81, 92
2, 143940, Note_off_c, 0, 81, 64
2, 143940, Note_on_c, 0, 79, 92
2, 144180, Note_off_c, 0, 79, 64
2, 144180, Note_on_c, 0, 78, 92
2, 144420, Note_off_c, 0, 78, 64
2, 144420, Note_on_c, 0, 76, 92
2, 144660, Note_off_c, 0, 76, 64
2, 144660, Note_on_c, 0, 74, 92
2, 144900, Note_off_c, 0, 74, 64
2, 144900, Note_on_c, 0, 73, 92
2, 145620, Note_off_c, 0, 73, 64
2, 145620, Note_on_c, 0, 74, 92
2, 145740, Note_off_c, 0, 74, 64
2, 145740, Note_on_c, 0, 76, 92
2, 145860, Note_off_c, 0, 76, 64
2, 145860, Note_on_c, 0, 74, 92
2, 146260, Note_off_c, 0, 74, 64
2, 146820, Note_on_c, 0, 81, 92
2, 147780, Note_off_c, 0, 81, 64
2, 147780, Note_on_c, 0, 79, 92
2, 148020, Note_off_c, 0, 79, 64
2, 148020, Note_on_c, 0, 78, 92
2, 148260, Note_off_c, 0, 78, 64
2, 148260, Note_on_c, 0, 76, 92
2, 148500, Note_off_c, 0, 76, 64
2, 148500, Note_on_c, 0, 74, 92
2, 148740, Note_off_c, 0, 74, 64
2, 148740, Note_on_c, 0, 76, 92
2, 149460, Note_off_c, 0, 76, 64
2, 149460, Note_on_c, 0, 78, 92
2, 149580, Note_off_c, 0, 78, 64
2, 149580, Note_on_c, 0, 79, 92
2, 149700, Note_off_c, 0, 79, 64
2, 149700, Note_on_c, 0, 78, 92
2, 150100, Note_off_c, 0, 78, 64
2, 150660, Note_on_c, 0, 83, 92
2, 151060, Note_off_c, 0, 83, 64
2, 151140, Note_on_c, 0, 86, 92
2, 151260, Note_off_c, 0, 86, 64
2, 151260, Note_on_c, 0, 85, 92
2, 151380, Note_off_c, 0, 85, 64
2, 151380, Note_on_c, 0, 83, 92
2, 151500, Note_off_c, 0, 83, 64
2, 151500, Note_on_c, 0, 85, 92
2, 151620, Note_off_c, 0, 85, 64
2, 151620, Note_on_c, 0, 86, 92
2, 152020, Note_off_c, 0, 86, 64
2, 152340, Note_on_c, 0, 74, 92
2, 152420, Note_off_c, 0, 74, 64
2, 152580, Note_on_c, 0, 76, 92
2, 153300, Note_off_c, 0, 76, 64
2, 153300, Note_on_c, 0, 78, 92
2, 153420, Note_off_c, 0, 78, 64
2, 153420, Note_on_c, 0, 79, 92
2, 153540, Note_off_c, 0, 79, 64
2, 153540, Note_on_c, 0, 78, 92
2, 153940, Note_off_c, 0, 78, 64
2, 154500, Note_on_c, 0, 83, 92
2, 154900, Note_off_c, 0, 83, 64
2, 154980, Note_on_c, 0, 86, 92
2, 155100, Note_off_c, 0, 86, 64
2, 155100, Note_on_c, 0, 85, 92
2, 155220, Note_off_c, 0, 85, 64
2, 155220, Note_on_c, 0, 83, 92
2, 155340, Note_off_c, 0, 83, 64
2, 155340, Note_on_c, 0, 85, 92
2, 155460, Note_off_c, 0, 85, 64
2, 155460, Note_on_c, 0, 86, 92
2, 155860, Note_off_c, 0, 86, 64
2, 156180, Note_on_c, 0, 74, 92
2, 156260, Note_off_c, 0, 74, 64
2, 156420, Note_on_c, 0, 76, 92
2, 157140, Note_off_c, 0, 76, 64
2, 157140, Note_on_c, 0, 78, 92
2, 157260, Note_off_c, 0, 78, 64
2, 157260, Note_on_c, 0, 79, 92
2, 157380, Note_off_c, 0, 79, 64
2, 157380, Note_on_c, 0, 78, 92
2, 157780, Note_off_c, 0, 78, 64
2, 158340, Note_on_c, 0, 71, 92
2, 158740, Note_off_c, 0, 71, 64
2, 158820, Note_on_c, 0, 73, 92
2, 158880, Note_off_c, 0, 73, 64
2, 158880, Note_on_c, 0, 74, 92
2, 158940, Note_off_c, 0, 74, 64
2, 158940, Note_on_c, 0, 73, 92
2, 159000, Note_off_c, 0, 73, 64
2, 159000, Note_on_c, 0, 74, 92
2, 159060, Note_off_c, 0, 74, 64
2, 159060, Note_on_c, 0, 73, 92
2, 159120, Note_off_c, 0, 73, 64
2, 159120, Note_on_c, 0, 74, 92
2, 159180, Note_off_c, 0, 74, 64
2, 159180, Note_on_c, 0, 71, 92
2, 159240, Note_off_c, 0, 71, 64
2, 159240, Note_on_c, 0, 73, 92
2, 159300, Note_off_c, 0, 73, 64
2, 159300, Note_on_c, 0, 74, 92
2, 159380, Note_off_c, 0, 74, 64
2, 159540, Note_on_c, 0, 78, 92
2, 159780, Note_off_c, 0, 78, 64
2, 159780, Note_on_c, 0, 79, 92
2, 160020, Note_off_c, 0, 79, 64
2, 160020, Note_on_c, 0, 81, 92
2, 160260, Note_off_c, 0, 81, 64
2, 160260, Note_on_c, 0, 79, 92
2, 160340, Note_off_c, 0, 79, 64
2, 160740, Note_on_c, 0, 78, 92
2, 160820, Note_off_c, 0, 78, 64
2, 161220, Note_on_c, 0, 76, 92
2, 161300, Note_off_c, 0, 76, 64
2, 163380, Note_on_c, 0, 78, 45
2, 163460, Note_off_c, 0, 78, 64
2, 163620, Note_on_c, 0, 79, 45
2, 163700, Note_off_c, 0, 79, 64
2, 163860, Note_on_c, 0, 81, 45
2, 163940, Note_off_c, 0, 81, 64
2, 164100, Note_on_c, 0, 83, 45
2, 164180, Note_off_c, 0, 83, 64
2, 164340, Note_on_c, 0, 85, 45
2, 164420, Note_off_c, 0, 85, 64
2, 164580, Note_on_c, 0, 86, 45
2, 164660, Note_off_c, 0, 86, 64
2, 165300, Note_on_c, 0, 86, 45
2, 165380, Note_off_c, 0, 86, 64
2, 165540, Note_on_c, 0, 85, 45
2, 165620, Note_off_c, 0, 85, 64
2, 165780, Note_on_c, 0, 83, 45
2, 165860, Note_off_c, 0, 83, 64
2, 166020, Note_on_c, 0, 81, 45
2, 166100, Note_off_c, 0, 81, 64
2, 166260, Note_on_c, 0, 79, 45
2, 166340, Note_off_c, 0, 79, 64
2, 166500, Note_on_c, 0, 78, 45
2, 166580, Note_off_c, 0, 78, 64
2, 167220, Note_on_c, 0, 78, 30
2, 167300, Note_off_c, 0, 78, 64
2, 167460, Note_on_c, 0, 79, 30
2, 167540, Note_off_c, 0, 79, 64
2, 167700, Note_on_c, 0, 81, 30
2, 167780, Note_off_c, 0, 81, 64
2, 167940, Note_on_c, 0, 83, 30
2, 168020, Note_off_c, 0, 83, 64
2, 168180, Note_on_c, 0, 85, 30
2, 168260, Note_off_c, 0, 85, 64
2, 168420, Note_on_c, 0, 86, 30
2, 168500, Note_off_c, 0, 86, 64
2, 169140, Note_on_c, 0, 86, 30
2, 169220, Note_off_c, 0, 86, 64
2, 169380, Note_on_c, 0, 85, 30
2, 169460, Note_off_c, 0, 85, 64
2, 169620, Note_on_c, 0, 83, 30
2, 169700, Note_off_c, 0, 83, 64
2, 169860, Note_on_c, 0, 81, 30
2, 169940, Note_off_c, 0, 81, 64
2, 170100, Note_on_c, 0, 79, 30
2, 170180, Note_off_c, 0, 79, 64
2, 170340, Note_on_c, 0, 78, 30
2, 170420, Note_off_c, 0, 78, 64
2, 171060, Note_on_c, 0, 74, 92
2, 171140, Note_off_c, 0, 74, 64
2, 171300, Note_on_c, 0, 76, 92
2, 171380, Note_off_c, 0, 76, 64
2, 171540, Note_on_c, 0, 78, 92
2, 171620, Note_off_c, 0, 78, 64
2, 171780, Note_on_c, 0, 78, 92
2, 172020, Note_off_c, 0, 78, 64
2, 172020, Note_on_c, 0, 79, 92
2, 172255, Note_off_c, 0, 79, 64
2, 172260, Note_on_c, 0, 79, 92
2, 172975, Note_off_c, 0, 79, 64
2, 172980, Note_on_c, 0, 76, 92
2, 173060, Note_off_c, 0, 76, 64
2, 173220, Note_on_c, 0, 74, 92
2, 173340, Note_off_c, 0, 74, 64
2, 173340, Note_on_c, 0, 73, 92
2, 173460, Note_off_c, 0, 73, 64
2, 173460, Note_on_c, 0, 71, 92
2, 173580, Note_off_c, 0, 71, 64
2, 173580, Note_on_c, 0, 69, 92
2, 173700, Note_off_c, 0, 69, 64
2, 173700, Note_on_c, 0, 81, 92
2, 173935, Note_off_c, 0, 81, 64
2, 174240, Note_on_c, 0, 81, 92
2, 174955, Note_off_c, 0, 81, 64
2, 174960, Note_on_c, 0, 74, 92
2, 175040, Note_off_c, 0, 74, 64
2, 175200, Note_on_c, 0, 76, 92
2, 175280, Note_off_c, 0, 76, 64
2, 175440, Note_on_c, 0, 78, 92
2, 175520, Note_off_c, 0, 78, 64
2, 175680, Note_on_c, 0, 78, 92
2, 175920, Note_off_c, 0, 78, 64
2, 175920, Note_on_c, 0, 79, 92
2, 176155, Note_off_c, 0, 79, 64
2, 176160, Note_on_c, 0, 79, 92
2, 176875, Note_off_c, 0, 79, 64
2, 176880, Note_on_c, 0, 76, 92
2, 176960, Note_off_c, 0, 76, 64
2, 177120, Note_on_c, 0, 74, 92
2, 177240, Note_off_c, 0, 74, 64
2, 177240, Note_on_c, 0, 73, 92
2, 177360, Note_off_c, 0, 73, 64
2, 177360, Note_on_c, 0, 71, 92
2, 177480, Note_off_c, 0, 71, 64
2, 177480, Note_on_c, 0, 69, 92
2, 177600, Note_off_c, 0, 69, 64
2, 177600, Note_on_c, 0, 81, 92
2, 177835, Note_off_c, 0, 81, 64
2, 178140, Note_on_c, 0, 81, 92
2, 178855, Note_off_c, 0, 81, 64
2, 178860, Note_on_c, 0, 78, 92
2, 178940, Note_off_c, 0, 78, 64
2, 179100, Note_on_c, 0, 74, 92
2, 179180, Note_off_c, 0, 74, 64
2, 179340, Note_on_c, 0, 69, 92
2, 179420, Note_off_c, 0, 69, 64
2, 179580, Note_on_c, 0, 83, 92
2, 179815, Note_off_c, 0, 83, 64
2, 180120, Note_on_c, 0, 86, 92
2, 180835, Note_off_c, 0, 86, 64
2, 180840, Note_on_c, 0, 83, 92
2, 180920, Note_off_c, 0, 83, 64
2, 181080, Note_on_c, 0, 79, 92
2, 181160, Note_off_c, 0, 79, 64
2, 181320, Note_on_c, 0, 74, 92
2, 181400, Note_off_c, 0, 74, 64
2, 181560, Note_on_c, 0, 69, 92
2, 182400, Note_off_c, 0, 69, 64
2, 182520, Note_on_c, 0, 76, 60
2, 182580, Note_off_c, 0, 76, 64
2, 182580, Note_on_c, 0, 78, 60
2, 182640, Note_off_c, 0, 78, 64
2, 182640, Note_on_c, 0, 76, 60
2, 182700, Note_off_c, 0, 76, 64
2, 182700, Note_on_c, 0, 78, 60
2, 182760, Note_off_c, 0, 78, 64
2, 182760, Note_on_c, 0, 76, 60
2, 182820, Note_off_c, 0, 76, 64
2, 182820, Note_on_c, 0, 78, 60
2, 182880, Note_off_c, 0, 78, 64
2, 182880, Note_on_c, 0, 76, 60
2, 182940, Note_off_c, 0, 76, 64
2, 182940, Note_on_c, 0, 78, 60
2, 183000, Note_off_c, 0, 78, 64
2, 183000, Note_on_c, 0, 76, 60
2, 183060, Note_off_c, 0, 76, 64
2, 183060, Note_on_c, 0, 78, 60
2, 183120, Note_off_c, 0, 78, 64
2, 183120, Note_on_c, 0, 76, 60
2, 183180, Note_off_c, 0, 76, 64
2, 183180, Note_on_c, 0, 78, 60
2, 183240, Note_off_c, 0, 78, 64
2, 183240, Note_on_c, 0, 76, 60
2, 183300, Note_off_c, 0, 76, 64
2, 183300, Note_on_c, 0, 78, 60
2, 183360, Note_off_c, 0, 78, 64
2, 183360, Note_on_c, 0, 76, 60
2, 183420, Note_off_c, 0, 76, 64
2, 183420, Note_on_c, 0, 78, 60
2, 183480, Note_off_c, 0, 78, 64
2, 183480, Note_on_c, 0, 74, 92
2, 183595, Note_off_c, 0, 74, 64
2, 183600, Note_on_c, 0, 62, 92
2, 183680, Note_off_c, 0, 62, 64
2, 183720, Note_on_c, 0, 64, 92
2, 183800, Note_off_c, 0, 64, 64
2, 183840, Note_on_c, 0, 66, 92
2, 183920, Note_off_c, 0, 66, 64
2, 183960, Note_on_c, 0, 67, 92
2, 184040, Note_off_c, 0, 67, 64
2, 184080, Note_on_c, 0, 69, 92
2, 184160, Note_off_c, 0, 69, 64
2, 184200, Note_on_c, 0, 71, 92
2, 184280, Note_off_c, 0, 71, 64
2, 184320, Note_on_c, 0, 73, 92
2, 184400, Note_off_c, 0, 73, 64
2, 184440, Note_on_c, 0, 74, 92
2, 184520, Note_off_c, 0, 74, 64
2, 184560, Note_on_c, 0, 69, 92
2, 184640, Note_off_c, 0, 69, 64
2, 184680, Note_on_c, 0, 71, 92
2, 184760, Note_off_c, 0, 71, 64
2, 184800, Note_on_c, 0, 73, 92
2, 184880, Note_off_c, 0, 73, 64
2, 184920, Note_on_c, 0, 74, 92
2, 185000, Note_off_c, 0, 74, 64
2, 185040, Note_on_c, 0, 76, 92
2, 185120, Note_off_c, 0, 76, 64
2, 185160, Note_on_c, 0, 78, 92
2, 185240, Note_off_c, 0, 78, 64
2, 185280, Note_on_c, 0, 79, 92
2, 185360, Note_off_c, 0, 79, 64
2, 185400, Note_on_c, 0, 81, 92
2, 185480, Note_off_c, 0, 81, 64
2, 185520, Note_on_c, 0, 74, 92
2, 185600, Note_off_c, 0, 74, 64
2, 185640, Note_on_c, 0, 76, 92
2, 185720, Note_off_c, 0, 76, 64
2, 185760, Note_on_c, 0, 78, 92
2, 185840, Note_off_c, 0, 78, 64
2, 185880, Note_on_c, 0, 79, 92
2, 185960, Note_off_c, 0, 79, 64
2, 186000, Note_on_c, 0, 81, 92
2, 186080, Note_off_c, 0, 81, 64
2, 186120, Note_on_c, 0, 83, 92
2, 186200, Note_off_c, 0, 83, 64
2, 186240, Note_on_c, 0, 85, 92
2, 186320, Note_off_c, 0, 85, 64
2, 186360, Note_on_c, 0, 86, 92
2, 186440, Note_off_c, 0, 86, 64
2, 186600, Note_on_c, 0, 84, 92
2, 186840, Note_off_c, 0, 84, 64
2, 186840, Note_on_c, 0, 83, 92
2, 187080, Note_off_c, 0, 83, 64
2, 187080, Note_on_c, 0, 82, 92
2, 187320, Note_off_c, 0, 82, 64
2, 187320, Note_on_c, 0, 83, 92
2, 187720, Note_off_c, 0, 83, 64
2, 187800, Note_on_c, 0, 85, 92
2, 187920, Note_off_c, 0, 85, 64
2, 187920, Note_on_c, 0, 83, 92
2, 188040, Note_off_c, 0, 83, 64
2, 188040, Note_on_c, 0, 81, 92
2, 188120, Note_off_c, 0, 81, 64
2, 188160, Note_on_c, 0, 79, 92
2, 188240, Note_off_c, 0, 79, 64
2, 188280, Note_on_c, 0, 81, 92
2, 188400, Note_off_c, 0, 81, 64
2, 188400, Note_on_c, 0, 79, 92
2, 188520, Note_off_c, 0, 79, 64
2, 188520, Note_on_c, 0, 78, 92
2, 188600, Note_off_c, 0, 78, 64
2, 188640, Note_on_c, 0, 76, 92
2, 188720, Note_off_c, 0, 76, 64
2, 188760, Note_on_c, 0, 76, 92
2, 188880, Note_off_c, 0, 76, 64
2, 188880, Note_on_c, 0, 74, 92
2, 189000, Note_off_c, 0, 74, 64
2, 189000, Note_on_c, 0, 73, 92
2, 189080, Note_off_c, 0, 73, 64
2, 189120, Note_on_c, 0, 71, 92
2, 189200, Note_off_c, 0, 71, 64
2, 189240, Note_on_c, 0, 69, 92
2, 189240, Note_on_c, 0, 81, 92
2, 189880, Note_off_c, 0, 81, 64
2, 189880, Note_off_c, 0, 69, 64
2, 189960, Note_on_c, 0, 74, 92
2, 190195, Note_off_c, 0, 74, 64
2, 190200, Note_on_c, 0, 76, 92
2, 190260, Note_off_c, 0, 76, 64
2, 190260, Note_on_c, 0, 78, 92
2, 190320, Note_off_c, 0, 78, 64
2, 190320, Note_on_c, 0, 76, 92
2, 190380, Note_off_c, 0, 76, 64
2, 190380, Note_on_c, 0, 78, 92
2, 190440, Note_off_c, 0, 78, 64
2, 190440, Note_on_c, 0, 76, 92
2, 190500, Note_off_c, 0, 76, 64
2, 190500, Note_on_c, 0, 78, 92
2, 190560, Note_off_c, 0, 78, 64
2, 190560, Note_on_c, 0, 76, 92
2, 190620, Note_off_c, 0, 76, 64
2, 190620, Note_on_c, 0, 78, 92
2, 190680, Note_off_c, 0, 78, 64
2, 190680, Note_on_c, 0, 76, 92
2, 190740, Note_off_c, 0, 76, 64
2, 190740, Note_on_c, 0, 78, 92
2, 190800, Note_off_c, 0, 78, 64
2, 190800, Note_on_c, 0, 76, 92
2, 190860, Note_off_c, 0, 76, 64
2, 190860, Note_on_c, 0, 78, 92
2, 190920, Note_off_c, 0, 78, 64
2, 190920, Note_on_c, 0, 76, 92
2, 190980, Note_off_c, 0, 76, 64
2, 190980, Note_on_c, 0, 78, 92
2, 191040, Note_off_c, 0, 78, 64
2, 191040, Note_on_c, 0, 76, 92
2, 191100, Note_off_c, 0, 76, 64
2, 191100, Note_on_c, 0, 78, 92
2, 191160, Note_off_c, 0, 78, 64
2, 191160, Note_on_c, 0, 74, 92
2, 191240, Note_off_c, 0, 74, 64
2, 191400, Note_on_c, 0, 81, 92
2, 191640, Note_off_c, 0, 81, 64
2, 191640, Note_on_c, 0, 79, 92
2, 191720, Note_off_c, 0, 79, 64
2, 191880, Note_on_c, 0, 85, 92
2, 191960, Note_off_c, 0, 85, 64
2, 192120, Note_on_c, 0, 86, 92
2, 192200, Note_off_c, 0, 86, 64
2, 192360, Note_on_c, 0, 81, 92
2, 192600, Note_off_c, 0, 81, 64
2, 192600, Note_on_c, 0, 79, 92
2, 192680, Note_off_c, 0, 79, 64
2, 192840, Note_on_c, 0, 85, 92
2, 192920, Note_off_c, 0, 85, 64
2, 193080, Note_on_c, 0, 86, 92
2, 193315, Note_off_c, 0, 86, 64
2, 193560, Note_on_c, 0, 86, 92
2, 193960, Note_off_c, 0, 86, 64
2, 194040, Note_on_c, 0, 86, 92
2, 194440, Note_off_c, 0, 86, 64
2, 194440, End_track
3, 0, Start_track
3, 0, Title_t, "Divertimento in D (k136)"
3, 0, MIDI_port, 0
3, 0, Channel_prefix, 1
3, 0, Control_c, 1, 7, 127
3, 0, Control_c, 1, 10, 40
3, 0, Control_c, 1, 91, 56
3, 0, Program_c, 1, 50
3, 0, Note_on_c, 1, 69, 45
3, 80, Note_off_c, 1, 69, 64
3, 480, Note_on_c, 1, 74, 45
3, 560, Note_off_c, 1, 74, 64
3, 960, Note_on_c, 1, 71, 45
3, 1040, Note_off_c, 1, 71, 64
3, 1920, Note_on_c, 1, 71, 45
3, 2000, Note_off_c, 1, 71, 64
3, 2400, Note_on_c, 1, 67, 45
3, 2480, Note_off_c, 1, 67, 64
3, 2880, Note_on_c, 1, 66, 45
3, 2960, Note_off_c, 1, 66, 64
3, 3840, Note_on_c, 1, 66, 75
3, 3920, Note_off_c, 1, 66, 64
3, 4080, Note_on_c, 1, 66, 75
3, 4160, Note_off_c, 1, 66, 64
3, 4320, Note_on_c, 1, 66, 75
3, 4400, Note_off_c, 1, 66, 64
3, 4560, Note_on_c, 1, 66, 75
3, 4640, Note_off_c, 1, 66, 64
3, 4800, Note_on_c, 1, 66, 75
3, 4880, Note_off_c, 1, 66, 64
3, 5040, Note_on_c, 1, 66, 75
3, 5120, Note_off_c, 1, 66, 64
3, 5280, Note_on_c, 1, 66, 75
3, 5360, Note_off_c, 1, 66, 64
3, 5520, Note_on_c, 1, 66, 75
3, 5600, Note_off_c, 1, 66, 64
3, 5760, Note_on_c, 1, 67, 75
3, 5840, Note_off_c, 1, 67, 64
3, 6000, Note_on_c, 1, 67, 75
3, 6080, Note_off_c, 1, 67, 64
3, 6240, Note_on_c, 1, 67, 75
3, 6320, Note_off_c, 1, 67, 64
3, 6480, Note_on_c, 1, 67, 75
3, 6560, Note_off_c, 1, 67, 64
3, 6720, Note_on_c, 1, 66, 75
3, 6800, Note_off_c, 1, 66, 64
3, 6960, Note_on_c, 1, 66, 75
3, 7040, Note_off_c, 1, 66, 64
3, 7200, Note_on_c, 1, 66, 75
3, 7280, Note_off_c, 1, 66, 64
3, 7440, Note_on_c, 1, 66, 75
3, 7520, Note_off_c, 1, 66, 64
3, 7680, Note_on_c, 1, 66, 75
3, 7760, Note_off_c, 1, 66, 64
3, 7920, Note_on_c, 1, 66, 75
3, 8000, Note_off_c, 1, 66, 64
3, 8160, Note_on_c, 1, 66, 75
3, 8240, Note_off_c, 1, 66, 64
3, 8400, Note_on_c, 1, 66, 75
3, 8480, Note_off_c, 1, 66, 64
3, 8640, Note_on_c, 1, 69, 75
3, 8720, Note_off_c, 1, 69, 64
3, 8880, Note_on_c, 1, 69, 75
3, 8960, Note_off_c, 1, 69, 64
3, 9120, Note_on_c, 1, 69, 75
3, 9200, Note_off_c, 1, 69, 64
3, 9360, Note_on_c, 1, 69, 75
3, 9440, Note_off_c, 1, 69, 64
3, 9600, Note_on_c, 1, 69, 75
3, 9680, Note_off_c, 1, 69, 64
3, 9840, Note_on_c, 1, 69, 75
3, 9920, Note_off_c, 1, 69, 64
3, 10080, Note_on_c, 1, 69, 75
3, 10160, Note_off_c, 1, 69, 64
3, 10320, Note_on_c, 1, 69, 75
3, 10400, Note_off_c, 1, 69, 64
3, 10560, Note_on_c, 1, 69, 75
3, 10640, Note_off_c, 1, 69, 64
3, 10800, Note_on_c, 1, 69, 75
3, 10880, Note_off_c, 1, 69, 64
3, 11040, Note_on_c, 1, 69, 75
3, 11120, Note_off_c, 1, 69, 64
3, 11280, Note_on_c, 1, 69, 75
3, 11360, Note_off_c, 1, 69, 64
3, 11520, Note_on_c, 1, 67, 92
3, 11600, Note_off_c, 1, 67, 64
3, 11640, Note_on_c, 1, 69, 92
3, 11720, Note_off_c, 1, 69, 64
3, 11760, Note_on_c, 1, 67, 92
3, 11840, Note_off_c, 1, 67, 64
3, 11880, Note_on_c, 1, 66, 92
3, 11960, Note_off_c, 1, 66, 64
3, 12000, Note_on_c, 1, 67, 92
3, 12080, Note_off_c, 1, 67, 64
3, 12120, Note_on_c, 1, 64, 92
3, 12200, Note_off_c, 1, 64, 64
3, 12240, Note_on_c, 1, 69, 92
3, 12320, Note_off_c, 1, 69, 64
3, 12360, Note_on_c, 1, 67, 92
3, 12440, Note_off_c, 1, 67, 64
3, 12480, Note_on_c, 1, 66, 92
3, 12560, Note_off_c, 1, 66, 64
3, 12600, Note_on_c, 1, 67, 92
3, 12680, Note_off_c, 1, 67, 64
3, 12720, Note_on_c, 1, 69, 92
3, 12800, Note_off_c, 1, 69, 64
3, 12840, Note_on_c, 1, 67, 92
3, 12920, Note_off_c, 1, 67, 64
3, 12960, Note_on_c, 1, 66, 92
3, 13040, Note_off_c, 1, 66, 64
3, 13080, Note_on_c, 1, 64, 92
3, 13160, Note_off_c, 1, 64, 64
3, 13200, Note_on_c, 1, 66, 92
3, 13280, Note_off_c, 1, 66, 64
3, 13320, Note_on_c, 1, 62, 92
3, 13400, Note_off_c, 1, 62, 64
3, 13440, Note_on_c, 1, 61, 92
3, 13520, Note_off_c, 1, 61, 64
3, 13560, Note_on_c, 1, 62, 92
3, 13640, Note_off_c, 1, 62, 64
3, 13680, Note_on_c, 1, 61, 92
3, 13760, Note_off_c, 1, 61, 64
3, 13800, Note_on_c, 1, 59, 92
3, 13880, Note_off_c, 1, 59, 64
3, 13920, Note_on_c, 1, 57, 92
3, 14000, Note_off_c, 1, 57, 64
3, 14040, Note_on_c, 1, 61, 92
3, 14120, Note_off_c, 1, 61, 64
3, 14160, Note_on_c, 1, 62, 92
3, 14240, Note_off_c, 1, 62, 64
3, 14280, Note_on_c, 1, 64, 92
3, 14360, Note_off_c, 1, 64, 64
3, 14400, Note_on_c, 1, 62, 92
3, 14480, Note_off_c, 1, 62, 64
3, 14520, Note_on_c, 1, 64, 92
3, 14600, Note_off_c, 1, 64, 64
3, 14640, Note_on_c, 1, 66, 92
3, 14720, Note_off_c, 1, 66, 64
3, 14760, Note_on_c, 1, 67, 92
3, 14840, Note_off_c, 1, 67, 64
3, 14880, Note_on_c, 1, 69, 92
3, 14960, Note_off_c, 1, 69, 64
3, 15000, Note_on_c, 1, 71, 92
3, 15080, Note_off_c, 1, 71, 64
3, 15120, Note_on_c, 1, 73, 92
3, 15200, Note_off_c, 1, 73, 64
3, 15240, Note_on_c, 1, 74, 92
3, 15320, Note_off_c, 1, 74, 64
3, 15360, Note_on_c, 1, 67, 92
3, 15440, Note_off_c, 1, 67, 64
3, 15480, Note_on_c, 1, 69, 92
3, 15560, Note_off_c, 1, 69, 64
3, 15600, Note_on_c, 1, 67, 92
3, 15680, Note_off_c, 1, 67, 64
3, 15720, Note_on_c, 1, 66, 92
3, 15800, Note_off_c, 1, 66, 64
3, 15840, Note_on_c, 1, 67, 92
3, 15920, Note_off_c, 1, 67, 64
3, 15960, Note_on_c, 1, 64, 92
3, 16040, Note_off_c, 1, 64, 64
3, 16080, Note_on_c, 1, 69, 92
3, 16160, Note_off_c, 1, 69, 64
3, 16200, Note_on_c, 1, 67, 92
3, 16280, Note_off_c, 1, 67, 64
3, 16320, Note_on_c, 1, 66, 92
3, 16400, Note_off_c, 1, 66, 64
3, 16440, Note_on_c, 1, 67, 92
3, 16520, Note_off_c, 1, 67, 64
3, 16560, Note_on_c, 1, 69, 92
3, 16640, Note_off_c, 1, 69, 64
3, 16680, Note_on_c, 1, 67, 92
3, 16760, Note_off_c, 1, 67, 64
3, 16800, Note_on_c, 1, 66, 92
3, 16880, Note_off_c, 1, 66, 64
3, 16920, Note_on_c, 1, 64, 92
3, 17000, Note_off_c, 1, 64, 64
3, 17040, Note_on_c, 1, 66, 92
3, 17120, Note_off_c, 1, 66, 64
3, 17160, Note_on_c, 1, 62, 92
3, 17240, Note_off_c, 1, 62, 64
3, 17280, Note_on_c, 1, 61, 92
3, 17360, Note_off_c, 1, 61, 64
3, 17400, Note_on_c, 1, 62, 92
3, 17480, Note_off_c, 1, 62, 64
3, 17520, Note_on_c, 1, 61, 92
3, 17600, Note_off_c, 1, 61, 64
3, 17640, Note_on_c, 1, 59, 92
3, 17720, Note_off_c, 1, 59, 64
3, 17760, Note_on_c, 1, 57, 92
3, 17840, Note_off_c, 1, 57, 64
3, 17880, Note_on_c, 1, 61, 92
3, 17960, Note_off_c, 1, 61, 64
3, 18000, Note_on_c, 1, 62, 92
3, 18080, Note_off_c, 1, 62, 64
3, 18120, Note_on_c, 1, 64, 92
3, 18200, Note_off_c, 1, 64, 64
3, 18240, Note_on_c, 1, 62, 92
3, 18320, Note_off_c, 1, 62, 64
3, 18360, Note_on_c, 1, 64, 92
3, 18440, Note_off_c, 1, 64, 64
3, 18480, Note_on_c, 1, 66, 92
3, 18560, Note_off_c, 1, 66, 64
3, 18600, Note_on_c, 1, 67, 92
3, 18680, Note_off_c, 1, 67, 64
3, 18720, Note_on_c, 1, 69, 92
3, 18800, Note_off_c, 1, 69, 64
3, 18840, Note_on_c, 1, 71, 92
3, 18920, Note_off_c, 1, 71, 64
3, 18960, Note_on_c, 1, 73, 92
3, 19040, Note_off_c, 1, 73, 64
3, 19080, Note_on_c, 1, 74, 92
3, 19160, Note_off_c, 1, 74, 64
3, 19200, Note_on_c, 1, 69, 92
3, 19435, Note_off_c, 1, 69, 64
3, 19680, Note_on_c, 1, 71, 92
3, 19740, Note_off_c, 1, 71, 64
3, 19740, Note_on_c, 1, 73, 92
3, 19800, Note_off_c, 1, 73, 64
3, 19800, Note_on_c, 1, 71, 92
3, 19860, Note_off_c, 1, 71, 64
3, 19860, Note_on_c, 1, 73, 92
3, 19920, Note_off_c, 1, 73, 64
3, 19920, Note_on_c, 1, 71, 92
3, 19980, Note_off_c, 1, 71, 64
3, 19980, Note_on_c, 1, 73, 92
3, 20040, Note_off_c, 1, 73, 64
3, 20040, Note_on_c, 1, 69, 92
3, 20100, Note_off_c, 1, 69, 64
3, 20100, Note_on_c, 1, 71, 92
3, 20160, Note_off_c, 1, 71, 64
3, 20160, Note_on_c, 1, 69, 92
3, 20240, Note_off_c, 1, 69, 64
3, 20400, Note_on_c, 1, 76, 92
3, 20640, Note_off_c, 1, 76, 64
3, 20640, Note_on_c, 1, 74, 92
3, 20880, Note_off_c, 1, 74, 64
3, 20880, Note_on_c, 1, 73, 92
3, 21120, Note_off_c, 1, 73, 64
3, 21120, Note_on_c, 1, 71, 92
3, 21200, Note_off_c, 1, 71, 64
3, 21600, Note_on_c, 1, 69, 92
3, 21680, Note_off_c, 1, 69, 64
3, 22080, Note_on_c, 1, 68, 92
3, 22160, Note_off_c, 1, 68, 64
3, 24300, Note_on_c, 1, 57, 45
3, 24380, Note_off_c, 1, 57, 64
3, 24540, Note_on_c, 1, 59, 45
3, 24620, Note_off_c, 1, 59, 64
3, 24780, Note_on_c, 1, 61, 45
3, 24860, Note_off_c, 1, 61, 64
3, 25020, Note_on_c, 1, 62, 45
3, 25100, Note_off_c, 1, 62, 64
3, 25260, Note_on_c, 1, 64, 45
3, 25340, Note_off_c, 1, 64, 64
3, 25500, Note_on_c, 1, 66, 45
3, 25580, Note_off_c, 1, 66, 64
3, 26220, Note_on_c, 1, 66, 45
3, 26300, Note_off_c, 1, 66, 64
3, 26460, Note_on_c, 1, 64, 45
3, 26540, Note_off_c, 1, 64, 64
3, 26700, Note_on_c, 1, 62, 45
3, 26780, Note_off_c, 1, 62, 64
3, 26940, Note_on_c, 1, 61, 45
3, 27020, Note_off_c, 1, 61, 64
3, 27180, Note_on_c, 1, 59, 45
3, 27260, Note_off_c, 1, 59, 64
3, 27420, Note_on_c, 1, 57, 45
3, 27500, Note_off_c, 1, 57, 64
3, 28140, Note_on_c, 1, 57, 30
3, 28220, Note_off_c, 1, 57, 64
3, 28380, Note_on_c, 1, 59, 30
3, 28460, Note_off_c, 1, 59, 64
3, 28620, Note_on_c, 1, 61, 30
3, 28700, Note_off_c, 1, 61, 64
3, 28860, Note_on_c, 1, 62, 30
3, 28940, Note_off_c, 1, 62, 64
3, 29100, Note_on_c, 1, 64, 30
3, 29180, Note_off_c, 1, 64, 64
3, 29340, Note_on_c, 1, 66, 30
3, 29420, Note_off_c, 1, 66, 64
3, 30060, Note_on_c, 1, 66, 30
3, 30140, Note_off_c, 1, 66, 64
3, 30300, Note_on_c, 1, 64, 30
3, 30380, Note_off_c, 1, 64, 64
3, 30540, Note_on_c, 1, 62, 30
3, 30620, Note_off_c, 1, 62, 64
3, 30780, Note_on_c, 1, 61, 30
3, 30860, Note_off_c, 1, 61, 64
3, 31020, Note_on_c, 1, 59, 30
3, 31100, Note_off_c, 1, 59, 64
3, 31260, Note_on_c, 1, 57, 30
3, 31340, Note_off_c, 1, 57, 64
3, 31980, Note_on_c, 1, 69, 92
3, 32060, Note_off_c, 1, 69, 64
3, 32220, Note_on_c, 1, 71, 92
3, 32300, Note_off_c, 1, 71, 64
3, 32460, Note_on_c, 1, 73, 92
3, 32540, Note_off_c, 1, 73, 64
3, 32700, Note_on_c, 1, 73, 92
3, 32940, Note_off_c, 1, 73, 64
3, 32940, Note_on_c, 1, 74, 92
3, 33175, Note_off_c, 1, 74, 64
3, 33180, Note_on_c, 1, 74, 92
3, 33895, Note_off_c, 1, 74, 64
3, 33900, Note_on_c, 1, 74, 92
3, 33980, Note_off_c, 1, 74, 64
3, 34140, Note_on_c, 1, 73, 92
3, 34260, Note_off_c, 1, 73, 64
3, 34260, Note_on_c, 1, 71, 92
3, 34380, Note_off_c, 1, 71, 64
3, 34380, Note_on_c, 1, 69, 92
3, 34460, Note_off_c, 1, 69, 64
3, 34500, Note_on_c, 1, 68, 92
3, 34580, Note_off_c, 1, 68, 64
3, 34620, Note_on_c, 1, 76, 92
3, 34855, Note_off_c, 1, 76, 64
3, 35160, Note_on_c, 1, 76, 92
3, 35875, Note_off_c, 1, 76, 64
3, 35880, Note_on_c, 1, 69, 92
3, 35960, Note_off_c, 1, 69, 64
3, 36120, Note_on_c, 1, 71, 92
3, 36200, Note_off_c, 1, 71, 64
3, 36360, Note_on_c, 1, 73, 92
3, 36440, Note_off_c, 1, 73, 64
3, 36600, Note_on_c, 1, 73, 92
3, 36840, Note_off_c, 1, 73, 64
3, 36840, Note_on_c, 1, 74, 92
3, 37075, Note_off_c, 1, 74, 64
3, 37080, Note_on_c, 1, 74, 92
3, 37795, Note_off_c, 1, 74, 64
3, 37800, Note_on_c, 1, 74, 92
3, 37880, Note_off_c, 1, 74, 64
3, 38040, Note_on_c, 1, 73, 92
3, 38160, Note_off_c, 1, 73, 64
3, 38160, Note_on_c, 1, 71, 92
3, 38280, Note_off_c, 1, 71, 64
3, 38280, Note_on_c, 1, 69, 92
3, 38400, Note_off_c, 1, 69, 64
3, 38400, Note_on_c, 1, 68, 92
3, 38520, Note_off_c, 1, 68, 64
3, 38520, Note_on_c, 1, 76, 92
3, 38755, Note_off_c, 1, 76, 64
3, 39060, Note_on_c, 1, 76, 92
3, 39775, Note_off_c, 1, 76, 64
3, 39780, Note_on_c, 1, 76, 92
3, 39860, Note_off_c, 1, 76, 64
3, 40020, Note_on_c, 1, 73, 92
3, 40100, Note_off_c, 1, 73, 64
3, 40260, Note_on_c, 1, 69, 92
3, 40340, Note_off_c, 1, 69, 64
3, 40500, Note_on_c, 1, 69, 92
3, 40735, Note_off_c, 1, 69, 64
3, 41040, Note_on_c, 1, 69, 92
3, 41755, Note_off_c, 1, 69, 64
3, 41760, Note_on_c, 1, 66, 92
3, 41840, Note_off_c, 1, 66, 64
3, 42000, Note_on_c, 1, 62, 92
3, 42080, Note_off_c, 1, 62, 64
3, 42240, Note_on_c, 1, 59, 92
3, 42320, Note_off_c, 1, 59, 64
3, 42480, Note_on_c, 1, 61, 92
3, 42880, Note_off_c, 1, 61, 64
3, 42960, Note_on_c, 1, 69, 92
3, 43075, Note_off_c, 1, 69, 64
3, 43080, Note_on_c, 1, 69, 92
3, 43195, Note_off_c, 1, 69, 64
3, 43200, Note_on_c, 1, 69, 92
3, 43315, Note_off_c, 1, 69, 64
3, 43320, Note_on_c, 1, 69, 92
3, 43435, Note_off_c, 1, 69, 64
3, 43440, Note_on_c, 1, 69, 92
3, 43555, Note_off_c, 1, 69, 64
3, 43560, Note_on_c, 1, 69, 90
3, 43675, Note_off_c, 1, 69, 64
3, 43680, Note_on_c, 1, 69, 88
3, 43795, Note_off_c, 1, 69, 64
3, 43800, Note_on_c, 1, 69, 86
3, 43915, Note_off_c, 1, 69, 64
3, 43920, Note_on_c, 1, 68, 84
3, 44035, Note_off_c, 1, 68, 64
3, 44040, Note_on_c, 1, 68, 82
3, 44155, Note_off_c, 1, 68, 64
3, 44160, Note_on_c, 1, 68, 80
3, 44275, Note_off_c, 1, 68, 64
3, 44280, Note_on_c, 1, 68, 78
3, 44395, Note_off_c, 1, 68, 64
3, 44400, Note_on_c, 1, 69, 75
3, 44800, Note_off_c, 1, 69, 64
3, 45360, Note_on_c, 1, 64, 75
3, 45760, Note_off_c, 1, 64, 64
3, 46320, Note_on_c, 1, 69, 75
3, 46720, Note_off_c, 1, 69, 64
3, 47280, Note_on_c, 1, 69, 75
3, 47360, Note_off_c, 1, 69, 64
3, 47520, Note_on_c, 1, 69, 75
3, 47755, Note_off_c, 1, 69, 64
3, 47760, Note_on_c, 1, 69, 75
3, 47995, Note_off_c, 1, 69, 64
3, 48000, Note_on_c, 1, 69, 75
3, 48235, Note_off_c, 1, 69, 64
3, 48240, Note_on_c, 1, 69, 75
3, 48640, Note_off_c, 1, 69, 64
3, 49200, Note_on_c, 1, 69, 75
3, 49600, Note_off_c, 1, 69, 64
3, 49680, Note_on_c, 1, 69, 75
3, 50080, Note_off_c, 1, 69, 64
3, 50160, Note_on_c, 1, 69, 75
3, 50275, Note_off_c, 1, 69, 64
3, 50280, Note_on_c, 1, 69, 75
3, 50395, Note_off_c, 1, 69, 64
3, 50400, Note_on_c, 1, 69, 75
3, 50515, Note_off_c, 1, 69, 64
3, 50520, Note_on_c, 1, 69, 75
3, 50635, Note_off_c, 1, 69, 64
3, 50640, Note_on_c, 1, 69, 75
3, 50755, Note_off_c, 1, 69, 64
3, 50760, Note_on_c, 1, 69, 75
3, 50875, Note_off_c, 1, 69, 64
3, 50880, Note_on_c, 1, 69, 75
3, 50995, Note_off_c, 1, 69, 64
3, 51000, Note_on_c, 1, 69, 75
3, 51115, Note_off_c, 1, 69, 64
3, 51120, Note_on_c, 1, 68, 75
3, 51235, Note_off_c, 1, 68, 64
3, 51240, Note_on_c, 1, 68, 77
3, 51355, Note_off_c, 1, 68, 64
3, 51360, Note_on_c, 1, 68, 79
3, 51475, Note_off_c, 1, 68, 64
3, 51480, Note_on_c, 1, 68, 81
3, 51595, Note_off_c, 1, 68, 64
3, 51600, Note_on_c, 1, 68, 83
3, 51715, Note_off_c, 1, 68, 64
3, 51720, Note_on_c, 1, 68, 85
3, 51835, Note_off_c, 1, 68, 64
3, 51840, Note_on_c, 1, 68, 87
3, 51955, Note_off_c, 1, 68, 64
3, 51960, Note_on_c, 1, 68, 89
3, 52075, Note_off_c, 1, 68, 64
3, 52080, Note_on_c, 1, 69, 92
3, 52160, Note_off_c, 1, 69, 64
3, 52320, Note_on_c, 1, 73, 92
3, 52560, Note_off_c, 1, 73, 64
3, 52560, Note_on_c, 1, 71, 92
3, 52640, Note_off_c, 1, 71, 64
3, 52800, Note_on_c, 1, 74, 92
3, 52880, Note_off_c, 1, 74, 64
3, 53040, Note_on_c, 1, 73, 92
3, 53120, Note_off_c, 1, 73, 64
3, 53280, Note_on_c, 1, 73, 92
3, 53520, Note_off_c, 1, 73, 64
3, 53520, Note_on_c, 1, 71, 92
3, 53600, Note_off_c, 1, 71, 64
3, 53760, Note_on_c, 1, 74, 92
3, 53840, Note_off_c, 1, 74, 64
3, 54000, Note_on_c, 1, 73, 92
3, 54235, Note_off_c, 1, 73, 64
3, 54480, Note_on_c, 1, 64, 92
3, 54480, Note_on_c, 1, 69, 92
3, 54715, Note_off_c, 1, 69, 64
3, 54715, Note_off_c, 1, 64, 64
3, 54960, Note_on_c, 1, 64, 92
3, 54960, Note_on_c, 1, 69, 92
3, 55360, Note_off_c, 1, 69, 64
3, 55360, Note_off_c, 1, 64, 64
3, 56040, Note_on_c, 1, 69, 45
3, 56120, Note_off_c, 1, 69, 64
3, 56520, Note_on_c, 1, 74, 45
3, 56600, Note_off_c, 1, 74, 64
3, 57000, Note_on_c, 1, 71, 45
3, 57080, Note_off_c, 1, 71, 64
3, 57960, Note_on_c, 1, 71, 45
3, 58040, Note_off_c, 1, 71, 64
3, 58440, Note_on_c, 1, 67, 45
3, 58520, Note_off_c, 1, 67, 64
3, 58920, Note_on_c, 1, 66, 45
3, 59000, Note_off_c, 1, 66, 64
3, 59880, Note_on_c, 1, 66, 75
3, 59960, Note_off_c, 1, 66, 64
3, 60120, Note_on_c, 1, 66, 75
3, 60200, Note_off_c, 1, 66, 64
3, 60360, Note_on_c, 1, 66, 75
3, 60440, Note_off_c, 1, 66, 64
3, 60600, Note_on_c, 1, 66, 75
3, 60680, Note_off_c, 1, 66, 64
3, 60840, Note_on_c, 1, 66, 75
3, 60920, Note_off_c, 1, 66, 64
3, 61080, Note_on_c, 1, 66, 75
3, 61160, Note_off_c, 1, 66, 64
3, 61320, Note_on_c, 1, 66, 75
3, 61400, Note_off_c, 1, 66, 64
3, 61560, Note_on_c, 1, 66, 75
3, 61640, Note_off_c, 1, 66, 64
3, 61800, Note_on_c, 1, 67, 75
3, 61880, Note_off_c, 1, 67, 64
3, 62040, Note_on_c, 1, 67, 75
3, 62120, Note_off_c, 1, 67, 64
3, 62280, Note_on_c, 1, 67, 75
3, 62360, Note_off_c, 1, 67, 64
3, 62520, Note_on_c, 1, 67, 75
3, 62600, Note_off_c, 1, 67, 64
3, 62760, Note_on_c, 1, 66, 75
3, 62840, Note_off_c, 1, 66, 64
3, 63000, Note_on_c, 1, 66, 75
3, 63080, Note_off_c, 1, 66, 64
3, 63240, Note_on_c, 1, 66, 75
3, 63320, Note_off_c, 1, 66, 64
3, 63480, Note_on_c, 1, 66, 75
3, 63560, Note_off_c, 1, 66, 64
3, 63720, Note_on_c, 1, 66, 75
3, 63800, Note_off_c, 1, 66, 64
3, 63960, Note_on_c, 1, 66, 75
3, 64040, Note_off_c, 1, 66, 64
3, 64200, Note_on_c, 1, 66, 75
3, 64280, Note_off_c, 1, 66, 64
3, 64440, Note_on_c, 1, 66, 75
3, 64520, Note_off_c, 1, 66, 64
3, 64680, Note_on_c, 1, 69, 75
3, 64760, Note_off_c, 1, 69, 64
3, 64920, Note_on_c, 1, 69, 75
3, 65000, Note_off_c, 1, 69, 64
3, 65160, Note_on_c, 1, 69, 75
3, 65240, Note_off_c, 1, 69, 64
3, 65400, Note_on_c, 1, 69, 75
3, 65480, Note_off_c, 1, 69, 64
3, 65640, Note_on_c, 1, 69, 75
3, 65720, Note_off_c, 1, 69, 64
3, 65880, Note_on_c, 1, 69, 75
3, 65960, Note_off_c, 1, 69, 64
3, 66120, Note_on_c, 1, 69, 75
3, 66200, Note_off_c, 1, 69, 64
3, 66360, Note_on_c, 1, 69, 75
3, 66440, Note_off_c, 1, 69, 64
3, 66600, Note_on_c, 1, 69, 75
3, 66680, Note_off_c, 1, 69, 64
3, 66840, Note_on_c, 1, 69, 75
3, 66920, Note_off_c, 1, 69, 64
3, 67080, Note_on_c, 1, 69, 75
3, 67160, Note_off_c, 1, 69, 64
3, 67320, Note_on_c, 1, 69, 75
3, 67400, Note_off_c, 1, 69, 64
3, 67560, Note_on_c, 1, 67, 92
3, 67640, Note_off_c, 1, 67, 64
3, 67680, Note_on_c, 1, 69, 92
3, 67760, Note_off_c, 1, 69, 64
3, 67800, Note_on_c, 1, 67, 92
3, 67880, Note_off_c, 1, 67, 64
3, 67920, Note_on_c, 1, 66, 92
3, 68000, Note_off_c, 1, 66, 64
3, 68040, Note_on_c, 1, 67, 92
3, 68120, Note_off_c, 1, 67, 64
3, 68160, Note_on_c, 1, 64, 92
3, 68240, Note_off_c, 1, 64, 64
3, 68280, Note_on_c, 1, 69, 92
3, 68360, Note_off_c, 1, 69, 64
3, 68400, Note_on_c, 1, 67, 92
3, 68480, Note_off_c, 1, 67, 64
3, 68520, Note_on_c, 1, 66, 92
3, 68600, Note_off_c, 1, 66, 64
3, 68640, Note_on_c, 1, 67, 92
3, 68720, Note_off_c, 1, 67, 64
3, 68760, Note_on_c, 1, 69, 92
3, 68840, Note_off_c, 1, 69, 64
3, 68880, Note_on_c, 1, 67, 92
3, 68960, Note_off_c, 1, 67, 64
3, 69000, Note_on_c, 1, 66, 92
3, 69080, Note_off_c, 1, 66, 64
3, 69120, Note_on_c, 1, 64, 92
3, 69200, Note_off_c, 1, 64, 64
3, 69240, Note_on_c, 1, 66, 92
3, 69320, Note_off_c, 1, 66, 64
3, 69360, Note_on_c, 1, 62, 92
3, 69440, Note_off_c, 1, 62, 64
3, 69480, Note_on_c, 1, 61, 92
3, 69560, Note_off_c, 1, 61, 64
3, 69600, Note_on_c, 1, 62, 92
3, 69680, Note_off_c, 1, 62, 64
3, 69720, Note_on_c, 1, 61, 92
3, 69800, Note_off_c, 1, 61, 64
3, 69840, Note_on_c, 1, 59, 92
3, 69920, Note_off_c, 1, 59, 64
3, 69960, Note_on_c, 1, 57, 92
3, 70040, Note_off_c, 1, 57, 64
3, 70080, Note_on_c, 1, 61, 92
3, 70160, Note_off_c, 1, 61, 64
3, 70200, Note_on_c, 1, 62, 92
3, 70280, Note_off_c, 1, 62, 64
3, 70320, Note_on_c, 1, 64, 92
3, 70400, Note_off_c, 1, 64, 64
3, 70440, Note_on_c, 1, 62, 92
3, 70520, Note_off_c, 1, 62, 64
3, 70560, Note_on_c, 1, 64, 92
3, 70640, Note_off_c, 1, 64, 64
3, 70680, Note_on_c, 1, 66, 92
3, 70760, Note_off_c, 1, 66, 64
3, 70800, Note_on_c, 1, 67, 92
3, 70880, Note_off_c, 1, 67, 64
3, 70920, Note_on_c, 1, 69, 92
3, 71000, Note_off_c, 1, 69, 64
3, 71040, Note_on_c, 1, 71, 92
3, 71120, Note_off_c, 1, 71, 64
3, 71160, Note_on_c, 1, 73, 92
3, 71240, Note_off_c, 1, 73, 64
3, 71280, Note_on_c, 1, 74, 92
3, 71360, Note_off_c, 1, 74, 64
3, 71400, Note_on_c, 1, 67, 92
3, 71480, Note_off_c, 1, 67, 64
3, 71520, Note_on_c, 1, 69, 92
3, 71600, Note_off_c, 1, 69, 64
3, 71640, Note_on_c, 1, 67, 92
3, 71720, Note_off_c, 1, 67, 64
3, 71760, Note_on_c, 1, 66, 92
3, 71840, Note_off_c, 1, 66, 64
3, 71880, Note_on_c, 1, 67, 92
3, 71960, Note_off_c, 1, 67, 64
3, 72000, Note_on_c, 1, 64, 92
3, 72080, Note_off_c, 1, 64, 64
3, 72120, Note_on_c, 1, 69, 92
3, 72200, Note_off_c, 1, 69, 64
3, 72240, Note_on_c, 1, 67, 92
3, 72320, Note_off_c, 1, 67, 64
3, 72360, Note_on_c, 1, 66, 92
3, 72440, Note_off_c, 1, 66, 64
3, 72480, Note_on_c, 1, 67, 92
3, 72560, Note_off_c, 1, 67, 64
3, 72600, Note_on_c, 1, 69, 92
3, 72680, Note_off_c, 1, 69, 64
3, 72720, Note_on_c, 1, 67, 92
3, 72800, Note_off_c, 1, 67, 64
3, 72840, Note_on_c, 1, 66, 92
3, 72920, Note_off_c, 1, 66, 64
3, 72960, Note_on_c, 1, 64, 92
3, 73040, Note_off_c, 1, 64, 64
3, 73080, Note_on_c, 1, 66, 92
3, 73160, Note_off_c, 1, 66, 64
3, 73200, Note_on_c, 1, 62, 92
3, 73280, Note_off_c, 1, 62, 64
3, 73320, Note_on_c, 1, 61, 92
3, 73400, Note_off_c, 1, 61, 64
3, 73440, Note_on_c, 1, 62, 92
3, 73520, Note_off_c, 1, 62, 64
3, 73560, Note_on_c, 1, 61, 92
3, 73640, Note_off_c, 1, 61, 64
3, 73680, Note_on_c, 1, 59, 92
3, 73760, Note_off_c, 1, 59, 64
3, 73800, Note_on_c, 1, 57, 92
3, 73880, Note_off_c, 1, 57, 64
3, 73920, Note_on_c, 1, 61, 92
3, 74000, Note_off_c, 1, 61, 64
3, 74040, Note_on_c, 1, 62, 92
3, 74120, Note_off_c, 1, 62, 64
3, 74160, Note_on_c, 1, 64, 92
3, 74240, Note_off_c, 1, 64, 64
3, 74280, Note_on_c, 1, 62, 92
3, 74360, Note_off_c, 1, 62, 64
3, 74400, Note_on_c, 1, 64, 92
3, 74480, Note_off_c, 1, 64, 64
3, 74520, Note_on_c, 1, 66, 92
3, 74600, Note_off_c, 1, 66, 64
3, 74640, Note_on_c, 1, 67, 92
3, 74720, Note_off_c, 1, 67, 64
3, 74760, Note_on_c, 1, 69, 92
3, 74840, Note_off_c, 1, 69, 64
3, 74880, Note_on_c, 1, 71, 92
3, 74960, Note_off_c, 1, 71, 64
3, 75000, Note_on_c, 1, 73, 92
3, 75080, Note_off_c, 1, 73, 64
3, 75120, Note_on_c, 1, 74, 92
3, 75200, Note_off_c, 1, 74, 64
3, 75240, Note_on_c, 1, 69, 92
3, 75475, Note_off_c, 1, 69, 64
3, 75720, Note_on_c, 1, 71, 92
3, 75780, Note_off_c, 1, 71, 64
3, 75780, Note_on_c, 1, 73, 92
3, 75840, Note_off_c, 1, 73, 64
3, 75840, Note_on_c, 1, 71, 92
3, 75900, Note_off_c, 1, 71, 64
3, 75900, Note_on_c, 1, 73, 92
3, 75960, Note_off_c, 1, 73, 64
3, 75960, Note_on_c, 1, 71, 92
3, 76020, Note_off_c, 1, 71, 64
3, 76020, Note_on_c, 1, 73, 92
3, 76080, Note_off_c, 1, 73, 64
3, 76080, Note_on_c, 1, 69, 92
3, 76140, Note_off_c, 1, 69, 64
3, 76140, Note_on_c, 1, 71, 92
3, 76200, Note_off_c, 1, 71, 64
3, 76200, Note_on_c, 1, 69, 92
3, 76280, Note_off_c, 1, 69, 64
3, 76440, Note_on_c, 1, 76, 92
3, 76680, Note_off_c, 1, 76, 64
3, 76680, Note_on_c, 1, 74, 92
3, 76920, Note_off_c, 1, 74, 64
3, 76920, Note_on_c, 1, 73, 92
3, 77160, Note_off_c, 1, 73, 64
3, 77160, Note_on_c, 1, 71, 92
3, 77240, Note_off_c, 1, 71, 64
3, 77640, Note_on_c, 1, 69, 92
3, 77720, Note_off_c, 1, 69, 64
3, 78120, Note_on_c, 1, 68, 92
3, 78200, Note_off_c, 1, 68, 64
3, 80340, Note_on_c, 1, 57, 45
3, 80420, Note_off_c, 1, 57, 64
3, 80580, Note_on_c, 1, 59, 45
3, 80660, Note_off_c, 1, 59, 64
3, 80820, Note_on_c, 1, 61, 45
3, 80900, Note_off_c, 1, 61, 64
3, 81060, Note_on_c, 1, 62, 45
3, 81140, Note_off_c, 1, 62, 64
3, 81300, Note_on_c, 1, 64, 45
3, 81380, Note_off_c, 1, 64, 64
3, 81540, Note_on_c, 1, 66, 45
3, 81620, Note_off_c, 1, 66, 64
3, 82260, Note_on_c, 1, 66, 45
3, 82340, Note_off_c, 1, 66, 64
3, 82500, Note_on_c, 1, 64, 45
3, 82580, Note_off_c, 1, 64, 64
3, 82740, Note_on_c, 1, 62, 45
3, 82820, Note_off_c, 1, 62, 64
3, 82980, Note_on_c, 1, 61, 45
3, 83060, Note_off_c, 1, 61, 64
3, 83220, Note_on_c, 1, 59, 45
3, 83300, Note_off_c, 1, 59, 64
3, 83460, Note_on_c, 1, 57, 45
3, 83540, Note_off_c, 1, 57, 64
3, 84180, Note_on_c, 1, 57, 30
3, 84260, Note_off_c, 1, 57, 64
3, 84420, Note_on_c, 1, 59, 30
3, 84500, Note_off_c, 1, 59, 64
3, 84660, Note_on_c, 1, 61, 30
3, 84740, Note_off_c, 1, 61, 64
3, 84900, Note_on_c, 1, 62, 30
3, 84980, Note_off_c, 1, 62, 64
3, 85140, Note_on_c, 1, 64, 30
3, 85220, Note_off_c, 1, 64, 64
3, 85380, Note_on_c, 1, 66, 30
3, 85460, Note_off_c, 1, 66, 64
3, 86100, Note_on_c, 1, 66, 30
3, 86180, Note_off_c, 1, 66, 64
3, 86340, Note_on_c, 1, 64, 30
3, 86420, Note_off_c, 1, 64, 64
3, 86580, Note_on_c, 1, 62, 30
3, 86660, Note_off_c, 1, 62, 64
3, 86820, Note_on_c, 1, 61, 30
3, 86900, Note_off_c, 1, 61, 64
3, 87060, Note_on_c, 1, 59, 30
3, 87140, Note_off_c, 1, 59, 64
3, 87300, Note_on_c, 1, 57, 30
3, 87380, Note_off_c, 1, 57, 64
3, 88020, Note_on_c, 1, 69, 92
3, 88100, Note_off_c, 1, 69, 64
3, 88260, Note_on_c, 1, 71, 92
3, 88340, Note_off_c, 1, 71, 64
3, 88500, Note_on_c, 1, 73, 92
3, 88580, Note_off_c, 1, 73, 64
3, 88740, Note_on_c, 1, 73, 92
3, 88980, Note_off_c, 1, 73, 64
3, 88980, Note_on_c, 1, 74, 92
3, 89215, Note_off_c, 1, 74, 64
3, 89220, Note_on_c, 1, 74, 92
3, 89935, Note_off_c, 1, 74, 64
3, 89940, Note_on_c, 1, 74, 92
3, 90020, Note_off_c, 1, 74, 64
3, 90180, Note_on_c, 1, 73, 92
3, 90300, Note_off_c, 1, 73, 64
3, 90300, Note_on_c, 1, 71, 92
3, 90420, Note_off_c, 1, 71, 64
3, 90420, Note_on_c, 1, 69, 92
3, 90500, Note_off_c, 1, 69, 64
3, 90540, Note_on_c, 1, 68, 92
3, 90620, Note_off_c, 1, 68, 64
3, 90660, Note_on_c, 1, 76, 92
3, 90895, Note_off_c, 1, 76, 64
3, 91200, Note_on_c, 1, 76, 92
3, 91915, Note_off_c, 1, 76, 64
3, 91920, Note_on_c, 1, 69, 92
3, 92000, Note_off_c, 1, 69, 64
3, 92160, Note_on_c, 1, 71, 92
3, 92240, Note_off_c, 1, 71, 64
3, 92400, Note_on_c, 1, 73, 92
3, 92480, Note_off_c, 1, 73, 64
3, 92640, Note_on_c, 1, 73, 92
3, 92880, Note_off_c, 1, 73, 64
3, 92880, Note_on_c, 1, 74, 92
3, 93115, Note_off_c, 1, 74, 64
3, 93120, Note_on_c, 1, 74, 92
3, 93835, Note_off_c, 1, 74, 64
3, 93840, Note_on_c, 1, 74, 92
3, 93920, Note_off_c, 1, 74, 64
3, 94080, Note_on_c, 1, 73, 92
3, 94200, Note_off_c, 1, 73, 64
3, 94200, Note_on_c, 1, 71, 92
3, 94320, Note_off_c, 1, 71, 64
3, 94320, Note_on_c, 1, 69, 92
3, 94440, Note_off_c, 1, 69, 64
3, 94440, Note_on_c, 1, 68, 92
3, 94560, Note_off_c, 1, 68, 64
3, 94560, Note_on_c, 1, 76, 92
3, 94795, Note_off_c, 1, 76, 64
3, 95100, Note_on_c, 1, 76, 92
3, 95815, Note_off_c, 1, 76, 64
3, 95820, Note_on_c, 1, 76, 92
3, 95900, Note_off_c, 1, 76, 64
3, 96060, Note_on_c, 1, 73, 92
3, 96140, Note_off_c, 1, 73, 64
3, 96300, Note_on_c, 1, 69, 92
3, 96380, Note_off_c, 1, 69, 64
3, 96540, Note_on_c, 1, 69, 92
3, 96775, Note_off_c, 1, 69, 64
3, 97080, Note_on_c, 1, 69, 92
3, 97795, Note_off_c, 1, 69, 64
3, 97800, Note_on_c, 1, 66, 92
3, 97880, Note_off_c, 1, 66, 64
3, 98040, Note_on_c, 1, 62, 92
3, 98120, Note_off_c, 1, 62, 64
3, 98280, Note_on_c, 1, 59, 92
3, 98360, Note_off_c, 1, 59, 64
3, 98520, Note_on_c, 1, 61, 92
3, 98920, Note_off_c, 1, 61, 64
3, 99000, Note_on_c, 1, 69, 92
3, 99115, Note_off_c, 1, 69, 64
3, 99120, Note_on_c, 1, 69, 92
3, 99235, Note_off_c, 1, 69, 64
3, 99240, Note_on_c, 1, 69, 92
3, 99355, Note_off_c, 1, 69, 64
3, 99360, Note_on_c, 1, 69, 92
3, 99475, Note_off_c, 1, 69, 64
3, 99480, Note_on_c, 1, 69, 92
3, 99595, Note_off_c, 1, 69, 64
3, 99600, Note_on_c, 1, 69, 90
3, 99715, Note_off_c, 1, 69, 64
3, 99720, Note_on_c, 1, 69, 88
3, 99835, Note_off_c, 1, 69, 64
3, 99840, Note_on_c, 1, 69, 86
3, 99955, Note_off_c, 1, 69, 64
3, 99960, Note_on_c, 1, 68, 84
3, 100075, Note_off_c, 1, 68, 64
3, 100080, Note_on_c, 1, 68, 82
3, 100195, Note_off_c, 1, 68, 64
3, 100200, Note_on_c, 1, 68, 80
3, 100315, Note_off_c, 1, 68, 64
3, 100320, Note_on_c, 1, 68, 78
3, 100435, Note_off_c, 1, 68, 64
3, 100440, Note_on_c, 1, 69, 75
3, 100840, Note_off_c, 1, 69, 64
3, 101400, Note_on_c, 1, 64, 75
3, 101800, Note_off_c, 1, 64, 64
3, 102360, Note_on_c, 1, 69, 75
3, 102760, Note_off_c, 1, 69, 64
3, 103320, Note_on_c, 1, 69, 75
3, 103400, Note_off_c, 1, 69, 64
3, 103560, Note_on_c, 1, 69, 75
3, 103795, Note_off_c, 1, 69, 64
3, 103800, Note_on_c, 1, 69, 75
3, 104035, Note_off_c, 1, 69, 64
3, 104040, Note_on_c, 1, 69, 75
3, 104275, Note_off_c, 1, 69, 64
3, 104280, Note_on_c, 1, 69, 75
3, 104680, Note_off_c, 1, 69, 64
3, 105240, Note_on_c, 1, 69, 75
3, 105640, Note_off_c, 1, 69, 64
3, 105720, Note_on_c, 1, 69, 75
3, 106120, Note_off_c, 1, 69, 64
3, 106200, Note_on_c, 1, 69, 75
3, 106315, Note_off_c, 1, 69, 64
3, 106320, Note_on_c, 1, 69, 75
3, 106435, Note_off_c, 1, 69, 64
3, 106440, Note_on_c, 1, 69, 75
3, 106555, Note_off_c, 1, 69, 64
3, 106560, Note_on_c, 1, 69, 75
3, 106675, Note_off_c, 1, 69, 64
3, 106680, Note_on_c, 1, 69, 75
3, 106795, Note_off_c, 1, 69, 64
3, 106800, Note_on_c, 1, 69, 75
3, 106915, Note_off_c, 1, 69, 64
3, 106920, Note_on_c, 1, 69, 75
3, 107035, Note_off_c, 1, 69, 64
3, 107040, Note_on_c, 1, 69, 75
3, 107155, Note_off_c, 1, 69, 64
3, 107160, Note_on_c, 1, 68, 75
3, 107275, Note_off_c, 1, 68, 64
3, 107280, Note_on_c, 1, 68, 77
3, 107395, Note_off_c, 1, 68, 64
3, 107400, Note_on_c, 1, 68, 79
3, 107515, Note_off_c, 1, 68, 64
3, 107520, Note_on_c, 1, 68, 81
3, 107635, Note_off_c, 1, 68, 64
3, 107640, Note_on_c, 1, 68, 83
3, 107755, Note_off_c, 1, 68, 64
3, 107760, Note_on_c, 1, 68, 85
3, 107875, Note_off_c, 1, 68, 64
3, 107880, Note_on_c, 1, 68, 87
3, 107995, Note_off_c, 1, 68, 64
3, 108000, Note_on_c, 1, 68, 89
3, 108115, Note_off_c, 1, 68, 64
3, 108120, Note_on_c, 1, 69, 92
3, 108200, Note_off_c, 1, 69, 64
3, 108360, Note_on_c, 1, 73, 92
3, 108600, Note_off_c, 1, 73, 64
3, 108600, Note_on_c, 1, 71, 92
3, 108680, Note_off_c, 1, 71, 64
3, 108840, Note_on_c, 1, 74, 92
3, 108920, Note_off_c, 1, 74, 64
3, 109080, Note_on_c, 1, 73, 92
3, 109160, Note_off_c, 1, 73, 64
3, 109320, Note_on_c, 1, 73, 92
3, 109560, Note_off_c, 1, 73, 64
3, 109560, Note_on_c, 1, 71, 92
3, 109640, Note_off_c, 1, 71, 64
3, 109800, Note_on_c, 1, 74, 92
3, 109880, Note_off_c, 1, 74, 64
3, 110040, Note_on_c, 1, 73, 92
3, 110275, Note_off_c, 1, 73, 64
3, 110520, Note_on_c, 1, 64, 92
3, 110520, Note_on_c, 1, 69, 92
3, 110755, Note_off_c, 1, 69, 64
3, 110755, Note_off_c, 1, 64, 64
3, 111000, Note_on_c, 1, 64, 92
3, 111000, Note_on_c, 1, 69, 92
3, 111400, Note_off_c, 1, 69, 64
3, 111400, Note_off_c, 1, 64, 64
3, 112080, Note_on_c, 1, 69, 92
3, 112720, Note_off_c, 1, 69, 64
3, 112800, Note_on_c, 1, 69, 92
3, 112880, Note_off_c, 1, 69, 64
3, 113040, Note_on_c, 1, 67, 92
3, 113120, Note_off_c, 1, 67, 64
3, 113280, Note_on_c, 1, 66, 92
3, 113360, Note_off_c, 1, 66, 64
3, 113520, Note_on_c, 1, 67, 92
3, 113600, Note_off_c, 1, 67, 64
3, 113760, Note_on_c, 1, 64, 92
3, 113840, Note_off_c, 1, 64, 64
3, 114000, Note_on_c, 1, 66, 92
3, 114080, Note_off_c, 1, 66, 64
3, 114240, Note_on_c, 1, 64, 92
3, 114320, Note_off_c, 1, 64, 64
3, 114480, Note_on_c, 1, 66, 92
3, 114560, Note_off_c, 1, 66, 64
3, 114720, Note_on_c, 1, 62, 92
3, 114800, Note_off_c, 1, 62, 64
3, 114960, Note_on_c, 1, 64, 92
3, 115040, Note_off_c, 1, 64, 64
3, 115200, Note_on_c, 1, 62, 92
3, 115280, Note_off_c, 1, 62, 64
3, 115440, Note_on_c, 1, 64, 92
3, 115520, Note_off_c, 1, 64, 64
3, 115680, Note_on_c, 1, 61, 92
3, 115760, Note_off_c, 1, 61, 64
3, 115920, Note_on_c, 1, 62, 92
3, 116000, Note_off_c, 1, 62, 64
3, 116160, Note_on_c, 1, 64, 92
3, 116240, Note_off_c, 1, 64, 64
3, 116400, Note_on_c, 1, 66, 92
3, 116480, Note_off_c, 1, 66, 64
3, 116640, Note_on_c, 1, 64, 92
3, 116720, Note_off_c, 1, 64, 64
3, 116880, Note_on_c, 1, 62, 92
3, 117280, Note_off_c, 1, 62, 64
3, 117360, Note_on_c, 1, 74, 92
3, 117920, Note_off_c, 1, 74, 64
3, 118080, Note_on_c, 1, 72, 92
3, 118160, Note_off_c, 1, 72, 64
3, 118320, Note_on_c, 1, 74, 92
3, 118400, Note_off_c, 1, 74, 64
3, 118560, Note_on_c, 1, 71, 92
3, 118640, Note_off_c, 1, 71, 64
3, 118800, Note_on_c, 1, 66, 92
3, 118880, Note_off_c, 1, 66, 64
3, 119040, Note_on_c, 1, 67, 92
3, 119120, Note_off_c, 1, 67, 64
3, 119280, Note_on_c, 1, 66, 92
3, 119360, Note_off_c, 1, 66, 64
3, 119520, Note_on_c, 1, 62, 92
3, 119520, Note_on_c, 1, 69, 92
3, 119600, Note_off_c, 1, 69, 64
3, 119600, Note_off_c, 1, 62, 64
3, 119760, Note_on_c, 1, 67, 92
3, 120160, Note_off_c, 1, 67, 64
3, 120720, Note_on_c, 1, 72, 92
3, 121680, Note_off_c, 1, 72, 64
3, 121680, Note_on_c, 1, 71, 92
3, 122520, Note_off_c, 1, 71, 64
3, 124560, Note_on_c, 1, 83, 92
3, 125200, Note_off_c, 1, 83, 64
3, 125280, Note_on_c, 1, 83, 92
3, 125360, Note_off_c, 1, 83, 64
3, 125520, Note_on_c, 1, 81, 92
3, 125600, Note_off_c, 1, 81, 64
3, 125760, Note_on_c, 1, 79, 92
3, 125840, Note_off_c, 1, 79, 64
3, 126000, Note_on_c, 1, 81, 92
3, 126080, Note_off_c, 1, 81, 64
3, 126240, Note_on_c, 1, 78, 92
3, 126320, Note_off_c, 1, 78, 64
3, 126480, Note_on_c, 1, 79, 92
3, 126560, Note_off_c, 1, 79, 64
3, 126960, Note_on_c, 1, 76, 92
3, 127440, Note_off_c, 1, 76, 64
3, 127440, Note_on_c, 1, 78, 92
3, 127920, Note_off_c, 1, 78, 64
3, 127920, Note_on_c, 1, 80, 92
3, 128400, Note_off_c, 1, 80, 64
3, 128400, Note_on_c, 1, 81, 92
3, 128480, Note_off_c, 1, 81, 64
3, 130320, Note_on_c, 1, 86, 92
3, 130960, Note_off_c, 1, 86, 64
3, 131040, Note_on_c, 1, 86, 92
3, 131120, Note_off_c, 1, 86, 64
3, 131280, Note_on_c, 1, 85, 92
3, 131360, Note_off_c, 1, 85, 64
3, 131520, Note_on_c, 1, 83, 92
3, 131600, Note_off_c, 1, 83, 64
3, 131760, Note_on_c, 1, 85, 92
3, 131840, Note_off_c, 1, 85, 64
3, 132000, Note_on_c, 1, 81, 92
3, 132080, Note_off_c, 1, 81, 64
3, 132240, Note_on_c, 1, 83, 92
3, 132880, Note_off_c, 1, 83, 64
3, 132960, Note_on_c, 1, 83, 92
3, 133040, Note_off_c, 1, 83, 64
3, 133200, Note_on_c, 1, 81, 92
3, 133840, Note_off_c, 1, 81, 64
3, 133920, Note_on_c, 1, 78, 92
3, 134000, Note_off_c, 1, 78, 64
3, 134160, Note_on_c, 1, 76, 92
3, 134220, Note_off_c, 1, 76, 64
3, 134220, Note_on_c, 1, 78, 92
3, 134280, Note_off_c, 1, 78, 64
3, 134280, Note_on_c, 1, 76, 92
3, 134340, Note_off_c, 1, 76, 64
3, 134340, Note_on_c, 1, 78, 92
3, 134400, Note_off_c, 1, 78, 64
3, 134400, Note_on_c, 1, 76, 92
3, 134460, Note_off_c, 1, 76, 64
3, 134460, Note_on_c, 1, 78, 92
3, 134520, Note_off_c, 1, 78, 64
3, 134520, Note_on_c, 1, 76, 92
3, 134580, Note_off_c, 1, 76, 64
3, 134580, Note_on_c, 1, 78, 92
3, 134640, Note_off_c, 1, 78, 64
3, 134640, Note_on_c, 1, 76, 92
3, 134700, Note_off_c, 1, 76, 64
3, 134700, Note_on_c, 1, 78, 92
3, 134760, Note_off_c, 1, 78, 64
3, 134760, Note_on_c, 1, 76, 92
3, 134820, Note_off_c, 1, 76, 64
3, 134820, Note_on_c, 1, 78, 92
3, 134880, Note_off_c, 1, 78, 64
3, 134880, Note_on_c, 1, 76, 92
3, 134940, Note_off_c, 1, 76, 64
3, 134940, Note_on_c, 1, 78, 92
3, 135000, Note_off_c, 1, 78, 64
3, 135000, Note_on_c, 1, 76, 92
3, 135060, Note_off_c, 1, 76, 64
3, 135060, Note_on_c, 1, 78, 92
3, 135120, Note_off_c, 1, 78, 64
3, 135120, Note_on_c, 1, 77, 92
3, 135520, Note_off_c, 1, 77, 64
3, 136140, Note_on_c, 1, 71, 92
3, 136540, Note_off_c, 1, 71, 64
3, 137160, Note_on_c, 1, 73, 92
3, 137560, Note_off_c, 1, 73, 64
3, 139080, Note_on_c, 1, 69, 45
3, 139160, Note_off_c, 1, 69, 64
3, 139560, Note_on_c, 1, 74, 45
3, 139640, Note_off_c, 1, 74, 64
3, 140040, Note_on_c, 1, 71, 45
3, 140120, Note_off_c, 1, 71, 64
3, 141000, Note_on_c, 1, 71, 45
3, 141080, Note_off_c, 1, 71, 64
3, 141480, Note_on_c, 1, 67, 45
3, 141560, Note_off_c, 1, 67, 64
3, 141960, Note_on_c, 1, 66, 45
3, 142040, Note_off_c, 1, 66, 64
3, 142980, Note_on_c, 1, 66, 75
3, 143060, Note_off_c, 1, 66, 64
3, 143220, Note_on_c, 1, 66, 75
3, 143300, Note_off_c, 1, 66, 64
3, 143460, Note_on_c, 1, 66, 75
3, 143540, Note_off_c, 1, 66, 64
3, 143700, Note_on_c, 1, 66, 75
3, 143780, Note_off_c, 1, 66, 64
3, 143940, Note_on_c, 1, 66, 75
3, 144020, Note_off_c, 1, 66, 64
3, 144180, Note_on_c, 1, 66, 75
3, 144260, Note_off_c, 1, 66, 64
3, 144420, Note_on_c, 1, 66, 75
3, 144500, Note_off_c, 1, 66, 64
3, 144660, Note_on_c, 1, 66, 75
3, 144740, Note_off_c, 1, 66, 64
3, 144900, Note_on_c, 1, 67, 75
3, 144980, Note_off_c, 1, 67, 64
3, 145140, Note_on_c, 1, 67, 75
3, 145220, Note_off_c, 1, 67, 64
3, 145380, Note_on_c, 1, 67, 75
3, 145460, Note_off_c, 1, 67, 64
3, 145620, Note_on_c, 1, 67, 75
3, 145700, Note_off_c, 1, 67, 64
3, 145860, Note_on_c, 1, 66, 75
3, 146095, Note_off_c, 1, 66, 64
3, 146100, Note_on_c, 1, 66, 75
3, 146180, Note_off_c, 1, 66, 64
3, 146340, Note_on_c, 1, 66, 75
3, 146420, Note_off_c, 1, 66, 64
3, 146580, Note_on_c, 1, 66, 75
3, 146660, Note_off_c, 1, 66, 64
3, 146820, Note_on_c, 1, 66, 75
3, 146900, Note_off_c, 1, 66, 64
3, 147060, Note_on_c, 1, 66, 75
3, 147140, Note_off_c, 1, 66, 64
3, 147300, Note_on_c, 1, 66, 75
3, 147380, Note_off_c, 1, 66, 64
3, 147540, Note_on_c, 1, 66, 75
3, 147620, Note_off_c, 1, 66, 64
3, 147780, Note_on_c, 1, 69, 75
3, 147860, Note_off_c, 1, 69, 64
3, 148020, Note_on_c, 1, 69, 75
3, 148100, Note_off_c, 1, 69, 64
3, 148260, Note_on_c, 1, 69, 75
3, 148340, Note_off_c, 1, 69, 64
3, 148500, Note_on_c, 1, 69, 75
3, 148580, Note_off_c, 1, 69, 64
3, 148740, Note_on_c, 1, 69, 75
3, 148820, Note_off_c, 1, 69, 64
3, 148980, Note_on_c, 1, 69, 75
3, 149060, Note_off_c, 1, 69, 64
3, 149220, Note_on_c, 1, 69, 75
3, 149300, Note_off_c, 1, 69, 64
3, 149460, Note_on_c, 1, 69, 75
3, 149540, Note_off_c, 1, 69, 64
3, 149700, Note_on_c, 1, 69, 75
3, 149935, Note_off_c, 1, 69, 64
3, 149940, Note_on_c, 1, 69, 75
3, 150020, Note_off_c, 1, 69, 64
3, 150180, Note_on_c, 1, 69, 75
3, 150260, Note_off_c, 1, 69, 64
3, 150420, Note_on_c, 1, 69, 75
3, 150500, Note_off_c, 1, 69, 64
3, 150660, Note_on_c, 1, 67, 92
3, 150740, Note_off_c, 1, 67, 64
3, 150780, Note_on_c, 1, 69, 92
3, 150860, Note_off_c, 1, 69, 64
3, 150900, Note_on_c, 1, 67, 92
3, 150980, Note_off_c, 1, 67, 64
3, 151020, Note_on_c, 1, 66, 92
3, 151100, Note_off_c, 1, 66, 64
3, 151140, Note_on_c, 1, 67, 92
3, 151220, Note_off_c, 1, 67, 64
3, 151260, Note_on_c, 1, 64, 92
3, 151340, Note_off_c, 1, 64, 64
3, 151380, Note_on_c, 1, 69, 92
3, 151460, Note_off_c, 1, 69, 64
3, 151500, Note_on_c, 1, 67, 92
3, 151580, Note_off_c, 1, 67, 64
3, 151620, Note_on_c, 1, 66, 92
3, 151700, Note_off_c, 1, 66, 64
3, 151740, Note_on_c, 1, 67, 92
3, 151820, Note_off_c, 1, 67, 64
3, 151860, Note_on_c, 1, 69, 92
3, 151940, Note_off_c, 1, 69, 64
3, 151980, Note_on_c, 1, 67, 92
3, 152060, Note_off_c, 1, 67, 64
3, 152100, Note_on_c, 1, 66, 92
3, 152180, Note_off_c, 1, 66, 64
3, 152220, Note_on_c, 1, 64, 92
3, 152300, Note_off_c, 1, 64, 64
3, 152340, Note_on_c, 1, 66, 92
3, 152420, Note_off_c, 1, 66, 64
3, 152460, Note_on_c, 1, 62, 92
3, 152540, Note_off_c, 1, 62, 64
3, 152580, Note_on_c, 1, 61, 92
3, 152660, Note_off_c, 1, 61, 64
3, 152700, Note_on_c, 1, 62, 92
3, 152780, Note_off_c, 1, 62, 64
3, 152820, Note_on_c, 1, 61, 92
3, 152900, Note_off_c, 1, 61, 64
3, 152940, Note_on_c, 1, 59, 92
3, 153020, Note_off_c, 1, 59, 64
3, 153060, Note_on_c, 1, 57, 92
3, 153140, Note_off_c, 1, 57, 64
3, 153180, Note_on_c, 1, 61, 92
3, 153260, Note_off_c, 1, 61, 64
3, 153300, Note_on_c, 1, 62, 92
3, 153380, Note_off_c, 1, 62, 64
3, 153420, Note_on_c, 1, 64, 92
3, 153500, Note_off_c, 1, 64, 64
3, 153540, Note_on_c, 1, 62, 92
3, 153620, Note_off_c, 1, 62, 64
3, 153660, Note_on_c, 1, 64, 92
3, 153740, Note_off_c, 1, 64, 64
3, 153780, Note_on_c, 1, 66, 92
3, 153860, Note_off_c, 1, 66, 64
3, 153900, Note_on_c, 1, 67, 92
3, 153980, Note_off_c, 1, 67, 64
3, 154020, Note_on_c, 1, 69, 92
3, 154100, Note_off_c, 1, 69, 64
3, 154140, Note_on_c, 1, 71, 92
3, 154220, Note_off_c, 1, 71, 64
3, 154260, Note_on_c, 1, 73, 92
3, 154340, Note_off_c, 1, 73, 64
3, 154380, Note_on_c, 1, 74, 92
3, 154460, Note_off_c, 1, 74, 64
3, 154500, Note_on_c, 1, 67, 92
3, 154580, Note_off_c, 1, 67, 64
3, 154620, Note_on_c, 1, 69, 92
3, 154700, Note_off_c, 1, 69, 64
3, 154740, Note_on_c, 1, 67, 92
3, 154820, Note_off_c, 1, 67, 64
3, 154860, Note_on_c, 1, 66, 92
3, 154940, Note_off_c, 1, 66, 64
3, 154980, Note_on_c, 1, 67, 92
3, 155060, Note_off_c, 1, 67, 64
3, 155100, Note_on_c, 1, 64, 92
3, 155180, Note_off_c, 1, 64, 64
3, 155220, Note_on_c, 1, 69, 92
3, 155300, Note_off_c, 1, 69, 64
3, 155340, Note_on_c, 1, 67, 92
3, 155420, Note_off_c, 1, 67, 64
3, 155460, Note_on_c, 1, 66, 92
3, 155540, Note_off_c, 1, 66, 64
3, 155580, Note_on_c, 1, 67, 92
3, 155660, Note_off_c, 1, 67, 64
3, 155700, Note_on_c, 1, 69, 92
3, 155780, Note_off_c, 1, 69, 64
3, 155820, Note_on_c, 1, 67, 92
3, 155900, Note_off_c, 1, 67, 64
3, 155940, Note_on_c, 1, 66, 92
3, 156020, Note_off_c, 1, 66, 64
3, 156060, Note_on_c, 1, 64, 92
3, 156140, Note_off_c, 1, 64, 64
3, 156180, Note_on_c, 1, 66, 92
3, 156260, Note_off_c, 1, 66, 64
3, 156300, Note_on_c, 1, 62, 92
3, 156380, Note_off_c, 1, 62, 64
3, 156420, Note_on_c, 1, 61, 92
3, 156500, Note_off_c, 1, 61, 64
3, 156540, Note_on_c, 1, 62, 92
3, 156620, Note_off_c, 1, 62, 64
3, 156660, Note_on_c, 1, 61, 92
3, 156740, Note_off_c, 1, 61, 64
3, 156780, Note_on_c, 1, 59, 92
3, 156860, Note_off_c, 1, 59, 64
3, 156900, Note_on_c, 1, 57, 92
3, 156980, Note_off_c, 1, 57, 64
3, 157020, Note_on_c, 1, 61, 92
3, 157100, Note_off_c, 1, 61, 64
3, 157140, Note_on_c, 1, 62, 92
3, 157220, Note_off_c, 1, 62, 64
3, 157260, Note_on_c, 1, 64, 92
3, 157340, Note_off_c, 1, 64, 64
3, 157380, Note_on_c, 1, 62, 92
3, 157460, Note_off_c, 1, 62, 64
3, 157500, Note_on_c, 1, 64, 92
3, 157580, Note_off_c, 1, 64, 64
3, 157620, Note_on_c, 1, 66, 92
3, 157700, Note_off_c, 1, 66, 64
3, 157740, Note_on_c, 1, 67, 92
3, 157820, Note_off_c, 1, 67, 64
3, 157860, Note_on_c, 1, 69, 92
3, 157940, Note_off_c, 1, 69, 64
3, 157980, Note_on_c, 1, 71, 92
3, 158060, Note_off_c, 1, 71, 64
3, 158100, Note_on_c, 1, 73, 92
3, 158180, Note_off_c, 1, 73, 64
3, 158220, Note_on_c, 1, 74, 92
3, 158300, Note_off_c, 1, 74, 64
3, 158340, Note_on_c, 1, 62, 92
3, 158740, Note_off_c, 1, 62, 64
3, 158820, Note_on_c, 1, 64, 92
3, 158880, Note_off_c, 1, 64, 64
3, 158880, Note_on_c, 1, 66, 92
3, 158940, Note_off_c, 1, 66, 64
3, 158940, Note_on_c, 1, 64, 92
3, 159000, Note_off_c, 1, 64, 64
3, 159000, Note_on_c, 1, 66, 92
3, 159060, Note_off_c, 1, 66, 64
3, 159060, Note_on_c, 1, 64, 92
3, 159120, Note_off_c, 1, 64, 64
3, 159120, Note_on_c, 1, 66, 92
3, 159180, Note_off_c, 1, 66, 64
3, 159180, Note_on_c, 1, 62, 92
3, 159240, Note_off_c, 1, 62, 64
3, 159240, Note_on_c, 1, 64, 92
3, 159300, Note_off_c, 1, 64, 64
3, 159300, Note_on_c, 1, 62, 92
3, 159380, Note_off_c, 1, 62, 64
3, 159540, Note_on_c, 1, 74, 92
3, 159780, Note_off_c, 1, 74, 64
3, 159780, Note_on_c, 1, 76, 92
3, 160020, Note_off_c, 1, 76, 64
3, 160020, Note_on_c, 1, 78, 92
3, 160260, Note_off_c, 1, 78, 64
3, 160260, Note_on_c, 1, 76, 92
3, 160340, Note_off_c, 1, 76, 64
3, 160740, Note_on_c, 1, 74, 92
3, 160820, Note_off_c, 1, 74, 64
3, 161220, Note_on_c, 1, 73, 92
3, 161300, Note_off_c, 1, 73, 64
3, 163380, Note_on_c, 1, 62, 45
3, 163460, Note_off_c, 1, 62, 64
3, 163620, Note_on_c, 1, 64, 45
3, 163700, Note_off_c, 1, 64, 64
3, 163860, Note_on_c, 1, 66, 45
3, 163940, Note_off_c, 1, 66, 64
3, 164100, Note_on_c, 1, 67, 45
3, 164180, Note_off_c, 1, 67, 64
3, 164340, Note_on_c, 1, 69, 45
3, 164420, Note_off_c, 1, 69, 64
3, 164580, Note_on_c, 1, 71, 45
3, 164660, Note_off_c, 1, 71, 64
3, 165300, Note_on_c, 1, 71, 45
3, 165380, Note_off_c, 1, 71, 64
3, 165540, Note_on_c, 1, 69, 45
3, 165620, Note_off_c, 1, 69, 64
3, 165780, Note_on_c, 1, 67, 45
3, 165860, Note_off_c, 1, 67, 64
3, 166020, Note_on_c, 1, 66, 45
3, 166100, Note_off_c, 1, 66, 64
3, 166260, Note_on_c, 1, 64, 45
3, 166340, Note_off_c, 1, 64, 64
3, 166500, Note_on_c, 1, 62, 45
3, 166580, Note_off_c, 1, 62, 64
3, 167220, Note_on_c, 1, 62, 30
3, 167300, Note_off_c, 1, 62, 64
3, 167460, Note_on_c, 1, 64, 30
3, 167540, Note_off_c, 1, 64, 64
3, 167700, Note_on_c, 1, 66, 30
3, 167780, Note_off_c, 1, 66, 64
3, 167940, Note_on_c, 1, 67, 30
3, 168020, Note_off_c, 1, 67, 64
3, 168180, Note_on_c, 1, 69, 30
3, 168260, Note_off_c, 1, 69, 64
3, 168420, Note_on_c, 1, 71, 30
3, 168500, Note_off_c, 1, 71, 64
3, 169140, Note_on_c, 1, 71, 30
3, 169220, Note_off_c, 1, 71, 64
3, 169380, Note_on_c, 1, 69, 30
3, 169460, Note_off_c, 1, 69, 64
3, 169620, Note_on_c, 1, 67, 30
3, 169700, Note_off_c, 1, 67, 64
3, 169860, Note_on_c, 1, 66, 30
3, 169940, Note_off_c, 1, 66, 64
3, 170100, Note_on_c, 1, 64, 30
3, 170180, Note_off_c, 1, 64, 64
3, 170340, Note_on_c, 1, 62, 30
3, 170420, Note_off_c, 1, 62, 64
3, 171060, Note_on_c, 1, 62, 92
3, 171140, Note_off_c, 1, 62, 64
3, 171300, Note_on_c, 1, 61, 92
3, 171380, Note_off_c, 1, 61, 64
3, 171540, Note_on_c, 1, 62, 92
3, 171620, Note_off_c, 1, 62, 64
3, 171780, Note_on_c, 1, 62, 92
3, 172020, Note_off_c, 1, 62, 64
3, 172020, Note_on_c, 1, 64, 92
3, 172255, Note_off_c, 1, 64, 64
3, 172260, Note_on_c, 1, 64, 92
3, 172975, Note_off_c, 1, 64, 64
3, 172980, Note_on_c, 1, 67, 92
3, 173060, Note_off_c, 1, 67, 64
3, 173220, Note_on_c, 1, 66, 92
3, 173340, Note_off_c, 1, 66, 64
3, 173340, Note_on_c, 1, 64, 92
3, 173460, Note_off_c, 1, 64, 64
3, 173460, Note_on_c, 1, 62, 92
3, 173580, Note_off_c, 1, 62, 64
3, 173580, Note_on_c, 1, 61, 92
3, 173700, Note_off_c, 1, 61, 64
3, 173700, Note_on_c, 1, 69, 92
3, 173935, Note_off_c, 1, 69, 64
3, 174240, Note_on_c, 1, 69, 92
3, 174955, Note_off_c, 1, 69, 64
3, 174960, Note_on_c, 1, 62, 92
3, 175040, Note_off_c, 1, 62, 64
3, 175200, Note_on_c, 1, 61, 92
3, 175280, Note_off_c, 1, 61, 64
3, 175440, Note_on_c, 1, 62, 92
3, 175520, Note_off_c, 1, 62, 64
3, 175680, Note_on_c, 1, 62, 92
3, 175920, Note_off_c, 1, 62, 64
3, 175920, Note_on_c, 1, 64, 92
3, 176155, Note_off_c, 1, 64, 64
3, 176160, Note_on_c, 1, 64, 92
3, 176875, Note_off_c, 1, 64, 64
3, 176880, Note_on_c, 1, 67, 92
3, 176960, Note_off_c, 1, 67, 64
3, 177120, Note_on_c, 1, 66, 92
3, 177240, Note_off_c, 1, 66, 64
3, 177240, Note_on_c, 1, 64, 92
3, 177360, Note_off_c, 1, 64, 64
3, 177360, Note_on_c, 1, 62, 92
3, 177480, Note_off_c, 1, 62, 64
3, 177480, Note_on_c, 1, 61, 92
3, 177600, Note_off_c, 1, 61, 64
3, 177600, Note_on_c, 1, 69, 92
3, 177835, Note_off_c, 1, 69, 64
3, 178140, Note_on_c, 1, 69, 92
3, 178855, Note_off_c, 1, 69, 64
3, 178860, Note_on_c, 1, 69, 92
3, 178940, Note_off_c, 1, 69, 64
3, 179100, Note_on_c, 1, 69, 92
3, 179180, Note_off_c, 1, 69, 64
3, 179340, Note_on_c, 1, 69, 92
3, 179420, Note_off_c, 1, 69, 64
3, 179580, Note_on_c, 1, 67, 92
3, 179815, Note_off_c, 1, 67, 64
3, 180120, Note_on_c, 1, 71, 92
3, 180835, Note_off_c, 1, 71, 64
3, 180840, Note_on_c, 1, 79, 92
3, 180920, Note_off_c, 1, 79, 64
3, 181080, Note_on_c, 1, 74, 92
3, 181160, Note_off_c, 1, 74, 64
3, 181320, Note_on_c, 1, 71, 92
3, 181400, Note_off_c, 1, 71, 64
3, 181560, Note_on_c, 1, 69, 92
3, 181675, Note_off_c, 1, 69, 64
3, 181680, Note_on_c, 1, 69, 92
3, 181795, Note_off_c, 1, 69, 64
3, 181800, Note_on_c, 1, 69, 92
3, 181915, Note_off_c, 1, 69, 64
3, 181920, Note_on_c, 1, 69, 92
3, 182035, Note_off_c, 1, 69, 64
3, 182040, Note_on_c, 1, 74, 92
3, 182155, Note_off_c, 1, 74, 64
3, 182160, Note_on_c, 1, 74, 92
3, 182275, Note_off_c, 1, 74, 64
3, 182280, Note_on_c, 1, 74, 92
3, 182395, Note_off_c, 1, 74, 64
3, 182400, Note_on_c, 1, 74, 92
3, 182515, Note_off_c, 1, 74, 64
3, 182520, Note_on_c, 1, 74, 92
3, 182635, Note_off_c, 1, 74, 64
3, 182640, Note_on_c, 1, 74, 92
3, 182755, Note_off_c, 1, 74, 64
3, 182760, Note_on_c, 1, 74, 92
3, 182875, Note_off_c, 1, 74, 64
3, 182880, Note_on_c, 1, 74, 92
3, 182995, Note_off_c, 1, 74, 64
3, 183000, Note_on_c, 1, 73, 92
3, 183115, Note_off_c, 1, 73, 64
3, 183120, Note_on_c, 1, 73, 92
3, 183235, Note_off_c, 1, 73, 64
3, 183240, Note_on_c, 1, 73, 92
3, 183355, Note_off_c, 1, 73, 64
3, 183360, Note_on_c, 1, 73, 92
3, 183475, Note_off_c, 1, 73, 64
3, 183480, Note_on_c, 1, 74, 75
3, 183880, Note_off_c, 1, 74, 64
3, 184440, Note_on_c, 1, 66, 75
3, 184440, Note_on_c, 1, 69, 75
3, 184840, Note_off_c, 1, 69, 64
3, 184840, Note_off_c, 1, 66, 64
3, 185400, Note_on_c, 1, 69, 75
3, 185400, Note_on_c, 1, 78, 75
3, 185800, Note_off_c, 1, 78, 64
3, 185800, Note_off_c, 1, 69, 64
3, 186360, Note_on_c, 1, 74, 75
3, 186440, Note_off_c, 1, 74, 64
3, 186600, Note_on_c, 1, 74, 75
3, 186835, Note_off_c, 1, 74, 64
3, 186840, Note_on_c, 1, 74, 75
3, 187075, Note_off_c, 1, 74, 64
3, 187080, Note_on_c, 1, 74, 75
3, 187315, Note_off_c, 1, 74, 64
3, 187320, Note_on_c, 1, 74, 75
3, 187720, Note_off_c, 1, 74, 64
3, 188280, Note_on_c, 1, 71, 75
3, 188680, Note_off_c, 1, 71, 64
3, 188760, Note_on_c, 1, 64, 75
3, 189160, Note_off_c, 1, 64, 64
3, 189240, Note_on_c, 1, 57, 75
3, 189240, Note_on_c, 1, 66, 75
3, 189355, Note_off_c, 1, 66, 64
3, 189355, Note_off_c, 1, 57, 64
3, 189360, Note_on_c, 1, 57, 75
3, 189360, Note_on_c, 1, 66, 75
3, 189475, Note_off_c, 1, 66, 64
3, 189475, Note_off_c, 1, 57, 64
3, 189480, Note_on_c, 1, 57, 75
3, 189480, Note_on_c, 1, 66, 75
3, 189595, Note_off_c, 1, 66, 64
3, 189595, Note_off_c, 1, 57, 64
3, 189600, Note_on_c, 1, 57, 75
3, 189600, Note_on_c, 1, 66, 75
3, 189715, Note_off_c, 1, 66, 64
3, 189715, Note_off_c, 1, 57, 64
3, 189720, Note_on_c, 1, 57, 75
3, 189720, Note_on_c, 1, 66, 75
3, 189835, Note_off_c, 1, 66, 64
3, 189835, Note_off_c, 1, 57, 64
3, 189840, Note_on_c, 1, 57, 75
3, 189840, Note_on_c, 1, 66, 75
3, 189955, Note_off_c, 1, 66, 64
3, 189955, Note_off_c, 1, 57, 64
3, 189960, Note_on_c, 1, 57, 75
3, 189960, Note_on_c, 1, 66, 75
3, 190075, Note_off_c, 1, 66, 64
3, 190075, Note_off_c, 1, 57, 64
3, 190080, Note_on_c, 1, 57, 75
3, 190080, Note_on_c, 1, 66, 75
3, 190195, Note_off_c, 1, 66, 64
3, 190195, Note_off_c, 1, 57, 64
3, 190200, Note_on_c, 1, 57, 75
3, 190200, Note_on_c, 1, 67, 75
3, 190315, Note_off_c, 1, 67, 64
3, 190315, Note_off_c, 1, 57, 64
3, 190320, Note_on_c, 1, 57, 75
3, 190320, Note_on_c, 1, 67, 75
3, 190435, Note_off_c, 1, 67, 64
3, 190435, Note_off_c, 1, 57, 64
3, 190440, Note_on_c, 1, 57, 75
3, 190440, Note_on_c, 1, 67, 75
3, 190555, Note_off_c, 1, 67, 64
3, 190555, Note_off_c, 1, 57, 64
3, 190560, Note_on_c, 1, 57, 75
3, 190560, Note_on_c, 1, 67, 75
3, 190675, Note_off_c, 1, 67, 64
3, 190675, Note_off_c, 1, 57, 64
3, 190680, Note_on_c, 1, 57, 75
3, 190680, Note_on_c, 1, 67, 75
3, 190795, Note_off_c, 1, 67, 64
3, 190795, Note_off_c, 1, 57, 64
3, 190800, Note_on_c, 1, 57, 75
3, 190800, Note_on_c, 1, 67, 75
3, 190915, Note_off_c, 1, 67, 64
3, 190915, Note_off_c, 1, 57, 64
3, 190920, Note_on_c, 1, 57, 75
3, 190920, Note_on_c, 1, 67, 75
3, 191035, Note_off_c, 1, 67, 64
3, 191035, Note_off_c, 1, 57, 64
3, 191040, Note_on_c, 1, 57, 75
3, 191040, Note_on_c, 1, 67, 75
3, 191155, Note_off_c, 1, 67, 64
3, 191155, Note_off_c, 1, 57, 64
3, 191160, Note_on_c, 1, 57, 92
3, 191160, Note_on_c, 1, 66, 92
3, 191240, Note_off_c, 1, 66, 64
3, 191240, Note_off_c, 1, 57, 64
3, 191400, Note_on_c, 1, 78, 92
3, 191640, Note_off_c, 1, 78, 64
3, 191640, Note_on_c, 1, 76, 92
3, 191720, Note_off_c, 1, 76, 64
3, 191880, Note_on_c, 1, 69, 92
3, 191880, Note_on_c, 1, 79, 92
3, 191960, Note_off_c, 1, 79, 64
3, 191960, Note_off_c, 1, 69, 64
3, 192120, Note_on_c, 1, 69, 92
3, 192120, Note_on_c, 1, 78, 92
3, 192200, Note_off_c, 1, 78, 64
3, 192200, Note_off_c, 1, 69, 64
3, 192360, Note_on_c, 1, 78, 92
3, 192600, Note_off_c, 1, 78, 64
3, 192600, Note_on_c, 1, 76, 92
3, 192680, Note_off_c, 1, 76, 64
3, 192840, Note_on_c, 1, 69, 92
3, 192840, Note_on_c, 1, 79, 92
3, 192920, Note_off_c, 1, 79, 64
3, 192920, Note_off_c, 1, 69, 64
3, 193080, Note_on_c, 1, 69, 92
3, 193080, Note_on_c, 1, 78, 92
3, 193315, Note_off_c, 1, 78, 64
3, 193315, Note_off_c, 1, 69, 64
3, 193560, Note_on_c, 1, 69, 92
3, 193560, Note_on_c, 1, 78, 92
3, 193960, Note_off_c, 1, 78, 64
3, 193960, Note_off_c, 1, 69, 64
3, 194040, Note_on_c, 1, 69, 92
3, 194040, Note_on_c, 1, 78, 92
3, 194440, Note_off_c, 1, 78, 64
3, 194440, Note_off_c, 1, 69, 64
3, 194440, End_track
4, 0, Start_track
4, 0, Title_t, "Mozart arr : Pollen (2000)"
4, 0, MIDI_port, 0
4, 0, Channel_prefix, 2
4, 0, Control_c, 2, 7, 127
4, 0, Control_c, 2, 10, 69
4, 0, Control_c, 2, 91, 52
4, 0, Program_c, 2, 50
4, 0, Note_on_c, 2, 66, 45
4, 80, Note_off_c, 2, 66, 64
4, 480, Note_on_c, 2, 69, 45
4, 560, Note_off_c, 2, 69, 64
4, 960, Note_on_c, 2, 67, 45
4, 1040, Note_off_c, 2, 67, 64
4, 1920, Note_on_c, 2, 64, 45
4, 2000, Note_off_c, 2, 64, 64
4, 2400, Note_on_c, 2, 64, 45
4, 2480, Note_off_c, 2, 64, 64
4, 2880, Note_on_c, 2, 62, 45
4, 2960, Note_off_c, 2, 62, 64
4, 3840, Note_on_c, 2, 62, 75
4, 3920, Note_off_c, 2, 62, 64
4, 4080, Note_on_c, 2, 62, 75
4, 4160, Note_off_c, 2, 62, 64
4, 4320, Note_on_c, 2, 62, 75
4, 4400, Note_off_c, 2, 62, 64
4, 4560, Note_on_c, 2, 62, 75
4, 4640, Note_off_c, 2, 62, 64
4, 4800, Note_on_c, 2, 62, 75
4, 4880, Note_off_c, 2, 62, 64
4, 5040, Note_on_c, 2, 62, 75
4, 5120, Note_off_c, 2, 62, 64
4, 5280, Note_on_c, 2, 62, 75
4, 5360, Note_off_c, 2, 62, 64
4, 5520, Note_on_c, 2, 62, 75
4, 5600, Note_off_c, 2, 62, 64
4, 5760, Note_on_c, 2, 64, 75
4, 6480, Note_off_c, 2, 64, 64
4, 6480, Note_on_c, 2, 62, 75
4, 6600, Note_off_c, 2, 62, 64
4, 6600, Note_on_c, 2, 61, 75
4, 6720, Note_off_c, 2, 61, 64
4, 6720, Note_on_c, 2, 62, 75
4, 6800, Note_off_c, 2, 62, 64
4, 6960, Note_on_c, 2, 62, 75
4, 7040, Note_off_c, 2, 62, 64
4, 7200, Note_on_c, 2, 62, 75
4, 7280, Note_off_c, 2, 62, 64
4, 7440, Note_on_c, 2, 62, 75
4, 7520, Note_off_c, 2, 62, 64
4, 7680, Note_on_c, 2, 62, 75
4, 7760, Note_off_c, 2, 62, 64
4, 7920, Note_on_c, 2, 62, 75
4, 8000, Note_off_c, 2, 62, 64
4, 8160, Note_on_c, 2, 62, 75
4, 8240, Note_off_c, 2, 62, 64
4, 8400, Note_on_c, 2, 62, 75
4, 8480, Note_off_c, 2, 62, 64
4, 8640, Note_on_c, 2, 62, 75
4, 8720, Note_off_c, 2, 62, 64
4, 8880, Note_on_c, 2, 62, 75
4, 8960, Note_off_c, 2, 62, 64
4, 9120, Note_on_c, 2, 62, 75
4, 9200, Note_off_c, 2, 62, 64
4, 9360, Note_on_c, 2, 62, 75
4, 9440, Note_off_c, 2, 62, 64
4, 9600, Note_on_c, 2, 61, 75
4, 10320, Note_off_c, 2, 61, 64
4, 10320, Note_on_c, 2, 62, 75
4, 10440, Note_off_c, 2, 62, 64
4, 10440, Note_on_c, 2, 64, 75
4, 10560, Note_off_c, 2, 64, 64
4, 10560, Note_on_c, 2, 62, 75
4, 10640, Note_off_c, 2, 62, 64
4, 10800, Note_on_c, 2, 66, 75
4, 10880, Note_off_c, 2, 66, 64
4, 11040, Note_on_c, 2, 66, 75
4, 11120, Note_off_c, 2, 66, 64
4, 11280, Note_on_c, 2, 66, 75
4, 11360, Note_off_c, 2, 66, 64
4, 11520, Note_on_c, 2, 62, 75
4, 11600, Note_off_c, 2, 62, 64
4, 11760, Note_on_c, 2, 62, 75
4, 11840, Note_off_c, 2, 62, 64
4, 12000, Note_on_c, 2, 62, 75
4, 12080, Note_off_c, 2, 62, 64
4, 12240, Note_on_c, 2, 62, 75
4, 12320, Note_off_c, 2, 62, 64
4, 12480, Note_on_c, 2, 50, 75
4, 12560, Note_off_c, 2, 50, 64
4, 12720, Note_on_c, 2, 50, 75
4, 12800, Note_off_c, 2, 50, 64
4, 12960, Note_on_c, 2, 50, 75
4, 13040, Note_off_c, 2, 50, 64
4, 13200, Note_on_c, 2, 50, 75
4, 13280, Note_off_c, 2, 50, 64
4, 13440, Note_on_c, 2, 57, 75
4, 13520, Note_off_c, 2, 57, 64
4, 13680, Note_on_c, 2, 57, 75
4, 13760, Note_off_c, 2, 57, 64
4, 13920, Note_on_c, 2, 57, 75
4, 14000, Note_off_c, 2, 57, 64
4, 14160, Note_on_c, 2, 57, 75
4, 14240, Note_off_c, 2, 57, 64
4, 14400, Note_on_c, 2, 57, 75
4, 14480, Note_off_c, 2, 57, 64
4, 14640, Note_on_c, 2, 57, 75
4, 14720, Note_off_c, 2, 57, 64
4, 14880, Note_on_c, 2, 57, 75
4, 14960, Note_off_c, 2, 57, 64
4, 15120, Note_on_c, 2, 57, 75
4, 15200, Note_off_c, 2, 57, 64
4, 15360, Note_on_c, 2, 62, 75
4, 15440, Note_off_c, 2, 62, 64
4, 15600, Note_on_c, 2, 62, 75
4, 15680, Note_off_c, 2, 62, 64
4, 15840, Note_on_c, 2, 62, 75
4, 15920, Note_off_c, 2, 62, 64
4, 16080, Note_on_c, 2, 62, 75
4, 16160, Note_off_c, 2, 62, 64
4, 16320, Note_on_c, 2, 50, 75
4, 16400, Note_off_c, 2, 50, 64
4, 16560, Note_on_c, 2, 50, 75
4, 16640, Note_off_c, 2, 50, 64
4, 16800, Note_on_c, 2, 50, 75
4, 16880, Note_off_c, 2, 50, 64
4, 17040, Note_on_c, 2, 50, 75
4, 17120, Note_off_c, 2, 50, 64
4, 17280, Note_on_c, 2, 57, 75
4, 17360, Note_off_c, 2, 57, 64
4, 17520, Note_on_c, 2, 57, 75
4, 17600, Note_off_c, 2, 57, 64
4, 17760, Note_on_c, 2, 57, 75
4, 17840, Note_off_c, 2, 57, 64
4, 18000, Note_on_c, 2, 57, 75
4, 18080, Note_off_c, 2, 57, 64
4, 18240, Note_on_c, 2, 57, 75
4, 18320, Note_off_c, 2, 57, 64
4, 18480, Note_on_c, 2, 57, 75
4, 18560, Note_off_c, 2, 57, 64
4, 18720, Note_on_c, 2, 57, 75
4, 18800, Note_off_c, 2, 57, 64
4, 18960, Note_on_c, 2, 57, 75
4, 19040, Note_off_c, 2, 57, 64
4, 19200, Note_on_c, 2, 62, 75
4, 19435, Note_off_c, 2, 62, 64
4, 19440, Note_on_c, 2, 66, 79
4, 19675, Note_off_c, 2, 66, 64
4, 19680, Note_on_c, 2, 64, 83
4, 19915, Note_off_c, 2, 64, 64
4, 19920, Note_on_c, 2, 64, 87
4, 20155, Note_off_c, 2, 64, 64
4, 20160, Note_on_c, 2, 64, 92
4, 20240, Note_off_c, 2, 64, 64
4, 20400, Note_on_c, 2, 69, 92
4, 20640, Note_off_c, 2, 69, 64
4, 20640, Note_on_c, 2, 68, 92
4, 20880, Note_off_c, 2, 68, 64
4, 20880, Note_on_c, 2, 69, 92
4, 21120, Note_off_c, 2, 69, 64
4, 21120, Note_on_c, 2, 64, 92
4, 21200, Note_off_c, 2, 64, 64
4, 21600, Note_on_c, 2, 64, 92
4, 21680, Note_off_c, 2, 64, 64
4, 22080, Note_on_c, 2, 64, 92
4, 22160, Note_off_c, 2, 64, 64
4, 23100, Note_on_c, 2, 57, 45
4, 23180, Note_off_c, 2, 57, 64
4, 23340, Note_on_c, 2, 57, 45
4, 23420, Note_off_c, 2, 57, 64
4, 23580, Note_on_c, 2, 57, 45
4, 23660, Note_off_c, 2, 57, 64
4, 23820, Note_on_c, 2, 57, 45
4, 23900, Note_off_c, 2, 57, 64
4, 24060, Note_on_c, 2, 57, 45
4, 24140, Note_off_c, 2, 57, 64
4, 24300, Note_on_c, 2, 57, 45
4, 24380, Note_off_c, 2, 57, 64
4, 24540, Note_on_c, 2, 57, 45
4, 24620, Note_off_c, 2, 57, 64
4, 24780, Note_on_c, 2, 57, 45
4, 24860, Note_off_c, 2, 57, 64
4, 25020, Note_on_c, 2, 57, 45
4, 25100, Note_off_c, 2, 57, 64
4, 25260, Note_on_c, 2, 57, 45
4, 25340, Note_off_c, 2, 57, 64
4, 25500, Note_on_c, 2, 57, 45
4, 25580, Note_off_c, 2, 57, 64
4, 25740, Note_on_c, 2, 57, 45
4, 25820, Note_off_c, 2, 57, 64
4, 25980, Note_on_c, 2, 57, 45
4, 26060, Note_off_c, 2, 57, 64
4, 26220, Note_on_c, 2, 57, 45
4, 26300, Note_off_c, 2, 57, 64
4, 26460, Note_on_c, 2, 57, 45
4, 26540, Note_off_c, 2, 57, 64
4, 26700, Note_on_c, 2, 57, 45
4, 26780, Note_off_c, 2, 57, 64
4, 26940, Note_on_c, 2, 57, 45
4, 27020, Note_off_c, 2, 57, 64
4, 27180, Note_on_c, 2, 57, 45
4, 27260, Note_off_c, 2, 57, 64
4, 27420, Note_on_c, 2, 57, 45
4, 27500, Note_off_c, 2, 57, 64
4, 27660, Note_on_c, 2, 57, 45
4, 27740, Note_off_c, 2, 57, 64
4, 27900, Note_on_c, 2, 57, 30
4, 27980, Note_off_c, 2, 57, 64
4, 28140, Note_on_c, 2, 57, 30
4, 28220, Note_off_c, 2, 57, 64
4, 28380, Note_on_c, 2, 57, 30
4, 28460, Note_off_c, 2, 57, 64
4, 28620, Note_on_c, 2, 57, 30
4, 28700, Note_off_c, 2, 57, 64
4, 28860, Note_on_c, 2, 57, 30
4, 28940, Note_off_c, 2, 57, 64
4, 29100, Note_on_c, 2, 57, 30
4, 29180, Note_off_c, 2, 57, 64
4, 29340, Note_on_c, 2, 57, 30
4, 29420, Note_off_c, 2, 57, 64
4, 29580, Note_on_c, 2, 57, 30
4, 29660, Note_off_c, 2, 57, 64
4, 29820, Note_on_c, 2, 57, 30
4, 29900, Note_off_c, 2, 57, 64
4, 30060, Note_on_c, 2, 57, 30
4, 30140, Note_off_c, 2, 57, 64
4, 30300, Note_on_c, 2, 57, 30
4, 30380, Note_off_c, 2, 57, 64
4, 30540, Note_on_c, 2, 57, 30
4, 30620, Note_off_c, 2, 57, 64
4, 30780, Note_on_c, 2, 57, 30
4, 30860, Note_off_c, 2, 57, 64
4, 31020, Note_on_c, 2, 57, 30
4, 31100, Note_off_c, 2, 57, 64
4, 31260, Note_on_c, 2, 57, 30
4, 31340, Note_off_c, 2, 57, 64
4, 31500, Note_on_c, 2, 57, 30
4, 31580, Note_off_c, 2, 57, 64
4, 31740, Note_on_c, 2, 57, 30
4, 31820, Note_off_c, 2, 57, 64
4, 31980, Note_on_c, 2, 64, 92
4, 32060, Note_off_c, 2, 64, 64
4, 32220, Note_on_c, 2, 68, 92
4, 32300, Note_off_c, 2, 68, 64
4, 32460, Note_on_c, 2, 69, 92
4, 32540, Note_off_c, 2, 69, 64
4, 32700, Note_on_c, 2, 69, 92
4, 32940, Note_off_c, 2, 69, 64
4, 32940, Note_on_c, 2, 71, 92
4, 33175, Note_off_c, 2, 71, 64
4, 33180, Note_on_c, 2, 71, 92
4, 33895, Note_off_c, 2, 71, 64
4, 33900, Note_on_c, 2, 71, 92
4, 33980, Note_off_c, 2, 71, 64
4, 34140, Note_on_c, 2, 69, 92
4, 34260, Note_off_c, 2, 69, 64
4, 34260, Note_on_c, 2, 68, 92
4, 34380, Note_off_c, 2, 68, 64
4, 34380, Note_on_c, 2, 66, 92
4, 34460, Note_off_c, 2, 66, 64
4, 34500, Note_on_c, 2, 64, 92
4, 34580, Note_off_c, 2, 64, 64
4, 34620, Note_on_c, 2, 73, 92
4, 34855, Note_off_c, 2, 73, 64
4, 35160, Note_on_c, 2, 73, 92
4, 35875, Note_off_c, 2, 73, 64
4, 35880, Note_on_c, 2, 64, 92
4, 35960, Note_off_c, 2, 64, 64
4, 36120, Note_on_c, 2, 68, 92
4, 36200, Note_off_c, 2, 68, 64
4, 36360, Note_on_c, 2, 69, 92
4, 36440, Note_off_c, 2, 69, 64
4, 36600, Note_on_c, 2, 69, 92
4, 36840, Note_off_c, 2, 69, 64
4, 36840, Note_on_c, 2, 71, 92
4, 37075, Note_off_c, 2, 71, 64
4, 37080, Note_on_c, 2, 71, 92
4, 37795, Note_off_c, 2, 71, 64
4, 37800, Note_on_c, 2, 71, 92
4, 37880, Note_off_c, 2, 71, 64
4, 38040, Note_on_c, 2, 69, 92
4, 38160, Note_off_c, 2, 69, 64
4, 38160, Note_on_c, 2, 68, 92
4, 38280, Note_off_c, 2, 68, 64
4, 38280, Note_on_c, 2, 66, 92
4, 38360, Note_off_c, 2, 66, 64
4, 38400, Note_on_c, 2, 64, 92
4, 38480, Note_off_c, 2, 64, 64
4, 38520, Note_on_c, 2, 73, 92
4, 38755, Note_off_c, 2, 73, 64
4, 39060, Note_on_c, 2, 73, 92
4, 39775, Note_off_c, 2, 73, 64
4, 39780, Note_on_c, 2, 69, 92
4, 39860, Note_off_c, 2, 69, 64
4, 40020, Note_on_c, 2, 64, 92
4, 40100, Note_off_c, 2, 64, 64
4, 40260, Note_on_c, 2, 61, 92
4, 40340, Note_off_c, 2, 61, 64
4, 40500, Note_on_c, 2, 62, 92
4, 40735, Note_off_c, 2, 62, 64
4, 41040, Note_on_c, 2, 62, 92
4, 41755, Note_off_c, 2, 62, 64
4, 41760, Note_on_c, 2, 69, 92
4, 41840, Note_off_c, 2, 69, 64
4, 42000, Note_on_c, 2, 66, 92
4, 42080, Note_off_c, 2, 66, 64
4, 42240, Note_on_c, 2, 62, 92
4, 42320, Note_off_c, 2, 62, 64
4, 42480, Note_on_c, 2, 64, 92
4, 42880, Note_off_c, 2, 64, 64
4, 42960, Note_on_c, 2, 64, 92
4, 43075, Note_off_c, 2, 64, 64
4, 43080, Note_on_c, 2, 64, 92
4, 43195, Note_off_c, 2, 64, 64
4, 43200, Note_on_c, 2, 64, 92
4, 43315, Note_off_c, 2, 64, 64
4, 43320, Note_on_c, 2, 64, 92
4, 43435, Note_off_c, 2, 64, 64
4, 43440, Note_on_c, 2, 62, 92
4, 43555, Note_off_c, 2, 62, 64
4, 43560, Note_on_c, 2, 62, 90
4, 43675, Note_off_c, 2, 62, 64
4, 43680, Note_on_c, 2, 62, 88
4, 43795, Note_off_c, 2, 62, 64
4, 43800, Note_on_c, 2, 62, 86
4, 43915, Note_off_c, 2, 62, 64
4, 43920, Note_on_c, 2, 62, 84
4, 44035, Note_off_c, 2, 62, 64
4, 44040, Note_on_c, 2, 62, 82
4, 44155, Note_off_c, 2, 62, 64
4, 44160, Note_on_c, 2, 62, 80
4, 44275, Note_off_c, 2, 62, 64
4, 44280, Note_on_c, 2, 62, 78
4, 44395, Note_off_c, 2, 62, 64
4, 44400, Note_on_c, 2, 61, 75
4, 44800, Note_off_c, 2, 61, 64
4, 45360, Note_on_c, 2, 61, 75
4, 45760, Note_off_c, 2, 61, 64
4, 46320, Note_on_c, 2, 61, 75
4, 46320, Note_on_c, 2, 64, 75
4, 46720, Note_off_c, 2, 64, 64
4, 46720, Note_off_c, 2, 61, 64
4, 47280, Note_on_c, 2, 64, 75
4, 47360, Note_off_c, 2, 64, 64
4, 47520, Note_on_c, 2, 64, 75
4, 47755, Note_off_c, 2, 64, 64
4, 47760, Note_on_c, 2, 64, 75
4, 47995, Note_off_c, 2, 64, 64
4, 48000, Note_on_c, 2, 64, 75
4, 48235, Note_off_c, 2, 64, 64
4, 48240, Note_on_c, 2, 62, 75
4, 48640, Note_off_c, 2, 62, 64
4, 49200, Note_on_c, 2, 66, 75
4, 49600, Note_off_c, 2, 66, 64
4, 49680, Note_on_c, 2, 66, 75
4, 50080, Note_off_c, 2, 66, 64
4, 50160, Note_on_c, 2, 64, 75
4, 50275, Note_off_c, 2, 64, 64
4, 50280, Note_on_c, 2, 64, 75
4, 50395, Note_off_c, 2, 64, 64
4, 50400, Note_on_c, 2, 64, 75
4, 50515, Note_off_c, 2, 64, 64
4, 50520, Note_on_c, 2, 64, 75
4, 50635, Note_off_c, 2, 64, 64
4, 50640, Note_on_c, 2, 64, 75
4, 50755, Note_off_c, 2, 64, 64
4, 50760, Note_on_c, 2, 64, 75
4, 50875, Note_off_c, 2, 64, 64
4, 50880, Note_on_c, 2, 64, 75
4, 50995, Note_off_c, 2, 64, 64
4, 51000, Note_on_c, 2, 64, 75
4, 51115, Note_off_c, 2, 64, 64
4, 51120, Note_on_c, 2, 62, 75
4, 51235, Note_off_c, 2, 62, 64
4, 51240, Note_on_c, 2, 62, 75
4, 51355, Note_off_c, 2, 62, 64
4, 51360, Note_on_c, 2, 62, 75
4, 51475, Note_off_c, 2, 62, 64
4, 51480, Note_on_c, 2, 62, 75
4, 51595, Note_off_c, 2, 62, 64
4, 51600, Note_on_c, 2, 62, 75
4, 51715, Note_off_c, 2, 62, 64
4, 51720, Note_on_c, 2, 62, 75
4, 51835, Note_off_c, 2, 62, 64
4, 51840, Note_on_c, 2, 62, 75
4, 51955, Note_off_c, 2, 62, 64
4, 51960, Note_on_c, 2, 62, 75
4, 52075, Note_off_c, 2, 62, 64
4, 52080, Note_on_c, 2, 61, 75
4, 52480, Note_off_c, 2, 61, 64
4, 52800, Note_on_c, 2, 64, 75
4, 52880, Note_off_c, 2, 64, 64
4, 53040, Note_on_c, 2, 64, 75
4, 53440, Note_off_c, 2, 64, 64
4, 53760, Note_on_c, 2, 64, 75
4, 53840, Note_off_c, 2, 64, 64
4, 54000, Note_on_c, 2, 64, 75
4, 54235, Note_off_c, 2, 64, 64
4, 54480, Note_on_c, 2, 57, 75
4, 54715, Note_off_c, 2, 57, 64
4, 54960, Note_on_c, 2, 57, 75
4, 55360, Note_off_c, 2, 57, 64
4, 56040, Note_on_c, 2, 66, 45
4, 56120, Note_off_c, 2, 66, 64
4, 56520, Note_on_c, 2, 69, 45
4, 56600, Note_off_c, 2, 69, 64
4, 57000, Note_on_c, 2, 67, 45
4, 57080, Note_off_c, 2, 67, 64
4, 57960, Note_on_c, 2, 64, 45
4, 58040, Note_off_c, 2, 64, 64
4, 58440, Note_on_c, 2, 64, 45
4, 58520, Note_off_c, 2, 64, 64
4, 58920, Note_on_c, 2, 62, 45
4, 59000, Note_off_c, 2, 62, 64
4, 59880, Note_on_c, 2, 62, 75
4, 59960, Note_off_c, 2, 62, 64
4, 60120, Note_on_c, 2, 62, 75
4, 60200, Note_off_c, 2, 62, 64
4, 60360, Note_on_c, 2, 62, 75
4, 60440, Note_off_c, 2, 62, 64
4, 60600, Note_on_c, 2, 62, 75
4, 60680, Note_off_c, 2, 62, 64
4, 60840, Note_on_c, 2, 62, 75
4, 60920, Note_off_c, 2, 62, 64
4, 61080, Note_on_c, 2, 62, 75
4, 61160, Note_off_c, 2, 62, 64
4, 61320, Note_on_c, 2, 62, 75
4, 61400, Note_off_c, 2, 62, 64
4, 61560, Note_on_c, 2, 62, 75
4, 61640, Note_off_c, 2, 62, 64
4, 61800, Note_on_c, 2, 64, 75
4, 62520, Note_off_c, 2, 64, 64
4, 62520, Note_on_c, 2, 62, 75
4, 62640, Note_off_c, 2, 62, 64
4, 62640, Note_on_c, 2, 61, 75
4, 62760, Note_off_c, 2, 61, 64
4, 62760, Note_on_c, 2, 62, 75
4, 62840, Note_off_c, 2, 62, 64
4, 63000, Note_on_c, 2, 62, 75
4, 63080, Note_off_c, 2, 62, 64
4, 63240, Note_on_c, 2, 62, 75
4, 63320, Note_off_c, 2, 62, 64
4, 63480, Note_on_c, 2, 62, 75
4, 63560, Note_off_c, 2, 62, 64
4, 63720, Note_on_c, 2, 62, 75
4, 63800, Note_off_c, 2, 62, 64
4, 63960, Note_on_c, 2, 62, 75
4, 64040, Note_off_c, 2, 62, 64
4, 64200, Note_on_c, 2, 62, 75
4, 64280, Note_off_c, 2, 62, 64
4, 64440, Note_on_c, 2, 62, 75
4, 64520, Note_off_c, 2, 62, 64
4, 64680, Note_on_c, 2, 62, 75
4, 64760, Note_off_c, 2, 62, 64
4, 64920, Note_on_c, 2, 62, 75
4, 65000, Note_off_c, 2, 62, 64
4, 65160, Note_on_c, 2, 62, 75
4, 65240, Note_off_c, 2, 62, 64
4, 65400, Note_on_c, 2, 62, 75
4, 65480, Note_off_c, 2, 62, 64
4, 65640, Note_on_c, 2, 61, 75
4, 66360, Note_off_c, 2, 61, 64
4, 66360, Note_on_c, 2, 62, 75
4, 66480, Note_off_c, 2, 62, 64
4, 66480, Note_on_c, 2, 64, 75
4, 66600, Note_off_c, 2, 64, 64
4, 66600, Note_on_c, 2, 62, 75
4, 66680, Note_off_c, 2, 62, 64
4, 66840, Note_on_c, 2, 66, 75
4, 66920, Note_off_c, 2, 66, 64
4, 67080, Note_on_c, 2, 66, 75
4, 67160, Note_off_c, 2, 66, 64
4, 67320, Note_on_c, 2, 66, 75
4, 67400, Note_off_c, 2, 66, 64
4, 67560, Note_on_c, 2, 62, 75
4, 67640, Note_off_c, 2, 62, 64
4, 67800, Note_on_c, 2, 62, 75
4, 67880, Note_off_c, 2, 62, 64
4, 68040, Note_on_c, 2, 62, 75
4, 68120, Note_off_c, 2, 62, 64
4, 68280, Note_on_c, 2, 62, 75
4, 68360, Note_off_c, 2, 62, 64
4, 68520, Note_on_c, 2, 50, 75
4, 68600, Note_off_c, 2, 50, 64
4, 68760, Note_on_c, 2, 50, 75
4, 68840, Note_off_c, 2, 50, 64
4, 69000, Note_on_c, 2, 50, 75
4, 69080, Note_off_c, 2, 50, 64
4, 69240, Note_on_c, 2, 50, 75
4, 69320, Note_off_c, 2, 50, 64
4, 69480, Note_on_c, 2, 57, 75
4, 69560, Note_off_c, 2, 57, 64
4, 69720, Note_on_c, 2, 57, 75
4, 69800, Note_off_c, 2, 57, 64
4, 69960, Note_on_c, 2, 57, 75
4, 70040, Note_off_c, 2, 57, 64
4, 70200, Note_on_c, 2, 57, 75
4, 70280, Note_off_c, 2, 57, 64
4, 70440, Note_on_c, 2, 57, 75
4, 70520, Note_off_c, 2, 57, 64
4, 70680, Note_on_c, 2, 57, 75
4, 70760, Note_off_c, 2, 57, 64
4, 70920, Note_on_c, 2, 57, 75
4, 71000, Note_off_c, 2, 57, 64
4, 71160, Note_on_c, 2, 57, 75
4, 71240, Note_off_c, 2, 57, 64
4, 71400, Note_on_c, 2, 62, 75
4, 71480, Note_off_c, 2, 62, 64
4, 71640, Note_on_c, 2, 62, 75
4, 71720, Note_off_c, 2, 62, 64
4, 71880, Note_on_c, 2, 62, 75
4, 71960, Note_off_c, 2, 62, 64
4, 72120, Note_on_c, 2, 62, 75
4, 72200, Note_off_c, 2, 62, 64
4, 72360, Note_on_c, 2, 50, 75
4, 72440, Note_off_c, 2, 50, 64
4, 72600, Note_on_c, 2, 50, 75
4, 72680, Note_off_c, 2, 50, 64
4, 72840, Note_on_c, 2, 50, 75
4, 72920, Note_off_c, 2, 50, 64
4, 73080, Note_on_c, 2, 50, 75
4, 73160, Note_off_c, 2, 50, 64
4, 73320, Note_on_c, 2, 57, 75
4, 73400, Note_off_c, 2, 57, 64
4, 73560, Note_on_c, 2, 57, 75
4, 73640, Note_off_c, 2, 57, 64
4, 73800, Note_on_c, 2, 57, 75
4, 73880, Note_off_c, 2, 57, 64
4, 74040, Note_on_c, 2, 57, 75
4, 74120, Note_off_c, 2, 57, 64
4, 74280, Note_on_c, 2, 57, 75
4, 74360, Note_off_c, 2, 57, 64
4, 74520, Note_on_c, 2, 57, 75
4, 74600, Note_off_c, 2, 57, 64
4, 74760, Note_on_c, 2, 57, 75
4, 74840, Note_off_c, 2, 57, 64
4, 75000, Note_on_c, 2, 57, 75
4, 75080, Note_off_c, 2, 57, 64
4, 75240, Note_on_c, 2, 62, 75
4, 75475, Note_off_c, 2, 62, 64
4, 75480, Note_on_c, 2, 66, 79
4, 75715, Note_off_c, 2, 66, 64
4, 75720, Note_on_c, 2, 64, 83
4, 75955, Note_off_c, 2, 64, 64
4, 75960, Note_on_c, 2, 64, 87
4, 76195, Note_off_c, 2, 64, 64
4, 76200, Note_on_c, 2, 64, 92
4, 76280, Note_off_c, 2, 64, 64
4, 76440, Note_on_c, 2, 69, 92
4, 76680, Note_off_c, 2, 69, 64
4, 76680, Note_on_c, 2, 68, 92
4, 76920, Note_off_c, 2, 68, 64
4, 76920, Note_on_c, 2, 69, 92
4, 77160, Note_off_c, 2, 69, 64
4, 77160, Note_on_c, 2, 64, 92
4, 77240, Note_off_c, 2, 64, 64
4, 77640, Note_on_c, 2, 64, 92
4, 77720, Note_off_c, 2, 64, 64
4, 78120, Note_on_c, 2, 64, 92
4, 78200, Note_off_c, 2, 64, 64
4, 79140, Note_on_c, 2, 57, 45
4, 79220, Note_off_c, 2, 57, 64
4, 79380, Note_on_c, 2, 57, 45
4, 79460, Note_off_c, 2, 57, 64
4, 79620, Note_on_c, 2, 57, 45
4, 79700, Note_off_c, 2, 57, 64
4, 79860, Note_on_c, 2, 57, 45
4, 79940, Note_off_c, 2, 57, 64
4, 80100, Note_on_c, 2, 57, 45
4, 80180, Note_off_c, 2, 57, 64
4, 80340, Note_on_c, 2, 57, 45
4, 80420, Note_off_c, 2, 57, 64
4, 80580, Note_on_c, 2, 57, 45
4, 80660, Note_off_c, 2, 57, 64
4, 80820, Note_on_c, 2, 57, 45
4, 80900, Note_off_c, 2, 57, 64
4, 81060, Note_on_c, 2, 57, 45
4, 81140, Note_off_c, 2, 57, 64
4, 81300, Note_on_c, 2, 57, 45
4, 81380, Note_off_c, 2, 57, 64
4, 81540, Note_on_c, 2, 57, 45
4, 81620, Note_off_c, 2, 57, 64
4, 81780, Note_on_c, 2, 57, 45
4, 81860, Note_off_c, 2, 57, 64
4, 82020, Note_on_c, 2, 57, 45
4, 82100, Note_off_c, 2, 57, 64
4, 82260, Note_on_c, 2, 57, 45
4, 82340, Note_off_c, 2, 57, 64
4, 82500, Note_on_c, 2, 57, 45
4, 82580, Note_off_c, 2, 57, 64
4, 82740, Note_on_c, 2, 57, 45
4, 82820, Note_off_c, 2, 57, 64
4, 82980, Note_on_c, 2, 57, 45
4, 83060, Note_off_c, 2, 57, 64
4, 83220, Note_on_c, 2, 57, 45
4, 83300, Note_off_c, 2, 57, 64
4, 83460, Note_on_c, 2, 57, 45
4, 83540, Note_off_c, 2, 57, 64
4, 83700, Note_on_c, 2, 57, 45
4, 83780, Note_off_c, 2, 57, 64
4, 83940, Note_on_c, 2, 57, 30
4, 84020, Note_off_c, 2, 57, 64
4, 84180, Note_on_c, 2, 57, 30
4, 84260, Note_off_c, 2, 57, 64
4, 84420, Note_on_c, 2, 57, 30
4, 84500, Note_off_c, 2, 57, 64
4, 84660, Note_on_c, 2, 57, 30
4, 84740, Note_off_c, 2, 57, 64
4, 84900, Note_on_c, 2, 57, 30
4, 84980, Note_off_c, 2, 57, 64
4, 85140, Note_on_c, 2, 57, 30
4, 85220, Note_off_c, 2, 57, 64
4, 85380, Note_on_c, 2, 57, 30
4, 85460, Note_off_c, 2, 57, 64
4, 85620, Note_on_c, 2, 57, 30
4, 85700, Note_off_c, 2, 57, 64
4, 85860, Note_on_c, 2, 57, 30
4, 85940, Note_off_c, 2, 57, 64
4, 86100, Note_on_c, 2, 57, 30
4, 86180, Note_off_c, 2, 57, 64
4, 86340, Note_on_c, 2, 57, 30
4, 86420, Note_off_c, 2, 57, 64
4, 86580, Note_on_c, 2, 57, 30
4, 86660, Note_off_c, 2, 57, 64
4, 86820, Note_on_c, 2, 57, 30
4, 86900, Note_off_c, 2, 57, 64
4, 87060, Note_on_c, 2, 57, 30
4, 87140, Note_off_c, 2, 57, 64
4, 87300, Note_on_c, 2, 57, 30
4, 87380, Note_off_c, 2, 57, 64
4, 87540, Note_on_c, 2, 57, 30
4, 87620, Note_off_c, 2, 57, 64
4, 87780, Note_on_c, 2, 57, 30
4, 87860, Note_off_c, 2, 57, 64
4, 88020, Note_on_c, 2, 64, 92
4, 88100, Note_off_c, 2, 64, 64
4, 88260, Note_on_c, 2, 68, 92
4, 88340, Note_off_c, 2, 68, 64
4, 88500, Note_on_c, 2, 69, 92
4, 88580, Note_off_c, 2, 69, 64
4, 88740, Note_on_c, 2, 69, 92
4, 88980, Note_off_c, 2, 69, 64
4, 88980, Note_on_c, 2, 71, 92
4, 89215, Note_off_c, 2, 71, 64
4, 89220, Note_on_c, 2, 71, 92
4, 89935, Note_off_c, 2, 71, 64
4, 89940, Note_on_c, 2, 71, 92
4, 90020, Note_off_c, 2, 71, 64
4, 90180, Note_on_c, 2, 69, 92
4, 90300, Note_off_c, 2, 69, 64
4, 90300, Note_on_c, 2, 68, 92
4, 90420, Note_off_c, 2, 68, 64
4, 90420, Note_on_c, 2, 66, 92
4, 90500, Note_off_c, 2, 66, 64
4, 90540, Note_on_c, 2, 64, 92
4, 90620, Note_off_c, 2, 64, 64
4, 90660, Note_on_c, 2, 73, 92
4, 90895, Note_off_c, 2, 73, 64
4, 91200, Note_on_c, 2, 73, 92
4, 91915, Note_off_c, 2, 73, 64
4, 91920, Note_on_c, 2, 64, 92
4, 92000, Note_off_c, 2, 64, 64
4, 92160, Note_on_c, 2, 68, 92
4, 92240, Note_off_c, 2, 68, 64
4, 92400, Note_on_c, 2, 69, 92
4, 92480, Note_off_c, 2, 69, 64
4, 92640, Note_on_c, 2, 69, 92
4, 92880, Note_off_c, 2, 69, 64
4, 92880, Note_on_c, 2, 71, 92
4, 93115, Note_off_c, 2, 71, 64
4, 93120, Note_on_c, 2, 71, 92
4, 93835, Note_off_c, 2, 71, 64
4, 93840, Note_on_c, 2, 71, 92
4, 93920, Note_off_c, 2, 71, 64
4, 94080, Note_on_c, 2, 69, 92
4, 94200, Note_off_c, 2, 69, 64
4, 94200, Note_on_c, 2, 68, 92
4, 94320, Note_off_c, 2, 68, 64
4, 94320, Note_on_c, 2, 66, 92
4, 94400, Note_off_c, 2, 66, 64
4, 94440, Note_on_c, 2, 64, 92
4, 94520, Note_off_c, 2, 64, 64
4, 94560, Note_on_c, 2, 73, 92
4, 94795, Note_off_c, 2, 73, 64
4, 95100, Note_on_c, 2, 73, 92
4, 95815, Note_off_c, 2, 73, 64
4, 95820, Note_on_c, 2, 69, 92
4, 95900, Note_off_c, 2, 69, 64
4, 96060, Note_on_c, 2, 64, 92
4, 96140, Note_off_c, 2, 64, 64
4, 96300, Note_on_c, 2, 61, 92
4, 96380, Note_off_c, 2, 61, 64
4, 96540, Note_on_c, 2, 62, 92
4, 96775, Note_off_c, 2, 62, 64
4, 97080, Note_on_c, 2, 62, 92
4, 97795, Note_off_c, 2, 62, 64
4, 97800, Note_on_c, 2, 69, 92
4, 97880, Note_off_c, 2, 69, 64
4, 98040, Note_on_c, 2, 66, 92
4, 98120, Note_off_c, 2, 66, 64
4, 98280, Note_on_c, 2, 62, 92
4, 98360, Note_off_c, 2, 62, 64
4, 98520, Note_on_c, 2, 64, 92
4, 98920, Note_off_c, 2, 64, 64
4, 99000, Note_on_c, 2, 64, 92
4, 99115, Note_off_c, 2, 64, 64
4, 99120, Note_on_c, 2, 64, 92
4, 99235, Note_off_c, 2, 64, 64
4, 99240, Note_on_c, 2, 64, 92
4, 99355, Note_off_c, 2, 64, 64
4, 99360, Note_on_c, 2, 64, 92
4, 99475, Note_off_c, 2, 64, 64
4, 99480, Note_on_c, 2, 62, 92
4, 99595, Note_off_c, 2, 62, 64
4, 99600, Note_on_c, 2, 62, 90
4, 99715, Note_off_c, 2, 62, 64
4, 99720, Note_on_c, 2, 62, 88
4, 99835, Note_off_c, 2, 62, 64
4, 99840, Note_on_c, 2, 62, 86
4, 99955, Note_off_c, 2, 62, 64
4, 99960, Note_on_c, 2, 62, 84
4, 100075, Note_off_c, 2, 62, 64
4, 100080, Note_on_c, 2, 62, 82
4, 100195, Note_off_c, 2, 62, 64
4, 100200, Note_on_c, 2, 62, 80
4, 100315, Note_off_c, 2, 62, 64
4, 100320, Note_on_c, 2, 62, 78
4, 100435, Note_off_c, 2, 62, 64
4, 100440, Note_on_c, 2, 61, 75
4, 100840, Note_off_c, 2, 61, 64
4, 101400, Note_on_c, 2, 61, 75
4, 101800, Note_off_c, 2, 61, 64
4, 102360, Note_on_c, 2, 61, 75
4, 102360, Note_on_c, 2, 64, 75
4, 102760, Note_off_c, 2, 64, 64
4, 102760, Note_off_c, 2, 61, 64
4, 103320, Note_on_c, 2, 64, 75
4, 103400, Note_off_c, 2, 64, 64
4, 103560, Note_on_c, 2, 64, 75
4, 103795, Note_off_c, 2, 64, 64
4, 103800, Note_on_c, 2, 64, 75
4, 104035, Note_off_c, 2, 64, 64
4, 104040, Note_on_c, 2, 64, 75
4, 104275, Note_off_c, 2, 64, 64
4, 104280, Note_on_c, 2, 62, 75
4, 104680, Note_off_c, 2, 62, 64
4, 105240, Note_on_c, 2, 66, 75
4, 105640, Note_off_c, 2, 66, 64
4, 105720, Note_on_c, 2, 66, 75
4, 106120, Note_off_c, 2, 66, 64
4, 106200, Note_on_c, 2, 64, 75
4, 106315, Note_off_c, 2, 64, 64
4, 106320, Note_on_c, 2, 64, 75
4, 106435, Note_off_c, 2, 64, 64
4, 106440, Note_on_c, 2, 64, 75
4, 106555, Note_off_c, 2, 64, 64
4, 106560, Note_on_c, 2, 64, 75
4, 106675, Note_off_c, 2, 64, 64
4, 106680, Note_on_c, 2, 64, 75
4, 106795, Note_off_c, 2, 64, 64
4, 106800, Note_on_c, 2, 64, 75
4, 106915, Note_off_c, 2, 64, 64
4, 106920, Note_on_c, 2, 64, 75
4, 107035, Note_off_c, 2, 64, 64
4, 107040, Note_on_c, 2, 64, 75
4, 107155, Note_off_c, 2, 64, 64
4, 107160, Note_on_c, 2, 62, 75
4, 107275, Note_off_c, 2, 62, 64
4, 107280, Note_on_c, 2, 62, 75
4, 107395, Note_off_c, 2, 62, 64
4, 107400, Note_on_c, 2, 62, 75
4, 107515, Note_off_c, 2, 62, 64
4, 107520, Note_on_c, 2, 62, 75
4, 107635, Note_off_c, 2, 62, 64
4, 107640, Note_on_c, 2, 62, 75
4, 107755, Note_off_c, 2, 62, 64
4, 107760, Note_on_c, 2, 62, 75
4, 107875, Note_off_c, 2, 62, 64
4, 107880, Note_on_c, 2, 62, 75
4, 107995, Note_off_c, 2, 62, 64
4, 108000, Note_on_c, 2, 62, 75
4, 108115, Note_off_c, 2, 62, 64
4, 108120, Note_on_c, 2, 61, 75
4, 108520, Note_off_c, 2, 61, 64
4, 108840, Note_on_c, 2, 64, 75
4, 108920, Note_off_c, 2, 64, 64
4, 109080, Note_on_c, 2, 64, 75
4, 109480, Note_off_c, 2, 64, 64
4, 109800, Note_on_c, 2, 64, 75
4, 109880, Note_off_c, 2, 64, 64
4, 110040, Note_on_c, 2, 64, 75
4, 110275, Note_off_c, 2, 64, 64
4, 110520, Note_on_c, 2, 57, 75
4, 110755, Note_off_c, 2, 57, 64
4, 111000, Note_on_c, 2, 57, 75
4, 111400, Note_off_c, 2, 57, 64
4, 117840, Note_on_c, 2, 74, 92
4, 118480, Note_off_c, 2, 74, 64
4, 118560, Note_on_c, 2, 74, 92
4, 118640, Note_off_c, 2, 74, 64
4, 118800, Note_on_c, 2, 72, 92
4, 118880, Note_off_c, 2, 72, 64
4, 119040, Note_on_c, 2, 71, 92
4, 119120, Note_off_c, 2, 71, 64
4, 119280, Note_on_c, 2, 72, 92
4, 119360, Note_off_c, 2, 72, 64
4, 119520, Note_on_c, 2, 69, 92
4, 119600, Note_off_c, 2, 69, 64
4, 119760, Note_on_c, 2, 71, 92
4, 119840, Note_off_c, 2, 71, 64
4, 120000, Note_on_c, 2, 69, 92
4, 120080, Note_off_c, 2, 69, 64
4, 120240, Note_on_c, 2, 71, 92
4, 120320, Note_off_c, 2, 71, 64
4, 120480, Note_on_c, 2, 67, 92
4, 120560, Note_off_c, 2, 67, 64
4, 120720, Note_on_c, 2, 69, 92
4, 120800, Note_off_c, 2, 69, 64
4, 120960, Note_on_c, 2, 67, 92
4, 121040, Note_off_c, 2, 67, 64
4, 121200, Note_on_c, 2, 69, 92
4, 121280, Note_off_c, 2, 69, 64
4, 121440, Note_on_c, 2, 66, 92
4, 121520, Note_off_c, 2, 66, 64
4, 121680, Note_on_c, 2, 67, 92
4, 121760, Note_off_c, 2, 67, 64
4, 121920, Note_on_c, 2, 66, 92
4, 122000, Note_off_c, 2, 66, 64
4, 122160, Note_on_c, 2, 67, 92
4, 122240, Note_off_c, 2, 67, 64
4, 122400, Note_on_c, 2, 64, 92
4, 122480, Note_off_c, 2, 64, 64
4, 122640, Note_on_c, 2, 66, 92
4, 122720, Note_off_c, 2, 66, 64
4, 123120, Note_on_c, 2, 58, 92
4, 123600, Note_off_c, 2, 58, 64
4, 123600, Note_on_c, 2, 59, 92
4, 124080, Note_off_c, 2, 59, 64
4, 124080, Note_on_c, 2, 61, 92
4, 124160, Note_off_c, 2, 61, 64
4, 124320, Note_on_c, 2, 64, 92
4, 124400, Note_off_c, 2, 64, 64
4, 124560, Note_on_c, 2, 62, 92
4, 124960, Note_off_c, 2, 62, 64
4, 126480, Note_on_c, 2, 64, 92
4, 127120, Note_off_c, 2, 64, 64
4, 127200, Note_on_c, 2, 64, 92
4, 127280, Note_off_c, 2, 64, 64
4, 127440, Note_on_c, 2, 62, 92
4, 127520, Note_off_c, 2, 62, 64
4, 127680, Note_on_c, 2, 61, 92
4, 127760, Note_off_c, 2, 61, 64
4, 127920, Note_on_c, 2, 62, 92
4, 128000, Note_off_c, 2, 62, 64
4, 128160, Note_on_c, 2, 59, 92
4, 128240, Note_off_c, 2, 59, 64
4, 128400, Note_on_c, 2, 57, 92
4, 128480, Note_off_c, 2, 57, 64
4, 128880, Note_on_c, 2, 69, 92
4, 129360, Note_off_c, 2, 69, 64
4, 129360, Note_on_c, 2, 71, 92
4, 129840, Note_off_c, 2, 71, 64
4, 129840, Note_on_c, 2, 73, 92
4, 130320, Note_off_c, 2, 73, 64
4, 130320, Note_on_c, 2, 74, 92
4, 130720, Note_off_c, 2, 74, 64
4, 130800, Note_on_c, 2, 62, 92
4, 131200, Note_off_c, 2, 62, 64
4, 131280, Note_on_c, 2, 57, 92
4, 132640, Note_off_c, 2, 57, 64
4, 132720, Note_on_c, 2, 55, 92
4, 133600, Note_off_c, 2, 55, 64
4, 133680, Note_on_c, 2, 54, 92
4, 133760, Note_off_c, 2, 54, 64
4, 133920, Note_on_c, 2, 55, 92
4, 134000, Note_off_c, 2, 55, 64
4, 134160, Note_on_c, 2, 57, 92
4, 135000, Note_off_c, 2, 57, 64
4, 135120, Note_on_c, 2, 58, 92
4, 135120, Note_on_c, 2, 65, 92
4, 135520, Note_off_c, 2, 65, 64
4, 135520, Note_off_c, 2, 58, 64
4, 136140, Note_on_c, 2, 59, 92
4, 136140, Note_on_c, 2, 62, 92
4, 136540, Note_off_c, 2, 62, 64
4, 136540, Note_off_c, 2, 59, 64
4, 137160, Note_on_c, 2, 57, 92
4, 137160, Note_on_c, 2, 64, 92
4, 137160, Note_on_c, 2, 69, 92
4, 137800, Note_off_c, 2, 69, 64
4, 137800, Note_off_c, 2, 64, 64
4, 137800, Note_off_c, 2, 57, 64
4, 137880, Note_on_c, 2, 69, 75
4, 137960, Note_off_c, 2, 69, 64
4, 138120, Note_on_c, 2, 67, 69
4, 138200, Note_off_c, 2, 67, 64
4, 138360, Note_on_c, 2, 66, 63
4, 138440, Note_off_c, 2, 66, 64
4, 138600, Note_on_c, 2, 67, 57
4, 138680, Note_off_c, 2, 67, 64
4, 138840, Note_on_c, 2, 64, 51
4, 138920, Note_off_c, 2, 64, 64
4, 139080, Note_on_c, 2, 66, 45
4, 139160, Note_off_c, 2, 66, 64
4, 139560, Note_on_c, 2, 69, 45
4, 139640, Note_off_c, 2, 69, 64
4, 140040, Note_on_c, 2, 67, 45
4, 140120, Note_off_c, 2, 67, 64
4, 141000, Note_on_c, 2, 64, 45
4, 141080, Note_off_c, 2, 64, 64
4, 141480, Note_on_c, 2, 64, 45
4, 141560, Note_off_c, 2, 64, 64
4, 141960, Note_on_c, 2, 62, 45
4, 142040, Note_off_c, 2, 62, 64
4, 142980, Note_on_c, 2, 62, 75
4, 143060, Note_off_c, 2, 62, 64
4, 143220, Note_on_c, 2, 62, 75
4, 143300, Note_off_c, 2, 62, 64
4, 143460, Note_on_c, 2, 62, 75
4, 143540, Note_off_c, 2, 62, 64
4, 143700, Note_on_c, 2, 62, 75
4, 143780, Note_off_c, 2, 62, 64
4, 143940, Note_on_c, 2, 62, 75
4, 144020, Note_off_c, 2, 62, 64
4, 144180, Note_on_c, 2, 62, 75
4, 144260, Note_off_c, 2, 62, 64
4, 144420, Note_on_c, 2, 62, 75
4, 144500, Note_off_c, 2, 62, 64
4, 144660, Note_on_c, 2, 62, 75
4, 144740, Note_off_c, 2, 62, 64
4, 144900, Note_on_c, 2, 64, 75
4, 145620, Note_off_c, 2, 64, 64
4, 145620, Note_on_c, 2, 62, 75
4, 145740, Note_off_c, 2, 62, 64
4, 145740, Note_on_c, 2, 61, 75
4, 145860, Note_off_c, 2, 61, 64
4, 145860, Note_on_c, 2, 62, 75
4, 146095, Note_off_c, 2, 62, 64
4, 146100, Note_on_c, 2, 62, 75
4, 146180, Note_off_c, 2, 62, 64
4, 146340, Note_on_c, 2, 62, 75
4, 146420, Note_off_c, 2, 62, 64
4, 146580, Note_on_c, 2, 62, 75
4, 146660, Note_off_c, 2, 62, 64
4, 146820, Note_on_c, 2, 62, 75
4, 146900, Note_off_c, 2, 62, 64
4, 147060, Note_on_c, 2, 62, 75
4, 147140, Note_off_c, 2, 62, 64
4, 147300, Note_on_c, 2, 62, 75
4, 147380, Note_off_c, 2, 62, 64
4, 147540, Note_on_c, 2, 62, 75
4, 147620, Note_off_c, 2, 62, 64
4, 147780, Note_on_c, 2, 62, 75
4, 147860, Note_off_c, 2, 62, 64
4, 148020, Note_on_c, 2, 62, 75
4, 148100, Note_off_c, 2, 62, 64
4, 148260, Note_on_c, 2, 62, 75
4, 148340, Note_off_c, 2, 62, 64
4, 148500, Note_on_c, 2, 62, 75
4, 148580, Note_off_c, 2, 62, 64
4, 148740, Note_on_c, 2, 61, 75
4, 149460, Note_off_c, 2, 61, 64
4, 149460, Note_on_c, 2, 62, 75
4, 149580, Note_off_c, 2, 62, 64
4, 149580, Note_on_c, 2, 64, 75
4, 149700, Note_off_c, 2, 64, 64
4, 149700, Note_on_c, 2, 62, 75
4, 149935, Note_off_c, 2, 62, 64
4, 149940, Note_on_c, 2, 66, 75
4, 150020, Note_off_c, 2, 66, 64
4, 150180, Note_on_c, 2, 66, 75
4, 150260, Note_off_c, 2, 66, 64
4, 150420, Note_on_c, 2, 66, 75
4, 150500, Note_off_c, 2, 66, 64
4, 150660, Note_on_c, 2, 62, 75
4, 150740, Note_off_c, 2, 62, 64
4, 150900, Note_on_c, 2, 62, 75
4, 150980, Note_off_c, 2, 62, 64
4, 151140, Note_on_c, 2, 62, 75
4, 151220, Note_off_c, 2, 62, 64
4, 151380, Note_on_c, 2, 62, 75
4, 151460, Note_off_c, 2, 62, 64
4, 151620, Note_on_c, 2, 50, 75
4, 151700, Note_off_c, 2, 50, 64
4, 151860, Note_on_c, 2, 50, 75
4, 151940, Note_off_c, 2, 50, 64
4, 152100, Note_on_c, 2, 50, 75
4, 152180, Note_off_c, 2, 50, 64
4, 152340, Note_on_c, 2, 50, 75
4, 152420, Note_off_c, 2, 50, 64
4, 152580, Note_on_c, 2, 57, 75
4, 152660, Note_off_c, 2, 57, 64
4, 152820, Note_on_c, 2, 57, 75
4, 152900, Note_off_c, 2, 57, 64
4, 153060, Note_on_c, 2, 57, 75
4, 153140, Note_off_c, 2, 57, 64
4, 153300, Note_on_c, 2, 57, 75
4, 153380, Note_off_c, 2, 57, 64
4, 153540, Note_on_c, 2, 57, 75
4, 153775, Note_off_c, 2, 57, 64
4, 153780, Note_on_c, 2, 57, 75
4, 153860, Note_off_c, 2, 57, 64
4, 154020, Note_on_c, 2, 57, 75
4, 154100, Note_off_c, 2, 57, 64
4, 154260, Note_on_c, 2, 57, 75
4, 154340, Note_off_c, 2, 57, 64
4, 154500, Note_on_c, 2, 62, 75
4, 154580, Note_off_c, 2, 62, 64
4, 154740, Note_on_c, 2, 62, 75
4, 154820, Note_off_c, 2, 62, 64
4, 154980, Note_on_c, 2, 62, 75
4, 155060, Note_off_c, 2, 62, 64
4, 155220, Note_on_c, 2, 62, 75
4, 155300, Note_off_c, 2, 62, 64
4, 155460, Note_on_c, 2, 50, 75
4, 155540, Note_off_c, 2, 50, 64
4, 155700, Note_on_c, 2, 50, 75
4, 155780, Note_off_c, 2, 50, 64
4, 155940, Note_on_c, 2, 50, 75
4, 156020, Note_off_c, 2, 50, 64
4, 156180, Note_on_c, 2, 50, 75
4, 156260, Note_off_c, 2, 50, 64
4, 156420, Note_on_c, 2, 57, 75
4, 156500, Note_off_c, 2, 57, 64
4, 156660, Note_on_c, 2, 57, 75
4, 156740, Note_off_c, 2, 57, 64
4, 156900, Note_on_c, 2, 57, 75
4, 156980, Note_off_c, 2, 57, 64
4, 157140, Note_on_c, 2, 57, 75
4, 157220, Note_off_c, 2, 57, 64
4, 157380, Note_on_c, 2, 57, 75
4, 157460, Note_off_c, 2, 57, 64
4, 157620, Note_on_c, 2, 57, 75
4, 157700, Note_off_c, 2, 57, 64
4, 157860, Note_on_c, 2, 57, 75
4, 157940, Note_off_c, 2, 57, 64
4, 158100, Note_on_c, 2, 57, 75
4, 158180, Note_off_c, 2, 57, 64
4, 158340, Note_on_c, 2, 55, 75
4, 158575, Note_off_c, 2, 55, 64
4, 158580, Note_on_c, 2, 67, 75
4, 158815, Note_off_c, 2, 67, 64
4, 158820, Note_on_c, 2, 69, 75
4, 159055, Note_off_c, 2, 69, 64
4, 159060, Note_on_c, 2, 57, 75
4, 159295, Note_off_c, 2, 57, 64
4, 159300, Note_on_c, 2, 57, 92
4, 159380, Note_off_c, 2, 57, 64
4, 159540, Note_on_c, 2, 69, 92
4, 159780, Note_off_c, 2, 69, 64
4, 159780, Note_on_c, 2, 73, 92
4, 160020, Note_off_c, 2, 73, 64
4, 160020, Note_on_c, 2, 74, 92
4, 160260, Note_off_c, 2, 74, 64
4, 160260, Note_on_c, 2, 69, 92
4, 160340, Note_off_c, 2, 69, 64
4, 160740, Note_on_c, 2, 69, 92
4, 160820, Note_off_c, 2, 69, 64
4, 161220, Note_on_c, 2, 69, 92
4, 161300, Note_off_c, 2, 69, 64
4, 162180, Note_on_c, 2, 62, 45
4, 162260, Note_off_c, 2, 62, 64
4, 162420, Note_on_c, 2, 62, 45
4, 162500, Note_off_c, 2, 62, 64
4, 162660, Note_on_c, 2, 62, 45
4, 162740, Note_off_c, 2, 62, 64
4, 162900, Note_on_c, 2, 62, 45
4, 162980, Note_off_c, 2, 62, 64
4, 163140, Note_on_c, 2, 62, 45
4, 163220, Note_off_c, 2, 62, 64
4, 163380, Note_on_c, 2, 62, 45
4, 163460, Note_off_c, 2, 62, 64
4, 163620, Note_on_c, 2, 62, 45
4, 163700, Note_off_c, 2, 62, 64
4, 163860, Note_on_c, 2, 62, 45
4, 163940, Note_off_c, 2, 62, 64
4, 164100, Note_on_c, 2, 62, 45
4, 164180, Note_off_c, 2, 62, 64
4, 164340, Note_on_c, 2, 62, 45
4, 164420, Note_off_c, 2, 62, 64
4, 164580, Note_on_c, 2, 62, 45
4, 164660, Note_off_c, 2, 62, 64
4, 164820, Note_on_c, 2, 62, 45
4, 164900, Note_off_c, 2, 62, 64
4, 165060, Note_on_c, 2, 62, 45
4, 165140, Note_off_c, 2, 62, 64
4, 165300, Note_on_c, 2, 62, 45
4, 165380, Note_off_c, 2, 62, 64
4, 165540, Note_on_c, 2, 62, 45
4, 165620, Note_off_c, 2, 62, 64
4, 165780, Note_on_c, 2, 62, 45
4, 165860, Note_off_c, 2, 62, 64
4, 166020, Note_on_c, 2, 50, 45
4, 166100, Note_off_c, 2, 50, 64
4, 166260, Note_on_c, 2, 50, 45
4, 166340, Note_off_c, 2, 50, 64
4, 166500, Note_on_c, 2, 50, 45
4, 166580, Note_off_c, 2, 50, 64
4, 166740, Note_on_c, 2, 50, 45
4, 166820, Note_off_c, 2, 50, 64
4, 166980, Note_on_c, 2, 50, 30
4, 167060, Note_off_c, 2, 50, 64
4, 167220, Note_on_c, 2, 50, 30
4, 167300, Note_off_c, 2, 50, 64
4, 167460, Note_on_c, 2, 50, 30
4, 167540, Note_off_c, 2, 50, 64
4, 167700, Note_on_c, 2, 50, 30
4, 167780, Note_off_c, 2, 50, 64
4, 167940, Note_on_c, 2, 50, 30
4, 168020, Note_off_c, 2, 50, 64
4, 168180, Note_on_c, 2, 50, 30
4, 168260, Note_off_c, 2, 50, 64
4, 168420, Note_on_c, 2, 50, 30
4, 168500, Note_off_c, 2, 50, 64
4, 168660, Note_on_c, 2, 50, 30
4, 168740, Note_off_c, 2, 50, 64
4, 168900, Note_on_c, 2, 50, 30
4, 168980, Note_off_c, 2, 50, 64
4, 169140, Note_on_c, 2, 50, 30
4, 169220, Note_off_c, 2, 50, 64
4, 169380, Note_on_c, 2, 50, 30
4, 169460, Note_off_c, 2, 50, 64
4, 169620, Note_on_c, 2, 50, 30
4, 169700, Note_off_c, 2, 50, 64
4, 169860, Note_on_c, 2, 50, 30
4, 169940, Note_off_c, 2, 50, 64
4, 170100, Note_on_c, 2, 50, 30
4, 170180, Note_off_c, 2, 50, 64
4, 170340, Note_on_c, 2, 50, 30
4, 170420, Note_off_c, 2, 50, 64
4, 170580, Note_on_c, 2, 50, 30
4, 170660, Note_off_c, 2, 50, 64
4, 170820, Note_on_c, 2, 50, 30
4, 170900, Note_off_c, 2, 50, 64
4, 171060, Note_on_c, 2, 62, 92
4, 171140, Note_off_c, 2, 62, 64
4, 171300, Note_on_c, 2, 64, 92
4, 171380, Note_off_c, 2, 64, 64
4, 171540, Note_on_c, 2, 66, 92
4, 171620, Note_off_c, 2, 66, 64
4, 171780, Note_on_c, 2, 66, 92
4, 172020, Note_off_c, 2, 66, 64
4, 172020, Note_on_c, 2, 67, 92
4, 172255, Note_off_c, 2, 67, 64
4, 172260, Note_on_c, 2, 67, 92
4, 172975, Note_off_c, 2, 67, 64
4, 172980, Note_on_c, 2, 64, 92
4, 173060, Note_off_c, 2, 64, 64
4, 173220, Note_on_c, 2, 62, 92
4, 173340, Note_off_c, 2, 62, 64
4, 173340, Note_on_c, 2, 61, 92
4, 173460, Note_off_c, 2, 61, 64
4, 173460, Note_on_c, 2, 59, 92
4, 173580, Note_off_c, 2, 59, 64
4, 173580, Note_on_c, 2, 57, 92
4, 173700, Note_off_c, 2, 57, 64
4, 173700, Note_on_c, 2, 66, 92
4, 173935, Note_off_c, 2, 66, 64
4, 174240, Note_on_c, 2, 66, 92
4, 174955, Note_off_c, 2, 66, 64
4, 174960, Note_on_c, 2, 62, 92
4, 175040, Note_off_c, 2, 62, 64
4, 175200, Note_on_c, 2, 64, 92
4, 175280, Note_off_c, 2, 64, 64
4, 175440, Note_on_c, 2, 66, 92
4, 175520, Note_off_c, 2, 66, 64
4, 175680, Note_on_c, 2, 66, 92
4, 175920, Note_off_c, 2, 66, 64
4, 175920, Note_on_c, 2, 67, 92
4, 176155, Note_off_c, 2, 67, 64
4, 176160, Note_on_c, 2, 67, 92
4, 176875, Note_off_c, 2, 67, 64
4, 176880, Note_on_c, 2, 64, 92
4, 176960, Note_off_c, 2, 64, 64
4, 177120, Note_on_c, 2, 62, 92
4, 177240, Note_off_c, 2, 62, 64
4, 177240, Note_on_c, 2, 61, 92
4, 177360, Note_off_c, 2, 61, 64
4, 177360, Note_on_c, 2, 59, 92
4, 177480, Note_off_c, 2, 59, 64
4, 177480, Note_on_c, 2, 57, 92
4, 177600, Note_off_c, 2, 57, 64
4, 177600, Note_on_c, 2, 66, 92
4, 177835, Note_off_c, 2, 66, 64
4, 178140, Note_on_c, 2, 66, 92
4, 178855, Note_off_c, 2, 66, 64
4, 178860, Note_on_c, 2, 62, 92
4, 178940, Note_off_c, 2, 62, 64
4, 179100, Note_on_c, 2, 62, 92
4, 179180, Note_off_c, 2, 62, 64
4, 179340, Note_on_c, 2, 62, 92
4, 179420, Note_off_c, 2, 62, 64
4, 179580, Note_on_c, 2, 62, 92
4, 179815, Note_off_c, 2, 62, 64
4, 179880, Note_on_c, 2, 62, 92
4, 180115, Note_off_c, 2, 62, 64
4, 180120, Note_on_c, 2, 62, 92
4, 180355, Note_off_c, 2, 62, 64
4, 180360, Note_on_c, 2, 62, 92
4, 180595, Note_off_c, 2, 62, 64
4, 180600, Note_on_c, 2, 62, 92
4, 180835, Note_off_c, 2, 62, 64
4, 180840, Note_on_c, 2, 62, 92
4, 180920, Note_off_c, 2, 62, 64
4, 181080, Note_on_c, 2, 62, 92
4, 181160, Note_off_c, 2, 62, 64
4, 181320, Note_on_c, 2, 62, 92
4, 181400, Note_off_c, 2, 62, 64
4, 181560, Note_on_c, 2, 66, 92
4, 181675, Note_off_c, 2, 66, 64
4, 181680, Note_on_c, 2, 66, 92
4, 181795, Note_off_c, 2, 66, 64
4, 181800, Note_on_c, 2, 66, 92
4, 181915, Note_off_c, 2, 66, 64
4, 181920, Note_on_c, 2, 66, 92
4, 182035, Note_off_c, 2, 66, 64
4, 182040, Note_on_c, 2, 69, 92
4, 182155, Note_off_c, 2, 69, 64
4, 182160, Note_on_c, 2, 69, 92
4, 182275, Note_off_c, 2, 69, 64
4, 182280, Note_on_c, 2, 69, 92
4, 182395, Note_off_c, 2, 69, 64
4, 182400, Note_on_c, 2, 69, 92
4, 182515, Note_off_c, 2, 69, 64
4, 182520, Note_on_c, 2, 67, 92
4, 182635, Note_off_c, 2, 67, 64
4, 182640, Note_on_c, 2, 67, 92
4, 182755, Note_off_c, 2, 67, 64
4, 182760, Note_on_c, 2, 67, 92
4, 182875, Note_off_c, 2, 67, 64
4, 182880, Note_on_c, 2, 67, 92
4, 182995, Note_off_c, 2, 67, 64
4, 183000, Note_on_c, 2, 67, 92
4, 183115, Note_off_c, 2, 67, 64
4, 183120, Note_on_c, 2, 67, 92
4, 183235, Note_off_c, 2, 67, 64
4, 183240, Note_on_c, 2, 67, 92
4, 183355, Note_off_c, 2, 67, 64
4, 183360, Note_on_c, 2, 67, 92
4, 183475, Note_off_c, 2, 67, 64
4, 183480, Note_on_c, 2, 66, 75
4, 183880, Note_off_c, 2, 66, 64
4, 184440, Note_on_c, 2, 62, 75
4, 184840, Note_off_c, 2, 62, 64
4, 185400, Note_on_c, 2, 62, 75
4, 185800, Note_off_c, 2, 62, 64
4, 186360, Note_on_c, 2, 66, 75
4, 186440, Note_off_c, 2, 66, 64
4, 186600, Note_on_c, 2, 69, 75
4, 186840, Note_off_c, 2, 69, 64
4, 186840, Note_on_c, 2, 67, 75
4, 187080, Note_off_c, 2, 67, 64
4, 187080, Note_on_c, 2, 66, 75
4, 187320, Note_off_c, 2, 66, 64
4, 187320, Note_on_c, 2, 67, 75
4, 187720, Note_off_c, 2, 67, 64
4, 188280, Note_on_c, 2, 62, 75
4, 188680, Note_off_c, 2, 62, 64
4, 188760, Note_on_c, 2, 62, 75
4, 189160, Note_off_c, 2, 62, 64
4, 189240, Note_on_c, 2, 62, 75
4, 189355, Note_off_c, 2, 62, 64
4, 189360, Note_on_c, 2, 62, 75
4, 189475, Note_off_c, 2, 62, 64
4, 189480, Note_on_c, 2, 62, 75
4, 189595, Note_off_c, 2, 62, 64
4, 189600, Note_on_c, 2, 62, 75
4, 189715, Note_off_c, 2, 62, 64
4, 189720, Note_on_c, 2, 62, 75
4, 189835, Note_off_c, 2, 62, 64
4, 189840, Note_on_c, 2, 62, 75
4, 189955, Note_off_c, 2, 62, 64
4, 189960, Note_on_c, 2, 62, 75
4, 190075, Note_off_c, 2, 62, 64
4, 190080, Note_on_c, 2, 62, 75
4, 190195, Note_off_c, 2, 62, 64
4, 190200, Note_on_c, 2, 61, 75
4, 190315, Note_off_c, 2, 61, 64
4, 190320, Note_on_c, 2, 61, 75
4, 190435, Note_off_c, 2, 61, 64
4, 190440, Note_on_c, 2, 61, 75
4, 190555, Note_off_c, 2, 61, 64
4, 190560, Note_on_c, 2, 61, 75
4, 190675, Note_off_c, 2, 61, 64
4, 190680, Note_on_c, 2, 61, 75
4, 190795, Note_off_c, 2, 61, 64
4, 190800, Note_on_c, 2, 61, 75
4, 190915, Note_off_c, 2, 61, 64
4, 190920, Note_on_c, 2, 61, 75
4, 191035, Note_off_c, 2, 61, 64
4, 191040, Note_on_c, 2, 61, 75
4, 191155, Note_off_c, 2, 61, 64
4, 191160, Note_on_c, 2, 62, 75
4, 191560, Note_off_c, 2, 62, 64
4, 191880, Note_on_c, 2, 64, 81
4, 191960, Note_off_c, 2, 64, 64
4, 192120, Note_on_c, 2, 62, 83
4, 192520, Note_off_c, 2, 62, 64
4, 192840, Note_on_c, 2, 64, 89
4, 192920, Note_off_c, 2, 64, 64
4, 193080, Note_on_c, 2, 62, 92
4, 193315, Note_off_c, 2, 62, 64
4, 193560, Note_on_c, 2, 62, 92
4, 193560, Note_on_c, 2, 69, 92
4, 193960, Note_off_c, 2, 69, 64
4, 193960, Note_off_c, 2, 62, 64
4, 194040, Note_on_c, 2, 62, 92
4, 194040, Note_on_c, 2, 69, 92
4, 194440, Note_off_c, 2, 69, 64
4, 194440, Note_off_c, 2, 62, 64
4, 194440, End_track
5, 0, Start_track
5, 0, MIDI_port, 0
5, 0, Channel_prefix, 3
5, 0, Control_c, 3, 7, 127
5, 0, Control_c, 3, 10, 102
5, 0, Control_c, 3, 91, 44
5, 0, Program_c, 3, 50
5, 0, Note_on_c, 3, 50, 45
5, 80, Note_off_c, 3, 50, 64
5, 480, Note_on_c, 3, 38, 45
5, 560, Note_off_c, 3, 38, 64
5, 960, Note_on_c, 3, 43, 45
5, 1040, Note_off_c, 3, 43, 64
5, 1920, Note_on_c, 3, 40, 45
5, 2000, Note_off_c, 3, 40, 64
5, 2400, Note_on_c, 3, 45, 45
5, 2480, Note_off_c, 3, 45, 64
5, 2880, Note_on_c, 3, 38, 45
5, 2960, Note_off_c, 3, 38, 64
5, 3840, Note_on_c, 3, 50, 75
5, 3920, Note_off_c, 3, 50, 64
5, 4080, Note_on_c, 3, 50, 75
5, 4160, Note_off_c, 3, 50, 64
5, 4320, Note_on_c, 3, 50, 75
5, 4400, Note_off_c, 3, 50, 64
5, 4560, Note_on_c, 3, 50, 75
5, 4640, Note_off_c, 3, 50, 64
5, 4800, Note_on_c, 3, 50, 75
5, 4880, Note_off_c, 3, 50, 64
5, 5040, Note_on_c, 3, 50, 75
5, 5120, Note_off_c, 3, 50, 64
5, 5280, Note_on_c, 3, 50, 75
5, 5360, Note_off_c, 3, 50, 64
5, 5520, Note_on_c, 3, 50, 75
5, 5600, Note_off_c, 3, 50, 64
5, 5760, Note_on_c, 3, 50, 75
5, 5840, Note_off_c, 3, 50, 64
5, 6000, Note_on_c, 3, 50, 75
5, 6080, Note_off_c, 3, 50, 64
5, 6240, Note_on_c, 3, 50, 75
5, 6320, Note_off_c, 3, 50, 64
5, 6480, Note_on_c, 3, 50, 75
5, 6560, Note_off_c, 3, 50, 64
5, 6720, Note_on_c, 3, 50, 75
5, 6800, Note_off_c, 3, 50, 64
5, 6960, Note_on_c, 3, 50, 75
5, 7040, Note_off_c, 3, 50, 64
5, 7200, Note_on_c, 3, 50, 75
5, 7280, Note_off_c, 3, 50, 64
5, 7440, Note_on_c, 3, 50, 75
5, 7520, Note_off_c, 3, 50, 64
5, 7680, Note_on_c, 3, 38, 75
5, 7760, Note_off_c, 3, 38, 64
5, 7920, Note_on_c, 3, 38, 75
5, 8000, Note_off_c, 3, 38, 64
5, 8160, Note_on_c, 3, 38, 75
5, 8240, Note_off_c, 3, 38, 64
5, 8400, Note_on_c, 3, 38, 75
5, 8480, Note_off_c, 3, 38, 64
5, 8640, Note_on_c, 3, 38, 75
5, 8720, Note_off_c, 3, 38, 64
5, 8880, Note_on_c, 3, 38, 75
5, 8960, Note_off_c, 3, 38, 64
5, 9120, Note_on_c, 3, 38, 75
5, 9200, Note_off_c, 3, 38, 64
5, 9360, Note_on_c, 3, 38, 75
5, 9440, Note_off_c, 3, 38, 64
5, 9600, Note_on_c, 3, 38, 75
5, 9680, Note_off_c, 3, 38, 64
5, 9840, Note_on_c, 3, 38, 75
5, 9920, Note_off_c, 3, 38, 64
5, 10080, Note_on_c, 3, 38, 75
5, 10160, Note_off_c, 3, 38, 64
5, 10320, Note_on_c, 3, 38, 75
5, 10400, Note_off_c, 3, 38, 64
5, 10560, Note_on_c, 3, 38, 75
5, 10640, Note_off_c, 3, 38, 64
5, 10800, Note_on_c, 3, 38, 75
5, 10880, Note_off_c, 3, 38, 64
5, 11040, Note_on_c, 3, 38, 75
5, 11120, Note_off_c, 3, 38, 64
5, 11280, Note_on_c, 3, 38, 75
5, 11360, Note_off_c, 3, 38, 64
5, 11520, Note_on_c, 3, 38, 75
5, 11600, Note_off_c, 3, 38, 64
5, 11760, Note_on_c, 3, 38, 75
5, 11840, Note_off_c, 3, 38, 64
5, 12000, Note_on_c, 3, 38, 75
5, 12080, Note_off_c, 3, 38, 64
5, 12240, Note_on_c, 3, 38, 75
5, 12320, Note_off_c, 3, 38, 64
5, 12480, Note_on_c, 3, 38, 75
5, 12560, Note_off_c, 3, 38, 64
5, 12720, Note_on_c, 3, 38, 75
5, 12800, Note_off_c, 3, 38, 64
5, 12960, Note_on_c, 3, 38, 75
5, 13040, Note_off_c, 3, 38, 64
5, 13200, Note_on_c, 3, 38, 75
5, 13280, Note_off_c, 3, 38, 64
5, 13440, Note_on_c, 3, 45, 75
5, 13520, Note_off_c, 3, 45, 64
5, 13680, Note_on_c, 3, 45, 75
5, 13760, Note_off_c, 3, 45, 64
5, 13920, Note_on_c, 3, 45, 75
5, 14000, Note_off_c, 3, 45, 64
5, 14160, Note_on_c, 3, 45, 75
5, 14240, Note_off_c, 3, 45, 64
5, 14400, Note_on_c, 3, 50, 75
5, 14480, Note_off_c, 3, 50, 64
5, 14640, Note_on_c, 3, 50, 75
5, 14720, Note_off_c, 3, 50, 64
5, 14880, Note_on_c, 3, 50, 75
5, 14960, Note_off_c, 3, 50, 64
5, 15120, Note_on_c, 3, 50, 75
5, 15200, Note_off_c, 3, 50, 64
5, 15360, Note_on_c, 3, 38, 75
5, 15440, Note_off_c, 3, 38, 64
5, 15600, Note_on_c, 3, 38, 75
5, 15680, Note_off_c, 3, 38, 64
5, 15840, Note_on_c, 3, 38, 75
5, 15920, Note_off_c, 3, 38, 64
5, 16080, Note_on_c, 3, 38, 75
5, 16160, Note_off_c, 3, 38, 64
5, 16320, Note_on_c, 3, 38, 75
5, 16400, Note_off_c, 3, 38, 64
5, 16560, Note_on_c, 3, 38, 75
5, 16640, Note_off_c, 3, 38, 64
5, 16800, Note_on_c, 3, 38, 75
5, 16880, Note_off_c, 3, 38, 64
5, 17040, Note_on_c, 3, 38, 75
5, 17120, Note_off_c, 3, 38, 64
5, 17280, Note_on_c, 3, 45, 75
5, 17360, Note_off_c, 3, 45, 64
5, 17520, Note_on_c, 3, 45, 75
5, 17600, Note_off_c, 3, 45, 64
5, 17760, Note_on_c, 3, 45, 75
5, 17840, Note_off_c, 3, 45, 64
5, 18000, Note_on_c, 3, 45, 75
5, 18080, Note_off_c, 3, 45, 64
5, 18240, Note_on_c, 3, 50, 75
5, 18320, Note_off_c, 3, 50, 64
5, 18480, Note_on_c, 3, 50, 75
5, 18560, Note_off_c, 3, 50, 64
5, 18720, Note_on_c, 3, 50, 75
5, 18800, Note_off_c, 3, 50, 64
5, 18960, Note_on_c, 3, 50, 75
5, 19040, Note_off_c, 3, 50, 64
5, 19200, Note_on_c, 3, 50, 75
5, 19280, Note_off_c, 3, 50, 64
5, 19440, Note_on_c, 3, 50, 79
5, 19520, Note_off_c, 3, 50, 64
5, 19680, Note_on_c, 3, 50, 83
5, 19760, Note_off_c, 3, 50, 64
5, 19920, Note_on_c, 3, 50, 87
5, 20000, Note_off_c, 3, 50, 64
5, 20160, Note_on_c, 3, 49, 92
5, 20240, Note_off_c, 3, 49, 64
5, 20400, Note_on_c, 3, 61, 92
5, 20640, Note_off_c, 3, 61, 64
5, 20640, Note_on_c, 3, 59, 92
5, 20880, Note_off_c, 3, 59, 64
5, 20880, Note_on_c, 3, 57, 92
5, 21120, Note_off_c, 3, 57, 64
5, 21120, Note_on_c, 3, 56, 92
5, 21200, Note_off_c, 3, 56, 64
5, 21600, Note_on_c, 3, 57, 92
5, 21680, Note_off_c, 3, 57, 64
5, 22080, Note_on_c, 3, 52, 92
5, 22160, Note_off_c, 3, 52, 64
5, 23100, Note_on_c, 3, 57, 45
5, 23500, Note_off_c, 3, 57, 64
5, 24060, Note_on_c, 3, 45, 45
5, 24460, Note_off_c, 3, 45, 64
5, 25020, Note_on_c, 3, 50, 45
5, 25420, Note_off_c, 3, 50, 64
5, 25980, Note_on_c, 3, 38, 45
5, 26380, Note_off_c, 3, 38, 64
5, 26940, Note_on_c, 3, 45, 45
5, 27340, Note_off_c, 3, 45, 64
5, 27900, Note_on_c, 3, 45, 30
5, 28300, Note_off_c, 3, 45, 64
5, 28860, Note_on_c, 3, 50, 30
5, 29260, Note_off_c, 3, 50, 64
5, 29820, Note_on_c, 3, 38, 30
5, 30220, Note_off_c, 3, 38, 64
5, 30780, Note_on_c, 3, 45, 30
5, 31180, Note_off_c, 3, 45, 64
5, 31740, Note_on_c, 3, 45, 30
5, 31820, Note_off_c, 3, 45, 64
5, 31980, Note_on_c, 3, 61, 92
5, 32060, Note_off_c, 3, 61, 64
5, 32220, Note_on_c, 3, 59, 92
5, 32300, Note_off_c, 3, 59, 64
5, 32460, Note_on_c, 3, 57, 92
5, 32540, Note_off_c, 3, 57, 64
5, 32700, Note_on_c, 3, 56, 92
5, 32780, Note_off_c, 3, 56, 64
5, 32940, Note_on_c, 3, 56, 92
5, 33020, Note_off_c, 3, 56, 64
5, 33180, Note_on_c, 3, 56, 92
5, 33260, Note_off_c, 3, 56, 64
5, 33420, Note_on_c, 3, 56, 92
5, 33500, Note_off_c, 3, 56, 64
5, 33660, Note_on_c, 3, 52, 92
5, 33740, Note_off_c, 3, 52, 64
5, 33900, Note_on_c, 3, 52, 92
5, 33980, Note_off_c, 3, 52, 64
5, 34140, Note_on_c, 3, 52, 92
5, 34220, Note_off_c, 3, 52, 64
5, 34380, Note_on_c, 3, 52, 92
5, 34460, Note_off_c, 3, 52, 64
5, 34620, Note_on_c, 3, 45, 92
5, 34855, Note_off_c, 3, 45, 64
5, 34920, Note_on_c, 3, 45, 92
5, 35000, Note_off_c, 3, 45, 64
5, 35160, Note_on_c, 3, 45, 92
5, 35240, Note_off_c, 3, 45, 64
5, 35400, Note_on_c, 3, 45, 92
5, 35480, Note_off_c, 3, 45, 64
5, 35640, Note_on_c, 3, 45, 92
5, 35720, Note_off_c, 3, 45, 64
5, 35880, Note_on_c, 3, 61, 92
5, 35960, Note_off_c, 3, 61, 64
5, 36120, Note_on_c, 3, 59, 92
5, 36200, Note_off_c, 3, 59, 64
5, 36360, Note_on_c, 3, 57, 92
5, 36440, Note_off_c, 3, 57, 64
5, 36600, Note_on_c, 3, 56, 92
5, 36680, Note_off_c, 3, 56, 64
5, 36840, Note_on_c, 3, 56, 92
5, 36920, Note_off_c, 3, 56, 64
5, 37080, Note_on_c, 3, 56, 92
5, 37160, Note_off_c, 3, 56, 64
5, 37320, Note_on_c, 3, 56, 92
5, 37400, Note_off_c, 3, 56, 64
5, 37560, Note_on_c, 3, 52, 92
5, 37640, Note_off_c, 3, 52, 64
5, 37800, Note_on_c, 3, 52, 92
5, 37880, Note_off_c, 3, 52, 64
5, 38040, Note_on_c, 3, 52, 92
5, 38120, Note_off_c, 3, 52, 64
5, 38280, Note_on_c, 3, 52, 92
5, 38360, Note_off_c, 3, 52, 64
5, 38520, Note_on_c, 3, 45, 92
5, 38755, Note_off_c, 3, 45, 64
5, 38820, Note_on_c, 3, 45, 92
5, 38900, Note_off_c, 3, 45, 64
5, 39060, Note_on_c, 3, 45, 92
5, 39140, Note_off_c, 3, 45, 64
5, 39300, Note_on_c, 3, 45, 92
5, 39380, Note_off_c, 3, 45, 64
5, 39540, Note_on_c, 3, 45, 92
5, 39620, Note_off_c, 3, 45, 64
5, 39780, Note_on_c, 3, 45, 92
5, 39860, Note_off_c, 3, 45, 64
5, 40020, Note_on_c, 3, 45, 92
5, 40100, Note_off_c, 3, 45, 64
5, 40260, Note_on_c, 3, 45, 92
5, 40340, Note_off_c, 3, 45, 64
5, 40500, Note_on_c, 3, 50, 92
5, 40735, Note_off_c, 3, 50, 64
5, 40800, Note_on_c, 3, 50, 92
5, 40880, Note_off_c, 3, 50, 64
5, 41040, Note_on_c, 3, 50, 92
5, 41120, Note_off_c, 3, 50, 64
5, 41280, Note_on_c, 3, 50, 92
5, 41360, Note_off_c, 3, 50, 64
5, 41520, Note_on_c, 3, 50, 92
5, 41600, Note_off_c, 3, 50, 64
5, 41760, Note_on_c, 3, 50, 92
5, 41840, Note_off_c, 3, 50, 64
5, 42000, Note_on_c, 3, 50, 92
5, 42080, Note_off_c, 3, 50, 64
5, 42240, Note_on_c, 3, 50, 92
5, 42320, Note_off_c, 3, 50, 64
5, 42480, Note_on_c, 3, 52, 92
5, 42560, Note_off_c, 3, 52, 64
5, 42720, Note_on_c, 3, 52, 92
5, 42800, Note_off_c, 3, 52, 64
5, 42960, Note_on_c, 3, 52, 92
5, 43195, Note_off_c, 3, 52, 64
5, 43200, Note_on_c, 3, 52, 92
5, 43435, Note_off_c, 3, 52, 64
5, 43440, Note_on_c, 3, 40, 92
5, 43675, Note_off_c, 3, 40, 64
5, 43680, Note_on_c, 3, 40, 88
5, 43915, Note_off_c, 3, 40, 64
5, 43920, Note_on_c, 3, 40, 84
5, 44155, Note_off_c, 3, 40, 64
5, 44160, Note_on_c, 3, 40, 80
5, 44395, Note_off_c, 3, 40, 64
5, 44400, Note_on_c, 3, 45, 75
5, 44800, Note_off_c, 3, 45, 64
5, 45360, Note_on_c, 3, 45, 75
5, 45760, Note_off_c, 3, 45, 64
5, 46320, Note_on_c, 3, 45, 75
5, 46720, Note_off_c, 3, 45, 64
5, 47280, Note_on_c, 3, 49, 75
5, 47360, Note_off_c, 3, 49, 64
5, 47520, Note_on_c, 3, 49, 75
5, 47755, Note_off_c, 3, 49, 64
5, 47760, Note_on_c, 3, 49, 75
5, 47995, Note_off_c, 3, 49, 64
5, 48000, Note_on_c, 3, 49, 75
5, 48235, Note_off_c, 3, 49, 64
5, 48240, Note_on_c, 3, 50, 75
5, 48640, Note_off_c, 3, 50, 64
5, 49200, Note_on_c, 3, 50, 75
5, 49600, Note_off_c, 3, 50, 64
5, 49680, Note_on_c, 3, 50, 75
5, 50080, Note_off_c, 3, 50, 64
5, 50160, Note_on_c, 3, 52, 75
5, 50395, Note_off_c, 3, 52, 64
5, 50400, Note_on_c, 3, 52, 75
5, 50635, Note_off_c, 3, 52, 64
5, 50640, Note_on_c, 3, 52, 75
5, 50875, Note_off_c, 3, 52, 64
5, 50880, Note_on_c, 3, 52, 75
5, 51115, Note_off_c, 3, 52, 64
5, 51120, Note_on_c, 3, 40, 75
5, 51355, Note_off_c, 3, 40, 64
5, 51360, Note_on_c, 3, 40, 75
5, 51595, Note_off_c, 3, 40, 64
5, 51600, Note_on_c, 3, 40, 75
5, 51835, Note_off_c, 3, 40, 64
5, 51840, Note_on_c, 3, 40, 75
5, 52075, Note_off_c, 3, 40, 64
5, 52080, Note_on_c, 3, 45, 75
5, 52480, Note_off_c, 3, 45, 64
5, 52800, Note_on_c, 3, 52, 75
5, 52880, Note_off_c, 3, 52, 64
5, 53040, Note_on_c, 3, 45, 75
5, 53440, Note_off_c, 3, 45, 64
5, 53760, Note_on_c, 3, 40, 75
5, 53840, Note_off_c, 3, 40, 64
5, 54000, Note_on_c, 3, 45, 75
5, 54235, Note_off_c, 3, 45, 64
5, 54480, Note_on_c, 3, 45, 75
5, 54715, Note_off_c, 3, 45, 64
5, 54960, Note_on_c, 3, 45, 75
5, 55360, Note_off_c, 3, 45, 64
5, 56040, Note_on_c, 3, 50, 45
5, 56120, Note_off_c, 3, 50, 64
5, 56520, Note_on_c, 3, 38, 45
5, 56600, Note_off_c, 3, 38, 64
5, 57000, Note_on_c, 3, 43, 45
5, 57080, Note_off_c, 3, 43, 64
5, 57960, Note_on_c, 3, 40, 45
5, 58040, Note_off_c, 3, 40, 64
5, 58440, Note_on_c, 3, 45, 45
5, 58520, Note_off_c, 3, 45, 64
5, 58920, Note_on_c, 3, 38, 45
5, 59000, Note_off_c, 3, 38, 64
5, 59880, Note_on_c, 3, 50, 75
5, 59960, Note_off_c, 3, 50, 64
5, 60120, Note_on_c, 3, 50, 75
5, 60200, Note_off_c, 3, 50, 64
5, 60360, Note_on_c, 3, 50, 75
5, 60440, Note_off_c, 3, 50, 64
5, 60600, Note_on_c, 3, 50, 75
5, 60680, Note_off_c, 3, 50, 64
5, 60840, Note_on_c, 3, 50, 75
5, 60920, Note_off_c, 3, 50, 64
5, 61080, Note_on_c, 3, 50, 75
5, 61160, Note_off_c, 3, 50, 64
5, 61320, Note_on_c, 3, 50, 75
5, 61400, Note_off_c, 3, 50, 64
5, 61560, Note_on_c, 3, 50, 75
5, 61640, Note_off_c, 3, 50, 64
5, 61800, Note_on_c, 3, 50, 75
5, 61880, Note_off_c, 3, 50, 64
5, 62040, Note_on_c, 3, 50, 75
5, 62120, Note_off_c, 3, 50, 64
5, 62280, Note_on_c, 3, 50, 75
5, 62360, Note_off_c, 3, 50, 64
5, 62520, Note_on_c, 3, 50, 75
5, 62600, Note_off_c, 3, 50, 64
5, 62760, Note_on_c, 3, 50, 75
5, 62840, Note_off_c, 3, 50, 64
5, 63000, Note_on_c, 3, 50, 75
5, 63080, Note_off_c, 3, 50, 64
5, 63240, Note_on_c, 3, 50, 75
5, 63320, Note_off_c, 3, 50, 64
5, 63480, Note_on_c, 3, 50, 75
5, 63560, Note_off_c, 3, 50, 64
5, 63720, Note_on_c, 3, 38, 75
5, 63800, Note_off_c, 3, 38, 64
5, 63960, Note_on_c, 3, 38, 75
5, 64040, Note_off_c, 3, 38, 64
5, 64200, Note_on_c, 3, 38, 75
5, 64280, Note_off_c, 3, 38, 64
5, 64440, Note_on_c, 3, 38, 75
5, 64520, Note_off_c, 3, 38, 64
5, 64680, Note_on_c, 3, 38, 75
5, 64760, Note_off_c, 3, 38, 64
5, 64920, Note_on_c, 3, 38, 75
5, 65000, Note_off_c, 3, 38, 64
5, 65160, Note_on_c, 3, 38, 75
5, 65240, Note_off_c, 3, 38, 64
5, 65400, Note_on_c, 3, 38, 75
5, 65480, Note_off_c, 3, 38, 64
5, 65640, Note_on_c, 3, 38, 75
5, 65720, Note_off_c, 3, 38, 64
5, 65880, Note_on_c, 3, 38, 75
5, 65960, Note_off_c, 3, 38, 64
5, 66120, Note_on_c, 3, 38, 75
5, 66200, Note_off_c, 3, 38, 64
5, 66360, Note_on_c, 3, 38, 75
5, 66440, Note_off_c, 3, 38, 64
5, 66600, Note_on_c, 3, 38, 75
5, 66680, Note_off_c, 3, 38, 64
5, 66840, Note_on_c, 3, 38, 75
5, 66920, Note_off_c, 3, 38, 64
5, 67080, Note_on_c, 3, 38, 75
5, 67160, Note_off_c, 3, 38, 64
5, 67320, Note_on_c, 3, 38, 75
5, 67400, Note_off_c, 3, 38, 64
5, 67560, Note_on_c, 3, 38, 75
5, 67640, Note_off_c, 3, 38, 64
5, 67800, Note_on_c, 3, 38, 75
5, 67880, Note_off_c, 3, 38, 64
5, 68040, Note_on_c, 3, 38, 75
5, 68120, Note_off_c, 3, 38, 64
5, 68280, Note_on_c, 3, 38, 75
5, 68360, Note_off_c, 3, 38, 64
5, 68520, Note_on_c, 3, 38, 75
5, 68600, Note_off_c, 3, 38, 64
5, 68760, Note_on_c, 3, 38, 75
5, 68840, Note_off_c, 3, 38, 64
5, 69000, Note_on_c, 3, 38, 75
5, 69080, Note_off_c, 3, 38, 64
5, 69240, Note_on_c, 3, 38, 75
5, 69320, Note_off_c, 3, 38, 64
5, 69480, Note_on_c, 3, 45, 75
5, 69560, Note_off_c, 3, 45, 64
5, 69720, Note_on_c, 3, 45, 75
5, 69800, Note_off_c, 3, 45, 64
5, 69960, Note_on_c, 3, 45, 75
5, 70040, Note_off_c, 3, 45, 64
5, 70200, Note_on_c, 3, 45, 75
5, 70280, Note_off_c, 3, 45, 64
5, 70440, Note_on_c, 3, 50, 75
5, 70520, Note_off_c, 3, 50, 64
5, 70680, Note_on_c, 3, 50, 75
5, 70760, Note_off_c, 3, 50, 64
5, 70920, Note_on_c, 3, 50, 75
5, 71000, Note_off_c, 3, 50, 64
5, 71160, Note_on_c, 3, 50, 75
5, 71240, Note_off_c, 3, 50, 64
5, 71400, Note_on_c, 3, 38, 75
5, 71480, Note_off_c, 3, 38, 64
5, 71640, Note_on_c, 3, 38, 75
5, 71720, Note_off_c, 3, 38, 64
5, 71880, Note_on_c, 3, 38, 75
5, 71960, Note_off_c, 3, 38, 64
5, 72120, Note_on_c, 3, 38, 75
5, 72200, Note_off_c, 3, 38, 64
5, 72360, Note_on_c, 3, 38, 75
5, 72440, Note_off_c, 3, 38, 64
5, 72600, Note_on_c, 3, 38, 75
5, 72680, Note_off_c, 3, 38, 64
5, 72840, Note_on_c, 3, 38, 75
5, 72920, Note_off_c, 3, 38, 64
5, 73080, Note_on_c, 3, 38, 75
5, 73160, Note_off_c, 3, 38, 64
5, 73320, Note_on_c, 3, 45, 75
5, 73400, Note_off_c, 3, 45, 64
5, 73560, Note_on_c, 3, 45, 75
5, 73640, Note_off_c, 3, 45, 64
5, 73800, Note_on_c, 3, 45, 75
5, 73880, Note_off_c, 3, 45, 64
5, 74040, Note_on_c, 3, 45, 75
5, 74120, Note_off_c, 3, 45, 64
5, 74280, Note_on_c, 3, 50, 75
5, 74360, Note_off_c, 3, 50, 64
5, 74520, Note_on_c, 3, 50, 75
5, 74600, Note_off_c, 3, 50, 64
5, 74760, Note_on_c, 3, 50, 75
5, 74840, Note_off_c, 3, 50, 64
5, 75000, Note_on_c, 3, 50, 75
5, 75080, Note_off_c, 3, 50, 64
5, 75240, Note_on_c, 3, 50, 75
5, 75320, Note_off_c, 3, 50, 64
5, 75480, Note_on_c, 3, 50, 79
5, 75560, Note_off_c, 3, 50, 64
5, 75720, Note_on_c, 3, 50, 83
5, 75800, Note_off_c, 3, 50, 64
5, 75960, Note_on_c, 3, 50, 87
5, 76040, Note_off_c, 3, 50, 64
5, 76200, Note_on_c, 3, 49, 92
5, 76280, Note_off_c, 3, 49, 64
5, 76440, Note_on_c, 3, 61, 92
5, 76680, Note_off_c, 3, 61, 64
5, 76680, Note_on_c, 3, 59, 92
5, 76920, Note_off_c, 3, 59, 64
5, 76920, Note_on_c, 3, 57, 92
5, 77160, Note_off_c, 3, 57, 64
5, 77160, Note_on_c, 3, 56, 92
5, 77240, Note_off_c, 3, 56, 64
5, 77640, Note_on_c, 3, 57, 92
5, 77720, Note_off_c, 3, 57, 64
5, 78120, Note_on_c, 3, 52, 92
5, 78200, Note_off_c, 3, 52, 64
5, 79140, Note_on_c, 3, 57, 45
5, 79540, Note_off_c, 3, 57, 64
5, 80100, Note_on_c, 3, 45, 45
5, 80500, Note_off_c, 3, 45, 64
5, 81060, Note_on_c, 3, 50, 45
5, 81460, Note_off_c, 3, 50, 64
5, 82020, Note_on_c, 3, 38, 45
5, 82420, Note_off_c, 3, 38, 64
5, 82980, Note_on_c, 3, 45, 45
5, 83380, Note_off_c, 3, 45, 64
5, 83940, Note_on_c, 3, 45, 30
5, 84340, Note_off_c, 3, 45, 64
5, 84900, Note_on_c, 3, 50, 30
5, 85300, Note_off_c, 3, 50, 64
5, 85860, Note_on_c, 3, 38, 30
5, 86260, Note_off_c, 3, 38, 64
5, 86820, Note_on_c, 3, 45, 30
5, 87220, Note_off_c, 3, 45, 64
5, 87780, Note_on_c, 3, 45, 30
5, 87860, Note_off_c, 3, 45, 64
5, 88020, Note_on_c, 3, 61, 92
5, 88100, Note_off_c, 3, 61, 64
5, 88260, Note_on_c, 3, 59, 92
5, 88340, Note_off_c, 3, 59, 64
5, 88500, Note_on_c, 3, 57, 92
5, 88580, Note_off_c, 3, 57, 64
5, 88740, Note_on_c, 3, 56, 92
5, 88820, Note_off_c, 3, 56, 64
5, 88980, Note_on_c, 3, 56, 92
5, 89060, Note_off_c, 3, 56, 64
5, 89220, Note_on_c, 3, 56, 92
5, 89300, Note_off_c, 3, 56, 64
5, 89460, Note_on_c, 3, 56, 92
5, 89540, Note_off_c, 3, 56, 64
5, 89700, Note_on_c, 3, 52, 92
5, 89780, Note_off_c, 3, 52, 64
5, 89940, Note_on_c, 3, 52, 92
5, 90020, Note_off_c, 3, 52, 64
5, 90180, Note_on_c, 3, 52, 92
5, 90260, Note_off_c, 3, 52, 64
5, 90420, Note_on_c, 3, 52, 92
5, 90500, Note_off_c, 3, 52, 64
5, 90660, Note_on_c, 3, 45, 92
5, 90895, Note_off_c, 3, 45, 64
5, 90960, Note_on_c, 3, 45, 92
5, 91040, Note_off_c, 3, 45, 64
5, 91200, Note_on_c, 3, 45, 92
5, 91280, Note_off_c, 3, 45, 64
5, 91440, Note_on_c, 3, 45, 92
5, 91520, Note_off_c, 3, 45, 64
5, 91680, Note_on_c, 3, 45, 92
5, 91760, Note_off_c, 3, 45, 64
5, 91920, Note_on_c, 3, 61, 92
5, 92000, Note_off_c, 3, 61, 64
5, 92160, Note_on_c, 3, 59, 92
5, 92240, Note_off_c, 3, 59, 64
5, 92400, Note_on_c, 3, 57, 92
5, 92480, Note_off_c, 3, 57, 64
5, 92640, Note_on_c, 3, 56, 92
5, 92720, Note_off_c, 3, 56, 64
5, 92880, Note_on_c, 3, 56, 92
5, 92960, Note_off_c, 3, 56, 64
5, 93120, Note_on_c, 3, 56, 92
5, 93200, Note_off_c, 3, 56, 64
5, 93360, Note_on_c, 3, 56, 92
5, 93440, Note_off_c, 3, 56, 64
5, 93600, Note_on_c, 3, 52, 92
5, 93680, Note_off_c, 3, 52, 64
5, 93840, Note_on_c, 3, 52, 92
5, 93920, Note_off_c, 3, 52, 64
5, 94080, Note_on_c, 3, 52, 92
5, 94160, Note_off_c, 3, 52, 64
5, 94320, Note_on_c, 3, 52, 92
5, 94400, Note_off_c, 3, 52, 64
5, 94560, Note_on_c, 3, 45, 92
5, 94795, Note_off_c, 3, 45, 64
5, 94860, Note_on_c, 3, 45, 92
5, 94940, Note_off_c, 3, 45, 64
5, 95100, Note_on_c, 3, 45, 92
5, 95180, Note_off_c, 3, 45, 64
5, 95340, Note_on_c, 3, 45, 92
5, 95420, Note_off_c, 3, 45, 64
5, 95580, Note_on_c, 3, 45, 92
5, 95660, Note_off_c, 3, 45, 64
5, 95820, Note_on_c, 3, 45, 92
5, 95900, Note_off_c, 3, 45, 64
5, 96060, Note_on_c, 3, 45, 92
5, 96140, Note_off_c, 3, 45, 64
5, 96300, Note_on_c, 3, 45, 92
5, 96380, Note_off_c, 3, 45, 64
5, 96540, Note_on_c, 3, 50, 92
5, 96775, Note_off_c, 3, 50, 64
5, 96840, Note_on_c, 3, 50, 92
5, 96920, Note_off_c, 3, 50, 64
5, 97080, Note_on_c, 3, 50, 92
5, 97160, Note_off_c, 3, 50, 64
5, 97320, Note_on_c, 3, 50, 92
5, 97400, Note_off_c, 3, 50, 64
5, 97560, Note_on_c, 3, 50, 92
5, 97640, Note_off_c, 3, 50, 64
5, 97800, Note_on_c, 3, 50, 92
5, 97880, Note_off_c, 3, 50, 64
5, 98040, Note_on_c, 3, 50, 92
5, 98120, Note_off_c, 3, 50, 64
5, 98280, Note_on_c, 3, 50, 92
5, 98360, Note_off_c, 3, 50, 64
5, 98520, Note_on_c, 3, 52, 92
5, 98600, Note_off_c, 3, 52, 64
5, 98760, Note_on_c, 3, 52, 92
5, 98840, Note_off_c, 3, 52, 64
5, 99000, Note_on_c, 3, 52, 92
5, 99235, Note_off_c, 3, 52, 64
5, 99240, Note_on_c, 3, 52, 92
5, 99475, Note_off_c, 3, 52, 64
5, 99480, Note_on_c, 3, 40, 92
5, 99715, Note_off_c, 3, 40, 64
5, 99720, Note_on_c, 3, 40, 88
5, 99955, Note_off_c, 3, 40, 64
5, 99960, Note_on_c, 3, 40, 84
5, 100195, Note_off_c, 3, 40, 64
5, 100200, Note_on_c, 3, 40, 80
5, 100435, Note_off_c, 3, 40, 64
5, 100440, Note_on_c, 3, 45, 75
5, 100840, Note_off_c, 3, 45, 64
5, 101400, Note_on_c, 3, 45, 75
5, 101800, Note_off_c, 3, 45, 64
5, 102360, Note_on_c, 3, 45, 75
5, 102760, Note_off_c, 3, 45, 64
5, 103320, Note_on_c, 3, 49, 75
5, 103400, Note_off_c, 3, 49, 64
5, 103560, Note_on_c, 3, 49, 75
5, 103795, Note_off_c, 3, 49, 64
5, 103800, Note_on_c, 3, 49, 75
5, 104035, Note_off_c, 3, 49, 64
5, 104040, Note_on_c, 3, 49, 75
5, 104275, Note_off_c, 3, 49, 64
5, 104280, Note_on_c, 3, 50, 75
5, 104680, Note_off_c, 3, 50, 64
5, 105240, Note_on_c, 3, 50, 75
5, 105640, Note_off_c, 3, 50, 64
5, 105720, Note_on_c, 3, 50, 75
5, 106120, Note_off_c, 3, 50, 64
5, 106200, Note_on_c, 3, 52, 75
5, 106435, Note_off_c, 3, 52, 64
5, 106440, Note_on_c, 3, 52, 75
5, 106675, Note_off_c, 3, 52, 64
5, 106680, Note_on_c, 3, 52, 75
5, 106915, Note_off_c, 3, 52, 64
5, 106920, Note_on_c, 3, 52, 75
5, 107155, Note_off_c, 3, 52, 64
5, 107160, Note_on_c, 3, 40, 75
5, 107395, Note_off_c, 3, 40, 64
5, 107400, Note_on_c, 3, 40, 75
5, 107635, Note_off_c, 3, 40, 64
5, 107640, Note_on_c, 3, 40, 75
5, 107875, Note_off_c, 3, 40, 64
5, 107880, Note_on_c, 3, 40, 75
5, 108115, Note_off_c, 3, 40, 64
5, 108120, Note_on_c, 3, 45, 75
5, 108520, Note_off_c, 3, 45, 64
5, 108840, Note_on_c, 3, 52, 75
5, 108920, Note_off_c, 3, 52, 64
5, 109080, Note_on_c, 3, 45, 75
5, 109480, Note_off_c, 3, 45, 64
5, 109800, Note_on_c, 3, 40, 75
5, 109880, Note_off_c, 3, 40, 64
5, 110040, Note_on_c, 3, 45, 75
5, 110275, Note_off_c, 3, 45, 64
5, 110520, Note_on_c, 3, 45, 75
5, 110755, Note_off_c, 3, 45, 64
5, 111000, Note_on_c, 3, 45, 75
5, 111400, Note_off_c, 3, 45, 64
5, 115920, Note_on_c, 3, 62, 92
5, 116560, Note_off_c, 3, 62, 64
5, 116640, Note_on_c, 3, 62, 92
5, 116720, Note_off_c, 3, 62, 64
5, 116880, Note_on_c, 3, 60, 92
5, 116960, Note_off_c, 3, 60, 64
5, 117120, Note_on_c, 3, 59, 92
5, 117200, Note_off_c, 3, 59, 64
5, 117360, Note_on_c, 3, 60, 92
5, 117440, Note_off_c, 3, 60, 64
5, 117600, Note_on_c, 3, 57, 92
5, 117680, Note_off_c, 3, 57, 64
5, 117840, Note_on_c, 3, 59, 92
5, 117920, Note_off_c, 3, 59, 64
5, 118080, Note_on_c, 3, 57, 92
5, 118160, Note_off_c, 3, 57, 64
5, 118320, Note_on_c, 3, 59, 92
5, 118400, Note_off_c, 3, 59, 64
5, 118560, Note_on_c, 3, 55, 92
5, 118640, Note_off_c, 3, 55, 64
5, 118800, Note_on_c, 3, 57, 92
5, 118880, Note_off_c, 3, 57, 64
5, 119040, Note_on_c, 3, 55, 92
5, 119120, Note_off_c, 3, 55, 64
5, 119280, Note_on_c, 3, 57, 92
5, 119360, Note_off_c, 3, 57, 64
5, 119520, Note_on_c, 3, 54, 92
5, 119600, Note_off_c, 3, 54, 64
5, 119760, Note_on_c, 3, 55, 92
5, 120160, Note_off_c, 3, 55, 64
5, 122640, Note_on_c, 3, 54, 92
5, 123280, Note_off_c, 3, 54, 64
5, 123360, Note_on_c, 3, 54, 92
5, 123440, Note_off_c, 3, 54, 64
5, 123600, Note_on_c, 3, 52, 92
5, 123680, Note_off_c, 3, 52, 64
5, 123840, Note_on_c, 3, 50, 92
5, 123920, Note_off_c, 3, 50, 64
5, 124080, Note_on_c, 3, 52, 92
5, 124160, Note_off_c, 3, 52, 64
5, 124320, Note_on_c, 3, 49, 92
5, 124400, Note_off_c, 3, 49, 64
5, 124560, Note_on_c, 3, 47, 92
5, 124640, Note_off_c, 3, 47, 64
5, 125040, Note_on_c, 3, 47, 92
5, 125520, Note_off_c, 3, 47, 64
5, 125520, Note_on_c, 3, 49, 92
5, 126000, Note_off_c, 3, 49, 64
5, 126000, Note_on_c, 3, 51, 92
5, 126480, Note_off_c, 3, 51, 64
5, 126480, Note_on_c, 3, 52, 92
5, 126880, Note_off_c, 3, 52, 64
5, 135120, Note_on_c, 3, 46, 92
5, 135520, Note_off_c, 3, 46, 64
5, 136140, Note_on_c, 3, 44, 92
5, 136540, Note_off_c, 3, 44, 64
5, 137160, Note_on_c, 3, 45, 92
5, 137560, Note_off_c, 3, 45, 64
5, 139080, Note_on_c, 3, 50, 45
5, 139160, Note_off_c, 3, 50, 64
5, 139560, Note_on_c, 3, 38, 45
5, 139640, Note_off_c, 3, 38, 64
5, 140040, Note_on_c, 3, 43, 45
5, 140120, Note_off_c, 3, 43, 64
5, 141000, Note_on_c, 3, 40, 45
5, 141080, Note_off_c, 3, 40, 64
5, 141480, Note_on_c, 3, 45, 45
5, 141560, Note_off_c, 3, 45, 64
5, 141960, Note_on_c, 3, 38, 45
5, 142040, Note_off_c, 3, 38, 64
5, 142980, Note_on_c, 3, 50, 75
5, 143060, Note_off_c, 3, 50, 64
5, 143220, Note_on_c, 3, 50, 75
5, 143300, Note_off_c, 3, 50, 64
5, 143460, Note_on_c, 3, 50, 75
5, 143540, Note_off_c, 3, 50, 64
5, 143700, Note_on_c, 3, 50, 75
5, 143780, Note_off_c, 3, 50, 64
5, 143940, Note_on_c, 3, 50, 75
5, 144020, Note_off_c, 3, 50, 64
5, 144180, Note_on_c, 3, 50, 75
5, 144260, Note_off_c, 3, 50, 64
5, 144420, Note_on_c, 3, 50, 75
5, 144500, Note_off_c, 3, 50, 64
5, 144660, Note_on_c, 3, 50, 75
5, 144740, Note_off_c, 3, 50, 64
5, 144900, Note_on_c, 3, 50, 75
5, 144980, Note_off_c, 3, 50, 64
5, 145140, Note_on_c, 3, 50, 75
5, 145220, Note_off_c, 3, 50, 64
5, 145380, Note_on_c, 3, 50, 75
5, 145460, Note_off_c, 3, 50, 64
5, 145620, Note_on_c, 3, 50, 75
5, 145700, Note_off_c, 3, 50, 64
5, 145860, Note_on_c, 3, 50, 75
5, 146095, Note_off_c, 3, 50, 64
5, 146100, Note_on_c, 3, 50, 75
5, 146180, Note_off_c, 3, 50, 64
5, 146340, Note_on_c, 3, 50, 75
5, 146420, Note_off_c, 3, 50, 64
5, 146580, Note_on_c, 3, 50, 75
5, 146660, Note_off_c, 3, 50, 64
5, 146820, Note_on_c, 3, 38, 75
5, 146900, Note_off_c, 3, 38, 64
5, 147060, Note_on_c, 3, 38, 75
5, 147140, Note_off_c, 3, 38, 64
5, 147300, Note_on_c, 3, 38, 75
5, 147380, Note_off_c, 3, 38, 64
5, 147540, Note_on_c, 3, 38, 75
5, 147620, Note_off_c, 3, 38, 64
5, 147780, Note_on_c, 3, 38, 75
5, 147860, Note_off_c, 3, 38, 64
5, 148020, Note_on_c, 3, 38, 75
5, 148100, Note_off_c, 3, 38, 64
5, 148260, Note_on_c, 3, 38, 75
5, 148340, Note_off_c, 3, 38, 64
5, 148500, Note_on_c, 3, 38, 75
5, 148580, Note_off_c, 3, 38, 64
5, 148740, Note_on_c, 3, 38, 75
5, 148820, Note_off_c, 3, 38, 64
5, 148980, Note_on_c, 3, 38, 75
5, 149060, Note_off_c, 3, 38, 64
5, 149220, Note_on_c, 3, 38, 75
5, 149300, Note_off_c, 3, 38, 64
5, 149460, Note_on_c, 3, 38, 75
5, 149540, Note_off_c, 3, 38, 64
5, 149700, Note_on_c, 3, 38, 75
5, 149935, Note_off_c, 3, 38, 64
5, 149940, Note_on_c, 3, 38, 75
5, 150020, Note_off_c, 3, 38, 64
5, 150180, Note_on_c, 3, 38, 75
5, 150260, Note_off_c, 3, 38, 64
5, 150420, Note_on_c, 3, 38, 75
5, 150500, Note_off_c, 3, 38, 64
5, 150660, Note_on_c, 3, 38, 75
5, 150740, Note_off_c, 3, 38, 64
5, 150900, Note_on_c, 3, 38, 75
5, 150980, Note_off_c, 3, 38, 64
5, 151140, Note_on_c, 3, 38, 75
5, 151220, Note_off_c, 3, 38, 64
5, 151380, Note_on_c, 3, 38, 75
5, 151460, Note_off_c, 3, 38, 64
5, 151620, Note_on_c, 3, 38, 75
5, 151700, Note_off_c, 3, 38, 64
5, 151860, Note_on_c, 3, 38, 75
5, 151940, Note_off_c, 3, 38, 64
5, 152100, Note_on_c, 3, 38, 75
5, 152180, Note_off_c, 3, 38, 64
5, 152340, Note_on_c, 3, 38, 75
5, 152420, Note_off_c, 3, 38, 64
5, 152580, Note_on_c, 3, 45, 75
5, 152660, Note_off_c, 3, 45, 64
5, 152820, Note_on_c, 3, 45, 75
5, 152900, Note_off_c, 3, 45, 64
5, 153060, Note_on_c, 3, 45, 75
5, 153140, Note_off_c, 3, 45, 64
5, 153300, Note_on_c, 3, 45, 75
5, 153380, Note_off_c, 3, 45, 64
5, 153540, Note_on_c, 3, 50, 75
5, 153775, Note_off_c, 3, 50, 64
5, 153780, Note_on_c, 3, 50, 75
5, 153860, Note_off_c, 3, 50, 64
5, 154020, Note_on_c, 3, 50, 75
5, 154100, Note_off_c, 3, 50, 64
5, 154260, Note_on_c, 3, 50, 75
5, 154340, Note_off_c, 3, 50, 64
5, 154500, Note_on_c, 3, 38, 75
5, 154580, Note_off_c, 3, 38, 64
5, 154740, Note_on_c, 3, 38, 75
5, 154820, Note_off_c, 3, 38, 64
5, 154980, Note_on_c, 3, 38, 75
5, 155060, Note_off_c, 3, 38, 64
5, 155220, Note_on_c, 3, 38, 75
5, 155300, Note_off_c, 3, 38, 64
5, 155460, Note_on_c, 3, 38, 75
5, 155540, Note_off_c, 3, 38, 64
5, 155700, Note_on_c, 3, 38, 75
5, 155780, Note_off_c, 3, 38, 64
5, 155940, Note_on_c, 3, 38, 75
5, 156020, Note_off_c, 3, 38, 64
5, 156180, Note_on_c, 3, 38, 75
5, 156260, Note_off_c, 3, 38, 64
5, 156420, Note_on_c, 3, 45, 75
5, 156500, Note_off_c, 3, 45, 64
5, 156660, Note_on_c, 3, 45, 75
5, 156740, Note_off_c, 3, 45, 64
5, 156900, Note_on_c, 3, 45, 75
5, 156980, Note_off_c, 3, 45, 64
5, 157140, Note_on_c, 3, 45, 75
5, 157220, Note_off_c, 3, 45, 64
5, 157380, Note_on_c, 3, 50, 75
5, 157460, Note_off_c, 3, 50, 64
5, 157620, Note_on_c, 3, 50, 75
5, 157700, Note_off_c, 3, 50, 64
5, 157860, Note_on_c, 3, 50, 75
5, 157940, Note_off_c, 3, 50, 64
5, 158100, Note_on_c, 3, 50, 75
5, 158180, Note_off_c, 3, 50, 64
5, 158340, Note_on_c, 3, 55, 75
5, 158575, Note_off_c, 3, 55, 64
5, 158580, Note_on_c, 3, 55, 75
5, 158815, Note_off_c, 3, 55, 64
5, 158820, Note_on_c, 3, 55, 75
5, 159055, Note_off_c, 3, 55, 64
5, 159060, Note_on_c, 3, 55, 75
5, 159295, Note_off_c, 3, 55, 64
5, 159300, Note_on_c, 3, 54, 92
5, 159380, Note_off_c, 3, 54, 64
5, 159540, Note_on_c, 3, 54, 92
5, 159780, Note_off_c, 3, 54, 64
5, 159780, Note_on_c, 3, 52, 92
5, 160020, Note_off_c, 3, 52, 64
5, 160020, Note_on_c, 3, 50, 92
5, 160260, Note_off_c, 3, 50, 64
5, 160260, Note_on_c, 3, 49, 92
5, 160340, Note_off_c, 3, 49, 64
5, 160740, Note_on_c, 3, 50, 92
5, 160820, Note_off_c, 3, 50, 64
5, 161220, Note_on_c, 3, 45, 92
5, 161300, Note_off_c, 3, 45, 64
5, 162180, Note_on_c, 3, 50, 45
5, 162580, Note_off_c, 3, 50, 64
5, 163140, Note_on_c, 3, 38, 45
5, 163540, Note_off_c, 3, 38, 64
5, 164100, Note_on_c, 3, 43, 45
5, 164500, Note_off_c, 3, 43, 64
5, 165060, Note_on_c, 3, 55, 45
5, 165460, Note_off_c, 3, 55, 64
5, 166020, Note_on_c, 3, 50, 45
5, 166420, Note_off_c, 3, 50, 64
5, 166980, Note_on_c, 3, 38, 30
5, 167380, Note_off_c, 3, 38, 64
5, 167940, Note_on_c, 3, 43, 30
5, 168340, Note_off_c, 3, 43, 64
5, 168900, Note_on_c, 3, 43, 30
5, 169300, Note_off_c, 3, 43, 64
5, 169860, Note_on_c, 3, 38, 30
5, 170260, Note_off_c, 3, 38, 64
5, 170820, Note_on_c, 3, 38, 30
5, 171055, Note_off_c, 3, 38, 64
5, 171060, Note_on_c, 3, 54, 92
5, 171140, Note_off_c, 3, 54, 64
5, 171300, Note_on_c, 3, 52, 92
5, 171380, Note_off_c, 3, 52, 64
5, 171540, Note_on_c, 3, 50, 92
5, 171620, Note_off_c, 3, 50, 64
5, 171780, Note_on_c, 3, 49, 75
5, 172015, Note_off_c, 3, 49, 64
5, 172020, Note_on_c, 3, 49, 75
5, 172255, Note_off_c, 3, 49, 64
5, 172260, Note_on_c, 3, 49, 75
5, 172495, Note_off_c, 3, 49, 64
5, 172500, Note_on_c, 3, 49, 75
5, 172735, Note_off_c, 3, 49, 64
5, 172740, Note_on_c, 3, 45, 75
5, 172975, Note_off_c, 3, 45, 64
5, 172980, Note_on_c, 3, 45, 75
5, 173215, Note_off_c, 3, 45, 64
5, 173220, Note_on_c, 3, 45, 75
5, 173455, Note_off_c, 3, 45, 64
5, 173460, Note_on_c, 3, 45, 75
5, 173695, Note_off_c, 3, 45, 64
5, 173700, Note_on_c, 3, 38, 75
5, 173935, Note_off_c, 3, 38, 64
5, 174000, Note_on_c, 3, 38, 75
5, 174235, Note_off_c, 3, 38, 64
5, 174240, Note_on_c, 3, 38, 75
5, 174475, Note_off_c, 3, 38, 64
5, 174480, Note_on_c, 3, 38, 75
5, 174715, Note_off_c, 3, 38, 64
5, 174720, Note_on_c, 3, 38, 75
5, 174955, Note_off_c, 3, 38, 64
5, 174960, Note_on_c, 3, 54, 75
5, 175040, Note_off_c, 3, 54, 64
5, 175200, Note_on_c, 3, 52, 75
5, 175280, Note_off_c, 3, 52, 64
5, 175440, Note_on_c, 3, 50, 75
5, 175520, Note_off_c, 3, 50, 64
5, 175680, Note_on_c, 3, 49, 75
5, 175915, Note_off_c, 3, 49, 64
5, 175920, Note_on_c, 3, 49, 75
5, 176155, Note_off_c, 3, 49, 64
5, 176160, Note_on_c, 3, 49, 75
5, 176395, Note_off_c, 3, 49, 64
5, 176400, Note_on_c, 3, 49, 75
5, 176635, Note_off_c, 3, 49, 64
5, 176640, Note_on_c, 3, 45, 75
5, 176875, Note_off_c, 3, 45, 64
5, 176880, Note_on_c, 3, 45, 75
5, 177115, Note_off_c, 3, 45, 64
5, 177120, Note_on_c, 3, 45, 75
5, 177355, Note_off_c, 3, 45, 64
5, 177360, Note_on_c, 3, 45, 75
5, 177595, Note_off_c, 3, 45, 64
5, 177600, Note_on_c, 3, 38, 75
5, 177835, Note_off_c, 3, 38, 64
5, 177900, Note_on_c, 3, 38, 75
5, 178135, Note_off_c, 3, 38, 64
5, 178140, Note_on_c, 3, 38, 75
5, 178375, Note_off_c, 3, 38, 64
5, 178380, Note_on_c, 3, 38, 75
5, 178615, Note_off_c, 3, 38, 64
5, 178620, Note_on_c, 3, 50, 75
5, 178855, Note_off_c, 3, 50, 64
5, 178860, Note_on_c, 3, 50, 75
5, 178940, Note_off_c, 3, 50, 64
5, 179100, Note_on_c, 3, 50, 75
5, 179180, Note_off_c, 3, 50, 64
5, 179340, Note_on_c, 3, 50, 75
5, 179420, Note_off_c, 3, 50, 64
5, 179580, Note_on_c, 3, 55, 75
5, 179815, Note_off_c, 3, 55, 64
5, 179880, Note_on_c, 3, 55, 75
5, 180115, Note_off_c, 3, 55, 64
5, 180120, Note_on_c, 3, 55, 75
5, 180355, Note_off_c, 3, 55, 64
5, 180360, Note_on_c, 3, 55, 75
5, 180595, Note_off_c, 3, 55, 64
5, 180600, Note_on_c, 3, 43, 75
5, 180835, Note_off_c, 3, 43, 64
5, 180840, Note_on_c, 3, 43, 75
5, 180920, Note_off_c, 3, 43, 64
5, 181080, Note_on_c, 3, 43, 75
5, 181160, Note_off_c, 3, 43, 64
5, 181320, Note_on_c, 3, 43, 75
5, 181400, Note_off_c, 3, 43, 64
5, 181560, Note_on_c, 3, 45, 75
5, 181795, Note_off_c, 3, 45, 64
5, 181800, Note_on_c, 3, 45, 75
5, 182035, Note_off_c, 3, 45, 64
5, 182040, Note_on_c, 3, 45, 75
5, 182275, Note_off_c, 3, 45, 64
5, 182280, Note_on_c, 3, 45, 75
5, 182515, Note_off_c, 3, 45, 64
5, 182520, Note_on_c, 3, 45, 75
5, 182755, Note_off_c, 3, 45, 64
5, 182760, Note_on_c, 3, 45, 75
5, 182995, Note_off_c, 3, 45, 64
5, 183000, Note_on_c, 3, 45, 75
5, 183235, Note_off_c, 3, 45, 64
5, 183240, Note_on_c, 3, 45, 75
5, 183475, Note_off_c, 3, 45, 64
5, 183480, Note_on_c, 3, 50, 75
5, 183880, Note_off_c, 3, 50, 64
5, 184440, Note_on_c, 3, 38, 75
5, 184840, Note_off_c, 3, 38, 64
5, 185400, Note_on_c, 3, 38, 75
5, 185800, Note_off_c, 3, 38, 64
5, 186360, Note_on_c, 3, 42, 75
5, 186440, Note_off_c, 3, 42, 64
5, 186600, Note_on_c, 3, 42, 75
5, 186835, Note_off_c, 3, 42, 64
5, 186840, Note_on_c, 3, 42, 75
5, 187075, Note_off_c, 3, 42, 64
5, 187080, Note_on_c, 3, 42, 75
5, 187315, Note_off_c, 3, 42, 64
5, 187320, Note_on_c, 3, 43, 75
5, 187720, Note_off_c, 3, 43, 64
5, 188280, Note_on_c, 3, 43, 75
5, 188680, Note_off_c, 3, 43, 64
5, 188760, Note_on_c, 3, 43, 75
5, 189160, Note_off_c, 3, 43, 64
5, 189240, Note_on_c, 3, 45, 75
5, 189475, Note_off_c, 3, 45, 64
5, 189480, Note_on_c, 3, 45, 75
5, 189715, Note_off_c, 3, 45, 64
5, 189720, Note_on_c, 3, 45, 75
5, 189955, Note_off_c, 3, 45, 64
5, 189960, Note_on_c, 3, 45, 75
5, 190195, Note_off_c, 3, 45, 64
5, 190200, Note_on_c, 3, 45, 75
5, 190435, Note_off_c, 3, 45, 64
5, 190440, Note_on_c, 3, 45, 75
5, 190675, Note_off_c, 3, 45, 64
5, 190680, Note_on_c, 3, 45, 75
5, 190915, Note_off_c, 3, 45, 64
5, 190920, Note_on_c, 3, 45, 75
5, 191155, Note_off_c, 3, 45, 64
5, 191160, Note_on_c, 3, 50, 75
5, 191560, Note_off_c, 3, 50, 64
5, 191880, Note_on_c, 3, 45, 81
5, 191960, Note_off_c, 3, 45, 64
5, 192120, Note_on_c, 3, 50, 83
5, 192520, Note_off_c, 3, 50, 64
5, 192840, Note_on_c, 3, 45, 89
5, 192920, Note_off_c, 3, 45, 64
5, 193080, Note_on_c, 3, 50, 92
5, 193315, Note_off_c, 3, 50, 64
5, 193560, Note_on_c, 3, 38, 92
5, 193560, Note_on_c, 3, 50, 92
5, 193960, Note_off_c, 3, 50, 64
5, 193960, Note_off_c, 3, 38, 64
5, 194040, Note_on_c, 3, 38, 92
5, 194040, Note_on_c, 3, 50, 92
5, 194440, Note_off_c, 3, 50, 64
5, 194440, Note_off_c, 3, 38, 64
5, 194440, End_track
6, 0, Start_track
6, 0, MIDI_port, 0
6, 0, Channel_prefix, 4
6, 0, Control_c, 4, 7, 127
6, 0, Control_c, 4, 10, 127
6, 0, Control_c, 4, 91, 56
6, 0, Program_c, 4, 50
6, 0, Note_on_c, 4, 38, 45
6, 80, Note_off_c, 4, 38, 64
6, 480, Note_on_c, 4, 26, 45
6, 560, Note_off_c, 4, 26, 64
6, 960, Note_on_c, 4, 31, 45
6, 1040, Note_off_c, 4, 31, 64
6, 1920, Note_on_c, 4, 28, 45
6, 2000, Note_off_c, 4, 28, 64
6, 2400, Note_on_c, 4, 33, 45
6, 2480, Note_off_c, 4, 33, 64
6, 2880, Note_on_c, 4, 26, 45
6, 2960, Note_off_c, 4, 26, 64
6, 3840, Note_on_c, 4, 38, 75
6, 3920, Note_off_c, 4, 38, 64
6, 4080, Note_on_c, 4, 38, 75
6, 4160, Note_off_c, 4, 38, 64
6, 4320, Note_on_c, 4, 38, 75
6, 4400, Note_off_c, 4, 38, 64
6, 4560, Note_on_c, 4, 38, 75
6, 4640, Note_off_c, 4, 38, 64
6, 4800, Note_on_c, 4, 38, 75
6, 4880, Note_off_c, 4, 38, 64
6, 5040, Note_on_c, 4, 38, 75
6, 5120, Note_off_c, 4, 38, 64
6, 5280, Note_on_c, 4, 38, 75
6, 5360, Note_off_c, 4, 38, 64
6, 5520, Note_on_c, 4, 38, 75
6, 5600, Note_off_c, 4, 38, 64
6, 5760, Note_on_c, 4, 38, 75
6, 5840, Note_off_c, 4, 38, 64
6, 6000, Note_on_c, 4, 38, 75
6, 6080, Note_off_c, 4, 38, 64
6, 6240, Note_on_c, 4, 38, 75
6, 6320, Note_off_c, 4, 38, 64
6, 6480, Note_on_c, 4, 38, 75
6, 6560, Note_off_c, 4, 38, 64
6, 6720, Note_on_c, 4, 38, 75
6, 6800, Note_off_c, 4, 38, 64
6, 6960, Note_on_c, 4, 38, 75
6, 7040, Note_off_c, 4, 38, 64
6, 7200, Note_on_c, 4, 38, 75
6, 7280, Note_off_c, 4, 38, 64
6, 7440, Note_on_c, 4, 38, 75
6, 7520, Note_off_c, 4, 38, 64
6, 7680, Note_on_c, 4, 26, 75
6, 7760, Note_off_c, 4, 26, 64
6, 7920, Note_on_c, 4, 26, 75
6, 8000, Note_off_c, 4, 26, 64
6, 8160, Note_on_c, 4, 26, 75
6, 8240, Note_off_c, 4, 26, 64
6, 8400, Note_on_c, 4, 26, 75
6, 8480, Note_off_c, 4, 26, 64
6, 8640, Note_on_c, 4, 26, 75
6, 8720, Note_off_c, 4, 26, 64
6, 8880, Note_on_c, 4, 26, 75
6, 8960, Note_off_c, 4, 26, 64
6, 9120, Note_on_c, 4, 26, 75
6, 9200, Note_off_c, 4, 26, 64
6, 9360, Note_on_c, 4, 26, 75
6, 9440, Note_off_c, 4, 26, 64
6, 9600, Note_on_c, 4, 26, 75
6, 9680, Note_off_c, 4, 26, 64
6, 9840, Note_on_c, 4, 26, 75
6, 9920, Note_off_c, 4, 26, 64
6, 10080, Note_on_c, 4, 26, 75
6, 10160, Note_off_c, 4, 26, 64
6, 10320, Note_on_c, 4, 26, 75
6, 10400, Note_off_c, 4, 26, 64
6, 10560, Note_on_c, 4, 26, 75
6, 10640, Note_off_c, 4, 26, 64
6, 10800, Note_on_c, 4, 26, 75
6, 10880, Note_off_c, 4, 26, 64
6, 11040, Note_on_c, 4, 26, 75
6, 11120, Note_off_c, 4, 26, 64
6, 11280, Note_on_c, 4, 26, 75
6, 11360, Note_off_c, 4, 26, 64
6, 11520, Note_on_c, 4, 26, 75
6, 11600, Note_off_c, 4, 26, 64
6, 11760, Note_on_c, 4, 26, 75
6, 11840, Note_off_c, 4, 26, 64
6, 12000, Note_on_c, 4, 26, 75
6, 12080, Note_off_c, 4, 26, 64
6, 12240, Note_on_c, 4, 26, 75
6, 12320, Note_off_c, 4, 26, 64
6, 12480, Note_on_c, 4, 26, 75
6, 12560, Note_off_c, 4, 26, 64
6, 12720, Note_on_c, 4, 26, 75
6, 12800, Note_off_c, 4, 26, 64
6, 12960, Note_on_c, 4, 26, 75
6, 13040, Note_off_c, 4, 26, 64
6, 13200, Note_on_c, 4, 26, 75
6, 13280, Note_off_c, 4, 26, 64
6, 13440, Note_on_c, 4, 33, 75
6, 13520, Note_off_c, 4, 33, 64
6, 13680, Note_on_c, 4, 33, 75
6, 13760, Note_off_c, 4, 33, 64
6, 13920, Note_on_c, 4, 33, 75
6, 14000, Note_off_c, 4, 33, 64
6, 14160, Note_on_c, 4, 33, 75
6, 14240, Note_off_c, 4, 33, 64
6, 14400, Note_on_c, 4, 38, 75
6, 14480, Note_off_c, 4, 38, 64
6, 14640, Note_on_c, 4, 38, 75
6, 14720, Note_off_c, 4, 38, 64
6, 14880, Note_on_c, 4, 38, 75
6, 14960, Note_off_c, 4, 38, 64
6, 15120, Note_on_c, 4, 38, 75
6, 15200, Note_off_c, 4, 38, 64
6, 15360, Note_on_c, 4, 26, 75
6, 15440, Note_off_c, 4, 26, 64
6, 15600, Note_on_c, 4, 26, 75
6, 15680, Note_off_c, 4, 26, 64
6, 15840, Note_on_c, 4, 26, 75
6, 15920, Note_off_c, 4, 26, 64
6, 16080, Note_on_c, 4, 26, 75
6, 16160, Note_off_c, 4, 26, 64
6, 16320, Note_on_c, 4, 26, 75
6, 16400, Note_off_c, 4, 26, 64
6, 16560, Note_on_c, 4, 26, 75
6, 16640, Note_off_c, 4, 26, 64
6, 16800, Note_on_c, 4, 26, 75
6, 16880, Note_off_c, 4, 26, 64
6, 17040, Note_on_c, 4, 26, 75
6, 17120, Note_off_c, 4, 26, 64
6, 17280, Note_on_c, 4, 33, 75
6, 17360, Note_off_c, 4, 33, 64
6, 17520, Note_on_c, 4, 33, 75
6, 17600, Note_off_c, 4, 33, 64
6, 17760, Note_on_c, 4, 33, 75
6, 17840, Note_off_c, 4, 33, 64
6, 18000, Note_on_c, 4, 33, 75
6, 18080, Note_off_c, 4, 33, 64
6, 18240, Note_on_c, 4, 38, 75
6, 18320, Note_off_c, 4, 38, 64
6, 18480, Note_on_c, 4, 38, 75
6, 18560, Note_off_c, 4, 38, 64
6, 18720, Note_on_c, 4, 38, 75
6, 18800, Note_off_c, 4, 38, 64
6, 18960, Note_on_c, 4, 38, 75
6, 19040, Note_off_c, 4, 38, 64
6, 19200, Note_on_c, 4, 38, 75
6, 19280, Note_off_c, 4, 38, 64
6, 19440, Note_on_c, 4, 38, 79
6, 19520, Note_off_c, 4, 38, 64
6, 19680, Note_on_c, 4, 38, 83
6, 19760, Note_off_c, 4, 38, 64
6, 19920, Note_on_c, 4, 38, 87
6, 20000, Note_off_c, 4, 38, 64
6, 20160, Note_on_c, 4, 37, 92
6, 20240, Note_off_c, 4, 37, 64
6, 20400, Note_on_c, 4, 49, 92
6, 20640, Note_off_c, 4, 49, 64
6, 20640, Note_on_c, 4, 47, 92
6, 20880, Note_off_c, 4, 47, 64
6, 20880, Note_on_c, 4, 45, 92
6, 21120, Note_off_c, 4, 45, 64
6, 21120, Note_on_c, 4, 44, 92
6, 21200, Note_off_c, 4, 44, 64
6, 21600, Note_on_c, 4, 45, 92
6, 21680, Note_off_c, 4, 45, 64
6, 22080, Note_on_c, 4, 40, 92
6, 22160, Note_off_c, 4, 40, 64
6, 23100, Note_on_c, 4, 45, 45
6, 23500, Note_off_c, 4, 45, 64
6, 24060, Note_on_c, 4, 33, 45
6, 24460, Note_off_c, 4, 33, 64
6, 25020, Note_on_c, 4, 38, 45
6, 25420, Note_off_c, 4, 38, 64
6, 25980, Note_on_c, 4, 26, 45
6, 26380, Note_off_c, 4, 26, 64
6, 26940, Note_on_c, 4, 33, 45
6, 27340, Note_off_c, 4, 33, 64
6, 27900, Note_on_c, 4, 33, 30
6, 28300, Note_off_c, 4, 33, 64
6, 28860, Note_on_c, 4, 38, 30
6, 29260, Note_off_c, 4, 38, 64
6, 29820, Note_on_c, 4, 26, 30
6, 30220, Note_off_c, 4, 26, 64
6, 30780, Note_on_c, 4, 33, 30
6, 31180, Note_off_c, 4, 33, 64
6, 31740, Note_on_c, 4, 33, 30
6, 31820, Note_off_c, 4, 33, 64
6, 31980, Note_on_c, 4, 49, 92
6, 32060, Note_off_c, 4, 49, 64
6, 32220, Note_on_c, 4, 47, 92
6, 32300, Note_off_c, 4, 47, 64
6, 32460, Note_on_c, 4, 45, 92
6, 32540, Note_off_c, 4, 45, 64
6, 32700, Note_on_c, 4, 44, 92
6, 32780, Note_off_c, 4, 44, 64
6, 32940, Note_on_c, 4, 44, 92
6, 33020, Note_off_c, 4, 44, 64
6, 33180, Note_on_c, 4, 44, 92
6, 33260, Note_off_c, 4, 44, 64
6, 33420, Note_on_c, 4, 44, 92
6, 33500, Note_off_c, 4, 44, 64
6, 33660, Note_on_c, 4, 40, 92
6, 33740, Note_off_c, 4, 40, 64
6, 33900, Note_on_c, 4, 40, 92
6, 33980, Note_off_c, 4, 40, 64
6, 34140, Note_on_c, 4, 40, 92
6, 34220, Note_off_c, 4, 40, 64
6, 34380, Note_on_c, 4, 40, 92
6, 34460, Note_off_c, 4, 40, 64
6, 34620, Note_on_c, 4, 33, 92
6, 34855, Note_off_c, 4, 33, 64
6, 34920, Note_on_c, 4, 33, 92
6, 35000, Note_off_c, 4, 33, 64
6, 35160, Note_on_c, 4, 33, 92
6, 35240, Note_off_c, 4, 33, 64
6, 35400, Note_on_c, 4, 33, 92
6, 35480, Note_off_c, 4, 33, 64
6, 35640, Note_on_c, 4, 33, 92
6, 35720, Note_off_c, 4, 33, 64
6, 35880, Note_on_c, 4, 49, 92
6, 35960, Note_off_c, 4, 49, 64
6, 36120, Note_on_c, 4, 47, 92
6, 36200, Note_off_c, 4, 47, 64
6, 36360, Note_on_c, 4, 45, 92
6, 36440, Note_off_c, 4, 45, 64
6, 36600, Note_on_c, 4, 44, 92
6, 36680, Note_off_c, 4, 44, 64
6, 36840, Note_on_c, 4, 44, 92
6, 36920, Note_off_c, 4, 44, 64
6, 37080, Note_on_c, 4, 44, 92
6, 37160, Note_off_c, 4, 44, 64
6, 37320, Note_on_c, 4, 44, 92
6, 37400, Note_off_c, 4, 44, 64
6, 37560, Note_on_c, 4, 40, 92
6, 37640, Note_off_c, 4, 40, 64
6, 37800, Note_on_c, 4, 40, 92
6, 37880, Note_off_c, 4, 40, 64
6, 38040, Note_on_c, 4, 40, 92
6, 38120, Note_off_c, 4, 40, 64
6, 38280, Note_on_c, 4, 40, 92
6, 38360, Note_off_c, 4, 40, 64
6, 38520, Note_on_c, 4, 33, 92
6, 38755, Note_off_c, 4, 33, 64
6, 38820, Note_on_c, 4, 33, 92
6, 38900, Note_off_c, 4, 33, 64
6, 39060, Note_on_c, 4, 33, 92
6, 39140, Note_off_c, 4, 33, 64
6, 39300, Note_on_c, 4, 33, 92
6, 39380, Note_off_c, 4, 33, 64
6, 39540, Note_on_c, 4, 33, 92
6, 39620, Note_off_c, 4, 33, 64
6, 39780, Note_on_c, 4, 33, 92
6, 39860, Note_off_c, 4, 33, 64
6, 40020, Note_on_c, 4, 33, 92
6, 40100, Note_off_c, 4, 33, 64
6, 40260, Note_on_c, 4, 33, 92
6, 40340, Note_off_c, 4, 33, 64
6, 40500, Note_on_c, 4, 38, 92
6, 40735, Note_off_c, 4, 38, 64
6, 40800, Note_on_c, 4, 38, 92
6, 40880, Note_off_c, 4, 38, 64
6, 41040, Note_on_c, 4, 38, 92
6, 41120, Note_off_c, 4, 38, 64
6, 41280, Note_on_c, 4, 38, 92
6, 41360, Note_off_c, 4, 38, 64
6, 41520, Note_on_c, 4, 38, 92
6, 41600, Note_off_c, 4, 38, 64
6, 41760, Note_on_c, 4, 38, 92
6, 41840, Note_off_c, 4, 38, 64
6, 42000, Note_on_c, 4, 38, 92
6, 42080, Note_off_c, 4, 38, 64
6, 42240, Note_on_c, 4, 38, 92
6, 42320, Note_off_c, 4, 38, 64
6, 42480, Note_on_c, 4, 40, 92
6, 42560, Note_off_c, 4, 40, 64
6, 42720, Note_on_c, 4, 40, 92
6, 42800, Note_off_c, 4, 40, 64
6, 42960, Note_on_c, 4, 40, 92
6, 43195, Note_off_c, 4, 40, 64
6, 43200, Note_on_c, 4, 40, 92
6, 43435, Note_off_c, 4, 40, 64
6, 43440, Note_on_c, 4, 28, 92
6, 43675, Note_off_c, 4, 28, 64
6, 43680, Note_on_c, 4, 28, 88
6, 43915, Note_off_c, 4, 28, 64
6, 43920, Note_on_c, 4, 28, 84
6, 44155, Note_off_c, 4, 28, 64
6, 44160, Note_on_c, 4, 28, 80
6, 44395, Note_off_c, 4, 28, 64
6, 44400, Note_on_c, 4, 33, 75
6, 44800, Note_off_c, 4, 33, 64
6, 45360, Note_on_c, 4, 33, 75
6, 45760, Note_off_c, 4, 33, 64
6, 46320, Note_on_c, 4, 33, 75
6, 46720, Note_off_c, 4, 33, 64
6, 47280, Note_on_c, 4, 37, 75
6, 47360, Note_off_c, 4, 37, 64
6, 47520, Note_on_c, 4, 37, 75
6, 47755, Note_off_c, 4, 37, 64
6, 47760, Note_on_c, 4, 37, 75
6, 47995, Note_off_c, 4, 37, 64
6, 48000, Note_on_c, 4, 37, 75
6, 48235, Note_off_c, 4, 37, 64
6, 48240, Note_on_c, 4, 38, 75
6, 48640, Note_off_c, 4, 38, 64
6, 49200, Note_on_c, 4, 38, 75
6, 49600, Note_off_c, 4, 38, 64
6, 49680, Note_on_c, 4, 38, 75
6, 50080, Note_off_c, 4, 38, 64
6, 50160, Note_on_c, 4, 40, 75
6, 50395, Note_off_c, 4, 40, 64
6, 50400, Note_on_c, 4, 40, 75
6, 50635, Note_off_c, 4, 40, 64
6, 50640, Note_on_c, 4, 40, 75
6, 50875, Note_off_c, 4, 40, 64
6, 50880, Note_on_c, 4, 40, 75
6, 51115, Note_off_c, 4, 40, 64
6, 51120, Note_on_c, 4, 28, 75
6, 51355, Note_off_c, 4, 28, 64
6, 51360, Note_on_c, 4, 28, 75
6, 51595, Note_off_c, 4, 28, 64
6, 51600, Note_on_c, 4, 28, 75
6, 51835, Note_off_c, 4, 28, 64
6, 51840, Note_on_c, 4, 28, 75
6, 52075, Note_off_c, 4, 28, 64
6, 52080, Note_on_c, 4, 33, 75
6, 52480, Note_off_c, 4, 33, 64
6, 52800, Note_on_c, 4, 40, 75
6, 52880, Note_off_c, 4, 40, 64
6, 53040, Note_on_c, 4, 33, 75
6, 53440, Note_off_c, 4, 33, 64
6, 53760, Note_on_c, 4, 28, 75
6, 53840, Note_off_c, 4, 28, 64
6, 54000, Note_on_c, 4, 33, 75
6, 54235, Note_off_c, 4, 33, 64
6, 54480, Note_on_c, 4, 33, 75
6, 54715, Note_off_c, 4, 33, 64
6, 54960, Note_on_c, 4, 33, 75
6, 55360, Note_off_c, 4, 33, 64
6, 56040, Note_on_c, 4, 38, 45
6, 56120, Note_off_c, 4, 38, 64
6, 56520, Note_on_c, 4, 26, 45
6, 56600, Note_off_c, 4, 26, 64
6, 57000, Note_on_c, 4, 31, 45
6, 57080, Note_off_c, 4, 31, 64
6, 57960, Note_on_c, 4, 28, 45
6, 58040, Note_off_c, 4, 28, 64
6, 58440, Note_on_c, 4, 33, 45
6, 58520, Note_off_c, 4, 33, 64
6, 58920, Note_on_c, 4, 26, 45
6, 59000, Note_off_c, 4, 26, 64
6, 59880, Note_on_c, 4, 38, 75
6, 59960, Note_off_c, 4, 38, 64
6, 60120, Note_on_c, 4, 38, 75
6, 60200, Note_off_c, 4, 38, 64
6, 60360, Note_on_c, 4, 38, 75
6, 60440, Note_off_c, 4, 38, 64
6, 60600, Note_on_c, 4, 38, 75
6, 60680, Note_off_c, 4, 38, 64
6, 60840, Note_on_c, 4, 38, 75
6, 60920, Note_off_c, 4, 38, 64
6, 61080, Note_on_c, 4, 38, 75
6, 61160, Note_off_c, 4, 38, 64
6, 61320, Note_on_c, 4, 38, 75
6, 61400, Note_off_c, 4, 38, 64
6, 61560, Note_on_c, 4, 38, 75
6, 61640, Note_off_c, 4, 38, 64
6, 61800, Note_on_c, 4, 38, 75
6, 61880, Note_off_c, 4, 38, 64
6, 62040, Note_on_c, 4, 38, 75
6, 62120, Note_off_c, 4, 38, 64
6, 62280, Note_on_c, 4, 38, 75
6, 62360, Note_off_c, 4, 38, 64
6, 62520, Note_on_c, 4, 38, 75
6, 62600, Note_off_c, 4, 38, 64
6, 62760, Note_on_c, 4, 38, 75
6, 62840, Note_off_c, 4, 38, 64
6, 63000, Note_on_c, 4, 38, 75
6, 63080, Note_off_c, 4, 38, 64
6, 63240, Note_on_c, 4, 38, 75
6, 63320, Note_off_c, 4, 38, 64
6, 63480, Note_on_c, 4, 38, 75
6, 63560, Note_off_c, 4, 38, 64
6, 63720, Note_on_c, 4, 26, 75
6, 63800, Note_off_c, 4, 26, 64
6, 63960, Note_on_c, 4, 26, 75
6, 64040, Note_off_c, 4, 26, 64
6, 64200, Note_on_c, 4, 26, 75
6, 64280, Note_off_c, 4, 26, 64
6, 64440, Note_on_c, 4, 26, 75
6, 64520, Note_off_c, 4, 26, 64
6, 64680, Note_on_c, 4, 26, 75
6, 64760, Note_off_c, 4, 26, 64
6, 64920, Note_on_c, 4, 26, 75
6, 65000, Note_off_c, 4, 26, 64
6, 65160, Note_on_c, 4, 26, 75
6, 65240, Note_off_c, 4, 26, 64
6, 65400, Note_on_c, 4, 26, 75
6, 65480, Note_off_c, 4, 26, 64
6, 65640, Note_on_c, 4, 26, 75
6, 65720, Note_off_c, 4, 26, 64
6, 65880, Note_on_c, 4, 26, 75
6, 65960, Note_off_c, 4, 26, 64
6, 66120, Note_on_c, 4, 26, 75
6, 66200, Note_off_c, 4, 26, 64
6, 66360, Note_on_c, 4, 26, 75
6, 66440, Note_off_c, 4, 26, 64
6, 66600, Note_on_c, 4, 26, 75
6, 66680, Note_off_c, 4, 26, 64
6, 66840, Note_on_c, 4, 26, 75
6, 66920, Note_off_c, 4, 26, 64
6, 67080, Note_on_c, 4, 26, 75
6, 67160, Note_off_c, 4, 26, 64
6, 67320, Note_on_c, 4, 26, 75
6, 67400, Note_off_c, 4, 26, 64
6, 67560, Note_on_c, 4, 26, 75
6, 67640, Note_off_c, 4, 26, 64
6, 67800, Note_on_c, 4, 26, 75
6, 67880, Note_off_c, 4, 26, 64
6, 68040, Note_on_c, 4, 26, 75
6, 68120, Note_off_c, 4, 26, 64
6, 68280, Note_on_c, 4, 26, 75
6, 68360, Note_off_c, 4, 26, 64
6, 68520, Note_on_c, 4, 26, 75
6, 68600, Note_off_c, 4, 26, 64
6, 68760, Note_on_c, 4, 26, 75
6, 68840, Note_off_c, 4, 26, 64
6, 69000, Note_on_c, 4, 26, 75
6, 69080, Note_off_c, 4, 26, 64
6, 69240, Note_on_c, 4, 26, 75
6, 69320, Note_off_c, 4, 26, 64
6, 69480, Note_on_c, 4, 33, 75
6, 69560, Note_off_c, 4, 33, 64
6, 69720, Note_on_c, 4, 33, 75
6, 69800, Note_off_c, 4, 33, 64
6, 69960, Note_on_c, 4, 33, 75
6, 70040, Note_off_c, 4, 33, 64
6, 70200, Note_on_c, 4, 33, 75
6, 70280, Note_off_c, 4, 33, 64
6, 70440, Note_on_c, 4, 38, 75
6, 70520, Note_off_c, 4, 38, 64
6, 70680, Note_on_c, 4, 38, 75
6, 70760, Note_off_c, 4, 38, 64
6, 70920, Note_on_c, 4, 38, 75
6, 71000, Note_off_c, 4, 38, 64
6, 71160, Note_on_c, 4, 38, 75
6, 71240, Note_off_c, 4, 38, 64
6, 71400, Note_on_c, 4, 26, 75
6, 71480, Note_off_c, 4, 26, 64
6, 71640, Note_on_c, 4, 26, 75
6, 71720, Note_off_c, 4, 26, 64
6, 71880, Note_on_c, 4, 26, 75
6, 71960, Note_off_c, 4, 26, 64
6, 72120, Note_on_c, 4, 26, 75
6, 72200, Note_off_c, 4, 26, 64
6, 72360, Note_on_c, 4, 26, 75
6, 72440, Note_off_c, 4, 26, 64
6, 72600, Note_on_c, 4, 26, 75
6, 72680, Note_off_c, 4, 26, 64
6, 72840, Note_on_c, 4, 26, 75
6, 72920, Note_off_c, 4, 26, 64
6, 73080, Note_on_c, 4, 26, 75
6, 73160, Note_off_c, 4, 26, 64
6, 73320, Note_on_c, 4, 33, 75
6, 73400, Note_off_c, 4, 33, 64
6, 73560, Note_on_c, 4, 33, 75
6, 73640, Note_off_c, 4, 33, 64
6, 73800, Note_on_c, 4, 33, 75
6, 73880, Note_off_c, 4, 33, 64
6, 74040, Note_on_c, 4, 33, 75
6, 74120, Note_off_c, 4, 33, 64
6, 74280, Note_on_c, 4, 38, 75
6, 74360, Note_off_c, 4, 38, 64
6, 74520, Note_on_c, 4, 38, 75
6, 74600, Note_off_c, 4, 38, 64
6, 74760, Note_on_c, 4, 38, 75
6, 74840, Note_off_c, 4, 38, 64
6, 75000, Note_on_c, 4, 38, 75
6, 75080, Note_off_c, 4, 38, 64
6, 75240, Note_on_c, 4, 38, 75
6, 75320, Note_off_c, 4, 38, 64
6, 75480, Note_on_c, 4, 38, 79
6, 75560, Note_off_c, 4, 38, 64
6, 75720, Note_on_c, 4, 38, 83
6, 75800, Note_off_c, 4, 38, 64
6, 75960, Note_on_c, 4, 38, 87
6, 76040, Note_off_c, 4, 38, 64
6, 76200, Note_on_c, 4, 37, 92
6, 76280, Note_off_c, 4, 37, 64
6, 76440, Note_on_c, 4, 49, 92
6, 76680, Note_off_c, 4, 49, 64
6, 76680, Note_on_c, 4, 47, 92
6, 76920, Note_off_c, 4, 47, 64
6, 76920, Note_on_c, 4, 45, 92
6, 77160, Note_off_c, 4, 45, 64
6, 77160, Note_on_c, 4, 44, 92
6, 77240, Note_off_c, 4, 44, 64
6, 77640, Note_on_c, 4, 45, 92
6, 77720, Note_off_c, 4, 45, 64
6, 78120, Note_on_c, 4, 40, 92
6, 78200, Note_off_c, 4, 40, 64
6, 79140, Note_on_c, 4, 45, 45
6, 79540, Note_off_c, 4, 45, 64
6, 80100, Note_on_c, 4, 33, 45
6, 80500, Note_off_c, 4, 33, 64
6, 81060, Note_on_c, 4, 38, 45
6, 81460, Note_off_c, 4, 38, 64
6, 82020, Note_on_c, 4, 26, 45
6, 82420, Note_off_c, 4, 26, 64
6, 82980, Note_on_c, 4, 33, 45
6, 83380, Note_off_c, 4, 33, 64
6, 83940, Note_on_c, 4, 33, 30
6, 84340, Note_off_c, 4, 33, 64
6, 84900, Note_on_c, 4, 38, 30
6, 85300, Note_off_c, 4, 38, 64
6, 85860, Note_on_c, 4, 26, 30
6, 86260, Note_off_c, 4, 26, 64
6, 86820, Note_on_c, 4, 33, 30
6, 87220, Note_off_c, 4, 33, 64
6, 87780, Note_on_c, 4, 33, 30
6, 87860, Note_off_c, 4, 33, 64
6, 88020, Note_on_c, 4, 49, 92
6, 88100, Note_off_c, 4, 49, 64
6, 88260, Note_on_c, 4, 47, 92
6, 88340, Note_off_c, 4, 47, 64
6, 88500, Note_on_c, 4, 45, 92
6, 88580, Note_off_c, 4, 45, 64
6, 88740, Note_on_c, 4, 44, 92
6, 88820, Note_off_c, 4, 44, 64
6, 88980, Note_on_c, 4, 44, 92
6, 89060, Note_off_c, 4, 44, 64
6, 89220, Note_on_c, 4, 44, 92
6, 89300, Note_off_c, 4, 44, 64
6, 89460, Note_on_c, 4, 44, 92
6, 89540, Note_off_c, 4, 44, 64
6, 89700, Note_on_c, 4, 40, 92
6, 89780, Note_off_c, 4, 40, 64
6, 89940, Note_on_c, 4, 40, 92
6, 90020, Note_off_c, 4, 40, 64
6, 90180, Note_on_c, 4, 40, 92
6, 90260, Note_off_c, 4, 40, 64
6, 90420, Note_on_c, 4, 40, 92
6, 90500, Note_off_c, 4, 40, 64
6, 90660, Note_on_c, 4, 33, 92
6, 90895, Note_off_c, 4, 33, 64
6, 90960, Note_on_c, 4, 33, 92
6, 91040, Note_off_c, 4, 33, 64
6, 91200, Note_on_c, 4, 33, 92
6, 91280, Note_off_c, 4, 33, 64
6, 91440, Note_on_c, 4, 33, 92
6, 91520, Note_off_c, 4, 33, 64
6, 91680, Note_on_c, 4, 33, 92
6, 91760, Note_off_c, 4, 33, 64
6, 91920, Note_on_c, 4, 49, 92
6, 92000, Note_off_c, 4, 49, 64
6, 92160, Note_on_c, 4, 47, 92
6, 92240, Note_off_c, 4, 47, 64
6, 92400, Note_on_c, 4, 45, 92
6, 92480, Note_off_c, 4, 45, 64
6, 92640, Note_on_c, 4, 44, 92
6, 92720, Note_off_c, 4, 44, 64
6, 92880, Note_on_c, 4, 44, 92
6, 92960, Note_off_c, 4, 44, 64
6, 93120, Note_on_c, 4, 44, 92
6, 93200, Note_off_c, 4, 44, 64
6, 93360, Note_on_c, 4, 44, 92
6, 93440, Note_off_c, 4, 44, 64
6, 93600, Note_on_c, 4, 40, 92
6, 93680, Note_off_c, 4, 40, 64
6, 93840, Note_on_c, 4, 40, 92
6, 93920, Note_off_c, 4, 40, 64
6, 94080, Note_on_c, 4, 40, 92
6, 94160, Note_off_c, 4, 40, 64
6, 94320, Note_on_c, 4, 40, 92
6, 94400, Note_off_c, 4, 40, 64
6, 94560, Note_on_c, 4, 33, 92
6, 94795, Note_off_c, 4, 33, 64
6, 94860, Note_on_c, 4, 33, 92
6, 94940, Note_off_c, 4, 33, 64
6, 95100, Note_on_c, 4, 33, 92
6, 95180, Note_off_c, 4, 33, 64
6, 95340, Note_on_c, 4, 33, 92
6, 95420, Note_off_c, 4, 33, 64
6, 95580, Note_on_c, 4, 33, 92
6, 95660, Note_off_c, 4, 33, 64
6, 95820, Note_on_c, 4, 33, 92
6, 95900, Note_off_c, 4, 33, 64
6, 96060, Note_on_c, 4, 33, 92
6, 96140, Note_off_c, 4, 33, 64
6, 96300, Note_on_c, 4, 33, 92
6, 96380, Note_off_c, 4, 33, 64
6, 96540, Note_on_c, 4, 38, 92
6, 96775, Note_off_c, 4, 38, 64
6, 96840, Note_on_c, 4, 38, 92
6, 96920, Note_off_c, 4, 38, 64
6, 97080, Note_on_c, 4, 38, 92
6, 97160, Note_off_c, 4, 38, 64
6, 97320, Note_on_c, 4, 38, 92
6, 97400, Note_off_c, 4, 38, 64
6, 97560, Note_on_c, 4, 38, 92
6, 97640, Note_off_c, 4, 38, 64
6, 97800, Note_on_c, 4, 38, 92
6, 97880, Note_off_c, 4, 38, 64
6, 98040, Note_on_c, 4, 38, 92
6, 98120, Note_off_c, 4, 38, 64
6, 98280, Note_on_c, 4, 38, 92
6, 98360, Note_off_c, 4, 38, 64
6, 98520, Note_on_c, 4, 40, 92
6, 98600, Note_off_c, 4, 40, 64
6, 98760, Note_on_c, 4, 40, 92
6, 98840, Note_off_c, 4, 40, 64
6, 99000, Note_on_c, 4, 40, 92
6, 99235, Note_off_c, 4, 40, 64
6, 99240, Note_on_c, 4, 40, 92
6, 99475, Note_off_c, 4, 40, 64
6, 99480, Note_on_c, 4, 28, 92
6, 99715, Note_off_c, 4, 28, 64
6, 99720, Note_on_c, 4, 28, 88
6, 99955, Note_off_c, 4, 28, 64
6, 99960, Note_on_c, 4, 28, 84
6, 100195, Note_off_c, 4, 28, 64
6, 100200, Note_on_c, 4, 28, 80
6, 100435, Note_off_c, 4, 28, 64
6, 100440, Note_on_c, 4, 33, 75
6, 100840, Note_off_c, 4, 33, 64
6, 101400, Note_on_c, 4, 33, 75
6, 101800, Note_off_c, 4, 33, 64
6, 102360, Note_on_c, 4, 33, 75
6, 102760, Note_off_c, 4, 33, 64
6, 103320, Note_on_c, 4, 37, 75
6, 103400, Note_off_c, 4, 37, 64
6, 103560, Note_on_c, 4, 37, 75
6, 103795, Note_off_c, 4, 37, 64
6, 103800, Note_on_c, 4, 37, 75
6, 104035, Note_off_c, 4, 37, 64
6, 104040, Note_on_c, 4, 37, 75
6, 104275, Note_off_c, 4, 37, 64
6, 104280, Note_on_c, 4, 38, 75
6, 104680, Note_off_c, 4, 38, 64
6, 105240, Note_on_c, 4, 38, 75
6, 105640, Note_off_c, 4, 38, 64
6, 105720, Note_on_c, 4, 38, 75
6, 106120, Note_off_c, 4, 38, 64
6, 106200, Note_on_c, 4, 40, 75
6, 106435, Note_off_c, 4, 40, 64
6, 106440, Note_on_c, 4, 40, 75
6, 106675, Note_off_c, 4, 40, 64
6, 106680, Note_on_c, 4, 40, 75
6, 106915, Note_off_c, 4, 40, 64
6, 106920, Note_on_c, 4, 40, 75
6, 107155, Note_off_c, 4, 40, 64
6, 107160, Note_on_c, 4, 28, 75
6, 107395, Note_off_c, 4, 28, 64
6, 107400, Note_on_c, 4, 28, 75
6, 107635, Note_off_c, 4, 28, 64
6, 107640, Note_on_c, 4, 28, 75
6, 107875, Note_off_c, 4, 28, 64
6, 107880, Note_on_c, 4, 28, 75
6, 108115, Note_off_c, 4, 28, 64
6, 108120, Note_on_c, 4, 33, 75
6, 108520, Note_off_c, 4, 33, 64
6, 108840, Note_on_c, 4, 40, 75
6, 108920, Note_off_c, 4, 40, 64
6, 109080, Note_on_c, 4, 33, 75
6, 109480, Note_off_c, 4, 33, 64
6, 109800, Note_on_c, 4, 28, 75
6, 109880, Note_off_c, 4, 28, 64
6, 110040, Note_on_c, 4, 33, 75
6, 110275, Note_off_c, 4, 33, 64
6, 110520, Note_on_c, 4, 33, 75
6, 110755, Note_off_c, 4, 33, 64
6, 111000, Note_on_c, 4, 33, 75
6, 111400, Note_off_c, 4, 33, 64
6, 115920, Note_on_c, 4, 50, 92
6, 116560, Note_off_c, 4, 50, 64
6, 116640, Note_on_c, 4, 50, 92
6, 116720, Note_off_c, 4, 50, 64
6, 116880, Note_on_c, 4, 48, 92
6, 116960, Note_off_c, 4, 48, 64
6, 117120, Note_on_c, 4, 47, 92
6, 117200, Note_off_c, 4, 47, 64
6, 117360, Note_on_c, 4, 48, 92
6, 117440, Note_off_c, 4, 48, 64
6, 117600, Note_on_c, 4, 45, 92
6, 117680, Note_off_c, 4, 45, 64
6, 117840, Note_on_c, 4, 47, 92
6, 117920, Note_off_c, 4, 47, 64
6, 118080, Note_on_c, 4, 45, 92
6, 118160, Note_off_c, 4, 45, 64
6, 118320, Note_on_c, 4, 47, 92
6, 118400, Note_off_c, 4, 47, 64
6, 118560, Note_on_c, 4, 43, 92
6, 118640, Note_off_c, 4, 43, 64
6, 118800, Note_on_c, 4, 45, 92
6, 118880, Note_off_c, 4, 45, 64
6, 119040, Note_on_c, 4, 43, 92
6, 119120, Note_off_c, 4, 43, 64
6, 119280, Note_on_c, 4, 45, 92
6, 119360, Note_off_c, 4, 45, 64
6, 119520, Note_on_c, 4, 42, 92
6, 119600, Note_off_c, 4, 42, 64
6, 119760, Note_on_c, 4, 43, 92
6, 120160, Note_off_c, 4, 43, 64
6, 122640, Note_on_c, 4, 42, 92
6, 123280, Note_off_c, 4, 42, 64
6, 123360, Note_on_c, 4, 42, 92
6, 123440, Note_off_c, 4, 42, 64
6, 123600, Note_on_c, 4, 40, 92
6, 123680, Note_off_c, 4, 40, 64
6, 123840, Note_on_c, 4, 38, 92
6, 123920, Note_off_c, 4, 38, 64
6, 124080, Note_on_c, 4, 40, 92
6, 124160, Note_off_c, 4, 40, 64
6, 124320, Note_on_c, 4, 37, 92
6, 124400, Note_off_c, 4, 37, 64
6, 124560, Note_on_c, 4, 35, 92
6, 124640, Note_off_c, 4, 35, 64
6, 125040, Note_on_c, 4, 35, 92
6, 125520, Note_off_c, 4, 35, 64
6, 125520, Note_on_c, 4, 37, 92
6, 126000, Note_off_c, 4, 37, 64
6, 126000, Note_on_c, 4, 39, 92
6, 126480, Note_off_c, 4, 39, 64
6, 126480, Note_on_c, 4, 40, 92
6, 126880, Note_off_c, 4, 40, 64
6, 135120, Note_on_c, 4, 34, 92
6, 135520, Note_off_c, 4, 34, 64
6, 136140, Note_on_c, 4, 32, 92
6, 136540, Note_off_c, 4, 32, 64
6, 137160, Note_on_c, 4, 33, 92
6, 137560, Note_off_c, 4, 33, 64
6, 139080, Note_on_c, 4, 38, 45
6, 139160, Note_off_c, 4, 38, 64
6, 139560, Note_on_c, 4, 26, 45
6, 139640, Note_off_c, 4, 26, 64
6, 140040, Note_on_c, 4, 31, 45
6, 140120, Note_off_c, 4, 31, 64
6, 141000, Note_on_c, 4, 28, 45
6, 141080, Note_off_c, 4, 28, 64
6, 141480, Note_on_c, 4, 33, 45
6, 141560, Note_off_c, 4, 33, 64
6, 141960, Note_on_c, 4, 26, 45
6, 142040, Note_off_c, 4, 26, 64
6, 142980, Note_on_c, 4, 38, 75
6, 143060, Note_off_c, 4, 38, 64
6, 143220, Note_on_c, 4, 38, 75
6, 143300, Note_off_c, 4, 38, 64
6, 143460, Note_on_c, 4, 38, 75
6, 143540, Note_off_c, 4, 38, 64
6, 143700, Note_on_c, 4, 38, 75
6, 143780, Note_off_c, 4, 38, 64
6, 143940, Note_on_c, 4, 38, 75
6, 144020, Note_off_c, 4, 38, 64
6, 144180, Note_on_c, 4, 38, 75
6, 144260, Note_off_c, 4, 38, 64
6, 144420, Note_on_c, 4, 38, 75
6, 144500, Note_off_c, 4, 38, 64
6, 144660, Note_on_c, 4, 38, 75
6, 144740, Note_off_c, 4, 38, 64
6, 144900, Note_on_c, 4, 38, 75
6, 144980, Note_off_c, 4, 38, 64
6, 145140, Note_on_c, 4, 38, 75
6, 145220, Note_off_c, 4, 38, 64
6, 145380, Note_on_c, 4, 38, 75
6, 145460, Note_off_c, 4, 38, 64
6, 145620, Note_on_c, 4, 38, 75
6, 145700, Note_off_c, 4, 38, 64
6, 145860, Note_on_c, 4, 38, 75
6, 146095, Note_off_c, 4, 38, 64
6, 146100, Note_on_c, 4, 38, 75
6, 146180, Note_off_c, 4, 38, 64
6, 146340, Note_on_c, 4, 38, 75
6, 146420, Note_off_c, 4, 38, 64
6, 146580, Note_on_c, 4, 38, 75
6, 146660, Note_off_c, 4, 38, 64
6, 146820, Note_on_c, 4, 26, 75
6, 146900, Note_off_c, 4, 26, 64
6, 147060, Note_on_c, 4, 26, 75
6, 147140, Note_off_c, 4, 26, 64
6, 147300, Note_on_c, 4, 26, 75
6, 147380, Note_off_c, 4, 26, 64
6, 147540, Note_on_c, 4, 26, 75
6, 147620, Note_off_c, 4, 26, 64
6, 147780, Note_on_c, 4, 26, 75
6, 147860, Note_off_c, 4, 26, 64
6, 148020, Note_on_c, 4, 26, 75
6, 148100, Note_off_c, 4, 26, 64
6, 148260, Note_on_c, 4, 26, 75
6, 148340, Note_off_c, 4, 26, 64
6, 148500, Note_on_c, 4, 26, 75
6, 148580, Note_off_c, 4, 26, 64
6, 148740, Note_on_c, 4, 26, 75
6, 148820, Note_off_c, 4, 26, 64
6, 148980, Note_on_c, 4, 26, 75
6, 149060, Note_off_c, 4, 26, 64
6, 149220, Note_on_c, 4, 26, 75
6, 149300, Note_off_c, 4, 26, 64
6, 149460, Note_on_c, 4, 26, 75
6, 149540, Note_off_c, 4, 26, 64
6, 149700, Note_on_c, 4, 26, 75
6, 149935, Note_off_c, 4, 26, 64
6, 149940, Note_on_c, 4, 26, 75
6, 150020, Note_off_c, 4, 26, 64
6, 150180, Note_on_c, 4, 26, 75
6, 150260, Note_off_c, 4, 26, 64
6, 150420, Note_on_c, 4, 26, 75
6, 150500, Note_off_c, 4, 26, 64
6, 150660, Note_on_c, 4, 26, 75
6, 150740, Note_off_c, 4, 26, 64
6, 150900, Note_on_c, 4, 26, 75
6, 150980, Note_off_c, 4, 26, 64
6, 151140, Note_on_c, 4, 26, 75
6, 151220, Note_off_c, 4, 26, 64
6, 151380, Note_on_c, 4, 26, 75
6, 151460, Note_off_c, 4, 26, 64
6, 151620, Note_on_c, 4, 26, 75
6, 151700, Note_off_c, 4, 26, 64
6, 151860, Note_on_c, 4, 26, 75
6, 151940, Note_off_c, 4, 26, 64
6, 152100, Note_on_c, 4, 26, 75
6, 152180, Note_off_c, 4, 26, 64
6, 152340, Note_on_c, 4, 26, 75
6, 152420, Note_off_c, 4, 26, 64
6, 152580, Note_on_c, 4, 33, 75
6, 152660, Note_off_c, 4, 33, 64
6, 152820, Note_on_c, 4, 33, 75
6, 152900, Note_off_c, 4, 33, 64
6, 153060, Note_on_c, 4, 33, 75
6, 153140, Note_off_c, 4, 33, 64
6, 153300, Note_on_c, 4, 33, 75
6, 153380, Note_off_c, 4, 33, 64
6, 153540, Note_on_c, 4, 38, 75
6, 153775, Note_off_c, 4, 38, 64
6, 153780, Note_on_c, 4, 38, 75
6, 153860, Note_off_c, 4, 38, 64
6, 154020, Note_on_c, 4, 38, 75
6, 154100, Note_off_c, 4, 38, 64
6, 154260, Note_on_c, 4, 38, 75
6, 154340, Note_off_c, 4, 38, 64
6, 154500, Note_on_c, 4, 26, 75
6, 154580, Note_off_c, 4, 26, 64
6, 154740, Note_on_c, 4, 26, 75
6, 154820, Note_off_c, 4, 26, 64
6, 154980, Note_on_c, 4, 26, 75
6, 155060, Note_off_c, 4, 26, 64
6, 155220, Note_on_c, 4, 26, 75
6, 155300, Note_off_c, 4, 26, 64
6, 155460, Note_on_c, 4, 26, 75
6, 155540, Note_off_c, 4, 26, 64
6, 155700, Note_on_c, 4, 26, 75
6, 155780, Note_off_c, 4, 26, 64
6, 155940, Note_on_c, 4, 26, 75
6, 156020, Note_off_c, 4, 26, 64
6, 156180, Note_on_c, 4, 26, 75
6, 156260, Note_off_c, 4, 26, 64
6, 156420, Note_on_c, 4, 33, 75
6, 156500, Note_off_c, 4, 33, 64
6, 156660, Note_on_c, 4, 33, 75
6, 156740, Note_off_c, 4, 33, 64
6, 156900, Note_on_c, 4, 33, 75
6, 156980, Note_off_c, 4, 33, 64
6, 157140, Note_on_c, 4, 33, 75
6, 157220, Note_off_c, 4, 33, 64
6, 157380, Note_on_c, 4, 38, 75
6, 157460, Note_off_c, 4, 38, 64
6, 157620, Note_on_c, 4, 38, 75
6, 157700, Note_off_c, 4, 38, 64
6, 157860, Note_on_c, 4, 38, 75
6, 157940, Note_off_c, 4, 38, 64
6, 158100, Note_on_c, 4, 38, 75
6, 158180, Note_off_c, 4, 38, 64
6, 158340, Note_on_c, 4, 43, 75
6, 158575, Note_off_c, 4, 43, 64
6, 158580, Note_on_c, 4, 43, 75
6, 158815, Note_off_c, 4, 43, 64
6, 158820, Note_on_c, 4, 43, 75
6, 159055, Note_off_c, 4, 43, 64
6, 159060, Note_on_c, 4, 43, 75
6, 159295, Note_off_c, 4, 43, 64
6, 159300, Note_on_c, 4, 42, 92
6, 159380, Note_off_c, 4, 42, 64
6, 159540, Note_on_c, 4, 42, 92
6, 159780, Note_off_c, 4, 42, 64
6, 159780, Note_on_c, 4, 40, 92
6, 160020, Note_off_c, 4, 40, 64
6, 160020, Note_on_c, 4, 38, 92
6, 160260, Note_off_c, 4, 38, 64
6, 160260, Note_on_c, 4, 37, 92
6, 160340, Note_off_c, 4, 37, 64
6, 160740, Note_on_c, 4, 38, 92
6, 160820, Note_off_c, 4, 38, 64
6, 161220, Note_on_c, 4, 33, 92
6, 161300, Note_off_c, 4, 33, 64
6, 162180, Note_on_c, 4, 38, 45
6, 162580, Note_off_c, 4, 38, 64
6, 163140, Note_on_c, 4, 26, 45
6, 163540, Note_off_c, 4, 26, 64
6, 164100, Note_on_c, 4, 31, 45
6, 164500, Note_off_c, 4, 31, 64
6, 165060, Note_on_c, 4, 43, 45
6, 165460, Note_off_c, 4, 43, 64
6, 166020, Note_on_c, 4, 38, 45
6, 166420, Note_off_c, 4, 38, 64
6, 166980, Note_on_c, 4, 26, 30
6, 167380, Note_off_c, 4, 26, 64
6, 167940, Note_on_c, 4, 31, 30
6, 168340, Note_off_c, 4, 31, 64
6, 168900, Note_on_c, 4, 31, 30
6, 169300, Note_off_c, 4, 31, 64
6, 169860, Note_on_c, 4, 26, 30
6, 170260, Note_off_c, 4, 26, 64
6, 170820, Note_on_c, 4, 26, 30
6, 171055, Note_off_c, 4, 26, 64
6, 171060, Note_on_c, 4, 42, 92
6, 171140, Note_off_c, 4, 42, 64
6, 171300, Note_on_c, 4, 40, 92
6, 171380, Note_off_c, 4, 40, 64
6, 171540, Note_on_c, 4, 38, 92
6, 171620, Note_off_c, 4, 38, 64
6, 171780, Note_on_c, 4, 37, 75
6, 172015, Note_off_c, 4, 37, 64
6, 172020, Note_on_c, 4, 37, 75
6, 172255, Note_off_c, 4, 37, 64
6, 172260, Note_on_c, 4, 37, 75
6, 172495, Note_off_c, 4, 37, 64
6, 172500, Note_on_c, 4, 37, 75
6, 172735, Note_off_c, 4, 37, 64
6, 172740, Note_on_c, 4, 33, 75
6, 172975, Note_off_c, 4, 33, 64
6, 172980, Note_on_c, 4, 33, 75
6, 173215, Note_off_c, 4, 33, 64
6, 173220, Note_on_c, 4, 33, 75
6, 173455, Note_off_c, 4, 33, 64
6, 173460, Note_on_c, 4, 33, 75
6, 173695, Note_off_c, 4, 33, 64
6, 173700, Note_on_c, 4, 26, 75
6, 173935, Note_off_c, 4, 26, 64
6, 174000, Note_on_c, 4, 26, 75
6, 174235, Note_off_c, 4, 26, 64
6, 174240, Note_on_c, 4, 26, 75
6, 174475, Note_off_c, 4, 26, 64
6, 174480, Note_on_c, 4, 26, 75
6, 174715, Note_off_c, 4, 26, 64
6, 174720, Note_on_c, 4, 26, 75
6, 174955, Note_off_c, 4, 26, 64
6, 174960, Note_on_c, 4, 42, 75
6, 175040, Note_off_c, 4, 42, 64
6, 175200, Note_on_c, 4, 40, 75
6, 175280, Note_off_c, 4, 40, 64
6, 175440, Note_on_c, 4, 38, 75
6, 175520, Note_off_c, 4, 38, 64
6, 175680, Note_on_c, 4, 37, 75
6, 175915, Note_off_c, 4, 37, 64
6, 175920, Note_on_c, 4, 37, 75
6, 176155, Note_off_c, 4, 37, 64
6, 176160, Note_on_c, 4, 37, 75
6, 176395, Note_off_c, 4, 37, 64
6, 176400, Note_on_c, 4, 37, 75
6, 176635, Note_off_c, 4, 37, 64
6, 176640, Note_on_c, 4, 33, 75
6, 176875, Note_off_c, 4, 33, 64
6, 176880, Note_on_c, 4, 33, 75
6, 177115, Note_off_c, 4, 33, 64
6, 177120, Note_on_c, 4, 33, 75
6, 177355, Note_off_c, 4, 33, 64
6, 177360, Note_on_c, 4, 33, 75
6, 177595, Note_off_c, 4, 33, 64
6, 177600, Note_on_c, 4, 26, 75
6, 177835, Note_off_c, 4, 26, 64
6, 177900, Note_on_c, 4, 26, 75
6, 178135, Note_off_c, 4, 26, 64
6, 178140, Note_on_c, 4, 26, 75
6, 178375, Note_off_c, 4, 26, 64
6, 178380, Note_on_c, 4, 26, 75
6, 178615, Note_off_c, 4, 26, 64
6, 178620, Note_on_c, 4, 38, 75
6, 178855, Note_off_c, 4, 38, 64
6, 178860, Note_on_c, 4, 38, 75
6, 178940, Note_off_c, 4, 38, 64
6, 179100, Note_on_c, 4, 38, 75
6, 179180, Note_off_c, 4, 38, 64
6, 179340, Note_on_c, 4, 38, 75
6, 179420, Note_off_c, 4, 38, 64
6, 179580, Note_on_c, 4, 43, 75
6, 179815, Note_off_c, 4, 43, 64
6, 179880, Note_on_c, 4, 43, 75
6, 180115, Note_off_c, 4, 43, 64
6, 180120, Note_on_c, 4, 43, 75
6, 180355, Note_off_c, 4, 43, 64
6, 180360, Note_on_c, 4, 43, 75
6, 180595, Note_off_c, 4, 43, 64
6, 180600, Note_on_c, 4, 31, 75
6, 180835, Note_off_c, 4, 31, 64
6, 180840, Note_on_c, 4, 31, 75
6, 180920, Note_off_c, 4, 31, 64
6, 181080, Note_on_c, 4, 31, 75
6, 181160, Note_off_c, 4, 31, 64
6, 181320, Note_on_c, 4, 31, 75
6, 181400, Note_off_c, 4, 31, 64
6, 181560, Note_on_c, 4, 33, 75
6, 181795, Note_off_c, 4, 33, 64
6, 181800, Note_on_c, 4, 33, 75
6, 182035, Note_off_c, 4, 33, 64
6, 182040, Note_on_c, 4, 33, 75
6, 182275, Note_off_c, 4, 33, 64
6, 182280, Note_on_c, 4, 33, 75
6, 182515, Note_off_c, 4, 33, 64
6, 182520, Note_on_c, 4, 33, 75
6, 182755, Note_off_c, 4, 33, 64
6, 182760, Note_on_c, 4, 33, 75
6, 182995, Note_off_c, 4, 33, 64
6, 183000, Note_on_c, 4, 33, 75
6, 183235, Note_off_c, 4, 33, 64
6, 183240, Note_on_c, 4, 33, 75
6, 183475, Note_off_c, 4, 33, 64
6, 183480, Note_on_c, 4, 38, 75
6, 183880, Note_off_c, 4, 38, 64
6, 184440, Note_on_c, 4, 26, 75
6, 184840, Note_off_c, 4, 26, 64
6, 185400, Note_on_c, 4, 26, 75
6, 185800, Note_off_c, 4, 26, 64
6, 186360, Note_on_c, 4, 30, 75
6, 186440, Note_off_c, 4, 30, 64
6, 186600, Note_on_c, 4, 30, 75
6, 186835, Note_off_c, 4, 30, 64
6, 186840, Note_on_c, 4, 30, 75
6, 187075, Note_off_c, 4, 30, 64
6, 187080, Note_on_c, 4, 30, 75
6, 187315, Note_off_c, 4, 30, 64
6, 187320, Note_on_c, 4, 31, 75
6, 187720, Note_off_c, 4, 31, 64
6, 188280, Note_on_c, 4, 31, 75
6, 188680, Note_off_c, 4, 31, 64
6, 188760, Note_on_c, 4, 31, 75
6, 189160, Note_off_c, 4, 31, 64
6, 189240, Note_on_c, 4, 33, 75
6, 189475, Note_off_c, 4, 33, 64
6, 189480, Note_on_c, 4, 33, 75
6, 189715, Note_off_c, 4, 33, 64
6, 189720, Note_on_c, 4, 33, 75
6, 189955, Note_off_c, 4, 33, 64
6, 189960, Note_on_c, 4, 33, 75
6, 190195, Note_off_c, 4, 33, 64
6, 190200, Note_on_c, 4, 33, 75
6, 190435, Note_off_c, 4, 33, 64
6, 190440, Note_on_c, 4, 33, 75
6, 190675, Note_off_c, 4, 33, 64
6, 190680, Note_on_c, 4, 33, 75
6, 190915, Note_off_c, 4, 33, 64
6, 190920, Note_on_c, 4, 33, 75
6, 191155, Note_off_c, 4, 33, 64
6, 191160, Note_on_c, 4, 38, 75
6, 191560, Note_off_c, 4, 38, 64
6, 191880, Note_on_c, 4, 33, 81
6, 191960, Note_off_c, 4, 33, 64
6, 192120, Note_on_c, 4, 38, 83
6, 192520, Note_off_c, 4, 38, 64
6, 192840, Note_on_c, 4, 33, 89
6, 192920, Note_off_c, 4, 33, 64
6, 193080, Note_on_c, 4, 38, 92
6, 193315, Note_off_c, 4, 38, 64
6, 193560, Note_on_c, 4, 26, 92
6, 193560, Note_on_c, 4, 38, 92
6, 193960, Note_off_c, 4, 38, 64
6, 193960, Note_off_c, 4, 26, 64
6, 194040, Note_on_c, 4, 26, 92
6, 194040, Note_on_c, 4, 38, 92
6, 194440, Note_off_c, 4, 38, 64
6, 194440, Note_off_c, 4, 26, 64
6, 194440, End_track
7, 0, Start_track
7, 0, MIDI_port, 0
7, 0, Channel_prefix, 5
7, 0, Control_c, 5, 7, 127
7, 0, Control_c, 5, 10, 1
7, 0, Control_c, 5, 91, 127
7, 0, Program_c, 5, 48
7, 0, Note_on_c, 5, 74, 45
7, 80, Note_off_c, 5, 74, 64
7, 480, Note_on_c, 5, 78, 45
7, 560, Note_off_c, 5, 78, 64
7, 960, Note_on_c, 5, 76, 45
7, 1040, Note_off_c, 5, 76, 64
7, 1920, Note_on_c, 5, 79, 45
7, 2000, Note_off_c, 5, 79, 64
7, 2400, Note_on_c, 5, 73, 45
7, 2480, Note_off_c, 5, 73, 64
7, 2880, Note_on_c, 5, 74, 45
7, 2960, Note_off_c, 5, 74, 64
7, 3840, Note_on_c, 5, 81, 92
7, 4800, Note_off_c, 5, 81, 64
7, 4800, Note_on_c, 5, 79, 92
7, 5040, Note_off_c, 5, 79, 64
7, 5040, Note_on_c, 5, 78, 92
7, 5280, Note_off_c, 5, 78, 64
7, 5280, Note_on_c, 5, 76, 92
7, 5520, Note_off_c, 5, 76, 64
7, 5520, Note_on_c, 5, 74, 92
7, 5760, Note_off_c, 5, 74, 64
7, 5760, Note_on_c, 5, 73, 92
7, 6480, Note_off_c, 5, 73, 64
7, 6480, Note_on_c, 5, 74, 92
7, 6600, Note_off_c, 5, 74, 64
7, 6600, Note_on_c, 5, 76, 92
7, 6720, Note_off_c, 5, 76, 64
7, 6720, Note_on_c, 5, 74, 92
7, 7120, Note_off_c, 5, 74, 64
7, 7680, Note_on_c, 5, 81, 92
7, 8640, Note_off_c, 5, 81, 64
7, 8640, Note_on_c, 5, 79, 92
7, 8880, Note_off_c, 5, 79, 64
7, 8880, Note_on_c, 5, 78, 92
7, 9120, Note_off_c, 5, 78, 64
7, 9120, Note_on_c, 5, 76, 92
7, 9360, Note_off_c, 5, 76, 64
7, 9360, Note_on_c, 5, 74, 92
7, 9600, Note_off_c, 5, 74, 64
7, 9600, Note_on_c, 5, 76, 92
7, 10320, Note_off_c, 5, 76, 64
7, 10320, Note_on_c, 5, 78, 92
7, 10440, Note_off_c, 5, 78, 64
7, 10440, Note_on_c, 5, 79, 92
7, 10560, Note_off_c, 5, 79, 64
7, 10560, Note_on_c, 5, 78, 92
7, 10960, Note_off_c, 5, 78, 64
7, 11520, Note_on_c, 5, 83, 92
7, 11920, Note_off_c, 5, 83, 64
7, 12000, Note_on_c, 5, 86, 92
7, 12120, Note_off_c, 5, 86, 64
7, 12120, Note_on_c, 5, 85, 92
7, 12240, Note_off_c, 5, 85, 64
7, 12240, Note_on_c, 5, 83, 92
7, 12360, Note_off_c, 5, 83, 64
7, 12360, Note_on_c, 5, 85, 92
7, 12480, Note_off_c, 5, 85, 64
7, 12480, Note_on_c, 5, 86, 92
7, 12880, Note_off_c, 5, 86, 64
7, 13200, Note_on_c, 5, 74, 92
7, 13280, Note_off_c, 5, 74, 64
7, 13440, Note_on_c, 5, 76, 92
7, 14160, Note_off_c, 5, 76, 64
7, 14160, Note_on_c, 5, 78, 92
7, 14280, Note_off_c, 5, 78, 64
7, 14280, Note_on_c, 5, 79, 92
7, 14400, Note_off_c, 5, 79, 64
7, 14400, Note_on_c, 5, 78, 92
7, 14800, Note_off_c, 5, 78, 64
7, 15360, Note_on_c, 5, 83, 92
7, 15760, Note_off_c, 5, 83, 64
7, 15840, Note_on_c, 5, 86, 92
7, 15960, Note_off_c, 5, 86, 64
7, 15960, Note_on_c, 5, 85, 92
7, 16080, Note_off_c, 5, 85, 64
7, 16080, Note_on_c, 5, 83, 92
7, 16200, Note_off_c, 5, 83, 64
7, 16200, Note_on_c, 5, 85, 92
7, 16320, Note_off_c, 5, 85, 64
7, 16320, Note_on_c, 5, 86, 92
7, 16720, Note_off_c, 5, 86, 64
7, 17040, Note_on_c, 5, 74, 92
7, 17120, Note_off_c, 5, 74, 64
7, 17280, Note_on_c, 5, 76, 92
7, 18000, Note_off_c, 5, 76, 64
7, 18000, Note_on_c, 5, 78, 92
7, 18120, Note_off_c, 5, 78, 64
7, 18120, Note_on_c, 5, 79, 92
7, 18240, Note_off_c, 5, 79, 64
7, 18240, Note_on_c, 5, 78, 92
7, 18640, Note_off_c, 5, 78, 64
7, 19200, Note_on_c, 5, 78, 92
7, 19435, Note_off_c, 5, 78, 64
7, 19680, Note_on_c, 5, 80, 92
7, 19735, Note_off_c, 5, 80, 64
7, 19740, Note_on_c, 5, 81, 92
7, 19800, Note_off_c, 5, 81, 64
7, 19800, Note_on_c, 5, 80, 92
7, 19860, Note_off_c, 5, 80, 64
7, 19860, Note_on_c, 5, 81, 92
7, 19920, Note_off_c, 5, 81, 64
7, 19920, Note_on_c, 5, 80, 92
7, 19980, Note_off_c, 5, 80, 64
7, 19980, Note_on_c, 5, 81, 92
7, 20040, Note_off_c, 5, 81, 64
7, 20040, Note_on_c, 5, 78, 92
7, 20100, Note_off_c, 5, 78, 64
7, 20100, Note_on_c, 5, 80, 92
7, 20160, Note_off_c, 5, 80, 64
7, 20160, Note_on_c, 5, 81, 92
7, 20240, Note_off_c, 5, 81, 64
7, 20400, Note_on_c, 5, 81, 92
7, 20640, Note_off_c, 5, 81, 64
7, 20640, Note_on_c, 5, 83, 92
7, 20880, Note_off_c, 5, 83, 64
7, 20880, Note_on_c, 5, 85, 92
7, 21120, Note_off_c, 5, 85, 64
7, 21120, Note_on_c, 5, 86, 92
7, 21200, Note_off_c, 5, 86, 64
7, 21600, Note_on_c, 5, 85, 92
7, 21680, Note_off_c, 5, 85, 64
7, 22080, Note_on_c, 5, 83, 92
7, 22160, Note_off_c, 5, 83, 64
7, 24300, Note_on_c, 5, 73, 45
7, 24380, Note_off_c, 5, 73, 64
7, 24540, Note_on_c, 5, 74, 45
7, 24620, Note_off_c, 5, 74, 64
7, 24780, Note_on_c, 5, 76, 45
7, 24860, Note_off_c, 5, 76, 64
7, 25020, Note_on_c, 5, 78, 45
7, 25100, Note_off_c, 5, 78, 64
7, 25260, Note_on_c, 5, 80, 45
7, 25340, Note_off_c, 5, 80, 64
7, 25500, Note_on_c, 5, 81, 45
7, 25580, Note_off_c, 5, 81, 64
7, 26220, Note_on_c, 5, 81, 45
7, 26300, Note_off_c, 5, 81, 64
7, 26460, Note_on_c, 5, 80, 45
7, 26540, Note_off_c, 5, 80, 64
7, 26700, Note_on_c, 5, 78, 45
7, 26780, Note_off_c, 5, 78, 64
7, 26940, Note_on_c, 5, 76, 45
7, 27020, Note_off_c, 5, 76, 64
7, 27180, Note_on_c, 5, 74, 45
7, 27260, Note_off_c, 5, 74, 64
7, 27420, Note_on_c, 5, 73, 45
7, 27500, Note_off_c, 5, 73, 64
7, 28140, Note_on_c, 5, 73, 30
7, 28220, Note_off_c, 5, 73, 64
7, 28380, Note_on_c, 5, 74, 30
7, 28460, Note_off_c, 5, 74, 64
7, 28620, Note_on_c, 5, 76, 30
7, 28700, Note_off_c, 5, 76, 64
7, 28860, Note_on_c, 5, 78, 30
7, 28940, Note_off_c, 5, 78, 64
7, 29100, Note_on_c, 5, 80, 30
7, 29180, Note_off_c, 5, 80, 64
7, 29340, Note_on_c, 5, 81, 30
7, 29420, Note_off_c, 5, 81, 64
7, 30060, Note_on_c, 5, 81, 30
7, 30140, Note_off_c, 5, 81, 64
7, 30300, Note_on_c, 5, 80, 30
7, 30380, Note_off_c, 5, 80, 64
7, 30540, Note_on_c, 5, 78, 30
7, 30620, Note_off_c, 5, 78, 64
7, 30780, Note_on_c, 5, 76, 30
7, 30860, Note_off_c, 5, 76, 64
7, 31020, Note_on_c, 5, 74, 30
7, 31100, Note_off_c, 5, 74, 64
7, 31260, Note_on_c, 5, 73, 30
7, 31340, Note_off_c, 5, 73, 64
7, 31980, Note_on_c, 5, 81, 92
7, 32060, Note_off_c, 5, 81, 64
7, 32220, Note_on_c, 5, 83, 92
7, 32300, Note_off_c, 5, 83, 64
7, 32460, Note_on_c, 5, 85, 92
7, 32540, Note_off_c, 5, 85, 64
7, 32700, Note_on_c, 5, 85, 92
7, 32940, Note_off_c, 5, 85, 64
7, 32940, Note_on_c, 5, 86, 92
7, 33175, Note_off_c, 5, 86, 64
7, 33180, Note_on_c, 5, 86, 92
7, 33895, Note_off_c, 5, 86, 64
7, 33900, Note_on_c, 5, 83, 92
7, 33980, Note_off_c, 5, 83, 64
7, 34140, Note_on_c, 5, 81, 92
7, 34260, Note_off_c, 5, 81, 64
7, 34260, Note_on_c, 5, 80, 92
7, 34380, Note_off_c, 5, 80, 64
7, 34380, Note_on_c, 5, 78, 92
7, 34460, Note_off_c, 5, 78, 64
7, 34500, Note_on_c, 5, 76, 92
7, 34580, Note_off_c, 5, 76, 64
7, 34620, Note_on_c, 5, 88, 92
7, 34855, Note_off_c, 5, 88, 64
7, 35160, Note_on_c, 5, 88, 92
7, 35875, Note_off_c, 5, 88, 64
7, 35880, Note_on_c, 5, 81, 92
7, 35960, Note_off_c, 5, 81, 64
7, 36120, Note_on_c, 5, 83, 92
7, 36200, Note_off_c, 5, 83, 64
7, 36360, Note_on_c, 5, 85, 92
7, 36440, Note_off_c, 5, 85, 64
7, 36600, Note_on_c, 5, 85, 92
7, 36840, Note_off_c, 5, 85, 64
7, 36840, Note_on_c, 5, 86, 92
7, 37075, Note_off_c, 5, 86, 64
7, 37080, Note_on_c, 5, 86, 92
7, 37795, Note_off_c, 5, 86, 64
7, 37800, Note_on_c, 5, 83, 92
7, 37880, Note_off_c, 5, 83, 64
7, 38040, Note_on_c, 5, 81, 92
7, 38160, Note_off_c, 5, 81, 64
7, 38160, Note_on_c, 5, 80, 92
7, 38280, Note_off_c, 5, 80, 64
7, 38280, Note_on_c, 5, 78, 92
7, 38400, Note_off_c, 5, 78, 64
7, 38400, Note_on_c, 5, 76, 92
7, 38520, Note_off_c, 5, 76, 64
7, 38520, Note_on_c, 5, 88, 92
7, 38755, Note_off_c, 5, 88, 64
7, 39060, Note_on_c, 5, 88, 92
7, 39775, Note_off_c, 5, 88, 64
7, 39780, Note_on_c, 5, 85, 92
7, 39860, Note_off_c, 5, 85, 64
7, 40020, Note_on_c, 5, 81, 92
7, 40100, Note_off_c, 5, 81, 64
7, 40260, Note_on_c, 5, 76, 92
7, 40340, Note_off_c, 5, 76, 64
7, 40500, Note_on_c, 5, 78, 92
7, 40735, Note_off_c, 5, 78, 64
7, 41040, Note_on_c, 5, 78, 92
7, 41755, Note_off_c, 5, 78, 64
7, 41760, Note_on_c, 5, 74, 92
7, 41840, Note_off_c, 5, 74, 64
7, 42000, Note_on_c, 5, 71, 92
7, 42080, Note_off_c, 5, 71, 64
7, 42240, Note_on_c, 5, 66, 92
7, 42320, Note_off_c, 5, 66, 64
7, 42480, Note_on_c, 5, 64, 92
7, 43320, Note_off_c, 5, 64, 64
7, 43440, Note_on_c, 5, 83, 92
7, 43500, Note_off_c, 5, 83, 64
7, 43500, Note_on_c, 5, 85, 92
7, 43560, Note_off_c, 5, 85, 64
7, 43560, Note_on_c, 5, 83, 92
7, 43620, Note_off_c, 5, 83, 64
7, 43620, Note_on_c, 5, 85, 92
7, 43680, Note_off_c, 5, 85, 64
7, 43680, Note_on_c, 5, 83, 92
7, 43740, Note_off_c, 5, 83, 64
7, 43740, Note_on_c, 5, 85, 92
7, 43800, Note_off_c, 5, 85, 64
7, 43800, Note_on_c, 5, 83, 92
7, 43860, Note_off_c, 5, 83, 64
7, 43860, Note_on_c, 5, 85, 92
7, 43920, Note_off_c, 5, 85, 64
7, 43920, Note_on_c, 5, 83, 92
7, 43980, Note_off_c, 5, 83, 64
7, 43980, Note_on_c, 5, 85, 92
7, 44040, Note_off_c, 5, 85, 64
7, 44040, Note_on_c, 5, 83, 92
7, 44100, Note_off_c, 5, 83, 64
7, 44100, Note_on_c, 5, 85, 92
7, 44160, Note_off_c, 5, 85, 64
7, 44160, Note_on_c, 5, 83, 92
7, 44220, Note_off_c, 5, 83, 64
7, 44220, Note_on_c, 5, 85, 92
7, 44280, Note_off_c, 5, 85, 64
7, 44280, Note_on_c, 5, 83, 92
7, 44340, Note_off_c, 5, 83, 64
7, 44340, Note_on_c, 5, 85, 92
7, 44400, Note_off_c, 5, 85, 64
7, 44400, Note_on_c, 5, 81, 92
7, 44480, Note_off_c, 5, 81, 64
7, 44520, Note_on_c, 5, 69, 92
7, 44600, Note_off_c, 5, 69, 64
7, 44640, Note_on_c, 5, 71, 92
7, 44720, Note_off_c, 5, 71, 64
7, 44760, Note_on_c, 5, 73, 92
7, 44840, Note_off_c, 5, 73, 64
7, 44880, Note_on_c, 5, 74, 92
7, 44960, Note_off_c, 5, 74, 64
7, 45000, Note_on_c, 5, 76, 92
7, 45080, Note_off_c, 5, 76, 64
7, 45120, Note_on_c, 5, 78, 92
7, 45200, Note_off_c, 5, 78, 64
7, 45240, Note_on_c, 5, 80, 92
7, 45320, Note_off_c, 5, 80, 64
7, 45360, Note_on_c, 5, 81, 92
7, 45440, Note_off_c, 5, 81, 64
7, 45480, Note_on_c, 5, 76, 92
7, 45560, Note_off_c, 5, 76, 64
7, 45600, Note_on_c, 5, 78, 92
7, 45680, Note_off_c, 5, 78, 64
7, 45720, Note_on_c, 5, 80, 92
7, 45800, Note_off_c, 5, 80, 64
7, 45840, Note_on_c, 5, 81, 92
7, 45920, Note_off_c, 5, 81, 64
7, 45960, Note_on_c, 5, 83, 92
7, 46040, Note_off_c, 5, 83, 64
7, 46080, Note_on_c, 5, 81, 92
7, 46160, Note_off_c, 5, 81, 64
7, 46200, Note_on_c, 5, 83, 92
7, 46280, Note_off_c, 5, 83, 64
7, 46320, Note_on_c, 5, 85, 92
7, 46400, Note_off_c, 5, 85, 64
7, 46440, Note_on_c, 5, 83, 92
7, 46520, Note_off_c, 5, 83, 64
7, 46560, Note_on_c, 5, 81, 92
7, 46640, Note_off_c, 5, 81, 64
7, 46680, Note_on_c, 5, 83, 92
7, 46760, Note_off_c, 5, 83, 64
7, 46800, Note_on_c, 5, 85, 92
7, 46880, Note_off_c, 5, 85, 64
7, 46920, Note_on_c, 5, 86, 92
7, 47000, Note_off_c, 5, 86, 64
7, 47040, Note_on_c, 5, 85, 92
7, 47120, Note_off_c, 5, 85, 64
7, 47160, Note_on_c, 5, 86, 92
7, 47240, Note_off_c, 5, 86, 64
7, 47280, Note_on_c, 5, 88, 92
7, 47360, Note_off_c, 5, 88, 64
7, 47520, Note_on_c, 5, 85, 92
7, 47760, Note_off_c, 5, 85, 64
7, 47760, Note_on_c, 5, 81, 92
7, 48000, Note_off_c, 5, 81, 64
7, 48000, Note_on_c, 5, 79, 92
7, 48240, Note_off_c, 5, 79, 64
7, 48240, Note_on_c, 5, 78, 92
7, 48475, Note_off_c, 5, 78, 64
7, 48720, Note_on_c, 5, 83, 92
7, 48840, Note_off_c, 5, 83, 64
7, 48840, Note_on_c, 5, 81, 92
7, 48960, Note_off_c, 5, 81, 64
7, 48960, Note_on_c, 5, 80, 92
7, 49040, Note_off_c, 5, 80, 64
7, 49080, Note_on_c, 5, 78, 92
7, 49160, Note_off_c, 5, 78, 64
7, 49200, Note_on_c, 5, 80, 92
7, 49320, Note_off_c, 5, 80, 64
7, 49320, Note_on_c, 5, 78, 92
7, 49440, Note_off_c, 5, 78, 64
7, 49440, Note_on_c, 5, 76, 92
7, 49520, Note_off_c, 5, 76, 64
7, 49560, Note_on_c, 5, 74, 92
7, 49640, Note_off_c, 5, 74, 64
7, 49680, Note_on_c, 5, 76, 92
7, 49800, Note_off_c, 5, 76, 64
7, 49800, Note_on_c, 5, 74, 92
7, 49920, Note_off_c, 5, 74, 64
7, 49920, Note_on_c, 5, 73, 92
7, 50000, Note_off_c, 5, 73, 64
7, 50040, Note_on_c, 5, 71, 92
7, 50120, Note_off_c, 5, 71, 64
7, 50160, Note_on_c, 5, 69, 92
7, 51000, Note_off_c, 5, 69, 64
7, 51120, Note_on_c, 5, 71, 92
7, 51180, Note_off_c, 5, 71, 64
7, 51180, Note_on_c, 5, 73, 92
7, 51240, Note_off_c, 5, 73, 64
7, 51240, Note_on_c, 5, 71, 92
7, 51300, Note_off_c, 5, 71, 64
7, 51300, Note_on_c, 5, 73, 92
7, 51360, Note_off_c, 5, 73, 64
7, 51360, Note_on_c, 5, 71, 92
7, 51420, Note_off_c, 5, 71, 64
7, 51420, Note_on_c, 5, 73, 92
7, 51480, Note_off_c, 5, 73, 64
7, 51480, Note_on_c, 5, 71, 92
7, 51540, Note_off_c, 5, 71, 64
7, 51540, Note_on_c, 5, 73, 92
7, 51600, Note_off_c, 5, 73, 64
7, 51600, Note_on_c, 5, 71, 92
7, 51660, Note_off_c, 5, 71, 64
7, 51660, Note_on_c, 5, 73, 92
7, 51720, Note_off_c, 5, 73, 64
7, 51720, Note_on_c, 5, 71, 92
7, 51780, Note_off_c, 5, 71, 64
7, 51780, Note_on_c, 5, 73, 92
7, 51840, Note_off_c, 5, 73, 64
7, 51840, Note_on_c, 5, 71, 92
7, 51900, Note_off_c, 5, 71, 64
7, 51900, Note_on_c, 5, 73, 92
7, 51960, Note_off_c, 5, 73, 64
7, 51960, Note_on_c, 5, 71, 92
7, 52020, Note_off_c, 5, 71, 64
7, 52020, Note_on_c, 5, 73, 92
7, 52080, Note_off_c, 5, 73, 64
7, 52080, Note_on_c, 5, 69, 92
7, 52160, Note_off_c, 5, 69, 64
7, 52320, Note_on_c, 5, 76, 92
7, 52560, Note_off_c, 5, 76, 64
7, 52560, Note_on_c, 5, 74, 92
7, 52640, Note_off_c, 5, 74, 64
7, 52800, Note_on_c, 5, 71, 92
7, 52800, Note_on_c, 5, 80, 92
7, 52880, Note_off_c, 5, 80, 64
7, 52880, Note_off_c, 5, 71, 64
7, 53040, Note_on_c, 5, 69, 92
7, 53040, Note_on_c, 5, 81, 92
7, 53120, Note_off_c, 5, 81, 64
7, 53120, Note_off_c, 5, 69, 64
7, 53280, Note_on_c, 5, 76, 92
7, 53520, Note_off_c, 5, 76, 64
7, 53520, Note_on_c, 5, 74, 92
7, 53600, Note_off_c, 5, 74, 64
7, 53760, Note_on_c, 5, 71, 92
7, 53760, Note_on_c, 5, 80, 92
7, 53840, Note_off_c, 5, 80, 64
7, 53840, Note_off_c, 5, 71, 64
7, 54000, Note_on_c, 5, 69, 92
7, 54000, Note_on_c, 5, 81, 92
7, 54235, Note_off_c, 5, 81, 64
7, 54235, Note_off_c, 5, 69, 64
7, 54480, Note_on_c, 5, 61, 92
7, 54480, Note_on_c, 5, 69, 92
7, 54715, Note_off_c, 5, 69, 64
7, 54715, Note_off_c, 5, 61, 64
7, 54960, Note_on_c, 5, 61, 92
7, 54960, Note_on_c, 5, 69, 92
7, 55360, Note_off_c, 5, 69, 64
7, 55360, Note_off_c, 5, 61, 64
7, 56040, Note_on_c, 5, 74, 45
7, 56120, Note_off_c, 5, 74, 64
7, 56520, Note_on_c, 5, 78, 45
7, 56600, Note_off_c, 5, 78, 64
7, 57000, Note_on_c, 5, 76, 45
7, 57080, Note_off_c, 5, 76, 64
7, 57960, Note_on_c, 5, 79, 45
7, 58040, Note_off_c, 5, 79, 64
7, 58440, Note_on_c, 5, 73, 45
7, 58520, Note_off_c, 5, 73, 64
7, 58920, Note_on_c, 5, 74, 45
7, 59000, Note_off_c, 5, 74, 64
7, 59880, Note_on_c, 5, 81, 92
7, 60840, Note_off_c, 5, 81, 64
7, 60840, Note_on_c, 5, 79, 92
7, 61080, Note_off_c, 5, 79, 64
7, 61080, Note_on_c, 5, 78, 92
7, 61320, Note_off_c, 5, 78, 64
7, 61320, Note_on_c, 5, 76, 92
7, 61560, Note_off_c, 5, 76, 64
7, 61560, Note_on_c, 5, 74, 92
7, 61800, Note_off_c, 5, 74, 64
7, 61800, Note_on_c, 5, 73, 92
7, 62520, Note_off_c, 5, 73, 64
7, 62520, Note_on_c, 5, 74, 92
7, 62640, Note_off_c, 5, 74, 64
7, 62640, Note_on_c, 5, 76, 92
7, 62760, Note_off_c, 5, 76, 64
7, 62760, Note_on_c, 5, 74, 92
7, 63160, Note_off_c, 5, 74, 64
7, 63720, Note_on_c, 5, 81, 92
7, 64680, Note_off_c, 5, 81, 64
7, 64680, Note_on_c, 5, 79, 92
7, 64920, Note_off_c, 5, 79, 64
7, 64920, Note_on_c, 5, 78, 92
7, 65160, Note_off_c, 5, 78, 64
7, 65160, Note_on_c, 5, 76, 92
7, 65400, Note_off_c, 5, 76, 64
7, 65400, Note_on_c, 5, 74, 92
7, 65640, Note_off_c, 5, 74, 64
7, 65640, Note_on_c, 5, 76, 92
7, 66360, Note_off_c, 5, 76, 64
7, 66360, Note_on_c, 5, 78, 92
7, 66480, Note_off_c, 5, 78, 64
7, 66480, Note_on_c, 5, 79, 92
7, 66600, Note_off_c, 5, 79, 64
7, 66600, Note_on_c, 5, 78, 92
7, 67000, Note_off_c, 5, 78, 64
7, 67560, Note_on_c, 5, 83, 92
7, 67960, Note_off_c, 5, 83, 64
7, 68040, Note_on_c, 5, 86, 92
7, 68160, Note_off_c, 5, 86, 64
7, 68160, Note_on_c, 5, 85, 92
7, 68280, Note_off_c, 5, 85, 64
7, 68280, Note_on_c, 5, 83, 92
7, 68400, Note_off_c, 5, 83, 64
7, 68400, Note_on_c, 5, 85, 92
7, 68520, Note_off_c, 5, 85, 64
7, 68520, Note_on_c, 5, 86, 92
7, 68920, Note_off_c, 5, 86, 64
7, 69240, Note_on_c, 5, 74, 92
7, 69320, Note_off_c, 5, 74, 64
7, 69480, Note_on_c, 5, 76, 92
7, 70200, Note_off_c, 5, 76, 64
7, 70200, Note_on_c, 5, 78, 92
7, 70320, Note_off_c, 5, 78, 64
7, 70320, Note_on_c, 5, 79, 92
7, 70440, Note_off_c, 5, 79, 64
7, 70440, Note_on_c, 5, 78, 92
7, 70840, Note_off_c, 5, 78, 64
7, 71400, Note_on_c, 5, 83, 92
7, 71800, Note_off_c, 5, 83, 64
7, 71880, Note_on_c, 5, 86, 92
7, 72000, Note_off_c, 5, 86, 64
7, 72000, Note_on_c, 5, 85, 92
7, 72120, Note_off_c, 5, 85, 64
7, 72120, Note_on_c, 5, 83, 92
7, 72240, Note_off_c, 5, 83, 64
7, 72240, Note_on_c, 5, 85, 92
7, 72360, Note_off_c, 5, 85, 64
7, 72360, Note_on_c, 5, 86, 92
7, 72760, Note_off_c, 5, 86, 64
7, 73080, Note_on_c, 5, 74, 92
7, 73160, Note_off_c, 5, 74, 64
7, 73320, Note_on_c, 5, 76, 92
7, 74040, Note_off_c, 5, 76, 64
7, 74040, Note_on_c, 5, 78, 92
7, 74160, Note_off_c, 5, 78, 64
7, 74160, Note_on_c, 5, 79, 92
7, 74280, Note_off_c, 5, 79, 64
7, 74280, Note_on_c, 5, 78, 92
7, 74680, Note_off_c, 5, 78, 64
7, 75240, Note_on_c, 5, 78, 92
7, 75475, Note_off_c, 5, 78, 64
7, 75720, Note_on_c, 5, 80, 92
7, 75775, Note_off_c, 5, 80, 64
7, 75780, Note_on_c, 5, 81, 92
7, 75840, Note_off_c, 5, 81, 64
7, 75840, Note_on_c, 5, 80, 92
7, 75900, Note_off_c, 5, 80, 64
7, 75900, Note_on_c, 5, 81, 92
7, 75960, Note_off_c, 5, 81, 64
7, 75960, Note_on_c, 5, 80, 92
7, 76020, Note_off_c, 5, 80, 64
7, 76020, Note_on_c, 5, 81, 92
7, 76080, Note_off_c, 5, 81, 64
7, 76080, Note_on_c, 5, 78, 92
7, 76140, Note_off_c, 5, 78, 64
7, 76140, Note_on_c, 5, 80, 92
7, 76200, Note_off_c, 5, 80, 64
7, 76200, Note_on_c, 5, 81, 92
7, 76280, Note_off_c, 5, 81, 64
7, 76440, Note_on_c, 5, 81, 92
7, 76680, Note_off_c, 5, 81, 64
7, 76680, Note_on_c, 5, 83, 92
7, 76920, Note_off_c, 5, 83, 64
7, 76920, Note_on_c, 5, 85, 92
7, 77160, Note_off_c, 5, 85, 64
7, 77160, Note_on_c, 5, 86, 92
7, 77240, Note_off_c, 5, 86, 64
7, 77640, Note_on_c, 5, 85, 92
7, 77720, Note_off_c, 5, 85, 64
7, 78120, Note_on_c, 5, 83, 92
7, 78200, Note_off_c, 5, 83, 64
7, 80340, Note_on_c, 5, 73, 45
7, 80420, Note_off_c, 5, 73, 64
7, 80580, Note_on_c, 5, 74, 45
7, 80660, Note_off_c, 5, 74, 64
7, 80820, Note_on_c, 5, 76, 45
7, 80900, Note_off_c, 5, 76, 64
7, 81060, Note_on_c, 5, 78, 45
7, 81140, Note_off_c, 5, 78, 64
7, 81300, Note_on_c, 5, 80, 45
7, 81380, Note_off_c, 5, 80, 64
7, 81540, Note_on_c, 5, 81, 45
7, 81620, Note_off_c, 5, 81, 64
7, 82260, Note_on_c, 5, 81, 45
7, 82340, Note_off_c, 5, 81, 64
7, 82500, Note_on_c, 5, 80, 45
7, 82580, Note_off_c, 5, 80, 64
7, 82740, Note_on_c, 5, 78, 45
7, 82820, Note_off_c, 5, 78, 64
7, 82980, Note_on_c, 5, 76, 45
7, 83060, Note_off_c, 5, 76, 64
7, 83220, Note_on_c, 5, 74, 45
7, 83300, Note_off_c, 5, 74, 64
7, 83460, Note_on_c, 5, 73, 45
7, 83540, Note_off_c, 5, 73, 64
7, 84180, Note_on_c, 5, 73, 30
7, 84260, Note_off_c, 5, 73, 64
7, 84420, Note_on_c, 5, 74, 30
7, 84500, Note_off_c, 5, 74, 64
7, 84660, Note_on_c, 5, 76, 30
7, 84740, Note_off_c, 5, 76, 64
7, 84900, Note_on_c, 5, 78, 30
7, 84980, Note_off_c, 5, 78, 64
7, 85140, Note_on_c, 5, 80, 30
7, 85220, Note_off_c, 5, 80, 64
7, 85380, Note_on_c, 5, 81, 30
7, 85460, Note_off_c, 5, 81, 64
7, 86100, Note_on_c, 5, 81, 30
7, 86180, Note_off_c, 5, 81, 64
7, 86340, Note_on_c, 5, 80, 30
7, 86420, Note_off_c, 5, 80, 64
7, 86580, Note_on_c, 5, 78, 30
7, 86660, Note_off_c, 5, 78, 64
7, 86820, Note_on_c, 5, 76, 30
7, 86900, Note_off_c, 5, 76, 64
7, 87060, Note_on_c, 5, 74, 30
7, 87140, Note_off_c, 5, 74, 64
7, 87300, Note_on_c, 5, 73, 30
7, 87380, Note_off_c, 5, 73, 64
7, 88020, Note_on_c, 5, 81, 92
7, 88100, Note_off_c, 5, 81, 64
7, 88260, Note_on_c, 5, 83, 92
7, 88340, Note_off_c, 5, 83, 64
7, 88500, Note_on_c, 5, 85, 92
7, 88580, Note_off_c, 5, 85, 64
7, 88740, Note_on_c, 5, 85, 92
7, 88980, Note_off_c, 5, 85, 64
7, 88980, Note_on_c, 5, 86, 92
7, 89215, Note_off_c, 5, 86, 64
7, 89220, Note_on_c, 5, 86, 92
7, 89935, Note_off_c, 5, 86, 64
7, 89940, Note_on_c, 5, 83, 92
7, 90020, Note_off_c, 5, 83, 64
7, 90180, Note_on_c, 5, 81, 92
7, 90300, Note_off_c, 5, 81, 64
7, 90300, Note_on_c, 5, 80, 92
7, 90420, Note_off_c, 5, 80, 64
7, 90420, Note_on_c, 5, 78, 92
7, 90500, Note_off_c, 5, 78, 64
7, 90540, Note_on_c, 5, 76, 92
7, 90620, Note_off_c, 5, 76, 64
7, 90660, Note_on_c, 5, 88, 92
7, 90895, Note_off_c, 5, 88, 64
7, 91200, Note_on_c, 5, 88, 92
7, 91915, Note_off_c, 5, 88, 64
7, 91920, Note_on_c, 5, 81, 92
7, 92000, Note_off_c, 5, 81, 64
7, 92160, Note_on_c, 5, 83, 92
7, 92240, Note_off_c, 5, 83, 64
7, 92400, Note_on_c, 5, 85, 92
7, 92480, Note_off_c, 5, 85, 64
7, 92640, Note_on_c, 5, 85, 92
7, 92880, Note_off_c, 5, 85, 64
7, 92880, Note_on_c, 5, 86, 92
7, 93115, Note_off_c, 5, 86, 64
7, 93120, Note_on_c, 5, 86, 92
7, 93835, Note_off_c, 5, 86, 64
7, 93840, Note_on_c, 5, 83, 92
7, 93920, Note_off_c, 5, 83, 64
7, 94080, Note_on_c, 5, 81, 92
7, 94200, Note_off_c, 5, 81, 64
7, 94200, Note_on_c, 5, 80, 92
7, 94320, Note_off_c, 5, 80, 64
7, 94320, Note_on_c, 5, 78, 92
7, 94440, Note_off_c, 5, 78, 64
7, 94440, Note_on_c, 5, 76, 92
7, 94560, Note_off_c, 5, 76, 64
7, 94560, Note_on_c, 5, 88, 92
7, 94795, Note_off_c, 5, 88, 64
7, 95100, Note_on_c, 5, 88, 92
7, 95815, Note_off_c, 5, 88, 64
7, 95820, Note_on_c, 5, 85, 92
7, 95900, Note_off_c, 5, 85, 64
7, 96060, Note_on_c, 5, 81, 92
7, 96140, Note_off_c, 5, 81, 64
7, 96300, Note_on_c, 5, 76, 92
7, 96380, Note_off_c, 5, 76, 64
7, 96540, Note_on_c, 5, 78, 92
7, 96775, Note_off_c, 5, 78, 64
7, 97080, Note_on_c, 5, 78, 92
7, 97795, Note_off_c, 5, 78, 64
7, 97800, Note_on_c, 5, 74, 92
7, 97880, Note_off_c, 5, 74, 64
7, 98040, Note_on_c, 5, 71, 92
7, 98120, Note_off_c, 5, 71, 64
7, 98280, Note_on_c, 5, 66, 92
7, 98360, Note_off_c, 5, 66, 64
7, 98520, Note_on_c, 5, 64, 92
7, 99360, Note_off_c, 5, 64, 64
7, 99480, Note_on_c, 5, 83, 92
7, 99540, Note_off_c, 5, 83, 64
7, 99540, Note_on_c, 5, 85, 92
7, 99600, Note_off_c, 5, 85, 64
7, 99600, Note_on_c, 5, 83, 92
7, 99660, Note_off_c, 5, 83, 64
7, 99660, Note_on_c, 5, 85, 92
7, 99720, Note_off_c, 5, 85, 64
7, 99720, Note_on_c, 5, 83, 92
7, 99780, Note_off_c, 5, 83, 64
7, 99780, Note_on_c, 5, 85, 92
7, 99840, Note_off_c, 5, 85, 64
7, 99840, Note_on_c, 5, 83, 92
7, 99900, Note_off_c, 5, 83, 64
7, 99900, Note_on_c, 5, 85, 92
7, 99960, Note_off_c, 5, 85, 64
7, 99960, Note_on_c, 5, 83, 92
7, 100020, Note_off_c, 5, 83, 64
7, 100020, Note_on_c, 5, 85, 92
7, 100080, Note_off_c, 5, 85, 64
7, 100080, Note_on_c, 5, 83, 92
7, 100140, Note_off_c, 5, 83, 64
7, 100140, Note_on_c, 5, 85, 92
7, 100200, Note_off_c, 5, 85, 64
7, 100200, Note_on_c, 5, 83, 92
7, 100260, Note_off_c, 5, 83, 64
7, 100260, Note_on_c, 5, 85, 92
7, 100320, Note_off_c, 5, 85, 64
7, 100320, Note_on_c, 5, 83, 92
7, 100380, Note_off_c, 5, 83, 64
7, 100380, Note_on_c, 5, 85, 92
7, 100440, Note_off_c, 5, 85, 64
7, 100440, Note_on_c, 5, 81, 92
7, 100520, Note_off_c, 5, 81, 64
7, 100560, Note_on_c, 5, 69, 92
7, 100640, Note_off_c, 5, 69, 64
7, 100680, Note_on_c, 5, 71, 92
7, 100760, Note_off_c, 5, 71, 64
7, 100800, Note_on_c, 5, 73, 92
7, 100880, Note_off_c, 5, 73, 64
7, 100920, Note_on_c, 5, 74, 92
7, 101000, Note_off_c, 5, 74, 64
7, 101040, Note_on_c, 5, 76, 92
7, 101120, Note_off_c, 5, 76, 64
7, 101160, Note_on_c, 5, 78, 92
7, 101240, Note_off_c, 5, 78, 64
7, 101280, Note_on_c, 5, 80, 92
7, 101360, Note_off_c, 5, 80, 64
7, 101400, Note_on_c, 5, 81, 92
7, 101480, Note_off_c, 5, 81, 64
7, 101520, Note_on_c, 5, 76, 92
7, 101600, Note_off_c, 5, 76, 64
7, 101640, Note_on_c, 5, 78, 92
7, 101720, Note_off_c, 5, 78, 64
7, 101760, Note_on_c, 5, 80, 92
7, 101840, Note_off_c, 5, 80, 64
7, 101880, Note_on_c, 5, 81, 92
7, 101960, Note_off_c, 5, 81, 64
7, 102000, Note_on_c, 5, 83, 92
7, 102080, Note_off_c, 5, 83, 64
7, 102120, Note_on_c, 5, 81, 92
7, 102200, Note_off_c, 5, 81, 64
7, 102240, Note_on_c, 5, 83, 92
7, 102320, Note_off_c, 5, 83, 64
7, 102360, Note_on_c, 5, 85, 92
7, 102440, Note_off_c, 5, 85, 64
7, 102480, Note_on_c, 5, 83, 92
7, 102560, Note_off_c, 5, 83, 64
7, 102600, Note_on_c, 5, 81, 92
7, 102680, Note_off_c, 5, 81, 64
7, 102720, Note_on_c, 5, 83, 92
7, 102800, Note_off_c, 5, 83, 64
7, 102840, Note_on_c, 5, 85, 92
7, 102920, Note_off_c, 5, 85, 64
7, 102960, Note_on_c, 5, 86, 92
7, 103040, Note_off_c, 5, 86, 64
7, 103080, Note_on_c, 5, 85, 92
7, 103160, Note_off_c, 5, 85, 64
7, 103200, Note_on_c, 5, 86, 92
7, 103280, Note_off_c, 5, 86, 64
7, 103320, Note_on_c, 5, 88, 92
7, 103400, Note_off_c, 5, 88, 64
7, 103560, Note_on_c, 5, 85, 92
7, 103800, Note_off_c, 5, 85, 64
7, 103800, Note_on_c, 5, 81, 92
7, 104040, Note_off_c, 5, 81, 64
7, 104040, Note_on_c, 5, 79, 92
7, 104280, Note_off_c, 5, 79, 64
7, 104280, Note_on_c, 5, 78, 92
7, 104515, Note_off_c, 5, 78, 64
7, 104760, Note_on_c, 5, 83, 92
7, 104880, Note_off_c, 5, 83, 64
7, 104880, Note_on_c, 5, 81, 92
7, 105000, Note_off_c, 5, 81, 64
7, 105000, Note_on_c, 5, 80, 92
7, 105080, Note_off_c, 5, 80, 64
7, 105120, Note_on_c, 5, 78, 92
7, 105200, Note_off_c, 5, 78, 64
7, 105240, Note_on_c, 5, 80, 92
7, 105360, Note_off_c, 5, 80, 64
7, 105360, Note_on_c, 5, 78, 92
7, 105480, Note_off_c, 5, 78, 64
7, 105480, Note_on_c, 5, 76, 92
7, 105560, Note_off_c, 5, 76, 64
7, 105600, Note_on_c, 5, 74, 92
7, 105680, Note_off_c, 5, 74, 64
7, 105720, Note_on_c, 5, 76, 92
7, 105840, Note_off_c, 5, 76, 64
7, 105840, Note_on_c, 5, 74, 92
7, 105960, Note_off_c, 5, 74, 64
7, 105960, Note_on_c, 5, 73, 92
7, 106040, Note_off_c, 5, 73, 64
7, 106080, Note_on_c, 5, 71, 92
7, 106160, Note_off_c, 5, 71, 64
7, 106200, Note_on_c, 5, 69, 92
7, 107040, Note_off_c, 5, 69, 64
7, 107160, Note_on_c, 5, 71, 92
7, 107220, Note_off_c, 5, 71, 64
7, 107220, Note_on_c, 5, 73, 92
7, 107280, Note_off_c, 5, 73, 64
7, 107280, Note_on_c, 5, 71, 92
7, 107340, Note_off_c, 5, 71, 64
7, 107340, Note_on_c, 5, 73, 92
7, 107400, Note_off_c, 5, 73, 64
7, 107400, Note_on_c, 5, 71, 92
7, 107460, Note_off_c, 5, 71, 64
7, 107460, Note_on_c, 5, 73, 92
7, 107520, Note_off_c, 5, 73, 64
7, 107520, Note_on_c, 5, 71, 92
7, 107580, Note_off_c, 5, 71, 64
7, 107580, Note_on_c, 5, 73, 92
7, 107640, Note_off_c, 5, 73, 64
7, 107640, Note_on_c, 5, 71, 92
7, 107700, Note_off_c, 5, 71, 64
7, 107700, Note_on_c, 5, 73, 92
7, 107760, Note_off_c, 5, 73, 64
7, 107760, Note_on_c, 5, 71, 92
7, 107820, Note_off_c, 5, 71, 64
7, 107820, Note_on_c, 5, 73, 92
7, 107880, Note_off_c, 5, 73, 64
7, 107880, Note_on_c, 5, 71, 92
7, 107940, Note_off_c, 5, 71, 64
7, 107940, Note_on_c, 5, 73, 92
7, 108000, Note_off_c, 5, 73, 64
7, 108000, Note_on_c, 5, 71, 92
7, 108060, Note_off_c, 5, 71, 64
7, 108060, Note_on_c, 5, 73, 92
7, 108120, Note_off_c, 5, 73, 64
7, 108120, Note_on_c, 5, 69, 92
7, 108200, Note_off_c, 5, 69, 64
7, 108360, Note_on_c, 5, 76, 92
7, 108600, Note_off_c, 5, 76, 64
7, 108600, Note_on_c, 5, 74, 92
7, 108680, Note_off_c, 5, 74, 64
7, 108840, Note_on_c, 5, 71, 92
7, 108840, Note_on_c, 5, 80, 92
7, 108920, Note_off_c, 5, 80, 64
7, 108920, Note_off_c, 5, 71, 64
7, 109080, Note_on_c, 5, 69, 92
7, 109080, Note_on_c, 5, 81, 92
7, 109160, Note_off_c, 5, 81, 64
7, 109160, Note_off_c, 5, 69, 64
7, 109320, Note_on_c, 5, 76, 92
7, 109560, Note_off_c, 5, 76, 64
7, 109560, Note_on_c, 5, 74, 92
7, 109640, Note_off_c, 5, 74, 64
7, 109800, Note_on_c, 5, 71, 92
7, 109800, Note_on_c, 5, 80, 92
7, 109880, Note_off_c, 5, 80, 64
7, 109880, Note_off_c, 5, 71, 64
7, 110040, Note_on_c, 5, 69, 92
7, 110040, Note_on_c, 5, 81, 92
7, 110275, Note_off_c, 5, 81, 64
7, 110275, Note_off_c, 5, 69, 64
7, 110520, Note_on_c, 5, 61, 92
7, 110520, Note_on_c, 5, 69, 92
7, 110755, Note_off_c, 5, 69, 64
7, 110755, Note_off_c, 5, 61, 64
7, 111000, Note_on_c, 5, 61, 92
7, 111000, Note_on_c, 5, 69, 92
7, 111400, Note_off_c, 5, 69, 64
7, 111400, Note_off_c, 5, 61, 64
7, 114000, Note_on_c, 5, 81, 92
7, 114640, Note_off_c, 5, 81, 64
7, 114720, Note_on_c, 5, 81, 92
7, 114800, Note_off_c, 5, 81, 64
7, 114960, Note_on_c, 5, 79, 92
7, 115040, Note_off_c, 5, 79, 64
7, 115200, Note_on_c, 5, 78, 92
7, 115280, Note_off_c, 5, 78, 64
7, 115440, Note_on_c, 5, 79, 92
7, 115520, Note_off_c, 5, 79, 64
7, 115680, Note_on_c, 5, 76, 92
7, 115760, Note_off_c, 5, 76, 64
7, 115920, Note_on_c, 5, 78, 92
7, 116000, Note_off_c, 5, 78, 64
7, 116160, Note_on_c, 5, 79, 92
7, 116240, Note_off_c, 5, 79, 64
7, 116400, Note_on_c, 5, 81, 92
7, 116480, Note_off_c, 5, 81, 64
7, 116640, Note_on_c, 5, 79, 92
7, 116720, Note_off_c, 5, 79, 64
7, 116880, Note_on_c, 5, 78, 92
7, 117600, Note_off_c, 5, 78, 64
7, 117600, Note_on_c, 5, 79, 92
7, 117720, Note_off_c, 5, 79, 64
7, 117720, Note_on_c, 5, 81, 92
7, 117835, Note_off_c, 5, 81, 64
7, 117840, Note_on_c, 5, 79, 75
7, 117900, Note_off_c, 5, 79, 64
7, 117900, Note_on_c, 5, 81, 75
7, 117960, Note_off_c, 5, 81, 64
7, 117960, Note_on_c, 5, 79, 75
7, 118020, Note_off_c, 5, 79, 64
7, 118020, Note_on_c, 5, 81, 75
7, 118080, Note_off_c, 5, 81, 64
7, 118080, Note_on_c, 5, 79, 75
7, 118140, Note_off_c, 5, 79, 64
7, 118140, Note_on_c, 5, 81, 75
7, 118200, Note_off_c, 5, 81, 64
7, 118200, Note_on_c, 5, 79, 75
7, 118260, Note_off_c, 5, 79, 64
7, 118260, Note_on_c, 5, 81, 75
7, 118320, Note_off_c, 5, 81, 64
7, 118320, Note_on_c, 5, 79, 75
7, 118380, Note_off_c, 5, 79, 64
7, 118380, Note_on_c, 5, 81, 75
7, 118440, Note_off_c, 5, 81, 64
7, 118440, Note_on_c, 5, 79, 75
7, 118500, Note_off_c, 5, 79, 64
7, 118500, Note_on_c, 5, 81, 75
7, 118560, Note_off_c, 5, 81, 64
7, 118560, Note_on_c, 5, 78, 75
7, 118680, Note_off_c, 5, 78, 64
7, 118680, Note_on_c, 5, 79, 75
7, 118800, Note_off_c, 5, 79, 64
7, 118800, Note_on_c, 5, 72, 92
7, 119200, Note_off_c, 5, 72, 64
7, 119280, Note_on_c, 5, 84, 92
7, 119760, Note_off_c, 5, 84, 64
7, 119760, Note_on_c, 5, 83, 92
7, 119995, Note_off_c, 5, 83, 64
7, 120240, Note_on_c, 5, 76, 92
7, 121120, Note_off_c, 5, 76, 64
7, 121200, Note_on_c, 5, 75, 92
7, 121600, Note_off_c, 5, 75, 64
7, 121680, Note_on_c, 5, 76, 92
7, 122400, Note_off_c, 5, 76, 64
7, 122400, Note_on_c, 5, 79, 92
7, 122640, Note_off_c, 5, 79, 64
7, 122640, Note_on_c, 5, 70, 92
7, 122875, Note_off_c, 5, 70, 64
7, 123120, Note_on_c, 5, 66, 92
7, 123600, Note_off_c, 5, 66, 64
7, 123600, Note_on_c, 5, 68, 92
7, 124080, Note_off_c, 5, 68, 64
7, 124080, Note_on_c, 5, 70, 92
7, 124560, Note_off_c, 5, 70, 64
7, 124560, Note_on_c, 5, 71, 92
7, 124960, Note_off_c, 5, 71, 64
7, 128400, Note_on_c, 5, 69, 92
7, 129040, Note_off_c, 5, 69, 64
7, 129120, Note_on_c, 5, 69, 92
7, 129200, Note_off_c, 5, 69, 64
7, 129360, Note_on_c, 5, 67, 92
7, 129440, Note_off_c, 5, 67, 64
7, 129600, Note_on_c, 5, 66, 92
7, 129680, Note_off_c, 5, 66, 64
7, 129840, Note_on_c, 5, 67, 92
7, 129920, Note_off_c, 5, 67, 64
7, 130080, Note_on_c, 5, 64, 92
7, 130160, Note_off_c, 5, 64, 64
7, 130320, Note_on_c, 5, 66, 92
7, 130400, Note_off_c, 5, 66, 64
7, 130560, Note_on_c, 5, 64, 92
7, 130640, Note_off_c, 5, 64, 64
7, 130800, Note_on_c, 5, 66, 92
7, 130880, Note_off_c, 5, 66, 64
7, 131040, Note_on_c, 5, 62, 92
7, 131120, Note_off_c, 5, 62, 64
7, 131280, Note_on_c, 5, 64, 92
7, 131360, Note_off_c, 5, 64, 64
7, 131520, Note_on_c, 5, 62, 92
7, 131600, Note_off_c, 5, 62, 64
7, 131760, Note_on_c, 5, 64, 92
7, 131840, Note_off_c, 5, 64, 64
7, 132000, Note_on_c, 5, 61, 92
7, 132080, Note_off_c, 5, 61, 64
7, 132240, Note_on_c, 5, 62, 92
7, 132320, Note_off_c, 5, 62, 64
7, 132480, Note_on_c, 5, 59, 92
7, 132560, Note_off_c, 5, 59, 64
7, 132720, Note_on_c, 5, 64, 92
7, 132800, Note_off_c, 5, 64, 64
7, 132960, Note_on_c, 5, 62, 92
7, 133040, Note_off_c, 5, 62, 64
7, 133200, Note_on_c, 5, 61, 92
7, 133280, Note_off_c, 5, 61, 64
7, 133440, Note_on_c, 5, 57, 92
7, 133520, Note_off_c, 5, 57, 64
7, 133680, Note_on_c, 5, 62, 92
7, 134560, Note_off_c, 5, 62, 64
7, 134640, Note_on_c, 5, 61, 92
7, 135040, Note_off_c, 5, 61, 64
7, 135120, Note_on_c, 5, 62, 92
7, 135120, Note_on_c, 5, 74, 92
7, 135120, Note_on_c, 5, 86, 92
7, 135520, Note_off_c, 5, 86, 64
7, 135520, Note_off_c, 5, 74, 64
7, 135520, Note_off_c, 5, 62, 64
7, 136140, Note_on_c, 5, 74, 92
7, 136140, Note_on_c, 5, 77, 92
7, 136540, Note_off_c, 5, 77, 64
7, 136540, Note_off_c, 5, 74, 64
7, 137160, Note_on_c, 5, 69, 92
7, 137160, Note_on_c, 5, 76, 92
7, 137560, Note_off_c, 5, 76, 64
7, 137560, Note_off_c, 5, 69, 64
7, 139080, Note_on_c, 5, 74, 45
7, 139160, Note_off_c, 5, 74, 64
7, 139560, Note_on_c, 5, 78, 45
7, 139640, Note_off_c, 5, 78, 64
7, 140040, Note_on_c, 5, 76, 45
7, 140120, Note_off_c, 5, 76, 64
7, 141000, Note_on_c, 5, 79, 45
7, 141080, Note_off_c, 5, 79, 64
7, 141480, Note_on_c, 5, 73, 45
7, 141560, Note_off_c, 5, 73, 64
7, 141960, Note_on_c, 5, 74, 45
7, 142040, Note_off_c, 5, 74, 64
7, 142980, Note_on_c, 5, 81, 92
7, 143940, Note_off_c, 5, 81, 64
7, 143940, Note_on_c, 5, 79, 92
7, 144180, Note_off_c, 5, 79, 64
7, 144180, Note_on_c, 5, 78, 92
7, 144420, Note_off_c, 5, 78, 64
7, 144420, Note_on_c, 5, 76, 92
7, 144660, Note_off_c, 5, 76, 64
7, 144660, Note_on_c, 5, 74, 92
7, 144900, Note_off_c, 5, 74, 64
7, 144900, Note_on_c, 5, 73, 92
7, 145620, Note_off_c, 5, 73, 64
7, 145620, Note_on_c, 5, 74, 92
7, 145740, Note_off_c, 5, 74, 64
7, 145740, Note_on_c, 5, 76, 92
7, 145860, Note_off_c, 5, 76, 64
7, 145860, Note_on_c, 5, 74, 92
7, 146260, Note_off_c, 5, 74, 64
7, 146820, Note_on_c, 5, 81, 92
7, 147780, Note_off_c, 5, 81, 64
7, 147780, Note_on_c, 5, 79, 92
7, 148020, Note_off_c, 5, 79, 64
7, 148020, Note_on_c, 5, 78, 92
7, 148260, Note_off_c, 5, 78, 64
7, 148260, Note_on_c, 5, 76, 92
7, 148500, Note_off_c, 5, 76, 64
7, 148500, Note_on_c, 5, 74, 92
7, 148740, Note_off_c, 5, 74, 64
7, 148740, Note_on_c, 5, 76, 92
7, 149460, Note_off_c, 5, 76, 64
7, 149460, Note_on_c, 5, 78, 92
7, 149580, Note_off_c, 5, 78, 64
7, 149580, Note_on_c, 5, 79, 92
7, 149700, Note_off_c, 5, 79, 64
7, 149700, Note_on_c, 5, 78, 92
7, 150100, Note_off_c, 5, 78, 64
7, 150660, Note_on_c, 5, 83, 92
7, 151060, Note_off_c, 5, 83, 64
7, 151140, Note_on_c, 5, 86, 92
7, 151260, Note_off_c, 5, 86, 64
7, 151260, Note_on_c, 5, 85, 92
7, 151380, Note_off_c, 5, 85, 64
7, 151380, Note_on_c, 5, 83, 92
7, 151500, Note_off_c, 5, 83, 64
7, 151500, Note_on_c, 5, 85, 92
7, 151620, Note_off_c, 5, 85, 64
7, 151620, Note_on_c, 5, 86, 92
7, 152020, Note_off_c, 5, 86, 64
7, 152340, Note_on_c, 5, 74, 92
7, 152420, Note_off_c, 5, 74, 64
7, 152580, Note_on_c, 5, 76, 92
7, 153300, Note_off_c, 5, 76, 64
7, 153300, Note_on_c, 5, 78, 92
7, 153420, Note_off_c, 5, 78, 64
7, 153420, Note_on_c, 5, 79, 92
7, 153540, Note_off_c, 5, 79, 64
7, 153540, Note_on_c, 5, 78, 92
7, 153940, Note_off_c, 5, 78, 64
7, 154500, Note_on_c, 5, 83, 92
7, 154900, Note_off_c, 5, 83, 64
7, 154980, Note_on_c, 5, 86, 92
7, 155100, Note_off_c, 5, 86, 64
7, 155100, Note_on_c, 5, 85, 92
7, 155220, Note_off_c, 5, 85, 64
7, 155220, Note_on_c, 5, 83, 92
7, 155340, Note_off_c, 5, 83, 64
7, 155340, Note_on_c, 5, 85, 92
7, 155460, Note_off_c, 5, 85, 64
7, 155460, Note_on_c, 5, 86, 92
7, 155860, Note_off_c, 5, 86, 64
7, 156180, Note_on_c, 5, 74, 92
7, 156260, Note_off_c, 5, 74, 64
7, 156420, Note_on_c, 5, 76, 92
7, 157140, Note_off_c, 5, 76, 64
7, 157140, Note_on_c, 5, 78, 92
7, 157260, Note_off_c, 5, 78, 64
7, 157260, Note_on_c, 5, 79, 92
7, 157380, Note_off_c, 5, 79, 64
7, 157380, Note_on_c, 5, 78, 92
7, 157780, Note_off_c, 5, 78, 64
7, 158340, Note_on_c, 5, 71, 92
7, 158740, Note_off_c, 5, 71, 64
7, 158820, Note_on_c, 5, 73, 92
7, 158880, Note_off_c, 5, 73, 64
7, 158880, Note_on_c, 5, 74, 92
7, 158940, Note_off_c, 5, 74, 64
7, 158940, Note_on_c, 5, 73, 92
7, 159000, Note_off_c, 5, 73, 64
7, 159000, Note_on_c, 5, 74, 92
7, 159060, Note_off_c, 5, 74, 64
7, 159060, Note_on_c, 5, 73, 92
7, 159120, Note_off_c, 5, 73, 64
7, 159120, Note_on_c, 5, 74, 92
7, 159180, Note_off_c, 5, 74, 64
7, 159180, Note_on_c, 5, 71, 92
7, 159240, Note_off_c, 5, 71, 64
7, 159240, Note_on_c, 5, 73, 92
7, 159300, Note_off_c, 5, 73, 64
7, 159300, Note_on_c, 5, 74, 92
7, 159380, Note_off_c, 5, 74, 64
7, 159540, Note_on_c, 5, 78, 92
7, 159780, Note_off_c, 5, 78, 64
7, 159780, Note_on_c, 5, 79, 92
7, 160020, Note_off_c, 5, 79, 64
7, 160020, Note_on_c, 5, 81, 92
7, 160260, Note_off_c, 5, 81, 64
7, 160260, Note_on_c, 5, 79, 92
7, 160340, Note_off_c, 5, 79, 64
7, 160740, Note_on_c, 5, 78, 92
7, 160820, Note_off_c, 5, 78, 64
7, 161220, Note_on_c, 5, 76, 92
7, 161300, Note_off_c, 5, 76, 64
7, 163380, Note_on_c, 5, 78, 45
7, 163460, Note_off_c, 5, 78, 64
7, 163620, Note_on_c, 5, 79, 45
7, 163700, Note_off_c, 5, 79, 64
7, 163860, Note_on_c, 5, 81, 45
7, 163940, Note_off_c, 5, 81, 64
7, 164100, Note_on_c, 5, 83, 45
7, 164180, Note_off_c, 5, 83, 64
7, 164340, Note_on_c, 5, 85, 45
7, 164420, Note_off_c, 5, 85, 64
7, 164580, Note_on_c, 5, 86, 45
7, 164660, Note_off_c, 5, 86, 64
7, 165300, Note_on_c, 5, 86, 45
7, 165380, Note_off_c, 5, 86, 64
7, 165540, Note_on_c, 5, 85, 45
7, 165620, Note_off_c, 5, 85, 64
7, 165780, Note_on_c, 5, 83, 45
7, 165860, Note_off_c, 5, 83, 64
7, 166020, Note_on_c, 5, 81, 45
7, 166100, Note_off_c, 5, 81, 64
7, 166260, Note_on_c, 5, 79, 45
7, 166340, Note_off_c, 5, 79, 64
7, 166500, Note_on_c, 5, 78, 45
7, 166580, Note_off_c, 5, 78, 64
7, 167220, Note_on_c, 5, 78, 30
7, 167300, Note_off_c, 5, 78, 64
7, 167460, Note_on_c, 5, 79, 30
7, 167540, Note_off_c, 5, 79, 64
7, 167700, Note_on_c, 5, 81, 30
7, 167780, Note_off_c, 5, 81, 64
7, 167940, Note_on_c, 5, 83, 30
7, 168020, Note_off_c, 5, 83, 64
7, 168180, Note_on_c, 5, 85, 30
7, 168260, Note_off_c, 5, 85, 64
7, 168420, Note_on_c, 5, 86, 30
7, 168500, Note_off_c, 5, 86, 64
7, 169140, Note_on_c, 5, 86, 30
7, 169220, Note_off_c, 5, 86, 64
7, 169380, Note_on_c, 5, 85, 30
7, 169460, Note_off_c, 5, 85, 64
7, 169620, Note_on_c, 5, 83, 30
7, 169700, Note_off_c, 5, 83, 64
7, 169860, Note_on_c, 5, 81, 30
7, 169940, Note_off_c, 5, 81, 64
7, 170100, Note_on_c, 5, 79, 30
7, 170180, Note_off_c, 5, 79, 64
7, 170340, Note_on_c, 5, 78, 30
7, 170420, Note_off_c, 5, 78, 64
7, 171060, Note_on_c, 5, 74, 92
7, 171140, Note_off_c, 5, 74, 64
7, 171300, Note_on_c, 5, 76, 92
7, 171380, Note_off_c, 5, 76, 64
7, 171540, Note_on_c, 5, 78, 92
7, 171620, Note_off_c, 5, 78, 64
7, 171780, Note_on_c, 5, 78, 92
7, 172020, Note_off_c, 5, 78, 64
7, 172020, Note_on_c, 5, 79, 92
7, 172255, Note_off_c, 5, 79, 64
7, 172260, Note_on_c, 5, 79, 92
7, 172975, Note_off_c, 5, 79, 64
7, 172980, Note_on_c, 5, 76, 92
7, 173060, Note_off_c, 5, 76, 64
7, 173220, Note_on_c, 5, 74, 92
7, 173340, Note_off_c, 5, 74, 64
7, 173340, Note_on_c, 5, 73, 92
7, 173460, Note_off_c, 5, 73, 64
7, 173460, Note_on_c, 5, 71, 92
7, 173580, Note_off_c, 5, 71, 64
7, 173580, Note_on_c, 5, 69, 92
7, 173700, Note_off_c, 5, 69, 64
7, 173700, Note_on_c, 5, 81, 92
7, 173935, Note_off_c, 5, 81, 64
7, 174240, Note_on_c, 5, 81, 92
7, 174955, Note_off_c, 5, 81, 64
7, 174960, Note_on_c, 5, 74, 92
7, 175040, Note_off_c, 5, 74, 64
7, 175200, Note_on_c, 5, 76, 92
7, 175280, Note_off_c, 5, 76, 64
7, 175440, Note_on_c, 5, 78, 92
7, 175520, Note_off_c, 5, 78, 64
7, 175680, Note_on_c, 5, 78, 92
7, 175920, Note_off_c, 5, 78, 64
7, 175920, Note_on_c, 5, 79, 92
7, 176155, Note_off_c, 5, 79, 64
7, 176160, Note_on_c, 5, 79, 92
7, 176875, Note_off_c, 5, 79, 64
7, 176880, Note_on_c, 5, 76, 92
7, 176960, Note_off_c, 5, 76, 64
7, 177120, Note_on_c, 5, 74, 92
7, 177240, Note_off_c, 5, 74, 64
7, 177240, Note_on_c, 5, 73, 92
7, 177360, Note_off_c, 5, 73, 64
7, 177360, Note_on_c, 5, 71, 92
7, 177480, Note_off_c, 5, 71, 64
7, 177480, Note_on_c, 5, 69, 92
7, 177600, Note_off_c, 5, 69, 64
7, 177600, Note_on_c, 5, 81, 92
7, 177835, Note_off_c, 5, 81, 64
7, 178140, Note_on_c, 5, 81, 92
7, 178855, Note_off_c, 5, 81, 64
7, 178860, Note_on_c, 5, 78, 92
7, 178940, Note_off_c, 5, 78, 64
7, 179100, Note_on_c, 5, 74, 92
7, 179180, Note_off_c, 5, 74, 64
7, 179340, Note_on_c, 5, 69, 92
7, 179420, Note_off_c, 5, 69, 64
7, 179580, Note_on_c, 5, 83, 92
7, 179815, Note_off_c, 5, 83, 64
7, 180120, Note_on_c, 5, 86, 92
7, 180835, Note_off_c, 5, 86, 64
7, 180840, Note_on_c, 5, 83, 92
7, 180920, Note_off_c, 5, 83, 64
7, 181080, Note_on_c, 5, 79, 92
7, 181160, Note_off_c, 5, 79, 64
7, 181320, Note_on_c, 5, 74, 92
7, 181400, Note_off_c, 5, 74, 64
7, 181560, Note_on_c, 5, 69, 92
7, 182400, Note_off_c, 5, 69, 64
7, 182520, Note_on_c, 5, 76, 60
7, 182580, Note_off_c, 5, 76, 64
7, 182580, Note_on_c, 5, 78, 60
7, 182640, Note_off_c, 5, 78, 64
7, 182640, Note_on_c, 5, 76, 60
7, 182700, Note_off_c, 5, 76, 64
7, 182700, Note_on_c, 5, 78, 60
7, 182760, Note_off_c, 5, 78, 64
7, 182760, Note_on_c, 5, 76, 60
7, 182820, Note_off_c, 5, 76, 64
7, 182820, Note_on_c, 5, 78, 60
7, 182880, Note_off_c, 5, 78, 64
7, 182880, Note_on_c, 5, 76, 60
7, 182940, Note_off_c, 5, 76, 64
7, 182940, Note_on_c, 5, 78, 60
7, 183000, Note_off_c, 5, 78, 64
7, 183000, Note_on_c, 5, 76, 60
7, 183060, Note_off_c, 5, 76, 64
7, 183060, Note_on_c, 5, 78, 60
7, 183120, Note_off_c, 5, 78, 64
7, 183120, Note_on_c, 5, 76, 60
7, 183180, Note_off_c, 5, 76, 64
7, 183180, Note_on_c, 5, 78, 60
7, 183240, Note_off_c, 5, 78, 64
7, 183240, Note_on_c, 5, 76, 60
7, 183300, Note_off_c, 5, 76, 64
7, 183300, Note_on_c, 5, 78, 60
7, 183360, Note_off_c, 5, 78, 64
7, 183360, Note_on_c, 5, 76, 60
7, 183420, Note_off_c, 5, 76, 64
7, 183420, Note_on_c, 5, 78, 60
7, 183480, Note_off_c, 5, 78, 64
7, 183480, Note_on_c, 5, 74, 92
7, 183595, Note_off_c, 5, 74, 64
7, 183600, Note_on_c, 5, 62, 92
7, 183680, Note_off_c, 5, 62, 64
7, 183720, Note_on_c, 5, 64, 92
7, 183800, Note_off_c, 5, 64, 64
7, 183840, Note_on_c, 5, 66, 92
7, 183920, Note_off_c, 5, 66, 64
7, 183960, Note_on_c, 5, 67, 92
7, 184040, Note_off_c, 5, 67, 64
7, 184080, Note_on_c, 5, 69, 92
7, 184160, Note_off_c, 5, 69, 64
7, 184200, Note_on_c, 5, 71, 92
7, 184280, Note_off_c, 5, 71, 64
7, 184320, Note_on_c, 5, 73, 92
7, 184400, Note_off_c, 5, 73, 64
7, 184440, Note_on_c, 5, 74, 92
7, 184520, Note_off_c, 5, 74, 64
7, 184560, Note_on_c, 5, 69, 92
7, 184640, Note_off_c, 5, 69, 64
7, 184680, Note_on_c, 5, 71, 92
7, 184760, Note_off_c, 5, 71, 64
7, 184800, Note_on_c, 5, 73, 92
7, 184880, Note_off_c, 5, 73, 64
7, 184920, Note_on_c, 5, 74, 92
7, 185000, Note_off_c, 5, 74, 64
7, 185040, Note_on_c, 5, 76, 92
7, 185120, Note_off_c, 5, 76, 64
7, 185160, Note_on_c, 5, 78, 92
7, 185240, Note_off_c, 5, 78, 64
7, 185280, Note_on_c, 5, 79, 92
7, 185360, Note_off_c, 5, 79, 64
7, 185400, Note_on_c, 5, 81, 92
7, 185480, Note_off_c, 5, 81, 64
7, 185520, Note_on_c, 5, 74, 92
7, 185600, Note_off_c, 5, 74, 64
7, 185640, Note_on_c, 5, 76, 92
7, 185720, Note_off_c, 5, 76, 64
7, 185760, Note_on_c, 5, 78, 92
7, 185840, Note_off_c, 5, 78, 64
7, 185880, Note_on_c, 5, 79, 92
7, 185960, Note_off_c, 5, 79, 64
7, 186000, Note_on_c, 5, 81, 92
7, 186080, Note_off_c, 5, 81, 64
7, 186120, Note_on_c, 5, 83, 92
7, 186200, Note_off_c, 5, 83, 64
7, 186240, Note_on_c, 5, 85, 92
7, 186320, Note_off_c, 5, 85, 64
7, 186360, Note_on_c, 5, 86, 92
7, 186440, Note_off_c, 5, 86, 64
7, 186600, Note_on_c, 5, 84, 92
7, 186840, Note_off_c, 5, 84, 64
7, 186840, Note_on_c, 5, 83, 92
7, 187080, Note_off_c, 5, 83, 64
7, 187080, Note_on_c, 5, 82, 92
7, 187320, Note_off_c, 5, 82, 64
7, 187320, Note_on_c, 5, 83, 92
7, 187720, Note_off_c, 5, 83, 64
7, 187800, Note_on_c, 5, 85, 92
7, 187920, Note_off_c, 5, 85, 64
7, 187920, Note_on_c, 5, 83, 92
7, 188040, Note_off_c, 5, 83, 64
7, 188040, Note_on_c, 5, 81, 92
7, 188120, Note_off_c, 5, 81, 64
7, 188160, Note_on_c, 5, 79, 92
7, 188240, Note_off_c, 5, 79, 64
7, 188280, Note_on_c, 5, 81, 92
7, 188400, Note_off_c, 5, 81, 64
7, 188400, Note_on_c, 5, 79, 92
7, 188520, Note_off_c, 5, 79, 64
7, 188520, Note_on_c, 5, 78, 92
7, 188600, Note_off_c, 5, 78, 64
7, 188640, Note_on_c, 5, 76, 92
7, 188720, Note_off_c, 5, 76, 64
7, 188760, Note_on_c, 5, 76, 92
7, 188880, Note_off_c, 5, 76, 64
7, 188880, Note_on_c, 5, 74, 92
7, 189000, Note_off_c, 5, 74, 64
7, 189000, Note_on_c, 5, 73, 92
7, 189080, Note_off_c, 5, 73, 64
7, 189120, Note_on_c, 5, 71, 92
7, 189200, Note_off_c, 5, 71, 64
7, 189240, Note_on_c, 5, 69, 92
7, 189240, Note_on_c, 5, 81, 92
7, 189880, Note_off_c, 5, 81, 64
7, 189880, Note_off_c, 5, 69, 64
7, 189960, Note_on_c, 5, 74, 92
7, 190195, Note_off_c, 5, 74, 64
7, 190200, Note_on_c, 5, 76, 92
7, 190260, Note_off_c, 5, 76, 64
7, 190260, Note_on_c, 5, 78, 92
7, 190320, Note_off_c, 5, 78, 64
7, 190320, Note_on_c, 5, 76, 92
7, 190380, Note_off_c, 5, 76, 64
7, 190380, Note_on_c, 5, 78, 92
7, 190440, Note_off_c, 5, 78, 64
7, 190440, Note_on_c, 5, 76, 92
7, 190500, Note_off_c, 5, 76, 64
7, 190500, Note_on_c, 5, 78, 92
7, 190560, Note_off_c, 5, 78, 64
7, 190560, Note_on_c, 5, 76, 92
7, 190620, Note_off_c, 5, 76, 64
7, 190620, Note_on_c, 5, 78, 92
7, 190680, Note_off_c, 5, 78, 64
7, 190680, Note_on_c, 5, 76, 92
7, 190740, Note_off_c, 5, 76, 64
7, 190740, Note_on_c, 5, 78, 92
7, 190800, Note_off_c, 5, 78, 64
7, 190800, Note_on_c, 5, 76, 92
7, 190860, Note_off_c, 5, 76, 64
7, 190860, Note_on_c, 5, 78, 92
7, 190920, Note_off_c, 5, 78, 64
7, 190920, Note_on_c, 5, 76, 92
7, 190980, Note_off_c, 5, 76, 64
7, 190980, Note_on_c, 5, 78, 92
7, 191040, Note_off_c, 5, 78, 64
7, 191040, Note_on_c, 5, 76, 92
7, 191100, Note_off_c, 5, 76, 64
7, 191100, Note_on_c, 5, 78, 92
7, 191160, Note_off_c, 5, 78, 64
7, 191160, Note_on_c, 5, 74, 92
7, 191240, Note_off_c, 5, 74, 64
7, 191400, Note_on_c, 5, 81, 92
7, 191640, Note_off_c, 5, 81, 64
7, 191640, Note_on_c, 5, 79, 92
7, 191720, Note_off_c, 5, 79, 64
7, 191880, Note_on_c, 5, 85, 92
7, 191960, Note_off_c, 5, 85, 64
7, 192120, Note_on_c, 5, 86, 92
7, 192200, Note_off_c, 5, 86, 64
7, 192360, Note_on_c, 5, 81, 92
7, 192600, Note_off_c, 5, 81, 64
7, 192600, Note_on_c, 5, 79, 92
7, 192680, Note_off_c, 5, 79, 64
7, 192840, Note_on_c, 5, 85, 92
7, 192920, Note_off_c, 5, 85, 64
7, 193080, Note_on_c, 5, 86, 92
7, 193315, Note_off_c, 5, 86, 64
7, 193560, Note_on_c, 5, 86, 92
7, 193960, Note_off_c, 5, 86, 64
7, 194040, Note_on_c, 5, 86, 92
7, 194440, Note_off_c, 5, 86, 64
7, 194440, End_track
8, 0, Start_track
8, 0, MIDI_port, 0
8, 0, Channel_prefix, 6
8, 0, Control_c, 6, 7, 127
8, 0, Control_c, 6, 10, 32
8, 0, Control_c, 6, 91, 124
8, 0, Program_c, 6, 48
8, 0, Note_on_c, 6, 69, 45
8, 80, Note_off_c, 6, 69, 64
8, 480, Note_on_c, 6, 74, 45
8, 560, Note_off_c, 6, 74, 64
8, 960, Note_on_c, 6, 71, 45
8, 1040, Note_off_c, 6, 71, 64
8, 1920, Note_on_c, 6, 71, 45
8, 2000, Note_off_c, 6, 71, 64
8, 2400, Note_on_c, 6, 67, 45
8, 2480, Note_off_c, 6, 67, 64
8, 2880, Note_on_c, 6, 66, 45
8, 2960, Note_off_c, 6, 66, 64
8, 3840, Note_on_c, 6, 66, 75
8, 4075, Note_off_c, 6, 66, 64
8, 4080, Note_on_c, 6, 66, 75
8, 4315, Note_off_c, 6, 66, 64
8, 4320, Note_on_c, 6, 66, 75
8, 4555, Note_off_c, 6, 66, 64
8, 4560, Note_on_c, 6, 66, 75
8, 4795, Note_off_c, 6, 66, 64
8, 4800, Note_on_c, 6, 66, 75
8, 5035, Note_off_c, 6, 66, 64
8, 5040, Note_on_c, 6, 66, 75
8, 5275, Note_off_c, 6, 66, 64
8, 5280, Note_on_c, 6, 66, 75
8, 5515, Note_off_c, 6, 66, 64
8, 5520, Note_on_c, 6, 66, 75
8, 5755, Note_off_c, 6, 66, 64
8, 5760, Note_on_c, 6, 67, 75
8, 5995, Note_off_c, 6, 67, 64
8, 6000, Note_on_c, 6, 67, 75
8, 6235, Note_off_c, 6, 67, 64
8, 6240, Note_on_c, 6, 67, 75
8, 6475, Note_off_c, 6, 67, 64
8, 6480, Note_on_c, 6, 67, 75
8, 6715, Note_off_c, 6, 67, 64
8, 6720, Note_on_c, 6, 66, 75
8, 6955, Note_off_c, 6, 66, 64
8, 6960, Note_on_c, 6, 66, 75
8, 7195, Note_off_c, 6, 66, 64
8, 7200, Note_on_c, 6, 66, 75
8, 7435, Note_off_c, 6, 66, 64
8, 7440, Note_on_c, 6, 66, 75
8, 7675, Note_off_c, 6, 66, 64
8, 7680, Note_on_c, 6, 66, 75
8, 7915, Note_off_c, 6, 66, 64
8, 7920, Note_on_c, 6, 66, 75
8, 8155, Note_off_c, 6, 66, 64
8, 8160, Note_on_c, 6, 66, 75
8, 8395, Note_off_c, 6, 66, 64
8, 8400, Note_on_c, 6, 66, 75
8, 8635, Note_off_c, 6, 66, 64
8, 8640, Note_on_c, 6, 69, 75
8, 8875, Note_off_c, 6, 69, 64
8, 8880, Note_on_c, 6, 69, 75
8, 9115, Note_off_c, 6, 69, 64
8, 9120, Note_on_c, 6, 69, 75
8, 9355, Note_off_c, 6, 69, 64
8, 9360, Note_on_c, 6, 69, 75
8, 9595, Note_off_c, 6, 69, 64
8, 9600, Note_on_c, 6, 69, 75
8, 9835, Note_off_c, 6, 69, 64
8, 9840, Note_on_c, 6, 69, 75
8, 10075, Note_off_c, 6, 69, 64
8, 10080, Note_on_c, 6, 69, 75
8, 10315, Note_off_c, 6, 69, 64
8, 10320, Note_on_c, 6, 69, 75
8, 10555, Note_off_c, 6, 69, 64
8, 10560, Note_on_c, 6, 69, 75
8, 10795, Note_off_c, 6, 69, 64
8, 10800, Note_on_c, 6, 69, 75
8, 11035, Note_off_c, 6, 69, 64
8, 11040, Note_on_c, 6, 69, 75
8, 11275, Note_off_c, 6, 69, 64
8, 11280, Note_on_c, 6, 69, 75
8, 11515, Note_off_c, 6, 69, 64
8, 11520, Note_on_c, 6, 67, 92
8, 11600, Note_off_c, 6, 67, 64
8, 11640, Note_on_c, 6, 69, 92
8, 11720, Note_off_c, 6, 69, 64
8, 11760, Note_on_c, 6, 67, 92
8, 11840, Note_off_c, 6, 67, 64
8, 11880, Note_on_c, 6, 66, 92
8, 11960, Note_off_c, 6, 66, 64
8, 12000, Note_on_c, 6, 67, 92
8, 12080, Note_off_c, 6, 67, 64
8, 12120, Note_on_c, 6, 64, 92
8, 12200, Note_off_c, 6, 64, 64
8, 12240, Note_on_c, 6, 69, 92
8, 12320, Note_off_c, 6, 69, 64
8, 12360, Note_on_c, 6, 67, 92
8, 12440, Note_off_c, 6, 67, 64
8, 12480, Note_on_c, 6, 66, 92
8, 12560, Note_off_c, 6, 66, 64
8, 12600, Note_on_c, 6, 67, 92
8, 12680, Note_off_c, 6, 67, 64
8, 12720, Note_on_c, 6, 69, 92
8, 12800, Note_off_c, 6, 69, 64
8, 12840, Note_on_c, 6, 67, 92
8, 12920, Note_off_c, 6, 67, 64
8, 12960, Note_on_c, 6, 66, 92
8, 13040, Note_off_c, 6, 66, 64
8, 13080, Note_on_c, 6, 64, 92
8, 13160, Note_off_c, 6, 64, 64
8, 13200, Note_on_c, 6, 66, 92
8, 13280, Note_off_c, 6, 66, 64
8, 13320, Note_on_c, 6, 62, 92
8, 13400, Note_off_c, 6, 62, 64
8, 13440, Note_on_c, 6, 61, 92
8, 13520, Note_off_c, 6, 61, 64
8, 13560, Note_on_c, 6, 62, 92
8, 13640, Note_off_c, 6, 62, 64
8, 13680, Note_on_c, 6, 61, 92
8, 13760, Note_off_c, 6, 61, 64
8, 13800, Note_on_c, 6, 59, 92
8, 13880, Note_off_c, 6, 59, 64
8, 13920, Note_on_c, 6, 57, 92
8, 14000, Note_off_c, 6, 57, 64
8, 14040, Note_on_c, 6, 61, 92
8, 14120, Note_off_c, 6, 61, 64
8, 14160, Note_on_c, 6, 62, 92
8, 14240, Note_off_c, 6, 62, 64
8, 14280, Note_on_c, 6, 64, 92
8, 14360, Note_off_c, 6, 64, 64
8, 14400, Note_on_c, 6, 62, 92
8, 14480, Note_off_c, 6, 62, 64
8, 14520, Note_on_c, 6, 64, 92
8, 14600, Note_off_c, 6, 64, 64
8, 14640, Note_on_c, 6, 66, 92
8, 14720, Note_off_c, 6, 66, 64
8, 14760, Note_on_c, 6, 67, 92
8, 14840, Note_off_c, 6, 67, 64
8, 14880, Note_on_c, 6, 69, 92
8, 14960, Note_off_c, 6, 69, 64
8, 15000, Note_on_c, 6, 71, 92
8, 15080, Note_off_c, 6, 71, 64
8, 15120, Note_on_c, 6, 73, 92
8, 15200, Note_off_c, 6, 73, 64
8, 15240, Note_on_c, 6, 74, 92
8, 15320, Note_off_c, 6, 74, 64
8, 15360, Note_on_c, 6, 67, 92
8, 15440, Note_off_c, 6, 67, 64
8, 15480, Note_on_c, 6, 69, 92
8, 15560, Note_off_c, 6, 69, 64
8, 15600, Note_on_c, 6, 67, 92
8, 15680, Note_off_c, 6, 67, 64
8, 15720, Note_on_c, 6, 66, 92
8, 15800, Note_off_c, 6, 66, 64
8, 15840, Note_on_c, 6, 67, 92
8, 15920, Note_off_c, 6, 67, 64
8, 15960, Note_on_c, 6, 64, 92
8, 16040, Note_off_c, 6, 64, 64
8, 16080, Note_on_c, 6, 69, 92
8, 16160, Note_off_c, 6, 69, 64
8, 16200, Note_on_c, 6, 67, 92
8, 16280, Note_off_c, 6, 67, 64
8, 16320, Note_on_c, 6, 66, 92
8, 16400, Note_off_c, 6, 66, 64
8, 16440, Note_on_c, 6, 67, 92
8, 16520, Note_off_c, 6, 67, 64
8, 16560, Note_on_c, 6, 69, 92
8, 16640, Note_off_c, 6, 69, 64
8, 16680, Note_on_c, 6, 67, 92
8, 16760, Note_off_c, 6, 67, 64
8, 16800, Note_on_c, 6, 66, 92
8, 16880, Note_off_c, 6, 66, 64
8, 16920, Note_on_c, 6, 64, 92
8, 17000, Note_off_c, 6, 64, 64
8, 17040, Note_on_c, 6, 66, 92
8, 17120, Note_off_c, 6, 66, 64
8, 17160, Note_on_c, 6, 62, 92
8, 17240, Note_off_c, 6, 62, 64
8, 17280, Note_on_c, 6, 61, 92
8, 17360, Note_off_c, 6, 61, 64
8, 17400, Note_on_c, 6, 62, 92
8, 17480, Note_off_c, 6, 62, 64
8, 17520, Note_on_c, 6, 61, 92
8, 17600, Note_off_c, 6, 61, 64
8, 17640, Note_on_c, 6, 59, 92
8, 17720, Note_off_c, 6, 59, 64
8, 17760, Note_on_c, 6, 57, 92
8, 17840, Note_off_c, 6, 57, 64
8, 17880, Note_on_c, 6, 61, 92
8, 17960, Note_off_c, 6, 61, 64
8, 18000, Note_on_c, 6, 62, 92
8, 18080, Note_off_c, 6, 62, 64
8, 18120, Note_on_c, 6, 64, 92
8, 18200, Note_off_c, 6, 64, 64
8, 18240, Note_on_c, 6, 62, 92
8, 18320, Note_off_c, 6, 62, 64
8, 18360, Note_on_c, 6, 64, 92
8, 18440, Note_off_c, 6, 64, 64
8, 18480, Note_on_c, 6, 66, 92
8, 18560, Note_off_c, 6, 66, 64
8, 18600, Note_on_c, 6, 67, 92
8, 18680, Note_off_c, 6, 67, 64
8, 18720, Note_on_c, 6, 69, 92
8, 18800, Note_off_c, 6, 69, 64
8, 18840, Note_on_c, 6, 71, 92
8, 18920, Note_off_c, 6, 71, 64
8, 18960, Note_on_c, 6, 73, 92
8, 19040, Note_off_c, 6, 73, 64
8, 19080, Note_on_c, 6, 74, 92
8, 19160, Note_off_c, 6, 74, 64
8, 19200, Note_on_c, 6, 69, 92
8, 19435, Note_off_c, 6, 69, 64
8, 19680, Note_on_c, 6, 71, 92
8, 19740, Note_off_c, 6, 71, 64
8, 19740, Note_on_c, 6, 73, 92
8, 19800, Note_off_c, 6, 73, 64
8, 19800, Note_on_c, 6, 71, 92
8, 19860, Note_off_c, 6, 71, 64
8, 19860, Note_on_c, 6, 73, 92
8, 19920, Note_off_c, 6, 73, 64
8, 19920, Note_on_c, 6, 71, 92
8, 19980, Note_off_c, 6, 71, 64
8, 19980, Note_on_c, 6, 73, 92
8, 20040, Note_off_c, 6, 73, 64
8, 20040, Note_on_c, 6, 69, 92
8, 20100, Note_off_c, 6, 69, 64
8, 20100, Note_on_c, 6, 71, 92
8, 20160, Note_off_c, 6, 71, 64
8, 20160, Note_on_c, 6, 69, 92
8, 20240, Note_off_c, 6, 69, 64
8, 20400, Note_on_c, 6, 76, 92
8, 20640, Note_off_c, 6, 76, 64
8, 20640, Note_on_c, 6, 74, 92
8, 20880, Note_off_c, 6, 74, 64
8, 20880, Note_on_c, 6, 73, 92
8, 21120, Note_off_c, 6, 73, 64
8, 21120, Note_on_c, 6, 71, 92
8, 21200, Note_off_c, 6, 71, 64
8, 21600, Note_on_c, 6, 69, 92
8, 21680, Note_off_c, 6, 69, 64
8, 22080, Note_on_c, 6, 68, 92
8, 22160, Note_off_c, 6, 68, 64
8, 24300, Note_on_c, 6, 57, 45
8, 24380, Note_off_c, 6, 57, 64
8, 24540, Note_on_c, 6, 59, 45
8, 24620, Note_off_c, 6, 59, 64
8, 24780, Note_on_c, 6, 61, 45
8, 24860, Note_off_c, 6, 61, 64
8, 25020, Note_on_c, 6, 62, 45
8, 25100, Note_off_c, 6, 62, 64
8, 25260, Note_on_c, 6, 64, 45
8, 25340, Note_off_c, 6, 64, 64
8, 25500, Note_on_c, 6, 66, 45
8, 25580, Note_off_c, 6, 66, 64
8, 26220, Note_on_c, 6, 66, 45
8, 26300, Note_off_c, 6, 66, 64
8, 26460, Note_on_c, 6, 64, 45
8, 26540, Note_off_c, 6, 64, 64
8, 26700, Note_on_c, 6, 62, 45
8, 26780, Note_off_c, 6, 62, 64
8, 26940, Note_on_c, 6, 61, 45
8, 27020, Note_off_c, 6, 61, 64
8, 27180, Note_on_c, 6, 59, 45
8, 27260, Note_off_c, 6, 59, 64
8, 27420, Note_on_c, 6, 57, 45
8, 27500, Note_off_c, 6, 57, 64
8, 28140, Note_on_c, 6, 57, 30
8, 28220, Note_off_c, 6, 57, 64
8, 28380, Note_on_c, 6, 59, 30
8, 28460, Note_off_c, 6, 59, 64
8, 28620, Note_on_c, 6, 61, 30
8, 28700, Note_off_c, 6, 61, 64
8, 28860, Note_on_c, 6, 62, 30
8, 28940, Note_off_c, 6, 62, 64
8, 29100, Note_on_c, 6, 64, 30
8, 29180, Note_off_c, 6, 64, 64
8, 29340, Note_on_c, 6, 66, 30
8, 29420, Note_off_c, 6, 66, 64
8, 30060, Note_on_c, 6, 66, 30
8, 30140, Note_off_c, 6, 66, 64
8, 30300, Note_on_c, 6, 64, 30
8, 30380, Note_off_c, 6, 64, 64
8, 30540, Note_on_c, 6, 62, 30
8, 30620, Note_off_c, 6, 62, 64
8, 30780, Note_on_c, 6, 61, 30
8, 30860, Note_off_c, 6, 61, 64
8, 31020, Note_on_c, 6, 59, 30
8, 31100, Note_off_c, 6, 59, 64
8, 31260, Note_on_c, 6, 57, 30
8, 31340, Note_off_c, 6, 57, 64
8, 31980, Note_on_c, 6, 69, 92
8, 32060, Note_off_c, 6, 69, 64
8, 32220, Note_on_c, 6, 71, 92
8, 32300, Note_off_c, 6, 71, 64
8, 32460, Note_on_c, 6, 73, 92
8, 32540, Note_off_c, 6, 73, 64
8, 32700, Note_on_c, 6, 73, 92
8, 32940, Note_off_c, 6, 73, 64
8, 32940, Note_on_c, 6, 74, 92
8, 33175, Note_off_c, 6, 74, 64
8, 33180, Note_on_c, 6, 74, 92
8, 33895, Note_off_c, 6, 74, 64
8, 33900, Note_on_c, 6, 74, 92
8, 33980, Note_off_c, 6, 74, 64
8, 34140, Note_on_c, 6, 73, 92
8, 34260, Note_off_c, 6, 73, 64
8, 34260, Note_on_c, 6, 71, 92
8, 34380, Note_off_c, 6, 71, 64
8, 34380, Note_on_c, 6, 69, 92
8, 34460, Note_off_c, 6, 69, 64
8, 34500, Note_on_c, 6, 68, 92
8, 34580, Note_off_c, 6, 68, 64
8, 34620, Note_on_c, 6, 76, 92
8, 34855, Note_off_c, 6, 76, 64
8, 35160, Note_on_c, 6, 76, 92
8, 35875, Note_off_c, 6, 76, 64
8, 35880, Note_on_c, 6, 69, 92
8, 35960, Note_off_c, 6, 69, 64
8, 36120, Note_on_c, 6, 71, 92
8, 36200, Note_off_c, 6, 71, 64
8, 36360, Note_on_c, 6, 73, 92
8, 36440, Note_off_c, 6, 73, 64
8, 36600, Note_on_c, 6, 73, 92
8, 36840, Note_off_c, 6, 73, 64
8, 36840, Note_on_c, 6, 74, 92
8, 37075, Note_off_c, 6, 74, 64
8, 37080, Note_on_c, 6, 74, 92
8, 37795, Note_off_c, 6, 74, 64
8, 37800, Note_on_c, 6, 74, 92
8, 37880, Note_off_c, 6, 74, 64
8, 38040, Note_on_c, 6, 73, 92
8, 38160, Note_off_c, 6, 73, 64
8, 38160, Note_on_c, 6, 71, 92
8, 38280, Note_off_c, 6, 71, 64
8, 38280, Note_on_c, 6, 69, 92
8, 38400, Note_off_c, 6, 69, 64
8, 38400, Note_on_c, 6, 68, 92
8, 38520, Note_off_c, 6, 68, 64
8, 38520, Note_on_c, 6, 76, 92
8, 38755, Note_off_c, 6, 76, 64
8, 39060, Note_on_c, 6, 76, 92
8, 39775, Note_off_c, 6, 76, 64
8, 39780, Note_on_c, 6, 76, 92
8, 39860, Note_off_c, 6, 76, 64
8, 40020, Note_on_c, 6, 73, 92
8, 40100, Note_off_c, 6, 73, 64
8, 40260, Note_on_c, 6, 69, 92
8, 40340, Note_off_c, 6, 69, 64
8, 40500, Note_on_c, 6, 69, 92
8, 40735, Note_off_c, 6, 69, 64
8, 41040, Note_on_c, 6, 69, 92
8, 41755, Note_off_c, 6, 69, 64
8, 41760, Note_on_c, 6, 66, 92
8, 41840, Note_off_c, 6, 66, 64
8, 42000, Note_on_c, 6, 62, 92
8, 42080, Note_off_c, 6, 62, 64
8, 42240, Note_on_c, 6, 59, 92
8, 42320, Note_off_c, 6, 59, 64
8, 42480, Note_on_c, 6, 61, 92
8, 42880, Note_off_c, 6, 61, 64
8, 42960, Note_on_c, 6, 69, 92
8, 43075, Note_off_c, 6, 69, 64
8, 43080, Note_on_c, 6, 69, 92
8, 43195, Note_off_c, 6, 69, 64
8, 43200, Note_on_c, 6, 69, 92
8, 43315, Note_off_c, 6, 69, 64
8, 43320, Note_on_c, 6, 69, 92
8, 43435, Note_off_c, 6, 69, 64
8, 43440, Note_on_c, 6, 69, 92
8, 43555, Note_off_c, 6, 69, 64
8, 43560, Note_on_c, 6, 69, 90
8, 43675, Note_off_c, 6, 69, 64
8, 43680, Note_on_c, 6, 69, 88
8, 43795, Note_off_c, 6, 69, 64
8, 43800, Note_on_c, 6, 69, 86
8, 43915, Note_off_c, 6, 69, 64
8, 43920, Note_on_c, 6, 68, 84
8, 44035, Note_off_c, 6, 68, 64
8, 44040, Note_on_c, 6, 68, 82
8, 44155, Note_off_c, 6, 68, 64
8, 44160, Note_on_c, 6, 68, 80
8, 44275, Note_off_c, 6, 68, 64
8, 44280, Note_on_c, 6, 68, 78
8, 44395, Note_off_c, 6, 68, 64
8, 44400, Note_on_c, 6, 69, 75
8, 44800, Note_off_c, 6, 69, 64
8, 45360, Note_on_c, 6, 64, 75
8, 45760, Note_off_c, 6, 64, 64
8, 46320, Note_on_c, 6, 69, 75
8, 46720, Note_off_c, 6, 69, 64
8, 47280, Note_on_c, 6, 69, 75
8, 47360, Note_off_c, 6, 69, 64
8, 47520, Note_on_c, 6, 69, 75
8, 47755, Note_off_c, 6, 69, 64
8, 47760, Note_on_c, 6, 69, 75
8, 47995, Note_off_c, 6, 69, 64
8, 48000, Note_on_c, 6, 69, 75
8, 48235, Note_off_c, 6, 69, 64
8, 48240, Note_on_c, 6, 69, 75
8, 48640, Note_off_c, 6, 69, 64
8, 49200, Note_on_c, 6, 69, 75
8, 49600, Note_off_c, 6, 69, 64
8, 49680, Note_on_c, 6, 69, 75
8, 50080, Note_off_c, 6, 69, 64
8, 50160, Note_on_c, 6, 69, 75
8, 50275, Note_off_c, 6, 69, 64
8, 50280, Note_on_c, 6, 69, 75
8, 50395, Note_off_c, 6, 69, 64
8, 50400, Note_on_c, 6, 69, 75
8, 50515, Note_off_c, 6, 69, 64
8, 50520, Note_on_c, 6, 69, 75
8, 50635, Note_off_c, 6, 69, 64
8, 50640, Note_on_c, 6, 69, 75
8, 50755, Note_off_c, 6, 69, 64
8, 50760, Note_on_c, 6, 69, 75
8, 50875, Note_off_c, 6, 69, 64
8, 50880, Note_on_c, 6, 69, 75
8, 50995, Note_off_c, 6, 69, 64
8, 51000, Note_on_c, 6, 69, 75
8, 51115, Note_off_c, 6, 69, 64
8, 51120, Note_on_c, 6, 68, 75
8, 51235, Note_off_c, 6, 68, 64
8, 51240, Note_on_c, 6, 68, 77
8, 51355, Note_off_c, 6, 68, 64
8, 51360, Note_on_c, 6, 68, 79
8, 51475, Note_off_c, 6, 68, 64
8, 51480, Note_on_c, 6, 68, 81
8, 51595, Note_off_c, 6, 68, 64
8, 51600, Note_on_c, 6, 68, 83
8, 51715, Note_off_c, 6, 68, 64
8, 51720, Note_on_c, 6, 68, 85
8, 51835, Note_off_c, 6, 68, 64
8, 51840, Note_on_c, 6, 68, 87
8, 51955, Note_off_c, 6, 68, 64
8, 51960, Note_on_c, 6, 68, 89
8, 52075, Note_off_c, 6, 68, 64
8, 52080, Note_on_c, 6, 69, 92
8, 52160, Note_off_c, 6, 69, 64
8, 52320, Note_on_c, 6, 73, 92
8, 52560, Note_off_c, 6, 73, 64
8, 52560, Note_on_c, 6, 71, 92
8, 52640, Note_off_c, 6, 71, 64
8, 52800, Note_on_c, 6, 74, 92
8, 52880, Note_off_c, 6, 74, 64
8, 53040, Note_on_c, 6, 73, 92
8, 53120, Note_off_c, 6, 73, 64
8, 53280, Note_on_c, 6, 73, 92
8, 53520, Note_off_c, 6, 73, 64
8, 53520, Note_on_c, 6, 71, 92
8, 53600, Note_off_c, 6, 71, 64
8, 53760, Note_on_c, 6, 74, 92
8, 53840, Note_off_c, 6, 74, 64
8, 54000, Note_on_c, 6, 73, 92
8, 54235, Note_off_c, 6, 73, 64
8, 54480, Note_on_c, 6, 64, 92
8, 54480, Note_on_c, 6, 69, 92
8, 54715, Note_off_c, 6, 69, 64
8, 54715, Note_off_c, 6, 64, 64
8, 54960, Note_on_c, 6, 64, 92
8, 54960, Note_on_c, 6, 69, 92
8, 55360, Note_off_c, 6, 69, 64
8, 55360, Note_off_c, 6, 64, 64
8, 56040, Note_on_c, 6, 69, 45
8, 56120, Note_off_c, 6, 69, 64
8, 56520, Note_on_c, 6, 74, 45
8, 56600, Note_off_c, 6, 74, 64
8, 57000, Note_on_c, 6, 71, 45
8, 57080, Note_off_c, 6, 71, 64
8, 57960, Note_on_c, 6, 71, 45
8, 58040, Note_off_c, 6, 71, 64
8, 58440, Note_on_c, 6, 67, 45
8, 58520, Note_off_c, 6, 67, 64
8, 58920, Note_on_c, 6, 66, 45
8, 59000, Note_off_c, 6, 66, 64
8, 59880, Note_on_c, 6, 66, 75
8, 60115, Note_off_c, 6, 66, 64
8, 60120, Note_on_c, 6, 66, 75
8, 60355, Note_off_c, 6, 66, 64
8, 60360, Note_on_c, 6, 66, 75
8, 60595, Note_off_c, 6, 66, 64
8, 60600, Note_on_c, 6, 66, 75
8, 60835, Note_off_c, 6, 66, 64
8, 60840, Note_on_c, 6, 66, 75
8, 61075, Note_off_c, 6, 66, 64
8, 61080, Note_on_c, 6, 66, 75
8, 61315, Note_off_c, 6, 66, 64
8, 61320, Note_on_c, 6, 66, 75
8, 61555, Note_off_c, 6, 66, 64
8, 61560, Note_on_c, 6, 66, 75
8, 61795, Note_off_c, 6, 66, 64
8, 61800, Note_on_c, 6, 67, 75
8, 62035, Note_off_c, 6, 67, 64
8, 62040, Note_on_c, 6, 67, 75
8, 62275, Note_off_c, 6, 67, 64
8, 62280, Note_on_c, 6, 67, 75
8, 62515, Note_off_c, 6, 67, 64
8, 62520, Note_on_c, 6, 67, 75
8, 62755, Note_off_c, 6, 67, 64
8, 62760, Note_on_c, 6, 66, 75
8, 62995, Note_off_c, 6, 66, 64
8, 63000, Note_on_c, 6, 66, 75
8, 63235, Note_off_c, 6, 66, 64
8, 63240, Note_on_c, 6, 66, 75
8, 63475, Note_off_c, 6, 66, 64
8, 63480, Note_on_c, 6, 66, 75
8, 63715, Note_off_c, 6, 66, 64
8, 63720, Note_on_c, 6, 66, 75
8, 63955, Note_off_c, 6, 66, 64
8, 63960, Note_on_c, 6, 66, 75
8, 64195, Note_off_c, 6, 66, 64
8, 64200, Note_on_c, 6, 66, 75
8, 64435, Note_off_c, 6, 66, 64
8, 64440, Note_on_c, 6, 66, 75
8, 64675, Note_off_c, 6, 66, 64
8, 64680, Note_on_c, 6, 69, 75
8, 64915, Note_off_c, 6, 69, 64
8, 64920, Note_on_c, 6, 69, 75
8, 65155, Note_off_c, 6, 69, 64
8, 65160, Note_on_c, 6, 69, 75
8, 65395, Note_off_c, 6, 69, 64
8, 65400, Note_on_c, 6, 69, 75
8, 65635, Note_off_c, 6, 69, 64
8, 65640, Note_on_c, 6, 69, 75
8, 65875, Note_off_c, 6, 69, 64
8, 65880, Note_on_c, 6, 69, 75
8, 66115, Note_off_c, 6, 69, 64
8, 66120, Note_on_c, 6, 69, 75
8, 66355, Note_off_c, 6, 69, 64
8, 66360, Note_on_c, 6, 69, 75
8, 66595, Note_off_c, 6, 69, 64
8, 66600, Note_on_c, 6, 69, 75
8, 66835, Note_off_c, 6, 69, 64
8, 66840, Note_on_c, 6, 69, 75
8, 67075, Note_off_c, 6, 69, 64
8, 67080, Note_on_c, 6, 69, 75
8, 67315, Note_off_c, 6, 69, 64
8, 67320, Note_on_c, 6, 69, 75
8, 67555, Note_off_c, 6, 69, 64
8, 67560, Note_on_c, 6, 67, 92
8, 67640, Note_off_c, 6, 67, 64
8, 67680, Note_on_c, 6, 69, 92
8, 67760, Note_off_c, 6, 69, 64
8, 67800, Note_on_c, 6, 67, 92
8, 67880, Note_off_c, 6, 67, 64
8, 67920, Note_on_c, 6, 66, 92
8, 68000, Note_off_c, 6, 66, 64
8, 68040, Note_on_c, 6, 67, 92
8, 68120, Note_off_c, 6, 67, 64
8, 68160, Note_on_c, 6, 64, 92
8, 68240, Note_off_c, 6, 64, 64
8, 68280, Note_on_c, 6, 69, 92
8, 68360, Note_off_c, 6, 69, 64
8, 68400, Note_on_c, 6, 67, 92
8, 68480, Note_off_c, 6, 67, 64
8, 68520, Note_on_c, 6, 66, 92
8, 68600, Note_off_c, 6, 66, 64
8, 68640, Note_on_c, 6, 67, 92
8, 68720, Note_off_c, 6, 67, 64
8, 68760, Note_on_c, 6, 69, 92
8, 68840, Note_off_c, 6, 69, 64
8, 68880, Note_on_c, 6, 67, 92
8, 68960, Note_off_c, 6, 67, 64
8, 69000, Note_on_c, 6, 66, 92
8, 69080, Note_off_c, 6, 66, 64
8, 69120, Note_on_c, 6, 64, 92
8, 69200, Note_off_c, 6, 64, 64
8, 69240, Note_on_c, 6, 66, 92
8, 69320, Note_off_c, 6, 66, 64
8, 69360, Note_on_c, 6, 62, 92
8, 69440, Note_off_c, 6, 62, 64
8, 69480, Note_on_c, 6, 61, 92
8, 69560, Note_off_c, 6, 61, 64
8, 69600, Note_on_c, 6, 62, 92
8, 69680, Note_off_c, 6, 62, 64
8, 69720, Note_on_c, 6, 61, 92
8, 69800, Note_off_c, 6, 61, 64
8, 69840, Note_on_c, 6, 59, 92
8, 69920, Note_off_c, 6, 59, 64
8, 69960, Note_on_c, 6, 57, 92
8, 70040, Note_off_c, 6, 57, 64
8, 70080, Note_on_c, 6, 61, 92
8, 70160, Note_off_c, 6, 61, 64
8, 70200, Note_on_c, 6, 62, 92
8, 70280, Note_off_c, 6, 62, 64
8, 70320, Note_on_c, 6, 64, 92
8, 70400, Note_off_c, 6, 64, 64
8, 70440, Note_on_c, 6, 62, 92
8, 70520, Note_off_c, 6, 62, 64
8, 70560, Note_on_c, 6, 64, 92
8, 70640, Note_off_c, 6, 64, 64
8, 70680, Note_on_c, 6, 66, 92
8, 70760, Note_off_c, 6, 66, 64
8, 70800, Note_on_c, 6, 67, 92
8, 70880, Note_off_c, 6, 67, 64
8, 70920, Note_on_c, 6, 69, 92
8, 71000, Note_off_c, 6, 69, 64
8, 71040, Note_on_c, 6, 71, 92
8, 71120, Note_off_c, 6, 71, 64
8, 71160, Note_on_c, 6, 73, 92
8, 71240, Note_off_c, 6, 73, 64
8, 71280, Note_on_c, 6, 74, 92
8, 71360, Note_off_c, 6, 74, 64
8, 71400, Note_on_c, 6, 67, 92
8, 71480, Note_off_c, 6, 67, 64
8, 71520, Note_on_c, 6, 69, 92
8, 71600, Note_off_c, 6, 69, 64
8, 71640, Note_on_c, 6, 67, 92
8, 71720, Note_off_c, 6, 67, 64
8, 71760, Note_on_c, 6, 66, 92
8, 71840, Note_off_c, 6, 66, 64
8, 71880, Note_on_c, 6, 67, 92
8, 71960, Note_off_c, 6, 67, 64
8, 72000, Note_on_c, 6, 64, 92
8, 72080, Note_off_c, 6, 64, 64
8, 72120, Note_on_c, 6, 69, 92
8, 72200, Note_off_c, 6, 69, 64
8, 72240, Note_on_c, 6, 67, 92
8, 72320, Note_off_c, 6, 67, 64
8, 72360, Note_on_c, 6, 66, 92
8, 72440, Note_off_c, 6, 66, 64
8, 72480, Note_on_c, 6, 67, 92
8, 72560, Note_off_c, 6, 67, 64
8, 72600, Note_on_c, 6, 69, 92
8, 72680, Note_off_c, 6, 69, 64
8, 72720, Note_on_c, 6, 67, 92
8, 72800, Note_off_c, 6, 67, 64
8, 72840, Note_on_c, 6, 66, 92
8, 72920, Note_off_c, 6, 66, 64
8, 72960, Note_on_c, 6, 64, 92
8, 73040, Note_off_c, 6, 64, 64
8, 73080, Note_on_c, 6, 66, 92
8, 73160, Note_off_c, 6, 66, 64
8, 73200, Note_on_c, 6, 62, 92
8, 73280, Note_off_c, 6, 62, 64
8, 73320, Note_on_c, 6, 61, 92
8, 73400, Note_off_c, 6, 61, 64
8, 73440, Note_on_c, 6, 62, 92
8, 73520, Note_off_c, 6, 62, 64
8, 73560, Note_on_c, 6, 61, 92
8, 73640, Note_off_c, 6, 61, 64
8, 73680, Note_on_c, 6, 59, 92
8, 73760, Note_off_c, 6, 59, 64
8, 73800, Note_on_c, 6, 57, 92
8, 73880, Note_off_c, 6, 57, 64
8, 73920, Note_on_c, 6, 61, 92
8, 74000, Note_off_c, 6, 61, 64
8, 74040, Note_on_c, 6, 62, 92
8, 74120, Note_off_c, 6, 62, 64
8, 74160, Note_on_c, 6, 64, 92
8, 74240, Note_off_c, 6, 64, 64
8, 74280, Note_on_c, 6, 62, 92
8, 74360, Note_off_c, 6, 62, 64
8, 74400, Note_on_c, 6, 64, 92
8, 74480, Note_off_c, 6, 64, 64
8, 74520, Note_on_c, 6, 66, 92
8, 74600, Note_off_c, 6, 66, 64
8, 74640, Note_on_c, 6, 67, 92
8, 74720, Note_off_c, 6, 67, 64
8, 74760, Note_on_c, 6, 69, 92
8, 74840, Note_off_c, 6, 69, 64
8, 74880, Note_on_c, 6, 71, 92
8, 74960, Note_off_c, 6, 71, 64
8, 75000, Note_on_c, 6, 73, 92
8, 75080, Note_off_c, 6, 73, 64
8, 75120, Note_on_c, 6, 74, 92
8, 75200, Note_off_c, 6, 74, 64
8, 75240, Note_on_c, 6, 69, 92
8, 75475, Note_off_c, 6, 69, 64
8, 75720, Note_on_c, 6, 71, 92
8, 75780, Note_off_c, 6, 71, 64
8, 75780, Note_on_c, 6, 73, 92
8, 75840, Note_off_c, 6, 73, 64
8, 75840, Note_on_c, 6, 71, 92
8, 75900, Note_off_c, 6, 71, 64
8, 75900, Note_on_c, 6, 73, 92
8, 75960, Note_off_c, 6, 73, 64
8, 75960, Note_on_c, 6, 71, 92
8, 76020, Note_off_c, 6, 71, 64
8, 76020, Note_on_c, 6, 73, 92
8, 76080, Note_off_c, 6, 73, 64
8, 76080, Note_on_c, 6, 69, 92
8, 76140, Note_off_c, 6, 69, 64
8, 76140, Note_on_c, 6, 71, 92
8, 76200, Note_off_c, 6, 71, 64
8, 76200, Note_on_c, 6, 69, 92
8, 76280, Note_off_c, 6, 69, 64
8, 76440, Note_on_c, 6, 76, 92
8, 76680, Note_off_c, 6, 76, 64
8, 76680, Note_on_c, 6, 74, 92
8, 76920, Note_off_c, 6, 74, 64
8, 76920, Note_on_c, 6, 73, 92
8, 77160, Note_off_c, 6, 73, 64
8, 77160, Note_on_c, 6, 71, 92
8, 77240, Note_off_c, 6, 71, 64
8, 77640, Note_on_c, 6, 69, 92
8, 77720, Note_off_c, 6, 69, 64
8, 78120, Note_on_c, 6, 68, 92
8, 78200, Note_off_c, 6, 68, 64
8, 80340, Note_on_c, 6, 57, 45
8, 80420, Note_off_c, 6, 57, 64
8, 80580, Note_on_c, 6, 59, 45
8, 80660, Note_off_c, 6, 59, 64
8, 80820, Note_on_c, 6, 61, 45
8, 80900, Note_off_c, 6, 61, 64
8, 81060, Note_on_c, 6, 62, 45
8, 81140, Note_off_c, 6, 62, 64
8, 81300, Note_on_c, 6, 64, 45
8, 81380, Note_off_c, 6, 64, 64
8, 81540, Note_on_c, 6, 66, 45
8, 81620, Note_off_c, 6, 66, 64
8, 82260, Note_on_c, 6, 66, 45
8, 82340, Note_off_c, 6, 66, 64
8, 82500, Note_on_c, 6, 64, 45
8, 82580, Note_off_c, 6, 64, 64
8, 82740, Note_on_c, 6, 62, 45
8, 82820, Note_off_c, 6, 62, 64
8, 82980, Note_on_c, 6, 61, 45
8, 83060, Note_off_c, 6, 61, 64
8, 83220, Note_on_c, 6, 59, 45
8, 83300, Note_off_c, 6, 59, 64
8, 83460, Note_on_c, 6, 57, 45
8, 83540, Note_off_c, 6, 57, 64
8, 84180, Note_on_c, 6, 57, 30
8, 84260, Note_off_c, 6, 57, 64
8, 84420, Note_on_c, 6, 59, 30
8, 84500, Note_off_c, 6, 59, 64
8, 84660, Note_on_c, 6, 61, 30
8, 84740, Note_off_c, 6, 61, 64
8, 84900, Note_on_c, 6, 62, 30
8, 84980, Note_off_c, 6, 62, 64
8, 85140, Note_on_c, 6, 64, 30
8, 85220, Note_off_c, 6, 64, 64
8, 85380, Note_on_c, 6, 66, 30
8, 85460, Note_off_c, 6, 66, 64
8, 86100, Note_on_c, 6, 66, 30
8, 86180, Note_off_c, 6, 66, 64
8, 86340, Note_on_c, 6, 64, 30
8, 86420, Note_off_c, 6, 64, 64
8, 86580, Note_on_c, 6, 62, 30
8, 86660, Note_off_c, 6, 62, 64
8, 86820, Note_on_c, 6, 61, 30
8, 86900, Note_off_c, 6, 61, 64
8, 87060, Note_on_c, 6, 59, 30
8, 87140, Note_off_c, 6, 59, 64
8, 87300, Note_on_c, 6, 57, 30
8, 87380, Note_off_c, 6, 57, 64
8, 88020, Note_on_c, 6, 69, 92
8, 88100, Note_off_c, 6, 69, 64
8, 88260, Note_on_c, 6, 71, 92
8, 88340, Note_off_c, 6, 71, 64
8, 88500, Note_on_c, 6, 73, 92
8, 88580, Note_off_c, 6, 73, 64
8, 88740, Note_on_c, 6, 73, 92
8, 88980, Note_off_c, 6, 73, 64
8, 88980, Note_on_c, 6, 74, 92
8, 89215, Note_off_c, 6, 74, 64
8, 89220, Note_on_c, 6, 74, 92
8, 89935, Note_off_c, 6, 74, 64
8, 89940, Note_on_c, 6, 74, 92
8, 90020, Note_off_c, 6, 74, 64
8, 90180, Note_on_c, 6, 73, 92
8, 90300, Note_off_c, 6, 73, 64
8, 90300, Note_on_c, 6, 71, 92
8, 90420, Note_off_c, 6, 71, 64
8, 90420, Note_on_c, 6, 69, 92
8, 90500, Note_off_c, 6, 69, 64
8, 90540, Note_on_c, 6, 68, 92
8, 90620, Note_off_c, 6, 68, 64
8, 90660, Note_on_c, 6, 76, 92
8, 90895, Note_off_c, 6, 76, 64
8, 91200, Note_on_c, 6, 76, 92
8, 91915, Note_off_c, 6, 76, 64
8, 91920, Note_on_c, 6, 69, 92
8, 92000, Note_off_c, 6, 69, 64
8, 92160, Note_on_c, 6, 71, 92
8, 92240, Note_off_c, 6, 71, 64
8, 92400, Note_on_c, 6, 73, 92
8, 92480, Note_off_c, 6, 73, 64
8, 92640, Note_on_c, 6, 73, 92
8, 92880, Note_off_c, 6, 73, 64
8, 92880, Note_on_c, 6, 74, 92
8, 93115, Note_off_c, 6, 74, 64
8, 93120, Note_on_c, 6, 74, 92
8, 93835, Note_off_c, 6, 74, 64
8, 93840, Note_on_c, 6, 74, 92
8, 93920, Note_off_c, 6, 74, 64
8, 94080, Note_on_c, 6, 73, 92
8, 94200, Note_off_c, 6, 73, 64
8, 94200, Note_on_c, 6, 71, 92
8, 94320, Note_off_c, 6, 71, 64
8, 94320, Note_on_c, 6, 69, 92
8, 94440, Note_off_c, 6, 69, 64
8, 94440, Note_on_c, 6, 68, 92
8, 94560, Note_off_c, 6, 68, 64
8, 94560, Note_on_c, 6, 76, 92
8, 94795, Note_off_c, 6, 76, 64
8, 95100, Note_on_c, 6, 76, 92
8, 95815, Note_off_c, 6, 76, 64
8, 95820, Note_on_c, 6, 76, 92
8, 95900, Note_off_c, 6, 76, 64
8, 96060, Note_on_c, 6, 73, 92
8, 96140, Note_off_c, 6, 73, 64
8, 96300, Note_on_c, 6, 69, 92
8, 96380, Note_off_c, 6, 69, 64
8, 96540, Note_on_c, 6, 69, 92
8, 96775, Note_off_c, 6, 69, 64
8, 97080, Note_on_c, 6, 69, 92
8, 97795, Note_off_c, 6, 69, 64
8, 97800, Note_on_c, 6, 66, 92
8, 97880, Note_off_c, 6, 66, 64
8, 98040, Note_on_c, 6, 62, 92
8, 98120, Note_off_c, 6, 62, 64
8, 98280, Note_on_c, 6, 59, 92
8, 98360, Note_off_c, 6, 59, 64
8, 98520, Note_on_c, 6, 61, 92
8, 98920, Note_off_c, 6, 61, 64
8, 99000, Note_on_c, 6, 69, 92
8, 99115, Note_off_c, 6, 69, 64
8, 99120, Note_on_c, 6, 69, 92
8, 99235, Note_off_c, 6, 69, 64
8, 99240, Note_on_c, 6, 69, 92
8, 99355, Note_off_c, 6, 69, 64
8, 99360, Note_on_c, 6, 69, 92
8, 99475, Note_off_c, 6, 69, 64
8, 99480, Note_on_c, 6, 69, 92
8, 99595, Note_off_c, 6, 69, 64
8, 99600, Note_on_c, 6, 69, 90
8, 99715, Note_off_c, 6, 69, 64
8, 99720, Note_on_c, 6, 69, 88
8, 99835, Note_off_c, 6, 69, 64
8, 99840, Note_on_c, 6, 69, 86
8, 99955, Note_off_c, 6, 69, 64
8, 99960, Note_on_c, 6, 68, 84
8, 100075, Note_off_c, 6, 68, 64
8, 100080, Note_on_c, 6, 68, 82
8, 100195, Note_off_c, 6, 68, 64
8, 100200, Note_on_c, 6, 68, 80
8, 100315, Note_off_c, 6, 68, 64
8, 100320, Note_on_c, 6, 68, 78
8, 100435, Note_off_c, 6, 68, 64
8, 100440, Note_on_c, 6, 69, 75
8, 100840, Note_off_c, 6, 69, 64
8, 101400, Note_on_c, 6, 64, 75
8, 101800, Note_off_c, 6, 64, 64
8, 102360, Note_on_c, 6, 69, 75
8, 102760, Note_off_c, 6, 69, 64
8, 103320, Note_on_c, 6, 69, 75
8, 103400, Note_off_c, 6, 69, 64
8, 103560, Note_on_c, 6, 69, 75
8, 103795, Note_off_c, 6, 69, 64
8, 103800, Note_on_c, 6, 69, 75
8, 104035, Note_off_c, 6, 69, 64
8, 104040, Note_on_c, 6, 69, 75
8, 104275, Note_off_c, 6, 69, 64
8, 104280, Note_on_c, 6, 69, 75
8, 104680, Note_off_c, 6, 69, 64
8, 105240, Note_on_c, 6, 69, 75
8, 105640, Note_off_c, 6, 69, 64
8, 105720, Note_on_c, 6, 69, 75
8, 106120, Note_off_c, 6, 69, 64
8, 106200, Note_on_c, 6, 69, 75
8, 106315, Note_off_c, 6, 69, 64
8, 106320, Note_on_c, 6, 69, 75
8, 106435, Note_off_c, 6, 69, 64
8, 106440, Note_on_c, 6, 69, 75
8, 106555, Note_off_c, 6, 69, 64
8, 106560, Note_on_c, 6, 69, 75
8, 106675, Note_off_c, 6, 69, 64
8, 106680, Note_on_c, 6, 69, 75
8, 106795, Note_off_c, 6, 69, 64
8, 106800, Note_on_c, 6, 69, 75
8, 106915, Note_off_c, 6, 69, 64
8, 106920, Note_on_c, 6, 69, 75
8, 107035, Note_off_c, 6, 69, 64
8, 107040, Note_on_c, 6, 69, 75
8, 107155, Note_off_c, 6, 69, 64
8, 107160, Note_on_c, 6, 68, 75
8, 107275, Note_off_c, 6, 68, 64
8, 107280, Note_on_c, 6, 68, 77
8, 107395, Note_off_c, 6, 68, 64
8, 107400, Note_on_c, 6, 68, 79
8, 107515, Note_off_c, 6, 68, 64
8, 107520, Note_on_c, 6, 68, 81
8, 107635, Note_off_c, 6, 68, 64
8, 107640, Note_on_c, 6, 68, 83
8, 107755, Note_off_c, 6, 68, 64
8, 107760, Note_on_c, 6, 68, 85
8, 107875, Note_off_c, 6, 68, 64
8, 107880, Note_on_c, 6, 68, 87
8, 107995, Note_off_c, 6, 68, 64
8, 108000, Note_on_c, 6, 68, 89
8, 108115, Note_off_c, 6, 68, 64
8, 108120, Note_on_c, 6, 69, 92
8, 108200, Note_off_c, 6, 69, 64
8, 108360, Note_on_c, 6, 73, 92
8, 108600, Note_off_c, 6, 73, 64
8, 108600, Note_on_c, 6, 71, 92
8, 108680, Note_off_c, 6, 71, 64
8, 108840, Note_on_c, 6, 74, 92
8, 108920, Note_off_c, 6, 74, 64
8, 109080, Note_on_c, 6, 73, 92
8, 109160, Note_off_c, 6, 73, 64
8, 109320, Note_on_c, 6, 73, 92
8, 109560, Note_off_c, 6, 73, 64
8, 109560, Note_on_c, 6, 71, 92
8, 109640, Note_off_c, 6, 71, 64
8, 109800, Note_on_c, 6, 74, 92
8, 109880, Note_off_c, 6, 74, 64
8, 110040, Note_on_c, 6, 73, 92
8, 110275, Note_off_c, 6, 73, 64
8, 110520, Note_on_c, 6, 64, 92
8, 110520, Note_on_c, 6, 69, 92
8, 110755, Note_off_c, 6, 69, 64
8, 110755, Note_off_c, 6, 64, 64
8, 111000, Note_on_c, 6, 64, 92
8, 111000, Note_on_c, 6, 69, 92
8, 111400, Note_off_c, 6, 69, 64
8, 111400, Note_off_c, 6, 64, 64
8, 112080, Note_on_c, 6, 69, 92
8, 112720, Note_off_c, 6, 69, 64
8, 112800, Note_on_c, 6, 69, 92
8, 112880, Note_off_c, 6, 69, 64
8, 113040, Note_on_c, 6, 67, 92
8, 113120, Note_off_c, 6, 67, 64
8, 113280, Note_on_c, 6, 66, 92
8, 113360, Note_off_c, 6, 66, 64
8, 113520, Note_on_c, 6, 67, 92
8, 113600, Note_off_c, 6, 67, 64
8, 113760, Note_on_c, 6, 64, 92
8, 113840, Note_off_c, 6, 64, 64
8, 114000, Note_on_c, 6, 66, 92
8, 114080, Note_off_c, 6, 66, 64
8, 114240, Note_on_c, 6, 64, 92
8, 114320, Note_off_c, 6, 64, 64
8, 114480, Note_on_c, 6, 66, 92
8, 114560, Note_off_c, 6, 66, 64
8, 114720, Note_on_c, 6, 62, 92
8, 114800, Note_off_c, 6, 62, 64
8, 114960, Note_on_c, 6, 64, 92
8, 115040, Note_off_c, 6, 64, 64
8, 115200, Note_on_c, 6, 62, 92
8, 115280, Note_off_c, 6, 62, 64
8, 115440, Note_on_c, 6, 64, 92
8, 115520, Note_off_c, 6, 64, 64
8, 115680, Note_on_c, 6, 61, 92
8, 115760, Note_off_c, 6, 61, 64
8, 115920, Note_on_c, 6, 62, 92
8, 116000, Note_off_c, 6, 62, 64
8, 116160, Note_on_c, 6, 64, 92
8, 116240, Note_off_c, 6, 64, 64
8, 116400, Note_on_c, 6, 66, 92
8, 116480, Note_off_c, 6, 66, 64
8, 116640, Note_on_c, 6, 64, 92
8, 116720, Note_off_c, 6, 64, 64
8, 116880, Note_on_c, 6, 62, 92
8, 117280, Note_off_c, 6, 62, 64
8, 117360, Note_on_c, 6, 74, 92
8, 117920, Note_off_c, 6, 74, 64
8, 118080, Note_on_c, 6, 72, 92
8, 118160, Note_off_c, 6, 72, 64
8, 118320, Note_on_c, 6, 74, 92
8, 118400, Note_off_c, 6, 74, 64
8, 118560, Note_on_c, 6, 71, 92
8, 118640, Note_off_c, 6, 71, 64
8, 118800, Note_on_c, 6, 66, 92
8, 118880, Note_off_c, 6, 66, 64
8, 119040, Note_on_c, 6, 67, 92
8, 119120, Note_off_c, 6, 67, 64
8, 119280, Note_on_c, 6, 66, 92
8, 119360, Note_off_c, 6, 66, 64
8, 119520, Note_on_c, 6, 62, 92
8, 119520, Note_on_c, 6, 69, 92
8, 119600, Note_off_c, 6, 69, 64
8, 119600, Note_off_c, 6, 62, 64
8, 119760, Note_on_c, 6, 67, 92
8, 120160, Note_off_c, 6, 67, 64
8, 120720, Note_on_c, 6, 72, 92
8, 121680, Note_off_c, 6, 72, 64
8, 121680, Note_on_c, 6, 71, 92
8, 122520, Note_off_c, 6, 71, 64
8, 124560, Note_on_c, 6, 83, 92
8, 125200, Note_off_c, 6, 83, 64
8, 125280, Note_on_c, 6, 83, 92
8, 125360, Note_off_c, 6, 83, 64
8, 125520, Note_on_c, 6, 81, 92
8, 125600, Note_off_c, 6, 81, 64
8, 125760, Note_on_c, 6, 79, 92
8, 125840, Note_off_c, 6, 79, 64
8, 126000, Note_on_c, 6, 81, 92
8, 126080, Note_off_c, 6, 81, 64
8, 126240, Note_on_c, 6, 78, 92
8, 126320, Note_off_c, 6, 78, 64
8, 126480, Note_on_c, 6, 79, 92
8, 126560, Note_off_c, 6, 79, 64
8, 126960, Note_on_c, 6, 76, 92
8, 127440, Note_off_c, 6, 76, 64
8, 127440, Note_on_c, 6, 78, 92
8, 127920, Note_off_c, 6, 78, 64
8, 127920, Note_on_c, 6, 80, 92
8, 128400, Note_off_c, 6, 80, 64
8, 128400, Note_on_c, 6, 81, 92
8, 128480, Note_off_c, 6, 81, 64
8, 130320, Note_on_c, 6, 86, 92
8, 130960, Note_off_c, 6, 86, 64
8, 131040, Note_on_c, 6, 86, 92
8, 131120, Note_off_c, 6, 86, 64
8, 131280, Note_on_c, 6, 85, 92
8, 131360, Note_off_c, 6, 85, 64
8, 131520, Note_on_c, 6, 83, 92
8, 131600, Note_off_c, 6, 83, 64
8, 131760, Note_on_c, 6, 85, 92
8, 131840, Note_off_c, 6, 85, 64
8, 132000, Note_on_c, 6, 81, 92
8, 132080, Note_off_c, 6, 81, 64
8, 132240, Note_on_c, 6, 83, 92
8, 132880, Note_off_c, 6, 83, 64
8, 132960, Note_on_c, 6, 83, 92
8, 133040, Note_off_c, 6, 83, 64
8, 133200, Note_on_c, 6, 81, 92
8, 133840, Note_off_c, 6, 81, 64
8, 133920, Note_on_c, 6, 78, 92
8, 134000, Note_off_c, 6, 78, 64
8, 134160, Note_on_c, 6, 76, 92
8, 134220, Note_off_c, 6, 76, 64
8, 134220, Note_on_c, 6, 78, 92
8, 134280, Note_off_c, 6, 78, 64
8, 134280, Note_on_c, 6, 76, 92
8, 134340, Note_off_c, 6, 76, 64
8, 134340, Note_on_c, 6, 78, 92
8, 134400, Note_off_c, 6, 78, 64
8, 134400, Note_on_c, 6, 76, 92
8, 134460, Note_off_c, 6, 76, 64
8, 134460, Note_on_c, 6, 78, 92
8, 134520, Note_off_c, 6, 78, 64
8, 134520, Note_on_c, 6, 76, 92
8, 134580, Note_off_c, 6, 76, 64
8, 134580, Note_on_c, 6, 78, 92
8, 134640, Note_off_c, 6, 78, 64
8, 134640, Note_on_c, 6, 76, 92
8, 134700, Note_off_c, 6, 76, 64
8, 134700, Note_on_c, 6, 78, 92
8, 134760, Note_off_c, 6, 78, 64
8, 134760, Note_on_c, 6, 76, 92
8, 134820, Note_off_c, 6, 76, 64
8, 134820, Note_on_c, 6, 78, 92
8, 134880, Note_off_c, 6, 78, 64
8, 134880, Note_on_c, 6, 76, 92
8, 134940, Note_off_c, 6, 76, 64
8, 134940, Note_on_c, 6, 78, 92
8, 135000, Note_off_c, 6, 78, 64
8, 135000, Note_on_c, 6, 76, 92
8, 135060, Note_off_c, 6, 76, 64
8, 135060, Note_on_c, 6, 78, 92
8, 135120, Note_off_c, 6, 78, 64
8, 135120, Note_on_c, 6, 77, 92
8, 135520, Note_off_c, 6, 77, 64
8, 136140, Note_on_c, 6, 71, 92
8, 136540, Note_off_c, 6, 71, 64
8, 137160, Note_on_c, 6, 73, 92
8, 137560, Note_off_c, 6, 73, 64
8, 139080, Note_on_c, 6, 69, 45
8, 139160, Note_off_c, 6, 69, 64
8, 139560, Note_on_c, 6, 74, 45
8, 139640, Note_off_c, 6, 74, 64
8, 140040, Note_on_c, 6, 71, 45
8, 140120, Note_off_c, 6, 71, 64
8, 141000, Note_on_c, 6, 71, 45
8, 141080, Note_off_c, 6, 71, 64
8, 141480, Note_on_c, 6, 67, 45
8, 141560, Note_off_c, 6, 67, 64
8, 141960, Note_on_c, 6, 66, 45
8, 142040, Note_off_c, 6, 66, 64
8, 142980, Note_on_c, 6, 66, 75
8, 143060, Note_off_c, 6, 66, 64
8, 143220, Note_on_c, 6, 66, 75
8, 143300, Note_off_c, 6, 66, 64
8, 143460, Note_on_c, 6, 66, 75
8, 143540, Note_off_c, 6, 66, 64
8, 143700, Note_on_c, 6, 66, 75
8, 143780, Note_off_c, 6, 66, 64
8, 143940, Note_on_c, 6, 66, 75
8, 144020, Note_off_c, 6, 66, 64
8, 144180, Note_on_c, 6, 66, 75
8, 144260, Note_off_c, 6, 66, 64
8, 144420, Note_on_c, 6, 66, 75
8, 144500, Note_off_c, 6, 66, 64
8, 144660, Note_on_c, 6, 66, 75
8, 144740, Note_off_c, 6, 66, 64
8, 144900, Note_on_c, 6, 67, 75
8, 144980, Note_off_c, 6, 67, 64
8, 145140, Note_on_c, 6, 67, 75
8, 145220, Note_off_c, 6, 67, 64
8, 145380, Note_on_c, 6, 67, 75
8, 145460, Note_off_c, 6, 67, 64
8, 145620, Note_on_c, 6, 67, 75
8, 145700, Note_off_c, 6, 67, 64
8, 145860, Note_on_c, 6, 66, 75
8, 146095, Note_off_c, 6, 66, 64
8, 146100, Note_on_c, 6, 66, 75
8, 146180, Note_off_c, 6, 66, 64
8, 146340, Note_on_c, 6, 66, 75
8, 146420, Note_off_c, 6, 66, 64
8, 146580, Note_on_c, 6, 66, 75
8, 146660, Note_off_c, 6, 66, 64
8, 146820, Note_on_c, 6, 66, 75
8, 146900, Note_off_c, 6, 66, 64
8, 147060, Note_on_c, 6, 66, 75
8, 147140, Note_off_c, 6, 66, 64
8, 147300, Note_on_c, 6, 66, 75
8, 147380, Note_off_c, 6, 66, 64
8, 147540, Note_on_c, 6, 66, 75
8, 147620, Note_off_c, 6, 66, 64
8, 147780, Note_on_c, 6, 69, 75
8, 147860, Note_off_c, 6, 69, 64
8, 148020, Note_on_c, 6, 69, 75
8, 148100, Note_off_c, 6, 69, 64
8, 148260, Note_on_c, 6, 69, 75
8, 148340, Note_off_c, 6, 69, 64
8, 148500, Note_on_c, 6, 69, 75
8, 148580, Note_off_c, 6, 69, 64
8, 148740, Note_on_c, 6, 69, 75
8, 148820, Note_off_c, 6, 69, 64
8, 148980, Note_on_c, 6, 69, 75
8, 149060, Note_off_c, 6, 69, 64
8, 149220, Note_on_c, 6, 69, 75
8, 149300, Note_off_c, 6, 69, 64
8, 149460, Note_on_c, 6, 69, 75
8, 149540, Note_off_c, 6, 69, 64
8, 149700, Note_on_c, 6, 69, 75
8, 149935, Note_off_c, 6, 69, 64
8, 149940, Note_on_c, 6, 69, 75
8, 150020, Note_off_c, 6, 69, 64
8, 150180, Note_on_c, 6, 69, 75
8, 150260, Note_off_c, 6, 69, 64
8, 150420, Note_on_c, 6, 69, 75
8, 150500, Note_off_c, 6, 69, 64
8, 150660, Note_on_c, 6, 67, 92
8, 150740, Note_off_c, 6, 67, 64
8, 150780, Note_on_c, 6, 69, 92
8, 150860, Note_off_c, 6, 69, 64
8, 150900, Note_on_c, 6, 67, 92
8, 150980, Note_off_c, 6, 67, 64
8, 151020, Note_on_c, 6, 66, 92
8, 151100, Note_off_c, 6, 66, 64
8, 151140, Note_on_c, 6, 67, 92
8, 151220, Note_off_c, 6, 67, 64
8, 151260, Note_on_c, 6, 64, 92
8, 151340, Note_off_c, 6, 64, 64
8, 151380, Note_on_c, 6, 69, 92
8, 151460, Note_off_c, 6, 69, 64
8, 151500, Note_on_c, 6, 67, 92
8, 151580, Note_off_c, 6, 67, 64
8, 151620, Note_on_c, 6, 66, 92
8, 151700, Note_off_c, 6, 66, 64
8, 151740, Note_on_c, 6, 67, 92
8, 151820, Note_off_c, 6, 67, 64
8, 151860, Note_on_c, 6, 69, 92
8, 151940, Note_off_c, 6, 69, 64
8, 151980, Note_on_c, 6, 67, 92
8, 152060, Note_off_c, 6, 67, 64
8, 152100, Note_on_c, 6, 66, 92
8, 152180, Note_off_c, 6, 66, 64
8, 152220, Note_on_c, 6, 64, 92
8, 152300, Note_off_c, 6, 64, 64
8, 152340, Note_on_c, 6, 66, 92
8, 152420, Note_off_c, 6, 66, 64
8, 152460, Note_on_c, 6, 62, 92
8, 152540, Note_off_c, 6, 62, 64
8, 152580, Note_on_c, 6, 61, 92
8, 152660, Note_off_c, 6, 61, 64
8, 152700, Note_on_c, 6, 62, 92
8, 152780, Note_off_c, 6, 62, 64
8, 152820, Note_on_c, 6, 61, 92
8, 152900, Note_off_c, 6, 61, 64
8, 152940, Note_on_c, 6, 59, 92
8, 153020, Note_off_c, 6, 59, 64
8, 153060, Note_on_c, 6, 57, 92
8, 153140, Note_off_c, 6, 57, 64
8, 153180, Note_on_c, 6, 61, 92
8, 153260, Note_off_c, 6, 61, 64
8, 153300, Note_on_c, 6, 62, 92
8, 153380, Note_off_c, 6, 62, 64
8, 153420, Note_on_c, 6, 64, 92
8, 153500, Note_off_c, 6, 64, 64
8, 153540, Note_on_c, 6, 62, 92
8, 153620, Note_off_c, 6, 62, 64
8, 153660, Note_on_c, 6, 64, 92
8, 153740, Note_off_c, 6, 64, 64
8, 153780, Note_on_c, 6, 66, 92
8, 153860, Note_off_c, 6, 66, 64
8, 153900, Note_on_c, 6, 67, 92
8, 153980, Note_off_c, 6, 67, 64
8, 154020, Note_on_c, 6, 69, 92
8, 154100, Note_off_c, 6, 69, 64
8, 154140, Note_on_c, 6, 71, 92
8, 154220, Note_off_c, 6, 71, 64
8, 154260, Note_on_c, 6, 73, 92
8, 154340, Note_off_c, 6, 73, 64
8, 154380, Note_on_c, 6, 74, 92
8, 154460, Note_off_c, 6, 74, 64
8, 154500, Note_on_c, 6, 67, 92
8, 154580, Note_off_c, 6, 67, 64
8, 154620, Note_on_c, 6, 69, 92
8, 154700, Note_off_c, 6, 69, 64
8, 154740, Note_on_c, 6, 67, 92
8, 154820, Note_off_c, 6, 67, 64
8, 154860, Note_on_c, 6, 66, 92
8, 154940, Note_off_c, 6, 66, 64
8, 154980, Note_on_c, 6, 67, 92
8, 155060, Note_off_c, 6, 67, 64
8, 155100, Note_on_c, 6, 64, 92
8, 155180, Note_off_c, 6, 64, 64
8, 155220, Note_on_c, 6, 69, 92
8, 155300, Note_off_c, 6, 69, 64
8, 155340, Note_on_c, 6, 67, 92
8, 155420, Note_off_c, 6, 67, 64
8, 155460, Note_on_c, 6, 66, 92
8, 155540, Note_off_c, 6, 66, 64
8, 155580, Note_on_c, 6, 67, 92
8, 155660, Note_off_c, 6, 67, 64
8, 155700, Note_on_c, 6, 69, 92
8, 155780, Note_off_c, 6, 69, 64
8, 155820, Note_on_c, 6, 67, 92
8, 155900, Note_off_c, 6, 67, 64
8, 155940, Note_on_c, 6, 66, 92
8, 156020, Note_off_c, 6, 66, 64
8, 156060, Note_on_c, 6, 64, 92
8, 156140, Note_off_c, 6, 64, 64
8, 156180, Note_on_c, 6, 66, 92
8, 156260, Note_off_c, 6, 66, 64
8, 156300, Note_on_c, 6, 62, 92
8, 156380, Note_off_c, 6, 62, 64
8, 156420, Note_on_c, 6, 61, 92
8, 156500, Note_off_c, 6, 61, 64
8, 156540, Note_on_c, 6, 62, 92
8, 156620, Note_off_c, 6, 62, 64
8, 156660, Note_on_c, 6, 61, 92
8, 156740, Note_off_c, 6, 61, 64
8, 156780, Note_on_c, 6, 59, 92
8, 156860, Note_off_c, 6, 59, 64
8, 156900, Note_on_c, 6, 57, 92
8, 156980, Note_off_c, 6, 57, 64
8, 157020, Note_on_c, 6, 61, 92
8, 157100, Note_off_c, 6, 61, 64
8, 157140, Note_on_c, 6, 62, 92
8, 157220, Note_off_c, 6, 62, 64
8, 157260, Note_on_c, 6, 64, 92
8, 157340, Note_off_c, 6, 64, 64
8, 157380, Note_on_c, 6, 62, 92
8, 157460, Note_off_c, 6, 62, 64
8, 157500, Note_on_c, 6, 64, 92
8, 157580, Note_off_c, 6, 64, 64
8, 157620, Note_on_c, 6, 66, 92
8, 157700, Note_off_c, 6, 66, 64
8, 157740, Note_on_c, 6, 67, 92
8, 157820, Note_off_c, 6, 67, 64
8, 157860, Note_on_c, 6, 69, 92
8, 157940, Note_off_c, 6, 69, 64
8, 157980, Note_on_c, 6, 71, 92
8, 158060, Note_off_c, 6, 71, 64
8, 158100, Note_on_c, 6, 73, 92
8, 158180, Note_off_c, 6, 73, 64
8, 158220, Note_on_c, 6, 74, 92
8, 158300, Note_off_c, 6, 74, 64
8, 158340, Note_on_c, 6, 62, 92
8, 158740, Note_off_c, 6, 62, 64
8, 158820, Note_on_c, 6, 64, 92
8, 158880, Note_off_c, 6, 64, 64
8, 158880, Note_on_c, 6, 66, 92
8, 158940, Note_off_c, 6, 66, 64
8, 158940, Note_on_c, 6, 64, 92
8, 159000, Note_off_c, 6, 64, 64
8, 159000, Note_on_c, 6, 66, 92
8, 159060, Note_off_c, 6, 66, 64
8, 159060, Note_on_c, 6, 64, 92
8, 159120, Note_off_c, 6, 64, 64
8, 159120, Note_on_c, 6, 66, 92
8, 159180, Note_off_c, 6, 66, 64
8, 159180, Note_on_c, 6, 62, 92
8, 159240, Note_off_c, 6, 62, 64
8, 159240, Note_on_c, 6, 64, 92
8, 159300, Note_off_c, 6, 64, 64
8, 159300, Note_on_c, 6, 62, 92
8, 159380, Note_off_c, 6, 62, 64
8, 159540, Note_on_c, 6, 74, 92
8, 159780, Note_off_c, 6, 74, 64
8, 159780, Note_on_c, 6, 76, 92
8, 160020, Note_off_c, 6, 76, 64
8, 160020, Note_on_c, 6, 78, 92
8, 160260, Note_off_c, 6, 78, 64
8, 160260, Note_on_c, 6, 76, 92
8, 160340, Note_off_c, 6, 76, 64
8, 160740, Note_on_c, 6, 74, 92
8, 160820, Note_off_c, 6, 74, 64
8, 161220, Note_on_c, 6, 73, 92
8, 161300, Note_off_c, 6, 73, 64
8, 163380, Note_on_c, 6, 62, 45
8, 163460, Note_off_c, 6, 62, 64
8, 163620, Note_on_c, 6, 64, 45
8, 163700, Note_off_c, 6, 64, 64
8, 163860, Note_on_c, 6, 66, 45
8, 163940, Note_off_c, 6, 66, 64
8, 164100, Note_on_c, 6, 67, 45
8, 164180, Note_off_c, 6, 67, 64
8, 164340, Note_on_c, 6, 69, 45
8, 164420, Note_off_c, 6, 69, 64
8, 164580, Note_on_c, 6, 71, 45
8, 164660, Note_off_c, 6, 71, 64
8, 165300, Note_on_c, 6, 71, 45
8, 165380, Note_off_c, 6, 71, 64
8, 165540, Note_on_c, 6, 69, 45
8, 165620, Note_off_c, 6, 69, 64
8, 165780, Note_on_c, 6, 67, 45
8, 165860, Note_off_c, 6, 67, 64
8, 166020, Note_on_c, 6, 66, 45
8, 166100, Note_off_c, 6, 66, 64
8, 166260, Note_on_c, 6, 64, 45
8, 166340, Note_off_c, 6, 64, 64
8, 166500, Note_on_c, 6, 62, 45
8, 166580, Note_off_c, 6, 62, 64
8, 167220, Note_on_c, 6, 62, 30
8, 167300, Note_off_c, 6, 62, 64
8, 167460, Note_on_c, 6, 64, 30
8, 167540, Note_off_c, 6, 64, 64
8, 167700, Note_on_c, 6, 66, 30
8, 167780, Note_off_c, 6, 66, 64
8, 167940, Note_on_c, 6, 67, 30
8, 168020, Note_off_c, 6, 67, 64
8, 168180, Note_on_c, 6, 69, 30
8, 168260, Note_off_c, 6, 69, 64
8, 168420, Note_on_c, 6, 71, 30
8, 168500, Note_off_c, 6, 71, 64
8, 169140, Note_on_c, 6, 71, 30
8, 169220, Note_off_c, 6, 71, 64
8, 169380, Note_on_c, 6, 69, 30
8, 169460, Note_off_c, 6, 69, 64
8, 169620, Note_on_c, 6, 67, 30
8, 169700, Note_off_c, 6, 67, 64
8, 169860, Note_on_c, 6, 66, 30
8, 169940, Note_off_c, 6, 66, 64
8, 170100, Note_on_c, 6, 64, 30
8, 170180, Note_off_c, 6, 64, 64
8, 170340, Note_on_c, 6, 62, 30
8, 170420, Note_off_c, 6, 62, 64
8, 171060, Note_on_c, 6, 62, 92
8, 171140, Note_off_c, 6, 62, 64
8, 171300, Note_on_c, 6, 61, 92
8, 171380, Note_off_c, 6, 61, 64
8, 171540, Note_on_c, 6, 62, 92
8, 171620, Note_off_c, 6, 62, 64
8, 171780, Note_on_c, 6, 62, 92
8, 172020, Note_off_c, 6, 62, 64
8, 172020, Note_on_c, 6, 64, 92
8, 172255, Note_off_c, 6, 64, 64
8, 172260, Note_on_c, 6, 64, 92
8, 172975, Note_off_c, 6, 64, 64
8, 172980, Note_on_c, 6, 67, 92
8, 173060, Note_off_c, 6, 67, 64
8, 173220, Note_on_c, 6, 66, 92
8, 173340, Note_off_c, 6, 66, 64
8, 173340, Note_on_c, 6, 64, 92
8, 173460, Note_off_c, 6, 64, 64
8, 173460, Note_on_c, 6, 62, 92
8, 173580, Note_off_c, 6, 62, 64
8, 173580, Note_on_c, 6, 61, 92
8, 173700, Note_off_c, 6, 61, 64
8, 173700, Note_on_c, 6, 69, 92
8, 173935, Note_off_c, 6, 69, 64
8, 174240, Note_on_c, 6, 69, 92
8, 174955, Note_off_c, 6, 69, 64
8, 174960, Note_on_c, 6, 62, 92
8, 175040, Note_off_c, 6, 62, 64
8, 175200, Note_on_c, 6, 61, 92
8, 175280, Note_off_c, 6, 61, 64
8, 175440, Note_on_c, 6, 62, 92
8, 175520, Note_off_c, 6, 62, 64
8, 175680, Note_on_c, 6, 62, 92
8, 175920, Note_off_c, 6, 62, 64
8, 175920, Note_on_c, 6, 64, 92
8, 176155, Note_off_c, 6, 64, 64
8, 176160, Note_on_c, 6, 64, 92
8, 176875, Note_off_c, 6, 64, 64
8, 176880, Note_on_c, 6, 67, 92
8, 176960, Note_off_c, 6, 67, 64
8, 177120, Note_on_c, 6, 66, 92
8, 177240, Note_off_c, 6, 66, 64
8, 177240, Note_on_c, 6, 64, 92
8, 177360, Note_off_c, 6, 64, 64
8, 177360, Note_on_c, 6, 62, 92
8, 177480, Note_off_c, 6, 62, 64
8, 177480, Note_on_c, 6, 61, 92
8, 177600, Note_off_c, 6, 61, 64
8, 177600, Note_on_c, 6, 69, 92
8, 177835, Note_off_c, 6, 69, 64
8, 178140, Note_on_c, 6, 69, 92
8, 178855, Note_off_c, 6, 69, 64
8, 178860, Note_on_c, 6, 69, 92
8, 178940, Note_off_c, 6, 69, 64
8, 179100, Note_on_c, 6, 69, 92
8, 179180, Note_off_c, 6, 69, 64
8, 179340, Note_on_c, 6, 69, 92
8, 179420, Note_off_c, 6, 69, 64
8, 179580, Note_on_c, 6, 67, 92
8, 179815, Note_off_c, 6, 67, 64
8, 180120, Note_on_c, 6, 71, 92
8, 180835, Note_off_c, 6, 71, 64
8, 180840, Note_on_c, 6, 79, 92
8, 180920, Note_off_c, 6, 79, 64
8, 181080, Note_on_c, 6, 74, 92
8, 181160, Note_off_c, 6, 74, 64
8, 181320, Note_on_c, 6, 71, 92
8, 181400, Note_off_c, 6, 71, 64
8, 181560, Note_on_c, 6, 69, 92
8, 181675, Note_off_c, 6, 69, 64
8, 181680, Note_on_c, 6, 69, 92
8, 181795, Note_off_c, 6, 69, 64
8, 181800, Note_on_c, 6, 69, 92
8, 181915, Note_off_c, 6, 69, 64
8, 181920, Note_on_c, 6, 69, 92
8, 182035, Note_off_c, 6, 69, 64
8, 182040, Note_on_c, 6, 74, 92
8, 182155, Note_off_c, 6, 74, 64
8, 182160, Note_on_c, 6, 74, 92
8, 182275, Note_off_c, 6, 74, 64
8, 182280, Note_on_c, 6, 74, 92
8, 182395, Note_off_c, 6, 74, 64
8, 182400, Note_on_c, 6, 74, 92
8, 182515, Note_off_c, 6, 74, 64
8, 182520, Note_on_c, 6, 74, 92
8, 182635, Note_off_c, 6, 74, 64
8, 182640, Note_on_c, 6, 74, 92
8, 182755, Note_off_c, 6, 74, 64
8, 182760, Note_on_c, 6, 74, 92
8, 182875, Note_off_c, 6, 74, 64
8, 182880, Note_on_c, 6, 74, 92
8, 182995, Note_off_c, 6, 74, 64
8, 183000, Note_on_c, 6, 73, 92
8, 183115, Note_off_c, 6, 73, 64
8, 183120, Note_on_c, 6, 73, 92
8, 183235, Note_off_c, 6, 73, 64
8, 183240, Note_on_c, 6, 73, 92
8, 183355, Note_off_c, 6, 73, 64
8, 183360, Note_on_c, 6, 73, 92
8, 183475, Note_off_c, 6, 73, 64
8, 183480, Note_on_c, 6, 74, 75
8, 183880, Note_off_c, 6, 74, 64
8, 184440, Note_on_c, 6, 66, 75
8, 184440, Note_on_c, 6, 69, 75
8, 184840, Note_off_c, 6, 69, 64
8, 184840, Note_off_c, 6, 66, 64
8, 185400, Note_on_c, 6, 69, 75
8, 185400, Note_on_c, 6, 78, 75
8, 185800, Note_off_c, 6, 78, 64
8, 185800, Note_off_c, 6, 69, 64
8, 186360, Note_on_c, 6, 74, 75
8, 186440, Note_off_c, 6, 74, 64
8, 186600, Note_on_c, 6, 74, 75
8, 186835, Note_off_c, 6, 74, 64
8, 186840, Note_on_c, 6, 74, 75
8, 187075, Note_off_c, 6, 74, 64
8, 187080, Note_on_c, 6, 74, 75
8, 187315, Note_off_c, 6, 74, 64
8, 187320, Note_on_c, 6, 74, 75
8, 187720, Note_off_c, 6, 74, 64
8, 188280, Note_on_c, 6, 71, 75
8, 188680, Note_off_c, 6, 71, 64
8, 188760, Note_on_c, 6, 64, 75
8, 189160, Note_off_c, 6, 64, 64
8, 189240, Note_on_c, 6, 57, 75
8, 189240, Note_on_c, 6, 66, 75
8, 189355, Note_off_c, 6, 66, 64
8, 189355, Note_off_c, 6, 57, 64
8, 189360, Note_on_c, 6, 57, 75
8, 189360, Note_on_c, 6, 66, 75
8, 189475, Note_off_c, 6, 66, 64
8, 189475, Note_off_c, 6, 57, 64
8, 189480, Note_on_c, 6, 57, 75
8, 189480, Note_on_c, 6, 66, 75
8, 189595, Note_off_c, 6, 66, 64
8, 189595, Note_off_c, 6, 57, 64
8, 189600, Note_on_c, 6, 57, 75
8, 189600, Note_on_c, 6, 66, 75
8, 189715, Note_off_c, 6, 66, 64
8, 189715, Note_off_c, 6, 57, 64
8, 189720, Note_on_c, 6, 57, 75
8, 189720, Note_on_c, 6, 66, 75
8, 189835, Note_off_c, 6, 66, 64
8, 189835, Note_off_c, 6, 57, 64
8, 189840, Note_on_c, 6, 57, 75
8, 189840, Note_on_c, 6, 66, 75
8, 189955, Note_off_c, 6, 66, 64
8, 189955, Note_off_c, 6, 57, 64
8, 189960, Note_on_c, 6, 57, 75
8, 189960, Note_on_c, 6, 66, 75
8, 190075, Note_off_c, 6, 66, 64
8, 190075, Note_off_c, 6, 57, 64
8, 190080, Note_on_c, 6, 57, 75
8, 190080, Note_on_c, 6, 66, 75
8, 190195, Note_off_c, 6, 66, 64
8, 190195, Note_off_c, 6, 57, 64
8, 190200, Note_on_c, 6, 57, 75
8, 190200, Note_on_c, 6, 67, 75
8, 190315, Note_off_c, 6, 67, 64
8, 190315, Note_off_c, 6, 57, 64
8, 190320, Note_on_c, 6, 57, 75
8, 190320, Note_on_c, 6, 67, 75
8, 190435, Note_off_c, 6, 67, 64
8, 190435, Note_off_c, 6, 57, 64
8, 190440, Note_on_c, 6, 57, 75
8, 190440, Note_on_c, 6, 67, 75
8, 190555, Note_off_c, 6, 67, 64
8, 190555, Note_off_c, 6, 57, 64
8, 190560, Note_on_c, 6, 57, 75
8, 190560, Note_on_c, 6, 67, 75
8, 190675, Note_off_c, 6, 67, 64
8, 190675, Note_off_c, 6, 57, 64
8, 190680, Note_on_c, 6, 57, 75
8, 190680, Note_on_c, 6, 67, 75
8, 190795, Note_off_c, 6, 67, 64
8, 190795, Note_off_c, 6, 57, 64
8, 190800, Note_on_c, 6, 57, 75
8, 190800, Note_on_c, 6, 67, 75
8, 190915, Note_off_c, 6, 67, 64
8, 190915, Note_off_c, 6, 57, 64
8, 190920, Note_on_c, 6, 57, 75
8, 190920, Note_on_c, 6, 67, 75
8, 191035, Note_off_c, 6, 67, 64
8, 191035, Note_off_c, 6, 57, 64
8, 191040, Note_on_c, 6, 57, 75
8, 191040, Note_on_c, 6, 67, 75
8, 191155, Note_off_c, 6, 67, 64
8, 191155, Note_off_c, 6, 57, 64
8, 191160, Note_on_c, 6, 57, 92
8, 191160, Note_on_c, 6, 66, 92
8, 191240, Note_off_c, 6, 66, 64
8, 191240, Note_off_c, 6, 57, 64
8, 191400, Note_on_c, 6, 78, 92
8, 191640, Note_off_c, 6, 78, 64
8, 191640, Note_on_c, 6, 76, 92
8, 191720, Note_off_c, 6, 76, 64
8, 191880, Note_on_c, 6, 69, 92
8, 191880, Note_on_c, 6, 79, 92
8, 191960, Note_off_c, 6, 79, 64
8, 191960, Note_off_c, 6, 69, 64
8, 192120, Note_on_c, 6, 69, 92
8, 192120, Note_on_c, 6, 78, 92
8, 192200, Note_off_c, 6, 78, 64
8, 192200, Note_off_c, 6, 69, 64
8, 192360, Note_on_c, 6, 78, 92
8, 192600, Note_off_c, 6, 78, 64
8, 192600, Note_on_c, 6, 76, 92
8, 192680, Note_off_c, 6, 76, 64
8, 192840, Note_on_c, 6, 69, 92
8, 192840, Note_on_c, 6, 79, 92
8, 192920, Note_off_c, 6, 79, 64
8, 192920, Note_off_c, 6, 69, 64
8, 193080, Note_on_c, 6, 69, 92
8, 193080, Note_on_c, 6, 78, 92
8, 193315, Note_off_c, 6, 78, 64
8, 193315, Note_off_c, 6, 69, 64
8, 193560, Note_on_c, 6, 69, 92
8, 193560, Note_on_c, 6, 78, 92
8, 193960, Note_off_c, 6, 78, 64
8, 193960, Note_off_c, 6, 69, 64
8, 194040, Note_on_c, 6, 69, 92
8, 194040, Note_on_c, 6, 78, 92
8, 194440, Note_off_c, 6, 78, 64
8, 194440, Note_off_c, 6, 69, 64
8, 194440, End_track
9, 0, Start_track
9, 0, MIDI_port, 0
9, 0, Channel_prefix, 7
9, 0, Control_c, 7, 7, 127
9, 0, Control_c, 7, 10, 60
9, 0, Control_c, 7, 91, 124
9, 0, Program_c, 7, 48
9, 0, Note_on_c, 7, 66, 45
9, 80, Note_off_c, 7, 66, 64
9, 480, Note_on_c, 7, 69, 45
9, 560, Note_off_c, 7, 69, 64
9, 960, Note_on_c, 7, 67, 45
9, 1040, Note_off_c, 7, 67, 64
9, 1920, Note_on_c, 7, 64, 45
9, 2000, Note_off_c, 7, 64, 64
9, 2400, Note_on_c, 7, 64, 45
9, 2480, Note_off_c, 7, 64, 64
9, 2880, Note_on_c, 7, 62, 45
9, 2960, Note_off_c, 7, 62, 64
9, 3840, Note_on_c, 7, 62, 75
9, 4075, Note_off_c, 7, 62, 64
9, 4080, Note_on_c, 7, 62, 75
9, 4315, Note_off_c, 7, 62, 64
9, 4320, Note_on_c, 7, 62, 75
9, 4555, Note_off_c, 7, 62, 64
9, 4560, Note_on_c, 7, 62, 75
9, 4795, Note_off_c, 7, 62, 64
9, 4800, Note_on_c, 7, 62, 75
9, 5035, Note_off_c, 7, 62, 64
9, 5040, Note_on_c, 7, 62, 75
9, 5275, Note_off_c, 7, 62, 64
9, 5280, Note_on_c, 7, 62, 75
9, 5515, Note_off_c, 7, 62, 64
9, 5520, Note_on_c, 7, 62, 75
9, 5755, Note_off_c, 7, 62, 64
9, 5760, Note_on_c, 7, 64, 75
9, 6480, Note_off_c, 7, 64, 64
9, 6480, Note_on_c, 7, 62, 75
9, 6600, Note_off_c, 7, 62, 64
9, 6600, Note_on_c, 7, 61, 75
9, 6720, Note_off_c, 7, 61, 64
9, 6720, Note_on_c, 7, 62, 75
9, 6955, Note_off_c, 7, 62, 64
9, 6960, Note_on_c, 7, 62, 75
9, 7195, Note_off_c, 7, 62, 64
9, 7200, Note_on_c, 7, 62, 75
9, 7435, Note_off_c, 7, 62, 64
9, 7440, Note_on_c, 7, 62, 75
9, 7675, Note_off_c, 7, 62, 64
9, 7680, Note_on_c, 7, 62, 75
9, 7915, Note_off_c, 7, 62, 64
9, 7920, Note_on_c, 7, 62, 75
9, 8155, Note_off_c, 7, 62, 64
9, 8160, Note_on_c, 7, 62, 75
9, 8395, Note_off_c, 7, 62, 64
9, 8400, Note_on_c, 7, 62, 75
9, 8635, Note_off_c, 7, 62, 64
9, 8640, Note_on_c, 7, 62, 75
9, 8875, Note_off_c, 7, 62, 64
9, 8880, Note_on_c, 7, 62, 75
9, 9115, Note_off_c, 7, 62, 64
9, 9120, Note_on_c, 7, 62, 75
9, 9355, Note_off_c, 7, 62, 64
9, 9360, Note_on_c, 7, 62, 75
9, 9595, Note_off_c, 7, 62, 64
9, 9600, Note_on_c, 7, 61, 75
9, 10320, Note_off_c, 7, 61, 64
9, 10320, Note_on_c, 7, 62, 75
9, 10440, Note_off_c, 7, 62, 64
9, 10440, Note_on_c, 7, 64, 75
9, 10560, Note_off_c, 7, 64, 64
9, 10560, Note_on_c, 7, 62, 75
9, 10795, Note_off_c, 7, 62, 64
9, 10800, Note_on_c, 7, 66, 75
9, 11035, Note_off_c, 7, 66, 64
9, 11040, Note_on_c, 7, 66, 75
9, 11275, Note_off_c, 7, 66, 64
9, 11280, Note_on_c, 7, 66, 75
9, 11515, Note_off_c, 7, 66, 64
9, 11520, Note_on_c, 7, 62, 75
9, 11755, Note_off_c, 7, 62, 64
9, 11760, Note_on_c, 7, 62, 75
9, 11995, Note_off_c, 7, 62, 64
9, 12000, Note_on_c, 7, 62, 75
9, 12235, Note_off_c, 7, 62, 64
9, 12240, Note_on_c, 7, 62, 75
9, 12475, Note_off_c, 7, 62, 64
9, 12480, Note_on_c, 7, 50, 75
9, 12715, Note_off_c, 7, 50, 64
9, 12720, Note_on_c, 7, 50, 75
9, 12955, Note_off_c, 7, 50, 64
9, 12960, Note_on_c, 7, 50, 75
9, 13195, Note_off_c, 7, 50, 64
9, 13200, Note_on_c, 7, 50, 75
9, 13435, Note_off_c, 7, 50, 64
9, 13440, Note_on_c, 7, 57, 75
9, 13675, Note_off_c, 7, 57, 64
9, 13680, Note_on_c, 7, 57, 75
9, 13915, Note_off_c, 7, 57, 64
9, 13920, Note_on_c, 7, 57, 75
9, 14155, Note_off_c, 7, 57, 64
9, 14160, Note_on_c, 7, 57, 75
9, 14395, Note_off_c, 7, 57, 64
9, 14400, Note_on_c, 7, 57, 75
9, 14635, Note_off_c, 7, 57, 64
9, 14640, Note_on_c, 7, 57, 75
9, 14875, Note_off_c, 7, 57, 64
9, 14880, Note_on_c, 7, 57, 75
9, 15115, Note_off_c, 7, 57, 64
9, 15120, Note_on_c, 7, 57, 75
9, 15355, Note_off_c, 7, 57, 64
9, 15360, Note_on_c, 7, 62, 75
9, 15595, Note_off_c, 7, 62, 64
9, 15600, Note_on_c, 7, 62, 75
9, 15835, Note_off_c, 7, 62, 64
9, 15840, Note_on_c, 7, 62, 75
9, 16075, Note_off_c, 7, 62, 64
9, 16080, Note_on_c, 7, 62, 75
9, 16315, Note_off_c, 7, 62, 64
9, 16320, Note_on_c, 7, 50, 75
9, 16555, Note_off_c, 7, 50, 64
9, 16560, Note_on_c, 7, 50, 75
9, 16795, Note_off_c, 7, 50, 64
9, 16800, Note_on_c, 7, 50, 75
9, 17035, Note_off_c, 7, 50, 64
9, 17040, Note_on_c, 7, 50, 75
9, 17275, Note_off_c, 7, 50, 64
9, 17280, Note_on_c, 7, 57, 75
9, 17515, Note_off_c, 7, 57, 64
9, 17520, Note_on_c, 7, 57, 75
9, 17755, Note_off_c, 7, 57, 64
9, 17760, Note_on_c, 7, 57, 75
9, 17995, Note_off_c, 7, 57, 64
9, 18000, Note_on_c, 7, 57, 75
9, 18235, Note_off_c, 7, 57, 64
9, 18240, Note_on_c, 7, 57, 75
9, 18475, Note_off_c, 7, 57, 64
9, 18480, Note_on_c, 7, 57, 75
9, 18715, Note_off_c, 7, 57, 64
9, 18720, Note_on_c, 7, 57, 75
9, 18955, Note_off_c, 7, 57, 64
9, 18960, Note_on_c, 7, 57, 75
9, 19195, Note_off_c, 7, 57, 64
9, 19200, Note_on_c, 7, 62, 75
9, 19435, Note_off_c, 7, 62, 64
9, 19440, Note_on_c, 7, 66, 79
9, 19675, Note_off_c, 7, 66, 64
9, 19680, Note_on_c, 7, 64, 83
9, 19915, Note_off_c, 7, 64, 64
9, 19920, Note_on_c, 7, 64, 87
9, 20155, Note_off_c, 7, 64, 64
9, 20160, Note_on_c, 7, 64, 92
9, 20395, Note_off_c, 7, 64, 64
9, 20400, Note_on_c, 7, 69, 92
9, 20640, Note_off_c, 7, 69, 64
9, 20640, Note_on_c, 7, 68, 92
9, 20880, Note_off_c, 7, 68, 64
9, 20880, Note_on_c, 7, 69, 92
9, 21120, Note_off_c, 7, 69, 64
9, 21120, Note_on_c, 7, 64, 92
9, 21200, Note_off_c, 7, 64, 64
9, 21600, Note_on_c, 7, 64, 92
9, 21680, Note_off_c, 7, 64, 64
9, 22080, Note_on_c, 7, 64, 92
9, 22160, Note_off_c, 7, 64, 64
9, 23100, Note_on_c, 7, 57, 45
9, 23335, Note_off_c, 7, 57, 64
9, 23340, Note_on_c, 7, 57, 45
9, 23575, Note_off_c, 7, 57, 64
9, 23580, Note_on_c, 7, 57, 45
9, 23815, Note_off_c, 7, 57, 64
9, 23820, Note_on_c, 7, 57, 45
9, 24055, Note_off_c, 7, 57, 64
9, 24060, Note_on_c, 7, 57, 45
9, 24295, Note_off_c, 7, 57, 64
9, 24300, Note_on_c, 7, 57, 45
9, 24535, Note_off_c, 7, 57, 64
9, 24540, Note_on_c, 7, 57, 45
9, 24775, Note_off_c, 7, 57, 64
9, 24780, Note_on_c, 7, 57, 45
9, 25015, Note_off_c, 7, 57, 64
9, 25020, Note_on_c, 7, 57, 45
9, 25255, Note_off_c, 7, 57, 64
9, 25260, Note_on_c, 7, 57, 45
9, 25495, Note_off_c, 7, 57, 64
9, 25500, Note_on_c, 7, 57, 45
9, 25735, Note_off_c, 7, 57, 64
9, 25740, Note_on_c, 7, 57, 45
9, 25975, Note_off_c, 7, 57, 64
9, 25980, Note_on_c, 7, 57, 45
9, 26215, Note_off_c, 7, 57, 64
9, 26220, Note_on_c, 7, 57, 45
9, 26455, Note_off_c, 7, 57, 64
9, 26460, Note_on_c, 7, 57, 45
9, 26695, Note_off_c, 7, 57, 64
9, 26700, Note_on_c, 7, 57, 45
9, 26935, Note_off_c, 7, 57, 64
9, 26940, Note_on_c, 7, 57, 45
9, 27175, Note_off_c, 7, 57, 64
9, 27180, Note_on_c, 7, 57, 45
9, 27415, Note_off_c, 7, 57, 64
9, 27420, Note_on_c, 7, 57, 45
9, 27655, Note_off_c, 7, 57, 64
9, 27660, Note_on_c, 7, 57, 45
9, 27895, Note_off_c, 7, 57, 64
9, 27900, Note_on_c, 7, 57, 30
9, 28135, Note_off_c, 7, 57, 64
9, 28140, Note_on_c, 7, 57, 30
9, 28375, Note_off_c, 7, 57, 64
9, 28380, Note_on_c, 7, 57, 30
9, 28615, Note_off_c, 7, 57, 64
9, 28620, Note_on_c, 7, 57, 30
9, 28855, Note_off_c, 7, 57, 64
9, 28860, Note_on_c, 7, 57, 30
9, 29095, Note_off_c, 7, 57, 64
9, 29100, Note_on_c, 7, 57, 30
9, 29335, Note_off_c, 7, 57, 64
9, 29340, Note_on_c, 7, 57, 30
9, 29575, Note_off_c, 7, 57, 64
9, 29580, Note_on_c, 7, 57, 30
9, 29815, Note_off_c, 7, 57, 64
9, 29820, Note_on_c, 7, 57, 30
9, 30055, Note_off_c, 7, 57, 64
9, 30060, Note_on_c, 7, 57, 30
9, 30295, Note_off_c, 7, 57, 64
9, 30300, Note_on_c, 7, 57, 30
9, 30535, Note_off_c, 7, 57, 64
9, 30540, Note_on_c, 7, 57, 30
9, 30775, Note_off_c, 7, 57, 64
9, 30780, Note_on_c, 7, 57, 30
9, 31015, Note_off_c, 7, 57, 64
9, 31020, Note_on_c, 7, 57, 30
9, 31255, Note_off_c, 7, 57, 64
9, 31260, Note_on_c, 7, 57, 30
9, 31495, Note_off_c, 7, 57, 64
9, 31500, Note_on_c, 7, 57, 30
9, 31735, Note_off_c, 7, 57, 64
9, 31740, Note_on_c, 7, 57, 30
9, 31820, Note_off_c, 7, 57, 64
9, 31980, Note_on_c, 7, 64, 92
9, 32060, Note_off_c, 7, 64, 64
9, 32220, Note_on_c, 7, 68, 92
9, 32300, Note_off_c, 7, 68, 64
9, 32460, Note_on_c, 7, 69, 92
9, 32540, Note_off_c, 7, 69, 64
9, 32700, Note_on_c, 7, 69, 92
9, 32940, Note_off_c, 7, 69, 64
9, 32940, Note_on_c, 7, 71, 92
9, 33175, Note_off_c, 7, 71, 64
9, 33180, Note_on_c, 7, 71, 92
9, 33895, Note_off_c, 7, 71, 64
9, 33900, Note_on_c, 7, 71, 92
9, 33980, Note_off_c, 7, 71, 64
9, 34140, Note_on_c, 7, 69, 92
9, 34260, Note_off_c, 7, 69, 64
9, 34260, Note_on_c, 7, 68, 92
9, 34380, Note_off_c, 7, 68, 64
9, 34380, Note_on_c, 7, 66, 92
9, 34460, Note_off_c, 7, 66, 64
9, 34500, Note_on_c, 7, 64, 92
9, 34580, Note_off_c, 7, 64, 64
9, 34620, Note_on_c, 7, 73, 92
9, 34855, Note_off_c, 7, 73, 64
9, 35160, Note_on_c, 7, 73, 92
9, 35875, Note_off_c, 7, 73, 64
9, 35880, Note_on_c, 7, 64, 92
9, 35960, Note_off_c, 7, 64, 64
9, 36120, Note_on_c, 7, 68, 92
9, 36200, Note_off_c, 7, 68, 64
9, 36360, Note_on_c, 7, 69, 92
9, 36440, Note_off_c, 7, 69, 64
9, 36600, Note_on_c, 7, 69, 92
9, 36840, Note_off_c, 7, 69, 64
9, 36840, Note_on_c, 7, 71, 92
9, 37075, Note_off_c, 7, 71, 64
9, 37080, Note_on_c, 7, 71, 92
9, 37795, Note_off_c, 7, 71, 64
9, 37800, Note_on_c, 7, 71, 92
9, 37880, Note_off_c, 7, 71, 64
9, 38040, Note_on_c, 7, 69, 92
9, 38160, Note_off_c, 7, 69, 64
9, 38160, Note_on_c, 7, 68, 92
9, 38280, Note_off_c, 7, 68, 64
9, 38280, Note_on_c, 7, 66, 92
9, 38360, Note_off_c, 7, 66, 64
9, 38400, Note_on_c, 7, 64, 92
9, 38480, Note_off_c, 7, 64, 64
9, 38520, Note_on_c, 7, 73, 92
9, 38755, Note_off_c, 7, 73, 64
9, 39060, Note_on_c, 7, 73, 92
9, 39775, Note_off_c, 7, 73, 64
9, 39780, Note_on_c, 7, 69, 92
9, 39860, Note_off_c, 7, 69, 64
9, 40020, Note_on_c, 7, 64, 92
9, 40100, Note_off_c, 7, 64, 64
9, 40260, Note_on_c, 7, 61, 92
9, 40340, Note_off_c, 7, 61, 64
9, 40500, Note_on_c, 7, 62, 92
9, 40735, Note_off_c, 7, 62, 64
9, 41040, Note_on_c, 7, 62, 92
9, 41755, Note_off_c, 7, 62, 64
9, 41760, Note_on_c, 7, 69, 92
9, 41840, Note_off_c, 7, 69, 64
9, 42000, Note_on_c, 7, 66, 92
9, 42080, Note_off_c, 7, 66, 64
9, 42240, Note_on_c, 7, 62, 92
9, 42320, Note_off_c, 7, 62, 64
9, 42480, Note_on_c, 7, 64, 92
9, 42880, Note_off_c, 7, 64, 64
9, 42960, Note_on_c, 7, 64, 92
9, 43075, Note_off_c, 7, 64, 64
9, 43080, Note_on_c, 7, 64, 92
9, 43195, Note_off_c, 7, 64, 64
9, 43200, Note_on_c, 7, 64, 92
9, 43315, Note_off_c, 7, 64, 64
9, 43320, Note_on_c, 7, 64, 92
9, 43435, Note_off_c, 7, 64, 64
9, 43440, Note_on_c, 7, 62, 92
9, 43555, Note_off_c, 7, 62, 64
9, 43560, Note_on_c, 7, 62, 90
9, 43675, Note_off_c, 7, 62, 64
9, 43680, Note_on_c, 7, 62, 88
9, 43795, Note_off_c, 7, 62, 64
9, 43800, Note_on_c, 7, 62, 86
9, 43915, Note_off_c, 7, 62, 64
9, 43920, Note_on_c, 7, 62, 84
9, 44035, Note_off_c, 7, 62, 64
9, 44040, Note_on_c, 7, 62, 82
9, 44155, Note_off_c, 7, 62, 64
9, 44160, Note_on_c, 7, 62, 80
9, 44275, Note_off_c, 7, 62, 64
9, 44280, Note_on_c, 7, 62, 78
9, 44395, Note_off_c, 7, 62, 64
9, 44400, Note_on_c, 7, 61, 75
9, 44800, Note_off_c, 7, 61, 64
9, 45360, Note_on_c, 7, 61, 75
9, 45760, Note_off_c, 7, 61, 64
9, 46320, Note_on_c, 7, 61, 75
9, 46320, Note_on_c, 7, 64, 75
9, 46720, Note_off_c, 7, 64, 64
9, 46720, Note_off_c, 7, 61, 64
9, 47280, Note_on_c, 7, 64, 75
9, 47360, Note_off_c, 7, 64, 64
9, 47520, Note_on_c, 7, 64, 75
9, 47755, Note_off_c, 7, 64, 64
9, 47760, Note_on_c, 7, 64, 75
9, 47995, Note_off_c, 7, 64, 64
9, 48000, Note_on_c, 7, 64, 75
9, 48235, Note_off_c, 7, 64, 64
9, 48240, Note_on_c, 7, 62, 75
9, 48640, Note_off_c, 7, 62, 64
9, 49200, Note_on_c, 7, 66, 75
9, 49600, Note_off_c, 7, 66, 64
9, 49680, Note_on_c, 7, 66, 75
9, 50080, Note_off_c, 7, 66, 64
9, 50160, Note_on_c, 7, 64, 75
9, 50275, Note_off_c, 7, 64, 64
9, 50280, Note_on_c, 7, 64, 75
9, 50395, Note_off_c, 7, 64, 64
9, 50400, Note_on_c, 7, 64, 75
9, 50515, Note_off_c, 7, 64, 64
9, 50520, Note_on_c, 7, 64, 75
9, 50635, Note_off_c, 7, 64, 64
9, 50640, Note_on_c, 7, 64, 75
9, 50755, Note_off_c, 7, 64, 64
9, 50760, Note_on_c, 7, 64, 75
9, 50875, Note_off_c, 7, 64, 64
9, 50880, Note_on_c, 7, 64, 75
9, 50995, Note_off_c, 7, 64, 64
9, 51000, Note_on_c, 7, 64, 75
9, 51115, Note_off_c, 7, 64, 64
9, 51120, Note_on_c, 7, 62, 75
9, 51235, Note_off_c, 7, 62, 64
9, 51240, Note_on_c, 7, 62, 75
9, 51355, Note_off_c, 7, 62, 64
9, 51360, Note_on_c, 7, 62, 75
9, 51475, Note_off_c, 7, 62, 64
9, 51480, Note_on_c, 7, 62, 75
9, 51595, Note_off_c, 7, 62, 64
9, 51600, Note_on_c, 7, 62, 75
9, 51715, Note_off_c, 7, 62, 64
9, 51720, Note_on_c, 7, 62, 75
9, 51835, Note_off_c, 7, 62, 64
9, 51840, Note_on_c, 7, 62, 75
9, 51955, Note_off_c, 7, 62, 64
9, 51960, Note_on_c, 7, 62, 75
9, 52075, Note_off_c, 7, 62, 64
9, 52080, Note_on_c, 7, 61, 75
9, 52480, Note_off_c, 7, 61, 64
9, 52800, Note_on_c, 7, 64, 75
9, 52880, Note_off_c, 7, 64, 64
9, 53040, Note_on_c, 7, 64, 75
9, 53440, Note_off_c, 7, 64, 64
9, 53760, Note_on_c, 7, 64, 75
9, 53840, Note_off_c, 7, 64, 64
9, 54000, Note_on_c, 7, 64, 75
9, 54235, Note_off_c, 7, 64, 64
9, 54480, Note_on_c, 7, 57, 75
9, 54715, Note_off_c, 7, 57, 64
9, 54960, Note_on_c, 7, 57, 75
9, 55360, Note_off_c, 7, 57, 64
9, 56040, Note_on_c, 7, 66, 45
9, 56120, Note_off_c, 7, 66, 64
9, 56520, Note_on_c, 7, 69, 45
9, 56600, Note_off_c, 7, 69, 64
9, 57000, Note_on_c, 7, 67, 45
9, 57080, Note_off_c, 7, 67, 64
9, 57960, Note_on_c, 7, 64, 45
9, 58040, Note_off_c, 7, 64, 64
9, 58440, Note_on_c, 7, 64, 45
9, 58520, Note_off_c, 7, 64, 64
9, 58920, Note_on_c, 7, 62, 45
9, 59000, Note_off_c, 7, 62, 64
9, 59880, Note_on_c, 7, 62, 75
9, 60115, Note_off_c, 7, 62, 64
9, 60120, Note_on_c, 7, 62, 75
9, 60355, Note_off_c, 7, 62, 64
9, 60360, Note_on_c, 7, 62, 75
9, 60595, Note_off_c, 7, 62, 64
9, 60600, Note_on_c, 7, 62, 75
9, 60835, Note_off_c, 7, 62, 64
9, 60840, Note_on_c, 7, 62, 75
9, 61075, Note_off_c, 7, 62, 64
9, 61080, Note_on_c, 7, 62, 75
9, 61315, Note_off_c, 7, 62, 64
9, 61320, Note_on_c, 7, 62, 75
9, 61555, Note_off_c, 7, 62, 64
9, 61560, Note_on_c, 7, 62, 75
9, 61795, Note_off_c, 7, 62, 64
9, 61800, Note_on_c, 7, 64, 75
9, 62520, Note_off_c, 7, 64, 64
9, 62520, Note_on_c, 7, 62, 75
9, 62640, Note_off_c, 7, 62, 64
9, 62640, Note_on_c, 7, 61, 75
9, 62760, Note_off_c, 7, 61, 64
9, 62760, Note_on_c, 7, 62, 75
9, 62995, Note_off_c, 7, 62, 64
9, 63000, Note_on_c, 7, 62, 75
9, 63235, Note_off_c, 7, 62, 64
9, 63240, Note_on_c, 7, 62, 75
9, 63475, Note_off_c, 7, 62, 64
9, 63480, Note_on_c, 7, 62, 75
9, 63715, Note_off_c, 7, 62, 64
9, 63720, Note_on_c, 7, 62, 75
9, 63955, Note_off_c, 7, 62, 64
9, 63960, Note_on_c, 7, 62, 75
9, 64195, Note_off_c, 7, 62, 64
9, 64200, Note_on_c, 7, 62, 75
9, 64435, Note_off_c, 7, 62, 64
9, 64440, Note_on_c, 7, 62, 75
9, 64675, Note_off_c, 7, 62, 64
9, 64680, Note_on_c, 7, 62, 75
9, 64915, Note_off_c, 7, 62, 64
9, 64920, Note_on_c, 7, 62, 75
9, 65155, Note_off_c, 7, 62, 64
9, 65160, Note_on_c, 7, 62, 75
9, 65395, Note_off_c, 7, 62, 64
9, 65400, Note_on_c, 7, 62, 75
9, 65635, Note_off_c, 7, 62, 64
9, 65640, Note_on_c, 7, 61, 75
9, 66360, Note_off_c, 7, 61, 64
9, 66360, Note_on_c, 7, 62, 75
9, 66480, Note_off_c, 7, 62, 64
9, 66480, Note_on_c, 7, 64, 75
9, 66600, Note_off_c, 7, 64, 64
9, 66600, Note_on_c, 7, 62, 75
9, 66835, Note_off_c, 7, 62, 64
9, 66840, Note_on_c, 7, 66, 75
9, 67075, Note_off_c, 7, 66, 64
9, 67080, Note_on_c, 7, 66, 75
9, 67315, Note_off_c, 7, 66, 64
9, 67320, Note_on_c, 7, 66, 75
9, 67555, Note_off_c, 7, 66, 64
9, 67560, Note_on_c, 7, 62, 75
9, 67795, Note_off_c, 7, 62, 64
9, 67800, Note_on_c, 7, 62, 75
9, 68035, Note_off_c, 7, 62, 64
9, 68040, Note_on_c, 7, 62, 75
9, 68275, Note_off_c, 7, 62, 64
9, 68280, Note_on_c, 7, 62, 75
9, 68515, Note_off_c, 7, 62, 64
9, 68520, Note_on_c, 7, 50, 75
9, 68755, Note_off_c, 7, 50, 64
9, 68760, Note_on_c, 7, 50, 75
9, 68995, Note_off_c, 7, 50, 64
9, 69000, Note_on_c, 7, 50, 75
9, 69235, Note_off_c, 7, 50, 64
9, 69240, Note_on_c, 7, 50, 75
9, 69475, Note_off_c, 7, 50, 64
9, 69480, Note_on_c, 7, 57, 75
9, 69715, Note_off_c, 7, 57, 64
9, 69720, Note_on_c, 7, 57, 75
9, 69955, Note_off_c, 7, 57, 64
9, 69960, Note_on_c, 7, 57, 75
9, 70195, Note_off_c, 7, 57, 64
9, 70200, Note_on_c, 7, 57, 75
9, 70435, Note_off_c, 7, 57, 64
9, 70440, Note_on_c, 7, 57, 75
9, 70675, Note_off_c, 7, 57, 64
9, 70680, Note_on_c, 7, 57, 75
9, 70915, Note_off_c, 7, 57, 64
9, 70920, Note_on_c, 7, 57, 75
9, 71155, Note_off_c, 7, 57, 64
9, 71160, Note_on_c, 7, 57, 75
9, 71395, Note_off_c, 7, 57, 64
9, 71400, Note_on_c, 7, 62, 75
9, 71635, Note_off_c, 7, 62, 64
9, 71640, Note_on_c, 7, 62, 75
9, 71875, Note_off_c, 7, 62, 64
9, 71880, Note_on_c, 7, 62, 75
9, 72115, Note_off_c, 7, 62, 64
9, 72120, Note_on_c, 7, 62, 75
9, 72355, Note_off_c, 7, 62, 64
9, 72360, Note_on_c, 7, 50, 75
9, 72595, Note_off_c, 7, 50, 64
9, 72600, Note_on_c, 7, 50, 75
9, 72835, Note_off_c, 7, 50, 64
9, 72840, Note_on_c, 7, 50, 75
9, 73075, Note_off_c, 7, 50, 64
9, 73080, Note_on_c, 7, 50, 75
9, 73315, Note_off_c, 7, 50, 64
9, 73320, Note_on_c, 7, 57, 75
9, 73555, Note_off_c, 7, 57, 64
9, 73560, Note_on_c, 7, 57, 75
9, 73795, Note_off_c, 7, 57, 64
9, 73800, Note_on_c, 7, 57, 75
9, 74035, Note_off_c, 7, 57, 64
9, 74040, Note_on_c, 7, 57, 75
9, 74275, Note_off_c, 7, 57, 64
9, 74280, Note_on_c, 7, 57, 75
9, 74515, Note_off_c, 7, 57, 64
9, 74520, Note_on_c, 7, 57, 75
9, 74755, Note_off_c, 7, 57, 64
9, 74760, Note_on_c, 7, 57, 75
9, 74995, Note_off_c, 7, 57, 64
9, 75000, Note_on_c, 7, 57, 75
9, 75235, Note_off_c, 7, 57, 64
9, 75240, Note_on_c, 7, 62, 75
9, 75475, Note_off_c, 7, 62, 64
9, 75480, Note_on_c, 7, 66, 79
9, 75715, Note_off_c, 7, 66, 64
9, 75720, Note_on_c, 7, 64, 83
9, 75955, Note_off_c, 7, 64, 64
9, 75960, Note_on_c, 7, 64, 87
9, 76195, Note_off_c, 7, 64, 64
9, 76200, Note_on_c, 7, 64, 92
9, 76435, Note_off_c, 7, 64, 64
9, 76440, Note_on_c, 7, 69, 92
9, 76680, Note_off_c, 7, 69, 64
9, 76680, Note_on_c, 7, 68, 92
9, 76920, Note_off_c, 7, 68, 64
9, 76920, Note_on_c, 7, 69, 92
9, 77160, Note_off_c, 7, 69, 64
9, 77160, Note_on_c, 7, 64, 92
9, 77240, Note_off_c, 7, 64, 64
9, 77640, Note_on_c, 7, 64, 92
9, 77720, Note_off_c, 7, 64, 64
9, 78120, Note_on_c, 7, 64, 92
9, 78200, Note_off_c, 7, 64, 64
9, 79140, Note_on_c, 7, 57, 45
9, 79375, Note_off_c, 7, 57, 64
9, 79380, Note_on_c, 7, 57, 45
9, 79615, Note_off_c, 7, 57, 64
9, 79620, Note_on_c, 7, 57, 45
9, 79855, Note_off_c, 7, 57, 64
9, 79860, Note_on_c, 7, 57, 45
9, 80095, Note_off_c, 7, 57, 64
9, 80100, Note_on_c, 7, 57, 45
9, 80335, Note_off_c, 7, 57, 64
9, 80340, Note_on_c, 7, 57, 45
9, 80575, Note_off_c, 7, 57, 64
9, 80580, Note_on_c, 7, 57, 45
9, 80815, Note_off_c, 7, 57, 64
9, 80820, Note_on_c, 7, 57, 45
9, 81055, Note_off_c, 7, 57, 64
9, 81060, Note_on_c, 7, 57, 45
9, 81295, Note_off_c, 7, 57, 64
9, 81300, Note_on_c, 7, 57, 45
9, 81535, Note_off_c, 7, 57, 64
9, 81540, Note_on_c, 7, 57, 45
9, 81775, Note_off_c, 7, 57, 64
9, 81780, Note_on_c, 7, 57, 45
9, 82015, Note_off_c, 7, 57, 64
9, 82020, Note_on_c, 7, 57, 45
9, 82255, Note_off_c, 7, 57, 64
9, 82260, Note_on_c, 7, 57, 45
9, 82495, Note_off_c, 7, 57, 64
9, 82500, Note_on_c, 7, 57, 45
9, 82735, Note_off_c, 7, 57, 64
9, 82740, Note_on_c, 7, 57, 45
9, 82975, Note_off_c, 7, 57, 64
9, 82980, Note_on_c, 7, 57, 45
9, 83215, Note_off_c, 7, 57, 64
9, 83220, Note_on_c, 7, 57, 45
9, 83455, Note_off_c, 7, 57, 64
9, 83460, Note_on_c, 7, 57, 45
9, 83695, Note_off_c, 7, 57, 64
9, 83700, Note_on_c, 7, 57, 45
9, 83935, Note_off_c, 7, 57, 64
9, 83940, Note_on_c, 7, 57, 30
9, 84175, Note_off_c, 7, 57, 64
9, 84180, Note_on_c, 7, 57, 30
9, 84415, Note_off_c, 7, 57, 64
9, 84420, Note_on_c, 7, 57, 30
9, 84655, Note_off_c, 7, 57, 64
9, 84660, Note_on_c, 7, 57, 30
9, 84895, Note_off_c, 7, 57, 64
9, 84900, Note_on_c, 7, 57, 30
9, 85135, Note_off_c, 7, 57, 64
9, 85140, Note_on_c, 7, 57, 30
9, 85375, Note_off_c, 7, 57, 64
9, 85380, Note_on_c, 7, 57, 30
9, 85615, Note_off_c, 7, 57, 64
9, 85620, Note_on_c, 7, 57, 30
9, 85855, Note_off_c, 7, 57, 64
9, 85860, Note_on_c, 7, 57, 30
9, 86095, Note_off_c, 7, 57, 64
9, 86100, Note_on_c, 7, 57, 30
9, 86335, Note_off_c, 7, 57, 64
9, 86340, Note_on_c, 7, 57, 30
9, 86575, Note_off_c, 7, 57, 64
9, 86580, Note_on_c, 7, 57, 30
9, 86815, Note_off_c, 7, 57, 64
9, 86820, Note_on_c, 7, 57, 30
9, 87055, Note_off_c, 7, 57, 64
9, 87060, Note_on_c, 7, 57, 30
9, 87295, Note_off_c, 7, 57, 64
9, 87300, Note_on_c, 7, 57, 30
9, 87535, Note_off_c, 7, 57, 64
9, 87540, Note_on_c, 7, 57, 30
9, 87775, Note_off_c, 7, 57, 64
9, 87780, Note_on_c, 7, 57, 30
9, 87860, Note_off_c, 7, 57, 64
9, 88020, Note_on_c, 7, 64, 92
9, 88100, Note_off_c, 7, 64, 64
9, 88260, Note_on_c, 7, 68, 92
9, 88340, Note_off_c, 7, 68, 64
9, 88500, Note_on_c, 7, 69, 92
9, 88580, Note_off_c, 7, 69, 64
9, 88740, Note_on_c, 7, 69, 92
9, 88980, Note_off_c, 7, 69, 64
9, 88980, Note_on_c, 7, 71, 92
9, 89215, Note_off_c, 7, 71, 64
9, 89220, Note_on_c, 7, 71, 92
9, 89935, Note_off_c, 7, 71, 64
9, 89940, Note_on_c, 7, 71, 92
9, 90020, Note_off_c, 7, 71, 64
9, 90180, Note_on_c, 7, 69, 92
9, 90300, Note_off_c, 7, 69, 64
9, 90300, Note_on_c, 7, 68, 92
9, 90420, Note_off_c, 7, 68, 64
9, 90420, Note_on_c, 7, 66, 92
9, 90500, Note_off_c, 7, 66, 64
9, 90540, Note_on_c, 7, 64, 92
9, 90620, Note_off_c, 7, 64, 64
9, 90660, Note_on_c, 7, 73, 92
9, 90895, Note_off_c, 7, 73, 64
9, 91200, Note_on_c, 7, 73, 92
9, 91915, Note_off_c, 7, 73, 64
9, 91920, Note_on_c, 7, 64, 92
9, 92000, Note_off_c, 7, 64, 64
9, 92160, Note_on_c, 7, 68, 92
9, 92240, Note_off_c, 7, 68, 64
9, 92400, Note_on_c, 7, 69, 92
9, 92480, Note_off_c, 7, 69, 64
9, 92640, Note_on_c, 7, 69, 92
9, 92880, Note_off_c, 7, 69, 64
9, 92880, Note_on_c, 7, 71, 92
9, 93115, Note_off_c, 7, 71, 64
9, 93120, Note_on_c, 7, 71, 92
9, 93835, Note_off_c, 7, 71, 64
9, 93840, Note_on_c, 7, 71, 92
9, 93920, Note_off_c, 7, 71, 64
9, 94080, Note_on_c, 7, 69, 92
9, 94200, Note_off_c, 7, 69, 64
9, 94200, Note_on_c, 7, 68, 92
9, 94320, Note_off_c, 7, 68, 64
9, 94320, Note_on_c, 7, 66, 92
9, 94400, Note_off_c, 7, 66, 64
9, 94440, Note_on_c, 7, 64, 92
9, 94520, Note_off_c, 7, 64, 64
9, 94560, Note_on_c, 7, 73, 92
9, 94795, Note_off_c, 7, 73, 64
9, 95100, Note_on_c, 7, 73, 92
9, 95815, Note_off_c, 7, 73, 64
9, 95820, Note_on_c, 7, 69, 92
9, 95900, Note_off_c, 7, 69, 64
9, 96060, Note_on_c, 7, 64, 92
9, 96140, Note_off_c, 7, 64, 64
9, 96300, Note_on_c, 7, 61, 92
9, 96380, Note_off_c, 7, 61, 64
9, 96540, Note_on_c, 7, 62, 92
9, 96775, Note_off_c, 7, 62, 64
9, 97080, Note_on_c, 7, 62, 92
9, 97795, Note_off_c, 7, 62, 64
9, 97800, Note_on_c, 7, 69, 92
9, 97880, Note_off_c, 7, 69, 64
9, 98040, Note_on_c, 7, 66, 92
9, 98120, Note_off_c, 7, 66, 64
9, 98280, Note_on_c, 7, 62, 92
9, 98360, Note_off_c, 7, 62, 64
9, 98520, Note_on_c, 7, 64, 92
9, 98920, Note_off_c, 7, 64, 64
9, 99000, Note_on_c, 7, 64, 92
9, 99115, Note_off_c, 7, 64, 64
9, 99120, Note_on_c, 7, 64, 92
9, 99235, Note_off_c, 7, 64, 64
9, 99240, Note_on_c, 7, 64, 92
9, 99355, Note_off_c, 7, 64, 64
9, 99360, Note_on_c, 7, 64, 92
9, 99475, Note_off_c, 7, 64, 64
9, 99480, Note_on_c, 7, 62, 92
9, 99595, Note_off_c, 7, 62, 64
9, 99600, Note_on_c, 7, 62, 90
9, 99715, Note_off_c, 7, 62, 64
9, 99720, Note_on_c, 7, 62, 88
9, 99835, Note_off_c, 7, 62, 64
9, 99840, Note_on_c, 7, 62, 86
9, 99955, Note_off_c, 7, 62, 64
9, 99960, Note_on_c, 7, 62, 84
9, 100075, Note_off_c, 7, 62, 64
9, 100080, Note_on_c, 7, 62, 82
9, 100195, Note_off_c, 7, 62, 64
9, 100200, Note_on_c, 7, 62, 80
9, 100315, Note_off_c, 7, 62, 64
9, 100320, Note_on_c, 7, 62, 78
9, 100435, Note_off_c, 7, 62, 64
9, 100440, Note_on_c, 7, 61, 75
9, 100840, Note_off_c, 7, 61, 64
9, 101400, Note_on_c, 7, 61, 75
9, 101800, Note_off_c, 7, 61, 64
9, 102360, Note_on_c, 7, 61, 75
9, 102360, Note_on_c, 7, 64, 75
9, 102760, Note_off_c, 7, 64, 64
9, 102760, Note_off_c, 7, 61, 64
9, 103320, Note_on_c, 7, 64, 75
9, 103400, Note_off_c, 7, 64, 64
9, 103560, Note_on_c, 7, 64, 75
9, 103795, Note_off_c, 7, 64, 64
9, 103800, Note_on_c, 7, 64, 75
9, 104035, Note_off_c, 7, 64, 64
9, 104040, Note_on_c, 7, 64, 75
9, 104275, Note_off_c, 7, 64, 64
9, 104280, Note_on_c, 7, 62, 75
9, 104680, Note_off_c, 7, 62, 64
9, 105240, Note_on_c, 7, 66, 75
9, 105640, Note_off_c, 7, 66, 64
9, 105720, Note_on_c, 7, 66, 75
9, 106120, Note_off_c, 7, 66, 64
9, 106200, Note_on_c, 7, 64, 75
9, 106315, Note_off_c, 7, 64, 64
9, 106320, Note_on_c, 7, 64, 75
9, 106435, Note_off_c, 7, 64, 64
9, 106440, Note_on_c, 7, 64, 75
9, 106555, Note_off_c, 7, 64, 64
9, 106560, Note_on_c, 7, 64, 75
9, 106675, Note_off_c, 7, 64, 64
9, 106680, Note_on_c, 7, 64, 75
9, 106795, Note_off_c, 7, 64, 64
9, 106800, Note_on_c, 7, 64, 75
9, 106915, Note_off_c, 7, 64, 64
9, 106920, Note_on_c, 7, 64, 75
9, 107035, Note_off_c, 7, 64, 64
9, 107040, Note_on_c, 7, 64, 75
9, 107155, Note_off_c, 7, 64, 64
9, 107160, Note_on_c, 7, 62, 75
9, 107275, Note_off_c, 7, 62, 64
9, 107280, Note_on_c, 7, 62, 75
9, 107395, Note_off_c, 7, 62, 64
9, 107400, Note_on_c, 7, 62, 75
9, 107515, Note_off_c, 7, 62, 64
9, 107520, Note_on_c, 7, 62, 75
9, 107635, Note_off_c, 7, 62, 64
9, 107640, Note_on_c, 7, 62, 75
9, 107755, Note_off_c, 7, 62, 64
9, 107760, Note_on_c, 7, 62, 75
9, 107875, Note_off_c, 7, 62, 64
9, 107880, Note_on_c, 7, 62, 75
9, 107995, Note_off_c, 7, 62, 64
9, 108000, Note_on_c, 7, 62, 75
9, 108115, Note_off_c, 7, 62, 64
9, 108120, Note_on_c, 7, 61, 75
9, 108520, Note_off_c, 7, 61, 64
9, 108840, Note_on_c, 7, 64, 75
9, 108920, Note_off_c, 7, 64, 64
9, 109080, Note_on_c, 7, 64, 75
9, 109480, Note_off_c, 7, 64, 64
9, 109800, Note_on_c, 7, 64, 75
9, 109880, Note_off_c, 7, 64, 64
9, 110040, Note_on_c, 7, 64, 75
9, 110275, Note_off_c, 7, 64, 64
9, 110520, Note_on_c, 7, 57, 75
9, 110755, Note_off_c, 7, 57, 64
9, 111000, Note_on_c, 7, 57, 75
9, 111400, Note_off_c, 7, 57, 64
9, 117840, Note_on_c, 7, 74, 92
9, 118480, Note_off_c, 7, 74, 64
9, 118560, Note_on_c, 7, 74, 92
9, 118795, Note_off_c, 7, 74, 64
9, 118800, Note_on_c, 7, 72, 92
9, 119035, Note_off_c, 7, 72, 64
9, 119040, Note_on_c, 7, 71, 92
9, 119275, Note_off_c, 7, 71, 64
9, 119280, Note_on_c, 7, 72, 92
9, 119515, Note_off_c, 7, 72, 64
9, 119520, Note_on_c, 7, 69, 92
9, 119755, Note_off_c, 7, 69, 64
9, 119760, Note_on_c, 7, 71, 92
9, 119995, Note_off_c, 7, 71, 64
9, 120000, Note_on_c, 7, 69, 92
9, 120235, Note_off_c, 7, 69, 64
9, 120240, Note_on_c, 7, 71, 92
9, 120475, Note_off_c, 7, 71, 64
9, 120480, Note_on_c, 7, 67, 92
9, 120715, Note_off_c, 7, 67, 64
9, 120720, Note_on_c, 7, 69, 92
9, 120955, Note_off_c, 7, 69, 64
9, 120960, Note_on_c, 7, 67, 92
9, 121195, Note_off_c, 7, 67, 64
9, 121200, Note_on_c, 7, 69, 92
9, 121435, Note_off_c, 7, 69, 64
9, 121440, Note_on_c, 7, 66, 92
9, 121675, Note_off_c, 7, 66, 64
9, 121680, Note_on_c, 7, 67, 92
9, 121915, Note_off_c, 7, 67, 64
9, 121920, Note_on_c, 7, 66, 92
9, 122155, Note_off_c, 7, 66, 64
9, 122160, Note_on_c, 7, 67, 92
9, 122395, Note_off_c, 7, 67, 64
9, 122400, Note_on_c, 7, 64, 92
9, 122635, Note_off_c, 7, 64, 64
9, 122640, Note_on_c, 7, 66, 92
9, 122875, Note_off_c, 7, 66, 64
9, 123120, Note_on_c, 7, 58, 92
9, 123600, Note_off_c, 7, 58, 64
9, 123600, Note_on_c, 7, 59, 92
9, 124080, Note_off_c, 7, 59, 64
9, 124080, Note_on_c, 7, 61, 92
9, 124315, Note_off_c, 7, 61, 64
9, 124320, Note_on_c, 7, 64, 92
9, 124555, Note_off_c, 7, 64, 64
9, 124560, Note_on_c, 7, 62, 92
9, 124960, Note_off_c, 7, 62, 64
9, 126480, Note_on_c, 7, 64, 92
9, 127120, Note_off_c, 7, 64, 64
9, 127200, Note_on_c, 7, 64, 92
9, 127435, Note_off_c, 7, 64, 64
9, 127440, Note_on_c, 7, 62, 92
9, 127675, Note_off_c, 7, 62, 64
9, 127680, Note_on_c, 7, 61, 92
9, 127915, Note_off_c, 7, 61, 64
9, 127920, Note_on_c, 7, 62, 92
9, 128155, Note_off_c, 7, 62, 64
9, 128160, Note_on_c, 7, 59, 92
9, 128395, Note_off_c, 7, 59, 64
9, 128400, Note_on_c, 7, 57, 92
9, 128635, Note_off_c, 7, 57, 64
9, 128880, Note_on_c, 7, 69, 92
9, 129360, Note_off_c, 7, 69, 64
9, 129360, Note_on_c, 7, 71, 92
9, 129840, Note_off_c, 7, 71, 64
9, 129840, Note_on_c, 7, 73, 92
9, 130320, Note_off_c, 7, 73, 64
9, 130320, Note_on_c, 7, 74, 92
9, 130720, Note_off_c, 7, 74, 64
9, 130800, Note_on_c, 7, 62, 92
9, 131200, Note_off_c, 7, 62, 64
9, 131280, Note_on_c, 7, 57, 92
9, 132640, Note_off_c, 7, 57, 64
9, 132720, Note_on_c, 7, 55, 92
9, 133600, Note_off_c, 7, 55, 64
9, 133680, Note_on_c, 7, 54, 92
9, 133915, Note_off_c, 7, 54, 64
9, 133920, Note_on_c, 7, 55, 92
9, 134155, Note_off_c, 7, 55, 64
9, 134160, Note_on_c, 7, 57, 92
9, 135000, Note_off_c, 7, 57, 64
9, 135120, Note_on_c, 7, 58, 92
9, 135120, Note_on_c, 7, 65, 92
9, 135520, Note_off_c, 7, 65, 64
9, 135520, Note_off_c, 7, 58, 64
9, 136140, Note_on_c, 7, 59, 92
9, 136140, Note_on_c, 7, 62, 92
9, 136540, Note_off_c, 7, 62, 64
9, 136540, Note_off_c, 7, 59, 64
9, 137160, Note_on_c, 7, 57, 92
9, 137160, Note_on_c, 7, 64, 92
9, 137160, Note_on_c, 7, 69, 92
9, 137800, Note_off_c, 7, 69, 64
9, 137800, Note_off_c, 7, 64, 64
9, 137800, Note_off_c, 7, 57, 64
9, 137880, Note_on_c, 7, 69, 75
9, 137960, Note_off_c, 7, 69, 64
9, 138120, Note_on_c, 7, 67, 69
9, 138200, Note_off_c, 7, 67, 64
9, 138360, Note_on_c, 7, 66, 63
9, 138440, Note_off_c, 7, 66, 64
9, 138600, Note_on_c, 7, 67, 57
9, 138680, Note_off_c, 7, 67, 64
9, 138840, Note_on_c, 7, 64, 51
9, 138920, Note_off_c, 7, 64, 64
9, 139080, Note_on_c, 7, 66, 45
9, 139160, Note_off_c, 7, 66, 64
9, 139560, Note_on_c, 7, 69, 45
9, 139640, Note_off_c, 7, 69, 64
9, 140040, Note_on_c, 7, 67, 45
9, 140120, Note_off_c, 7, 67, 64
9, 141000, Note_on_c, 7, 64, 45
9, 141080, Note_off_c, 7, 64, 64
9, 141480, Note_on_c, 7, 64, 45
9, 141560, Note_off_c, 7, 64, 64
9, 141960, Note_on_c, 7, 62, 45
9, 142040, Note_off_c, 7, 62, 64
9, 142980, Note_on_c, 7, 62, 75
9, 143215, Note_off_c, 7, 62, 64
9, 143220, Note_on_c, 7, 62, 75
9, 143455, Note_off_c, 7, 62, 64
9, 143460, Note_on_c, 7, 62, 75
9, 143695, Note_off_c, 7, 62, 64
9, 143700, Note_on_c, 7, 62, 75
9, 143935, Note_off_c, 7, 62, 64
9, 143940, Note_on_c, 7, 62, 75
9, 144175, Note_off_c, 7, 62, 64
9, 144180, Note_on_c, 7, 62, 75
9, 144415, Note_off_c, 7, 62, 64
9, 144420, Note_on_c, 7, 62, 75
9, 144655, Note_off_c, 7, 62, 64
9, 144660, Note_on_c, 7, 62, 75
9, 144895, Note_off_c, 7, 62, 64
9, 144900, Note_on_c, 7, 64, 75
9, 145620, Note_off_c, 7, 64, 64
9, 145620, Note_on_c, 7, 62, 75
9, 145740, Note_off_c, 7, 62, 64
9, 145740, Note_on_c, 7, 61, 75
9, 145860, Note_off_c, 7, 61, 64
9, 145860, Note_on_c, 7, 62, 75
9, 146095, Note_off_c, 7, 62, 64
9, 146100, Note_on_c, 7, 62, 75
9, 146335, Note_off_c, 7, 62, 64
9, 146340, Note_on_c, 7, 62, 75
9, 146575, Note_off_c, 7, 62, 64
9, 146580, Note_on_c, 7, 62, 75
9, 146815, Note_off_c, 7, 62, 64
9, 146820, Note_on_c, 7, 62, 75
9, 147055, Note_off_c, 7, 62, 64
9, 147060, Note_on_c, 7, 62, 75
9, 147295, Note_off_c, 7, 62, 64
9, 147300, Note_on_c, 7, 62, 75
9, 147535, Note_off_c, 7, 62, 64
9, 147540, Note_on_c, 7, 62, 75
9, 147775, Note_off_c, 7, 62, 64
9, 147780, Note_on_c, 7, 62, 75
9, 148015, Note_off_c, 7, 62, 64
9, 148020, Note_on_c, 7, 62, 75
9, 148255, Note_off_c, 7, 62, 64
9, 148260, Note_on_c, 7, 62, 75
9, 148495, Note_off_c, 7, 62, 64
9, 148500, Note_on_c, 7, 62, 75
9, 148735, Note_off_c, 7, 62, 64
9, 148740, Note_on_c, 7, 61, 75
9, 149460, Note_off_c, 7, 61, 64
9, 149460, Note_on_c, 7, 62, 75
9, 149580, Note_off_c, 7, 62, 64
9, 149580, Note_on_c, 7, 64, 75
9, 149700, Note_off_c, 7, 64, 64
9, 149700, Note_on_c, 7, 62, 75
9, 149935, Note_off_c, 7, 62, 64
9, 149940, Note_on_c, 7, 66, 75
9, 150175, Note_off_c, 7, 66, 64
9, 150180, Note_on_c, 7, 66, 75
9, 150415, Note_off_c, 7, 66, 64
9, 150420, Note_on_c, 7, 66, 75
9, 150655, Note_off_c, 7, 66, 64
9, 150660, Note_on_c, 7, 62, 75
9, 150895, Note_off_c, 7, 62, 64
9, 150900, Note_on_c, 7, 62, 75
9, 151135, Note_off_c, 7, 62, 64
9, 151140, Note_on_c, 7, 62, 75
9, 151375, Note_off_c, 7, 62, 64
9, 151380, Note_on_c, 7, 62, 75
9, 151615, Note_off_c, 7, 62, 64
9, 151620, Note_on_c, 7, 50, 75
9, 151855, Note_off_c, 7, 50, 64
9, 151860, Note_on_c, 7, 50, 75
9, 152095, Note_off_c, 7, 50, 64
9, 152100, Note_on_c, 7, 50, 75
9, 152335, Note_off_c, 7, 50, 64
9, 152340, Note_on_c, 7, 50, 75
9, 152575, Note_off_c, 7, 50, 64
9, 152580, Note_on_c, 7, 57, 75
9, 152815, Note_off_c, 7, 57, 64
9, 152820, Note_on_c, 7, 57, 75
9, 153055, Note_off_c, 7, 57, 64
9, 153060, Note_on_c, 7, 57, 75
9, 153295, Note_off_c, 7, 57, 64
9, 153300, Note_on_c, 7, 57, 75
9, 153535, Note_off_c, 7, 57, 64
9, 153540, Note_on_c, 7, 57, 75
9, 153775, Note_off_c, 7, 57, 64
9, 153780, Note_on_c, 7, 57, 75
9, 154015, Note_off_c, 7, 57, 64
9, 154020, Note_on_c, 7, 57, 75
9, 154255, Note_off_c, 7, 57, 64
9, 154260, Note_on_c, 7, 57, 75
9, 154495, Note_off_c, 7, 57, 64
9, 154500, Note_on_c, 7, 62, 75
9, 154735, Note_off_c, 7, 62, 64
9, 154740, Note_on_c, 7, 62, 75
9, 154975, Note_off_c, 7, 62, 64
9, 154980, Note_on_c, 7, 62, 75
9, 155215, Note_off_c, 7, 62, 64
9, 155220, Note_on_c, 7, 62, 75
9, 155455, Note_off_c, 7, 62, 64
9, 155460, Note_on_c, 7, 50, 75
9, 155695, Note_off_c, 7, 50, 64
9, 155700, Note_on_c, 7, 50, 75
9, 155935, Note_off_c, 7, 50, 64
9, 155940, Note_on_c, 7, 50, 75
9, 156175, Note_off_c, 7, 50, 64
9, 156180, Note_on_c, 7, 50, 75
9, 156415, Note_off_c, 7, 50, 64
9, 156420, Note_on_c, 7, 57, 75
9, 156655, Note_off_c, 7, 57, 64
9, 156660, Note_on_c, 7, 57, 75
9, 156895, Note_off_c, 7, 57, 64
9, 156900, Note_on_c, 7, 57, 75
9, 157135, Note_off_c, 7, 57, 64
9, 157140, Note_on_c, 7, 57, 75
9, 157375, Note_off_c, 7, 57, 64
9, 157380, Note_on_c, 7, 57, 75
9, 157615, Note_off_c, 7, 57, 64
9, 157620, Note_on_c, 7, 57, 75
9, 157855, Note_off_c, 7, 57, 64
9, 157860, Note_on_c, 7, 57, 75
9, 158095, Note_off_c, 7, 57, 64
9, 158100, Note_on_c, 7, 57, 75
9, 158335, Note_off_c, 7, 57, 64
9, 158340, Note_on_c, 7, 55, 75
9, 158575, Note_off_c, 7, 55, 64
9, 158580, Note_on_c, 7, 67, 75
9, 158815, Note_off_c, 7, 67, 64
9, 158820, Note_on_c, 7, 69, 75
9, 159055, Note_off_c, 7, 69, 64
9, 159060, Note_on_c, 7, 57, 75
9, 159295, Note_off_c, 7, 57, 64
9, 159300, Note_on_c, 7, 57, 92
9, 159535, Note_off_c, 7, 57, 64
9, 159540, Note_on_c, 7, 69, 92
9, 159780, Note_off_c, 7, 69, 64
9, 159780, Note_on_c, 7, 73, 92
9, 160020, Note_off_c, 7, 73, 64
9, 160020, Note_on_c, 7, 74, 92
9, 160260, Note_off_c, 7, 74, 64
9, 160260, Note_on_c, 7, 69, 92
9, 160340, Note_off_c, 7, 69, 64
9, 160740, Note_on_c, 7, 69, 92
9, 160820, Note_off_c, 7, 69, 64
9, 161220, Note_on_c, 7, 69, 92
9, 161300, Note_off_c, 7, 69, 64
9, 162180, Note_on_c, 7, 62, 45
9, 162415, Note_off_c, 7, 62, 64
9, 162420, Note_on_c, 7, 62, 45
9, 162655, Note_off_c, 7, 62, 64
9, 162660, Note_on_c, 7, 62, 45
9, 162895, Note_off_c, 7, 62, 64
9, 162900, Note_on_c, 7, 62, 45
9, 163135, Note_off_c, 7, 62, 64
9, 163140, Note_on_c, 7, 62, 45
9, 163375, Note_off_c, 7, 62, 64
9, 163380, Note_on_c, 7, 62, 45
9, 163615, Note_off_c, 7, 62, 64
9, 163620, Note_on_c, 7, 62, 45
9, 163855, Note_off_c, 7, 62, 64
9, 163860, Note_on_c, 7, 62, 45
9, 164095, Note_off_c, 7, 62, 64
9, 164100, Note_on_c, 7, 62, 45
9, 164335, Note_off_c, 7, 62, 64
9, 164340, Note_on_c, 7, 62, 45
9, 164575, Note_off_c, 7, 62, 64
9, 164580, Note_on_c, 7, 62, 45
9, 164815, Note_off_c, 7, 62, 64
9, 164820, Note_on_c, 7, 62, 45
9, 165055, Note_off_c, 7, 62, 64
9, 165060, Note_on_c, 7, 62, 45
9, 165295, Note_off_c, 7, 62, 64
9, 165300, Note_on_c, 7, 62, 45
9, 165535, Note_off_c, 7, 62, 64
9, 165540, Note_on_c, 7, 62, 45
9, 165775, Note_off_c, 7, 62, 64
9, 165780, Note_on_c, 7, 62, 45
9, 166015, Note_off_c, 7, 62, 64
9, 166020, Note_on_c, 7, 50, 45
9, 166255, Note_off_c, 7, 50, 64
9, 166260, Note_on_c, 7, 50, 45
9, 166495, Note_off_c, 7, 50, 64
9, 166500, Note_on_c, 7, 50, 45
9, 166735, Note_off_c, 7, 50, 64
9, 166740, Note_on_c, 7, 50, 45
9, 166975, Note_off_c, 7, 50, 64
9, 166980, Note_on_c, 7, 50, 30
9, 167215, Note_off_c, 7, 50, 64
9, 167220, Note_on_c, 7, 50, 30
9, 167455, Note_off_c, 7, 50, 64
9, 167460, Note_on_c, 7, 50, 30
9, 167695, Note_off_c, 7, 50, 64
9, 167700, Note_on_c, 7, 50, 30
9, 167935, Note_off_c, 7, 50, 64
9, 167940, Note_on_c, 7, 50, 30
9, 168175, Note_off_c, 7, 50, 64
9, 168180, Note_on_c, 7, 50, 30
9, 168415, Note_off_c, 7, 50, 64
9, 168420, Note_on_c, 7, 50, 30
9, 168655, Note_off_c, 7, 50, 64
9, 168660, Note_on_c, 7, 50, 30
9, 168895, Note_off_c, 7, 50, 64
9, 168900, Note_on_c, 7, 50, 30
9, 169135, Note_off_c, 7, 50, 64
9, 169140, Note_on_c, 7, 50, 30
9, 169375, Note_off_c, 7, 50, 64
9, 169380, Note_on_c, 7, 50, 30
9, 169615, Note_off_c, 7, 50, 64
9, 169620, Note_on_c, 7, 50, 30
9, 169855, Note_off_c, 7, 50, 64
9, 169860, Note_on_c, 7, 50, 30
9, 170095, Note_off_c, 7, 50, 64
9, 170100, Note_on_c, 7, 50, 30
9, 170335, Note_off_c, 7, 50, 64
9, 170340, Note_on_c, 7, 50, 30
9, 170575, Note_off_c, 7, 50, 64
9, 170580, Note_on_c, 7, 50, 30
9, 170815, Note_off_c, 7, 50, 64
9, 170820, Note_on_c, 7, 50, 30
9, 171055, Note_off_c, 7, 50, 64
9, 171060, Note_on_c, 7, 62, 92
9, 171140, Note_off_c, 7, 62, 64
9, 171300, Note_on_c, 7, 64, 92
9, 171380, Note_off_c, 7, 64, 64
9, 171540, Note_on_c, 7, 66, 92
9, 171620, Note_off_c, 7, 66, 64
9, 171780, Note_on_c, 7, 66, 92
9, 172020, Note_off_c, 7, 66, 64
9, 172020, Note_on_c, 7, 67, 92
9, 172255, Note_off_c, 7, 67, 64
9, 172260, Note_on_c, 7, 67, 92
9, 172975, Note_off_c, 7, 67, 64
9, 172980, Note_on_c, 7, 64, 92
9, 173215, Note_off_c, 7, 64, 64
9, 173220, Note_on_c, 7, 62, 92
9, 173340, Note_off_c, 7, 62, 64
9, 173340, Note_on_c, 7, 61, 92
9, 173460, Note_off_c, 7, 61, 64
9, 173460, Note_on_c, 7, 59, 92
9, 173580, Note_off_c, 7, 59, 64
9, 173580, Note_on_c, 7, 57, 92
9, 173700, Note_off_c, 7, 57, 64
9, 173700, Note_on_c, 7, 66, 92
9, 173935, Note_off_c, 7, 66, 64
9, 174240, Note_on_c, 7, 66, 92
9, 174955, Note_off_c, 7, 66, 64
9, 174960, Note_on_c, 7, 62, 92
9, 175040, Note_off_c, 7, 62, 64
9, 175200, Note_on_c, 7, 64, 92
9, 175280, Note_off_c, 7, 64, 64
9, 175440, Note_on_c, 7, 66, 92
9, 175520, Note_off_c, 7, 66, 64
9, 175680, Note_on_c, 7, 66, 92
9, 175920, Note_off_c, 7, 66, 64
9, 175920, Note_on_c, 7, 67, 92
9, 176155, Note_off_c, 7, 67, 64
9, 176160, Note_on_c, 7, 67, 92
9, 176875, Note_off_c, 7, 67, 64
9, 176880, Note_on_c, 7, 64, 92
9, 177115, Note_off_c, 7, 64, 64
9, 177120, Note_on_c, 7, 62, 92
9, 177240, Note_off_c, 7, 62, 64
9, 177240, Note_on_c, 7, 61, 92
9, 177360, Note_off_c, 7, 61, 64
9, 177360, Note_on_c, 7, 59, 92
9, 177480, Note_off_c, 7, 59, 64
9, 177480, Note_on_c, 7, 57, 92
9, 177600, Note_off_c, 7, 57, 64
9, 177600, Note_on_c, 7, 66, 92
9, 177835, Note_off_c, 7, 66, 64
9, 178140, Note_on_c, 7, 66, 92
9, 178855, Note_off_c, 7, 66, 64
9, 178860, Note_on_c, 7, 62, 92
9, 179095, Note_off_c, 7, 62, 64
9, 179100, Note_on_c, 7, 62, 92
9, 179335, Note_off_c, 7, 62, 64
9, 179340, Note_on_c, 7, 62, 92
9, 179575, Note_off_c, 7, 62, 64
9, 179580, Note_on_c, 7, 62, 92
9, 179815, Note_off_c, 7, 62, 64
9, 179880, Note_on_c, 7, 62, 92
9, 180115, Note_off_c, 7, 62, 64
9, 180120, Note_on_c, 7, 62, 92
9, 180355, Note_off_c, 7, 62, 64
9, 180360, Note_on_c, 7, 62, 92
9, 180595, Note_off_c, 7, 62, 64
9, 180600, Note_on_c, 7, 62, 92
9, 180835, Note_off_c, 7, 62, 64
9, 180840, Note_on_c, 7, 62, 92
9, 181075, Note_off_c, 7, 62, 64
9, 181080, Note_on_c, 7, 62, 92
9, 181315, Note_off_c, 7, 62, 64
9, 181320, Note_on_c, 7, 62, 92
9, 181555, Note_off_c, 7, 62, 64
9, 181560, Note_on_c, 7, 66, 92
9, 181675, Note_off_c, 7, 66, 64
9, 181680, Note_on_c, 7, 66, 92
9, 181795, Note_off_c, 7, 66, 64
9, 181800, Note_on_c, 7, 66, 92
9, 181915, Note_off_c, 7, 66, 64
9, 181920, Note_on_c, 7, 66, 92
9, 182035, Note_off_c, 7, 66, 64
9, 182040, Note_on_c, 7, 69, 92
9, 182155, Note_off_c, 7, 69, 64
9, 182160, Note_on_c, 7, 69, 92
9, 182275, Note_off_c, 7, 69, 64
9, 182280, Note_on_c, 7, 69, 92
9, 182395, Note_off_c, 7, 69, 64
9, 182400, Note_on_c, 7, 69, 92
9, 182515, Note_off_c, 7, 69, 64
9, 182520, Note_on_c, 7, 67, 92
9, 182635, Note_off_c, 7, 67, 64
9, 182640, Note_on_c, 7, 67, 92
9, 182755, Note_off_c, 7, 67, 64
9, 182760, Note_on_c, 7, 67, 92
9, 182875, Note_off_c, 7, 67, 64
9, 182880, Note_on_c, 7, 67, 92
9, 182995, Note_off_c, 7, 67, 64
9, 183000, Note_on_c, 7, 67, 92
9, 183115, Note_off_c, 7, 67, 64
9, 183120, Note_on_c, 7, 67, 92
9, 183235, Note_off_c, 7, 67, 64
9, 183240, Note_on_c, 7, 67, 92
9, 183355, Note_off_c, 7, 67, 64
9, 183360, Note_on_c, 7, 67, 92
9, 183475, Note_off_c, 7, 67, 64
9, 183480, Note_on_c, 7, 66, 75
9, 183880, Note_off_c, 7, 66, 64
9, 184440, Note_on_c, 7, 62, 75
9, 184840, Note_off_c, 7, 62, 64
9, 185400, Note_on_c, 7, 62, 75
9, 185800, Note_off_c, 7, 62, 64
9, 186360, Note_on_c, 7, 66, 75
9, 186595, Note_off_c, 7, 66, 64
9, 186600, Note_on_c, 7, 69, 75
9, 186840, Note_off_c, 7, 69, 64
9, 186840, Note_on_c, 7, 67, 75
9, 187080, Note_off_c, 7, 67, 64
9, 187080, Note_on_c, 7, 66, 75
9, 187320, Note_off_c, 7, 66, 64
9, 187320, Note_on_c, 7, 67, 75
9, 187720, Note_off_c, 7, 67, 64
9, 188280, Note_on_c, 7, 62, 75
9, 188680, Note_off_c, 7, 62, 64
9, 188760, Note_on_c, 7, 62, 75
9, 189160, Note_off_c, 7, 62, 64
9, 189240, Note_on_c, 7, 62, 75
9, 189355, Note_off_c, 7, 62, 64
9, 189360, Note_on_c, 7, 62, 75
9, 189475, Note_off_c, 7, 62, 64
9, 189480, Note_on_c, 7, 62, 75
9, 189595, Note_off_c, 7, 62, 64
9, 189600, Note_on_c, 7, 62, 75
9, 189715, Note_off_c, 7, 62, 64
9, 189720, Note_on_c, 7, 62, 75
9, 189835, Note_off_c, 7, 62, 64
9, 189840, Note_on_c, 7, 62, 75
9, 189955, Note_off_c, 7, 62, 64
9, 189960, Note_on_c, 7, 62, 75
9, 190075, Note_off_c, 7, 62, 64
9, 190080, Note_on_c, 7, 62, 75
9, 190195, Note_off_c, 7, 62, 64
9, 190200, Note_on_c, 7, 61, 75
9, 190315, Note_off_c, 7, 61, 64
9, 190320, Note_on_c, 7, 61, 75
9, 190435, Note_off_c, 7, 61, 64
9, 190440, Note_on_c, 7, 61, 75
9, 190555, Note_off_c, 7, 61, 64
9, 190560, Note_on_c, 7, 61, 75
9, 190675, Note_off_c, 7, 61, 64
9, 190680, Note_on_c, 7, 61, 75
9, 190795, Note_off_c, 7, 61, 64
9, 190800, Note_on_c, 7, 61, 75
9, 190915, Note_off_c, 7, 61, 64
9, 190920, Note_on_c, 7, 61, 75
9, 191035, Note_off_c, 7, 61, 64
9, 191040, Note_on_c, 7, 61, 75
9, 191155, Note_off_c, 7, 61, 64
9, 191160, Note_on_c, 7, 62, 75
9, 191560, Note_off_c, 7, 62, 64
9, 191880, Note_on_c, 7, 64, 81
9, 192115, Note_off_c, 7, 64, 64
9, 192120, Note_on_c, 7, 62, 83
9, 192520, Note_off_c, 7, 62, 64
9, 192840, Note_on_c, 7, 64, 89
9, 193075, Note_off_c, 7, 64, 64
9, 193080, Note_on_c, 7, 62, 92
9, 193315, Note_off_c, 7, 62, 64
9, 193560, Note_on_c, 7, 62, 92
9, 193560, Note_on_c, 7, 69, 92
9, 193960, Note_off_c, 7, 69, 64
9, 193960, Note_off_c, 7, 62, 64
9, 194040, Note_on_c, 7, 62, 92
9, 194040, Note_on_c, 7, 69, 92
9, 194440, Note_off_c, 7, 69, 64
9, 194440, Note_off_c, 7, 62, 64
9, 194440, End_track
10, 0, Start_track
10, 0, MIDI_port, 0
10, 0, Channel_prefix, 8
10, 0, Control_c, 8, 7, 127
10, 0, Control_c, 8, 10, 95
10, 0, Control_c, 8, 91, 127
10, 0, Program_c, 8, 48
10, 0, Note_on_c, 8, 50, 45
10, 80, Note_off_c, 8, 50, 64
10, 480, Note_on_c, 8, 38, 45
10, 560, Note_off_c, 8, 38, 64
10, 960, Note_on_c, 8, 43, 45
10, 1040, Note_off_c, 8, 43, 64
10, 1920, Note_on_c, 8, 40, 45
10, 2000, Note_off_c, 8, 40, 64
10, 2400, Note_on_c, 8, 45, 45
10, 2480, Note_off_c, 8, 45, 64
10, 2880, Note_on_c, 8, 38, 45
10, 2960, Note_off_c, 8, 38, 64
10, 3840, Note_on_c, 8, 50, 75
10, 4075, Note_off_c, 8, 50, 64
10, 4080, Note_on_c, 8, 50, 75
10, 4315, Note_off_c, 8, 50, 64
10, 4320, Note_on_c, 8, 50, 75
10, 4555, Note_off_c, 8, 50, 64
10, 4560, Note_on_c, 8, 50, 75
10, 4795, Note_off_c, 8, 50, 64
10, 4800, Note_on_c, 8, 50, 75
10, 5035, Note_off_c, 8, 50, 64
10, 5040, Note_on_c, 8, 50, 75
10, 5275, Note_off_c, 8, 50, 64
10, 5280, Note_on_c, 8, 50, 75
10, 5515, Note_off_c, 8, 50, 64
10, 5520, Note_on_c, 8, 50, 75
10, 5755, Note_off_c, 8, 50, 64
10, 5760, Note_on_c, 8, 50, 75
10, 5995, Note_off_c, 8, 50, 64
10, 6000, Note_on_c, 8, 50, 75
10, 6235, Note_off_c, 8, 50, 64
10, 6240, Note_on_c, 8, 50, 75
10, 6475, Note_off_c, 8, 50, 64
10, 6480, Note_on_c, 8, 50, 75
10, 6715, Note_off_c, 8, 50, 64
10, 6720, Note_on_c, 8, 50, 75
10, 6955, Note_off_c, 8, 50, 64
10, 6960, Note_on_c, 8, 50, 75
10, 7195, Note_off_c, 8, 50, 64
10, 7200, Note_on_c, 8, 50, 75
10, 7435, Note_off_c, 8, 50, 64
10, 7440, Note_on_c, 8, 50, 75
10, 7675, Note_off_c, 8, 50, 64
10, 7680, Note_on_c, 8, 38, 75
10, 7915, Note_off_c, 8, 38, 64
10, 7920, Note_on_c, 8, 38, 75
10, 8155, Note_off_c, 8, 38, 64
10, 8160, Note_on_c, 8, 38, 75
10, 8395, Note_off_c, 8, 38, 64
10, 8400, Note_on_c, 8, 38, 75
10, 8635, Note_off_c, 8, 38, 64
10, 8640, Note_on_c, 8, 38, 75
10, 8875, Note_off_c, 8, 38, 64
10, 8880, Note_on_c, 8, 38, 75
10, 9115, Note_off_c, 8, 38, 64
10, 9120, Note_on_c, 8, 38, 75
10, 9355, Note_off_c, 8, 38, 64
10, 9360, Note_on_c, 8, 38, 75
10, 9595, Note_off_c, 8, 38, 64
10, 9600, Note_on_c, 8, 38, 75
10, 9835, Note_off_c, 8, 38, 64
10, 9840, Note_on_c, 8, 38, 75
10, 10075, Note_off_c, 8, 38, 64
10, 10080, Note_on_c, 8, 38, 75
10, 10315, Note_off_c, 8, 38, 64
10, 10320, Note_on_c, 8, 38, 75
10, 10555, Note_off_c, 8, 38, 64
10, 10560, Note_on_c, 8, 38, 75
10, 10795, Note_off_c, 8, 38, 64
10, 10800, Note_on_c, 8, 38, 75
10, 11035, Note_off_c, 8, 38, 64
10, 11040, Note_on_c, 8, 38, 75
10, 11275, Note_off_c, 8, 38, 64
10, 11280, Note_on_c, 8, 38, 75
10, 11515, Note_off_c, 8, 38, 64
10, 11520, Note_on_c, 8, 38, 75
10, 11755, Note_off_c, 8, 38, 64
10, 11760, Note_on_c, 8, 38, 75
10, 11995, Note_off_c, 8, 38, 64
10, 12000, Note_on_c, 8, 38, 75
10, 12235, Note_off_c, 8, 38, 64
10, 12240, Note_on_c, 8, 38, 75
10, 12475, Note_off_c, 8, 38, 64
10, 12480, Note_on_c, 8, 38, 75
10, 12715, Note_off_c, 8, 38, 64
10, 12720, Note_on_c, 8, 38, 75
10, 12955, Note_off_c, 8, 38, 64
10, 12960, Note_on_c, 8, 38, 75
10, 13195, Note_off_c, 8, 38, 64
10, 13200, Note_on_c, 8, 38, 75
10, 13435, Note_off_c, 8, 38, 64
10, 13440, Note_on_c, 8, 45, 75
10, 13675, Note_off_c, 8, 45, 64
10, 13680, Note_on_c, 8, 45, 75
10, 13915, Note_off_c, 8, 45, 64
10, 13920, Note_on_c, 8, 45, 75
10, 14155, Note_off_c, 8, 45, 64
10, 14160, Note_on_c, 8, 45, 75
10, 14395, Note_off_c, 8, 45, 64
10, 14400, Note_on_c, 8, 50, 75
10, 14635, Note_off_c, 8, 50, 64
10, 14640, Note_on_c, 8, 50, 75
10, 14875, Note_off_c, 8, 50, 64
10, 14880, Note_on_c, 8, 50, 75
10, 15115, Note_off_c, 8, 50, 64
10, 15120, Note_on_c, 8, 50, 75
10, 15355, Note_off_c, 8, 50, 64
10, 15360, Note_on_c, 8, 38, 75
10, 15595, Note_off_c, 8, 38, 64
10, 15600, Note_on_c, 8, 38, 75
10, 15835, Note_off_c, 8, 38, 64
10, 15840, Note_on_c, 8, 38, 75
10, 16075, Note_off_c, 8, 38, 64
10, 16080, Note_on_c, 8, 38, 75
10, 16315, Note_off_c, 8, 38, 64
10, 16320, Note_on_c, 8, 38, 75
10, 16555, Note_off_c, 8, 38, 64
10, 16560, Note_on_c, 8, 38, 75
10, 16795, Note_off_c, 8, 38, 64
10, 16800, Note_on_c, 8, 38, 75
10, 17035, Note_off_c, 8, 38, 64
10, 17040, Note_on_c, 8, 38, 75
10, 17275, Note_off_c, 8, 38, 64
10, 17280, Note_on_c, 8, 45, 75
10, 17515, Note_off_c, 8, 45, 64
10, 17520, Note_on_c, 8, 45, 75
10, 17755, Note_off_c, 8, 45, 64
10, 17760, Note_on_c, 8, 45, 75
10, 17995, Note_off_c, 8, 45, 64
10, 18000, Note_on_c, 8, 45, 75
10, 18235, Note_off_c, 8, 45, 64
10, 18240, Note_on_c, 8, 50, 75
10, 18475, Note_off_c, 8, 50, 64
10, 18480, Note_on_c, 8, 50, 75
10, 18715, Note_off_c, 8, 50, 64
10, 18720, Note_on_c, 8, 50, 75
10, 18955, Note_off_c, 8, 50, 64
10, 18960, Note_on_c, 8, 50, 75
10, 19195, Note_off_c, 8, 50, 64
10, 19200, Note_on_c, 8, 50, 75
10, 19435, Note_off_c, 8, 50, 64
10, 19440, Note_on_c, 8, 50, 79
10, 19675, Note_off_c, 8, 50, 64
10, 19680, Note_on_c, 8, 50, 83
10, 19915, Note_off_c, 8, 50, 64
10, 19920, Note_on_c, 8, 50, 87
10, 20155, Note_off_c, 8, 50, 64
10, 20160, Note_on_c, 8, 49, 92
10, 20240, Note_off_c, 8, 49, 64
10, 20400, Note_on_c, 8, 61, 92
10, 20640, Note_off_c, 8, 61, 64
10, 20640, Note_on_c, 8, 59, 92
10, 20880, Note_off_c, 8, 59, 64
10, 20880, Note_on_c, 8, 57, 92
10, 21120, Note_off_c, 8, 57, 64
10, 21120, Note_on_c, 8, 56, 92
10, 21200, Note_off_c, 8, 56, 64
10, 21600, Note_on_c, 8, 57, 92
10, 21680, Note_off_c, 8, 57, 64
10, 22080, Note_on_c, 8, 52, 92
10, 22160, Note_off_c, 8, 52, 64
10, 23100, Note_on_c, 8, 57, 45
10, 23500, Note_off_c, 8, 57, 64
10, 24060, Note_on_c, 8, 45, 45
10, 24460, Note_off_c, 8, 45, 64
10, 25020, Note_on_c, 8, 50, 45
10, 25420, Note_off_c, 8, 50, 64
10, 25980, Note_on_c, 8, 38, 45
10, 26380, Note_off_c, 8, 38, 64
10, 26940, Note_on_c, 8, 45, 45
10, 27340, Note_off_c, 8, 45, 64
10, 27900, Note_on_c, 8, 45, 30
10, 28300, Note_off_c, 8, 45, 64
10, 28860, Note_on_c, 8, 50, 30
10, 29260, Note_off_c, 8, 50, 64
10, 29820, Note_on_c, 8, 38, 30
10, 30220, Note_off_c, 8, 38, 64
10, 30780, Note_on_c, 8, 45, 30
10, 31180, Note_off_c, 8, 45, 64
10, 31740, Note_on_c, 8, 45, 30
10, 31820, Note_off_c, 8, 45, 64
10, 31980, Note_on_c, 8, 61, 92
10, 32060, Note_off_c, 8, 61, 64
10, 32220, Note_on_c, 8, 59, 92
10, 32300, Note_off_c, 8, 59, 64
10, 32460, Note_on_c, 8, 57, 92
10, 32540, Note_off_c, 8, 57, 64
10, 32700, Note_on_c, 8, 56, 92
10, 32780, Note_off_c, 8, 56, 64
10, 32940, Note_on_c, 8, 56, 92
10, 33020, Note_off_c, 8, 56, 64
10, 33180, Note_on_c, 8, 56, 92
10, 33260, Note_off_c, 8, 56, 64
10, 33420, Note_on_c, 8, 56, 92
10, 33500, Note_off_c, 8, 56, 64
10, 33660, Note_on_c, 8, 52, 92
10, 33740, Note_off_c, 8, 52, 64
10, 33900, Note_on_c, 8, 52, 92
10, 33980, Note_off_c, 8, 52, 64
10, 34140, Note_on_c, 8, 52, 92
10, 34220, Note_off_c, 8, 52, 64
10, 34380, Note_on_c, 8, 52, 92
10, 34460, Note_off_c, 8, 52, 64
10, 34620, Note_on_c, 8, 45, 92
10, 34855, Note_off_c, 8, 45, 64
10, 34920, Note_on_c, 8, 45, 92
10, 35000, Note_off_c, 8, 45, 64
10, 35160, Note_on_c, 8, 45, 92
10, 35240, Note_off_c, 8, 45, 64
10, 35400, Note_on_c, 8, 45, 92
10, 35480, Note_off_c, 8, 45, 64
10, 35640, Note_on_c, 8, 45, 92
10, 35720, Note_off_c, 8, 45, 64
10, 35880, Note_on_c, 8, 61, 92
10, 35960, Note_off_c, 8, 61, 64
10, 36120, Note_on_c, 8, 59, 92
10, 36200, Note_off_c, 8, 59, 64
10, 36360, Note_on_c, 8, 57, 92
10, 36440, Note_off_c, 8, 57, 64
10, 36600, Note_on_c, 8, 56, 92
10, 36835, Note_off_c, 8, 56, 64
10, 36840, Note_on_c, 8, 56, 92
10, 37075, Note_off_c, 8, 56, 64
10, 37080, Note_on_c, 8, 56, 92
10, 37315, Note_off_c, 8, 56, 64
10, 37320, Note_on_c, 8, 56, 92
10, 37555, Note_off_c, 8, 56, 64
10, 37560, Note_on_c, 8, 52, 92
10, 37795, Note_off_c, 8, 52, 64
10, 37800, Note_on_c, 8, 52, 92
10, 38035, Note_off_c, 8, 52, 64
10, 38040, Note_on_c, 8, 52, 92
10, 38275, Note_off_c, 8, 52, 64
10, 38280, Note_on_c, 8, 52, 92
10, 38515, Note_off_c, 8, 52, 64
10, 38520, Note_on_c, 8, 45, 92
10, 38755, Note_off_c, 8, 45, 64
10, 38820, Note_on_c, 8, 45, 92
10, 39055, Note_off_c, 8, 45, 64
10, 39060, Note_on_c, 8, 45, 92
10, 39295, Note_off_c, 8, 45, 64
10, 39300, Note_on_c, 8, 45, 92
10, 39535, Note_off_c, 8, 45, 64
10, 39540, Note_on_c, 8, 45, 92
10, 39775, Note_off_c, 8, 45, 64
10, 39780, Note_on_c, 8, 45, 92
10, 40015, Note_off_c, 8, 45, 64
10, 40020, Note_on_c, 8, 45, 92
10, 40255, Note_off_c, 8, 45, 64
10, 40260, Note_on_c, 8, 45, 92
10, 40495, Note_off_c, 8, 45, 64
10, 40500, Note_on_c, 8, 50, 92
10, 40735, Note_off_c, 8, 50, 64
10, 40800, Note_on_c, 8, 50, 92
10, 41035, Note_off_c, 8, 50, 64
10, 41040, Note_on_c, 8, 50, 92
10, 41275, Note_off_c, 8, 50, 64
10, 41280, Note_on_c, 8, 50, 92
10, 41515, Note_off_c, 8, 50, 64
10, 41520, Note_on_c, 8, 50, 92
10, 41755, Note_off_c, 8, 50, 64
10, 41760, Note_on_c, 8, 50, 92
10, 41995, Note_off_c, 8, 50, 64
10, 42000, Note_on_c, 8, 50, 92
10, 42235, Note_off_c, 8, 50, 64
10, 42240, Note_on_c, 8, 50, 92
10, 42475, Note_off_c, 8, 50, 64
10, 42480, Note_on_c, 8, 52, 92
10, 42715, Note_off_c, 8, 52, 64
10, 42720, Note_on_c, 8, 52, 92
10, 42955, Note_off_c, 8, 52, 64
10, 42960, Note_on_c, 8, 52, 92
10, 43195, Note_off_c, 8, 52, 64
10, 43200, Note_on_c, 8, 52, 92
10, 43435, Note_off_c, 8, 52, 64
10, 43440, Note_on_c, 8, 40, 92
10, 43675, Note_off_c, 8, 40, 64
10, 43680, Note_on_c, 8, 40, 88
10, 43915, Note_off_c, 8, 40, 64
10, 43920, Note_on_c, 8, 40, 84
10, 44155, Note_off_c, 8, 40, 64
10, 44160, Note_on_c, 8, 40, 80
10, 44395, Note_off_c, 8, 40, 64
10, 44400, Note_on_c, 8, 45, 75
10, 44800, Note_off_c, 8, 45, 64
10, 45360, Note_on_c, 8, 45, 75
10, 45760, Note_off_c, 8, 45, 64
10, 46320, Note_on_c, 8, 45, 75
10, 46720, Note_off_c, 8, 45, 64
10, 47280, Note_on_c, 8, 49, 75
10, 47360, Note_off_c, 8, 49, 64
10, 47520, Note_on_c, 8, 49, 75
10, 47755, Note_off_c, 8, 49, 64
10, 47760, Note_on_c, 8, 49, 75
10, 47995, Note_off_c, 8, 49, 64
10, 48000, Note_on_c, 8, 49, 75
10, 48235, Note_off_c, 8, 49, 64
10, 48240, Note_on_c, 8, 50, 75
10, 48640, Note_off_c, 8, 50, 64
10, 49200, Note_on_c, 8, 50, 75
10, 49600, Note_off_c, 8, 50, 64
10, 49680, Note_on_c, 8, 50, 75
10, 50080, Note_off_c, 8, 50, 64
10, 50160, Note_on_c, 8, 52, 75
10, 50395, Note_off_c, 8, 52, 64
10, 50400, Note_on_c, 8, 52, 75
10, 50635, Note_off_c, 8, 52, 64
10, 50640, Note_on_c, 8, 52, 75
10, 50875, Note_off_c, 8, 52, 64
10, 50880, Note_on_c, 8, 52, 75
10, 51115, Note_off_c, 8, 52, 64
10, 51120, Note_on_c, 8, 40, 75
10, 51355, Note_off_c, 8, 40, 64
10, 51360, Note_on_c, 8, 40, 75
10, 51595, Note_off_c, 8, 40, 64
10, 51600, Note_on_c, 8, 40, 75
10, 51835, Note_off_c, 8, 40, 64
10, 51840, Note_on_c, 8, 40, 75
10, 52075, Note_off_c, 8, 40, 64
10, 52080, Note_on_c, 8, 45, 75
10, 52480, Note_off_c, 8, 45, 64
10, 52800, Note_on_c, 8, 52, 75
10, 52880, Note_off_c, 8, 52, 64
10, 53040, Note_on_c, 8, 45, 75
10, 53440, Note_off_c, 8, 45, 64
10, 53760, Note_on_c, 8, 40, 75
10, 53840, Note_off_c, 8, 40, 64
10, 54000, Note_on_c, 8, 45, 75
10, 54235, Note_off_c, 8, 45, 64
10, 54480, Note_on_c, 8, 45, 75
10, 54715, Note_off_c, 8, 45, 64
10, 54960, Note_on_c, 8, 45, 75
10, 55360, Note_off_c, 8, 45, 64
10, 56040, Note_on_c, 8, 50, 45
10, 56120, Note_off_c, 8, 50, 64
10, 56520, Note_on_c, 8, 38, 45
10, 56600, Note_off_c, 8, 38, 64
10, 57000, Note_on_c, 8, 43, 45
10, 57080, Note_off_c, 8, 43, 64
10, 57960, Note_on_c, 8, 40, 45
10, 58040, Note_off_c, 8, 40, 64
10, 58440, Note_on_c, 8, 45, 45
10, 58520, Note_off_c, 8, 45, 64
10, 58920, Note_on_c, 8, 38, 45
10, 59000, Note_off_c, 8, 38, 64
10, 59880, Note_on_c, 8, 50, 75
10, 60115, Note_off_c, 8, 50, 64
10, 60120, Note_on_c, 8, 50, 75
10, 60355, Note_off_c, 8, 50, 64
10, 60360, Note_on_c, 8, 50, 75
10, 60595, Note_off_c, 8, 50, 64
10, 60600, Note_on_c, 8, 50, 75
10, 60835, Note_off_c, 8, 50, 64
10, 60840, Note_on_c, 8, 50, 75
10, 61075, Note_off_c, 8, 50, 64
10, 61080, Note_on_c, 8, 50, 75
10, 61315, Note_off_c, 8, 50, 64
10, 61320, Note_on_c, 8, 50, 75
10, 61555, Note_off_c, 8, 50, 64
10, 61560, Note_on_c, 8, 50, 75
10, 61795, Note_off_c, 8, 50, 64
10, 61800, Note_on_c, 8, 50, 75
10, 62035, Note_off_c, 8, 50, 64
10, 62040, Note_on_c, 8, 50, 75
10, 62275, Note_off_c, 8, 50, 64
10, 62280, Note_on_c, 8, 50, 75
10, 62515, Note_off_c, 8, 50, 64
10, 62520, Note_on_c, 8, 50, 75
10, 62755, Note_off_c, 8, 50, 64
10, 62760, Note_on_c, 8, 50, 75
10, 62995, Note_off_c, 8, 50, 64
10, 63000, Note_on_c, 8, 50, 75
10, 63235, Note_off_c, 8, 50, 64
10, 63240, Note_on_c, 8, 50, 75
10, 63475, Note_off_c, 8, 50, 64
10, 63480, Note_on_c, 8, 50, 75
10, 63715, Note_off_c, 8, 50, 64
10, 63720, Note_on_c, 8, 38, 75
10, 63955, Note_off_c, 8, 38, 64
10, 63960, Note_on_c, 8, 38, 75
10, 64195, Note_off_c, 8, 38, 64
10, 64200, Note_on_c, 8, 38, 75
10, 64435, Note_off_c, 8, 38, 64
10, 64440, Note_on_c, 8, 38, 75
10, 64675, Note_off_c, 8, 38, 64
10, 64680, Note_on_c, 8, 38, 75
10, 64915, Note_off_c, 8, 38, 64
10, 64920, Note_on_c, 8, 38, 75
10, 65155, Note_off_c, 8, 38, 64
10, 65160, Note_on_c, 8, 38, 75
10, 65395, Note_off_c, 8, 38, 64
10, 65400, Note_on_c, 8, 38, 75
10, 65635, Note_off_c, 8, 38, 64
10, 65640, Note_on_c, 8, 38, 75
10, 65875, Note_off_c, 8, 38, 64
10, 65880, Note_on_c, 8, 38, 75
10, 66115, Note_off_c, 8, 38, 64
10, 66120, Note_on_c, 8, 38, 75
10, 66355, Note_off_c, 8, 38, 64
10, 66360, Note_on_c, 8, 38, 75
10, 66595, Note_off_c, 8, 38, 64
10, 66600, Note_on_c, 8, 38, 75
10, 66835, Note_off_c, 8, 38, 64
10, 66840, Note_on_c, 8, 38, 75
10, 67075, Note_off_c, 8, 38, 64
10, 67080, Note_on_c, 8, 38, 75
10, 67315, Note_off_c, 8, 38, 64
10, 67320, Note_on_c, 8, 38, 75
10, 67555, Note_off_c, 8, 38, 64
10, 67560, Note_on_c, 8, 38, 75
10, 67795, Note_off_c, 8, 38, 64
10, 67800, Note_on_c, 8, 38, 75
10, 68035, Note_off_c, 8, 38, 64
10, 68040, Note_on_c, 8, 38, 75
10, 68275, Note_off_c, 8, 38, 64
10, 68280, Note_on_c, 8, 38, 75
10, 68515, Note_off_c, 8, 38, 64
10, 68520, Note_on_c, 8, 38, 75
10, 68755, Note_off_c, 8, 38, 64
10, 68760, Note_on_c, 8, 38, 75
10, 68995, Note_off_c, 8, 38, 64
10, 69000, Note_on_c, 8, 38, 75
10, 69235, Note_off_c, 8, 38, 64
10, 69240, Note_on_c, 8, 38, 75
10, 69475, Note_off_c, 8, 38, 64
10, 69480, Note_on_c, 8, 45, 75
10, 69715, Note_off_c, 8, 45, 64
10, 69720, Note_on_c, 8, 45, 75
10, 69955, Note_off_c, 8, 45, 64
10, 69960, Note_on_c, 8, 45, 75
10, 70195, Note_off_c, 8, 45, 64
10, 70200, Note_on_c, 8, 45, 75
10, 70435, Note_off_c, 8, 45, 64
10, 70440, Note_on_c, 8, 50, 75
10, 70675, Note_off_c, 8, 50, 64
10, 70680, Note_on_c, 8, 50, 75
10, 70915, Note_off_c, 8, 50, 64
10, 70920, Note_on_c, 8, 50, 75
10, 71155, Note_off_c, 8, 50, 64
10, 71160, Note_on_c, 8, 50, 75
10, 71395, Note_off_c, 8, 50, 64
10, 71400, Note_on_c, 8, 38, 75
10, 71635, Note_off_c, 8, 38, 64
10, 71640, Note_on_c, 8, 38, 75
10, 71875, Note_off_c, 8, 38, 64
10, 71880, Note_on_c, 8, 38, 75
10, 72115, Note_off_c, 8, 38, 64
10, 72120, Note_on_c, 8, 38, 75
10, 72355, Note_off_c, 8, 38, 64
10, 72360, Note_on_c, 8, 38, 75
10, 72595, Note_off_c, 8, 38, 64
10, 72600, Note_on_c, 8, 38, 75
10, 72835, Note_off_c, 8, 38, 64
10, 72840, Note_on_c, 8, 38, 75
10, 73075, Note_off_c, 8, 38, 64
10, 73080, Note_on_c, 8, 38, 75
10, 73315, Note_off_c, 8, 38, 64
10, 73320, Note_on_c, 8, 45, 75
10, 73555, Note_off_c, 8, 45, 64
10, 73560, Note_on_c, 8, 45, 75
10, 73795, Note_off_c, 8, 45, 64
10, 73800, Note_on_c, 8, 45, 75
10, 74035, Note_off_c, 8, 45, 64
10, 74040, Note_on_c, 8, 45, 75
10, 74275, Note_off_c, 8, 45, 64
10, 74280, Note_on_c, 8, 50, 75
10, 74515, Note_off_c, 8, 50, 64
10, 74520, Note_on_c, 8, 50, 75
10, 74755, Note_off_c, 8, 50, 64
10, 74760, Note_on_c, 8, 50, 75
10, 74995, Note_off_c, 8, 50, 64
10, 75000, Note_on_c, 8, 50, 75
10, 75235, Note_off_c, 8, 50, 64
10, 75240, Note_on_c, 8, 50, 75
10, 75475, Note_off_c, 8, 50, 64
10, 75480, Note_on_c, 8, 50, 79
10, 75715, Note_off_c, 8, 50, 64
10, 75720, Note_on_c, 8, 50, 83
10, 75955, Note_off_c, 8, 50, 64
10, 75960, Note_on_c, 8, 50, 87
10, 76195, Note_off_c, 8, 50, 64
10, 76200, Note_on_c, 8, 49, 92
10, 76280, Note_off_c, 8, 49, 64
10, 76440, Note_on_c, 8, 61, 92
10, 76680, Note_off_c, 8, 61, 64
10, 76680, Note_on_c, 8, 59, 92
10, 76920, Note_off_c, 8, 59, 64
10, 76920, Note_on_c, 8, 57, 92
10, 77160, Note_off_c, 8, 57, 64
10, 77160, Note_on_c, 8, 56, 92
10, 77240, Note_off_c, 8, 56, 64
10, 77640, Note_on_c, 8, 57, 92
10, 77720, Note_off_c, 8, 57, 64
10, 78120, Note_on_c, 8, 52, 92
10, 78200, Note_off_c, 8, 52, 64
10, 79140, Note_on_c, 8, 57, 45
10, 79540, Note_off_c, 8, 57, 64
10, 80100, Note_on_c, 8, 45, 45
10, 80500, Note_off_c, 8, 45, 64
10, 81060, Note_on_c, 8, 50, 45
10, 81460, Note_off_c, 8, 50, 64
10, 82020, Note_on_c, 8, 38, 45
10, 82420, Note_off_c, 8, 38, 64
10, 82980, Note_on_c, 8, 45, 45
10, 83380, Note_off_c, 8, 45, 64
10, 83940, Note_on_c, 8, 45, 30
10, 84340, Note_off_c, 8, 45, 64
10, 84900, Note_on_c, 8, 50, 30
10, 85300, Note_off_c, 8, 50, 64
10, 85860, Note_on_c, 8, 38, 30
10, 86260, Note_off_c, 8, 38, 64
10, 86820, Note_on_c, 8, 45, 30
10, 87220, Note_off_c, 8, 45, 64
10, 87780, Note_on_c, 8, 45, 30
10, 87860, Note_off_c, 8, 45, 64
10, 88020, Note_on_c, 8, 61, 92
10, 88100, Note_off_c, 8, 61, 64
10, 88260, Note_on_c, 8, 59, 92
10, 88340, Note_off_c, 8, 59, 64
10, 88500, Note_on_c, 8, 57, 92
10, 88580, Note_off_c, 8, 57, 64
10, 88740, Note_on_c, 8, 56, 92
10, 88820, Note_off_c, 8, 56, 64
10, 88980, Note_on_c, 8, 56, 92
10, 89060, Note_off_c, 8, 56, 64
10, 89220, Note_on_c, 8, 56, 92
10, 89300, Note_off_c, 8, 56, 64
10, 89460, Note_on_c, 8, 56, 92
10, 89540, Note_off_c, 8, 56, 64
10, 89700, Note_on_c, 8, 52, 92
10, 89780, Note_off_c, 8, 52, 64
10, 89940, Note_on_c, 8, 52, 92
10, 90020, Note_off_c, 8, 52, 64
10, 90180, Note_on_c, 8, 52, 92
10, 90260, Note_off_c, 8, 52, 64
10, 90420, Note_on_c, 8, 52, 92
10, 90500, Note_off_c, 8, 52, 64
10, 90660, Note_on_c, 8, 45, 92
10, 90895, Note_off_c, 8, 45, 64
10, 90960, Note_on_c, 8, 45, 92
10, 91040, Note_off_c, 8, 45, 64
10, 91200, Note_on_c, 8, 45, 92
10, 91280, Note_off_c, 8, 45, 64
10, 91440, Note_on_c, 8, 45, 92
10, 91520, Note_off_c, 8, 45, 64
10, 91680, Note_on_c, 8, 45, 92
10, 91760, Note_off_c, 8, 45, 64
10, 91920, Note_on_c, 8, 61, 92
10, 92000, Note_off_c, 8, 61, 64
10, 92160, Note_on_c, 8, 59, 92
10, 92240, Note_off_c, 8, 59, 64
10, 92400, Note_on_c, 8, 57, 92
10, 92480, Note_off_c, 8, 57, 64
10, 92640, Note_on_c, 8, 56, 92
10, 92875, Note_off_c, 8, 56, 64
10, 92880, Note_on_c, 8, 56, 92
10, 93115, Note_off_c, 8, 56, 64
10, 93120, Note_on_c, 8, 56, 92
10, 93355, Note_off_c, 8, 56, 64
10, 93360, Note_on_c, 8, 56, 92
10, 93595, Note_off_c, 8, 56, 64
10, 93600, Note_on_c, 8, 52, 92
10, 93835, Note_off_c, 8, 52, 64
10, 93840, Note_on_c, 8, 52, 92
10, 94075, Note_off_c, 8, 52, 64
10, 94080, Note_on_c, 8, 52, 92
10, 94315, Note_off_c, 8, 52, 64
10, 94320, Note_on_c, 8, 52, 92
10, 94555, Note_off_c, 8, 52, 64
10, 94560, Note_on_c, 8, 45, 92
10, 94795, Note_off_c, 8, 45, 64
10, 94860, Note_on_c, 8, 45, 92
10, 95095, Note_off_c, 8, 45, 64
10, 95100, Note_on_c, 8, 45, 92
10, 95335, Note_off_c, 8, 45, 64
10, 95340, Note_on_c, 8, 45, 92
10, 95575, Note_off_c, 8, 45, 64
10, 95580, Note_on_c, 8, 45, 92
10, 95815, Note_off_c, 8, 45, 64
10, 95820, Note_on_c, 8, 45, 92
10, 96055, Note_off_c, 8, 45, 64
10, 96060, Note_on_c, 8, 45, 92
10, 96295, Note_off_c, 8, 45, 64
10, 96300, Note_on_c, 8, 45, 92
10, 96535, Note_off_c, 8, 45, 64
10, 96540, Note_on_c, 8, 50, 92
10, 96775, Note_off_c, 8, 50, 64
10, 96840, Note_on_c, 8, 50, 92
10, 97075, Note_off_c, 8, 50, 64
10, 97080, Note_on_c, 8, 50, 92
10, 97315, Note_off_c, 8, 50, 64
10, 97320, Note_on_c, 8, 50, 92
10, 97555, Note_off_c, 8, 50, 64
10, 97560, Note_on_c, 8, 50, 92
10, 97795, Note_off_c, 8, 50, 64
10, 97800, Note_on_c, 8, 50, 92
10, 98035, Note_off_c, 8, 50, 64
10, 98040, Note_on_c, 8, 50, 92
10, 98275, Note_off_c, 8, 50, 64
10, 98280, Note_on_c, 8, 50, 92
10, 98515, Note_off_c, 8, 50, 64
10, 98520, Note_on_c, 8, 52, 92
10, 98755, Note_off_c, 8, 52, 64
10, 98760, Note_on_c, 8, 52, 92
10, 98995, Note_off_c, 8, 52, 64
10, 99000, Note_on_c, 8, 52, 92
10, 99235, Note_off_c, 8, 52, 64
10, 99240, Note_on_c, 8, 52, 92
10, 99475, Note_off_c, 8, 52, 64
10, 99480, Note_on_c, 8, 40, 92
10, 99715, Note_off_c, 8, 40, 64
10, 99720, Note_on_c, 8, 40, 88
10, 99955, Note_off_c, 8, 40, 64
10, 99960, Note_on_c, 8, 40, 84
10, 100195, Note_off_c, 8, 40, 64
10, 100200, Note_on_c, 8, 40, 80
10, 100435, Note_off_c, 8, 40, 64
10, 100440, Note_on_c, 8, 45, 75
10, 100840, Note_off_c, 8, 45, 64
10, 101400, Note_on_c, 8, 45, 75
10, 101800, Note_off_c, 8, 45, 64
10, 102360, Note_on_c, 8, 45, 75
10, 102760, Note_off_c, 8, 45, 64
10, 103320, Note_on_c, 8, 49, 75
10, 103400, Note_off_c, 8, 49, 64
10, 103560, Note_on_c, 8, 49, 75
10, 103795, Note_off_c, 8, 49, 64
10, 103800, Note_on_c, 8, 49, 75
10, 104035, Note_off_c, 8, 49, 64
10, 104040, Note_on_c, 8, 49, 75
10, 104275, Note_off_c, 8, 49, 64
10, 104280, Note_on_c, 8, 50, 75
10, 104680, Note_off_c, 8, 50, 64
10, 105240, Note_on_c, 8, 50, 75
10, 105640, Note_off_c, 8, 50, 64
10, 105720, Note_on_c, 8, 50, 75
10, 106120, Note_off_c, 8, 50, 64
10, 106200, Note_on_c, 8, 52, 75
10, 106435, Note_off_c, 8, 52, 64
10, 106440, Note_on_c, 8, 52, 75
10, 106675, Note_off_c, 8, 52, 64
10, 106680, Note_on_c, 8, 52, 75
10, 106915, Note_off_c, 8, 52, 64
10, 106920, Note_on_c, 8, 52, 75
10, 107155, Note_off_c, 8, 52, 64
10, 107160, Note_on_c, 8, 40, 75
10, 107395, Note_off_c, 8, 40, 64
10, 107400, Note_on_c, 8, 40, 75
10, 107635, Note_off_c, 8, 40, 64
10, 107640, Note_on_c, 8, 40, 75
10, 107875, Note_off_c, 8, 40, 64
10, 107880, Note_on_c, 8, 40, 75
10, 108115, Note_off_c, 8, 40, 64
10, 108120, Note_on_c, 8, 45, 75
10, 108520, Note_off_c, 8, 45, 64
10, 108840, Note_on_c, 8, 52, 75
10, 108920, Note_off_c, 8, 52, 64
10, 109080, Note_on_c, 8, 45, 75
10, 109480, Note_off_c, 8, 45, 64
10, 109800, Note_on_c, 8, 40, 75
10, 109880, Note_off_c, 8, 40, 64
10, 110040, Note_on_c, 8, 45, 75
10, 110275, Note_off_c, 8, 45, 64
10, 110520, Note_on_c, 8, 45, 75
10, 110755, Note_off_c, 8, 45, 64
10, 111000, Note_on_c, 8, 45, 75
10, 111400, Note_off_c, 8, 45, 64
10, 115920, Note_on_c, 8, 62, 92
10, 116560, Note_off_c, 8, 62, 64
10, 116640, Note_on_c, 8, 62, 92
10, 116875, Note_off_c, 8, 62, 64
10, 116880, Note_on_c, 8, 60, 92
10, 117115, Note_off_c, 8, 60, 64
10, 117120, Note_on_c, 8, 59, 92
10, 117355, Note_off_c, 8, 59, 64
10, 117360, Note_on_c, 8, 60, 92
10, 117595, Note_off_c, 8, 60, 64
10, 117600, Note_on_c, 8, 57, 92
10, 117835, Note_off_c, 8, 57, 64
10, 117840, Note_on_c, 8, 59, 92
10, 118075, Note_off_c, 8, 59, 64
10, 118080, Note_on_c, 8, 57, 92
10, 118315, Note_off_c, 8, 57, 64
10, 118320, Note_on_c, 8, 59, 92
10, 118555, Note_off_c, 8, 59, 64
10, 118560, Note_on_c, 8, 55, 92
10, 118795, Note_off_c, 8, 55, 64
10, 118800, Note_on_c, 8, 57, 92
10, 119035, Note_off_c, 8, 57, 64
10, 119040, Note_on_c, 8, 55, 92
10, 119275, Note_off_c, 8, 55, 64
10, 119280, Note_on_c, 8, 57, 92
10, 119515, Note_off_c, 8, 57, 64
10, 119520, Note_on_c, 8, 54, 92
10, 119755, Note_off_c, 8, 54, 64
10, 119760, Note_on_c, 8, 55, 92
10, 120160, Note_off_c, 8, 55, 64
10, 122640, Note_on_c, 8, 54, 92
10, 123280, Note_off_c, 8, 54, 64
10, 123360, Note_on_c, 8, 54, 92
10, 123595, Note_off_c, 8, 54, 64
10, 123600, Note_on_c, 8, 52, 92
10, 123835, Note_off_c, 8, 52, 64
10, 123840, Note_on_c, 8, 50, 92
10, 124075, Note_off_c, 8, 50, 64
10, 124080, Note_on_c, 8, 52, 92
10, 124315, Note_off_c, 8, 52, 64
10, 124320, Note_on_c, 8, 49, 92
10, 124555, Note_off_c, 8, 49, 64
10, 124560, Note_on_c, 8, 47, 92
10, 124795, Note_off_c, 8, 47, 64
10, 125040, Note_on_c, 8, 47, 92
10, 125520, Note_off_c, 8, 47, 64
10, 125520, Note_on_c, 8, 49, 92
10, 126000, Note_off_c, 8, 49, 64
10, 126000, Note_on_c, 8, 51, 92
10, 126480, Note_off_c, 8, 51, 64
10, 126480, Note_on_c, 8, 52, 92
10, 126880, Note_off_c, 8, 52, 64
10, 135120, Note_on_c, 8, 46, 92
10, 135520, Note_off_c, 8, 46, 64
10, 136140, Note_on_c, 8, 44, 92
10, 136540, Note_off_c, 8, 44, 64
10, 137160, Note_on_c, 8, 45, 92
10, 137560, Note_off_c, 8, 45, 64
10, 139080, Note_on_c, 8, 50, 45
10, 139160, Note_off_c, 8, 50, 64
10, 139560, Note_on_c, 8, 38, 45
10, 139640, Note_off_c, 8, 38, 64
10, 140040, Note_on_c, 8, 43, 45
10, 140120, Note_off_c, 8, 43, 64
10, 141000, Note_on_c, 8, 40, 45
10, 141080, Note_off_c, 8, 40, 64
10, 141480, Note_on_c, 8, 45, 45
10, 141560, Note_off_c, 8, 45, 64
10, 141960, Note_on_c, 8, 38, 45
10, 142040, Note_off_c, 8, 38, 64
10, 142980, Note_on_c, 8, 50, 75
10, 143215, Note_off_c, 8, 50, 64
10, 143220, Note_on_c, 8, 50, 75
10, 143455, Note_off_c, 8, 50, 64
10, 143460, Note_on_c, 8, 50, 75
10, 143695, Note_off_c, 8, 50, 64
10, 143700, Note_on_c, 8, 50, 75
10, 143935, Note_off_c, 8, 50, 64
10, 143940, Note_on_c, 8, 50, 75
10, 144175, Note_off_c, 8, 50, 64
10, 144180, Note_on_c, 8, 50, 75
10, 144415, Note_off_c, 8, 50, 64
10, 144420, Note_on_c, 8, 50, 75
10, 144655, Note_off_c, 8, 50, 64
10, 144660, Note_on_c, 8, 50, 75
10, 144895, Note_off_c, 8, 50, 64
10, 144900, Note_on_c, 8, 50, 75
10, 145135, Note_off_c, 8, 50, 64
10, 145140, Note_on_c, 8, 50, 75
10, 145375, Note_off_c, 8, 50, 64
10, 145380, Note_on_c, 8, 50, 75
10, 145615, Note_off_c, 8, 50, 64
10, 145620, Note_on_c, 8, 50, 75
10, 145855, Note_off_c, 8, 50, 64
10, 145860, Note_on_c, 8, 50, 75
10, 146095, Note_off_c, 8, 50, 64
10, 146100, Note_on_c, 8, 50, 75
10, 146335, Note_off_c, 8, 50, 64
10, 146340, Note_on_c, 8, 50, 75
10, 146575, Note_off_c, 8, 50, 64
10, 146580, Note_on_c, 8, 50, 75
10, 146815, Note_off_c, 8, 50, 64
10, 146820, Note_on_c, 8, 38, 75
10, 147055, Note_off_c, 8, 38, 64
10, 147060, Note_on_c, 8, 38, 75
10, 147295, Note_off_c, 8, 38, 64
10, 147300, Note_on_c, 8, 38, 75
10, 147535, Note_off_c, 8, 38, 64
10, 147540, Note_on_c, 8, 38, 75
10, 147775, Note_off_c, 8, 38, 64
10, 147780, Note_on_c, 8, 38, 75
10, 148015, Note_off_c, 8, 38, 64
10, 148020, Note_on_c, 8, 38, 75
10, 148255, Note_off_c, 8, 38, 64
10, 148260, Note_on_c, 8, 38, 75
10, 148495, Note_off_c, 8, 38, 64
10, 148500, Note_on_c, 8, 38, 75
10, 148735, Note_off_c, 8, 38, 64
10, 148740, Note_on_c, 8, 38, 75
10, 148975, Note_off_c, 8, 38, 64
10, 148980, Note_on_c, 8, 38, 75
10, 149215, Note_off_c, 8, 38, 64
10, 149220, Note_on_c, 8, 38, 75
10, 149455, Note_off_c, 8, 38, 64
10, 149460, Note_on_c, 8, 38, 75
10, 149695, Note_off_c, 8, 38, 64
10, 149700, Note_on_c, 8, 38, 75
10, 149935, Note_off_c, 8, 38, 64
10, 149940, Note_on_c, 8, 38, 75
10, 150175, Note_off_c, 8, 38, 64
10, 150180, Note_on_c, 8, 38, 75
10, 150415, Note_off_c, 8, 38, 64
10, 150420, Note_on_c, 8, 38, 75
10, 150655, Note_off_c, 8, 38, 64
10, 150660, Note_on_c, 8, 38, 75
10, 150895, Note_off_c, 8, 38, 64
10, 150900, Note_on_c, 8, 38, 75
10, 151135, Note_off_c, 8, 38, 64
10, 151140, Note_on_c, 8, 38, 75
10, 151375, Note_off_c, 8, 38, 64
10, 151380, Note_on_c, 8, 38, 75
10, 151615, Note_off_c, 8, 38, 64
10, 151620, Note_on_c, 8, 38, 75
10, 151855, Note_off_c, 8, 38, 64
10, 151860, Note_on_c, 8, 38, 75
10, 152095, Note_off_c, 8, 38, 64
10, 152100, Note_on_c, 8, 38, 75
10, 152335, Note_off_c, 8, 38, 64
10, 152340, Note_on_c, 8, 38, 75
10, 152575, Note_off_c, 8, 38, 64
10, 152580, Note_on_c, 8, 45, 75
10, 152815, Note_off_c, 8, 45, 64
10, 152820, Note_on_c, 8, 45, 75
10, 153055, Note_off_c, 8, 45, 64
10, 153060, Note_on_c, 8, 45, 75
10, 153295, Note_off_c, 8, 45, 64
10, 153300, Note_on_c, 8, 45, 75
10, 153535, Note_off_c, 8, 45, 64
10, 153540, Note_on_c, 8, 50, 75
10, 153775, Note_off_c, 8, 50, 64
10, 153780, Note_on_c, 8, 50, 75
10, 154015, Note_off_c, 8, 50, 64
10, 154020, Note_on_c, 8, 50, 75
10, 154255, Note_off_c, 8, 50, 64
10, 154260, Note_on_c, 8, 50, 75
10, 154495, Note_off_c, 8, 50, 64
10, 154500, Note_on_c, 8, 38, 75
10, 154735, Note_off_c, 8, 38, 64
10, 154740, Note_on_c, 8, 38, 75
10, 154975, Note_off_c, 8, 38, 64
10, 154980, Note_on_c, 8, 38, 75
10, 155215, Note_off_c, 8, 38, 64
10, 155220, Note_on_c, 8, 38, 75
10, 155455, Note_off_c, 8, 38, 64
10, 155460, Note_on_c, 8, 38, 75
10, 155695, Note_off_c, 8, 38, 64
10, 155700, Note_on_c, 8, 38, 75
10, 155935, Note_off_c, 8, 38, 64
10, 155940, Note_on_c, 8, 38, 75
10, 156175, Note_off_c, 8, 38, 64
10, 156180, Note_on_c, 8, 38, 75
10, 156415, Note_off_c, 8, 38, 64
10, 156420, Note_on_c, 8, 45, 75
10, 156655, Note_off_c, 8, 45, 64
10, 156660, Note_on_c, 8, 45, 75
10, 156895, Note_off_c, 8, 45, 64
10, 156900, Note_on_c, 8, 45, 75
10, 157135, Note_off_c, 8, 45, 64
10, 157140, Note_on_c, 8, 45, 75
10, 157375, Note_off_c, 8, 45, 64
10, 157380, Note_on_c, 8, 50, 75
10, 157615, Note_off_c, 8, 50, 64
10, 157620, Note_on_c, 8, 50, 75
10, 157855, Note_off_c, 8, 50, 64
10, 157860, Note_on_c, 8, 50, 75
10, 158095, Note_off_c, 8, 50, 64
10, 158100, Note_on_c, 8, 50, 75
10, 158335, Note_off_c, 8, 50, 64
10, 158340, Note_on_c, 8, 55, 75
10, 158575, Note_off_c, 8, 55, 64
10, 158580, Note_on_c, 8, 55, 75
10, 158815, Note_off_c, 8, 55, 64
10, 158820, Note_on_c, 8, 55, 75
10, 159055, Note_off_c, 8, 55, 64
10, 159060, Note_on_c, 8, 55, 75
10, 159295, Note_off_c, 8, 55, 64
10, 159300, Note_on_c, 8, 54, 92
10, 159380, Note_off_c, 8, 54, 64
10, 159540, Note_on_c, 8, 54, 92
10, 159780, Note_off_c, 8, 54, 64
10, 159780, Note_on_c, 8, 52, 92
10, 160020, Note_off_c, 8, 52, 64
10, 160020, Note_on_c, 8, 50, 92
10, 160260, Note_off_c, 8, 50, 64
10, 160260, Note_on_c, 8, 49, 92
10, 160340, Note_off_c, 8, 49, 64
10, 160740, Note_on_c, 8, 50, 92
10, 160820, Note_off_c, 8, 50, 64
10, 161220, Note_on_c, 8, 45, 92
10, 161300, Note_off_c, 8, 45, 64
10, 162180, Note_on_c, 8, 50, 45
10, 162580, Note_off_c, 8, 50, 64
10, 163140, Note_on_c, 8, 38, 45
10, 163540, Note_off_c, 8, 38, 64
10, 164100, Note_on_c, 8, 43, 45
10, 164500, Note_off_c, 8, 43, 64
10, 165060, Note_on_c, 8, 55, 45
10, 165460, Note_off_c, 8, 55, 64
10, 166020, Note_on_c, 8, 50, 45
10, 166420, Note_off_c, 8, 50, 64
10, 166980, Note_on_c, 8, 38, 30
10, 167380, Note_off_c, 8, 38, 64
10, 167940, Note_on_c, 8, 43, 30
10, 168340, Note_off_c, 8, 43, 64
10, 168900, Note_on_c, 8, 43, 30
10, 169300, Note_off_c, 8, 43, 64
10, 169860, Note_on_c, 8, 38, 30
10, 170260, Note_off_c, 8, 38, 64
10, 170820, Note_on_c, 8, 38, 30
10, 170900, Note_off_c, 8, 38, 64
10, 171060, Note_on_c, 8, 54, 92
10, 171140, Note_off_c, 8, 54, 64
10, 171300, Note_on_c, 8, 52, 92
10, 171380, Note_off_c, 8, 52, 64
10, 171540, Note_on_c, 8, 50, 92
10, 171620, Note_off_c, 8, 50, 64
10, 171780, Note_on_c, 8, 49, 75
10, 172015, Note_off_c, 8, 49, 64
10, 172020, Note_on_c, 8, 49, 75
10, 172255, Note_off_c, 8, 49, 64
10, 172260, Note_on_c, 8, 49, 75
10, 172495, Note_off_c, 8, 49, 64
10, 172500, Note_on_c, 8, 49, 75
10, 172735, Note_off_c, 8, 49, 64
10, 172740, Note_on_c, 8, 45, 75
10, 172975, Note_off_c, 8, 45, 64
10, 172980, Note_on_c, 8, 45, 75
10, 173215, Note_off_c, 8, 45, 64
10, 173220, Note_on_c, 8, 45, 75
10, 173455, Note_off_c, 8, 45, 64
10, 173460, Note_on_c, 8, 45, 75
10, 173695, Note_off_c, 8, 45, 64
10, 173700, Note_on_c, 8, 38, 75
10, 173935, Note_off_c, 8, 38, 64
10, 174000, Note_on_c, 8, 38, 75
10, 174235, Note_off_c, 8, 38, 64
10, 174240, Note_on_c, 8, 38, 75
10, 174475, Note_off_c, 8, 38, 64
10, 174480, Note_on_c, 8, 38, 75
10, 174715, Note_off_c, 8, 38, 64
10, 174720, Note_on_c, 8, 38, 75
10, 174955, Note_off_c, 8, 38, 64
10, 174960, Note_on_c, 8, 54, 75
10, 175040, Note_off_c, 8, 54, 64
10, 175200, Note_on_c, 8, 52, 75
10, 175280, Note_off_c, 8, 52, 64
10, 175440, Note_on_c, 8, 50, 75
10, 175520, Note_off_c, 8, 50, 64
10, 175680, Note_on_c, 8, 49, 75
10, 175915, Note_off_c, 8, 49, 64
10, 175920, Note_on_c, 8, 49, 75
10, 176155, Note_off_c, 8, 49, 64
10, 176160, Note_on_c, 8, 49, 75
10, 176395, Note_off_c, 8, 49, 64
10, 176400, Note_on_c, 8, 49, 75
10, 176635, Note_off_c, 8, 49, 64
10, 176640, Note_on_c, 8, 45, 75
10, 176875, Note_off_c, 8, 45, 64
10, 176880, Note_on_c, 8, 45, 75
10, 177115, Note_off_c, 8, 45, 64
10, 177120, Note_on_c, 8, 45, 75
10, 177355, Note_off_c, 8, 45, 64
10, 177360, Note_on_c, 8, 45, 75
10, 177595, Note_off_c, 8, 45, 64
10, 177600, Note_on_c, 8, 38, 75
10, 177835, Note_off_c, 8, 38, 64
10, 177900, Note_on_c, 8, 38, 75
10, 178135, Note_off_c, 8, 38, 64
10, 178140, Note_on_c, 8, 38, 75
10, 178375, Note_off_c, 8, 38, 64
10, 178380, Note_on_c, 8, 38, 75
10, 178615, Note_off_c, 8, 38, 64
10, 178620, Note_on_c, 8, 50, 75
10, 178855, Note_off_c, 8, 50, 64
10, 178860, Note_on_c, 8, 50, 75
10, 179095, Note_off_c, 8, 50, 64
10, 179100, Note_on_c, 8, 50, 75
10, 179335, Note_off_c, 8, 50, 64
10, 179340, Note_on_c, 8, 50, 75
10, 179575, Note_off_c, 8, 50, 64
10, 179580, Note_on_c, 8, 55, 75
10, 179815, Note_off_c, 8, 55, 64
10, 179880, Note_on_c, 8, 55, 75
10, 180115, Note_off_c, 8, 55, 64
10, 180120, Note_on_c, 8, 55, 75
10, 180355, Note_off_c, 8, 55, 64
10, 180360, Note_on_c, 8, 55, 75
10, 180595, Note_off_c, 8, 55, 64
10, 180600, Note_on_c, 8, 43, 75
10, 180835, Note_off_c, 8, 43, 64
10, 180840, Note_on_c, 8, 43, 75
10, 181075, Note_off_c, 8, 43, 64
10, 181080, Note_on_c, 8, 43, 75
10, 181315, Note_off_c, 8, 43, 64
10, 181320, Note_on_c, 8, 43, 75
10, 181555, Note_off_c, 8, 43, 64
10, 181560, Note_on_c, 8, 45, 75
10, 181795, Note_off_c, 8, 45, 64
10, 181800, Note_on_c, 8, 45, 75
10, 182035, Note_off_c, 8, 45, 64
10, 182040, Note_on_c, 8, 45, 75
10, 182275, Note_off_c, 8, 45, 64
10, 182280, Note_on_c, 8, 45, 75
10, 182515, Note_off_c, 8, 45, 64
10, 182520, Note_on_c, 8, 45, 75
10, 182755, Note_off_c, 8, 45, 64
10, 182760, Note_on_c, 8, 45, 75
10, 182995, Note_off_c, 8, 45, 64
10, 183000, Note_on_c, 8, 45, 75
10, 183235, Note_off_c, 8, 45, 64
10, 183240, Note_on_c, 8, 45, 75
10, 183475, Note_off_c, 8, 45, 64
10, 183480, Note_on_c, 8, 50, 75
10, 183880, Note_off_c, 8, 50, 64
10, 184440, Note_on_c, 8, 38, 75
10, 184840, Note_off_c, 8, 38, 64
10, 185400, Note_on_c, 8, 38, 75
10, 185800, Note_off_c, 8, 38, 64
10, 186360, Note_on_c, 8, 42, 75
10, 186595, Note_off_c, 8, 42, 64
10, 186600, Note_on_c, 8, 42, 75
10, 186835, Note_off_c, 8, 42, 64
10, 186840, Note_on_c, 8, 42, 75
10, 187075, Note_off_c, 8, 42, 64
10, 187080, Note_on_c, 8, 42, 75
10, 187315, Note_off_c, 8, 42, 64
10, 187320, Note_on_c, 8, 43, 75
10, 187720, Note_off_c, 8, 43, 64
10, 188280, Note_on_c, 8, 43, 75
10, 188680, Note_off_c, 8, 43, 64
10, 188760, Note_on_c, 8, 43, 75
10, 189160, Note_off_c, 8, 43, 64
10, 189240, Note_on_c, 8, 45, 75
10, 189475, Note_off_c, 8, 45, 64
10, 189480, Note_on_c, 8, 45, 75
10, 189715, Note_off_c, 8, 45, 64
10, 189720, Note_on_c, 8, 45, 75
10, 189955, Note_off_c, 8, 45, 64
10, 189960, Note_on_c, 8, 45, 75
10, 190195, Note_off_c, 8, 45, 64
10, 190200, Note_on_c, 8, 45, 75
10, 190435, Note_off_c, 8, 45, 64
10, 190440, Note_on_c, 8, 45, 75
10, 190675, Note_off_c, 8, 45, 64
10, 190680, Note_on_c, 8, 45, 75
10, 190915, Note_off_c, 8, 45, 64
10, 190920, Note_on_c, 8, 45, 75
10, 191155, Note_off_c, 8, 45, 64
10, 191160, Note_on_c, 8, 50, 75
10, 191560, Note_off_c, 8, 50, 64
10, 191880, Note_on_c, 8, 45, 81
10, 192115, Note_off_c, 8, 45, 64
10, 192120, Note_on_c, 8, 50, 83
10, 192520, Note_off_c, 8, 50, 64
10, 192840, Note_on_c, 8, 45, 89
10, 193075, Note_off_c, 8, 45, 64
10, 193080, Note_on_c, 8, 50, 92
10, 193315, Note_off_c, 8, 50, 64
10, 193560, Note_on_c, 8, 38, 92
10, 193560, Note_on_c, 8, 50, 92
10, 193960, Note_off_c, 8, 50, 64
10, 193960, Note_off_c, 8, 38, 64
10, 194040, Note_on_c, 8, 38, 92
10, 194040, Note_on_c, 8, 50, 92
10, 194440, Note_off_c, 8, 50, 64
10, 194440, Note_off_c, 8, 38, 64
10, 194440, End_track
11, 0, Start_track
11, 0, MIDI_port, 0
11, 0, Channel_prefix, 10
11, 0, Control_c, 10, 7, 127
11, 0, Control_c, 10, 10, 119
11, 0, Control_c, 10, 91, 127
11, 0, Program_c, 10, 48
11, 0, Note_on_c, 10, 38, 45
11, 80, Note_off_c, 10, 38, 64
11, 480, Note_on_c, 10, 26, 45
11, 560, Note_off_c, 10, 26, 64
11, 960, Note_on_c, 10, 31, 45
11, 1040, Note_off_c, 10, 31, 64
11, 1920, Note_on_c, 10, 28, 45
11, 2000, Note_off_c, 10, 28, 64
11, 2400, Note_on_c, 10, 33, 45
11, 2480, Note_off_c, 10, 33, 64
11, 2880, Note_on_c, 10, 26, 45
11, 2960, Note_off_c, 10, 26, 64
11, 3840, Note_on_c, 10, 38, 75
11, 4075, Note_off_c, 10, 38, 64
11, 4080, Note_on_c, 10, 38, 75
11, 4315, Note_off_c, 10, 38, 64
11, 4320, Note_on_c, 10, 38, 75
11, 4555, Note_off_c, 10, 38, 64
11, 4560, Note_on_c, 10, 38, 75
11, 4795, Note_off_c, 10, 38, 64
11, 4800, Note_on_c, 10, 38, 75
11, 5035, Note_off_c, 10, 38, 64
11, 5040, Note_on_c, 10, 38, 75
11, 5275, Note_off_c, 10, 38, 64
11, 5280, Note_on_c, 10, 38, 75
11, 5515, Note_off_c, 10, 38, 64
11, 5520, Note_on_c, 10, 38, 75
11, 5755, Note_off_c, 10, 38, 64
11, 5760, Note_on_c, 10, 38, 75
11, 5995, Note_off_c, 10, 38, 64
11, 6000, Note_on_c, 10, 38, 75
11, 6235, Note_off_c, 10, 38, 64
11, 6240, Note_on_c, 10, 38, 75
11, 6475, Note_off_c, 10, 38, 64
11, 6480, Note_on_c, 10, 38, 75
11, 6715, Note_off_c, 10, 38, 64
11, 6720, Note_on_c, 10, 38, 75
11, 6955, Note_off_c, 10, 38, 64
11, 6960, Note_on_c, 10, 38, 75
11, 7195, Note_off_c, 10, 38, 64
11, 7200, Note_on_c, 10, 38, 75
11, 7435, Note_off_c, 10, 38, 64
11, 7440, Note_on_c, 10, 38, 75
11, 7675, Note_off_c, 10, 38, 64
11, 7680, Note_on_c, 10, 26, 75
11, 7915, Note_off_c, 10, 26, 64
11, 7920, Note_on_c, 10, 26, 75
11, 8155, Note_off_c, 10, 26, 64
11, 8160, Note_on_c, 10, 26, 75
11, 8395, Note_off_c, 10, 26, 64
11, 8400, Note_on_c, 10, 26, 75
11, 8635, Note_off_c, 10, 26, 64
11, 8640, Note_on_c, 10, 26, 75
11, 8875, Note_off_c, 10, 26, 64
11, 8880, Note_on_c, 10, 26, 75
11, 9115, Note_off_c, 10, 26, 64
11, 9120, Note_on_c, 10, 26, 75
11, 9355, Note_off_c, 10, 26, 64
11, 9360, Note_on_c, 10, 26, 75
11, 9595, Note_off_c, 10, 26, 64
11, 9600, Note_on_c, 10, 26, 75
11, 9835, Note_off_c, 10, 26, 64
11, 9840, Note_on_c, 10, 26, 75
11, 10075, Note_off_c, 10, 26, 64
11, 10080, Note_on_c, 10, 26, 75
11, 10315, Note_off_c, 10, 26, 64
11, 10320, Note_on_c, 10, 26, 75
11, 10555, Note_off_c, 10, 26, 64
11, 10560, Note_on_c, 10, 26, 75
11, 10795, Note_off_c, 10, 26, 64
11, 10800, Note_on_c, 10, 26, 75
11, 11035, Note_off_c, 10, 26, 64
11, 11040, Note_on_c, 10, 26, 75
11, 11275, Note_off_c, 10, 26, 64
11, 11280, Note_on_c, 10, 26, 75
11, 11515, Note_off_c, 10, 26, 64
11, 11520, Note_on_c, 10, 26, 75
11, 11755, Note_off_c, 10, 26, 64
11, 11760, Note_on_c, 10, 26, 75
11, 11995, Note_off_c, 10, 26, 64
11, 12000, Note_on_c, 10, 26, 75
11, 12235, Note_off_c, 10, 26, 64
11, 12240, Note_on_c, 10, 26, 75
11, 12475, Note_off_c, 10, 26, 64
11, 12480, Note_on_c, 10, 26, 75
11, 12715, Note_off_c, 10, 26, 64
11, 12720, Note_on_c, 10, 26, 75
11, 12955, Note_off_c, 10, 26, 64
11, 12960, Note_on_c, 10, 26, 75
11, 13195, Note_off_c, 10, 26, 64
11, 13200, Note_on_c, 10, 26, 75
11, 13435, Note_off_c, 10, 26, 64
11, 13440, Note_on_c, 10, 33, 75
11, 13675, Note_off_c, 10, 33, 64
11, 13680, Note_on_c, 10, 33, 75
11, 13915, Note_off_c, 10, 33, 64
11, 13920, Note_on_c, 10, 33, 75
11, 14155, Note_off_c, 10, 33, 64
11, 14160, Note_on_c, 10, 33, 75
11, 14395, Note_off_c, 10, 33, 64
11, 14400, Note_on_c, 10, 38, 75
11, 14635, Note_off_c, 10, 38, 64
11, 14640, Note_on_c, 10, 38, 75
11, 14875, Note_off_c, 10, 38, 64
11, 14880, Note_on_c, 10, 38, 75
11, 15115, Note_off_c, 10, 38, 64
11, 15120, Note_on_c, 10, 38, 75
11, 15355, Note_off_c, 10, 38, 64
11, 15360, Note_on_c, 10, 26, 75
11, 15595, Note_off_c, 10, 26, 64
11, 15600, Note_on_c, 10, 26, 75
11, 15835, Note_off_c, 10, 26, 64
11, 15840, Note_on_c, 10, 26, 75
11, 16075, Note_off_c, 10, 26, 64
11, 16080, Note_on_c, 10, 26, 75
11, 16315, Note_off_c, 10, 26, 64
11, 16320, Note_on_c, 10, 26, 75
11, 16555, Note_off_c, 10, 26, 64
11, 16560, Note_on_c, 10, 26, 75
11, 16795, Note_off_c, 10, 26, 64
11, 16800, Note_on_c, 10, 26, 75
11, 17035, Note_off_c, 10, 26, 64
11, 17040, Note_on_c, 10, 26, 75
11, 17275, Note_off_c, 10, 26, 64
11, 17280, Note_on_c, 10, 33, 75
11, 17515, Note_off_c, 10, 33, 64
11, 17520, Note_on_c, 10, 33, 75
11, 17755, Note_off_c, 10, 33, 64
11, 17760, Note_on_c, 10, 33, 75
11, 17995, Note_off_c, 10, 33, 64
11, 18000, Note_on_c, 10, 33, 75
11, 18235, Note_off_c, 10, 33, 64
11, 18240, Note_on_c, 10, 38, 75
11, 18475, Note_off_c, 10, 38, 64
11, 18480, Note_on_c, 10, 38, 75
11, 18715, Note_off_c, 10, 38, 64
11, 18720, Note_on_c, 10, 38, 75
11, 18955, Note_off_c, 10, 38, 64
11, 18960, Note_on_c, 10, 38, 75
11, 19195, Note_off_c, 10, 38, 64
11, 19200, Note_on_c, 10, 38, 75
11, 19435, Note_off_c, 10, 38, 64
11, 19440, Note_on_c, 10, 38, 79
11, 19675, Note_off_c, 10, 38, 64
11, 19680, Note_on_c, 10, 38, 83
11, 19915, Note_off_c, 10, 38, 64
11, 19920, Note_on_c, 10, 38, 87
11, 20155, Note_off_c, 10, 38, 64
11, 20160, Note_on_c, 10, 37, 92
11, 20240, Note_off_c, 10, 37, 64
11, 20400, Note_on_c, 10, 49, 92
11, 20640, Note_off_c, 10, 49, 64
11, 20640, Note_on_c, 10, 47, 92
11, 20880, Note_off_c, 10, 47, 64
11, 20880, Note_on_c, 10, 45, 92
11, 21120, Note_off_c, 10, 45, 64
11, 21120, Note_on_c, 10, 44, 92
11, 21200, Note_off_c, 10, 44, 64
11, 21600, Note_on_c, 10, 45, 92
11, 21680, Note_off_c, 10, 45, 64
11, 22080, Note_on_c, 10, 40, 92
11, 22160, Note_off_c, 10, 40, 64
11, 23100, Note_on_c, 10, 45, 45
11, 23500, Note_off_c, 10, 45, 64
11, 24060, Note_on_c, 10, 33, 45
11, 24460, Note_off_c, 10, 33, 64
11, 25020, Note_on_c, 10, 38, 45
11, 25420, Note_off_c, 10, 38, 64
11, 25980, Note_on_c, 10, 26, 45
11, 26380, Note_off_c, 10, 26, 64
11, 26940, Note_on_c, 10, 33, 45
11, 27340, Note_off_c, 10, 33, 64
11, 27900, Note_on_c, 10, 33, 30
11, 28300, Note_off_c, 10, 33, 64
11, 28860, Note_on_c, 10, 38, 30
11, 29260, Note_off_c, 10, 38, 64
11, 29820, Note_on_c, 10, 26, 30
11, 30220, Note_off_c, 10, 26, 64
11, 30780, Note_on_c, 10, 33, 30
11, 31180, Note_off_c, 10, 33, 64
11, 31740, Note_on_c, 10, 33, 30
11, 31820, Note_off_c, 10, 33, 64
11, 31980, Note_on_c, 10, 49, 92
11, 32060, Note_off_c, 10, 49, 64
11, 32220, Note_on_c, 10, 47, 92
11, 32300, Note_off_c, 10, 47, 64
11, 32460, Note_on_c, 10, 45, 92
11, 32540, Note_off_c, 10, 45, 64
11, 32700, Note_on_c, 10, 44, 92
11, 32780, Note_off_c, 10, 44, 64
11, 32940, Note_on_c, 10, 44, 92
11, 33020, Note_off_c, 10, 44, 64
11, 33180, Note_on_c, 10, 44, 92
11, 33260, Note_off_c, 10, 44, 64
11, 33420, Note_on_c, 10, 44, 92
11, 33500, Note_off_c, 10, 44, 64
11, 33660, Note_on_c, 10, 40, 92
11, 33740, Note_off_c, 10, 40, 64
11, 33900, Note_on_c, 10, 40, 92
11, 33980, Note_off_c, 10, 40, 64
11, 34140, Note_on_c, 10, 40, 92
11, 34220, Note_off_c, 10, 40, 64
11, 34380, Note_on_c, 10, 40, 92
11, 34460, Note_off_c, 10, 40, 64
11, 34620, Note_on_c, 10, 33, 92
11, 34855, Note_off_c, 10, 33, 64
11, 34920, Note_on_c, 10, 33, 92
11, 35000, Note_off_c, 10, 33, 64
11, 35160, Note_on_c, 10, 33, 92
11, 35240, Note_off_c, 10, 33, 64
11, 35400, Note_on_c, 10, 33, 92
11, 35480, Note_off_c, 10, 33, 64
11, 35640, Note_on_c, 10, 33, 92
11, 35720, Note_off_c, 10, 33, 64
11, 35880, Note_on_c, 10, 49, 92
11, 35960, Note_off_c, 10, 49, 64
11, 36120, Note_on_c, 10, 47, 92
11, 36200, Note_off_c, 10, 47, 64
11, 36360, Note_on_c, 10, 45, 92
11, 36440, Note_off_c, 10, 45, 64
11, 36600, Note_on_c, 10, 44, 92
11, 36835, Note_off_c, 10, 44, 64
11, 36840, Note_on_c, 10, 44, 92
11, 37075, Note_off_c, 10, 44, 64
11, 37080, Note_on_c, 10, 44, 92
11, 37315, Note_off_c, 10, 44, 64
11, 37320, Note_on_c, 10, 44, 92
11, 37555, Note_off_c, 10, 44, 64
11, 37560, Note_on_c, 10, 40, 92
11, 37795, Note_off_c, 10, 40, 64
11, 37800, Note_on_c, 10, 40, 92
11, 38035, Note_off_c, 10, 40, 64
11, 38040, Note_on_c, 10, 40, 92
11, 38275, Note_off_c, 10, 40, 64
11, 38280, Note_on_c, 10, 40, 92
11, 38515, Note_off_c, 10, 40, 64
11, 38520, Note_on_c, 10, 33, 92
11, 38755, Note_off_c, 10, 33, 64
11, 38820, Note_on_c, 10, 33, 92
11, 39055, Note_off_c, 10, 33, 64
11, 39060, Note_on_c, 10, 33, 92
11, 39295, Note_off_c, 10, 33, 64
11, 39300, Note_on_c, 10, 33, 92
11, 39535, Note_off_c, 10, 33, 64
11, 39540, Note_on_c, 10, 33, 92
11, 39775, Note_off_c, 10, 33, 64
11, 39780, Note_on_c, 10, 33, 92
11, 40015, Note_off_c, 10, 33, 64
11, 40020, Note_on_c, 10, 33, 92
11, 40255, Note_off_c, 10, 33, 64
11, 40260, Note_on_c, 10, 33, 92
11, 40495, Note_off_c, 10, 33, 64
11, 40500, Note_on_c, 10, 38, 92
11, 40735, Note_off_c, 10, 38, 64
11, 40800, Note_on_c, 10, 38, 92
11, 41035, Note_off_c, 10, 38, 64
11, 41040, Note_on_c, 10, 38, 92
11, 41275, Note_off_c, 10, 38, 64
11, 41280, Note_on_c, 10, 38, 92
11, 41515, Note_off_c, 10, 38, 64
11, 41520, Note_on_c, 10, 38, 92
11, 41755, Note_off_c, 10, 38, 64
11, 41760, Note_on_c, 10, 38, 92
11, 41995, Note_off_c, 10, 38, 64
11, 42000, Note_on_c, 10, 38, 92
11, 42235, Note_off_c, 10, 38, 64
11, 42240, Note_on_c, 10, 38, 92
11, 42475, Note_off_c, 10, 38, 64
11, 42480, Note_on_c, 10, 40, 92
11, 42715, Note_off_c, 10, 40, 64
11, 42720, Note_on_c, 10, 40, 92
11, 42955, Note_off_c, 10, 40, 64
11, 42960, Note_on_c, 10, 40, 92
11, 43195, Note_off_c, 10, 40, 64
11, 43200, Note_on_c, 10, 40, 92
11, 43435, Note_off_c, 10, 40, 64
11, 43440, Note_on_c, 10, 28, 92
11, 43675, Note_off_c, 10, 28, 64
11, 43680, Note_on_c, 10, 28, 88
11, 43915, Note_off_c, 10, 28, 64
11, 43920, Note_on_c, 10, 28, 84
11, 44155, Note_off_c, 10, 28, 64
11, 44160, Note_on_c, 10, 28, 80
11, 44395, Note_off_c, 10, 28, 64
11, 44400, Note_on_c, 10, 33, 75
11, 44800, Note_off_c, 10, 33, 64
11, 45360, Note_on_c, 10, 33, 75
11, 45760, Note_off_c, 10, 33, 64
11, 46320, Note_on_c, 10, 33, 75
11, 46720, Note_off_c, 10, 33, 64
11, 47280, Note_on_c, 10, 37, 75
11, 47515, Note_off_c, 10, 37, 64
11, 47520, Note_on_c, 10, 37, 75
11, 47755, Note_off_c, 10, 37, 64
11, 47760, Note_on_c, 10, 37, 75
11, 47995, Note_off_c, 10, 37, 64
11, 48000, Note_on_c, 10, 37, 75
11, 48235, Note_off_c, 10, 37, 64
11, 48240, Note_on_c, 10, 38, 75
11, 48640, Note_off_c, 10, 38, 64
11, 49200, Note_on_c, 10, 38, 75
11, 49600, Note_off_c, 10, 38, 64
11, 49680, Note_on_c, 10, 38, 75
11, 50080, Note_off_c, 10, 38, 64
11, 50160, Note_on_c, 10, 40, 75
11, 50395, Note_off_c, 10, 40, 64
11, 50400, Note_on_c, 10, 40, 75
11, 50635, Note_off_c, 10, 40, 64
11, 50640, Note_on_c, 10, 40, 75
11, 50875, Note_off_c, 10, 40, 64
11, 50880, Note_on_c, 10, 40, 75
11, 51115, Note_off_c, 10, 40, 64
11, 51120, Note_on_c, 10, 28, 75
11, 51355, Note_off_c, 10, 28, 64
11, 51360, Note_on_c, 10, 28, 75
11, 51595, Note_off_c, 10, 28, 64
11, 51600, Note_on_c, 10, 28, 75
11, 51835, Note_off_c, 10, 28, 64
11, 51840, Note_on_c, 10, 28, 75
11, 52075, Note_off_c, 10, 28, 64
11, 52080, Note_on_c, 10, 33, 75
11, 52480, Note_off_c, 10, 33, 64
11, 52800, Note_on_c, 10, 40, 75
11, 52880, Note_off_c, 10, 40, 64
11, 53040, Note_on_c, 10, 33, 75
11, 53440, Note_off_c, 10, 33, 64
11, 53760, Note_on_c, 10, 28, 75
11, 53840, Note_off_c, 10, 28, 64
11, 54000, Note_on_c, 10, 33, 75
11, 54235, Note_off_c, 10, 33, 64
11, 54480, Note_on_c, 10, 33, 75
11, 54715, Note_off_c, 10, 33, 64
11, 54960, Note_on_c, 10, 33, 75
11, 55360, Note_off_c, 10, 33, 64
11, 56040, Note_on_c, 10, 38, 45
11, 56120, Note_off_c, 10, 38, 64
11, 56520, Note_on_c, 10, 26, 45
11, 56600, Note_off_c, 10, 26, 64
11, 57000, Note_on_c, 10, 31, 45
11, 57080, Note_off_c, 10, 31, 64
11, 57960, Note_on_c, 10, 28, 45
11, 58040, Note_off_c, 10, 28, 64
11, 58440, Note_on_c, 10, 33, 45
11, 58520, Note_off_c, 10, 33, 64
11, 58920, Note_on_c, 10, 26, 45
11, 59000, Note_off_c, 10, 26, 64
11, 59880, Note_on_c, 10, 38, 75
11, 60115, Note_off_c, 10, 38, 64
11, 60120, Note_on_c, 10, 38, 75
11, 60355, Note_off_c, 10, 38, 64
11, 60360, Note_on_c, 10, 38, 75
11, 60595, Note_off_c, 10, 38, 64
11, 60600, Note_on_c, 10, 38, 75
11, 60835, Note_off_c, 10, 38, 64
11, 60840, Note_on_c, 10, 38, 75
11, 61075, Note_off_c, 10, 38, 64
11, 61080, Note_on_c, 10, 38, 75
11, 61315, Note_off_c, 10, 38, 64
11, 61320, Note_on_c, 10, 38, 75
11, 61555, Note_off_c, 10, 38, 64
11, 61560, Note_on_c, 10, 38, 75
11, 61795, Note_off_c, 10, 38, 64
11, 61800, Note_on_c, 10, 38, 75
11, 62035, Note_off_c, 10, 38, 64
11, 62040, Note_on_c, 10, 38, 75
11, 62275, Note_off_c, 10, 38, 64
11, 62280, Note_on_c, 10, 38, 75
11, 62515, Note_off_c, 10, 38, 64
11, 62520, Note_on_c, 10, 38, 75
11, 62755, Note_off_c, 10, 38, 64
11, 62760, Note_on_c, 10, 38, 75
11, 62995, Note_off_c, 10, 38, 64
11, 63000, Note_on_c, 10, 38, 75
11, 63235, Note_off_c, 10, 38, 64
11, 63240, Note_on_c, 10, 38, 75
11, 63475, Note_off_c, 10, 38, 64
11, 63480, Note_on_c, 10, 38, 75
11, 63715, Note_off_c, 10, 38, 64
11, 63720, Note_on_c, 10, 26, 75
11, 63955, Note_off_c, 10, 26, 64
11, 63960, Note_on_c, 10, 26, 75
11, 64195, Note_off_c, 10, 26, 64
11, 64200, Note_on_c, 10, 26, 75
11, 64435, Note_off_c, 10, 26, 64
11, 64440, Note_on_c, 10, 26, 75
11, 64675, Note_off_c, 10, 26, 64
11, 64680, Note_on_c, 10, 26, 75
11, 64915, Note_off_c, 10, 26, 64
11, 64920, Note_on_c, 10, 26, 75
11, 65155, Note_off_c, 10, 26, 64
11, 65160, Note_on_c, 10, 26, 75
11, 65395, Note_off_c, 10, 26, 64
11, 65400, Note_on_c, 10, 26, 75
11, 65635, Note_off_c, 10, 26, 64
11, 65640, Note_on_c, 10, 26, 75
11, 65875, Note_off_c, 10, 26, 64
11, 65880, Note_on_c, 10, 26, 75
11, 66115, Note_off_c, 10, 26, 64
11, 66120, Note_on_c, 10, 26, 75
11, 66355, Note_off_c, 10, 26, 64
11, 66360, Note_on_c, 10, 26, 75
11, 66595, Note_off_c, 10, 26, 64
11, 66600, Note_on_c, 10, 26, 75
11, 66835, Note_off_c, 10, 26, 64
11, 66840, Note_on_c, 10, 26, 75
11, 67075, Note_off_c, 10, 26, 64
11, 67080, Note_on_c, 10, 26, 75
11, 67315, Note_off_c, 10, 26, 64
11, 67320, Note_on_c, 10, 26, 75
11, 67555, Note_off_c, 10, 26, 64
11, 67560, Note_on_c, 10, 26, 75
11, 67795, Note_off_c, 10, 26, 64
11, 67800, Note_on_c, 10, 26, 75
11, 68035, Note_off_c, 10, 26, 64
11, 68040, Note_on_c, 10, 26, 75
11, 68275, Note_off_c, 10, 26, 64
11, 68280, Note_on_c, 10, 26, 75
11, 68515, Note_off_c, 10, 26, 64
11, 68520, Note_on_c, 10, 26, 75
11, 68755, Note_off_c, 10, 26, 64
11, 68760, Note_on_c, 10, 26, 75
11, 68995, Note_off_c, 10, 26, 64
11, 69000, Note_on_c, 10, 26, 75
11, 69235, Note_off_c, 10, 26, 64
11, 69240, Note_on_c, 10, 26, 75
11, 69475, Note_off_c, 10, 26, 64
11, 69480, Note_on_c, 10, 33, 75
11, 69715, Note_off_c, 10, 33, 64
11, 69720, Note_on_c, 10, 33, 75
11, 69955, Note_off_c, 10, 33, 64
11, 69960, Note_on_c, 10, 33, 75
11, 70195, Note_off_c, 10, 33, 64
11, 70200, Note_on_c, 10, 33, 75
11, 70435, Note_off_c, 10, 33, 64
11, 70440, Note_on_c, 10, 38, 75
11, 70675, Note_off_c, 10, 38, 64
11, 70680, Note_on_c, 10, 38, 75
11, 70915, Note_off_c, 10, 38, 64
11, 70920, Note_on_c, 10, 38, 75
11, 71155, Note_off_c, 10, 38, 64
11, 71160, Note_on_c, 10, 38, 75
11, 71395, Note_off_c, 10, 38, 64
11, 71400, Note_on_c, 10, 26, 75
11, 71635, Note_off_c, 10, 26, 64
11, 71640, Note_on_c, 10, 26, 75
11, 71875, Note_off_c, 10, 26, 64
11, 71880, Note_on_c, 10, 26, 75
11, 72115, Note_off_c, 10, 26, 64
11, 72120, Note_on_c, 10, 26, 75
11, 72355, Note_off_c, 10, 26, 64
11, 72360, Note_on_c, 10, 26, 75
11, 72595, Note_off_c, 10, 26, 64
11, 72600, Note_on_c, 10, 26, 75
11, 72835, Note_off_c, 10, 26, 64
11, 72840, Note_on_c, 10, 26, 75
11, 73075, Note_off_c, 10, 26, 64
11, 73080, Note_on_c, 10, 26, 75
11, 73315, Note_off_c, 10, 26, 64
11, 73320, Note_on_c, 10, 33, 75
11, 73555, Note_off_c, 10, 33, 64
11, 73560, Note_on_c, 10, 33, 75
11, 73795, Note_off_c, 10, 33, 64
11, 73800, Note_on_c, 10, 33, 75
11, 74035, Note_off_c, 10, 33, 64
11, 74040, Note_on_c, 10, 33, 75
11, 74275, Note_off_c, 10, 33, 64
11, 74280, Note_on_c, 10, 38, 75
11, 74515, Note_off_c, 10, 38, 64
11, 74520, Note_on_c, 10, 38, 75
11, 74755, Note_off_c, 10, 38, 64
11, 74760, Note_on_c, 10, 38, 75
11, 74995, Note_off_c, 10, 38, 64
11, 75000, Note_on_c, 10, 38, 75
11, 75235, Note_off_c, 10, 38, 64
11, 75240, Note_on_c, 10, 38, 75
11, 75475, Note_off_c, 10, 38, 64
11, 75480, Note_on_c, 10, 38, 79
11, 75715, Note_off_c, 10, 38, 64
11, 75720, Note_on_c, 10, 38, 83
11, 75955, Note_off_c, 10, 38, 64
11, 75960, Note_on_c, 10, 38, 87
11, 76195, Note_off_c, 10, 38, 64
11, 76200, Note_on_c, 10, 37, 92
11, 76280, Note_off_c, 10, 37, 64
11, 76440, Note_on_c, 10, 49, 92
11, 76680, Note_off_c, 10, 49, 64
11, 76680, Note_on_c, 10, 47, 92
11, 76920, Note_off_c, 10, 47, 64
11, 76920, Note_on_c, 10, 45, 92
11, 77160, Note_off_c, 10, 45, 64
11, 77160, Note_on_c, 10, 44, 92
11, 77240, Note_off_c, 10, 44, 64
11, 77640, Note_on_c, 10, 45, 92
11, 77720, Note_off_c, 10, 45, 64
11, 78120, Note_on_c, 10, 40, 92
11, 78200, Note_off_c, 10, 40, 64
11, 79140, Note_on_c, 10, 45, 45
11, 79540, Note_off_c, 10, 45, 64
11, 80100, Note_on_c, 10, 33, 45
11, 80500, Note_off_c, 10, 33, 64
11, 81060, Note_on_c, 10, 38, 45
11, 81460, Note_off_c, 10, 38, 64
11, 82020, Note_on_c, 10, 26, 45
11, 82420, Note_off_c, 10, 26, 64
11, 82980, Note_on_c, 10, 33, 45
11, 83380, Note_off_c, 10, 33, 64
11, 83940, Note_on_c, 10, 33, 30
11, 84340, Note_off_c, 10, 33, 64
11, 84900, Note_on_c, 10, 38, 30
11, 85300, Note_off_c, 10, 38, 64
11, 85860, Note_on_c, 10, 26, 30
11, 86260, Note_off_c, 10, 26, 64
11, 86820, Note_on_c, 10, 33, 30
11, 87220, Note_off_c, 10, 33, 64
11, 87780, Note_on_c, 10, 33, 30
11, 87860, Note_off_c, 10, 33, 64
11, 88020, Note_on_c, 10, 49, 92
11, 88100, Note_off_c, 10, 49, 64
11, 88260, Note_on_c, 10, 47, 92
11, 88340, Note_off_c, 10, 47, 64
11, 88500, Note_on_c, 10, 45, 92
11, 88580, Note_off_c, 10, 45, 64
11, 88740, Note_on_c, 10, 44, 92
11, 88820, Note_off_c, 10, 44, 64
11, 88980, Note_on_c, 10, 44, 92
11, 89060, Note_off_c, 10, 44, 64
11, 89220, Note_on_c, 10, 44, 92
11, 89300, Note_off_c, 10, 44, 64
11, 89460, Note_on_c, 10, 44, 92
11, 89540, Note_off_c, 10, 44, 64
11, 89700, Note_on_c, 10, 40, 92
11, 89780, Note_off_c, 10, 40, 64
11, 89940, Note_on_c, 10, 40, 92
11, 90020, Note_off_c, 10, 40, 64
11, 90180, Note_on_c, 10, 40, 92
11, 90260, Note_off_c, 10, 40, 64
11, 90420, Note_on_c, 10, 40, 92
11, 90500, Note_off_c, 10, 40, 64
11, 90660, Note_on_c, 10, 33, 92
11, 90895, Note_off_c, 10, 33, 64
11, 90960, Note_on_c, 10, 33, 92
11, 91040, Note_off_c, 10, 33, 64
11, 91200, Note_on_c, 10, 33, 92
11, 91280, Note_off_c, 10, 33, 64
11, 91440, Note_on_c, 10, 33, 92
11, 91520, Note_off_c, 10, 33, 64
11, 91680, Note_on_c, 10, 33, 92
11, 91760, Note_off_c, 10, 33, 64
11, 91920, Note_on_c, 10, 49, 92
11, 92000, Note_off_c, 10, 49, 64
11, 92160, Note_on_c, 10, 47, 92
11, 92240, Note_off_c, 10, 47, 64
11, 92400, Note_on_c, 10, 45, 92
11, 92480, Note_off_c, 10, 45, 64
11, 92640, Note_on_c, 10, 44, 92
11, 92875, Note_off_c, 10, 44, 64
11, 92880, Note_on_c, 10, 44, 92
11, 93115, Note_off_c, 10, 44, 64
11, 93120, Note_on_c, 10, 44, 92
11, 93355, Note_off_c, 10, 44, 64
11, 93360, Note_on_c, 10, 44, 92
11, 93595, Note_off_c, 10, 44, 64
11, 93600, Note_on_c, 10, 40, 92
11, 93835, Note_off_c, 10, 40, 64
11, 93840, Note_on_c, 10, 40, 92
11, 94075, Note_off_c, 10, 40, 64
11, 94080, Note_on_c, 10, 40, 92
11, 94315, Note_off_c, 10, 40, 64
11, 94320, Note_on_c, 10, 40, 92
11, 94555, Note_off_c, 10, 40, 64
11, 94560, Note_on_c, 10, 33, 92
11, 94795, Note_off_c, 10, 33, 64
11, 94860, Note_on_c, 10, 33, 92
11, 95095, Note_off_c, 10, 33, 64
11, 95100, Note_on_c, 10, 33, 92
11, 95335, Note_off_c, 10, 33, 64
11, 95340, Note_on_c, 10, 33, 92
11, 95575, Note_off_c, 10, 33, 64
11, 95580, Note_on_c, 10, 33, 92
11, 95815, Note_off_c, 10, 33, 64
11, 95820, Note_on_c, 10, 33, 92
11, 96055, Note_off_c, 10, 33, 64
11, 96060, Note_on_c, 10, 33, 92
11, 96295, Note_off_c, 10, 33, 64
11, 96300, Note_on_c, 10, 33, 92
11, 96535, Note_off_c, 10, 33, 64
11, 96540, Note_on_c, 10, 38, 92
11, 96775, Note_off_c, 10, 38, 64
11, 96840, Note_on_c, 10, 38, 92
11, 97075, Note_off_c, 10, 38, 64
11, 97080, Note_on_c, 10, 38, 92
11, 97315, Note_off_c, 10, 38, 64
11, 97320, Note_on_c, 10, 38, 92
11, 97555, Note_off_c, 10, 38, 64
11, 97560, Note_on_c, 10, 38, 92
11, 97795, Note_off_c, 10, 38, 64
11, 97800, Note_on_c, 10, 38, 92
11, 98035, Note_off_c, 10, 38, 64
11, 98040, Note_on_c, 10, 38, 92
11, 98275, Note_off_c, 10, 38, 64
11, 98280, Note_on_c, 10, 38, 92
11, 98515, Note_off_c, 10, 38, 64
11, 98520, Note_on_c, 10, 40, 92
11, 98755, Note_off_c, 10, 40, 64
11, 98760, Note_on_c, 10, 40, 92
11, 98995, Note_off_c, 10, 40, 64
11, 99000, Note_on_c, 10, 40, 92
11, 99235, Note_off_c, 10, 40, 64
11, 99240, Note_on_c, 10, 40, 92
11, 99475, Note_off_c, 10, 40, 64
11, 99480, Note_on_c, 10, 28, 92
11, 99715, Note_off_c, 10, 28, 64
11, 99720, Note_on_c, 10, 28, 88
11, 99955, Note_off_c, 10, 28, 64
11, 99960, Note_on_c, 10, 28, 84
11, 100195, Note_off_c, 10, 28, 64
11, 100200, Note_on_c, 10, 28, 80
11, 100435, Note_off_c, 10, 28, 64
11, 100440, Note_on_c, 10, 33, 75
11, 100840, Note_off_c, 10, 33, 64
11, 101400, Note_on_c, 10, 33, 75
11, 101800, Note_off_c, 10, 33, 64
11, 102360, Note_on_c, 10, 33, 75
11, 102760, Note_off_c, 10, 33, 64
11, 103320, Note_on_c, 10, 37, 75
11, 103555, Note_off_c, 10, 37, 64
11, 103560, Note_on_c, 10, 37, 75
11, 103795, Note_off_c, 10, 37, 64
11, 103800, Note_on_c, 10, 37, 75
11, 104035, Note_off_c, 10, 37, 64
11, 104040, Note_on_c, 10, 37, 75
11, 104275, Note_off_c, 10, 37, 64
11, 104280, Note_on_c, 10, 38, 75
11, 104680, Note_off_c, 10, 38, 64
11, 105240, Note_on_c, 10, 38, 75
11, 105640, Note_off_c, 10, 38, 64
11, 105720, Note_on_c, 10, 38, 75
11, 106120, Note_off_c, 10, 38, 64
11, 106200, Note_on_c, 10, 40, 75
11, 106435, Note_off_c, 10, 40, 64
11, 106440, Note_on_c, 10, 40, 75
11, 106675, Note_off_c, 10, 40, 64
11, 106680, Note_on_c, 10, 40, 75
11, 106915, Note_off_c, 10, 40, 64
11, 106920, Note_on_c, 10, 40, 75
11, 107155, Note_off_c, 10, 40, 64
11, 107160, Note_on_c, 10, 28, 75
11, 107395, Note_off_c, 10, 28, 64
11, 107400, Note_on_c, 10, 28, 75
11, 107635, Note_off_c, 10, 28, 64
11, 107640, Note_on_c, 10, 28, 75
11, 107875, Note_off_c, 10, 28, 64
11, 107880, Note_on_c, 10, 28, 75
11, 108115, Note_off_c, 10, 28, 64
11, 108120, Note_on_c, 10, 33, 75
11, 108520, Note_off_c, 10, 33, 64
11, 108840, Note_on_c, 10, 40, 75
11, 108920, Note_off_c, 10, 40, 64
11, 109080, Note_on_c, 10, 33, 75
11, 109480, Note_off_c, 10, 33, 64
11, 109800, Note_on_c, 10, 28, 75
11, 109880, Note_off_c, 10, 28, 64
11, 110040, Note_on_c, 10, 33, 75
11, 110275, Note_off_c, 10, 33, 64
11, 110520, Note_on_c, 10, 33, 75
11, 110755, Note_off_c, 10, 33, 64
11, 111000, Note_on_c, 10, 33, 75
11, 111400, Note_off_c, 10, 33, 64
11, 115920, Note_on_c, 10, 50, 92
11, 116560, Note_off_c, 10, 50, 64
11, 116640, Note_on_c, 10, 50, 92
11, 116875, Note_off_c, 10, 50, 64
11, 116880, Note_on_c, 10, 48, 92
11, 117115, Note_off_c, 10, 48, 64
11, 117120, Note_on_c, 10, 47, 92
11, 117355, Note_off_c, 10, 47, 64
11, 117360, Note_on_c, 10, 48, 92
11, 117595, Note_off_c, 10, 48, 64
11, 117600, Note_on_c, 10, 45, 92
11, 117835, Note_off_c, 10, 45, 64
11, 117840, Note_on_c, 10, 47, 92
11, 118075, Note_off_c, 10, 47, 64
11, 118080, Note_on_c, 10, 45, 92
11, 118315, Note_off_c, 10, 45, 64
11, 118320, Note_on_c, 10, 47, 92
11, 118555, Note_off_c, 10, 47, 64
11, 118560, Note_on_c, 10, 43, 92
11, 118795, Note_off_c, 10, 43, 64
11, 118800, Note_on_c, 10, 45, 92
11, 119035, Note_off_c, 10, 45, 64
11, 119040, Note_on_c, 10, 43, 92
11, 119275, Note_off_c, 10, 43, 64
11, 119280, Note_on_c, 10, 45, 92
11, 119515, Note_off_c, 10, 45, 64
11, 119520, Note_on_c, 10, 42, 92
11, 119755, Note_off_c, 10, 42, 64
11, 119760, Note_on_c, 10, 43, 92
11, 120160, Note_off_c, 10, 43, 64
11, 122640, Note_on_c, 10, 42, 92
11, 123280, Note_off_c, 10, 42, 64
11, 123360, Note_on_c, 10, 42, 92
11, 123595, Note_off_c, 10, 42, 64
11, 123600, Note_on_c, 10, 40, 92
11, 123835, Note_off_c, 10, 40, 64
11, 123840, Note_on_c, 10, 38, 92
11, 124075, Note_off_c, 10, 38, 64
11, 124080, Note_on_c, 10, 40, 92
11, 124315, Note_off_c, 10, 40, 64
11, 124320, Note_on_c, 10, 37, 92
11, 124555, Note_off_c, 10, 37, 64
11, 124560, Note_on_c, 10, 35, 92
11, 124795, Note_off_c, 10, 35, 64
11, 125040, Note_on_c, 10, 35, 92
11, 125520, Note_off_c, 10, 35, 64
11, 125520, Note_on_c, 10, 37, 92
11, 126000, Note_off_c, 10, 37, 64
11, 126000, Note_on_c, 10, 39, 92
11, 126480, Note_off_c, 10, 39, 64
11, 126480, Note_on_c, 10, 40, 92
11, 126880, Note_off_c, 10, 40, 64
11, 135120, Note_on_c, 10, 34, 92
11, 135520, Note_off_c, 10, 34, 64
11, 136140, Note_on_c, 10, 32, 92
11, 136540, Note_off_c, 10, 32, 64
11, 137160, Note_on_c, 10, 33, 92
11, 137560, Note_off_c, 10, 33, 64
11, 139080, Note_on_c, 10, 38, 45
11, 139315, Note_off_c, 10, 38, 64
11, 139560, Note_on_c, 10, 26, 45
11, 139795, Note_off_c, 10, 26, 64
11, 140040, Note_on_c, 10, 31, 45
11, 140275, Note_off_c, 10, 31, 64
11, 141000, Note_on_c, 10, 28, 45
11, 141235, Note_off_c, 10, 28, 64
11, 141480, Note_on_c, 10, 33, 45
11, 141715, Note_off_c, 10, 33, 64
11, 141960, Note_on_c, 10, 26, 45
11, 142195, Note_off_c, 10, 26, 64
11, 142980, Note_on_c, 10, 38, 75
11, 143215, Note_off_c, 10, 38, 64
11, 143220, Note_on_c, 10, 38, 75
11, 143455, Note_off_c, 10, 38, 64
11, 143460, Note_on_c, 10, 38, 75
11, 143695, Note_off_c, 10, 38, 64
11, 143700, Note_on_c, 10, 38, 75
11, 143935, Note_off_c, 10, 38, 64
11, 143940, Note_on_c, 10, 38, 75
11, 144175, Note_off_c, 10, 38, 64
11, 144180, Note_on_c, 10, 38, 75
11, 144415, Note_off_c, 10, 38, 64
11, 144420, Note_on_c, 10, 38, 75
11, 144655, Note_off_c, 10, 38, 64
11, 144660, Note_on_c, 10, 38, 75
11, 144895, Note_off_c, 10, 38, 64
11, 144900, Note_on_c, 10, 38, 75
11, 145135, Note_off_c, 10, 38, 64
11, 145140, Note_on_c, 10, 38, 75
11, 145375, Note_off_c, 10, 38, 64
11, 145380, Note_on_c, 10, 38, 75
11, 145615, Note_off_c, 10, 38, 64
11, 145620, Note_on_c, 10, 38, 75
11, 145855, Note_off_c, 10, 38, 64
11, 145860, Note_on_c, 10, 38, 75
11, 146095, Note_off_c, 10, 38, 64
11, 146100, Note_on_c, 10, 38, 75
11, 146335, Note_off_c, 10, 38, 64
11, 146340, Note_on_c, 10, 38, 75
11, 146575, Note_off_c, 10, 38, 64
11, 146580, Note_on_c, 10, 38, 75
11, 146815, Note_off_c, 10, 38, 64
11, 146820, Note_on_c, 10, 26, 75
11, 147055, Note_off_c, 10, 26, 64
11, 147060, Note_on_c, 10, 26, 75
11, 147295, Note_off_c, 10, 26, 64
11, 147300, Note_on_c, 10, 26, 75
11, 147535, Note_off_c, 10, 26, 64
11, 147540, Note_on_c, 10, 26, 75
11, 147775, Note_off_c, 10, 26, 64
11, 147780, Note_on_c, 10, 26, 75
11, 148015, Note_off_c, 10, 26, 64
11, 148020, Note_on_c, 10, 26, 75
11, 148255, Note_off_c, 10, 26, 64
11, 148260, Note_on_c, 10, 26, 75
11, 148495, Note_off_c, 10, 26, 64
11, 148500, Note_on_c, 10, 26, 75
11, 148735, Note_off_c, 10, 26, 64
11, 148740, Note_on_c, 10, 26, 75
11, 148975, Note_off_c, 10, 26, 64
11, 148980, Note_on_c, 10, 26, 75
11, 149215, Note_off_c, 10, 26, 64
11, 149220, Note_on_c, 10, 26, 75
11, 149455, Note_off_c, 10, 26, 64
11, 149460, Note_on_c, 10, 26, 75
11, 149695, Note_off_c, 10, 26, 64
11, 149700, Note_on_c, 10, 26, 75
11, 149935, Note_off_c, 10, 26, 64
11, 149940, Note_on_c, 10, 26, 75
11, 150175, Note_off_c, 10, 26, 64
11, 150180, Note_on_c, 10, 26, 75
11, 150415, Note_off_c, 10, 26, 64
11, 150420, Note_on_c, 10, 26, 75
11, 150655, Note_off_c, 10, 26, 64
11, 150660, Note_on_c, 10, 26, 75
11, 150895, Note_off_c, 10, 26, 64
11, 150900, Note_on_c, 10, 26, 75
11, 151135, Note_off_c, 10, 26, 64
11, 151140, Note_on_c, 10, 26, 75
11, 151375, Note_off_c, 10, 26, 64
11, 151380, Note_on_c, 10, 26, 75
11, 151615, Note_off_c, 10, 26, 64
11, 151620, Note_on_c, 10, 26, 75
11, 151855, Note_off_c, 10, 26, 64
11, 151860, Note_on_c, 10, 26, 75
11, 152095, Note_off_c, 10, 26, 64
11, 152100, Note_on_c, 10, 26, 75
11, 152335, Note_off_c, 10, 26, 64
11, 152340, Note_on_c, 10, 26, 75
11, 152575, Note_off_c, 10, 26, 64
11, 152580, Note_on_c, 10, 33, 75
11, 152815, Note_off_c, 10, 33, 64
11, 152820, Note_on_c, 10, 33, 75
11, 153055, Note_off_c, 10, 33, 64
11, 153060, Note_on_c, 10, 33, 75
11, 153295, Note_off_c, 10, 33, 64
11, 153300, Note_on_c, 10, 33, 75
11, 153535, Note_off_c, 10, 33, 64
11, 153540, Note_on_c, 10, 38, 75
11, 153775, Note_off_c, 10, 38, 64
11, 153780, Note_on_c, 10, 38, 75
11, 154015, Note_off_c, 10, 38, 64
11, 154020, Note_on_c, 10, 38, 75
11, 154255, Note_off_c, 10, 38, 64
11, 154260, Note_on_c, 10, 38, 75
11, 154495, Note_off_c, 10, 38, 64
11, 154500, Note_on_c, 10, 26, 75
11, 154735, Note_off_c, 10, 26, 64
11, 154740, Note_on_c, 10, 26, 75
11, 154975, Note_off_c, 10, 26, 64
11, 154980, Note_on_c, 10, 26, 75
11, 155215, Note_off_c, 10, 26, 64
11, 155220, Note_on_c, 10, 26, 75
11, 155455, Note_off_c, 10, 26, 64
11, 155460, Note_on_c, 10, 26, 75
11, 155695, Note_off_c, 10, 26, 64
11, 155700, Note_on_c, 10, 26, 75
11, 155935, Note_off_c, 10, 26, 64
11, 155940, Note_on_c, 10, 26, 75
11, 156175, Note_off_c, 10, 26, 64
11, 156180, Note_on_c, 10, 26, 75
11, 156415, Note_off_c, 10, 26, 64
11, 156420, Note_on_c, 10, 33, 75
11, 156655, Note_off_c, 10, 33, 64
11, 156660, Note_on_c, 10, 33, 75
11, 156895, Note_off_c, 10, 33, 64
11, 156900, Note_on_c, 10, 33, 75
11, 157135, Note_off_c, 10, 33, 64
11, 157140, Note_on_c, 10, 33, 75
11, 157375, Note_off_c, 10, 33, 64
11, 157380, Note_on_c, 10, 38, 75
11, 157615, Note_off_c, 10, 38, 64
11, 157620, Note_on_c, 10, 38, 75
11, 157855, Note_off_c, 10, 38, 64
11, 157860, Note_on_c, 10, 38, 75
11, 158095, Note_off_c, 10, 38, 64
11, 158100, Note_on_c, 10, 38, 75
11, 158335, Note_off_c, 10, 38, 64
11, 158340, Note_on_c, 10, 43, 75
11, 158575, Note_off_c, 10, 43, 64
11, 158580, Note_on_c, 10, 43, 75
11, 158815, Note_off_c, 10, 43, 64
11, 158820, Note_on_c, 10, 43, 75
11, 159055, Note_off_c, 10, 43, 64
11, 159060, Note_on_c, 10, 43, 75
11, 159295, Note_off_c, 10, 43, 64
11, 159300, Note_on_c, 10, 42, 92
11, 159380, Note_off_c, 10, 42, 64
11, 159540, Note_on_c, 10, 42, 92
11, 159780, Note_off_c, 10, 42, 64
11, 159780, Note_on_c, 10, 40, 92
11, 160020, Note_off_c, 10, 40, 64
11, 160020, Note_on_c, 10, 38, 92
11, 160260, Note_off_c, 10, 38, 64
11, 160260, Note_on_c, 10, 37, 92
11, 160340, Note_off_c, 10, 37, 64
11, 160740, Note_on_c, 10, 38, 92
11, 160820, Note_off_c, 10, 38, 64
11, 161220, Note_on_c, 10, 33, 92
11, 161300, Note_off_c, 10, 33, 64
11, 162180, Note_on_c, 10, 38, 45
11, 162580, Note_off_c, 10, 38, 64
11, 163140, Note_on_c, 10, 26, 45
11, 163540, Note_off_c, 10, 26, 64
11, 164100, Note_on_c, 10, 31, 45
11, 164500, Note_off_c, 10, 31, 64
11, 165060, Note_on_c, 10, 43, 45
11, 165460, Note_off_c, 10, 43, 64
11, 166020, Note_on_c, 10, 38, 45
11, 166420, Note_off_c, 10, 38, 64
11, 166980, Note_on_c, 10, 26, 30
11, 167380, Note_off_c, 10, 26, 64
11, 167940, Note_on_c, 10, 31, 30
11, 168340, Note_off_c, 10, 31, 64
11, 168900, Note_on_c, 10, 31, 30
11, 169300, Note_off_c, 10, 31, 64
11, 169860, Note_on_c, 10, 26, 30
11, 170260, Note_off_c, 10, 26, 64
11, 170820, Note_on_c, 10, 26, 30
11, 171055, Note_off_c, 10, 26, 64
11, 171060, Note_on_c, 10, 42, 92
11, 171140, Note_off_c, 10, 42, 64
11, 171300, Note_on_c, 10, 40, 92
11, 171380, Note_off_c, 10, 40, 64
11, 171540, Note_on_c, 10, 38, 92
11, 171620, Note_off_c, 10, 38, 64
11, 171780, Note_on_c, 10, 37, 75
11, 172015, Note_off_c, 10, 37, 64
11, 172020, Note_on_c, 10, 37, 75
11, 172255, Note_off_c, 10, 37, 64
11, 172260, Note_on_c, 10, 37, 75
11, 172495, Note_off_c, 10, 37, 64
11, 172500, Note_on_c, 10, 37, 75
11, 172735, Note_off_c, 10, 37, 64
11, 172740, Note_on_c, 10, 33, 75
11, 172975, Note_off_c, 10, 33, 64
11, 172980, Note_on_c, 10, 33, 75
11, 173215, Note_off_c, 10, 33, 64
11, 173220, Note_on_c, 10, 33, 75
11, 173455, Note_off_c, 10, 33, 64
11, 173460, Note_on_c, 10, 33, 75
11, 173695, Note_off_c, 10, 33, 64
11, 173700, Note_on_c, 10, 26, 75
11, 173935, Note_off_c, 10, 26, 64
11, 174000, Note_on_c, 10, 26, 75
11, 174235, Note_off_c, 10, 26, 64
11, 174240, Note_on_c, 10, 26, 75
11, 174475, Note_off_c, 10, 26, 64
11, 174480, Note_on_c, 10, 26, 75
11, 174715, Note_off_c, 10, 26, 64
11, 174720, Note_on_c, 10, 26, 75
11, 174955, Note_off_c, 10, 26, 64
11, 174960, Note_on_c, 10, 42, 75
11, 175040, Note_off_c, 10, 42, 64
11, 175200, Note_on_c, 10, 40, 75
11, 175280, Note_off_c, 10, 40, 64
11, 175440, Note_on_c, 10, 38, 75
11, 175520, Note_off_c, 10, 38, 64
11, 175680, Note_on_c, 10, 37, 75
11, 175915, Note_off_c, 10, 37, 64
11, 175920, Note_on_c, 10, 37, 75
11, 176155, Note_off_c, 10, 37, 64
11, 176160, Note_on_c, 10, 37, 75
11, 176395, Note_off_c, 10, 37, 64
11, 176400, Note_on_c, 10, 37, 75
11, 176635, Note_off_c, 10, 37, 64
11, 176640, Note_on_c, 10, 33, 75
11, 176875, Note_off_c, 10, 33, 64
11, 176880, Note_on_c, 10, 33, 75
11, 177115, Note_off_c, 10, 33, 64
11, 177120, Note_on_c, 10, 33, 75
11, 177355, Note_off_c, 10, 33, 64
11, 177360, Note_on_c, 10, 33, 75
11, 177595, Note_off_c, 10, 33, 64
11, 177600, Note_on_c, 10, 26, 75
11, 177835, Note_off_c, 10, 26, 64
11, 177900, Note_on_c, 10, 26, 75
11, 178135, Note_off_c, 10, 26, 64
11, 178140, Note_on_c, 10, 26, 75
11, 178375, Note_off_c, 10, 26, 64
11, 178380, Note_on_c, 10, 26, 75
11, 178615, Note_off_c, 10, 26, 64
11, 178620, Note_on_c, 10, 38, 75
11, 178855, Note_off_c, 10, 38, 64
11, 178860, Note_on_c, 10, 38, 75
11, 179095, Note_off_c, 10, 38, 64
11, 179100, Note_on_c, 10, 38, 75
11, 179335, Note_off_c, 10, 38, 64
11, 179340, Note_on_c, 10, 38, 75
11, 179575, Note_off_c, 10, 38, 64
11, 179580, Note_on_c, 10, 43, 75
11, 179815, Note_off_c, 10, 43, 64
11, 179880, Note_on_c, 10, 43, 75
11, 180115, Note_off_c, 10, 43, 64
11, 180120, Note_on_c, 10, 43, 75
11, 180355, Note_off_c, 10, 43, 64
11, 180360, Note_on_c, 10, 43, 75
11, 180595, Note_off_c, 10, 43, 64
11, 180600, Note_on_c, 10, 31, 75
11, 180835, Note_off_c, 10, 31, 64
11, 180840, Note_on_c, 10, 31, 75
11, 181075, Note_off_c, 10, 31, 64
11, 181080, Note_on_c, 10, 31, 75
11, 181315, Note_off_c, 10, 31, 64
11, 181320, Note_on_c, 10, 31, 75
11, 181555, Note_off_c, 10, 31, 64
11, 181560, Note_on_c, 10, 33, 75
11, 181795, Note_off_c, 10, 33, 64
11, 181800, Note_on_c, 10, 33, 75
11, 182035, Note_off_c, 10, 33, 64
11, 182040, Note_on_c, 10, 33, 75
11, 182275, Note_off_c, 10, 33, 64
11, 182280, Note_on_c, 10, 33, 75
11, 182515, Note_off_c, 10, 33, 64
11, 182520, Note_on_c, 10, 33, 75
11, 182755, Note_off_c, 10, 33, 64
11, 182760, Note_on_c, 10, 33, 75
11, 182995, Note_off_c, 10, 33, 64
11, 183000, Note_on_c, 10, 33, 75
11, 183235, Note_off_c, 10, 33, 64
11, 183240, Note_on_c, 10, 33, 75
11, 183475, Note_off_c, 10, 33, 64
11, 183480, Note_on_c, 10, 38, 75
11, 183880, Note_off_c, 10, 38, 64
11, 184440, Note_on_c, 10, 26, 75
11, 184840, Note_off_c, 10, 26, 64
11, 185400, Note_on_c, 10, 26, 75
11, 185800, Note_off_c, 10, 26, 64
11, 186360, Note_on_c, 10, 30, 75
11, 186595, Note_off_c, 10, 30, 64
11, 186600, Note_on_c, 10, 30, 75
11, 186835, Note_off_c, 10, 30, 64
11, 186840, Note_on_c, 10, 30, 75
11, 187075, Note_off_c, 10, 30, 64
11, 187080, Note_on_c, 10, 30, 75
11, 187315, Note_off_c, 10, 30, 64
11, 187320, Note_on_c, 10, 31, 75
11, 187720, Note_off_c, 10, 31, 64
11, 188280, Note_on_c, 10, 31, 75
11, 188680, Note_off_c, 10, 31, 64
11, 188760, Note_on_c, 10, 31, 75
11, 189160, Note_off_c, 10, 31, 64
11, 189240, Note_on_c, 10, 33, 75
11, 189475, Note_off_c, 10, 33, 64
11, 189480, Note_on_c, 10, 33, 75
11, 189715, Note_off_c, 10, 33, 64
11, 189720, Note_on_c, 10, 33, 75
11, 189955, Note_off_c, 10, 33, 64
11, 189960, Note_on_c, 10, 33, 75
11, 190195, Note_off_c, 10, 33, 64
11, 190200, Note_on_c, 10, 33, 75
11, 190435, Note_off_c, 10, 33, 64
11, 190440, Note_on_c, 10, 33, 75
11, 190675, Note_off_c, 10, 33, 64
11, 190680, Note_on_c, 10, 33, 75
11, 190915, Note_off_c, 10, 33, 64
11, 190920, Note_on_c, 10, 33, 75
11, 191155, Note_off_c, 10, 33, 64
11, 191160, Note_on_c, 10, 38, 75
11, 191560, Note_off_c, 10, 38, 64
11, 191880, Note_on_c, 10, 33, 81
11, 192115, Note_off_c, 10, 33, 64
11, 192120, Note_on_c, 10, 38, 83
11, 192520, Note_off_c, 10, 38, 64
11, 192840, Note_on_c, 10, 33, 89
11, 193075, Note_off_c, 10, 33, 64
11, 193080, Note_on_c, 10, 38, 92
11, 193315, Note_off_c, 10, 38, 64
11, 193560, Note_on_c, 10, 26, 92
11, 193560, Note_on_c, 10, 38, 92
11, 193960, Note_off_c, 10, 38, 64
11, 193960, Note_off_c, 10, 26, 64
11, 194040, Note_on_c, 10, 26, 92
11, 194040, Note_on_c, 10, 38, 92
11, 194440, Note_off_c, 10, 38, 64
11, 194440, Note_off_c, 10, 26, 64
11, 194440, End_track
0, 0, End_of_file