0, 0, Header, 1, 15, 480
1, 0, Start_track
1, 0, Title_t, "untitled"
1, 0, Time_signature, 4, 2, 24, 8
1, 0, Key_signature, -2, "major"
1, 0, Tempo, 555556
1, 0, Marker_t, "3rd Movement, Rondo. Tempo di Menuetto"
1, 115195, Tempo, 606061
1, 115475, Tempo, 618557
1, 115495, Tempo, 625000
1, 115517, Tempo, 631579
1, 115675, Tempo, 645161
1, 115697, Tempo, 652174
1, 115715, Tempo, 659341
1, 115905, Tempo, 674157
1, 115925, Tempo, 681818
1, 115937, Tempo, 689655
1, 115955, Tempo, 697674
1, 115965, Tempo, 705882
1, 115977, Tempo, 714286
1, 115995, Tempo, 722892
1, 116125, Tempo, 740741
1, 116155, Tempo, 759494
1, 116165, Tempo, 769231
1, 116177, Tempo, 779221
1, 116195, Tempo, 789474
1, 116205, Tempo, 800000
1, 116217, Tempo, 821918
1, 116245, Tempo, 833333
1, 116257, Tempo, 845070
1, 116325, Tempo, 857143
1, 116335, Tempo, 869565
1, 116357, Tempo, 882353
1, 116377, Tempo, 895522
1, 116405, Tempo, 909091
1, 116417, Tempo, 923077
1, 116435, Tempo, 937500
1, 116562, Tempo, 937500
1, 116620, Tempo, 923077
1, 116622, Tempo, 594059
1, 116722, Tempo, 555556
1, 163380, Tempo, 600000
1, 163407, Tempo, 612245
1, 163420, Tempo, 618557
1, 163437, Tempo, 625000
1, 163447, Tempo, 631579
1, 163607, Tempo, 638298
1, 163617, Tempo, 645161
1, 163627, Tempo, 652174
1, 163637, Tempo, 659341
1, 163647, Tempo, 666667
1, 163740, Tempo, 674157
1, 163780, Tempo, 681818
1, 163797, Tempo, 689655
1, 163817, Tempo, 697674
1, 163820, Tempo, 705882
1, 163860, Tempo, 714286
1, 163877, Tempo, 722892
1, 163887, Tempo, 731707
1, 163897, Tempo, 740741
1, 163907, Tempo, 750000
1, 163920, Tempo, 759494
1, 163967, Tempo, 769231
1, 163980, Tempo, 779221
1, 163995, Tempo, 769231
1, 164060, Tempo, 789474
1, 164075, Tempo, 810811
1, 164090, Tempo, 833333
1, 164107, Tempo, 857143
1, 164115, Tempo, 869565
1, 164122, Tempo, 882353
1, 164140, Tempo, 923077
1, 164147, Tempo, 937500
1, 164155, Tempo, 967742
1, 164170, Tempo, 1000000
1, 164212, Tempo, 1016949
1, 164220, Tempo, 1000000
1, 164230, Tempo, 983607
1, 164240, Tempo, 967742
1, 164242, Tempo, 882353
1, 164250, Tempo, 869565
1, 164267, Tempo, 857143
1, 164282, Tempo, 845070
1, 164300, Tempo, 833333
1, 164315, Tempo, 821918
1, 164555, Tempo, 810811
1, 164715, Tempo, 821918
1, 164747, Tempo, 845070
1, 164780, Tempo, 857143
1, 164827, Tempo, 909091
1, 164842, Tempo, 923077
1, 164860, Tempo, 937500
1, 164875, Tempo, 952381
1, 164890, Tempo, 1016949
1, 164907, Tempo, 1052632
1, 164915, Tempo, 1071429
1, 164922, Tempo, 1224490
1, 164930, Tempo, 1250000
1, 164940, Tempo, 1538462
1, 164947, Tempo, 1578947
1, 164955, Tempo, 1621622
1, 164962, Tempo, 1666667
1, 164970, Tempo, 1714286
1, 164980, Tempo, 1764706
1, 164995, Tempo, 1875000
1, 165010, Tempo, 1935484
1, 165020, Tempo, 2000000
1, 165042, Tempo, 2068966
1, 165050, Tempo, 2142857
1, 165067, Tempo, 2222222
1, 165075, Tempo, 2307692
1, 165100, Tempo, 2400000
1, 165275, Tempo, 2400000
1, 165355, Tempo, 2307692
1, 165370, Tempo, 2222222
1, 165380, Tempo, 2142857
1, 165387, Tempo, 2068966
1, 165395, Tempo, 2000000
1, 165402, Tempo, 1935484
1, 165410, Tempo, 1818182
1, 165420, Tempo, 1764706
1, 165427, Tempo, 1714286
1, 165435, Tempo, 1621622
1, 165442, Tempo, 1578947
1, 165450, Tempo, 1538462
1, 165460, Tempo, 1500000
1, 165467, Tempo, 1463415
1, 165475, Tempo, 1428571
1, 165482, Tempo, 1395349
1, 165490, Tempo, 1333333
1, 165500, Tempo, 1304348
1, 165507, Tempo, 1276596
1, 165515, Tempo, 1224490
1, 165522, Tempo, 1200000
1, 165530, Tempo, 1176471
1, 165547, Tempo, 1090909
1, 165565, Tempo, 937500
1, 165572, Tempo, 923077
1, 165580, Tempo, 895522
1, 165587, Tempo, 869565
1, 165595, Tempo, 600000
1, 165602, Tempo, 555556
1, 226058, Tempo, 594059
1, 226567, Tempo, 631579
1, 227517, Tempo, 681818
1, 227997, Tempo, 750000
1, 228727, Tempo, 594059
1, 228727, End_track
2, 0, Start_track
2, 0, Title_t, "Solo Bassoon"
2, 0, Control_c, 0, 0, 0
2, 0, Control_c, 0, 7, 100
2, 0, Control_c, 0, 10, 64
2, 0, Control_c, 0, 91, 85
2, 0, Control_c, 0, 93, 85
2, 1, Control_c, 0, 32, 1
2, 2, Program_c, 0, 70
2, 41760, Note_on_c, 0, 58, 109
2, 41840, Note_on_c, 0, 58, 0
2, 41920, Note_on_c, 0, 53, 111
2, 42000, Note_on_c, 0, 53, 0
2, 42080, Note_on_c, 0, 50, 112
2, 42160, Note_on_c, 0, 50, 0
2, 42240, Note_on_c, 0, 46, 114
2, 42320, Note_on_c, 0, 46, 0
2, 42400, Note_on_c, 0, 50, 116
2, 42480, Note_on_c, 0, 50, 0
2, 42560, Note_on_c, 0, 53, 116
2, 42640, Note_on_c, 0, 53, 0
2, 42720, Note_on_c, 0, 58, 116
2, 42800, Note_on_c, 0, 58, 0
2, 42880, Note_on_c, 0, 62, 116
2, 42960, Note_on_c, 0, 62, 0
2, 43040, Note_on_c, 0, 65, 116
2, 43200, Note_on_c, 0, 63, 116
2, 43240, Note_on_c, 0, 65, 0
2, 43280, Note_on_c, 0, 63, 0
2, 43360, Note_on_c, 0, 60, 116
2, 43440, Note_on_c, 0, 60, 0
2, 43520, Note_on_c, 0, 58, 113
2, 43600, Note_on_c, 0, 58, 0
2, 43680, Note_on_c, 0, 57, 112
2, 43760, Note_on_c, 0, 57, 0
2, 43840, Note_on_c, 0, 60, 110
2, 43920, Note_on_c, 0, 60, 0
2, 44000, Note_on_c, 0, 55, 106
2, 44160, Note_on_c, 0, 53, 106
2, 44200, Note_on_c, 0, 55, 0
2, 44240, Note_on_c, 0, 53, 0
2, 44320, Note_on_c, 0, 60, 105
2, 44400, Note_on_c, 0, 60, 0
2, 44480, Note_on_c, 0, 51, 105
2, 44640, Note_on_c, 0, 50, 105
2, 44680, Note_on_c, 0, 51, 0
2, 44720, Note_on_c, 0, 50, 0
2, 44800, Note_on_c, 0, 58, 103
2, 44880, Note_on_c, 0, 58, 0
2, 44960, Note_on_c, 0, 57, 101
2, 45040, Note_on_c, 0, 57, 0
2, 45120, Note_on_c, 0, 55, 100
2, 45200, Note_on_c, 0, 55, 0
2, 45280, Note_on_c, 0, 63, 98
2, 45360, Note_on_c, 0, 63, 0
2, 45440, Note_on_c, 0, 62, 98
2, 45520, Note_on_c, 0, 62, 0
2, 45600, Note_on_c, 0, 60, 98
2, 45680, Note_on_c, 0, 60, 0
2, 45760, Note_on_c, 0, 62, 99
2, 45840, Note_on_c, 0, 62, 0
2, 45920, Note_on_c, 0, 55, 99
2, 46000, Note_on_c, 0, 55, 0
2, 46080, Note_on_c, 0, 57, 99
2, 46240, Note_on_c, 0, 58, 98
2, 46262, Note_on_c, 0, 57, 0
2, 46320, Note_on_c, 0, 58, 0
2, 46400, Note_on_c, 0, 60, 98
2, 46480, Note_on_c, 0, 60, 0
2, 46560, Note_on_c, 0, 58, 98
2, 46640, Note_on_c, 0, 58, 0
2, 46720, Note_on_c, 0, 57, 99
2, 46800, Note_on_c, 0, 57, 0
2, 46880, Note_on_c, 0, 55, 100
2, 46960, Note_on_c, 0, 55, 0
2, 47040, Note_on_c, 0, 53, 102
2, 47342, Note_on_c, 0, 53, 0
2, 47520, Note_on_c, 0, 58, 102
2, 47600, Note_on_c, 0, 58, 0
2, 47680, Note_on_c, 0, 53, 104
2, 47760, Note_on_c, 0, 53, 0
2, 47840, Note_on_c, 0, 50, 106
2, 47920, Note_on_c, 0, 50, 0
2, 48000, Note_on_c, 0, 46, 109
2, 48080, Note_on_c, 0, 46, 0
2, 48160, Note_on_c, 0, 50, 109
2, 48240, Note_on_c, 0, 50, 0
2, 48320, Note_on_c, 0, 53, 109
2, 48400, Note_on_c, 0, 53, 0
2, 48480, Note_on_c, 0, 58, 108
2, 48560, Note_on_c, 0, 58, 0
2, 48640, Note_on_c, 0, 62, 106
2, 48720, Note_on_c, 0, 62, 0
2, 48800, Note_on_c, 0, 65, 105
2, 48960, Note_on_c, 0, 63, 105
2, 49000, Note_on_c, 0, 65, 0
2, 49040, Note_on_c, 0, 63, 0
2, 49120, Note_on_c, 0, 60, 105
2, 49200, Note_on_c, 0, 60, 0
2, 49280, Note_on_c, 0, 58, 106
2, 49360, Note_on_c, 0, 58, 0
2, 49440, Note_on_c, 0, 57, 107
2, 49520, Note_on_c, 0, 57, 0
2, 49600, Note_on_c, 0, 60, 107
2, 49680, Note_on_c, 0, 60, 0
2, 49760, Note_on_c, 0, 55, 106
2, 49920, Note_on_c, 0, 53, 106
2, 49952, Note_on_c, 0, 55, 0
2, 50000, Note_on_c, 0, 53, 0
2, 50080, Note_on_c, 0, 60, 106
2, 50160, Note_on_c, 0, 60, 0
2, 50240, Note_on_c, 0, 51, 107
2, 50400, Note_on_c, 0, 50, 107
2, 50412, Note_on_c, 0, 51, 0
2, 50480, Note_on_c, 0, 50, 0
2, 50560, Note_on_c, 0, 58, 107
2, 50640, Note_on_c, 0, 58, 0
2, 50720, Note_on_c, 0, 53, 107
2, 50800, Note_on_c, 0, 53, 0
2, 50880, Note_on_c, 0, 62, 106
2, 51012, Note_on_c, 0, 60, 106
2, 51035, Note_on_c, 0, 62, 0
2, 51080, Note_on_c, 0, 62, 106
2, 51099, Note_on_c, 0, 60, 0
2, 51140, Note_on_c, 0, 60, 106
2, 51167, Note_on_c, 0, 62, 0
2, 51200, Note_on_c, 0, 62, 106
2, 51225, Note_on_c, 0, 60, 0
2, 51260, Note_on_c, 0, 60, 106
2, 51287, Note_on_c, 0, 62, 0
2, 51312, Note_on_c, 0, 62, 105
2, 51345, Note_on_c, 0, 60, 0
2, 51365, Note_on_c, 0, 60, 105
2, 51399, Note_on_c, 0, 62, 0
2, 51422, Note_on_c, 0, 62, 105
2, 51452, Note_on_c, 0, 60, 0
2, 51467, Note_on_c, 0, 60, 105
2, 51507, Note_on_c, 0, 62, 0
2, 51512, Note_on_c, 0, 62, 105
2, 51549, Note_on_c, 0, 60, 0
2, 51570, Note_on_c, 0, 60, 105
2, 51589, Note_on_c, 0, 62, 0
2, 51605, Note_on_c, 0, 62, 105
2, 51650, Note_on_c, 0, 60, 0
2, 51657, Note_on_c, 0, 60, 103
2, 51685, Note_on_c, 0, 62, 0
2, 51702, Note_on_c, 0, 58, 103
2, 51724, Note_on_c, 0, 60, 0
2, 51767, Note_on_c, 0, 60, 103
2, 51787, Note_on_c, 0, 58, 0
2, 51840, Note_on_c, 0, 58, 101
2, 51852, Note_on_c, 0, 60, 0
2, 52390, Note_on_c, 0, 58, 0
2, 53280, Note_on_c, 0, 58, 102
2, 53400, Note_on_c, 0, 53, 103
2, 53435, Note_on_c, 0, 58, 0
2, 53495, Note_on_c, 0, 53, 0
2, 53520, Note_on_c, 0, 55, 105
2, 53640, Note_on_c, 0, 55, 0
2, 53640, Note_on_c, 0, 57, 107
2, 53740, Note_on_c, 0, 57, 0
2, 53760, Note_on_c, 0, 58, 108
2, 53860, Note_on_c, 0, 58, 0
2, 53880, Note_on_c, 0, 60, 110
2, 53980, Note_on_c, 0, 60, 0
2, 54000, Note_on_c, 0, 62, 112
2, 54100, Note_on_c, 0, 62, 0
2, 54120, Note_on_c, 0, 64, 112
2, 54220, Note_on_c, 0, 64, 0
2, 54240, Note_on_c, 0, 65, 114
2, 54325, Note_on_c, 0, 65, 0
2, 54480, Note_on_c, 0, 65, 114
2, 54582, Note_on_c, 0, 65, 0
2, 54720, Note_on_c, 0, 65, 101
2, 54960, Note_on_c, 0, 60, 102
2, 54995, Note_on_c, 0, 65, 0
2, 55107, Note_on_c, 0, 60, 0
2, 55200, Note_on_c, 0, 60, 101
2, 55975, Note_on_c, 0, 60, 0
2, 56160, Note_on_c, 0, 58, 104
2, 56280, Note_on_c, 0, 60, 108
2, 56315, Note_on_c, 0, 58, 0
2, 56400, Note_on_c, 0, 60, 0
2, 56400, Note_on_c, 0, 58, 108
2, 56520, Note_on_c, 0, 58, 0
2, 56520, Note_on_c, 0, 57, 108
2, 56640, Note_on_c, 0, 57, 0
2, 56640, Note_on_c, 0, 55, 106
2, 56760, Note_on_c, 0, 57, 102
2, 56795, Note_on_c, 0, 55, 0
2, 56880, Note_on_c, 0, 57, 0
2, 56880, Note_on_c, 0, 55, 99
2, 57000, Note_on_c, 0, 55, 0
2, 57000, Note_on_c, 0, 53, 99
2, 57120, Note_on_c, 0, 53, 0
2, 57120, Note_on_c, 0, 52, 96
2, 57242, Note_on_c, 0, 52, 0
2, 57360, Note_on_c, 0, 58, 102
2, 57477, Note_on_c, 0, 58, 0
2, 57600, Note_on_c, 0, 58, 111
2, 57692, Note_on_c, 0, 57, 113
2, 57720, Note_on_c, 0, 58, 0
2, 57740, Note_on_c, 0, 58, 113
2, 57767, Note_on_c, 0, 57, 0
2, 57795, Note_on_c, 0, 57, 113
2, 57812, Note_on_c, 0, 58, 0
2, 57840, Note_on_c, 0, 58, 112
2, 57870, Note_on_c, 0, 57, 0
2, 57900, Note_on_c, 0, 57, 107
2, 57915, Note_on_c, 0, 58, 0
2, 57960, Note_on_c, 0, 55, 105
2, 57982, Note_on_c, 0, 57, 0
2, 58020, Note_on_c, 0, 55, 0
2, 58020, Note_on_c, 0, 57, 102
2, 58080, Note_on_c, 0, 57, 0
2, 58080, Note_on_c, 0, 55, 99
2, 58560, Note_on_c, 0, 55, 0
2, 59040, Note_on_c, 0, 60, 113
2, 61715, Note_on_c, 0, 60, 0
2, 61922, Note_on_c, 0, 62, 101
2, 62115, Note_on_c, 0, 60, 101
2, 62139, Note_on_c, 0, 62, 0
2, 62235, Note_on_c, 0, 62, 101
2, 62260, Note_on_c, 0, 60, 0
2, 62315, Note_on_c, 0, 60, 101
2, 62355, Note_on_c, 0, 62, 0
2, 62420, Note_on_c, 0, 62, 101
2, 62455, Note_on_c, 0, 60, 0
2, 62500, Note_on_c, 0, 60, 101
2, 62530, Note_on_c, 0, 62, 0
2, 62562, Note_on_c, 0, 62, 101
2, 62607, Note_on_c, 0, 60, 0
2, 62627, Note_on_c, 0, 60, 101
2, 62652, Note_on_c, 0, 62, 0
2, 62685, Note_on_c, 0, 62, 101
2, 62709, Note_on_c, 0, 60, 0
2, 62730, Note_on_c, 0, 60, 101
2, 62765, Note_on_c, 0, 62, 0
2, 62785, Note_on_c, 0, 62, 103
2, 62810, Note_on_c, 0, 60, 0
2, 62832, Note_on_c, 0, 60, 103
2, 62865, Note_on_c, 0, 62, 0
2, 62875, Note_on_c, 0, 62, 103
2, 62912, Note_on_c, 0, 60, 0
2, 62925, Note_on_c, 0, 60, 103
2, 62955, Note_on_c, 0, 62, 0
2, 62970, Note_on_c, 0, 62, 103
2, 63005, Note_on_c, 0, 60, 0
2, 63022, Note_on_c, 0, 60, 103
2, 63050, Note_on_c, 0, 62, 0
2, 63067, Note_on_c, 0, 62, 103
2, 63102, Note_on_c, 0, 60, 0
2, 63127, Note_on_c, 0, 60, 103
2, 63147, Note_on_c, 0, 62, 0
2, 63170, Note_on_c, 0, 62, 103
2, 63207, Note_on_c, 0, 60, 0
2, 63235, Note_on_c, 0, 60, 103
2, 63250, Note_on_c, 0, 62, 0
2, 63275, Note_on_c, 0, 62, 103
2, 63315, Note_on_c, 0, 60, 0
2, 63335, Note_on_c, 0, 60, 103
2, 63355, Note_on_c, 0, 62, 0
2, 63372, Note_on_c, 0, 62, 103
2, 63415, Note_on_c, 0, 60, 0
2, 63435, Note_on_c, 0, 60, 103
2, 63452, Note_on_c, 0, 62, 0
2, 63475, Note_on_c, 0, 62, 103
2, 63515, Note_on_c, 0, 60, 0
2, 63535, Note_on_c, 0, 60, 102
2, 63555, Note_on_c, 0, 62, 0
2, 63570, Note_on_c, 0, 62, 102
2, 63615, Note_on_c, 0, 60, 0
2, 63635, Note_on_c, 0, 60, 102
2, 63650, Note_on_c, 0, 62, 0
2, 63675, Note_on_c, 0, 62, 102
2, 63715, Note_on_c, 0, 60, 0
2, 63735, Note_on_c, 0, 60, 100
2, 63755, Note_on_c, 0, 62, 0
2, 63772, Note_on_c, 0, 62, 100
2, 63815, Note_on_c, 0, 60, 0
2, 63840, Note_on_c, 0, 60, 99
2, 63852, Note_on_c, 0, 62, 0
2, 63885, Note_on_c, 0, 62, 99
2, 63920, Note_on_c, 0, 60, 0
2, 63962, Note_on_c, 0, 60, 97
2, 63972, Note_on_c, 0, 62, 0
2, 64012, Note_on_c, 0, 62, 97
2, 64042, Note_on_c, 0, 60, 0
2, 64070, Note_on_c, 0, 60, 95
2, 64092, Note_on_c, 0, 62, 0
2, 64130, Note_on_c, 0, 62, 95
2, 64150, Note_on_c, 0, 60, 0
2, 64180, Note_on_c, 0, 60, 95
2, 64210, Note_on_c, 0, 62, 0
2, 64242, Note_on_c, 0, 62, 93
2, 64260, Note_on_c, 0, 60, 0
2, 64297, Note_on_c, 0, 60, 93
2, 64322, Note_on_c, 0, 62, 0
2, 64347, Note_on_c, 0, 62, 93
2, 64377, Note_on_c, 0, 60, 0
2, 64390, Note_on_c, 0, 60, 92
2, 64427, Note_on_c, 0, 62, 0
2, 64445, Note_on_c, 0, 62, 92
2, 64470, Note_on_c, 0, 60, 0
2, 64490, Note_on_c, 0, 60, 92
2, 64525, Note_on_c, 0, 62, 0
2, 64547, Note_on_c, 0, 62, 92
2, 64570, Note_on_c, 0, 60, 0
2, 64595, Note_on_c, 0, 60, 92
2, 64627, Note_on_c, 0, 62, 0
2, 64650, Note_on_c, 0, 62, 92
2, 64695, Note_on_c, 0, 60, 0
2, 64715, Note_on_c, 0, 60, 92
2, 64730, Note_on_c, 0, 62, 0
2, 65000, Note_on_c, 0, 60, 0
2, 65040, Note_on_c, 0, 62, 101
2, 65130, Note_on_c, 0, 62, 0
2, 65160, Note_on_c, 0, 64, 108
2, 65250, Note_on_c, 0, 64, 0
2, 65280, Note_on_c, 0, 65, 115
2, 65400, Note_on_c, 0, 64, 118
2, 65432, Note_on_c, 0, 65, 0
2, 65490, Note_on_c, 0, 64, 0
2, 65520, Note_on_c, 0, 62, 118
2, 65610, Note_on_c, 0, 62, 0
2, 65640, Note_on_c, 0, 60, 116
2, 65730, Note_on_c, 0, 60, 0
2, 65760, Note_on_c, 0, 58, 111
2, 65850, Note_on_c, 0, 58, 0
2, 65880, Note_on_c, 0, 57, 109
2, 65970, Note_on_c, 0, 57, 0
2, 66000, Note_on_c, 0, 55, 107
2, 66090, Note_on_c, 0, 55, 0
2, 66120, Note_on_c, 0, 53, 106
2, 66210, Note_on_c, 0, 53, 0
2, 66240, Note_on_c, 0, 55, 104
2, 66360, Note_on_c, 0, 54, 102
2, 66407, Note_on_c, 0, 55, 0
2, 66450, Note_on_c, 0, 54, 0
2, 66480, Note_on_c, 0, 55, 101
2, 66570, Note_on_c, 0, 55, 0
2, 66600, Note_on_c, 0, 57, 101
2, 66690, Note_on_c, 0, 57, 0
2, 66720, Note_on_c, 0, 58, 101
2, 66840, Note_on_c, 0, 57, 101
2, 66880, Note_on_c, 0, 58, 0
2, 66930, Note_on_c, 0, 57, 0
2, 66960, Note_on_c, 0, 58, 99
2, 67050, Note_on_c, 0, 58, 0
2, 67080, Note_on_c, 0, 60, 99
2, 67170, Note_on_c, 0, 60, 0
2, 67200, Note_on_c, 0, 62, 97
2, 67405, Note_on_c, 0, 62, 0
2, 67560, Note_on_c, 0, 62, 102
2, 67680, Note_on_c, 0, 62, 0
2, 67680, Note_on_c, 0, 60, 100
2, 68040, Note_on_c, 0, 62, 106
2, 68095, Note_on_c, 0, 60, 0
2, 68160, Note_on_c, 0, 62, 0
2, 68160, Note_on_c, 0, 53, 105
2, 68640, Note_on_c, 0, 52, 107
2, 68702, Note_on_c, 0, 53, 0
2, 69007, Note_on_c, 0, 52, 0
2, 69120, Note_on_c, 0, 60, 107
2, 69320, Note_on_c, 0, 60, 0
2, 69360, Note_on_c, 0, 62, 96
2, 69440, Note_on_c, 0, 62, 0
2, 69480, Note_on_c, 0, 64, 98
2, 69560, Note_on_c, 0, 64, 0
2, 69600, Note_on_c, 0, 65, 102
2, 69720, Note_on_c, 0, 64, 104
2, 69782, Note_on_c, 0, 65, 0
2, 69840, Note_on_c, 0, 64, 0
2, 69840, Note_on_c, 0, 62, 104
2, 69935, Note_on_c, 0, 62, 0
2, 69960, Note_on_c, 0, 60, 105
2, 70055, Note_on_c, 0, 60, 0
2, 70080, Note_on_c, 0, 58, 107
2, 70175, Note_on_c, 0, 58, 0
2, 70200, Note_on_c, 0, 57, 109
2, 70295, Note_on_c, 0, 57, 0
2, 70320, Note_on_c, 0, 55, 109
2, 70415, Note_on_c, 0, 55, 0
2, 70440, Note_on_c, 0, 53, 108
2, 70535, Note_on_c, 0, 53, 0
2, 70560, Note_on_c, 0, 55, 106
2, 70680, Note_on_c, 0, 54, 106
2, 70720, Note_on_c, 0, 55, 0
2, 70775, Note_on_c, 0, 54, 0
2, 70800, Note_on_c, 0, 55, 105
2, 70895, Note_on_c, 0, 55, 0
2, 70920, Note_on_c, 0, 57, 103
2, 71015, Note_on_c, 0, 57, 0
2, 71040, Note_on_c, 0, 58, 103
2, 71160, Note_on_c, 0, 57, 101
2, 71185, Note_on_c, 0, 58, 0
2, 71255, Note_on_c, 0, 57, 0
2, 71280, Note_on_c, 0, 58, 100
2, 71375, Note_on_c, 0, 58, 0
2, 71400, Note_on_c, 0, 60, 100
2, 71495, Note_on_c, 0, 60, 0
2, 71520, Note_on_c, 0, 62, 98
2, 71760, Note_on_c, 0, 62, 0
2, 72000, Note_on_c, 0, 55, 108
2, 72120, Note_on_c, 0, 54, 112
2, 72160, Note_on_c, 0, 55, 0
2, 72195, Note_on_c, 0, 54, 0
2, 72240, Note_on_c, 0, 55, 114
2, 72315, Note_on_c, 0, 55, 0
2, 72360, Note_on_c, 0, 57, 116
2, 72435, Note_on_c, 0, 57, 0
2, 72480, Note_on_c, 0, 58, 116
2, 72600, Note_on_c, 0, 57, 114
2, 72625, Note_on_c, 0, 58, 0
2, 72675, Note_on_c, 0, 57, 0
2, 72720, Note_on_c, 0, 58, 113
2, 72795, Note_on_c, 0, 58, 0
2, 72840, Note_on_c, 0, 60, 109
2, 72915, Note_on_c, 0, 60, 0
2, 72960, Note_on_c, 0, 62, 107
2, 73145, Note_on_c, 0, 62, 0
2, 73320, Note_on_c, 0, 62, 115
2, 73440, Note_on_c, 0, 62, 0
2, 73440, Note_on_c, 0, 60, 113
2, 73800, Note_on_c, 0, 60, 0
2, 73800, Note_on_c, 0, 62, 113
2, 73920, Note_on_c, 0, 62, 0
2, 73920, Note_on_c, 0, 53, 113
2, 74400, Note_on_c, 0, 53, 0
2, 74400, Note_on_c, 0, 52, 113
2, 74780, Note_on_c, 0, 52, 0
2, 74880, Note_on_c, 0, 52, 117
2, 75360, Note_on_c, 0, 53, 115
2, 75405, Note_on_c, 0, 52, 0
2, 75840, Note_on_c, 0, 53, 0
2, 76320, Note_on_c, 0, 53, 109
2, 76480, Note_on_c, 0, 65, 111
2, 76525, Note_on_c, 0, 53, 0
2, 76590, Note_on_c, 0, 65, 0
2, 76640, Note_on_c, 0, 65, 112
2, 76750, Note_on_c, 0, 65, 0
2, 76800, Note_on_c, 0, 65, 112
2, 76887, Note_on_c, 0, 65, 0
2, 76960, Note_on_c, 0, 67, 116
2, 77047, Note_on_c, 0, 67, 0
2, 77120, Note_on_c, 0, 65, 119
2, 77207, Note_on_c, 0, 65, 0
2, 77280, Note_on_c, 0, 63, 115
2, 77367, Note_on_c, 0, 63, 0
2, 77440, Note_on_c, 0, 62, 115
2, 77527, Note_on_c, 0, 62, 0
2, 77600, Note_on_c, 0, 60, 114
2, 77687, Note_on_c, 0, 60, 0
2, 77760, Note_on_c, 0, 59, 114
2, 77920, Note_on_c, 0, 55, 114
2, 77972, Note_on_c, 0, 59, 0
2, 78052, Note_on_c, 0, 55, 0
2, 78080, Note_on_c, 0, 55, 113
2, 78197, Note_on_c, 0, 55, 0
2, 78240, Note_on_c, 0, 55, 113
2, 78320, Note_on_c, 0, 55, 0
2, 78400, Note_on_c, 0, 56, 113
2, 78480, Note_on_c, 0, 56, 0
2, 78560, Note_on_c, 0, 55, 113
2, 78647, Note_on_c, 0, 55, 0
2, 78720, Note_on_c, 0, 53, 113
2, 78807, Note_on_c, 0, 53, 0
2, 78880, Note_on_c, 0, 51, 113
2, 78967, Note_on_c, 0, 51, 0
2, 79040, Note_on_c, 0, 50, 113
2, 79127, Note_on_c, 0, 50, 0
2, 79200, Note_on_c, 0, 48, 113
2, 79360, Note_on_c, 0, 48, 0
2, 79360, Note_on_c, 0, 63, 113
2, 79485, Note_on_c, 0, 63, 0
2, 79520, Note_on_c, 0, 63, 112
2, 79620, Note_on_c, 0, 63, 0
2, 79680, Note_on_c, 0, 63, 112
2, 79780, Note_on_c, 0, 63, 0
2, 79840, Note_on_c, 0, 65, 110
2, 79927, Note_on_c, 0, 65, 0
2, 80000, Note_on_c, 0, 63, 108
2, 80087, Note_on_c, 0, 63, 0
2, 80160, Note_on_c, 0, 62, 107
2, 80247, Note_on_c, 0, 62, 0
2, 80320, Note_on_c, 0, 60, 107
2, 80407, Note_on_c, 0, 60, 0
2, 80480, Note_on_c, 0, 58, 107
2, 80567, Note_on_c, 0, 58, 0
2, 80640, Note_on_c, 0, 57, 107
2, 80800, Note_on_c, 0, 53, 107
2, 80837, Note_on_c, 0, 57, 0
2, 80910, Note_on_c, 0, 53, 0
2, 80960, Note_on_c, 0, 53, 107
2, 81077, Note_on_c, 0, 53, 0
2, 81120, Note_on_c, 0, 53, 107
2, 81200, Note_on_c, 0, 53, 0
2, 81280, Note_on_c, 0, 55, 107
2, 81367, Note_on_c, 0, 55, 0
2, 81440, Note_on_c, 0, 53, 107
2, 81527, Note_on_c, 0, 53, 0
2, 81600, Note_on_c, 0, 51, 109
2, 81687, Note_on_c, 0, 51, 0
2, 81760, Note_on_c, 0, 50, 112
2, 81847, Note_on_c, 0, 50, 0
2, 81920, Note_on_c, 0, 48, 114
2, 82007, Note_on_c, 0, 48, 0
2, 82080, Note_on_c, 0, 46, 114
2, 82240, Note_on_c, 0, 50, 114
2, 82300, Note_on_c, 0, 46, 0
2, 82400, Note_on_c, 0, 50, 0
2, 82400, Note_on_c, 0, 53, 114
2, 82500, Note_on_c, 0, 53, 0
2, 82560, Note_on_c, 0, 58, 114
2, 82660, Note_on_c, 0, 58, 0
2, 82720, Note_on_c, 0, 62, 114
2, 82820, Note_on_c, 0, 62, 0
2, 82880, Note_on_c, 0, 65, 113
2, 82997, Note_on_c, 0, 65, 0
2, 83040, Note_on_c, 0, 67, 113
2, 83200, Note_on_c, 0, 63, 112
2, 83245, Note_on_c, 0, 67, 0
2, 83360, Note_on_c, 0, 60, 110
2, 83390, Note_on_c, 0, 63, 0
2, 83470, Note_on_c, 0, 60, 0
2, 83520, Note_on_c, 0, 58, 108
2, 84480, Note_on_c, 0, 57, 100
2, 84525, Note_on_c, 0, 58, 0
2, 84960, Note_on_c, 0, 57, 0
2, 96480, Note_on_c, 0, 62, 112
2, 96960, Note_on_c, 0, 62, 0
2, 96960, Note_on_c, 0, 60, 114
2, 97080, Note_on_c, 0, 58, 114
2, 97132, Note_on_c, 0, 60, 0
2, 97420, Note_on_c, 0, 58, 0
2, 97440, Note_on_c, 0, 57, 111
2, 97560, Note_on_c, 0, 55, 110
2, 97605, Note_on_c, 0, 57, 0
2, 97900, Note_on_c, 0, 55, 0
2, 97920, Note_on_c, 0, 54, 108
2, 98040, Note_on_c, 0, 57, 108
2, 98092, Note_on_c, 0, 54, 0
2, 98160, Note_on_c, 0, 60, 108
2, 98205, Note_on_c, 0, 57, 0
2, 98280, Note_on_c, 0, 63, 108
2, 98325, Note_on_c, 0, 60, 0
2, 98372, Note_on_c, 0, 63, 0
2, 98400, Note_on_c, 0, 63, 108
2, 99165, Note_on_c, 0, 63, 0
2, 99360, Note_on_c, 0, 62, 105
2, 99840, Note_on_c, 0, 62, 0
2, 99840, Note_on_c, 0, 60, 105
2, 99960, Note_on_c, 0, 58, 105
2, 100012, Note_on_c, 0, 60, 0
2, 100285, Note_on_c, 0, 58, 0
2, 100320, Note_on_c, 0, 57, 106
2, 100440, Note_on_c, 0, 55, 106
2, 100470, Note_on_c, 0, 57, 0
2, 100762, Note_on_c, 0, 55, 0
2, 100800, Note_on_c, 0, 54, 113
2, 100920, Note_on_c, 0, 57, 113
2, 100950, Note_on_c, 0, 54, 0
2, 101040, Note_on_c, 0, 60, 115
2, 101060, Note_on_c, 0, 57, 0
2, 101160, Note_on_c, 0, 63, 118
2, 101180, Note_on_c, 0, 60, 0
2, 101252, Note_on_c, 0, 63, 0
2, 101280, Note_on_c, 0, 63, 120
2, 102020, Note_on_c, 0, 63, 0
2, 102240, Note_on_c, 0, 62, 121
2, 102480, Note_on_c, 0, 67, 121
2, 102517, Note_on_c, 0, 62, 0
2, 102660, Note_on_c, 0, 67, 0
2, 102720, Note_on_c, 0, 67, 121
2, 102960, Note_on_c, 0, 66, 120
2, 103000, Note_on_c, 0, 67, 0
2, 103200, Note_on_c, 0, 66, 0
2, 103450, Note_on_c, 0, 63, 115
2, 103565, Note_on_c, 0, 63, 0
2, 103680, Note_on_c, 0, 63, 113
2, 103920, Note_on_c, 0, 62, 112
2, 103960, Note_on_c, 0, 63, 0
2, 104080, Note_on_c, 0, 62, 0
2, 104160, Note_on_c, 0, 62, 110
2, 104400, Note_on_c, 0, 60, 110
2, 104455, Note_on_c, 0, 62, 0
2, 104640, Note_on_c, 0, 60, 0
2, 104880, Note_on_c, 0, 58, 108
2, 105022, Note_on_c, 0, 58, 0
2, 105120, Note_on_c, 0, 58, 108
2, 105360, Note_on_c, 0, 57, 108
2, 105390, Note_on_c, 0, 58, 0
2, 105542, Note_on_c, 0, 57, 0
2, 105600, Note_on_c, 0, 57, 108
2, 105840, Note_on_c, 0, 55, 108
2, 105862, Note_on_c, 0, 57, 0
2, 105990, Note_on_c, 0, 55, 0
2, 106080, Note_on_c, 0, 55, 108
2, 106320, Note_on_c, 0, 54, 108
2, 106360, Note_on_c, 0, 55, 0
2, 106455, Note_on_c, 0, 54, 0
2, 106560, Note_on_c, 0, 54, 108
2, 107520, Note_on_c, 0, 55, 105
2, 107560, Note_on_c, 0, 54, 0
2, 107822, Note_on_c, 0, 55, 0
2, 108000, Note_on_c, 0, 58, 105
2, 109610, Note_on_c, 0, 58, 0
2, 109680, Note_on_c, 0, 57, 105
2, 109920, Note_on_c, 0, 58, 105
2, 109967, Note_on_c, 0, 57, 0
2, 110160, Note_on_c, 0, 57, 105
2, 110190, Note_on_c, 0, 58, 0
2, 110400, Note_on_c, 0, 58, 107
2, 110440, Note_on_c, 0, 57, 0
2, 110640, Note_on_c, 0, 59, 109
2, 110687, Note_on_c, 0, 58, 0
2, 110870, Note_on_c, 0, 59, 0
2, 110880, Note_on_c, 0, 60, 110
2, 112430, Note_on_c, 0, 60, 0
2, 112560, Note_on_c, 0, 59, 112
2, 112800, Note_on_c, 0, 60, 111
2, 112855, Note_on_c, 0, 59, 0
2, 113040, Note_on_c, 0, 60, 0
2, 113040, Note_on_c, 0, 59, 111
2, 113280, Note_on_c, 0, 60, 111
2, 113335, Note_on_c, 0, 59, 0
2, 113520, Note_on_c, 0, 61, 110
2, 113575, Note_on_c, 0, 60, 0
2, 113760, Note_on_c, 0, 62, 110
2, 113762, Note_on_c, 0, 61, 0
2, 115322, Note_on_c, 0, 62, 0
2, 115440, Note_on_c, 0, 61, 106
2, 115680, Note_on_c, 0, 62, 107
2, 115740, Note_on_c, 0, 61, 0
2, 115920, Note_on_c, 0, 61, 107
2, 115962, Note_on_c, 0, 62, 0
2, 116160, Note_on_c, 0, 62, 107
2, 116202, Note_on_c, 0, 61, 0
2, 116400, Note_on_c, 0, 61, 109
2, 116435, Note_on_c, 0, 62, 0
2, 116540, Note_on_c, 0, 61, 0
2, 116640, Note_on_c, 0, 62, 110
2, 117120, Note_on_c, 0, 62, 0
2, 117120, Note_on_c, 0, 60, 112
2, 117240, Note_on_c, 0, 58, 112
2, 117275, Note_on_c, 0, 60, 0
2, 117570, Note_on_c, 0, 58, 0
2, 117600, Note_on_c, 0, 57, 111
2, 117720, Note_on_c, 0, 55, 111
2, 117747, Note_on_c, 0, 57, 0
2, 118027, Note_on_c, 0, 55, 0
2, 118080, Note_on_c, 0, 54, 111
2, 118200, Note_on_c, 0, 57, 111
2, 118227, Note_on_c, 0, 54, 0
2, 118320, Note_on_c, 0, 60, 111
2, 118347, Note_on_c, 0, 57, 0
2, 118440, Note_on_c, 0, 63, 111
2, 118467, Note_on_c, 0, 60, 0
2, 118515, Note_on_c, 0, 63, 0
2, 118560, Note_on_c, 0, 63, 111
2, 119310, Note_on_c, 0, 63, 0
2, 119520, Note_on_c, 0, 62, 115
2, 120000, Note_on_c, 0, 62, 0
2, 120000, Note_on_c, 0, 60, 115
2, 120120, Note_on_c, 0, 58, 115
2, 120162, Note_on_c, 0, 60, 0
2, 120480, Note_on_c, 0, 58, 0
2, 120480, Note_on_c, 0, 57, 115
2, 120600, Note_on_c, 0, 55, 115
2, 120625, Note_on_c, 0, 57, 0
2, 120905, Note_on_c, 0, 55, 0
2, 120960, Note_on_c, 0, 54, 115
2, 121080, Note_on_c, 0, 57, 115
2, 121105, Note_on_c, 0, 54, 0
2, 121200, Note_on_c, 0, 60, 115
2, 121225, Note_on_c, 0, 57, 0
2, 121320, Note_on_c, 0, 63, 115
2, 121337, Note_on_c, 0, 60, 0
2, 121395, Note_on_c, 0, 63, 0
2, 121440, Note_on_c, 0, 63, 115
2, 122210, Note_on_c, 0, 63, 0
2, 122400, Note_on_c, 0, 62, 120
2, 122640, Note_on_c, 0, 67, 120
2, 122665, Note_on_c, 0, 62, 0
2, 122825, Note_on_c, 0, 67, 0
2, 122880, Note_on_c, 0, 67, 120
2, 123120, Note_on_c, 0, 66, 120
2, 123162, Note_on_c, 0, 67, 0
2, 123322, Note_on_c, 0, 66, 0
2, 123600, Note_on_c, 0, 63, 119
2, 123722, Note_on_c, 0, 63, 0
2, 123840, Note_on_c, 0, 63, 118
2, 124080, Note_on_c, 0, 62, 118
2, 124115, Note_on_c, 0, 63, 0
2, 124210, Note_on_c, 0, 62, 0
2, 124320, Note_on_c, 0, 62, 116
2, 124560, Note_on_c, 0, 62, 0
2, 124560, Note_on_c, 0, 60, 114
2, 124800, Note_on_c, 0, 60, 0
2, 125040, Note_on_c, 0, 58, 111
2, 125160, Note_on_c, 0, 58, 0
2, 125280, Note_on_c, 0, 58, 109
2, 125520, Note_on_c, 0, 57, 108
2, 125560, Note_on_c, 0, 58, 0
2, 125680, Note_on_c, 0, 57, 0
2, 125760, Note_on_c, 0, 57, 106
2, 126000, Note_on_c, 0, 55, 104
2, 126025, Note_on_c, 0, 57, 0
2, 126170, Note_on_c, 0, 55, 0
2, 126240, Note_on_c, 0, 55, 104
2, 126480, Note_on_c, 0, 54, 102
2, 126505, Note_on_c, 0, 55, 0
2, 126617, Note_on_c, 0, 54, 0
2, 126720, Note_on_c, 0, 54, 102
2, 127680, Note_on_c, 0, 55, 102
2, 127745, Note_on_c, 0, 54, 0
2, 128160, Note_on_c, 0, 55, 0
2, 139680, Note_on_c, 0, 58, 127
2, 139800, Note_on_c, 0, 57, 127
2, 139845, Note_on_c, 0, 58, 0
2, 139902, Note_on_c, 0, 57, 0
2, 139920, Note_on_c, 0, 58, 127
2, 139997, Note_on_c, 0, 58, 0
2, 140040, Note_on_c, 0, 60, 127
2, 140102, Note_on_c, 0, 60, 0
2, 140160, Note_on_c, 0, 62, 127
2, 140280, Note_on_c, 0, 60, 127
2, 140310, Note_on_c, 0, 62, 0
2, 140365, Note_on_c, 0, 60, 0
2, 140400, Note_on_c, 0, 62, 126
2, 140455, Note_on_c, 0, 62, 0
2, 140520, Note_on_c, 0, 63, 125
2, 140590, Note_on_c, 0, 63, 0
2, 140640, Note_on_c, 0, 65, 125
2, 141030, Note_on_c, 0, 65, 0
2, 141120, Note_on_c, 0, 63, 123
2, 141240, Note_on_c, 0, 65, 123
2, 141262, Note_on_c, 0, 63, 0
2, 141340, Note_on_c, 0, 65, 0
2, 141360, Note_on_c, 0, 63, 127
2, 141430, Note_on_c, 0, 63, 0
2, 141480, Note_on_c, 0, 62, 127
2, 141542, Note_on_c, 0, 62, 0
2, 141600, Note_on_c, 0, 60, 127
2, 141720, Note_on_c, 0, 62, 127
2, 141757, Note_on_c, 0, 60, 0
2, 141820, Note_on_c, 0, 62, 0
2, 141840, Note_on_c, 0, 60, 127
2, 141917, Note_on_c, 0, 60, 0
2, 141960, Note_on_c, 0, 58, 127
2, 142030, Note_on_c, 0, 58, 0
2, 142080, Note_on_c, 0, 57, 127
2, 142470, Note_on_c, 0, 57, 0
2, 142560, Note_on_c, 0, 58, 127
2, 142680, Note_on_c, 0, 58, 0
2, 142680, Note_on_c, 0, 60, 127
2, 142780, Note_on_c, 0, 60, 0
2, 142800, Note_on_c, 0, 58, 127
2, 142880, Note_on_c, 0, 58, 0
2, 142920, Note_on_c, 0, 57, 127
2, 142995, Note_on_c, 0, 57, 0
2, 143040, Note_on_c, 0, 55, 127
2, 143280, Note_on_c, 0, 60, 127
2, 143285, Note_on_c, 0, 55, 0
2, 143365, Note_on_c, 0, 60, 0
2, 143400, Note_on_c, 0, 62, 127
2, 143477, Note_on_c, 0, 62, 0
2, 143520, Note_on_c, 0, 63, 127
2, 143640, Note_on_c, 0, 62, 127
2, 143677, Note_on_c, 0, 63, 0
2, 143740, Note_on_c, 0, 62, 0
2, 143760, Note_on_c, 0, 60, 127
2, 143860, Note_on_c, 0, 60, 0
2, 143880, Note_on_c, 0, 58, 127
2, 143957, Note_on_c, 0, 58, 0
2, 144000, Note_on_c, 0, 57, 127
2, 144120, Note_on_c, 0, 58, 127
2, 144142, Note_on_c, 0, 57, 0
2, 144197, Note_on_c, 0, 58, 0
2, 144240, Note_on_c, 0, 60, 127
2, 144317, Note_on_c, 0, 60, 0
2, 144360, Note_on_c, 0, 58, 127
2, 144437, Note_on_c, 0, 58, 0
2, 144480, Note_on_c, 0, 57, 127
2, 144600, Note_on_c, 0, 58, 127
2, 144630, Note_on_c, 0, 57, 0
2, 144677, Note_on_c, 0, 58, 0
2, 144720, Note_on_c, 0, 57, 127
2, 144797, Note_on_c, 0, 57, 0
2, 144840, Note_on_c, 0, 55, 127
2, 144917, Note_on_c, 0, 55, 0
2, 144960, Note_on_c, 0, 53, 127
2, 145270, Note_on_c, 0, 53, 0
2, 145440, Note_on_c, 0, 58, 127
2, 145560, Note_on_c, 0, 57, 127
2, 145597, Note_on_c, 0, 58, 0
2, 145637, Note_on_c, 0, 57, 0
2, 145680, Note_on_c, 0, 58, 127
2, 145757, Note_on_c, 0, 58, 0
2, 145800, Note_on_c, 0, 60, 127
2, 145877, Note_on_c, 0, 60, 0
2, 145920, Note_on_c, 0, 62, 127
2, 146040, Note_on_c, 0, 60, 127
2, 146060, Note_on_c, 0, 62, 0
2, 146117, Note_on_c, 0, 60, 0
2, 146160, Note_on_c, 0, 62, 127
2, 146237, Note_on_c, 0, 62, 0
2, 146280, Note_on_c, 0, 63, 127
2, 146357, Note_on_c, 0, 63, 0
2, 146400, Note_on_c, 0, 65, 127
2, 146580, Note_on_c, 0, 65, 0
2, 146640, Note_on_c, 0, 65, 127
2, 146837, Note_on_c, 0, 65, 0
2, 146880, Note_on_c, 0, 63, 127
2, 147000, Note_on_c, 0, 65, 127
2, 147037, Note_on_c, 0, 63, 0
2, 147092, Note_on_c, 0, 65, 0
2, 147120, Note_on_c, 0, 63, 127
2, 147212, Note_on_c, 0, 63, 0
2, 147240, Note_on_c, 0, 62, 127
2, 147332, Note_on_c, 0, 62, 0
2, 147360, Note_on_c, 0, 60, 127
2, 147480, Note_on_c, 0, 62, 127
2, 147492, Note_on_c, 0, 60, 0
2, 147572, Note_on_c, 0, 62, 0
2, 147600, Note_on_c, 0, 60, 127
2, 147677, Note_on_c, 0, 60, 0
2, 147720, Note_on_c, 0, 58, 127
2, 147780, Note_on_c, 0, 58, 0
2, 147840, Note_on_c, 0, 57, 127
2, 147997, Note_on_c, 0, 57, 0
2, 148080, Note_on_c, 0, 57, 127
2, 148230, Note_on_c, 0, 57, 0
2, 148320, Note_on_c, 0, 58, 114
2, 148680, Note_on_c, 0, 58, 0
2, 148680, Note_on_c, 0, 60, 113
2, 148800, Note_on_c, 0, 60, 0
2, 148800, Note_on_c, 0, 62, 115
2, 148915, Note_on_c, 0, 60, 117
2, 148940, Note_on_c, 0, 62, 0
2, 148960, Note_on_c, 0, 62, 118
2, 148982, Note_on_c, 0, 60, 0
2, 149012, Note_on_c, 0, 60, 118
2, 149045, Note_on_c, 0, 62, 0
2, 149070, Note_on_c, 0, 62, 120
2, 149087, Note_on_c, 0, 60, 0
2, 149107, Note_on_c, 0, 60, 120
2, 149145, Note_on_c, 0, 62, 0
2, 149175, Note_on_c, 0, 62, 120
2, 149182, Note_on_c, 0, 60, 0
2, 149220, Note_on_c, 0, 60, 120
2, 149250, Note_on_c, 0, 62, 0
2, 149287, Note_on_c, 0, 62, 120
2, 149295, Note_on_c, 0, 60, 0
2, 149340, Note_on_c, 0, 60, 120
2, 149362, Note_on_c, 0, 62, 0
2, 149397, Note_on_c, 0, 62, 120
2, 149415, Note_on_c, 0, 60, 0
2, 149445, Note_on_c, 0, 60, 119
2, 149472, Note_on_c, 0, 62, 0
2, 149515, Note_on_c, 0, 62, 119
2, 149520, Note_on_c, 0, 60, 0
2, 149557, Note_on_c, 0, 60, 119
2, 149595, Note_on_c, 0, 62, 0
2, 149612, Note_on_c, 0, 58, 118
2, 149644, Note_on_c, 0, 60, 0
2, 149672, Note_on_c, 0, 60, 114
2, 149709, Note_on_c, 0, 58, 0
2, 149760, Note_on_c, 0, 58, 112
2, 149764, Note_on_c, 0, 60, 0
2, 150240, Note_on_c, 0, 58, 0
2, 151200, Note_on_c, 0, 46, 111
2, 151290, Note_on_c, 0, 46, 0
2, 151360, Note_on_c, 0, 58, 115
2, 151450, Note_on_c, 0, 58, 0
2, 151520, Note_on_c, 0, 58, 116
2, 151610, Note_on_c, 0, 58, 0
2, 151680, Note_on_c, 0, 58, 118
2, 151770, Note_on_c, 0, 58, 0
2, 151840, Note_on_c, 0, 60, 120
2, 151930, Note_on_c, 0, 60, 0
2, 152000, Note_on_c, 0, 58, 120
2, 152090, Note_on_c, 0, 58, 0
2, 152160, Note_on_c, 0, 56, 118
2, 152320, Note_on_c, 0, 55, 116
2, 152340, Note_on_c, 0, 56, 0
2, 152430, Note_on_c, 0, 55, 0
2, 152480, Note_on_c, 0, 56, 113
2, 152580, Note_on_c, 0, 56, 0
2, 152640, Note_on_c, 0, 55, 115
2, 152800, Note_on_c, 0, 58, 116
2, 152825, Note_on_c, 0, 55, 0
2, 152932, Note_on_c, 0, 58, 0
2, 152960, Note_on_c, 0, 55, 117
2, 153065, Note_on_c, 0, 55, 0
2, 153120, Note_on_c, 0, 51, 119
2, 153200, Note_on_c, 0, 51, 0
2, 153280, Note_on_c, 0, 46, 117
2, 153367, Note_on_c, 0, 46, 0
2, 153440, Note_on_c, 0, 43, 114
2, 153527, Note_on_c, 0, 43, 0
2, 153600, Note_on_c, 0, 39, 112
2, 153920, Note_on_c, 0, 39, 0
2, 154080, Note_on_c, 0, 48, 106
2, 154175, Note_on_c, 0, 48, 0
2, 154240, Note_on_c, 0, 60, 107
2, 154327, Note_on_c, 0, 60, 0
2, 154400, Note_on_c, 0, 60, 107
2, 154487, Note_on_c, 0, 60, 0
2, 154560, Note_on_c, 0, 60, 110
2, 154647, Note_on_c, 0, 60, 0
2, 154720, Note_on_c, 0, 62, 114
2, 154807, Note_on_c, 0, 62, 0
2, 154880, Note_on_c, 0, 60, 115
2, 154967, Note_on_c, 0, 60, 0
2, 155040, Note_on_c, 0, 58, 116
2, 155092, Note_on_c, 0, 60, 116
2, 155120, Note_on_c, 0, 58, 0
2, 155155, Note_on_c, 0, 58, 116
2, 155172, Note_on_c, 0, 60, 0
2, 155225, Note_on_c, 0, 57, 114
2, 155262, Note_on_c, 0, 58, 0
2, 155377, Note_on_c, 0, 58, 110
2, 155400, Note_on_c, 0, 57, 0
2, 155520, Note_on_c, 0, 57, 108
2, 155527, Note_on_c, 0, 58, 0
2, 155680, Note_on_c, 0, 60, 109
2, 155697, Note_on_c, 0, 57, 0
2, 155775, Note_on_c, 0, 60, 0
2, 155840, Note_on_c, 0, 57, 110
2, 155927, Note_on_c, 0, 57, 0
2, 156000, Note_on_c, 0, 53, 114
2, 156080, Note_on_c, 0, 53, 0
2, 156160, Note_on_c, 0, 48, 108
2, 156225, Note_on_c, 0, 48, 0
2, 156320, Note_on_c, 0, 45, 105
2, 156385, Note_on_c, 0, 45, 0
2, 156480, Note_on_c, 0, 41, 103
2, 156815, Note_on_c, 0, 41, 0
2, 156960, Note_on_c, 0, 60, 99
2, 157440, Note_on_c, 0, 61, 99
2, 157495, Note_on_c, 0, 60, 0
2, 157920, Note_on_c, 0, 58, 97
2, 157950, Note_on_c, 0, 61, 0
2, 158400, Note_on_c, 0, 58, 0
2, 158400, Note_on_c, 0, 57, 102
2, 158560, Note_on_c, 0, 60, 105
2, 158582, Note_on_c, 0, 57, 0
2, 158720, Note_on_c, 0, 65, 105
2, 158725, Note_on_c, 0, 60, 0
2, 158845, Note_on_c, 0, 65, 0
2, 158880, Note_on_c, 0, 65, 110
2, 159702, Note_on_c, 0, 65, 0
2, 159840, Note_on_c, 0, 60, 102
2, 160320, Note_on_c, 0, 61, 107
2, 160350, Note_on_c, 0, 60, 0
2, 160800, Note_on_c, 0, 58, 103
2, 160837, Note_on_c, 0, 61, 0
2, 161260, Note_on_c, 0, 58, 0
2, 161280, Note_on_c, 0, 57, 100
2, 161440, Note_on_c, 0, 60, 100
2, 161477, Note_on_c, 0, 57, 0
2, 161600, Note_on_c, 0, 65, 101
2, 161630, Note_on_c, 0, 60, 0
2, 161725, Note_on_c, 0, 65, 0
2, 161760, Note_on_c, 0, 65, 104
2, 162550, Note_on_c, 0, 65, 0
2, 162720, Note_on_c, 0, 60, 110
2, 163200, Note_on_c, 0, 61, 117
2, 163262, Note_on_c, 0, 60, 0
2, 163680, Note_on_c, 0, 58, 122
2, 163700, Note_on_c, 0, 61, 0
2, 164080, Note_on_c, 0, 58, 0
2, 164160, Note_on_c, 0, 67, 118
2, 164290, Note_on_c, 0, 65, 116
2, 164310, Note_on_c, 0, 67, 0
2, 164365, Note_on_c, 0, 67, 116
2, 164397, Note_on_c, 0, 65, 0
2, 164437, Note_on_c, 0, 67, 0
2, 164437, Note_on_c, 0, 65, 116
2, 164480, Note_on_c, 0, 67, 116
2, 164512, Note_on_c, 0, 65, 0
2, 164535, Note_on_c, 0, 65, 116
2, 164555, Note_on_c, 0, 67, 0
2, 164575, Note_on_c, 0, 67, 116
2, 164610, Note_on_c, 0, 65, 0
2, 164630, Note_on_c, 0, 65, 116
2, 164650, Note_on_c, 0, 67, 0
2, 164670, Note_on_c, 0, 67, 116
2, 164705, Note_on_c, 0, 65, 0
2, 164732, Note_on_c, 0, 65, 117
2, 164745, Note_on_c, 0, 67, 0
2, 164777, Note_on_c, 0, 67, 117
2, 164807, Note_on_c, 0, 65, 0
2, 164835, Note_on_c, 0, 65, 117
2, 164852, Note_on_c, 0, 67, 0
2, 164892, Note_on_c, 0, 67, 117
2, 164910, Note_on_c, 0, 65, 0
2, 164940, Note_on_c, 0, 65, 117
2, 164972, Note_on_c, 0, 67, 0
2, 164990, Note_on_c, 0, 64, 117
2, 165020, Note_on_c, 0, 65, 0
2, 165050, Note_on_c, 0, 65, 117
2, 165070, Note_on_c, 0, 64, 0
2, 165120, Note_on_c, 0, 53, 117
2, 165135, Note_on_c, 0, 65, 0
2, 165540, Note_on_c, 0, 53, 0
2, 165600, Note_on_c, 0, 58, 115
2, 166535, Note_on_c, 0, 58, 0
2, 166560, Note_on_c, 0, 60, 111
2, 166800, Note_on_c, 0, 62, 112
2, 166822, Note_on_c, 0, 60, 0
2, 167000, Note_on_c, 0, 62, 0
2, 167040, Note_on_c, 0, 65, 116
2, 167280, Note_on_c, 0, 63, 117
2, 167310, Note_on_c, 0, 65, 0
2, 167480, Note_on_c, 0, 63, 0
2, 167520, Note_on_c, 0, 63, 117
2, 168295, Note_on_c, 0, 63, 0
2, 168480, Note_on_c, 0, 62, 121
2, 168720, Note_on_c, 0, 65, 121
2, 168742, Note_on_c, 0, 62, 0
2, 168900, Note_on_c, 0, 65, 0
2, 168960, Note_on_c, 0, 58, 119
2, 169200, Note_on_c, 0, 62, 119
2, 169222, Note_on_c, 0, 58, 0
2, 169362, Note_on_c, 0, 62, 0
2, 169440, Note_on_c, 0, 55, 118
2, 169680, Note_on_c, 0, 60, 118
2, 169702, Note_on_c, 0, 55, 0
2, 169850, Note_on_c, 0, 60, 0
2, 169920, Note_on_c, 0, 58, 118
2, 170160, Note_on_c, 0, 57, 118
2, 170200, Note_on_c, 0, 58, 0
2, 170400, Note_on_c, 0, 55, 118
2, 170430, Note_on_c, 0, 57, 0
2, 170640, Note_on_c, 0, 53, 118
2, 170670, Note_on_c, 0, 55, 0
2, 170880, Note_on_c, 0, 55, 122
2, 170910, Note_on_c, 0, 53, 0
2, 171120, Note_on_c, 0, 57, 123
2, 171135, Note_on_c, 0, 55, 0
2, 171320, Note_on_c, 0, 57, 0
2, 171360, Note_on_c, 0, 58, 123
2, 172295, Note_on_c, 0, 58, 0
2, 172320, Note_on_c, 0, 60, 123
2, 172560, Note_on_c, 0, 62, 121
2, 172605, Note_on_c, 0, 60, 0
2, 172775, Note_on_c, 0, 62, 0
2, 172800, Note_on_c, 0, 65, 118
2, 173040, Note_on_c, 0, 63, 116
2, 173055, Note_on_c, 0, 65, 0
2, 173190, Note_on_c, 0, 63, 0
2, 173280, Note_on_c, 0, 63, 114
2, 174022, Note_on_c, 0, 63, 0
2, 174240, Note_on_c, 0, 62, 112
2, 174600, Note_on_c, 0, 63, 111
2, 174645, Note_on_c, 0, 62, 0
2, 174660, Note_on_c, 0, 65, 111
2, 174685, Note_on_c, 0, 63, 0
2, 174720, Note_on_c, 0, 65, 0
2, 174720, Note_on_c, 0, 58, 111
2, 175200, Note_on_c, 0, 57, 111
2, 175245, Note_on_c, 0, 58, 0
2, 175655, Note_on_c, 0, 57, 0
2, 175680, Note_on_c, 0, 58, 111
2, 176160, Note_on_c, 0, 58, 0
2, 177120, Note_on_c, 0, 60, 111
2, 178080, Note_on_c, 0, 60, 0
2, 178080, Note_on_c, 0, 62, 107
2, 178320, Note_on_c, 0, 58, 107
2, 178380, Note_on_c, 0, 62, 0
2, 178560, Note_on_c, 0, 58, 0
2, 178560, Note_on_c, 0, 62, 107
2, 178800, Note_on_c, 0, 63, 107
2, 178830, Note_on_c, 0, 62, 0
2, 178990, Note_on_c, 0, 63, 0
2, 179040, Note_on_c, 0, 63, 107
2, 179790, Note_on_c, 0, 63, 0
2, 180000, Note_on_c, 0, 62, 108
2, 180960, Note_on_c, 0, 62, 0
2, 180960, Note_on_c, 0, 63, 108
2, 181200, Note_on_c, 0, 60, 110
2, 181237, Note_on_c, 0, 63, 0
2, 181397, Note_on_c, 0, 60, 0
2, 181440, Note_on_c, 0, 64, 110
2, 181680, Note_on_c, 0, 65, 110
2, 181717, Note_on_c, 0, 64, 0
2, 181830, Note_on_c, 0, 65, 0
2, 181920, Note_on_c, 0, 65, 112
2, 182732, Note_on_c, 0, 65, 0
2, 182880, Note_on_c, 0, 46, 112
2, 182967, Note_on_c, 0, 46, 0
2, 183120, Note_on_c, 0, 58, 113
2, 183207, Note_on_c, 0, 58, 0
2, 183360, Note_on_c, 0, 46, 113
2, 183447, Note_on_c, 0, 46, 0
2, 183600, Note_on_c, 0, 62, 115
2, 183687, Note_on_c, 0, 62, 0
2, 183840, Note_on_c, 0, 46, 117
2, 183927, Note_on_c, 0, 46, 0
2, 184080, Note_on_c, 0, 65, 118
2, 184167, Note_on_c, 0, 65, 0
2, 184320, Note_on_c, 0, 63, 120
2, 184407, Note_on_c, 0, 63, 0
2, 184560, Note_on_c, 0, 60, 120
2, 184680, Note_on_c, 0, 62, 120
2, 184707, Note_on_c, 0, 60, 0
2, 184800, Note_on_c, 0, 63, 120
2, 184827, Note_on_c, 0, 62, 0
2, 184885, Note_on_c, 0, 63, 0
2, 185040, Note_on_c, 0, 60, 120
2, 185127, Note_on_c, 0, 60, 0
2, 185280, Note_on_c, 0, 57, 122
2, 185367, Note_on_c, 0, 57, 0
2, 185520, Note_on_c, 0, 53, 122
2, 185607, Note_on_c, 0, 53, 0
2, 185760, Note_on_c, 0, 46, 122
2, 185847, Note_on_c, 0, 46, 0
2, 186000, Note_on_c, 0, 62, 122
2, 186087, Note_on_c, 0, 62, 0
2, 186240, Note_on_c, 0, 43, 123
2, 186327, Note_on_c, 0, 43, 0
2, 186480, Note_on_c, 0, 58, 123
2, 186567, Note_on_c, 0, 58, 0
2, 186720, Note_on_c, 0, 39, 123
2, 186807, Note_on_c, 0, 39, 0
2, 186960, Note_on_c, 0, 60, 123
2, 187047, Note_on_c, 0, 60, 0
2, 187200, Note_on_c, 0, 41, 123
2, 187287, Note_on_c, 0, 41, 0
2, 187440, Note_on_c, 0, 60, 123
2, 187560, Note_on_c, 0, 58, 123
2, 187587, Note_on_c, 0, 60, 0
2, 187680, Note_on_c, 0, 57, 125
2, 187707, Note_on_c, 0, 58, 0
2, 187765, Note_on_c, 0, 57, 0
2, 187920, Note_on_c, 0, 60, 123
2, 188007, Note_on_c, 0, 60, 0
2, 188160, Note_on_c, 0, 53, 123
2, 188247, Note_on_c, 0, 53, 0
2, 188400, Note_on_c, 0, 57, 125
2, 188487, Note_on_c, 0, 57, 0
2, 188640, Note_on_c, 0, 46, 125
2, 188727, Note_on_c, 0, 46, 0
2, 188880, Note_on_c, 0, 58, 127
2, 188967, Note_on_c, 0, 58, 0
2, 189120, Note_on_c, 0, 46, 127
2, 189207, Note_on_c, 0, 46, 0
2, 189360, Note_on_c, 0, 62, 127
2, 189447, Note_on_c, 0, 62, 0
2, 189600, Note_on_c, 0, 46, 127
2, 189687, Note_on_c, 0, 46, 0
2, 189840, Note_on_c, 0, 65, 127
2, 189927, Note_on_c, 0, 65, 0
2, 190080, Note_on_c, 0, 63, 127
2, 190167, Note_on_c, 0, 63, 0
2, 190320, Note_on_c, 0, 60, 127
2, 190440, Note_on_c, 0, 62, 127
2, 190495, Note_on_c, 0, 60, 0
2, 190560, Note_on_c, 0, 63, 127
2, 190580, Note_on_c, 0, 62, 0
2, 190645, Note_on_c, 0, 63, 0
2, 190800, Note_on_c, 0, 60, 127
2, 190887, Note_on_c, 0, 60, 0
2, 191040, Note_on_c, 0, 57, 127
2, 191127, Note_on_c, 0, 57, 0
2, 191280, Note_on_c, 0, 53, 127
2, 191367, Note_on_c, 0, 53, 0
2, 191520, Note_on_c, 0, 62, 126
2, 191880, Note_on_c, 0, 63, 126
2, 191915, Note_on_c, 0, 62, 0
2, 191940, Note_on_c, 0, 65, 126
2, 191972, Note_on_c, 0, 63, 0
2, 192000, Note_on_c, 0, 58, 126
2, 192020, Note_on_c, 0, 65, 0
2, 192480, Note_on_c, 0, 57, 124
2, 192540, Note_on_c, 0, 58, 0
2, 192960, Note_on_c, 0, 57, 0
2, 192960, Note_on_c, 0, 65, 122
2, 195650, Note_on_c, 0, 65, 0
2, 195842, Note_on_c, 0, 67, 118
2, 196107, Note_on_c, 0, 65, 110
2, 196139, Note_on_c, 0, 67, 0
2, 196235, Note_on_c, 0, 67, 108
2, 196292, Note_on_c, 0, 65, 0
2, 196340, Note_on_c, 0, 65, 108
2, 196362, Note_on_c, 0, 67, 0
2, 196400, Note_on_c, 0, 67, 105
2, 196412, Note_on_c, 0, 65, 0
2, 196445, Note_on_c, 0, 65, 80
2, 196465, Note_on_c, 0, 67, 0
2, 196502, Note_on_c, 0, 67, 105
2, 196527, Note_on_c, 0, 65, 0
2, 196550, Note_on_c, 0, 65, 78
2, 196584, Note_on_c, 0, 67, 0
2, 196612, Note_on_c, 0, 67, 105
2, 196632, Note_on_c, 0, 65, 0
2, 196672, Note_on_c, 0, 65, 80
2, 196694, Note_on_c, 0, 67, 0
2, 196735, Note_on_c, 0, 67, 105
2, 196754, Note_on_c, 0, 65, 0
2, 196782, Note_on_c, 0, 65, 80
2, 196817, Note_on_c, 0, 67, 0
2, 196847, Note_on_c, 0, 67, 105
2, 196864, Note_on_c, 0, 65, 0
2, 196897, Note_on_c, 0, 65, 84
2, 196924, Note_on_c, 0, 67, 0
2, 196955, Note_on_c, 0, 67, 105
2, 196972, Note_on_c, 0, 65, 0
2, 197005, Note_on_c, 0, 65, 81
2, 197037, Note_on_c, 0, 67, 0
2, 197062, Note_on_c, 0, 67, 105
2, 197087, Note_on_c, 0, 65, 0
2, 197112, Note_on_c, 0, 65, 80
2, 197144, Note_on_c, 0, 67, 0
2, 197175, Note_on_c, 0, 67, 105
2, 197194, Note_on_c, 0, 65, 0
2, 197227, Note_on_c, 0, 65, 80
2, 197257, Note_on_c, 0, 67, 0
2, 197282, Note_on_c, 0, 67, 105
2, 197309, Note_on_c, 0, 65, 0
2, 197325, Note_on_c, 0, 65, 84
2, 197357, Note_on_c, 0, 67, 0
2, 197382, Note_on_c, 0, 67, 105
2, 197407, Note_on_c, 0, 65, 0
2, 197435, Note_on_c, 0, 65, 84
2, 197452, Note_on_c, 0, 67, 0
2, 197487, Note_on_c, 0, 67, 105
2, 197517, Note_on_c, 0, 65, 0
2, 197537, Note_on_c, 0, 65, 82
2, 197552, Note_on_c, 0, 67, 0
2, 197595, Note_on_c, 0, 67, 105
2, 197619, Note_on_c, 0, 65, 0
2, 197640, Note_on_c, 0, 65, 86
2, 197657, Note_on_c, 0, 67, 0
2, 197690, Note_on_c, 0, 67, 105
2, 197722, Note_on_c, 0, 65, 0
2, 197745, Note_on_c, 0, 65, 86
2, 197772, Note_on_c, 0, 67, 0
2, 197795, Note_on_c, 0, 67, 105
2, 197827, Note_on_c, 0, 65, 0
2, 197855, Note_on_c, 0, 65, 88
2, 197877, Note_on_c, 0, 67, 0
2, 197900, Note_on_c, 0, 67, 105
2, 197917, Note_on_c, 0, 65, 0
2, 197962, Note_on_c, 0, 65, 88
2, 197982, Note_on_c, 0, 67, 0
2, 198007, Note_on_c, 0, 67, 105
2, 198024, Note_on_c, 0, 65, 0
2, 198057, Note_on_c, 0, 65, 88
2, 198089, Note_on_c, 0, 67, 0
2, 198120, Note_on_c, 0, 67, 105
2, 198139, Note_on_c, 0, 65, 0
2, 198162, Note_on_c, 0, 65, 87
2, 198195, Note_on_c, 0, 67, 0
2, 198207, Note_on_c, 0, 67, 105
2, 198227, Note_on_c, 0, 65, 0
2, 198257, Note_on_c, 0, 65, 90
2, 198289, Note_on_c, 0, 67, 0
2, 198310, Note_on_c, 0, 67, 105
2, 198339, Note_on_c, 0, 65, 0
2, 198362, Note_on_c, 0, 65, 90
2, 198387, Note_on_c, 0, 67, 0
2, 198417, Note_on_c, 0, 67, 105
2, 198444, Note_on_c, 0, 65, 0
2, 198467, Note_on_c, 0, 65, 90
2, 198494, Note_on_c, 0, 67, 0
2, 198510, Note_on_c, 0, 67, 105
2, 198532, Note_on_c, 0, 65, 0
2, 198555, Note_on_c, 0, 65, 88
2, 198575, Note_on_c, 0, 67, 0
2, 198605, Note_on_c, 0, 64, 105
2, 198627, Note_on_c, 0, 65, 0
2, 198660, Note_on_c, 0, 65, 105
2, 198682, Note_on_c, 0, 64, 0
2, 198815, Note_on_c, 0, 65, 0
2, 198840, Note_on_c, 0, 63, 110
2, 198957, Note_on_c, 0, 62, 110
2, 198980, Note_on_c, 0, 63, 0
2, 199052, Note_on_c, 0, 63, 105
2, 199087, Note_on_c, 0, 62, 0
2, 199162, Note_on_c, 0, 63, 0
2, 199200, Note_on_c, 0, 65, 110
2, 199307, Note_on_c, 0, 65, 0
2, 199320, Note_on_c, 0, 63, 110
2, 199427, Note_on_c, 0, 63, 0
2, 199440, Note_on_c, 0, 62, 109
2, 199547, Note_on_c, 0, 62, 0
2, 199560, Note_on_c, 0, 60, 104
2, 199667, Note_on_c, 0, 60, 0
2, 199680, Note_on_c, 0, 58, 103
2, 199787, Note_on_c, 0, 58, 0
2, 199800, Note_on_c, 0, 57, 101
2, 199907, Note_on_c, 0, 57, 0
2, 199920, Note_on_c, 0, 55, 99
2, 200027, Note_on_c, 0, 55, 0
2, 200040, Note_on_c, 0, 53, 99
2, 200147, Note_on_c, 0, 53, 0
2, 200160, Note_on_c, 0, 55, 99
2, 200375, Note_on_c, 0, 55, 0
2, 200400, Note_on_c, 0, 57, 99
2, 200520, Note_on_c, 0, 57, 0
2, 200520, Note_on_c, 0, 59, 99
2, 200640, Note_on_c, 0, 59, 0
2, 200640, Note_on_c, 0, 60, 99
2, 200760, Note_on_c, 0, 59, 99
2, 200790, Note_on_c, 0, 60, 0
2, 200880, Note_on_c, 0, 59, 0
2, 200880, Note_on_c, 0, 60, 103
2, 201000, Note_on_c, 0, 60, 0
2, 201000, Note_on_c, 0, 62, 105
2, 201120, Note_on_c, 0, 62, 0
2, 201120, Note_on_c, 0, 63, 109
2, 201360, Note_on_c, 0, 63, 0
2, 201610, Note_on_c, 0, 53, 111
2, 202070, Note_on_c, 0, 62, 113
2, 202082, Note_on_c, 0, 53, 0
2, 202200, Note_on_c, 0, 60, 113
2, 202210, Note_on_c, 0, 62, 0
2, 202242, Note_on_c, 0, 62, 113
2, 202282, Note_on_c, 0, 60, 0
2, 202307, Note_on_c, 0, 60, 93
2, 202329, Note_on_c, 0, 62, 0
2, 202352, Note_on_c, 0, 62, 113
2, 202387, Note_on_c, 0, 60, 0
2, 202402, Note_on_c, 0, 60, 92
2, 202434, Note_on_c, 0, 62, 0
2, 202455, Note_on_c, 0, 62, 112
2, 202489, Note_on_c, 0, 60, 0
2, 202515, Note_on_c, 0, 60, 94
2, 202547, Note_on_c, 0, 62, 0
2, 202557, Note_on_c, 0, 62, 109
2, 202595, Note_on_c, 0, 60, 0
2, 202612, Note_on_c, 0, 60, 98
2, 202642, Note_on_c, 0, 62, 0
2, 202662, Note_on_c, 0, 62, 109
2, 202699, Note_on_c, 0, 60, 0
2, 202730, Note_on_c, 0, 60, 95
2, 202749, Note_on_c, 0, 62, 0
2, 202767, Note_on_c, 0, 62, 108
2, 202810, Note_on_c, 0, 60, 0
2, 202827, Note_on_c, 0, 60, 95
2, 202854, Note_on_c, 0, 62, 0
2, 202880, Note_on_c, 0, 58, 108
2, 202914, Note_on_c, 0, 60, 0
2, 202935, Note_on_c, 0, 60, 108
2, 202972, Note_on_c, 0, 58, 0
2, 203027, Note_on_c, 0, 60, 0
2, 203030, Note_on_c, 0, 65, 108
2, 203150, Note_on_c, 0, 63, 116
2, 203187, Note_on_c, 0, 65, 0
2, 203270, Note_on_c, 0, 63, 0
2, 203270, Note_on_c, 0, 62, 113
2, 203377, Note_on_c, 0, 62, 0
2, 203390, Note_on_c, 0, 63, 110
2, 203497, Note_on_c, 0, 63, 0
2, 203510, Note_on_c, 0, 65, 110
2, 203617, Note_on_c, 0, 65, 0
2, 203630, Note_on_c, 0, 63, 112
2, 203737, Note_on_c, 0, 63, 0
2, 203750, Note_on_c, 0, 62, 114
2, 203857, Note_on_c, 0, 62, 0
2, 203870, Note_on_c, 0, 60, 114
2, 203977, Note_on_c, 0, 60, 0
2, 203990, Note_on_c, 0, 58, 114
2, 204097, Note_on_c, 0, 58, 0
2, 204110, Note_on_c, 0, 57, 114
2, 204217, Note_on_c, 0, 57, 0
2, 204230, Note_on_c, 0, 55, 113
2, 204337, Note_on_c, 0, 55, 0
2, 204350, Note_on_c, 0, 53, 108
2, 204457, Note_on_c, 0, 53, 0
2, 204470, Note_on_c, 0, 55, 108
2, 204697, Note_on_c, 0, 55, 0
2, 204710, Note_on_c, 0, 57, 107
2, 204817, Note_on_c, 0, 57, 0
2, 204830, Note_on_c, 0, 59, 107
2, 204937, Note_on_c, 0, 59, 0
2, 204950, Note_on_c, 0, 60, 108
2, 205070, Note_on_c, 0, 59, 112
2, 205090, Note_on_c, 0, 60, 0
2, 205177, Note_on_c, 0, 59, 0
2, 205190, Note_on_c, 0, 60, 116
2, 205297, Note_on_c, 0, 60, 0
2, 205310, Note_on_c, 0, 62, 117
2, 205417, Note_on_c, 0, 62, 0
2, 205430, Note_on_c, 0, 63, 118
2, 205645, Note_on_c, 0, 63, 0
2, 205910, Note_on_c, 0, 55, 97
2, 206137, Note_on_c, 0, 55, 0
2, 206150, Note_on_c, 0, 57, 108
2, 206257, Note_on_c, 0, 57, 0
2, 206270, Note_on_c, 0, 59, 107
2, 206377, Note_on_c, 0, 59, 0
2, 206390, Note_on_c, 0, 60, 105
2, 206510, Note_on_c, 0, 59, 105
2, 206537, Note_on_c, 0, 60, 0
2, 206617, Note_on_c, 0, 59, 0
2, 206630, Note_on_c, 0, 60, 105
2, 206737, Note_on_c, 0, 60, 0
2, 206750, Note_on_c, 0, 62, 106
2, 206857, Note_on_c, 0, 62, 0
2, 206870, Note_on_c, 0, 63, 108
2, 207085, Note_on_c, 0, 63, 0
2, 207350, Note_on_c, 0, 53, 121
2, 208790, Note_on_c, 0, 53, 0
2, 208790, Note_on_c, 0, 62, 118
2, 208980, Note_on_c, 0, 60, 118
2, 209012, Note_on_c, 0, 62, 0
2, 209070, Note_on_c, 0, 62, 118
2, 209082, Note_on_c, 0, 60, 0
2, 209132, Note_on_c, 0, 60, 91
2, 209145, Note_on_c, 0, 62, 0
2, 209187, Note_on_c, 0, 62, 118
2, 209207, Note_on_c, 0, 60, 0
2, 209237, Note_on_c, 0, 60, 91
2, 209262, Note_on_c, 0, 62, 0
2, 209295, Note_on_c, 0, 62, 118
2, 209312, Note_on_c, 0, 60, 0
2, 209350, Note_on_c, 0, 60, 88
2, 209370, Note_on_c, 0, 62, 0
2, 209410, Note_on_c, 0, 62, 118
2, 209425, Note_on_c, 0, 60, 0
2, 209462, Note_on_c, 0, 60, 91
2, 209485, Note_on_c, 0, 62, 0
2, 209515, Note_on_c, 0, 62, 118
2, 209524, Note_on_c, 0, 60, 0
2, 209575, Note_on_c, 0, 60, 94
2, 209590, Note_on_c, 0, 62, 0
2, 209620, Note_on_c, 0, 62, 118
2, 209622, Note_on_c, 0, 60, 0
2, 209680, Note_on_c, 0, 60, 94
2, 209695, Note_on_c, 0, 62, 0
2, 209725, Note_on_c, 0, 62, 118
2, 209737, Note_on_c, 0, 60, 0
2, 209772, Note_on_c, 0, 60, 98
2, 209775, Note_on_c, 0, 62, 0
2, 209820, Note_on_c, 0, 62, 118
2, 209827, Note_on_c, 0, 60, 0
2, 209865, Note_on_c, 0, 62, 0
2, 209867, Note_on_c, 0, 60, 99
2, 209912, Note_on_c, 0, 62, 118
2, 209922, Note_on_c, 0, 60, 0
2, 209977, Note_on_c, 0, 60, 99
2, 209987, Note_on_c, 0, 62, 0
2, 210012, Note_on_c, 0, 62, 118
2, 210034, Note_on_c, 0, 60, 0
2, 210067, Note_on_c, 0, 60, 99
2, 210087, Note_on_c, 0, 62, 0
2, 210120, Note_on_c, 0, 58, 118
2, 210122, Note_on_c, 0, 60, 0
2, 210162, Note_on_c, 0, 60, 102
2, 210192, Note_on_c, 0, 58, 0
2, 210230, Note_on_c, 0, 58, 118
2, 210254, Note_on_c, 0, 60, 0
2, 210805, Note_on_c, 0, 58, 0
2, 210805, End_track
3, 0, Start_track
3, 0, Title_t, "Oboe I, II"
3, 0, Control_c, 1, 0, 0
3, 0, Control_c, 1, 7, 90
3, 0, Control_c, 1, 10, 75
3, 0, Control_c, 1, 91, 70
3, 0, Control_c, 1, 93, 70
3, 1, Control_c, 1, 32, 1
3, 2, Program_c, 1, 68
3, 1440, Note_on_c, 1, 70, 88
3, 2340, Note_on_c, 1, 70, 0
3, 2400, Note_on_c, 1, 69, 71
3, 2400, Note_on_c, 1, 72, 71
3, 2607, Note_on_c, 1, 72, 0
3, 2607, Note_on_c, 1, 69, 0
3, 2640, Note_on_c, 1, 70, 71
3, 2640, Note_on_c, 1, 74, 71
3, 2847, Note_on_c, 1, 74, 0
3, 2847, Note_on_c, 1, 70, 0
3, 2880, Note_on_c, 1, 67, 71
3, 2880, Note_on_c, 1, 77, 71
3, 3087, Note_on_c, 1, 77, 0
3, 3120, Note_on_c, 1, 75, 71
3, 3327, Note_on_c, 1, 75, 0
3, 3327, Note_on_c, 1, 67, 0
3, 3360, Note_on_c, 1, 70, 71
3, 3360, Note_on_c, 1, 75, 71
3, 3780, Note_on_c, 1, 70, 0
3, 3840, Note_on_c, 1, 72, 71
3, 4260, Note_on_c, 1, 72, 0
3, 4260, Note_on_c, 1, 75, 0
3, 4320, Note_on_c, 1, 70, 71
3, 4320, Note_on_c, 1, 74, 71
3, 4527, Note_on_c, 1, 74, 0
3, 4560, Note_on_c, 1, 77, 71
3, 4767, Note_on_c, 1, 77, 0
3, 4767, Note_on_c, 1, 70, 0
3, 4800, Note_on_c, 1, 74, 71
3, 4800, Note_on_c, 1, 82, 71
3, 5220, Note_on_c, 1, 82, 0
3, 5220, Note_on_c, 1, 74, 0
3, 5280, Note_on_c, 1, 79, 71
3, 5487, Note_on_c, 1, 79, 0
3, 5520, Note_on_c, 1, 75, 71
3, 5520, Note_on_c, 1, 84, 71
3, 5727, Note_on_c, 1, 84, 0
3, 5727, Note_on_c, 1, 75, 0
3, 5760, Note_on_c, 1, 74, 71
3, 5760, Note_on_c, 1, 82, 71
3, 5967, Note_on_c, 1, 82, 0
3, 5967, Note_on_c, 1, 74, 0
3, 6000, Note_on_c, 1, 72, 71
3, 6000, Note_on_c, 1, 81, 71
3, 6207, Note_on_c, 1, 81, 0
3, 6207, Note_on_c, 1, 72, 0
3, 6240, Note_on_c, 1, 70, 71
3, 6240, Note_on_c, 1, 79, 71
3, 6447, Note_on_c, 1, 79, 0
3, 6447, Note_on_c, 1, 70, 0
3, 6480, Note_on_c, 1, 69, 71
3, 6480, Note_on_c, 1, 77, 71
3, 6687, Note_on_c, 1, 77, 0
3, 6687, Note_on_c, 1, 69, 0
3, 6720, Note_on_c, 1, 70, 71
3, 6720, Note_on_c, 1, 79, 71
3, 6927, Note_on_c, 1, 79, 0
3, 6927, Note_on_c, 1, 70, 0
3, 6960, Note_on_c, 1, 72, 71
3, 6960, Note_on_c, 1, 81, 71
3, 7167, Note_on_c, 1, 81, 0
3, 7167, Note_on_c, 1, 72, 0
3, 7200, Note_on_c, 1, 74, 71
3, 7200, Note_on_c, 1, 82, 71
3, 7620, Note_on_c, 1, 82, 0
3, 7620, Note_on_c, 1, 74, 0
3, 7680, Note_on_c, 1, 70, 71
3, 8100, Note_on_c, 1, 70, 0
3, 8160, Note_on_c, 1, 69, 71
3, 8160, Note_on_c, 1, 72, 71
3, 8367, Note_on_c, 1, 72, 0
3, 8367, Note_on_c, 1, 69, 0
3, 8400, Note_on_c, 1, 70, 71
3, 8400, Note_on_c, 1, 74, 71
3, 8607, Note_on_c, 1, 74, 0
3, 8607, Note_on_c, 1, 70, 0
3, 8640, Note_on_c, 1, 67, 71
3, 8640, Note_on_c, 1, 77, 71
3, 8847, Note_on_c, 1, 77, 0
3, 8880, Note_on_c, 1, 75, 71
3, 9087, Note_on_c, 1, 75, 0
3, 9087, Note_on_c, 1, 67, 0
3, 9120, Note_on_c, 1, 70, 71
3, 9120, Note_on_c, 1, 75, 71
3, 9540, Note_on_c, 1, 70, 0
3, 9600, Note_on_c, 1, 72, 71
3, 10020, Note_on_c, 1, 72, 0
3, 10020, Note_on_c, 1, 75, 0
3, 10080, Note_on_c, 1, 70, 71
3, 10080, Note_on_c, 1, 74, 71
3, 10390, Note_on_c, 1, 74, 0
3, 10440, Note_on_c, 1, 77, 71
3, 10542, Note_on_c, 1, 77, 0
3, 10542, Note_on_c, 1, 70, 0
3, 10560, Note_on_c, 1, 74, 72
3, 10560, Note_on_c, 1, 82, 72
3, 10980, Note_on_c, 1, 82, 0
3, 10980, Note_on_c, 1, 74, 0
3, 11040, Note_on_c, 1, 72, 72
3, 11040, Note_on_c, 1, 81, 72
3, 11460, Note_on_c, 1, 81, 0
3, 11460, Note_on_c, 1, 72, 0
3, 11520, Note_on_c, 1, 74, 72
3, 11520, Note_on_c, 1, 82, 72
3, 12420, Note_on_c, 1, 82, 0
3, 12420, Note_on_c, 1, 74, 0
3, 12960, Note_on_c, 1, 70, 72
3, 13860, Note_on_c, 1, 70, 0
3, 13920, Note_on_c, 1, 69, 72
3, 13920, Note_on_c, 1, 72, 72
3, 14127, Note_on_c, 1, 72, 0
3, 14127, Note_on_c, 1, 69, 0
3, 14160, Note_on_c, 1, 70, 72
3, 14160, Note_on_c, 1, 74, 72
3, 14367, Note_on_c, 1, 74, 0
3, 14367, Note_on_c, 1, 70, 0
3, 14400, Note_on_c, 1, 67, 72
3, 14400, Note_on_c, 1, 77, 72
3, 14607, Note_on_c, 1, 77, 0
3, 14640, Note_on_c, 1, 75, 72
3, 14847, Note_on_c, 1, 75, 0
3, 14847, Note_on_c, 1, 67, 0
3, 14880, Note_on_c, 1, 70, 72
3, 14880, Note_on_c, 1, 75, 72
3, 15300, Note_on_c, 1, 70, 0
3, 15360, Note_on_c, 1, 72, 72
3, 15780, Note_on_c, 1, 72, 0
3, 15780, Note_on_c, 1, 75, 0
3, 15840, Note_on_c, 1, 70, 72
3, 15840, Note_on_c, 1, 74, 72
3, 16047, Note_on_c, 1, 74, 0
3, 16080, Note_on_c, 1, 77, 72
3, 16287, Note_on_c, 1, 77, 0
3, 16287, Note_on_c, 1, 70, 0
3, 16320, Note_on_c, 1, 74, 72
3, 16320, Note_on_c, 1, 82, 72
3, 16740, Note_on_c, 1, 82, 0
3, 16740, Note_on_c, 1, 74, 0
3, 16800, Note_on_c, 1, 79, 72
3, 17007, Note_on_c, 1, 79, 0
3, 17040, Note_on_c, 1, 75, 72
3, 17040, Note_on_c, 1, 84, 72
3, 17247, Note_on_c, 1, 84, 0
3, 17247, Note_on_c, 1, 75, 0
3, 17280, Note_on_c, 1, 74, 72
3, 17280, Note_on_c, 1, 82, 72
3, 17487, Note_on_c, 1, 82, 0
3, 17487, Note_on_c, 1, 74, 0
3, 17520, Note_on_c, 1, 72, 72
3, 17520, Note_on_c, 1, 81, 72
3, 17727, Note_on_c, 1, 81, 0
3, 17727, Note_on_c, 1, 72, 0
3, 17760, Note_on_c, 1, 70, 72
3, 17760, Note_on_c, 1, 79, 72
3, 17967, Note_on_c, 1, 79, 0
3, 17967, Note_on_c, 1, 70, 0
3, 18000, Note_on_c, 1, 69, 72
3, 18000, Note_on_c, 1, 77, 72
3, 18207, Note_on_c, 1, 77, 0
3, 18207, Note_on_c, 1, 69, 0
3, 18240, Note_on_c, 1, 70, 72
3, 18240, Note_on_c, 1, 79, 72
3, 18447, Note_on_c, 1, 79, 0
3, 18447, Note_on_c, 1, 70, 0
3, 18480, Note_on_c, 1, 72, 72
3, 18480, Note_on_c, 1, 81, 72
3, 18687, Note_on_c, 1, 81, 0
3, 18687, Note_on_c, 1, 72, 0
3, 18720, Note_on_c, 1, 74, 72
3, 18720, Note_on_c, 1, 82, 72
3, 19140, Note_on_c, 1, 82, 0
3, 19140, Note_on_c, 1, 74, 0
3, 19200, Note_on_c, 1, 70, 73
3, 19620, Note_on_c, 1, 70, 0
3, 19680, Note_on_c, 1, 69, 73
3, 19680, Note_on_c, 1, 72, 73
3, 19887, Note_on_c, 1, 72, 0
3, 19887, Note_on_c, 1, 69, 0
3, 19920, Note_on_c, 1, 70, 73
3, 19920, Note_on_c, 1, 74, 73
3, 20127, Note_on_c, 1, 74, 0
3, 20127, Note_on_c, 1, 70, 0
3, 20160, Note_on_c, 1, 67, 73
3, 20160, Note_on_c, 1, 77, 73
3, 20367, Note_on_c, 1, 77, 0
3, 20400, Note_on_c, 1, 75, 73
3, 20607, Note_on_c, 1, 75, 0
3, 20607, Note_on_c, 1, 67, 0
3, 20640, Note_on_c, 1, 70, 73
3, 20640, Note_on_c, 1, 75, 73
3, 21060, Note_on_c, 1, 70, 0
3, 21120, Note_on_c, 1, 72, 73
3, 21540, Note_on_c, 1, 72, 0
3, 21540, Note_on_c, 1, 75, 0
3, 21600, Note_on_c, 1, 70, 73
3, 21600, Note_on_c, 1, 74, 73
3, 21910, Note_on_c, 1, 74, 0
3, 21960, Note_on_c, 1, 77, 73
3, 22062, Note_on_c, 1, 77, 0
3, 22062, Note_on_c, 1, 70, 0
3, 22080, Note_on_c, 1, 74, 73
3, 22080, Note_on_c, 1, 82, 73
3, 22500, Note_on_c, 1, 82, 0
3, 22500, Note_on_c, 1, 74, 0
3, 22560, Note_on_c, 1, 72, 73
3, 22560, Note_on_c, 1, 81, 73
3, 22980, Note_on_c, 1, 81, 0
3, 22980, Note_on_c, 1, 72, 0
3, 23040, Note_on_c, 1, 74, 73
3, 23040, Note_on_c, 1, 82, 73
3, 23940, Note_on_c, 1, 82, 0
3, 23940, Note_on_c, 1, 74, 0
3, 26400, Note_on_c, 1, 72, 73
3, 26400, Note_on_c, 1, 75, 73
3, 26607, Note_on_c, 1, 75, 0
3, 26607, Note_on_c, 1, 72, 0
3, 26640, Note_on_c, 1, 69, 73
3, 26640, Note_on_c, 1, 72, 73
3, 26847, Note_on_c, 1, 72, 0
3, 26847, Note_on_c, 1, 69, 0
3, 26880, Note_on_c, 1, 72, 73
3, 26880, Note_on_c, 1, 75, 73
3, 27087, Note_on_c, 1, 75, 0
3, 27087, Note_on_c, 1, 72, 0
3, 27120, Note_on_c, 1, 69, 73
3, 27120, Note_on_c, 1, 72, 73
3, 27327, Note_on_c, 1, 72, 0
3, 27327, Note_on_c, 1, 69, 0
3, 29280, Note_on_c, 1, 74, 75
3, 29280, Note_on_c, 1, 77, 75
3, 29487, Note_on_c, 1, 77, 0
3, 29487, Note_on_c, 1, 74, 0
3, 29520, Note_on_c, 1, 70, 75
3, 29520, Note_on_c, 1, 74, 75
3, 29727, Note_on_c, 1, 74, 0
3, 29727, Note_on_c, 1, 70, 0
3, 29760, Note_on_c, 1, 74, 75
3, 29760, Note_on_c, 1, 77, 75
3, 29967, Note_on_c, 1, 77, 0
3, 29967, Note_on_c, 1, 74, 0
3, 30000, Note_on_c, 1, 70, 75
3, 30000, Note_on_c, 1, 74, 75
3, 30207, Note_on_c, 1, 74, 0
3, 30207, Note_on_c, 1, 70, 0
3, 30240, Note_on_c, 1, 70, 75
3, 31140, Note_on_c, 1, 70, 0
3, 31200, Note_on_c, 1, 69, 75
3, 31200, Note_on_c, 1, 72, 75
3, 31407, Note_on_c, 1, 72, 0
3, 31407, Note_on_c, 1, 69, 0
3, 31440, Note_on_c, 1, 70, 75
3, 31440, Note_on_c, 1, 74, 75
3, 31647, Note_on_c, 1, 74, 0
3, 31647, Note_on_c, 1, 70, 0
3, 31680, Note_on_c, 1, 67, 75
3, 31680, Note_on_c, 1, 77, 75
3, 31887, Note_on_c, 1, 77, 0
3, 31920, Note_on_c, 1, 75, 75
3, 32127, Note_on_c, 1, 75, 0
3, 32127, Note_on_c, 1, 67, 0
3, 32160, Note_on_c, 1, 70, 75
3, 32160, Note_on_c, 1, 75, 75
3, 32580, Note_on_c, 1, 70, 0
3, 32640, Note_on_c, 1, 72, 75
3, 33060, Note_on_c, 1, 72, 0
3, 33060, Note_on_c, 1, 75, 0
3, 33120, Note_on_c, 1, 70, 75
3, 33120, Note_on_c, 1, 74, 75
3, 33327, Note_on_c, 1, 74, 0
3, 33360, Note_on_c, 1, 77, 75
3, 33567, Note_on_c, 1, 77, 0
3, 33567, Note_on_c, 1, 70, 0
3, 33600, Note_on_c, 1, 74, 75
3, 33600, Note_on_c, 1, 82, 75
3, 34020, Note_on_c, 1, 82, 0
3, 34020, Note_on_c, 1, 74, 0
3, 34080, Note_on_c, 1, 79, 75
3, 34287, Note_on_c, 1, 79, 0
3, 34320, Note_on_c, 1, 75, 75
3, 34320, Note_on_c, 1, 84, 75
3, 34527, Note_on_c, 1, 84, 0
3, 34527, Note_on_c, 1, 75, 0
3, 34560, Note_on_c, 1, 74, 75
3, 34560, Note_on_c, 1, 82, 75
3, 34767, Note_on_c, 1, 82, 0
3, 34767, Note_on_c, 1, 74, 0
3, 34800, Note_on_c, 1, 72, 75
3, 34800, Note_on_c, 1, 81, 75
3, 35007, Note_on_c, 1, 81, 0
3, 35007, Note_on_c, 1, 72, 0
3, 35040, Note_on_c, 1, 70, 75
3, 35040, Note_on_c, 1, 79, 75
3, 35247, Note_on_c, 1, 79, 0
3, 35247, Note_on_c, 1, 70, 0
3, 35280, Note_on_c, 1, 69, 75
3, 35280, Note_on_c, 1, 77, 75
3, 35487, Note_on_c, 1, 77, 0
3, 35487, Note_on_c, 1, 69, 0
3, 35520, Note_on_c, 1, 70, 75
3, 35520, Note_on_c, 1, 79, 75
3, 35727, Note_on_c, 1, 79, 0
3, 35727, Note_on_c, 1, 70, 0
3, 35760, Note_on_c, 1, 72, 75
3, 35760, Note_on_c, 1, 81, 75
3, 35967, Note_on_c, 1, 81, 0
3, 35967, Note_on_c, 1, 72, 0
3, 36000, Note_on_c, 1, 74, 75
3, 36000, Note_on_c, 1, 82, 75
3, 36420, Note_on_c, 1, 82, 0
3, 36420, Note_on_c, 1, 74, 0
3, 36480, Note_on_c, 1, 70, 75
3, 36900, Note_on_c, 1, 70, 0
3, 36960, Note_on_c, 1, 69, 75
3, 36960, Note_on_c, 1, 72, 75
3, 37167, Note_on_c, 1, 72, 0
3, 37167, Note_on_c, 1, 69, 0
3, 37200, Note_on_c, 1, 70, 75
3, 37200, Note_on_c, 1, 74, 75
3, 37407, Note_on_c, 1, 74, 0
3, 37407, Note_on_c, 1, 70, 0
3, 37440, Note_on_c, 1, 67, 75
3, 37440, Note_on_c, 1, 77, 75
3, 37647, Note_on_c, 1, 77, 0
3, 37680, Note_on_c, 1, 75, 75
3, 37887, Note_on_c, 1, 75, 0
3, 37887, Note_on_c, 1, 67, 0
3, 37920, Note_on_c, 1, 70, 75
3, 37920, Note_on_c, 1, 75, 75
3, 38340, Note_on_c, 1, 70, 0
3, 38400, Note_on_c, 1, 72, 75
3, 38820, Note_on_c, 1, 72, 0
3, 38820, Note_on_c, 1, 75, 0
3, 38880, Note_on_c, 1, 70, 75
3, 38880, Note_on_c, 1, 74, 75
3, 39190, Note_on_c, 1, 74, 0
3, 39240, Note_on_c, 1, 77, 75
3, 39342, Note_on_c, 1, 77, 0
3, 39342, Note_on_c, 1, 70, 0
3, 39360, Note_on_c, 1, 74, 75
3, 39360, Note_on_c, 1, 82, 75
3, 39780, Note_on_c, 1, 82, 0
3, 39780, Note_on_c, 1, 74, 0
3, 39840, Note_on_c, 1, 72, 75
3, 39840, Note_on_c, 1, 81, 75
3, 40260, Note_on_c, 1, 81, 0
3, 40260, Note_on_c, 1, 72, 0
3, 40320, Note_on_c, 1, 74, 75
3, 40320, Note_on_c, 1, 82, 75
3, 41220, Note_on_c, 1, 82, 0
3, 41220, Note_on_c, 1, 74, 0
3, 61920, Note_on_c, 1, 84, 49
3, 64740, Note_on_c, 1, 84, 0
3, 84960, Note_on_c, 1, 70, 73
3, 85860, Note_on_c, 1, 70, 0
3, 85920, Note_on_c, 1, 69, 73
3, 85920, Note_on_c, 1, 72, 73
3, 86127, Note_on_c, 1, 72, 0
3, 86127, Note_on_c, 1, 69, 0
3, 86160, Note_on_c, 1, 70, 73
3, 86160, Note_on_c, 1, 74, 73
3, 86367, Note_on_c, 1, 74, 0
3, 86367, Note_on_c, 1, 70, 0
3, 86400, Note_on_c, 1, 67, 73
3, 86400, Note_on_c, 1, 77, 73
3, 86607, Note_on_c, 1, 77, 0
3, 86640, Note_on_c, 1, 75, 73
3, 86847, Note_on_c, 1, 75, 0
3, 86847, Note_on_c, 1, 67, 0
3, 86880, Note_on_c, 1, 70, 73
3, 86880, Note_on_c, 1, 75, 73
3, 87300, Note_on_c, 1, 70, 0
3, 87360, Note_on_c, 1, 72, 73
3, 87780, Note_on_c, 1, 72, 0
3, 87780, Note_on_c, 1, 75, 0
3, 87840, Note_on_c, 1, 70, 73
3, 87840, Note_on_c, 1, 74, 73
3, 88047, Note_on_c, 1, 74, 0
3, 88080, Note_on_c, 1, 77, 73
3, 88287, Note_on_c, 1, 77, 0
3, 88287, Note_on_c, 1, 70, 0
3, 88320, Note_on_c, 1, 74, 73
3, 88320, Note_on_c, 1, 82, 73
3, 88740, Note_on_c, 1, 82, 0
3, 88740, Note_on_c, 1, 74, 0
3, 88800, Note_on_c, 1, 79, 73
3, 89007, Note_on_c, 1, 79, 0
3, 89040, Note_on_c, 1, 75, 73
3, 89040, Note_on_c, 1, 84, 73
3, 89247, Note_on_c, 1, 84, 0
3, 89247, Note_on_c, 1, 75, 0
3, 89280, Note_on_c, 1, 74, 73
3, 89280, Note_on_c, 1, 82, 73
3, 89487, Note_on_c, 1, 82, 0
3, 89487, Note_on_c, 1, 74, 0
3, 89520, Note_on_c, 1, 72, 73
3, 89520, Note_on_c, 1, 81, 73
3, 89727, Note_on_c, 1, 81, 0
3, 89727, Note_on_c, 1, 72, 0
3, 89760, Note_on_c, 1, 70, 73
3, 89760, Note_on_c, 1, 79, 73
3, 89967, Note_on_c, 1, 79, 0
3, 89967, Note_on_c, 1, 70, 0
3, 90000, Note_on_c, 1, 69, 73
3, 90000, Note_on_c, 1, 77, 73
3, 90207, Note_on_c, 1, 77, 0
3, 90207, Note_on_c, 1, 69, 0
3, 90240, Note_on_c, 1, 70, 73
3, 90240, Note_on_c, 1, 79, 73
3, 90447, Note_on_c, 1, 79, 0
3, 90447, Note_on_c, 1, 70, 0
3, 90480, Note_on_c, 1, 72, 73
3, 90480, Note_on_c, 1, 81, 73
3, 90687, Note_on_c, 1, 81, 0
3, 90687, Note_on_c, 1, 72, 0
3, 90720, Note_on_c, 1, 74, 73
3, 90720, Note_on_c, 1, 82, 73
3, 91140, Note_on_c, 1, 82, 0
3, 91140, Note_on_c, 1, 74, 0
3, 91200, Note_on_c, 1, 70, 73
3, 91620, Note_on_c, 1, 70, 0
3, 91680, Note_on_c, 1, 69, 73
3, 91680, Note_on_c, 1, 72, 73
3, 91887, Note_on_c, 1, 72, 0
3, 91887, Note_on_c, 1, 69, 0
3, 91920, Note_on_c, 1, 70, 73
3, 91920, Note_on_c, 1, 74, 73
3, 92127, Note_on_c, 1, 74, 0
3, 92127, Note_on_c, 1, 70, 0
3, 92160, Note_on_c, 1, 67, 73
3, 92160, Note_on_c, 1, 77, 73
3, 92367, Note_on_c, 1, 77, 0
3, 92400, Note_on_c, 1, 75, 73
3, 92607, Note_on_c, 1, 75, 0
3, 92607, Note_on_c, 1, 67, 0
3, 92640, Note_on_c, 1, 70, 73
3, 92640, Note_on_c, 1, 75, 73
3, 93060, Note_on_c, 1, 70, 0
3, 93120, Note_on_c, 1, 72, 73
3, 93540, Note_on_c, 1, 72, 0
3, 93540, Note_on_c, 1, 75, 0
3, 93600, Note_on_c, 1, 70, 73
3, 93600, Note_on_c, 1, 74, 73
3, 93910, Note_on_c, 1, 74, 0
3, 93960, Note_on_c, 1, 77, 73
3, 94062, Note_on_c, 1, 77, 0
3, 94062, Note_on_c, 1, 70, 0
3, 94080, Note_on_c, 1, 74, 73
3, 94080, Note_on_c, 1, 82, 73
3, 94500, Note_on_c, 1, 82, 0
3, 94500, Note_on_c, 1, 74, 0
3, 94560, Note_on_c, 1, 72, 73
3, 94560, Note_on_c, 1, 81, 73
3, 94980, Note_on_c, 1, 81, 0
3, 94980, Note_on_c, 1, 72, 0
3, 95040, Note_on_c, 1, 74, 73
3, 95040, Note_on_c, 1, 82, 73
3, 95940, Note_on_c, 1, 82, 0
3, 95940, Note_on_c, 1, 74, 0
3, 128160, Note_on_c, 1, 70, 72
3, 129060, Note_on_c, 1, 70, 0
3, 129120, Note_on_c, 1, 69, 72
3, 129120, Note_on_c, 1, 72, 72
3, 129327, Note_on_c, 1, 72, 0
3, 129327, Note_on_c, 1, 69, 0
3, 129360, Note_on_c, 1, 70, 72
3, 129360, Note_on_c, 1, 74, 72
3, 129567, Note_on_c, 1, 74, 0
3, 129567, Note_on_c, 1, 70, 0
3, 129600, Note_on_c, 1, 67, 72
3, 129600, Note_on_c, 1, 77, 72
3, 129807, Note_on_c, 1, 77, 0
3, 129840, Note_on_c, 1, 75, 72
3, 130047, Note_on_c, 1, 75, 0
3, 130047, Note_on_c, 1, 67, 0
3, 130080, Note_on_c, 1, 70, 72
3, 130080, Note_on_c, 1, 75, 72
3, 130500, Note_on_c, 1, 70, 0
3, 130560, Note_on_c, 1, 72, 72
3, 130980, Note_on_c, 1, 72, 0
3, 130980, Note_on_c, 1, 75, 0
3, 131040, Note_on_c, 1, 70, 72
3, 131040, Note_on_c, 1, 74, 72
3, 131247, Note_on_c, 1, 74, 0
3, 131280, Note_on_c, 1, 77, 72
3, 131487, Note_on_c, 1, 77, 0
3, 131487, Note_on_c, 1, 70, 0
3, 131520, Note_on_c, 1, 74, 72
3, 131520, Note_on_c, 1, 82, 72
3, 131940, Note_on_c, 1, 82, 0
3, 131940, Note_on_c, 1, 74, 0
3, 132000, Note_on_c, 1, 79, 72
3, 132207, Note_on_c, 1, 79, 0
3, 132240, Note_on_c, 1, 75, 72
3, 132240, Note_on_c, 1, 84, 72
3, 132447, Note_on_c, 1, 84, 0
3, 132447, Note_on_c, 1, 75, 0
3, 132480, Note_on_c, 1, 74, 72
3, 132480, Note_on_c, 1, 82, 72
3, 132687, Note_on_c, 1, 82, 0
3, 132687, Note_on_c, 1, 74, 0
3, 132720, Note_on_c, 1, 72, 72
3, 132720, Note_on_c, 1, 81, 72
3, 132927, Note_on_c, 1, 81, 0
3, 132927, Note_on_c, 1, 72, 0
3, 132960, Note_on_c, 1, 70, 72
3, 132960, Note_on_c, 1, 79, 72
3, 133167, Note_on_c, 1, 79, 0
3, 133167, Note_on_c, 1, 70, 0
3, 133200, Note_on_c, 1, 69, 72
3, 133200, Note_on_c, 1, 77, 72
3, 133407, Note_on_c, 1, 77, 0
3, 133407, Note_on_c, 1, 69, 0
3, 133440, Note_on_c, 1, 70, 72
3, 133440, Note_on_c, 1, 79, 72
3, 133647, Note_on_c, 1, 79, 0
3, 133647, Note_on_c, 1, 70, 0
3, 133680, Note_on_c, 1, 72, 72
3, 133680, Note_on_c, 1, 81, 72
3, 133887, Note_on_c, 1, 81, 0
3, 133887, Note_on_c, 1, 72, 0
3, 133920, Note_on_c, 1, 74, 72
3, 133920, Note_on_c, 1, 82, 72
3, 134340, Note_on_c, 1, 82, 0
3, 134340, Note_on_c, 1, 74, 0
3, 134400, Note_on_c, 1, 70, 72
3, 134820, Note_on_c, 1, 70, 0
3, 134880, Note_on_c, 1, 69, 72
3, 134880, Note_on_c, 1, 72, 72
3, 135087, Note_on_c, 1, 72, 0
3, 135087, Note_on_c, 1, 69, 0
3, 135120, Note_on_c, 1, 70, 72
3, 135120, Note_on_c, 1, 74, 72
3, 135327, Note_on_c, 1, 74, 0
3, 135327, Note_on_c, 1, 70, 0
3, 135360, Note_on_c, 1, 67, 72
3, 135360, Note_on_c, 1, 77, 72
3, 135567, Note_on_c, 1, 77, 0
3, 135600, Note_on_c, 1, 75, 72
3, 135807, Note_on_c, 1, 75, 0
3, 135807, Note_on_c, 1, 67, 0
3, 135840, Note_on_c, 1, 70, 72
3, 135840, Note_on_c, 1, 75, 72
3, 136260, Note_on_c, 1, 70, 0
3, 136320, Note_on_c, 1, 72, 72
3, 136740, Note_on_c, 1, 72, 0
3, 136740, Note_on_c, 1, 75, 0
3, 136800, Note_on_c, 1, 70, 72
3, 136800, Note_on_c, 1, 74, 72
3, 137110, Note_on_c, 1, 74, 0
3, 137160, Note_on_c, 1, 77, 72
3, 137262, Note_on_c, 1, 77, 0
3, 137262, Note_on_c, 1, 70, 0
3, 137280, Note_on_c, 1, 74, 72
3, 137280, Note_on_c, 1, 82, 72
3, 137700, Note_on_c, 1, 82, 0
3, 137700, Note_on_c, 1, 74, 0
3, 137760, Note_on_c, 1, 72, 72
3, 137760, Note_on_c, 1, 81, 72
3, 138180, Note_on_c, 1, 81, 0
3, 138180, Note_on_c, 1, 72, 0
3, 138240, Note_on_c, 1, 74, 72
3, 138240, Note_on_c, 1, 82, 72
3, 139140, Note_on_c, 1, 82, 0
3, 139140, Note_on_c, 1, 74, 0
3, 178800, Note_on_c, 1, 69, 49
3, 178800, Note_on_c, 1, 72, 49
3, 178902, Note_on_c, 1, 72, 0
3, 178902, Note_on_c, 1, 69, 0
3, 178920, Note_on_c, 1, 70, 49
3, 178920, Note_on_c, 1, 74, 49
3, 179022, Note_on_c, 1, 74, 0
3, 179022, Note_on_c, 1, 70, 0
3, 179040, Note_on_c, 1, 72, 49
3, 179040, Note_on_c, 1, 75, 49
3, 179247, Note_on_c, 1, 75, 0
3, 179247, Note_on_c, 1, 72, 0
3, 179280, Note_on_c, 1, 69, 49
3, 179280, Note_on_c, 1, 72, 49
3, 179487, Note_on_c, 1, 72, 0
3, 179487, Note_on_c, 1, 69, 0
3, 179520, Note_on_c, 1, 72, 49
3, 179520, Note_on_c, 1, 75, 49
3, 179727, Note_on_c, 1, 75, 0
3, 179727, Note_on_c, 1, 72, 0
3, 179760, Note_on_c, 1, 69, 49
3, 179760, Note_on_c, 1, 72, 49
3, 179967, Note_on_c, 1, 72, 0
3, 179967, Note_on_c, 1, 69, 0
3, 181680, Note_on_c, 1, 70, 49
3, 181680, Note_on_c, 1, 74, 49
3, 181782, Note_on_c, 1, 74, 0
3, 181782, Note_on_c, 1, 70, 0
3, 181800, Note_on_c, 1, 72, 49
3, 181800, Note_on_c, 1, 75, 49
3, 181902, Note_on_c, 1, 75, 0
3, 181902, Note_on_c, 1, 72, 0
3, 181920, Note_on_c, 1, 74, 49
3, 181920, Note_on_c, 1, 77, 49
3, 182127, Note_on_c, 1, 77, 0
3, 182127, Note_on_c, 1, 74, 0
3, 182160, Note_on_c, 1, 70, 49
3, 182160, Note_on_c, 1, 74, 49
3, 182367, Note_on_c, 1, 74, 0
3, 182367, Note_on_c, 1, 70, 0
3, 182400, Note_on_c, 1, 74, 49
3, 182400, Note_on_c, 1, 77, 49
3, 182607, Note_on_c, 1, 77, 0
3, 182607, Note_on_c, 1, 74, 0
3, 182640, Note_on_c, 1, 70, 49
3, 182640, Note_on_c, 1, 74, 49
3, 182847, Note_on_c, 1, 74, 0
3, 182847, Note_on_c, 1, 70, 0
3, 210240, Note_on_c, 1, 70, 75
3, 211140, Note_on_c, 1, 70, 0
3, 211200, Note_on_c, 1, 69, 75
3, 211200, Note_on_c, 1, 72, 75
3, 211407, Note_on_c, 1, 72, 0
3, 211407, Note_on_c, 1, 69, 0
3, 211440, Note_on_c, 1, 70, 75
3, 211440, Note_on_c, 1, 74, 75
3, 211647, Note_on_c, 1, 74, 0
3, 211647, Note_on_c, 1, 70, 0
3, 211680, Note_on_c, 1, 67, 75
3, 211680, Note_on_c, 1, 77, 75
3, 211887, Note_on_c, 1, 77, 0
3, 211920, Note_on_c, 1, 75, 75
3, 212127, Note_on_c, 1, 75, 0
3, 212127, Note_on_c, 1, 67, 0
3, 212160, Note_on_c, 1, 70, 75
3, 212160, Note_on_c, 1, 75, 75
3, 212580, Note_on_c, 1, 70, 0
3, 212640, Note_on_c, 1, 72, 75
3, 213060, Note_on_c, 1, 72, 0
3, 213060, Note_on_c, 1, 75, 0
3, 213120, Note_on_c, 1, 70, 75
3, 213120, Note_on_c, 1, 74, 75
3, 213327, Note_on_c, 1, 74, 0
3, 213360, Note_on_c, 1, 77, 75
3, 213567, Note_on_c, 1, 77, 0
3, 213567, Note_on_c, 1, 70, 0
3, 213600, Note_on_c, 1, 74, 75
3, 213600, Note_on_c, 1, 82, 75
3, 214020, Note_on_c, 1, 82, 0
3, 214020, Note_on_c, 1, 74, 0
3, 214080, Note_on_c, 1, 79, 75
3, 214287, Note_on_c, 1, 79, 0
3, 214320, Note_on_c, 1, 75, 75
3, 214320, Note_on_c, 1, 84, 75
3, 214527, Note_on_c, 1, 84, 0
3, 214527, Note_on_c, 1, 75, 0
3, 214560, Note_on_c, 1, 74, 75
3, 214560, Note_on_c, 1, 82, 75
3, 214767, Note_on_c, 1, 82, 0
3, 214767, Note_on_c, 1, 74, 0
3, 214800, Note_on_c, 1, 72, 75
3, 214800, Note_on_c, 1, 81, 75
3, 215007, Note_on_c, 1, 81, 0
3, 215007, Note_on_c, 1, 72, 0
3, 215040, Note_on_c, 1, 70, 75
3, 215040, Note_on_c, 1, 79, 75
3, 215247, Note_on_c, 1, 79, 0
3, 215247, Note_on_c, 1, 70, 0
3, 215280, Note_on_c, 1, 69, 75
3, 215280, Note_on_c, 1, 77, 75
3, 215487, Note_on_c, 1, 77, 0
3, 215487, Note_on_c, 1, 69, 0
3, 215520, Note_on_c, 1, 70, 75
3, 215520, Note_on_c, 1, 79, 75
3, 215727, Note_on_c, 1, 79, 0
3, 215727, Note_on_c, 1, 70, 0
3, 215760, Note_on_c, 1, 72, 75
3, 215760, Note_on_c, 1, 81, 75
3, 215967, Note_on_c, 1, 81, 0
3, 215967, Note_on_c, 1, 72, 0
3, 216000, Note_on_c, 1, 74, 75
3, 216000, Note_on_c, 1, 82, 75
3, 216420, Note_on_c, 1, 82, 0
3, 216420, Note_on_c, 1, 74, 0
3, 216480, Note_on_c, 1, 70, 75
3, 216900, Note_on_c, 1, 70, 0
3, 216960, Note_on_c, 1, 69, 75
3, 216960, Note_on_c, 1, 72, 75
3, 217167, Note_on_c, 1, 72, 0
3, 217167, Note_on_c, 1, 69, 0
3, 217200, Note_on_c, 1, 70, 75
3, 217200, Note_on_c, 1, 74, 75
3, 217407, Note_on_c, 1, 74, 0
3, 217407, Note_on_c, 1, 70, 0
3, 217440, Note_on_c, 1, 67, 75
3, 217440, Note_on_c, 1, 77, 75
3, 217647, Note_on_c, 1, 77, 0
3, 217680, Note_on_c, 1, 75, 75
3, 217887, Note_on_c, 1, 75, 0
3, 217887, Note_on_c, 1, 67, 0
3, 217920, Note_on_c, 1, 70, 75
3, 217920, Note_on_c, 1, 75, 75
3, 218340, Note_on_c, 1, 70, 0
3, 218400, Note_on_c, 1, 72, 75
3, 218820, Note_on_c, 1, 72, 0
3, 218820, Note_on_c, 1, 75, 0
3, 218880, Note_on_c, 1, 70, 75
3, 218880, Note_on_c, 1, 74, 75
3, 219190, Note_on_c, 1, 74, 0
3, 219240, Note_on_c, 1, 77, 75
3, 219342, Note_on_c, 1, 77, 0
3, 219342, Note_on_c, 1, 70, 0
3, 219360, Note_on_c, 1, 74, 75
3, 219360, Note_on_c, 1, 82, 75
3, 219780, Note_on_c, 1, 82, 0
3, 219780, Note_on_c, 1, 74, 0
3, 219840, Note_on_c, 1, 72, 75
3, 219840, Note_on_c, 1, 81, 75
3, 220260, Note_on_c, 1, 81, 0
3, 220260, Note_on_c, 1, 72, 0
3, 220320, Note_on_c, 1, 74, 75
3, 220320, Note_on_c, 1, 82, 75
3, 221220, Note_on_c, 1, 82, 0
3, 221220, Note_on_c, 1, 74, 0
3, 221280, Note_on_c, 1, 74, 75
3, 221280, Note_on_c, 1, 77, 75
3, 221700, Note_on_c, 1, 77, 0
3, 221700, Note_on_c, 1, 74, 0
3, 221760, Note_on_c, 1, 72, 75
3, 221760, Note_on_c, 1, 75, 75
3, 222180, Note_on_c, 1, 75, 0
3, 222180, Note_on_c, 1, 72, 0
3, 222240, Note_on_c, 1, 70, 75
3, 222240, Note_on_c, 1, 74, 75
3, 222660, Note_on_c, 1, 74, 0
3, 222660, Note_on_c, 1, 70, 0
3, 222720, Note_on_c, 1, 69, 75
3, 222720, Note_on_c, 1, 72, 75
3, 223140, Note_on_c, 1, 72, 0
3, 223140, Note_on_c, 1, 69, 0
3, 223200, Note_on_c, 1, 74, 75
3, 223200, Note_on_c, 1, 82, 75
3, 224100, Note_on_c, 1, 82, 0
3, 224100, Note_on_c, 1, 74, 0
3, 224160, Note_on_c, 1, 74, 75
3, 224160, Note_on_c, 1, 77, 75
3, 224580, Note_on_c, 1, 77, 0
3, 224580, Note_on_c, 1, 74, 0
3, 224640, Note_on_c, 1, 72, 75
3, 224640, Note_on_c, 1, 75, 75
3, 225060, Note_on_c, 1, 75, 0
3, 225060, Note_on_c, 1, 72, 0
3, 225120, Note_on_c, 1, 70, 75
3, 225120, Note_on_c, 1, 74, 75
3, 225540, Note_on_c, 1, 74, 0
3, 225540, Note_on_c, 1, 70, 0
3, 225600, Note_on_c, 1, 69, 75
3, 225600, Note_on_c, 1, 72, 75
3, 226020, Note_on_c, 1, 72, 0
3, 226020, Note_on_c, 1, 69, 0
3, 226080, Note_on_c, 1, 70, 75
3, 226500, Note_on_c, 1, 70, 0
3, 226560, Note_on_c, 1, 74, 75
3, 226560, Note_on_c, 1, 82, 75
3, 226980, Note_on_c, 1, 82, 0
3, 226980, Note_on_c, 1, 74, 0
3, 227040, Note_on_c, 1, 74, 75
3, 227040, Note_on_c, 1, 82, 75
3, 227460, Note_on_c, 1, 82, 0
3, 227460, Note_on_c, 1, 74, 0
3, 227520, Note_on_c, 1, 74, 75
3, 227520, Note_on_c, 1, 82, 75
3, 227940, Note_on_c, 1, 82, 0
3, 227940, Note_on_c, 1, 74, 0
3, 228000, Note_on_c, 1, 70, 75
3, 228420, Note_on_c, 1, 70, 0
3, 228420, End_track
4, 0, Start_track
4, 0, Title_t, "Horns"
4, 0, Control_c, 2, 0, 0
4, 0, Control_c, 2, 7, 100
4, 0, Control_c, 2, 10, 45
4, 0, Control_c, 2, 91, 55
4, 0, Control_c, 2, 93, 76
4, 1, Control_c, 2, 32, 1
4, 2, Program_c, 2, 60
4, 1440, Note_on_c, 2, 62, 69
4, 1440, Note_on_c, 2, 70, 69
4, 2340, Note_on_c, 2, 70, 0
4, 2340, Note_on_c, 2, 62, 0
4, 3360, Note_on_c, 2, 58, 69
4, 3360, Note_on_c, 2, 70, 69
4, 3780, Note_on_c, 2, 70, 0
4, 3780, Note_on_c, 2, 58, 0
4, 3840, Note_on_c, 2, 65, 69
4, 3840, Note_on_c, 2, 72, 69
4, 4260, Note_on_c, 2, 72, 0
4, 4260, Note_on_c, 2, 65, 0
4, 4320, Note_on_c, 2, 70, 69
4, 4320, Note_on_c, 2, 74, 69
4, 5220, Note_on_c, 2, 74, 0
4, 5220, Note_on_c, 2, 70, 0
4, 5280, Note_on_c, 2, 72, 69
4, 5280, Note_on_c, 2, 75, 69
4, 5700, Note_on_c, 2, 75, 0
4, 5700, Note_on_c, 2, 72, 0
4, 5760, Note_on_c, 2, 65, 70
4, 7200, Note_on_c, 2, 58, 70
4, 8100, Note_on_c, 2, 58, 0
4, 8100, Note_on_c, 2, 65, 0
4, 9120, Note_on_c, 2, 58, 70
4, 9120, Note_on_c, 2, 70, 70
4, 9540, Note_on_c, 2, 70, 0
4, 9540, Note_on_c, 2, 58, 0
4, 9600, Note_on_c, 2, 65, 70
4, 9600, Note_on_c, 2, 72, 70
4, 10020, Note_on_c, 2, 72, 0
4, 10020, Note_on_c, 2, 65, 0
4, 10080, Note_on_c, 2, 70, 73
4, 10080, Note_on_c, 2, 74, 73
4, 10980, Note_on_c, 2, 74, 0
4, 10980, Note_on_c, 2, 70, 0
4, 11040, Note_on_c, 2, 65, 73
4, 11040, Note_on_c, 2, 72, 73
4, 11460, Note_on_c, 2, 72, 0
4, 11460, Note_on_c, 2, 65, 0
4, 11520, Note_on_c, 2, 62, 73
4, 11520, Note_on_c, 2, 70, 73
4, 12420, Note_on_c, 2, 70, 0
4, 12420, Note_on_c, 2, 62, 0
4, 12960, Note_on_c, 2, 62, 73
4, 12960, Note_on_c, 2, 70, 73
4, 13860, Note_on_c, 2, 70, 0
4, 13860, Note_on_c, 2, 62, 0
4, 14880, Note_on_c, 2, 58, 73
4, 14880, Note_on_c, 2, 70, 73
4, 15300, Note_on_c, 2, 70, 0
4, 15300, Note_on_c, 2, 58, 0
4, 15360, Note_on_c, 2, 65, 73
4, 15360, Note_on_c, 2, 72, 73
4, 15780, Note_on_c, 2, 72, 0
4, 15780, Note_on_c, 2, 65, 0
4, 15840, Note_on_c, 2, 70, 73
4, 15840, Note_on_c, 2, 74, 73
4, 16740, Note_on_c, 2, 74, 0
4, 16740, Note_on_c, 2, 70, 0
4, 16800, Note_on_c, 2, 72, 73
4, 16800, Note_on_c, 2, 75, 73
4, 17220, Note_on_c, 2, 75, 0
4, 17220, Note_on_c, 2, 72, 0
4, 17280, Note_on_c, 2, 65, 73
4, 18720, Note_on_c, 2, 58, 73
4, 19620, Note_on_c, 2, 58, 0
4, 19620, Note_on_c, 2, 65, 0
4, 20640, Note_on_c, 2, 58, 73
4, 20640, Note_on_c, 2, 70, 73
4, 21060, Note_on_c, 2, 70, 0
4, 21060, Note_on_c, 2, 58, 0
4, 21120, Note_on_c, 2, 65, 73
4, 21120, Note_on_c, 2, 72, 73
4, 21540, Note_on_c, 2, 72, 0
4, 21540, Note_on_c, 2, 65, 0
4, 21600, Note_on_c, 2, 70, 73
4, 21600, Note_on_c, 2, 74, 73
4, 22500, Note_on_c, 2, 74, 0
4, 22500, Note_on_c, 2, 70, 0
4, 22560, Note_on_c, 2, 65, 73
4, 22560, Note_on_c, 2, 72, 73
4, 22980, Note_on_c, 2, 72, 0
4, 22980, Note_on_c, 2, 65, 0
4, 23040, Note_on_c, 2, 62, 73
4, 23040, Note_on_c, 2, 70, 73
4, 23940, Note_on_c, 2, 70, 0
4, 23940, Note_on_c, 2, 62, 0
4, 24480, Note_on_c, 2, 53, 73
4, 24480, Note_on_c, 2, 65, 73
4, 26340, Note_on_c, 2, 65, 0
4, 26340, Note_on_c, 2, 53, 0
4, 26400, Note_on_c, 2, 53, 72
4, 26400, Note_on_c, 2, 65, 72
4, 26820, Note_on_c, 2, 65, 0
4, 26820, Note_on_c, 2, 53, 0
4, 26880, Note_on_c, 2, 53, 72
4, 26880, Note_on_c, 2, 65, 72
4, 27300, Note_on_c, 2, 65, 0
4, 27300, Note_on_c, 2, 53, 0
4, 27360, Note_on_c, 2, 58, 72
4, 27360, Note_on_c, 2, 65, 72
4, 29220, Note_on_c, 2, 65, 0
4, 29220, Note_on_c, 2, 58, 0
4, 29280, Note_on_c, 2, 58, 72
4, 29280, Note_on_c, 2, 65, 72
4, 29700, Note_on_c, 2, 65, 0
4, 29700, Note_on_c, 2, 58, 0
4, 29760, Note_on_c, 2, 58, 72
4, 29760, Note_on_c, 2, 65, 72
4, 30180, Note_on_c, 2, 65, 0
4, 30180, Note_on_c, 2, 58, 0
4, 30240, Note_on_c, 2, 62, 72
4, 30240, Note_on_c, 2, 70, 72
4, 31140, Note_on_c, 2, 70, 0
4, 31140, Note_on_c, 2, 62, 0
4, 32160, Note_on_c, 2, 58, 72
4, 32160, Note_on_c, 2, 70, 72
4, 32580, Note_on_c, 2, 70, 0
4, 32580, Note_on_c, 2, 58, 0
4, 32640, Note_on_c, 2, 65, 72
4, 32640, Note_on_c, 2, 72, 72
4, 33060, Note_on_c, 2, 72, 0
4, 33060, Note_on_c, 2, 65, 0
4, 33120, Note_on_c, 2, 70, 72
4, 33120, Note_on_c, 2, 74, 72
4, 34020, Note_on_c, 2, 74, 0
4, 34020, Note_on_c, 2, 70, 0
4, 34080, Note_on_c, 2, 72, 72
4, 34080, Note_on_c, 2, 75, 72
4, 34500, Note_on_c, 2, 75, 0
4, 34500, Note_on_c, 2, 72, 0
4, 34560, Note_on_c, 2, 65, 72
4, 36000, Note_on_c, 2, 58, 72
4, 36900, Note_on_c, 2, 58, 0
4, 36900, Note_on_c, 2, 65, 0
4, 37920, Note_on_c, 2, 58, 72
4, 37920, Note_on_c, 2, 70, 72
4, 38340, Note_on_c, 2, 70, 0
4, 38340, Note_on_c, 2, 58, 0
4, 38400, Note_on_c, 2, 65, 72
4, 38400, Note_on_c, 2, 72, 72
4, 38820, Note_on_c, 2, 72, 0
4, 38820, Note_on_c, 2, 65, 0
4, 38880, Note_on_c, 2, 70, 72
4, 38880, Note_on_c, 2, 74, 72
4, 39780, Note_on_c, 2, 74, 0
4, 39780, Note_on_c, 2, 70, 0
4, 39840, Note_on_c, 2, 65, 72
4, 39840, Note_on_c, 2, 72, 72
4, 40260, Note_on_c, 2, 72, 0
4, 40260, Note_on_c, 2, 65, 0
4, 40320, Note_on_c, 2, 62, 72
4, 40320, Note_on_c, 2, 70, 72
4, 41220, Note_on_c, 2, 70, 0
4, 41220, Note_on_c, 2, 62, 0
4, 84960, Note_on_c, 2, 62, 72
4, 84960, Note_on_c, 2, 70, 72
4, 85860, Note_on_c, 2, 70, 0
4, 85860, Note_on_c, 2, 62, 0
4, 86880, Note_on_c, 2, 58, 72
4, 86880, Note_on_c, 2, 70, 72
4, 87300, Note_on_c, 2, 70, 0
4, 87300, Note_on_c, 2, 58, 0
4, 87360, Note_on_c, 2, 65, 72
4, 87360, Note_on_c, 2, 72, 72
4, 87780, Note_on_c, 2, 72, 0
4, 87780, Note_on_c, 2, 65, 0
4, 87840, Note_on_c, 2, 70, 72
4, 87840, Note_on_c, 2, 74, 72
4, 88740, Note_on_c, 2, 74, 0
4, 88740, Note_on_c, 2, 70, 0
4, 88800, Note_on_c, 2, 72, 72
4, 88800, Note_on_c, 2, 75, 72
4, 89220, Note_on_c, 2, 75, 0
4, 89220, Note_on_c, 2, 72, 0
4, 89280, Note_on_c, 2, 65, 72
4, 90720, Note_on_c, 2, 58, 72
4, 91620, Note_on_c, 2, 58, 0
4, 91620, Note_on_c, 2, 65, 0
4, 92640, Note_on_c, 2, 58, 72
4, 92640, Note_on_c, 2, 70, 72
4, 93060, Note_on_c, 2, 70, 0
4, 93060, Note_on_c, 2, 58, 0
4, 93120, Note_on_c, 2, 65, 72
4, 93120, Note_on_c, 2, 72, 72
4, 93540, Note_on_c, 2, 72, 0
4, 93540, Note_on_c, 2, 65, 0
4, 93600, Note_on_c, 2, 70, 72
4, 93600, Note_on_c, 2, 74, 72
4, 94500, Note_on_c, 2, 74, 0
4, 94500, Note_on_c, 2, 70, 0
4, 94560, Note_on_c, 2, 65, 72
4, 94560, Note_on_c, 2, 72, 72
4, 94980, Note_on_c, 2, 72, 0
4, 94980, Note_on_c, 2, 65, 0
4, 95040, Note_on_c, 2, 62, 72
4, 95040, Note_on_c, 2, 70, 72
4, 95940, Note_on_c, 2, 70, 0
4, 95940, Note_on_c, 2, 62, 0
4, 128160, Note_on_c, 2, 62, 71
4, 128160, Note_on_c, 2, 70, 71
4, 129060, Note_on_c, 2, 70, 0
4, 129060, Note_on_c, 2, 62, 0
4, 130080, Note_on_c, 2, 58, 71
4, 130080, Note_on_c, 2, 70, 71
4, 130500, Note_on_c, 2, 70, 0
4, 130500, Note_on_c, 2, 58, 0
4, 130560, Note_on_c, 2, 65, 71
4, 130560, Note_on_c, 2, 72, 71
4, 130980, Note_on_c, 2, 72, 0
4, 130980, Note_on_c, 2, 65, 0
4, 131040, Note_on_c, 2, 70, 71
4, 131040, Note_on_c, 2, 74, 71
4, 131940, Note_on_c, 2, 74, 0
4, 131940, Note_on_c, 2, 70, 0
4, 132000, Note_on_c, 2, 72, 71
4, 132000, Note_on_c, 2, 75, 71
4, 132420, Note_on_c, 2, 75, 0
4, 132420, Note_on_c, 2, 72, 0
4, 132480, Note_on_c, 2, 65, 71
4, 133920, Note_on_c, 2, 58, 72
4, 134820, Note_on_c, 2, 58, 0
4, 134820, Note_on_c, 2, 65, 0
4, 135840, Note_on_c, 2, 58, 72
4, 135840, Note_on_c, 2, 70, 72
4, 136260, Note_on_c, 2, 70, 0
4, 136260, Note_on_c, 2, 58, 0
4, 136320, Note_on_c, 2, 65, 72
4, 136320, Note_on_c, 2, 72, 72
4, 136740, Note_on_c, 2, 72, 0
4, 136740, Note_on_c, 2, 65, 0
4, 136800, Note_on_c, 2, 70, 72
4, 136800, Note_on_c, 2, 74, 72
4, 137700, Note_on_c, 2, 74, 0
4, 137700, Note_on_c, 2, 70, 0
4, 137760, Note_on_c, 2, 65, 72
4, 137760, Note_on_c, 2, 72, 72
4, 138180, Note_on_c, 2, 72, 0
4, 138180, Note_on_c, 2, 65, 0
4, 138240, Note_on_c, 2, 62, 72
4, 138240, Note_on_c, 2, 70, 72
4, 139140, Note_on_c, 2, 70, 0
4, 139140, Note_on_c, 2, 62, 0
4, 156960, Note_on_c, 2, 53, 49
4, 156960, Note_on_c, 2, 65, 49
4, 164580, Note_on_c, 2, 65, 0
4, 164580, Note_on_c, 2, 53, 0
4, 210240, Note_on_c, 2, 62, 72
4, 210240, Note_on_c, 2, 70, 72
4, 211140, Note_on_c, 2, 70, 0
4, 211140, Note_on_c, 2, 62, 0
4, 212160, Note_on_c, 2, 58, 72
4, 212160, Note_on_c, 2, 70, 72
4, 212580, Note_on_c, 2, 70, 0
4, 212580, Note_on_c, 2, 58, 0
4, 212640, Note_on_c, 2, 65, 72
4, 212640, Note_on_c, 2, 72, 72
4, 213060, Note_on_c, 2, 72, 0
4, 213060, Note_on_c, 2, 65, 0
4, 213120, Note_on_c, 2, 70, 72
4, 213120, Note_on_c, 2, 74, 72
4, 214020, Note_on_c, 2, 74, 0
4, 214020, Note_on_c, 2, 70, 0
4, 214080, Note_on_c, 2, 72, 72
4, 214080, Note_on_c, 2, 75, 72
4, 214500, Note_on_c, 2, 75, 0
4, 214500, Note_on_c, 2, 72, 0
4, 214560, Note_on_c, 2, 65, 72
4, 216000, Note_on_c, 2, 58, 72
4, 216900, Note_on_c, 2, 58, 0
4, 216900, Note_on_c, 2, 65, 0
4, 217920, Note_on_c, 2, 58, 72
4, 217920, Note_on_c, 2, 70, 72
4, 218340, Note_on_c, 2, 70, 0
4, 218340, Note_on_c, 2, 58, 0
4, 218400, Note_on_c, 2, 65, 72
4, 218400, Note_on_c, 2, 72, 72
4, 218820, Note_on_c, 2, 72, 0
4, 218820, Note_on_c, 2, 65, 0
4, 218880, Note_on_c, 2, 70, 72
4, 218880, Note_on_c, 2, 74, 72
4, 219780, Note_on_c, 2, 74, 0
4, 219780, Note_on_c, 2, 70, 0
4, 219840, Note_on_c, 2, 65, 72
4, 219840, Note_on_c, 2, 72, 72
4, 220260, Note_on_c, 2, 72, 0
4, 220260, Note_on_c, 2, 65, 0
4, 220320, Note_on_c, 2, 62, 72
4, 220320, Note_on_c, 2, 70, 72
4, 221700, Note_on_c, 2, 70, 0
4, 221700, Note_on_c, 2, 62, 0
4, 222240, Note_on_c, 2, 65, 72
4, 222660, Note_on_c, 2, 65, 0
4, 222720, Note_on_c, 2, 65, 72
4, 223140, Note_on_c, 2, 65, 0
4, 223200, Note_on_c, 2, 58, 72
4, 223200, Note_on_c, 2, 70, 72
4, 225060, Note_on_c, 2, 70, 0
4, 225060, Note_on_c, 2, 58, 0
4, 225120, Note_on_c, 2, 70, 72
4, 225120, Note_on_c, 2, 74, 72
4, 225540, Note_on_c, 2, 74, 0
4, 225540, Note_on_c, 2, 70, 0
4, 225600, Note_on_c, 2, 65, 72
4, 225600, Note_on_c, 2, 72, 72
4, 226020, Note_on_c, 2, 72, 0
4, 226020, Note_on_c, 2, 65, 0
4, 226080, Note_on_c, 2, 62, 72
4, 226080, Note_on_c, 2, 70, 72
4, 226500, Note_on_c, 2, 70, 0
4, 226500, Note_on_c, 2, 62, 0
4, 226560, Note_on_c, 2, 62, 72
4, 226560, Note_on_c, 2, 70, 72
4, 226980, Note_on_c, 2, 70, 0
4, 226980, Note_on_c, 2, 62, 0
4, 227040, Note_on_c, 2, 62, 72
4, 227040, Note_on_c, 2, 70, 72
4, 227460, Note_on_c, 2, 70, 0
4, 227460, Note_on_c, 2, 62, 0
4, 227520, Note_on_c, 2, 62, 72
4, 227520, Note_on_c, 2, 70, 72
4, 227940, Note_on_c, 2, 70, 0
4, 227940, Note_on_c, 2, 62, 0
4, 228000, Note_on_c, 2, 58, 72
4, 228420, Note_on_c, 2, 58, 0
4, 228420, End_track
5, 0, Start_track
5, 0, Title_t, "Orchestral Bassoon"
5, 0, Control_c, 3, 0, 0
5, 0, Control_c, 3, 7, 75
5, 0, Control_c, 3, 10, 64
5, 0, Control_c, 3, 91, 76
5, 0, Control_c, 3, 93, 64
5, 1, Control_c, 3, 32, 1
5, 2, Program_c, 3, 70
5, 1440, Note_on_c, 3, 58, 88
5, 1860, Note_on_c, 3, 58, 0
5, 1920, Note_on_c, 3, 62, 88
5, 2340, Note_on_c, 3, 62, 0
5, 2400, Note_on_c, 3, 58, 88
5, 2820, Note_on_c, 3, 58, 0
5, 2880, Note_on_c, 3, 60, 88
5, 3300, Note_on_c, 3, 60, 0
5, 3360, Note_on_c, 3, 55, 88
5, 3780, Note_on_c, 3, 55, 0
5, 3840, Note_on_c, 3, 57, 88
5, 4260, Note_on_c, 3, 57, 0
5, 4320, Note_on_c, 3, 58, 88
5, 4740, Note_on_c, 3, 58, 0
5, 4800, Note_on_c, 3, 55, 88
5, 5220, Note_on_c, 3, 55, 0
5, 5280, Note_on_c, 3, 51, 88
5, 5700, Note_on_c, 3, 51, 0
5, 5760, Note_on_c, 3, 53, 88
5, 6180, Note_on_c, 3, 53, 0
5, 6240, Note_on_c, 3, 53, 88
5, 6660, Note_on_c, 3, 53, 0
5, 6720, Note_on_c, 3, 51, 88
5, 7140, Note_on_c, 3, 51, 0
5, 7200, Note_on_c, 3, 50, 88
5, 7620, Note_on_c, 3, 50, 0
5, 7680, Note_on_c, 3, 62, 88
5, 8100, Note_on_c, 3, 62, 0
5, 8160, Note_on_c, 3, 58, 88
5, 8580, Note_on_c, 3, 58, 0
5, 8640, Note_on_c, 3, 60, 88
5, 9060, Note_on_c, 3, 60, 0
5, 9120, Note_on_c, 3, 55, 88
5, 9540, Note_on_c, 3, 55, 0
5, 9600, Note_on_c, 3, 57, 88
5, 10020, Note_on_c, 3, 57, 0
5, 10080, Note_on_c, 3, 58, 88
5, 10500, Note_on_c, 3, 58, 0
5, 10560, Note_on_c, 3, 53, 88
5, 10980, Note_on_c, 3, 53, 0
5, 11040, Note_on_c, 3, 41, 88
5, 11460, Note_on_c, 3, 41, 0
5, 11520, Note_on_c, 3, 46, 88
5, 11940, Note_on_c, 3, 46, 0
5, 12000, Note_on_c, 3, 53, 88
5, 12420, Note_on_c, 3, 53, 0
5, 12480, Note_on_c, 3, 58, 88
5, 12900, Note_on_c, 3, 58, 0
5, 12960, Note_on_c, 3, 58, 88
5, 13380, Note_on_c, 3, 58, 0
5, 13440, Note_on_c, 3, 62, 88
5, 13860, Note_on_c, 3, 62, 0
5, 13920, Note_on_c, 3, 58, 88
5, 14340, Note_on_c, 3, 58, 0
5, 14400, Note_on_c, 3, 60, 88
5, 14820, Note_on_c, 3, 60, 0
5, 14880, Note_on_c, 3, 55, 88
5, 15300, Note_on_c, 3, 55, 0
5, 15360, Note_on_c, 3, 57, 88
5, 15780, Note_on_c, 3, 57, 0
5, 15840, Note_on_c, 3, 58, 88
5, 16260, Note_on_c, 3, 58, 0
5, 16320, Note_on_c, 3, 55, 88
5, 16740, Note_on_c, 3, 55, 0
5, 16800, Note_on_c, 3, 51, 88
5, 17220, Note_on_c, 3, 51, 0
5, 17280, Note_on_c, 3, 53, 88
5, 17700, Note_on_c, 3, 53, 0
5, 17760, Note_on_c, 3, 53, 88
5, 18180, Note_on_c, 3, 53, 0
5, 18240, Note_on_c, 3, 51, 88
5, 18660, Note_on_c, 3, 51, 0
5, 18720, Note_on_c, 3, 50, 88
5, 19140, Note_on_c, 3, 50, 0
5, 19200, Note_on_c, 3, 62, 88
5, 19620, Note_on_c, 3, 62, 0
5, 19680, Note_on_c, 3, 58, 88
5, 20100, Note_on_c, 3, 58, 0
5, 20160, Note_on_c, 3, 60, 88
5, 20580, Note_on_c, 3, 60, 0
5, 20640, Note_on_c, 3, 55, 88
5, 21060, Note_on_c, 3, 55, 0
5, 21120, Note_on_c, 3, 57, 88
5, 21540, Note_on_c, 3, 57, 0
5, 21600, Note_on_c, 3, 58, 88
5, 22020, Note_on_c, 3, 58, 0
5, 22080, Note_on_c, 3, 53, 88
5, 22500, Note_on_c, 3, 53, 0
5, 22560, Note_on_c, 3, 41, 88
5, 22980, Note_on_c, 3, 41, 0
5, 23040, Note_on_c, 3, 46, 88
5, 23460, Note_on_c, 3, 46, 0
5, 23520, Note_on_c, 3, 53, 88
5, 23940, Note_on_c, 3, 53, 0
5, 24000, Note_on_c, 3, 58, 88
5, 24420, Note_on_c, 3, 58, 0
5, 24480, Note_on_c, 3, 53, 88
5, 24900, Note_on_c, 3, 53, 0
5, 24960, Note_on_c, 3, 53, 88
5, 25380, Note_on_c, 3, 53, 0
5, 25440, Note_on_c, 3, 53, 88
5, 25860, Note_on_c, 3, 53, 0
5, 25920, Note_on_c, 3, 53, 88
5, 26340, Note_on_c, 3, 53, 0
5, 26400, Note_on_c, 3, 53, 88
5, 26820, Note_on_c, 3, 53, 0
5, 26880, Note_on_c, 3, 53, 88
5, 27300, Note_on_c, 3, 53, 0
5, 27360, Note_on_c, 3, 58, 88
5, 27780, Note_on_c, 3, 58, 0
5, 27840, Note_on_c, 3, 58, 88
5, 28260, Note_on_c, 3, 58, 0
5, 28320, Note_on_c, 3, 58, 88
5, 28740, Note_on_c, 3, 58, 0
5, 28800, Note_on_c, 3, 58, 88
5, 29220, Note_on_c, 3, 58, 0
5, 29280, Note_on_c, 3, 58, 88
5, 29700, Note_on_c, 3, 58, 0
5, 29760, Note_on_c, 3, 58, 88
5, 30180, Note_on_c, 3, 58, 0
5, 30240, Note_on_c, 3, 58, 88
5, 30660, Note_on_c, 3, 58, 0
5, 30720, Note_on_c, 3, 62, 88
5, 31140, Note_on_c, 3, 62, 0
5, 31200, Note_on_c, 3, 58, 88
5, 31620, Note_on_c, 3, 58, 0
5, 31680, Note_on_c, 3, 60, 88
5, 32100, Note_on_c, 3, 60, 0
5, 32160, Note_on_c, 3, 55, 88
5, 32580, Note_on_c, 3, 55, 0
5, 32640, Note_on_c, 3, 57, 88
5, 33060, Note_on_c, 3, 57, 0
5, 33120, Note_on_c, 3, 58, 88
5, 33540, Note_on_c, 3, 58, 0
5, 33600, Note_on_c, 3, 55, 88
5, 34020, Note_on_c, 3, 55, 0
5, 34080, Note_on_c, 3, 51, 88
5, 34500, Note_on_c, 3, 51, 0
5, 34560, Note_on_c, 3, 53, 88
5, 34980, Note_on_c, 3, 53, 0
5, 35040, Note_on_c, 3, 53, 88
5, 35460, Note_on_c, 3, 53, 0
5, 35520, Note_on_c, 3, 51, 88
5, 35940, Note_on_c, 3, 51, 0
5, 36000, Note_on_c, 3, 50, 88
5, 36420, Note_on_c, 3, 50, 0
5, 36480, Note_on_c, 3, 62, 88
5, 36900, Note_on_c, 3, 62, 0
5, 36960, Note_on_c, 3, 58, 88
5, 37380, Note_on_c, 3, 58, 0
5, 37440, Note_on_c, 3, 60, 88
5, 37860, Note_on_c, 3, 60, 0
5, 37920, Note_on_c, 3, 55, 88
5, 38340, Note_on_c, 3, 55, 0
5, 38400, Note_on_c, 3, 57, 88
5, 38820, Note_on_c, 3, 57, 0
5, 38880, Note_on_c, 3, 58, 88
5, 39300, Note_on_c, 3, 58, 0
5, 39360, Note_on_c, 3, 53, 88
5, 39780, Note_on_c, 3, 53, 0
5, 39840, Note_on_c, 3, 41, 88
5, 40260, Note_on_c, 3, 41, 0
5, 40320, Note_on_c, 3, 46, 88
5, 40740, Note_on_c, 3, 46, 0
5, 40800, Note_on_c, 3, 50, 88
5, 41220, Note_on_c, 3, 50, 0
5, 41280, Note_on_c, 3, 53, 88
5, 41700, Note_on_c, 3, 53, 0
5, 84960, Note_on_c, 3, 58, 88
5, 85380, Note_on_c, 3, 58, 0
5, 85440, Note_on_c, 3, 62, 88
5, 85860, Note_on_c, 3, 62, 0
5, 85920, Note_on_c, 3, 58, 88
5, 86340, Note_on_c, 3, 58, 0
5, 86400, Note_on_c, 3, 60, 88
5, 86820, Note_on_c, 3, 60, 0
5, 86880, Note_on_c, 3, 55, 88
5, 87300, Note_on_c, 3, 55, 0
5, 87360, Note_on_c, 3, 57, 88
5, 87780, Note_on_c, 3, 57, 0
5, 87840, Note_on_c, 3, 58, 88
5, 88260, Note_on_c, 3, 58, 0
5, 88320, Note_on_c, 3, 55, 88
5, 88740, Note_on_c, 3, 55, 0
5, 88800, Note_on_c, 3, 51, 88
5, 89220, Note_on_c, 3, 51, 0
5, 89280, Note_on_c, 3, 53, 88
5, 89700, Note_on_c, 3, 53, 0
5, 89760, Note_on_c, 3, 53, 88
5, 90180, Note_on_c, 3, 53, 0
5, 90240, Note_on_c, 3, 51, 88
5, 90660, Note_on_c, 3, 51, 0
5, 90720, Note_on_c, 3, 50, 88
5, 91140, Note_on_c, 3, 50, 0
5, 91200, Note_on_c, 3, 62, 88
5, 91620, Note_on_c, 3, 62, 0
5, 91680, Note_on_c, 3, 58, 88
5, 92100, Note_on_c, 3, 58, 0
5, 92160, Note_on_c, 3, 60, 88
5, 92580, Note_on_c, 3, 60, 0
5, 92640, Note_on_c, 3, 55, 88
5, 93060, Note_on_c, 3, 55, 0
5, 93120, Note_on_c, 3, 57, 88
5, 93540, Note_on_c, 3, 57, 0
5, 93600, Note_on_c, 3, 58, 88
5, 94020, Note_on_c, 3, 58, 0
5, 94080, Note_on_c, 3, 53, 88
5, 94500, Note_on_c, 3, 53, 0
5, 94560, Note_on_c, 3, 41, 88
5, 94980, Note_on_c, 3, 41, 0
5, 95040, Note_on_c, 3, 46, 88
5, 95460, Note_on_c, 3, 46, 0
5, 95520, Note_on_c, 3, 53, 88
5, 95940, Note_on_c, 3, 53, 0
5, 96000, Note_on_c, 3, 58, 88
5, 96420, Note_on_c, 3, 58, 0
5, 128160, Note_on_c, 3, 58, 88
5, 128580, Note_on_c, 3, 58, 0
5, 128640, Note_on_c, 3, 62, 88
5, 129060, Note_on_c, 3, 62, 0
5, 129120, Note_on_c, 3, 58, 88
5, 129540, Note_on_c, 3, 58, 0
5, 129600, Note_on_c, 3, 60, 88
5, 130020, Note_on_c, 3, 60, 0
5, 130080, Note_on_c, 3, 55, 88
5, 130500, Note_on_c, 3, 55, 0
5, 130560, Note_on_c, 3, 57, 88
5, 130980, Note_on_c, 3, 57, 0
5, 131040, Note_on_c, 3, 58, 88
5, 131460, Note_on_c, 3, 58, 0
5, 131520, Note_on_c, 3, 55, 88
5, 131940, Note_on_c, 3, 55, 0
5, 132000, Note_on_c, 3, 51, 88
5, 132420, Note_on_c, 3, 51, 0
5, 132480, Note_on_c, 3, 53, 88
5, 132900, Note_on_c, 3, 53, 0
5, 132960, Note_on_c, 3, 53, 88
5, 133380, Note_on_c, 3, 53, 0
5, 133440, Note_on_c, 3, 51, 88
5, 133860, Note_on_c, 3, 51, 0
5, 133920, Note_on_c, 3, 50, 88
5, 134340, Note_on_c, 3, 50, 0
5, 134400, Note_on_c, 3, 62, 88
5, 134820, Note_on_c, 3, 62, 0
5, 134880, Note_on_c, 3, 58, 88
5, 135300, Note_on_c, 3, 58, 0
5, 135360, Note_on_c, 3, 60, 88
5, 135780, Note_on_c, 3, 60, 0
5, 135840, Note_on_c, 3, 55, 88
5, 136260, Note_on_c, 3, 55, 0
5, 136320, Note_on_c, 3, 57, 88
5, 136740, Note_on_c, 3, 57, 0
5, 136800, Note_on_c, 3, 58, 88
5, 137220, Note_on_c, 3, 58, 0
5, 137280, Note_on_c, 3, 53, 88
5, 137700, Note_on_c, 3, 53, 0
5, 137760, Note_on_c, 3, 41, 88
5, 138180, Note_on_c, 3, 41, 0
5, 138240, Note_on_c, 3, 46, 88
5, 138660, Note_on_c, 3, 46, 0
5, 138720, Note_on_c, 3, 53, 88
5, 139140, Note_on_c, 3, 53, 0
5, 139200, Note_on_c, 3, 58, 88
5, 139620, Note_on_c, 3, 58, 0
5, 210240, Note_on_c, 3, 58, 88
5, 210660, Note_on_c, 3, 58, 0
5, 210720, Note_on_c, 3, 62, 88
5, 211140, Note_on_c, 3, 62, 0
5, 211200, Note_on_c, 3, 58, 88
5, 211620, Note_on_c, 3, 58, 0
5, 211680, Note_on_c, 3, 60, 88
5, 212100, Note_on_c, 3, 60, 0
5, 212160, Note_on_c, 3, 55, 88
5, 212580, Note_on_c, 3, 55, 0
5, 212640, Note_on_c, 3, 57, 88
5, 213060, Note_on_c, 3, 57, 0
5, 213120, Note_on_c, 3, 58, 88
5, 213540, Note_on_c, 3, 58, 0
5, 213600, Note_on_c, 3, 55, 88
5, 214020, Note_on_c, 3, 55, 0
5, 214080, Note_on_c, 3, 51, 88
5, 214500, Note_on_c, 3, 51, 0
5, 214560, Note_on_c, 3, 53, 88
5, 214980, Note_on_c, 3, 53, 0
5, 215040, Note_on_c, 3, 53, 88
5, 215460, Note_on_c, 3, 53, 0
5, 215520, Note_on_c, 3, 51, 88
5, 215940, Note_on_c, 3, 51, 0
5, 216000, Note_on_c, 3, 50, 88
5, 216420, Note_on_c, 3, 50, 0
5, 216480, Note_on_c, 3, 62, 88
5, 216900, Note_on_c, 3, 62, 0
5, 216960, Note_on_c, 3, 58, 88
5, 217380, Note_on_c, 3, 58, 0
5, 217440, Note_on_c, 3, 60, 88
5, 217860, Note_on_c, 3, 60, 0
5, 217920, Note_on_c, 3, 55, 88
5, 218340, Note_on_c, 3, 55, 0
5, 218400, Note_on_c, 3, 57, 88
5, 218820, Note_on_c, 3, 57, 0
5, 218880, Note_on_c, 3, 58, 88
5, 219300, Note_on_c, 3, 58, 0
5, 219360, Note_on_c, 3, 53, 88
5, 219780, Note_on_c, 3, 53, 0
5, 219840, Note_on_c, 3, 41, 88
5, 220260, Note_on_c, 3, 41, 0
5, 220320, Note_on_c, 3, 50, 88
5, 220527, Note_on_c, 3, 50, 0
5, 220560, Note_on_c, 3, 50, 88
5, 220767, Note_on_c, 3, 50, 0
5, 220800, Note_on_c, 3, 50, 88
5, 221007, Note_on_c, 3, 50, 0
5, 221040, Note_on_c, 3, 50, 88
5, 221247, Note_on_c, 3, 50, 0
5, 221280, Note_on_c, 3, 50, 88
5, 221487, Note_on_c, 3, 50, 0
5, 221520, Note_on_c, 3, 50, 88
5, 221727, Note_on_c, 3, 50, 0
5, 221760, Note_on_c, 3, 51, 88
5, 221967, Note_on_c, 3, 51, 0
5, 222000, Note_on_c, 3, 51, 88
5, 222207, Note_on_c, 3, 51, 0
5, 222240, Note_on_c, 3, 53, 88
5, 222447, Note_on_c, 3, 53, 0
5, 222480, Note_on_c, 3, 53, 88
5, 222687, Note_on_c, 3, 53, 0
5, 222720, Note_on_c, 3, 51, 88
5, 222927, Note_on_c, 3, 51, 0
5, 222960, Note_on_c, 3, 51, 88
5, 223167, Note_on_c, 3, 51, 0
5, 223200, Note_on_c, 3, 50, 88
5, 223407, Note_on_c, 3, 50, 0
5, 223440, Note_on_c, 3, 50, 88
5, 223647, Note_on_c, 3, 50, 0
5, 223680, Note_on_c, 3, 50, 88
5, 223887, Note_on_c, 3, 50, 0
5, 223920, Note_on_c, 3, 50, 88
5, 224127, Note_on_c, 3, 50, 0
5, 224160, Note_on_c, 3, 50, 88
5, 224367, Note_on_c, 3, 50, 0
5, 224400, Note_on_c, 3, 50, 88
5, 224607, Note_on_c, 3, 50, 0
5, 224640, Note_on_c, 3, 51, 88
5, 224847, Note_on_c, 3, 51, 0
5, 224880, Note_on_c, 3, 51, 88
5, 225087, Note_on_c, 3, 51, 0
5, 225120, Note_on_c, 3, 53, 88
5, 225327, Note_on_c, 3, 53, 0
5, 225360, Note_on_c, 3, 53, 88
5, 225567, Note_on_c, 3, 53, 0
5, 225600, Note_on_c, 3, 41, 88
5, 225807, Note_on_c, 3, 41, 0
5, 225840, Note_on_c, 3, 41, 88
5, 226047, Note_on_c, 3, 41, 0
5, 226080, Note_on_c, 3, 46, 88
5, 226287, Note_on_c, 3, 46, 0
5, 226320, Note_on_c, 3, 46, 88
5, 226527, Note_on_c, 3, 46, 0
5, 226560, Note_on_c, 3, 50, 88
5, 226767, Note_on_c, 3, 50, 0
5, 226800, Note_on_c, 3, 46, 88
5, 227007, Note_on_c, 3, 46, 0
5, 227040, Note_on_c, 3, 50, 88
5, 227247, Note_on_c, 3, 50, 0
5, 227280, Note_on_c, 3, 53, 88
5, 227487, Note_on_c, 3, 53, 0
5, 227520, Note_on_c, 3, 58, 88
5, 227940, Note_on_c, 3, 58, 0
5, 228000, Note_on_c, 3, 46, 88
5, 228420, Note_on_c, 3, 46, 0
5, 228420, End_track
6, 0, Start_track
6, 0, Title_t, "Violin I"
6, 0, Control_c, 4, 0, 0
6, 0, Control_c, 4, 7, 110
6, 0, Control_c, 4, 10, 30
6, 0, Control_c, 4, 91, 73
6, 0, Control_c, 4, 93, 79
6, 1, Control_c, 4, 32, 1
6, 2, Program_c, 4, 48
6, 1440, Note_on_c, 4, 62, 88
6, 1440, Note_on_c, 4, 70, 88
6, 2340, Note_on_c, 4, 70, 0
6, 2340, Note_on_c, 4, 62, 0
6, 2400, Note_on_c, 4, 72, 88
6, 2607, Note_on_c, 4, 72, 0
6, 2640, Note_on_c, 4, 74, 88
6, 2847, Note_on_c, 4, 74, 0
6, 2880, Note_on_c, 4, 77, 88
6, 3087, Note_on_c, 4, 77, 0
6, 3120, Note_on_c, 4, 75, 88
6, 3327, Note_on_c, 4, 75, 0
6, 3360, Note_on_c, 4, 75, 88
6, 4260, Note_on_c, 4, 75, 0
6, 4320, Note_on_c, 4, 74, 88
6, 4527, Note_on_c, 4, 74, 0
6, 4560, Note_on_c, 4, 77, 88
6, 4767, Note_on_c, 4, 77, 0
6, 4800, Note_on_c, 4, 70, 88
6, 5007, Note_on_c, 4, 70, 0
6, 5040, Note_on_c, 4, 74, 88
6, 5247, Note_on_c, 4, 74, 0
6, 5280, Note_on_c, 4, 67, 88
6, 5487, Note_on_c, 4, 67, 0
6, 5520, Note_on_c, 4, 72, 88
6, 5727, Note_on_c, 4, 72, 0
6, 5760, Note_on_c, 4, 70, 88
6, 5967, Note_on_c, 4, 70, 0
6, 6000, Note_on_c, 4, 69, 88
6, 6207, Note_on_c, 4, 69, 0
6, 6240, Note_on_c, 4, 67, 88
6, 6447, Note_on_c, 4, 67, 0
6, 6480, Note_on_c, 4, 65, 88
6, 6687, Note_on_c, 4, 65, 0
6, 6720, Note_on_c, 4, 67, 88
6, 6927, Note_on_c, 4, 67, 0
6, 6960, Note_on_c, 4, 69, 88
6, 7167, Note_on_c, 4, 69, 0
6, 7200, Note_on_c, 4, 62, 88
6, 7200, Note_on_c, 4, 70, 88
6, 8100, Note_on_c, 4, 70, 0
6, 8100, Note_on_c, 4, 62, 0
6, 8160, Note_on_c, 4, 72, 88
6, 8367, Note_on_c, 4, 72, 0
6, 8400, Note_on_c, 4, 74, 88
6, 8607, Note_on_c, 4, 74, 0
6, 8640, Note_on_c, 4, 77, 88
6, 8847, Note_on_c, 4, 77, 0
6, 8880, Note_on_c, 4, 75, 88
6, 9087, Note_on_c, 4, 75, 0
6, 9120, Note_on_c, 4, 75, 88
6, 10020, Note_on_c, 4, 75, 0
6, 10080, Note_on_c, 4, 74, 88
6, 10390, Note_on_c, 4, 74, 0
6, 10440, Note_on_c, 4, 75, 88
6, 10490, Note_on_c, 4, 75, 0
6, 10500, Note_on_c, 4, 77, 88
6, 10550, Note_on_c, 4, 77, 0
6, 10560, Note_on_c, 4, 70, 88
6, 10980, Note_on_c, 4, 70, 0
6, 11040, Note_on_c, 4, 69, 88
6, 11460, Note_on_c, 4, 69, 0
6, 11520, Note_on_c, 4, 62, 88
6, 11520, Note_on_c, 4, 70, 88
6, 12420, Note_on_c, 4, 70, 0
6, 12420, Note_on_c, 4, 62, 0
6, 12960, Note_on_c, 4, 62, 88
6, 12960, Note_on_c, 4, 70, 88
6, 13860, Note_on_c, 4, 70, 0
6, 13860, Note_on_c, 4, 62, 0
6, 13920, Note_on_c, 4, 72, 88
6, 14127, Note_on_c, 4, 72, 0
6, 14160, Note_on_c, 4, 74, 88
6, 14367, Note_on_c, 4, 74, 0
6, 14400, Note_on_c, 4, 77, 88
6, 14607, Note_on_c, 4, 77, 0
6, 14640, Note_on_c, 4, 75, 88
6, 14847, Note_on_c, 4, 75, 0
6, 14880, Note_on_c, 4, 75, 88
6, 15780, Note_on_c, 4, 75, 0
6, 15840, Note_on_c, 4, 74, 88
6, 16047, Note_on_c, 4, 74, 0
6, 16080, Note_on_c, 4, 77, 88
6, 16287, Note_on_c, 4, 77, 0
6, 16320, Note_on_c, 4, 70, 88
6, 16527, Note_on_c, 4, 70, 0
6, 16560, Note_on_c, 4, 74, 88
6, 16767, Note_on_c, 4, 74, 0
6, 16800, Note_on_c, 4, 67, 88
6, 17007, Note_on_c, 4, 67, 0
6, 17040, Note_on_c, 4, 72, 88
6, 17247, Note_on_c, 4, 72, 0
6, 17280, Note_on_c, 4, 70, 88
6, 17487, Note_on_c, 4, 70, 0
6, 17520, Note_on_c, 4, 69, 88
6, 17727, Note_on_c, 4, 69, 0
6, 17760, Note_on_c, 4, 67, 88
6, 17967, Note_on_c, 4, 67, 0
6, 18000, Note_on_c, 4, 65, 88
6, 18207, Note_on_c, 4, 65, 0
6, 18240, Note_on_c, 4, 67, 88
6, 18447, Note_on_c, 4, 67, 0
6, 18480, Note_on_c, 4, 69, 88
6, 18687, Note_on_c, 4, 69, 0
6, 18720, Note_on_c, 4, 62, 88
6, 18720, Note_on_c, 4, 70, 88
6, 19620, Note_on_c, 4, 70, 0
6, 19620, Note_on_c, 4, 62, 0
6, 19680, Note_on_c, 4, 72, 88
6, 19887, Note_on_c, 4, 72, 0
6, 19920, Note_on_c, 4, 74, 88
6, 20127, Note_on_c, 4, 74, 0
6, 20160, Note_on_c, 4, 77, 88
6, 20367, Note_on_c, 4, 77, 0
6, 20400, Note_on_c, 4, 75, 88
6, 20607, Note_on_c, 4, 75, 0
6, 20640, Note_on_c, 4, 75, 88
6, 21540, Note_on_c, 4, 75, 0
6, 21600, Note_on_c, 4, 74, 88
6, 21910, Note_on_c, 4, 74, 0
6, 21960, Note_on_c, 4, 75, 88
6, 22010, Note_on_c, 4, 75, 0
6, 22020, Note_on_c, 4, 77, 88
6, 22070, Note_on_c, 4, 77, 0
6, 22080, Note_on_c, 4, 70, 88
6, 22500, Note_on_c, 4, 70, 0
6, 22560, Note_on_c, 4, 69, 88
6, 22980, Note_on_c, 4, 69, 0
6, 23040, Note_on_c, 4, 62, 88
6, 23040, Note_on_c, 4, 70, 88
6, 23940, Note_on_c, 4, 70, 0
6, 23940, Note_on_c, 4, 62, 0
6, 24480, Note_on_c, 4, 72, 88
6, 25380, Note_on_c, 4, 72, 0
6, 25440, Note_on_c, 4, 74, 88
6, 25647, Note_on_c, 4, 74, 0
6, 25680, Note_on_c, 4, 70, 88
6, 25887, Note_on_c, 4, 70, 0
6, 25920, Note_on_c, 4, 74, 88
6, 26127, Note_on_c, 4, 74, 0
6, 26160, Note_on_c, 4, 75, 88
6, 26367, Note_on_c, 4, 75, 0
6, 26400, Note_on_c, 4, 75, 88
6, 27300, Note_on_c, 4, 75, 0
6, 27360, Note_on_c, 4, 74, 88
6, 28260, Note_on_c, 4, 74, 0
6, 28320, Note_on_c, 4, 75, 88
6, 28527, Note_on_c, 4, 75, 0
6, 28560, Note_on_c, 4, 72, 88
6, 28767, Note_on_c, 4, 72, 0
6, 28800, Note_on_c, 4, 76, 88
6, 29007, Note_on_c, 4, 76, 0
6, 29040, Note_on_c, 4, 77, 88
6, 29247, Note_on_c, 4, 77, 0
6, 29280, Note_on_c, 4, 77, 88
6, 30180, Note_on_c, 4, 77, 0
6, 30240, Note_on_c, 4, 62, 88
6, 30240, Note_on_c, 4, 70, 88
6, 31140, Note_on_c, 4, 70, 0
6, 31140, Note_on_c, 4, 62, 0
6, 31200, Note_on_c, 4, 72, 88
6, 31407, Note_on_c, 4, 72, 0
6, 31440, Note_on_c, 4, 74, 88
6, 31647, Note_on_c, 4, 74, 0
6, 31680, Note_on_c, 4, 77, 88
6, 31887, Note_on_c, 4, 77, 0
6, 31920, Note_on_c, 4, 75, 88
6, 32127, Note_on_c, 4, 75, 0
6, 32160, Note_on_c, 4, 75, 88
6, 33060, Note_on_c, 4, 75, 0
6, 33120, Note_on_c, 4, 74, 88
6, 33327, Note_on_c, 4, 74, 0
6, 33360, Note_on_c, 4, 77, 88
6, 33567, Note_on_c, 4, 77, 0
6, 33600, Note_on_c, 4, 70, 88
6, 33807, Note_on_c, 4, 70, 0
6, 33840, Note_on_c, 4, 74, 88
6, 34047, Note_on_c, 4, 74, 0
6, 34080, Note_on_c, 4, 67, 88
6, 34287, Note_on_c, 4, 67, 0
6, 34320, Note_on_c, 4, 72, 88
6, 34527, Note_on_c, 4, 72, 0
6, 34560, Note_on_c, 4, 70, 88
6, 34767, Note_on_c, 4, 70, 0
6, 34800, Note_on_c, 4, 69, 88
6, 35007, Note_on_c, 4, 69, 0
6, 35040, Note_on_c, 4, 67, 88
6, 35247, Note_on_c, 4, 67, 0
6, 35280, Note_on_c, 4, 65, 88
6, 35487, Note_on_c, 4, 65, 0
6, 35520, Note_on_c, 4, 67, 88
6, 35727, Note_on_c, 4, 67, 0
6, 35760, Note_on_c, 4, 69, 88
6, 35967, Note_on_c, 4, 69, 0
6, 36000, Note_on_c, 4, 62, 88
6, 36000, Note_on_c, 4, 70, 88
6, 36900, Note_on_c, 4, 70, 0
6, 36900, Note_on_c, 4, 62, 0
6, 36960, Note_on_c, 4, 72, 88
6, 37167, Note_on_c, 4, 72, 0
6, 37200, Note_on_c, 4, 74, 88
6, 37407, Note_on_c, 4, 74, 0
6, 37440, Note_on_c, 4, 77, 88
6, 37647, Note_on_c, 4, 77, 0
6, 37680, Note_on_c, 4, 75, 88
6, 37887, Note_on_c, 4, 75, 0
6, 37920, Note_on_c, 4, 75, 88
6, 38820, Note_on_c, 4, 75, 0
6, 38880, Note_on_c, 4, 74, 88
6, 39190, Note_on_c, 4, 74, 0
6, 39240, Note_on_c, 4, 75, 88
6, 39290, Note_on_c, 4, 75, 0
6, 39300, Note_on_c, 4, 77, 88
6, 39350, Note_on_c, 4, 77, 0
6, 39360, Note_on_c, 4, 70, 88
6, 39780, Note_on_c, 4, 70, 0
6, 39840, Note_on_c, 4, 69, 88
6, 40260, Note_on_c, 4, 69, 0
6, 40320, Note_on_c, 4, 62, 88
6, 40320, Note_on_c, 4, 70, 88
6, 41220, Note_on_c, 4, 70, 0
6, 41220, Note_on_c, 4, 62, 0
6, 41760, Note_on_c, 4, 65, 49
6, 42180, Note_on_c, 4, 65, 0
6, 42240, Note_on_c, 4, 77, 49
6, 42550, Note_on_c, 4, 77, 0
6, 42600, Note_on_c, 4, 74, 49
6, 42702, Note_on_c, 4, 74, 0
6, 42720, Note_on_c, 4, 77, 49
6, 43140, Note_on_c, 4, 77, 0
6, 43200, Note_on_c, 4, 63, 49
6, 43620, Note_on_c, 4, 63, 0
6, 43680, Note_on_c, 4, 75, 49
6, 43990, Note_on_c, 4, 75, 0
6, 44040, Note_on_c, 4, 72, 49
6, 44142, Note_on_c, 4, 72, 0
6, 44160, Note_on_c, 4, 75, 49
6, 44580, Note_on_c, 4, 75, 0
6, 44640, Note_on_c, 4, 74, 49
6, 45060, Note_on_c, 4, 74, 0
6, 45120, Note_on_c, 4, 79, 49
6, 45540, Note_on_c, 4, 79, 0
6, 45600, Note_on_c, 4, 70, 49
6, 46020, Note_on_c, 4, 70, 0
6, 46080, Note_on_c, 4, 69, 49
6, 46220, Note_on_c, 4, 69, 0
6, 46237, Note_on_c, 4, 70, 49
6, 46379, Note_on_c, 4, 70, 0
6, 46397, Note_on_c, 4, 72, 49
6, 46537, Note_on_c, 4, 72, 0
6, 46560, Note_on_c, 4, 70, 49
6, 46700, Note_on_c, 4, 70, 0
6, 46717, Note_on_c, 4, 69, 49
6, 46859, Note_on_c, 4, 69, 0
6, 46877, Note_on_c, 4, 67, 49
6, 47017, Note_on_c, 4, 67, 0
6, 47040, Note_on_c, 4, 65, 49
6, 47460, Note_on_c, 4, 65, 0
6, 47520, Note_on_c, 4, 65, 49
6, 47940, Note_on_c, 4, 65, 0
6, 48000, Note_on_c, 4, 77, 49
6, 48310, Note_on_c, 4, 77, 0
6, 48360, Note_on_c, 4, 74, 49
6, 48462, Note_on_c, 4, 74, 0
6, 48480, Note_on_c, 4, 77, 49
6, 48900, Note_on_c, 4, 77, 0
6, 48960, Note_on_c, 4, 63, 49
6, 49380, Note_on_c, 4, 63, 0
6, 49440, Note_on_c, 4, 75, 49
6, 49750, Note_on_c, 4, 75, 0
6, 49800, Note_on_c, 4, 72, 49
6, 49902, Note_on_c, 4, 72, 0
6, 49920, Note_on_c, 4, 75, 49
6, 50340, Note_on_c, 4, 75, 0
6, 50400, Note_on_c, 4, 74, 49
6, 50820, Note_on_c, 4, 74, 0
6, 50880, Note_on_c, 4, 74, 49
6, 50930, Note_on_c, 4, 74, 0
6, 50940, Note_on_c, 4, 72, 49
6, 50990, Note_on_c, 4, 72, 0
6, 51000, Note_on_c, 4, 74, 49
6, 51050, Note_on_c, 4, 74, 0
6, 51060, Note_on_c, 4, 72, 49
6, 51110, Note_on_c, 4, 72, 0
6, 51120, Note_on_c, 4, 74, 49
6, 51170, Note_on_c, 4, 74, 0
6, 51180, Note_on_c, 4, 72, 49
6, 51230, Note_on_c, 4, 72, 0
6, 51240, Note_on_c, 4, 74, 49
6, 51290, Note_on_c, 4, 74, 0
6, 51300, Note_on_c, 4, 72, 49
6, 51350, Note_on_c, 4, 72, 0
6, 51360, Note_on_c, 4, 74, 49
6, 51410, Note_on_c, 4, 74, 0
6, 51420, Note_on_c, 4, 72, 49
6, 51470, Note_on_c, 4, 72, 0
6, 51480, Note_on_c, 4, 74, 49
6, 51530, Note_on_c, 4, 74, 0
6, 51540, Note_on_c, 4, 72, 49
6, 51590, Note_on_c, 4, 72, 0
6, 51600, Note_on_c, 4, 74, 49
6, 51650, Note_on_c, 4, 74, 0
6, 51660, Note_on_c, 4, 72, 49
6, 51710, Note_on_c, 4, 72, 0
6, 51720, Note_on_c, 4, 70, 49
6, 51770, Note_on_c, 4, 70, 0
6, 51780, Note_on_c, 4, 72, 49
6, 51830, Note_on_c, 4, 72, 0
6, 51840, Note_on_c, 4, 70, 49
6, 51980, Note_on_c, 4, 70, 0
6, 51997, Note_on_c, 4, 65, 49
6, 52139, Note_on_c, 4, 65, 0
6, 52157, Note_on_c, 4, 63, 49
6, 52297, Note_on_c, 4, 63, 0
6, 52320, Note_on_c, 4, 62, 49
6, 52460, Note_on_c, 4, 62, 0
6, 52477, Note_on_c, 4, 63, 49
6, 52619, Note_on_c, 4, 63, 0
6, 52637, Note_on_c, 4, 65, 49
6, 52777, Note_on_c, 4, 65, 0
6, 52800, Note_on_c, 4, 58, 49
6, 53220, Note_on_c, 4, 58, 0
6, 53520, Note_on_c, 4, 74, 49
6, 53727, Note_on_c, 4, 74, 0
6, 53760, Note_on_c, 4, 74, 49
6, 53967, Note_on_c, 4, 74, 0
6, 54000, Note_on_c, 4, 74, 49
6, 54207, Note_on_c, 4, 74, 0
6, 54240, Note_on_c, 4, 77, 49
6, 54447, Note_on_c, 4, 77, 0
6, 54480, Note_on_c, 4, 74, 49
6, 54687, Note_on_c, 4, 74, 0
6, 54960, Note_on_c, 4, 72, 49
6, 55167, Note_on_c, 4, 72, 0
6, 55200, Note_on_c, 4, 72, 49
6, 55407, Note_on_c, 4, 72, 0
6, 55440, Note_on_c, 4, 72, 49
6, 55647, Note_on_c, 4, 72, 0
6, 55680, Note_on_c, 4, 77, 49
6, 55887, Note_on_c, 4, 77, 0
6, 55920, Note_on_c, 4, 72, 49
6, 56127, Note_on_c, 4, 72, 0
6, 56400, Note_on_c, 4, 70, 49
6, 56607, Note_on_c, 4, 70, 0
6, 56640, Note_on_c, 4, 70, 49
6, 56847, Note_on_c, 4, 70, 0
6, 56880, Note_on_c, 4, 70, 49
6, 57087, Note_on_c, 4, 70, 0
6, 57120, Note_on_c, 4, 79, 49
6, 57327, Note_on_c, 4, 79, 0
6, 57360, Note_on_c, 4, 70, 49
6, 57567, Note_on_c, 4, 70, 0
6, 57600, Note_on_c, 4, 70, 49
6, 57807, Note_on_c, 4, 70, 0
6, 57840, Note_on_c, 4, 69, 49
6, 58047, Note_on_c, 4, 69, 0
6, 58080, Note_on_c, 4, 67, 49
6, 58500, Note_on_c, 4, 67, 0
6, 59040, Note_on_c, 4, 69, 49
6, 59142, Note_on_c, 4, 69, 0
6, 59160, Note_on_c, 4, 70, 49
6, 59262, Note_on_c, 4, 70, 0
6, 59280, Note_on_c, 4, 72, 49
6, 59382, Note_on_c, 4, 72, 0
6, 59400, Note_on_c, 4, 69, 49
6, 59502, Note_on_c, 4, 69, 0
6, 59520, Note_on_c, 4, 77, 49
6, 59727, Note_on_c, 4, 77, 0
6, 59760, Note_on_c, 4, 77, 49
6, 59967, Note_on_c, 4, 77, 0
6, 60000, Note_on_c, 4, 79, 49
6, 60050, Note_on_c, 4, 79, 0
6, 60060, Note_on_c, 4, 77, 49
6, 60110, Note_on_c, 4, 77, 0
6, 60120, Note_on_c, 4, 79, 49
6, 60170, Note_on_c, 4, 79, 0
6, 60180, Note_on_c, 4, 77, 49
6, 60230, Note_on_c, 4, 77, 0
6, 60240, Note_on_c, 4, 79, 49
6, 60290, Note_on_c, 4, 79, 0
6, 60300, Note_on_c, 4, 77, 49
6, 60350, Note_on_c, 4, 77, 0
6, 60360, Note_on_c, 4, 76, 49
6, 60410, Note_on_c, 4, 76, 0
6, 60420, Note_on_c, 4, 77, 49
6, 60470, Note_on_c, 4, 77, 0
6, 60480, Note_on_c, 4, 76, 49
6, 60582, Note_on_c, 4, 76, 0
6, 60600, Note_on_c, 4, 77, 49
6, 60702, Note_on_c, 4, 77, 0
6, 60720, Note_on_c, 4, 79, 49
6, 60822, Note_on_c, 4, 79, 0
6, 60840, Note_on_c, 4, 76, 49
6, 60942, Note_on_c, 4, 76, 0
6, 60960, Note_on_c, 4, 70, 49
6, 61167, Note_on_c, 4, 70, 0
6, 61200, Note_on_c, 4, 70, 49
6, 61407, Note_on_c, 4, 70, 0
6, 61440, Note_on_c, 4, 72, 49
6, 61490, Note_on_c, 4, 72, 0
6, 61500, Note_on_c, 4, 70, 49
6, 61550, Note_on_c, 4, 70, 0
6, 61560, Note_on_c, 4, 72, 49
6, 61610, Note_on_c, 4, 72, 0
6, 61620, Note_on_c, 4, 70, 49
6, 61670, Note_on_c, 4, 70, 0
6, 61680, Note_on_c, 4, 72, 49
6, 61730, Note_on_c, 4, 72, 0
6, 61740, Note_on_c, 4, 70, 49
6, 61790, Note_on_c, 4, 70, 0
6, 61800, Note_on_c, 4, 69, 49
6, 61850, Note_on_c, 4, 69, 0
6, 61860, Note_on_c, 4, 70, 49
6, 61910, Note_on_c, 4, 70, 0
6, 61920, Note_on_c, 4, 69, 49
6, 62022, Note_on_c, 4, 69, 0
6, 62040, Note_on_c, 4, 70, 49
6, 62142, Note_on_c, 4, 70, 0
6, 62160, Note_on_c, 4, 72, 49
6, 62262, Note_on_c, 4, 72, 0
6, 62280, Note_on_c, 4, 69, 49
6, 62382, Note_on_c, 4, 69, 0
6, 62400, Note_on_c, 4, 77, 49
6, 62607, Note_on_c, 4, 77, 0
6, 62640, Note_on_c, 4, 77, 49
6, 62847, Note_on_c, 4, 77, 0
6, 62880, Note_on_c, 4, 79, 49
6, 62930, Note_on_c, 4, 79, 0
6, 62940, Note_on_c, 4, 77, 49
6, 62990, Note_on_c, 4, 77, 0
6, 63000, Note_on_c, 4, 79, 49
6, 63050, Note_on_c, 4, 79, 0
6, 63060, Note_on_c, 4, 77, 49
6, 63110, Note_on_c, 4, 77, 0
6, 63120, Note_on_c, 4, 79, 49
6, 63170, Note_on_c, 4, 79, 0
6, 63180, Note_on_c, 4, 77, 49
6, 63230, Note_on_c, 4, 77, 0
6, 63240, Note_on_c, 4, 76, 49
6, 63290, Note_on_c, 4, 76, 0
6, 63300, Note_on_c, 4, 77, 49
6, 63350, Note_on_c, 4, 77, 0
6, 63360, Note_on_c, 4, 76, 49
6, 63462, Note_on_c, 4, 76, 0
6, 63480, Note_on_c, 4, 77, 49
6, 63582, Note_on_c, 4, 77, 0
6, 63600, Note_on_c, 4, 79, 49
6, 63702, Note_on_c, 4, 79, 0
6, 63720, Note_on_c, 4, 76, 49
6, 63822, Note_on_c, 4, 76, 0
6, 63840, Note_on_c, 4, 70, 49
6, 64047, Note_on_c, 4, 70, 0
6, 64080, Note_on_c, 4, 70, 49
6, 64287, Note_on_c, 4, 70, 0
6, 64320, Note_on_c, 4, 72, 49
6, 64370, Note_on_c, 4, 72, 0
6, 64380, Note_on_c, 4, 70, 49
6, 64430, Note_on_c, 4, 70, 0
6, 64440, Note_on_c, 4, 72, 49
6, 64490, Note_on_c, 4, 72, 0
6, 64500, Note_on_c, 4, 70, 49
6, 64550, Note_on_c, 4, 70, 0
6, 64560, Note_on_c, 4, 72, 49
6, 64610, Note_on_c, 4, 72, 0
6, 64620, Note_on_c, 4, 70, 49
6, 64670, Note_on_c, 4, 70, 0
6, 64680, Note_on_c, 4, 69, 49
6, 64730, Note_on_c, 4, 69, 0
6, 64740, Note_on_c, 4, 70, 49
6, 64790, Note_on_c, 4, 70, 0
6, 64800, Note_on_c, 4, 69, 49
6, 65007, Note_on_c, 4, 69, 0
6, 65280, Note_on_c, 4, 72, 49
6, 65487, Note_on_c, 4, 72, 0
6, 65760, Note_on_c, 4, 77, 49
6, 65967, Note_on_c, 4, 77, 0
6, 66240, Note_on_c, 4, 67, 49
6, 66660, Note_on_c, 4, 67, 0
6, 66720, Note_on_c, 4, 70, 49
6, 67140, Note_on_c, 4, 70, 0
6, 67200, Note_on_c, 4, 74, 49
6, 67620, Note_on_c, 4, 74, 0
6, 67680, Note_on_c, 4, 72, 49
6, 67990, Note_on_c, 4, 72, 0
6, 68040, Note_on_c, 4, 74, 49
6, 68142, Note_on_c, 4, 74, 0
6, 68160, Note_on_c, 4, 65, 49
6, 68580, Note_on_c, 4, 65, 0
6, 68640, Note_on_c, 4, 64, 49
6, 69060, Note_on_c, 4, 64, 0
6, 69120, Note_on_c, 4, 72, 49
6, 69327, Note_on_c, 4, 72, 0
6, 69600, Note_on_c, 4, 77, 49
6, 69807, Note_on_c, 4, 77, 0
6, 70080, Note_on_c, 4, 77, 49
6, 70287, Note_on_c, 4, 77, 0
6, 70560, Note_on_c, 4, 67, 49
6, 70980, Note_on_c, 4, 67, 0
6, 71040, Note_on_c, 4, 70, 49
6, 71460, Note_on_c, 4, 70, 0
6, 71520, Note_on_c, 4, 74, 49
6, 71940, Note_on_c, 4, 74, 0
6, 73320, Note_on_c, 4, 74, 49
6, 73422, Note_on_c, 4, 74, 0
6, 73440, Note_on_c, 4, 72, 49
6, 73750, Note_on_c, 4, 72, 0
6, 73800, Note_on_c, 4, 74, 49
6, 73902, Note_on_c, 4, 74, 0
6, 73920, Note_on_c, 4, 65, 49
6, 74340, Note_on_c, 4, 65, 0
6, 74400, Note_on_c, 4, 64, 49
6, 74820, Note_on_c, 4, 64, 0
6, 74880, Note_on_c, 4, 64, 49
6, 75300, Note_on_c, 4, 64, 0
6, 75360, Note_on_c, 4, 65, 49
6, 75670, Note_on_c, 4, 65, 0
6, 75720, Note_on_c, 4, 67, 49
6, 75822, Note_on_c, 4, 67, 0
6, 75840, Note_on_c, 4, 69, 49
6, 75890, Note_on_c, 4, 69, 0
6, 75900, Note_on_c, 4, 67, 49
6, 75950, Note_on_c, 4, 67, 0
6, 75960, Note_on_c, 4, 69, 49
6, 76010, Note_on_c, 4, 69, 0
6, 76020, Note_on_c, 4, 67, 49
6, 76070, Note_on_c, 4, 67, 0
6, 76080, Note_on_c, 4, 69, 49
6, 76130, Note_on_c, 4, 69, 0
6, 76140, Note_on_c, 4, 67, 49
6, 76190, Note_on_c, 4, 67, 0
6, 76200, Note_on_c, 4, 65, 49
6, 76250, Note_on_c, 4, 65, 0
6, 76260, Note_on_c, 4, 67, 49
6, 76310, Note_on_c, 4, 67, 0
6, 76320, Note_on_c, 4, 68, 49
6, 76740, Note_on_c, 4, 68, 0
6, 76800, Note_on_c, 4, 72, 49
6, 77220, Note_on_c, 4, 72, 0
6, 77280, Note_on_c, 4, 77, 49
6, 78180, Note_on_c, 4, 77, 0
6, 78240, Note_on_c, 4, 74, 49
6, 78660, Note_on_c, 4, 74, 0
6, 78720, Note_on_c, 4, 79, 49
6, 79620, Note_on_c, 4, 79, 0
6, 79680, Note_on_c, 4, 72, 49
6, 80100, Note_on_c, 4, 72, 0
6, 80160, Note_on_c, 4, 75, 49
6, 81060, Note_on_c, 4, 75, 0
6, 81120, Note_on_c, 4, 72, 49
6, 81540, Note_on_c, 4, 72, 0
6, 81600, Note_on_c, 4, 77, 49
6, 82500, Note_on_c, 4, 77, 0
6, 82560, Note_on_c, 4, 74, 49
6, 82980, Note_on_c, 4, 74, 0
6, 83040, Note_on_c, 4, 75, 49
6, 83350, Note_on_c, 4, 75, 0
6, 83400, Note_on_c, 4, 72, 49
6, 83502, Note_on_c, 4, 72, 0
6, 83520, Note_on_c, 4, 70, 49
6, 84420, Note_on_c, 4, 70, 0
6, 84480, Note_on_c, 4, 69, 49
6, 84900, Note_on_c, 4, 69, 0
6, 84960, Note_on_c, 4, 62, 88
6, 84960, Note_on_c, 4, 70, 88
6, 85860, Note_on_c, 4, 70, 0
6, 85860, Note_on_c, 4, 62, 0
6, 85920, Note_on_c, 4, 72, 88
6, 86127, Note_on_c, 4, 72, 0
6, 86160, Note_on_c, 4, 74, 88
6, 86367, Note_on_c, 4, 74, 0
6, 86400, Note_on_c, 4, 77, 88
6, 86607, Note_on_c, 4, 77, 0
6, 86640, Note_on_c, 4, 75, 88
6, 86847, Note_on_c, 4, 75, 0
6, 86880, Note_on_c, 4, 75, 88
6, 87780, Note_on_c, 4, 75, 0
6, 87840, Note_on_c, 4, 74, 88
6, 88047, Note_on_c, 4, 74, 0
6, 88080, Note_on_c, 4, 77, 88
6, 88287, Note_on_c, 4, 77, 0
6, 88320, Note_on_c, 4, 70, 88
6, 88527, Note_on_c, 4, 70, 0
6, 88560, Note_on_c, 4, 74, 88
6, 88767, Note_on_c, 4, 74, 0
6, 88800, Note_on_c, 4, 67, 88
6, 89007, Note_on_c, 4, 67, 0
6, 89040, Note_on_c, 4, 72, 88
6, 89247, Note_on_c, 4, 72, 0
6, 89280, Note_on_c, 4, 70, 88
6, 89487, Note_on_c, 4, 70, 0
6, 89520, Note_on_c, 4, 69, 88
6, 89727, Note_on_c, 4, 69, 0
6, 89760, Note_on_c, 4, 67, 88
6, 89967, Note_on_c, 4, 67, 0
6, 90000, Note_on_c, 4, 65, 88
6, 90207, Note_on_c, 4, 65, 0
6, 90240, Note_on_c, 4, 67, 88
6, 90447, Note_on_c, 4, 67, 0
6, 90480, Note_on_c, 4, 69, 88
6, 90687, Note_on_c, 4, 69, 0
6, 90720, Note_on_c, 4, 62, 88
6, 90720, Note_on_c, 4, 70, 88
6, 91620, Note_on_c, 4, 70, 0
6, 91620, Note_on_c, 4, 62, 0
6, 91680, Note_on_c, 4, 72, 88
6, 91887, Note_on_c, 4, 72, 0
6, 91920, Note_on_c, 4, 74, 88
6, 92127, Note_on_c, 4, 74, 0
6, 92160, Note_on_c, 4, 77, 88
6, 92367, Note_on_c, 4, 77, 0
6, 92400, Note_on_c, 4, 75, 88
6, 92607, Note_on_c, 4, 75, 0
6, 92640, Note_on_c, 4, 75, 88
6, 93540, Note_on_c, 4, 75, 0
6, 93600, Note_on_c, 4, 74, 88
6, 93910, Note_on_c, 4, 74, 0
6, 93960, Note_on_c, 4, 75, 88
6, 94010, Note_on_c, 4, 75, 0
6, 94020, Note_on_c, 4, 77, 88
6, 94070, Note_on_c, 4, 77, 0
6, 94080, Note_on_c, 4, 70, 88
6, 94500, Note_on_c, 4, 70, 0
6, 94560, Note_on_c, 4, 69, 88
6, 94980, Note_on_c, 4, 69, 0
6, 95040, Note_on_c, 4, 62, 88
6, 95040, Note_on_c, 4, 70, 88
6, 95940, Note_on_c, 4, 70, 0
6, 95940, Note_on_c, 4, 62, 0
6, 96480, Note_on_c, 4, 67, 49
6, 96687, Note_on_c, 4, 67, 0
6, 96720, Note_on_c, 4, 67, 49
6, 96927, Note_on_c, 4, 67, 0
6, 96960, Note_on_c, 4, 67, 49
6, 97167, Note_on_c, 4, 67, 0
6, 97200, Note_on_c, 4, 67, 49
6, 97407, Note_on_c, 4, 67, 0
6, 97440, Note_on_c, 4, 67, 49
6, 97647, Note_on_c, 4, 67, 0
6, 97680, Note_on_c, 4, 67, 49
6, 97887, Note_on_c, 4, 67, 0
6, 97920, Note_on_c, 4, 66, 49
6, 98127, Note_on_c, 4, 66, 0
6, 98160, Note_on_c, 4, 66, 49
6, 98367, Note_on_c, 4, 66, 0
6, 98400, Note_on_c, 4, 66, 49
6, 98607, Note_on_c, 4, 66, 0
6, 98640, Note_on_c, 4, 66, 49
6, 98847, Note_on_c, 4, 66, 0
6, 98880, Note_on_c, 4, 66, 49
6, 99087, Note_on_c, 4, 66, 0
6, 99120, Note_on_c, 4, 66, 49
6, 99327, Note_on_c, 4, 66, 0
6, 99360, Note_on_c, 4, 67, 49
6, 99567, Note_on_c, 4, 67, 0
6, 99600, Note_on_c, 4, 67, 49
6, 99807, Note_on_c, 4, 67, 0
6, 99840, Note_on_c, 4, 67, 49
6, 100047, Note_on_c, 4, 67, 0
6, 100080, Note_on_c, 4, 67, 49
6, 100287, Note_on_c, 4, 67, 0
6, 100320, Note_on_c, 4, 67, 49
6, 100527, Note_on_c, 4, 67, 0
6, 100560, Note_on_c, 4, 67, 49
6, 100767, Note_on_c, 4, 67, 0
6, 100800, Note_on_c, 4, 66, 49
6, 101007, Note_on_c, 4, 66, 0
6, 101040, Note_on_c, 4, 66, 49
6, 101247, Note_on_c, 4, 66, 0
6, 101280, Note_on_c, 4, 66, 49
6, 101487, Note_on_c, 4, 66, 0
6, 101520, Note_on_c, 4, 66, 49
6, 101727, Note_on_c, 4, 66, 0
6, 101760, Note_on_c, 4, 66, 49
6, 101967, Note_on_c, 4, 66, 0
6, 102000, Note_on_c, 4, 66, 49
6, 102207, Note_on_c, 4, 66, 0
6, 102240, Note_on_c, 4, 67, 49
6, 102447, Note_on_c, 4, 67, 0
6, 102480, Note_on_c, 4, 79, 49
6, 102687, Note_on_c, 4, 79, 0
6, 102720, Note_on_c, 4, 79, 49
6, 102927, Note_on_c, 4, 79, 0
6, 102960, Note_on_c, 4, 78, 49
6, 103167, Note_on_c, 4, 78, 0
6, 103440, Note_on_c, 4, 75, 49
6, 103647, Note_on_c, 4, 75, 0
6, 103680, Note_on_c, 4, 75, 49
6, 103887, Note_on_c, 4, 75, 0
6, 103920, Note_on_c, 4, 74, 49
6, 104127, Note_on_c, 4, 74, 0
6, 104160, Note_on_c, 4, 74, 49
6, 104367, Note_on_c, 4, 74, 0
6, 104400, Note_on_c, 4, 72, 49
6, 104607, Note_on_c, 4, 72, 0
6, 104880, Note_on_c, 4, 70, 49
6, 105087, Note_on_c, 4, 70, 0
6, 105120, Note_on_c, 4, 70, 49
6, 105327, Note_on_c, 4, 70, 0
6, 105360, Note_on_c, 4, 69, 49
6, 105567, Note_on_c, 4, 69, 0
6, 105600, Note_on_c, 4, 69, 49
6, 105807, Note_on_c, 4, 69, 0
6, 105840, Note_on_c, 4, 67, 49
6, 106047, Note_on_c, 4, 67, 0
6, 106080, Note_on_c, 4, 67, 49
6, 106287, Note_on_c, 4, 67, 0
6, 106320, Note_on_c, 4, 66, 49
6, 106527, Note_on_c, 4, 66, 0
6, 106560, Note_on_c, 4, 66, 49
6, 107460, Note_on_c, 4, 66, 0
6, 107520, Note_on_c, 4, 67, 49
6, 107940, Note_on_c, 4, 67, 0
6, 108240, Note_on_c, 4, 62, 49
6, 108660, Note_on_c, 4, 62, 0
6, 108720, Note_on_c, 4, 65, 49
6, 109140, Note_on_c, 4, 65, 0
6, 109200, Note_on_c, 4, 68, 49
6, 109407, Note_on_c, 4, 68, 0
6, 109440, Note_on_c, 4, 67, 49
6, 109860, Note_on_c, 4, 67, 0
6, 111120, Note_on_c, 4, 64, 49
6, 111540, Note_on_c, 4, 64, 0
6, 111600, Note_on_c, 4, 67, 49
6, 112020, Note_on_c, 4, 67, 0
6, 112080, Note_on_c, 4, 70, 49
6, 112287, Note_on_c, 4, 70, 0
6, 112320, Note_on_c, 4, 69, 49
6, 112740, Note_on_c, 4, 69, 0
6, 114000, Note_on_c, 4, 66, 49
6, 114420, Note_on_c, 4, 66, 0
6, 114480, Note_on_c, 4, 69, 49
6, 114900, Note_on_c, 4, 69, 0
6, 114960, Note_on_c, 4, 72, 49
6, 115167, Note_on_c, 4, 72, 0
6, 115200, Note_on_c, 4, 70, 49
6, 115620, Note_on_c, 4, 70, 0
6, 116640, Note_on_c, 4, 67, 49
6, 116847, Note_on_c, 4, 67, 0
6, 116880, Note_on_c, 4, 67, 49
6, 117087, Note_on_c, 4, 67, 0
6, 117120, Note_on_c, 4, 67, 49
6, 117327, Note_on_c, 4, 67, 0
6, 117360, Note_on_c, 4, 67, 49
6, 117567, Note_on_c, 4, 67, 0
6, 117600, Note_on_c, 4, 67, 49
6, 117807, Note_on_c, 4, 67, 0
6, 117840, Note_on_c, 4, 67, 49
6, 118047, Note_on_c, 4, 67, 0
6, 118080, Note_on_c, 4, 66, 49
6, 118287, Note_on_c, 4, 66, 0
6, 118320, Note_on_c, 4, 66, 49
6, 118527, Note_on_c, 4, 66, 0
6, 118560, Note_on_c, 4, 66, 49
6, 118767, Note_on_c, 4, 66, 0
6, 118800, Note_on_c, 4, 66, 49
6, 119007, Note_on_c, 4, 66, 0
6, 119040, Note_on_c, 4, 66, 49
6, 119247, Note_on_c, 4, 66, 0
6, 119280, Note_on_c, 4, 66, 49
6, 119487, Note_on_c, 4, 66, 0
6, 119520, Note_on_c, 4, 67, 49
6, 119727, Note_on_c, 4, 67, 0
6, 119760, Note_on_c, 4, 67, 49
6, 119967, Note_on_c, 4, 67, 0
6, 120000, Note_on_c, 4, 67, 49
6, 120207, Note_on_c, 4, 67, 0
6, 120240, Note_on_c, 4, 67, 49
6, 120447, Note_on_c, 4, 67, 0
6, 120480, Note_on_c, 4, 67, 49
6, 120687, Note_on_c, 4, 67, 0
6, 120720, Note_on_c, 4, 67, 49
6, 120927, Note_on_c, 4, 67, 0
6, 120960, Note_on_c, 4, 66, 49
6, 121167, Note_on_c, 4, 66, 0
6, 121200, Note_on_c, 4, 66, 49
6, 121407, Note_on_c, 4, 66, 0
6, 121440, Note_on_c, 4, 66, 49
6, 121647, Note_on_c, 4, 66, 0
6, 121680, Note_on_c, 4, 66, 49
6, 121887, Note_on_c, 4, 66, 0
6, 121920, Note_on_c, 4, 66, 49
6, 122127, Note_on_c, 4, 66, 0
6, 122160, Note_on_c, 4, 66, 49
6, 122367, Note_on_c, 4, 66, 0
6, 122400, Note_on_c, 4, 67, 49
6, 122607, Note_on_c, 4, 67, 0
6, 122640, Note_on_c, 4, 79, 49
6, 122847, Note_on_c, 4, 79, 0
6, 122880, Note_on_c, 4, 79, 49
6, 123087, Note_on_c, 4, 79, 0
6, 123120, Note_on_c, 4, 78, 49
6, 123327, Note_on_c, 4, 78, 0
6, 123600, Note_on_c, 4, 75, 49
6, 123807, Note_on_c, 4, 75, 0
6, 123840, Note_on_c, 4, 75, 49
6, 124047, Note_on_c, 4, 75, 0
6, 124080, Note_on_c, 4, 74, 49
6, 124287, Note_on_c, 4, 74, 0
6, 124320, Note_on_c, 4, 74, 49
6, 124527, Note_on_c, 4, 74, 0
6, 124560, Note_on_c, 4, 72, 49
6, 124767, Note_on_c, 4, 72, 0
6, 125040, Note_on_c, 4, 70, 49
6, 125247, Note_on_c, 4, 70, 0
6, 125280, Note_on_c, 4, 70, 49
6, 125487, Note_on_c, 4, 70, 0
6, 125520, Note_on_c, 4, 69, 49
6, 125727, Note_on_c, 4, 69, 0
6, 125760, Note_on_c, 4, 69, 49
6, 125967, Note_on_c, 4, 69, 0
6, 126000, Note_on_c, 4, 67, 49
6, 126207, Note_on_c, 4, 67, 0
6, 126240, Note_on_c, 4, 67, 49
6, 126447, Note_on_c, 4, 67, 0
6, 126480, Note_on_c, 4, 66, 49
6, 126687, Note_on_c, 4, 66, 0
6, 126720, Note_on_c, 4, 66, 49
6, 127620, Note_on_c, 4, 66, 0
6, 127680, Note_on_c, 4, 67, 49
6, 128100, Note_on_c, 4, 67, 0
6, 128160, Note_on_c, 4, 62, 88
6, 128160, Note_on_c, 4, 70, 88
6, 129060, Note_on_c, 4, 70, 0
6, 129060, Note_on_c, 4, 62, 0
6, 129120, Note_on_c, 4, 72, 88
6, 129327, Note_on_c, 4, 72, 0
6, 129360, Note_on_c, 4, 74, 88
6, 129567, Note_on_c, 4, 74, 0
6, 129600, Note_on_c, 4, 77, 88
6, 129807, Note_on_c, 4, 77, 0
6, 129840, Note_on_c, 4, 75, 88
6, 130047, Note_on_c, 4, 75, 0
6, 130080, Note_on_c, 4, 75, 88
6, 130980, Note_on_c, 4, 75, 0
6, 131040, Note_on_c, 4, 74, 88
6, 131247, Note_on_c, 4, 74, 0
6, 131280, Note_on_c, 4, 70, 88
6, 131280, Note_on_c, 4, 77, 88
6, 131487, Note_on_c, 4, 77, 0
6, 131487, Note_on_c, 4, 70, 0
6, 131520, Note_on_c, 4, 70, 88
6, 131727, Note_on_c, 4, 70, 0
6, 131760, Note_on_c, 4, 74, 88
6, 131967, Note_on_c, 4, 74, 0
6, 132000, Note_on_c, 4, 67, 88
6, 132207, Note_on_c, 4, 67, 0
6, 132240, Note_on_c, 4, 72, 88
6, 132447, Note_on_c, 4, 72, 0
6, 132480, Note_on_c, 4, 70, 88
6, 132687, Note_on_c, 4, 70, 0
6, 132720, Note_on_c, 4, 69, 88
6, 132927, Note_on_c, 4, 69, 0
6, 132960, Note_on_c, 4, 67, 88
6, 133167, Note_on_c, 4, 67, 0
6, 133200, Note_on_c, 4, 65, 88
6, 133407, Note_on_c, 4, 65, 0
6, 133440, Note_on_c, 4, 67, 88
6, 133647, Note_on_c, 4, 67, 0
6, 133680, Note_on_c, 4, 69, 88
6, 133887, Note_on_c, 4, 69, 0
6, 133920, Note_on_c, 4, 62, 88
6, 133920, Note_on_c, 4, 70, 88
6, 134820, Note_on_c, 4, 70, 0
6, 134820, Note_on_c, 4, 62, 0
6, 134880, Note_on_c, 4, 72, 88
6, 135087, Note_on_c, 4, 72, 0
6, 135120, Note_on_c, 4, 74, 88
6, 135327, Note_on_c, 4, 74, 0
6, 135360, Note_on_c, 4, 77, 88
6, 135567, Note_on_c, 4, 77, 0
6, 135600, Note_on_c, 4, 75, 88
6, 135807, Note_on_c, 4, 75, 0
6, 135840, Note_on_c, 4, 75, 88
6, 136740, Note_on_c, 4, 75, 0
6, 136800, Note_on_c, 4, 74, 88
6, 137110, Note_on_c, 4, 74, 0
6, 137160, Note_on_c, 4, 75, 88
6, 137210, Note_on_c, 4, 75, 0
6, 137220, Note_on_c, 4, 77, 88
6, 137270, Note_on_c, 4, 77, 0
6, 137280, Note_on_c, 4, 70, 88
6, 137700, Note_on_c, 4, 70, 0
6, 137760, Note_on_c, 4, 69, 88
6, 138180, Note_on_c, 4, 69, 0
6, 138240, Note_on_c, 4, 62, 88
6, 138240, Note_on_c, 4, 70, 88
6, 139140, Note_on_c, 4, 70, 0
6, 139140, Note_on_c, 4, 62, 0
6, 139680, Note_on_c, 4, 65, 49
6, 140100, Note_on_c, 4, 65, 0
6, 140160, Note_on_c, 4, 77, 49
6, 140470, Note_on_c, 4, 77, 0
6, 140520, Note_on_c, 4, 74, 49
6, 140622, Note_on_c, 4, 74, 0
6, 140640, Note_on_c, 4, 77, 49
6, 141060, Note_on_c, 4, 77, 0
6, 141120, Note_on_c, 4, 63, 49
6, 141540, Note_on_c, 4, 63, 0
6, 141600, Note_on_c, 4, 75, 49
6, 141910, Note_on_c, 4, 75, 0
6, 141960, Note_on_c, 4, 72, 49
6, 142062, Note_on_c, 4, 72, 0
6, 142080, Note_on_c, 4, 75, 49
6, 142500, Note_on_c, 4, 75, 0
6, 142560, Note_on_c, 4, 74, 49
6, 142980, Note_on_c, 4, 74, 0
6, 143040, Note_on_c, 4, 79, 49
6, 143460, Note_on_c, 4, 79, 0
6, 143520, Note_on_c, 4, 70, 49
6, 143940, Note_on_c, 4, 70, 0
6, 144000, Note_on_c, 4, 69, 49
6, 144420, Note_on_c, 4, 69, 0
6, 144480, Note_on_c, 4, 72, 49
6, 144900, Note_on_c, 4, 72, 0
6, 145440, Note_on_c, 4, 65, 49
6, 145860, Note_on_c, 4, 65, 0
6, 145920, Note_on_c, 4, 77, 49
6, 146230, Note_on_c, 4, 77, 0
6, 146280, Note_on_c, 4, 74, 49
6, 146382, Note_on_c, 4, 74, 0
6, 146400, Note_on_c, 4, 77, 49
6, 146820, Note_on_c, 4, 77, 0
6, 146880, Note_on_c, 4, 63, 49
6, 147300, Note_on_c, 4, 63, 0
6, 147360, Note_on_c, 4, 75, 49
6, 147670, Note_on_c, 4, 75, 0
6, 147720, Note_on_c, 4, 72, 49
6, 147822, Note_on_c, 4, 72, 0
6, 147840, Note_on_c, 4, 75, 49
6, 148260, Note_on_c, 4, 75, 0
6, 148320, Note_on_c, 4, 74, 49
6, 148740, Note_on_c, 4, 74, 0
6, 148800, Note_on_c, 4, 74, 49
6, 148850, Note_on_c, 4, 74, 0
6, 148860, Note_on_c, 4, 72, 49
6, 148910, Note_on_c, 4, 72, 0
6, 148920, Note_on_c, 4, 74, 49
6, 148970, Note_on_c, 4, 74, 0
6, 148980, Note_on_c, 4, 72, 49
6, 149030, Note_on_c, 4, 72, 0
6, 149040, Note_on_c, 4, 74, 49
6, 149090, Note_on_c, 4, 74, 0
6, 149100, Note_on_c, 4, 72, 49
6, 149150, Note_on_c, 4, 72, 0
6, 149160, Note_on_c, 4, 74, 49
6, 149210, Note_on_c, 4, 74, 0
6, 149220, Note_on_c, 4, 72, 49
6, 149270, Note_on_c, 4, 72, 0
6, 149280, Note_on_c, 4, 74, 49
6, 149330, Note_on_c, 4, 74, 0
6, 149340, Note_on_c, 4, 72, 49
6, 149390, Note_on_c, 4, 72, 0
6, 149400, Note_on_c, 4, 74, 49
6, 149450, Note_on_c, 4, 74, 0
6, 149460, Note_on_c, 4, 72, 49
6, 149510, Note_on_c, 4, 72, 0
6, 149520, Note_on_c, 4, 74, 49
6, 149570, Note_on_c, 4, 74, 0
6, 149580, Note_on_c, 4, 72, 49
6, 149630, Note_on_c, 4, 72, 0
6, 149640, Note_on_c, 4, 70, 49
6, 149690, Note_on_c, 4, 70, 0
6, 149700, Note_on_c, 4, 72, 49
6, 149750, Note_on_c, 4, 72, 0
6, 149760, Note_on_c, 4, 70, 49
6, 149967, Note_on_c, 4, 70, 0
6, 150000, Note_on_c, 4, 69, 49
6, 150102, Note_on_c, 4, 69, 0
6, 150120, Note_on_c, 4, 67, 49
6, 150222, Note_on_c, 4, 67, 0
6, 150240, Note_on_c, 4, 65, 49
6, 150342, Note_on_c, 4, 65, 0
6, 150360, Note_on_c, 4, 63, 49
6, 150462, Note_on_c, 4, 63, 0
6, 150480, Note_on_c, 4, 62, 49
6, 150582, Note_on_c, 4, 62, 0
6, 150600, Note_on_c, 4, 60, 49
6, 150702, Note_on_c, 4, 60, 0
6, 150720, Note_on_c, 4, 58, 49
6, 151140, Note_on_c, 4, 58, 0
6, 151440, Note_on_c, 4, 70, 49
6, 151647, Note_on_c, 4, 70, 0
6, 151680, Note_on_c, 4, 70, 49
6, 151887, Note_on_c, 4, 70, 0
6, 151920, Note_on_c, 4, 70, 49
6, 152127, Note_on_c, 4, 70, 0
6, 152160, Note_on_c, 4, 77, 49
6, 152367, Note_on_c, 4, 77, 0
6, 152400, Note_on_c, 4, 68, 49
6, 152607, Note_on_c, 4, 68, 0
6, 152880, Note_on_c, 4, 67, 49
6, 153087, Note_on_c, 4, 67, 0
6, 153120, Note_on_c, 4, 70, 49
6, 153327, Note_on_c, 4, 70, 0
6, 153360, Note_on_c, 4, 70, 49
6, 153567, Note_on_c, 4, 70, 0
6, 153600, Note_on_c, 4, 79, 49
6, 153807, Note_on_c, 4, 79, 0
6, 153840, Note_on_c, 4, 70, 49
6, 154047, Note_on_c, 4, 70, 0
6, 154320, Note_on_c, 4, 72, 49
6, 154527, Note_on_c, 4, 72, 0
6, 154560, Note_on_c, 4, 72, 49
6, 154767, Note_on_c, 4, 72, 0
6, 154800, Note_on_c, 4, 72, 49
6, 155007, Note_on_c, 4, 72, 0
6, 155040, Note_on_c, 4, 79, 49
6, 155247, Note_on_c, 4, 79, 0
6, 155280, Note_on_c, 4, 70, 49
6, 155487, Note_on_c, 4, 70, 0
6, 155760, Note_on_c, 4, 69, 49
6, 155967, Note_on_c, 4, 69, 0
6, 156000, Note_on_c, 4, 69, 49
6, 156207, Note_on_c, 4, 69, 0
6, 156240, Note_on_c, 4, 69, 49
6, 156447, Note_on_c, 4, 69, 0
6, 156480, Note_on_c, 4, 72, 49
6, 156687, Note_on_c, 4, 72, 0
6, 156720, Note_on_c, 4, 65, 49
6, 156927, Note_on_c, 4, 65, 0
6, 158400, Note_on_c, 4, 72, 49
6, 158820, Note_on_c, 4, 72, 0
6, 158880, Note_on_c, 4, 73, 49
6, 159300, Note_on_c, 4, 73, 0
6, 159360, Note_on_c, 4, 70, 49
6, 159780, Note_on_c, 4, 70, 0
6, 159840, Note_on_c, 4, 69, 49
6, 159980, Note_on_c, 4, 69, 0
6, 159997, Note_on_c, 4, 72, 49
6, 160139, Note_on_c, 4, 72, 0
6, 160157, Note_on_c, 4, 77, 49
6, 160297, Note_on_c, 4, 77, 0
6, 160320, Note_on_c, 4, 77, 49
6, 161220, Note_on_c, 4, 77, 0
6, 161280, Note_on_c, 4, 72, 49
6, 161700, Note_on_c, 4, 72, 0
6, 161760, Note_on_c, 4, 73, 49
6, 162180, Note_on_c, 4, 73, 0
6, 162240, Note_on_c, 4, 70, 49
6, 162660, Note_on_c, 4, 70, 0
6, 162720, Note_on_c, 4, 69, 49
6, 162860, Note_on_c, 4, 69, 0
6, 162877, Note_on_c, 4, 72, 49
6, 163019, Note_on_c, 4, 72, 0
6, 163037, Note_on_c, 4, 77, 49
6, 163177, Note_on_c, 4, 77, 0
6, 163200, Note_on_c, 4, 77, 49
6, 163620, Note_on_c, 4, 77, 0
6, 163680, Note_on_c, 4, 77, 49
6, 164100, Note_on_c, 4, 77, 0
6, 164160, Note_on_c, 4, 77, 49
6, 164580, Note_on_c, 4, 77, 0
6, 165840, Note_on_c, 4, 77, 49
6, 165942, Note_on_c, 4, 77, 0
6, 165960, Note_on_c, 4, 76, 49
6, 166062, Note_on_c, 4, 76, 0
6, 166080, Note_on_c, 4, 77, 49
6, 166287, Note_on_c, 4, 77, 0
6, 166320, Note_on_c, 4, 70, 49
6, 166527, Note_on_c, 4, 70, 0
6, 166560, Note_on_c, 4, 72, 49
6, 166767, Note_on_c, 4, 72, 0
6, 166800, Note_on_c, 4, 74, 49
6, 167007, Note_on_c, 4, 74, 0
6, 167040, Note_on_c, 4, 77, 49
6, 167247, Note_on_c, 4, 77, 0
6, 167280, Note_on_c, 4, 75, 49
6, 167487, Note_on_c, 4, 75, 0
6, 167520, Note_on_c, 4, 75, 49
6, 168420, Note_on_c, 4, 75, 0
6, 168720, Note_on_c, 4, 74, 49
6, 168822, Note_on_c, 4, 74, 0
6, 168840, Note_on_c, 4, 72, 49
6, 168942, Note_on_c, 4, 72, 0
6, 168960, Note_on_c, 4, 74, 49
6, 169167, Note_on_c, 4, 74, 0
6, 169200, Note_on_c, 4, 70, 49
6, 169407, Note_on_c, 4, 70, 0
6, 169440, Note_on_c, 4, 79, 49
6, 169647, Note_on_c, 4, 79, 0
6, 169680, Note_on_c, 4, 70, 49
6, 169887, Note_on_c, 4, 70, 0
6, 169920, Note_on_c, 4, 70, 49
6, 170127, Note_on_c, 4, 70, 0
6, 170160, Note_on_c, 4, 69, 49
6, 170367, Note_on_c, 4, 69, 0
6, 170400, Note_on_c, 4, 72, 49
6, 171300, Note_on_c, 4, 72, 0
6, 171600, Note_on_c, 4, 77, 49
6, 171702, Note_on_c, 4, 77, 0
6, 171720, Note_on_c, 4, 76, 49
6, 171822, Note_on_c, 4, 76, 0
6, 171840, Note_on_c, 4, 77, 49
6, 172047, Note_on_c, 4, 77, 0
6, 172080, Note_on_c, 4, 70, 49
6, 172287, Note_on_c, 4, 70, 0
6, 172320, Note_on_c, 4, 72, 49
6, 172527, Note_on_c, 4, 72, 0
6, 172560, Note_on_c, 4, 74, 49
6, 172767, Note_on_c, 4, 74, 0
6, 172800, Note_on_c, 4, 77, 49
6, 173007, Note_on_c, 4, 77, 0
6, 173040, Note_on_c, 4, 75, 49
6, 173247, Note_on_c, 4, 75, 0
6, 173280, Note_on_c, 4, 75, 49
6, 174180, Note_on_c, 4, 75, 0
6, 174480, Note_on_c, 4, 74, 49
6, 174582, Note_on_c, 4, 74, 0
6, 174600, Note_on_c, 4, 75, 49
6, 174702, Note_on_c, 4, 75, 0
6, 174720, Note_on_c, 4, 77, 49
6, 174927, Note_on_c, 4, 77, 0
6, 174960, Note_on_c, 4, 70, 49
6, 175167, Note_on_c, 4, 70, 0
6, 175200, Note_on_c, 4, 72, 49
6, 175407, Note_on_c, 4, 72, 0
6, 175440, Note_on_c, 4, 69, 49
6, 175647, Note_on_c, 4, 69, 0
6, 175680, Note_on_c, 4, 70, 49
6, 176100, Note_on_c, 4, 70, 0
6, 177360, Note_on_c, 4, 72, 49
6, 177462, Note_on_c, 4, 72, 0
6, 177480, Note_on_c, 4, 71, 49
6, 177582, Note_on_c, 4, 71, 0
6, 177600, Note_on_c, 4, 72, 49
6, 177807, Note_on_c, 4, 72, 0
6, 177840, Note_on_c, 4, 72, 49
6, 178047, Note_on_c, 4, 72, 0
6, 178080, Note_on_c, 4, 74, 49
6, 178287, Note_on_c, 4, 74, 0
6, 178320, Note_on_c, 4, 70, 49
6, 178527, Note_on_c, 4, 70, 0
6, 178560, Note_on_c, 4, 74, 49
6, 178767, Note_on_c, 4, 74, 0
6, 178800, Note_on_c, 4, 75, 49
6, 179007, Note_on_c, 4, 75, 0
6, 179040, Note_on_c, 4, 75, 49
6, 179940, Note_on_c, 4, 75, 0
6, 180240, Note_on_c, 4, 74, 49
6, 180342, Note_on_c, 4, 74, 0
6, 180360, Note_on_c, 4, 73, 49
6, 180462, Note_on_c, 4, 73, 0
6, 180480, Note_on_c, 4, 74, 49
6, 180687, Note_on_c, 4, 74, 0
6, 180720, Note_on_c, 4, 74, 49
6, 180927, Note_on_c, 4, 74, 0
6, 180960, Note_on_c, 4, 75, 49
6, 181167, Note_on_c, 4, 75, 0
6, 181200, Note_on_c, 4, 72, 49
6, 181407, Note_on_c, 4, 72, 0
6, 181440, Note_on_c, 4, 76, 49
6, 181647, Note_on_c, 4, 76, 0
6, 181680, Note_on_c, 4, 77, 49
6, 181887, Note_on_c, 4, 77, 0
6, 181920, Note_on_c, 4, 77, 49
6, 182820, Note_on_c, 4, 77, 0
6, 182880, Note_on_c, 4, 62, 49
6, 182880, Note_on_c, 4, 70, 49
6, 183780, Note_on_c, 4, 70, 0
6, 183780, Note_on_c, 4, 62, 0
6, 183840, Note_on_c, 4, 72, 49
6, 184047, Note_on_c, 4, 72, 0
6, 184080, Note_on_c, 4, 74, 49
6, 184287, Note_on_c, 4, 74, 0
6, 184320, Note_on_c, 4, 77, 49
6, 184527, Note_on_c, 4, 77, 0
6, 184560, Note_on_c, 4, 75, 49
6, 184767, Note_on_c, 4, 75, 0
6, 184800, Note_on_c, 4, 75, 49
6, 185700, Note_on_c, 4, 75, 0
6, 185760, Note_on_c, 4, 74, 49
6, 185967, Note_on_c, 4, 74, 0
6, 186000, Note_on_c, 4, 77, 49
6, 186207, Note_on_c, 4, 77, 0
6, 186240, Note_on_c, 4, 70, 49
6, 186447, Note_on_c, 4, 70, 0
6, 186480, Note_on_c, 4, 74, 49
6, 186687, Note_on_c, 4, 74, 0
6, 186720, Note_on_c, 4, 67, 49
6, 186927, Note_on_c, 4, 67, 0
6, 186960, Note_on_c, 4, 72, 49
6, 187167, Note_on_c, 4, 72, 0
6, 187200, Note_on_c, 4, 70, 49
6, 187407, Note_on_c, 4, 70, 0
6, 187440, Note_on_c, 4, 69, 49
6, 187647, Note_on_c, 4, 69, 0
6, 187680, Note_on_c, 4, 67, 49
6, 187887, Note_on_c, 4, 67, 0
6, 187920, Note_on_c, 4, 65, 49
6, 188127, Note_on_c, 4, 65, 0
6, 188160, Note_on_c, 4, 67, 49
6, 188367, Note_on_c, 4, 67, 0
6, 188400, Note_on_c, 4, 69, 49
6, 188607, Note_on_c, 4, 69, 0
6, 188640, Note_on_c, 4, 62, 49
6, 188640, Note_on_c, 4, 70, 49
6, 189540, Note_on_c, 4, 70, 0
6, 189540, Note_on_c, 4, 62, 0
6, 189600, Note_on_c, 4, 72, 49
6, 189807, Note_on_c, 4, 72, 0
6, 189840, Note_on_c, 4, 74, 49
6, 190047, Note_on_c, 4, 74, 0
6, 190080, Note_on_c, 4, 77, 49
6, 190287, Note_on_c, 4, 77, 0
6, 190320, Note_on_c, 4, 75, 49
6, 190527, Note_on_c, 4, 75, 0
6, 190560, Note_on_c, 4, 75, 49
6, 191460, Note_on_c, 4, 75, 0
6, 191520, Note_on_c, 4, 74, 49
6, 191830, Note_on_c, 4, 74, 0
6, 191880, Note_on_c, 4, 75, 49
6, 191930, Note_on_c, 4, 75, 0
6, 191940, Note_on_c, 4, 77, 49
6, 191990, Note_on_c, 4, 77, 0
6, 192000, Note_on_c, 4, 70, 49
6, 192420, Note_on_c, 4, 70, 0
6, 192480, Note_on_c, 4, 69, 49
6, 192900, Note_on_c, 4, 69, 0
6, 192960, Note_on_c, 4, 74, 49
6, 193062, Note_on_c, 4, 74, 0
6, 193080, Note_on_c, 4, 75, 49
6, 193182, Note_on_c, 4, 75, 0
6, 193200, Note_on_c, 4, 77, 49
6, 193302, Note_on_c, 4, 77, 0
6, 193320, Note_on_c, 4, 74, 49
6, 193422, Note_on_c, 4, 74, 0
6, 193440, Note_on_c, 4, 82, 49
6, 193647, Note_on_c, 4, 82, 0
6, 193680, Note_on_c, 4, 82, 49
6, 193887, Note_on_c, 4, 82, 0
6, 193920, Note_on_c, 4, 84, 49
6, 193970, Note_on_c, 4, 84, 0
6, 193980, Note_on_c, 4, 82, 49
6, 194030, Note_on_c, 4, 82, 0
6, 194040, Note_on_c, 4, 84, 49
6, 194090, Note_on_c, 4, 84, 0
6, 194100, Note_on_c, 4, 82, 49
6, 194150, Note_on_c, 4, 82, 0
6, 194160, Note_on_c, 4, 84, 49
6, 194210, Note_on_c, 4, 84, 0
6, 194220, Note_on_c, 4, 82, 49
6, 194270, Note_on_c, 4, 82, 0
6, 194280, Note_on_c, 4, 81, 49
6, 194330, Note_on_c, 4, 81, 0
6, 194340, Note_on_c, 4, 82, 49
6, 194390, Note_on_c, 4, 82, 0
6, 194400, Note_on_c, 4, 81, 49
6, 194502, Note_on_c, 4, 81, 0
6, 194520, Note_on_c, 4, 82, 49
6, 194622, Note_on_c, 4, 82, 0
6, 194640, Note_on_c, 4, 84, 49
6, 194742, Note_on_c, 4, 84, 0
6, 194760, Note_on_c, 4, 81, 49
6, 194862, Note_on_c, 4, 81, 0
6, 194880, Note_on_c, 4, 75, 49
6, 195087, Note_on_c, 4, 75, 0
6, 195120, Note_on_c, 4, 75, 49
6, 195327, Note_on_c, 4, 75, 0
6, 195360, Note_on_c, 4, 77, 49
6, 195410, Note_on_c, 4, 77, 0
6, 195420, Note_on_c, 4, 75, 49
6, 195470, Note_on_c, 4, 75, 0
6, 195480, Note_on_c, 4, 77, 49
6, 195530, Note_on_c, 4, 77, 0
6, 195540, Note_on_c, 4, 75, 49
6, 195590, Note_on_c, 4, 75, 0
6, 195600, Note_on_c, 4, 77, 49
6, 195650, Note_on_c, 4, 77, 0
6, 195660, Note_on_c, 4, 75, 49
6, 195710, Note_on_c, 4, 75, 0
6, 195720, Note_on_c, 4, 74, 49
6, 195770, Note_on_c, 4, 74, 0
6, 195780, Note_on_c, 4, 75, 49
6, 195830, Note_on_c, 4, 75, 0
6, 195840, Note_on_c, 4, 74, 49
6, 195942, Note_on_c, 4, 74, 0
6, 195960, Note_on_c, 4, 75, 49
6, 196062, Note_on_c, 4, 75, 0
6, 196080, Note_on_c, 4, 77, 49
6, 196182, Note_on_c, 4, 77, 0
6, 196200, Note_on_c, 4, 74, 49
6, 196302, Note_on_c, 4, 74, 0
6, 196320, Note_on_c, 4, 70, 49
6, 196527, Note_on_c, 4, 70, 0
6, 196560, Note_on_c, 4, 70, 49
6, 196767, Note_on_c, 4, 70, 0
6, 196800, Note_on_c, 4, 72, 49
6, 196850, Note_on_c, 4, 72, 0
6, 196860, Note_on_c, 4, 70, 49
6, 196910, Note_on_c, 4, 70, 0
6, 196920, Note_on_c, 4, 72, 49
6, 196970, Note_on_c, 4, 72, 0
6, 196980, Note_on_c, 4, 70, 49
6, 197030, Note_on_c, 4, 70, 0
6, 197040, Note_on_c, 4, 72, 49
6, 197090, Note_on_c, 4, 72, 0
6, 197100, Note_on_c, 4, 70, 49
6, 197150, Note_on_c, 4, 70, 0
6, 197160, Note_on_c, 4, 69, 49
6, 197210, Note_on_c, 4, 69, 0
6, 197220, Note_on_c, 4, 70, 49
6, 197270, Note_on_c, 4, 70, 0
6, 197280, Note_on_c, 4, 69, 49
6, 197382, Note_on_c, 4, 69, 0
6, 197400, Note_on_c, 4, 70, 49
6, 197502, Note_on_c, 4, 70, 0
6, 197520, Note_on_c, 4, 72, 49
6, 197622, Note_on_c, 4, 72, 0
6, 197640, Note_on_c, 4, 69, 49
6, 197742, Note_on_c, 4, 69, 0
6, 197760, Note_on_c, 4, 63, 49
6, 197967, Note_on_c, 4, 63, 0
6, 198000, Note_on_c, 4, 63, 49
6, 198207, Note_on_c, 4, 63, 0
6, 198240, Note_on_c, 4, 65, 49
6, 198290, Note_on_c, 4, 65, 0
6, 198300, Note_on_c, 4, 63, 49
6, 198350, Note_on_c, 4, 63, 0
6, 198360, Note_on_c, 4, 65, 49
6, 198410, Note_on_c, 4, 65, 0
6, 198420, Note_on_c, 4, 63, 49
6, 198470, Note_on_c, 4, 63, 0
6, 198480, Note_on_c, 4, 65, 49
6, 198530, Note_on_c, 4, 65, 0
6, 198540, Note_on_c, 4, 63, 49
6, 198590, Note_on_c, 4, 63, 0
6, 198600, Note_on_c, 4, 62, 49
6, 198650, Note_on_c, 4, 62, 0
6, 198660, Note_on_c, 4, 63, 49
6, 198710, Note_on_c, 4, 63, 0
6, 198720, Note_on_c, 4, 62, 49
6, 198927, Note_on_c, 4, 62, 0
6, 199200, Note_on_c, 4, 70, 49
6, 199407, Note_on_c, 4, 70, 0
6, 199680, Note_on_c, 4, 77, 49
6, 199887, Note_on_c, 4, 77, 0
6, 200160, Note_on_c, 4, 72, 49
6, 200580, Note_on_c, 4, 72, 0
6, 200640, Note_on_c, 4, 75, 49
6, 201060, Note_on_c, 4, 75, 0
6, 201120, Note_on_c, 4, 79, 49
6, 201540, Note_on_c, 4, 79, 0
6, 201600, Note_on_c, 4, 74, 49
6, 201807, Note_on_c, 4, 74, 0
6, 201840, Note_on_c, 4, 74, 49
6, 202047, Note_on_c, 4, 74, 0
6, 202080, Note_on_c, 4, 72, 49
6, 202287, Note_on_c, 4, 72, 0
6, 202320, Note_on_c, 4, 72, 49
6, 202527, Note_on_c, 4, 72, 0
6, 202560, Note_on_c, 4, 72, 49
6, 202767, Note_on_c, 4, 72, 0
6, 202800, Note_on_c, 4, 72, 49
6, 203007, Note_on_c, 4, 72, 0
6, 203040, Note_on_c, 4, 70, 49
6, 203247, Note_on_c, 4, 70, 0
6, 203520, Note_on_c, 4, 77, 49
6, 203727, Note_on_c, 4, 77, 0
6, 204000, Note_on_c, 4, 74, 49
6, 204207, Note_on_c, 4, 74, 0
6, 204480, Note_on_c, 4, 72, 49
6, 204900, Note_on_c, 4, 72, 0
6, 204960, Note_on_c, 4, 75, 49
6, 205380, Note_on_c, 4, 75, 0
6, 205440, Note_on_c, 4, 79, 49
6, 205860, Note_on_c, 4, 79, 0
6, 207360, Note_on_c, 4, 74, 49
6, 207567, Note_on_c, 4, 74, 0
6, 207600, Note_on_c, 4, 74, 49
6, 207807, Note_on_c, 4, 74, 0
6, 207840, Note_on_c, 4, 74, 49
6, 208047, Note_on_c, 4, 74, 0
6, 208080, Note_on_c, 4, 74, 49
6, 208287, Note_on_c, 4, 74, 0
6, 208320, Note_on_c, 4, 74, 49
6, 208527, Note_on_c, 4, 74, 0
6, 208560, Note_on_c, 4, 74, 49
6, 208767, Note_on_c, 4, 74, 0
6, 208800, Note_on_c, 4, 72, 49
6, 208902, Note_on_c, 4, 72, 0
6, 208920, Note_on_c, 4, 72, 49
6, 209022, Note_on_c, 4, 72, 0
6, 209040, Note_on_c, 4, 72, 49
6, 209142, Note_on_c, 4, 72, 0
6, 209160, Note_on_c, 4, 72, 49
6, 209262, Note_on_c, 4, 72, 0
6, 209280, Note_on_c, 4, 72, 49
6, 209382, Note_on_c, 4, 72, 0
6, 209400, Note_on_c, 4, 72, 49
6, 209502, Note_on_c, 4, 72, 0
6, 209520, Note_on_c, 4, 72, 49
6, 209622, Note_on_c, 4, 72, 0
6, 209640, Note_on_c, 4, 72, 49
6, 209742, Note_on_c, 4, 72, 0
6, 209760, Note_on_c, 4, 72, 49
6, 209862, Note_on_c, 4, 72, 0
6, 209880, Note_on_c, 4, 72, 49
6, 209982, Note_on_c, 4, 72, 0
6, 210000, Note_on_c, 4, 72, 49
6, 210102, Note_on_c, 4, 72, 0
6, 210120, Note_on_c, 4, 72, 49
6, 210222, Note_on_c, 4, 72, 0
6, 210240, Note_on_c, 4, 62, 88
6, 210240, Note_on_c, 4, 70, 88
6, 211140, Note_on_c, 4, 70, 0
6, 211140, Note_on_c, 4, 62, 0
6, 211200, Note_on_c, 4, 72, 88
6, 211407, Note_on_c, 4, 72, 0
6, 211440, Note_on_c, 4, 74, 88
6, 211647, Note_on_c, 4, 74, 0
6, 211680, Note_on_c, 4, 77, 88
6, 211887, Note_on_c, 4, 77, 0
6, 211920, Note_on_c, 4, 75, 88
6, 212127, Note_on_c, 4, 75, 0
6, 212160, Note_on_c, 4, 75, 88
6, 213060, Note_on_c, 4, 75, 0
6, 213120, Note_on_c, 4, 74, 88
6, 213327, Note_on_c, 4, 74, 0
6, 213360, Note_on_c, 4, 77, 88
6, 213567, Note_on_c, 4, 77, 0
6, 213600, Note_on_c, 4, 70, 88
6, 213807, Note_on_c, 4, 70, 0
6, 213840, Note_on_c, 4, 74, 88
6, 214047, Note_on_c, 4, 74, 0
6, 214080, Note_on_c, 4, 67, 88
6, 214287, Note_on_c, 4, 67, 0
6, 214320, Note_on_c, 4, 72, 88
6, 214527, Note_on_c, 4, 72, 0
6, 214560, Note_on_c, 4, 70, 88
6, 214767, Note_on_c, 4, 70, 0
6, 214800, Note_on_c, 4, 69, 88
6, 215007, Note_on_c, 4, 69, 0
6, 215040, Note_on_c, 4, 67, 88
6, 215247, Note_on_c, 4, 67, 0
6, 215280, Note_on_c, 4, 65, 88
6, 215487, Note_on_c, 4, 65, 0
6, 215520, Note_on_c, 4, 67, 88
6, 215727, Note_on_c, 4, 67, 0
6, 215760, Note_on_c, 4, 69, 88
6, 215967, Note_on_c, 4, 69, 0
6, 216000, Note_on_c, 4, 62, 88
6, 216000, Note_on_c, 4, 70, 88
6, 216900, Note_on_c, 4, 70, 0
6, 216900, Note_on_c, 4, 62, 0
6, 216960, Note_on_c, 4, 72, 88
6, 217167, Note_on_c, 4, 72, 0
6, 217200, Note_on_c, 4, 74, 88
6, 217407, Note_on_c, 4, 74, 0
6, 217440, Note_on_c, 4, 77, 88
6, 217647, Note_on_c, 4, 77, 0
6, 217680, Note_on_c, 4, 75, 88
6, 217887, Note_on_c, 4, 75, 0
6, 217920, Note_on_c, 4, 75, 88
6, 218820, Note_on_c, 4, 75, 0
6, 218880, Note_on_c, 4, 74, 88
6, 219190, Note_on_c, 4, 74, 0
6, 219240, Note_on_c, 4, 75, 88
6, 219290, Note_on_c, 4, 75, 0
6, 219300, Note_on_c, 4, 77, 88
6, 219350, Note_on_c, 4, 77, 0
6, 219360, Note_on_c, 4, 70, 88
6, 219780, Note_on_c, 4, 70, 0
6, 219840, Note_on_c, 4, 69, 88
6, 220260, Note_on_c, 4, 69, 0
6, 220320, Note_on_c, 4, 70, 88
6, 220320, Note_on_c, 4, 77, 88
6, 220630, Note_on_c, 4, 77, 0
6, 220630, Note_on_c, 4, 70, 0
6, 220680, Note_on_c, 4, 79, 88
6, 220730, Note_on_c, 4, 79, 0
6, 220740, Note_on_c, 4, 81, 88
6, 220790, Note_on_c, 4, 81, 0
6, 220800, Note_on_c, 4, 82, 88
6, 220902, Note_on_c, 4, 82, 0
6, 220920, Note_on_c, 4, 81, 88
6, 221022, Note_on_c, 4, 81, 0
6, 221040, Note_on_c, 4, 79, 88
6, 221142, Note_on_c, 4, 79, 0
6, 221160, Note_on_c, 4, 77, 88
6, 221262, Note_on_c, 4, 77, 0
6, 221280, Note_on_c, 4, 75, 88
6, 221382, Note_on_c, 4, 75, 0
6, 221400, Note_on_c, 4, 74, 88
6, 221502, Note_on_c, 4, 74, 0
6, 221520, Note_on_c, 4, 72, 88
6, 221622, Note_on_c, 4, 72, 0
6, 221640, Note_on_c, 4, 70, 88
6, 221742, Note_on_c, 4, 70, 0
6, 221760, Note_on_c, 4, 75, 88
6, 221862, Note_on_c, 4, 75, 0
6, 221880, Note_on_c, 4, 77, 88
6, 221982, Note_on_c, 4, 77, 0
6, 222000, Note_on_c, 4, 79, 88
6, 222102, Note_on_c, 4, 79, 0
6, 222120, Note_on_c, 4, 75, 88
6, 222222, Note_on_c, 4, 75, 0
6, 222240, Note_on_c, 4, 74, 88
6, 222342, Note_on_c, 4, 74, 0
6, 222360, Note_on_c, 4, 75, 88
6, 222462, Note_on_c, 4, 75, 0
6, 222480, Note_on_c, 4, 77, 88
6, 222582, Note_on_c, 4, 77, 0
6, 222600, Note_on_c, 4, 74, 88
6, 222702, Note_on_c, 4, 74, 0
6, 222720, Note_on_c, 4, 72, 88
6, 222822, Note_on_c, 4, 72, 0
6, 222840, Note_on_c, 4, 74, 88
6, 222942, Note_on_c, 4, 74, 0
6, 222960, Note_on_c, 4, 75, 88
6, 223062, Note_on_c, 4, 75, 0
6, 223080, Note_on_c, 4, 72, 88
6, 223182, Note_on_c, 4, 72, 0
6, 223200, Note_on_c, 4, 77, 88
6, 223510, Note_on_c, 4, 77, 0
6, 223560, Note_on_c, 4, 79, 88
6, 223610, Note_on_c, 4, 79, 0
6, 223620, Note_on_c, 4, 81, 88
6, 223670, Note_on_c, 4, 81, 0
6, 223680, Note_on_c, 4, 82, 88
6, 223782, Note_on_c, 4, 82, 0
6, 223800, Note_on_c, 4, 81, 88
6, 223902, Note_on_c, 4, 81, 0
6, 223920, Note_on_c, 4, 79, 88
6, 224022, Note_on_c, 4, 79, 0
6, 224040, Note_on_c, 4, 77, 88
6, 224142, Note_on_c, 4, 77, 0
6, 224160, Note_on_c, 4, 75, 88
6, 224262, Note_on_c, 4, 75, 0
6, 224280, Note_on_c, 4, 74, 88
6, 224382, Note_on_c, 4, 74, 0
6, 224400, Note_on_c, 4, 72, 88
6, 224502, Note_on_c, 4, 72, 0
6, 224520, Note_on_c, 4, 70, 88
6, 224622, Note_on_c, 4, 70, 0
6, 224640, Note_on_c, 4, 75, 88
6, 224742, Note_on_c, 4, 75, 0
6, 224760, Note_on_c, 4, 77, 88
6, 224862, Note_on_c, 4, 77, 0
6, 224880, Note_on_c, 4, 79, 88
6, 224982, Note_on_c, 4, 79, 0
6, 225000, Note_on_c, 4, 75, 88
6, 225102, Note_on_c, 4, 75, 0
6, 225120, Note_on_c, 4, 74, 88
6, 225222, Note_on_c, 4, 74, 0
6, 225240, Note_on_c, 4, 75, 88
6, 225342, Note_on_c, 4, 75, 0
6, 225360, Note_on_c, 4, 77, 88
6, 225462, Note_on_c, 4, 77, 0
6, 225480, Note_on_c, 4, 74, 88
6, 225582, Note_on_c, 4, 74, 0
6, 225600, Note_on_c, 4, 72, 88
6, 225702, Note_on_c, 4, 72, 0
6, 225720, Note_on_c, 4, 74, 88
6, 225822, Note_on_c, 4, 74, 0
6, 225840, Note_on_c, 4, 75, 88
6, 225942, Note_on_c, 4, 75, 0
6, 225960, Note_on_c, 4, 72, 88
6, 226062, Note_on_c, 4, 72, 0
6, 226080, Note_on_c, 4, 70, 88
6, 226500, Note_on_c, 4, 70, 0
6, 226560, Note_on_c, 4, 70, 88
6, 226560, Note_on_c, 4, 82, 88
6, 226980, Note_on_c, 4, 82, 0
6, 226980, Note_on_c, 4, 70, 0
6, 227040, Note_on_c, 4, 70, 88
6, 227040, Note_on_c, 4, 82, 88
6, 227460, Note_on_c, 4, 82, 0
6, 227460, Note_on_c, 4, 70, 0
6, 227520, Note_on_c, 4, 70, 88
6, 227520, Note_on_c, 4, 82, 88
6, 227940, Note_on_c, 4, 82, 0
6, 227940, Note_on_c, 4, 70, 0
6, 228000, Note_on_c, 4, 58, 88
6, 228420, Note_on_c, 4, 58, 0
6, 228420, End_track
7, 0, Start_track
7, 0, Title_t, "Violin II"
7, 0, Control_c, 5, 0, 0
7, 0, Control_c, 5, 7, 110
7, 0, Control_c, 5, 10, 100
7, 0, Control_c, 5, 91, 82
7, 0, Control_c, 5, 93, 91
7, 1, Control_c, 5, 32, 1
7, 2, Program_c, 5, 48
7, 1440, Note_on_c, 5, 65, 64
7, 2340, Note_on_c, 5, 65, 0
7, 2400, Note_on_c, 5, 63, 64
7, 2607, Note_on_c, 5, 63, 0
7, 2640, Note_on_c, 5, 62, 64
7, 2847, Note_on_c, 5, 62, 0
7, 2880, Note_on_c, 5, 67, 64
7, 3300, Note_on_c, 5, 67, 0
7, 3360, Note_on_c, 5, 58, 64
7, 3780, Note_on_c, 5, 58, 0
7, 3840, Note_on_c, 5, 60, 64
7, 4260, Note_on_c, 5, 60, 0
7, 4320, Note_on_c, 5, 58, 64
7, 4527, Note_on_c, 5, 58, 0
7, 4560, Note_on_c, 5, 62, 64
7, 4767, Note_on_c, 5, 62, 0
7, 4800, Note_on_c, 5, 62, 64
7, 5007, Note_on_c, 5, 62, 0
7, 5040, Note_on_c, 5, 70, 64
7, 5247, Note_on_c, 5, 70, 0
7, 5280, Note_on_c, 5, 67, 64
7, 5487, Note_on_c, 5, 67, 0
7, 5520, Note_on_c, 5, 63, 64
7, 5727, Note_on_c, 5, 63, 0
7, 5760, Note_on_c, 5, 62, 64
7, 5967, Note_on_c, 5, 62, 0
7, 6000, Note_on_c, 5, 60, 64
7, 6207, Note_on_c, 5, 60, 0
7, 6240, Note_on_c, 5, 58, 64
7, 6447, Note_on_c, 5, 58, 0
7, 6480, Note_on_c, 5, 57, 64
7, 6687, Note_on_c, 5, 57, 0
7, 6720, Note_on_c, 5, 58, 64
7, 6927, Note_on_c, 5, 58, 0
7, 6960, Note_on_c, 5, 60, 64
7, 7167, Note_on_c, 5, 60, 0
7, 7200, Note_on_c, 5, 62, 64
7, 7620, Note_on_c, 5, 62, 0
7, 7680, Note_on_c, 5, 65, 64
7, 8100, Note_on_c, 5, 65, 0
7, 8160, Note_on_c, 5, 63, 64
7, 8367, Note_on_c, 5, 63, 0
7, 8400, Note_on_c, 5, 62, 64
7, 8607, Note_on_c, 5, 62, 0
7, 8640, Note_on_c, 5, 67, 64
7, 9060, Note_on_c, 5, 67, 0
7, 9120, Note_on_c, 5, 58, 64
7, 9540, Note_on_c, 5, 58, 0
7, 9600, Note_on_c, 5, 60, 64
7, 10020, Note_on_c, 5, 60, 0
7, 10080, Note_on_c, 5, 65, 64
7, 10500, Note_on_c, 5, 65, 0
7, 10560, Note_on_c, 5, 62, 64
7, 10980, Note_on_c, 5, 62, 0
7, 11040, Note_on_c, 5, 60, 64
7, 11460, Note_on_c, 5, 60, 0
7, 11520, Note_on_c, 5, 62, 64
7, 11520, Note_on_c, 5, 70, 64
7, 12420, Note_on_c, 5, 70, 0
7, 12420, Note_on_c, 5, 62, 0
7, 12960, Note_on_c, 5, 65, 64
7, 13860, Note_on_c, 5, 65, 0
7, 13920, Note_on_c, 5, 63, 64
7, 14127, Note_on_c, 5, 63, 0
7, 14160, Note_on_c, 5, 62, 64
7, 14367, Note_on_c, 5, 62, 0
7, 14400, Note_on_c, 5, 67, 64
7, 14820, Note_on_c, 5, 67, 0
7, 14880, Note_on_c, 5, 58, 64
7, 15300, Note_on_c, 5, 58, 0
7, 15360, Note_on_c, 5, 60, 64
7, 15780, Note_on_c, 5, 60, 0
7, 15840, Note_on_c, 5, 58, 64
7, 16047, Note_on_c, 5, 58, 0
7, 16080, Note_on_c, 5, 62, 64
7, 16287, Note_on_c, 5, 62, 0
7, 16320, Note_on_c, 5, 62, 64
7, 16527, Note_on_c, 5, 62, 0
7, 16560, Note_on_c, 5, 70, 64
7, 16767, Note_on_c, 5, 70, 0
7, 16800, Note_on_c, 5, 67, 64
7, 17007, Note_on_c, 5, 67, 0
7, 17040, Note_on_c, 5, 63, 64
7, 17247, Note_on_c, 5, 63, 0
7, 17280, Note_on_c, 5, 62, 64
7, 17487, Note_on_c, 5, 62, 0
7, 17520, Note_on_c, 5, 60, 64
7, 17727, Note_on_c, 5, 60, 0
7, 17760, Note_on_c, 5, 58, 64
7, 17967, Note_on_c, 5, 58, 0
7, 18000, Note_on_c, 5, 57, 64
7, 18207, Note_on_c, 5, 57, 0
7, 18240, Note_on_c, 5, 58, 64
7, 18447, Note_on_c, 5, 58, 0
7, 18480, Note_on_c, 5, 60, 64
7, 18687, Note_on_c, 5, 60, 0
7, 18720, Note_on_c, 5, 62, 64
7, 19140, Note_on_c, 5, 62, 0
7, 19200, Note_on_c, 5, 65, 64
7, 19620, Note_on_c, 5, 65, 0
7, 19680, Note_on_c, 5, 63, 64
7, 19887, Note_on_c, 5, 63, 0
7, 19920, Note_on_c, 5, 62, 64
7, 20127, Note_on_c, 5, 62, 0
7, 20160, Note_on_c, 5, 67, 64
7, 20580, Note_on_c, 5, 67, 0
7, 20640, Note_on_c, 5, 58, 64
7, 21060, Note_on_c, 5, 58, 0
7, 21120, Note_on_c, 5, 60, 64
7, 21540, Note_on_c, 5, 60, 0
7, 21600, Note_on_c, 5, 65, 64
7, 22020, Note_on_c, 5, 65, 0
7, 22080, Note_on_c, 5, 62, 64
7, 22500, Note_on_c, 5, 62, 0
7, 22560, Note_on_c, 5, 60, 64
7, 22980, Note_on_c, 5, 60, 0
7, 23040, Note_on_c, 5, 62, 64
7, 23040, Note_on_c, 5, 70, 64
7, 23940, Note_on_c, 5, 70, 0
7, 23940, Note_on_c, 5, 62, 0
7, 24480, Note_on_c, 5, 57, 64
7, 25380, Note_on_c, 5, 57, 0
7, 25440, Note_on_c, 5, 58, 64
7, 25647, Note_on_c, 5, 58, 0
7, 25680, Note_on_c, 5, 55, 64
7, 25887, Note_on_c, 5, 55, 0
7, 25920, Note_on_c, 5, 59, 64
7, 26127, Note_on_c, 5, 59, 0
7, 26160, Note_on_c, 5, 60, 64
7, 26367, Note_on_c, 5, 60, 0
7, 26400, Note_on_c, 5, 60, 64
7, 27300, Note_on_c, 5, 60, 0
7, 27360, Note_on_c, 5, 58, 64
7, 28260, Note_on_c, 5, 58, 0
7, 28320, Note_on_c, 5, 60, 64
7, 28527, Note_on_c, 5, 60, 0
7, 28560, Note_on_c, 5, 57, 64
7, 28767, Note_on_c, 5, 57, 0
7, 28800, Note_on_c, 5, 61, 64
7, 29007, Note_on_c, 5, 61, 0
7, 29040, Note_on_c, 5, 62, 64
7, 29247, Note_on_c, 5, 62, 0
7, 29280, Note_on_c, 5, 62, 64
7, 30180, Note_on_c, 5, 62, 0
7, 30240, Note_on_c, 5, 65, 64
7, 31140, Note_on_c, 5, 65, 0
7, 31200, Note_on_c, 5, 63, 64
7, 31407, Note_on_c, 5, 63, 0
7, 31440, Note_on_c, 5, 62, 64
7, 31647, Note_on_c, 5, 62, 0
7, 31680, Note_on_c, 5, 67, 64
7, 32100, Note_on_c, 5, 67, 0
7, 32160, Note_on_c, 5, 58, 64
7, 32580, Note_on_c, 5, 58, 0
7, 32640, Note_on_c, 5, 60, 64
7, 33060, Note_on_c, 5, 60, 0
7, 33120, Note_on_c, 5, 58, 64
7, 33327, Note_on_c, 5, 58, 0
7, 33360, Note_on_c, 5, 62, 64
7, 33567, Note_on_c, 5, 62, 0
7, 33600, Note_on_c, 5, 62, 64
7, 33807, Note_on_c, 5, 62, 0
7, 33840, Note_on_c, 5, 70, 64
7, 34047, Note_on_c, 5, 70, 0
7, 34080, Note_on_c, 5, 67, 64
7, 34287, Note_on_c, 5, 67, 0
7, 34320, Note_on_c, 5, 63, 64
7, 34527, Note_on_c, 5, 63, 0
7, 34560, Note_on_c, 5, 62, 64
7, 34767, Note_on_c, 5, 62, 0
7, 34800, Note_on_c, 5, 60, 64
7, 35007, Note_on_c, 5, 60, 0
7, 35040, Note_on_c, 5, 58, 64
7, 35247, Note_on_c, 5, 58, 0
7, 35280, Note_on_c, 5, 57, 64
7, 35487, Note_on_c, 5, 57, 0
7, 35520, Note_on_c, 5, 58, 64
7, 35727, Note_on_c, 5, 58, 0
7, 35760, Note_on_c, 5, 60, 64
7, 35967, Note_on_c, 5, 60, 0
7, 36000, Note_on_c, 5, 62, 64
7, 36420, Note_on_c, 5, 62, 0
7, 36480, Note_on_c, 5, 65, 64
7, 36900, Note_on_c, 5, 65, 0
7, 36960, Note_on_c, 5, 63, 64
7, 37167, Note_on_c, 5, 63, 0
7, 37200, Note_on_c, 5, 62, 64
7, 37407, Note_on_c, 5, 62, 0
7, 37440, Note_on_c, 5, 67, 64
7, 37860, Note_on_c, 5, 67, 0
7, 37920, Note_on_c, 5, 58, 64
7, 38340, Note_on_c, 5, 58, 0
7, 38400, Note_on_c, 5, 60, 64
7, 38820, Note_on_c, 5, 60, 0
7, 38880, Note_on_c, 5, 65, 64
7, 39300, Note_on_c, 5, 65, 0
7, 39360, Note_on_c, 5, 62, 64
7, 39780, Note_on_c, 5, 62, 0
7, 39840, Note_on_c, 5, 60, 64
7, 40260, Note_on_c, 5, 60, 0
7, 40320, Note_on_c, 5, 62, 64
7, 40320, Note_on_c, 5, 70, 64
7, 41220, Note_on_c, 5, 70, 0
7, 41220, Note_on_c, 5, 62, 0
7, 41760, Note_on_c, 5, 62, 64
7, 42180, Note_on_c, 5, 62, 0
7, 42240, Note_on_c, 5, 70, 64
7, 42550, Note_on_c, 5, 70, 0
7, 42600, Note_on_c, 5, 65, 64
7, 42702, Note_on_c, 5, 65, 0
7, 42720, Note_on_c, 5, 74, 64
7, 43140, Note_on_c, 5, 74, 0
7, 43200, Note_on_c, 5, 57, 64
7, 43620, Note_on_c, 5, 57, 0
7, 43680, Note_on_c, 5, 72, 64
7, 43990, Note_on_c, 5, 72, 0
7, 44040, Note_on_c, 5, 69, 64
7, 44142, Note_on_c, 5, 69, 0
7, 44160, Note_on_c, 5, 65, 64
7, 44580, Note_on_c, 5, 65, 0
7, 44640, Note_on_c, 5, 65, 64
7, 45060, Note_on_c, 5, 65, 0
7, 45120, Note_on_c, 5, 70, 64
7, 45540, Note_on_c, 5, 70, 0
7, 45600, Note_on_c, 5, 67, 64
7, 46020, Note_on_c, 5, 67, 0
7, 46080, Note_on_c, 5, 65, 64
7, 46500, Note_on_c, 5, 65, 0
7, 46560, Note_on_c, 5, 62, 64
7, 46700, Note_on_c, 5, 62, 0
7, 46717, Note_on_c, 5, 60, 64
7, 46859, Note_on_c, 5, 60, 0
7, 46877, Note_on_c, 5, 58, 64
7, 47017, Note_on_c, 5, 58, 0
7, 47040, Note_on_c, 5, 57, 64
7, 47180, Note_on_c, 5, 57, 0
7, 47197, Note_on_c, 5, 58, 64
7, 47339, Note_on_c, 5, 58, 0
7, 47357, Note_on_c, 5, 60, 64
7, 47497, Note_on_c, 5, 60, 0
7, 47520, Note_on_c, 5, 62, 64
7, 47940, Note_on_c, 5, 62, 0
7, 48000, Note_on_c, 5, 70, 64
7, 48310, Note_on_c, 5, 70, 0
7, 48360, Note_on_c, 5, 65, 64
7, 48462, Note_on_c, 5, 65, 0
7, 48480, Note_on_c, 5, 74, 64
7, 48900, Note_on_c, 5, 74, 0
7, 48960, Note_on_c, 5, 57, 64
7, 49380, Note_on_c, 5, 57, 0
7, 49440, Note_on_c, 5, 72, 64
7, 49750, Note_on_c, 5, 72, 0
7, 49800, Note_on_c, 5, 69, 64
7, 49902, Note_on_c, 5, 69, 0
7, 49920, Note_on_c, 5, 65, 64
7, 50820, Note_on_c, 5, 65, 0
7, 50880, Note_on_c, 5, 67, 64
7, 51300, Note_on_c, 5, 67, 0
7, 51360, Note_on_c, 5, 69, 64
7, 51780, Note_on_c, 5, 69, 0
7, 51840, Note_on_c, 5, 70, 64
7, 51980, Note_on_c, 5, 70, 0
7, 51997, Note_on_c, 5, 65, 64
7, 52139, Note_on_c, 5, 65, 0
7, 52157, Note_on_c, 5, 63, 64
7, 52297, Note_on_c, 5, 63, 0
7, 52320, Note_on_c, 5, 62, 64
7, 52460, Note_on_c, 5, 62, 0
7, 52477, Note_on_c, 5, 63, 64
7, 52619, Note_on_c, 5, 63, 0
7, 52637, Note_on_c, 5, 65, 64
7, 52777, Note_on_c, 5, 65, 0
7, 52800, Note_on_c, 5, 58, 64
7, 53220, Note_on_c, 5, 58, 0
7, 53520, Note_on_c, 5, 65, 64
7, 53727, Note_on_c, 5, 65, 0
7, 53760, Note_on_c, 5, 65, 64
7, 53967, Note_on_c, 5, 65, 0
7, 54000, Note_on_c, 5, 65, 64
7, 54207, Note_on_c, 5, 65, 0
7, 54240, Note_on_c, 5, 74, 64
7, 54447, Note_on_c, 5, 74, 0
7, 54480, Note_on_c, 5, 65, 64
7, 54687, Note_on_c, 5, 65, 0
7, 54960, Note_on_c, 5, 65, 64
7, 55167, Note_on_c, 5, 65, 0
7, 55200, Note_on_c, 5, 65, 64
7, 55407, Note_on_c, 5, 65, 0
7, 55440, Note_on_c, 5, 65, 64
7, 55647, Note_on_c, 5, 65, 0
7, 55680, Note_on_c, 5, 72, 64
7, 55887, Note_on_c, 5, 72, 0
7, 55920, Note_on_c, 5, 65, 64
7, 56127, Note_on_c, 5, 65, 0
7, 56400, Note_on_c, 5, 64, 64
7, 56607, Note_on_c, 5, 64, 0
7, 56640, Note_on_c, 5, 64, 64
7, 56847, Note_on_c, 5, 64, 0
7, 56880, Note_on_c, 5, 64, 64
7, 57087, Note_on_c, 5, 64, 0
7, 57120, Note_on_c, 5, 70, 64
7, 57327, Note_on_c, 5, 70, 0
7, 57360, Note_on_c, 5, 67, 64
7, 57567, Note_on_c, 5, 67, 0
7, 57600, Note_on_c, 5, 67, 64
7, 57807, Note_on_c, 5, 67, 0
7, 57840, Note_on_c, 5, 65, 64
7, 58047, Note_on_c, 5, 65, 0
7, 58080, Note_on_c, 5, 64, 64
7, 58500, Note_on_c, 5, 64, 0
7, 59520, Note_on_c, 5, 60, 64
7, 59940, Note_on_c, 5, 60, 0
7, 60000, Note_on_c, 5, 69, 64
7, 60420, Note_on_c, 5, 69, 0
7, 60480, Note_on_c, 5, 70, 64
7, 60900, Note_on_c, 5, 70, 0
7, 60960, Note_on_c, 5, 55, 64
7, 61380, Note_on_c, 5, 55, 0
7, 61440, Note_on_c, 5, 64, 64
7, 61860, Note_on_c, 5, 64, 0
7, 61920, Note_on_c, 5, 65, 64
7, 62340, Note_on_c, 5, 65, 0
7, 62400, Note_on_c, 5, 60, 64
7, 62820, Note_on_c, 5, 60, 0
7, 62880, Note_on_c, 5, 69, 64
7, 63300, Note_on_c, 5, 69, 0
7, 63360, Note_on_c, 5, 70, 64
7, 63780, Note_on_c, 5, 70, 0
7, 63840, Note_on_c, 5, 55, 64
7, 64260, Note_on_c, 5, 55, 0
7, 64320, Note_on_c, 5, 64, 64
7, 64740, Note_on_c, 5, 64, 0
7, 64800, Note_on_c, 5, 65, 64
7, 65007, Note_on_c, 5, 65, 0
7, 65280, Note_on_c, 5, 65, 64
7, 65487, Note_on_c, 5, 65, 0
7, 65760, Note_on_c, 5, 60, 64
7, 65967, Note_on_c, 5, 60, 0
7, 66240, Note_on_c, 5, 62, 64
7, 67140, Note_on_c, 5, 62, 0
7, 67200, Note_on_c, 5, 64, 64
7, 67620, Note_on_c, 5, 64, 0
7, 67680, Note_on_c, 5, 65, 64
7, 68100, Note_on_c, 5, 65, 0
7, 68160, Note_on_c, 5, 57, 64
7, 68580, Note_on_c, 5, 57, 0
7, 68640, Note_on_c, 5, 55, 64
7, 69060, Note_on_c, 5, 55, 0
7, 69120, Note_on_c, 5, 65, 64
7, 69327, Note_on_c, 5, 65, 0
7, 69600, Note_on_c, 5, 72, 64
7, 69807, Note_on_c, 5, 72, 0
7, 70080, Note_on_c, 5, 60, 64
7, 70287, Note_on_c, 5, 60, 0
7, 70560, Note_on_c, 5, 62, 64
7, 70980, Note_on_c, 5, 62, 0
7, 71040, Note_on_c, 5, 58, 64
7, 71460, Note_on_c, 5, 58, 0
7, 71520, Note_on_c, 5, 55, 64
7, 71940, Note_on_c, 5, 55, 0
7, 73320, Note_on_c, 5, 64, 64
7, 73422, Note_on_c, 5, 64, 0
7, 73440, Note_on_c, 5, 65, 64
7, 73860, Note_on_c, 5, 65, 0
7, 73920, Note_on_c, 5, 57, 64
7, 74340, Note_on_c, 5, 57, 0
7, 74400, Note_on_c, 5, 58, 64
7, 74820, Note_on_c, 5, 58, 0
7, 74880, Note_on_c, 5, 58, 64
7, 75300, Note_on_c, 5, 58, 0
7, 75360, Note_on_c, 5, 57, 64
7, 75670, Note_on_c, 5, 57, 0
7, 75720, Note_on_c, 5, 67, 64
7, 75822, Note_on_c, 5, 67, 0
7, 75840, Note_on_c, 5, 69, 64
7, 75890, Note_on_c, 5, 69, 0
7, 75900, Note_on_c, 5, 67, 64
7, 75950, Note_on_c, 5, 67, 0
7, 75960, Note_on_c, 5, 69, 64
7, 76010, Note_on_c, 5, 69, 0
7, 76020, Note_on_c, 5, 67, 64
7, 76070, Note_on_c, 5, 67, 0
7, 76080, Note_on_c, 5, 69, 64
7, 76130, Note_on_c, 5, 69, 0
7, 76140, Note_on_c, 5, 67, 64
7, 76190, Note_on_c, 5, 67, 0
7, 76200, Note_on_c, 5, 65, 64
7, 76250, Note_on_c, 5, 65, 0
7, 76260, Note_on_c, 5, 67, 64
7, 76310, Note_on_c, 5, 67, 0
7, 76320, Note_on_c, 5, 68, 64
7, 76740, Note_on_c, 5, 68, 0
7, 77280, Note_on_c, 5, 72, 64
7, 77700, Note_on_c, 5, 72, 0
7, 77760, Note_on_c, 5, 71, 64
7, 78180, Note_on_c, 5, 71, 0
7, 78720, Note_on_c, 5, 65, 64
7, 79140, Note_on_c, 5, 65, 0
7, 79200, Note_on_c, 5, 63, 64
7, 79620, Note_on_c, 5, 63, 0
7, 80160, Note_on_c, 5, 70, 64
7, 80580, Note_on_c, 5, 70, 0
7, 80640, Note_on_c, 5, 69, 64
7, 81060, Note_on_c, 5, 69, 0
7, 81600, Note_on_c, 5, 63, 64
7, 82020, Note_on_c, 5, 63, 0
7, 82080, Note_on_c, 5, 62, 64
7, 82500, Note_on_c, 5, 62, 0
7, 82560, Note_on_c, 5, 65, 64
7, 82980, Note_on_c, 5, 65, 0
7, 83040, Note_on_c, 5, 67, 64
7, 83350, Note_on_c, 5, 67, 0
7, 83400, Note_on_c, 5, 63, 64
7, 83502, Note_on_c, 5, 63, 0
7, 83520, Note_on_c, 5, 62, 64
7, 84420, Note_on_c, 5, 62, 0
7, 84480, Note_on_c, 5, 60, 64
7, 84900, Note_on_c, 5, 60, 0
7, 84960, Note_on_c, 5, 65, 64
7, 85860, Note_on_c, 5, 65, 0
7, 85920, Note_on_c, 5, 63, 64
7, 86127, Note_on_c, 5, 63, 0
7, 86160, Note_on_c, 5, 62, 64
7, 86367, Note_on_c, 5, 62, 0
7, 86400, Note_on_c, 5, 67, 64
7, 86820, Note_on_c, 5, 67, 0
7, 86880, Note_on_c, 5, 58, 64
7, 87300, Note_on_c, 5, 58, 0
7, 87360, Note_on_c, 5, 60, 64
7, 87780, Note_on_c, 5, 60, 0
7, 87840, Note_on_c, 5, 58, 64
7, 88047, Note_on_c, 5, 58, 0
7, 88080, Note_on_c, 5, 62, 64
7, 88287, Note_on_c, 5, 62, 0
7, 88320, Note_on_c, 5, 62, 64
7, 88527, Note_on_c, 5, 62, 0
7, 88560, Note_on_c, 5, 70, 64
7, 88767, Note_on_c, 5, 70, 0
7, 88800, Note_on_c, 5, 67, 64
7, 89007, Note_on_c, 5, 67, 0
7, 89040, Note_on_c, 5, 63, 64
7, 89247, Note_on_c, 5, 63, 0
7, 89280, Note_on_c, 5, 62, 64
7, 89487, Note_on_c, 5, 62, 0
7, 89520, Note_on_c, 5, 60, 64
7, 89727, Note_on_c, 5, 60, 0
7, 89760, Note_on_c, 5, 58, 64
7, 89967, Note_on_c, 5, 58, 0
7, 90000, Note_on_c, 5, 57, 64
7, 90207, Note_on_c, 5, 57, 0
7, 90240, Note_on_c, 5, 58, 64
7, 90447, Note_on_c, 5, 58, 0
7, 90480, Note_on_c, 5, 60, 64
7, 90687, Note_on_c, 5, 60, 0
7, 90720, Note_on_c, 5, 62, 64
7, 91140, Note_on_c, 5, 62, 0
7, 91200, Note_on_c, 5, 65, 64
7, 91620, Note_on_c, 5, 65, 0
7, 91680, Note_on_c, 5, 63, 64
7, 91887, Note_on_c, 5, 63, 0
7, 91920, Note_on_c, 5, 62, 64
7, 92127, Note_on_c, 5, 62, 0
7, 92160, Note_on_c, 5, 67, 64
7, 92580, Note_on_c, 5, 67, 0
7, 92640, Note_on_c, 5, 58, 64
7, 93060, Note_on_c, 5, 58, 0
7, 93120, Note_on_c, 5, 60, 64
7, 93540, Note_on_c, 5, 60, 0
7, 93600, Note_on_c, 5, 65, 64
7, 94020, Note_on_c, 5, 65, 0
7, 94080, Note_on_c, 5, 62, 64
7, 94500, Note_on_c, 5, 62, 0
7, 94560, Note_on_c, 5, 60, 64
7, 94980, Note_on_c, 5, 60, 0
7, 95040, Note_on_c, 5, 62, 64
7, 95040, Note_on_c, 5, 70, 64
7, 95940, Note_on_c, 5, 70, 0
7, 95940, Note_on_c, 5, 62, 0
7, 96480, Note_on_c, 5, 58, 64
7, 96687, Note_on_c, 5, 58, 0
7, 96720, Note_on_c, 5, 58, 64
7, 96927, Note_on_c, 5, 58, 0
7, 96960, Note_on_c, 5, 58, 64
7, 97167, Note_on_c, 5, 58, 0
7, 97200, Note_on_c, 5, 58, 64
7, 97407, Note_on_c, 5, 58, 0
7, 97440, Note_on_c, 5, 58, 64
7, 97647, Note_on_c, 5, 58, 0
7, 97680, Note_on_c, 5, 58, 64
7, 97887, Note_on_c, 5, 58, 0
7, 97920, Note_on_c, 5, 63, 64
7, 98127, Note_on_c, 5, 63, 0
7, 98160, Note_on_c, 5, 63, 64
7, 98367, Note_on_c, 5, 63, 0
7, 98400, Note_on_c, 5, 63, 64
7, 98607, Note_on_c, 5, 63, 0
7, 98640, Note_on_c, 5, 63, 64
7, 98847, Note_on_c, 5, 63, 0
7, 98880, Note_on_c, 5, 63, 64
7, 99087, Note_on_c, 5, 63, 0
7, 99120, Note_on_c, 5, 63, 64
7, 99327, Note_on_c, 5, 63, 0
7, 99360, Note_on_c, 5, 62, 64
7, 99567, Note_on_c, 5, 62, 0
7, 99600, Note_on_c, 5, 62, 64
7, 99807, Note_on_c, 5, 62, 0
7, 99840, Note_on_c, 5, 62, 64
7, 100047, Note_on_c, 5, 62, 0
7, 100080, Note_on_c, 5, 62, 64
7, 100287, Note_on_c, 5, 62, 0
7, 100320, Note_on_c, 5, 62, 64
7, 100527, Note_on_c, 5, 62, 0
7, 100560, Note_on_c, 5, 62, 64
7, 100767, Note_on_c, 5, 62, 0
7, 100800, Note_on_c, 5, 63, 64
7, 101007, Note_on_c, 5, 63, 0
7, 101040, Note_on_c, 5, 63, 64
7, 101247, Note_on_c, 5, 63, 0
7, 101280, Note_on_c, 5, 63, 64
7, 101487, Note_on_c, 5, 63, 0
7, 101520, Note_on_c, 5, 63, 64
7, 101727, Note_on_c, 5, 63, 0
7, 101760, Note_on_c, 5, 63, 64
7, 101967, Note_on_c, 5, 63, 0
7, 102000, Note_on_c, 5, 63, 64
7, 102207, Note_on_c, 5, 63, 0
7, 102240, Note_on_c, 5, 62, 64
7, 102447, Note_on_c, 5, 62, 0
7, 102480, Note_on_c, 5, 74, 64
7, 102687, Note_on_c, 5, 74, 0
7, 102720, Note_on_c, 5, 72, 64
7, 103140, Note_on_c, 5, 72, 0
7, 103200, Note_on_c, 5, 70, 64
7, 103620, Note_on_c, 5, 70, 0
7, 103680, Note_on_c, 5, 69, 64
7, 104100, Note_on_c, 5, 69, 0
7, 104160, Note_on_c, 5, 67, 64
7, 104580, Note_on_c, 5, 67, 0
7, 104640, Note_on_c, 5, 65, 64
7, 105060, Note_on_c, 5, 65, 0
7, 105120, Note_on_c, 5, 63, 64
7, 105540, Note_on_c, 5, 63, 0
7, 105600, Note_on_c, 5, 62, 64
7, 106020, Note_on_c, 5, 62, 0
7, 106080, Note_on_c, 5, 60, 64
7, 106500, Note_on_c, 5, 60, 0
7, 106560, Note_on_c, 5, 60, 64
7, 107460, Note_on_c, 5, 60, 0
7, 107520, Note_on_c, 5, 58, 64
7, 107940, Note_on_c, 5, 58, 0
7, 108240, Note_on_c, 5, 58, 64
7, 108660, Note_on_c, 5, 58, 0
7, 108720, Note_on_c, 5, 62, 64
7, 109140, Note_on_c, 5, 62, 0
7, 109200, Note_on_c, 5, 65, 64
7, 109407, Note_on_c, 5, 65, 0
7, 109440, Note_on_c, 5, 63, 64
7, 109860, Note_on_c, 5, 63, 0
7, 111120, Note_on_c, 5, 60, 64
7, 111540, Note_on_c, 5, 60, 0
7, 111600, Note_on_c, 5, 64, 64
7, 112020, Note_on_c, 5, 64, 0
7, 112080, Note_on_c, 5, 67, 64
7, 112287, Note_on_c, 5, 67, 0
7, 112320, Note_on_c, 5, 65, 64
7, 112740, Note_on_c, 5, 65, 0
7, 114000, Note_on_c, 5, 62, 64
7, 114420, Note_on_c, 5, 62, 0
7, 114480, Note_on_c, 5, 66, 64
7, 114900, Note_on_c, 5, 66, 0
7, 114960, Note_on_c, 5, 69, 64
7, 115167, Note_on_c, 5, 69, 0
7, 115200, Note_on_c, 5, 67, 64
7, 115620, Note_on_c, 5, 67, 0
7, 116640, Note_on_c, 5, 62, 64
7, 116847, Note_on_c, 5, 62, 0
7, 116880, Note_on_c, 5, 62, 64
7, 117087, Note_on_c, 5, 62, 0
7, 117120, Note_on_c, 5, 62, 64
7, 117327, Note_on_c, 5, 62, 0
7, 117360, Note_on_c, 5, 62, 64
7, 117567, Note_on_c, 5, 62, 0
7, 117600, Note_on_c, 5, 62, 64
7, 117807, Note_on_c, 5, 62, 0
7, 117840, Note_on_c, 5, 62, 64
7, 118047, Note_on_c, 5, 62, 0
7, 118080, Note_on_c, 5, 60, 64
7, 118287, Note_on_c, 5, 60, 0
7, 118320, Note_on_c, 5, 60, 64
7, 118527, Note_on_c, 5, 60, 0
7, 118560, Note_on_c, 5, 60, 64
7, 118767, Note_on_c, 5, 60, 0
7, 118800, Note_on_c, 5, 60, 64
7, 119007, Note_on_c, 5, 60, 0
7, 119040, Note_on_c, 5, 60, 64
7, 119247, Note_on_c, 5, 60, 0
7, 119280, Note_on_c, 5, 60, 64
7, 119487, Note_on_c, 5, 60, 0
7, 119520, Note_on_c, 5, 58, 64
7, 119727, Note_on_c, 5, 58, 0
7, 119760, Note_on_c, 5, 62, 64
7, 119967, Note_on_c, 5, 62, 0
7, 120000, Note_on_c, 5, 62, 64
7, 120207, Note_on_c, 5, 62, 0
7, 120240, Note_on_c, 5, 62, 64
7, 120447, Note_on_c, 5, 62, 0
7, 120480, Note_on_c, 5, 62, 64
7, 120687, Note_on_c, 5, 62, 0
7, 120720, Note_on_c, 5, 62, 64
7, 120927, Note_on_c, 5, 62, 0
7, 120960, Note_on_c, 5, 63, 64
7, 121167, Note_on_c, 5, 63, 0
7, 121200, Note_on_c, 5, 63, 64
7, 121407, Note_on_c, 5, 63, 0
7, 121440, Note_on_c, 5, 63, 64
7, 121647, Note_on_c, 5, 63, 0
7, 121680, Note_on_c, 5, 63, 64
7, 121887, Note_on_c, 5, 63, 0
7, 121920, Note_on_c, 5, 63, 64
7, 122127, Note_on_c, 5, 63, 0
7, 122160, Note_on_c, 5, 63, 64
7, 122367, Note_on_c, 5, 63, 0
7, 122400, Note_on_c, 5, 62, 64
7, 122607, Note_on_c, 5, 62, 0
7, 122640, Note_on_c, 5, 74, 64
7, 122847, Note_on_c, 5, 74, 0
7, 122880, Note_on_c, 5, 72, 64
7, 123300, Note_on_c, 5, 72, 0
7, 123360, Note_on_c, 5, 70, 64
7, 123780, Note_on_c, 5, 70, 0
7, 123840, Note_on_c, 5, 69, 64
7, 124260, Note_on_c, 5, 69, 0
7, 124320, Note_on_c, 5, 67, 64
7, 124740, Note_on_c, 5, 67, 0
7, 124800, Note_on_c, 5, 65, 64
7, 125220, Note_on_c, 5, 65, 0
7, 125280, Note_on_c, 5, 63, 64
7, 125700, Note_on_c, 5, 63, 0
7, 125760, Note_on_c, 5, 62, 64
7, 126180, Note_on_c, 5, 62, 0
7, 126240, Note_on_c, 5, 60, 64
7, 126660, Note_on_c, 5, 60, 0
7, 126720, Note_on_c, 5, 60, 64
7, 127620, Note_on_c, 5, 60, 0
7, 127680, Note_on_c, 5, 58, 64
7, 128100, Note_on_c, 5, 58, 0
7, 128160, Note_on_c, 5, 65, 64
7, 129060, Note_on_c, 5, 65, 0
7, 129120, Note_on_c, 5, 63, 64
7, 129327, Note_on_c, 5, 63, 0
7, 129360, Note_on_c, 5, 62, 64
7, 129567, Note_on_c, 5, 62, 0
7, 129600, Note_on_c, 5, 67, 64
7, 130020, Note_on_c, 5, 67, 0
7, 130080, Note_on_c, 5, 58, 64
7, 130500, Note_on_c, 5, 58, 0
7, 130560, Note_on_c, 5, 60, 64
7, 130980, Note_on_c, 5, 60, 0
7, 131040, Note_on_c, 5, 58, 64
7, 131247, Note_on_c, 5, 58, 0
7, 131280, Note_on_c, 5, 62, 64
7, 131487, Note_on_c, 5, 62, 0
7, 131520, Note_on_c, 5, 62, 64
7, 131727, Note_on_c, 5, 62, 0
7, 131760, Note_on_c, 5, 70, 64
7, 131967, Note_on_c, 5, 70, 0
7, 132000, Note_on_c, 5, 67, 64
7, 132207, Note_on_c, 5, 67, 0
7, 132240, Note_on_c, 5, 63, 64
7, 132447, Note_on_c, 5, 63, 0
7, 132480, Note_on_c, 5, 62, 64
7, 132687, Note_on_c, 5, 62, 0
7, 132720, Note_on_c, 5, 60, 64
7, 132927, Note_on_c, 5, 60, 0
7, 132960, Note_on_c, 5, 58, 64
7, 133167, Note_on_c, 5, 58, 0
7, 133200, Note_on_c, 5, 57, 64
7, 133407, Note_on_c, 5, 57, 0
7, 133440, Note_on_c, 5, 58, 64
7, 133647, Note_on_c, 5, 58, 0
7, 133680, Note_on_c, 5, 60, 64
7, 133887, Note_on_c, 5, 60, 0
7, 133920, Note_on_c, 5, 62, 64
7, 134340, Note_on_c, 5, 62, 0
7, 134400, Note_on_c, 5, 65, 64
7, 134820, Note_on_c, 5, 65, 0
7, 134880, Note_on_c, 5, 63, 64
7, 135087, Note_on_c, 5, 63, 0
7, 135120, Note_on_c, 5, 62, 64
7, 135327, Note_on_c, 5, 62, 0
7, 135360, Note_on_c, 5, 67, 64
7, 135780, Note_on_c, 5, 67, 0
7, 135840, Note_on_c, 5, 58, 64
7, 136260, Note_on_c, 5, 58, 0
7, 136320, Note_on_c, 5, 60, 64
7, 136740, Note_on_c, 5, 60, 0
7, 136800, Note_on_c, 5, 65, 64
7, 137220, Note_on_c, 5, 65, 0
7, 137280, Note_on_c, 5, 62, 64
7, 137700, Note_on_c, 5, 62, 0
7, 137760, Note_on_c, 5, 60, 64
7, 138180, Note_on_c, 5, 60, 0
7, 138240, Note_on_c, 5, 62, 64
7, 138240, Note_on_c, 5, 70, 64
7, 139140, Note_on_c, 5, 70, 0
7, 139140, Note_on_c, 5, 62, 0
7, 139680, Note_on_c, 5, 62, 64
7, 140100, Note_on_c, 5, 62, 0
7, 140160, Note_on_c, 5, 70, 64
7, 140470, Note_on_c, 5, 70, 0
7, 140520, Note_on_c, 5, 65, 64
7, 140622, Note_on_c, 5, 65, 0
7, 140640, Note_on_c, 5, 74, 64
7, 141060, Note_on_c, 5, 74, 0
7, 141120, Note_on_c, 5, 57, 64
7, 141540, Note_on_c, 5, 57, 0
7, 141600, Note_on_c, 5, 72, 64
7, 141910, Note_on_c, 5, 72, 0
7, 141960, Note_on_c, 5, 69, 64
7, 142062, Note_on_c, 5, 69, 0
7, 142080, Note_on_c, 5, 72, 64
7, 142500, Note_on_c, 5, 72, 0
7, 142560, Note_on_c, 5, 70, 64
7, 143460, Note_on_c, 5, 70, 0
7, 143520, Note_on_c, 5, 67, 64
7, 143940, Note_on_c, 5, 67, 0
7, 144000, Note_on_c, 5, 65, 64
7, 144420, Note_on_c, 5, 65, 0
7, 144480, Note_on_c, 5, 69, 64
7, 144900, Note_on_c, 5, 69, 0
7, 144960, Note_on_c, 5, 69, 64
7, 145062, Note_on_c, 5, 69, 0
7, 145080, Note_on_c, 5, 67, 64
7, 145182, Note_on_c, 5, 67, 0
7, 145200, Note_on_c, 5, 65, 64
7, 145302, Note_on_c, 5, 65, 0
7, 145320, Note_on_c, 5, 63, 64
7, 145422, Note_on_c, 5, 63, 0
7, 145440, Note_on_c, 5, 62, 64
7, 145860, Note_on_c, 5, 62, 0
7, 145920, Note_on_c, 5, 70, 64
7, 146230, Note_on_c, 5, 70, 0
7, 146280, Note_on_c, 5, 65, 64
7, 146382, Note_on_c, 5, 65, 0
7, 146400, Note_on_c, 5, 74, 64
7, 146820, Note_on_c, 5, 74, 0
7, 146880, Note_on_c, 5, 57, 64
7, 147300, Note_on_c, 5, 57, 0
7, 147360, Note_on_c, 5, 72, 64
7, 147670, Note_on_c, 5, 72, 0
7, 147720, Note_on_c, 5, 69, 64
7, 147822, Note_on_c, 5, 69, 0
7, 147840, Note_on_c, 5, 72, 64
7, 148260, Note_on_c, 5, 72, 0
7, 148320, Note_on_c, 5, 70, 64
7, 149220, Note_on_c, 5, 70, 0
7, 149280, Note_on_c, 5, 69, 64
7, 149700, Note_on_c, 5, 69, 0
7, 151440, Note_on_c, 5, 62, 64
7, 151647, Note_on_c, 5, 62, 0
7, 151680, Note_on_c, 5, 62, 64
7, 151887, Note_on_c, 5, 62, 0
7, 151920, Note_on_c, 5, 62, 64
7, 152127, Note_on_c, 5, 62, 0
7, 152160, Note_on_c, 5, 68, 64
7, 152367, Note_on_c, 5, 68, 0
7, 152400, Note_on_c, 5, 65, 64
7, 152607, Note_on_c, 5, 65, 0
7, 152880, Note_on_c, 5, 63, 64
7, 153087, Note_on_c, 5, 63, 0
7, 153120, Note_on_c, 5, 67, 64
7, 153327, Note_on_c, 5, 67, 0
7, 153360, Note_on_c, 5, 67, 64
7, 153567, Note_on_c, 5, 67, 0
7, 153600, Note_on_c, 5, 70, 64
7, 153807, Note_on_c, 5, 70, 0
7, 153840, Note_on_c, 5, 67, 64
7, 154047, Note_on_c, 5, 67, 0
7, 154320, Note_on_c, 5, 67, 64
7, 154527, Note_on_c, 5, 67, 0
7, 154560, Note_on_c, 5, 67, 64
7, 154767, Note_on_c, 5, 67, 0
7, 154800, Note_on_c, 5, 67, 64
7, 155007, Note_on_c, 5, 67, 0
7, 155040, Note_on_c, 5, 70, 64
7, 155247, Note_on_c, 5, 70, 0
7, 155280, Note_on_c, 5, 67, 64
7, 155487, Note_on_c, 5, 67, 0
7, 155760, Note_on_c, 5, 65, 64
7, 155967, Note_on_c, 5, 65, 0
7, 156000, Note_on_c, 5, 65, 64
7, 156207, Note_on_c, 5, 65, 0
7, 156240, Note_on_c, 5, 65, 64
7, 156447, Note_on_c, 5, 65, 0
7, 156480, Note_on_c, 5, 69, 64
7, 156687, Note_on_c, 5, 69, 0
7, 156720, Note_on_c, 5, 57, 64
7, 156927, Note_on_c, 5, 57, 0
7, 159360, Note_on_c, 5, 76, 64
7, 159780, Note_on_c, 5, 76, 0
7, 159840, Note_on_c, 5, 77, 64
7, 160260, Note_on_c, 5, 77, 0
7, 162240, Note_on_c, 5, 76, 64
7, 162660, Note_on_c, 5, 76, 0
7, 162720, Note_on_c, 5, 77, 64
7, 163140, Note_on_c, 5, 77, 0
7, 163680, Note_on_c, 5, 61, 64
7, 164100, Note_on_c, 5, 61, 0
7, 164160, Note_on_c, 5, 60, 64
7, 164580, Note_on_c, 5, 60, 0
7, 167280, Note_on_c, 5, 69, 64
7, 167382, Note_on_c, 5, 69, 0
7, 167400, Note_on_c, 5, 70, 64
7, 167502, Note_on_c, 5, 70, 0
7, 167520, Note_on_c, 5, 72, 64
7, 167727, Note_on_c, 5, 72, 0
7, 167760, Note_on_c, 5, 65, 64
7, 167967, Note_on_c, 5, 65, 0
7, 168000, Note_on_c, 5, 67, 64
7, 168207, Note_on_c, 5, 67, 0
7, 168240, Note_on_c, 5, 69, 64
7, 168447, Note_on_c, 5, 69, 0
7, 168480, Note_on_c, 5, 70, 64
7, 168900, Note_on_c, 5, 70, 0
7, 170160, Note_on_c, 5, 72, 64
7, 170262, Note_on_c, 5, 72, 0
7, 170280, Note_on_c, 5, 70, 64
7, 170382, Note_on_c, 5, 70, 0
7, 170400, Note_on_c, 5, 69, 64
7, 170607, Note_on_c, 5, 69, 0
7, 170640, Note_on_c, 5, 65, 64
7, 170847, Note_on_c, 5, 65, 0
7, 170880, Note_on_c, 5, 67, 64
7, 171087, Note_on_c, 5, 67, 0
7, 171120, Note_on_c, 5, 69, 64
7, 171327, Note_on_c, 5, 69, 0
7, 171360, Note_on_c, 5, 70, 64
7, 171780, Note_on_c, 5, 70, 0
7, 173040, Note_on_c, 5, 69, 64
7, 173142, Note_on_c, 5, 69, 0
7, 173160, Note_on_c, 5, 70, 64
7, 173262, Note_on_c, 5, 70, 0
7, 173280, Note_on_c, 5, 72, 64
7, 173487, Note_on_c, 5, 72, 0
7, 173520, Note_on_c, 5, 65, 64
7, 173727, Note_on_c, 5, 65, 0
7, 173760, Note_on_c, 5, 67, 64
7, 173967, Note_on_c, 5, 67, 0
7, 174000, Note_on_c, 5, 69, 64
7, 174207, Note_on_c, 5, 69, 0
7, 174240, Note_on_c, 5, 70, 64
7, 174660, Note_on_c, 5, 70, 0
7, 175920, Note_on_c, 5, 62, 64
7, 176022, Note_on_c, 5, 62, 0
7, 176040, Note_on_c, 5, 63, 64
7, 176142, Note_on_c, 5, 63, 0
7, 176160, Note_on_c, 5, 65, 64
7, 176367, Note_on_c, 5, 65, 0
7, 176400, Note_on_c, 5, 62, 64
7, 176607, Note_on_c, 5, 62, 0
7, 176640, Note_on_c, 5, 60, 64
7, 176847, Note_on_c, 5, 60, 0
7, 176880, Note_on_c, 5, 58, 64
7, 177087, Note_on_c, 5, 58, 0
7, 177120, Note_on_c, 5, 57, 64
7, 177327, Note_on_c, 5, 57, 0
7, 177360, Note_on_c, 5, 57, 64
7, 177462, Note_on_c, 5, 57, 0
7, 177480, Note_on_c, 5, 56, 64
7, 177582, Note_on_c, 5, 56, 0
7, 177600, Note_on_c, 5, 57, 64
7, 177807, Note_on_c, 5, 57, 0
7, 177840, Note_on_c, 5, 57, 64
7, 178047, Note_on_c, 5, 57, 0
7, 178080, Note_on_c, 5, 58, 64
7, 178287, Note_on_c, 5, 58, 0
7, 178320, Note_on_c, 5, 62, 64
7, 178527, Note_on_c, 5, 62, 0
7, 178560, Note_on_c, 5, 59, 64
7, 178767, Note_on_c, 5, 59, 0
7, 178800, Note_on_c, 5, 60, 64
7, 179007, Note_on_c, 5, 60, 0
7, 179040, Note_on_c, 5, 60, 64
7, 179940, Note_on_c, 5, 60, 0
7, 180240, Note_on_c, 5, 58, 64
7, 180342, Note_on_c, 5, 58, 0
7, 180360, Note_on_c, 5, 57, 64
7, 180462, Note_on_c, 5, 57, 0
7, 180480, Note_on_c, 5, 58, 64
7, 180687, Note_on_c, 5, 58, 0
7, 180720, Note_on_c, 5, 58, 64
7, 180927, Note_on_c, 5, 58, 0
7, 180960, Note_on_c, 5, 60, 64
7, 181167, Note_on_c, 5, 60, 0
7, 181200, Note_on_c, 5, 63, 64
7, 181407, Note_on_c, 5, 63, 0
7, 181440, Note_on_c, 5, 61, 64
7, 181647, Note_on_c, 5, 61, 0
7, 181680, Note_on_c, 5, 62, 64
7, 181887, Note_on_c, 5, 62, 0
7, 181920, Note_on_c, 5, 62, 64
7, 182820, Note_on_c, 5, 62, 0
7, 182880, Note_on_c, 5, 65, 64
7, 183780, Note_on_c, 5, 65, 0
7, 183840, Note_on_c, 5, 63, 64
7, 184047, Note_on_c, 5, 63, 0
7, 184080, Note_on_c, 5, 62, 64
7, 184287, Note_on_c, 5, 62, 0
7, 184320, Note_on_c, 5, 67, 64
7, 184740, Note_on_c, 5, 67, 0
7, 184800, Note_on_c, 5, 72, 64
7, 185220, Note_on_c, 5, 72, 0
7, 185280, Note_on_c, 5, 69, 64
7, 185700, Note_on_c, 5, 69, 0
7, 185760, Note_on_c, 5, 70, 64
7, 185967, Note_on_c, 5, 70, 0
7, 186000, Note_on_c, 5, 74, 64
7, 186207, Note_on_c, 5, 74, 0
7, 186240, Note_on_c, 5, 62, 64
7, 186447, Note_on_c, 5, 62, 0
7, 186480, Note_on_c, 5, 70, 64
7, 186687, Note_on_c, 5, 70, 0
7, 186720, Note_on_c, 5, 67, 64
7, 186927, Note_on_c, 5, 67, 0
7, 186960, Note_on_c, 5, 63, 64
7, 187167, Note_on_c, 5, 63, 0
7, 187200, Note_on_c, 5, 62, 64
7, 187407, Note_on_c, 5, 62, 0
7, 187440, Note_on_c, 5, 60, 64
7, 187647, Note_on_c, 5, 60, 0
7, 187680, Note_on_c, 5, 58, 64
7, 187887, Note_on_c, 5, 58, 0
7, 187920, Note_on_c, 5, 57, 64
7, 188127, Note_on_c, 5, 57, 0
7, 188160, Note_on_c, 5, 58, 64
7, 188367, Note_on_c, 5, 58, 0
7, 188400, Note_on_c, 5, 60, 64
7, 188607, Note_on_c, 5, 60, 0
7, 188640, Note_on_c, 5, 62, 64
7, 189060, Note_on_c, 5, 62, 0
7, 189120, Note_on_c, 5, 65, 64
7, 189540, Note_on_c, 5, 65, 0
7, 189600, Note_on_c, 5, 63, 64
7, 189807, Note_on_c, 5, 63, 0
7, 189840, Note_on_c, 5, 62, 64
7, 190047, Note_on_c, 5, 62, 0
7, 190080, Note_on_c, 5, 67, 64
7, 190500, Note_on_c, 5, 67, 0
7, 190560, Note_on_c, 5, 72, 64
7, 190980, Note_on_c, 5, 72, 0
7, 191040, Note_on_c, 5, 69, 64
7, 191460, Note_on_c, 5, 69, 0
7, 191520, Note_on_c, 5, 70, 64
7, 191830, Note_on_c, 5, 70, 0
7, 191880, Note_on_c, 5, 72, 64
7, 191930, Note_on_c, 5, 72, 0
7, 191940, Note_on_c, 5, 74, 64
7, 191990, Note_on_c, 5, 74, 0
7, 192000, Note_on_c, 5, 62, 64
7, 192420, Note_on_c, 5, 62, 0
7, 192480, Note_on_c, 5, 60, 64
7, 192900, Note_on_c, 5, 60, 0
7, 192960, Note_on_c, 5, 62, 64
7, 193380, Note_on_c, 5, 62, 0
7, 193440, Note_on_c, 5, 65, 64
7, 193860, Note_on_c, 5, 65, 0
7, 193920, Note_on_c, 5, 74, 64
7, 194340, Note_on_c, 5, 74, 0
7, 194400, Note_on_c, 5, 75, 64
7, 194820, Note_on_c, 5, 75, 0
7, 194880, Note_on_c, 5, 60, 64
7, 195300, Note_on_c, 5, 60, 0
7, 195360, Note_on_c, 5, 69, 64
7, 195780, Note_on_c, 5, 69, 0
7, 195840, Note_on_c, 5, 70, 64
7, 196260, Note_on_c, 5, 70, 0
7, 196320, Note_on_c, 5, 65, 64
7, 196740, Note_on_c, 5, 65, 0
7, 196800, Note_on_c, 5, 74, 64
7, 197220, Note_on_c, 5, 74, 0
7, 197280, Note_on_c, 5, 75, 64
7, 197700, Note_on_c, 5, 75, 0
7, 197760, Note_on_c, 5, 60, 64
7, 198180, Note_on_c, 5, 60, 0
7, 198240, Note_on_c, 5, 69, 64
7, 198660, Note_on_c, 5, 69, 0
7, 198720, Note_on_c, 5, 70, 64
7, 198927, Note_on_c, 5, 70, 0
7, 199200, Note_on_c, 5, 65, 64
7, 199407, Note_on_c, 5, 65, 0
7, 199680, Note_on_c, 5, 58, 64
7, 199887, Note_on_c, 5, 58, 0
7, 200160, Note_on_c, 5, 67, 64
7, 200580, Note_on_c, 5, 67, 0
7, 200640, Note_on_c, 5, 63, 64
7, 201060, Note_on_c, 5, 63, 0
7, 201120, Note_on_c, 5, 60, 64
7, 201540, Note_on_c, 5, 60, 0
7, 201600, Note_on_c, 5, 58, 64
7, 201807, Note_on_c, 5, 58, 0
7, 201840, Note_on_c, 5, 70, 64
7, 202047, Note_on_c, 5, 70, 0
7, 202080, Note_on_c, 5, 70, 64
7, 202287, Note_on_c, 5, 70, 0
7, 202320, Note_on_c, 5, 70, 64
7, 202527, Note_on_c, 5, 70, 0
7, 202560, Note_on_c, 5, 69, 64
7, 202767, Note_on_c, 5, 69, 0
7, 202800, Note_on_c, 5, 69, 64
7, 203007, Note_on_c, 5, 69, 0
7, 203040, Note_on_c, 5, 70, 64
7, 203247, Note_on_c, 5, 70, 0
7, 203520, Note_on_c, 5, 70, 64
7, 203727, Note_on_c, 5, 70, 0
7, 204000, Note_on_c, 5, 65, 64
7, 204207, Note_on_c, 5, 65, 0
7, 204480, Note_on_c, 5, 67, 64
7, 204900, Note_on_c, 5, 67, 0
7, 204960, Note_on_c, 5, 63, 64
7, 205380, Note_on_c, 5, 63, 0
7, 205440, Note_on_c, 5, 60, 64
7, 205860, Note_on_c, 5, 60, 0
7, 207360, Note_on_c, 5, 70, 64
7, 207567, Note_on_c, 5, 70, 0
7, 207600, Note_on_c, 5, 70, 64
7, 207807, Note_on_c, 5, 70, 0
7, 207840, Note_on_c, 5, 70, 64
7, 208047, Note_on_c, 5, 70, 0
7, 208080, Note_on_c, 5, 70, 64
7, 208287, Note_on_c, 5, 70, 0
7, 208320, Note_on_c, 5, 70, 64
7, 208527, Note_on_c, 5, 70, 0
7, 208560, Note_on_c, 5, 70, 64
7, 208767, Note_on_c, 5, 70, 0
7, 208800, Note_on_c, 5, 69, 64
7, 208902, Note_on_c, 5, 69, 0
7, 208920, Note_on_c, 5, 69, 64
7, 209022, Note_on_c, 5, 69, 0
7, 209040, Note_on_c, 5, 69, 64
7, 209142, Note_on_c, 5, 69, 0
7, 209160, Note_on_c, 5, 69, 64
7, 209262, Note_on_c, 5, 69, 0
7, 209280, Note_on_c, 5, 69, 64
7, 209382, Note_on_c, 5, 69, 0
7, 209400, Note_on_c, 5, 69, 64
7, 209502, Note_on_c, 5, 69, 0
7, 209520, Note_on_c, 5, 69, 64
7, 209622, Note_on_c, 5, 69, 0
7, 209640, Note_on_c, 5, 69, 64
7, 209742, Note_on_c, 5, 69, 0
7, 209760, Note_on_c, 5, 69, 64
7, 209862, Note_on_c, 5, 69, 0
7, 209880, Note_on_c, 5, 69, 64
7, 209982, Note_on_c, 5, 69, 0
7, 210000, Note_on_c, 5, 69, 64
7, 210102, Note_on_c, 5, 69, 0
7, 210120, Note_on_c, 5, 69, 64
7, 210222, Note_on_c, 5, 69, 0
7, 210240, Note_on_c, 5, 65, 64
7, 211140, Note_on_c, 5, 65, 0
7, 211200, Note_on_c, 5, 63, 64
7, 211407, Note_on_c, 5, 63, 0
7, 211440, Note_on_c, 5, 62, 64
7, 211647, Note_on_c, 5, 62, 0
7, 211680, Note_on_c, 5, 67, 64
7, 212100, Note_on_c, 5, 67, 0
7, 212160, Note_on_c, 5, 58, 64
7, 212580, Note_on_c, 5, 58, 0
7, 212640, Note_on_c, 5, 60, 64
7, 213060, Note_on_c, 5, 60, 0
7, 213120, Note_on_c, 5, 58, 64
7, 213327, Note_on_c, 5, 58, 0
7, 213360, Note_on_c, 5, 62, 64
7, 213567, Note_on_c, 5, 62, 0
7, 213600, Note_on_c, 5, 62, 64
7, 213807, Note_on_c, 5, 62, 0
7, 213840, Note_on_c, 5, 70, 64
7, 214047, Note_on_c, 5, 70, 0
7, 214080, Note_on_c, 5, 67, 64
7, 214287, Note_on_c, 5, 67, 0
7, 214320, Note_on_c, 5, 63, 64
7, 214527, Note_on_c, 5, 63, 0
7, 214560, Note_on_c, 5, 62, 64
7, 214767, Note_on_c, 5, 62, 0
7, 214800, Note_on_c, 5, 60, 64
7, 215007, Note_on_c, 5, 60, 0
7, 215040, Note_on_c, 5, 58, 64
7, 215247, Note_on_c, 5, 58, 0
7, 215280, Note_on_c, 5, 57, 64
7, 215487, Note_on_c, 5, 57, 0
7, 215520, Note_on_c, 5, 58, 64
7, 215727, Note_on_c, 5, 58, 0
7, 215760, Note_on_c, 5, 60, 64
7, 215967, Note_on_c, 5, 60, 0
7, 216000, Note_on_c, 5, 62, 64
7, 216420, Note_on_c, 5, 62, 0
7, 216480, Note_on_c, 5, 65, 64
7, 216900, Note_on_c, 5, 65, 0
7, 216960, Note_on_c, 5, 63, 64
7, 217167, Note_on_c, 5, 63, 0
7, 217200, Note_on_c, 5, 62, 64
7, 217407, Note_on_c, 5, 62, 0
7, 217440, Note_on_c, 5, 67, 64
7, 217860, Note_on_c, 5, 67, 0
7, 217920, Note_on_c, 5, 58, 64
7, 218340, Note_on_c, 5, 58, 0
7, 218400, Note_on_c, 5, 60, 64
7, 218820, Note_on_c, 5, 60, 0
7, 218880, Note_on_c, 5, 65, 64
7, 219300, Note_on_c, 5, 65, 0
7, 219360, Note_on_c, 5, 62, 64
7, 219780, Note_on_c, 5, 62, 0
7, 219840, Note_on_c, 5, 60, 64
7, 220260, Note_on_c, 5, 60, 0
7, 220320, Note_on_c, 5, 62, 64
7, 220630, Note_on_c, 5, 62, 0
7, 223200, Note_on_c, 5, 62, 64
7, 223200, Note_on_c, 5, 70, 64
7, 223510, Note_on_c, 5, 70, 0
7, 223510, Note_on_c, 5, 62, 0
7, 226560, Note_on_c, 5, 58, 64
7, 226980, Note_on_c, 5, 58, 0
7, 227040, Note_on_c, 5, 58, 64
7, 227460, Note_on_c, 5, 58, 0
7, 227520, Note_on_c, 5, 58, 64
7, 227940, Note_on_c, 5, 58, 0
7, 227940, End_track
8, 0, Start_track
8, 0, Title_t, "Viola I, II"
8, 0, Control_c, 6, 0, 0
8, 0, Control_c, 6, 7, 90
8, 0, Control_c, 6, 10, 45
8, 0, Control_c, 6, 91, 73
8, 0, Control_c, 6, 93, 73
8, 1, Control_c, 6, 32, 1
8, 2, Program_c, 6, 48
8, 1440, Note_on_c, 6, 62, 64
8, 1860, Note_on_c, 6, 62, 0
8, 1920, Note_on_c, 6, 70, 64
8, 2340, Note_on_c, 6, 70, 0
8, 2400, Note_on_c, 6, 69, 64
8, 2607, Note_on_c, 6, 69, 0
8, 2640, Note_on_c, 6, 70, 64
8, 2847, Note_on_c, 6, 70, 0
8, 2880, Note_on_c, 6, 67, 64
8, 3780, Note_on_c, 6, 67, 0
8, 3840, Note_on_c, 6, 65, 64
8, 4260, Note_on_c, 6, 65, 0
8, 4320, Note_on_c, 6, 65, 64
8, 4527, Note_on_c, 6, 65, 0
8, 4560, Note_on_c, 6, 62, 64
8, 4767, Note_on_c, 6, 62, 0
8, 4800, Note_on_c, 6, 65, 64
8, 5007, Note_on_c, 6, 65, 0
8, 5040, Note_on_c, 6, 58, 64
8, 5247, Note_on_c, 6, 58, 0
8, 5280, Note_on_c, 6, 63, 64
8, 5487, Note_on_c, 6, 63, 0
8, 5520, Note_on_c, 6, 60, 64
8, 5727, Note_on_c, 6, 60, 0
8, 5760, Note_on_c, 6, 53, 64
8, 6180, Note_on_c, 6, 53, 0
8, 6240, Note_on_c, 6, 65, 64
8, 6660, Note_on_c, 6, 65, 0
8, 6720, Note_on_c, 6, 65, 64
8, 7140, Note_on_c, 6, 65, 0
8, 7200, Note_on_c, 6, 65, 64
8, 7620, Note_on_c, 6, 65, 0
8, 7680, Note_on_c, 6, 70, 64
8, 8100, Note_on_c, 6, 70, 0
8, 8160, Note_on_c, 6, 69, 64
8, 8367, Note_on_c, 6, 69, 0
8, 8400, Note_on_c, 6, 70, 64
8, 8607, Note_on_c, 6, 70, 0
8, 8640, Note_on_c, 6, 67, 64
8, 9540, Note_on_c, 6, 67, 0
8, 9600, Note_on_c, 6, 65, 64
8, 10020, Note_on_c, 6, 65, 0
8, 10080, Note_on_c, 6, 65, 64
8, 10500, Note_on_c, 6, 65, 0
8, 10560, Note_on_c, 6, 65, 64
8, 10980, Note_on_c, 6, 65, 0
8, 11040, Note_on_c, 6, 65, 64
8, 11460, Note_on_c, 6, 65, 0
8, 11520, Note_on_c, 6, 65, 64
8, 12420, Note_on_c, 6, 65, 0
8, 12960, Note_on_c, 6, 62, 64
8, 13380, Note_on_c, 6, 62, 0
8, 13440, Note_on_c, 6, 70, 64
8, 13860, Note_on_c, 6, 70, 0
8, 13920, Note_on_c, 6, 69, 64
8, 14127, Note_on_c, 6, 69, 0
8, 14160, Note_on_c, 6, 70, 64
8, 14367, Note_on_c, 6, 70, 0
8, 14400, Note_on_c, 6, 67, 64
8, 15300, Note_on_c, 6, 67, 0
8, 15360, Note_on_c, 6, 65, 64
8, 15780, Note_on_c, 6, 65, 0
8, 15840, Note_on_c, 6, 65, 64
8, 16047, Note_on_c, 6, 65, 0
8, 16080, Note_on_c, 6, 62, 64
8, 16287, Note_on_c, 6, 62, 0
8, 16320, Note_on_c, 6, 65, 64
8, 16527, Note_on_c, 6, 65, 0
8, 16560, Note_on_c, 6, 58, 64
8, 16767, Note_on_c, 6, 58, 0
8, 16800, Note_on_c, 6, 63, 64
8, 17007, Note_on_c, 6, 63, 0
8, 17040, Note_on_c, 6, 60, 64
8, 17247, Note_on_c, 6, 60, 0
8, 17280, Note_on_c, 6, 53, 64
8, 17700, Note_on_c, 6, 53, 0
8, 17760, Note_on_c, 6, 65, 64
8, 18180, Note_on_c, 6, 65, 0
8, 18240, Note_on_c, 6, 65, 64
8, 18660, Note_on_c, 6, 65, 0
8, 18720, Note_on_c, 6, 65, 64
8, 19140, Note_on_c, 6, 65, 0
8, 19200, Note_on_c, 6, 70, 64
8, 19620, Note_on_c, 6, 70, 0
8, 19680, Note_on_c, 6, 69, 64
8, 19887, Note_on_c, 6, 69, 0
8, 19920, Note_on_c, 6, 70, 64
8, 20127, Note_on_c, 6, 70, 0
8, 20160, Note_on_c, 6, 67, 64
8, 21060, Note_on_c, 6, 67, 0
8, 21120, Note_on_c, 6, 65, 64
8, 21540, Note_on_c, 6, 65, 0
8, 21600, Note_on_c, 6, 65, 64
8, 22020, Note_on_c, 6, 65, 0
8, 22080, Note_on_c, 6, 65, 64
8, 22500, Note_on_c, 6, 65, 0
8, 22560, Note_on_c, 6, 65, 64
8, 22980, Note_on_c, 6, 65, 0
8, 23040, Note_on_c, 6, 65, 64
8, 23940, Note_on_c, 6, 65, 0
8, 24480, Note_on_c, 6, 60, 64
8, 25380, Note_on_c, 6, 60, 0
8, 25440, Note_on_c, 6, 62, 64
8, 25647, Note_on_c, 6, 62, 0
8, 25680, Note_on_c, 6, 58, 64
8, 25887, Note_on_c, 6, 58, 0
8, 25920, Note_on_c, 6, 62, 64
8, 26127, Note_on_c, 6, 62, 0
8, 26160, Note_on_c, 6, 63, 64
8, 26367, Note_on_c, 6, 63, 0
8, 26400, Note_on_c, 6, 63, 64
8, 27300, Note_on_c, 6, 63, 0
8, 27360, Note_on_c, 6, 62, 64
8, 28260, Note_on_c, 6, 62, 0
8, 28320, Note_on_c, 6, 63, 64
8, 28527, Note_on_c, 6, 63, 0
8, 28560, Note_on_c, 6, 60, 64
8, 28767, Note_on_c, 6, 60, 0
8, 28800, Note_on_c, 6, 64, 64
8, 29007, Note_on_c, 6, 64, 0
8, 29040, Note_on_c, 6, 65, 64
8, 29247, Note_on_c, 6, 65, 0
8, 29280, Note_on_c, 6, 65, 64
8, 30180, Note_on_c, 6, 65, 0
8, 30240, Note_on_c, 6, 62, 64
8, 30660, Note_on_c, 6, 62, 0
8, 30720, Note_on_c, 6, 70, 64
8, 31140, Note_on_c, 6, 70, 0
8, 31200, Note_on_c, 6, 69, 64
8, 31407, Note_on_c, 6, 69, 0
8, 31440, Note_on_c, 6, 70, 64
8, 31647, Note_on_c, 6, 70, 0
8, 31680, Note_on_c, 6, 67, 64
8, 32580, Note_on_c, 6, 67, 0
8, 32640, Note_on_c, 6, 65, 64
8, 33060, Note_on_c, 6, 65, 0
8, 33120, Note_on_c, 6, 65, 64
8, 33327, Note_on_c, 6, 65, 0
8, 33360, Note_on_c, 6, 62, 64
8, 33567, Note_on_c, 6, 62, 0
8, 33600, Note_on_c, 6, 67, 64
8, 33807, Note_on_c, 6, 67, 0
8, 33840, Note_on_c, 6, 58, 64
8, 34047, Note_on_c, 6, 58, 0
8, 34080, Note_on_c, 6, 63, 64
8, 34287, Note_on_c, 6, 63, 0
8, 34320, Note_on_c, 6, 60, 64
8, 34527, Note_on_c, 6, 60, 0
8, 34560, Note_on_c, 6, 53, 64
8, 34980, Note_on_c, 6, 53, 0
8, 35040, Note_on_c, 6, 65, 64
8, 35460, Note_on_c, 6, 65, 0
8, 35520, Note_on_c, 6, 65, 64
8, 35940, Note_on_c, 6, 65, 0
8, 36000, Note_on_c, 6, 65, 64
8, 36420, Note_on_c, 6, 65, 0
8, 36480, Note_on_c, 6, 70, 64
8, 36900, Note_on_c, 6, 70, 0
8, 36960, Note_on_c, 6, 69, 64
8, 37167, Note_on_c, 6, 69, 0
8, 37200, Note_on_c, 6, 70, 64
8, 37407, Note_on_c, 6, 70, 0
8, 37440, Note_on_c, 6, 67, 64
8, 38340, Note_on_c, 6, 67, 0
8, 38400, Note_on_c, 6, 65, 64
8, 38820, Note_on_c, 6, 65, 0
8, 38880, Note_on_c, 6, 65, 64
8, 39300, Note_on_c, 6, 65, 0
8, 39360, Note_on_c, 6, 65, 64
8, 39780, Note_on_c, 6, 65, 0
8, 39840, Note_on_c, 6, 65, 64
8, 40260, Note_on_c, 6, 65, 0
8, 40320, Note_on_c, 6, 65, 64
8, 41220, Note_on_c, 6, 65, 0
8, 41760, Note_on_c, 6, 58, 64
8, 43140, Note_on_c, 6, 58, 0
8, 43200, Note_on_c, 6, 60, 64
8, 44580, Note_on_c, 6, 60, 0
8, 44640, Note_on_c, 6, 62, 64
8, 45060, Note_on_c, 6, 62, 0
8, 45120, Note_on_c, 6, 60, 64
8, 45540, Note_on_c, 6, 60, 0
8, 45600, Note_on_c, 6, 60, 64
8, 46020, Note_on_c, 6, 60, 0
8, 46080, Note_on_c, 6, 60, 64
8, 46500, Note_on_c, 6, 60, 0
8, 47520, Note_on_c, 6, 58, 64
8, 48900, Note_on_c, 6, 58, 0
8, 48960, Note_on_c, 6, 60, 64
8, 50340, Note_on_c, 6, 60, 0
8, 50400, Note_on_c, 6, 62, 64
8, 50820, Note_on_c, 6, 62, 0
8, 50880, Note_on_c, 6, 63, 64
8, 51780, Note_on_c, 6, 63, 0
8, 51840, Note_on_c, 6, 62, 64
8, 51980, Note_on_c, 6, 62, 0
8, 51997, Note_on_c, 6, 65, 64
8, 52139, Note_on_c, 6, 65, 0
8, 52157, Note_on_c, 6, 63, 64
8, 52297, Note_on_c, 6, 63, 0
8, 52320, Note_on_c, 6, 62, 64
8, 52460, Note_on_c, 6, 62, 0
8, 52477, Note_on_c, 6, 63, 64
8, 52619, Note_on_c, 6, 63, 0
8, 52637, Note_on_c, 6, 65, 64
8, 52777, Note_on_c, 6, 65, 0
8, 52800, Note_on_c, 6, 58, 64
8, 53220, Note_on_c, 6, 58, 0
8, 53280, Note_on_c, 6, 58, 64
8, 53700, Note_on_c, 6, 58, 0
8, 54240, Note_on_c, 6, 58, 64
8, 54660, Note_on_c, 6, 58, 0
8, 54720, Note_on_c, 6, 57, 64
8, 55140, Note_on_c, 6, 57, 0
8, 55680, Note_on_c, 6, 57, 64
8, 56100, Note_on_c, 6, 57, 0
8, 56160, Note_on_c, 6, 60, 64
8, 58020, Note_on_c, 6, 60, 0
8, 58080, Note_on_c, 6, 60, 64
8, 58287, Note_on_c, 6, 60, 0
8, 58320, Note_on_c, 6, 62, 64
8, 58527, Note_on_c, 6, 62, 0
8, 58560, Note_on_c, 6, 60, 64
8, 58767, Note_on_c, 6, 60, 0
8, 58800, Note_on_c, 6, 64, 64
8, 59007, Note_on_c, 6, 64, 0
8, 59040, Note_on_c, 6, 65, 64
8, 59460, Note_on_c, 6, 65, 0
8, 66240, Note_on_c, 6, 58, 64
8, 67140, Note_on_c, 6, 58, 0
8, 67200, Note_on_c, 6, 55, 64
8, 67620, Note_on_c, 6, 55, 0
8, 67680, Note_on_c, 6, 57, 64
8, 67990, Note_on_c, 6, 57, 0
8, 68040, Note_on_c, 6, 58, 64
8, 68142, Note_on_c, 6, 58, 0
8, 68160, Note_on_c, 6, 60, 64
8, 69060, Note_on_c, 6, 60, 0
8, 69120, Note_on_c, 6, 60, 64
8, 69540, Note_on_c, 6, 60, 0
8, 70560, Note_on_c, 6, 58, 64
8, 71940, Note_on_c, 6, 58, 0
8, 73320, Note_on_c, 6, 55, 64
8, 73422, Note_on_c, 6, 55, 0
8, 73440, Note_on_c, 6, 57, 64
8, 73750, Note_on_c, 6, 57, 0
8, 73800, Note_on_c, 6, 58, 64
8, 73902, Note_on_c, 6, 58, 0
8, 73920, Note_on_c, 6, 60, 64
8, 74340, Note_on_c, 6, 60, 0
8, 74400, Note_on_c, 6, 55, 64
8, 74820, Note_on_c, 6, 55, 0
8, 74880, Note_on_c, 6, 55, 64
8, 75300, Note_on_c, 6, 55, 0
8, 75360, Note_on_c, 6, 53, 64
8, 75670, Note_on_c, 6, 53, 0
8, 75720, Note_on_c, 6, 55, 64
8, 75822, Note_on_c, 6, 55, 0
8, 75840, Note_on_c, 6, 57, 64
8, 75890, Note_on_c, 6, 57, 0
8, 75900, Note_on_c, 6, 55, 64
8, 75950, Note_on_c, 6, 55, 0
8, 75960, Note_on_c, 6, 57, 64
8, 76010, Note_on_c, 6, 57, 0
8, 76020, Note_on_c, 6, 55, 64
8, 76070, Note_on_c, 6, 55, 0
8, 76080, Note_on_c, 6, 57, 64
8, 76130, Note_on_c, 6, 57, 0
8, 76140, Note_on_c, 6, 55, 64
8, 76190, Note_on_c, 6, 55, 0
8, 76200, Note_on_c, 6, 53, 64
8, 76250, Note_on_c, 6, 53, 0
8, 76260, Note_on_c, 6, 55, 64
8, 76310, Note_on_c, 6, 55, 0
8, 76320, Note_on_c, 6, 56, 64
8, 76740, Note_on_c, 6, 56, 0
8, 77280, Note_on_c, 6, 60, 64
8, 77700, Note_on_c, 6, 60, 0
8, 77760, Note_on_c, 6, 62, 64
8, 78180, Note_on_c, 6, 62, 0
8, 78720, Note_on_c, 6, 62, 64
8, 79140, Note_on_c, 6, 62, 0
8, 79200, Note_on_c, 6, 60, 64
8, 79620, Note_on_c, 6, 60, 0
8, 80160, Note_on_c, 6, 58, 64
8, 80580, Note_on_c, 6, 58, 0
8, 80640, Note_on_c, 6, 60, 64
8, 81060, Note_on_c, 6, 60, 0
8, 81600, Note_on_c, 6, 60, 64
8, 82020, Note_on_c, 6, 60, 0
8, 82080, Note_on_c, 6, 58, 64
8, 82980, Note_on_c, 6, 58, 0
8, 83040, Note_on_c, 6, 58, 64
8, 83350, Note_on_c, 6, 58, 0
8, 83400, Note_on_c, 6, 67, 64
8, 83502, Note_on_c, 6, 67, 0
8, 83520, Note_on_c, 6, 65, 64
8, 84420, Note_on_c, 6, 65, 0
8, 84480, Note_on_c, 6, 63, 64
8, 84900, Note_on_c, 6, 63, 0
8, 84960, Note_on_c, 6, 62, 64
8, 85380, Note_on_c, 6, 62, 0
8, 85440, Note_on_c, 6, 70, 64
8, 85860, Note_on_c, 6, 70, 0
8, 85920, Note_on_c, 6, 69, 64
8, 86127, Note_on_c, 6, 69, 0
8, 86160, Note_on_c, 6, 70, 64
8, 86367, Note_on_c, 6, 70, 0
8, 86400, Note_on_c, 6, 67, 64
8, 87300, Note_on_c, 6, 67, 0
8, 87360, Note_on_c, 6, 65, 64
8, 87780, Note_on_c, 6, 65, 0
8, 87840, Note_on_c, 6, 65, 64
8, 88047, Note_on_c, 6, 65, 0
8, 88080, Note_on_c, 6, 62, 64
8, 88287, Note_on_c, 6, 62, 0
8, 88320, Note_on_c, 6, 67, 64
8, 88527, Note_on_c, 6, 67, 0
8, 88560, Note_on_c, 6, 58, 64
8, 88767, Note_on_c, 6, 58, 0
8, 88800, Note_on_c, 6, 63, 64
8, 89007, Note_on_c, 6, 63, 0
8, 89040, Note_on_c, 6, 60, 64
8, 89247, Note_on_c, 6, 60, 0
8, 89280, Note_on_c, 6, 53, 64
8, 89700, Note_on_c, 6, 53, 0
8, 89760, Note_on_c, 6, 65, 64
8, 90180, Note_on_c, 6, 65, 0
8, 90240, Note_on_c, 6, 65, 64
8, 90660, Note_on_c, 6, 65, 0
8, 90720, Note_on_c, 6, 65, 64
8, 91140, Note_on_c, 6, 65, 0
8, 91200, Note_on_c, 6, 70, 64
8, 91620, Note_on_c, 6, 70, 0
8, 91680, Note_on_c, 6, 69, 64
8, 91887, Note_on_c, 6, 69, 0
8, 91920, Note_on_c, 6, 70, 64
8, 92127, Note_on_c, 6, 70, 0
8, 92160, Note_on_c, 6, 67, 64
8, 93060, Note_on_c, 6, 67, 0
8, 93120, Note_on_c, 6, 65, 64
8, 93540, Note_on_c, 6, 65, 0
8, 93600, Note_on_c, 6, 65, 64
8, 94020, Note_on_c, 6, 65, 0
8, 94080, Note_on_c, 6, 65, 64
8, 94500, Note_on_c, 6, 65, 0
8, 94560, Note_on_c, 6, 65, 64
8, 94980, Note_on_c, 6, 65, 0
8, 95040, Note_on_c, 6, 65, 64
8, 95940, Note_on_c, 6, 65, 0
8, 96480, Note_on_c, 6, 62, 64
8, 96687, Note_on_c, 6, 62, 0
8, 96720, Note_on_c, 6, 62, 64
8, 96927, Note_on_c, 6, 62, 0
8, 96960, Note_on_c, 6, 62, 64
8, 97167, Note_on_c, 6, 62, 0
8, 97200, Note_on_c, 6, 62, 64
8, 97407, Note_on_c, 6, 62, 0
8, 97440, Note_on_c, 6, 62, 64
8, 97647, Note_on_c, 6, 62, 0
8, 97680, Note_on_c, 6, 62, 64
8, 97887, Note_on_c, 6, 62, 0
8, 97920, Note_on_c, 6, 60, 64
8, 98127, Note_on_c, 6, 60, 0
8, 98160, Note_on_c, 6, 60, 64
8, 98367, Note_on_c, 6, 60, 0
8, 98400, Note_on_c, 6, 60, 64
8, 98607, Note_on_c, 6, 60, 0
8, 98640, Note_on_c, 6, 60, 64
8, 98847, Note_on_c, 6, 60, 0
8, 98880, Note_on_c, 6, 60, 64
8, 99087, Note_on_c, 6, 60, 0
8, 99120, Note_on_c, 6, 60, 64
8, 99327, Note_on_c, 6, 60, 0
8, 100800, Note_on_c, 6, 57, 64
8, 101007, Note_on_c, 6, 57, 0
8, 101040, Note_on_c, 6, 57, 64
8, 101247, Note_on_c, 6, 57, 0
8, 101280, Note_on_c, 6, 57, 64
8, 101487, Note_on_c, 6, 57, 0
8, 101520, Note_on_c, 6, 57, 64
8, 101727, Note_on_c, 6, 57, 0
8, 101760, Note_on_c, 6, 57, 64
8, 101967, Note_on_c, 6, 57, 0
8, 102000, Note_on_c, 6, 57, 64
8, 102207, Note_on_c, 6, 57, 0
8, 104160, Note_on_c, 6, 55, 64
8, 104580, Note_on_c, 6, 55, 0
8, 104640, Note_on_c, 6, 62, 64
8, 105060, Note_on_c, 6, 62, 0
8, 105120, Note_on_c, 6, 60, 64
8, 105540, Note_on_c, 6, 60, 0
8, 105600, Note_on_c, 6, 58, 64
8, 106020, Note_on_c, 6, 58, 0
8, 106080, Note_on_c, 6, 57, 64
8, 106500, Note_on_c, 6, 57, 0
8, 106560, Note_on_c, 6, 57, 64
8, 107460, Note_on_c, 6, 57, 0
8, 107520, Note_on_c, 6, 55, 64
8, 107940, Note_on_c, 6, 55, 0
8, 108480, Note_on_c, 6, 58, 64
8, 108900, Note_on_c, 6, 58, 0
8, 108960, Note_on_c, 6, 58, 64
8, 109380, Note_on_c, 6, 58, 0
8, 109440, Note_on_c, 6, 58, 64
8, 109860, Note_on_c, 6, 58, 0
8, 111360, Note_on_c, 6, 60, 64
8, 111780, Note_on_c, 6, 60, 0
8, 111840, Note_on_c, 6, 60, 64
8, 112260, Note_on_c, 6, 60, 0
8, 112320, Note_on_c, 6, 60, 64
8, 112740, Note_on_c, 6, 60, 0
8, 114240, Note_on_c, 6, 62, 64
8, 114660, Note_on_c, 6, 62, 0
8, 114720, Note_on_c, 6, 62, 64
8, 115140, Note_on_c, 6, 62, 0
8, 115200, Note_on_c, 6, 62, 64
8, 115620, Note_on_c, 6, 62, 0
8, 116640, Note_on_c, 6, 58, 64
8, 116847, Note_on_c, 6, 58, 0
8, 116880, Note_on_c, 6, 58, 64
8, 117087, Note_on_c, 6, 58, 0
8, 117120, Note_on_c, 6, 58, 64
8, 117327, Note_on_c, 6, 58, 0
8, 117360, Note_on_c, 6, 58, 64
8, 117567, Note_on_c, 6, 58, 0
8, 117600, Note_on_c, 6, 58, 64
8, 117807, Note_on_c, 6, 58, 0
8, 117840, Note_on_c, 6, 58, 64
8, 118047, Note_on_c, 6, 58, 0
8, 118080, Note_on_c, 6, 63, 64
8, 118287, Note_on_c, 6, 63, 0
8, 118320, Note_on_c, 6, 63, 64
8, 118527, Note_on_c, 6, 63, 0
8, 118560, Note_on_c, 6, 63, 64
8, 118767, Note_on_c, 6, 63, 0
8, 118800, Note_on_c, 6, 63, 64
8, 119007, Note_on_c, 6, 63, 0
8, 119040, Note_on_c, 6, 63, 64
8, 119247, Note_on_c, 6, 63, 0
8, 119280, Note_on_c, 6, 63, 64
8, 119487, Note_on_c, 6, 63, 0
8, 119520, Note_on_c, 6, 62, 64
8, 119727, Note_on_c, 6, 62, 0
8, 120960, Note_on_c, 6, 57, 64
8, 121167, Note_on_c, 6, 57, 0
8, 121200, Note_on_c, 6, 57, 64
8, 121407, Note_on_c, 6, 57, 0
8, 121440, Note_on_c, 6, 57, 64
8, 121647, Note_on_c, 6, 57, 0
8, 121680, Note_on_c, 6, 57, 64
8, 121887, Note_on_c, 6, 57, 0
8, 121920, Note_on_c, 6, 57, 64
8, 122127, Note_on_c, 6, 57, 0
8, 122160, Note_on_c, 6, 57, 64
8, 122367, Note_on_c, 6, 57, 0
8, 124800, Note_on_c, 6, 62, 64
8, 125220, Note_on_c, 6, 62, 0
8, 125280, Note_on_c, 6, 60, 64
8, 125700, Note_on_c, 6, 60, 0
8, 125760, Note_on_c, 6, 58, 64
8, 126180, Note_on_c, 6, 58, 0
8, 126240, Note_on_c, 6, 57, 64
8, 126660, Note_on_c, 6, 57, 0
8, 126720, Note_on_c, 6, 57, 64
8, 127620, Note_on_c, 6, 57, 0
8, 127680, Note_on_c, 6, 55, 64
8, 128100, Note_on_c, 6, 55, 0
8, 128160, Note_on_c, 6, 62, 64
8, 128580, Note_on_c, 6, 62, 0
8, 128640, Note_on_c, 6, 70, 64
8, 129060, Note_on_c, 6, 70, 0
8, 129120, Note_on_c, 6, 69, 64
8, 129327, Note_on_c, 6, 69, 0
8, 129360, Note_on_c, 6, 70, 64
8, 129567, Note_on_c, 6, 70, 0
8, 129600, Note_on_c, 6, 67, 64
8, 130500, Note_on_c, 6, 67, 0
8, 130560, Note_on_c, 6, 65, 64
8, 130980, Note_on_c, 6, 65, 0
8, 131040, Note_on_c, 6, 65, 64
8, 131247, Note_on_c, 6, 65, 0
8, 131280, Note_on_c, 6, 62, 64
8, 131487, Note_on_c, 6, 62, 0
8, 131520, Note_on_c, 6, 67, 64
8, 131727, Note_on_c, 6, 67, 0
8, 131760, Note_on_c, 6, 58, 64
8, 131967, Note_on_c, 6, 58, 0
8, 132000, Note_on_c, 6, 63, 64
8, 132207, Note_on_c, 6, 63, 0
8, 132240, Note_on_c, 6, 60, 64
8, 132447, Note_on_c, 6, 60, 0
8, 132480, Note_on_c, 6, 53, 64
8, 132900, Note_on_c, 6, 53, 0
8, 132960, Note_on_c, 6, 65, 64
8, 133380, Note_on_c, 6, 65, 0
8, 133440, Note_on_c, 6, 65, 64
8, 133860, Note_on_c, 6, 65, 0
8, 133920, Note_on_c, 6, 65, 64
8, 134340, Note_on_c, 6, 65, 0
8, 134400, Note_on_c, 6, 70, 64
8, 134820, Note_on_c, 6, 70, 0
8, 134880, Note_on_c, 6, 69, 64
8, 135087, Note_on_c, 6, 69, 0
8, 135120, Note_on_c, 6, 70, 64
8, 135327, Note_on_c, 6, 70, 0
8, 135360, Note_on_c, 6, 67, 64
8, 136260, Note_on_c, 6, 67, 0
8, 136320, Note_on_c, 6, 65, 64
8, 136740, Note_on_c, 6, 65, 0
8, 136800, Note_on_c, 6, 65, 64
8, 137220, Note_on_c, 6, 65, 0
8, 137280, Note_on_c, 6, 65, 64
8, 137700, Note_on_c, 6, 65, 0
8, 137760, Note_on_c, 6, 65, 64
8, 138180, Note_on_c, 6, 65, 0
8, 138240, Note_on_c, 6, 65, 64
8, 139140, Note_on_c, 6, 65, 0
8, 139680, Note_on_c, 6, 58, 64
8, 141060, Note_on_c, 6, 58, 0
8, 141120, Note_on_c, 6, 60, 64
8, 142020, Note_on_c, 6, 60, 0
8, 142080, Note_on_c, 6, 57, 64
8, 142500, Note_on_c, 6, 57, 0
8, 142560, Note_on_c, 6, 58, 64
8, 143460, Note_on_c, 6, 58, 0
8, 143520, Note_on_c, 6, 60, 64
8, 143940, Note_on_c, 6, 60, 0
8, 144000, Note_on_c, 6, 60, 64
8, 144207, Note_on_c, 6, 60, 0
8, 144240, Note_on_c, 6, 57, 64
8, 144447, Note_on_c, 6, 57, 0
8, 144480, Note_on_c, 6, 53, 64
8, 144900, Note_on_c, 6, 53, 0
8, 145440, Note_on_c, 6, 58, 64
8, 146820, Note_on_c, 6, 58, 0
8, 146880, Note_on_c, 6, 60, 64
8, 147780, Note_on_c, 6, 60, 0
8, 147840, Note_on_c, 6, 57, 64
8, 148260, Note_on_c, 6, 57, 0
8, 148320, Note_on_c, 6, 65, 64
8, 148740, Note_on_c, 6, 65, 0
8, 148800, Note_on_c, 6, 67, 64
8, 149220, Note_on_c, 6, 67, 0
8, 149280, Note_on_c, 6, 65, 64
8, 149487, Note_on_c, 6, 65, 0
8, 149520, Note_on_c, 6, 63, 64
8, 149727, Note_on_c, 6, 63, 0
8, 149760, Note_on_c, 6, 62, 64
8, 149862, Note_on_c, 6, 62, 0
8, 151200, Note_on_c, 6, 65, 64
8, 151860, Note_on_c, 6, 65, 0
8, 151920, Note_on_c, 6, 62, 64
8, 152127, Note_on_c, 6, 62, 0
8, 152160, Note_on_c, 6, 58, 64
8, 152580, Note_on_c, 6, 58, 0
8, 152640, Note_on_c, 6, 70, 64
8, 153300, Note_on_c, 6, 70, 0
8, 153360, Note_on_c, 6, 67, 64
8, 153567, Note_on_c, 6, 67, 0
8, 153600, Note_on_c, 6, 63, 64
8, 154020, Note_on_c, 6, 63, 0
8, 154080, Note_on_c, 6, 67, 64
8, 154740, Note_on_c, 6, 67, 0
8, 154800, Note_on_c, 6, 64, 64
8, 155007, Note_on_c, 6, 64, 0
8, 155040, Note_on_c, 6, 60, 64
8, 155460, Note_on_c, 6, 60, 0
8, 155520, Note_on_c, 6, 72, 64
8, 156180, Note_on_c, 6, 72, 0
8, 156240, Note_on_c, 6, 69, 64
8, 156447, Note_on_c, 6, 69, 0
8, 156480, Note_on_c, 6, 65, 64
8, 156900, Note_on_c, 6, 65, 0
8, 157920, Note_on_c, 6, 64, 64
8, 158340, Note_on_c, 6, 64, 0
8, 158400, Note_on_c, 6, 65, 64
8, 158820, Note_on_c, 6, 65, 0
8, 160800, Note_on_c, 6, 64, 64
8, 161220, Note_on_c, 6, 64, 0
8, 161280, Note_on_c, 6, 65, 64
8, 161700, Note_on_c, 6, 65, 0
8, 163680, Note_on_c, 6, 58, 64
8, 164100, Note_on_c, 6, 58, 0
8, 164160, Note_on_c, 6, 57, 64
8, 164580, Note_on_c, 6, 57, 0
8, 166080, Note_on_c, 6, 65, 64
8, 166500, Note_on_c, 6, 65, 0
8, 166560, Note_on_c, 6, 70, 64
8, 166980, Note_on_c, 6, 70, 0
8, 167040, Note_on_c, 6, 69, 64
8, 167460, Note_on_c, 6, 69, 0
8, 167520, Note_on_c, 6, 65, 64
8, 167940, Note_on_c, 6, 65, 0
8, 168960, Note_on_c, 6, 58, 64
8, 169380, Note_on_c, 6, 58, 0
8, 169440, Note_on_c, 6, 63, 64
8, 169860, Note_on_c, 6, 63, 0
8, 169920, Note_on_c, 6, 65, 64
8, 170340, Note_on_c, 6, 65, 0
8, 170400, Note_on_c, 6, 69, 64
8, 170820, Note_on_c, 6, 69, 0
8, 171840, Note_on_c, 6, 65, 64
8, 172260, Note_on_c, 6, 65, 0
8, 172320, Note_on_c, 6, 70, 64
8, 172740, Note_on_c, 6, 70, 0
8, 172800, Note_on_c, 6, 69, 64
8, 173220, Note_on_c, 6, 69, 0
8, 173280, Note_on_c, 6, 65, 64
8, 173700, Note_on_c, 6, 65, 0
8, 174720, Note_on_c, 6, 70, 64
8, 174927, Note_on_c, 6, 70, 0
8, 174960, Note_on_c, 6, 65, 64
8, 175167, Note_on_c, 6, 65, 0
8, 175200, Note_on_c, 6, 63, 64
8, 175407, Note_on_c, 6, 63, 0
8, 175440, Note_on_c, 6, 60, 64
8, 175647, Note_on_c, 6, 60, 0
8, 175680, Note_on_c, 6, 62, 64
8, 176100, Note_on_c, 6, 62, 0
8, 177120, Note_on_c, 6, 65, 64
8, 179940, Note_on_c, 6, 65, 0
8, 180000, Note_on_c, 6, 70, 64
8, 182820, Note_on_c, 6, 70, 0
8, 182880, Note_on_c, 6, 70, 64
8, 183780, Note_on_c, 6, 70, 0
8, 183840, Note_on_c, 6, 69, 64
8, 184047, Note_on_c, 6, 69, 0
8, 184080, Note_on_c, 6, 70, 64
8, 184287, Note_on_c, 6, 70, 0
8, 184320, Note_on_c, 6, 67, 64
8, 184740, Note_on_c, 6, 67, 0
8, 184800, Note_on_c, 6, 65, 64
8, 185700, Note_on_c, 6, 65, 0
8, 185760, Note_on_c, 6, 65, 64
8, 185967, Note_on_c, 6, 65, 0
8, 186000, Note_on_c, 6, 62, 64
8, 186207, Note_on_c, 6, 62, 0
8, 186240, Note_on_c, 6, 67, 64
8, 186447, Note_on_c, 6, 67, 0
8, 186480, Note_on_c, 6, 58, 64
8, 186687, Note_on_c, 6, 58, 0
8, 186720, Note_on_c, 6, 63, 64
8, 186927, Note_on_c, 6, 63, 0
8, 186960, Note_on_c, 6, 60, 64
8, 187167, Note_on_c, 6, 60, 0
8, 187200, Note_on_c, 6, 53, 64
8, 187620, Note_on_c, 6, 53, 0
8, 187680, Note_on_c, 6, 65, 64
8, 188100, Note_on_c, 6, 65, 0
8, 188160, Note_on_c, 6, 65, 64
8, 188580, Note_on_c, 6, 65, 0
8, 188640, Note_on_c, 6, 65, 64
8, 189060, Note_on_c, 6, 65, 0
8, 189120, Note_on_c, 6, 70, 64
8, 189540, Note_on_c, 6, 70, 0
8, 189600, Note_on_c, 6, 69, 64
8, 189807, Note_on_c, 6, 69, 0
8, 189840, Note_on_c, 6, 70, 64
8, 190047, Note_on_c, 6, 70, 0
8, 190080, Note_on_c, 6, 67, 64
8, 190500, Note_on_c, 6, 67, 0
8, 190560, Note_on_c, 6, 65, 64
8, 191460, Note_on_c, 6, 65, 0
8, 191520, Note_on_c, 6, 65, 64
8, 191940, Note_on_c, 6, 65, 0
8, 192000, Note_on_c, 6, 65, 64
8, 192420, Note_on_c, 6, 65, 0
8, 192480, Note_on_c, 6, 65, 64
8, 192900, Note_on_c, 6, 65, 0
8, 192960, Note_on_c, 6, 65, 64
8, 193380, Note_on_c, 6, 65, 0
8, 200160, Note_on_c, 6, 63, 64
8, 201540, Note_on_c, 6, 63, 0
8, 201600, Note_on_c, 6, 65, 64
8, 201807, Note_on_c, 6, 65, 0
8, 201840, Note_on_c, 6, 65, 64
8, 202047, Note_on_c, 6, 65, 0
8, 202080, Note_on_c, 6, 65, 64
8, 202287, Note_on_c, 6, 65, 0
8, 202320, Note_on_c, 6, 65, 64
8, 202527, Note_on_c, 6, 65, 0
8, 202560, Note_on_c, 6, 65, 64
8, 202767, Note_on_c, 6, 65, 0
8, 202800, Note_on_c, 6, 65, 64
8, 203007, Note_on_c, 6, 65, 0
8, 203040, Note_on_c, 6, 65, 64
8, 203460, Note_on_c, 6, 65, 0
8, 204480, Note_on_c, 6, 63, 64
8, 205860, Note_on_c, 6, 63, 0
8, 207360, Note_on_c, 6, 65, 64
8, 207567, Note_on_c, 6, 65, 0
8, 207600, Note_on_c, 6, 65, 64
8, 207807, Note_on_c, 6, 65, 0
8, 207840, Note_on_c, 6, 65, 64
8, 208047, Note_on_c, 6, 65, 0
8, 208080, Note_on_c, 6, 65, 64
8, 208287, Note_on_c, 6, 65, 0
8, 208320, Note_on_c, 6, 65, 64
8, 208527, Note_on_c, 6, 65, 0
8, 208560, Note_on_c, 6, 65, 64
8, 208767, Note_on_c, 6, 65, 0
8, 208800, Note_on_c, 6, 63, 64
8, 208902, Note_on_c, 6, 63, 0
8, 208920, Note_on_c, 6, 63, 64
8, 209022, Note_on_c, 6, 63, 0
8, 209040, Note_on_c, 6, 63, 64
8, 209142, Note_on_c, 6, 63, 0
8, 209160, Note_on_c, 6, 63, 64
8, 209262, Note_on_c, 6, 63, 0
8, 209280, Note_on_c, 6, 63, 64
8, 209382, Note_on_c, 6, 63, 0
8, 209400, Note_on_c, 6, 63, 64
8, 209502, Note_on_c, 6, 63, 0
8, 209520, Note_on_c, 6, 63, 64
8, 209622, Note_on_c, 6, 63, 0
8, 209640, Note_on_c, 6, 63, 64
8, 209742, Note_on_c, 6, 63, 0
8, 209760, Note_on_c, 6, 63, 64
8, 209862, Note_on_c, 6, 63, 0
8, 209880, Note_on_c, 6, 63, 64
8, 209982, Note_on_c, 6, 63, 0
8, 210000, Note_on_c, 6, 63, 64
8, 210102, Note_on_c, 6, 63, 0
8, 210120, Note_on_c, 6, 63, 64
8, 210222, Note_on_c, 6, 63, 0
8, 210240, Note_on_c, 6, 62, 64
8, 210660, Note_on_c, 6, 62, 0
8, 210720, Note_on_c, 6, 70, 64
8, 211140, Note_on_c, 6, 70, 0
8, 211200, Note_on_c, 6, 69, 64
8, 211407, Note_on_c, 6, 69, 0
8, 211440, Note_on_c, 6, 70, 64
8, 211647, Note_on_c, 6, 70, 0
8, 211680, Note_on_c, 6, 67, 64
8, 212580, Note_on_c, 6, 67, 0
8, 212640, Note_on_c, 6, 65, 64
8, 213060, Note_on_c, 6, 65, 0
8, 213120, Note_on_c, 6, 65, 64
8, 213327, Note_on_c, 6, 65, 0
8, 213360, Note_on_c, 6, 62, 64
8, 213567, Note_on_c, 6, 62, 0
8, 213600, Note_on_c, 6, 67, 64
8, 213807, Note_on_c, 6, 67, 0
8, 213840, Note_on_c, 6, 58, 64
8, 214047, Note_on_c, 6, 58, 0
8, 214080, Note_on_c, 6, 63, 64
8, 214287, Note_on_c, 6, 63, 0
8, 214320, Note_on_c, 6, 60, 64
8, 214527, Note_on_c, 6, 60, 0
8, 214560, Note_on_c, 6, 53, 64
8, 214980, Note_on_c, 6, 53, 0
8, 215040, Note_on_c, 6, 65, 64
8, 215460, Note_on_c, 6, 65, 0
8, 215520, Note_on_c, 6, 65, 64
8, 215940, Note_on_c, 6, 65, 0
8, 216000, Note_on_c, 6, 65, 64
8, 216420, Note_on_c, 6, 65, 0
8, 216480, Note_on_c, 6, 70, 64
8, 216900, Note_on_c, 6, 70, 0
8, 216960, Note_on_c, 6, 69, 64
8, 217167, Note_on_c, 6, 69, 0
8, 217200, Note_on_c, 6, 70, 64
8, 217407, Note_on_c, 6, 70, 0
8, 217440, Note_on_c, 6, 67, 64
8, 218340, Note_on_c, 6, 67, 0
8, 218400, Note_on_c, 6, 65, 64
8, 218820, Note_on_c, 6, 65, 0
8, 218880, Note_on_c, 6, 65, 64
8, 219300, Note_on_c, 6, 65, 0
8, 219360, Note_on_c, 6, 65, 64
8, 219780, Note_on_c, 6, 65, 0
8, 219840, Note_on_c, 6, 65, 64
8, 220260, Note_on_c, 6, 65, 0
8, 220320, Note_on_c, 6, 62, 64
8, 220527, Note_on_c, 6, 62, 0
8, 220560, Note_on_c, 6, 62, 64
8, 220767, Note_on_c, 6, 62, 0
8, 220800, Note_on_c, 6, 62, 64
8, 221007, Note_on_c, 6, 62, 0
8, 221040, Note_on_c, 6, 62, 64
8, 221247, Note_on_c, 6, 62, 0
8, 221280, Note_on_c, 6, 62, 64
8, 221487, Note_on_c, 6, 62, 0
8, 221520, Note_on_c, 6, 62, 64
8, 221727, Note_on_c, 6, 62, 0
8, 221760, Note_on_c, 6, 63, 64
8, 221967, Note_on_c, 6, 63, 0
8, 222000, Note_on_c, 6, 63, 64
8, 222207, Note_on_c, 6, 63, 0
8, 222240, Note_on_c, 6, 65, 64
8, 222447, Note_on_c, 6, 65, 0
8, 222480, Note_on_c, 6, 65, 64
8, 222687, Note_on_c, 6, 65, 0
8, 222720, Note_on_c, 6, 63, 64
8, 222927, Note_on_c, 6, 63, 0
8, 222960, Note_on_c, 6, 63, 64
8, 223167, Note_on_c, 6, 63, 0
8, 223200, Note_on_c, 6, 62, 64
8, 223407, Note_on_c, 6, 62, 0
8, 223440, Note_on_c, 6, 62, 64
8, 223647, Note_on_c, 6, 62, 0
8, 223680, Note_on_c, 6, 62, 64
8, 223887, Note_on_c, 6, 62, 0
8, 223920, Note_on_c, 6, 62, 64
8, 224127, Note_on_c, 6, 62, 0
8, 224160, Note_on_c, 6, 62, 64
8, 224367, Note_on_c, 6, 62, 0
8, 224400, Note_on_c, 6, 62, 64
8, 224607, Note_on_c, 6, 62, 0
8, 224640, Note_on_c, 6, 63, 64
8, 224847, Note_on_c, 6, 63, 0
8, 224880, Note_on_c, 6, 63, 64
8, 225087, Note_on_c, 6, 63, 0
8, 225120, Note_on_c, 6, 65, 64
8, 225327, Note_on_c, 6, 65, 0
8, 225360, Note_on_c, 6, 65, 64
8, 225567, Note_on_c, 6, 65, 0
8, 225600, Note_on_c, 6, 53, 64
8, 225807, Note_on_c, 6, 53, 0
8, 225840, Note_on_c, 6, 53, 64
8, 226047, Note_on_c, 6, 53, 0
8, 226080, Note_on_c, 6, 58, 64
8, 226287, Note_on_c, 6, 58, 0
8, 226320, Note_on_c, 6, 58, 64
8, 226527, Note_on_c, 6, 58, 0
8, 226560, Note_on_c, 6, 62, 64
8, 226767, Note_on_c, 6, 62, 0
8, 226800, Note_on_c, 6, 58, 64
8, 227007, Note_on_c, 6, 58, 0
8, 227040, Note_on_c, 6, 62, 64
8, 227247, Note_on_c, 6, 62, 0
8, 227280, Note_on_c, 6, 65, 64
8, 227487, Note_on_c, 6, 65, 0
8, 227520, Note_on_c, 6, 70, 64
8, 227940, Note_on_c, 6, 70, 0
8, 228000, Note_on_c, 6, 58, 64
8, 228420, Note_on_c, 6, 58, 0
8, 228420, End_track
9, 0, Start_track
9, 0, Title_t, "Celli"
9, 0, Control_c, 7, 0, 0
9, 0, Control_c, 7, 7, 80
9, 0, Control_c, 7, 10, 85
9, 0, Control_c, 7, 91, 70
9, 0, Control_c, 7, 93, 70
9, 1, Control_c, 7, 32, 1
9, 2, Program_c, 7, 48
9, 1440, Note_on_c, 7, 58, 64
9, 1860, Note_on_c, 7, 58, 0
9, 1920, Note_on_c, 7, 62, 64
9, 2340, Note_on_c, 7, 62, 0
9, 2400, Note_on_c, 7, 58, 64
9, 2820, Note_on_c, 7, 58, 0
9, 2880, Note_on_c, 7, 60, 64
9, 3300, Note_on_c, 7, 60, 0
9, 3360, Note_on_c, 7, 55, 64
9, 3780, Note_on_c, 7, 55, 0
9, 3840, Note_on_c, 7, 57, 64
9, 4260, Note_on_c, 7, 57, 0
9, 4320, Note_on_c, 7, 58, 64
9, 4740, Note_on_c, 7, 58, 0
9, 4800, Note_on_c, 7, 55, 64
9, 5220, Note_on_c, 7, 55, 0
9, 5280, Note_on_c, 7, 51, 64
9, 5700, Note_on_c, 7, 51, 0
9, 5760, Note_on_c, 7, 53, 64
9, 6180, Note_on_c, 7, 53, 0
9, 6240, Note_on_c, 7, 53, 64
9, 6660, Note_on_c, 7, 53, 0
9, 6720, Note_on_c, 7, 51, 64
9, 7140, Note_on_c, 7, 51, 0
9, 7200, Note_on_c, 7, 50, 64
9, 7620, Note_on_c, 7, 50, 0
9, 7680, Note_on_c, 7, 62, 64
9, 8100, Note_on_c, 7, 62, 0
9, 8160, Note_on_c, 7, 58, 64
9, 8580, Note_on_c, 7, 58, 0
9, 8640, Note_on_c, 7, 60, 64
9, 9060, Note_on_c, 7, 60, 0
9, 9120, Note_on_c, 7, 55, 64
9, 9540, Note_on_c, 7, 55, 0
9, 9600, Note_on_c, 7, 57, 64
9, 10020, Note_on_c, 7, 57, 0
9, 10080, Note_on_c, 7, 58, 64
9, 10500, Note_on_c, 7, 58, 0
9, 10560, Note_on_c, 7, 53, 64
9, 10980, Note_on_c, 7, 53, 0
9, 11040, Note_on_c, 7, 41, 64
9, 11460, Note_on_c, 7, 41, 0
9, 11520, Note_on_c, 7, 46, 64
9, 11940, Note_on_c, 7, 46, 0
9, 12000, Note_on_c, 7, 53, 64
9, 12420, Note_on_c, 7, 53, 0
9, 12480, Note_on_c, 7, 58, 64
9, 12900, Note_on_c, 7, 58, 0
9, 12960, Note_on_c, 7, 58, 64
9, 13380, Note_on_c, 7, 58, 0
9, 13440, Note_on_c, 7, 62, 64
9, 13860, Note_on_c, 7, 62, 0
9, 13920, Note_on_c, 7, 58, 64
9, 14340, Note_on_c, 7, 58, 0
9, 14400, Note_on_c, 7, 60, 64
9, 14820, Note_on_c, 7, 60, 0
9, 14880, Note_on_c, 7, 55, 64
9, 15300, Note_on_c, 7, 55, 0
9, 15360, Note_on_c, 7, 57, 64
9, 15780, Note_on_c, 7, 57, 0
9, 15840, Note_on_c, 7, 58, 64
9, 16260, Note_on_c, 7, 58, 0
9, 16320, Note_on_c, 7, 55, 64
9, 16740, Note_on_c, 7, 55, 0
9, 16800, Note_on_c, 7, 51, 64
9, 17220, Note_on_c, 7, 51, 0
9, 17280, Note_on_c, 7, 53, 64
9, 17700, Note_on_c, 7, 53, 0
9, 17760, Note_on_c, 7, 53, 64
9, 18180, Note_on_c, 7, 53, 0
9, 18240, Note_on_c, 7, 51, 64
9, 18660, Note_on_c, 7, 51, 0
9, 18720, Note_on_c, 7, 50, 64
9, 19140, Note_on_c, 7, 50, 0
9, 19200, Note_on_c, 7, 62, 64
9, 19620, Note_on_c, 7, 62, 0
9, 19680, Note_on_c, 7, 58, 64
9, 20100, Note_on_c, 7, 58, 0
9, 20160, Note_on_c, 7, 60, 64
9, 20580, Note_on_c, 7, 60, 0
9, 20640, Note_on_c, 7, 55, 64
9, 21060, Note_on_c, 7, 55, 0
9, 21120, Note_on_c, 7, 57, 64
9, 21540, Note_on_c, 7, 57, 0
9, 21600, Note_on_c, 7, 58, 64
9, 22020, Note_on_c, 7, 58, 0
9, 22080, Note_on_c, 7, 53, 64
9, 22500, Note_on_c, 7, 53, 0
9, 22560, Note_on_c, 7, 41, 64
9, 22980, Note_on_c, 7, 41, 0
9, 23040, Note_on_c, 7, 46, 64
9, 23460, Note_on_c, 7, 46, 0
9, 23520, Note_on_c, 7, 53, 64
9, 23940, Note_on_c, 7, 53, 0
9, 24000, Note_on_c, 7, 58, 64
9, 24420, Note_on_c, 7, 58, 0
9, 24480, Note_on_c, 7, 53, 64
9, 24900, Note_on_c, 7, 53, 0
9, 24960, Note_on_c, 7, 53, 64
9, 25380, Note_on_c, 7, 53, 0
9, 25440, Note_on_c, 7, 53, 64
9, 25860, Note_on_c, 7, 53, 0
9, 25920, Note_on_c, 7, 53, 64
9, 26340, Note_on_c, 7, 53, 0
9, 26400, Note_on_c, 7, 53, 64
9, 26820, Note_on_c, 7, 53, 0
9, 26880, Note_on_c, 7, 53, 64
9, 27300, Note_on_c, 7, 53, 0
9, 27360, Note_on_c, 7, 58, 64
9, 27780, Note_on_c, 7, 58, 0
9, 27840, Note_on_c, 7, 58, 64
9, 28260, Note_on_c, 7, 58, 0
9, 28320, Note_on_c, 7, 58, 64
9, 28740, Note_on_c, 7, 58, 0
9, 28800, Note_on_c, 7, 58, 64
9, 29220, Note_on_c, 7, 58, 0
9, 29280, Note_on_c, 7, 58, 64
9, 29700, Note_on_c, 7, 58, 0
9, 29760, Note_on_c, 7, 58, 64
9, 30180, Note_on_c, 7, 58, 0
9, 30240, Note_on_c, 7, 58, 64
9, 30660, Note_on_c, 7, 58, 0
9, 30720, Note_on_c, 7, 62, 64
9, 31140, Note_on_c, 7, 62, 0
9, 31200, Note_on_c, 7, 58, 64
9, 31620, Note_on_c, 7, 58, 0
9, 31680, Note_on_c, 7, 60, 64
9, 32100, Note_on_c, 7, 60, 0
9, 32160, Note_on_c, 7, 55, 64
9, 32580, Note_on_c, 7, 55, 0
9, 32640, Note_on_c, 7, 57, 64
9, 33060, Note_on_c, 7, 57, 0
9, 33120, Note_on_c, 7, 58, 64
9, 33540, Note_on_c, 7, 58, 0
9, 33600, Note_on_c, 7, 55, 64
9, 34020, Note_on_c, 7, 55, 0
9, 34080, Note_on_c, 7, 51, 64
9, 34500, Note_on_c, 7, 51, 0
9, 34560, Note_on_c, 7, 53, 64
9, 34980, Note_on_c, 7, 53, 0
9, 35040, Note_on_c, 7, 53, 64
9, 35460, Note_on_c, 7, 53, 0
9, 35520, Note_on_c, 7, 51, 64
9, 35940, Note_on_c, 7, 51, 0
9, 36000, Note_on_c, 7, 50, 64
9, 36420, Note_on_c, 7, 50, 0
9, 36480, Note_on_c, 7, 62, 64
9, 36900, Note_on_c, 7, 62, 0
9, 36960, Note_on_c, 7, 58, 64
9, 37380, Note_on_c, 7, 58, 0
9, 37440, Note_on_c, 7, 60, 64
9, 37860, Note_on_c, 7, 60, 0
9, 37920, Note_on_c, 7, 55, 64
9, 38340, Note_on_c, 7, 55, 0
9, 38400, Note_on_c, 7, 57, 64
9, 38820, Note_on_c, 7, 57, 0
9, 38880, Note_on_c, 7, 58, 64
9, 39300, Note_on_c, 7, 58, 0
9, 39360, Note_on_c, 7, 53, 64
9, 39780, Note_on_c, 7, 53, 0
9, 39840, Note_on_c, 7, 41, 64
9, 40260, Note_on_c, 7, 41, 0
9, 40320, Note_on_c, 7, 46, 64
9, 40740, Note_on_c, 7, 46, 0
9, 40800, Note_on_c, 7, 50, 64
9, 41220, Note_on_c, 7, 50, 0
9, 41280, Note_on_c, 7, 53, 64
9, 41700, Note_on_c, 7, 53, 0
9, 41760, Note_on_c, 7, 58, 64
9, 42180, Note_on_c, 7, 58, 0
9, 42240, Note_on_c, 7, 62, 64
9, 42660, Note_on_c, 7, 62, 0
9, 42720, Note_on_c, 7, 58, 64
9, 43140, Note_on_c, 7, 58, 0
9, 43200, Note_on_c, 7, 60, 64
9, 43620, Note_on_c, 7, 60, 0
9, 43680, Note_on_c, 7, 53, 64
9, 44100, Note_on_c, 7, 53, 0
9, 44160, Note_on_c, 7, 57, 64
9, 44580, Note_on_c, 7, 57, 0
9, 44640, Note_on_c, 7, 58, 64
9, 45060, Note_on_c, 7, 58, 0
9, 45120, Note_on_c, 7, 51, 64
9, 45540, Note_on_c, 7, 51, 0
9, 45600, Note_on_c, 7, 52, 64
9, 46020, Note_on_c, 7, 52, 0
9, 46080, Note_on_c, 7, 53, 64
9, 46500, Note_on_c, 7, 53, 0
9, 47040, Note_on_c, 7, 51, 64
9, 47180, Note_on_c, 7, 51, 0
9, 47197, Note_on_c, 7, 50, 64
9, 47339, Note_on_c, 7, 50, 0
9, 47357, Note_on_c, 7, 48, 64
9, 47497, Note_on_c, 7, 48, 0
9, 47520, Note_on_c, 7, 46, 64
9, 47940, Note_on_c, 7, 46, 0
9, 48000, Note_on_c, 7, 62, 64
9, 48420, Note_on_c, 7, 62, 0
9, 48480, Note_on_c, 7, 58, 64
9, 48900, Note_on_c, 7, 58, 0
9, 48960, Note_on_c, 7, 60, 64
9, 49380, Note_on_c, 7, 60, 0
9, 49440, Note_on_c, 7, 53, 64
9, 49860, Note_on_c, 7, 53, 0
9, 49920, Note_on_c, 7, 57, 64
9, 50340, Note_on_c, 7, 57, 0
9, 50400, Note_on_c, 7, 58, 64
9, 50820, Note_on_c, 7, 58, 0
9, 50880, Note_on_c, 7, 51, 64
9, 51300, Note_on_c, 7, 51, 0
9, 51360, Note_on_c, 7, 53, 64
9, 51780, Note_on_c, 7, 53, 0
9, 51840, Note_on_c, 7, 58, 64
9, 51980, Note_on_c, 7, 58, 0
9, 51997, Note_on_c, 7, 53, 64
9, 52139, Note_on_c, 7, 53, 0
9, 52157, Note_on_c, 7, 51, 64
9, 52297, Note_on_c, 7, 51, 0
9, 52320, Note_on_c, 7, 50, 64
9, 52460, Note_on_c, 7, 50, 0
9, 52477, Note_on_c, 7, 51, 64
9, 52619, Note_on_c, 7, 51, 0
9, 52637, Note_on_c, 7, 53, 64
9, 52777, Note_on_c, 7, 53, 0
9, 52800, Note_on_c, 7, 46, 64
9, 53220, Note_on_c, 7, 46, 0
9, 53280, Note_on_c, 7, 58, 64
9, 53700, Note_on_c, 7, 58, 0
9, 54240, Note_on_c, 7, 58, 64
9, 54660, Note_on_c, 7, 58, 0
9, 54720, Note_on_c, 7, 57, 64
9, 55140, Note_on_c, 7, 57, 0
9, 55680, Note_on_c, 7, 57, 64
9, 56100, Note_on_c, 7, 57, 0
9, 56160, Note_on_c, 7, 55, 64
9, 56580, Note_on_c, 7, 55, 0
9, 57120, Note_on_c, 7, 52, 64
9, 57540, Note_on_c, 7, 52, 0
9, 57600, Note_on_c, 7, 53, 64
9, 58020, Note_on_c, 7, 53, 0
9, 58080, Note_on_c, 7, 60, 64
9, 58287, Note_on_c, 7, 60, 0
9, 58320, Note_on_c, 7, 58, 64
9, 58527, Note_on_c, 7, 58, 0
9, 58560, Note_on_c, 7, 57, 64
9, 58767, Note_on_c, 7, 57, 0
9, 58800, Note_on_c, 7, 55, 64
9, 59007, Note_on_c, 7, 55, 0
9, 59040, Note_on_c, 7, 53, 64
9, 59460, Note_on_c, 7, 53, 0
9, 59520, Note_on_c, 7, 57, 64
9, 59940, Note_on_c, 7, 57, 0
9, 60000, Note_on_c, 7, 53, 64
9, 60420, Note_on_c, 7, 53, 0
9, 60480, Note_on_c, 7, 55, 64
9, 60900, Note_on_c, 7, 55, 0
9, 60960, Note_on_c, 7, 52, 64
9, 61380, Note_on_c, 7, 52, 0
9, 61440, Note_on_c, 7, 48, 64
9, 61860, Note_on_c, 7, 48, 0
9, 61920, Note_on_c, 7, 53, 64
9, 62340, Note_on_c, 7, 53, 0
9, 62400, Note_on_c, 7, 57, 64
9, 62820, Note_on_c, 7, 57, 0
9, 62880, Note_on_c, 7, 53, 64
9, 63300, Note_on_c, 7, 53, 0
9, 63360, Note_on_c, 7, 55, 64
9, 63780, Note_on_c, 7, 55, 0
9, 63840, Note_on_c, 7, 52, 64
9, 64260, Note_on_c, 7, 52, 0
9, 64320, Note_on_c, 7, 48, 64
9, 64740, Note_on_c, 7, 48, 0
9, 64800, Note_on_c, 7, 53, 64
9, 65007, Note_on_c, 7, 53, 0
9, 65280, Note_on_c, 7, 57, 64
9, 65487, Note_on_c, 7, 57, 0
9, 65760, Note_on_c, 7, 45, 64
9, 65967, Note_on_c, 7, 45, 0
9, 66240, Note_on_c, 7, 46, 64
9, 67620, Note_on_c, 7, 46, 0
9, 67680, Note_on_c, 7, 45, 64
9, 67990, Note_on_c, 7, 45, 0
9, 68040, Note_on_c, 7, 46, 64
9, 68142, Note_on_c, 7, 46, 0
9, 68160, Note_on_c, 7, 48, 64
9, 68580, Note_on_c, 7, 48, 0
9, 68640, Note_on_c, 7, 46, 64
9, 69060, Note_on_c, 7, 46, 0
9, 69120, Note_on_c, 7, 45, 64
9, 69327, Note_on_c, 7, 45, 0
9, 69600, Note_on_c, 7, 57, 64
9, 69807, Note_on_c, 7, 57, 0
9, 70080, Note_on_c, 7, 45, 64
9, 70287, Note_on_c, 7, 45, 0
9, 70560, Note_on_c, 7, 46, 64
9, 71940, Note_on_c, 7, 46, 0
9, 73320, Note_on_c, 7, 46, 64
9, 73422, Note_on_c, 7, 46, 0
9, 73440, Note_on_c, 7, 45, 64
9, 73750, Note_on_c, 7, 45, 0
9, 73800, Note_on_c, 7, 46, 64
9, 73902, Note_on_c, 7, 46, 0
9, 73920, Note_on_c, 7, 48, 64
9, 74340, Note_on_c, 7, 48, 0
9, 74400, Note_on_c, 7, 48, 64
9, 74820, Note_on_c, 7, 48, 0
9, 74880, Note_on_c, 7, 53, 64
9, 75670, Note_on_c, 7, 53, 0
9, 75720, Note_on_c, 7, 55, 64
9, 75822, Note_on_c, 7, 55, 0
9, 75840, Note_on_c, 7, 57, 64
9, 75890, Note_on_c, 7, 57, 0
9, 75900, Note_on_c, 7, 55, 64
9, 75950, Note_on_c, 7, 55, 0
9, 75960, Note_on_c, 7, 57, 64
9, 76010, Note_on_c, 7, 57, 0
9, 76020, Note_on_c, 7, 55, 64
9, 76070, Note_on_c, 7, 55, 0
9, 76080, Note_on_c, 7, 57, 64
9, 76130, Note_on_c, 7, 57, 0
9, 76140, Note_on_c, 7, 55, 64
9, 76190, Note_on_c, 7, 55, 0
9, 76200, Note_on_c, 7, 53, 64
9, 76250, Note_on_c, 7, 53, 0
9, 76260, Note_on_c, 7, 55, 64
9, 76310, Note_on_c, 7, 55, 0
9, 76320, Note_on_c, 7, 56, 64
9, 76740, Note_on_c, 7, 56, 0
9, 77280, Note_on_c, 7, 56, 64
9, 77700, Note_on_c, 7, 56, 0
9, 77760, Note_on_c, 7, 55, 64
9, 78180, Note_on_c, 7, 55, 0
9, 78720, Note_on_c, 7, 59, 64
9, 79140, Note_on_c, 7, 59, 0
9, 79200, Note_on_c, 7, 60, 64
9, 79620, Note_on_c, 7, 60, 0
9, 80160, Note_on_c, 7, 54, 64
9, 80580, Note_on_c, 7, 54, 0
9, 80640, Note_on_c, 7, 53, 64
9, 81060, Note_on_c, 7, 53, 0
9, 81600, Note_on_c, 7, 57, 64
9, 82020, Note_on_c, 7, 57, 0
9, 82080, Note_on_c, 7, 58, 64
9, 82980, Note_on_c, 7, 58, 0
9, 83040, Note_on_c, 7, 51, 64
9, 83460, Note_on_c, 7, 51, 0
9, 83520, Note_on_c, 7, 53, 64
9, 83940, Note_on_c, 7, 53, 0
9, 84000, Note_on_c, 7, 41, 64
9, 84420, Note_on_c, 7, 41, 0
9, 84480, Note_on_c, 7, 53, 64
9, 84900, Note_on_c, 7, 53, 0
9, 84960, Note_on_c, 7, 58, 64
9, 85380, Note_on_c, 7, 58, 0
9, 85440, Note_on_c, 7, 62, 64
9, 85860, Note_on_c, 7, 62, 0
9, 85920, Note_on_c, 7, 58, 64
9, 86340, Note_on_c, 7, 58, 0
9, 86400, Note_on_c, 7, 60, 64
9, 86820, Note_on_c, 7, 60, 0
9, 86880, Note_on_c, 7, 55, 64
9, 87300, Note_on_c, 7, 55, 0
9, 87360, Note_on_c, 7, 57, 64
9, 87780, Note_on_c, 7, 57, 0
9, 87840, Note_on_c, 7, 58, 64
9, 88260, Note_on_c, 7, 58, 0
9, 88320, Note_on_c, 7, 55, 64
9, 88740, Note_on_c, 7, 55, 0
9, 88800, Note_on_c, 7, 51, 64
9, 89220, Note_on_c, 7, 51, 0
9, 89280, Note_on_c, 7, 53, 64
9, 89700, Note_on_c, 7, 53, 0
9, 89760, Note_on_c, 7, 53, 64
9, 90180, Note_on_c, 7, 53, 0
9, 90240, Note_on_c, 7, 51, 64
9, 90660, Note_on_c, 7, 51, 0
9, 90720, Note_on_c, 7, 50, 64
9, 91140, Note_on_c, 7, 50, 0
9, 91200, Note_on_c, 7, 62, 64
9, 91620, Note_on_c, 7, 62, 0
9, 91680, Note_on_c, 7, 58, 64
9, 92100, Note_on_c, 7, 58, 0
9, 92160, Note_on_c, 7, 60, 64
9, 92580, Note_on_c, 7, 60, 0
9, 92640, Note_on_c, 7, 55, 64
9, 93060, Note_on_c, 7, 55, 0
9, 93120, Note_on_c, 7, 57, 64
9, 93540, Note_on_c, 7, 57, 0
9, 93600, Note_on_c, 7, 58, 64
9, 94020, Note_on_c, 7, 58, 0
9, 94080, Note_on_c, 7, 53, 64
9, 94500, Note_on_c, 7, 53, 0
9, 94560, Note_on_c, 7, 41, 64
9, 94980, Note_on_c, 7, 41, 0
9, 95040, Note_on_c, 7, 46, 64
9, 95460, Note_on_c, 7, 46, 0
9, 95520, Note_on_c, 7, 53, 64
9, 95940, Note_on_c, 7, 53, 0
9, 96000, Note_on_c, 7, 58, 64
9, 96420, Note_on_c, 7, 58, 0
9, 96480, Note_on_c, 7, 55, 64
9, 96687, Note_on_c, 7, 55, 0
9, 96720, Note_on_c, 7, 55, 64
9, 96927, Note_on_c, 7, 55, 0
9, 96960, Note_on_c, 7, 55, 64
9, 97167, Note_on_c, 7, 55, 0
9, 97200, Note_on_c, 7, 55, 64
9, 97407, Note_on_c, 7, 55, 0
9, 97440, Note_on_c, 7, 55, 64
9, 97647, Note_on_c, 7, 55, 0
9, 97680, Note_on_c, 7, 55, 64
9, 97887, Note_on_c, 7, 55, 0
9, 97920, Note_on_c, 7, 57, 64
9, 98127, Note_on_c, 7, 57, 0
9, 98160, Note_on_c, 7, 57, 64
9, 98367, Note_on_c, 7, 57, 0
9, 98400, Note_on_c, 7, 57, 64
9, 98607, Note_on_c, 7, 57, 0
9, 98640, Note_on_c, 7, 57, 64
9, 98847, Note_on_c, 7, 57, 0
9, 98880, Note_on_c, 7, 57, 64
9, 99087, Note_on_c, 7, 57, 0
9, 99120, Note_on_c, 7, 57, 64
9, 99327, Note_on_c, 7, 57, 0
9, 99360, Note_on_c, 7, 58, 64
9, 99567, Note_on_c, 7, 58, 0
9, 99600, Note_on_c, 7, 58, 64
9, 99807, Note_on_c, 7, 58, 0
9, 99840, Note_on_c, 7, 58, 64
9, 100047, Note_on_c, 7, 58, 0
9, 100080, Note_on_c, 7, 58, 64
9, 100287, Note_on_c, 7, 58, 0
9, 100320, Note_on_c, 7, 58, 64
9, 100527, Note_on_c, 7, 58, 0
9, 100560, Note_on_c, 7, 58, 64
9, 100767, Note_on_c, 7, 58, 0
9, 100800, Note_on_c, 7, 60, 64
9, 101007, Note_on_c, 7, 60, 0
9, 101040, Note_on_c, 7, 60, 64
9, 101247, Note_on_c, 7, 60, 0
9, 101280, Note_on_c, 7, 60, 64
9, 101487, Note_on_c, 7, 60, 0
9, 101520, Note_on_c, 7, 60, 64
9, 101727, Note_on_c, 7, 60, 0
9, 101760, Note_on_c, 7, 60, 64
9, 101967, Note_on_c, 7, 60, 0
9, 102000, Note_on_c, 7, 60, 64
9, 102207, Note_on_c, 7, 60, 0
9, 102240, Note_on_c, 7, 58, 64
9, 102660, Note_on_c, 7, 58, 0
9, 102720, Note_on_c, 7, 57, 64
9, 103140, Note_on_c, 7, 57, 0
9, 103200, Note_on_c, 7, 55, 64
9, 103620, Note_on_c, 7, 55, 0
9, 103680, Note_on_c, 7, 54, 64
9, 104100, Note_on_c, 7, 54, 0
9, 104160, Note_on_c, 7, 52, 64
9, 104580, Note_on_c, 7, 52, 0
9, 104640, Note_on_c, 7, 50, 64
9, 105060, Note_on_c, 7, 50, 0
9, 105120, Note_on_c, 7, 48, 64
9, 105540, Note_on_c, 7, 48, 0
9, 105600, Note_on_c, 7, 50, 64
9, 106020, Note_on_c, 7, 50, 0
9, 106080, Note_on_c, 7, 50, 64
9, 106500, Note_on_c, 7, 50, 0
9, 106560, Note_on_c, 7, 43, 64
9, 106980, Note_on_c, 7, 43, 0
9, 107040, Note_on_c, 7, 55, 64
9, 107460, Note_on_c, 7, 55, 0
9, 107520, Note_on_c, 7, 43, 64
9, 107940, Note_on_c, 7, 43, 0
9, 108000, Note_on_c, 7, 56, 64
9, 108420, Note_on_c, 7, 56, 0
9, 108480, Note_on_c, 7, 53, 64
9, 108900, Note_on_c, 7, 53, 0
9, 108960, Note_on_c, 7, 50, 64
9, 109380, Note_on_c, 7, 50, 0
9, 109440, Note_on_c, 7, 51, 64
9, 109860, Note_on_c, 7, 51, 0
9, 110880, Note_on_c, 7, 58, 64
9, 111300, Note_on_c, 7, 58, 0
9, 111360, Note_on_c, 7, 55, 64
9, 111780, Note_on_c, 7, 55, 0
9, 111840, Note_on_c, 7, 52, 64
9, 112260, Note_on_c, 7, 52, 0
9, 112320, Note_on_c, 7, 53, 64
9, 112740, Note_on_c, 7, 53, 0
9, 113760, Note_on_c, 7, 60, 64
9, 114180, Note_on_c, 7, 60, 0
9, 114240, Note_on_c, 7, 57, 64
9, 114660, Note_on_c, 7, 57, 0
9, 114720, Note_on_c, 7, 54, 64
9, 115140, Note_on_c, 7, 54, 0
9, 115200, Note_on_c, 7, 55, 64
9, 115620, Note_on_c, 7, 55, 0
9, 116640, Note_on_c, 7, 55, 64
9, 116847, Note_on_c, 7, 55, 0
9, 116880, Note_on_c, 7, 55, 64
9, 117087, Note_on_c, 7, 55, 0
9, 117120, Note_on_c, 7, 55, 64
9, 117327, Note_on_c, 7, 55, 0
9, 117360, Note_on_c, 7, 55, 64
9, 117567, Note_on_c, 7, 55, 0
9, 117600, Note_on_c, 7, 55, 64
9, 117807, Note_on_c, 7, 55, 0
9, 117840, Note_on_c, 7, 55, 64
9, 118047, Note_on_c, 7, 55, 0
9, 118080, Note_on_c, 7, 57, 64
9, 118287, Note_on_c, 7, 57, 0
9, 118320, Note_on_c, 7, 57, 64
9, 118527, Note_on_c, 7, 57, 0
9, 118560, Note_on_c, 7, 57, 64
9, 118767, Note_on_c, 7, 57, 0
9, 118800, Note_on_c, 7, 57, 64
9, 119007, Note_on_c, 7, 57, 0
9, 119040, Note_on_c, 7, 57, 64
9, 119247, Note_on_c, 7, 57, 0
9, 119280, Note_on_c, 7, 57, 64
9, 119487, Note_on_c, 7, 57, 0
9, 119520, Note_on_c, 7, 58, 64
9, 119727, Note_on_c, 7, 58, 0
9, 119760, Note_on_c, 7, 58, 64
9, 119967, Note_on_c, 7, 58, 0
9, 120000, Note_on_c, 7, 58, 64
9, 120207, Note_on_c, 7, 58, 0
9, 120240, Note_on_c, 7, 58, 64
9, 120447, Note_on_c, 7, 58, 0
9, 120480, Note_on_c, 7, 58, 64
9, 120687, Note_on_c, 7, 58, 0
9, 120720, Note_on_c, 7, 58, 64
9, 120927, Note_on_c, 7, 58, 0
9, 120960, Note_on_c, 7, 60, 64
9, 121167, Note_on_c, 7, 60, 0
9, 121200, Note_on_c, 7, 60, 64
9, 121407, Note_on_c, 7, 60, 0
9, 121440, Note_on_c, 7, 60, 64
9, 121647, Note_on_c, 7, 60, 0
9, 121680, Note_on_c, 7, 60, 64
9, 121887, Note_on_c, 7, 60, 0
9, 121920, Note_on_c, 7, 60, 64
9, 122127, Note_on_c, 7, 60, 0
9, 122160, Note_on_c, 7, 60, 64
9, 122367, Note_on_c, 7, 60, 0
9, 122400, Note_on_c, 7, 58, 64
9, 122820, Note_on_c, 7, 58, 0
9, 122880, Note_on_c, 7, 57, 64
9, 123300, Note_on_c, 7, 57, 0
9, 123360, Note_on_c, 7, 55, 64
9, 123780, Note_on_c, 7, 55, 0
9, 123840, Note_on_c, 7, 54, 64
9, 124260, Note_on_c, 7, 54, 0
9, 124320, Note_on_c, 7, 51, 64
9, 124740, Note_on_c, 7, 51, 0
9, 124800, Note_on_c, 7, 50, 64
9, 125220, Note_on_c, 7, 50, 0
9, 125280, Note_on_c, 7, 48, 64
9, 125700, Note_on_c, 7, 48, 0
9, 125760, Note_on_c, 7, 50, 64
9, 126180, Note_on_c, 7, 50, 0
9, 126240, Note_on_c, 7, 50, 64
9, 126660, Note_on_c, 7, 50, 0
9, 126720, Note_on_c, 7, 43, 64
9, 127140, Note_on_c, 7, 43, 0
9, 127200, Note_on_c, 7, 55, 64
9, 127620, Note_on_c, 7, 55, 0
9, 127680, Note_on_c, 7, 43, 64
9, 128100, Note_on_c, 7, 43, 0
9, 128160, Note_on_c, 7, 58, 64
9, 128580, Note_on_c, 7, 58, 0
9, 128640, Note_on_c, 7, 62, 64
9, 129060, Note_on_c, 7, 62, 0
9, 129120, Note_on_c, 7, 58, 64
9, 129540, Note_on_c, 7, 58, 0
9, 129600, Note_on_c, 7, 60, 64
9, 130020, Note_on_c, 7, 60, 0
9, 130080, Note_on_c, 7, 55, 64
9, 130500, Note_on_c, 7, 55, 0
9, 130560, Note_on_c, 7, 57, 64
9, 130980, Note_on_c, 7, 57, 0
9, 131040, Note_on_c, 7, 58, 64
9, 131460, Note_on_c, 7, 58, 0
9, 131520, Note_on_c, 7, 55, 64
9, 131940, Note_on_c, 7, 55, 0
9, 132000, Note_on_c, 7, 51, 64
9, 132420, Note_on_c, 7, 51, 0
9, 132480, Note_on_c, 7, 53, 64
9, 132900, Note_on_c, 7, 53, 0
9, 132960, Note_on_c, 7, 53, 64
9, 133380, Note_on_c, 7, 53, 0
9, 133440, Note_on_c, 7, 51, 64
9, 133860, Note_on_c, 7, 51, 0
9, 133920, Note_on_c, 7, 50, 64
9, 134340, Note_on_c, 7, 50, 0
9, 134400, Note_on_c, 7, 62, 64
9, 134820, Note_on_c, 7, 62, 0
9, 134880, Note_on_c, 7, 58, 64
9, 135300, Note_on_c, 7, 58, 0
9, 135360, Note_on_c, 7, 60, 64
9, 135780, Note_on_c, 7, 60, 0
9, 135840, Note_on_c, 7, 55, 64
9, 136260, Note_on_c, 7, 55, 0
9, 136320, Note_on_c, 7, 57, 64
9, 136740, Note_on_c, 7, 57, 0
9, 136800, Note_on_c, 7, 58, 64
9, 137220, Note_on_c, 7, 58, 0
9, 137280, Note_on_c, 7, 53, 64
9, 137700, Note_on_c, 7, 53, 0
9, 137760, Note_on_c, 7, 41, 64
9, 138180, Note_on_c, 7, 41, 0
9, 138240, Note_on_c, 7, 46, 64
9, 138660, Note_on_c, 7, 46, 0
9, 138720, Note_on_c, 7, 53, 64
9, 139140, Note_on_c, 7, 53, 0
9, 139200, Note_on_c, 7, 58, 64
9, 139620, Note_on_c, 7, 58, 0
9, 140160, Note_on_c, 7, 62, 64
9, 140580, Note_on_c, 7, 62, 0
9, 140640, Note_on_c, 7, 58, 64
9, 141060, Note_on_c, 7, 58, 0
9, 141600, Note_on_c, 7, 57, 64
9, 142020, Note_on_c, 7, 57, 0
9, 142080, Note_on_c, 7, 53, 64
9, 142500, Note_on_c, 7, 53, 0
9, 143040, Note_on_c, 7, 51, 64
9, 143460, Note_on_c, 7, 51, 0
9, 143520, Note_on_c, 7, 51, 64
9, 143940, Note_on_c, 7, 51, 0
9, 144000, Note_on_c, 7, 53, 64
9, 144420, Note_on_c, 7, 53, 0
9, 144480, Note_on_c, 7, 41, 64
9, 144900, Note_on_c, 7, 41, 0
9, 144960, Note_on_c, 7, 53, 64
9, 145062, Note_on_c, 7, 53, 0
9, 145080, Note_on_c, 7, 51, 64
9, 145182, Note_on_c, 7, 51, 0
9, 145200, Note_on_c, 7, 50, 64
9, 145302, Note_on_c, 7, 50, 0
9, 145320, Note_on_c, 7, 48, 64
9, 145422, Note_on_c, 7, 48, 0
9, 145440, Note_on_c, 7, 46, 64
9, 145860, Note_on_c, 7, 46, 0
9, 145920, Note_on_c, 7, 62, 64
9, 146340, Note_on_c, 7, 62, 0
9, 146400, Note_on_c, 7, 58, 64
9, 146820, Note_on_c, 7, 58, 0
9, 147360, Note_on_c, 7, 57, 64
9, 147780, Note_on_c, 7, 57, 0
9, 147840, Note_on_c, 7, 53, 64
9, 148260, Note_on_c, 7, 53, 0
9, 148320, Note_on_c, 7, 58, 64
9, 148740, Note_on_c, 7, 58, 0
9, 148800, Note_on_c, 7, 51, 64
9, 149220, Note_on_c, 7, 51, 0
9, 149280, Note_on_c, 7, 53, 64
9, 149700, Note_on_c, 7, 53, 0
9, 149760, Note_on_c, 7, 58, 64
9, 149967, Note_on_c, 7, 58, 0
9, 150000, Note_on_c, 7, 57, 64
9, 150102, Note_on_c, 7, 57, 0
9, 150120, Note_on_c, 7, 55, 64
9, 150222, Note_on_c, 7, 55, 0
9, 150240, Note_on_c, 7, 53, 64
9, 150342, Note_on_c, 7, 53, 0
9, 150360, Note_on_c, 7, 51, 64
9, 150462, Note_on_c, 7, 51, 0
9, 150480, Note_on_c, 7, 50, 64
9, 150582, Note_on_c, 7, 50, 0
9, 150600, Note_on_c, 7, 48, 64
9, 150702, Note_on_c, 7, 48, 0
9, 150720, Note_on_c, 7, 46, 64
9, 151140, Note_on_c, 7, 46, 0
9, 151200, Note_on_c, 7, 46, 64
9, 151620, Note_on_c, 7, 46, 0
9, 151680, Note_on_c, 7, 58, 64
9, 152100, Note_on_c, 7, 58, 0
9, 152160, Note_on_c, 7, 50, 64
9, 152580, Note_on_c, 7, 50, 0
9, 152640, Note_on_c, 7, 51, 64
9, 153060, Note_on_c, 7, 51, 0
9, 154080, Note_on_c, 7, 52, 64
9, 154500, Note_on_c, 7, 52, 0
9, 154560, Note_on_c, 7, 60, 64
9, 154980, Note_on_c, 7, 60, 0
9, 155040, Note_on_c, 7, 52, 64
9, 155460, Note_on_c, 7, 52, 0
9, 155520, Note_on_c, 7, 53, 64
9, 155940, Note_on_c, 7, 53, 0
9, 156960, Note_on_c, 7, 53, 64
9, 157380, Note_on_c, 7, 53, 0
9, 158400, Note_on_c, 7, 41, 64
9, 158820, Note_on_c, 7, 41, 0
9, 159840, Note_on_c, 7, 53, 64
9, 160260, Note_on_c, 7, 53, 0
9, 161280, Note_on_c, 7, 41, 64
9, 161700, Note_on_c, 7, 41, 0
9, 162720, Note_on_c, 7, 53, 64
9, 163140, Note_on_c, 7, 53, 0
9, 164160, Note_on_c, 7, 41, 64
9, 164580, Note_on_c, 7, 41, 0
9, 165600, Note_on_c, 7, 58, 64
9, 166020, Note_on_c, 7, 58, 0
9, 166080, Note_on_c, 7, 62, 64
9, 166500, Note_on_c, 7, 62, 0
9, 166560, Note_on_c, 7, 58, 64
9, 166980, Note_on_c, 7, 58, 0
9, 167040, Note_on_c, 7, 60, 64
9, 167460, Note_on_c, 7, 60, 0
9, 167520, Note_on_c, 7, 57, 64
9, 167940, Note_on_c, 7, 57, 0
9, 168000, Note_on_c, 7, 53, 64
9, 168420, Note_on_c, 7, 53, 0
9, 168480, Note_on_c, 7, 58, 64
9, 168900, Note_on_c, 7, 58, 0
9, 168960, Note_on_c, 7, 55, 64
9, 169380, Note_on_c, 7, 55, 0
9, 169440, Note_on_c, 7, 51, 64
9, 169860, Note_on_c, 7, 51, 0
9, 169920, Note_on_c, 7, 53, 64
9, 170340, Note_on_c, 7, 53, 0
9, 170400, Note_on_c, 7, 53, 64
9, 170820, Note_on_c, 7, 53, 0
9, 170880, Note_on_c, 7, 51, 64
9, 171300, Note_on_c, 7, 51, 0
9, 171360, Note_on_c, 7, 50, 64
9, 171780, Note_on_c, 7, 50, 0
9, 171840, Note_on_c, 7, 62, 64
9, 172260, Note_on_c, 7, 62, 0
9, 172320, Note_on_c, 7, 58, 64
9, 172740, Note_on_c, 7, 58, 0
9, 172800, Note_on_c, 7, 60, 64
9, 173220, Note_on_c, 7, 60, 0
9, 173280, Note_on_c, 7, 57, 64
9, 173700, Note_on_c, 7, 57, 0
9, 173760, Note_on_c, 7, 53, 64
9, 174180, Note_on_c, 7, 53, 0
9, 174240, Note_on_c, 7, 58, 64
9, 174660, Note_on_c, 7, 58, 0
9, 174720, Note_on_c, 7, 50, 64
9, 175140, Note_on_c, 7, 50, 0
9, 175200, Note_on_c, 7, 53, 64
9, 175620, Note_on_c, 7, 53, 0
9, 175680, Note_on_c, 7, 58, 64
9, 176100, Note_on_c, 7, 58, 0
9, 176160, Note_on_c, 7, 46, 64
9, 176580, Note_on_c, 7, 46, 0
9, 177120, Note_on_c, 7, 53, 64
9, 177540, Note_on_c, 7, 53, 0
9, 177600, Note_on_c, 7, 53, 64
9, 178020, Note_on_c, 7, 53, 0
9, 178080, Note_on_c, 7, 53, 64
9, 178500, Note_on_c, 7, 53, 0
9, 178560, Note_on_c, 7, 53, 64
9, 178980, Note_on_c, 7, 53, 0
9, 179040, Note_on_c, 7, 53, 64
9, 179460, Note_on_c, 7, 53, 0
9, 179520, Note_on_c, 7, 53, 64
9, 179940, Note_on_c, 7, 53, 0
9, 180000, Note_on_c, 7, 58, 64
9, 180420, Note_on_c, 7, 58, 0
9, 180480, Note_on_c, 7, 58, 64
9, 180900, Note_on_c, 7, 58, 0
9, 180960, Note_on_c, 7, 58, 64
9, 181380, Note_on_c, 7, 58, 0
9, 181440, Note_on_c, 7, 58, 64
9, 181860, Note_on_c, 7, 58, 0
9, 181920, Note_on_c, 7, 58, 64
9, 182340, Note_on_c, 7, 58, 0
9, 182400, Note_on_c, 7, 58, 64
9, 182820, Note_on_c, 7, 58, 0
9, 182880, Note_on_c, 7, 58, 64
9, 183300, Note_on_c, 7, 58, 0
9, 183360, Note_on_c, 7, 62, 64
9, 183780, Note_on_c, 7, 62, 0
9, 183840, Note_on_c, 7, 58, 64
9, 184260, Note_on_c, 7, 58, 0
9, 184320, Note_on_c, 7, 60, 64
9, 184740, Note_on_c, 7, 60, 0
9, 184800, Note_on_c, 7, 57, 64
9, 185220, Note_on_c, 7, 57, 0
9, 185280, Note_on_c, 7, 53, 64
9, 185700, Note_on_c, 7, 53, 0
9, 185760, Note_on_c, 7, 58, 64
9, 186180, Note_on_c, 7, 58, 0
9, 186240, Note_on_c, 7, 55, 64
9, 186660, Note_on_c, 7, 55, 0
9, 186720, Note_on_c, 7, 51, 64
9, 187140, Note_on_c, 7, 51, 0
9, 187200, Note_on_c, 7, 53, 64
9, 187620, Note_on_c, 7, 53, 0
9, 187680, Note_on_c, 7, 53, 64
9, 188100, Note_on_c, 7, 53, 0
9, 188160, Note_on_c, 7, 51, 64
9, 188580, Note_on_c, 7, 51, 0
9, 188640, Note_on_c, 7, 50, 64
9, 189060, Note_on_c, 7, 50, 0
9, 189120, Note_on_c, 7, 62, 64
9, 189540, Note_on_c, 7, 62, 0
9, 189600, Note_on_c, 7, 58, 64
9, 190020, Note_on_c, 7, 58, 0
9, 190080, Note_on_c, 7, 60, 64
9, 190500, Note_on_c, 7, 60, 0
9, 190560, Note_on_c, 7, 57, 64
9, 190980, Note_on_c, 7, 57, 0
9, 191040, Note_on_c, 7, 53, 64
9, 191460, Note_on_c, 7, 53, 0
9, 191520, Note_on_c, 7, 58, 64
9, 191940, Note_on_c, 7, 58, 0
9, 192000, Note_on_c, 7, 53, 64
9, 192420, Note_on_c, 7, 53, 0
9, 192480, Note_on_c, 7, 41, 64
9, 192900, Note_on_c, 7, 41, 0
9, 192960, Note_on_c, 7, 46, 64
9, 193380, Note_on_c, 7, 46, 0
9, 193440, Note_on_c, 7, 62, 64
9, 193860, Note_on_c, 7, 62, 0
9, 193920, Note_on_c, 7, 58, 64
9, 194340, Note_on_c, 7, 58, 0
9, 194400, Note_on_c, 7, 60, 64
9, 194820, Note_on_c, 7, 60, 0
9, 194880, Note_on_c, 7, 57, 64
9, 195300, Note_on_c, 7, 57, 0
9, 195360, Note_on_c, 7, 53, 64
9, 195780, Note_on_c, 7, 53, 0
9, 195840, Note_on_c, 7, 58, 64
9, 196260, Note_on_c, 7, 58, 0
9, 196320, Note_on_c, 7, 62, 64
9, 196740, Note_on_c, 7, 62, 0
9, 196800, Note_on_c, 7, 58, 64
9, 197220, Note_on_c, 7, 58, 0
9, 197280, Note_on_c, 7, 60, 64
9, 197700, Note_on_c, 7, 60, 0
9, 197760, Note_on_c, 7, 57, 64
9, 198180, Note_on_c, 7, 57, 0
9, 198240, Note_on_c, 7, 53, 64
9, 198660, Note_on_c, 7, 53, 0
9, 198720, Note_on_c, 7, 58, 64
9, 198927, Note_on_c, 7, 58, 0
9, 199200, Note_on_c, 7, 50, 64
9, 199407, Note_on_c, 7, 50, 0
9, 199680, Note_on_c, 7, 50, 64
9, 199887, Note_on_c, 7, 50, 0
9, 200160, Note_on_c, 7, 51, 64
9, 201540, Note_on_c, 7, 51, 0
9, 201600, Note_on_c, 7, 53, 64
9, 201807, Note_on_c, 7, 53, 0
9, 201840, Note_on_c, 7, 53, 64
9, 202047, Note_on_c, 7, 53, 0
9, 202080, Note_on_c, 7, 53, 64
9, 202287, Note_on_c, 7, 53, 0
9, 202320, Note_on_c, 7, 53, 64
9, 202527, Note_on_c, 7, 53, 0
9, 202560, Note_on_c, 7, 51, 64
9, 202767, Note_on_c, 7, 51, 0
9, 202800, Note_on_c, 7, 51, 64
9, 203007, Note_on_c, 7, 51, 0
9, 203040, Note_on_c, 7, 50, 64
9, 203247, Note_on_c, 7, 50, 0
9, 203520, Note_on_c, 7, 50, 64
9, 203727, Note_on_c, 7, 50, 0
9, 204000, Note_on_c, 7, 50, 64
9, 204207, Note_on_c, 7, 50, 0
9, 204480, Note_on_c, 7, 51, 64
9, 205860, Note_on_c, 7, 51, 0
9, 207360, Note_on_c, 7, 53, 64
9, 207567, Note_on_c, 7, 53, 0
9, 207600, Note_on_c, 7, 53, 64
9, 207807, Note_on_c, 7, 53, 0
9, 207840, Note_on_c, 7, 53, 64
9, 208047, Note_on_c, 7, 53, 0
9, 208080, Note_on_c, 7, 53, 64
9, 208287, Note_on_c, 7, 53, 0
9, 208320, Note_on_c, 7, 53, 64
9, 208527, Note_on_c, 7, 53, 0
9, 208560, Note_on_c, 7, 53, 64
9, 208767, Note_on_c, 7, 53, 0
9, 208800, Note_on_c, 7, 41, 64
9, 209007, Note_on_c, 7, 41, 0
9, 209040, Note_on_c, 7, 41, 64
9, 209247, Note_on_c, 7, 41, 0
9, 209280, Note_on_c, 7, 41, 64
9, 209487, Note_on_c, 7, 41, 0
9, 209520, Note_on_c, 7, 41, 64
9, 209727, Note_on_c, 7, 41, 0
9, 209760, Note_on_c, 7, 41, 64
9, 209967, Note_on_c, 7, 41, 0
9, 210000, Note_on_c, 7, 41, 64
9, 210207, Note_on_c, 7, 41, 0
9, 210240, Note_on_c, 7, 58, 64
9, 210660, Note_on_c, 7, 58, 0
9, 210720, Note_on_c, 7, 62, 64
9, 211140, Note_on_c, 7, 62, 0
9, 211200, Note_on_c, 7, 58, 64
9, 211620, Note_on_c, 7, 58, 0
9, 211680, Note_on_c, 7, 60, 64
9, 212100, Note_on_c, 7, 60, 0
9, 212160, Note_on_c, 7, 55, 64
9, 212580, Note_on_c, 7, 55, 0
9, 212640, Note_on_c, 7, 57, 64
9, 213060, Note_on_c, 7, 57, 0
9, 213120, Note_on_c, 7, 58, 64
9, 213540, Note_on_c, 7, 58, 0
9, 213600, Note_on_c, 7, 55, 64
9, 214020, Note_on_c, 7, 55, 0
9, 214080, Note_on_c, 7, 51, 64
9, 214500, Note_on_c, 7, 51, 0
9, 214560, Note_on_c, 7, 53, 64
9, 214980, Note_on_c, 7, 53, 0
9, 215040, Note_on_c, 7, 53, 64
9, 215460, Note_on_c, 7, 53, 0
9, 215520, Note_on_c, 7, 51, 64
9, 215940, Note_on_c, 7, 51, 0
9, 216000, Note_on_c, 7, 50, 64
9, 216420, Note_on_c, 7, 50, 0
9, 216480, Note_on_c, 7, 62, 64
9, 216900, Note_on_c, 7, 62, 0
9, 216960, Note_on_c, 7, 58, 64
9, 217380, Note_on_c, 7, 58, 0
9, 217440, Note_on_c, 7, 60, 64
9, 217860, Note_on_c, 7, 60, 0
9, 217920, Note_on_c, 7, 55, 64
9, 218340, Note_on_c, 7, 55, 0
9, 218400, Note_on_c, 7, 57, 64
9, 218820, Note_on_c, 7, 57, 0
9, 218880, Note_on_c, 7, 58, 64
9, 219300, Note_on_c, 7, 58, 0
9, 219360, Note_on_c, 7, 53, 64
9, 219780, Note_on_c, 7, 53, 0
9, 219840, Note_on_c, 7, 41, 64
9, 220260, Note_on_c, 7, 41, 0
9, 220320, Note_on_c, 7, 50, 64
9, 220527, Note_on_c, 7, 50, 0
9, 220560, Note_on_c, 7, 50, 64
9, 220767, Note_on_c, 7, 50, 0
9, 220800, Note_on_c, 7, 50, 64
9, 221007, Note_on_c, 7, 50, 0
9, 221040, Note_on_c, 7, 50, 64
9, 221247, Note_on_c, 7, 50, 0
9, 221280, Note_on_c, 7, 50, 64
9, 221487, Note_on_c, 7, 50, 0
9, 221520, Note_on_c, 7, 50, 64
9, 221727, Note_on_c, 7, 50, 0
9, 221760, Note_on_c, 7, 51, 64
9, 221967, Note_on_c, 7, 51, 0
9, 222000, Note_on_c, 7, 51, 64
9, 222207, Note_on_c, 7, 51, 0
9, 222240, Note_on_c, 7, 53, 64
9, 222447, Note_on_c, 7, 53, 0
9, 222480, Note_on_c, 7, 53, 64
9, 222687, Note_on_c, 7, 53, 0
9, 222720, Note_on_c, 7, 51, 64
9, 222927, Note_on_c, 7, 51, 0
9, 222960, Note_on_c, 7, 51, 64
9, 223167, Note_on_c, 7, 51, 0
9, 223200, Note_on_c, 7, 50, 64
9, 223407, Note_on_c, 7, 50, 0
9, 223440, Note_on_c, 7, 50, 64
9, 223647, Note_on_c, 7, 50, 0
9, 223680, Note_on_c, 7, 50, 64
9, 223887, Note_on_c, 7, 50, 0
9, 223920, Note_on_c, 7, 50, 64
9, 224127, Note_on_c, 7, 50, 0
9, 224160, Note_on_c, 7, 50, 64
9, 224367, Note_on_c, 7, 50, 0
9, 224400, Note_on_c, 7, 50, 64
9, 224607, Note_on_c, 7, 50, 0
9, 224640, Note_on_c, 7, 51, 64
9, 224847, Note_on_c, 7, 51, 0
9, 224880, Note_on_c, 7, 51, 64
9, 225087, Note_on_c, 7, 51, 0
9, 225120, Note_on_c, 7, 53, 64
9, 225327, Note_on_c, 7, 53, 0
9, 225360, Note_on_c, 7, 53, 64
9, 225567, Note_on_c, 7, 53, 0
9, 225600, Note_on_c, 7, 41, 64
9, 225807, Note_on_c, 7, 41, 0
9, 225840, Note_on_c, 7, 41, 64
9, 226047, Note_on_c, 7, 41, 0
9, 226080, Note_on_c, 7, 46, 64
9, 226287, Note_on_c, 7, 46, 0
9, 226320, Note_on_c, 7, 46, 64
9, 226527, Note_on_c, 7, 46, 0
9, 226560, Note_on_c, 7, 50, 64
9, 226767, Note_on_c, 7, 50, 0
9, 226800, Note_on_c, 7, 46, 64
9, 227007, Note_on_c, 7, 46, 0
9, 227040, Note_on_c, 7, 50, 64
9, 227247, Note_on_c, 7, 50, 0
9, 227280, Note_on_c, 7, 53, 64
9, 227487, Note_on_c, 7, 53, 0
9, 227520, Note_on_c, 7, 58, 64
9, 227940, Note_on_c, 7, 58, 0
9, 228000, Note_on_c, 7, 46, 64
9, 228420, Note_on_c, 7, 46, 0
9, 228420, End_track
10, 0, Start_track
10, 0, Title_t, "Contrabass"
10, 0, Control_c, 8, 0, 0
10, 0, Control_c, 8, 7, 80
10, 0, Control_c, 8, 10, 75
10, 0, Control_c, 8, 91, 79
10, 0, Control_c, 8, 93, 79
10, 1, Control_c, 8, 32, 1
10, 2, Program_c, 8, 48
10, 1440, Note_on_c, 8, 46, 64
10, 1860, Note_on_c, 8, 46, 0
10, 1920, Note_on_c, 8, 50, 64
10, 2340, Note_on_c, 8, 50, 0
10, 2400, Note_on_c, 8, 46, 64
10, 2820, Note_on_c, 8, 46, 0
10, 2880, Note_on_c, 8, 48, 64
10, 3300, Note_on_c, 8, 48, 0
10, 3360, Note_on_c, 8, 43, 64
10, 3780, Note_on_c, 8, 43, 0
10, 3840, Note_on_c, 8, 45, 64
10, 4260, Note_on_c, 8, 45, 0
10, 4320, Note_on_c, 8, 46, 64
10, 4740, Note_on_c, 8, 46, 0
10, 4800, Note_on_c, 8, 43, 64
10, 5220, Note_on_c, 8, 43, 0
10, 5280, Note_on_c, 8, 39, 64
10, 5700, Note_on_c, 8, 39, 0
10, 5760, Note_on_c, 8, 41, 64
10, 6180, Note_on_c, 8, 41, 0
10, 6240, Note_on_c, 8, 41, 64
10, 6660, Note_on_c, 8, 41, 0
10, 6720, Note_on_c, 8, 39, 64
10, 7140, Note_on_c, 8, 39, 0
10, 7200, Note_on_c, 8, 38, 64
10, 7620, Note_on_c, 8, 38, 0
10, 7680, Note_on_c, 8, 50, 64
10, 8100, Note_on_c, 8, 50, 0
10, 8160, Note_on_c, 8, 46, 64
10, 8580, Note_on_c, 8, 46, 0
10, 8640, Note_on_c, 8, 48, 64
10, 9060, Note_on_c, 8, 48, 0
10, 9120, Note_on_c, 8, 43, 64
10, 9540, Note_on_c, 8, 43, 0
10, 9600, Note_on_c, 8, 45, 64
10, 10020, Note_on_c, 8, 45, 0
10, 10080, Note_on_c, 8, 46, 64
10, 10500, Note_on_c, 8, 46, 0
10, 10560, Note_on_c, 8, 41, 64
10, 10980, Note_on_c, 8, 41, 0
10, 11040, Note_on_c, 8, 29, 64
10, 11460, Note_on_c, 8, 29, 0
10, 11520, Note_on_c, 8, 34, 64
10, 11940, Note_on_c, 8, 34, 0
10, 12000, Note_on_c, 8, 41, 64
10, 12420, Note_on_c, 8, 41, 0
10, 12480, Note_on_c, 8, 46, 64
10, 12900, Note_on_c, 8, 46, 0
10, 12960, Note_on_c, 8, 46, 64
10, 13380, Note_on_c, 8, 46, 0
10, 13440, Note_on_c, 8, 50, 64
10, 13860, Note_on_c, 8, 50, 0
10, 13920, Note_on_c, 8, 46, 64
10, 14340, Note_on_c, 8, 46, 0
10, 14400, Note_on_c, 8, 48, 64
10, 14820, Note_on_c, 8, 48, 0
10, 14880, Note_on_c, 8, 43, 64
10, 15300, Note_on_c, 8, 43, 0
10, 15360, Note_on_c, 8, 45, 64
10, 15780, Note_on_c, 8, 45, 0
10, 15840, Note_on_c, 8, 46, 64
10, 16260, Note_on_c, 8, 46, 0
10, 16320, Note_on_c, 8, 43, 64
10, 16740, Note_on_c, 8, 43, 0
10, 16800, Note_on_c, 8, 39, 64
10, 17220, Note_on_c, 8, 39, 0
10, 17280, Note_on_c, 8, 41, 64
10, 17700, Note_on_c, 8, 41, 0
10, 17760, Note_on_c, 8, 41, 64
10, 18180, Note_on_c, 8, 41, 0
10, 18240, Note_on_c, 8, 39, 64
10, 18660, Note_on_c, 8, 39, 0
10, 18720, Note_on_c, 8, 38, 64
10, 19140, Note_on_c, 8, 38, 0
10, 19200, Note_on_c, 8, 50, 64
10, 19620, Note_on_c, 8, 50, 0
10, 19680, Note_on_c, 8, 46, 64
10, 20100, Note_on_c, 8, 46, 0
10, 20160, Note_on_c, 8, 48, 64
10, 20580, Note_on_c, 8, 48, 0
10, 20640, Note_on_c, 8, 43, 64
10, 21060, Note_on_c, 8, 43, 0
10, 21120, Note_on_c, 8, 45, 64
10, 21540, Note_on_c, 8, 45, 0
10, 21600, Note_on_c, 8, 46, 64
10, 22020, Note_on_c, 8, 46, 0
10, 22080, Note_on_c, 8, 41, 64
10, 22500, Note_on_c, 8, 41, 0
10, 22560, Note_on_c, 8, 29, 64
10, 22980, Note_on_c, 8, 29, 0
10, 23040, Note_on_c, 8, 34, 64
10, 23460, Note_on_c, 8, 34, 0
10, 23520, Note_on_c, 8, 41, 64
10, 23940, Note_on_c, 8, 41, 0
10, 24000, Note_on_c, 8, 46, 64
10, 24420, Note_on_c, 8, 46, 0
10, 24480, Note_on_c, 8, 41, 64
10, 24900, Note_on_c, 8, 41, 0
10, 24960, Note_on_c, 8, 41, 64
10, 25380, Note_on_c, 8, 41, 0
10, 25440, Note_on_c, 8, 41, 64
10, 25860, Note_on_c, 8, 41, 0
10, 25920, Note_on_c, 8, 41, 64
10, 26340, Note_on_c, 8, 41, 0
10, 26400, Note_on_c, 8, 41, 64
10, 26820, Note_on_c, 8, 41, 0
10, 26880, Note_on_c, 8, 41, 64
10, 27300, Note_on_c, 8, 41, 0
10, 27360, Note_on_c, 8, 46, 64
10, 27780, Note_on_c, 8, 46, 0
10, 27840, Note_on_c, 8, 46, 64
10, 28260, Note_on_c, 8, 46, 0
10, 28320, Note_on_c, 8, 46, 64
10, 28740, Note_on_c, 8, 46, 0
10, 28800, Note_on_c, 8, 46, 64
10, 29220, Note_on_c, 8, 46, 0
10, 29280, Note_on_c, 8, 46, 64
10, 29700, Note_on_c, 8, 46, 0
10, 29760, Note_on_c, 8, 46, 64
10, 30180, Note_on_c, 8, 46, 0
10, 30240, Note_on_c, 8, 46, 64
10, 30660, Note_on_c, 8, 46, 0
10, 30720, Note_on_c, 8, 50, 64
10, 31140, Note_on_c, 8, 50, 0
10, 31200, Note_on_c, 8, 46, 64
10, 31620, Note_on_c, 8, 46, 0
10, 31680, Note_on_c, 8, 48, 64
10, 32100, Note_on_c, 8, 48, 0
10, 32160, Note_on_c, 8, 43, 64
10, 32580, Note_on_c, 8, 43, 0
10, 32640, Note_on_c, 8, 45, 64
10, 33060, Note_on_c, 8, 45, 0
10, 33120, Note_on_c, 8, 46, 64
10, 33540, Note_on_c, 8, 46, 0
10, 33600, Note_on_c, 8, 43, 64
10, 34020, Note_on_c, 8, 43, 0
10, 34080, Note_on_c, 8, 39, 64
10, 34500, Note_on_c, 8, 39, 0
10, 34560, Note_on_c, 8, 41, 64
10, 34980, Note_on_c, 8, 41, 0
10, 35040, Note_on_c, 8, 41, 64
10, 35460, Note_on_c, 8, 41, 0
10, 35520, Note_on_c, 8, 39, 64
10, 35940, Note_on_c, 8, 39, 0
10, 36000, Note_on_c, 8, 38, 64
10, 36420, Note_on_c, 8, 38, 0
10, 36480, Note_on_c, 8, 50, 64
10, 36900, Note_on_c, 8, 50, 0
10, 36960, Note_on_c, 8, 46, 64
10, 37380, Note_on_c, 8, 46, 0
10, 37440, Note_on_c, 8, 48, 64
10, 37860, Note_on_c, 8, 48, 0
10, 37920, Note_on_c, 8, 43, 64
10, 38340, Note_on_c, 8, 43, 0
10, 38400, Note_on_c, 8, 45, 64
10, 38820, Note_on_c, 8, 45, 0
10, 38880, Note_on_c, 8, 46, 64
10, 39300, Note_on_c, 8, 46, 0
10, 39360, Note_on_c, 8, 41, 64
10, 39780, Note_on_c, 8, 41, 0
10, 39840, Note_on_c, 8, 29, 64
10, 40260, Note_on_c, 8, 29, 0
10, 40320, Note_on_c, 8, 34, 64
10, 40740, Note_on_c, 8, 34, 0
10, 40800, Note_on_c, 8, 38, 64
10, 41220, Note_on_c, 8, 38, 0
10, 41280, Note_on_c, 8, 41, 64
10, 41700, Note_on_c, 8, 41, 0
10, 41760, Note_on_c, 8, 46, 64
10, 42180, Note_on_c, 8, 46, 0
10, 42240, Note_on_c, 8, 50, 64
10, 42660, Note_on_c, 8, 50, 0
10, 42720, Note_on_c, 8, 46, 64
10, 43140, Note_on_c, 8, 46, 0
10, 43200, Note_on_c, 8, 48, 64
10, 43620, Note_on_c, 8, 48, 0
10, 43680, Note_on_c, 8, 41, 64
10, 44100, Note_on_c, 8, 41, 0
10, 44160, Note_on_c, 8, 45, 64
10, 44580, Note_on_c, 8, 45, 0
10, 44640, Note_on_c, 8, 46, 64
10, 45060, Note_on_c, 8, 46, 0
10, 45120, Note_on_c, 8, 39, 64
10, 45540, Note_on_c, 8, 39, 0
10, 45600, Note_on_c, 8, 40, 64
10, 46020, Note_on_c, 8, 40, 0
10, 46080, Note_on_c, 8, 41, 64
10, 46500, Note_on_c, 8, 41, 0
10, 47040, Note_on_c, 8, 39, 64
10, 47180, Note_on_c, 8, 39, 0
10, 47197, Note_on_c, 8, 38, 64
10, 47339, Note_on_c, 8, 38, 0
10, 47357, Note_on_c, 8, 36, 64
10, 47497, Note_on_c, 8, 36, 0
10, 47520, Note_on_c, 8, 34, 64
10, 47940, Note_on_c, 8, 34, 0
10, 48000, Note_on_c, 8, 50, 64
10, 48420, Note_on_c, 8, 50, 0
10, 48480, Note_on_c, 8, 46, 64
10, 48900, Note_on_c, 8, 46, 0
10, 48960, Note_on_c, 8, 48, 64
10, 49380, Note_on_c, 8, 48, 0
10, 49440, Note_on_c, 8, 41, 64
10, 49860, Note_on_c, 8, 41, 0
10, 49920, Note_on_c, 8, 45, 64
10, 50340, Note_on_c, 8, 45, 0
10, 50400, Note_on_c, 8, 46, 64
10, 50820, Note_on_c, 8, 46, 0
10, 50880, Note_on_c, 8, 39, 64
10, 51300, Note_on_c, 8, 39, 0
10, 51360, Note_on_c, 8, 41, 64
10, 51780, Note_on_c, 8, 41, 0
10, 51840, Note_on_c, 8, 46, 64
10, 51980, Note_on_c, 8, 46, 0
10, 51997, Note_on_c, 8, 41, 64
10, 52139, Note_on_c, 8, 41, 0
10, 52157, Note_on_c, 8, 39, 64
10, 52297, Note_on_c, 8, 39, 0
10, 52320, Note_on_c, 8, 38, 64
10, 52460, Note_on_c, 8, 38, 0
10, 52477, Note_on_c, 8, 39, 64
10, 52619, Note_on_c, 8, 39, 0
10, 52637, Note_on_c, 8, 41, 64
10, 52777, Note_on_c, 8, 41, 0
10, 52800, Note_on_c, 8, 34, 64
10, 53220, Note_on_c, 8, 34, 0
10, 53280, Note_on_c, 8, 46, 64
10, 53700, Note_on_c, 8, 46, 0
10, 54240, Note_on_c, 8, 46, 64
10, 54660, Note_on_c, 8, 46, 0
10, 54720, Note_on_c, 8, 45, 64
10, 55140, Note_on_c, 8, 45, 0
10, 55680, Note_on_c, 8, 45, 64
10, 56100, Note_on_c, 8, 45, 0
10, 56160, Note_on_c, 8, 43, 64
10, 56580, Note_on_c, 8, 43, 0
10, 57120, Note_on_c, 8, 40, 64
10, 57540, Note_on_c, 8, 40, 0
10, 57600, Note_on_c, 8, 41, 64
10, 58020, Note_on_c, 8, 41, 0
10, 58080, Note_on_c, 8, 48, 64
10, 58287, Note_on_c, 8, 48, 0
10, 58320, Note_on_c, 8, 46, 64
10, 58527, Note_on_c, 8, 46, 0
10, 58560, Note_on_c, 8, 45, 64
10, 58767, Note_on_c, 8, 45, 0
10, 58800, Note_on_c, 8, 43, 64
10, 59007, Note_on_c, 8, 43, 0
10, 59040, Note_on_c, 8, 41, 64
10, 59460, Note_on_c, 8, 41, 0
10, 59520, Note_on_c, 8, 45, 64
10, 59940, Note_on_c, 8, 45, 0
10, 60000, Note_on_c, 8, 41, 64
10, 60420, Note_on_c, 8, 41, 0
10, 60480, Note_on_c, 8, 43, 64
10, 60900, Note_on_c, 8, 43, 0
10, 60960, Note_on_c, 8, 40, 64
10, 61380, Note_on_c, 8, 40, 0
10, 61440, Note_on_c, 8, 36, 64
10, 61860, Note_on_c, 8, 36, 0
10, 61920, Note_on_c, 8, 41, 64
10, 62340, Note_on_c, 8, 41, 0
10, 62400, Note_on_c, 8, 45, 64
10, 62820, Note_on_c, 8, 45, 0
10, 62880, Note_on_c, 8, 41, 64
10, 63300, Note_on_c, 8, 41, 0
10, 63360, Note_on_c, 8, 43, 64
10, 63780, Note_on_c, 8, 43, 0
10, 63840, Note_on_c, 8, 40, 64
10, 64260, Note_on_c, 8, 40, 0
10, 64320, Note_on_c, 8, 36, 64
10, 64740, Note_on_c, 8, 36, 0
10, 64800, Note_on_c, 8, 41, 64
10, 65007, Note_on_c, 8, 41, 0
10, 65280, Note_on_c, 8, 45, 64
10, 65487, Note_on_c, 8, 45, 0
10, 65760, Note_on_c, 8, 33, 64
10, 65967, Note_on_c, 8, 33, 0
10, 66240, Note_on_c, 8, 34, 64
10, 67620, Note_on_c, 8, 34, 0
10, 67680, Note_on_c, 8, 33, 64
10, 67990, Note_on_c, 8, 33, 0
10, 68040, Note_on_c, 8, 34, 64
10, 68142, Note_on_c, 8, 34, 0
10, 68160, Note_on_c, 8, 36, 64
10, 68580, Note_on_c, 8, 36, 0
10, 68640, Note_on_c, 8, 34, 64
10, 69060, Note_on_c, 8, 34, 0
10, 69120, Note_on_c, 8, 33, 64
10, 69327, Note_on_c, 8, 33, 0
10, 69600, Note_on_c, 8, 45, 64
10, 69807, Note_on_c, 8, 45, 0
10, 70080, Note_on_c, 8, 33, 64
10, 70287, Note_on_c, 8, 33, 0
10, 70560, Note_on_c, 8, 34, 64
10, 71940, Note_on_c, 8, 34, 0
10, 73320, Note_on_c, 8, 34, 64
10, 73422, Note_on_c, 8, 34, 0
10, 73440, Note_on_c, 8, 33, 64
10, 73750, Note_on_c, 8, 33, 0
10, 73800, Note_on_c, 8, 34, 64
10, 73902, Note_on_c, 8, 34, 0
10, 73920, Note_on_c, 8, 36, 64
10, 74340, Note_on_c, 8, 36, 0
10, 74400, Note_on_c, 8, 36, 64
10, 74820, Note_on_c, 8, 36, 0
10, 74880, Note_on_c, 8, 41, 64
10, 75670, Note_on_c, 8, 41, 0
10, 75720, Note_on_c, 8, 43, 64
10, 75822, Note_on_c, 8, 43, 0
10, 75840, Note_on_c, 8, 45, 64
10, 75890, Note_on_c, 8, 45, 0
10, 75900, Note_on_c, 8, 43, 64
10, 75950, Note_on_c, 8, 43, 0
10, 75960, Note_on_c, 8, 45, 64
10, 76010, Note_on_c, 8, 45, 0
10, 76020, Note_on_c, 8, 43, 64
10, 76070, Note_on_c, 8, 43, 0
10, 76080, Note_on_c, 8, 45, 64
10, 76130, Note_on_c, 8, 45, 0
10, 76140, Note_on_c, 8, 43, 64
10, 76190, Note_on_c, 8, 43, 0
10, 76200, Note_on_c, 8, 41, 64
10, 76250, Note_on_c, 8, 41, 0
10, 76260, Note_on_c, 8, 43, 64
10, 76310, Note_on_c, 8, 43, 0
10, 76320, Note_on_c, 8, 44, 64
10, 76740, Note_on_c, 8, 44, 0
10, 77280, Note_on_c, 8, 44, 64
10, 77700, Note_on_c, 8, 44, 0
10, 77760, Note_on_c, 8, 43, 64
10, 78180, Note_on_c, 8, 43, 0
10, 78720, Note_on_c, 8, 47, 64
10, 79140, Note_on_c, 8, 47, 0
10, 79200, Note_on_c, 8, 48, 64
10, 79620, Note_on_c, 8, 48, 0
10, 80160, Note_on_c, 8, 42, 64
10, 80580, Note_on_c, 8, 42, 0
10, 80640, Note_on_c, 8, 41, 64
10, 81060, Note_on_c, 8, 41, 0
10, 81600, Note_on_c, 8, 45, 64
10, 82020, Note_on_c, 8, 45, 0
10, 82080, Note_on_c, 8, 46, 64
10, 82980, Note_on_c, 8, 46, 0
10, 83040, Note_on_c, 8, 39, 64
10, 83460, Note_on_c, 8, 39, 0
10, 83520, Note_on_c, 8, 41, 64
10, 83940, Note_on_c, 8, 41, 0
10, 84000, Note_on_c, 8, 29, 64
10, 84420, Note_on_c, 8, 29, 0
10, 84480, Note_on_c, 8, 41, 64
10, 84900, Note_on_c, 8, 41, 0
10, 84960, Note_on_c, 8, 46, 64
10, 85380, Note_on_c, 8, 46, 0
10, 85440, Note_on_c, 8, 50, 64
10, 85860, Note_on_c, 8, 50, 0
10, 85920, Note_on_c, 8, 46, 64
10, 86340, Note_on_c, 8, 46, 0
10, 86400, Note_on_c, 8, 48, 64
10, 86820, Note_on_c, 8, 48, 0
10, 86880, Note_on_c, 8, 43, 64
10, 87300, Note_on_c, 8, 43, 0
10, 87360, Note_on_c, 8, 45, 64
10, 87780, Note_on_c, 8, 45, 0
10, 87840, Note_on_c, 8, 46, 64
10, 88260, Note_on_c, 8, 46, 0
10, 88320, Note_on_c, 8, 43, 64
10, 88740, Note_on_c, 8, 43, 0
10, 88800, Note_on_c, 8, 39, 64
10, 89220, Note_on_c, 8, 39, 0
10, 89280, Note_on_c, 8, 41, 64
10, 89700, Note_on_c, 8, 41, 0
10, 89760, Note_on_c, 8, 41, 64
10, 90180, Note_on_c, 8, 41, 0
10, 90240, Note_on_c, 8, 39, 64
10, 90660, Note_on_c, 8, 39, 0
10, 90720, Note_on_c, 8, 38, 64
10, 91140, Note_on_c, 8, 38, 0
10, 91200, Note_on_c, 8, 50, 64
10, 91620, Note_on_c, 8, 50, 0
10, 91680, Note_on_c, 8, 46, 64
10, 92100, Note_on_c, 8, 46, 0
10, 92160, Note_on_c, 8, 48, 64
10, 92580, Note_on_c, 8, 48, 0
10, 92640, Note_on_c, 8, 43, 64
10, 93060, Note_on_c, 8, 43, 0
10, 93120, Note_on_c, 8, 45, 64
10, 93540, Note_on_c, 8, 45, 0
10, 93600, Note_on_c, 8, 46, 64
10, 94020, Note_on_c, 8, 46, 0
10, 94080, Note_on_c, 8, 41, 64
10, 94500, Note_on_c, 8, 41, 0
10, 94560, Note_on_c, 8, 29, 64
10, 94980, Note_on_c, 8, 29, 0
10, 95040, Note_on_c, 8, 34, 64
10, 95460, Note_on_c, 8, 34, 0
10, 95520, Note_on_c, 8, 41, 64
10, 95940, Note_on_c, 8, 41, 0
10, 96000, Note_on_c, 8, 46, 64
10, 96420, Note_on_c, 8, 46, 0
10, 96480, Note_on_c, 8, 43, 64
10, 96687, Note_on_c, 8, 43, 0
10, 96720, Note_on_c, 8, 43, 64
10, 96927, Note_on_c, 8, 43, 0
10, 96960, Note_on_c, 8, 43, 64
10, 97167, Note_on_c, 8, 43, 0
10, 97200, Note_on_c, 8, 43, 64
10, 97407, Note_on_c, 8, 43, 0
10, 97440, Note_on_c, 8, 43, 64
10, 97647, Note_on_c, 8, 43, 0
10, 97680, Note_on_c, 8, 43, 64
10, 97887, Note_on_c, 8, 43, 0
10, 97920, Note_on_c, 8, 45, 64
10, 98127, Note_on_c, 8, 45, 0
10, 98160, Note_on_c, 8, 45, 64
10, 98367, Note_on_c, 8, 45, 0
10, 98400, Note_on_c, 8, 45, 64
10, 98607, Note_on_c, 8, 45, 0
10, 98640, Note_on_c, 8, 45, 64
10, 98847, Note_on_c, 8, 45, 0
10, 98880, Note_on_c, 8, 45, 64
10, 99087, Note_on_c, 8, 45, 0
10, 99120, Note_on_c, 8, 45, 64
10, 99327, Note_on_c, 8, 45, 0
10, 99360, Note_on_c, 8, 46, 64
10, 99567, Note_on_c, 8, 46, 0
10, 99600, Note_on_c, 8, 46, 64
10, 99807, Note_on_c, 8, 46, 0
10, 99840, Note_on_c, 8, 46, 64
10, 100047, Note_on_c, 8, 46, 0
10, 100080, Note_on_c, 8, 46, 64
10, 100287, Note_on_c, 8, 46, 0
10, 100320, Note_on_c, 8, 46, 64
10, 100527, Note_on_c, 8, 46, 0
10, 100560, Note_on_c, 8, 46, 64
10, 100767, Note_on_c, 8, 46, 0
10, 100800, Note_on_c, 8, 48, 64
10, 101007, Note_on_c, 8, 48, 0
10, 101040, Note_on_c, 8, 48, 64
10, 101247, Note_on_c, 8, 48, 0
10, 101280, Note_on_c, 8, 48, 64
10, 101487, Note_on_c, 8, 48, 0
10, 101520, Note_on_c, 8, 48, 64
10, 101727, Note_on_c, 8, 48, 0
10, 101760, Note_on_c, 8, 48, 64
10, 101967, Note_on_c, 8, 48, 0
10, 102000, Note_on_c, 8, 48, 64
10, 102207, Note_on_c, 8, 48, 0
10, 102240, Note_on_c, 8, 46, 64
10, 102660, Note_on_c, 8, 46, 0
10, 102720, Note_on_c, 8, 45, 64
10, 103140, Note_on_c, 8, 45, 0
10, 103200, Note_on_c, 8, 43, 64
10, 103620, Note_on_c, 8, 43, 0
10, 103680, Note_on_c, 8, 42, 64
10, 104100, Note_on_c, 8, 42, 0
10, 104160, Note_on_c, 8, 40, 64
10, 104580, Note_on_c, 8, 40, 0
10, 104640, Note_on_c, 8, 38, 64
10, 105060, Note_on_c, 8, 38, 0
10, 105120, Note_on_c, 8, 36, 64
10, 105540, Note_on_c, 8, 36, 0
10, 105600, Note_on_c, 8, 38, 64
10, 106020, Note_on_c, 8, 38, 0
10, 106080, Note_on_c, 8, 38, 64
10, 106500, Note_on_c, 8, 38, 0
10, 106560, Note_on_c, 8, 31, 64
10, 106980, Note_on_c, 8, 31, 0
10, 107040, Note_on_c, 8, 43, 64
10, 107460, Note_on_c, 8, 43, 0
10, 107520, Note_on_c, 8, 31, 64
10, 107940, Note_on_c, 8, 31, 0
10, 108000, Note_on_c, 8, 44, 64
10, 108420, Note_on_c, 8, 44, 0
10, 108480, Note_on_c, 8, 41, 64
10, 108900, Note_on_c, 8, 41, 0
10, 108960, Note_on_c, 8, 38, 64
10, 109380, Note_on_c, 8, 38, 0
10, 109440, Note_on_c, 8, 39, 64
10, 109860, Note_on_c, 8, 39, 0
10, 110880, Note_on_c, 8, 46, 64
10, 111300, Note_on_c, 8, 46, 0
10, 111360, Note_on_c, 8, 43, 64
10, 111780, Note_on_c, 8, 43, 0
10, 111840, Note_on_c, 8, 40, 64
10, 112260, Note_on_c, 8, 40, 0
10, 112320, Note_on_c, 8, 41, 64
10, 112740, Note_on_c, 8, 41, 0
10, 113760, Note_on_c, 8, 48, 64
10, 114180, Note_on_c, 8, 48, 0
10, 114240, Note_on_c, 8, 45, 64
10, 114660, Note_on_c, 8, 45, 0
10, 114720, Note_on_c, 8, 42, 64
10, 115140, Note_on_c, 8, 42, 0
10, 115200, Note_on_c, 8, 43, 64
10, 115620, Note_on_c, 8, 43, 0
10, 116640, Note_on_c, 8, 43, 64
10, 116847, Note_on_c, 8, 43, 0
10, 116880, Note_on_c, 8, 43, 64
10, 117087, Note_on_c, 8, 43, 0
10, 117120, Note_on_c, 8, 43, 64
10, 117327, Note_on_c, 8, 43, 0
10, 117360, Note_on_c, 8, 43, 64
10, 117567, Note_on_c, 8, 43, 0
10, 117600, Note_on_c, 8, 43, 64
10, 117807, Note_on_c, 8, 43, 0
10, 117840, Note_on_c, 8, 43, 64
10, 118047, Note_on_c, 8, 43, 0
10, 118080, Note_on_c, 8, 45, 64
10, 118287, Note_on_c, 8, 45, 0
10, 118320, Note_on_c, 8, 45, 64
10, 118527, Note_on_c, 8, 45, 0
10, 118560, Note_on_c, 8, 45, 64
10, 118767, Note_on_c, 8, 45, 0
10, 118800, Note_on_c, 8, 45, 64
10, 119007, Note_on_c, 8, 45, 0
10, 119040, Note_on_c, 8, 45, 64
10, 119247, Note_on_c, 8, 45, 0
10, 119280, Note_on_c, 8, 45, 64
10, 119487, Note_on_c, 8, 45, 0
10, 119520, Note_on_c, 8, 46, 64
10, 119727, Note_on_c, 8, 46, 0
10, 119760, Note_on_c, 8, 46, 64
10, 119967, Note_on_c, 8, 46, 0
10, 120000, Note_on_c, 8, 46, 64
10, 120207, Note_on_c, 8, 46, 0
10, 120240, Note_on_c, 8, 46, 64
10, 120447, Note_on_c, 8, 46, 0
10, 120480, Note_on_c, 8, 46, 64
10, 120687, Note_on_c, 8, 46, 0
10, 120720, Note_on_c, 8, 46, 64
10, 120927, Note_on_c, 8, 46, 0
10, 120960, Note_on_c, 8, 48, 64
10, 121167, Note_on_c, 8, 48, 0
10, 121200, Note_on_c, 8, 48, 64
10, 121407, Note_on_c, 8, 48, 0
10, 121440, Note_on_c, 8, 48, 64
10, 121647, Note_on_c, 8, 48, 0
10, 121680, Note_on_c, 8, 48, 64
10, 121887, Note_on_c, 8, 48, 0
10, 121920, Note_on_c, 8, 48, 64
10, 122127, Note_on_c, 8, 48, 0
10, 122160, Note_on_c, 8, 48, 64
10, 122367, Note_on_c, 8, 48, 0
10, 122400, Note_on_c, 8, 46, 64
10, 122820, Note_on_c, 8, 46, 0
10, 122880, Note_on_c, 8, 45, 64
10, 123300, Note_on_c, 8, 45, 0
10, 123360, Note_on_c, 8, 43, 64
10, 123780, Note_on_c, 8, 43, 0
10, 123840, Note_on_c, 8, 42, 64
10, 124260, Note_on_c, 8, 42, 0
10, 124320, Note_on_c, 8, 39, 64
10, 124740, Note_on_c, 8, 39, 0
10, 124800, Note_on_c, 8, 38, 64
10, 125220, Note_on_c, 8, 38, 0
10, 125280, Note_on_c, 8, 36, 64
10, 125700, Note_on_c, 8, 36, 0
10, 125760, Note_on_c, 8, 38, 64
10, 126180, Note_on_c, 8, 38, 0
10, 126240, Note_on_c, 8, 38, 64
10, 126660, Note_on_c, 8, 38, 0
10, 126720, Note_on_c, 8, 31, 64
10, 127140, Note_on_c, 8, 31, 0
10, 127200, Note_on_c, 8, 43, 64
10, 127620, Note_on_c, 8, 43, 0
10, 127680, Note_on_c, 8, 31, 64
10, 128100, Note_on_c, 8, 31, 0
10, 128160, Note_on_c, 8, 46, 64
10, 128580, Note_on_c, 8, 46, 0
10, 128640, Note_on_c, 8, 50, 64
10, 129060, Note_on_c, 8, 50, 0
10, 129120, Note_on_c, 8, 46, 64
10, 129540, Note_on_c, 8, 46, 0
10, 129600, Note_on_c, 8, 48, 64
10, 130020, Note_on_c, 8, 48, 0
10, 130080, Note_on_c, 8, 43, 64
10, 130500, Note_on_c, 8, 43, 0
10, 130560, Note_on_c, 8, 45, 64
10, 130980, Note_on_c, 8, 45, 0
10, 131040, Note_on_c, 8, 46, 64
10, 131460, Note_on_c, 8, 46, 0
10, 131520, Note_on_c, 8, 43, 64
10, 131940, Note_on_c, 8, 43, 0
10, 132000, Note_on_c, 8, 39, 64
10, 132420, Note_on_c, 8, 39, 0
10, 132480, Note_on_c, 8, 41, 64
10, 132900, Note_on_c, 8, 41, 0
10, 132960, Note_on_c, 8, 41, 64
10, 133380, Note_on_c, 8, 41, 0
10, 133440, Note_on_c, 8, 39, 64
10, 133860, Note_on_c, 8, 39, 0
10, 133920, Note_on_c, 8, 38, 64
10, 134340, Note_on_c, 8, 38, 0
10, 134400, Note_on_c, 8, 50, 64
10, 134820, Note_on_c, 8, 50, 0
10, 134880, Note_on_c, 8, 46, 64
10, 135300, Note_on_c, 8, 46, 0
10, 135360, Note_on_c, 8, 48, 64
10, 135780, Note_on_c, 8, 48, 0
10, 135840, Note_on_c, 8, 43, 64
10, 136260, Note_on_c, 8, 43, 0
10, 136320, Note_on_c, 8, 45, 64
10, 136740, Note_on_c, 8, 45, 0
10, 136800, Note_on_c, 8, 46, 64
10, 137220, Note_on_c, 8, 46, 0
10, 137280, Note_on_c, 8, 41, 64
10, 137700, Note_on_c, 8, 41, 0
10, 137760, Note_on_c, 8, 29, 64
10, 138180, Note_on_c, 8, 29, 0
10, 138240, Note_on_c, 8, 34, 64
10, 138660, Note_on_c, 8, 34, 0
10, 138720, Note_on_c, 8, 41, 64
10, 139140, Note_on_c, 8, 41, 0
10, 139200, Note_on_c, 8, 46, 64
10, 139620, Note_on_c, 8, 46, 0
10, 139680, Note_on_c, 8, 46, 64
10, 140100, Note_on_c, 8, 46, 0
10, 140160, Note_on_c, 8, 50, 64
10, 140580, Note_on_c, 8, 50, 0
10, 140640, Note_on_c, 8, 46, 64
10, 141060, Note_on_c, 8, 46, 0
10, 141120, Note_on_c, 8, 48, 64
10, 141540, Note_on_c, 8, 48, 0
10, 141600, Note_on_c, 8, 45, 64
10, 142020, Note_on_c, 8, 45, 0
10, 142080, Note_on_c, 8, 41, 64
10, 142500, Note_on_c, 8, 41, 0
10, 142560, Note_on_c, 8, 46, 64
10, 142980, Note_on_c, 8, 46, 0
10, 143040, Note_on_c, 8, 39, 64
10, 143460, Note_on_c, 8, 39, 0
10, 143520, Note_on_c, 8, 39, 64
10, 143940, Note_on_c, 8, 39, 0
10, 144000, Note_on_c, 8, 41, 64
10, 144420, Note_on_c, 8, 41, 0
10, 144480, Note_on_c, 8, 29, 64
10, 144900, Note_on_c, 8, 29, 0
10, 144960, Note_on_c, 8, 41, 64
10, 145062, Note_on_c, 8, 41, 0
10, 145080, Note_on_c, 8, 39, 64
10, 145182, Note_on_c, 8, 39, 0
10, 145200, Note_on_c, 8, 38, 64
10, 145302, Note_on_c, 8, 38, 0
10, 145320, Note_on_c, 8, 36, 64
10, 145422, Note_on_c, 8, 36, 0
10, 145440, Note_on_c, 8, 34, 64
10, 145860, Note_on_c, 8, 34, 0
10, 145920, Note_on_c, 8, 50, 64
10, 146340, Note_on_c, 8, 50, 0
10, 146400, Note_on_c, 8, 46, 64
10, 146820, Note_on_c, 8, 46, 0
10, 146880, Note_on_c, 8, 48, 64
10, 147300, Note_on_c, 8, 48, 0
10, 147360, Note_on_c, 8, 45, 64
10, 147780, Note_on_c, 8, 45, 0
10, 147840, Note_on_c, 8, 41, 64
10, 148260, Note_on_c, 8, 41, 0
10, 148320, Note_on_c, 8, 46, 64
10, 148740, Note_on_c, 8, 46, 0
10, 148800, Note_on_c, 8, 39, 64
10, 149220, Note_on_c, 8, 39, 0
10, 149280, Note_on_c, 8, 41, 64
10, 149700, Note_on_c, 8, 41, 0
10, 149760, Note_on_c, 8, 46, 64
10, 149967, Note_on_c, 8, 46, 0
10, 150000, Note_on_c, 8, 45, 64
10, 150102, Note_on_c, 8, 45, 0
10, 150120, Note_on_c, 8, 43, 64
10, 150222, Note_on_c, 8, 43, 0
10, 150240, Note_on_c, 8, 41, 64
10, 150342, Note_on_c, 8, 41, 0
10, 150360, Note_on_c, 8, 39, 64
10, 150462, Note_on_c, 8, 39, 0
10, 150480, Note_on_c, 8, 38, 64
10, 150582, Note_on_c, 8, 38, 0
10, 150600, Note_on_c, 8, 36, 64
10, 150702, Note_on_c, 8, 36, 0
10, 150720, Note_on_c, 8, 34, 64
10, 151140, Note_on_c, 8, 34, 0
10, 151200, Note_on_c, 8, 34, 64
10, 151620, Note_on_c, 8, 34, 0
10, 151680, Note_on_c, 8, 46, 64
10, 152100, Note_on_c, 8, 46, 0
10, 152160, Note_on_c, 8, 38, 64
10, 152580, Note_on_c, 8, 38, 0
10, 152640, Note_on_c, 8, 39, 64
10, 153060, Note_on_c, 8, 39, 0
10, 154080, Note_on_c, 8, 40, 64
10, 154500, Note_on_c, 8, 40, 0
10, 154560, Note_on_c, 8, 48, 64
10, 154980, Note_on_c, 8, 48, 0
10, 155040, Note_on_c, 8, 40, 64
10, 155460, Note_on_c, 8, 40, 0
10, 155520, Note_on_c, 8, 41, 64
10, 155940, Note_on_c, 8, 41, 0
10, 156960, Note_on_c, 8, 41, 64
10, 157380, Note_on_c, 8, 41, 0
10, 158400, Note_on_c, 8, 29, 64
10, 158820, Note_on_c, 8, 29, 0
10, 159840, Note_on_c, 8, 41, 64
10, 160260, Note_on_c, 8, 41, 0
10, 161280, Note_on_c, 8, 29, 64
10, 161700, Note_on_c, 8, 29, 0
10, 162720, Note_on_c, 8, 41, 64
10, 163140, Note_on_c, 8, 41, 0
10, 164160, Note_on_c, 8, 29, 64
10, 164580, Note_on_c, 8, 29, 0
10, 165600, Note_on_c, 8, 46, 64
10, 166020, Note_on_c, 8, 46, 0
10, 166080, Note_on_c, 8, 50, 64
10, 166500, Note_on_c, 8, 50, 0
10, 166560, Note_on_c, 8, 46, 64
10, 166980, Note_on_c, 8, 46, 0
10, 167040, Note_on_c, 8, 48, 64
10, 167460, Note_on_c, 8, 48, 0
10, 167520, Note_on_c, 8, 45, 64
10, 167940, Note_on_c, 8, 45, 0
10, 168000, Note_on_c, 8, 41, 64
10, 168420, Note_on_c, 8, 41, 0
10, 168480, Note_on_c, 8, 46, 64
10, 168900, Note_on_c, 8, 46, 0
10, 168960, Note_on_c, 8, 43, 64
10, 169380, Note_on_c, 8, 43, 0
10, 169440, Note_on_c, 8, 39, 64
10, 169860, Note_on_c, 8, 39, 0
10, 169920, Note_on_c, 8, 41, 64
10, 170340, Note_on_c, 8, 41, 0
10, 170400, Note_on_c, 8, 41, 64
10, 170820, Note_on_c, 8, 41, 0
10, 170880, Note_on_c, 8, 39, 64
10, 171300, Note_on_c, 8, 39, 0
10, 171360, Note_on_c, 8, 38, 64
10, 171780, Note_on_c, 8, 38, 0
10, 171840, Note_on_c, 8, 50, 64
10, 172260, Note_on_c, 8, 50, 0
10, 172320, Note_on_c, 8, 46, 64
10, 172740, Note_on_c, 8, 46, 0
10, 172800, Note_on_c, 8, 48, 64
10, 173220, Note_on_c, 8, 48, 0
10, 173280, Note_on_c, 8, 45, 64
10, 173700, Note_on_c, 8, 45, 0
10, 173760, Note_on_c, 8, 41, 64
10, 174180, Note_on_c, 8, 41, 0
10, 174240, Note_on_c, 8, 46, 64
10, 174660, Note_on_c, 8, 46, 0
10, 174720, Note_on_c, 8, 38, 64
10, 175140, Note_on_c, 8, 38, 0
10, 175200, Note_on_c, 8, 41, 64
10, 175620, Note_on_c, 8, 41, 0
10, 175680, Note_on_c, 8, 46, 64
10, 176100, Note_on_c, 8, 46, 0
10, 176160, Note_on_c, 8, 34, 64
10, 176580, Note_on_c, 8, 34, 0
10, 177120, Note_on_c, 8, 41, 64
10, 177540, Note_on_c, 8, 41, 0
10, 177600, Note_on_c, 8, 41, 64
10, 178020, Note_on_c, 8, 41, 0
10, 178080, Note_on_c, 8, 41, 64
10, 178500, Note_on_c, 8, 41, 0
10, 178560, Note_on_c, 8, 41, 64
10, 178980, Note_on_c, 8, 41, 0
10, 179040, Note_on_c, 8, 41, 64
10, 179460, Note_on_c, 8, 41, 0
10, 179520, Note_on_c, 8, 41, 64
10, 179940, Note_on_c, 8, 41, 0
10, 180000, Note_on_c, 8, 46, 64
10, 180420, Note_on_c, 8, 46, 0
10, 180480, Note_on_c, 8, 46, 64
10, 180900, Note_on_c, 8, 46, 0
10, 180960, Note_on_c, 8, 46, 64
10, 181380, Note_on_c, 8, 46, 0
10, 181440, Note_on_c, 8, 46, 64
10, 181860, Note_on_c, 8, 46, 0
10, 181920, Note_on_c, 8, 46, 64
10, 182340, Note_on_c, 8, 46, 0
10, 182400, Note_on_c, 8, 46, 64
10, 182820, Note_on_c, 8, 46, 0
10, 182880, Note_on_c, 8, 46, 64
10, 183300, Note_on_c, 8, 46, 0
10, 183360, Note_on_c, 8, 50, 64
10, 183780, Note_on_c, 8, 50, 0
10, 183840, Note_on_c, 8, 46, 64
10, 184260, Note_on_c, 8, 46, 0
10, 184320, Note_on_c, 8, 48, 64
10, 184740, Note_on_c, 8, 48, 0
10, 184800, Note_on_c, 8, 45, 64
10, 185220, Note_on_c, 8, 45, 0
10, 185280, Note_on_c, 8, 41, 64
10, 185700, Note_on_c, 8, 41, 0
10, 185760, Note_on_c, 8, 46, 64
10, 186180, Note_on_c, 8, 46, 0
10, 186240, Note_on_c, 8, 43, 64
10, 186660, Note_on_c, 8, 43, 0
10, 186720, Note_on_c, 8, 39, 64
10, 187140, Note_on_c, 8, 39, 0
10, 187200, Note_on_c, 8, 41, 64
10, 187620, Note_on_c, 8, 41, 0
10, 187680, Note_on_c, 8, 41, 64
10, 188100, Note_on_c, 8, 41, 0
10, 188160, Note_on_c, 8, 39, 64
10, 188580, Note_on_c, 8, 39, 0
10, 188640, Note_on_c, 8, 38, 64
10, 189060, Note_on_c, 8, 38, 0
10, 189120, Note_on_c, 8, 50, 64
10, 189540, Note_on_c, 8, 50, 0
10, 189600, Note_on_c, 8, 46, 64
10, 190020, Note_on_c, 8, 46, 0
10, 190080, Note_on_c, 8, 48, 64
10, 190500, Note_on_c, 8, 48, 0
10, 190560, Note_on_c, 8, 45, 64
10, 190980, Note_on_c, 8, 45, 0
10, 191040, Note_on_c, 8, 41, 64
10, 191460, Note_on_c, 8, 41, 0
10, 191520, Note_on_c, 8, 46, 64
10, 191940, Note_on_c, 8, 46, 0
10, 192000, Note_on_c, 8, 41, 64
10, 192420, Note_on_c, 8, 41, 0
10, 192480, Note_on_c, 8, 29, 64
10, 192900, Note_on_c, 8, 29, 0
10, 192960, Note_on_c, 8, 34, 64
10, 193380, Note_on_c, 8, 34, 0
10, 193440, Note_on_c, 8, 50, 64
10, 193860, Note_on_c, 8, 50, 0
10, 193920, Note_on_c, 8, 46, 64
10, 194340, Note_on_c, 8, 46, 0
10, 194400, Note_on_c, 8, 48, 64
10, 194820, Note_on_c, 8, 48, 0
10, 194880, Note_on_c, 8, 45, 64
10, 195300, Note_on_c, 8, 45, 0
10, 195360, Note_on_c, 8, 41, 64
10, 195780, Note_on_c, 8, 41, 0
10, 195840, Note_on_c, 8, 46, 64
10, 196260, Note_on_c, 8, 46, 0
10, 196320, Note_on_c, 8, 50, 64
10, 196740, Note_on_c, 8, 50, 0
10, 196800, Note_on_c, 8, 46, 64
10, 197220, Note_on_c, 8, 46, 0
10, 197280, Note_on_c, 8, 48, 64
10, 197700, Note_on_c, 8, 48, 0
10, 197760, Note_on_c, 8, 45, 64
10, 198180, Note_on_c, 8, 45, 0
10, 198240, Note_on_c, 8, 41, 64
10, 198660, Note_on_c, 8, 41, 0
10, 198720, Note_on_c, 8, 46, 64
10, 198927, Note_on_c, 8, 46, 0
10, 199200, Note_on_c, 8, 38, 64
10, 199407, Note_on_c, 8, 38, 0
10, 199680, Note_on_c, 8, 38, 64
10, 199887, Note_on_c, 8, 38, 0
10, 200160, Note_on_c, 8, 39, 64
10, 201540, Note_on_c, 8, 39, 0
10, 201600, Note_on_c, 8, 41, 64
10, 201807, Note_on_c, 8, 41, 0
10, 201840, Note_on_c, 8, 41, 64
10, 202047, Note_on_c, 8, 41, 0
10, 202080, Note_on_c, 8, 41, 64
10, 202287, Note_on_c, 8, 41, 0
10, 202320, Note_on_c, 8, 41, 64
10, 202527, Note_on_c, 8, 41, 0
10, 202560, Note_on_c, 8, 39, 64
10, 202767, Note_on_c, 8, 39, 0
10, 202800, Note_on_c, 8, 39, 64
10, 203007, Note_on_c, 8, 39, 0
10, 203040, Note_on_c, 8, 38, 64
10, 203247, Note_on_c, 8, 38, 0
10, 203520, Note_on_c, 8, 38, 64
10, 203727, Note_on_c, 8, 38, 0
10, 204000, Note_on_c, 8, 38, 64
10, 204207, Note_on_c, 8, 38, 0
10, 204480, Note_on_c, 8, 39, 64
10, 205860, Note_on_c, 8, 39, 0
10, 207360, Note_on_c, 8, 41, 64
10, 207567, Note_on_c, 8, 41, 0
10, 207600, Note_on_c, 8, 41, 64
10, 207807, Note_on_c, 8, 41, 0
10, 207840, Note_on_c, 8, 41, 64
10, 208047, Note_on_c, 8, 41, 0
10, 208080, Note_on_c, 8, 41, 64
10, 208287, Note_on_c, 8, 41, 0
10, 208320, Note_on_c, 8, 41, 64
10, 208527, Note_on_c, 8, 41, 0
10, 208560, Note_on_c, 8, 41, 64
10, 208767, Note_on_c, 8, 41, 0
10, 208800, Note_on_c, 8, 29, 64
10, 209007, Note_on_c, 8, 29, 0
10, 209040, Note_on_c, 8, 29, 64
10, 209247, Note_on_c, 8, 29, 0
10, 209280, Note_on_c, 8, 29, 64
10, 209487, Note_on_c, 8, 29, 0
10, 209520, Note_on_c, 8, 29, 64
10, 209727, Note_on_c, 8, 29, 0
10, 209760, Note_on_c, 8, 29, 64
10, 209967, Note_on_c, 8, 29, 0
10, 210000, Note_on_c, 8, 29, 64
10, 210207, Note_on_c, 8, 29, 0
10, 210240, Note_on_c, 8, 46, 64
10, 210660, Note_on_c, 8, 46, 0
10, 210720, Note_on_c, 8, 50, 64
10, 211140, Note_on_c, 8, 50, 0
10, 211200, Note_on_c, 8, 46, 64
10, 211620, Note_on_c, 8, 46, 0
10, 211680, Note_on_c, 8, 48, 64
10, 212100, Note_on_c, 8, 48, 0
10, 212160, Note_on_c, 8, 43, 64
10, 212580, Note_on_c, 8, 43, 0
10, 212640, Note_on_c, 8, 45, 64
10, 213060, Note_on_c, 8, 45, 0
10, 213120, Note_on_c, 8, 46, 64
10, 213540, Note_on_c, 8, 46, 0
10, 213600, Note_on_c, 8, 43, 64
10, 214020, Note_on_c, 8, 43, 0
10, 214080, Note_on_c, 8, 39, 64
10, 214500, Note_on_c, 8, 39, 0
10, 214560, Note_on_c, 8, 41, 64
10, 214980, Note_on_c, 8, 41, 0
10, 215040, Note_on_c, 8, 41, 64
10, 215460, Note_on_c, 8, 41, 0
10, 215520, Note_on_c, 8, 39, 64
10, 215940, Note_on_c, 8, 39, 0
10, 216000, Note_on_c, 8, 38, 64
10, 216420, Note_on_c, 8, 38, 0
10, 216480, Note_on_c, 8, 50, 64
10, 216900, Note_on_c, 8, 50, 0
10, 216960, Note_on_c, 8, 46, 64
10, 217380, Note_on_c, 8, 46, 0
10, 217440, Note_on_c, 8, 48, 64
10, 217860, Note_on_c, 8, 48, 0
10, 217920, Note_on_c, 8, 43, 64
10, 218340, Note_on_c, 8, 43, 0
10, 218400, Note_on_c, 8, 45, 64
10, 218820, Note_on_c, 8, 45, 0
10, 218880, Note_on_c, 8, 46, 64
10, 219300, Note_on_c, 8, 46, 0
10, 219360, Note_on_c, 8, 41, 64
10, 219780, Note_on_c, 8, 41, 0
10, 219840, Note_on_c, 8, 29, 64
10, 220260, Note_on_c, 8, 29, 0
10, 220320, Note_on_c, 8, 38, 64
10, 220527, Note_on_c, 8, 38, 0
10, 220560, Note_on_c, 8, 38, 64
10, 220767, Note_on_c, 8, 38, 0
10, 220800, Note_on_c, 8, 38, 64
10, 221007, Note_on_c, 8, 38, 0
10, 221040, Note_on_c, 8, 38, 64
10, 221247, Note_on_c, 8, 38, 0
10, 221280, Note_on_c, 8, 38, 64
10, 221487, Note_on_c, 8, 38, 0
10, 221520, Note_on_c, 8, 38, 64
10, 221727, Note_on_c, 8, 38, 0
10, 221760, Note_on_c, 8, 39, 64
10, 221967, Note_on_c, 8, 39, 0
10, 222000, Note_on_c, 8, 39, 64
10, 222207, Note_on_c, 8, 39, 0
10, 222240, Note_on_c, 8, 41, 64
10, 222447, Note_on_c, 8, 41, 0
10, 222480, Note_on_c, 8, 41, 64
10, 222687, Note_on_c, 8, 41, 0
10, 222720, Note_on_c, 8, 39, 64
10, 222927, Note_on_c, 8, 39, 0
10, 222960, Note_on_c, 8, 39, 64
10, 223167, Note_on_c, 8, 39, 0
10, 223200, Note_on_c, 8, 38, 64
10, 223407, Note_on_c, 8, 38, 0
10, 223440, Note_on_c, 8, 38, 64
10, 223647, Note_on_c, 8, 38, 0
10, 223680, Note_on_c, 8, 38, 64
10, 223887, Note_on_c, 8, 38, 0
10, 223920, Note_on_c, 8, 38, 64
10, 224127, Note_on_c, 8, 38, 0
10, 224160, Note_on_c, 8, 38, 64
10, 224367, Note_on_c, 8, 38, 0
10, 224400, Note_on_c, 8, 38, 64
10, 224607, Note_on_c, 8, 38, 0
10, 224640, Note_on_c, 8, 39, 64
10, 224847, Note_on_c, 8, 39, 0
10, 224880, Note_on_c, 8, 39, 64
10, 225087, Note_on_c, 8, 39, 0
10, 225120, Note_on_c, 8, 41, 64
10, 225327, Note_on_c, 8, 41, 0
10, 225360, Note_on_c, 8, 41, 64
10, 225567, Note_on_c, 8, 41, 0
10, 225600, Note_on_c, 8, 29, 64
10, 225807, Note_on_c, 8, 29, 0
10, 225840, Note_on_c, 8, 29, 64
10, 226047, Note_on_c, 8, 29, 0
10, 226080, Note_on_c, 8, 34, 64
10, 226287, Note_on_c, 8, 34, 0
10, 226320, Note_on_c, 8, 34, 64
10, 226527, Note_on_c, 8, 34, 0
10, 226560, Note_on_c, 8, 38, 64
10, 226767, Note_on_c, 8, 38, 0
10, 226800, Note_on_c, 8, 34, 64
10, 227007, Note_on_c, 8, 34, 0
10, 227040, Note_on_c, 8, 38, 64
10, 227247, Note_on_c, 8, 38, 0
10, 227280, Note_on_c, 8, 41, 64
10, 227487, Note_on_c, 8, 41, 0
10, 227520, Note_on_c, 8, 46, 64
10, 227940, Note_on_c, 8, 46, 0
10, 228000, Note_on_c, 8, 34, 64
10, 228420, Note_on_c, 8, 34, 0
10, 228420, End_track
11, 0, Start_track
11, 0, Title_t, "Mozart Concerto K.191 (1774)"
11, 0, Control_c, 0, 91, 0
11, 0, Control_c, 0, 93, 0
11, 0, End_track
12, 0, Start_track
12, 0, Title_t, "  for Bassoon & Orch."
12, 0, Control_c, 0, 91, 0
12, 0, Control_c, 0, 93, 0
12, 0, End_track
13, 0, Start_track
13, 0, Title_t, "  Sequenced by Randy and Yuko  Reid"
13, 0, Control_c, 0, 91, 0
13, 0, Control_c, 0, 93, 0
13, 0, End_track
14, 0, Start_track
14, 0, Title_t, "  troppo@msn.com"
14, 0, Control_c, 0, 91, 0
14, 0, Control_c, 0, 93, 0
14, 0, End_track
15, 0, Start_track
15, 0, Title_t, "Console Automation Data"
15, 0, Control_c, 1, 93, 64
15, 0, Control_c, 1, 92, 0
15, 0, Control_c, 1, 96, 64
15, 0, Control_c, 1, 95, 127
15, 0, Control_c, 1, 40, 103
15, 0, Control_c, 0, 40, 103
15, 0, Control_c, 0, 93, 64
15, 0, Control_c, 0, 92, 0
15, 0, Control_c, 0, 96, 64
15, 0, Control_c, 0, 95, 127
15, 0, End_track
0, 0, End_of_file